v 0.762526 -0.15329 0.618601
v 0.756177 -0.124608 0.604548
v 0.806851 -0.124966 0.581279
v 0.814225 -0.154486 0.596138
v 0.756217 -0.110644 0.605989
v 0.80642 -0.110786 0.582618
v 0.846438 -0.11125 0.567228
v 0.847213 -0.125554 0.566037
v 0.855208 -0.15552 0.581823
v 0.756324 -0.0940672 0.604991
v 0.805918 -0.0929784 0.580674
v 0.806581 -0.101069 0.583078
v 0.75652 -0.101194 0.606591
v 0.84924 -0.083155 0.560802
v 0.846779 -0.100545 0.567312
v 0.863427 -0.0807645 0.559244
v 0.864165 -0.100168 0.563616
v 0.866453 -0.0804218 0.562594
v 0.868183 -0.100054 0.566622
v 0.86857 -0.111388 0.566298
v 0.864318 -0.111431 0.563365
v 0.865234 -0.125756 0.562182
v 0.873392 -0.155787 0.578133
v 0.869506 -0.125675 0.565026
v 0.877568 -0.15556 0.580622
v 0.646711 -0.0847843 0.673565
v 0.66279 -0.0822534 0.659577
v 0.66453 -0.101914 0.662479
v 0.647824 -0.104992 0.676927
v 0.676582 -0.0840938 0.651325
v 0.679962 -0.101619 0.651993
v 0.679832 -0.112201 0.651287
v 0.6642 -0.113014 0.662077
v 0.647413 -0.115918 0.676613
v 0.649802 -0.153271 0.690298
v 0.646354 -0.128662 0.675574
v 0.663151 -0.126307 0.661002
v 0.666752 -0.152308 0.675972
v 0.67894 -0.125669 0.650126
v 0.683004 -0.152278 0.664867
v 0.711824 -0.0935533 0.630763
v 0.711609 -0.101679 0.632023
v 0.711189 -0.111319 0.631363
v 0.710663 -0.125012 0.630026
v 0.715762 -0.152578 0.64422
v 0.747262 -0.302207 0.878482
v 0.746777 -0.295027 0.872033
v 0.788204 -0.305181 0.84669
v 0.789073 -0.312836 0.85297
v 0.741425 -0.287177 0.854022
v 0.782055 -0.296391 0.829095
v 0.8379 -0.306882 0.803056
v 0.844925 -0.316602 0.820588
v 0.846208 -0.324702 0.82681
v 0.707651 -0.289229 0.902664
v 0.707575 -0.282679 0.896183
v 0.726409 -0.289605 0.884998
v 0.72663 -0.296491 0.891529
v 0.702931 -0.275712 0.878179
v 0.721514 -0.282259 0.866803
v 0.950665 -0.336435 0.808853
v 0.948829 -0.328164 0.802197
v 0.967642 -0.32841 0.80048
v 0.969532 -0.336633 0.807167
v 0.940803 -0.317931 0.783149
v 0.959561 -0.318241 0.781267
v 0.962693 -0.316756 0.780746
v 0.970667 -0.326811 0.799689
v 0.972521 -0.334981 0.806267
v 0.903969 -0.324461 0.806825
v 0.905594 -0.332737 0.813247
v 0.896293 -0.314299 0.788581
v 0.714093 -0.243285 0.766071
v 0.696325 -0.197275 0.708619
v 0.731026 -0.199633 0.686929
v 0.751127 -0.248251 0.743118
v 0.780055 -0.202731 0.661202
v 0.802848 -0.254288 0.717294
v 0.678064 -0.236251 0.790638
v 0.661849 -0.194409 0.733672
v 0.679183 -0.196055 0.720122
v 0.695879 -0.240564 0.778055
v 0.901159 -0.262153 0.689703
v 0.875363 -0.207636 0.6285
v 0.893721 -0.208027 0.625232
v 0.919683 -0.262623 0.686978
v 0.897659 -0.207488 0.626969
v 0.923314 -0.261703 0.687801
v 0.833457 -0.205686 0.64067
v 0.858222 -0.259254 0.699189
v 0.69353 3.46756e-06 0.63158
v 0.718452 4.0077e-06 0.61211
v 0.7198 -0.0349292 0.614513
v 0.695665 -0.0354521 0.633285
v 0.75309 4.73615e-06 0.587996
v 0.754294 -0.0347712 0.59055
v 0.756126 -0.0621514 0.595327
v 0.721543 -0.0616212 0.619104
v 0.701359 -0.0574239 0.633512
v 0.643416 2.44127e-06 0.664662
v 0.65792 2.77065e-06 0.651529
v 0.65952 -0.0459103 0.654519
v 0.644612 -0.0475507 0.66785
v 0.662716 2.85923e-06 0.649283
v 0.665166 -0.0453497 0.651598
v 0.858164 6.69869e-06 0.543926
v 0.860502 6.70215e-06 0.547771
v 0.861807 -0.0450587 0.551773
v 0.858222 -0.0447771 0.54832
v 0.861554 6.68644e-06 0.551645
v 0.863343 -0.0450073 0.555585
v 0.792743 5.53215e-06 0.564502
v 0.793704 -0.0347287 0.567143
v 0.825553 6.1764e-06 0.546947
v 0.825385 -0.0351053 0.55011
v 0.820858 -0.0569166 0.556856
v 0.795295 -0.0612756 0.5718
v 0.823316 -0.288445 0.767473
v 0.880445 -0.294931 0.751504
v 0.924296 -0.298359 0.744397
v 0.942957 -0.298774 0.742163
v 0.946301 -0.297522 0.742194
v 0.692654 -0.262529 0.841779
v 0.710896 -0.268389 0.829946
v 0.730074 -0.272396 0.817508
v 0.769193 -0.279802 0.793411
v 0.613792 -0.112515 0.707673
v 0.613153 -0.0915994 0.70443
v 0.613362 -0.122819 0.707345
v 0.56793 -0.13215 0.748459
v 0.568388 -0.12269 0.748813
v 0.568416 -0.100816 0.745782
v 0.627091 -0.190832 0.761721
v 0.615612 -0.155667 0.720402
v 0.64257 -0.226662 0.816134
v 0.595247 -0.213733 0.850172
v 0.580739 -0.186015 0.79921
v 0.570007 -0.158916 0.760668
v 0.656526 -0.249643 0.865263
v 0.666354 -0.261546 0.900407
v 0.617632 -0.242482 0.930023
v 0.60837 -0.232278 0.896582
v 0.612115 -0.0515778 0.698808
v 0.611561 1.70037e-06 0.695654
v 0.56887 -0.0570239 0.74039
v 0.569217 7.09578e-07 0.737342
v 0.670759 -0.267878 0.917849
v 0.670784 -0.273807 0.924156
v 0.621808 -0.253116 0.952765
v 0.621786 -0.247995 0.946701
v 0.612346 -0.13427 0.706362
v 0.566975 -0.141857 0.747553
v 0.762521 0.152981 0.618604
v 0.81422 0.154015 0.596141
v 0.806847 0.124917 0.581281
v 0.756173 0.124577 0.60455
v 0.855203 0.154917 0.581825
v 0.847209 0.12549 0.566039
v 0.846435 0.111262 0.56723
v 0.806416 0.110797 0.58262
v 0.756214 0.110653 0.605991
v 0.756321 0.0940765 0.604993
v 0.756517 0.101203 0.606592
v 0.806578 0.10108 0.58308
v 0.805915 0.0929896 0.580675
v 0.846776 0.100557 0.567314
v 0.849238 0.0831678 0.560803
v 0.864161 0.100182 0.563617
v 0.863425 0.0807778 0.559245
v 0.864315 0.111444 0.563367
v 0.868566 0.111402 0.5663
v 0.86818 0.100067 0.566623
v 0.866451 0.0804351 0.562595
v 0.873387 0.155126 0.578135
v 0.86523 0.125685 0.562184
v 0.877563 0.154887 0.580625
v 0.869502 0.125603 0.565028
v 0.646709 0.0847891 0.673567
v 0.64782 0.104996 0.676929
v 0.664527 0.10192 0.662481
v 0.662788 0.082259 0.659579
v 0.64741 0.115923 0.676614
v 0.664196 0.113019 0.662079
v 0.679829 0.112207 0.651288
v 0.679959 0.101625 0.651995
v 0.676579 0.0840999 0.651326
v 0.649797 0.153247 0.6903
v 0.666748 0.15227 0.675974
v 0.663147 0.126307 0.661004
v 0.64635 0.128663 0.675576
v 0.683 0.1522 0.66487
v 0.678936 0.125665 0.650128
v 0.711605 0.101686 0.632025
v 0.711822 0.0935609 0.630765
v 0.711185 0.111327 0.631365
v 0.715757 0.152408 0.644222
v 0.710659 0.124998 0.630028
v 0.747253 0.304401 0.878487
v 0.789063 0.312503 0.852975
v 0.788194 0.304582 0.846695
v 0.746768 0.296792 0.872038
v 0.846198 0.321967 0.826816
v 0.844915 0.313733 0.820593
v 0.837891 0.304055 0.803061
v 0.782046 0.295574 0.8291
v 0.741416 0.28839 0.854026
v 0.707642 0.293271 0.902669
v 0.726621 0.299937 0.891534
v 0.7264 0.292539 0.885003
v 0.707566 0.286181 0.896188
v 0.721505 0.284469 0.866808
v 0.702923 0.278405 0.878184
v 0.950655 0.332879 0.808858
v 0.969522 0.333146 0.807172
v 0.967632 0.324693 0.800485
v 0.948819 0.324406 0.802202
v 0.972511 0.331471 0.806272
v 0.970657 0.323075 0.799695
v 0.962683 0.312801 0.780752
v 0.959551 0.314311 0.781272
v 0.940793 0.314033 0.783154
v 0.905584 0.329129 0.813253
v 0.903959 0.320715 0.806831
v 0.896283 0.310566 0.788586
v 0.714086 0.243186 0.766074
v 0.75112 0.247399 0.743122
v 0.73102 0.199111 0.686932
v 0.696319 0.197068 0.708622
v 0.80284 0.252508 0.717298
v 0.780049 0.201761 0.661206
v 0.678057 0.236655 0.790642
v 0.695872 0.240814 0.778059
v 0.679177 0.195987 0.720125
v 0.661843 0.194397 0.733675
v 0.901151 0.259023 0.689708
v 0.919675 0.259262 0.686982
v 0.893715 0.206016 0.625235
v 0.875356 0.205793 0.628504
v 0.923306 0.258292 0.687806
v 0.897652 0.205442 0.626973
v 0.858214 0.256668 0.699193
v 0.83345 0.204226 0.640674
v 0.695664 0.035459 0.633286
v 0.719799 0.0349372 0.614513
v 0.701357 0.0574311 0.633513
v 0.721541 0.0616292 0.619105
v 0.756124 0.0621609 0.595328
v 0.754293 0.0347807 0.59055
v 0.644611 0.0475556 0.66785
v 0.659519 0.0459159 0.65452
v 0.665164 0.0453555 0.651599
v 0.85822 0.0447904 0.548321
v 0.861806 0.0450721 0.551773
v 0.863342 0.0450207 0.555586
v 0.793703 0.0347397 0.567144
v 0.795293 0.0612866 0.571801
v 0.820856 0.0569286 0.556857
v 0.825384 0.0351176 0.550111
v 0.880436 0.291563 0.751509
v 0.823307 0.285998 0.767478
v 0.924287 0.294578 0.744402
v 0.942948 0.294837 0.742168
v 0.946292 0.293542 0.742199
v 0.710888 0.269547 0.82995
v 0.692646 0.264009 0.841783
v 0.730066 0.272874 0.817512
v 0.769185 0.278868 0.793415
v 0.61315 0.0916027 0.704432
v 0.613788 0.112519 0.707675
v 0.568413 0.100817 0.745784
v 0.568384 0.122691 0.748815
v 0.567926 0.132151 0.748461
v 0.613358 0.122822 0.707347
v 0.615607 0.155662 0.720405
v 0.627086 0.190893 0.761725
v 0.570002 0.158935 0.76067
v 0.580733 0.18617 0.799213
v 0.59524 0.214625 0.850175
v 0.642563 0.227279 0.816138
v 0.656518 0.251582 0.865268
v 0.608362 0.23481 0.896586
v 0.617625 0.246772 0.930027
v 0.666345 0.264937 0.900411
v 0.612114 0.0515811 0.698809
v 0.568869 0.0570253 0.740391
v 0.670751 0.272194 0.917854
v 0.621779 0.253355 0.946706
v 0.6218 0.259067 0.952769
v 0.670776 0.278686 0.92416
v 0.612342 0.134273 0.706365
v 0.566971 0.141861 0.747555
v 0.834834 -0.0703583 0.554825
v 0.847563 -0.0405481 0.542248
v 0.852939 -0.0428579 0.544732
v 0.839947 -0.0747966 0.55751
v 0.848458 6.60119e-06 0.538125
v 0.85375 6.66218e-06 0.540348
v 0.67259 3.02017e-06 0.647324
v 0.67569 -0.0410373 0.648862
v 0.670156 -0.0433845 0.650628
v 0.667113 2.92661e-06 0.648906
v 0.689019 -0.0710678 0.645129
v 0.683884 -0.0755692 0.647291
v 0.716833 -0.0828232 0.627286
v 0.71398 -0.0876788 0.629166
v 0.756243 -0.084018 0.601213
v 0.756145 -0.0888252 0.603135
v 0.800534 -0.0823358 0.575496
v 0.803226 -0.0871536 0.577882
v 0.847562 0.0405612 0.542249
v 0.852938 0.0428711 0.544732
v 0.834832 0.0703708 0.554827
v 0.839945 0.0748092 0.557511
v 0.689017 0.0710743 0.645131
v 0.675689 0.0410434 0.648862
v 0.670154 0.0433904 0.650628
v 0.683881 0.0755756 0.647292
v 0.756241 0.0840273 0.601215
v 0.716831 0.0828309 0.627288
v 0.713977 0.0876864 0.629167
v 0.756142 0.0888345 0.603136
v 0.800531 0.0823469 0.575497
v 0.803223 0.0871648 0.577884
v 0.841158 -0.0377676 0.542824
v 0.829631 -0.0649112 0.554407
v 0.841923 6.49322e-06 0.539055
v 0.682604 -0.0382075 0.644093
v 0.679752 3.16656e-06 0.642623
v 0.694567 -0.0655457 0.640689
v 0.719824 -0.0760538 0.623956
v 0.756575 -0.0770996 0.598873
v 0.798119 -0.0756155 0.573935
v 0.841157 0.0377805 0.542825
v 0.829629 0.0649235 0.554408
v 0.682603 0.0382139 0.644093
v 0.694565 0.0655525 0.640691
v 0.719822 0.0760617 0.623958
v 0.756573 0.077109 0.598875
v 0.798116 0.0756266 0.573937
vt 0.3478 0.5288
vt 0.305 0.4653
vt 0.03351 0.5131
vt 0.337 0.452
vt 0.05799 0.6536
vt 0.2028 0.6071
vt 0.0677 0.6243
vt 0.3037 0.4575
vt 0.06355 0.6494
vt 0.2243 0.6025
vt 0.05383 0.5025
vt 0.03535 0.5213
vt 0.3724 0.4445
vt 0.2133 0.6089
vt 0.3383 0.46
vt 0.06177 0.4944
vt 0.03495 0.5018
vt 0.3069 0.5139
vt 0.05234 0.4972
vt 0.06833 0.6457
vt 0.1998 0.4787
vt 0.02019 0.5062
vt 0.3726 0.4464
vt 0.337 0.452
vt 0.3786 0.4998
vt 0.342 0.5058
vt 0.04793 0.5032
vt 0.04625 0.4997
vt 0.05748 0.5013
vt 0.2136 0.6105
vt 0.2204 0.4727
vt 0.09023 0.6505
vt 0.05613 0.4957
vt 0.05604 0.6307
vt 0.05136 0.6342
vt 0.337 0.452
vt 0.03495 0.5018
vt 0.07425 0.4917
vt 0.3037 0.4575
vt 0.342 0.5058
vt 0.04625 0.4997
vt 0.04376 0.6914
vt 0.2207 0.4744
vt 0.05738 0.6816
vt 0.3383 0.46
vt 0.06055 0.6518
vt 0.1995 0.477
vt 0.04376 0.6914
vt 0.201 0.4857
vt 0.04845 0.6365
vt 0.337 0.452
vt 0.06055 0.6518
vt 0.3368 0.4501
vt 0.06055 0.6518
vt 0.0777 0.657
vt 0.05262 0.4981
vt 0.04463 0.6921
vt 0.06177 0.4944
vt 0.06355 0.6494
vt 0.3726 0.4464
vt 0.07281 0.6609
vt 0.1815 0.4817
vt 0.05841 0.6826
vt 0.1889 0.4878
vt 0.06958 0.6638
vt 0.3368 0.4501
vt 0.07281 0.6609
vt 0.1826 0.4886
vt 0.0805 0.6393
vt 0.05738 0.6816
vt 0.1998 0.4787
vt 0.3035 0.4557
vt 0.2068 0.5822
vt 0.1826 0.4886
vt 0.05738 0.6816
vt 0.1941 0.5236
vt 0.1849 0.504
vt 0.2194 0.5961
vt 0.2395 0.5866
vt 0.1911 0.5032
vt 0.05841 0.6826
vt 0.1879 0.5246
vt 0.2283 0.5718
vt 0.2033 0.5012
vt 0.06922 0.6751
vt 0.1849 0.504
vt 0.1889 0.4878
vt 0.2283 0.5718
vt 0.06798 0.6736
vt 0.1911 0.5032
vt 0.1951 0.5895
vt 0.1998 0.4787
vt 0.05611 0.6804
vt 0.1041 0.6292
vt 0.07719 0.6663
vt 0.05234 0.4972
vt 0.1772 0.5716
vt 0.1146 0.6408
vt 0.3146 0.5368
vt 0.07515 0.671
vt 0.0564 0.4967
vt 0.05738 0.6816
vt 0.06149 0.4933
vt 0.06958 0.6638
vt 0.04625 0.4997
vt 0.07515 0.671
vt 0.1878 0.4808
vt 0.06798 0.6736
vt 0.2082 0.6029
vt 0.07864 0.6681
vt 0.06177 0.4944
vt 0.1951 0.5895
vt 0.06505 0.6686
vt 0.1772 0.5716
vt 0.1325 0.6177
vt 0.3828 0.5223
vt 0.144 0.6298
vt 0.2064 0.5216
vt 0.0283 0.6515
vt 0.2033 0.5012
vt 0.03831 0.664
vt 0.1911 0.5032
vt 0.248 0.4763
vt 0.04631 0.6581
vt 0.1941 0.5236
vt 0.03653 0.6453
vt 0.4823 0.4871
vt 0.3415 0.4777
vt 0.3769 0.4729
vt 0.4699 0.4337
vt 0.2278 0.5183
vt 0.4572 0.4347
vt 0.4833 0.5096
vt 0.3811 0.497
vt 0.3458 0.5013
vt 0.4581 0.4437
vt 0.305 0.4653
vt 0.4572 0.4347
vt 0.4837 0.5261
vt 0.0572 0.527
vt 0.457 0.4323
vt 0.3082 0.4826
vt 0.4833 0.5096
vt 0.05957 0.5264
vt 0.3739 0.4546
vt 0.2133 0.6089
vt 0.4755 0.5096
vt 0.05383 0.5025
vt 0.4699 0.4337
vt 0.2546 0.5141
vt 0.476 0.5261
vt 0.2509 0.4926
vt 0.06505 0.6686
vt 0.1706 0.505
vt 0.4807 0.4625
vt 0.1849 0.504
vt 0.3864 0.5477
vt 0.4465 0.5284
vt 0.4371 0.4369
vt 0.05646 0.5128
vt 0.3532 0.5545
vt 0.2245 0.6042
vt 0.4614 0.4875
vt 0.4823 0.4871
vt 0.1879 0.5246
vt 0.1798 0.5045
vt 0.2133 0.6089
vt 0.4793 0.4428
vt 0.1826 0.4886
vt 0.07535 0.497
vt 0.2194 0.5961
vt 0.176 0.4809
vt 0.06958 0.6638
vt 0.168 0.49
vt 0.4707 0.4431
vt 0.3527 0.5573
vt 0.1774 0.4892
vt 0.07373 0.6692
vt 0.1763 0.4824
vt 0.4899 0.5345
vt 0.1831 0.5249
vt 0.2438 0.5933
vt 0.1669 0.4834
vt 0.2438 0.5933
vt 0.08103 0.5246
vt 0.2136 0.6105
vt 0.3532 0.5545
vt 0.168 0.49
vt 0.4837 0.5345
vt 0.1826 0.4886
vt 0.3859 0.5507
vt 0.1798 0.5045
vt 0.4837 0.5345
vt 0.1798 0.5045
vt 0.4755 0.5096
vt 0.1774 0.4892
vt 0.4837 0.5345
vt 0.3856 0.5394
vt 0.4755 0.5096
vt 0.476 0.5261
vt 0.476 0.5261
vt 0.3201 0.5542
vt 0.4281 0.4918
vt 0.3527 0.5573
vt 0.4442 0.512
vt 0.3216 0.5649
vt 0.2243 0.6025
vt 0.1669 0.4834
vt 0.476 0.5345
vt 0.1667 0.482
vt 0.4648 0.5264
vt 0.322 0.5623
vt 0.2438 0.5933
vt 0.06524 0.5104
vt 0.4835 0.5381
vt 0.05982 0.5118
vt 0.2245 0.6042
vt 0.06524 0.5104
vt 0.3532 0.5545
vt 0.4639 0.5099
vt 0.3532 0.5545
vt 0.05982 0.5118
vt 0.4837 0.5345
vt 0.4442 0.512
vt 0.476 0.5345
vt 0.101 0.5076
vt 0.476 0.5345
vt 0.1897 0.594
vt 0.4647 0.5348
vt 0.1851 0.5967
vt 0.4642 0.5383
vt 0.09844 0.4949
vt 0.4757 0.538
vt 0.1981 0.6097
vt 0.09642 0.6573
vt 0.126 0.4929
vt 0.4862 0.4425
vt 0.1887 0.6133
vt 0.4757 0.538
vt 0.1981 0.6097
vt 0.2028 0.6071
vt 0.4857 0.4326
vt 0.02393 0.5243
vt 0.4787 0.4331
vt 0.06798 0.6736
vt 0.03535 0.5213
vt 0.1951 0.5895
vt 0.1849 0.504
vt 0.1774 0.4892
vt 0.4793 0.4428
vt 0.1742 0.525
vt 0.05957 0.5264
vt 0.4857 0.4326
vt 0.1774 0.4892
vt 0.4855 0.4296
vt 0.03351 0.5131
vt 0.06798 0.6736
vt 0.02186 0.5158
vt 0.2785 0.4876
vt 0.07779 0.5089
vt 0.1286 0.5066
vt 0.3082 0.4826
vt 0.09844 0.4949
vt 0.2754 0.4708
vt 0.101 0.5076
vt 0.07535 0.497
vt 0.248 0.4763
vt 0.1489 0.6353
vt 0.3082 0.4826
vt 0.2194 0.5961
vt 0.07399 0.4905
vt 0.4648 0.5264
vt 0.1194 0.646
vt 0.09023 0.6505
vt 0.2785 0.4876
vt 0.4459 0.5401
vt 0.1249 0.4868
vt 0.2079 0.613
vt 0.1146 0.6408
vt 0.2741 0.4632
vt 0.09733 0.4891
vt 0.4464 0.5367
vt 0.1207 0.6475
vt 0.3037 0.4575
vt 0.09733 0.4891
vt 0.2739 0.4614
vt 0.07425 0.4917
vt 0.4642 0.5383
vt 0.09486 0.6557
vt 0.2465 0.4671
vt 0.1249 0.4868
vt 0.1895 0.5636
vt 0.1489 0.6353
vt 0.2741 0.4632
vt 0.09014 0.6138
vt 0.2079 0.613
vt 0.0677 0.6243
vt 0.2083 0.6145
vt 0.1194 0.646
vt 0.2468 0.4689
vt 0.0805 0.6393
vt 0.2068 0.5822
vt 0.1041 0.6292
vt 0.1207 0.6475
vt 0.248 0.4763
vt 0.3478 0.5288
vt 0.1041 0.6292
vt 0.1499 0.6368
vt 0.2754 0.4708
vt 0.1172 0.6016
vt 0.3037 0.4575
vt 0.1718 0.5765
vt 0.0805 0.6393
vt 0.1897 0.594
vt 0.09014 0.6138
vt 0.2741 0.4632
vt 0.09023 0.6505
vt 0.06922 0.6751
vt 0.1041 0.6292
vt 0.2754 0.4708
vt 0.1146 0.6408
vt 0.1325 0.6177
vt 0.305 0.4653
vt 0.3201 0.5542
vt 0.02393 0.5243
vt 0.02658 0.5352
vt 0.2916 0.5642
vt 0.03788 0.5321
vt 0.03535 0.5213
vt 0.2942 0.572
vt 0.03535 0.5213
vt 0.322 0.5623
vt 0.2916 0.5642
vt 0.03788 0.5321
vt 0.2649 0.5754
vt 0.04678 0.5297
vt 0.2684 0.5827
vt 0.04405 0.5189
vt 0.2942 0.572
vn -0.3675 -0.584 -0.7237
vn -0.4433 -0.2 -0.8738
vn -0.3763 -0.2144 -0.9013
vn -0.3051 -0.5925 -0.7455
vn -0.4559 0.07935 -0.8865
vn -0.3901 0.06153 -0.9187
vn -0.2871 0.04691 -0.9567
vn -0.2756 -0.222 -0.9353
vn -0.2213 -0.5979 -0.7703
vn -0.4582 -0.2538 -0.8518
vn -0.3535 -0.3841 -0.8529
vn -0.3923 -0.113 -0.9128
vn -0.461 -0.06931 -0.8847
vn -0.09723 -0.3523 -0.9308
vn -0.2743 -0.1318 -0.9525
vn 0.4318 -0.1974 -0.8801
vn 0.2622 -0.09537 -0.9603
vn 0.8858 -0.0448 -0.4619
vn 0.8383 -0.01947 -0.5448
vn 0.8181 0.03806 -0.5737
vn 0.1918 0.0622 -0.9794
vn 0.1585 -0.1725 -0.9721
vn 0.1671 -0.5208 -0.8372
vn 0.7744 -0.07096 -0.6287
vn 0.7738 -0.2495 -0.5822
vn -0.6467 -0.1507 -0.7477
vn -0.5787 -0.157 -0.8003
vn -0.6023 -0.05908 -0.796
vn -0.6567 -0.05463 -0.7521
vn -0.4921 -0.1102 -0.8635
vn -0.5442 -0.03943 -0.838
vn -0.5506 0.08484 -0.8304
vn -0.6143 0.08017 -0.785
vn -0.6684 0.08179 -0.7392
vn -0.5053 -0.6046 -0.6157
vn -0.6383 -0.1935 -0.7451
vn -0.5939 -0.1852 -0.7829
vn -0.4834 -0.5917 -0.6451
vn -0.5393 -0.1926 -0.8198
vn -0.4492 -0.5906 -0.6703
vn -0.5104 -0.1092 -0.853
vn -0.5146 -0.03452 -0.8567
vn -0.5124 0.08737 -0.8542
vn -0.5014 -0.1938 -0.8432
vn -0.4203 -0.5845 -0.694
vn -0.5544 -0.4369 -0.7083
vn -0.4739 -0.7535 -0.4555
vn -0.4275 -0.7587 -0.4916
vn -0.4952 -0.4556 -0.7397
vn -0.3727 -0.8893 -0.265
vn -0.343 -0.8884 -0.3049
vn -0.2652 -0.8934 -0.3625
vn -0.3139 -0.7728 -0.5515
vn -0.3495 -0.4895 -0.7989
vn -0.5777 -0.4355 -0.6903
vn -0.5278 -0.7443 -0.4091
vn -0.5036 -0.7464 -0.435
vn -0.5689 -0.4295 -0.7013
vn -0.4446 -0.872 -0.2045
vn -0.4075 -0.8829 -0.233
vn -0.1036 -0.5146 -0.8512
vn -0.09635 -0.7782 -0.6205
vn 0.06836 -0.7361 -0.6734
vn -0.04675 -0.4905 -0.8701
vn -0.09323 -0.8977 -0.4306
vn 0.1179 -0.8608 -0.4951
vn 0.747 -0.4738 -0.4663
vn 0.7021 -0.4489 -0.5527
vn 0.6287 -0.3468 -0.696
vn -0.1829 -0.7793 -0.5994
vn -0.1889 -0.5108 -0.8386
vn -0.1692 -0.8972 -0.4079
vn -0.391 -0.8119 -0.4334
vn -0.407 -0.7329 -0.5451
vn -0.3788 -0.7261 -0.5737
vn -0.3613 -0.8063 -0.4682
vn -0.3207 -0.7239 -0.6108
vn -0.2943 -0.8053 -0.5147
vn -0.4583 -0.8105 -0.3647
vn -0.46 -0.7442 -0.4844
vn -0.4373 -0.7356 -0.5172
vn -0.4261 -0.8112 -0.4004
vn -0.1423 -0.8104 -0.5683
vn -0.1776 -0.7309 -0.6589
vn 0.1413 -0.6691 -0.7296
vn 0.1163 -0.7636 -0.6351
vn 0.7584 -0.3373 -0.5577
vn 0.739 -0.4148 -0.5308
vn -0.2523 -0.7278 -0.6377
vn -0.2148 -0.8082 -0.5483
vn -0.6206 0 -0.7841
vn -0.5926 0 -0.8054
vn -0.586 -0.1253 -0.8005
vn -0.6129 -0.1203 -0.7809
vn -0.5406 0 -0.8412
vn -0.5359 -0.1291 -0.8343
vn -0.5289 -0.1958 -0.8257
vn -0.5766 -0.187 -0.7953
vn -0.6017 -0.1767 -0.7789
vn -0.679 0 -0.7341
vn -0.5583 0 -0.8296
vn -0.5669 -0.1128 -0.816
vn -0.6662 -0.105 -0.7383
vn -0.2934 0 -0.956
vn -0.3692 -0.09018 -0.925
vn 0.6809 0 -0.7324
vn 0.8705 0 -0.4921
vn 0.7196 -0.1093 -0.6857
vn 0.4306 -0.2177 -0.8759
vn 0.9577 0 -0.2878
vn 0.9364 -0.01392 -0.3507
vn -0.4915 0 -0.8708
vn -0.489 -0.1282 -0.8628
vn -0.4522 0 -0.8919
vn -0.4503 -0.1288 -0.8835
vn -0.4544 -0.1979 -0.8686
vn -0.4833 -0.201 -0.852
vn -0.2697 -0.8732 -0.4059
vn -0.1831 -0.8763 -0.4455
vn -0.1109 -0.8779 -0.4657
vn 0.1131 -0.8406 -0.5296
vn 0.7384 -0.4671 -0.4865
vn -0.4438 -0.8617 -0.2459
vn -0.4054 -0.8707 -0.2784
vn -0.3689 -0.8751 -0.313
vn -0.3406 -0.8717 -0.3523
vn -0.6674 -0.03964 -0.7436
vn -0.6612 -0.1253 -0.7396
vn -0.6776 0.08777 -0.7302
vn -0.9445 0.05493 -0.3237
vn -0.9425 -0.01111 -0.3341
vn -0.9426 -0.06375 -0.3278
vn -0.4446 -0.7751 -0.4489
vn -0.4905 -0.6403 -0.5911
vn -0.4515 -0.829 -0.3299
vn -0.8498 -0.5199 -0.08615
vn -0.8535 -0.4968 -0.1575
vn -0.8596 -0.4414 -0.2571
vn -0.4453 -0.8679 -0.2199
vn -0.4499 -0.8737 -0.1849
vn -0.8508 -0.5254 -0.005737
vn -0.846 -0.5327 -0.02322
vn -0.6815 -0.08469 -0.7268
vn -0.6937 0 -0.7202
vn -0.9445 -0.04312 -0.3255
vn -0.9456 0 -0.3252
vn -0.5318 -0.7531 -0.3872
vn -0.5832 -0.4501 -0.6762
vn -0.9054 -0.2753 -0.3233
vn -0.8727 -0.4641 -0.1513
vn -0.6428 -0.209 -0.7369
vn -0.897 -0.1863 -0.4008
vn -0.3642 0.5885 -0.7218
vn -0.3014 0.5987 -0.7421
vn -0.3757 0.2171 -0.9009
vn -0.4428 0.2018 -0.8736
vn -0.2176 0.6055 -0.7655
vn -0.2751 0.2254 -0.9346
vn -0.2871 -0.04709 -0.9567
vn -0.3901 -0.06165 -0.9187
vn -0.4559 -0.07947 -0.8864
vn -0.4582 0.2538 -0.8518
vn -0.461 0.06931 -0.8847
vn -0.3923 0.113 -0.9128
vn -0.3535 0.3841 -0.8529
vn -0.2743 0.1318 -0.9525
vn -0.09726 0.3523 -0.9308
vn 0.2622 0.0954 -0.9603
vn 0.4317 0.1974 -0.8801
vn 0.1918 -0.06244 -0.9794
vn 0.8181 -0.03818 -0.5737
vn 0.8383 0.0195 -0.5448
vn 0.8858 0.04483 -0.4619
vn 0.169 0.528 -0.8322
vn 0.1585 0.1758 -0.9716
vn 0.7738 0.2542 -0.5801
vn 0.7738 0.073 -0.6291
vn -0.6467 0.1507 -0.7477
vn -0.6567 0.05463 -0.7521
vn -0.6023 0.05908 -0.796
vn -0.5787 0.157 -0.8003
vn -0.6684 -0.08182 -0.7392
vn -0.6143 -0.0802 -0.785
vn -0.5506 -0.0849 -0.8304
vn -0.5442 0.03943 -0.838
vn -0.4921 0.1102 -0.8635
vn -0.5047 0.6048 -0.6159
vn -0.482 0.5925 -0.6454
vn -0.5937 0.1856 -0.783
vn -0.6382 0.1937 -0.7451
vn -0.447 0.5922 -0.6704
vn -0.5389 0.1933 -0.8198
vn -0.5146 0.03452 -0.8567
vn -0.5104 0.1092 -0.853
vn -0.5124 -0.08744 -0.8542
vn -0.4175 0.5874 -0.6933
vn -0.501 0.195 -0.8432
vn -0.5377 0.4274 -0.7268
vn -0.4788 0.4496 -0.754
vn -0.4031 0.7576 -0.5134
vn -0.4503 0.7486 -0.4866
vn -0.3384 0.4842 -0.8068
vn -0.297 0.772 -0.5619
vn -0.2459 0.8963 -0.3689
vn -0.317 0.8916 -0.3232
vn -0.348 0.8903 -0.2937
vn -0.5697 0.4178 -0.7077
vn -0.5565 0.4146 -0.7199
vn -0.4895 0.7353 -0.4686
vn -0.5229 0.7289 -0.4418
vn -0.3941 0.88 -0.265
vn -0.4429 0.8647 -0.2366
vn -0.1048 0.5058 -0.8562
vn -0.04968 0.4807 -0.8754
vn 0.06677 0.7288 -0.6814
vn -0.09696 0.773 -0.6269
vn 0.6272 0.3411 -0.7002
vn 0.7015 0.4448 -0.5567
vn 0.7479 0.4707 -0.468
vn 0.1208 0.8579 -0.4993
vn -0.0904 0.897 -0.4326
vn -0.1858 0.504 -0.8435
vn -0.1775 0.7765 -0.6046
vn -0.1605 0.8984 -0.4087
vn -0.3793 0.8128 -0.4421
vn -0.348 0.8097 -0.4725
vn -0.3718 0.7295 -0.5741
vn -0.4011 0.7345 -0.5474
vn -0.2816 0.8103 -0.5139
vn -0.3131 0.7291 -0.6086
vn -0.4574 0.8065 -0.3746
vn -0.4197 0.8097 -0.4102
vn -0.4339 0.7358 -0.5199
vn -0.4591 0.7431 -0.4868
vn -0.1328 0.8156 -0.5632
vn 0.1247 0.7671 -0.6292
vn 0.1465 0.676 -0.7222
vn -0.1701 0.7384 -0.6525
vn 0.7425 0.4143 -0.5262
vn 0.7602 0.3405 -0.5533
vn -0.204 0.8137 -0.5442
vn -0.2446 0.7344 -0.6331
vn -0.6129 0.1203 -0.7809
vn -0.586 0.1253 -0.8005
vn -0.6017 0.1767 -0.7789
vn -0.5766 0.187 -0.7953
vn -0.529 0.1958 -0.8257
vn -0.5359 0.129 -0.8343
vn -0.6662 0.105 -0.7383
vn -0.5669 0.1128 -0.816
vn -0.3692 0.09018 -0.925
vn 0.4306 0.2177 -0.8759
vn 0.7196 0.1094 -0.6857
vn 0.9364 0.01395 -0.3507
vn -0.489 0.1282 -0.8628
vn -0.4833 0.201 -0.852
vn -0.4544 0.1979 -0.8686
vn -0.4503 0.1288 -0.8835
vn -0.172 0.88 -0.4427
vn -0.2524 0.8775 -0.4077
vn -0.1033 0.8802 -0.4632
vn 0.1206 0.8404 -0.5282
vn 0.7418 0.4638 -0.4843
vn -0.3952 0.8684 -0.2996
vn -0.4428 0.8558 -0.2675
vn -0.3497 0.8762 -0.3317
vn -0.3197 0.8752 -0.3629
vn -0.6612 0.1253 -0.7396
vn -0.6674 0.03964 -0.7436
vn -0.9426 0.06375 -0.3278
vn -0.9425 0.01111 -0.3341
vn -0.9445 -0.05493 -0.3237
vn -0.6776 -0.0878 -0.7302
vn -0.4903 0.6401 -0.5915
vn -0.4447 0.7731 -0.4522
vn -0.8598 0.4409 -0.2575
vn -0.8545 0.4942 -0.1598
vn -0.8528 0.5136 -0.09449
vn -0.453 0.8232 -0.3421
vn -0.4483 0.8594 -0.2456
vn -0.8502 0.5249 -0.04053
vn -0.8542 0.5191 -0.03021
vn -0.453 0.8635 -0.2218
vn -0.6815 0.08469 -0.7268
vn -0.9445 0.04309 -0.3255
vn -0.5303 0.7345 -0.4234
vn -0.8744 0.4529 -0.1741
vn -0.9048 0.2636 -0.3344
vn -0.5763 0.4299 -0.695
vn -0.6428 0.2091 -0.737
vn -0.897 0.1862 -0.4008
vn -0.1389 -0.4613 -0.8763
vn 0.08039 -0.237 -0.9682
vn 0.3425 -0.2593 -0.903
vn -0.04257 -0.501 -0.8644
vn 0.1304 0 -0.9915
vn 0.4851 0 -0.8744
vn -0.4139 0 -0.9103
vn -0.4094 -0.07245 -0.9094
vn -0.2594 -0.05325 -0.9643
vn -0.2031 0 -0.9791
vn -0.4748 -0.03473 -0.8794
vn -0.4167 -0.01865 -0.9088
vn -0.5457 -0.1089 -0.8308
vn -0.5153 -0.06174 -0.8548
vn -0.4974 -0.2937 -0.8163
vn -0.4721 -0.3096 -0.8253
vn -0.3784 -0.4507 -0.8085
vn -0.324 -0.5193 -0.7907
vn 0.08039 0.237 -0.9682
vn 0.3425 0.2593 -0.903
vn -0.1389 0.4613 -0.8763
vn -0.0426 0.501 -0.8644
vn -0.4748 0.03473 -0.8794
vn -0.4094 0.07245 -0.9094
vn -0.2594 0.05329 -0.9643
vn -0.4167 0.01865 -0.9088
vn -0.4974 0.2936 -0.8163
vn -0.5457 0.1089 -0.8308
vn -0.5153 0.06174 -0.8548
vn -0.4721 0.3096 -0.8253
vn -0.3784 0.4507 -0.8085
vn -0.324 0.5193 -0.7907
vn -0.2898 -0.1643 -0.9429
vn -0.3591 -0.2893 -0.8873
vn -0.2832 0 -0.959
vn -0.5751 -0.1091 -0.8108
vn -0.5871 0 -0.8095
vn -0.5734 -0.1421 -0.8068
vn -0.5683 -0.1814 -0.8025
vn -0.5189 -0.2378 -0.821
vn -0.4543 -0.2879 -0.843
vn -0.2898 0.1643 -0.9428
vn -0.3591 0.2893 -0.8873
vn -0.5751 0.1091 -0.8108
vn -0.5735 0.1421 -0.8068
vn -0.5683 0.1814 -0.8025
vn -0.5189 0.2378 -0.821
vn -0.4544 0.2879 -0.843
f 1/1/1 2/2/2 3/3/3
f 1/1/1 3/3/3 4/4/4
f 2/2/2 5/5/5 6/6/6
f 2/2/2 6/6/6 3/3/3
f 3/3/3 6/6/6 7/7/7
f 3/3/3 7/7/7 8/8/8
f 4/4/4 3/3/3 8/8/8
f 4/4/4 8/8/8 9/9/9
f 10/10/10 11/11/11 12/12/12
f 10/10/10 12/12/12 13/13/13
f 11/11/11 14/14/14 15/15/15
f 11/11/11 15/15/15 12/12/12
f 12/12/12 15/15/15 7/7/7
f 12/12/12 7/7/7 6/6/6
f 13/13/13 12/12/12 6/6/6
f 13/13/13 6/6/6 5/5/5
f 14/14/14 16/16/16 17/17/17
f 14/14/14 17/17/17 15/15/15
f 16/16/16 18/18/18 19/19/19
f 16/16/16 19/19/19 17/17/17
f 17/17/17 19/19/19 20/20/20
f 17/17/17 20/20/20 21/21/21
f 15/15/15 17/17/17 21/21/21
f 15/15/15 21/21/21 7/7/7
f 9/9/9 8/8/8 22/22/22
f 9/9/9 22/22/22 23/23/23
f 8/8/8 7/7/7 21/21/21
f 8/8/8 21/21/21 22/22/22
f 22/22/22 21/21/21 20/20/20
f 22/22/22 20/20/20 24/24/24
f 23/23/23 22/22/22 24/24/24
f 23/23/23 24/24/24 25/25/25
f 26/26/26 27/27/27 28/28/28
f 26/26/26 28/28/28 29/29/29
f 27/27/27 30/30/30 31/31/31
f 27/27/27 31/31/31 28/28/28
f 28/28/28 31/31/31 32/32/32
f 28/28/28 32/32/32 33/33/33
f 29/29/29 28/28/28 33/33/33
f 29/29/29 33/33/33 34/34/34
f 35/35/35 36/36/36 37/37/37
f 35/35/35 37/37/37 38/38/38
f 36/36/36 34/34/34 33/33/33
f 36/36/36 33/33/33 37/37/37
f 37/37/37 33/33/33 32/32/32
f 37/37/37 32/32/32 39/39/39
f 38/38/38 37/37/37 39/39/39
f 38/38/38 39/39/39 40/40/40
f 30/30/30 41/41/41 42/42/42
f 30/30/30 42/42/42 31/31/31
f 41/41/41 10/10/10 13/13/13
f 41/41/41 13/13/13 42/42/42
f 42/42/42 13/13/13 5/5/5
f 42/42/42 5/5/5 43/43/43
f 31/31/31 42/42/42 43/43/43
f 31/31/31 43/43/43 32/32/32
f 40/40/40 39/39/39 44/44/44
f 40/40/40 44/44/44 45/45/45
f 39/39/39 32/32/32 43/43/43
f 39/39/39 43/43/43 44/44/44
f 44/44/44 43/43/43 5/5/5
f 44/44/44 5/5/5 2/2/2
f 45/45/45 44/44/44 2/2/2
f 45/45/45 2/2/2 1/1/1
f 46/46/46 47/47/47 48/48/48
f 46/46/46 48/48/48 49/49/49
f 47/47/47 50/50/50 51/51/51
f 47/47/47 51/51/51 48/48/48
f 48/48/48 51/51/51 52/52/52
f 48/48/48 52/52/52 53/53/53
f 49/49/49 48/48/48 53/53/53
f 49/49/49 53/53/53 54/54/54
f 55/55/55 56/56/56 57/57/57
f 55/55/55 57/57/57 58/58/58
f 56/56/56 59/59/59 60/60/60
f 56/56/56 60/60/60 57/57/57
f 57/57/57 60/60/60 50/50/50
f 57/57/57 50/50/50 47/47/47
f 58/58/58 57/57/57 47/47/47
f 58/58/58 47/47/47 46/46/46
f 61/61/61 62/62/62 63/63/63
f 61/61/61 63/63/63 64/64/64
f 62/62/62 65/65/65 66/66/66
f 62/62/62 66/66/66 63/63/63
f 63/63/63 66/66/66 67/67/67
f 63/63/63 67/67/67 68/68/68
f 64/64/64 63/63/63 68/68/68
f 64/64/64 68/68/68 69/69/69
f 54/54/54 53/53/53 70/70/70
f 54/54/54 70/70/70 71/71/71
f 53/53/53 52/52/52 72/72/72
f 53/53/53 72/72/72 70/70/70
f 70/70/70 72/72/72 65/65/65
f 70/70/70 65/65/65 62/62/62
f 71/71/71 70/70/70 62/62/62
f 71/71/71 62/62/62 61/61/61
f 73/73/73 74/74/74 75/75/75
f 73/73/73 75/75/75 76/76/76
f 74/74/74 40/40/40 45/45/45
f 74/74/74 45/45/45 75/75/75
f 75/75/75 45/45/45 1/1/1
f 75/75/75 1/1/1 77/77/77
f 76/76/76 75/75/75 77/77/77
f 76/76/76 77/77/77 78/78/78
f 79/79/79 80/80/80 81/81/81
f 79/79/79 81/81/81 82/82/82
f 80/80/80 35/35/35 38/38/38
f 80/80/80 38/38/38 81/81/81
f 81/81/81 38/38/38 40/40/40
f 81/81/81 40/40/40 74/74/74
f 82/82/82 81/81/81 74/74/74
f 82/82/82 74/74/74 73/73/73
f 83/83/83 84/84/84 85/85/85
f 83/83/83 85/85/85 86/86/86
f 84/84/84 9/9/9 23/23/23
f 84/84/84 23/23/23 85/85/85
f 85/85/85 23/23/23 25/25/25
f 85/85/85 25/25/25 87/87/87
f 86/86/86 85/85/85 87/87/87
f 86/86/86 87/87/87 88/88/88
f 78/78/78 77/77/77 89/89/89
f 78/78/78 89/89/89 90/90/90
f 77/77/77 1/1/1 4/4/4
f 77/77/77 4/4/4 89/89/89
f 89/89/89 4/4/4 9/9/9
f 89/89/89 9/9/9 84/84/84
f 90/90/90 89/89/89 84/84/84
f 90/90/90 84/84/84 83/83/83
f 91/91/91 92/92/92 93/93/93
f 91/91/91 93/93/93 94/94/94
f 92/92/92 95/95/95 96/96/96
f 92/92/92 96/96/96 93/93/93
f 93/93/93 96/96/96 97/97/97
f 93/93/93 97/97/97 98/98/98
f 94/94/94 93/93/93 98/98/98
f 94/94/94 98/98/98 99/99/99
f 100/100/100 101/101/101 102/102/102
f 100/100/100 102/102/102 103/103/103
f 101/101/101 104/104/104 105/105/105
f 101/101/101 105/105/105 102/102/102
f 102/102/102 105/105/105 30/30/30
f 102/102/102 30/30/30 27/27/27
f 103/103/103 102/102/102 27/27/27
f 103/103/103 27/27/27 26/26/26
f 106/106/106 107/107/107 108/108/108
f 106/106/106 108/108/108 109/109/109
f 107/107/107 110/110/110 111/111/111
f 107/107/107 111/111/111 108/108/108
f 108/108/108 111/111/111 18/18/18
f 108/108/108 18/18/18 16/16/16
f 109/109/109 108/108/108 16/16/16
f 109/109/109 16/16/16 14/14/14
f 95/95/95 112/112/112 113/113/113
f 95/95/95 113/113/113 96/96/96
f 112/112/112 114/114/114 115/115/115
f 112/112/112 115/115/115 113/113/113
f 113/113/113 115/115/115 116/116/116
f 113/113/113 116/116/116 117/117/117
f 96/96/96 113/113/113 117/117/117
f 96/96/96 117/117/117 97/97/97
f 52/52/52 118/118/118 119/119/119
f 52/52/52 119/119/119 72/72/72
f 118/118/118 78/78/78 90/90/90
f 118/118/118 90/90/90 119/119/119
f 119/119/119 90/90/90 83/83/83
f 119/119/119 83/83/83 120/120/120
f 72/72/72 119/119/119 120/120/120
f 72/72/72 120/120/120 65/65/65
f 65/65/65 120/120/120 121/121/121
f 65/65/65 121/121/121 66/66/66
f 120/120/120 83/83/83 86/86/86
f 120/120/120 86/86/86 121/121/121
f 121/121/121 86/86/86 88/88/88
f 121/121/121 88/88/88 122/122/122
f 66/66/66 121/121/121 122/122/122
f 66/66/66 122/122/122 67/67/67
f 59/59/59 123/123/123 124/124/124
f 59/59/59 124/124/124 60/60/60
f 123/123/123 79/79/79 82/82/82
f 123/123/123 82/82/82 124/124/124
f 124/124/124 82/82/82 73/73/73
f 124/124/124 73/73/73 125/125/125
f 60/60/60 124/124/124 125/125/125
f 60/60/60 125/125/125 50/50/50
f 50/50/50 125/125/125 126/126/126
f 50/50/50 126/126/126 51/51/51
f 125/125/125 73/73/73 76/76/76
f 125/125/125 76/76/76 126/126/126
f 126/126/126 76/76/76 78/78/78
f 126/126/126 78/78/78 118/118/118
f 51/51/51 126/126/126 118/118/118
f 51/51/51 118/118/118 52/52/52
f 26/26/26 29/29/29 127/127/127
f 26/26/26 127/127/127 128/128/128
f 29/29/29 34/34/34 129/129/129
f 29/29/29 129/129/129 127/127/127
f 127/127/127 129/129/129 130/130/130
f 127/127/127 130/130/130 131/131/131
f 128/128/128 127/127/127 131/131/131
f 128/128/128 131/131/131 132/132/132
f 35/35/35 80/80/80 133/133/133
f 35/35/35 133/133/133 134/134/134
f 80/80/80 79/79/79 135/135/135
f 80/80/80 135/135/135 133/133/133
f 133/133/133 135/135/135 136/136/136
f 133/133/133 136/136/136 137/137/137
f 134/134/134 133/133/133 137/137/137
f 134/134/134 137/137/137 138/138/138
f 79/79/79 123/123/123 139/139/139
f 79/79/79 139/139/139 135/135/135
f 123/123/123 59/59/59 140/140/140
f 123/123/123 140/140/140 139/139/139
f 139/139/139 140/140/140 141/141/141
f 139/139/139 141/141/141 142/142/142
f 135/135/135 139/139/139 142/142/142
f 135/135/135 142/142/142 136/136/136
f 100/100/100 103/103/103 143/143/143
f 100/100/100 143/143/143 144/144/144
f 103/103/103 26/26/26 128/128/128
f 103/103/103 128/128/128 143/143/143
f 143/143/143 128/128/128 132/132/132
f 143/143/143 132/132/132 145/145/145
f 144/144/144 143/143/143 145/145/145
f 144/144/144 145/145/145 146/146/146
f 59/59/59 56/56/56 147/147/147
f 59/59/59 147/147/147 140/140/140
f 56/56/56 55/55/55 148/148/148
f 56/56/56 148/148/148 147/147/147
f 147/147/147 148/148/148 149/149/149
f 147/147/147 149/149/149 150/150/150
f 140/140/140 147/147/147 150/150/150
f 140/140/140 150/150/150 141/141/141
f 34/34/34 36/36/36 151/151/151
f 34/34/34 151/151/151 129/129/129
f 36/36/36 35/35/35 134/134/134
f 36/36/36 134/134/134 151/151/151
f 151/151/151 134/134/134 138/138/138
f 151/151/151 138/138/138 152/152/152
f 129/129/129 151/151/151 152/152/152
f 129/129/129 152/152/152 130/130/130
f 153/153/153 154/154/154 155/155/155
f 153/153/153 155/155/155 156/156/156
f 154/154/154 157/157/157 158/158/158
f 154/154/154 158/158/158 155/155/155
f 155/155/155 158/158/158 159/159/159
f 155/155/155 159/159/159 160/160/160
f 156/156/156 155/155/155 160/160/160
f 156/156/156 160/160/160 161/161/161
f 162/162/162 163/163/163 164/164/164
f 162/162/162 164/164/164 165/165/165
f 163/163/163 161/161/161 160/160/160
f 163/163/163 160/160/160 164/164/164
f 164/164/164 160/160/160 159/159/159
f 164/164/164 159/159/159 166/166/166
f 165/165/165 164/164/164 166/166/166
f 165/165/165 166/166/166 167/167/167
f 167/167/167 166/166/166 168/168/168
f 167/167/167 168/168/168 169/169/169
f 166/166/166 159/159/159 170/170/170
f 166/166/166 170/170/170 168/168/168
f 168/168/168 170/170/170 171/171/171
f 168/168/168 171/171/171 172/172/172
f 169/169/169 168/168/168 172/172/172
f 169/169/169 172/172/172 173/173/173
f 157/157/157 174/174/174 175/175/175
f 157/157/157 175/175/175 158/158/158
f 174/174/174 176/176/176 177/177/177
f 174/174/174 177/177/177 175/175/175
f 175/175/175 177/177/177 171/171/171
f 175/175/175 171/171/171 170/170/170
f 158/158/158 175/175/175 170/170/170
f 158/158/158 170/170/170 159/159/159
f 178/178/178 179/179/179 180/180/180
f 178/178/178 180/180/180 181/181/181
f 179/179/179 182/182/182 183/183/183
f 179/179/179 183/183/183 180/180/180
f 180/180/180 183/183/183 184/184/184
f 180/180/180 184/184/184 185/185/185
f 181/181/181 180/180/180 185/185/185
f 181/181/181 185/185/185 186/186/186
f 187/187/187 188/188/188 189/189/189
f 187/187/187 189/189/189 190/190/190
f 188/188/188 191/191/191 192/192/192
f 188/188/188 192/192/192 189/189/189
f 189/189/189 192/192/192 184/184/184
f 189/189/189 184/184/184 183/183/183
f 190/190/190 189/189/189 183/183/183
f 190/190/190 183/183/183 182/182/182
f 186/186/186 185/185/185 193/193/193
f 186/186/186 193/193/193 194/194/194
f 185/185/185 184/184/184 195/195/195
f 185/185/185 195/195/195 193/193/193
f 193/193/193 195/195/195 161/161/161
f 193/193/193 161/161/161 163/163/163
f 194/194/194 193/193/193 163/163/163
f 194/194/194 163/163/163 162/162/162
f 191/191/191 196/196/196 197/197/197
f 191/191/191 197/197/197 192/192/192
f 196/196/196 153/153/153 156/156/156
f 196/196/196 156/156/156 197/197/197
f 197/197/197 156/156/156 161/161/161
f 197/197/197 161/161/161 195/195/195
f 192/192/192 197/197/197 195/195/195
f 192/192/192 195/195/195 184/184/184
f 198/198/198 199/199/199 200/200/200
f 198/198/198 200/200/200 201/201/201
f 199/199/199 202/202/202 203/203/203
f 199/199/199 203/203/203 200/200/200
f 200/200/200 203/203/203 204/204/204
f 200/200/200 204/204/204 205/205/205
f 201/201/201 200/200/200 205/205/205
f 201/201/201 205/205/205 206/206/206
f 207/207/207 208/208/208 209/209/209
f 207/207/207 209/209/209 210/210/210
f 208/208/208 198/198/198 201/201/201
f 208/208/208 201/201/201 209/209/209
f 209/209/209 201/201/201 206/206/206
f 209/209/209 206/206/206 211/211/211
f 210/210/210 209/209/209 211/211/211
f 210/210/210 211/211/211 212/212/212
f 213/213/213 214/214/214 215/215/215
f 213/213/213 215/215/215 216/216/216
f 214/214/214 217/217/217 218/218/218
f 214/214/214 218/218/218 215/215/215
f 215/215/215 218/218/218 219/219/219
f 215/215/215 219/219/219 220/220/220
f 216/216/216 215/215/215 220/220/220
f 216/216/216 220/220/220 221/221/221
f 202/202/202 222/222/222 223/223/223
f 202/202/202 223/223/223 203/203/203
f 222/222/222 213/213/213 216/216/216
f 222/222/222 216/216/216 223/223/223
f 223/223/223 216/216/216 221/221/221
f 223/223/223 221/221/221 224/224/224
f 203/203/203 223/223/223 224/224/224
f 203/203/203 224/224/224 204/204/204
f 225/225/225 226/226/226 227/227/227
f 225/225/225 227/227/227 228/228/228
f 226/226/226 229/229/229 230/230/230
f 226/226/226 230/230/230 227/227/227
f 227/227/227 230/230/230 153/153/153
f 227/227/227 153/153/153 196/196/196
f 228/228/228 227/227/227 196/196/196
f 228/228/228 196/196/196 191/191/191
f 231/231/231 232/232/232 233/233/233
f 231/231/231 233/233/233 234/234/234
f 232/232/232 225/225/225 228/228/228
f 232/232/232 228/228/228 233/233/233
f 233/233/233 228/228/228 191/191/191
f 233/233/233 191/191/191 188/188/188
f 234/234/234 233/233/233 188/188/188
f 234/234/234 188/188/188 187/187/187
f 235/235/235 236/236/236 237/237/237
f 235/235/235 237/237/237 238/238/238
f 236/236/236 239/239/239 240/240/240
f 236/236/236 240/240/240 237/237/237
f 237/237/237 240/240/240 176/176/176
f 237/237/237 176/176/176 174/174/174
f 238/238/238 237/237/237 174/174/174
f 238/238/238 174/174/174 157/157/157
f 229/229/229 241/241/241 242/242/242
f 229/229/229 242/242/242 230/230/230
f 241/241/241 235/235/235 238/238/238
f 241/241/241 238/238/238 242/242/242
f 242/242/242 238/238/238 157/157/157
f 242/242/242 157/157/157 154/154/154
f 230/230/230 242/242/242 154/154/154
f 230/230/230 154/154/154 153/153/153
f 91/91/91 243/243/243 244/244/244
f 91/91/91 244/244/244 92/92/92
f 243/243/243 245/245/245 246/246/246
f 243/243/243 246/246/246 244/244/244
f 244/244/244 246/246/246 247/247/247
f 244/244/244 247/247/247 248/248/248
f 92/92/92 244/244/244 248/248/248
f 92/92/92 248/248/248 95/95/95
f 100/100/100 249/249/249 250/250/250
f 100/100/100 250/250/250 101/101/101
f 249/249/249 178/178/178 181/181/181
f 249/249/249 181/181/181 250/250/250
f 250/250/250 181/181/181 186/186/186
f 250/250/250 186/186/186 251/251/251
f 101/101/101 250/250/250 251/251/251
f 101/101/101 251/251/251 104/104/104
f 106/106/106 252/252/252 253/253/253
f 106/106/106 253/253/253 107/107/107
f 252/252/252 167/167/167 169/169/169
f 252/252/252 169/169/169 253/253/253
f 253/253/253 169/169/169 173/173/173
f 253/253/253 173/173/173 254/254/254
f 107/107/107 253/253/253 254/254/254
f 107/107/107 254/254/254 110/110/110
f 95/95/95 248/248/248 255/255/255
f 95/95/95 255/255/255 112/112/112
f 248/248/248 247/247/247 256/256/256
f 248/248/248 256/256/256 255/255/255
f 255/255/255 256/256/256 257/257/257
f 255/255/255 257/257/257 258/258/258
f 112/112/112 255/255/255 258/258/258
f 112/112/112 258/258/258 114/114/114
f 204/204/204 224/224/224 259/259/259
f 204/204/204 259/259/259 260/260/260
f 224/224/224 221/221/221 261/261/261
f 224/224/224 261/261/261 259/259/259
f 259/259/259 261/261/261 235/235/235
f 259/259/259 235/235/235 241/241/241
f 260/260/260 259/259/259 241/241/241
f 260/260/260 241/241/241 229/229/229
f 221/221/221 220/220/220 262/262/262
f 221/221/221 262/262/262 261/261/261
f 220/220/220 219/219/219 263/263/263
f 220/220/220 263/263/263 262/262/262
f 262/262/262 263/263/263 239/239/239
f 262/262/262 239/239/239 236/236/236
f 261/261/261 262/262/262 236/236/236
f 261/261/261 236/236/236 235/235/235
f 212/212/212 211/211/211 264/264/264
f 212/212/212 264/264/264 265/265/265
f 211/211/211 206/206/206 266/266/266
f 211/211/211 266/266/266 264/264/264
f 264/264/264 266/266/266 225/225/225
f 264/264/264 225/225/225 232/232/232
f 265/265/265 264/264/264 232/232/232
f 265/265/265 232/232/232 231/231/231
f 206/206/206 205/205/205 267/267/267
f 206/206/206 267/267/267 266/266/266
f 205/205/205 204/204/204 260/260/260
f 205/205/205 260/260/260 267/267/267
f 267/267/267 260/260/260 229/229/229
f 267/267/267 229/229/229 226/226/226
f 266/266/266 267/267/267 226/226/226
f 266/266/266 226/226/226 225/225/225
f 178/178/178 268/268/268 269/269/269
f 178/178/178 269/269/269 179/179/179
f 268/268/268 270/270/270 271/271/271
f 268/268/268 271/271/271 269/269/269
f 269/269/269 271/271/271 272/272/272
f 269/269/269 272/272/272 273/273/273
f 179/179/179 269/269/269 273/273/273
f 179/179/179 273/273/273 182/182/182
f 187/187/187 274/274/274 275/275/275
f 187/187/187 275/275/275 234/234/234
f 274/274/274 276/276/276 277/277/277
f 274/274/274 277/277/277 275/275/275
f 275/275/275 277/277/277 278/278/278
f 275/275/275 278/278/278 279/279/279
f 234/234/234 275/275/275 279/279/279
f 234/234/234 279/279/279 231/231/231
f 231/231/231 279/279/279 280/280/280
f 231/231/231 280/280/280 265/265/265
f 279/279/279 278/278/278 281/281/281
f 279/279/279 281/281/281 280/280/280
f 280/280/280 281/281/281 282/282/282
f 280/280/280 282/282/282 283/283/283
f 265/265/265 280/280/280 283/283/283
f 265/265/265 283/283/283 212/212/212
f 100/100/100 144/144/144 284/284/284
f 100/100/100 284/284/284 249/249/249
f 144/144/144 146/146/146 285/285/285
f 144/144/144 285/285/285 284/284/284
f 284/284/284 285/285/285 270/270/270
f 284/284/284 270/270/270 268/268/268
f 249/249/249 284/284/284 268/268/268
f 249/249/249 268/268/268 178/178/178
f 212/212/212 283/283/283 286/286/286
f 212/212/212 286/286/286 210/210/210
f 283/283/283 282/282/282 287/287/287
f 283/283/283 287/287/287 286/286/286
f 286/286/286 287/287/287 288/288/288
f 286/286/286 288/288/288 289/289/289
f 210/210/210 286/286/286 289/289/289
f 210/210/210 289/289/289 207/207/207
f 182/182/182 273/273/273 290/290/290
f 182/182/182 290/290/290 190/190/190
f 273/273/273 272/272/272 291/291/291
f 273/273/273 291/291/291 290/290/290
f 290/290/290 291/291/291 276/276/276
f 290/290/290 276/276/276 274/274/274
f 190/190/190 290/290/290 274/274/274
f 190/190/190 274/274/274 187/187/187
f 292/292/292 293/293/293 294/294/294
f 292/292/292 294/294/294 295/295/295
f 293/293/293 296/296/296 297/297/297
f 293/293/293 297/297/297 294/294/294
f 294/294/294 297/297/297 106/106/106
f 294/294/294 106/106/106 109/109/109
f 295/295/295 294/294/294 109/109/109
f 295/295/295 109/109/109 14/14/14
f 298/298/298 299/299/299 300/300/300
f 298/298/298 300/300/300 301/301/301
f 299/299/299 302/302/302 303/303/303
f 299/299/299 303/303/303 300/300/300
f 300/300/300 303/303/303 30/30/30
f 300/300/300 30/30/30 105/105/105
f 301/301/301 300/300/300 105/105/105
f 301/301/301 105/105/105 104/104/104
f 302/302/302 304/304/304 305/305/305
f 302/302/302 305/305/305 303/303/303
f 304/304/304 306/306/306 307/307/307
f 304/304/304 307/307/307 305/305/305
f 305/305/305 307/307/307 10/10/10
f 305/305/305 10/10/10 41/41/41
f 303/303/303 305/305/305 41/41/41
f 303/303/303 41/41/41 30/30/30
f 306/306/306 308/308/308 309/309/309
f 306/306/306 309/309/309 307/307/307
f 308/308/308 292/292/292 295/295/295
f 308/308/308 295/295/295 309/309/309
f 309/309/309 295/295/295 14/14/14
f 309/309/309 14/14/14 11/11/11
f 307/307/307 309/309/309 11/11/11
f 307/307/307 11/11/11 10/10/10
f 296/296/296 310/310/310 311/311/311
f 296/296/296 311/311/311 297/297/297
f 310/310/310 312/312/312 313/313/313
f 310/310/310 313/313/313 311/311/311
f 311/311/311 313/313/313 167/167/167
f 311/311/311 167/167/167 252/252/252
f 297/297/297 311/311/311 252/252/252
f 297/297/297 252/252/252 106/106/106
f 314/314/314 315/315/315 316/316/316
f 314/314/314 316/316/316 317/317/317
f 315/315/315 298/298/298 301/301/301
f 315/315/315 301/301/301 316/316/316
f 316/316/316 301/301/301 104/104/104
f 316/316/316 104/104/104 251/251/251
f 317/317/317 316/316/316 251/251/251
f 317/317/317 251/251/251 186/186/186
f 318/318/318 319/319/319 320/320/320
f 318/318/318 320/320/320 321/321/321
f 319/319/319 314/314/314 317/317/317
f 319/319/319 317/317/317 320/320/320
f 320/320/320 317/317/317 186/186/186
f 320/320/320 186/186/186 194/194/194
f 321/321/321 320/320/320 194/194/194
f 321/321/321 194/194/194 162/162/162
f 312/312/312 322/322/322 323/323/323
f 312/312/312 323/323/323 313/313/313
f 322/322/322 318/318/318 321/321/321
f 322/322/322 321/321/321 323/323/323
f 323/323/323 321/321/321 162/162/162
f 323/323/323 162/162/162 165/165/165
f 313/313/313 323/323/323 165/165/165
f 313/313/313 165/165/165 167/167/167
f 116/116/116 115/115/115 324/324/324
f 116/116/116 324/324/324 325/325/325
f 115/115/115 114/114/114 326/326/326
f 115/115/115 326/326/326 324/324/324
f 324/324/324 326/326/326 296/296/296
f 324/324/324 296/296/296 293/293/293
f 325/325/325 324/324/324 293/293/293
f 325/325/325 293/293/293 292/292/292
f 91/91/91 94/94/94 327/327/327
f 91/91/91 327/327/327 328/328/328
f 94/94/94 99/99/99 329/329/329
f 94/94/94 329/329/329 327/327/327
f 327/327/327 329/329/329 302/302/302
f 327/327/327 302/302/302 299/299/299
f 328/328/328 327/327/327 299/299/299
f 328/328/328 299/299/299 298/298/298
f 99/99/99 98/98/98 330/330/330
f 99/99/99 330/330/330 329/329/329
f 98/98/98 97/97/97 331/331/331
f 98/98/98 331/331/331 330/330/330
f 330/330/330 331/331/331 306/306/306
f 330/330/330 306/306/306 304/304/304
f 329/329/329 330/330/330 304/304/304
f 329/329/329 304/304/304 302/302/302
f 97/97/97 117/117/117 332/332/332
f 97/97/97 332/332/332 331/331/331
f 117/117/117 116/116/116 325/325/325
f 117/117/117 325/325/325 332/332/332
f 332/332/332 325/325/325 292/292/292
f 332/332/332 292/292/292 308/308/308
f 331/331/331 332/332/332 308/308/308
f 331/331/331 308/308/308 306/306/306
f 114/114/114 258/258/258 333/333/333
f 114/114/114 333/333/333 326/326/326
f 258/258/258 257/257/257 334/334/334
f 258/258/258 334/334/334 333/333/333
f 333/333/333 334/334/334 312/312/312
f 333/333/333 312/312/312 310/310/310
f 326/326/326 333/333/333 310/310/310
f 326/326/326 310/310/310 296/296/296
f 245/245/245 243/243/243 335/335/335
f 245/245/245 335/335/335 336/336/336
f 243/243/243 91/91/91 328/328/328
f 243/243/243 328/328/328 335/335/335
f 335/335/335 328/328/328 298/298/298
f 335/335/335 298/298/298 315/315/315
f 336/336/336 335/335/335 315/315/315
f 336/336/336 315/315/315 314/314/314
f 247/247/247 246/246/246 337/337/337
f 247/247/247 337/337/337 338/338/338
f 246/246/246 245/245/245 336/336/336
f 246/246/246 336/336/336 337/337/337
f 337/337/337 336/336/336 314/314/314
f 337/337/337 314/314/314 319/319/319
f 338/338/338 337/337/337 319/319/319
f 338/338/338 319/319/319 318/318/318
f 257/257/257 256/256/256 339/339/339
f 257/257/257 339/339/339 334/334/334
f 256/256/256 247/247/247 338/338/338
f 256/256/256 338/338/338 339/339/339
f 339/339/339 338/338/338 318/318/318
f 339/339/339 318/318/318 322/322/322
f 334/334/334 339/339/339 322/322/322
f 334/334/334 322/322/322 312/312/312
