v 1.3239 -0.0695025 1.24757
v 1.3214 -0.069175 1.26137
v 1.32043 -0.099605 1.25652
v 1.32254 -0.0999941 1.24385
v 1.30673 -0.0687817 1.27839
v 1.30591 -0.0991229 1.27277
v 1.30232 -0.147938 1.25332
v 1.31677 -0.14811 1.2379
v 1.31852 -0.148154 1.22624
v 1.1933 -0.298347 1.1868
v 1.17985 -0.361373 1.10254
v 1.23304 -0.360583 1.08177
v 1.24589 -0.297893 1.165
v 1.1634 -0.401569 1.01561
v 1.21689 -0.400428 0.9961
v 1.25562 -0.397071 0.98082
v 1.27101 -0.358004 1.06428
v 1.28316 -0.296287 1.146
v 1.11814 -0.411622 0.868785
v 1.09499 -0.394626 0.804516
v 1.14725 -0.392132 0.791445
v 1.17096 -0.409595 0.853606
v 1.07867 -0.373718 0.757417
v 1.13044 -0.370914 0.745868
v 1.17214 -0.365533 0.744468
v 1.18845 -0.387011 0.787349
v 1.21138 -0.405045 0.845756
v 1.12108 -0.0690447 1.35811
v 1.09853 -0.0694583 1.36471
v 1.09743 -0.0999077 1.3614
v 1.1199 -0.0994661 1.35446
v 1.07422 -0.0707388 1.36755
v 1.07316 -0.100917 1.36428
v 1.06923 -0.149085 1.34592
v 1.09331 -0.148518 1.343
v 1.11567 -0.14822 1.33578
v 1.206 -0.382663 0.785367
v 1.22825 -0.401043 0.840805
v 1.19013 -0.361221 0.744593
v 1.19344 -0.357907 0.744607
v 1.20902 -0.379122 0.7838
v 1.2308 -0.397687 0.836972
v 1.28611 -0.355157 1.05149
v 1.29796 -0.294304 1.132
v 1.27115 -0.393692 0.96995
v 1.27285 -0.390545 0.961552
v 1.28765 -0.35233 1.04146
v 1.29949 -0.292197 1.12103
v 1.16652 -0.348031 0.726266
v 1.18455 -0.344436 0.727155
v 1.16618 -0.335831 0.721479
v 1.18394 -0.332919 0.722178
v 1.18693 -0.331395 0.722315
v 1.18783 -0.342092 0.727648
v 1.07334 -0.355966 0.737346
v 1.12476 -0.353125 0.726542
v 1.07345 -0.34324 0.732251
v 1.12466 -0.340503 0.721669
v 0.970649 -0.362589 0.83232
v 0.968248 -0.345416 0.813682
v 0.985394 -0.346924 0.8062
v 0.988099 -0.36421 0.825022
v 0.968972 -0.333417 0.808279
v 0.986051 -0.334818 0.800751
v 1.0007 -0.336904 0.787209
v 1.00014 -0.349149 0.792614
v 1.00337 -0.366527 0.811761
v 0.994598 -0.400508 0.933137
v 0.980313 -0.383351 0.874995
v 0.998496 -0.385049 0.868114
v 1.01377 -0.402226 0.926828
v 1.015 -0.38735 0.855803
v 1.03191 -0.404436 0.915833
v 1.04922 -0.294126 1.23443
v 1.03712 -0.354033 1.152
v 1.0593 -0.355246 1.14795
v 1.07222 -0.294867 1.2311
v 1.02413 -0.391949 1.06868
v 1.04535 -0.393451 1.06377
v 1.06641 -0.395266 1.05521
v 1.08102 -0.356597 1.14013
v 1.09422 -0.295622 1.22366
v 1.22053 -0.0681703 1.32391
v 1.16498 -0.0685346 1.34409
v 1.16365 -0.0988114 1.33965
v 1.21918 -0.0983453 1.31861
v 1.15925 -0.147766 1.32034
v 1.21481 -0.147453 1.29875
v 1.02948 -0.353459 0.764597
v 1.0338 -0.371024 0.784399
v 1.02984 -0.340937 0.759312
v 1.04789 -0.391823 0.830413
v 1.06811 -0.40876 0.893176
v 1.12405 -0.359335 1.12375
v 1.13752 -0.297175 1.20788
v 1.10836 -0.398912 1.03748
v 1.27127 -0.0683364 1.30046
v 1.27022 -0.0985592 1.29471
v 1.26625 -0.147605 1.2748
v 1.30721 -0.0315127 1.28071
v 1.27206 -0.0313088 1.30315
v 1.27171 -0.0476797 1.3023
v 1.30699 -0.0479903 1.28007
v 1.22168 -0.0312329 1.32629
v 1.22117 -0.0475638 1.32551
v 1.16611 -0.0314 1.34544
v 1.16561 -0.0478182 1.34508
v 1.12201 -0.031634 1.35837
v 1.1216 -0.0481742 1.35849
v 1.09936 -0.0319246 1.36451
v 1.09899 -0.0485387 1.36483
v 1.07506 -0.0332189 1.36729
v 1.07467 -0.0499635 1.36763
v 1.32517 -0.031843 1.24815
v 1.3221 -0.0316929 1.26292
v 1.32179 -0.0482648 1.26257
v 1.32461 -0.0484935 1.24814
v 1.04972 -0.409491 0.98131
v 1.0892 -0.413606 0.961379
v 1.14214 -0.416483 0.938401
v 1.00972 -0.405755 0.996647
v 1.02993 -0.407415 0.990977
v 1.23502 -0.410949 0.909021
v 1.25117 -0.407246 0.90091
v 1.25323 -0.403994 0.894674
v 1.19546 -0.414925 0.920887
v 1.10649 -0.219505 1.29137
v 1.14992 -0.219873 1.27574
v 1.20557 -0.220168 1.25431
v 1.06064 -0.21928 1.30169
v 1.08429 -0.219361 1.29869
v 1.29415 -0.219563 1.21085
v 1.30872 -0.218759 1.19609
v 1.31029 -0.217798 1.18481
v 1.25754 -0.220065 1.23126
v 1.32589 4.99115e-06 1.24804
v 1.32249 4.88489e-06 1.26329
v 1.32237 -0.015844 1.26317
v 1.32567 -0.015919 1.24807
v 1.30748 4.69353e-06 1.28149
v 1.30739 -0.015754 1.28123
v 1.12253 3.12498e-06 1.35815
v 1.09984 2.95164e-06 1.36403
v 1.09969 -0.0159777 1.36417
v 1.12237 -0.0158154 1.35822
v 1.0756 2.79366e-06 1.36679
v 1.07543 -0.0167426 1.36694
v 1.22232 3.91988e-06 1.32719
v 1.16675 3.46972e-06 1.3458
v 1.16655 -0.0156983 1.34568
v 1.22212 -0.0156145 1.3269
v 1.2725 4.35537e-06 1.30416
v 1.27236 -0.0156522 1.30383
v 1.02617 -0.0185806 1.37003
v 1.02568 -0.0363228 1.37033
v 1.02641 2.49007e-06 1.3699
v 0.960759 2.08807e-06 1.37358
v 0.960422 -0.0210669 1.37367
v 0.959783 -0.0405216 1.37393
v 1.01267 -0.219053 1.30495
v 1.00275 -0.292439 1.2385
v 1.0203 -0.150356 1.34898
v 0.954993 -0.152065 1.3526
v 0.948655 -0.218721 1.30887
v 0.940733 -0.290119 1.24352
v 0.969091 -0.402342 1.00589
v 0.955794 -0.397052 0.943554
v 0.981579 -0.388784 1.07639
v 0.924828 -0.384474 1.08637
v 0.914895 -0.397714 1.01795
v 0.904019 -0.392383 0.957231
v 0.943234 -0.380012 0.886426
v 0.934833 -0.359468 0.844497
v 0.893744 -0.375513 0.901495
v 0.887014 -0.355271 0.86059
v 0.932944 -0.342548 0.826227
v 0.933785 -0.330768 0.820963
v 0.885801 -0.338696 0.842824
v 0.886794 -0.327211 0.837752
v 1.02524 -0.0533636 1.37065
v 1.0248 -0.0737625 1.37056
v 0.959274 -0.0579627 1.37422
v 0.958834 -0.0778521 1.37412
v 1.02382 -0.103255 1.36729
v 0.957972 -0.106414 1.37085
v 0.992546 -0.351387 1.15776
v 0.933079 -0.347769 1.16509
v 1.3239 0.0695122 1.24757
v 1.32253 0.0999648 1.24385
v 1.32043 0.0995786 1.25653
v 1.32139 0.0691846 1.26137
v 1.31852 0.147855 1.22624
v 1.31677 0.147833 1.2379
v 1.30231 0.147714 1.25333
v 1.30591 0.099103 1.27277
v 1.30673 0.0687911 1.27839
v 1.1933 0.298556 1.18679
v 1.24589 0.29699 1.16501
v 1.23303 0.358888 1.08178
v 1.17985 0.361036 1.10254
v 1.28315 0.29485 1.146
v 1.271 0.355802 1.06429
v 1.25561 0.39427 0.980828
v 1.21689 0.397845 0.996115
v 1.16339 0.400214 1.01563
v 1.11814 0.4076 0.868818
v 1.17096 0.405704 0.853631
v 1.14724 0.388037 0.791468
v 1.09498 0.389634 0.804546
v 1.21137 0.402067 0.845768
v 1.18844 0.384333 0.787359
v 1.17213 0.36318 0.744477
v 1.13043 0.366839 0.745886
v 1.07866 0.368211 0.75744
v 1.12108 0.069051 1.35811
v 1.1199 0.0995576 1.35445
v 1.09743 0.100015 1.3614
v 1.09853 0.0694645 1.36472
v 1.11566 0.148908 1.33576
v 1.09331 0.149333 1.34297
v 1.06923 0.149959 1.34589
v 1.07316 0.101037 1.36428
v 1.07422 0.0707468 1.36755
v 1.22824 0.398531 0.84081
v 1.206 0.380646 0.785372
v 1.23079 0.395254 0.836976
v 1.20901 0.377207 0.783804
v 1.19343 0.356434 0.744611
v 1.19013 0.35964 0.744597
v 1.29796 0.29264 1.13201
v 1.2861 0.352771 1.05149
v 1.29948 0.290446 1.12104
v 1.28765 0.349879 1.04147
v 1.27284 0.387702 0.961556
v 1.27114 0.390864 0.969955
v 1.18454 0.343057 0.727159
v 1.16651 0.34586 0.726274
v 1.18783 0.340821 0.727652
v 1.18692 0.330193 0.722318
v 1.18394 0.331608 0.722182
v 1.16618 0.333752 0.721486
v 1.12476 0.349166 0.726556
v 1.07333 0.350388 0.737364
v 1.12465 0.336689 0.721681
v 1.07345 0.337815 0.732267
v 0.970645 0.358568 0.832323
v 0.988095 0.359821 0.825026
v 0.98539 0.341649 0.806204
v 0.968244 0.340458 0.813686
v 1.00337 0.361709 0.81177
v 1.00013 0.343596 0.792622
v 1.00069 0.331278 0.787216
v 0.986047 0.329408 0.800755
v 0.968968 0.3283 0.808283
v 0.994593 0.401782 0.933141
v 1.01377 0.402933 0.926833
v 0.998491 0.382828 0.868119
v 0.980309 0.381592 0.874999
v 1.03191 0.404093 0.915845
v 1.01499 0.384408 0.855814
v 1.04922 0.298812 1.23428
v 1.07222 0.299232 1.23098
v 1.05929 0.360829 1.14787
v 1.03712 0.360113 1.15189
v 1.09422 0.299229 1.22356
v 1.08101 0.361069 1.14006
v 1.06641 0.399385 1.05519
v 1.04535 0.398893 1.06374
v 1.02412 0.398012 1.06865
v 1.22053 0.0681781 1.32391
v 1.21918 0.0983653 1.31861
v 1.16365 0.0988692 1.33965
v 1.16498 0.0685415 1.34409
v 1.21481 0.147557 1.29875
v 1.15925 0.148179 1.32033
v 1.03379 0.36552 0.784416
v 1.02948 0.347545 0.764611
v 1.02984 0.335076 0.759325
v 1.0681 0.406365 0.893201
v 1.04788 0.387562 0.830436
v 1.13752 0.299155 1.20783
v 1.12404 0.361456 1.12372
v 1.10835 0.400287 1.03748
v 1.27022 0.0985534 1.29471
v 1.27127 0.0683452 1.30046
v 1.26625 0.147497 1.27481
v 1.30721 0.0315221 1.28071
v 1.30699 0.0479997 1.28007
v 1.27171 0.0476884 1.3023
v 1.27205 0.0313175 1.30315
v 1.22117 0.0475717 1.32551
v 1.22167 0.0312407 1.32629
v 1.16561 0.0478251 1.34508
v 1.16611 0.031407 1.34544
v 1.1216 0.0481805 1.35849
v 1.12201 0.0316402 1.35838
v 1.09899 0.0485447 1.36483
v 1.09936 0.0319305 1.36451
v 1.07467 0.0499694 1.36763
v 1.07506 0.0332245 1.36729
v 1.32517 0.031853 1.24815
v 1.32461 0.0485034 1.24814
v 1.32179 0.0482745 1.26257
v 1.3221 0.0317026 1.26292
v 1.0892 0.413298 0.961399
v 1.04972 0.411785 0.981317
v 1.14214 0.413785 0.938429
v 1.02993 0.410993 0.990978
v 1.00972 0.409968 0.996646
v 1.25116 0.404407 0.900915
v 1.23501 0.407897 0.909032
v 1.25323 0.401194 0.894679
v 1.19546 0.411564 0.920909
v 1.14992 0.221091 1.2757
v 1.10649 0.221581 1.2913
v 1.20557 0.220431 1.2543
v 1.08429 0.221831 1.2986
v 1.06063 0.221915 1.30158
v 1.30872 0.217879 1.1961
v 1.29415 0.218837 1.21085
v 1.31029 0.216856 1.18481
v 1.25754 0.219683 1.23126
v 1.32567 0.015929 1.24807
v 1.32237 0.0158538 1.26317
v 1.30739 0.0157634 1.28123
v 1.12237 0.0158217 1.35822
v 1.09969 0.0159836 1.36417
v 1.07543 0.0167482 1.36694
v 1.22212 0.0156223 1.3269
v 1.16655 0.0157052 1.34568
v 1.27236 0.0156609 1.30383
v 1.02568 0.0363278 1.37033
v 1.02617 0.0185856 1.37003
v 0.959782 0.0405257 1.37393
v 0.960422 0.0210711 1.37368
v 1.00274 0.297589 1.23829
v 1.01267 0.221928 1.30481
v 0.94073 0.295877 1.24324
v 0.948652 0.221913 1.30867
v 0.954991 0.15315 1.35253
v 1.02029 0.15132 1.34893
v 0.955789 0.399201 0.943559
v 0.969086 0.407509 1.00588
v 0.904014 0.395665 0.957235
v 0.91489 0.404118 1.01794
v 0.924823 0.392659 1.0863
v 0.981574 0.395768 1.07635
v 0.934828 0.35612 0.844501
v 0.94323 0.379019 0.88643
v 0.88701 0.352804 0.860594
v 0.89374 0.375517 0.901499
v 0.93378 0.326238 0.820967
v 0.93294 0.338212 0.82623
v 0.88679 0.323456 0.837756
v 0.885797 0.335178 0.842827
v 1.0248 0.0737751 1.37056
v 1.02524 0.0533695 1.37065
v 0.958833 0.0778709 1.37412
v 0.959274 0.0579687 1.37422
v 1.02382 0.103398 1.36729
v 0.95797 0.106588 1.37084
v 0.992542 0.358194 1.15761
v 0.933075 0.355528 1.16489
v 1.18395 -0.323011 0.714497
v 1.17532 -0.312371 0.694956
v 1.15911 -0.293854 0.657936
v 1.13681 -0.259379 0.606753
v 1.11184 -0.206116 0.54979
v 1.0919 -0.154678 0.506621
v 1.08315 -0.124985 0.492494
v 1.08137 -0.110751 0.494142
v 1.08078 -0.0994662 0.494573
v 1.07975 -0.0799471 0.490383
v 1.07808 -0.0447411 0.482884
v 1.18394 0.321891 0.714501
v 1.13681 0.258678 0.606756
v 1.1591 0.292957 0.657939
v 1.17531 0.311355 0.694959
v 1.0919 0.154557 0.506623
v 1.11184 0.205719 0.549792
v 1.08137 0.110767 0.494143
v 1.08315 0.124984 0.492495
v 1.07808 0.0447567 0.482884
v 1.07975 0.0799626 0.490384
v 1.08078 0.0994817 0.494574
v 1.07714 7.81383e-06 0.478635
v 0.885752 -0.319667 0.831134
v 0.851131 -0.258301 0.720371
v 0.868024 -0.292079 0.77409
v 0.880012 -0.310267 0.812275
v 0.817361 -0.158689 0.614576
v 0.832209 -0.207383 0.660405
v 0.810669 -0.117287 0.599548
v 0.811392 -0.130676 0.59874
v 0.809327 -0.0483613 0.589208
v 0.809917 -0.086119 0.595959
v 0.810442 -0.106398 0.599783
v 0.80904 5.62275e-06 0.585392
v 0.809916 0.0861301 0.59596
v 0.809326 0.0483725 0.589209
v 0.81044 0.106409 0.599784
v 0.817359 0.158191 0.614578
v 0.81139 0.130623 0.598742
v 0.810668 0.117299 0.59955
v 0.885749 0.315774 0.831137
v 0.832206 0.205845 0.660408
v 0.86802 0.28856 0.774093
v 0.851128 0.255584 0.720374
v 0.880008 0.306382 0.812278
vt 0.4697 0.6261
vt 0.4791 0.5832
vt 0.07678 0.6986
vt 0.08456 0.6652
vt 0.1597 0.7833
vt 0.3548 0.5662
vt 0.1469 0.7767
vt 0.07593 0.672
vt 0.1772 0.7803
vt 0.3575 0.6074
vt 0.4676 0.5841
vt 0.07052 0.6923
vt 0.2196 0.6336
vt 0.1649 0.7958
vt 0.2539 0.7148
vt 0.1469 0.7767
vt 0.4471 0.5494
vt 0.3657 0.626
vt 0.3575 0.6074
vt 0.4764 0.5474
vt 0.0495 0.689
vt 0.4651 0.5476
vt 0.1553 0.7902
vt 0.2617 0.7062
vt 0.1671 0.7751
vt 0.4777 0.5635
vt 0.4704 0.6218
vt 0.4707 0.6144
vt 0.1005 0.664
vt 0.04559 0.6923
vt 0.06933 0.6753
vt 0.4544 0.6251
vt 0.08385 0.6642
vt 0.1694 0.7883
vt 0.2159 0.6188
vt 0.1539 0.7923
vt 0.05893 0.6831
vt 0.4665 0.5638
vt 0.2084 0.6148
vt 0.1666 0.7926
vt 0.4676 0.5841
vt 0.4535 0.6294
vt 0.05912 0.6824
vt 0.2159 0.6188
vt 0.2137 0.6108
vt 0.1569 0.7874
vt 0.4481 0.5659
vt 0.3365 0.6363
vt 0.2476 0.6962
vt 0.05939 0.6842
vt 0.1694 0.7883
vt 0.2159 0.6188
vt 0.1597 0.7833
vt 0.2142 0.6123
vt 0.2444 0.5972
vt 0.05893 0.6831
vt 0.1553 0.7902
vt 0.2251 0.6061
vt 0.1597 0.7833
vt 0.2137 0.6108
vt 0.05893 0.6831
vt 0.09656 0.6575
vt 0.1671 0.7751
vt 0.08385 0.6642
vt 0.1426 0.7832
vt 0.244 0.5956
vt 0.1553 0.7902
vt 0.4544 0.6251
vt 0.4665 0.5638
vt 0.05939 0.6842
vt 0.4665 0.5638
vt 0.4777 0.5635
vt 0.3913 0.5999
vt 0.3259 0.6178
vt 0.4665 0.5638
vt 0.07325 0.6792
vt 0.2269 0.6129
vt 0.1569 0.7874
vt 0.07877 0.6683
vt 0.1539 0.7923
vt 0.4481 0.5659
vt 0.3971 0.6177
vt 0.4546 0.6175
vt 0.08786 0.6703
vt 0.05893 0.6831
vt 0.07593 0.672
vt 0.2684 0.5852
vt 0.1649 0.7958
vt 0.06992 0.676
vt 0.2251 0.6061
vt 0.2269 0.6129
vt 0.06933 0.6753
vt 0.4651 0.5476
vt 0.1524 0.8234
vt 0.4374 0.5898
vt 0.2444 0.5972
vt 0.08456 0.6652
vt 0.1593 0.8119
vt 0.2688 0.5868
vt 0.3971 0.6177
vt 0.2309 0.6282
vt 0.1264 0.8093
vt 0.3876 0.5598
vt 0.3714 0.6404
vt 0.08268 0.674
vt 0.2505 0.6195
vt 0.1365 0.8148
vt 0.3657 0.626
vt 0.07945 0.6692
vt 0.2505 0.6195
vt 0.142 0.8058
vt 0.401 0.6318
vt 0.08786 0.6703
vt 0.2719 0.6505
vt 0.2309 0.6282
vt 0.1319 0.8003
vt 0.09728 0.6587
vt 0.2444 0.5972
vt 0.1365 0.8148
vt 0.2463 0.6041
vt 0.2246 0.6045
vt 0.1444 0.819
vt 0.2393 0.7055
vt 0.1497 0.81
vt 0.2088 0.6161
vt 0.142 0.8058
vt 0.2688 0.5868
vt 0.142 0.8058
vt 0.2707 0.5936
vt 0.07921 0.6765
vt 0.1497 0.81
vt 0.2361 0.7112
vt 0.1518 0.8037
vt 0.07945 0.6692
vt 0.1463 0.7991
vt 0.4018 0.6395
vt 0.07593 0.672
vt 0.4926 0.612
vt 0.2269 0.6129
vt 0.3728 0.6481
vt 0.2463 0.6041
vt 0.3716 0.6516
vt 0.2142 0.6123
vt 0.4923 0.5998
vt 0.2505 0.6195
vt 0.3716 0.6516
vt 0.2463 0.6041
vt 0.1628 0.8007
vt 0.2269 0.6129
vt 0.4869 0.6002
vt 0.2751 0.6089
vt 0.2463 0.6041
vt 0.4873 0.6125
vt 0.4923 0.5998
vt 0.3283 0.5888
vt 0.3588 0.5815
vt 0.26 0.7192
vt 0.3588 0.5815
vt 0.2648 0.6826
vt 0.4917 0.5829
vt 0.3642 0.6019
vt 0.3342 0.609
vt 0.2285 0.6832
vt 0.2561 0.6401
vt 0.2775 0.6936
vt 0.4869 0.6002
vt 0.0844 0.689
vt 0.07325 0.6792
vt 0.2648 0.6826
vt 0.2361 0.6486
vt 0.2617 0.7062
vt 0.4862 0.5831
vt 0.08682 0.6872
vt 0.3911 0.5755
vt 0.2871 0.6665
vt 0.4791 0.5832
vt 0.07921 0.6765
vt 0.2561 0.6401
vt 0.2473 0.6683
vt 0.4873 0.6125
vt 0.09441 0.7031
vt 0.3588 0.5815
vt 0.2476 0.6962
vt 0.4869 0.6002
vt 0.3876 0.5598
vt 0.4909 0.5634
vt 0.3548 0.5662
vt 0.1662 0.8034
vt 0.2058 0.6249
vt 0.4909 0.5634
vt 0.2535 0.7284
vt 0.4644 0.5403
vt 0.2084 0.6148
vt 0.2981 0.6788
vt 0.2093 0.6388
vt 0.4764 0.5474
vt 0.1649 0.7958
vt 0.2272 0.7207
vt 0.4902 0.5474
vt 0.2361 0.7112
vt 0.1726 0.7962
vt 0.2135 0.7033
vt 0.4644 0.5403
vt 0.07921 0.6765
vt 0.2775 0.6936
vt 0.1707 0.7994
vt 0.2162 0.6992
vt 0.4841 0.5474
vt 0.2569 0.7244
vt 0.1675 0.8042
vt 0.2535 0.7284
vt 0.4758 0.5401
vt 0.08682 0.6872
vt 0.2617 0.7062
vt 0.1662 0.8034
vt 0.2003 0.6422
vt 0.485 0.5634
vt 0.2466 0.734
vt 0.2825 0.6992
vt 0.09975 0.6997
vt 0.4651 0.5476
vt 0.2058 0.6249
vt 0.1649 0.7958
vt 0.2577 0.7255
vt 0.485 0.5634
vt 0.1693 0.7984
vt 0.2468 0.7357
vt 0.4644 0.5403
vt 0.09529 0.6818
vt 0.2332 0.7152
vt 0.4841 0.5474
vt 0.1711 0.7952
vt 0.2079 0.7092
vt 0.4644 0.5403
vt 0.08786 0.6703
vt 0.4862 0.5831
vt 0.09975 0.6997
vt 0.08786 0.6703
vt 0.4461 0.5421
vt 0.09529 0.6818
vt 0.4642 0.5386
vt 0.485 0.5634
vt 0.4676 0.5841
vt 0.08999 0.685
vt 0.2675 0.7111
vt 0.4757 0.5384
vt 0.2042 0.6187
vt 0.4777 0.5635
vt 0.08268 0.674
vt 0.2981 0.6788
vt 0.1078 0.6762
vt 0.2775 0.6936
vt 0.2042 0.6187
vt 0.4459 0.5405
vt 0.1707 0.7994
vt 0.254 0.7298
vt 0.4791 0.5832
vt 0.2466 0.734
vt 0.1693 0.7984
vt 0.254 0.7298
vt 0.1693 0.7984
vt 0.2332 0.7152
vt 0.4902 0.5474
vt 0.2135 0.7033
vt 0.1711 0.7952
vt 0.2332 0.7152
vt 0.4471 0.5494
vt 0.1948 0.6223
vt 0.4758 0.5401
vt 0.1693 0.7984
vt 0.2139 0.6574
vt 0.4841 0.5474
vt 0.2412 0.7296
vt 0.2825 0.6992
vt 0.1052 0.6971
vt 0.4707 0.6144
vt 0.4898 0.5401
vt 0.4801 0.6006
vt 0.2535 0.7284
vt 0.4898 0.5384
vt 0.2272 0.7207
vt 0.4836 0.5384
vt 0.4698 0.6015
vt 0.4836 0.5384
vt 0.2477 0.7242
vt 0.4791 0.5832
vt 0.1694 0.7883
vt 0.2093 0.6388
vt 0.4873 0.6125
vt 0.1501 0.6371
vt 0.2477 0.7242
vt 0.1711 0.7952
vt 0.4872 0.6196
vt 0.1657 0.6749
vt 0.2508 0.7203
vt 0.1666 0.7926
vt 0.4872 0.6196
vt 0.1395 0.6843
vt 0.2535 0.7284
vt 0.1739 0.7908
vt 0.1739 0.7908
vt 0.2569 0.7244
vt 0.4873 0.6125
vt 0.1309 0.6674
vt 0.4806 0.6132
vt 0.09529 0.6818
vt 0.4698 0.6015
vt 0.4804 0.6204
vt 0.08999 0.685
vt 0.4869 0.6237
vt 0.08999 0.685
vt 0.1078 0.6762
vt 0.4872 0.6196
vt 0.4804 0.6204
vt 0.1052 0.6971
vt 0.4698 0.6015
vt 0.4799 0.6246
vt 0.2038 0.6174
vt 0.3239 0.5737
vt 0.08682 0.6872
vt 0.2088 0.6161
vt 0.2963 0.5831
vt 0.1585 0.6574
vt 0.2751 0.6089
vt 0.1309 0.6674
vt 0.1078 0.6762
vt 0.3008 0.5983
vt 0.1395 0.6843
vt 0.1174 0.6924
vt 0.3008 0.5983
vt 0.2751 0.6089
vt 0.153 0.6442
vt 0.2809 0.6293
vt 0.26 0.7192
vt 0.1244 0.6547
vt 0.1929 0.7673
vt 0.3068 0.6184
vt 0.2508 0.7203
vt 0.09656 0.6575
vt 0.1739 0.7908
vt 0.212 0.7524
vt 0.1976 0.7703
vt 0.3068 0.6184
vt 0.2539 0.7148
vt 0.1208 0.6478
vt 0.1726 0.7962
vt 0.1818 0.7828
vt 0.1976 0.7703
vt 0.3342 0.609
vt 0.1754 0.7917
vt 0.1005 0.664
vt 0.1818 0.7828
vt 0.3216 0.5653
vt 0.1818 0.7828
vt 0.1215 0.649
vt 0.1987 0.7714
vt 0.2944 0.5763
vt 0.2675 0.7111
vt 0.09728 0.6587
vt 0.322 0.5669
vt 0.1215 0.649
vt 0.2944 0.5763
vt 0.1244 0.6547
vt 0.2104 0.6224
vt 0.1426 0.7832
vt 0.2244 0.6534
vt 0.3365 0.6363
vt 0.2104 0.6224
vt 0.4804 0.6204
vt 0.353 0.5593
vt 0.1597 0.7833
vt 0.07527 0.6711
vt 0.4707 0.6144
vt 0.07945 0.6692
vt 0.09529 0.6818
vt 0.1694 0.7883
vt 0.1005 0.664
vt 0.2682 0.7129
vt 0.302 0.6877
vt 0.2361 0.7112
vt 0.4642 0.5386
vt 0.2104 0.6224
vt 0.2042 0.6187
vt 0.3714 0.6404
vt 0.2038 0.6174
vt 0.345 0.6615
vt 0.2751 0.6089
vt 0.2871 0.6665
vt 0.3283 0.5888
vt 0.2476 0.6962
vt 0.2648 0.6826
vt 0.3239 0.5737
vt 0.2473 0.6683
vt 0.2505 0.6195
vt 0.3548 0.5662
vt 0.2648 0.6826
vt 0.2809 0.6293
vt 0.2539 0.7148
vt 0.2617 0.7062
vt 0.1215 0.649
vt 0.09728 0.6587
vt 0.1831 0.7837
vt 0.1208 0.6478
vt 0.1711 0.7952
vt 0.1506 0.6384
vt 0.1506 0.6384
vt 0.1215 0.649
vt 0.2569 0.7244
vt 0.1754 0.7917
vn 0.9981 -0.02576 -0.05582
vn 0.8957 -0.07553 0.4382
vn 0.8813 -0.1717 0.4401
vn 0.9969 -0.05789 -0.05371
vn 0.6427 -0.1126 0.7578
vn 0.6164 -0.2454 0.7482
vn 0.5719 -0.4039 0.7139
vn 0.8604 -0.2889 0.4197
vn 0.9932 -0.09333 -0.06885
vn 0.2489 -0.7295 0.6371
vn 0.1772 -0.8588 0.4807
vn 0.2357 -0.8502 0.4707
vn 0.308 -0.7173 0.6249
vn 0.09745 -0.9536 0.2849
vn 0.157 -0.9492 0.2724
vn 0.2777 -0.9283 0.247
vn 0.3793 -0.8169 0.4345
vn 0.4599 -0.6791 0.5721
vn -0.06546 -0.9865 -0.1499
vn -0.1231 -0.9451 -0.3027
vn 0.01904 -0.9333 -0.3586
vn 0.03244 -0.981 -0.1912
vn -0.2043 -0.8402 -0.5022
vn 6.104e-05 -0.8269 -0.5623
vn 0.1259 -0.7931 -0.5958
vn 0.1204 -0.906 -0.4057
vn 0.1162 -0.9659 -0.2311
vn 0.2936 -0.07874 0.9527
vn 0.201 -0.06351 0.9775
vn 0.2067 -0.2388 0.9488
vn 0.3007 -0.2485 0.9208
vn 0.09128 -0.0586 0.9941
vn 0.09622 -0.2379 0.9665
vn 0.09137 -0.4523 0.8871
vn 0.1971 -0.4502 0.8709
vn 0.2872 -0.451 0.8451
vn 0.3409 -0.8162 -0.4664
vn 0.3399 -0.8907 -0.3017
vn 0.3511 -0.7045 -0.6167
vn 0.7877 -0.3385 -0.5147
vn 0.8028 -0.388 -0.4527
vn 0.8002 -0.4505 -0.3959
vn 0.7517 -0.6131 0.2428
vn 0.8045 -0.4934 0.3307
vn 0.6489 -0.7533 0.1068
vn 0.9248 -0.3335 -0.1832
vn 0.9707 -0.2055 -0.1244
vn 0.9843 -0.1459 -0.09925
vn 0.09714 -0.5475 -0.8311
vn 0.2817 -0.5181 -0.8076
vn 0.08451 -0.4922 -0.8664
vn 0.2196 -0.4866 -0.8455
vn 0.7129 -0.2897 -0.6386
vn 0.721 -0.2763 -0.6354
vn -0.3117 -0.5587 -0.7685
vn -0.04743 -0.562 -0.8257
vn -0.319 -0.4851 -0.8141
vn -0.04718 -0.4906 -0.8701
vn -0.2644 -0.8188 -0.5096
vn -0.3445 -0.5557 -0.7566
vn -0.5059 -0.5265 -0.6832
vn -0.3743 -0.8065 -0.4577
vn -0.3535 -0.5155 -0.7805
vn -0.5208 -0.4742 -0.7098
vn -0.6485 -0.4306 -0.6277
vn -0.6335 -0.4802 -0.6067
vn -0.4729 -0.7795 -0.4107
vn -0.1328 -0.9798 -0.1494
vn -0.1923 -0.9297 -0.3142
vn -0.2579 -0.9242 -0.2816
vn -0.1635 -0.9779 -0.13
vn -0.3176 -0.9139 -0.2526
vn -0.1948 -0.9738 -0.1174
vn 0.05435 -0.745 0.6648
vn 0.02936 -0.8644 0.5018
vn 0.08536 -0.8643 0.4957
vn 0.1343 -0.7432 0.6554
vn -0.007447 -0.9516 0.3071
vn 0.02298 -0.9518 0.3057
vn 0.04163 -0.9536 0.298
vn 0.1277 -0.8646 0.4859
vn 0.1998 -0.7412 0.6408
vn 0.3784 -0.1248 0.9172
vn 0.3227 -0.1028 0.9409
vn 0.3266 -0.2626 0.9079
vn 0.3731 -0.274 0.8864
vn 0.3099 -0.4519 0.8365
vn 0.348 -0.4491 0.8229
vn -0.553 -0.5135 -0.6561
vn -0.401 -0.8086 -0.4304
vn -0.5723 -0.4463 -0.6879
vn -0.2622 -0.9299 -0.2579
vn -0.1579 -0.98 -0.1205
vn 0.1431 -0.8628 0.4848
vn 0.2172 -0.7368 0.6402
vn 0.05713 -0.954 0.2942
vn 0.4698 -0.13 0.8731
vn 0.4529 -0.2722 0.849
vn 0.4165 -0.4379 0.7967
vn 0.6593 -0.0369 0.751
vn 0.478 -0.04794 0.877
vn 0.4749 -0.06766 0.8774
vn 0.6534 -0.05475 0.755
vn 0.3717 -0.04538 0.9272
vn 0.3749 -0.06357 0.9249
vn 0.3039 -0.02561 0.9523
vn 0.3125 -0.04166 0.949
vn 0.2717 -0.002167 0.9623
vn 0.2815 -0.01645 0.9594
vn 0.1878 0.01291 0.9821
vn 0.193 -0.0001831 0.9812
vn 0.08676 0.01779 0.9961
vn 0.08747 0.005646 0.9961
vn 0.9986 -0.01358 -0.05029
vn 0.8994 -0.02847 0.4361
vn 0.8992 -0.03885 0.4357
vn 0.9984 -0.01602 -0.05445
vn -0.07025 -0.9946 0.0766
vn -0.04825 -0.9962 0.07166
vn 0.009583 -0.9985 0.05341
vn -0.06644 -0.9953 0.07056
vn -0.06446 -0.9948 0.07846
vn 0.1709 -0.9853 0.002319
vn 0.4771 -0.8741 -0.09168
vn 0.8409 -0.4535 -0.2952
vn 0.07917 -0.9964 0.02954
vn 0.2544 -0.6016 0.7571
vn 0.2746 -0.5968 0.7539
vn 0.3075 -0.5884 0.7478
vn 0.07566 -0.6076 0.7906
vn 0.1723 -0.6049 0.7774
vn 0.5217 -0.538 0.6621
vn 0.8375 -0.3869 0.3858
vn 0.9895 -0.1166 -0.08515
vn 0.3691 -0.5746 0.7305
vn 0.999 0 -0.04389
vn 0.8984 0 0.4392
vn 0.8987 -0.01935 0.4381
vn 0.9989 -0.009278 -0.0459
vn 0.664 0 0.7477
vn 0.6627 -0.02515 0.7484
vn 0.2617 0 0.9651
vn 0.1837 0 0.983
vn 0.1848 0.009857 0.9827
vn 0.2646 -0.0002747 0.9644
vn 0.08814 0 0.9961
vn 0.08756 0.01267 0.9961
vn 0.3688 0 0.9295
vn 0.2951 0 0.9554
vn 0.2976 -0.01648 0.9545
vn 0.3695 -0.03037 0.9287
vn 0.4812 0 0.8766
vn 0.4803 -0.03256 0.8765
vn 0.05841 0.01071 0.9982
vn 0.05719 0.01627 0.9982
vn 0.05911 0 0.9982
vn -0.6127 0 0.7903
vn -0.6162 0.006256 0.7875
vn -0.6206 0.009949 0.7841
vn 0.04935 -0.6109 0.7902
vn 0.03189 -0.745 0.6662
vn 0.06287 -0.4573 0.8871
vn -0.6016 -0.3233 0.7304
vn -0.6176 -0.4255 0.6615
vn -0.6274 -0.5189 0.5806
vn -0.07096 -0.9952 0.06699
vn -0.1304 -0.9789 -0.1575
vn -0.01846 -0.9509 0.3088
vn -0.6538 -0.6762 0.3394
vn -0.6853 -0.7095 0.1644
vn -0.7309 -0.6825 0.005371
vn -0.1832 -0.9278 -0.3251
vn -0.2471 -0.8156 -0.5231
vn -0.7649 -0.6351 -0.1076
vn -0.7897 -0.5629 -0.2439
vn -0.3167 -0.5535 -0.7703
vn -0.3232 -0.5178 -0.7921
vn -0.8189 -0.3918 -0.4194
vn -0.8237 -0.3497 -0.4462
vn 0.05722 0.005615 0.9983
vn 0.06055 -0.05899 0.9964
vn -0.6191 0.002899 0.7853
vn -0.6074 -0.0426 0.7932
vn 0.06592 -0.2412 0.9682
vn -0.5886 -0.175 0.7893
vn 0.01245 -0.8628 0.5054
vn -0.6403 -0.6041 0.4744
vn 0.9981 0.02579 -0.05579
vn 0.9969 0.05817 -0.05362
vn 0.8813 0.1723 0.44
vn 0.8957 0.07559 0.4382
vn 0.9932 0.09397 -0.06897
vn 0.8604 0.2904 0.4187
vn 0.5726 0.4054 0.7125
vn 0.6165 0.2459 0.7479
vn 0.6427 0.1127 0.7578
vn 0.2657 0.7283 0.6316
vn 0.3174 0.7184 0.619
vn 0.2473 0.8517 0.4619
vn 0.2016 0.8593 0.47
vn 0.4647 0.6807 0.5662
vn 0.3841 0.8183 0.4276
vn 0.2777 0.9297 0.2421
vn 0.1648 0.9509 0.2618
vn 0.1227 0.9559 0.2668
vn -0.0596 0.9839 -0.1685
vn 0.01971 0.981 -0.1929
vn -0.003021 0.9353 -0.3538
vn -0.1284 0.9412 -0.3125
vn 0.09592 0.9701 -0.2228
vn 0.09195 0.9145 -0.3939
vn 0.09561 0.8039 -0.587
vn -0.02533 0.8307 -0.5561
vn -0.2157 0.8362 -0.5042
vn 0.2936 0.07862 0.9527
vn 0.3013 0.2467 0.921
vn 0.2071 0.2367 0.9492
vn 0.201 0.06336 0.9775
vn 0.2912 0.4458 0.8464
vn 0.1997 0.4441 0.8734
vn 0.09256 0.4456 0.8904
vn 0.09635 0.2355 0.967
vn 0.09128 0.05844 0.9941
vn 0.3277 0.8981 -0.2932
vn 0.3233 0.8286 -0.4571
vn 0.7988 0.4555 -0.3929
vn 0.8006 0.3949 -0.4507
vn 0.7846 0.3458 -0.5146
vn 0.3318 0.7186 -0.6112
vn 0.8058 0.4941 0.3264
vn 0.7529 0.6134 0.2384
vn 0.9841 0.1462 -0.1003
vn 0.9705 0.2055 -0.1255
vn 0.9246 0.3337 -0.1834
vn 0.6479 0.7544 0.1049
vn 0.2648 0.5278 -0.807
vn 0.0745 0.555 -0.8285
vn 0.7172 0.2819 -0.6372
vn 0.7075 0.2947 -0.6424
vn 0.2023 0.4933 -0.846
vn 0.06412 0.4996 -0.8639
vn -0.06641 0.5657 -0.8219
vn -0.3209 0.557 -0.766
vn -0.06433 0.4983 -0.8646
vn -0.3268 0.4917 -0.807
vn -0.2577 0.8012 -0.5401
vn -0.3688 0.7918 -0.4867
vn -0.5007 0.5173 -0.694
vn -0.3376 0.5446 -0.7677
vn -0.4693 0.769 -0.434
vn -0.6308 0.4741 -0.6143
vn -0.6453 0.4332 -0.6292
vn -0.5156 0.4747 -0.7132
vn -0.3465 0.514 -0.7846
vn -0.1216 0.9726 -0.1982
vn -0.1433 0.9734 -0.1788
vn -0.2474 0.913 -0.3244
vn -0.1847 0.9152 -0.3583
vn -0.1683 0.9721 -0.1633
vn -0.3059 0.9067 -0.2902
vn 0.06406 0.7371 0.6727
vn 0.1524 0.7359 0.6597
vn 0.1148 0.8619 0.4939
vn 0.04578 0.862 0.5047
vn 0.2261 0.7341 0.6403
vn 0.1693 0.8616 0.4785
vn 0.09009 0.9572 0.2749
vn 0.05808 0.9562 0.2869
vn 0.01205 0.9562 0.2923
vn 0.3784 0.1247 0.9172
vn 0.3735 0.2736 0.8863
vn 0.3272 0.2615 0.908
vn 0.3228 0.1027 0.9409
vn 0.3507 0.4479 0.8224
vn 0.3136 0.4486 0.8368
vn -0.4007 0.801 -0.4446
vn -0.5535 0.5093 -0.6589
vn -0.5716 0.4511 -0.6854
vn -0.1358 0.9784 -0.156
vn -0.2539 0.9245 -0.2843
vn 0.2412 0.7325 0.6366
vn 0.1804 0.8615 0.4745
vn 0.09967 0.9573 0.2713
vn 0.4532 0.2725 0.8487
vn 0.4699 0.1301 0.8731
vn 0.4181 0.4385 0.7955
vn 0.6593 0.0369 0.751
vn 0.6534 0.05475 0.755
vn 0.4749 0.06763 0.8774
vn 0.478 0.04794 0.877
vn 0.3749 0.06357 0.9249
vn 0.3717 0.04538 0.9272
vn 0.3125 0.04166 0.949
vn 0.3039 0.02561 0.9523
vn 0.2815 0.01645 0.9594
vn 0.2717 0.002167 0.9623
vn 0.193 0.0001526 0.9812
vn 0.1878 -0.01291 0.9821
vn 0.08747 -0.005646 0.9961
vn 0.08676 -0.01779 0.9961
vn 0.9986 0.01358 -0.05029
vn 0.9984 0.01602 -0.05445
vn 0.8992 0.03885 0.4357
vn 0.8994 0.02847 0.4361
vn -0.01257 0.9992 0.03635
vn -0.02881 0.999 0.03516
vn 0.02716 0.9991 0.0307
vn -0.03412 0.9987 0.03797
vn -0.05008 0.9982 0.03198
vn 0.4715 0.8774 -0.08841
vn 0.1615 0.9868 0.003357
vn 0.8407 0.4553 -0.2931
vn 0.07767 0.9967 0.02112
vn 0.286 0.5921 0.7534
vn 0.2668 0.5941 0.7588
vn 0.3157 0.5868 0.7456
vn 0.1807 0.5965 0.782
vn 0.07978 0.5983 0.7973
vn 0.838 0.3884 0.3831
vn 0.5242 0.5398 0.6586
vn 0.9894 0.1173 -0.08576
vn 0.3739 0.5754 0.7273
vn 0.9989 0.009308 -0.0459
vn 0.8987 0.01935 0.4381
vn 0.6627 0.02515 0.7484
vn 0.2645 0.0002747 0.9644
vn 0.1848 -0.009857 0.9827
vn 0.08756 -0.0127 0.9961
vn 0.3695 0.03037 0.9287
vn 0.2976 0.01648 0.9545
vn 0.4803 0.03256 0.8765
vn 0.05719 -0.01627 0.9982
vn 0.05841 -0.01074 0.9982
vn -0.6206 -0.009919 0.7841
vn -0.6162 -0.006256 0.7875
vn 0.0401 0.7357 0.6761
vn 0.05274 0.6005 0.7978
vn -0.6236 0.5134 0.5895
vn -0.6162 0.418 0.6675
vn -0.6019 0.3176 0.7327
vn 0.06375 0.4499 0.8908
vn -0.1216 0.9706 -0.2076
vn -0.05768 0.9979 0.02814
vn -0.7309 0.6818 -0.03046
vn -0.6803 0.7199 0.1375
vn -0.6451 0.6873 0.3338
vn -0.001953 0.9552 0.2958
vn -0.2408 0.7964 -0.5547
vn -0.1769 0.9117 -0.3707
vn -0.791 0.5507 -0.2664
vn -0.7663 0.627 -0.1401
vn -0.3163 0.5145 -0.797
vn -0.31 0.5411 -0.7817
vn -0.822 0.347 -0.4515
vn -0.8193 0.3829 -0.4267
vn 0.06055 0.05884 0.9964
vn 0.05722 -0.005615 0.9983
vn -0.6075 0.04251 0.7932
vn -0.6191 -0.002899 0.7853
vn 0.06601 0.2386 0.9688
vn -0.5891 0.1728 0.7893
vn 0.02652 0.8592 0.5109
vn -0.6333 0.6055 0.482
vn 0.7414 -0.3874 -0.5479
vn 0.7866 -0.389 -0.4794
vn 0.7908 -0.3594 -0.4955
vn 0.797 -0.3022 -0.5229
vn 0.8175 -0.2267 -0.5294
vn 0.8353 -0.1421 -0.5311
vn 0.837 0.003327 -0.5472
vn 0.8608 0.0567 -0.5058
vn 0.8802 -0.01108 -0.4745
vn 0.9166 -0.04056 -0.3978
vn 0.9549 -0.01584 -0.2965
vn 0.734 0.3976 -0.5505
vn 0.7952 0.3062 -0.5233
vn 0.7872 0.3664 -0.4961
vn 0.7811 0.3991 -0.4801
vn 0.8351 0.1431 -0.5311
vn 0.8168 0.2286 -0.5296
vn 0.8608 -0.05673 -0.5058
vn 0.8369 -0.003143 -0.5473
vn 0.9549 0.01584 -0.2965
vn 0.9166 0.04059 -0.3978
vn 0.8802 0.01111 -0.4745
vn 0.9708 0 -0.2398
vn -0.7829 -0.5548 -0.2815
vn -0.8054 -0.547 -0.2279
vn -0.7871 -0.5949 -0.1628
vn -0.7866 -0.6029 -0.1332
vn -0.8419 -0.4098 -0.351
vn -0.8272 -0.487 -0.2802
vn -0.9097 0.0101 -0.4151
vn -0.8639 -0.1794 -0.4706
vn -0.9047 -0.07736 -0.419
vn -0.9056 -0.1075 -0.4102
vn -0.9035 -0.05048 -0.4256
vn -0.9045 0 -0.4265
vn -0.9056 0.1075 -0.4102
vn -0.9047 0.07736 -0.419
vn -0.9035 0.05048 -0.4256
vn -0.8402 0.4154 -0.3486
vn -0.8632 0.1821 -0.4708
vn -0.9097 -0.01013 -0.4151
vn -0.7787 0.5575 -0.2877
vn -0.8249 0.4932 -0.2762
vn -0.7835 0.6007 -0.1592
vn -0.8025 0.5532 -0.2235
vn -0.7821 0.6087 -0.1333
f 1/1/1 2/2/2 3/3/3
f 1/1/1 3/3/3 4/4/4
f 2/2/2 5/5/5 6/6/6
f 2/2/2 6/6/6 3/3/3
f 3/3/3 6/6/6 7/7/7
f 3/3/3 7/7/7 8/8/8
f 4/4/4 3/3/3 8/8/8
f 4/4/4 8/8/8 9/9/9
f 10/10/10 11/11/11 12/12/12
f 10/10/10 12/12/12 13/13/13
f 11/11/11 14/14/14 15/15/15
f 11/11/11 15/15/15 12/12/12
f 12/12/12 15/15/15 16/16/16
f 12/12/12 16/16/16 17/17/17
f 13/13/13 12/12/12 17/17/17
f 13/13/13 17/17/17 18/18/18
f 19/19/19 20/20/20 21/21/21
f 19/19/19 21/21/21 22/22/22
f 20/20/20 23/23/23 24/24/24
f 20/20/20 24/24/24 21/21/21
f 21/21/21 24/24/24 25/25/25
f 21/21/21 25/25/25 26/26/26
f 22/22/22 21/21/21 26/26/26
f 22/22/22 26/26/26 27/27/27
f 28/28/28 29/29/29 30/30/30
f 28/28/28 30/30/30 31/31/31
f 29/29/29 32/32/32 33/33/33
f 29/29/29 33/33/33 30/30/30
f 30/30/30 33/33/33 34/34/34
f 30/30/30 34/34/34 35/35/35
f 31/31/31 30/30/30 35/35/35
f 31/31/31 35/35/35 36/36/36
f 27/27/27 26/26/26 37/37/37
f 27/27/27 37/37/37 38/38/38
f 26/26/26 25/25/25 39/39/39
f 26/26/26 39/39/39 37/37/37
f 37/37/37 39/39/39 40/40/40
f 37/37/37 40/40/40 41/41/41
f 38/38/38 37/37/37 41/41/41
f 38/38/38 41/41/41 42/42/42
f 18/18/18 17/17/17 43/43/43
f 18/18/18 43/43/43 44/44/44
f 17/17/17 16/16/16 45/45/45
f 17/17/17 45/45/45 43/43/43
f 43/43/43 45/45/45 46/46/46
f 43/43/43 46/46/46 47/47/47
f 44/44/44 43/43/43 47/47/47
f 44/44/44 47/47/47 48/48/48
f 25/25/25 49/49/49 50/50/50
f 25/25/25 50/50/50 39/39/39
f 49/49/49 51/51/51 52/52/52
f 49/49/49 52/52/52 50/50/50
f 50/50/50 52/52/52 53/53/53
f 50/50/50 53/53/53 54/54/54
f 39/39/39 50/50/50 54/54/54
f 39/39/39 54/54/54 40/40/40
f 23/23/23 55/55/55 56/56/56
f 23/23/23 56/56/56 24/24/24
f 55/55/55 57/57/57 58/58/58
f 55/55/55 58/58/58 56/56/56
f 56/56/56 58/58/58 51/51/51
f 56/56/56 51/51/51 49/49/49
f 24/24/24 56/56/56 49/49/49
f 24/24/24 49/49/49 25/25/25
f 59/59/59 60/60/60 61/61/61
f 59/59/59 61/61/61 62/62/62
f 60/60/60 63/63/63 64/64/64
f 60/60/60 64/64/64 61/61/61
f 61/61/61 64/64/64 65/65/65
f 61/61/61 65/65/65 66/66/66
f 62/62/62 61/61/61 66/66/66
f 62/62/62 66/66/66 67/67/67
f 68/68/68 69/69/69 70/70/70
f 68/68/68 70/70/70 71/71/71
f 69/69/69 59/59/59 62/62/62
f 69/69/69 62/62/62 70/70/70
f 70/70/70 62/62/62 67/67/67
f 70/70/70 67/67/67 72/72/72
f 71/71/71 70/70/70 72/72/72
f 71/71/71 72/72/72 73/73/73
f 74/74/74 75/75/75 76/76/76
f 74/74/74 76/76/76 77/77/77
f 75/75/75 78/78/78 79/79/79
f 75/75/75 79/79/79 76/76/76
f 76/76/76 79/79/79 80/80/80
f 76/76/76 80/80/80 81/81/81
f 77/77/77 76/76/76 81/81/81
f 77/77/77 81/81/81 82/82/82
f 83/83/83 84/84/84 85/85/85
f 83/83/83 85/85/85 86/86/86
f 84/84/84 28/28/28 31/31/31
f 84/84/84 31/31/31 85/85/85
f 85/85/85 31/31/31 36/36/36
f 85/85/85 36/36/36 87/87/87
f 86/86/86 85/85/85 87/87/87
f 86/86/86 87/87/87 88/88/88
f 67/67/67 66/66/66 89/89/89
f 67/67/67 89/89/89 90/90/90
f 66/66/66 65/65/65 91/91/91
f 66/66/66 91/91/91 89/89/89
f 89/89/89 91/91/91 57/57/57
f 89/89/89 57/57/57 55/55/55
f 90/90/90 89/89/89 55/55/55
f 90/90/90 55/55/55 23/23/23
f 73/73/73 72/72/72 92/92/92
f 73/73/73 92/92/92 93/93/93
f 72/72/72 67/67/67 90/90/90
f 72/72/72 90/90/90 92/92/92
f 92/92/92 90/90/90 23/23/23
f 92/92/92 23/23/23 20/20/20
f 93/93/93 92/92/92 20/20/20
f 93/93/93 20/20/20 19/19/19
f 82/82/82 81/81/81 94/94/94
f 82/82/82 94/94/94 95/95/95
f 81/81/81 80/80/80 96/96/96
f 81/81/81 96/96/96 94/94/94
f 94/94/94 96/96/96 14/14/14
f 94/94/94 14/14/14 11/11/11
f 95/95/95 94/94/94 11/11/11
f 95/95/95 11/11/11 10/10/10
f 5/5/5 97/97/97 98/98/98
f 5/5/5 98/98/98 6/6/6
f 97/97/97 83/83/83 86/86/86
f 97/97/97 86/86/86 98/98/98
f 98/98/98 86/86/86 88/88/88
f 98/98/98 88/88/88 99/99/99
f 6/6/6 98/98/98 99/99/99
f 6/6/6 99/99/99 7/7/7
f 100/100/100 101/101/101 102/102/102
f 100/100/100 102/102/102 103/103/103
f 101/101/101 104/104/104 105/105/105
f 101/101/101 105/105/105 102/102/102
f 102/102/102 105/105/105 83/83/83
f 102/102/102 83/83/83 97/97/97
f 103/103/103 102/102/102 97/97/97
f 103/103/103 97/97/97 5/5/5
f 104/104/104 106/106/106 107/107/107
f 104/104/104 107/107/107 105/105/105
f 106/106/106 108/108/108 109/109/109
f 106/106/106 109/109/109 107/107/107
f 107/107/107 109/109/109 28/28/28
f 107/107/107 28/28/28 84/84/84
f 105/105/105 107/107/107 84/84/84
f 105/105/105 84/84/84 83/83/83
f 108/108/108 110/110/110 111/111/111
f 108/108/108 111/111/111 109/109/109
f 110/110/110 112/112/112 113/113/113
f 110/110/110 113/113/113 111/111/111
f 111/111/111 113/113/113 32/32/32
f 111/111/111 32/32/32 29/29/29
f 109/109/109 111/111/111 29/29/29
f 109/109/109 29/29/29 28/28/28
f 114/114/114 115/115/115 116/116/116
f 114/114/114 116/116/116 117/117/117
f 115/115/115 100/100/100 103/103/103
f 115/115/115 103/103/103 116/116/116
f 116/116/116 103/103/103 5/5/5
f 116/116/116 5/5/5 2/2/2
f 117/117/117 116/116/116 2/2/2
f 117/117/117 2/2/2 1/1/1
f 80/80/80 118/118/118 119/119/119
f 80/80/80 119/119/119 96/96/96
f 118/118/118 73/73/73 93/93/93
f 118/118/118 93/93/93 119/119/119
f 119/119/119 93/93/93 19/19/19
f 119/119/119 19/19/19 120/120/120
f 96/96/96 119/119/119 120/120/120
f 96/96/96 120/120/120 14/14/14
f 78/78/78 121/121/121 122/122/122
f 78/78/78 122/122/122 79/79/79
f 121/121/121 68/68/68 71/71/71
f 121/121/121 71/71/71 122/122/122
f 122/122/122 71/71/71 73/73/73
f 122/122/122 73/73/73 118/118/118
f 79/79/79 122/122/122 118/118/118
f 79/79/79 118/118/118 80/80/80
f 16/16/16 123/123/123 124/124/124
f 16/16/16 124/124/124 45/45/45
f 123/123/123 27/27/27 38/38/38
f 123/123/123 38/38/38 124/124/124
f 124/124/124 38/38/38 42/42/42
f 124/124/124 42/42/42 125/125/125
f 45/45/45 124/124/124 125/125/125
f 45/45/45 125/125/125 46/46/46
f 14/14/14 120/120/120 126/126/126
f 14/14/14 126/126/126 15/15/15
f 120/120/120 19/19/19 22/22/22
f 120/120/120 22/22/22 126/126/126
f 126/126/126 22/22/22 27/27/27
f 126/126/126 27/27/27 123/123/123
f 15/15/15 126/126/126 123/123/123
f 15/15/15 123/123/123 16/16/16
f 36/36/36 127/127/127 128/128/128
f 36/36/36 128/128/128 87/87/87
f 127/127/127 82/82/82 95/95/95
f 127/127/127 95/95/95 128/128/128
f 128/128/128 95/95/95 10/10/10
f 128/128/128 10/10/10 129/129/129
f 87/87/87 128/128/128 129/129/129
f 87/87/87 129/129/129 88/88/88
f 34/34/34 130/130/130 131/131/131
f 34/34/34 131/131/131 35/35/35
f 130/130/130 74/74/74 77/77/77
f 130/130/130 77/77/77 131/131/131
f 131/131/131 77/77/77 82/82/82
f 131/131/131 82/82/82 127/127/127
f 35/35/35 131/131/131 127/127/127
f 35/35/35 127/127/127 36/36/36
f 7/7/7 132/132/132 133/133/133
f 7/7/7 133/133/133 8/8/8
f 132/132/132 18/18/18 44/44/44
f 132/132/132 44/44/44 133/133/133
f 133/133/133 44/44/44 48/48/48
f 133/133/133 48/48/48 134/134/134
f 8/8/8 133/133/133 134/134/134
f 8/8/8 134/134/134 9/9/9
f 88/88/88 129/129/129 135/135/135
f 88/88/88 135/135/135 99/99/99
f 129/129/129 10/10/10 13/13/13
f 129/129/129 13/13/13 135/135/135
f 135/135/135 13/13/13 18/18/18
f 135/135/135 18/18/18 132/132/132
f 99/99/99 135/135/135 132/132/132
f 99/99/99 132/132/132 7/7/7
f 136/136/136 137/137/137 138/138/138
f 136/136/136 138/138/138 139/139/139
f 137/137/137 140/140/140 141/141/141
f 137/137/137 141/141/141 138/138/138
f 138/138/138 141/141/141 100/100/100
f 138/138/138 100/100/100 115/115/115
f 139/139/139 138/138/138 115/115/115
f 139/139/139 115/115/115 114/114/114
f 142/142/142 143/143/143 144/144/144
f 142/142/142 144/144/144 145/145/145
f 143/143/143 146/146/146 147/147/147
f 143/143/143 147/147/147 144/144/144
f 144/144/144 147/147/147 112/112/112
f 144/144/144 112/112/112 110/110/110
f 145/145/145 144/144/144 110/110/110
f 145/145/145 110/110/110 108/108/108
f 148/148/148 149/149/149 150/150/150
f 148/148/148 150/150/150 151/151/151
f 149/149/149 142/142/142 145/145/145
f 149/149/149 145/145/145 150/150/150
f 150/150/150 145/145/145 108/108/108
f 150/150/150 108/108/108 106/106/106
f 151/151/151 150/150/150 106/106/106
f 151/151/151 106/106/106 104/104/104
f 140/140/140 152/152/152 153/153/153
f 140/140/140 153/153/153 141/141/141
f 152/152/152 148/148/148 151/151/151
f 152/152/152 151/151/151 153/153/153
f 153/153/153 151/151/151 104/104/104
f 153/153/153 104/104/104 101/101/101
f 141/141/141 153/153/153 101/101/101
f 141/141/141 101/101/101 100/100/100
f 112/112/112 147/147/147 154/154/154
f 112/112/112 154/154/154 155/155/155
f 147/147/147 146/146/146 156/156/156
f 147/147/147 156/156/156 154/154/154
f 154/154/154 156/156/156 157/157/157
f 154/154/154 157/157/157 158/158/158
f 155/155/155 154/154/154 158/158/158
f 155/155/155 158/158/158 159/159/159
f 74/74/74 130/130/130 160/160/160
f 74/74/74 160/160/160 161/161/161
f 130/130/130 34/34/34 162/162/162
f 130/130/130 162/162/162 160/160/160
f 160/160/160 162/162/162 163/163/163
f 160/160/160 163/163/163 164/164/164
f 161/161/161 160/160/160 164/164/164
f 161/161/161 164/164/164 165/165/165
f 68/68/68 121/121/121 166/166/166
f 68/68/68 166/166/166 167/167/167
f 121/121/121 78/78/78 168/168/168
f 121/121/121 168/168/168 166/166/166
f 166/166/166 168/168/168 169/169/169
f 166/166/166 169/169/169 170/170/170
f 167/167/167 166/166/166 170/170/170
f 167/167/167 170/170/170 171/171/171
f 59/59/59 69/69/69 172/172/172
f 59/59/59 172/172/172 173/173/173
f 69/69/69 68/68/68 167/167/167
f 69/69/69 167/167/167 172/172/172
f 172/172/172 167/167/167 171/171/171
f 172/172/172 171/171/171 174/174/174
f 173/173/173 172/172/172 174/174/174
f 173/173/173 174/174/174 175/175/175
f 63/63/63 60/60/60 176/176/176
f 63/63/63 176/176/176 177/177/177
f 60/60/60 59/59/59 173/173/173
f 60/60/60 173/173/173 176/176/176
f 176/176/176 173/173/173 175/175/175
f 176/176/176 175/175/175 178/178/178
f 177/177/177 176/176/176 178/178/178
f 177/177/177 178/178/178 179/179/179
f 32/32/32 113/113/113 180/180/180
f 32/32/32 180/180/180 181/181/181
f 113/113/113 112/112/112 155/155/155
f 113/113/113 155/155/155 180/180/180
f 180/180/180 155/155/155 159/159/159
f 180/180/180 159/159/159 182/182/182
f 181/181/181 180/180/180 182/182/182
f 181/181/181 182/182/182 183/183/183
f 34/34/34 33/33/33 184/184/184
f 34/34/34 184/184/184 162/162/162
f 33/33/33 32/32/32 181/181/181
f 33/33/33 181/181/181 184/184/184
f 184/184/184 181/181/181 183/183/183
f 184/184/184 183/183/183 185/185/185
f 162/162/162 184/184/184 185/185/185
f 162/162/162 185/185/185 163/163/163
f 78/78/78 75/75/75 186/186/186
f 78/78/78 186/186/186 168/168/168
f 75/75/75 74/74/74 161/161/161
f 75/75/75 161/161/161 186/186/186
f 186/186/186 161/161/161 165/165/165
f 186/186/186 165/165/165 187/187/187
f 168/168/168 186/186/186 187/187/187
f 168/168/168 187/187/187 169/169/169
f 188/188/188 189/189/189 190/190/190
f 188/188/188 190/190/190 191/191/191
f 189/189/189 192/192/192 193/193/193
f 189/189/189 193/193/193 190/190/190
f 190/190/190 193/193/193 194/194/194
f 190/190/190 194/194/194 195/195/195
f 191/191/191 190/190/190 195/195/195
f 191/191/191 195/195/195 196/196/196
f 197/197/197 198/198/198 199/199/199
f 197/197/197 199/199/199 200/200/200
f 198/198/198 201/201/201 202/202/202
f 198/198/198 202/202/202 199/199/199
f 199/199/199 202/202/202 203/203/203
f 199/199/199 203/203/203 204/204/204
f 200/200/200 199/199/199 204/204/204
f 200/200/200 204/204/204 205/205/205
f 206/206/206 207/207/207 208/208/208
f 206/206/206 208/208/208 209/209/209
f 207/207/207 210/210/210 211/211/211
f 207/207/207 211/211/211 208/208/208
f 208/208/208 211/211/211 212/212/212
f 208/208/208 212/212/212 213/213/213
f 209/209/209 208/208/208 213/213/213
f 209/209/209 213/213/213 214/214/214
f 215/215/215 216/216/216 217/217/217
f 215/215/215 217/217/217 218/218/218
f 216/216/216 219/219/219 220/220/220
f 216/216/216 220/220/220 217/217/217
f 217/217/217 220/220/220 221/221/221
f 217/217/217 221/221/221 222/222/222
f 218/218/218 217/217/217 222/222/222
f 218/218/218 222/222/222 223/223/223
f 210/210/210 224/224/224 225/225/225
f 210/210/210 225/225/225 211/211/211
f 224/224/224 226/226/226 227/227/227
f 224/224/224 227/227/227 225/225/225
f 225/225/225 227/227/227 228/228/228
f 225/225/225 228/228/228 229/229/229
f 211/211/211 225/225/225 229/229/229
f 211/211/211 229/229/229 212/212/212
f 201/201/201 230/230/230 231/231/231
f 201/201/201 231/231/231 202/202/202
f 230/230/230 232/232/232 233/233/233
f 230/230/230 233/233/233 231/231/231
f 231/231/231 233/233/233 234/234/234
f 231/231/231 234/234/234 235/235/235
f 202/202/202 231/231/231 235/235/235
f 202/202/202 235/235/235 203/203/203
f 212/212/212 229/229/229 236/236/236
f 212/212/212 236/236/236 237/237/237
f 229/229/229 228/228/228 238/238/238
f 229/229/229 238/238/238 236/236/236
f 236/236/236 238/238/238 239/239/239
f 236/236/236 239/239/239 240/240/240
f 237/237/237 236/236/236 240/240/240
f 237/237/237 240/240/240 241/241/241
f 214/214/214 213/213/213 242/242/242
f 214/214/214 242/242/242 243/243/243
f 213/213/213 212/212/212 237/237/237
f 213/213/213 237/237/237 242/242/242
f 242/242/242 237/237/237 241/241/241
f 242/242/242 241/241/241 244/244/244
f 243/243/243 242/242/242 244/244/244
f 243/243/243 244/244/244 245/245/245
f 246/246/246 247/247/247 248/248/248
f 246/246/246 248/248/248 249/249/249
f 247/247/247 250/250/250 251/251/251
f 247/247/247 251/251/251 248/248/248
f 248/248/248 251/251/251 252/252/252
f 248/248/248 252/252/252 253/253/253
f 249/249/249 248/248/248 253/253/253
f 249/249/249 253/253/253 254/254/254
f 255/255/255 256/256/256 257/257/257
f 255/255/255 257/257/257 258/258/258
f 256/256/256 259/259/259 260/260/260
f 256/256/256 260/260/260 257/257/257
f 257/257/257 260/260/260 250/250/250
f 257/257/257 250/250/250 247/247/247
f 258/258/258 257/257/257 247/247/247
f 258/258/258 247/247/247 246/246/246
f 261/261/261 262/262/262 263/263/263
f 261/261/261 263/263/263 264/264/264
f 262/262/262 265/265/265 266/266/266
f 262/262/262 266/266/266 263/263/263
f 263/263/263 266/266/266 267/267/267
f 263/263/263 267/267/267 268/268/268
f 264/264/264 263/263/263 268/268/268
f 264/264/264 268/268/268 269/269/269
f 270/270/270 271/271/271 272/272/272
f 270/270/270 272/272/272 273/273/273
f 271/271/271 274/274/274 275/275/275
f 271/271/271 275/275/275 272/272/272
f 272/272/272 275/275/275 219/219/219
f 272/272/272 219/219/219 216/216/216
f 273/273/273 272/272/272 216/216/216
f 273/273/273 216/216/216 215/215/215
f 250/250/250 276/276/276 277/277/277
f 250/250/250 277/277/277 251/251/251
f 276/276/276 214/214/214 243/243/243
f 276/276/276 243/243/243 277/277/277
f 277/277/277 243/243/243 245/245/245
f 277/277/277 245/245/245 278/278/278
f 251/251/251 277/277/277 278/278/278
f 251/251/251 278/278/278 252/252/252
f 259/259/259 279/279/279 280/280/280
f 259/259/259 280/280/280 260/260/260
f 279/279/279 206/206/206 209/209/209
f 279/279/279 209/209/209 280/280/280
f 280/280/280 209/209/209 214/214/214
f 280/280/280 214/214/214 276/276/276
f 260/260/260 280/280/280 276/276/276
f 260/260/260 276/276/276 250/250/250
f 265/265/265 281/281/281 282/282/282
f 265/265/265 282/282/282 266/266/266
f 281/281/281 197/197/197 200/200/200
f 281/281/281 200/200/200 282/282/282
f 282/282/282 200/200/200 205/205/205
f 282/282/282 205/205/205 283/283/283
f 266/266/266 282/282/282 283/283/283
f 266/266/266 283/283/283 267/267/267
f 196/196/196 195/195/195 284/284/284
f 196/196/196 284/284/284 285/285/285
f 195/195/195 194/194/194 286/286/286
f 195/195/195 286/286/286 284/284/284
f 284/284/284 286/286/286 274/274/274
f 284/284/284 274/274/274 271/271/271
f 285/285/285 284/284/284 271/271/271
f 285/285/285 271/271/271 270/270/270
f 287/287/287 288/288/288 289/289/289
f 287/287/287 289/289/289 290/290/290
f 288/288/288 196/196/196 285/285/285
f 288/288/288 285/285/285 289/289/289
f 289/289/289 285/285/285 270/270/270
f 289/289/289 270/270/270 291/291/291
f 290/290/290 289/289/289 291/291/291
f 290/290/290 291/291/291 292/292/292
f 292/292/292 291/291/291 293/293/293
f 292/292/292 293/293/293 294/294/294
f 291/291/291 270/270/270 273/273/273
f 291/291/291 273/273/273 293/293/293
f 293/293/293 273/273/273 215/215/215
f 293/293/293 215/215/215 295/295/295
f 294/294/294 293/293/293 295/295/295
f 294/294/294 295/295/295 296/296/296
f 296/296/296 295/295/295 297/297/297
f 296/296/296 297/297/297 298/298/298
f 295/295/295 215/215/215 218/218/218
f 295/295/295 218/218/218 297/297/297
f 297/297/297 218/218/218 223/223/223
f 297/297/297 223/223/223 299/299/299
f 298/298/298 297/297/297 299/299/299
f 298/298/298 299/299/299 300/300/300
f 301/301/301 302/302/302 303/303/303
f 301/301/301 303/303/303 304/304/304
f 302/302/302 188/188/188 191/191/191
f 302/302/302 191/191/191 303/303/303
f 303/303/303 191/191/191 196/196/196
f 303/303/303 196/196/196 288/288/288
f 304/304/304 303/303/303 288/288/288
f 304/304/304 288/288/288 287/287/287
f 267/267/267 283/283/283 305/305/305
f 267/267/267 305/305/305 306/306/306
f 283/283/283 205/205/205 307/307/307
f 283/283/283 307/307/307 305/305/305
f 305/305/305 307/307/307 206/206/206
f 305/305/305 206/206/206 279/279/279
f 306/306/306 305/305/305 279/279/279
f 306/306/306 279/279/279 259/259/259
f 269/269/269 268/268/268 308/308/308
f 269/269/269 308/308/308 309/309/309
f 268/268/268 267/267/267 306/306/306
f 268/268/268 306/306/306 308/308/308
f 308/308/308 306/306/306 259/259/259
f 308/308/308 259/259/259 256/256/256
f 309/309/309 308/308/308 256/256/256
f 309/309/309 256/256/256 255/255/255
f 203/203/203 235/235/235 310/310/310
f 203/203/203 310/310/310 311/311/311
f 235/235/235 234/234/234 312/312/312
f 235/235/235 312/312/312 310/310/310
f 310/310/310 312/312/312 226/226/226
f 310/310/310 226/226/226 224/224/224
f 311/311/311 310/310/310 224/224/224
f 311/311/311 224/224/224 210/210/210
f 205/205/205 204/204/204 313/313/313
f 205/205/205 313/313/313 307/307/307
f 204/204/204 203/203/203 311/311/311
f 204/204/204 311/311/311 313/313/313
f 313/313/313 311/311/311 210/210/210
f 313/313/313 210/210/210 207/207/207
f 307/307/307 313/313/313 207/207/207
f 307/307/307 207/207/207 206/206/206
f 219/219/219 275/275/275 314/314/314
f 219/219/219 314/314/314 315/315/315
f 275/275/275 274/274/274 316/316/316
f 275/275/275 316/316/316 314/314/314
f 314/314/314 316/316/316 197/197/197
f 314/314/314 197/197/197 281/281/281
f 315/315/315 314/314/314 281/281/281
f 315/315/315 281/281/281 265/265/265
f 221/221/221 220/220/220 317/317/317
f 221/221/221 317/317/317 318/318/318
f 220/220/220 219/219/219 315/315/315
f 220/220/220 315/315/315 317/317/317
f 317/317/317 315/315/315 265/265/265
f 317/317/317 265/265/265 262/262/262
f 318/318/318 317/317/317 262/262/262
f 318/318/318 262/262/262 261/261/261
f 194/194/194 193/193/193 319/319/319
f 194/194/194 319/319/319 320/320/320
f 193/193/193 192/192/192 321/321/321
f 193/193/193 321/321/321 319/319/319
f 319/319/319 321/321/321 232/232/232
f 319/319/319 232/232/232 230/230/230
f 320/320/320 319/319/319 230/230/230
f 320/320/320 230/230/230 201/201/201
f 274/274/274 286/286/286 322/322/322
f 274/274/274 322/322/322 316/316/316
f 286/286/286 194/194/194 320/320/320
f 286/286/286 320/320/320 322/322/322
f 322/322/322 320/320/320 201/201/201
f 322/322/322 201/201/201 198/198/198
f 316/316/316 322/322/322 198/198/198
f 316/316/316 198/198/198 197/197/197
f 136/136/136 323/323/323 324/324/324
f 136/136/136 324/324/324 137/137/137
f 323/323/323 301/301/301 304/304/304
f 323/323/323 304/304/304 324/324/324
f 324/324/324 304/304/304 287/287/287
f 324/324/324 287/287/287 325/325/325
f 137/137/137 324/324/324 325/325/325
f 137/137/137 325/325/325 140/140/140
f 142/142/142 326/326/326 327/327/327
f 142/142/142 327/327/327 143/143/143
f 326/326/326 296/296/296 298/298/298
f 326/326/326 298/298/298 327/327/327
f 327/327/327 298/298/298 300/300/300
f 327/327/327 300/300/300 328/328/328
f 143/143/143 327/327/327 328/328/328
f 143/143/143 328/328/328 146/146/146
f 148/148/148 329/329/329 330/330/330
f 148/148/148 330/330/330 149/149/149
f 329/329/329 292/292/292 294/294/294
f 329/329/329 294/294/294 330/330/330
f 330/330/330 294/294/294 296/296/296
f 330/330/330 296/296/296 326/326/326
f 149/149/149 330/330/330 326/326/326
f 149/149/149 326/326/326 142/142/142
f 140/140/140 325/325/325 331/331/331
f 140/140/140 331/331/331 152/152/152
f 325/325/325 287/287/287 290/290/290
f 325/325/325 290/290/290 331/331/331
f 331/331/331 290/290/290 292/292/292
f 331/331/331 292/292/292 329/329/329
f 152/152/152 331/331/331 329/329/329
f 152/152/152 329/329/329 148/148/148
f 300/300/300 332/332/332 333/333/333
f 300/300/300 333/333/333 328/328/328
f 332/332/332 334/334/334 335/335/335
f 332/332/332 335/335/335 333/333/333
f 333/333/333 335/335/335 157/157/157
f 333/333/333 157/157/157 156/156/156
f 328/328/328 333/333/333 156/156/156
f 328/328/328 156/156/156 146/146/146
f 261/261/261 336/336/336 337/337/337
f 261/261/261 337/337/337 318/318/318
f 336/336/336 338/338/338 339/339/339
f 336/336/336 339/339/339 337/337/337
f 337/337/337 339/339/339 340/340/340
f 337/337/337 340/340/340 341/341/341
f 318/318/318 337/337/337 341/341/341
f 318/318/318 341/341/341 221/221/221
f 255/255/255 342/342/342 343/343/343
f 255/255/255 343/343/343 309/309/309
f 342/342/342 344/344/344 345/345/345
f 342/342/342 345/345/345 343/343/343
f 343/343/343 345/345/345 346/346/346
f 343/343/343 346/346/346 347/347/347
f 309/309/309 343/343/343 347/347/347
f 309/309/309 347/347/347 269/269/269
f 246/246/246 348/348/348 349/349/349
f 246/246/246 349/349/349 258/258/258
f 348/348/348 350/350/350 351/351/351
f 348/348/348 351/351/351 349/349/349
f 349/349/349 351/351/351 344/344/344
f 349/349/349 344/344/344 342/342/342
f 258/258/258 349/349/349 342/342/342
f 258/258/258 342/342/342 255/255/255
f 254/254/254 352/352/352 353/353/353
f 254/254/254 353/353/353 249/249/249
f 352/352/352 354/354/354 355/355/355
f 352/352/352 355/355/355 353/353/353
f 353/353/353 355/355/355 350/350/350
f 353/353/353 350/350/350 348/348/348
f 249/249/249 353/353/353 348/348/348
f 249/249/249 348/348/348 246/246/246
f 223/223/223 356/356/356 357/357/357
f 223/223/223 357/357/357 299/299/299
f 356/356/356 358/358/358 359/359/359
f 356/356/356 359/359/359 357/357/357
f 357/357/357 359/359/359 334/334/334
f 357/357/357 334/334/334 332/332/332
f 299/299/299 357/357/357 332/332/332
f 299/299/299 332/332/332 300/300/300
f 221/221/221 341/341/341 360/360/360
f 221/221/221 360/360/360 222/222/222
f 341/341/341 340/340/340 361/361/361
f 341/341/341 361/361/361 360/360/360
f 360/360/360 361/361/361 358/358/358
f 360/360/360 358/358/358 356/356/356
f 222/222/222 360/360/360 356/356/356
f 222/222/222 356/356/356 223/223/223
f 269/269/269 347/347/347 362/362/362
f 269/269/269 362/362/362 264/264/264
f 347/347/347 346/346/346 363/363/363
f 347/347/347 363/363/363 362/362/362
f 362/362/362 363/363/363 338/338/338
f 362/362/362 338/338/338 336/336/336
f 264/264/264 362/362/362 336/336/336
f 264/264/264 336/336/336 261/261/261
f 46/46/46 125/125/125 42/42/42
f 42/42/42 41/41/41 40/40/40
f 40/40/40 54/54/54 53/53/53
f 42/42/42 40/40/40 53/53/53
f 47/47/47 46/46/46 42/42/42
f 134/134/134 48/48/48 47/47/47
f 4/4/4 9/9/9 134/134/134
f 117/117/117 1/1/1 4/4/4
f 139/139/139 114/114/114 117/117/117
f 323/323/323 136/136/136 139/139/139
f 302/302/302 301/301/301 323/323/323
f 189/189/189 188/188/188 302/302/302
f 321/321/321 192/192/192 189/189/189
f 233/233/233 232/232/232 321/321/321
f 312/312/312 234/234/234 233/233/233
f 227/227/227 226/226/226 312/312/312
f 238/238/238 228/228/228 227/227/227
f 239/239/239 238/238/238 227/227/227
f 227/227/227 312/312/312 233/233/233
f 233/233/233 321/321/321 189/189/189
f 189/189/189 302/302/302 323/323/323
f 323/323/323 139/139/139 117/117/117
f 117/117/117 4/4/4 134/134/134
f 134/134/134 47/47/47 42/42/42
f 42/42/42 53/53/53 364/364/364
f 365/365/365 366/366/366 367/367/367
f 134/134/134 42/42/42 364/364/364
f 364/364/364 365/365/365 367/367/367
f 367/367/367 368/368/368 369/369/369
f 369/369/369 370/370/370 371/371/371
f 372/372/372 373/373/373 374/374/374
f 369/369/369 371/371/371 372/372/372
f 364/364/364 367/367/367 369/369/369
f 117/117/117 134/134/134 364/364/364
f 189/189/189 323/323/323 117/117/117
f 227/227/227 233/233/233 189/189/189
f 375/375/375 239/239/239 227/227/227
f 376/376/376 377/377/377 378/378/378
f 375/375/375 227/227/227 189/189/189
f 376/376/376 378/378/378 375/375/375
f 379/379/379 380/380/380 376/376/376
f 381/381/381 382/382/382 379/379/379
f 383/383/383 384/384/384 385/385/385
f 385/385/385 381/381/381 379/379/379
f 379/379/379 376/376/376 375/375/375
f 375/375/375 189/189/189 117/117/117
f 117/117/117 364/364/364 369/369/369
f 369/369/369 372/372/372 374/374/374
f 374/374/374 386/386/386 383/383/383
f 383/383/383 385/385/385 379/379/379
f 379/379/379 375/375/375 117/117/117
f 117/117/117 369/369/369 374/374/374
f 374/374/374 383/383/383 379/379/379
f 374/374/374 379/379/379 117/117/117
f 171/171/171 170/170/170 169/169/169
f 169/169/169 187/187/187 165/165/165
f 165/165/165 164/164/164 163/163/163
f 163/163/163 185/185/185 183/183/183
f 183/183/183 182/182/182 159/159/159
f 183/183/183 159/159/159 158/158/158
f 165/165/165 163/163/163 183/183/183
f 171/171/171 169/169/169 165/165/165
f 175/175/175 174/174/174 171/171/171
f 179/179/179 178/178/178 175/175/175
f 179/179/179 175/175/175 171/171/171
f 171/171/171 165/165/165 183/183/183
f 171/171/171 183/183/183 158/158/158
f 387/387/387 179/179/179 171/171/171
f 388/388/388 389/389/389 390/390/390
f 387/387/387 171/171/171 158/158/158
f 388/388/388 390/390/390 387/387/387
f 391/391/391 392/392/392 388/388/388
f 393/393/393 394/394/394 391/391/391
f 395/395/395 396/396/396 397/397/397
f 397/397/397 393/393/393 391/391/391
f 391/391/391 388/388/388 387/387/387
f 387/387/387 158/158/158 157/157/157
f 387/387/387 157/157/157 335/335/335
f 397/397/397 391/391/391 387/387/387
f 398/398/398 395/395/395 397/397/397
f 399/399/399 400/400/400 398/398/398
f 401/401/401 399/399/399 398/398/398
f 398/398/398 397/397/397 387/387/387
f 387/387/387 335/335/335 334/334/334
f 334/334/334 359/359/359 358/358/358
f 358/358/358 361/361/361 340/340/340
f 340/340/340 339/339/339 338/338/338
f 338/338/338 363/363/363 346/346/346
f 346/346/346 345/345/345 344/344/344
f 344/344/344 351/351/351 350/350/350
f 350/350/350 355/355/355 354/354/354
f 344/344/344 350/350/350 354/354/354
f 338/338/338 346/346/346 344/344/344
f 358/358/358 340/340/340 338/338/338
f 387/387/387 334/334/334 358/358/358
f 401/401/401 398/398/398 387/387/387
f 402/402/402 403/403/403 404/404/404
f 404/404/404 401/401/401 387/387/387
f 387/387/387 358/358/358 338/338/338
f 338/338/338 344/344/344 354/354/354
f 338/338/338 354/354/354 405/405/405
f 404/404/404 387/387/387 338/338/338
f 406/406/406 402/402/402 404/404/404
f 407/407/407 408/408/408 406/406/406
f 338/338/338 405/405/405 409/409/409
f 409/409/409 407/407/407 406/406/406
f 406/406/406 404/404/404 338/338/338
f 338/338/338 409/409/409 406/406/406
