v 0.809043 -0.0770306 1.45842
v 0.805414 -0.0766573 1.46525
v 0.804984 -0.108061 1.46182
v 0.808845 -0.108475 1.45458
v 0.78647 -0.0770044 1.4712
v 0.785762 -0.10871 1.46787
v 0.781339 -0.158191 1.45071
v 0.800861 -0.157422 1.44437
v 0.804937 -0.157541 1.43694
v 0.649052 -0.287828 1.35916
v 0.632976 -0.335072 1.28597
v 0.694221 -0.352185 1.27577
v 0.709871 -0.29883 1.35459
v 0.619036 -0.362146 1.20668
v 0.680342 -0.383107 1.19173
v 0.727832 -0.393904 1.17859
v 0.741241 -0.360174 1.26405
v 0.756174 -0.303015 1.3457
v 0.601546 -0.357242 1.0597
v 0.595258 -0.334808 0.992655
v 0.653731 -0.356779 0.974724
v 0.661099 -0.379697 1.04191
v 0.592011 -0.310324 0.943312
v 0.64967 -0.331805 0.925243
v 0.695823 -0.345831 0.918855
v 0.700258 -0.370073 0.96674
v 0.708098 -0.392255 1.03165
v 0.720521 -0.37308 0.964191
v 0.728578 -0.394784 1.0272
v 0.715909 -0.349297 0.917692
v 0.719895 -0.346551 0.918712
v 0.724602 -0.370194 0.96416
v 0.732774 -0.391727 1.02578
v 0.761695 -0.361175 1.25604
v 0.776294 -0.303162 1.33804
v 0.748506 -0.395667 1.17094
v 0.752838 -0.392536 1.16674
v 0.766017 -0.358532 1.25066
v 0.780571 -0.301375 1.33168
v 0.696497 -0.327708 0.897909
v 0.7165 -0.331418 0.897254
v 0.698822 -0.31626 0.892137
v 0.718829 -0.320083 0.891463
v 0.722853 -0.317554 0.893098
v 0.720459 -0.32878 0.898756
v 0.593286 -0.292082 0.92228
v 0.650545 -0.313332 0.903871
v 0.595865 -0.28059 0.917221
v 0.652965 -0.301787 0.898377
v 0.682546 -0.0810193 1.47211
v 0.622489 -0.0835695 1.4607
v 0.620948 -0.11819 1.45598
v 0.681187 -0.114712 1.46777
v 0.572151 -0.0847067 1.44599
v 0.570552 -0.119422 1.44118
v 0.565483 -0.161104 1.42601
v 0.615722 -0.16316 1.44028
v 0.676017 -0.162493 1.45164
v 0.500524 -0.264418 1.01125
v 0.502911 -0.249176 0.993729
v 0.54237 -0.269393 0.956861
v 0.540487 -0.286299 0.976314
v 0.505713 -0.238441 0.989521
v 0.545103 -0.258209 0.952264
v 0.503924 -0.298942 1.10899
v 0.501206 -0.282668 1.05279
v 0.542393 -0.307944 1.02229
v 0.546837 -0.327568 1.08467
v 0.540613 -0.248481 1.34699
v 0.526021 -0.2825 1.28976
v 0.573801 -0.309046 1.28975
v 0.589394 -0.268922 1.3549
v 0.514264 -0.303185 1.22835
v 0.560762 -0.332517 1.21917
v 0.742042 -0.0785771 1.47478
v 0.740993 -0.111144 1.47103
v 0.736154 -0.160304 1.45437
v 0.786655 -0.0370672 1.47118
v 0.742721 -0.037126 1.47547
v 0.742438 -0.0556028 1.47538
v 0.786595 -0.0548694 1.4714
v 0.683668 -0.0373662 1.47383
v 0.683183 -0.0568272 1.4733
v 0.623855 -0.0377128 1.46317
v 0.623255 -0.0581649 1.46231
v 0.57358 -0.0378396 1.44883
v 0.572952 -0.0587778 1.44782
v 0.808507 -0.0373978 1.45914
v 0.805203 -0.037184 1.46535
v 0.805321 -0.0547828 1.46551
v 0.808769 -0.055073 1.45903
v 0.507552 -0.307515 1.16802
v 0.552347 -0.337539 1.15073
v 0.609018 -0.368283 1.13125
v 0.717074 -0.402767 1.10168
v 0.737731 -0.404962 1.09535
v 0.742018 -0.401755 1.09249
v 0.669659 -0.390731 1.11405
v 0.554814 -0.20603 1.39393
v 0.604466 -0.216752 1.40635
v 0.664527 -0.225071 1.41553
v 0.770659 -0.228987 1.40975
v 0.790471 -0.228496 1.40277
v 0.794677 -0.227768 1.39567
v 0.724977 -0.228598 1.41557
v 0.80794 -0.00303435 1.45954
v 0.804822 -0.00298067 1.46538
v 0.804965 -0.0201519 1.46533
v 0.808142 -0.0202868 1.45937
v 0.786491 -0.00251639 1.47116
v 0.786568 -0.0198564 1.47113
v 0.684047 0.000192965 1.47477
v 0.624471 0.00173801 1.46436
v 0.624295 -0.0180152 1.46396
v 0.683955 -0.018625 1.47443
v 0.574313 0.00276971 1.45008
v 0.574091 -0.0175792 1.44968
v 0.742821 -0.00136757 1.47588
v 0.742818 -0.0193 1.4757
v 0.536075 -0.116807 1.42922
v 0.531264 -0.155728 1.41484
v 0.53764 -0.0832652 1.43387
v 0.512601 -0.0802616 1.42382
v 0.511117 -0.111876 1.41947
v 0.506608 -0.148442 1.40605
v 0.539486 -0.01737 1.43756
v 0.539014 -0.0374734 1.43673
v 0.539689 0.00294416 1.43794
v 0.514374 0.00260417 1.42768
v 0.514229 -0.0172927 1.42732
v 0.51386 -0.0368029 1.42653
v 0.475437 -0.233868 1.01897
v 0.478166 -0.223585 1.01503
v 0.472941 -0.247977 1.03517
v 0.452326 -0.234925 1.05152
v 0.454682 -0.221558 1.03621
v 0.457251 -0.211714 1.03245
v 0.477832 -0.286207 1.17964
v 0.475079 -0.278527 1.12544
v 0.483604 -0.282256 1.23449
v 0.462192 -0.266894 1.23897
v 0.456842 -0.270629 1.18772
v 0.454301 -0.263469 1.13673
v 0.521252 -0.195653 1.38472
v 0.50797 -0.232806 1.34145
v 0.497262 -0.185774 1.37801
v 0.484879 -0.220479 1.33788
v 0.494371 -0.263306 1.28975
v 0.47221 -0.249071 1.29014
v 0.538422 -0.0580112 1.4357
v 0.513338 -0.0564054 1.42555
v 0.473127 -0.264214 1.07358
v 0.45249 -0.25013 1.08781
v 0.809041 0.0727545 1.45842
v 0.808842 0.105771 1.45458
v 0.804982 0.105401 1.46183
v 0.805412 0.0724611 1.46525
v 0.804933 0.157936 1.43694
v 0.800857 0.157787 1.44437
v 0.781335 0.159148 1.45072
v 0.78576 0.106799 1.46787
v 0.786468 0.0736347 1.4712
v 0.649045 0.299301 1.35916
v 0.709864 0.310713 1.3546
v 0.694212 0.36878 1.27578
v 0.632968 0.34997 1.28598
v 0.756167 0.314702 1.34571
v 0.741232 0.377472 1.26406
v 0.727822 0.414454 1.1786
v 0.680332 0.402348 1.19174
v 0.619027 0.378875 1.20669
v 0.601537 0.370991 1.05971
v 0.66109 0.394879 1.04192
v 0.653722 0.367255 0.974733
v 0.59525 0.34534 0.992664
v 0.708088 0.407972 1.03166
v 0.700249 0.379907 0.966749
v 0.695815 0.350416 0.918864
v 0.649662 0.338116 0.925252
v 0.592003 0.318032 0.94332
v 0.728568 0.410681 1.02721
v 0.720512 0.382632 0.9642
v 0.732764 0.407668 1.02579
v 0.724593 0.379767 0.96417
v 0.719887 0.350445 0.918721
v 0.715901 0.353178 0.917701
v 0.776286 0.314872 1.33805
v 0.761685 0.378825 1.25605
v 0.780563 0.313321 1.33169
v 0.766008 0.376408 1.25067
v 0.752828 0.413782 1.16675
v 0.748496 0.416755 1.17095
v 0.716492 0.332428 0.897263
v 0.696489 0.329631 0.897917
v 0.720451 0.329794 0.898764
v 0.722846 0.317451 0.893106
v 0.718821 0.319987 0.891471
v 0.698814 0.317166 0.892145
v 0.650537 0.317505 0.90388
v 0.593279 0.29829 0.922287
v 0.652958 0.305158 0.898384
v 0.595858 0.28624 0.917229
v 0.682544 0.082354 1.47211
v 0.681185 0.117031 1.46777
v 0.620945 0.122462 1.45598
v 0.622487 0.0873194 1.4607
v 0.676013 0.166797 1.45164
v 0.615718 0.168595 1.44029
v 0.565479 0.166764 1.42601
v 0.570549 0.12472 1.44119
v 0.572149 0.089915 1.446
v 0.500518 0.270609 1.01126
v 0.54048 0.293778 0.976321
v 0.542364 0.275896 0.956868
v 0.502905 0.254764 0.993735
v 0.545097 0.264327 0.952271
v 0.505707 0.24377 0.989527
v 0.503917 0.307065 1.10899
v 0.546829 0.338662 1.08468
v 0.542385 0.317129 1.0223
v 0.501199 0.289799 1.0528
v 0.540607 0.255783 1.347
v 0.589387 0.278673 1.35491
v 0.573794 0.320853 1.28976
v 0.526014 0.290808 1.28977
v 0.560754 0.345413 1.21918
v 0.514257 0.312123 1.22836
v 0.740991 0.111114 1.47103
v 0.74204 0.0772552 1.47478
v 0.73615 0.162825 1.45437
v 0.786654 0.032401 1.47118
v 0.786594 0.0506791 1.4714
v 0.742437 0.0535816 1.47538
v 0.74272 0.0347133 1.47547
v 0.683182 0.0576754 1.4733
v 0.683668 0.0379699 1.47383
v 0.623254 0.0617257 1.46231
v 0.623854 0.0412298 1.46317
v 0.572951 0.0640625 1.44782
v 0.573579 0.0432559 1.44884
v 0.808506 0.0317138 1.45914
v 0.808768 0.0499062 1.45903
v 0.805319 0.0497133 1.46551
v 0.805202 0.0316046 1.46535
v 0.552339 0.350073 1.15074
v 0.507544 0.316339 1.16803
v 0.609009 0.38443 1.13126
v 0.737721 0.425232 1.09536
v 0.717064 0.422559 1.10169
v 0.742008 0.422116 1.0925
v 0.669649 0.409274 1.11406
v 0.604461 0.224168 1.40636
v 0.554809 0.212387 1.39394
v 0.664521 0.232672 1.41554
v 0.790465 0.233955 1.40278
v 0.770653 0.234765 1.40975
v 0.794671 0.233375 1.39568
v 0.724971 0.235369 1.41557
v 0.808141 0.0143134 1.45937
v 0.804965 0.0142855 1.46533
v 0.786567 0.0149166 1.47113
v 0.683955 0.0190728 1.47443
v 0.624294 0.0215057 1.46396
v 0.574091 0.0230874 1.44968
v 0.742817 0.0166509 1.47571
v 0.531261 0.160706 1.41484
v 0.536072 0.12194 1.42922
v 0.506605 0.152233 1.40606
v 0.511115 0.116153 1.41947
v 0.512599 0.0847914 1.42382
v 0.537638 0.0885438 1.43387
v 0.539013 0.0431675 1.43674
v 0.539486 0.0232076 1.43757
v 0.513859 0.0418067 1.42653
v 0.514228 0.0224479 1.42732
v 0.478161 0.227802 1.01503
v 0.475432 0.238217 1.01898
v 0.457246 0.214743 1.03246
v 0.454677 0.224587 1.03621
v 0.45232 0.238126 1.05153
v 0.472935 0.252681 1.03517
v 0.475072 0.284292 1.12545
v 0.477825 0.292297 1.17965
v 0.454295 0.267321 1.13674
v 0.456836 0.274646 1.18773
v 0.462186 0.270653 1.23898
v 0.483597 0.288256 1.2345
v 0.507965 0.237676 1.34145
v 0.521248 0.200443 1.38473
v 0.484874 0.22301 1.33788
v 0.497258 0.188755 1.37801
v 0.494365 0.268735 1.28976
v 0.472204 0.252081 1.29015
v 0.538421 0.0634947 1.4357
v 0.513337 0.0611809 1.42555
v 0.473121 0.269447 1.07359
v 0.452484 0.25365 1.08782
v 0.722826 -0.310982 0.886526
v 0.718118 -0.304206 0.868262
v 0.707595 -0.291067 0.831295
v 0.692611 -0.263139 0.779248
v 0.675938 -0.216961 0.721127
v 0.66354 -0.171211 0.676822
v 0.659985 -0.144174 0.661786
v 0.661072 -0.130461 0.662848
v 0.722818 0.309932 0.886534
v 0.692604 0.255809 0.779255
v 0.707588 0.286395 0.831302
v 0.718111 0.301726 0.86827
v 0.663536 0.159102 0.676826
v 0.675933 0.206971 0.721133
v 0.66107 0.116549 0.662852
v 0.659982 0.130876 0.661789
v 0.657403 0.0420862 0.653775
v 0.66009 0.0821234 0.659666
v 0.661468 0.104263 0.663147
v 0.661471 -0.118707 0.663144
v 0.660092 -0.097345 0.659664
v 0.657405 -0.0583951 0.653774
v 0.655855 -0.00844956 0.650492
v 0.457287 -0.205943 1.02748
v 0.457282 0.209212 1.02749
v 0.453456 0.206383 1.01283
v 0.445219 0.202912 0.984899
v 0.433723 0.190772 0.954818
v 0.421144 0.164843 0.92922
v 0.41205 0.136315 0.908937
v 0.409883 0.117073 0.902564
v 0.411171 0.105463 0.904313
v 0.411706 0.0956514 0.904596
v 0.411257 0.0786178 0.900621
v 0.410551 0.0475858 0.899852
v 0.433728 -0.182514 0.953207
v 0.445224 -0.197111 0.984183
v 0.453461 -0.20229 1.01283
v 0.410189 0.00793739 0.901742
v 0.410552 -0.031863 0.89926
v 0.411258 -0.0631779 0.901054
v 0.421147 -0.153747 0.927978
v 0.409886 -0.102446 0.902485
v 0.412053 -0.122862 0.908688
v 0.411173 -0.0904417 0.904257
v 0.411708 -0.0804283 0.904735
vt 0.457 0.4316
vt 0.3899 0.3015
vt 0.4665 0.3696
vt 0.2571 0.2627
vt 0.4697 0.4302
vt 0.165 0.4127
vt 0.04345 0.4489
vt 0.2878 0.2518
vt 0.05675 0.4835
vt 0.4376 0.4195
vt 0.3237 0.3359
vt 0.4687 0.3964
vt 0.3509 0.3457
vt 0.03357 0.4516
vt 0.1511 0.4172
vt 0.06233 0.4658
vt 0.3608 0.3155
vt 0.4579 0.4274
vt 0.4579 0.4274
vt 0.368 0.2932
vt 0.4788 0.4156
vt 0.3608 0.3155
vt 0.04038 0.4719
vt 0.145 0.4197
vt 0.05091 0.4685
vt 0.368 0.2932
vt 0.4704 0.4262
vt 0.4777 0.3961
vt 0.3369 0.3061
vt 0.1625 0.4472
vt 0.04607 0.4702
vt 0.3608 0.3155
vt 0.4702 0.4162
vt 0.4687 0.3964
vt 0.3608 0.3155
vt 0.1687 0.4454
vt 0.03865 0.4501
vt 0.3509 0.3457
vt 0.438 0.4299
vt 0.1687 0.4454
vt 0.4824 0.3421
vt 0.05091 0.4685
vt 0.1687 0.4454
vt 0.05091 0.4685
vt 0.1817 0.4666
vt 0.4505 0.3407
vt 0.4745 0.3418
vt 0.04297 0.4712
vt 0.1817 0.4666
vt 0.4579 0.4274
vt 0.2764 0.3112
vt 0.4761 0.3697
vt 0.3069 0.2625
vt 0.4704 0.4262
vt 0.2279 0.2811
vt 0.06233 0.4658
vt 0.4665 0.3696
vt 0.03568 0.451
vt 0.05675 0.4835
vt 0.4646 0.3414
vt 0.4824 0.3421
vt 0.4494 0.3187
vt 0.05091 0.4685
vt 0.4319 0.3156
vt 0.4576 0.4172
vt 0.3856 0.3239
vt 0.4815 0.321
vt 0.3468 0.2841
vt 0.4576 0.4172
vt 0.3369 0.3061
vt 0.4735 0.3205
vt 0.3856 0.3239
vt 0.05182 0.4854
vt 0.4505 0.3407
vt 0.2547 0.2985
vt 0.4735 0.3205
vt 0.4516 0.3696
vt 0.3651 0.3765
vt 0.1895 0.1814
vt 0.4785 0.4293
vt 0.1393 0.2137
vt 0.3333 0.4109
vt 0.2939 0.2832
vt 0.1722 0.1707
vt 0.4858 0.4248
vt 0.3286 0.3795
vt 0.2547 0.2985
vt 0.3695 0.4063
vt 0.1582 0.189
vt 0.4856 0.4152
vt 0.2737 0.2716
vt 0.4505 0.3407
vt 0.4788 0.4156
vt 0.4312 0.338
vt 0.1818 0.4419
vt 0.479 0.4254
vt 0.1754 0.468
vt 0.479 0.4254
vt 0.4516 0.3696
vt 0.4788 0.4156
vt 0.4163 0.3692
vt 0.1873 0.4789
vt 0.4702 0.4162
vt 0.2717 0.244
vt 0.4704 0.4262
vt 0.3732 0.4401
vt 0.1868 0.4762
vt 0.4697 0.4302
vt 0.1546 0.1865
vt 0.3374 0.4459
vt 0.2571 0.2627
vt 0.3039 0.4518
vt 0.1941 0.4638
vt 0.3468 0.2841
vt 0.1682 0.1682
vt 0.3374 0.4459
vt 0.1582 0.189
vt 0.4312 0.338
vt 0.3265 0.2737
vt 0.3149 0.2951
vt 0.4702 0.4162
vt 0.1531 0.2263
vt 0.3695 0.4063
vt 0.1641 0.1929
vt 0.3333 0.4109
vt 0.3265 0.2737
vt 0.4687 0.3964
vt 0.4576 0.4172
vt 0.05477 0.4928
vt 0.144 0.2185
vt 0.2238 0.3982
vt 0.3069 0.2625
vt 0.4516 0.3696
vt 0.4665 0.3696
vt 0.2985 0.416
vt 0.1789 0.174
vt 0.3333 0.4109
vt 0.3149 0.2951
vt 0.4163 0.3692
vt 0.4516 0.3696
vt 0.2928 0.3838
vt 0.1641 0.1929
vt 0.3333 0.4109
vt 0.3149 0.2951
vt 0.4339 0.3985
vt 0.174 0.2005
vt 0.3366 0.4347
vt 0.3149 0.2951
vt 0.144 0.2185
vt 0.2992 0.3241
vt 0.1582 0.189
vt 0.3237 0.3359
vt 0.1393 0.2137
vt 0.3732 0.4401
vt 0.05422 0.4459
vt 0.274 0.4577
vt 0.1095 0.457
vt 0.2433 0.4528
vt 0.09726 0.4335
vt 0.2053 0.4362
vt 0.2541 0.2408
vt 0.3026 0.4404
vt 0.04838 0.4869
vt 0.1232 0.201
vt 0.3039 0.4518
vt 0.114 0.1936
vt 0.0448 0.4962
vt 0.1207 0.1652
vt 0.1908 0.406
vt 0.2501 0.2395
vt 0.2159 0.459
vt 0.04311 0.4897
vt 0.1442 0.1593
vt 0.272 0.4465
vt 0.1347 0.1504
vt 0.3374 0.4459
vt 0.08379 0.4616
vt 0.2351 0.4293
vt 0.2448 0.2347
vt 0.2201 0.4693
vt 0.1312 0.174
vt 0.2433 0.4528
vt 0.3368 0.4496
vt 0.09145 0.4778
vt 0.2053 0.4362
vt 0.2375 0.2544
vt 0.114 0.1936
vt 0.2464 0.4636
vt 0.0448 0.4962
vt 0.1312 0.174
vt 0.1818 0.4419
vt 0.2375 0.2544
vt 0.2464 0.4636
vt 0.2375 0.2544
vt 0.2145 0.2703
vt 0.1818 0.4419
vt 0.2411 0.2563
vt 0.2053 0.4362
vt 0.2465 0.4667
vt 0.1487 0.45
vt 0.2375 0.2544
vt 0.2464 0.4636
vt 0.3368 0.4496
vt 0.2062 0.2278
vt 0.2738 0.461
vt 0.09145 0.4778
vt 0.2159 0.459
vt 0.2204 0.2746
vt 0.2053 0.4362
vt 0.1531 0.2263
vt 0.3035 0.4553
vt 0.2351 0.4293
vt 0.1487 0.45
vt 0.3039 0.4518
vt 0.2235 0.2772
vt 0.1575 0.4484
vt 0.2159 0.459
vt 0.3724 0.444
vt 0.1207 0.1652
vt 0.274 0.4577
vt 0.1188 0.4748
vt 0.05107 0.4943
vt 0.1312 0.174
vt 0.2738 0.461
vt 0.1024 0.1842
vt 0.1328 0.4232
vt 0.2159 0.459
vt 0.2579 0.3903
vt 0.06871 0.4809
vt 0.1575 0.4484
vt 0.05228 0.497
vt 0.03426 0.5018
vt 0.272 0.4465
vt 0.03207 0.4975
vt 0.08379 0.4616
vt 0.05477 0.4928
vt 0.2985 0.416
vt 0.0448 0.4962
vt 0.08379 0.4616
vt 0.05606 0.4955
vt 0.04838 0.4869
vt 0.06233 0.4658
vt 0.2661 0.4224
vt 0.04591 0.4987
vt 0.272 0.4465
vt 0.145 0.4197
vt 0.1606 0.4702
vt 0.3026 0.4404
vt 0.2411 0.2563
vt 0.2319 0.2499
vt 0.4319 0.3156
vt 0.4116 0.3095
vt 0.1406 0.4212
vt 0.1701 0.4689
vt 0.4099 0.3319
vt 0.4339 0.3985
vt 0.07388 0.4402
vt 0.4312 0.338
vt 0.03426 0.5018
vt 0.4099 0.3319
vt 0.1892 0.2131
vt 0.03319 0.4997
vt 0.4099 0.3319
vt 0.03319 0.4997
vt 0.3856 0.3239
vt 0.01652 0.4569
vt 0.3798 0.3543
vt 0.06871 0.4809
vt 0.01652 0.4569
vt 0.0599 0.4906
vt 0.02977 0.4715
vt 0.02454 0.4545
vt 0.4312 0.338
vt 0.06142 0.4931
vt 0.03164 0.4823
vt 0.1701 0.4689
vt 0.4099 0.3319
vt 0.05675 0.4835
vt 0.03319 0.4997
vt 0.05182 0.4854
vt 0.1754 0.468
vt 0.1701 0.4689
vt 0.4163 0.3692
vt 0.0599 0.4906
vt 0.0448 0.4962
vt 0.05477 0.4928
vt 0.1805 0.4773
vt 0.1606 0.4702
vt 0.4376 0.4195
vt 0.05477 0.4928
vt 0.04311 0.4897
vt 0.3726 0.4291
vt 0.0215 0.4738
vt 0.3732 0.4401
vt 0.01398 0.4899
vt 0.4084 0.4344
vt 0.0253 0.4864
vt 0.2737 0.2716
vt 0.04838 0.4869
vt 0.1361 0.2108
vt 0.4369 0.4343
vt 0.1546 0.1865
vt 0.04838 0.4869
vt 0.2411 0.2563
vt 0.04345 0.4489
vt 0.1095 0.457
vt 0.05107 0.4943
vt 0.01939 0.5057
vt 0.2201 0.4693
vt 0.1994 0.4766
vt 0.1394 0.1807
vt 0.165 0.4127
vt 0.1892 0.2131
vt 0.07388 0.4402
vt 0.2465 0.4667
vt 0.08379 0.4616
vt 0.2571 0.2627
vt 0.04607 0.4702
vt 0.2737 0.2716
vt 0.3366 0.4347
vt 0.1722 0.1707
vt 0.01062 0.4769
vt 0.0599 0.4906
vt 0.0253 0.4864
vt 0.05606 0.4955
vt 0.0215 0.4738
vt 0.07219 0.4879
vt 0.0215 0.4738
vt 0.05107 0.4943
vt 0.006287 0.4599
vt 0.05675 0.4835
vt 0.01062 0.4769
vt 0.3726 0.4291
vt 0.1641 0.1929
vt 0.2985 0.416
vt 0.05182 0.4854
vt 0.1641 0.1929
vt 0.3366 0.4347
vt 0.174 0.2005
vt 0.1582 0.189
vt 0.3026 0.4404
vt 0.3286 0.3795
vt 0.1789 0.174
vn 0.9857 -0.01889 0.1671
vn 0.6341 -0.04828 0.7718
vn 0.6217 -0.1953 0.7585
vn 0.9793 -0.0918 0.1801
vn 0.1928 -0.06174 0.9793
vn 0.1945 -0.2221 0.9554
vn 0.1957 -0.4234 0.8845
vn 0.5963 -0.385 0.7044
vn 0.9685 -0.1824 0.1692
vn -0.1736 -0.7284 0.6628
vn -0.2468 -0.8501 0.4651
vn -0.09977 -0.8774 0.4692
vn -0.01642 -0.7467 0.6649
vn -0.3283 -0.9125 0.244
vn -0.2004 -0.9476 0.2488
vn -0.06494 -0.9658 0.251
vn 0.04907 -0.8837 0.4655
vn 0.14 -0.7484 0.6483
vn -0.457 -0.8735 -0.1675
vn -0.4871 -0.8197 -0.3013
vn -0.3647 -0.8698 -0.3322
vn -0.3417 -0.9209 -0.1875
vn -0.5202 -0.7085 -0.4768
vn -0.3754 -0.7718 -0.5132
vn -0.2447 -0.8085 -0.5352
vn -0.2465 -0.9018 -0.3549
vn -0.2271 -0.9523 -0.2038
vn 0.1806 -0.8988 -0.3994
vn 0.1825 -0.9505 -0.2514
vn 0.1953 -0.8121 -0.5499
vn 0.8391 -0.3954 -0.3735
vn 0.8408 -0.4377 -0.3183
vn 0.8375 -0.4805 -0.2602
vn 0.4338 -0.8193 0.3748
vn 0.5081 -0.6841 0.5232
vn 0.3398 -0.9215 0.188
vn 0.8879 -0.458 -0.04318
vn 0.9175 -0.3951 0.04517
vn 0.9375 -0.3301 0.1101
vn -0.2115 -0.5844 -0.7834
vn 0.2115 -0.6275 -0.7493
vn -0.2034 -0.5472 -0.8119
vn 0.2664 -0.5744 -0.774
vn 0.8522 -0.2905 -0.4351
vn 0.8258 -0.3232 -0.4621
vn -0.5299 -0.4423 -0.7235
vn -0.3541 -0.5309 -0.7698
vn -0.5319 -0.4048 -0.7438
vn -0.3507 -0.4931 -0.7961
vn -0.1114 -0.08234 0.9904
vn -0.2293 -0.08698 0.9694
vn -0.2233 -0.2112 0.9516
vn -0.1058 -0.2166 0.9705
vn -0.3048 -0.08707 0.9484
vn -0.303 -0.2073 0.9301
vn -0.3105 -0.3969 0.8637
vn -0.2236 -0.3948 0.8911
vn -0.09964 -0.401 0.9106
vn -0.6953 -0.593 -0.406
vn -0.7283 -0.2953 -0.6183
vn -0.6778 -0.3448 -0.6494
vn -0.6453 -0.6322 -0.4288
vn -0.7284 -0.2723 -0.6287
vn -0.6817 -0.311 -0.6623
vn -0.6089 -0.7819 -0.1339
vn -0.6417 -0.7276 -0.2425
vn -0.5945 -0.7596 -0.2639
vn -0.5601 -0.8156 -0.1449
vn -0.3962 -0.6801 0.6168
vn -0.4442 -0.7726 0.4536
vn -0.3785 -0.8043 0.458
vn -0.3181 -0.6983 0.6413
vn -0.5013 -0.8307 0.2422
vn -0.4427 -0.8633 0.2423
vn 0.02115 -0.07169 0.9972
vn 0.02426 -0.2207 0.975
vn 0.03339 -0.4136 0.9098
vn 0.2 0.003204 0.9798
vn 0.03476 -0.01022 0.9993
vn 0.02728 -0.01718 0.9995
vn 0.1958 -0.003815 0.9806
vn -0.102 -0.02512 0.9944
vn -0.1075 -0.03311 0.9936
vn -0.2253 -0.03256 0.9737
vn -0.2281 -0.04273 0.9727
vn -0.3027 -0.03406 0.9525
vn -0.3041 -0.04636 0.9515
vn 0.9875 0.005982 0.1573
vn 0.6401 0.01032 0.7682
vn 0.6381 0.002472 0.77
vn 0.9872 0.002075 0.1592
vn -0.5638 -0.8256 0.02106
vn -0.5103 -0.8597 0.02097
vn -0.4055 -0.9139 0.01584
vn -0.1682 -0.9857 0.006623
vn 0.2417 -0.9694 -0.04163
vn 0.8524 -0.4976 -0.1607
vn -0.2894 -0.9571 0.01141
vn -0.3453 -0.5625 0.7512
vn -0.2574 -0.5615 0.7864
vn -0.119 -0.5704 0.8127
vn 0.186 -0.5884 0.7868
vn 0.5604 -0.5376 0.63
vn 0.9554 -0.2553 0.1483
vn 0.02808 -0.5824 0.8124
vn 0.987 3.052e-05 0.1608
vn 0.6374 0 0.7705
vn 0.6388 0.006134 0.7693
vn 0.9873 0.004944 0.1586
vn 0.2039 -3.052e-05 0.979
vn 0.2028 -0.001587 0.9792
vn -0.09616 -6.104e-05 0.9954
vn -0.2229 0 0.9748
vn -0.2237 -0.02487 0.9743
vn -0.09803 -0.02164 0.9949
vn -0.302 6.104e-05 0.9533
vn -0.3022 -0.02371 0.9529
vn 0.04285 -9.156e-05 0.9991
vn 0.04038 -0.01175 0.9991
vn -0.3616 -0.2001 0.9106
vn -0.3761 -0.3906 0.8402
vn -0.3561 -0.08454 0.9306
vn -0.7738 -0.04749 0.6316
vn -0.7635 -0.1156 0.6353
vn -0.767 -0.2343 0.5973
vn -0.3532 -0.02228 0.9353
vn -0.3536 -0.03351 0.9348
vn -0.3531 6.104e-05 0.9356
vn -0.7746 -0.0001526 0.6324
vn -0.7758 -0.0127 0.6308
vn -0.7772 -0.01904 0.629
vn -0.7192 -0.2921 -0.6304
vn -0.7158 -0.2776 -0.6406
vn -0.6995 -0.5883 -0.4057
vn -0.9213 -0.3614 -0.1433
vn -0.9311 -0.1918 -0.3102
vn -0.9417 -0.1663 -0.2924
vn -0.5839 -0.8116 0.01962
vn -0.6229 -0.7712 -0.1313
vn -0.5245 -0.8157 0.2439
vn -0.8419 -0.4805 0.2452
vn -0.8729 -0.4751 0.111
vn -0.8952 -0.4451 0.02219
vn -0.4012 -0.5569 0.7272
vn -0.4315 -0.6695 0.6046
vn -0.7869 -0.33 0.5214
vn -0.8028 -0.392 0.4492
vn -0.4681 -0.7577 0.4546
vn -0.8181 -0.4436 0.3658
vn -0.3545 -0.04645 0.9339
vn -0.7768 -0.02634 0.6291
vn -0.6515 -0.7211 -0.2357
vn -0.9079 -0.4176 -0.0365
vn 0.9859 0.01785 0.1664
vn 0.9801 0.08603 0.1789
vn 0.626 0.1839 0.7578
vn 0.6352 0.0455 0.771
vn 0.9702 0.1714 0.171
vn 0.6043 0.3636 0.7089
vn 0.2083 0.4029 0.8912
vn 0.2021 0.2115 0.9562
vn 0.1953 0.05911 0.9789
vn -0.1807 0.7066 0.6841
vn -0.01154 0.7227 0.691
vn -0.1074 0.8602 0.4985
vn -0.2683 0.8307 0.4877
vn 0.1498 0.721 0.6765
vn 0.04852 0.8654 0.4988
vn -0.08225 0.9609 0.2644
vn -0.2238 0.9393 0.2601
vn -0.3632 0.8967 0.253
vn -0.4852 0.8524 -0.195
vn -0.3607 0.9031 -0.2328
vn -0.3639 0.8471 -0.3873
vn -0.5003 0.7984 -0.3349
vn -0.2435 0.9335 -0.2633
vn -0.2398 0.8721 -0.4266
vn -0.2181 0.7718 -0.5972
vn -0.3572 0.7458 -0.5623
vn -0.5189 0.688 -0.5072
vn 0.1558 0.9361 -0.3153
vn 0.1698 0.8638 -0.4743
vn 0.8227 0.4822 -0.3009
vn 0.8306 0.4246 -0.3601
vn 0.8336 0.3724 -0.4079
vn 0.2019 0.7642 -0.6126
vn 0.5144 0.6572 0.5508
vn 0.4329 0.8035 0.4086
vn 0.9396 0.3185 0.1251
vn 0.9179 0.3916 0.06308
vn 0.8823 0.4692 -0.03732
vn 0.3255 0.9236 0.2026
vn 0.2231 0.5825 -0.7816
vn -0.1821 0.552 -0.8137
vn 0.8232 0.2991 -0.4825
vn 0.8489 0.2718 -0.4532
vn 0.2739 0.5342 -0.7997
vn -0.1712 0.5175 -0.8384
vn -0.3321 0.5091 -0.794
vn -0.5218 0.4282 -0.7378
vn -0.3258 0.4747 -0.8176
vn -0.5223 0.3956 -0.7555
vn -0.1083 0.08054 0.9908
vn -0.09952 0.2102 0.9726
vn -0.2192 0.2076 0.9533
vn -0.2268 0.08612 0.9701
vn -0.09204 0.3875 0.9172
vn -0.2212 0.3855 0.8958
vn -0.3149 0.3914 0.8647
vn -0.3023 0.2063 0.9306
vn -0.3038 0.08716 0.9487
vn -0.7113 0.5715 -0.4091
vn -0.656 0.6117 -0.4422
vn -0.6786 0.3335 -0.6544
vn -0.7326 0.285 -0.6181
vn -0.682 0.3068 -0.6638
vn -0.7321 0.2705 -0.6251
vn -0.6459 0.751 -0.1373
vn -0.5947 0.7884 -0.1574
vn -0.6177 0.7352 -0.2791
vn -0.6694 0.7007 -0.2468
vn -0.4262 0.6569 0.6219
vn -0.3376 0.6763 0.6547
vn -0.4122 0.7794 0.4718
vn -0.4858 0.7429 0.4606
vn -0.4865 0.8376 0.2484
vn -0.5493 0.7983 0.2468
vn 0.03189 0.212 0.9767
vn 0.02402 0.06931 0.9973
vn 0.04498 0.3963 0.917
vn 0.1999 -0.003143 0.9798
vn 0.1961 0.003632 0.9806
vn 0.02808 0.01672 0.9995
vn 0.03525 0.01007 0.9993
vn -0.1061 0.03265 0.9938
vn -0.1008 0.02487 0.9946
vn -0.2266 0.04257 0.9731
vn -0.224 0.03247 0.974
vn -0.3033 0.0466 0.9518
vn -0.302 0.03421 0.9527
vn 0.9875 -0.005829 0.1574
vn 0.9872 -0.002014 0.1592
vn 0.6381 -0.002564 0.77
vn 0.6399 -0.01004 0.7684
vn -0.5538 0.8325 0.01547
vn -0.6091 0.7928 0.02057
vn -0.4434 0.8963 0.002991
vn 0.2148 0.9741 -0.06995
vn -0.1951 0.9806 -0.02063
vn 0.8384 0.5132 -0.1832
vn -0.3192 0.9476 -0.009644
vn -0.2637 0.5455 0.7955
vn -0.3615 0.5489 0.7536
vn -0.1159 0.551 0.8264
vn 0.5693 0.5104 0.6445
vn 0.1995 0.5616 0.8029
vn 0.9576 0.2422 0.156
vn 0.039 0.5591 0.8282
vn 0.9873 -0.004852 0.1586
vn 0.6388 -0.006043 0.7694
vn 0.2029 0.001526 0.9792
vn -0.09696 0.02145 0.995
vn -0.2226 0.02487 0.9746
vn -0.3016 0.02387 0.9531
vn 0.04096 0.01154 0.9991
vn -0.3888 0.387 0.8361
vn -0.3656 0.2004 0.9089
vn -0.7726 0.2299 0.5917
vn -0.7655 0.1144 0.6332
vn -0.7745 0.04718 0.6308
vn -0.3572 0.08506 0.9301
vn -0.3539 0.03378 0.9347
vn -0.3533 0.02243 0.9352
vn -0.7774 0.01895 0.6287
vn -0.776 0.01245 0.6306
vn -0.7224 0.2768 -0.6336
vn -0.7263 0.282 -0.6268
vn -0.9439 0.1672 -0.2848
vn -0.934 0.1816 -0.3078
vn -0.9286 0.3431 -0.1414
vn -0.7197 0.5656 -0.4026
vn -0.6621 0.7382 -0.1293
vn -0.6305 0.7759 0.02261
vn -0.9071 0.4202 0.02338
vn -0.887 0.4481 0.1112
vn -0.8577 0.4518 0.2454
vn -0.5752 0.7792 0.2489
vn -0.4717 0.6434 0.6029
vn -0.428 0.5435 0.722
vn -0.8185 0.3684 0.4409
vn -0.7983 0.317 0.512
vn -0.5165 0.7233 0.4583
vn -0.8346 0.4144 0.3628
vn -0.355 0.04688 0.9337
vn -0.7772 0.02625 0.6287
vn -0.683 0.692 -0.2337
vn -0.9178 0.3956 -0.03455
vn 0.856 -0.3545 -0.3763
vn 0.8543 -0.4039 -0.3271
vn 0.8405 -0.4125 -0.3511
vn 0.8467 -0.3542 -0.3969
vn 0.8722 -0.263 -0.4124
vn 0.8958 -0.1823 -0.4053
vn 0.9138 -0.08203 -0.3977
vn 0.9389 -0.01416 -0.344
vn 0.8545 0.3358 -0.3964
vn 0.8542 0.3299 -0.4017
vn 0.8462 0.388 -0.3652
vn 0.8557 0.3836 -0.3471
vn 0.9002 0.1691 -0.4013
vn 0.8786 0.2442 -0.4104
vn 0.939 0.01358 -0.3435
vn 0.9159 0.07624 -0.394
vn 0.9759 -0.005402 -0.2182
vn 0.9621 0.007202 -0.2726
vn 0.9465 0.01346 -0.3224
vn 0.9463 -0.01398 -0.323
vn 0.962 -0.007538 -0.2728
vn 0.976 0.005676 -0.2177
vn 0.9803 9.156e-05 -0.1973
vn -0.9129 -0.3906 -0.1182
vn -0.9154 0.3902 -0.09891
vn -0.8629 0.4952 0.1004
vn -0.8539 0.5145 0.0781
vn -0.8887 0.4544 -0.0607
vn -0.9221 0.3503 -0.1644
vn -0.9292 0.2573 -0.2651
vn -0.9293 0.02402 -0.3685
vn -0.9377 -0.06867 -0.3406
vn -0.9431 0.04215 -0.3299
vn -0.9488 0.09162 -0.3023
vn -0.9702 0.02725 -0.2405
vn -0.8897 -0.4469 -0.09262
vn -0.8556 -0.5157 0.04318
vn -0.8646 -0.4975 0.07041
vn -0.9768 0.001617 -0.214
vn -0.9687 -0.0303 -0.2462
vn -0.9507 -0.0925 -0.2958
vn -0.9244 -0.3335 -0.185
vn -0.9305 -0.01721 -0.3657
vn -0.9328 -0.2381 -0.2705
vn -0.9372 0.07376 -0.3409
vn -0.9427 -0.03452 -0.3317
f 1/1/1 2/2/2 3/3/3
f 1/1/1 3/3/3 4/4/4
f 2/2/2 5/5/5 6/6/6
f 2/2/2 6/6/6 3/3/3
f 3/3/3 6/6/6 7/7/7
f 3/3/3 7/7/7 8/8/8
f 4/4/4 3/3/3 8/8/8
f 4/4/4 8/8/8 9/9/9
f 10/10/10 11/11/11 12/12/12
f 10/10/10 12/12/12 13/13/13
f 11/11/11 14/14/14 15/15/15
f 11/11/11 15/15/15 12/12/12
f 12/12/12 15/15/15 16/16/16
f 12/12/12 16/16/16 17/17/17
f 13/13/13 12/12/12 17/17/17
f 13/13/13 17/17/17 18/18/18
f 19/19/19 20/20/20 21/21/21
f 19/19/19 21/21/21 22/22/22
f 20/20/20 23/23/23 24/24/24
f 20/20/20 24/24/24 21/21/21
f 21/21/21 24/24/24 25/25/25
f 21/21/21 25/25/25 26/26/26
f 22/22/22 21/21/21 26/26/26
f 22/22/22 26/26/26 27/27/27
f 27/27/27 26/26/26 28/28/28
f 27/27/27 28/28/28 29/29/29
f 26/26/26 25/25/25 30/30/30
f 26/26/26 30/30/30 28/28/28
f 28/28/28 30/30/30 31/31/31
f 28/28/28 31/31/31 32/32/32
f 29/29/29 28/28/28 32/32/32
f 29/29/29 32/32/32 33/33/33
f 18/18/18 17/17/17 34/34/34
f 18/18/18 34/34/34 35/35/35
f 17/17/17 16/16/16 36/36/36
f 17/17/17 36/36/36 34/34/34
f 34/34/34 36/36/36 37/37/37
f 34/34/34 37/37/37 38/38/38
f 35/35/35 34/34/34 38/38/38
f 35/35/35 38/38/38 39/39/39
f 25/25/25 40/40/40 41/41/41
f 25/25/25 41/41/41 30/30/30
f 40/40/40 42/42/42 43/43/43
f 40/40/40 43/43/43 41/41/41
f 41/41/41 43/43/43 44/44/44
f 41/41/41 44/44/44 45/45/45
f 30/30/30 41/41/41 45/45/45
f 30/30/30 45/45/45 31/31/31
f 23/23/23 46/46/46 47/47/47
f 23/23/23 47/47/47 24/24/24
f 46/46/46 48/48/48 49/49/49
f 46/46/46 49/49/49 47/47/47
f 47/47/47 49/49/49 42/42/42
f 47/47/47 42/42/42 40/40/40
f 24/24/24 47/47/47 40/40/40
f 24/24/24 40/40/40 25/25/25
f 50/50/50 51/51/51 52/52/52
f 50/50/50 52/52/52 53/53/53
f 51/51/51 54/54/54 55/55/55
f 51/51/51 55/55/55 52/52/52
f 52/52/52 55/55/55 56/56/56
f 52/52/52 56/56/56 57/57/57
f 53/53/53 52/52/52 57/57/57
f 53/53/53 57/57/57 58/58/58
f 59/59/59 60/60/60 61/61/61
f 59/59/59 61/61/61 62/62/62
f 60/60/60 63/63/63 64/64/64
f 60/60/60 64/64/64 61/61/61
f 61/61/61 64/64/64 48/48/48
f 61/61/61 48/48/48 46/46/46
f 62/62/62 61/61/61 46/46/46
f 62/62/62 46/46/46 23/23/23
f 65/65/65 66/66/66 67/67/67
f 65/65/65 67/67/67 68/68/68
f 66/66/66 59/59/59 62/62/62
f 66/66/66 62/62/62 67/67/67
f 67/67/67 62/62/62 23/23/23
f 67/67/67 23/23/23 20/20/20
f 68/68/68 67/67/67 20/20/20
f 68/68/68 20/20/20 19/19/19
f 69/69/69 70/70/70 71/71/71
f 69/69/69 71/71/71 72/72/72
f 70/70/70 73/73/73 74/74/74
f 70/70/70 74/74/74 71/71/71
f 71/71/71 74/74/74 14/14/14
f 71/71/71 14/14/14 11/11/11
f 72/72/72 71/71/71 11/11/11
f 72/72/72 11/11/11 10/10/10
f 5/5/5 75/75/75 76/76/76
f 5/5/5 76/76/76 6/6/6
f 75/75/75 50/50/50 53/53/53
f 75/75/75 53/53/53 76/76/76
f 76/76/76 53/53/53 58/58/58
f 76/76/76 58/58/58 77/77/77
f 6/6/6 76/76/76 77/77/77
f 6/6/6 77/77/77 7/7/7
f 78/78/78 79/79/79 80/80/80
f 78/78/78 80/80/80 81/81/81
f 79/79/79 82/82/82 83/83/83
f 79/79/79 83/83/83 80/80/80
f 80/80/80 83/83/83 50/50/50
f 80/80/80 50/50/50 75/75/75
f 81/81/81 80/80/80 75/75/75
f 81/81/81 75/75/75 5/5/5
f 82/82/82 84/84/84 85/85/85
f 82/82/82 85/85/85 83/83/83
f 84/84/84 86/86/86 87/87/87
f 84/84/84 87/87/87 85/85/85
f 85/85/85 87/87/87 54/54/54
f 85/85/85 54/54/54 51/51/51
f 83/83/83 85/85/85 51/51/51
f 83/83/83 51/51/51 50/50/50
f 88/88/88 89/89/89 90/90/90
f 88/88/88 90/90/90 91/91/91
f 89/89/89 78/78/78 81/81/81
f 89/89/89 81/81/81 90/90/90
f 90/90/90 81/81/81 5/5/5
f 90/90/90 5/5/5 2/2/2
f 91/91/91 90/90/90 2/2/2
f 91/91/91 2/2/2 1/1/1
f 73/73/73 92/92/92 93/93/93
f 73/73/73 93/93/93 74/74/74
f 92/92/92 65/65/65 68/68/68
f 92/92/92 68/68/68 93/93/93
f 93/93/93 68/68/68 19/19/19
f 93/93/93 19/19/19 94/94/94
f 74/74/74 93/93/93 94/94/94
f 74/74/74 94/94/94 14/14/14
f 16/16/16 95/95/95 96/96/96
f 16/16/16 96/96/96 36/36/36
f 95/95/95 27/27/27 29/29/29
f 95/95/95 29/29/29 96/96/96
f 96/96/96 29/29/29 33/33/33
f 96/96/96 33/33/33 97/97/97
f 36/36/36 96/96/96 97/97/97
f 36/36/36 97/97/97 37/37/37
f 14/14/14 94/94/94 98/98/98
f 14/14/14 98/98/98 15/15/15
f 94/94/94 19/19/19 22/22/22
f 94/94/94 22/22/22 98/98/98
f 98/98/98 22/22/22 27/27/27
f 98/98/98 27/27/27 95/95/95
f 15/15/15 98/98/98 95/95/95
f 15/15/15 95/95/95 16/16/16
f 56/56/56 99/99/99 100/100/100
f 56/56/56 100/100/100 57/57/57
f 99/99/99 69/69/69 72/72/72
f 99/99/99 72/72/72 100/100/100
f 100/100/100 72/72/72 10/10/10
f 100/100/100 10/10/10 101/101/101
f 57/57/57 100/100/100 101/101/101
f 57/57/57 101/101/101 58/58/58
f 7/7/7 102/102/102 103/103/103
f 7/7/7 103/103/103 8/8/8
f 102/102/102 18/18/18 35/35/35
f 102/102/102 35/35/35 103/103/103
f 103/103/103 35/35/35 39/39/39
f 103/103/103 39/39/39 104/104/104
f 8/8/8 103/103/103 104/104/104
f 8/8/8 104/104/104 9/9/9
f 58/58/58 101/101/101 105/105/105
f 58/58/58 105/105/105 77/77/77
f 101/101/101 10/10/10 13/13/13
f 101/101/101 13/13/13 105/105/105
f 105/105/105 13/13/13 18/18/18
f 105/105/105 18/18/18 102/102/102
f 77/77/77 105/105/105 102/102/102
f 77/77/77 102/102/102 7/7/7
f 106/106/106 107/107/107 108/108/108
f 106/106/106 108/108/108 109/109/109
f 107/107/107 110/110/110 111/111/111
f 107/107/107 111/111/111 108/108/108
f 108/108/108 111/111/111 78/78/78
f 108/108/108 78/78/78 89/89/89
f 109/109/109 108/108/108 89/89/89
f 109/109/109 89/89/89 88/88/88
f 112/112/112 113/113/113 114/114/114
f 112/112/112 114/114/114 115/115/115
f 113/113/113 116/116/116 117/117/117
f 113/113/113 117/117/117 114/114/114
f 114/114/114 117/117/117 86/86/86
f 114/114/114 86/86/86 84/84/84
f 115/115/115 114/114/114 84/84/84
f 115/115/115 84/84/84 82/82/82
f 110/110/110 118/118/118 119/119/119
f 110/110/110 119/119/119 111/111/111
f 118/118/118 112/112/112 115/115/115
f 118/118/118 115/115/115 119/119/119
f 119/119/119 115/115/115 82/82/82
f 119/119/119 82/82/82 79/79/79
f 111/111/111 119/119/119 79/79/79
f 111/111/111 79/79/79 78/78/78
f 56/56/56 55/55/55 120/120/120
f 56/56/56 120/120/120 121/121/121
f 55/55/55 54/54/54 122/122/122
f 55/55/55 122/122/122 120/120/120
f 120/120/120 122/122/122 123/123/123
f 120/120/120 123/123/123 124/124/124
f 121/121/121 120/120/120 124/124/124
f 121/121/121 124/124/124 125/125/125
f 86/86/86 117/117/117 126/126/126
f 86/86/86 126/126/126 127/127/127
f 117/117/117 116/116/116 128/128/128
f 117/117/117 128/128/128 126/126/126
f 126/126/126 128/128/128 129/129/129
f 126/126/126 129/129/129 130/130/130
f 127/127/127 126/126/126 130/130/130
f 127/127/127 130/130/130 131/131/131
f 63/63/63 60/60/60 132/132/132
f 63/63/63 132/132/132 133/133/133
f 60/60/60 59/59/59 134/134/134
f 60/60/60 134/134/134 132/132/132
f 132/132/132 134/134/134 135/135/135
f 132/132/132 135/135/135 136/136/136
f 133/133/133 132/132/132 136/136/136
f 133/133/133 136/136/136 137/137/137
f 65/65/65 92/92/92 138/138/138
f 65/65/65 138/138/138 139/139/139
f 92/92/92 73/73/73 140/140/140
f 92/92/92 140/140/140 138/138/138
f 138/138/138 140/140/140 141/141/141
f 138/138/138 141/141/141 142/142/142
f 139/139/139 138/138/138 142/142/142
f 139/139/139 142/142/142 143/143/143
f 69/69/69 99/99/99 144/144/144
f 69/69/69 144/144/144 145/145/145
f 99/99/99 56/56/56 121/121/121
f 99/99/99 121/121/121 144/144/144
f 144/144/144 121/121/121 125/125/125
f 144/144/144 125/125/125 146/146/146
f 145/145/145 144/144/144 146/146/146
f 145/145/145 146/146/146 147/147/147
f 73/73/73 70/70/70 148/148/148
f 73/73/73 148/148/148 140/140/140
f 70/70/70 69/69/69 145/145/145
f 70/70/70 145/145/145 148/148/148
f 148/148/148 145/145/145 147/147/147
f 148/148/148 147/147/147 149/149/149
f 140/140/140 148/148/148 149/149/149
f 140/140/140 149/149/149 141/141/141
f 54/54/54 87/87/87 150/150/150
f 54/54/54 150/150/150 122/122/122
f 87/87/87 86/86/86 127/127/127
f 87/87/87 127/127/127 150/150/150
f 150/150/150 127/127/127 131/131/131
f 150/150/150 131/131/131 151/151/151
f 122/122/122 150/150/150 151/151/151
f 122/122/122 151/151/151 123/123/123
f 59/59/59 66/66/66 152/152/152
f 59/59/59 152/152/152 134/134/134
f 66/66/66 65/65/65 139/139/139
f 66/66/66 139/139/139 152/152/152
f 152/152/152 139/139/139 143/143/143
f 152/152/152 143/143/143 153/153/153
f 134/134/134 152/152/152 153/153/153
f 134/134/134 153/153/153 135/135/135
f 154/154/154 155/155/155 156/156/156
f 154/154/154 156/156/156 157/157/157
f 155/155/155 158/158/158 159/159/159
f 155/155/155 159/159/159 156/156/156
f 156/156/156 159/159/159 160/160/160
f 156/156/156 160/160/160 161/161/161
f 157/157/157 156/156/156 161/161/161
f 157/157/157 161/161/161 162/162/162
f 163/163/163 164/164/164 165/165/165
f 163/163/163 165/165/165 166/166/166
f 164/164/164 167/167/167 168/168/168
f 164/164/164 168/168/168 165/165/165
f 165/165/165 168/168/168 169/169/169
f 165/165/165 169/169/169 170/170/170
f 166/166/166 165/165/165 170/170/170
f 166/166/166 170/170/170 171/171/171
f 172/172/172 173/173/173 174/174/174
f 172/172/172 174/174/174 175/175/175
f 173/173/173 176/176/176 177/177/177
f 173/173/173 177/177/177 174/174/174
f 174/174/174 177/177/177 178/178/178
f 174/174/174 178/178/178 179/179/179
f 175/175/175 174/174/174 179/179/179
f 175/175/175 179/179/179 180/180/180
f 176/176/176 181/181/181 182/182/182
f 176/176/176 182/182/182 177/177/177
f 181/181/181 183/183/183 184/184/184
f 181/181/181 184/184/184 182/182/182
f 182/182/182 184/184/184 185/185/185
f 182/182/182 185/185/185 186/186/186
f 177/177/177 182/182/182 186/186/186
f 177/177/177 186/186/186 178/178/178
f 167/167/167 187/187/187 188/188/188
f 167/167/167 188/188/188 168/168/168
f 187/187/187 189/189/189 190/190/190
f 187/187/187 190/190/190 188/188/188
f 188/188/188 190/190/190 191/191/191
f 188/188/188 191/191/191 192/192/192
f 168/168/168 188/188/188 192/192/192
f 168/168/168 192/192/192 169/169/169
f 178/178/178 186/186/186 193/193/193
f 178/178/178 193/193/193 194/194/194
f 186/186/186 185/185/185 195/195/195
f 186/186/186 195/195/195 193/193/193
f 193/193/193 195/195/195 196/196/196
f 193/193/193 196/196/196 197/197/197
f 194/194/194 193/193/193 197/197/197
f 194/194/194 197/197/197 198/198/198
f 180/180/180 179/179/179 199/199/199
f 180/180/180 199/199/199 200/200/200
f 179/179/179 178/178/178 194/194/194
f 179/179/179 194/194/194 199/199/199
f 199/199/199 194/194/194 198/198/198
f 199/199/199 198/198/198 201/201/201
f 200/200/200 199/199/199 201/201/201
f 200/200/200 201/201/201 202/202/202
f 203/203/203 204/204/204 205/205/205
f 203/203/203 205/205/205 206/206/206
f 204/204/204 207/207/207 208/208/208
f 204/204/204 208/208/208 205/205/205
f 205/205/205 208/208/208 209/209/209
f 205/205/205 209/209/209 210/210/210
f 206/206/206 205/205/205 210/210/210
f 206/206/206 210/210/210 211/211/211
f 212/212/212 213/213/213 214/214/214
f 212/212/212 214/214/214 215/215/215
f 213/213/213 180/180/180 200/200/200
f 213/213/213 200/200/200 214/214/214
f 214/214/214 200/200/200 202/202/202
f 214/214/214 202/202/202 216/216/216
f 215/215/215 214/214/214 216/216/216
f 215/215/215 216/216/216 217/217/217
f 218/218/218 219/219/219 220/220/220
f 218/218/218 220/220/220 221/221/221
f 219/219/219 172/172/172 175/175/175
f 219/219/219 175/175/175 220/220/220
f 220/220/220 175/175/175 180/180/180
f 220/220/220 180/180/180 213/213/213
f 221/221/221 220/220/220 213/213/213
f 221/221/221 213/213/213 212/212/212
f 222/222/222 223/223/223 224/224/224
f 222/222/222 224/224/224 225/225/225
f 223/223/223 163/163/163 166/166/166
f 223/223/223 166/166/166 224/224/224
f 224/224/224 166/166/166 171/171/171
f 224/224/224 171/171/171 226/226/226
f 225/225/225 224/224/224 226/226/226
f 225/225/225 226/226/226 227/227/227
f 162/162/162 161/161/161 228/228/228
f 162/162/162 228/228/228 229/229/229
f 161/161/161 160/160/160 230/230/230
f 161/161/161 230/230/230 228/228/228
f 228/228/228 230/230/230 207/207/207
f 228/228/228 207/207/207 204/204/204
f 229/229/229 228/228/228 204/204/204
f 229/229/229 204/204/204 203/203/203
f 231/231/231 232/232/232 233/233/233
f 231/231/231 233/233/233 234/234/234
f 232/232/232 162/162/162 229/229/229
f 232/232/232 229/229/229 233/233/233
f 233/233/233 229/229/229 203/203/203
f 233/233/233 203/203/203 235/235/235
f 234/234/234 233/233/233 235/235/235
f 234/234/234 235/235/235 236/236/236
f 236/236/236 235/235/235 237/237/237
f 236/236/236 237/237/237 238/238/238
f 235/235/235 203/203/203 206/206/206
f 235/235/235 206/206/206 237/237/237
f 237/237/237 206/206/206 211/211/211
f 237/237/237 211/211/211 239/239/239
f 238/238/238 237/237/237 239/239/239
f 238/238/238 239/239/239 240/240/240
f 241/241/241 242/242/242 243/243/243
f 241/241/241 243/243/243 244/244/244
f 242/242/242 154/154/154 157/157/157
f 242/242/242 157/157/157 243/243/243
f 243/243/243 157/157/157 162/162/162
f 243/243/243 162/162/162 232/232/232
f 244/244/244 243/243/243 232/232/232
f 244/244/244 232/232/232 231/231/231
f 227/227/227 226/226/226 245/245/245
f 227/227/227 245/245/245 246/246/246
f 226/226/226 171/171/171 247/247/247
f 226/226/226 247/247/247 245/245/245
f 245/245/245 247/247/247 172/172/172
f 245/245/245 172/172/172 219/219/219
f 246/246/246 245/245/245 219/219/219
f 246/246/246 219/219/219 218/218/218
f 169/169/169 192/192/192 248/248/248
f 169/169/169 248/248/248 249/249/249
f 192/192/192 191/191/191 250/250/250
f 192/192/192 250/250/250 248/248/248
f 248/248/248 250/250/250 183/183/183
f 248/248/248 183/183/183 181/181/181
f 249/249/249 248/248/248 181/181/181
f 249/249/249 181/181/181 176/176/176
f 171/171/171 170/170/170 251/251/251
f 171/171/171 251/251/251 247/247/247
f 170/170/170 169/169/169 249/249/249
f 170/170/170 249/249/249 251/251/251
f 251/251/251 249/249/249 176/176/176
f 251/251/251 176/176/176 173/173/173
f 247/247/247 251/251/251 173/173/173
f 247/247/247 173/173/173 172/172/172
f 209/209/209 208/208/208 252/252/252
f 209/209/209 252/252/252 253/253/253
f 208/208/208 207/207/207 254/254/254
f 208/208/208 254/254/254 252/252/252
f 252/252/252 254/254/254 163/163/163
f 252/252/252 163/163/163 223/223/223
f 253/253/253 252/252/252 223/223/223
f 253/253/253 223/223/223 222/222/222
f 160/160/160 159/159/159 255/255/255
f 160/160/160 255/255/255 256/256/256
f 159/159/159 158/158/158 257/257/257
f 159/159/159 257/257/257 255/255/255
f 255/255/255 257/257/257 189/189/189
f 255/255/255 189/189/189 187/187/187
f 256/256/256 255/255/255 187/187/187
f 256/256/256 187/187/187 167/167/167
f 207/207/207 230/230/230 258/258/258
f 207/207/207 258/258/258 254/254/254
f 230/230/230 160/160/160 256/256/256
f 230/230/230 256/256/256 258/258/258
f 258/258/258 256/256/256 167/167/167
f 258/258/258 167/167/167 164/164/164
f 254/254/254 258/258/258 164/164/164
f 254/254/254 164/164/164 163/163/163
f 106/106/106 259/259/259 260/260/260
f 106/106/106 260/260/260 107/107/107
f 259/259/259 241/241/241 244/244/244
f 259/259/259 244/244/244 260/260/260
f 260/260/260 244/244/244 231/231/231
f 260/260/260 231/231/231 261/261/261
f 107/107/107 260/260/260 261/261/261
f 107/107/107 261/261/261 110/110/110
f 112/112/112 262/262/262 263/263/263
f 112/112/112 263/263/263 113/113/113
f 262/262/262 236/236/236 238/238/238
f 262/262/262 238/238/238 263/263/263
f 263/263/263 238/238/238 240/240/240
f 263/263/263 240/240/240 264/264/264
f 113/113/113 263/263/263 264/264/264
f 113/113/113 264/264/264 116/116/116
f 110/110/110 261/261/261 265/265/265
f 110/110/110 265/265/265 118/118/118
f 261/261/261 231/231/231 234/234/234
f 261/261/261 234/234/234 265/265/265
f 265/265/265 234/234/234 236/236/236
f 265/265/265 236/236/236 262/262/262
f 118/118/118 265/265/265 262/262/262
f 118/118/118 262/262/262 112/112/112
f 209/209/209 266/266/266 267/267/267
f 209/209/209 267/267/267 210/210/210
f 266/266/266 268/268/268 269/269/269
f 266/266/266 269/269/269 267/267/267
f 267/267/267 269/269/269 270/270/270
f 267/267/267 270/270/270 271/271/271
f 210/210/210 267/267/267 271/271/271
f 210/210/210 271/271/271 211/211/211
f 240/240/240 272/272/272 273/273/273
f 240/240/240 273/273/273 264/264/264
f 272/272/272 274/274/274 275/275/275
f 272/272/272 275/275/275 273/273/273
f 273/273/273 275/275/275 129/129/129
f 273/273/273 129/129/129 128/128/128
f 264/264/264 273/273/273 128/128/128
f 264/264/264 128/128/128 116/116/116
f 217/217/217 276/276/276 277/277/277
f 217/217/217 277/277/277 215/215/215
f 276/276/276 278/278/278 279/279/279
f 276/276/276 279/279/279 277/277/277
f 277/277/277 279/279/279 280/280/280
f 277/277/277 280/280/280 281/281/281
f 215/215/215 277/277/277 281/281/281
f 215/215/215 281/281/281 212/212/212
f 218/218/218 282/282/282 283/283/283
f 218/218/218 283/283/283 246/246/246
f 282/282/282 284/284/284 285/285/285
f 282/282/282 285/285/285 283/283/283
f 283/283/283 285/285/285 286/286/286
f 283/283/283 286/286/286 287/287/287
f 246/246/246 283/283/283 287/287/287
f 246/246/246 287/287/287 227/227/227
f 222/222/222 288/288/288 289/289/289
f 222/222/222 289/289/289 253/253/253
f 288/288/288 290/290/290 291/291/291
f 288/288/288 291/291/291 289/289/289
f 289/289/289 291/291/291 268/268/268
f 289/289/289 268/268/268 266/266/266
f 253/253/253 289/289/289 266/266/266
f 253/253/253 266/266/266 209/209/209
f 227/227/227 287/287/287 292/292/292
f 227/227/227 292/292/292 225/225/225
f 287/287/287 286/286/286 293/293/293
f 287/287/287 293/293/293 292/292/292
f 292/292/292 293/293/293 290/290/290
f 292/292/292 290/290/290 288/288/288
f 225/225/225 292/292/292 288/288/288
f 225/225/225 288/288/288 222/222/222
f 211/211/211 271/271/271 294/294/294
f 211/211/211 294/294/294 239/239/239
f 271/271/271 270/270/270 295/295/295
f 271/271/271 295/295/295 294/294/294
f 294/294/294 295/295/295 274/274/274
f 294/294/294 274/274/274 272/272/272
f 239/239/239 294/294/294 272/272/272
f 239/239/239 272/272/272 240/240/240
f 212/212/212 281/281/281 296/296/296
f 212/212/212 296/296/296 221/221/221
f 281/281/281 280/280/280 297/297/297
f 281/281/281 297/297/297 296/296/296
f 296/296/296 297/297/297 284/284/284
f 296/296/296 284/284/284 282/282/282
f 221/221/221 296/296/296 282/282/282
f 221/221/221 282/282/282 218/218/218
f 37/37/37 97/97/97 33/33/33
f 33/33/33 32/32/32 31/31/31
f 31/31/31 45/45/45 44/44/44
f 33/33/33 31/31/31 44/44/44
f 38/38/38 37/37/37 33/33/33
f 104/104/104 39/39/39 38/38/38
f 4/4/4 9/9/9 104/104/104
f 91/91/91 1/1/1 4/4/4
f 106/106/106 109/109/109 88/88/88
f 88/88/88 91/91/91 4/4/4
f 4/4/4 104/104/104 38/38/38
f 38/38/38 33/33/33 44/44/44
f 38/38/38 44/44/44 298/298/298
f 88/88/88 4/4/4 38/38/38
f 259/259/259 106/106/106 88/88/88
f 154/154/154 242/242/242 241/241/241
f 241/241/241 259/259/259 88/88/88
f 88/88/88 38/38/38 298/298/298
f 299/299/299 300/300/300 301/301/301
f 88/88/88 298/298/298 299/299/299
f 154/154/154 241/241/241 88/88/88
f 158/158/158 155/155/155 154/154/154
f 189/189/189 257/257/257 158/158/158
f 191/191/191 190/190/190 189/189/189
f 183/183/183 250/250/250 191/191/191
f 185/185/185 184/184/184 183/183/183
f 196/196/196 195/195/195 185/185/185
f 196/196/196 185/185/185 183/183/183
f 183/183/183 191/191/191 189/189/189
f 189/189/189 158/158/158 154/154/154
f 154/154/154 88/88/88 299/299/299
f 299/299/299 301/301/301 302/302/302
f 302/302/302 303/303/303 304/304/304
f 302/302/302 304/304/304 305/305/305
f 154/154/154 299/299/299 302/302/302
f 183/183/183 189/189/189 154/154/154
f 306/306/306 196/196/196 183/183/183
f 307/307/307 308/308/308 309/309/309
f 306/306/306 183/183/183 154/154/154
f 307/307/307 309/309/309 306/306/306
f 310/310/310 311/311/311 307/307/307
f 312/312/312 313/313/313 310/310/310
f 314/314/314 315/315/315 316/316/316
f 316/316/316 312/312/312 310/310/310
f 310/310/310 307/307/307 306/306/306
f 306/306/306 154/154/154 302/302/302
f 302/302/302 305/305/305 317/317/317
f 317/317/317 318/318/318 319/319/319
f 319/319/319 320/320/320 314/314/314
f 314/314/314 316/316/316 310/310/310
f 310/310/310 306/306/306 302/302/302
f 302/302/302 317/317/317 319/319/319
f 319/319/319 314/314/314 310/310/310
f 302/302/302 319/319/319 310/310/310
f 137/137/137 136/136/136 135/135/135
f 135/135/135 153/153/153 143/143/143
f 143/143/143 142/142/142 141/141/141
f 141/141/141 149/149/149 147/147/147
f 147/147/147 146/146/146 125/125/125
f 125/125/125 124/124/124 123/123/123
f 123/123/123 151/151/151 131/131/131
f 131/131/131 130/130/130 129/129/129
f 129/129/129 275/275/275 274/274/274
f 274/274/274 295/295/295 270/270/270
f 270/270/270 269/269/269 268/268/268
f 268/268/268 291/291/291 290/290/290
f 290/290/290 293/293/293 286/286/286
f 286/286/286 285/285/285 284/284/284
f 284/284/284 297/297/297 280/280/280
f 280/280/280 279/279/279 278/278/278
f 284/284/284 280/280/280 278/278/278
f 290/290/290 286/286/286 284/284/284
f 270/270/270 268/268/268 290/290/290
f 129/129/129 274/274/274 270/270/270
f 123/123/123 131/131/131 129/129/129
f 147/147/147 125/125/125 123/123/123
f 143/143/143 141/141/141 147/147/147
f 137/137/137 135/135/135 143/143/143
f 321/321/321 137/137/137 143/143/143
f 143/143/143 147/147/147 123/123/123
f 123/123/123 129/129/129 270/270/270
f 270/270/270 290/290/290 284/284/284
f 284/284/284 278/278/278 322/322/322
f 323/323/323 324/324/324 325/325/325
f 270/270/270 284/284/284 322/322/322
f 322/322/322 323/323/323 325/325/325
f 325/325/325 326/326/326 327/327/327
f 327/327/327 328/328/328 329/329/329
f 330/330/330 331/331/331 332/332/332
f 327/327/327 329/329/329 330/330/330
f 322/322/322 325/325/325 327/327/327
f 123/123/123 270/270/270 322/322/322
f 321/321/321 143/143/143 123/123/123
f 333/333/333 334/334/334 335/335/335
f 335/335/335 321/321/321 123/123/123
f 123/123/123 322/322/322 327/327/327
f 327/327/327 330/330/330 332/332/332
f 336/336/336 337/337/337 338/338/338
f 327/327/327 332/332/332 336/336/336
f 335/335/335 123/123/123 327/327/327
f 339/339/339 333/333/333 335/335/335
f 340/340/340 341/341/341 339/339/339
f 342/342/342 340/340/340 339/339/339
f 339/339/339 335/335/335 327/327/327
f 327/327/327 336/336/336 338/338/338
f 343/343/343 342/342/342 339/339/339
f 327/327/327 338/338/338 343/343/343
f 327/327/327 343/343/343 339/339/339
