v 0.987307 -0.154812 0.51994
v 0.979775 -0.124238 0.505674
v 1.02711 -0.124714 0.493146
v 1.03523 -0.155184 0.507554
v 0.978769 -0.109809 0.507203
v 1.02577 -0.110297 0.494687
v 1.06212 -0.110987 0.489756
v 1.06377 -0.125351 0.48827
v 1.07249 -0.155541 0.503038
v 0.978253 -0.0932071 0.50628
v 1.02495 -0.0924887 0.492938
v 1.02554 -0.100552 0.495295
v 0.978572 -0.100298 0.507897
v 1.06486 -0.0829796 0.484681
v 1.06214 -0.100287 0.49011
v 1.07745 -0.080507 0.486587
v 1.0776 -0.0998428 0.490889
v 1.07975 -0.0799471 0.490383
v 1.08078 -0.0994662 0.494573
v 1.08137 -0.110751 0.494142
v 1.07798 -0.111079 0.490485
v 1.07976 -0.12538 0.488954
v 1.08864 -0.155306 0.503581
v 1.08315 -0.124985 0.492494
v 1.0919 -0.154678 0.506621
v 0.872048 -0.0813719 0.558501
v 0.88506 -0.0808233 0.550985
v 0.887 -0.100222 0.554393
v 0.873379 -0.101112 0.562404
v 0.89833 -0.0829576 0.544519
v 0.902111 -0.100297 0.545632
v 0.902689 -0.110989 0.54492
v 0.887387 -0.111463 0.554012
v 0.873681 -0.112372 0.562128
v 0.881689 -0.156095 0.577534
v 0.874394 -0.126511 0.561229
v 0.888106 -0.125737 0.553075
v 0.895642 -0.155617 0.569388
v 0.903435 -0.12531 0.543862
v 0.910952 -0.155369 0.559753
v 0.93427 -0.0924394 0.526349
v 0.934307 -0.100504 0.527634
v 0.934502 -0.110239 0.52691
v 0.935321 -0.124621 0.525595
v 0.942725 -0.154981 0.540562
v 1.0007 -0.336904 0.787209
v 0.999099 -0.328801 0.780404
v 1.02828 -0.332559 0.752799
v 1.02984 -0.340937 0.759312
v 0.991651 -0.318628 0.76116
v 1.02106 -0.321888 0.734264
v 1.06474 -0.323764 0.707986
v 1.07187 -0.334688 0.725993
v 1.07345 -0.34324 0.732251
v 0.968972 -0.333417 0.808279
v 0.967456 -0.325532 0.801373
v 0.984448 -0.326854 0.793818
v 0.986051 -0.334818 0.800751
v 0.960214 -0.315721 0.781866
v 0.976943 -0.316932 0.774256
v 1.16618 -0.335831 0.721479
v 1.16411 -0.32761 0.714933
v 1.18144 -0.324689 0.71507
v 1.18394 -0.332919 0.722178
v 1.15623 -0.317542 0.696234
v 1.17316 -0.314525 0.695908
v 1.17532 -0.312371 0.694956
v 1.18395 -0.323011 0.714497
v 1.18693 -0.331395 0.722315
v 1.1229 -0.332084 0.715414
v 1.12466 -0.340503 0.721669
v 1.11548 -0.321554 0.697244
v 0.954406 -0.26247 0.66748
v 0.930018 -0.207688 0.606364
v 0.961269 -0.207972 0.585291
v 0.984933 -0.263719 0.644104
v 1.00571 -0.208261 0.56328
v 1.02908 -0.264596 0.620404
v 0.923967 -0.261205 0.686863
v 0.900235 -0.207508 0.624879
v 0.914838 -0.207555 0.616847
v 0.939411 -0.26181 0.678996
v 1.11777 -0.262727 0.60619
v 1.09257 -0.208058 0.547563
v 1.1089 -0.207238 0.547817
v 1.13427 -0.261085 0.606095
v 1.11184 -0.206116 0.54979
v 1.13681 -0.259379 0.606753
v 1.05441 -0.208358 0.551271
v 1.0786 -0.26412 0.608884
v 0.915293 6.57445e-06 0.523418
v 0.941393 6.84215e-06 0.505367
v 0.942583 -0.0344545 0.508326
v 0.917397 -0.0349325 0.525694
v 0.976157 7.17045e-06 0.486165
v 0.977077 -0.0343901 0.489249
v 0.97842 -0.0614866 0.495007
v 0.944036 -0.0608018 0.513863
v 0.923179 -0.0566052 0.526827
v 0.868613 6.17657e-06 0.547736
v 0.880253 6.27789e-06 0.541049
v 0.881806 -0.0450993 0.54474
v 0.869848 -0.0455668 0.551621
v 0.884262 6.30361e-06 0.54005
v 0.88669 -0.0447152 0.543113
v 1.07484 7.84634e-06 0.470559
v 1.07661 7.83114e-06 0.474675
v 1.07713 -0.0449177 0.478923
v 1.07425 -0.0447197 0.474905
v 1.07714 7.81383e-06 0.478635
v 1.07808 -0.0447411 0.482884
v 1.01373 7.47985e-06 0.472513
v 1.01432 -0.0344884 0.475528
v 1.04409 7.70918e-06 0.464903
v 1.04359 -0.0349878 0.468014
v 1.03906 -0.0566845 0.473428
v 1.01538 -0.0608576 0.480896
v 1.04993 -0.302711 0.671593
v 1.10016 -0.301334 0.660522
v 1.14023 -0.298507 0.65876
v 1.1569 -0.295995 0.658398
v 1.15911 -0.293854 0.657936
v 0.945166 -0.296703 0.742392
v 0.961361 -0.297695 0.734675
v 0.976188 -0.298925 0.722235
v 1.00606 -0.301269 0.6968
v 0.912132 -0.294731 0.756011
v 0.892774 -0.259966 0.701243
v 0.925871 -0.313393 0.794943
v 0.880012 -0.310267 0.812275
v 0.868024 -0.292079 0.77409
v 0.851131 -0.258301 0.720371
v 0.84642 -0.103358 0.578404
v 0.845423 -0.0833893 0.574514
v 0.846691 -0.114461 0.578149
v 0.810669 -0.117287 0.599548
v 0.810442 -0.106398 0.599783
v 0.809917 -0.086119 0.595959
v 0.847407 -0.128281 0.57729
v 0.854134 -0.157196 0.593399
v 0.817361 -0.158689 0.614576
v 0.811392 -0.130676 0.59874
v 0.932471 -0.323029 0.814178
v 0.933785 -0.330768 0.820963
v 0.886794 -0.327211 0.837752
v 0.885752 -0.319667 0.831134
v 0.843888 -0.0467544 0.567647
v 0.843045 5.93855e-06 0.563766
v 0.809327 -0.0483613 0.589208
v 0.80904 5.62275e-06 0.585392
v 0.871098 -0.207453 0.640108
v 0.832209 -0.207383 0.660405
v 0.987305 0.154523 0.519941
v 1.03523 0.154984 0.507555
v 1.02711 0.124702 0.493147
v 0.979774 0.124214 0.505675
v 1.07249 0.155395 0.50304
v 1.06377 0.125346 0.488271
v 1.06212 0.111002 0.489758
v 1.02577 0.110312 0.494688
v 0.978767 0.109823 0.507204
v 0.978252 0.0932212 0.506281
v 0.978571 0.100312 0.507898
v 1.02554 0.100567 0.495296
v 1.02494 0.0925036 0.492939
v 1.06214 0.100303 0.490111
v 1.06486 0.082995 0.484682
v 1.0776 0.0998583 0.49089
v 1.07745 0.0805225 0.486588
v 1.07798 0.111095 0.490486
v 1.08137 0.110767 0.494143
v 1.08078 0.0994817 0.494574
v 1.07975 0.0799626 0.490384
v 1.08864 0.155182 0.503582
v 1.07976 0.125378 0.488955
v 1.0919 0.154557 0.506623
v 1.08315 0.124984 0.492495
v 0.872047 0.0813842 0.558502
v 0.873378 0.101124 0.562405
v 0.886999 0.100235 0.554394
v 0.885059 0.0808358 0.550986
v 0.873679 0.112385 0.562129
v 0.887386 0.111475 0.554013
v 0.902687 0.111002 0.544921
v 0.90211 0.10031 0.545633
v 0.898329 0.0829704 0.54452
v 0.881687 0.155545 0.577535
v 0.89564 0.155066 0.56939
v 0.888104 0.125679 0.553077
v 0.874392 0.126453 0.56123
v 0.91095 0.154861 0.559754
v 0.903433 0.125258 0.543863
v 0.934306 0.100518 0.527635
v 0.934269 0.0924528 0.52635
v 0.934501 0.110252 0.526911
v 0.942723 0.154575 0.540563
v 0.93532 0.124582 0.525596
v 1.00069 0.331278 0.787216
v 1.02984 0.335076 0.759325
v 1.02828 0.326853 0.752809
v 0.999095 0.323235 0.78041
v 1.07345 0.337815 0.732267
v 1.07187 0.329482 0.726005
v 1.06473 0.319139 0.707994
v 1.02106 0.316696 0.73427
v 0.991647 0.31342 0.761164
v 0.968968 0.3283 0.808283
v 0.986047 0.329408 0.800755
v 0.984444 0.321452 0.793822
v 0.967452 0.320393 0.801376
v 0.976939 0.311801 0.77426
v 0.96021 0.310798 0.78187
v 1.16618 0.333752 0.721486
v 1.18394 0.331608 0.722182
v 1.18144 0.323455 0.715074
v 1.16411 0.325638 0.714939
v 1.18692 0.330193 0.722318
v 1.18394 0.321891 0.714501
v 1.17531 0.311355 0.694959
v 1.17316 0.313402 0.695912
v 1.15623 0.315776 0.696239
v 1.12465 0.336689 0.721681
v 1.1229 0.32845 0.715424
v 1.11548 0.318345 0.69725
v 0.954403 0.259458 0.667481
v 0.98493 0.261099 0.644104
v 0.961267 0.206659 0.585291
v 0.930016 0.206086 0.606366
v 1.02908 0.26254 0.620403
v 1.00571 0.207298 0.56328
v 0.923964 0.258087 0.686865
v 0.939408 0.258647 0.678999
v 0.914835 0.205832 0.616849
v 0.900232 0.205794 0.624882
v 1.11776 0.261779 0.606192
v 1.13427 0.260346 0.606098
v 1.1089 0.206826 0.547819
v 1.09257 0.207569 0.547564
v 1.13681 0.258678 0.606756
v 1.11184 0.205719 0.549792
v 1.07859 0.262685 0.608884
v 1.0544 0.207683 0.551271
v 0.917396 0.0349457 0.525694
v 0.942582 0.0344682 0.508327
v 0.923178 0.0566184 0.526827
v 0.944036 0.0608154 0.513864
v 0.978419 0.0615009 0.495008
v 0.977077 0.0344044 0.489249
v 0.869847 0.0455791 0.551622
v 0.881805 0.0451118 0.544741
v 0.88669 0.0447278 0.543113
v 1.07425 0.0447353 0.474906
v 1.07713 0.0449333 0.478924
v 1.07808 0.0447567 0.482884
v 1.01432 0.0345034 0.475529
v 1.01538 0.0608725 0.480897
v 1.03906 0.0566997 0.473429
v 1.04359 0.0350032 0.468015
v 1.10016 0.298947 0.660524
v 1.04993 0.299273 0.671595
v 1.14022 0.297102 0.658763
v 1.15689 0.295023 0.658401
v 1.1591 0.292957 0.657939
v 0.961357 0.293329 0.734679
v 0.945162 0.29246 0.742395
v 0.976185 0.294618 0.722238
v 1.00606 0.297214 0.696803
v 0.892771 0.257019 0.701246
v 0.912128 0.290798 0.756014
v 0.851128 0.255584 0.720374
v 0.86802 0.28856 0.774093
v 0.880008 0.306382 0.812278
v 0.925868 0.308917 0.794947
v 0.845422 0.0834011 0.574515
v 0.846418 0.10337 0.578405
v 0.809916 0.0861301 0.59596
v 0.81044 0.106409 0.599784
v 0.810668 0.117299 0.59955
v 0.84669 0.114473 0.57815
v 0.847406 0.128225 0.577291
v 0.81139 0.130623 0.598742
v 0.817359 0.158191 0.614578
v 0.854133 0.156668 0.593401
v 0.932467 0.318426 0.814181
v 0.885749 0.315774 0.831137
v 0.88679 0.323456 0.837756
v 0.93378 0.326238 0.820967
v 0.843887 0.0467662 0.567648
v 0.809326 0.0483725 0.589209
v 0.871096 0.205813 0.64011
v 0.832206 0.205845 0.660408
v 1.05223 -0.0701761 0.475746
v 1.06476 -0.0405074 0.466986
v 1.06971 -0.0428239 0.470489
v 1.05685 -0.0746271 0.479469
v 1.06609 7.85245e-06 0.463161
v 1.07103 7.85625e-06 0.466372
v 0.893552 6.35715e-06 0.538485
v 0.89668 -0.0404477 0.54072
v 0.891336 -0.0427738 0.542367
v 0.888281 6.32232e-06 0.53991
v 0.910388 -0.0700885 0.53847
v 0.905402 -0.0745503 0.540607
v 0.939 -0.0817929 0.522704
v 0.936245 -0.0866189 0.524689
v 0.978184 -0.083199 0.502018
v 0.978058 -0.087993 0.504246
v 1.02019 -0.0818533 0.486647
v 1.02261 -0.0866745 0.489678
v 1.06476 0.040523 0.466987
v 1.06971 0.0428395 0.470489
v 1.05223 0.0701915 0.475747
v 1.05685 0.0746425 0.47947
v 0.910387 0.0701015 0.53847
v 0.896679 0.0404605 0.54072
v 0.891336 0.0427864 0.542368
v 0.905401 0.0745631 0.540608
v 0.978183 0.0832132 0.502019
v 0.938999 0.0818064 0.522705
v 0.936244 0.0866323 0.52469
v 0.978057 0.0880072 0.504247
v 1.02019 0.0818682 0.486648
v 1.02261 0.0866894 0.489679
v 1.05845 -0.0377077 0.465724
v 1.04721 -0.0647085 0.473789
v 1.0596 7.81985e-06 0.462222
v 0.903704 -0.0376452 0.536105
v 0.900827 6.42458e-06 0.533992
v 0.916031 -0.0646177 0.534034
v 0.942068 -0.0750724 0.519201
v 0.978601 -0.0763094 0.499252
v 1.01789 -0.0751356 0.484192
v 1.05845 0.0377233 0.465725
v 1.0472 0.0647239 0.47379
v 0.903703 0.037658 0.536105
v 0.91603 0.0646308 0.534035
v 0.942067 0.075086 0.519202
v 0.9786 0.0763237 0.499253
v 1.01789 0.0751505 0.484193
vt 0.4697 0.6261
vt 0.322 0.5669
vt 0.06286 0.6955
vt 0.3862 0.5527
vt 0.1628 0.8007
vt 0.2508 0.7203
vt 0.1537 0.7684
vt 0.3216 0.5653
vt 0.1442 0.7807
vt 0.2675 0.7111
vt 0.07921 0.6765
vt 0.06886 0.7043
vt 0.3859 0.5511
vt 0.2569 0.7244
vt 0.2539 0.7148
vt 0.08456 0.6652
vt 0.04559 0.6923
vt 0.4707 0.6144
vt 0.07527 0.6711
vt 0.1597 0.7833
vt 0.2251 0.6061
vt 0.04546 0.6934
vt 0.3548 0.5662
vt 0.353 0.5593
vt 0.4804 0.6204
vt 0.4806 0.6132
vt 0.07325 0.6792
vt 0.06992 0.676
vt 0.08268 0.674
vt 0.2609 0.7206
vt 0.244 0.5956
vt 0.1414 0.7851
vt 0.07945 0.6692
vt 0.1442 0.7807
vt 0.4799 0.6246
vt 0.322 0.5669
vt 0.05912 0.6824
vt 0.09728 0.6587
vt 0.353 0.5593
vt 0.4704 0.6218
vt 0.06992 0.676
vt 0.1533 0.8238
vt 0.2444 0.5972
vt 0.1606 0.8125
vt 0.3239 0.5737
vt 0.1426 0.7832
vt 0.2246 0.6045
vt 0.1533 0.8238
vt 0.2269 0.6129
vt 0.1553 0.7902
vt 0.353 0.5593
vt 0.1569 0.7874
vt 0.3527 0.5576
vt 0.1553 0.7902
vt 0.1671 0.7751
vt 0.2088 0.6161
vt 0.1543 0.8241
vt 0.08385 0.6642
vt 0.1569 0.7874
vt 0.08456 0.6652
vt 0.1694 0.7883
vt 0.2142 0.6123
vt 0.1617 0.813
vt 0.2159 0.6188
vt 0.1666 0.7926
vt 0.3862 0.5527
vt 0.1426 0.7832
vt 0.2104 0.6224
vt 0.1597 0.7833
vt 0.1606 0.8125
vt 0.2251 0.6061
vt 0.3527 0.5576
vt 0.3439 0.6507
vt 0.2139 0.6367
vt 0.1606 0.8125
vt 0.2244 0.6534
vt 0.2196 0.6336
vt 0.3714 0.6404
vt 0.3657 0.626
vt 0.2159 0.6188
vt 0.1617 0.813
vt 0.2185 0.6556
vt 0.3657 0.626
vt 0.2309 0.6282
vt 0.1675 0.8042
vt 0.2139 0.6367
vt 0.2104 0.6224
vt 0.3365 0.6363
vt 0.1662 0.8034
vt 0.2196 0.6336
vt 0.2393 0.7055
vt 0.2251 0.6061
vt 0.1593 0.8119
vt 0.1818 0.7613
vt 0.4007 0.6433
vt 0.07527 0.6711
vt 0.2195 0.6933
vt 0.1929 0.7673
vt 0.4704 0.6218
vt 0.346 0.6582
vt 0.07593 0.672
vt 0.1606 0.8125
vt 0.07877 0.6683
vt 0.3728 0.6481
vt 0.06992 0.676
vt 0.3728 0.6481
vt 0.2142 0.6123
vt 0.1662 0.8034
vt 0.353 0.5593
vt 0.345 0.6615
vt 0.07945 0.6692
vt 0.2393 0.7055
vt 0.1628 0.8007
vt 0.2285 0.6832
vt 0.1998 0.7452
vt 0.4804 0.6204
vt 0.212 0.7524
vt 0.2707 0.5936
vt 0.1319 0.8003
vt 0.2309 0.6282
vt 0.142 0.8058
vt 0.2244 0.6534
vt 0.2196 0.6336
vt 0.1463 0.7991
vt 0.2361 0.6486
vt 0.1362 0.7933
vt 0.4862 0.5831
vt 0.3588 0.5815
vt 0.3911 0.5755
vt 0.2476 0.6962
vt 0.3283 0.5888
vt 0.2871 0.6665
vt 0.4869 0.6002
vt 0.3958 0.5964
vt 0.3642 0.6019
vt 0.2473 0.6683
vt 0.2809 0.6293
vt 0.2648 0.6826
vt 0.4801 0.6006
vt 0.0844 0.689
vt 0.2648 0.6826
vt 0.2505 0.6195
vt 0.4801 0.6006
vt 0.07921 0.6765
vt 0.2473 0.6683
vt 0.2751 0.6089
vt 0.4806 0.6132
vt 0.09657 0.7016
vt 0.3548 0.5662
vt 0.2539 0.7148
vt 0.4917 0.5829
vt 0.3239 0.5737
vt 0.3714 0.6404
vt 0.1965 0.6284
vt 0.485 0.5634
vt 0.2093 0.6388
vt 0.2825 0.6992
vt 0.4523 0.6045
vt 0.2775 0.6936
vt 0.08682 0.6872
vt 0.3022 0.6851
vt 0.2682 0.7129
vt 0.4676 0.5841
vt 0.4862 0.5831
vt 0.2185 0.6556
vt 0.09657 0.7016
vt 0.26 0.7192
vt 0.4764 0.5474
vt 0.2104 0.6224
vt 0.1005 0.664
vt 0.4642 0.5386
vt 0.2038 0.6174
vt 0.3714 0.6404
vt 0.2058 0.6249
vt 0.4777 0.5635
vt 0.302 0.6877
vt 0.2104 0.6224
vt 0.4018 0.6395
vt 0.2042 0.6187
vt 0.4898 0.5401
vt 0.2139 0.6574
vt 0.4651 0.5476
vt 0.1944 0.621
vt 0.4461 0.5421
vt 0.1174 0.6924
vt 0.2609 0.7206
vt 0.2829 0.7015
vt 0.1965 0.6284
vt 0.4836 0.5401
vt 0.4546 0.6175
vt 0.401 0.6318
vt 0.2058 0.6249
vt 0.4836 0.5401
vt 0.2093 0.6388
vt 0.4801 0.6006
vt 0.2139 0.6367
vt 0.4836 0.5401
vt 0.2775 0.6936
vt 0.4801 0.6006
vt 0.4757 0.5384
vt 0.4806 0.6132
vt 0.2675 0.7111
vt 0.4374 0.5898
vt 0.3022 0.6851
vt 0.4523 0.6045
vt 0.2829 0.7015
vt 0.4459 0.5405
vt 0.2042 0.6187
vt 0.4758 0.5401
vt 0.08999 0.685
vt 0.1948 0.6223
vt 0.2675 0.7111
vt 0.4642 0.5386
vt 0.09529 0.6818
vt 0.4841 0.5474
vt 0.08268 0.674
vt 0.4461 0.5421
vt 0.09529 0.6818
vt 0.2682 0.7129
vt 0.4707 0.6144
vt 0.2825 0.6992
vt 0.08999 0.685
vt 0.4836 0.5401
vt 0.4698 0.6015
vt 0.1739 0.7908
vt 0.1309 0.6674
vt 0.4758 0.5401
vt 0.2332 0.7152
vt 0.1818 0.7828
vt 0.2477 0.7242
vt 0.1772 0.7803
vt 0.1244 0.6547
vt 0.4764 0.5474
vt 0.2477 0.7242
vt 0.1666 0.7926
vt 0.153 0.6442
vt 0.4924 0.623
vt 0.2412 0.7296
vt 0.1694 0.7883
vt 0.2361 0.7112
vt 0.2508 0.7203
vt 0.4926 0.619
vt 0.05844 0.7118
vt 0.4872 0.6196
vt 0.3439 0.6507
vt 0.06886 0.7043
vt 0.2393 0.7055
vt 0.2139 0.6367
vt 0.2088 0.6161
vt 0.4869 0.6237
vt 0.2054 0.6606
vt 0.2003 0.6422
vt 0.4926 0.619
vt 0.2042 0.6187
vt 0.4926 0.612
vt 0.06286 0.6955
vt 0.3728 0.6481
vt 0.05199 0.7027
vt 0.3008 0.5983
vt 0.1309 0.6674
vt 0.1585 0.6574
vt 0.3283 0.5888
vt 0.1005 0.664
vt 0.2963 0.5831
vt 0.1244 0.6547
vt 0.1078 0.6762
vt 0.2707 0.5936
vt 0.2169 0.756
vt 0.3283 0.5888
vt 0.2569 0.7244
vt 0.1215 0.649
vt 0.1754 0.7917
vt 0.1976 0.7703
vt 0.1772 0.7803
vt 0.3008 0.5983
vt 0.2617 0.7062
vt 0.09728 0.6587
vt 0.1711 0.7952
vt 0.1929 0.7673
vt 0.294 0.5747
vt 0.1208 0.6478
vt 0.1831 0.7837
vt 0.1831 0.7837
vt 0.294 0.5747
vt 0.1506 0.6384
vt 0.1818 0.7828
vt 0.1818 0.7828
vt 0.2684 0.5852
vt 0.1215 0.649
vt 0.2688 0.5868
vt 0.1506 0.6384
vt 0.2195 0.6933
vt 0.2169 0.756
vt 0.2944 0.5763
vt 0.1671 0.7535
vt 0.26 0.7192
vt 0.1537 0.7684
vt 0.2577 0.7255
vt 0.1976 0.7703
vt 0.2688 0.5868
vt 0.1671 0.7751
vt 0.2476 0.6962
vt 0.1818 0.7613
vt 0.1987 0.7714
vt 0.2707 0.5936
vt 0.4704 0.6218
vt 0.1818 0.7613
vt 0.2175 0.7574
vt 0.2963 0.5831
vt 0.1832 0.7359
vt 0.322 0.5669
vt 0.2162 0.6992
vt 0.1671 0.7751
vt 0.2361 0.7112
vt 0.1671 0.7535
vt 0.2944 0.5763
vt 0.1772 0.7803
vt 0.346 0.6582
vt 0.1818 0.7613
vt 0.2963 0.5831
vt 0.1929 0.7673
vt 0.1998 0.7452
vt 0.3239 0.5737
vt 0.3439 0.6507
vt 0.05844 0.7118
vt 0.06669 0.7235
vt 0.3199 0.6639
vt 0.07687 0.7159
vt 0.06886 0.7043
vt 0.323 0.6709
vt 0.06886 0.7043
vt 0.346 0.6582
vt 0.3199 0.6639
vt 0.07687 0.7159
vt 0.2981 0.6788
vt 0.0849 0.71
vt 0.3022 0.6851
vt 0.07678 0.6986
vt 0.323 0.6709
vn -0.2779 -0.5677 -0.7749
vn -0.3263 -0.2015 -0.9235
vn -0.1915 -0.1917 -0.9626
vn -0.1556 -0.5612 -0.8129
vn -0.3341 0.06598 -0.9402
vn -0.197 0.06903 -0.978
vn -0.04743 0.07025 -0.9964
vn -0.04633 -0.1786 -0.9828
vn -0.03058 -0.5487 -0.8355
vn -0.3378 -0.2828 -0.8977
vn -0.1698 -0.3867 -0.9064
vn -0.199 -0.1107 -0.9737
vn -0.3377 -0.08222 -0.9376
vn 0.1327 -0.3389 -0.9314
vn -0.03241 -0.1187 -0.9924
vn 0.6172 -0.1847 -0.7648
vn 0.4802 -0.07389 -0.874
vn 0.9166 -0.04056 -0.3978
vn 0.8802 -0.01108 -0.4745
vn 0.8608 0.0567 -0.5058
vn 0.4107 0.1009 -0.9061
vn 0.3748 -0.09986 -0.9217
vn 0.381 -0.4141 -0.8266
vn 0.837 0.003327 -0.5472
vn 0.8353 -0.1421 -0.5311
vn -0.4912 -0.1935 -0.8492
vn -0.464 -0.1872 -0.8658
vn -0.4966 -0.08991 -0.8633
vn -0.5018 -0.09543 -0.8596
vn -0.4352 -0.1405 -0.8893
vn -0.4909 -0.0676 -0.8686
vn -0.5013 0.03546 -0.8645
vn -0.51 0.02329 -0.8599
vn -0.5108 0.01856 -0.8595
vn -0.3797 -0.6117 -0.694
vn -0.4832 -0.2527 -0.8382
vn -0.4918 -0.2479 -0.8346
vn -0.4038 -0.6078 -0.6837
vn -0.4909 -0.2389 -0.8378
vn -0.4203 -0.596 -0.6842
vn -0.4471 -0.1457 -0.8825
vn -0.4502 -0.05835 -0.891
vn -0.4509 0.05249 -0.891
vn -0.4417 -0.2202 -0.8697
vn -0.3816 -0.5804 -0.7194
vn -0.6485 -0.4306 -0.6277
vn -0.5071 -0.7387 -0.444
vn -0.4412 -0.7469 -0.4974
vn -0.5723 -0.4463 -0.6879
vn -0.374 -0.8738 -0.3107
vn -0.3272 -0.8743 -0.3585
vn -0.1705 -0.8815 -0.4403
vn -0.2307 -0.7663 -0.5996
vn -0.319 -0.4851 -0.8141
vn -0.3535 -0.5155 -0.7805
vn -0.2786 -0.7938 -0.5406
vn -0.409 -0.7656 -0.4965
vn -0.5208 -0.4742 -0.7098
vn -0.2161 -0.9052 -0.3657
vn -0.2999 -0.8942 -0.3324
vn 0.08451 -0.4922 -0.8664
vn 0.1048 -0.7405 -0.6638
vn 0.2448 -0.6895 -0.6816
vn 0.2196 -0.4866 -0.8455
vn 0.1038 -0.8596 -0.5003
vn 0.2944 -0.7891 -0.539
vn 0.7866 -0.389 -0.4794
vn 0.7414 -0.3874 -0.5479
vn 0.7129 -0.2897 -0.6386
vn -0.0094 -0.7536 -0.6572
vn -0.04718 -0.4906 -0.8701
vn 0.0006714 -0.872 -0.4895
vn -0.3895 -0.7944 -0.466
vn -0.3973 -0.7205 -0.5683
vn -0.3584 -0.7101 -0.606
vn -0.3484 -0.787 -0.509
vn -0.2462 -0.7035 -0.6666
vn -0.2202 -0.785 -0.579
vn -0.277 -0.8175 -0.5049
vn -0.3201 -0.7385 -0.5933
vn -0.3628 -0.7336 -0.5746
vn -0.337 -0.8114 -0.4776
vn 0.03037 -0.7714 -0.6356
vn -0.006012 -0.6881 -0.7255
vn 0.3481 -0.5673 -0.7463
vn 0.3146 -0.6769 -0.6654
vn 0.8175 -0.2267 -0.5294
vn 0.797 -0.3022 -0.5229
vn -0.1173 -0.6978 -0.7066
vn -0.07541 -0.7795 -0.6218
vn -0.58 0 -0.8146
vn -0.5259 0 -0.8505
vn -0.5187 -0.1453 -0.8425
vn -0.5712 -0.1404 -0.8087
vn -0.4143 0 -0.9101
vn -0.4112 -0.1485 -0.8993
vn -0.4061 -0.2327 -0.8837
vn -0.5082 -0.2218 -0.8321
vn -0.5567 -0.2082 -0.8041
vn -0.5119 0 -0.859
vn -0.3913 0 -0.9203
vn -0.4223 -0.1361 -0.8962
vn -0.5026 -0.1376 -0.8535
vn -0.1867 0 -0.9824
vn -0.2845 -0.1123 -0.9521
vn 0.7913 0 -0.6115
vn 0.935 0 -0.3547
vn 0.8329 -0.1052 -0.5432
vn 0.6009 -0.2029 -0.7731
vn 0.9708 0 -0.2398
vn 0.9549 -0.01584 -0.2965
vn -0.2952 0 -0.9554
vn -0.2968 -0.1439 -0.944
vn -0.2071 0 -0.9783
vn -0.2093 -0.1409 -0.9676
vn -0.2241 -0.2245 -0.9483
vn -0.2961 -0.2354 -0.9257
vn -0.1862 -0.8563 -0.4816
vn -0.02966 -0.8502 -0.5256
vn 0.07349 -0.8418 -0.5348
vn 0.3104 -0.7619 -0.5684
vn 0.7908 -0.3594 -0.4955
vn -0.2331 -0.8842 -0.4046
vn -0.3035 -0.8767 -0.3731
vn -0.3684 -0.8575 -0.3591
vn -0.3265 -0.8537 -0.4056
vn -0.2224 -0.8836 -0.4119
vn -0.2676 -0.8168 -0.511
vn -0.2036 -0.9051 -0.3732
vn -0.7866 -0.6029 -0.1332
vn -0.7871 -0.5949 -0.1628
vn -0.8054 -0.547 -0.2279
vn -0.5045 -0.0907 -0.8586
vn -0.4993 -0.183 -0.8469
vn -0.5117 0.01703 -0.859
vn -0.9097 0.0101 -0.4151
vn -0.9035 -0.05048 -0.4256
vn -0.9056 -0.1075 -0.4102
vn -0.4819 -0.2541 -0.8386
vn -0.3757 -0.6113 -0.6965
vn -0.8419 -0.4098 -0.351
vn -0.8639 -0.1794 -0.4706
vn -0.2572 -0.7956 -0.5484
vn -0.3232 -0.5178 -0.7921
vn -0.8237 -0.3497 -0.4462
vn -0.7829 -0.5548 -0.2815
vn -0.5172 -0.1285 -0.8462
vn -0.5292 0 -0.8485
vn -0.9047 -0.07736 -0.419
vn -0.9045 0 -0.4265
vn -0.3132 -0.738 -0.5977
vn -0.8272 -0.487 -0.2802
vn -0.2785 0.5718 -0.7716
vn -0.1565 0.5643 -0.8105
vn -0.1917 0.1929 -0.9623
vn -0.3265 0.2032 -0.9231
vn -0.03162 0.5511 -0.8338
vn -0.04651 0.1796 -0.9826
vn -0.04743 -0.07031 -0.9964
vn -0.197 -0.06909 -0.978
vn -0.3341 -0.06607 -0.9402
vn -0.3378 0.2828 -0.8977
vn -0.3377 0.08222 -0.9376
vn -0.199 0.1107 -0.9737
vn -0.1698 0.3867 -0.9064
vn -0.03241 0.1187 -0.9924
vn 0.1327 0.339 -0.9314
vn 0.4802 0.07392 -0.874
vn 0.6172 0.1847 -0.7648
vn 0.4107 -0.101 -0.9061
vn 0.8608 -0.05673 -0.5058
vn 0.8802 0.01111 -0.4745
vn 0.9166 0.04059 -0.3978
vn 0.3803 0.4161 -0.826
vn 0.3746 0.1005 -0.9217
vn 0.8351 0.1431 -0.5311
vn 0.8369 -0.003143 -0.5473
vn -0.4912 0.1935 -0.8492
vn -0.5018 0.09543 -0.8596
vn -0.4966 0.08991 -0.8633
vn -0.464 0.1872 -0.8658
vn -0.5108 -0.01862 -0.8595
vn -0.51 -0.02335 -0.8599
vn -0.5013 -0.03555 -0.8645
vn -0.4909 0.0676 -0.8686
vn -0.4352 0.1405 -0.8893
vn -0.3764 0.6192 -0.6892
vn -0.4017 0.615 -0.6785
vn -0.4915 0.2513 -0.8338
vn -0.4826 0.2562 -0.8375
vn -0.4194 0.6025 -0.679
vn -0.4908 0.2419 -0.837
vn -0.4502 0.05832 -0.891
vn -0.4471 0.1457 -0.8825
vn -0.4509 -0.05258 -0.891
vn -0.3815 0.5858 -0.715
vn -0.4417 0.2225 -0.8691
vn -0.6453 0.4332 -0.6292
vn -0.5716 0.4511 -0.6854
vn -0.4372 0.7562 -0.4867
vn -0.4993 0.7461 -0.4404
vn -0.3268 0.4917 -0.807
vn -0.2405 0.7772 -0.5814
vn -0.1789 0.8914 -0.4165
vn -0.3217 0.8833 -0.341
vn -0.3636 0.882 -0.2998
vn -0.3465 0.514 -0.7846
vn -0.5156 0.4747 -0.7132
vn -0.3996 0.7707 -0.4964
vn -0.2675 0.7966 -0.542
vn -0.2877 0.9008 -0.3252
vn -0.203 0.9103 -0.3606
vn 0.06412 0.4996 -0.8639
vn 0.2023 0.4933 -0.846
vn 0.221 0.7019 -0.6771
vn 0.07605 0.7534 -0.6531
vn 0.7075 0.2947 -0.6424
vn 0.734 0.3976 -0.5505
vn 0.7811 0.3991 -0.4801
vn 0.2703 0.8032 -0.5308
vn 0.07511 0.8718 -0.4841
vn -0.06433 0.4983 -0.8646
vn -0.03366 0.7667 -0.641
vn -0.02228 0.8839 -0.4671
vn -0.3881 0.8021 -0.4538
vn -0.3493 0.7949 -0.496
vn -0.3594 0.7167 -0.5976
vn -0.3969 0.7278 -0.5592
vn -0.2251 0.7927 -0.5665
vn -0.2487 0.7092 -0.6597
vn -0.2692 0.8253 -0.4963
vn -0.3322 0.8193 -0.4673
vn -0.3599 0.7415 -0.5661
vn -0.3147 0.7467 -0.5859
vn 0.02023 0.7775 -0.6286
vn 0.3066 0.6832 -0.6626
vn 0.3453 0.5708 -0.7449
vn -0.009827 0.6919 -0.7219
vn 0.7952 0.3062 -0.5233
vn 0.8168 0.2286 -0.5296
vn -0.08399 0.7867 -0.6116
vn -0.1207 0.7025 -0.7013
vn -0.5712 0.1404 -0.8087
vn -0.5187 0.1453 -0.8425
vn -0.5567 0.2082 -0.8041
vn -0.5082 0.2218 -0.8321
vn -0.4061 0.2327 -0.8837
vn -0.4112 0.1485 -0.8993
vn -0.5026 0.1376 -0.8535
vn -0.4223 0.1361 -0.8962
vn -0.2845 0.1123 -0.9521
vn 0.6009 0.2029 -0.7731
vn 0.8329 0.1052 -0.5432
vn 0.9549 0.01584 -0.2965
vn -0.2968 0.1439 -0.944
vn -0.2962 0.2354 -0.9257
vn -0.2241 0.2245 -0.9483
vn -0.2093 0.1409 -0.9676
vn -0.04569 0.8601 -0.508
vn -0.193 0.8658 -0.4617
vn 0.05347 0.851 -0.5224
vn 0.2937 0.7727 -0.5627
vn 0.7872 0.3664 -0.4961
vn -0.2945 0.8842 -0.3626
vn -0.222 0.8909 -0.3962
vn -0.3622 0.8657 -0.3455
vn -0.3242 0.8626 -0.3882
vn -0.2595 0.8242 -0.5033
vn -0.2116 0.8895 -0.405
vn -0.8025 0.5532 -0.2235
vn -0.7835 0.6007 -0.1592
vn -0.7821 0.6087 -0.1333
vn -0.1912 0.909 -0.3703
vn -0.4993 0.183 -0.8469
vn -0.5045 0.0907 -0.8586
vn -0.9056 0.1075 -0.4102
vn -0.9035 0.05048 -0.4256
vn -0.9097 -0.01013 -0.4151
vn -0.5117 -0.01709 -0.859
vn -0.4812 0.2575 -0.8379
vn -0.8632 0.1821 -0.4708
vn -0.8402 0.4154 -0.3486
vn -0.3721 0.6186 -0.6919
vn -0.2467 0.7965 -0.552
vn -0.7787 0.5575 -0.2877
vn -0.822 0.347 -0.4515
vn -0.3163 0.5145 -0.797
vn -0.5172 0.1285 -0.8461
vn -0.9047 0.07736 -0.419
vn -0.3074 0.746 -0.5907
vn -0.8249 0.4932 -0.2762
vn 0.08515 -0.457 -0.8853
vn 0.3051 -0.2256 -0.9252
vn 0.5163 -0.2381 -0.8227
vn 0.1672 -0.4793 -0.8615
vn 0.3551 0 -0.9348
vn 0.6286 0 -0.7777
vn -0.394 0 -0.9191
vn -0.3848 -0.09894 -0.9176
vn -0.2262 -0.07935 -0.9708
vn -0.172 0 -0.9851
vn -0.4398 -0.0828 -0.8943
vn -0.3791 -0.06281 -0.9232
vn -0.4807 -0.1751 -0.8592
vn -0.4528 -0.1211 -0.8833
vn -0.3753 -0.359 -0.8545
vn -0.3522 -0.3621 -0.863
vn -0.1947 -0.4891 -0.8502
vn -0.15 -0.5333 -0.8325
vn 0.3051 0.2256 -0.9252
vn 0.5163 0.2381 -0.8226
vn 0.08515 0.457 -0.8853
vn 0.1672 0.4793 -0.8615
vn -0.4397 0.0828 -0.8943
vn -0.3848 0.09897 -0.9176
vn -0.2262 0.07938 -0.9708
vn -0.3791 0.06281 -0.9232
vn -0.3753 0.359 -0.8545
vn -0.4807 0.1751 -0.8592
vn -0.4528 0.1211 -0.8833
vn -0.3523 0.3621 -0.863
vn -0.1947 0.4891 -0.8502
vn -0.15 0.5333 -0.8325
vn -0.01834 -0.1701 -0.9852
vn -0.1107 -0.3161 -0.9422
vn -0.007111 0 -1
vn -0.5437 -0.1318 -0.8289
vn -0.5582 0 -0.8296
vn -0.5335 -0.1811 -0.8261
vn -0.5004 -0.2333 -0.8337
vn -0.3954 -0.2955 -0.8697
vn -0.2641 -0.3398 -0.9026
vn -0.01837 0.1701 -0.9852
vn -0.1107 0.3161 -0.9422
vn -0.5437 0.1318 -0.8289
vn -0.5335 0.1811 -0.8261
vn -0.5004 0.2333 -0.8337
vn -0.3954 0.2955 -0.8697
vn -0.2641 0.3398 -0.9026
f 1/1/1 2/2/2 3/3/3
f 1/1/1 3/3/3 4/4/4
f 2/2/2 5/5/5 6/6/6
f 2/2/2 6/6/6 3/3/3
f 3/3/3 6/6/6 7/7/7
f 3/3/3 7/7/7 8/8/8
f 4/4/4 3/3/3 8/8/8
f 4/4/4 8/8/8 9/9/9
f 10/10/10 11/11/11 12/12/12
f 10/10/10 12/12/12 13/13/13
f 11/11/11 14/14/14 15/15/15
f 11/11/11 15/15/15 12/12/12
f 12/12/12 15/15/15 7/7/7
f 12/12/12 7/7/7 6/6/6
f 13/13/13 12/12/12 6/6/6
f 13/13/13 6/6/6 5/5/5
f 14/14/14 16/16/16 17/17/17
f 14/14/14 17/17/17 15/15/15
f 16/16/16 18/18/18 19/19/19
f 16/16/16 19/19/19 17/17/17
f 17/17/17 19/19/19 20/20/20
f 17/17/17 20/20/20 21/21/21
f 15/15/15 17/17/17 21/21/21
f 15/15/15 21/21/21 7/7/7
f 9/9/9 8/8/8 22/22/22
f 9/9/9 22/22/22 23/23/23
f 8/8/8 7/7/7 21/21/21
f 8/8/8 21/21/21 22/22/22
f 22/22/22 21/21/21 20/20/20
f 22/22/22 20/20/20 24/24/24
f 23/23/23 22/22/22 24/24/24
f 23/23/23 24/24/24 25/25/25
f 26/26/26 27/27/27 28/28/28
f 26/26/26 28/28/28 29/29/29
f 27/27/27 30/30/30 31/31/31
f 27/27/27 31/31/31 28/28/28
f 28/28/28 31/31/31 32/32/32
f 28/28/28 32/32/32 33/33/33
f 29/29/29 28/28/28 33/33/33
f 29/29/29 33/33/33 34/34/34
f 35/35/35 36/36/36 37/37/37
f 35/35/35 37/37/37 38/38/38
f 36/36/36 34/34/34 33/33/33
f 36/36/36 33/33/33 37/37/37
f 37/37/37 33/33/33 32/32/32
f 37/37/37 32/32/32 39/39/39
f 38/38/38 37/37/37 39/39/39
f 38/38/38 39/39/39 40/40/40
f 30/30/30 41/41/41 42/42/42
f 30/30/30 42/42/42 31/31/31
f 41/41/41 10/10/10 13/13/13
f 41/41/41 13/13/13 42/42/42
f 42/42/42 13/13/13 5/5/5
f 42/42/42 5/5/5 43/43/43
f 31/31/31 42/42/42 43/43/43
f 31/31/31 43/43/43 32/32/32
f 40/40/40 39/39/39 44/44/44
f 40/40/40 44/44/44 45/45/45
f 39/39/39 32/32/32 43/43/43
f 39/39/39 43/43/43 44/44/44
f 44/44/44 43/43/43 5/5/5
f 44/44/44 5/5/5 2/2/2
f 45/45/45 44/44/44 2/2/2
f 45/45/45 2/2/2 1/1/1
f 46/46/46 47/47/47 48/48/48
f 46/46/46 48/48/48 49/49/49
f 47/47/47 50/50/50 51/51/51
f 47/47/47 51/51/51 48/48/48
f 48/48/48 51/51/51 52/52/52
f 48/48/48 52/52/52 53/53/53
f 49/49/49 48/48/48 53/53/53
f 49/49/49 53/53/53 54/54/54
f 55/55/55 56/56/56 57/57/57
f 55/55/55 57/57/57 58/58/58
f 56/56/56 59/59/59 60/60/60
f 56/56/56 60/60/60 57/57/57
f 57/57/57 60/60/60 50/50/50
f 57/57/57 50/50/50 47/47/47
f 58/58/58 57/57/57 47/47/47
f 58/58/58 47/47/47 46/46/46
f 61/61/61 62/62/62 63/63/63
f 61/61/61 63/63/63 64/64/64
f 62/62/62 65/65/65 66/66/66
f 62/62/62 66/66/66 63/63/63
f 63/63/63 66/66/66 67/67/67
f 63/63/63 67/67/67 68/68/68
f 64/64/64 63/63/63 68/68/68
f 64/64/64 68/68/68 69/69/69
f 54/54/54 53/53/53 70/70/70
f 54/54/54 70/70/70 71/71/71
f 53/53/53 52/52/52 72/72/72
f 53/53/53 72/72/72 70/70/70
f 70/70/70 72/72/72 65/65/65
f 70/70/70 65/65/65 62/62/62
f 71/71/71 70/70/70 62/62/62
f 71/71/71 62/62/62 61/61/61
f 73/73/73 74/74/74 75/75/75
f 73/73/73 75/75/75 76/76/76
f 74/74/74 40/40/40 45/45/45
f 74/74/74 45/45/45 75/75/75
f 75/75/75 45/45/45 1/1/1
f 75/75/75 1/1/1 77/77/77
f 76/76/76 75/75/75 77/77/77
f 76/76/76 77/77/77 78/78/78
f 79/79/79 80/80/80 81/81/81
f 79/79/79 81/81/81 82/82/82
f 80/80/80 35/35/35 38/38/38
f 80/80/80 38/38/38 81/81/81
f 81/81/81 38/38/38 40/40/40
f 81/81/81 40/40/40 74/74/74
f 82/82/82 81/81/81 74/74/74
f 82/82/82 74/74/74 73/73/73
f 83/83/83 84/84/84 85/85/85
f 83/83/83 85/85/85 86/86/86
f 84/84/84 9/9/9 23/23/23
f 84/84/84 23/23/23 85/85/85
f 85/85/85 23/23/23 25/25/25
f 85/85/85 25/25/25 87/87/87
f 86/86/86 85/85/85 87/87/87
f 86/86/86 87/87/87 88/88/88
f 78/78/78 77/77/77 89/89/89
f 78/78/78 89/89/89 90/90/90
f 77/77/77 1/1/1 4/4/4
f 77/77/77 4/4/4 89/89/89
f 89/89/89 4/4/4 9/9/9
f 89/89/89 9/9/9 84/84/84
f 90/90/90 89/89/89 84/84/84
f 90/90/90 84/84/84 83/83/83
f 91/91/91 92/92/92 93/93/93
f 91/91/91 93/93/93 94/94/94
f 92/92/92 95/95/95 96/96/96
f 92/92/92 96/96/96 93/93/93
f 93/93/93 96/96/96 97/97/97
f 93/93/93 97/97/97 98/98/98
f 94/94/94 93/93/93 98/98/98
f 94/94/94 98/98/98 99/99/99
f 100/100/100 101/101/101 102/102/102
f 100/100/100 102/102/102 103/103/103
f 101/101/101 104/104/104 105/105/105
f 101/101/101 105/105/105 102/102/102
f 102/102/102 105/105/105 30/30/30
f 102/102/102 30/30/30 27/27/27
f 103/103/103 102/102/102 27/27/27
f 103/103/103 27/27/27 26/26/26
f 106/106/106 107/107/107 108/108/108
f 106/106/106 108/108/108 109/109/109
f 107/107/107 110/110/110 111/111/111
f 107/107/107 111/111/111 108/108/108
f 108/108/108 111/111/111 18/18/18
f 108/108/108 18/18/18 16/16/16
f 109/109/109 108/108/108 16/16/16
f 109/109/109 16/16/16 14/14/14
f 95/95/95 112/112/112 113/113/113
f 95/95/95 113/113/113 96/96/96
f 112/112/112 114/114/114 115/115/115
f 112/112/112 115/115/115 113/113/113
f 113/113/113 115/115/115 116/116/116
f 113/113/113 116/116/116 117/117/117
f 96/96/96 113/113/113 117/117/117
f 96/96/96 117/117/117 97/97/97
f 52/52/52 118/118/118 119/119/119
f 52/52/52 119/119/119 72/72/72
f 118/118/118 78/78/78 90/90/90
f 118/118/118 90/90/90 119/119/119
f 119/119/119 90/90/90 83/83/83
f 119/119/119 83/83/83 120/120/120
f 72/72/72 119/119/119 120/120/120
f 72/72/72 120/120/120 65/65/65
f 65/65/65 120/120/120 121/121/121
f 65/65/65 121/121/121 66/66/66
f 120/120/120 83/83/83 86/86/86
f 120/120/120 86/86/86 121/121/121
f 121/121/121 86/86/86 88/88/88
f 121/121/121 88/88/88 122/122/122
f 66/66/66 121/121/121 122/122/122
f 66/66/66 122/122/122 67/67/67
f 59/59/59 123/123/123 124/124/124
f 59/59/59 124/124/124 60/60/60
f 123/123/123 79/79/79 82/82/82
f 123/123/123 82/82/82 124/124/124
f 124/124/124 82/82/82 73/73/73
f 124/124/124 73/73/73 125/125/125
f 60/60/60 124/124/124 125/125/125
f 60/60/60 125/125/125 50/50/50
f 50/50/50 125/125/125 126/126/126
f 50/50/50 126/126/126 51/51/51
f 125/125/125 73/73/73 76/76/76
f 125/125/125 76/76/76 126/126/126
f 126/126/126 76/76/76 78/78/78
f 126/126/126 78/78/78 118/118/118
f 51/51/51 126/126/126 118/118/118
f 51/51/51 118/118/118 52/52/52
f 79/79/79 123/123/123 127/127/127
f 79/79/79 127/127/127 128/128/128
f 123/123/123 59/59/59 129/129/129
f 123/123/123 129/129/129 127/127/127
f 127/127/127 129/129/129 130/130/130
f 127/127/127 130/130/130 131/131/131
f 128/128/128 127/127/127 131/131/131
f 128/128/128 131/131/131 132/132/132
f 26/26/26 29/29/29 133/133/133
f 26/26/26 133/133/133 134/134/134
f 29/29/29 34/34/34 135/135/135
f 29/29/29 135/135/135 133/133/133
f 133/133/133 135/135/135 136/136/136
f 133/133/133 136/136/136 137/137/137
f 134/134/134 133/133/133 137/137/137
f 134/134/134 137/137/137 138/138/138
f 34/34/34 36/36/36 139/139/139
f 34/34/34 139/139/139 135/135/135
f 36/36/36 35/35/35 140/140/140
f 36/36/36 140/140/140 139/139/139
f 139/139/139 140/140/140 141/141/141
f 139/139/139 141/141/141 142/142/142
f 135/135/135 139/139/139 142/142/142
f 135/135/135 142/142/142 136/136/136
f 59/59/59 56/56/56 143/143/143
f 59/59/59 143/143/143 129/129/129
f 56/56/56 55/55/55 144/144/144
f 56/56/56 144/144/144 143/143/143
f 143/143/143 144/144/144 145/145/145
f 143/143/143 145/145/145 146/146/146
f 129/129/129 143/143/143 146/146/146
f 129/129/129 146/146/146 130/130/130
f 100/100/100 103/103/103 147/147/147
f 100/100/100 147/147/147 148/148/148
f 103/103/103 26/26/26 134/134/134
f 103/103/103 134/134/134 147/147/147
f 147/147/147 134/134/134 138/138/138
f 147/147/147 138/138/138 149/149/149
f 148/148/148 147/147/147 149/149/149
f 148/148/148 149/149/149 150/150/150
f 35/35/35 80/80/80 151/151/151
f 35/35/35 151/151/151 140/140/140
f 80/80/80 79/79/79 128/128/128
f 80/80/80 128/128/128 151/151/151
f 151/151/151 128/128/128 132/132/132
f 151/151/151 132/132/132 152/152/152
f 140/140/140 151/151/151 152/152/152
f 140/140/140 152/152/152 141/141/141
f 153/153/153 154/154/154 155/155/155
f 153/153/153 155/155/155 156/156/156
f 154/154/154 157/157/157 158/158/158
f 154/154/154 158/158/158 155/155/155
f 155/155/155 158/158/158 159/159/159
f 155/155/155 159/159/159 160/160/160
f 156/156/156 155/155/155 160/160/160
f 156/156/156 160/160/160 161/161/161
f 162/162/162 163/163/163 164/164/164
f 162/162/162 164/164/164 165/165/165
f 163/163/163 161/161/161 160/160/160
f 163/163/163 160/160/160 164/164/164
f 164/164/164 160/160/160 159/159/159
f 164/164/164 159/159/159 166/166/166
f 165/165/165 164/164/164 166/166/166
f 165/165/165 166/166/166 167/167/167
f 167/167/167 166/166/166 168/168/168
f 167/167/167 168/168/168 169/169/169
f 166/166/166 159/159/159 170/170/170
f 166/166/166 170/170/170 168/168/168
f 168/168/168 170/170/170 171/171/171
f 168/168/168 171/171/171 172/172/172
f 169/169/169 168/168/168 172/172/172
f 169/169/169 172/172/172 173/173/173
f 157/157/157 174/174/174 175/175/175
f 157/157/157 175/175/175 158/158/158
f 174/174/174 176/176/176 177/177/177
f 174/174/174 177/177/177 175/175/175
f 175/175/175 177/177/177 171/171/171
f 175/175/175 171/171/171 170/170/170
f 158/158/158 175/175/175 170/170/170
f 158/158/158 170/170/170 159/159/159
f 178/178/178 179/179/179 180/180/180
f 178/178/178 180/180/180 181/181/181
f 179/179/179 182/182/182 183/183/183
f 179/179/179 183/183/183 180/180/180
f 180/180/180 183/183/183 184/184/184
f 180/180/180 184/184/184 185/185/185
f 181/181/181 180/180/180 185/185/185
f 181/181/181 185/185/185 186/186/186
f 187/187/187 188/188/188 189/189/189
f 187/187/187 189/189/189 190/190/190
f 188/188/188 191/191/191 192/192/192
f 188/188/188 192/192/192 189/189/189
f 189/189/189 192/192/192 184/184/184
f 189/189/189 184/184/184 183/183/183
f 190/190/190 189/189/189 183/183/183
f 190/190/190 183/183/183 182/182/182
f 186/186/186 185/185/185 193/193/193
f 186/186/186 193/193/193 194/194/194
f 185/185/185 184/184/184 195/195/195
f 185/185/185 195/195/195 193/193/193
f 193/193/193 195/195/195 161/161/161
f 193/193/193 161/161/161 163/163/163
f 194/194/194 193/193/193 163/163/163
f 194/194/194 163/163/163 162/162/162
f 191/191/191 196/196/196 197/197/197
f 191/191/191 197/197/197 192/192/192
f 196/196/196 153/153/153 156/156/156
f 196/196/196 156/156/156 197/197/197
f 197/197/197 156/156/156 161/161/161
f 197/197/197 161/161/161 195/195/195
f 192/192/192 197/197/197 195/195/195
f 192/192/192 195/195/195 184/184/184
f 198/198/198 199/199/199 200/200/200
f 198/198/198 200/200/200 201/201/201
f 199/199/199 202/202/202 203/203/203
f 199/199/199 203/203/203 200/200/200
f 200/200/200 203/203/203 204/204/204
f 200/200/200 204/204/204 205/205/205
f 201/201/201 200/200/200 205/205/205
f 201/201/201 205/205/205 206/206/206
f 207/207/207 208/208/208 209/209/209
f 207/207/207 209/209/209 210/210/210
f 208/208/208 198/198/198 201/201/201
f 208/208/208 201/201/201 209/209/209
f 209/209/209 201/201/201 206/206/206
f 209/209/209 206/206/206 211/211/211
f 210/210/210 209/209/209 211/211/211
f 210/210/210 211/211/211 212/212/212
f 213/213/213 214/214/214 215/215/215
f 213/213/213 215/215/215 216/216/216
f 214/214/214 217/217/217 218/218/218
f 214/214/214 218/218/218 215/215/215
f 215/215/215 218/218/218 219/219/219
f 215/215/215 219/219/219 220/220/220
f 216/216/216 215/215/215 220/220/220
f 216/216/216 220/220/220 221/221/221
f 202/202/202 222/222/222 223/223/223
f 202/202/202 223/223/223 203/203/203
f 222/222/222 213/213/213 216/216/216
f 222/222/222 216/216/216 223/223/223
f 223/223/223 216/216/216 221/221/221
f 223/223/223 221/221/221 224/224/224
f 203/203/203 223/223/223 224/224/224
f 203/203/203 224/224/224 204/204/204
f 225/225/225 226/226/226 227/227/227
f 225/225/225 227/227/227 228/228/228
f 226/226/226 229/229/229 230/230/230
f 226/226/226 230/230/230 227/227/227
f 227/227/227 230/230/230 153/153/153
f 227/227/227 153/153/153 196/196/196
f 228/228/228 227/227/227 196/196/196
f 228/228/228 196/196/196 191/191/191
f 231/231/231 232/232/232 233/233/233
f 231/231/231 233/233/233 234/234/234
f 232/232/232 225/225/225 228/228/228
f 232/232/232 228/228/228 233/233/233
f 233/233/233 228/228/228 191/191/191
f 233/233/233 191/191/191 188/188/188
f 234/234/234 233/233/233 188/188/188
f 234/234/234 188/188/188 187/187/187
f 235/235/235 236/236/236 237/237/237
f 235/235/235 237/237/237 238/238/238
f 236/236/236 239/239/239 240/240/240
f 236/236/236 240/240/240 237/237/237
f 237/237/237 240/240/240 176/176/176
f 237/237/237 176/176/176 174/174/174
f 238/238/238 237/237/237 174/174/174
f 238/238/238 174/174/174 157/157/157
f 229/229/229 241/241/241 242/242/242
f 229/229/229 242/242/242 230/230/230
f 241/241/241 235/235/235 238/238/238
f 241/241/241 238/238/238 242/242/242
f 242/242/242 238/238/238 157/157/157
f 242/242/242 157/157/157 154/154/154
f 230/230/230 242/242/242 154/154/154
f 230/230/230 154/154/154 153/153/153
f 91/91/91 243/243/243 244/244/244
f 91/91/91 244/244/244 92/92/92
f 243/243/243 245/245/245 246/246/246
f 243/243/243 246/246/246 244/244/244
f 244/244/244 246/246/246 247/247/247
f 244/244/244 247/247/247 248/248/248
f 92/92/92 244/244/244 248/248/248
f 92/92/92 248/248/248 95/95/95
f 100/100/100 249/249/249 250/250/250
f 100/100/100 250/250/250 101/101/101
f 249/249/249 178/178/178 181/181/181
f 249/249/249 181/181/181 250/250/250
f 250/250/250 181/181/181 186/186/186
f 250/250/250 186/186/186 251/251/251
f 101/101/101 250/250/250 251/251/251
f 101/101/101 251/251/251 104/104/104
f 106/106/106 252/252/252 253/253/253
f 106/106/106 253/253/253 107/107/107
f 252/252/252 167/167/167 169/169/169
f 252/252/252 169/169/169 253/253/253
f 253/253/253 169/169/169 173/173/173
f 253/253/253 173/173/173 254/254/254
f 107/107/107 253/253/253 254/254/254
f 107/107/107 254/254/254 110/110/110
f 95/95/95 248/248/248 255/255/255
f 95/95/95 255/255/255 112/112/112
f 248/248/248 247/247/247 256/256/256
f 248/248/248 256/256/256 255/255/255
f 255/255/255 256/256/256 257/257/257
f 255/255/255 257/257/257 258/258/258
f 112/112/112 255/255/255 258/258/258
f 112/112/112 258/258/258 114/114/114
f 204/204/204 224/224/224 259/259/259
f 204/204/204 259/259/259 260/260/260
f 224/224/224 221/221/221 261/261/261
f 224/224/224 261/261/261 259/259/259
f 259/259/259 261/261/261 235/235/235
f 259/259/259 235/235/235 241/241/241
f 260/260/260 259/259/259 241/241/241
f 260/260/260 241/241/241 229/229/229
f 221/221/221 220/220/220 262/262/262
f 221/221/221 262/262/262 261/261/261
f 220/220/220 219/219/219 263/263/263
f 220/220/220 263/263/263 262/262/262
f 262/262/262 263/263/263 239/239/239
f 262/262/262 239/239/239 236/236/236
f 261/261/261 262/262/262 236/236/236
f 261/261/261 236/236/236 235/235/235
f 212/212/212 211/211/211 264/264/264
f 212/212/212 264/264/264 265/265/265
f 211/211/211 206/206/206 266/266/266
f 211/211/211 266/266/266 264/264/264
f 264/264/264 266/266/266 225/225/225
f 264/264/264 225/225/225 232/232/232
f 265/265/265 264/264/264 232/232/232
f 265/265/265 232/232/232 231/231/231
f 206/206/206 205/205/205 267/267/267
f 206/206/206 267/267/267 266/266/266
f 205/205/205 204/204/204 260/260/260
f 205/205/205 260/260/260 267/267/267
f 267/267/267 260/260/260 229/229/229
f 267/267/267 229/229/229 226/226/226
f 266/266/266 267/267/267 226/226/226
f 266/266/266 226/226/226 225/225/225
f 231/231/231 268/268/268 269/269/269
f 231/231/231 269/269/269 265/265/265
f 268/268/268 270/270/270 271/271/271
f 268/268/268 271/271/271 269/269/269
f 269/269/269 271/271/271 272/272/272
f 269/269/269 272/272/272 273/273/273
f 265/265/265 269/269/269 273/273/273
f 265/265/265 273/273/273 212/212/212
f 178/178/178 274/274/274 275/275/275
f 178/178/178 275/275/275 179/179/179
f 274/274/274 276/276/276 277/277/277
f 274/274/274 277/277/277 275/275/275
f 275/275/275 277/277/277 278/278/278
f 275/275/275 278/278/278 279/279/279
f 179/179/179 275/275/275 279/279/279
f 179/179/179 279/279/279 182/182/182
f 182/182/182 279/279/279 280/280/280
f 182/182/182 280/280/280 190/190/190
f 279/279/279 278/278/278 281/281/281
f 279/279/279 281/281/281 280/280/280
f 280/280/280 281/281/281 282/282/282
f 280/280/280 282/282/282 283/283/283
f 190/190/190 280/280/280 283/283/283
f 190/190/190 283/283/283 187/187/187
f 212/212/212 273/273/273 284/284/284
f 212/212/212 284/284/284 210/210/210
f 273/273/273 272/272/272 285/285/285
f 273/273/273 285/285/285 284/284/284
f 284/284/284 285/285/285 286/286/286
f 284/284/284 286/286/286 287/287/287
f 210/210/210 284/284/284 287/287/287
f 210/210/210 287/287/287 207/207/207
f 100/100/100 148/148/148 288/288/288
f 100/100/100 288/288/288 249/249/249
f 148/148/148 150/150/150 289/289/289
f 148/148/148 289/289/289 288/288/288
f 288/288/288 289/289/289 276/276/276
f 288/288/288 276/276/276 274/274/274
f 249/249/249 288/288/288 274/274/274
f 249/249/249 274/274/274 178/178/178
f 187/187/187 283/283/283 290/290/290
f 187/187/187 290/290/290 234/234/234
f 283/283/283 282/282/282 291/291/291
f 283/283/283 291/291/291 290/290/290
f 290/290/290 291/291/291 270/270/270
f 290/290/290 270/270/270 268/268/268
f 234/234/234 290/290/290 268/268/268
f 234/234/234 268/268/268 231/231/231
f 292/292/292 293/293/293 294/294/294
f 292/292/292 294/294/294 295/295/295
f 293/293/293 296/296/296 297/297/297
f 293/293/293 297/297/297 294/294/294
f 294/294/294 297/297/297 106/106/106
f 294/294/294 106/106/106 109/109/109
f 295/295/295 294/294/294 109/109/109
f 295/295/295 109/109/109 14/14/14
f 298/298/298 299/299/299 300/300/300
f 298/298/298 300/300/300 301/301/301
f 299/299/299 302/302/302 303/303/303
f 299/299/299 303/303/303 300/300/300
f 300/300/300 303/303/303 30/30/30
f 300/300/300 30/30/30 105/105/105
f 301/301/301 300/300/300 105/105/105
f 301/301/301 105/105/105 104/104/104
f 302/302/302 304/304/304 305/305/305
f 302/302/302 305/305/305 303/303/303
f 304/304/304 306/306/306 307/307/307
f 304/304/304 307/307/307 305/305/305
f 305/305/305 307/307/307 10/10/10
f 305/305/305 10/10/10 41/41/41
f 303/303/303 305/305/305 41/41/41
f 303/303/303 41/41/41 30/30/30
f 306/306/306 308/308/308 309/309/309
f 306/306/306 309/309/309 307/307/307
f 308/308/308 292/292/292 295/295/295
f 308/308/308 295/295/295 309/309/309
f 309/309/309 295/295/295 14/14/14
f 309/309/309 14/14/14 11/11/11
f 307/307/307 309/309/309 11/11/11
f 307/307/307 11/11/11 10/10/10
f 296/296/296 310/310/310 311/311/311
f 296/296/296 311/311/311 297/297/297
f 310/310/310 312/312/312 313/313/313
f 310/310/310 313/313/313 311/311/311
f 311/311/311 313/313/313 167/167/167
f 311/311/311 167/167/167 252/252/252
f 297/297/297 311/311/311 252/252/252
f 297/297/297 252/252/252 106/106/106
f 314/314/314 315/315/315 316/316/316
f 314/314/314 316/316/316 317/317/317
f 315/315/315 298/298/298 301/301/301
f 315/315/315 301/301/301 316/316/316
f 316/316/316 301/301/301 104/104/104
f 316/316/316 104/104/104 251/251/251
f 317/317/317 316/316/316 251/251/251
f 317/317/317 251/251/251 186/186/186
f 318/318/318 319/319/319 320/320/320
f 318/318/318 320/320/320 321/321/321
f 319/319/319 314/314/314 317/317/317
f 319/319/319 317/317/317 320/320/320
f 320/320/320 317/317/317 186/186/186
f 320/320/320 186/186/186 194/194/194
f 321/321/321 320/320/320 194/194/194
f 321/321/321 194/194/194 162/162/162
f 312/312/312 322/322/322 323/323/323
f 312/312/312 323/323/323 313/313/313
f 322/322/322 318/318/318 321/321/321
f 322/322/322 321/321/321 323/323/323
f 323/323/323 321/321/321 162/162/162
f 323/323/323 162/162/162 165/165/165
f 313/313/313 323/323/323 165/165/165
f 313/313/313 165/165/165 167/167/167
f 116/116/116 115/115/115 324/324/324
f 116/116/116 324/324/324 325/325/325
f 115/115/115 114/114/114 326/326/326
f 115/115/115 326/326/326 324/324/324
f 324/324/324 326/326/326 296/296/296
f 324/324/324 296/296/296 293/293/293
f 325/325/325 324/324/324 293/293/293
f 325/325/325 293/293/293 292/292/292
f 91/91/91 94/94/94 327/327/327
f 91/91/91 327/327/327 328/328/328
f 94/94/94 99/99/99 329/329/329
f 94/94/94 329/329/329 327/327/327
f 327/327/327 329/329/329 302/302/302
f 327/327/327 302/302/302 299/299/299
f 328/328/328 327/327/327 299/299/299
f 328/328/328 299/299/299 298/298/298
f 99/99/99 98/98/98 330/330/330
f 99/99/99 330/330/330 329/329/329
f 98/98/98 97/97/97 331/331/331
f 98/98/98 331/331/331 330/330/330
f 330/330/330 331/331/331 306/306/306
f 330/330/330 306/306/306 304/304/304
f 329/329/329 330/330/330 304/304/304
f 329/329/329 304/304/304 302/302/302
f 97/97/97 117/117/117 332/332/332
f 97/97/97 332/332/332 331/331/331
f 117/117/117 116/116/116 325/325/325
f 117/117/117 325/325/325 332/332/332
f 332/332/332 325/325/325 292/292/292
f 332/332/332 292/292/292 308/308/308
f 331/331/331 332/332/332 308/308/308
f 331/331/331 308/308/308 306/306/306
f 114/114/114 258/258/258 333/333/333
f 114/114/114 333/333/333 326/326/326
f 258/258/258 257/257/257 334/334/334
f 258/258/258 334/334/334 333/333/333
f 333/333/333 334/334/334 312/312/312
f 333/333/333 312/312/312 310/310/310
f 326/326/326 333/333/333 310/310/310
f 326/326/326 310/310/310 296/296/296
f 245/245/245 243/243/243 335/335/335
f 245/245/245 335/335/335 336/336/336
f 243/243/243 91/91/91 328/328/328
f 243/243/243 328/328/328 335/335/335
f 335/335/335 328/328/328 298/298/298
f 335/335/335 298/298/298 315/315/315
f 336/336/336 335/335/335 315/315/315
f 336/336/336 315/315/315 314/314/314
f 247/247/247 246/246/246 337/337/337
f 247/247/247 337/337/337 338/338/338
f 246/246/246 245/245/245 336/336/336
f 246/246/246 336/336/336 337/337/337
f 337/337/337 336/336/336 314/314/314
f 337/337/337 314/314/314 319/319/319
f 338/338/338 337/337/337 319/319/319
f 338/338/338 319/319/319 318/318/318
f 257/257/257 256/256/256 339/339/339
f 257/257/257 339/339/339 334/334/334
f 256/256/256 247/247/247 338/338/338
f 256/256/256 338/338/338 339/339/339
f 339/339/339 338/338/338 318/318/318
f 339/339/339 318/318/318 322/322/322
f 334/334/334 339/339/339 322/322/322
f 334/334/334 322/322/322 312/312/312
