v 1.637 -0.0654179 0.940988
v 1.64291 -0.065266 0.958765
v 1.64281 -0.0917989 0.952942
v 1.63794 -0.0920787 0.936849
v 1.63807 -0.0653304 0.981945
v 1.63699 -0.0919634 0.975179
v 1.63288 -0.126406 0.960099
v 1.63965 -0.124926 0.938488
v 1.63574 -0.12477 0.923869
v 1.54973 -0.241601 0.961016
v 1.53547 -0.284473 0.909188
v 1.57031 -0.26919 0.879677
v 1.58462 -0.226709 0.927298
v 1.51906 -0.312271 0.851591
v 1.55429 -0.298117 0.827749
v 1.58023 -0.283966 0.806412
v 1.59553 -0.254146 0.851729
v 1.60966 -0.212328 0.894664
v 1.47694 -0.326961 0.740137
v 1.45536 -0.323334 0.687724
v 1.49482 -0.302442 0.676197
v 1.51486 -0.309133 0.724965
v 1.43922 -0.315333 0.649532
v 1.47956 -0.292647 0.640673
v 1.51299 -0.268157 0.640259
v 1.5268 -0.280601 0.671885
v 1.54467 -0.290996 0.715367
v 1.5401 -0.267788 0.671857
v 1.55652 -0.279884 0.711345
v 1.52741 -0.253562 0.643283
v 1.52992 -0.245763 0.647659
v 1.54179 -0.261097 0.673884
v 1.5573 -0.273489 0.71042
v 1.60393 -0.245175 0.834386
v 1.61758 -0.204564 0.873946
v 1.58941 -0.274748 0.793727
v 1.58843 -0.268818 0.786531
v 1.60221 -0.240227 0.82394
v 1.61516 -0.201155 0.861051
v 1.64071 -0.0302056 0.988152
v 1.61834 -0.0304436 1.01876
v 1.61682 -0.0461879 1.01664
v 1.63929 -0.0458517 0.985745
v 1.58407 -0.0307796 1.04782
v 1.58277 -0.0467052 1.04636
v 1.58124 -0.0665163 1.04367
v 1.61524 -0.0657705 1.01312
v 1.52106 -0.0314821 1.07761
v 1.50571 -0.0317328 1.08286
v 1.50521 -0.0481398 1.08258
v 1.52042 -0.0477978 1.07717
v 1.48024 -0.032531 1.08937
v 1.47977 -0.0490441 1.08911
v 1.47918 -0.0694477 1.08822
v 1.50458 -0.0685772 1.08167
v 1.51962 -0.0681351 1.076
v 1.50592 -0.257162 0.628124
v 1.52086 -0.241093 0.63261
v 1.50269 -0.248711 0.62622
v 1.51775 -0.23169 0.631122
v 1.52138 -0.219582 0.637388
v 1.52404 -0.231093 0.638308
v 1.43205 -0.304056 0.634772
v 1.47226 -0.281905 0.626954
v 1.42982 -0.293305 0.632608
v 1.46942 -0.272577 0.624877
v 1.35893 -0.327961 0.705488
v 1.35356 -0.314971 0.691498
v 1.36859 -0.313345 0.684574
v 1.37435 -0.326188 0.698564
v 1.3523 -0.303599 0.688893
v 1.36724 -0.301996 0.681997
v 1.37766 -0.302004 0.672184
v 1.37914 -0.31338 0.674679
v 1.38521 -0.32596 0.688902
v 1.39042 -0.345004 0.789618
v 1.37225 -0.339047 0.741009
v 1.38864 -0.336946 0.734121
v 1.40812 -0.342759 0.782789
v 1.40007 -0.335972 0.725203
v 1.42027 -0.341038 0.774919
v 1.45244 -0.256932 1.00942
v 1.44002 -0.301016 0.954992
v 1.462 -0.300137 0.948422
v 1.47576 -0.256269 1.00291
v 1.42602 -0.328979 0.895798
v 1.44653 -0.327669 0.889121
v 1.46001 -0.325749 0.883023
v 1.4759 -0.29834 0.942519
v 1.48992 -0.254684 0.996873
v 1.5462 -0.0674056 1.06451
v 1.54415 -0.095722 1.06019
v 1.57894 -0.0942637 1.03823
v 1.51803 -0.0968395 1.07251
v 1.51316 -0.13916 1.06127
v 1.53889 -0.137301 1.04832
v 1.57351 -0.13416 1.02527
v 1.50321 -0.0974347 1.07852
v 1.47792 -0.0982389 1.08511
v 1.4736 -0.140736 1.0741
v 1.49858 -0.140012 1.06751
v 1.39969 -0.312849 0.654524
v 1.40633 -0.324849 0.669245
v 1.39793 -0.301495 0.652198
v 1.42207 -0.333393 0.707114
v 1.44335 -0.337026 0.759039
v 1.5012 -0.293914 0.930349
v 1.51535 -0.250625 0.984183
v 1.48495 -0.321285 0.87073
v 1.61333 -0.0928742 1.00665
v 1.60836 -0.129972 0.99232
v 1.54832 -0.031167 1.06717
v 1.54738 -0.0473076 1.06632
v 1.63662 -0.030013 0.944101
v 1.64428 -0.030078 0.963916
v 1.64339 -0.0457348 0.961948
v 1.63652 -0.045744 0.943012
v 1.44106 -0.33882 0.827396
v 1.46519 -0.334318 0.8137
v 1.49907 -0.3249 0.795156
v 1.40911 -0.342687 0.840983
v 1.42818 -0.340801 0.834221
v 1.56303 -0.294582 0.760842
v 1.5734 -0.284717 0.752623
v 1.57327 -0.278418 0.748625
v 1.53543 -0.309783 0.776044
v 1.5031 -0.19659 1.03675
v 1.52862 -0.19356 1.0237
v 1.56311 -0.187231 1.00002
v 1.4644 -0.198461 1.04951
v 1.48873 -0.197817 1.04297
v 1.62302 -0.167853 0.932271
v 1.63045 -0.163203 0.91062
v 1.62734 -0.161626 0.896699
v 1.59809 -0.17722 0.965671
v 1.63675 0.000383878 0.944075
v 1.64511 0.000266993 0.965237
v 1.6449 -0.0149581 0.96494
v 1.63672 -0.0148574 0.944226
v 1.64209 0.000169138 0.990208
v 1.64172 -0.0150756 0.989661
v 1.58562 6.58521e-05 1.04891
v 1.54951 4.36109e-05 1.06774
v 1.54914 -0.015601 1.0676
v 1.58515 -0.0154028 1.04864
v 1.52186 3.20215e-05 1.07792
v 1.52161 -0.0157599 1.07783
v 1.50635 2.66191e-05 1.08307
v 1.50615 -0.0158953 1.08301
v 1.48085 2.22356e-05 1.08959
v 1.48066 -0.0163623 1.08952
v 1.61997 0.000104245 1.02056
v 1.6195 -0.0152234 1.02008
v 1.42371 -0.0511366 1.10212
v 1.42318 -0.071406 1.10122
v 1.42416 -0.0344032 1.10241
v 1.3488 -0.0369307 1.11964
v 1.34838 -0.0539588 1.11933
v 1.34793 -0.074042 1.11841
v 1.3677 -0.346313 0.854448
v 1.35212 -0.34966 0.802957
v 1.38136 -0.331169 0.909231
v 1.32138 -0.334014 0.927106
v 1.31211 -0.351109 0.872388
v 1.3007 -0.355865 0.820753
v 1.33689 -0.343641 0.754203
v 1.32572 -0.332019 0.718573
v 1.28944 -0.349771 0.771827
v 1.28117 -0.337427 0.736068
v 1.41075 -0.199436 1.06236
v 1.40118 -0.257741 1.02232
v 1.41846 -0.142114 1.08704
v 1.34437 -0.143944 1.10415
v 1.33867 -0.200695 1.07939
v 1.3323 -0.258751 1.03942
v 1.39192 -0.30221 0.968159
v 1.32729 -0.303718 0.985651
v 1.32121 -0.318761 0.704532
v 1.32012 -0.30733 0.701901
v 1.27781 -0.32381 0.721968
v 1.27694 -0.312302 0.719307
v 1.4221 -0.0999541 1.09809
v 1.34711 -0.102254 1.11525
v 1.42457 -0.0174633 1.10258
v 1.42475 1.47779e-05 1.10266
v 1.34936 5.15705e-06 1.11993
v 1.34919 -0.01895 1.11984
v 1.63701 0.06742 0.940989
v 1.63794 0.0950092 0.93685
v 1.64282 0.0944308 0.952943
v 1.64291 0.0669911 0.958766
v 1.63575 0.129076 0.923871
v 1.63966 0.128952 0.93849
v 1.63288 0.130174 0.960101
v 1.63699 0.094309 0.97518
v 1.63807 0.0667949 0.981946
v 1.54974 0.249763 0.961019
v 1.58463 0.234818 0.927301
v 1.57032 0.279125 0.87968
v 1.53548 0.294619 0.909191
v 1.60967 0.220269 0.894667
v 1.59554 0.263717 0.851732
v 1.58025 0.29425 0.806416
v 1.5543 0.308867 0.827753
v 1.51907 0.323326 0.851595
v 1.47696 0.336013 0.74014
v 1.51488 0.317951 0.724968
v 1.49483 0.309325 0.6762
v 1.45538 0.330368 0.687727
v 1.54468 0.299519 0.715371
v 1.52681 0.287371 0.671888
v 1.513 0.273445 0.640262
v 1.47958 0.297913 0.640676
v 1.43923 0.320692 0.649535
v 1.55653 0.288242 0.711348
v 1.54012 0.274524 0.67186
v 1.55731 0.281775 0.710423
v 1.5418 0.267849 0.673887
v 1.52993 0.251195 0.647662
v 1.52742 0.258914 0.643285
v 1.61759 0.212473 0.873948
v 1.60395 0.254562 0.834389
v 1.61517 0.209135 0.861053
v 1.60222 0.249568 0.823943
v 1.58844 0.27871 0.786534
v 1.58942 0.284762 0.79373
v 1.64072 0.0308104 0.988152
v 1.63929 0.0467788 0.985745
v 1.61682 0.0469271 1.01664
v 1.61834 0.0308933 1.01876
v 1.61525 0.0670049 1.01313
v 1.58124 0.0675564 1.04367
v 1.58277 0.0472982 1.04636
v 1.58407 0.0311196 1.04782
v 1.52106 0.0317003 1.07761
v 1.52042 0.0482133 1.07717
v 1.50521 0.0485143 1.08258
v 1.50572 0.0319251 1.08286
v 1.51962 0.0689162 1.076
v 1.50458 0.0692938 1.08167
v 1.47918 0.0700521 1.08823
v 1.47977 0.049356 1.08911
v 1.48024 0.0326901 1.08937
v 1.52087 0.245788 0.632612
v 1.50594 0.261783 0.628127
v 1.52405 0.235865 0.63831
v 1.52139 0.224087 0.637391
v 1.51777 0.236152 0.631124
v 1.5027 0.253133 0.626223
v 1.47227 0.286478 0.626957
v 1.43207 0.308721 0.634775
v 1.46943 0.276984 0.62488
v 1.42983 0.297831 0.632612
v 1.35894 0.333531 0.705492
v 1.37436 0.332091 0.698567
v 1.3686 0.31872 0.684577
v 1.35358 0.320047 0.691502
v 1.38522 0.331811 0.688905
v 1.37915 0.318665 0.674682
v 1.37768 0.307176 0.672187
v 1.36725 0.307262 0.682
v 1.35232 0.308572 0.688896
v 1.39044 0.353259 0.789621
v 1.40814 0.351562 0.782793
v 1.38865 0.344157 0.734125
v 1.37227 0.345833 0.741012
v 1.42029 0.349984 0.774923
v 1.40008 0.343219 0.725206
v 1.45246 0.263511 1.00942
v 1.47577 0.26351 1.00291
v 1.46201 0.309372 0.948426
v 1.44004 0.309509 0.954995
v 1.48994 0.262204 0.996876
v 1.47591 0.307875 0.942522
v 1.46003 0.336293 0.883027
v 1.44654 0.33793 0.889125
v 1.42604 0.338504 0.895801
v 1.57895 0.0961034 1.03824
v 1.54416 0.0973468 1.06019
v 1.54621 0.0682914 1.06451
v 1.57352 0.137474 1.02527
v 1.5389 0.140348 1.04832
v 1.51317 0.14198 1.06128
v 1.51803 0.0983066 1.07251
v 1.50321 0.098801 1.07852
v 1.49859 0.142678 1.06751
v 1.47361 0.143079 1.07411
v 1.47792 0.0994115 1.08511
v 1.40634 0.330454 0.669248
v 1.39971 0.317817 0.654527
v 1.39795 0.306341 0.652202
v 1.44336 0.346082 0.759042
v 1.42209 0.340558 0.707118
v 1.51536 0.258512 0.984186
v 1.50122 0.303832 0.930352
v 1.48496 0.332176 0.870734
v 1.61334 0.0949556 1.00665
v 1.60837 0.133518 0.992321
v 1.54738 0.0477927 1.06632
v 1.54833 0.0314316 1.06717
v 1.63662 0.0310588 0.944101
v 1.63652 0.0471512 0.943013
v 1.64339 0.0468906 0.961948
v 1.64428 0.0308888 0.963916
v 1.46521 0.344805 0.813704
v 1.44108 0.349051 0.8274
v 1.49908 0.33548 0.79516
v 1.4282 0.350802 0.834225
v 1.40912 0.352027 0.840987
v 1.57342 0.294306 0.752626
v 1.56304 0.304428 0.760845
v 1.57329 0.28788 0.748628
v 1.53544 0.32006 0.776047
v 1.52863 0.198901 1.0237
v 1.50311 0.201625 1.03676
v 1.56312 0.192861 1.00002
v 1.48874 0.202631 1.04297
v 1.46441 0.202774 1.04951
v 1.63046 0.169143 0.910622
v 1.62303 0.173657 0.932272
v 1.62735 0.167762 0.896701
v 1.5981 0.182967 0.965673
v 1.63672 0.0156949 0.944226
v 1.6449 0.0155636 0.96494
v 1.64172 0.0154842 0.989661
v 1.58515 0.01559 1.04864
v 1.54915 0.015735 1.0676
v 1.52161 0.0158641 1.07783
v 1.50616 0.0159844 1.08301
v 1.48066 0.0164362 1.08952
v 1.6195 0.0154961 1.02008
v 1.42318 0.0717734 1.10122
v 1.42371 0.0513208 1.10212
v 1.34793 0.0740945 1.11841
v 1.34838 0.0539744 1.11933
v 1.3488 0.036941 1.11964
v 1.42416 0.034498 1.10241
v 1.35214 0.356637 0.802961
v 1.36772 0.354128 0.854451
v 1.30072 0.361121 0.820757
v 1.31212 0.356871 0.872392
v 1.32139 0.339593 0.927109
v 1.38138 0.339011 0.909235
v 1.32574 0.336759 0.718576
v 1.33691 0.349407 0.754206
v 1.28119 0.34105 0.736072
v 1.28946 0.354163 0.771831
v 1.40119 0.262828 1.02232
v 1.41076 0.202629 1.06236
v 1.33231 0.261833 1.03943
v 1.33868 0.202388 1.07939
v 1.34437 0.14462 1.10415
v 1.41847 0.143744 1.08704
v 1.39193 0.309019 0.968163
v 1.32731 0.308264 0.985654
v 1.32013 0.311557 0.701904
v 1.32123 0.32308 0.704535
v 1.27695 0.315522 0.71931
v 1.27782 0.327108 0.721971
v 1.42211 0.100707 1.09809
v 1.34711 0.102447 1.11526
v 1.42457 0.0175095 1.10258
v 1.34919 0.0189603 1.11984
v 1.51764 -0.212389 0.63373
v 1.50764 -0.206453 0.620233
v 1.48738 -0.197102 0.592495
v 1.45838 -0.177451 0.552825
v 1.42492 -0.144117 0.50771
v 1.39656 -0.10993 0.473615
v 1.38136 -0.0879351 0.463469
v 1.37591 -0.0758198 0.466062
v 1.37487 -0.0670789 0.467147
v 1.51765 0.216609 0.633732
v 1.37654 -0.0537831 0.464467
v 1.37972 -0.0300977 0.459505
v 1.38152 7.92163e-06 0.456701
v 1.37972 0.0301136 0.459506
v 1.37654 0.0537991 0.464468
v 1.37487 0.067095 0.467147
v 1.37592 0.0758358 0.466063
v 1.38136 0.0879735 0.46347
v 1.45839 0.178855 0.552827
v 1.48739 0.199645 0.592497
v 1.50765 0.210066 0.620235
v 1.39656 0.110127 0.473616
v 1.42492 0.144736 0.507711
v 1.27521 0.307462 0.714419
v 1.2752 -0.304388 0.714416
v 1.24291 -0.246736 0.619866
v 1.25873 -0.279264 0.666148
v 1.26978 -0.29556 0.698532
v 1.20881 -0.143924 0.52674
v 1.22461 -0.194687 0.567144
v 1.19602 -0.101127 0.514943
v 1.19977 -0.11472 0.513453
v 1.19674 -0.0411816 0.504205
v 1.19554 -0.0734152 0.511281
v 1.195 -0.0909744 0.515276
v 1.2698 0.298188 0.698535
v 1.25874 0.281049 0.666151
v 1.24292 0.247643 0.619869
v 1.22462 0.195055 0.567146
v 1.20882 0.144046 0.526742
v 1.19978 0.114756 0.513454
v 1.19603 0.101151 0.514944
v 1.19501 0.0909984 0.515277
v 1.19555 0.0734393 0.511282
v 1.19675 0.0412057 0.504206
v 1.19742 1.20513e-05 0.500206
vt 0.3328 0.8864
vt 0.2609 0.8301
vt 0.3486 0.8669
vt 0.2621 0.8338
vt 0.3261 0.888
vt 0.2581 0.8366
vt 0.3193 0.8821
vt 0.3797 0.824
vt 0.3274 0.8821
vt 0.4059 0.7718
vt 0.4776 0.7257
vt 0.3603 0.8574
vt 0.4775 0.7171
vt 0.4869 0.7497
vt 0.3441 0.8115
vt 0.3305 0.875
vt 0.2725 0.8206
vt 0.4212 0.7628
vt 0.4133 0.747
vt 0.2634 0.8314
vt 0.3333 0.8461
vt 0.2659 0.8277
vt 0.4797 0.751
vt 0.3594 0.819
vt 0.3274 0.8821
vt 0.2613 0.8303
vt 0.3261 0.888
vt 0.3273 0.8614
vt 0.2636 0.8264
vt 0.3624 0.8133
vt 0.3337 0.8827
vt 0.2636 0.8264
vt 0.3182 0.8855
vt 0.3369 0.8631
vt 0.4772 0.7125
vt 0.3711 0.8252
vt 0.3328 0.8864
vt 0.4854 0.7164
vt 0.4133 0.747
vt 0.4212 0.7628
vt 0.4769 0.7099
vt 0.3222 0.8746
vt 0.3317 0.7644
vt 0.3683 0.7811
vt 0.2632 0.8262
vt 0.318 0.8876
vt 0.2636 0.8264
vt 0.4418 0.7673
vt 0.477 0.7105
vt 0.3305 0.875
vt 0.2698 0.8188
vt 0.4378 0.7546
vt 0.3768 0.8288
vt 0.3327 0.8889
vt 0.2702 0.8191
vt 0.3264 0.8857
vt 0.3818 0.8258
vt 0.3369 0.8631
vt 0.3305 0.875
vt 0.328 0.7667
vt 0.3337 0.8827
vt 0.3386 0.7605
vt 0.3405 0.7639
vt 0.3369 0.8631
vt 0.4794 0.7592
vt 0.3284 0.7673
vt 0.3274 0.8821
vt 0.3594 0.819
vt 0.3305 0.875
vt 0.3299 0.77
vt 0.3274 0.8821
vt 0.3321 0.7649
vt 0.4785 0.7647
vt 0.3336 0.7677
vt 0.4866 0.7579
vt 0.3264 0.8857
vt 0.2636 0.8264
vt 0.3372 0.8759
vt 0.2702 0.8191
vt 0.2613 0.8303
vt 0.4321 0.7386
vt 0.4378 0.7546
vt 0.486 0.725
vt 0.3445 0.8649
vt 0.485 0.7115
vt 0.3264 0.8857
vt 0.3284 0.7673
vt 0.486 0.7634
vt 0.4775 0.7171
vt 0.396 0.7566
vt 0.2632 0.8262
vt 0.3445 0.8649
vt 0.2621 0.8338
vt 0.26 0.8328
vt 0.4794 0.7592
vt 0.339 0.7611
vt 0.4794 0.7592
vt 0.3534 0.8525
vt 0.2581 0.8366
vt 0.3193 0.8821
vt 0.3441 0.8115
vt 0.2569 0.8555
vt 0.339 0.7611
vt 0.3502 0.7551
vt 0.261 0.8576
vt 0.2659 0.8277
vt 0.2636 0.8509
vt 0.4854 0.7164
vt 0.3386 0.7605
vt 0.266 0.8602
vt 0.339 0.7611
vt 0.477 0.7105
vt 0.2548 0.8434
vt 0.427 0.7752
vt 0.4769 0.7099
vt 0.2548 0.843
vt 0.2609 0.8301
vt 0.3405 0.7639
vt 0.2508 0.8519
vt 0.3515 0.7577
vt 0.3441 0.8157
vt 0.251 0.8525
vt 0.3473 0.8044
vt 0.2553 0.8438
vt 0.3594 0.819
vt 0.2548 0.8434
vt 0.3636 0.7473
vt 0.2548 0.8434
vt 0.3639 0.7479
vt 0.359 0.8224
vt 0.2553 0.8438
vt 0.3783 0.8344
vt 0.2601 0.837
vt 0.3711 0.8252
vt 0.2581 0.8366
vt 0.3365 0.8877
vt 0.3761 0.8317
vt 0.3367 0.9083
vt 0.4772 0.7125
vt 0.3364 0.8902
vt 0.477 0.7105
vt 0.3372 0.8759
vt 0.3336 0.7677
vt 0.3383 0.9079
vt 0.4847 0.7087
vt 0.3365 0.8877
vt 0.4848 0.7094
vt 0.3624 0.8133
vt 0.3374 0.9
vt 0.3383 0.8917
vt 0.4848 0.7094
vt 0.3502 0.7551
vt 0.3357 0.8998
vt 0.34 0.9075
vt 0.3413 0.7827
vt 0.3379 0.7849
vt 0.3704 0.8042
vt 0.4653 0.7122
vt 0.3624 0.8133
vt 0.3393 0.9004
vt 0.3369 0.7741
vt 0.3436 0.7701
vt 0.3813 0.7933
vt 0.4654 0.7128
vt 0.374 0.8203
vt 0.3374 0.9
vt 0.3651 0.7503
vt 0.3336 0.7677
vt 0.3561 0.7938
vt 0.3393 0.9004
vt 0.3544 0.7635
vt 0.3515 0.7577
vt 0.3561 0.7938
vt 0.4772 0.7125
vt 0.3812 0.8124
vt 0.3367 0.8937
vt 0.3299 0.77
vt 0.3374 0.9
vt 0.3369 0.7741
vt 0.4654 0.7128
vt 0.3473 0.8044
vt 0.3367 0.8937
vt 0.3436 0.7701
vt 0.3195 0.9083
vt 0.3436 0.7701
vt 0.4946 0.7081
vt 0.3369 0.7741
vt 0.3373 0.884
vt 0.479 0.7385
vt 0.3186 0.9015
vt 0.3334 0.7764
vt 0.3797 0.824
vt 0.3436 0.7701
vt 0.3911 0.8028
vt 0.479 0.7385
vt 0.3364 0.8902
vt 0.3391 0.8859
vt 0.3273 0.7721
vt 0.3297 0.9084
vt 0.3226 0.7761
vt 0.3384 0.8894
vt 0.321 0.7735
vt 0.3812 0.8124
vt 0.3582 0.7711
vt 0.4431 0.7748
vt 0.3365 0.8877
vt 0.3206 0.7729
vt 0.3289 0.9017
vt 0.3253 0.7688
vt 0.3328 0.8864
vt 0.3308 0.7783
vt 0.3911 0.8028
vt 0.3711 0.7621
vt 0.427 0.7752
vt 0.3253 0.7688
vt 0.3244 0.9017
vt 0.3373 0.884
vt 0.3379 0.7849
vt 0.3797 0.824
vt 0.4139 0.7334
vt 0.3257 0.7693
vt 0.3244 0.9017
vt 0.3408 0.8774
vt 0.3257 0.7693
vt 0.3865 0.8166
vt 0.3967 0.7396
vt 0.4955 0.7243
vt 0.4323 0.7279
vt 0.3239 0.8965
vt 0.3441 0.8157
vt 0.3264 0.7822
vt 0.3337 0.8827
vt 0.3308 0.7783
vt 0.4918 0.7369
vt 0.4918 0.7369
vt 0.3308 0.7783
vt 0.3186 0.9015
vt 0.3783 0.8344
vt 0.3408 0.8774
vt 0.3313 0.7904
vt 0.3337 0.8827
vt 0.3477 0.7784
vt 0.4959 0.7363
vt 0.3244 0.9017
vt 0.3677 0.7554
vt 0.4161 0.7383
vt 0.3956 0.8077
vt 0.2601 0.837
vt 0.3818 0.8258
vt 0.3239 0.8965
vt 0.2659 0.8277
vt 0.2665 0.8378
vt 0.4133 0.7836
vt 0.374 0.8203
vt 0.2665 0.8378
vt 0.318 0.8961
vt 0.4123 0.7296
vt 0.3969 0.8099
vt 0.2671 0.8362
vt 0.427 0.7752
vt 0.2737 0.8395
vt 0.3883 0.8185
vt 0.3365 0.8877
vt 0.3284 0.7673
vt 0.4955 0.7243
vt 0.3355 0.7868
vt 0.3373 0.884
vt 0.328 0.7667
vt 0.3391 0.8859
vt 0.3284 0.7673
vt 0.4951 0.7156
vt 0.3257 0.7693
vt 0.3373 0.884
vt 0.321 0.7735
vt 0.3883 0.8185
vt 0.2621 0.8338
vt 0.3812 0.8124
vt 0.3299 0.77
vt 0.4951 0.7156
vt 0.3355 0.7868
vt 0.4162 0.79
vt 0.2731 0.841
vt 0.4418 0.7673
vt 0.4679 0.7411
vt 0.4947 0.7104
vt 0.4311 0.7241
vt 0.3865 0.8166
vt 0.4679 0.7411
vt 0.2684 0.8341
vt 0.4904 0.7109
vt 0.2634 0.8314
vt 0.3257 0.7693
vt 0.4908 0.7159
vt 0.3273 0.7721
vt 0.4908 0.7159
vt 0.2671 0.8362
vt 0.4854 0.7164
vt 0.2725 0.8206
vt 0.4918 0.7569
vt 0.3774 0.8367
vt 0.4913 0.7246
vt 0.3264 0.7822
vt 0.492 0.7488
vt 0.3751 0.834
vt 0.4869 0.7497
vt 0.2671 0.8362
vt 0.2711 0.8308
vt 0.4866 0.7579
vt 0.4123 0.7296
vt 0.4914 0.7625
vt 0.3544 0.7635
vt 0.4139 0.7334
vt 0.4918 0.7569
vt 0.4866 0.7579
vt 0.2737 0.8395
vt 0.2779 0.8243
vt 0.486 0.7634
vt 0.4139 0.7334
vt 0.3947 0.7357
vt 0.3544 0.7635
vt 0.3967 0.7396
vt 0.3793 0.7427
vt 0.3746 0.8404
vt 0.3677 0.7554
vt 0.3722 0.8378
vt 0.3761 0.8317
vt 0.3816 0.7471
vt 0.3774 0.8367
vt 0.3816 0.7471
vt 0.3751 0.834
vt 0.3677 0.7554
vt 0.2903 0.8134
vt 0.3846 0.7529
vt 0.4904 0.7109
vt 0.3438 0.8187
vt 0.4902 0.7087
vt 0.2852 0.809
vt 0.2852 0.809
vt 0.3967 0.7396
vt 0.4946 0.7081
vt 0.3583 0.825
vt 0.4866 0.7375
vt 0.3049 0.8007
vt 0.2903 0.8134
vt 0.3846 0.7529
vt 0.492 0.7488
vt 0.3695 0.8303
vt 0.2779 0.8243
vt 0.3993 0.7447
vt 0.4945 0.7075
vt 0.359 0.8224
vt 0.4913 0.7246
vt 0.2903 0.8134
vt 0.3779 0.74
vt 0.359 0.8224
vt 0.3705 0.828
vt 0.3938 0.7338
vt 0.4918 0.7369
vt 0.3421 0.8235
vt 0.3779 0.74
vt 0.3667 0.8343
vt 0.3639 0.7479
vt 0.3695 0.8303
vt 0.3317 0.7644
vt 0.4695 0.7622
vt 0.4113 0.7272
vt 0.4059 0.7718
vt 0.4657 0.7148
vt 0.318 0.8891
vt 0.3947 0.7357
vt 0.3264 0.8857
vt 0.374 0.8203
vt 0.434 0.7328
vt 0.3332 0.8923
vt 0.2601 0.837
vt 0.3327 0.8889
vt 0.4797 0.751
vt 0.3327 0.8889
vt 0.3993 0.7447
vt 0.3865 0.8166
vt 0.4866 0.7375
vt 0.4959 0.7363
vt 0.2711 0.8308
vt 0.4162 0.79
vt 0.429 0.7859
vt 0.3695 0.8303
vt 0.356 0.8293
vt 0.4657 0.7148
vt 0.3813 0.7933
vt 0.3405 0.7639
vt 0.3624 0.8133
vt 0.3704 0.8042
vt 0.3334 0.7764
vt 0.3704 0.8042
vt 0.3336 0.7677
vt 0.3369 0.7741
vt 0.3704 0.8042
vt 0.477 0.7105
vt 0.4866 0.7375
vt 0.3583 0.825
vt 0.4902 0.708
vt 0.3583 0.825
vt 0.4869 0.7497
vt 0.3583 0.825
vt 0.486 0.725
vt 0.3438 0.8187
vt 0.4947 0.7104
vt 0.356 0.8293
vt 0.4902 0.7087
vn 0.9222 0.02997 -0.3854
vn 0.9986 -0.01126 -0.05179
vn 0.9982 -0.05887 -0.006256
vn 0.9301 0.02768 -0.3663
vn 0.9045 -0.1306 0.4059
vn 0.8841 -0.2053 0.4197
vn 0.8512 -0.3485 0.3924
vn 0.9849 -0.1731 0.008576
vn 0.9376 -0.0108 -0.3475
vn 0.5921 -0.6332 0.4984
vn 0.5237 -0.774 0.3558
vn 0.6418 -0.7042 0.3035
vn 0.7039 -0.5864 0.4008
vn 0.4207 -0.8888 0.1819
vn 0.5253 -0.8383 0.1462
vn 0.6594 -0.7472 0.08267
vn 0.7703 -0.5996 0.2169
vn 0.8161 -0.5105 0.2708
vn 0.2924 -0.9449 -0.1472
vn 0.2673 -0.9277 -0.2605
vn 0.4239 -0.8335 -0.3544
vn 0.4003 -0.8867 -0.2314
vn 0.1498 -0.8567 -0.4935
vn 0.3874 -0.7299 -0.5631
vn 0.5343 -0.578 -0.6167
vn 0.543 -0.7139 -0.4422
vn 0.5082 -0.7994 -0.3204
vn 0.784 -0.3959 -0.4781
vn 0.7707 -0.4888 -0.4086
vn 0.7595 -0.2829 -0.5857
vn 0.8833 -0.01273 -0.4686
vn 0.8954 -0.05261 -0.4422
vn 0.8974 -0.0853 -0.4329
vn 0.9352 -0.3524 -0.03345
vn 0.956 -0.2928 -0.01752
vn 0.8725 -0.4736 -0.12
vn 0.9258 -0.1036 -0.3635
vn 0.9377 -0.07224 -0.3399
vn 0.9394 -0.05753 -0.338
vn 0.9191 -0.111 0.378
vn 0.7266 -0.129 0.6748
vn 0.728 -0.1596 0.6668
vn 0.9125 -0.1283 0.3883
vn 0.5628 -0.1013 0.8204
vn 0.5731 -0.1346 0.8083
vn 0.5856 -0.1731 0.7919
vn 0.7292 -0.183 0.6593
vn 0.3423 -0.03586 0.9389
vn 0.2871 -0.02316 0.9576
vn 0.2937 -0.04123 0.955
vn 0.3564 -0.05823 0.9325
vn 0.2377 -0.0192 0.9711
vn 0.2384 -0.03613 0.9705
vn 0.2399 -0.08234 0.9673
vn 0.3039 -0.08771 0.9486
vn 0.3769 -0.1052 0.9202
vn 0.3848 -0.31 -0.8694
vn 0.6406 -0.08621 -0.763
vn 0.3375 -0.1934 -0.9212
vn 0.6363 -0.001221 -0.7714
vn 0.8339 0.05039 -0.5496
vn 0.8347 0.05216 -0.5482
vn -0.1134 -0.5415 -0.833
vn 0.1916 -0.4397 -0.8774
vn -0.2045 -0.3758 -0.9038
vn 0.1173 -0.3042 -0.9453
vn -0.09345 -0.8755 -0.4741
vn -0.2842 -0.5251 -0.8021
vn -0.4495 -0.5364 -0.7143
vn -0.1903 -0.8919 -0.4102
vn -0.3227 -0.4142 -0.851
vn -0.4909 -0.4164 -0.7653
vn -0.6305 -0.4033 -0.6631
vn -0.5772 -0.5315 -0.62
vn -0.2784 -0.8918 -0.3566
vn 0.09037 -0.9936 -0.06781
vn 0.03375 -0.9745 -0.2217
vn -0.005371 -0.9813 -0.1924
vn 0.08985 -0.9937 -0.06705
vn -0.03491 -0.9855 -0.1657
vn 0.09857 -0.9929 -0.06674
vn 0.2025 -0.6883 0.6965
vn 0.1725 -0.8498 0.4981
vn 0.242 -0.8488 0.47
vn 0.2817 -0.6886 0.6682
vn 0.1489 -0.9419 0.3011
vn 0.2028 -0.9405 0.2724
vn 0.2657 -0.9332 0.242
vn 0.3258 -0.8391 0.4355
vn 0.379 -0.6814 0.6261
vn 0.4543 -0.138 0.8801
vn 0.4752 -0.2334 0.8483
vn 0.5951 -0.2584 0.7609
vn 0.3989 -0.2094 0.8927
vn 0.4114 -0.3508 0.8412
vn 0.4897 -0.3634 0.7925
vn 0.603 -0.3803 0.7012
vn 0.3147 -0.1961 0.9287
vn 0.2407 -0.1913 0.9515
vn 0.2363 -0.3402 0.9102
vn 0.3175 -0.3442 0.8836
vn -0.4396 -0.5646 -0.6985
vn -0.141 -0.9067 -0.3974
vn -0.5268 -0.4008 -0.7495
vn 0.06925 -0.9803 -0.185
vn 0.1674 -0.9821 -0.08621
vn 0.4037 -0.8205 0.4048
vn 0.4665 -0.667 0.5809
vn 0.3241 -0.9207 0.2171
vn 0.7227 -0.2626 0.6393
vn 0.7135 -0.391 0.5814
vn 0.4187 -0.06287 0.9059
vn 0.4339 -0.09204 0.8962
vn 0.9138 -0.0009156 -0.406
vn 0.9935 -0.04358 -0.1046
vn 0.9958 -0.03284 -0.08454
vn 0.9175 0.0127 -0.3976
vn 0.1936 -0.9789 0.06488
vn 0.2441 -0.9689 0.04031
vn 0.3314 -0.9434 -0.006531
vn 0.1251 -0.9862 0.1078
vn 0.1554 -0.984 0.08689
vn 0.5378 -0.8318 -0.1374
vn 0.7943 -0.5378 -0.2824
vn 0.9058 -0.1123 -0.4084
vn 0.4203 -0.905 -0.0647
vn 0.408 -0.5013 0.763
vn 0.4929 -0.5013 0.7112
vn 0.6109 -0.4997 0.6141
vn 0.2252 -0.4989 0.8368
vn 0.3084 -0.5015 0.8083
vn 0.8276 -0.4553 0.3281
vn 0.9668 -0.2555 -0.006653
vn 0.9393 -0.04541 -0.34
vn 0.7147 -0.4967 0.4923
vn 0.9113 0 -0.4118
vn 0.9925 -3.052e-05 -0.1224
vn 0.9927 -0.02646 -0.1178
vn 0.9117 -0.003449 -0.4107
vn 0.9283 -9.156e-05 0.3718
vn 0.9257 -0.06217 0.3732
vn 0.555 -6.104e-05 0.8318
vn 0.4071 -3.052e-05 0.9134
vn 0.4099 -0.03464 0.9115
vn 0.5567 -0.05716 0.8287
vn 0.3318 0 0.9433
vn 0.3344 -0.01987 0.9422
vn 0.2825 0 0.9593
vn 0.2836 -0.01331 0.9588
vn 0.2373 0 0.9714
vn 0.2374 -0.01114 0.9713
vn 0.7284 -9.156e-05 0.6851
vn 0.7275 -0.07337 0.6821
vn 0.2255 -0.03601 0.9735
vn 0.2263 -0.08188 0.9706
vn 0.2252 -0.01907 0.9741
vn -0.5287 -0.01373 0.8487
vn -0.5274 -0.026 0.8492
vn -0.5222 -0.05908 0.8508
vn 0.1261 -0.9828 0.1343
vn 0.09305 -0.9941 -0.05591
vn 0.1447 -0.9339 0.3269
vn -0.5748 -0.7005 0.4231
vn -0.595 -0.7526 0.2821
vn -0.6308 -0.7646 0.1322
vn 0.03619 -0.9728 -0.2288
vn -0.08649 -0.8666 -0.4915
vn -0.671 -0.7414 -0.006775
vn -0.7162 -0.665 -0.2116
vn 0.2108 -0.4956 0.8426
vn 0.1899 -0.6817 0.7065
vn 0.2216 -0.3387 0.9144
vn -0.516 -0.2462 0.8204
vn -0.5252 -0.359 0.7715
vn -0.5363 -0.4955 0.6832
vn 0.1632 -0.8411 0.5155
vn -0.559 -0.6172 0.5537
vn -0.2656 -0.515 -0.815
vn -0.3014 -0.4071 -0.8622
vn -0.7964 -0.3961 -0.4571
vn -0.8382 -0.2768 -0.4699
vn 0.2263 -0.1904 0.9552
vn -0.5106 -0.139 0.8485
vn 0.2251 -0.01096 0.9742
vn 0.2251 0 0.9743
vn -0.5252 0 0.8509
vn -0.5269 -0.007843 0.8499
vn 0.9221 -0.02915 -0.3858
vn 0.9299 -0.0267 -0.3669
vn 0.9984 0.05661 -0.006226
vn 0.9986 0.01093 -0.05194
vn 0.9375 0.01038 -0.3477
vn 0.9859 0.1666 0.01077
vn 0.8535 0.3366 0.3977
vn 0.8847 0.1985 0.4218
vn 0.9046 0.127 0.4068
vn 0.5957 0.6191 0.5116
vn 0.7102 0.5718 0.4107
vn 0.6497 0.6937 0.3109
vn 0.5282 0.7653 0.3677
vn 0.822 0.497 0.278
vn 0.7773 0.589 0.2211
vn 0.6662 0.7416 0.07855
vn 0.5319 0.8345 0.1438
vn 0.4224 0.8877 0.1832
vn 0.2818 0.9436 -0.1738
vn 0.3945 0.8818 -0.2582
vn 0.4151 0.825 -0.3835
vn 0.2545 0.922 -0.2917
vn 0.5035 0.7924 -0.3444
vn 0.5352 0.7043 -0.4663
vn 0.5255 0.5673 -0.634
vn 0.3774 0.7176 -0.5853
vn 0.1383 0.844 -0.5181
vn 0.766 0.4841 -0.4229
vn 0.7788 0.39 -0.4912
vn 0.8962 0.08444 -0.4354
vn 0.8945 0.05161 -0.444
vn 0.883 0.01218 -0.4693
vn 0.7552 0.2767 -0.5943
vn 0.9584 0.285 -0.01367
vn 0.9378 0.3456 -0.03134
vn 0.9398 0.05603 -0.3372
vn 0.938 0.07086 -0.3393
vn 0.9258 0.1028 -0.3636
vn 0.8744 0.4695 -0.1225
vn 0.9191 0.1091 0.3786
vn 0.9126 0.1254 0.3891
vn 0.7279 0.1562 0.6676
vn 0.7265 0.127 0.6753
vn 0.7292 0.1782 0.6606
vn 0.5854 0.1688 0.7929
vn 0.573 0.132 0.8088
vn 0.5626 0.09989 0.8206
vn 0.3423 0.03546 0.9389
vn 0.3563 0.05728 0.9326
vn 0.2936 0.04062 0.955
vn 0.2871 0.02295 0.9576
vn 0.3766 0.1029 0.9206
vn 0.3035 0.08594 0.9489
vn 0.2395 0.0809 0.9675
vn 0.2383 0.03568 0.9705
vn 0.2377 0.01904 0.9711
vn 0.6397 0.08313 -0.7641
vn 0.3794 0.3029 -0.8742
vn 0.8357 -0.05139 -0.5467
vn 0.8348 -0.04962 -0.5482
vn 0.6362 0.001617 -0.7714
vn 0.3341 0.1899 -0.9232
vn 0.1857 0.4299 -0.8836
vn -0.1176 0.5296 -0.8401
vn 0.1138 0.2987 -0.9475
vn -0.2058 0.3692 -0.9062
vn -0.1207 0.8654 -0.4863
vn -0.2109 0.8797 -0.4262
vn -0.4555 0.5278 -0.7169
vn -0.2971 0.5169 -0.8029
vn -0.2914 0.8789 -0.3776
vn -0.5783 0.5218 -0.6271
vn -0.6301 0.3966 -0.6676
vn -0.4952 0.4084 -0.7668
vn -0.3318 0.4079 -0.8506
vn 0.05432 0.9953 -0.07953
vn 0.06034 0.9947 -0.08271
vn -0.03366 0.9763 -0.2134
vn -0.0003357 0.9711 -0.2387
vn 0.07703 0.9932 -0.08716
vn -0.05594 0.9799 -0.1915
vn 0.1876 0.6749 0.7137
vn 0.2712 0.6752 0.686
vn 0.2262 0.8416 0.4904
vn 0.1499 0.8417 0.5186
vn 0.3741 0.6679 0.6434
vn 0.3184 0.8321 0.454
vn 0.2541 0.9342 0.2503
vn 0.1815 0.9414 0.2842
vn 0.1194 0.9416 0.3149
vn 0.5951 0.2507 0.7635
vn 0.4747 0.2268 0.8505
vn 0.454 0.1348 0.8807
vn 0.6038 0.3681 0.707
vn 0.489 0.3521 0.7981
vn 0.4096 0.3403 0.8464
vn 0.398 0.2037 0.8944
vn 0.3134 0.1911 0.9302
vn 0.3145 0.3343 0.8884
vn 0.2324 0.3312 0.9145
vn 0.2392 0.1869 0.9528
vn -0.153 0.8938 -0.4215
vn -0.4416 0.5531 -0.7064
vn -0.526 0.3942 -0.7536
vn 0.1506 0.9824 -0.1101
vn 0.05161 0.9753 -0.2145
vn 0.4658 0.6533 0.5968
vn 0.4021 0.8131 0.4209
vn 0.3187 0.9214 0.2225
vn 0.7232 0.2544 0.642
vn 0.7156 0.3781 0.5873
vn 0.4337 0.09043 0.8965
vn 0.4187 0.06207 0.906
vn 0.9138 0.0008545 -0.406
vn 0.9174 -0.01245 -0.3977
vn 0.9959 0.03211 -0.08438
vn 0.9936 0.04285 -0.1044
vn 0.2321 0.9722 0.02902
vn 0.1761 0.9827 0.05698
vn 0.3263 0.945 -0.02133
vn 0.1287 0.9881 0.08359
vn 0.09064 0.99 0.1079
vn 0.7925 0.5349 -0.2929
vn 0.5394 0.8278 -0.1539
vn 0.9049 0.112 -0.4105
vn 0.4207 0.9035 -0.08173
vn 0.4921 0.4867 0.7217
vn 0.4049 0.4871 0.7738
vn 0.613 0.4847 0.624
vn 0.3024 0.4878 0.8189
vn 0.217 0.4859 0.8466
vn 0.9689 0.2473 -0.002441
vn 0.8323 0.4409 0.3358
vn 0.9396 0.04386 -0.3394
vn 0.719 0.4813 0.5013
vn 0.9117 0.003388 -0.4107
vn 0.9927 0.02618 -0.1176
vn 0.9256 0.06149 0.3735
vn 0.5566 0.05664 0.8288
vn 0.4098 0.03436 0.9115
vn 0.3343 0.01971 0.9422
vn 0.2836 0.01321 0.9588
vn 0.2374 0.01108 0.9713
vn 0.7274 0.0726 0.6824
vn 0.2259 0.08094 0.9708
vn 0.2254 0.03571 0.9736
vn -0.5224 0.05857 0.8506
vn -0.5275 0.02591 0.8491
vn -0.5287 0.01373 0.8487
vn 0.2252 0.01898 0.9741
vn 0.05698 0.9962 -0.06491
vn 0.09122 0.9864 0.1363
vn -0.6447 0.7543 0.124
vn -0.6078 0.7432 0.2796
vn -0.5855 0.6891 0.4268
vn 0.1144 0.9333 0.3405
vn -0.1136 0.8577 -0.5014
vn 0.002289 0.97 -0.2429
vn -0.7277 0.6506 -0.2173
vn -0.6846 0.7288 -0.0166
vn 0.174 0.6701 0.7215
vn 0.2022 0.4849 0.8509
vn -0.5425 0.4826 0.6876
vn -0.529 0.3497 0.7732
vn -0.5181 0.2409 0.8207
vn 0.2175 0.3316 0.918
vn 0.1396 0.8337 0.5342
vn -0.5676 0.6037 0.5598
vn -0.311 0.4017 -0.8613
vn -0.2788 0.5076 -0.8152
vn -0.8416 0.2734 -0.4658
vn -0.8021 0.3862 -0.4555
vn 0.2248 0.1872 0.9562
vn -0.5116 0.1368 0.8483
vn 0.2251 0.01093 0.9742
vn -0.5269 0.007874 0.8499
vn 0.8469 0.03449 -0.5306
vn 0.8547 0.02588 -0.5184
vn 0.8544 0.02692 -0.5188
vn 0.8555 0.0278 -0.517
vn 0.8529 0.03497 -0.5209
vn 0.8265 0.07453 -0.558
vn 0.732 0.1885 -0.6547
vn 0.8014 0.1193 -0.586
vn 0.9066 -0.05194 -0.4186
vn 0.8476 -0.03378 -0.5295
vn 0.923 -0.09262 -0.3734
vn 0.92 -0.06522 -0.3865
vn 0.9177 0 -0.3972
vn 0.92 0.06519 -0.3865
vn 0.923 0.09256 -0.3734
vn 0.9066 0.05191 -0.4186
vn 0.8015 -0.1193 -0.5859
vn 0.7324 -0.1882 -0.6543
vn 0.8558 -0.02756 -0.5165
vn 0.8549 -0.02655 -0.5181
vn 0.8551 -0.02554 -0.5178
vn 0.8267 -0.07434 -0.5576
vn 0.8531 -0.03485 -0.5206
vn -0.7734 0.5363 -0.3379
vn -0.7642 -0.5485 -0.3393
vn -0.799 -0.5503 -0.2423
vn -0.7614 -0.6257 -0.1695
vn -0.7519 -0.6433 -0.1443
vn -0.8466 -0.3895 -0.3627
vn -0.8325 -0.4702 -0.2929
vn -0.9112 -0.01172 -0.4117
vn -0.8645 -0.1695 -0.4732
vn -0.9014 -0.08673 -0.4242
vn -0.9061 -0.1175 -0.4064
vn -0.9065 -0.06229 -0.4175
vn -0.7614 0.6302 -0.152
vn -0.7696 0.614 -0.175
vn -0.8039 0.5426 -0.2437
vn -0.8346 0.4665 -0.2928
vn -0.8474 0.3877 -0.3626
vn -0.8647 0.169 -0.473
vn -0.9112 0.01175 -0.4117
vn -0.9065 0.06232 -0.4175
vn -0.9061 0.1176 -0.4064
vn -0.9014 0.08679 -0.4242
vn -0.8991 0 -0.4377
f 1/1/1 2/2/2 3/3/3
f 1/1/1 3/3/3 4/4/4
f 2/2/2 5/5/5 6/6/6
f 2/2/2 6/6/6 3/3/3
f 3/3/3 6/6/6 7/7/7
f 3/3/3 7/7/7 8/8/8
f 4/4/4 3/3/3 8/8/8
f 4/4/4 8/8/8 9/9/9
f 10/10/10 11/11/11 12/12/12
f 10/10/10 12/12/12 13/13/13
f 11/11/11 14/14/14 15/15/15
f 11/11/11 15/15/15 12/12/12
f 12/12/12 15/15/15 16/16/16
f 12/12/12 16/16/16 17/17/17
f 13/13/13 12/12/12 17/17/17
f 13/13/13 17/17/17 18/18/18
f 19/19/19 20/20/20 21/21/21
f 19/19/19 21/21/21 22/22/22
f 20/20/20 23/23/23 24/24/24
f 20/20/20 24/24/24 21/21/21
f 21/21/21 24/24/24 25/25/25
f 21/21/21 25/25/25 26/26/26
f 22/22/22 21/21/21 26/26/26
f 22/22/22 26/26/26 27/27/27
f 27/27/27 26/26/26 28/28/28
f 27/27/27 28/28/28 29/29/29
f 26/26/26 25/25/25 30/30/30
f 26/26/26 30/30/30 28/28/28
f 28/28/28 30/30/30 31/31/31
f 28/28/28 31/31/31 32/32/32
f 29/29/29 28/28/28 32/32/32
f 29/29/29 32/32/32 33/33/33
f 18/18/18 17/17/17 34/34/34
f 18/18/18 34/34/34 35/35/35
f 17/17/17 16/16/16 36/36/36
f 17/17/17 36/36/36 34/34/34
f 34/34/34 36/36/36 37/37/37
f 34/34/34 37/37/37 38/38/38
f 35/35/35 34/34/34 38/38/38
f 35/35/35 38/38/38 39/39/39
f 40/40/40 41/41/41 42/42/42
f 40/40/40 42/42/42 43/43/43
f 41/41/41 44/44/44 45/45/45
f 41/41/41 45/45/45 42/42/42
f 42/42/42 45/45/45 46/46/46
f 42/42/42 46/46/46 47/47/47
f 43/43/43 42/42/42 47/47/47
f 43/43/43 47/47/47 5/5/5
f 48/48/48 49/49/49 50/50/50
f 48/48/48 50/50/50 51/51/51
f 49/49/49 52/52/52 53/53/53
f 49/49/49 53/53/53 50/50/50
f 50/50/50 53/53/53 54/54/54
f 50/50/50 54/54/54 55/55/55
f 51/51/51 50/50/50 55/55/55
f 51/51/51 55/55/55 56/56/56
f 25/25/25 57/57/57 58/58/58
f 25/25/25 58/58/58 30/30/30
f 57/57/57 59/59/59 60/60/60
f 57/57/57 60/60/60 58/58/58
f 58/58/58 60/60/60 61/61/61
f 58/58/58 61/61/61 62/62/62
f 30/30/30 58/58/58 62/62/62
f 30/30/30 62/62/62 31/31/31
f 23/23/23 63/63/63 64/64/64
f 23/23/23 64/64/64 24/24/24
f 63/63/63 65/65/65 66/66/66
f 63/63/63 66/66/66 64/64/64
f 64/64/64 66/66/66 59/59/59
f 64/64/64 59/59/59 57/57/57
f 24/24/24 64/64/64 57/57/57
f 24/24/24 57/57/57 25/25/25
f 67/67/67 68/68/68 69/69/69
f 67/67/67 69/69/69 70/70/70
f 68/68/68 71/71/71 72/72/72
f 68/68/68 72/72/72 69/69/69
f 69/69/69 72/72/72 73/73/73
f 69/69/69 73/73/73 74/74/74
f 70/70/70 69/69/69 74/74/74
f 70/70/70 74/74/74 75/75/75
f 76/76/76 77/77/77 78/78/78
f 76/76/76 78/78/78 79/79/79
f 77/77/77 67/67/67 70/70/70
f 77/77/77 70/70/70 78/78/78
f 78/78/78 70/70/70 75/75/75
f 78/78/78 75/75/75 80/80/80
f 79/79/79 78/78/78 80/80/80
f 79/79/79 80/80/80 81/81/81
f 82/82/82 83/83/83 84/84/84
f 82/82/82 84/84/84 85/85/85
f 83/83/83 86/86/86 87/87/87
f 83/83/83 87/87/87 84/84/84
f 84/84/84 87/87/87 88/88/88
f 84/84/84 88/88/88 89/89/89
f 85/85/85 84/84/84 89/89/89
f 85/85/85 89/89/89 90/90/90
f 46/46/46 91/91/91 92/92/92
f 46/46/46 92/92/92 93/93/93
f 91/91/91 56/56/56 94/94/94
f 91/91/91 94/94/94 92/92/92
f 92/92/92 94/94/94 95/95/95
f 92/92/92 95/95/95 96/96/96
f 93/93/93 92/92/92 96/96/96
f 93/93/93 96/96/96 97/97/97
f 56/56/56 55/55/55 98/98/98
f 56/56/56 98/98/98 94/94/94
f 55/55/55 54/54/54 99/99/99
f 55/55/55 99/99/99 98/98/98
f 98/98/98 99/99/99 100/100/100
f 98/98/98 100/100/100 101/101/101
f 94/94/94 98/98/98 101/101/101
f 94/94/94 101/101/101 95/95/95
f 75/75/75 74/74/74 102/102/102
f 75/75/75 102/102/102 103/103/103
f 74/74/74 73/73/73 104/104/104
f 74/74/74 104/104/104 102/102/102
f 102/102/102 104/104/104 65/65/65
f 102/102/102 65/65/65 63/63/63
f 103/103/103 102/102/102 63/63/63
f 103/103/103 63/63/63 23/23/23
f 81/81/81 80/80/80 105/105/105
f 81/81/81 105/105/105 106/106/106
f 80/80/80 75/75/75 103/103/103
f 80/80/80 103/103/103 105/105/105
f 105/105/105 103/103/103 23/23/23
f 105/105/105 23/23/23 20/20/20
f 106/106/106 105/105/105 20/20/20
f 106/106/106 20/20/20 19/19/19
f 90/90/90 89/89/89 107/107/107
f 90/90/90 107/107/107 108/108/108
f 89/89/89 88/88/88 109/109/109
f 89/89/89 109/109/109 107/107/107
f 107/107/107 109/109/109 14/14/14
f 107/107/107 14/14/14 11/11/11
f 108/108/108 107/107/107 11/11/11
f 108/108/108 11/11/11 10/10/10
f 5/5/5 47/47/47 110/110/110
f 5/5/5 110/110/110 6/6/6
f 47/47/47 46/46/46 93/93/93
f 47/47/47 93/93/93 110/110/110
f 110/110/110 93/93/93 97/97/97
f 110/110/110 97/97/97 111/111/111
f 6/6/6 110/110/110 111/111/111
f 6/6/6 111/111/111 7/7/7
f 44/44/44 112/112/112 113/113/113
f 44/44/44 113/113/113 45/45/45
f 112/112/112 48/48/48 51/51/51
f 112/112/112 51/51/51 113/113/113
f 113/113/113 51/51/51 56/56/56
f 113/113/113 56/56/56 91/91/91
f 45/45/45 113/113/113 91/91/91
f 45/45/45 91/91/91 46/46/46
f 114/114/114 115/115/115 116/116/116
f 114/114/114 116/116/116 117/117/117
f 115/115/115 40/40/40 43/43/43
f 115/115/115 43/43/43 116/116/116
f 116/116/116 43/43/43 5/5/5
f 116/116/116 5/5/5 2/2/2
f 117/117/117 116/116/116 2/2/2
f 117/117/117 2/2/2 1/1/1
f 88/88/88 118/118/118 119/119/119
f 88/88/88 119/119/119 109/109/109
f 118/118/118 81/81/81 106/106/106
f 118/118/118 106/106/106 119/119/119
f 119/119/119 106/106/106 19/19/19
f 119/119/119 19/19/19 120/120/120
f 109/109/109 119/119/119 120/120/120
f 109/109/109 120/120/120 14/14/14
f 86/86/86 121/121/121 122/122/122
f 86/86/86 122/122/122 87/87/87
f 121/121/121 76/76/76 79/79/79
f 121/121/121 79/79/79 122/122/122
f 122/122/122 79/79/79 81/81/81
f 122/122/122 81/81/81 118/118/118
f 87/87/87 122/122/122 118/118/118
f 87/87/87 118/118/118 88/88/88
f 16/16/16 123/123/123 124/124/124
f 16/16/16 124/124/124 36/36/36
f 123/123/123 27/27/27 29/29/29
f 123/123/123 29/29/29 124/124/124
f 124/124/124 29/29/29 33/33/33
f 124/124/124 33/33/33 125/125/125
f 36/36/36 124/124/124 125/125/125
f 36/36/36 125/125/125 37/37/37
f 14/14/14 120/120/120 126/126/126
f 14/14/14 126/126/126 15/15/15
f 120/120/120 19/19/19 22/22/22
f 120/120/120 22/22/22 126/126/126
f 126/126/126 22/22/22 27/27/27
f 126/126/126 27/27/27 123/123/123
f 15/15/15 126/126/126 123/123/123
f 15/15/15 123/123/123 16/16/16
f 95/95/95 127/127/127 128/128/128
f 95/95/95 128/128/128 96/96/96
f 127/127/127 90/90/90 108/108/108
f 127/127/127 108/108/108 128/128/128
f 128/128/128 108/108/108 10/10/10
f 128/128/128 10/10/10 129/129/129
f 96/96/96 128/128/128 129/129/129
f 96/96/96 129/129/129 97/97/97
f 100/100/100 130/130/130 131/131/131
f 100/100/100 131/131/131 101/101/101
f 130/130/130 82/82/82 85/85/85
f 130/130/130 85/85/85 131/131/131
f 131/131/131 85/85/85 90/90/90
f 131/131/131 90/90/90 127/127/127
f 101/101/101 131/131/131 127/127/127
f 101/101/101 127/127/127 95/95/95
f 7/7/7 132/132/132 133/133/133
f 7/7/7 133/133/133 8/8/8
f 132/132/132 18/18/18 35/35/35
f 132/132/132 35/35/35 133/133/133
f 133/133/133 35/35/35 39/39/39
f 133/133/133 39/39/39 134/134/134
f 8/8/8 133/133/133 134/134/134
f 8/8/8 134/134/134 9/9/9
f 97/97/97 129/129/129 135/135/135
f 97/97/97 135/135/135 111/111/111
f 129/129/129 10/10/10 13/13/13
f 129/129/129 13/13/13 135/135/135
f 135/135/135 13/13/13 18/18/18
f 135/135/135 18/18/18 132/132/132
f 111/111/111 135/135/135 132/132/132
f 111/111/111 132/132/132 7/7/7
f 136/136/136 137/137/137 138/138/138
f 136/136/136 138/138/138 139/139/139
f 137/137/137 140/140/140 141/141/141
f 137/137/137 141/141/141 138/138/138
f 138/138/138 141/141/141 40/40/40
f 138/138/138 40/40/40 115/115/115
f 139/139/139 138/138/138 115/115/115
f 139/139/139 115/115/115 114/114/114
f 142/142/142 143/143/143 144/144/144
f 142/142/142 144/144/144 145/145/145
f 143/143/143 146/146/146 147/147/147
f 143/143/143 147/147/147 144/144/144
f 144/144/144 147/147/147 48/48/48
f 144/144/144 48/48/48 112/112/112
f 145/145/145 144/144/144 112/112/112
f 145/145/145 112/112/112 44/44/44
f 146/146/146 148/148/148 149/149/149
f 146/146/146 149/149/149 147/147/147
f 148/148/148 150/150/150 151/151/151
f 148/148/148 151/151/151 149/149/149
f 149/149/149 151/151/151 52/52/52
f 149/149/149 52/52/52 49/49/49
f 147/147/147 149/149/149 49/49/49
f 147/147/147 49/49/49 48/48/48
f 140/140/140 152/152/152 153/153/153
f 140/140/140 153/153/153 141/141/141
f 152/152/152 142/142/142 145/145/145
f 152/152/152 145/145/145 153/153/153
f 153/153/153 145/145/145 44/44/44
f 153/153/153 44/44/44 41/41/41
f 141/141/141 153/153/153 41/41/41
f 141/141/141 41/41/41 40/40/40
f 54/54/54 53/53/53 154/154/154
f 54/54/54 154/154/154 155/155/155
f 53/53/53 52/52/52 156/156/156
f 53/53/53 156/156/156 154/154/154
f 154/154/154 156/156/156 157/157/157
f 154/154/154 157/157/157 158/158/158
f 155/155/155 154/154/154 158/158/158
f 155/155/155 158/158/158 159/159/159
f 76/76/76 121/121/121 160/160/160
f 76/76/76 160/160/160 161/161/161
f 121/121/121 86/86/86 162/162/162
f 121/121/121 162/162/162 160/160/160
f 160/160/160 162/162/162 163/163/163
f 160/160/160 163/163/163 164/164/164
f 161/161/161 160/160/160 164/164/164
f 161/161/161 164/164/164 165/165/165
f 67/67/67 77/77/77 166/166/166
f 67/67/67 166/166/166 167/167/167
f 77/77/77 76/76/76 161/161/161
f 77/77/77 161/161/161 166/166/166
f 166/166/166 161/161/161 165/165/165
f 166/166/166 165/165/165 168/168/168
f 167/167/167 166/166/166 168/168/168
f 167/167/167 168/168/168 169/169/169
f 82/82/82 130/130/130 170/170/170
f 82/82/82 170/170/170 171/171/171
f 130/130/130 100/100/100 172/172/172
f 130/130/130 172/172/172 170/170/170
f 170/170/170 172/172/172 173/173/173
f 170/170/170 173/173/173 174/174/174
f 171/171/171 170/170/170 174/174/174
f 171/171/171 174/174/174 175/175/175
f 86/86/86 83/83/83 176/176/176
f 86/86/86 176/176/176 162/162/162
f 83/83/83 82/82/82 171/171/171
f 83/83/83 171/171/171 176/176/176
f 176/176/176 171/171/171 175/175/175
f 176/176/176 175/175/175 177/177/177
f 162/162/162 176/176/176 177/177/177
f 162/162/162 177/177/177 163/163/163
f 71/71/71 68/68/68 178/178/178
f 71/71/71 178/178/178 179/179/179
f 68/68/68 67/67/67 167/167/167
f 68/68/68 167/167/167 178/178/178
f 178/178/178 167/167/167 169/169/169
f 178/178/178 169/169/169 180/180/180
f 179/179/179 178/178/178 180/180/180
f 179/179/179 180/180/180 181/181/181
f 100/100/100 99/99/99 182/182/182
f 100/100/100 182/182/182 172/172/172
f 99/99/99 54/54/54 155/155/155
f 99/99/99 155/155/155 182/182/182
f 182/182/182 155/155/155 159/159/159
f 182/182/182 159/159/159 183/183/183
f 172/172/172 182/182/182 183/183/183
f 172/172/172 183/183/183 173/173/173
f 52/52/52 151/151/151 184/184/184
f 52/52/52 184/184/184 156/156/156
f 151/151/151 150/150/150 185/185/185
f 151/151/151 185/185/185 184/184/184
f 184/184/184 185/185/185 186/186/186
f 184/184/184 186/186/186 187/187/187
f 156/156/156 184/184/184 187/187/187
f 156/156/156 187/187/187 157/157/157
f 188/188/188 189/189/189 190/190/190
f 188/188/188 190/190/190 191/191/191
f 189/189/189 192/192/192 193/193/193
f 189/189/189 193/193/193 190/190/190
f 190/190/190 193/193/193 194/194/194
f 190/190/190 194/194/194 195/195/195
f 191/191/191 190/190/190 195/195/195
f 191/191/191 195/195/195 196/196/196
f 197/197/197 198/198/198 199/199/199
f 197/197/197 199/199/199 200/200/200
f 198/198/198 201/201/201 202/202/202
f 198/198/198 202/202/202 199/199/199
f 199/199/199 202/202/202 203/203/203
f 199/199/199 203/203/203 204/204/204
f 200/200/200 199/199/199 204/204/204
f 200/200/200 204/204/204 205/205/205
f 206/206/206 207/207/207 208/208/208
f 206/206/206 208/208/208 209/209/209
f 207/207/207 210/210/210 211/211/211
f 207/207/207 211/211/211 208/208/208
f 208/208/208 211/211/211 212/212/212
f 208/208/208 212/212/212 213/213/213
f 209/209/209 208/208/208 213/213/213
f 209/209/209 213/213/213 214/214/214
f 210/210/210 215/215/215 216/216/216
f 210/210/210 216/216/216 211/211/211
f 215/215/215 217/217/217 218/218/218
f 215/215/215 218/218/218 216/216/216
f 216/216/216 218/218/218 219/219/219
f 216/216/216 219/219/219 220/220/220
f 211/211/211 216/216/216 220/220/220
f 211/211/211 220/220/220 212/212/212
f 201/201/201 221/221/221 222/222/222
f 201/201/201 222/222/222 202/202/202
f 221/221/221 223/223/223 224/224/224
f 221/221/221 224/224/224 222/222/222
f 222/222/222 224/224/224 225/225/225
f 222/222/222 225/225/225 226/226/226
f 202/202/202 222/222/222 226/226/226
f 202/202/202 226/226/226 203/203/203
f 227/227/227 228/228/228 229/229/229
f 227/227/227 229/229/229 230/230/230
f 228/228/228 196/196/196 231/231/231
f 228/228/228 231/231/231 229/229/229
f 229/229/229 231/231/231 232/232/232
f 229/229/229 232/232/232 233/233/233
f 230/230/230 229/229/229 233/233/233
f 230/230/230 233/233/233 234/234/234
f 235/235/235 236/236/236 237/237/237
f 235/235/235 237/237/237 238/238/238
f 236/236/236 239/239/239 240/240/240
f 236/236/236 240/240/240 237/237/237
f 237/237/237 240/240/240 241/241/241
f 237/237/237 241/241/241 242/242/242
f 238/238/238 237/237/237 242/242/242
f 238/238/238 242/242/242 243/243/243
f 212/212/212 220/220/220 244/244/244
f 212/212/212 244/244/244 245/245/245
f 220/220/220 219/219/219 246/246/246
f 220/220/220 246/246/246 244/244/244
f 244/244/244 246/246/246 247/247/247
f 244/244/244 247/247/247 248/248/248
f 245/245/245 244/244/244 248/248/248
f 245/245/245 248/248/248 249/249/249
f 214/214/214 213/213/213 250/250/250
f 214/214/214 250/250/250 251/251/251
f 213/213/213 212/212/212 245/245/245
f 213/213/213 245/245/245 250/250/250
f 250/250/250 245/245/245 249/249/249
f 250/250/250 249/249/249 252/252/252
f 251/251/251 250/250/250 252/252/252
f 251/251/251 252/252/252 253/253/253
f 254/254/254 255/255/255 256/256/256
f 254/254/254 256/256/256 257/257/257
f 255/255/255 258/258/258 259/259/259
f 255/255/255 259/259/259 256/256/256
f 256/256/256 259/259/259 260/260/260
f 256/256/256 260/260/260 261/261/261
f 257/257/257 256/256/256 261/261/261
f 257/257/257 261/261/261 262/262/262
f 263/263/263 264/264/264 265/265/265
f 263/263/263 265/265/265 266/266/266
f 264/264/264 267/267/267 268/268/268
f 264/264/264 268/268/268 265/265/265
f 265/265/265 268/268/268 258/258/258
f 265/265/265 258/258/258 255/255/255
f 266/266/266 265/265/265 255/255/255
f 266/266/266 255/255/255 254/254/254
f 269/269/269 270/270/270 271/271/271
f 269/269/269 271/271/271 272/272/272
f 270/270/270 273/273/273 274/274/274
f 270/270/270 274/274/274 271/271/271
f 271/271/271 274/274/274 275/275/275
f 271/271/271 275/275/275 276/276/276
f 272/272/272 271/271/271 276/276/276
f 272/272/272 276/276/276 277/277/277
f 232/232/232 278/278/278 279/279/279
f 232/232/232 279/279/279 280/280/280
f 278/278/278 281/281/281 282/282/282
f 278/278/278 282/282/282 279/279/279
f 279/279/279 282/282/282 283/283/283
f 279/279/279 283/283/283 284/284/284
f 280/280/280 279/279/279 284/284/284
f 280/280/280 284/284/284 239/239/239
f 239/239/239 284/284/284 285/285/285
f 239/239/239 285/285/285 240/240/240
f 284/284/284 283/283/283 286/286/286
f 284/284/284 286/286/286 285/285/285
f 285/285/285 286/286/286 287/287/287
f 285/285/285 287/287/287 288/288/288
f 240/240/240 285/285/285 288/288/288
f 240/240/240 288/288/288 241/241/241
f 258/258/258 289/289/289 290/290/290
f 258/258/258 290/290/290 259/259/259
f 289/289/289 214/214/214 251/251/251
f 289/289/289 251/251/251 290/290/290
f 290/290/290 251/251/251 253/253/253
f 290/290/290 253/253/253 291/291/291
f 259/259/259 290/290/290 291/291/291
f 259/259/259 291/291/291 260/260/260
f 267/267/267 292/292/292 293/293/293
f 267/267/267 293/293/293 268/268/268
f 292/292/292 206/206/206 209/209/209
f 292/292/292 209/209/209 293/293/293
f 293/293/293 209/209/209 214/214/214
f 293/293/293 214/214/214 289/289/289
f 268/268/268 293/293/293 289/289/289
f 268/268/268 289/289/289 258/258/258
f 273/273/273 294/294/294 295/295/295
f 273/273/273 295/295/295 274/274/274
f 294/294/294 197/197/197 200/200/200
f 294/294/294 200/200/200 295/295/295
f 295/295/295 200/200/200 205/205/205
f 295/295/295 205/205/205 296/296/296
f 274/274/274 295/295/295 296/296/296
f 274/274/274 296/296/296 275/275/275
f 196/196/196 195/195/195 297/297/297
f 196/196/196 297/297/297 231/231/231
f 195/195/195 194/194/194 298/298/298
f 195/195/195 298/298/298 297/297/297
f 297/297/297 298/298/298 281/281/281
f 297/297/297 281/281/281 278/278/278
f 231/231/231 297/297/297 278/278/278
f 231/231/231 278/278/278 232/232/232
f 234/234/234 233/233/233 299/299/299
f 234/234/234 299/299/299 300/300/300
f 233/233/233 232/232/232 280/280/280
f 233/233/233 280/280/280 299/299/299
f 299/299/299 280/280/280 239/239/239
f 299/299/299 239/239/239 236/236/236
f 300/300/300 299/299/299 236/236/236
f 300/300/300 236/236/236 235/235/235
f 301/301/301 302/302/302 303/303/303
f 301/301/301 303/303/303 304/304/304
f 302/302/302 188/188/188 191/191/191
f 302/302/302 191/191/191 303/303/303
f 303/303/303 191/191/191 196/196/196
f 303/303/303 196/196/196 228/228/228
f 304/304/304 303/303/303 228/228/228
f 304/304/304 228/228/228 227/227/227
f 275/275/275 296/296/296 305/305/305
f 275/275/275 305/305/305 306/306/306
f 296/296/296 205/205/205 307/307/307
f 296/296/296 307/307/307 305/305/305
f 305/305/305 307/307/307 206/206/206
f 305/305/305 206/206/206 292/292/292
f 306/306/306 305/305/305 292/292/292
f 306/306/306 292/292/292 267/267/267
f 277/277/277 276/276/276 308/308/308
f 277/277/277 308/308/308 309/309/309
f 276/276/276 275/275/275 306/306/306
f 276/276/276 306/306/306 308/308/308
f 308/308/308 306/306/306 267/267/267
f 308/308/308 267/267/267 264/264/264
f 309/309/309 308/308/308 264/264/264
f 309/309/309 264/264/264 263/263/263
f 203/203/203 226/226/226 310/310/310
f 203/203/203 310/310/310 311/311/311
f 226/226/226 225/225/225 312/312/312
f 226/226/226 312/312/312 310/310/310
f 310/310/310 312/312/312 217/217/217
f 310/310/310 217/217/217 215/215/215
f 311/311/311 310/310/310 215/215/215
f 311/311/311 215/215/215 210/210/210
f 205/205/205 204/204/204 313/313/313
f 205/205/205 313/313/313 307/307/307
f 204/204/204 203/203/203 311/311/311
f 204/204/204 311/311/311 313/313/313
f 313/313/313 311/311/311 210/210/210
f 313/313/313 210/210/210 207/207/207
f 307/307/307 313/313/313 207/207/207
f 307/307/307 207/207/207 206/206/206
f 283/283/283 282/282/282 314/314/314
f 283/283/283 314/314/314 315/315/315
f 282/282/282 281/281/281 316/316/316
f 282/282/282 316/316/316 314/314/314
f 314/314/314 316/316/316 197/197/197
f 314/314/314 197/197/197 294/294/294
f 315/315/315 314/314/314 294/294/294
f 315/315/315 294/294/294 273/273/273
f 287/287/287 286/286/286 317/317/317
f 287/287/287 317/317/317 318/318/318
f 286/286/286 283/283/283 315/315/315
f 286/286/286 315/315/315 317/317/317
f 317/317/317 315/315/315 273/273/273
f 317/317/317 273/273/273 270/270/270
f 318/318/318 317/317/317 270/270/270
f 318/318/318 270/270/270 269/269/269
f 194/194/194 193/193/193 319/319/319
f 194/194/194 319/319/319 320/320/320
f 193/193/193 192/192/192 321/321/321
f 193/193/193 321/321/321 319/319/319
f 319/319/319 321/321/321 223/223/223
f 319/319/319 223/223/223 221/221/221
f 320/320/320 319/319/319 221/221/221
f 320/320/320 221/221/221 201/201/201
f 281/281/281 298/298/298 322/322/322
f 281/281/281 322/322/322 316/316/316
f 298/298/298 194/194/194 320/320/320
f 298/298/298 320/320/320 322/322/322
f 322/322/322 320/320/320 201/201/201
f 322/322/322 201/201/201 198/198/198
f 316/316/316 322/322/322 198/198/198
f 316/316/316 198/198/198 197/197/197
f 136/136/136 323/323/323 324/324/324
f 136/136/136 324/324/324 137/137/137
f 323/323/323 301/301/301 304/304/304
f 323/323/323 304/304/304 324/324/324
f 324/324/324 304/304/304 227/227/227
f 324/324/324 227/227/227 325/325/325
f 137/137/137 324/324/324 325/325/325
f 137/137/137 325/325/325 140/140/140
f 142/142/142 326/326/326 327/327/327
f 142/142/142 327/327/327 143/143/143
f 326/326/326 234/234/234 300/300/300
f 326/326/326 300/300/300 327/327/327
f 327/327/327 300/300/300 235/235/235
f 327/327/327 235/235/235 328/328/328
f 143/143/143 327/327/327 328/328/328
f 143/143/143 328/328/328 146/146/146
f 146/146/146 328/328/328 329/329/329
f 146/146/146 329/329/329 148/148/148
f 328/328/328 235/235/235 238/238/238
f 328/328/328 238/238/238 329/329/329
f 329/329/329 238/238/238 243/243/243
f 329/329/329 243/243/243 330/330/330
f 148/148/148 329/329/329 330/330/330
f 148/148/148 330/330/330 150/150/150
f 140/140/140 325/325/325 331/331/331
f 140/140/140 331/331/331 152/152/152
f 325/325/325 227/227/227 230/230/230
f 325/325/325 230/230/230 331/331/331
f 331/331/331 230/230/230 234/234/234
f 331/331/331 234/234/234 326/326/326
f 152/152/152 331/331/331 326/326/326
f 152/152/152 326/326/326 142/142/142
f 241/241/241 332/332/332 333/333/333
f 241/241/241 333/333/333 242/242/242
f 332/332/332 334/334/334 335/335/335
f 332/332/332 335/335/335 333/333/333
f 333/333/333 335/335/335 336/336/336
f 333/333/333 336/336/336 337/337/337
f 242/242/242 333/333/333 337/337/337
f 242/242/242 337/337/337 243/243/243
f 263/263/263 338/338/338 339/339/339
f 263/263/263 339/339/339 309/309/309
f 338/338/338 340/340/340 341/341/341
f 338/338/338 341/341/341 339/339/339
f 339/339/339 341/341/341 342/342/342
f 339/339/339 342/342/342 343/343/343
f 309/309/309 339/339/339 343/343/343
f 309/309/309 343/343/343 277/277/277
f 254/254/254 344/344/344 345/345/345
f 254/254/254 345/345/345 266/266/266
f 344/344/344 346/346/346 347/347/347
f 344/344/344 347/347/347 345/345/345
f 345/345/345 347/347/347 340/340/340
f 345/345/345 340/340/340 338/338/338
f 266/266/266 345/345/345 338/338/338
f 266/266/266 338/338/338 263/263/263
f 269/269/269 348/348/348 349/349/349
f 269/269/269 349/349/349 318/318/318
f 348/348/348 350/350/350 351/351/351
f 348/348/348 351/351/351 349/349/349
f 349/349/349 351/351/351 352/352/352
f 349/349/349 352/352/352 353/353/353
f 318/318/318 349/349/349 353/353/353
f 318/318/318 353/353/353 287/287/287
f 277/277/277 343/343/343 354/354/354
f 277/277/277 354/354/354 272/272/272
f 343/343/343 342/342/342 355/355/355
f 343/343/343 355/355/355 354/354/354
f 354/354/354 355/355/355 350/350/350
f 354/354/354 350/350/350 348/348/348
f 272/272/272 354/354/354 348/348/348
f 272/272/272 348/348/348 269/269/269
f 262/262/262 356/356/356 357/357/357
f 262/262/262 357/357/357 257/257/257
f 356/356/356 358/358/358 359/359/359
f 356/356/356 359/359/359 357/357/357
f 357/357/357 359/359/359 346/346/346
f 357/357/357 346/346/346 344/344/344
f 257/257/257 357/357/357 344/344/344
f 257/257/257 344/344/344 254/254/254
f 287/287/287 353/353/353 360/360/360
f 287/287/287 360/360/360 288/288/288
f 353/353/353 352/352/352 361/361/361
f 353/353/353 361/361/361 360/360/360
f 360/360/360 361/361/361 334/334/334
f 360/360/360 334/334/334 332/332/332
f 288/288/288 360/360/360 332/332/332
f 288/288/288 332/332/332 241/241/241
f 243/243/243 337/337/337 362/362/362
f 243/243/243 362/362/362 330/330/330
f 337/337/337 336/336/336 363/363/363
f 337/337/337 363/363/363 362/362/362
f 362/362/362 363/363/363 186/186/186
f 362/362/362 186/186/186 185/185/185
f 330/330/330 362/362/362 185/185/185
f 330/330/330 185/185/185 150/150/150
f 37/37/37 125/125/125 33/33/33
f 33/33/33 32/32/32 31/31/31
f 31/31/31 62/62/62 61/61/61
f 33/33/33 31/31/31 61/61/61
f 38/38/38 37/37/37 33/33/33
f 134/134/134 39/39/39 38/38/38
f 4/4/4 9/9/9 134/134/134
f 117/117/117 1/1/1 4/4/4
f 139/139/139 114/114/114 117/117/117
f 301/301/301 323/323/323 136/136/136
f 136/136/136 139/139/139 117/117/117
f 117/117/117 4/4/4 134/134/134
f 134/134/134 38/38/38 33/33/33
f 33/33/33 61/61/61 364/364/364
f 365/365/365 366/366/366 367/367/367
f 134/134/134 33/33/33 364/364/364
f 365/365/365 367/367/367 368/368/368
f 134/134/134 364/364/364 365/365/365
f 136/136/136 117/117/117 134/134/134
f 302/302/302 301/301/301 136/136/136
f 189/189/189 188/188/188 302/302/302
f 321/321/321 192/192/192 189/189/189
f 224/224/224 223/223/223 321/321/321
f 312/312/312 225/225/225 224/224/224
f 218/218/218 217/217/217 312/312/312
f 246/246/246 219/219/219 218/218/218
f 247/247/247 246/246/246 218/218/218
f 218/218/218 312/312/312 224/224/224
f 224/224/224 321/321/321 189/189/189
f 189/189/189 302/302/302 136/136/136
f 136/136/136 134/134/134 365/365/365
f 365/365/365 368/368/368 369/369/369
f 369/369/369 370/370/370 371/371/371
f 369/369/369 371/371/371 372/372/372
f 136/136/136 365/365/365 369/369/369
f 224/224/224 189/189/189 136/136/136
f 247/247/247 218/218/218 224/224/224
f 373/373/373 247/247/247 224/224/224
f 224/224/224 136/136/136 369/369/369
f 369/369/369 372/372/372 374/374/374
f 374/374/374 375/375/375 376/376/376
f 376/376/376 377/377/377 378/378/378
f 379/379/379 380/380/380 381/381/381
f 376/376/376 378/378/378 379/379/379
f 369/369/369 374/374/374 376/376/376
f 373/373/373 224/224/224 369/369/369
f 382/382/382 383/383/383 384/384/384
f 384/384/384 373/373/373 369/369/369
f 369/369/369 376/376/376 379/379/379
f 379/379/379 381/381/381 385/385/385
f 385/385/385 386/386/386 382/382/382
f 382/382/382 384/384/384 369/369/369
f 369/369/369 379/379/379 385/385/385
f 369/369/369 385/385/385 382/382/382
f 158/158/158 157/157/157 187/187/187
f 187/187/187 186/186/186 363/363/363
f 363/363/363 336/336/336 335/335/335
f 335/335/335 334/334/334 361/361/361
f 361/361/361 352/352/352 351/351/351
f 351/351/351 350/350/350 355/355/355
f 355/355/355 342/342/342 341/341/341
f 341/341/341 340/340/340 347/347/347
f 347/347/347 346/346/346 359/359/359
f 347/347/347 359/359/359 358/358/358
f 355/355/355 341/341/341 347/347/347
f 361/361/361 351/351/351 355/355/355
f 363/363/363 335/335/335 361/361/361
f 158/158/158 187/187/187 363/363/363
f 183/183/183 159/159/159 158/158/158
f 174/174/174 173/173/173 183/183/183
f 177/177/177 175/175/175 174/174/174
f 164/164/164 163/163/163 177/177/177
f 168/168/168 165/165/165 164/164/164
f 180/180/180 169/169/169 168/168/168
f 181/181/181 180/180/180 168/168/168
f 168/168/168 164/164/164 177/177/177
f 177/177/177 174/174/174 183/183/183
f 183/183/183 158/158/158 363/363/363
f 363/363/363 361/361/361 355/355/355
f 355/355/355 347/347/347 358/358/358
f 355/355/355 358/358/358 387/387/387
f 183/183/183 363/363/363 355/355/355
f 168/168/168 177/177/177 183/183/183
f 388/388/388 181/181/181 168/168/168
f 389/389/389 390/390/390 391/391/391
f 388/388/388 168/168/168 183/183/183
f 389/389/389 391/391/391 388/388/388
f 392/392/392 393/393/393 389/389/389
f 394/394/394 395/395/395 392/392/392
f 396/396/396 397/397/397 398/398/398
f 398/398/398 394/394/394 392/392/392
f 392/392/392 389/389/389 388/388/388
f 388/388/388 183/183/183 355/355/355
f 355/355/355 387/387/387 399/399/399
f 399/399/399 400/400/400 401/401/401
f 401/401/401 402/402/402 403/403/403
f 403/403/403 404/404/404 405/405/405
f 406/406/406 407/407/407 408/408/408
f 403/403/403 405/405/405 406/406/406
f 399/399/399 401/401/401 403/403/403
f 388/388/388 355/355/355 399/399/399
f 398/398/398 392/392/392 388/388/388
f 409/409/409 396/396/396 398/398/398
f 406/406/406 408/408/408 409/409/409
f 399/399/399 403/403/403 406/406/406
f 398/398/398 388/388/388 399/399/399
f 406/406/406 409/409/409 398/398/398
f 399/399/399 406/406/406 398/398/398
