v 0.301239 0.280226 1.14489
v 0.301418 0.272982 1.13831
v 0.304775 0.259289 1.1586
v 0.301217 0.278266 1.15722
v 0.302603 0.268392 1.13
v 0.303616 0.260303 1.13235
v 0.306872 0.253426 1.13199
v 0.308308 0.247508 1.14268
v 0.312959 0.241431 1.15133
v 0.313687 0.242672 1.16209
v 0.317864 0.24371 1.17211
v 0.315755 0.250171 1.17697
v 0.316619 0.255332 1.18434
v 0.312401 0.261084 1.18278
v 0.310283 0.267574 1.18458
v 0.30544 0.271663 1.17647
v 0.302676 0.278612 1.16967
v 0.304527 0.28742 1.14259
v 0.30555 0.281564 1.13116
v 0.310019 0.291705 1.14311
v 0.312017 0.286482 1.1305
v 0.314707 0.278122 1.12264
v 0.307281 0.273305 1.12396
v 0.305144 0.284187 1.17353
v 0.3039 0.287774 1.15814
v 0.309793 0.286887 1.17572
v 0.308871 0.29148 1.15973
v 0.319809 0.278456 1.12694
v 0.318672 0.279339 1.12441
v 0.315834 0.286884 1.13204
v 0.317336 0.285141 1.13386
v 0.313573 0.291429 1.14419
v 0.315256 0.289159 1.14504
v 0.31222 0.29079 1.16017
v 0.313893 0.288409 1.15987
v 0.312879 0.286137 1.17538
v 0.31435 0.284049 1.17398
v 0.323304 0.282291 1.12841
v 0.320578 0.278321 1.12844
v 0.318266 0.284437 1.13498
v 0.320331 0.287893 1.13526
v 0.316241 0.288056 1.14559
v 0.317663 0.290723 1.14625
v 0.314828 0.287117 1.15978
v 0.315814 0.288691 1.16079
v 0.315158 0.282815 1.17326
v 0.316019 0.283402 1.17455
v 0.323553 0.306533 1.14893
v 0.326682 0.311023 1.15064
v 0.333538 0.312597 1.13657
v 0.329552 0.306974 1.13513
v 0.329864 0.311764 1.15249
v 0.33661 0.313923 1.13932
v 0.343977 0.311346 1.13033
v 0.341099 0.309323 1.12708
v 0.336179 0.302946 1.12599
v 0.319458 0.289038 1.18239
v 0.321931 0.290802 1.18417
v 0.322224 0.302395 1.16808
v 0.319624 0.299363 1.16628
v 0.325006 0.291231 1.18339
v 0.325422 0.302823 1.16861
v 0.336521 0.309334 1.1568
v 0.333315 0.310233 1.15449
v 0.329256 0.301675 1.16827
v 0.332837 0.301144 1.16853
v 0.328667 0.290849 1.18078
v 0.332091 0.290992 1.17904
v 0.352428 0.267587 1.19609
v 0.352036 0.270043 1.19103
v 0.345305 0.272201 1.19331
v 0.344563 0.270302 1.19866
v 0.351678 0.272509 1.18713
v 0.34602 0.274229 1.18914
v 0.340523 0.277528 1.18858
v 0.338754 0.276041 1.19251
v 0.336887 0.274808 1.19758
v 0.329328 0.292159 1.12701
v 0.333918 0.286255 1.12362
v 0.326373 0.276225 1.12567
v 0.342403 0.297242 1.12193
v 0.348583 0.288941 1.12435
v 0.338683 0.278581 1.12613
v 0.32981 0.269173 1.12823
v 0.339097 0.311723 1.15969
v 0.344019 0.314591 1.15018
v 0.341589 0.311906 1.1469
v 0.341888 0.317627 1.16389
v 0.347231 0.32101 1.15392
v 0.352617 0.320127 1.14678
v 0.348961 0.31352 1.14341
v 0.346771 0.31054 1.13992
v 0.345723 0.326434 1.1699
v 0.35176 0.330569 1.15909
v 0.350134 0.33658 1.17686
v 0.356943 0.341612 1.16512
v 0.36399 0.341284 1.15664
v 0.357908 0.329924 1.15132
v 0.337144 0.296992 1.18584
v 0.340588 0.302967 1.19355
v 0.341414 0.31569 1.18243
v 0.337978 0.30826 1.17552
v 0.344777 0.309905 1.20244
v 0.345477 0.324259 1.19042
v 0.354151 0.322412 1.21708
v 0.359099 0.326416 1.21957
v 0.358909 0.341618 1.20764
v 0.354187 0.338601 1.2042
v 0.363334 0.328908 1.21914
v 0.363076 0.342376 1.20861
v 0.366646 0.354404 1.19675
v 0.363037 0.355147 1.19415
v 0.358789 0.352895 1.18967
v 0.370214 0.361323 1.18243
v 0.366437 0.359273 1.177
v 0.373039 0.359958 1.18663
v 0.380105 0.360429 1.17951
v 0.378086 0.361855 1.17394
v 0.37471 0.359645 1.16782
v 0.384731 0.359304 1.16977
v 0.381689 0.356807 1.16327
v 0.386036 0.358019 1.17623
v 0.391549 0.351763 1.17765
v 0.391053 0.352251 1.17115
v 0.388347 0.349171 1.16464
v 0.363055 0.326975 1.14745
v 0.357123 0.317264 1.14323
v 0.369902 0.338274 1.15242
v 0.375546 0.331066 1.15344
v 0.367974 0.32034 1.14835
v 0.361433 0.311167 1.14406
v 0.373313 0.308976 1.15447
v 0.366118 0.300885 1.14969
v 0.381667 0.318528 1.16023
v 0.386271 0.30525 1.17138
v 0.377365 0.297066 1.16459
v 0.369708 0.290221 1.15897
v 0.397877 0.339664 1.1787
v 0.39556 0.33557 1.17258
v 0.397337 0.340985 1.18417
v 0.401472 0.32932 1.19413
v 0.402916 0.326039 1.19045
v 0.400921 0.320915 1.18513
v 0.403725 0.316098 1.20377
v 0.401844 0.310356 1.19956
v 0.401913 0.320587 1.20536
v 0.398775 0.315026 1.21564
v 0.40035 0.309936 1.21596
v 0.398305 0.303926 1.21287
v 0.378234 0.28897 1.17684
v 0.370551 0.283124 1.17019
v 0.387173 0.296024 1.18476
v 0.384158 0.290728 1.19742
v 0.375645 0.284507 1.18849
v 0.368339 0.279382 1.18088
v 0.37005 0.282505 1.19713
v 0.363401 0.277872 1.18887
v 0.377841 0.288152 1.20673
v 0.370162 0.28766 1.21234
v 0.36319 0.28235 1.20239
v 0.357292 0.277993 1.19377
v 0.393721 0.306583 1.22478
v 0.391226 0.300496 1.22253
v 0.392931 0.311994 1.22313
v 0.386128 0.310874 1.22763
v 0.385822 0.305422 1.22996
v 0.382735 0.299409 1.22823
v 0.378393 0.306135 1.2318
v 0.374727 0.300341 1.23027
v 0.379864 0.311295 1.22937
v 0.37377 0.31383 1.22869
v 0.371155 0.309245 1.23078
v 0.366935 0.303838 1.22919
v 0.356686 0.283755 1.20446
v 0.351478 0.279455 1.19575
v 0.362902 0.288962 1.21447
v 0.355868 0.292565 1.21362
v 0.350385 0.287191 1.20376
v 0.345841 0.282696 1.19518
v 0.344266 0.29334 1.20048
v 0.340381 0.288336 1.19222
v 0.349003 0.299228 1.20998
v 0.363947 0.315585 1.22709
v 0.359225 0.310767 1.22519
v 0.367582 0.31934 1.22564
v 0.367691 0.331161 1.21583
v 0.366107 0.330324 1.2172
v 0.369627 0.321821 1.22266
v 0.370621 0.323156 1.22051
v 0.374613 0.317032 1.22484
v 0.37472 0.318726 1.22197
v 0.370835 0.352098 1.19789
v 0.376221 0.356629 1.19064
v 0.374839 0.357708 1.18904
v 0.369109 0.352812 1.19746
v 0.3821 0.356525 1.18648
v 0.381172 0.357904 1.18362
v 0.382075 0.317514 1.21935
v 0.382245 0.317739 1.21959
v 0.378609 0.317464 1.22173
v 0.378306 0.317254 1.22146
v 0.384365 0.316391 1.22311
v 0.380151 0.316328 1.22514
v 0.376225 0.318312 1.22556
v 0.375197 0.318994 1.22237
v 0.371278 0.323595 1.22114
v 0.371965 0.323536 1.22423
v 0.369354 0.332794 1.22
v 0.368607 0.331889 1.21681
v 0.345485 0.31074 1.13514
v 0.339216 0.312642 1.14307
v 0.349323 0.316692 1.2109
v 0.349711 0.332436 1.19812
v 0.354491 0.346166 1.1837
v 0.387741 0.314325 1.22879
v 0.382583 0.314582 1.23065
v 0.392312 0.312402 1.23681
v 0.385986 0.312963 1.23864
v 0.380094 0.316379 1.23843
v 0.377798 0.317252 1.23072
v 0.372935 0.323416 1.22919
v 0.374338 0.323679 1.23669
v 0.371605 0.336206 1.23238
v 0.370335 0.334131 1.22501
v 0.375035 0.342651 1.25366
v 0.373149 0.339187 1.24241
v 0.37627 0.324636 1.24716
v 0.378719 0.326037 1.25899
v 0.383249 0.316108 1.24908
v 0.387067 0.316275 1.26104
v 0.380972 0.369527 1.21501
v 0.38519 0.37788 1.22287
v 0.393948 0.386516 1.21176
v 0.388411 0.376957 1.2054
v 0.389685 0.386714 1.2312
v 0.399898 0.396534 1.21848
v 0.408834 0.395985 1.20873
v 0.401742 0.386055 1.20326
v 0.395263 0.376572 1.1982
v 0.404436 0.310729 1.25889
v 0.411001 0.310458 1.2702
v 0.401065 0.311423 1.27285
v 0.395572 0.311598 1.26125
v 0.418055 0.310559 1.28187
v 0.407182 0.311621 1.28472
v 0.396472 0.317404 1.28454
v 0.391382 0.316659 1.27269
v 0.381723 0.327601 1.27055
v 0.385627 0.329484 1.28228
v 0.380695 0.349964 1.27594
v 0.377413 0.346178 1.26469
v 0.425935 0.311311 1.2946
v 0.414213 0.312475 1.29757
v 0.434343 0.31329 1.30759
v 0.421963 0.314524 1.31067
v 0.409721 0.321245 1.31027
v 0.402626 0.318784 1.29728
v 0.390761 0.331952 1.29485
v 0.397094 0.33529 1.30766
v 0.391172 0.359139 1.30044
v 0.38527 0.354288 1.28804
v 0.442848 0.317211 1.31969
v 0.430151 0.318446 1.32288
v 0.451135 0.324044 1.3298
v 0.438651 0.32523 1.33301
v 0.426302 0.331987 1.33268
v 0.417592 0.325353 1.32247
v 0.404585 0.339848 1.31976
v 0.41353 0.346216 1.33002
v 0.407519 0.37038 1.32264
v 0.398443 0.364473 1.31229
v 0.458967 0.334467 1.33709
v 0.447388 0.335568 1.34014
v 0.466318 0.347722 1.34173
v 0.456348 0.348684 1.34439
v 0.446539 0.353958 1.34426
v 0.435949 0.341768 1.33992
v 0.424224 0.354798 1.3375
v 0.436623 0.364997 1.3422
v 0.432134 0.383703 1.33637
v 0.418798 0.376898 1.33069
v 0.472867 0.362333 1.34375
v 0.465232 0.363428 1.34573
v 0.476867 0.37445 1.34236
v 0.472757 0.378925 1.34243
v 0.465659 0.378089 1.34391
v 0.457501 0.367194 1.34574
v 0.45029 0.375955 1.34396
v 0.463873 0.387054 1.34117
v 0.458622 0.394981 1.33908
v 0.446711 0.39024 1.33948
v 0.495442 0.394452 1.31349
v 0.491908 0.404083 1.31233
v 0.480117 0.400101 1.33007
v 0.492005 0.388266 1.32365
v 0.489517 0.41424 1.30732
v 0.484444 0.41951 1.31171
v 0.479604 0.427478 1.31132
v 0.474931 0.423829 1.3197
v 0.467292 0.421309 1.32522
v 0.464494 0.40788 1.33298
v 0.482989 0.379614 1.33757
v 0.48909 0.379597 1.33137
v 0.451256 0.410188 1.3309
v 0.437791 0.409705 1.32523
v 0.459728 0.428239 1.31986
v 0.449273 0.433056 1.3109
v 0.468886 0.436497 1.30897
v 0.461025 0.444026 1.29651
v 0.476954 0.436257 1.30014
v 0.471625 0.443295 1.2853
v 0.428993 0.434175 1.29011
v 0.438762 0.435191 1.30075
v 0.452578 0.448146 1.28379
v 0.444013 0.44835 1.27161
v 0.465036 0.447293 1.27059
v 0.457566 0.447421 1.25721
v 0.425327 0.407611 1.3176
v 0.414478 0.403989 1.30844
v 0.412439 0.422203 1.26839
v 0.420248 0.429558 1.27923
v 0.43554 0.444012 1.26038
v 0.427285 0.436203 1.25011
v 0.449333 0.443053 1.24571
v 0.440621 0.435269 1.23589
v 0.405494 0.398758 1.29788
v 0.398074 0.392358 1.28647
v 0.399377 0.40404 1.24812
v 0.405447 0.4133 1.25786
v 0.419393 0.426408 1.24072
v 0.41218 0.416064 1.23239
v 0.431802 0.425557 1.22745
v 0.423439 0.415322 1.22028
v 0.391865 0.385374 1.27487
v 0.386848 0.378451 1.26377
v 0.394274 0.3953 1.23943
v 0.405836 0.406235 1.22517
v 0.415932 0.405594 1.21424
v 0.382988 0.372049 1.25362
v 0.37986 0.365846 1.24381
v 0.377033 0.359547 1.23383
v 0.374457 0.353741 1.22469
v 0.429005 0.343634 1.21457
v 0.418975 0.340308 1.20892
v 0.416727 0.354202 1.2022
v 0.426375 0.359503 1.20699
v 0.410303 0.337416 1.20406
v 0.408389 0.349338 1.19811
v 0.40489 0.360947 1.19548
v 0.412689 0.367767 1.19951
v 0.421568 0.375039 1.20414
v 0.374476 0.357132 1.20319
v 0.377336 0.362517 1.20835
v 0.38382 0.368805 1.19993
v 0.380324 0.362465 1.19564
v 0.390095 0.368475 1.19404
v 0.386282 0.362174 1.19089
v 0.372197 0.34909 1.21747
v 0.370384 0.345649 1.21221
v 0.372445 0.353549 1.19969
v 0.377897 0.358249 1.19265
v 0.383688 0.358001 1.18862
v 0.390643 0.347858 1.18736
v 0.391857 0.348469 1.18955
v 0.394639 0.341112 1.19299
v 0.393844 0.340434 1.19139
v 0.394656 0.351172 1.19093
v 0.397531 0.342872 1.19406
v 0.398881 0.334267 1.19919
v 0.395884 0.333437 1.19804
v 0.395494 0.332595 1.19715
v 0.361944 0.352068 1.17116
v 0.36984 0.352116 1.16209
v 0.376483 0.349123 1.15758
v 0.382822 0.341489 1.1588
v 0.367756 0.342248 1.20733
v 0.365938 0.342213 1.20787
v 0.386394 0.355247 1.18164
v 0.390942 0.349558 1.18329
v 0.38684 0.353406 1.18553
v 0.388299 0.354403 1.18783
v 0.391003 0.35799 1.18958
v 0.398113 0.331357 1.19611
v 0.395316 0.340777 1.18847
v 0.369053 0.343354 1.20875
v 0.394626 0.325856 1.20399
v 0.39787 0.323868 1.20484
v 0.391498 0.321051 1.21059
v 0.394796 0.318845 1.21296
v 0.389692 0.328031 1.16635
v 0.394824 0.31364 1.17851
v 0.395755 0.303435 1.19281
v 0.392369 0.297372 1.20617
v 0.398918 0.355368 1.1927
v 0.402045 0.345571 1.19552
v 0.403652 0.335468 1.20097
v 0.395043 0.36348 1.19189
v 0.400637 0.37061 1.19517
v 0.407834 0.379073 1.19949
v 0.415867 0.387988 1.20431
v 0.418273 0.327904 1.22045
v 0.409645 0.326732 1.21391
v 0.428008 0.32955 1.22787
v 0.422985 0.318936 1.24226
v 0.414105 0.318521 1.23287
v 0.406012 0.318643 1.22443
v 0.430813 0.382077 1.20875
v 0.436657 0.364636 1.21168
v 0.440723 0.389238 1.21381
v 0.447804 0.369909 1.21672
v 0.451404 0.350335 1.22584
v 0.439742 0.346894 1.22005
v 0.424037 0.396614 1.20917
v 0.432707 0.405358 1.21453
v 0.451552 0.39691 1.21996
v 0.459924 0.375706 1.22283
v 0.462348 0.404545 1.2276
v 0.471748 0.381816 1.23044
v 0.47631 0.358961 1.2409
v 0.46406 0.354325 1.23268
v 0.442253 0.414608 1.22102
v 0.452024 0.423523 1.22891
v 0.472 0.411327 1.23704
v 0.481872 0.387844 1.2399
v 0.479956 0.41631 1.24864
v 0.489745 0.393265 1.2514
v 0.494437 0.370122 1.26193
v 0.486628 0.364253 1.25066
v 0.461195 0.430928 1.23846
v 0.469261 0.435538 1.25008
v 0.48585 0.418782 1.26261
v 0.495039 0.397656 1.26502
v 0.489508 0.41909 1.27843
v 0.497464 0.401156 1.28039
v 0.50122 0.383192 1.2885
v 0.499405 0.376469 1.27462
v 0.475863 0.436405 1.26401
v 0.480894 0.434052 1.27969
v 0.490731 0.41758 1.29481
v 0.49665 0.403712 1.29672
v 0.49963 0.389846 1.30274
v 0.484092 0.4289 1.29609
v 0.496827 0.378178 1.31524
v 0.497633 0.367876 1.30461
v 0.490171 0.369249 1.32869
v 0.488719 0.356616 1.32232
v 0.481581 0.364531 1.33832
v 0.477555 0.350138 1.33481
v 0.495357 0.358359 1.29354
v 0.490258 0.350279 1.28251
v 0.485103 0.345019 1.31432
v 0.479389 0.335631 1.30508
v 0.472094 0.337343 1.32899
v 0.46536 0.327205 1.32102
v 0.482483 0.343996 1.27161
v 0.472465 0.339296 1.26113
v 0.471554 0.32903 1.29457
v 0.462096 0.324748 1.2833
v 0.457325 0.320425 1.31078
v 0.448398 0.316391 1.29897
v 0.460872 0.335826 1.25144
v 0.449049 0.333259 1.24276
v 0.451713 0.322092 1.27193
v 0.441405 0.320518 1.26118
v 0.439123 0.314218 1.2865
v 0.430175 0.313233 1.2744
v 0.438164 0.331275 1.23514
v 0.431954 0.31956 1.25152
v 0.422039 0.312887 1.26339
v 0.414316 0.312907 1.25278
v 0.406631 0.313194 1.242
v 0.399588 0.314071 1.23221
v 0.398053 0.311272 1.24732
v 0.402865 0.326393 1.20932
v 0.397909 0.326524 1.20634
v 0.3995 0.319552 1.21809
v 0.394656 0.320738 1.21369
v 0.393888 0.315753 1.22469
v 0.389628 0.317617 1.21935
v 0.394812 0.326562 1.20449
v 0.391623 0.321489 1.21094
v 0.379274 0.315141 1.22488
v 0.384101 0.315107 1.22298
v 0.385459 0.294252 1.21593
v 0.377124 0.293415 1.22174
v 0.369256 0.29455 1.22388
v 0.361618 0.298197 1.22288
v 0.386842 0.318545 1.21576
v 0.389694 0.316163 1.21906
v 0.386959 0.318827 1.21602
v 0.335233 0.282963 1.18555
v 0.332486 0.282117 1.1887
v 0.329561 0.281664 1.1929
v 0.362254 0.272875 1.1743
v 0.364487 0.269833 1.17624
v 0.366952 0.272722 1.16413
v 0.364304 0.275862 1.16379
v 0.366812 0.266582 1.17907
v 0.36965 0.269328 1.16514
v 0.368516 0.276047 1.1501
v 0.365991 0.279171 1.15119
v 0.363443 0.28208 1.1527
v 0.33463 0.292945 1.18073
v 0.335447 0.303264 1.17083
v 0.353107 0.310676 1.14006
v 0.351214 0.307429 1.13651
v 0.357076 0.304899 1.14088
v 0.355472 0.301471 1.13749
v 0.346313 0.263497 1.19648
v 0.350766 0.265364 1.19821
v 0.342549 0.268615 1.20094
v 0.338751 0.267258 1.19915
v 0.334485 0.273622 1.19972
v 0.331249 0.272512 1.19793
v 0.326776 0.28094 1.19457
v 0.324036 0.279772 1.19279
v 0.323876 0.271016 1.18773
v 0.322366 0.27096 1.18621
v 0.326682 0.2655 1.18723
v 0.328656 0.26577 1.18876
v 0.321944 0.271367 1.18766
v 0.326485 0.265322 1.18874
v 0.330732 0.259621 1.18648
v 0.330726 0.260388 1.18513
v 0.333225 0.261062 1.18661
v 0.31806 0.277011 1.18195
v 0.319147 0.277116 1.1834
v 0.317429 0.277921 1.18314
v 0.321315 0.271969 1.19043
v 0.32632 0.265002 1.19162
v 0.319078 0.271826 1.19224
v 0.324268 0.264223 1.19362
v 0.32888 0.256913 1.19096
v 0.330978 0.2584 1.1891
v 0.316335 0.279373 1.18539
v 0.313682 0.279793 1.18657
v 0.322918 0.255607 1.18979
v 0.319103 0.262797 1.19198
v 0.314541 0.270126 1.19062
v 0.309143 0.277517 1.18436
v 0.326247 0.242079 1.1745
v 0.325343 0.248364 1.18356
v 0.334545 0.244042 1.17437
v 0.33267 0.249805 1.1844
v 0.321099 0.239831 1.14889
v 0.324253 0.238792 1.16254
v 0.330582 0.242803 1.14709
v 0.333607 0.241132 1.16151
v 0.336447 0.249575 1.1721
v 0.337198 0.24701 1.17324
v 0.336638 0.244538 1.1609
v 0.33586 0.247331 1.16076
v 0.333914 0.246319 1.14713
v 0.333272 0.248964 1.14805
v 0.334988 0.252075 1.18285
v 0.334424 0.254082 1.18085
v 0.339939 0.253089 1.17262
v 0.336226 0.25126 1.17159
v 0.335648 0.249215 1.1608
v 0.339796 0.251668 1.16138
v 0.333143 0.250834 1.14868
v 0.337441 0.253949 1.1488
v 0.334274 0.255374 1.17985
v 0.33739 0.256592 1.18118
v 0.359888 0.266732 1.14849
v 0.366915 0.272103 1.1491
v 0.368299 0.265541 1.16522
v 0.36159 0.261088 1.16429
v 0.365552 0.263226 1.18005
v 0.359513 0.259703 1.17874
v 0.359061 0.263439 1.19124
v 0.353825 0.260815 1.18965
v 0.360444 0.266241 1.18956
v 0.358959 0.269156 1.18536
v 0.357556 0.27196 1.18221
v 0.35719 0.298935 1.12804
v 0.356416 0.300149 1.13277
v 0.361914 0.289616 1.13996
v 0.363725 0.287322 1.13676
v 0.359997 0.291836 1.14332
v 0.361382 0.295303 1.14627
v 0.3647 0.285447 1.15511
v 0.365532 0.279015 1.16574
v 0.363548 0.275766 1.17587
v 0.351062 0.306931 1.13136
v 0.350705 0.306697 1.12614
v 0.359007 0.274601 1.18347
v 0.353347 0.274926 1.18818
v 0.342688 0.279584 1.18962
v 0.337615 0.284909 1.18682
v 0.347937 0.276449 1.19011
v 0.354914 0.295686 1.12498
v 0.361798 0.283599 1.1346
v 0.354955 0.27739 1.13407
v 0.348101 0.304024 1.12274
v 0.329677 0.256945 1.13693
v 0.333771 0.260751 1.13676
v 0.329655 0.255312 1.13573
v 0.325877 0.26372 1.1269
v 0.326118 0.2649 1.12851
v 0.32312 0.271935 1.1259
v 0.322606 0.271393 1.12421
v 0.330004 0.253205 1.13377
v 0.326523 0.249927 1.13297
v 0.32218 0.259715 1.12277
v 0.325792 0.262471 1.12422
v 0.321983 0.271208 1.12135
v 0.318146 0.269172 1.11959
v 0.313496 0.255468 1.12516
v 0.317134 0.246368 1.13544
v 0.309913 0.26445 1.12186
v 0.390437 0.312025 1.24935
v 0.35411 0.305192 1.21895
v 0.343821 0.26861 1.13529
v 0.348121 0.259912 1.14855
v 0.349263 0.256078 1.17561
v 0.345192 0.258443 1.18534
v 0.339394 0.262064 1.19147
v 0.350182 0.255999 1.16276
v 0.327247 0.271583 1.19275
v 0.321297 0.278263 1.18801
v 0.317456 0.286014 1.17836
v 0.333361 0.266323 1.19388
v 0.317437 0.293762 1.16338
v 0.320303 0.298288 1.1474
v 0.324588 0.297023 1.135
vt 1 0.6305
vt 1 0.6387
vt 1 0.6331
vt 1 0.6379
vt 1 0.6408
vt 1 0.6375
vt 1 0.6328
vt 1 0.6375
vt 1 0.6437
vt 1 0.652
vt 1 0.6439
vt 1 0.6464
vt 1 0.6371
vt 1 0.652
vt 1 0.6367
vt 1 0.652
vt 1 0.6453
vt 1 0.6342
vt 1 0.6331
vt 1 0.6267
vt 1 0.6351
vt 1 0.6511
vt 1 0.6331
vt 1 0.6331
vt 1 0.6317
vt 1 0.659
vt 1 0.6379
vt 1 0.6408
vt 1 0.6345
vt 1 0.6317
vt 1 0.6332
vt 1 0.6371
vt 1 0.6453
vt 1 0.6331
vt 1 0.6342
vt 1 0.6345
vt 1 0.6669
vt 1 0.6453
vt 1 0.6331
vt 1 0.6331
vt 1 0.6332
vt 1 0.6342
vt 1 0.6674
vt 1 0.6317
vt 1 0.6292
vt 1 0.6331
vt 1 0.659
vt 1 0.6328
vt 1 0.6318
vt 1 0.6317
vt 1 0.6331
vt 1 0.668
vt 1 0.6351
vt 1 0.6649
vt 1 0.6317
vt 1 0.6367
vt 1 0.6367
vt 1 0.6317
vt 1 0.6348
vt 1 0.6331
vt 1 0.6453
vt 1 0.6342
vt 1 0.6453
vt 1 0.6405
vt 1 0.6332
vt 1 0.6361
vt 1 0.6345
vt 1 0.6388
vt 1 0.6324
vt 1 0.6415
vt 1 0.6346
vt 1 0.6586
vt 1 0.6347
vt 1 0.6513
vt 1 0.641
vt 1 0.6553
vt 1 0.6327
vt 1 0.6345
vt 1 0.6361
vt 1 0.6395
vt 1 0.6346
vt 1 0.6367
vt 1 0.6317
vt 1 0.6289
vt 1 0.6405
vt 1 0.6332
vt 1 0.6367
vt 1 0.6328
vt 1 0.6322
vt 1 0.6289
vt 1 0.6461
vt 1 0.6649
vt 1 0.6461
vt 1 0.6317
vt 1 0.6307
vt 1 0.6367
vt 1 0.6226
vt 1 0.6375
vt 1 0.6674
vt 1 0.6345
vt 1 0.6331
vt 1 0.6425
vt 1 0.6503
vt 1 0.6375
vt 1 0.641
vt 1 0.6552
vt 1 0.6346
vt 1 0.6387
vt 1 0.6412
vt 1 0.6554
vt 1 0.6453
vt 1 0.6563
vt 1 0.6324
vt 1 0.6346
vt 1 0.6391
vt 1 0.6345
vt 1 0.6227
vt 1 0.6367
vt 1 0.6286
vt 1 0.6331
vt 1 0.6354
vt 1 0.6376
vt 1 0.6229
vt 1 0.6391
vt 1 0.6267
vt 1 0.6345
vt 1 0.6586
vt 1 0.635
vt 1 0.6453
vt 1 0.6513
vt 1 0.6288
vt 1 0.636
vt 1 0.6553
vt 1 0.6367
vt 1 0.6267
vt 1 0.6309
vt 1 0.6298
vt 1 0.6361
vt 1 0.6317
vt 1 0.6376
vt 1 0.6453
vt 1 0.6336
vt 1 0.628
vt 1 0.6346
vt 1 0.6391
vt 1 0.6415
vt 1 0.641
vt 1 0.6354
vt 1 0.6294
vt 1 0.636
vt 1 0.6462
vt 1 0.65
vt 1 0.6326
vt 1 0.6586
vt 1 0.6286
vt 1 0.6374
vt 1 0.6462
vt 1 0.655
vt 1 0.641
vt 1 0.65
vt 1 0.6503
vt 1 0.6416
vt 1 0.6391
vt 1 0.6376
vt 1 0.6328
vt 1 0.65
vt 1 0.6503
vt 1 0.646
vt 1 0.6575
vt 1 0.6583
vt 1 0.641
vt 1 0.6552
vt 1 0.6503
vt 1 0.6456
vt 1 0.6512
vt 1 0.6549
vt 1 0.6412
vt 1 0.6376
vt 1 0.6618
vt 1 0.6407
vt 1 0.6462
vt 1 0.6549
vt 1 0.646
vt 1 0.6574
vt 1 0.6583
vt 1 0.6272
vt 1 0.6512
vt 1 0.6501
vt 1 0.6391
vt 1 0.6449
vt 1 0.6241
vt 1 0.628
vt 1 0.6317
vt 1 0.65
vt 1 0.6354
vt 1 0.6294
vt 1 0.6563
vt 1 0.6242
vt 1 0.655
vt 1 0.6456
vt 1 0.6447
vt 1 0.6503
vt 1 0.6549
vt 1 0.6313
vt 1 0.6391
vt 1 0.6456
vt 1 0.6583
vt 1 0.6503
vt 1 0.6586
vt 1 0.6341
vt 1 0.65
vt 1 0.6585
vt 1 0.6499
vt 1 0.6405
vt 1 0.6586
vt 1 0.645
vt 1 0.6242
vt 1 0.6449
vt 1 0.6271
vt 1 0.6563
vt 1 0.6407
vt 1 0.6449
vt 1 0.6249
vt 1 0.6552
vt 1 0.6272
vt 1 0.6552
vt 1 0.6456
vt 1 0.6499
vt 1 0.6449
vt 1 0.628
vt 1 0.6337
vt 1 0.6354
vt 1 0.645
vt 1 0.6354
vt 1 0.6294
vt 1 0.6391
vt 1 0.6313
vt 1 0.6575
vt 1 0.6347
vt 1 0.6272
vt 1 0.6586
vt 1 0.6379
vt 1 0.6449
vt 1 0.6347
vt 1 0.6447
vt 1 0.628
vt 1 0.6499
vt 1 0.6409
vt 1 0.6449
vt 1 0.6328
vt 1 0.6586
vt 1 0.6586
vt 1 0.641
vt 1 0.6272
vt 1 0.6499
vt 1 0.6271
vt 1 0.6499
vt 1 0.6392
vt 1 0.6391
vt 1 0.6328
vt 1 0.6586
vt 1 0.6575
vt 1 0.6389
vt 1 0.6501
vt 1 0.6449
vt 1 0.6326
vt 1 0.6391
vt 1 0.641
vt 1 0.6449
vt 1 0.6502
vt 1 0.6575
vt 1 0.6586
vt 1 0.641
vt 1 0.6431
vt 1 0.6391
vt 1 0.6419
vt 1 0.6391
vt 1 0.6392
vt 1 0.6449
vt 1 0.6502
vt 1 0.6586
vt 1 0.6575
vt 1 0.6392
vt 1 0.6407
vt 1 0.6449
vt 1 0.6503
vt 1 0.6449
vt 1 0.6392
vt 1 0.6449
vt 1 0.6419
vt 1 0.6499
vt 1 0.6354
vt 1 0.6535
vt 1 0.6392
vt 1 0.6534
vt 1 0.6371
vt 1 0.6535
vt 1 0.6407
vt 1 0.6449
vt 1 0.6419
vt 1 0.6499
vt 1 0.6564
vt 1 0.6354
vt 1 0.6376
vt 1 0.6499
vt 1 0.6449
vt 1 0.6305
vt 1 0.6375
vt 1 0.6499
vt 1 0.6575
vt 1 0.633
vt 1 0.6431
vt 1 0.6317
vt 1 0.6389
vt 1 0.6317
vt 1 0.6575
vt 1 0.6419
vt 1 0.6392
vt 1 0.6354
vt 1 0.633
vt 1 0.6354
vt 1 0.6375
vt 1 0.6317
vt 1 0.6575
vt 1 0.6355
vt 1 0.6365
vt 1 0.6317
vt 1 0.6372
vt 1 0.6354
vt 1 0.6365
vt 1 0.6354
vt 1 0.6564
vt 1 0.6337
vt 1 0.6375
vt 1 0.6354
vt 1 0.6354
vt 1 0.6363
vt 1 0.6563
vt 1 0.636
vt 1 0.6391
vt 1 0.6375
vt 1 0.6391
vt 1 0.6501
vt 1 0.6574
vt 1 0.6376
vt 1 0.6449
vt 1 0.6436
vt 1 0.6379
vt 1 0.6435
vt 1 0.6449
vt 1 0.65
vt 1 0.6294
vt 1 0.6391
vt 1 0.6363
vt 1 0.6354
vt 1 0.6575
vt 1 0.641
vt 1 0.6363
vt 1 0.6354
vt 1 0.6586
vt 1 0.6363
vt 1 0.6552
vt 1 0.65
vt 1 0.639
vt 1 0.6363
vt 1 0.6449
vt 1 0.6313
vt 1 0.6354
vt 1 0.6249
vt 1 0.6317
vt 1 0.65
vt 1 0.6364
vt 1 0.6586
vt 1 0.6362
vt 1 0.6361
vt 1 0.6317
vt 1 0.636
vt 1 0.6363
vt 1 0.639
vt 1 0.6449
vt 1 0.6362
vt 1 0.6354
vt 1 0.6563
vt 1 0.6347
vt 1 0.6499
vt 1 0.6563
vt 1 0.6499
vt 1 0.6324
vt 1 0.6575
vt 1 0.6443
vt 1 0.6391
vt 1 0.6447
vt 1 0.6549
vt 1 0.6354
vt 1 0.6499
vt 1 0.6575
vt 1 0.65
vt 1 0.645
vt 1 0.6439
vt 1 0.645
vt 1 0.6443
vt 1 0.6535
vt 1 0.6535
vt 1 0.6372
vt 1 0.6563
vt 1 0.6313
vt 1 0.6499
vt 1 0.6443
vt 1 0.6434
vt 1 0.6499
vt 1 0.6435
vt 1 0.6586
vt 1 0.6439
vt 1 0.6449
vt 1 0.6449
vt 1 0.6371
vt 1 0.6435
vt 1 0.6499
vt 1 0.6434
vt 1 0.6586
vt 1 0.6379
vt 1 0.6499
vt 1 0.6499
vt 1 0.6447
vt 1 0.6372
vt 1 0.6499
vt 1 0.6371
vt 1 0.6575
vt 1 0.6443
vt 1 0.6535
vt 1 0.6535
vt 1 0.6379
vt 1 0.6436
vt 1 0.6499
vt 1 0.6435
vt 1 0.6575
vt 1 0.6387
vt 1 0.6499
vt 1 0.6534
vt 1 0.6317
vt 1 0.6567
vt 1 0.6317
vt 1 0.6354
vt 1 0.6535
vt 1 0.6535
vt 1 0.6371
vt 1 0.6354
vt 1 0.6564
vt 1 0.6317
vt 1 0.6499
vt 1 0.6563
vt 1 0.6324
vt 1 0.6317
vt 1 0.6499
vt 1 0.6354
vt 1 0.6535
vt 1 0.6535
vt 1 0.6327
vt 1 0.6354
vt 1 0.6499
vt 1 0.6354
vt 1 0.6535
vt 1 0.6499
vt 1 0.6371
vt 1 0.6354
vt 1 0.6535
vt 1 0.6391
vt 1 0.6535
vt 1 0.6391
vt 1 0.6564
vt 1 0.6354
vt 1 0.6535
vt 1 0.6554
vt 1 0.6354
vt 1 0.6564
vt 1 0.6391
vt 1 0.6267
vt 1 0.6391
vt 1 0.6575
vt 1 0.6391
vt 1 0.6563
vt 1 0.641
vt 1 0.6513
vt 1 0.641
vt 1 0.6552
vt 1 0.6392
vt 1 0.6549
vt 1 0.6563
vt 1 0.6392
vt 1 0.641
vt 1 0.6531
vt 1 0.641
vt 1 0.6586
vt 1 0.6328
vt 1 0.6513
vt 1 0.6392
vt 1 0.6414
vt 1 0.65
vt 1 0.6423
vt 1 0.65
vt 1 0.6462
vt 1 0.6227
vt 1 0.6318
vt 1 0.6392
vt 1 0.6392
vt 1 0.6376
vt 1 0.6336
vt 1 0.6307
vt 1 0.6328
vt 1 0.6346
vt 1 0.6392
vt 1 0.6345
vt 1 0.6331
vt 1 0.6332
vt 1 0.6376
vt 1 0.6345
vt 1 0.6298
vt 1 0.6553
vt 1 0.6376
vt 1 0.6553
vt 1 0.6367
vt 1 0.652
vt 1 0.6367
vt 1 0.6345
vt 1 0.6301
vt 1 0.6392
vt 1 0.6553
vt 1 0.652
vt 1 0.6553
vt 1 0.6392
vt 1 0.6437
vt 1 0.6553
vt 1 0.6437
vt 1 0.6375
vt 1 0.6376
vt 1 0.652
vt 1 0.6464
vt 1 0.6376
vt 1 0.652
vt 1 0.6376
vt 1 0.652
vt 1 0.6376
vt 1 0.6437
vt 1 0.6464
vt 1 0.6375
vt 1 0.6363
vt 1 0.6439
vt 1 0.6464
vt 1 0.65
vt 1 0.6464
vt 1 0.6363
vt 1 0.6464
vt 1 0.6345
vt 1 0.65
vt 1 0.6376
vt 1 0.6414
vt 1 0.6437
vt 1 0.6415
vt 1 0.6376
vt 1 0.6464
vt 1 0.6345
vt 1 0.6437
vt 1 0.6363
vt 1 0.6464
vt 1 0.6327
vt 1 0.6375
vt 1 0.6363
vt 1 0.6331
vt 1 0.6317
vt 1 0.6371
vt 1 0.6363
vt 1 0.6331
vt 1 0.6531
vt 1 0.6363
vt 1 0.6376
vt 1 0.6327
vt 1 0.6405
vt 1 0.6364
vt 1 0.6403
vt 1 0.6376
vt 1 0.6364
vt 1 0.6423
vt 1 0.6363
vt 1 0.65
vt 1 0.6363
vt 1 0.6462
vt 1 0.6364
vt 1 0.6376
vt 1 0.6549
vt 1 0.6364
vt 1 0.6364
vt 1 0.6462
vt 1 0.6364
vt 1 0.6345
vt 1 0.6363
vt 1 0.6363
vt 1 0.6403
vt 1 0.6405
vt 1 0.6292
vt 1 0.6404
vt 1 0.6364
vt 1 0.6375
vt 1 0.6364
vt 1 0.6405
vt 1 0.6332
vt 1 0.6375
vt 1 0.6363
vt 1 0.6405
vt 1 0.6375
vt 1 0.6363
vt 1 0.6363
vt 1 0.6363
vt 1 0.6376
vt 1 0.6376
vt 1 0.6331
vt 1 0.6415
vt 1 0.6363
vt 1 0.6331
vt 1 0.6363
vt 1 0.6553
vt 1 0.6376
vt 1 0.6346
vt 1 0.6376
vt 1 0.6404
vt 1 0.6331
vt 1 0.6418
vn -0.9848 0.1539 -0.07965
vn -0.991 0.02417 -0.1317
vn -0.934 -0.3216 0.1551
vn -0.9954 0.06006 0.07474
vn -0.931 -0.04581 -0.3622
vn -0.9104 -0.2982 -0.2866
vn -0.7137 -0.5796 -0.3933
vn -0.7317 -0.6589 -0.1746
vn -0.588 -0.8074 -0.04788
vn -0.6491 -0.7302 0.2133
vn -0.5571 -0.7284 0.3989
vn -0.6989 -0.5624 0.4418
vn -0.6619 -0.5317 0.5283
vn -0.7954 -0.4093 0.447
vn -0.8249 -0.2677 0.4979
vn -0.9236 -0.1657 0.3456
vn -0.9752 0.05152 0.215
vn -0.7826 0.5874 -0.2064
vn -0.7366 0.4722 -0.4842
vn -0.2519 0.9445 -0.211
vn -0.2113 0.7816 -0.5868
vn -0.1184 0.4834 -0.8673
vn -0.6494 0.2043 -0.7325
vn -0.8094 0.4653 0.3584
vn -0.8066 0.586 0.07733
vn -0.2215 0.8659 0.4484
vn -0.2478 0.9585 0.1407
vn 0.8244 0.4966 -0.2714
vn 0.547 0.5956 -0.5882
vn 0.4927 0.7859 -0.3735
vn 0.7891 0.591 -0.1675
vn 0.4777 0.875 -0.07828
vn 0.7809 0.6246 0.007385
vn 0.5115 0.8456 0.1524
vn 0.8103 0.5734 0.1202
vn 0.5538 0.7874 0.2708
vn 0.8411 0.5309 0.103
vn -0.5603 0.2961 -0.7736
vn 0.2496 0.5832 -0.773
vn 0.04205 0.8461 -0.5314
vn -0.7739 0.4161 -0.4775
vn -0.05557 0.9854 -0.1605
vn -0.8818 0.4307 -0.1921
vn -0.01846 0.9864 0.1632
vn -0.911 0.4086 0.05502
vn 0.07739 0.9297 0.36
vn -0.9051 0.2848 0.3158
vn -0.8419 0.5153 -0.1603
vn -0.575 0.8178 0.02164
vn -0.4494 0.8116 -0.3732
vn -0.713 0.4987 -0.4928
vn -0.07901 0.9529 0.2927
vn 0.01895 0.9988 -0.04404
vn 0.2275 0.9232 -0.3098
vn -0.2112 0.6819 -0.7003
vn -0.4892 0.3724 -0.7887
vn -0.8438 0.3307 0.4226
vn -0.4054 0.6606 0.6318
vn -0.5391 0.7546 0.3741
vn -0.8735 0.466 0.1411
vn 0.2159 0.7658 0.6057
vn 0.0268 0.8386 0.5441
vn -0.3829 0.8878 0.2551
vn 0.1007 0.9111 0.3997
vn 0.1873 0.7844 0.5913
vn -0.3636 0.7637 0.5334
vn 0.3758 0.7102 0.5953
vn -0.207 0.6645 0.718
vn 0.5429 0.5564 0.629
vn 0.4253 0.8059 0.4117
vn 0.4151 0.8146 0.405
vn 0.4069 0.687 0.602
vn 0.5209 0.2134 0.8265
vn 0.2585 0.3631 0.8951
vn 0.07642 0.4768 0.8757
vn 0.4467 0.7855 0.4283
vn 0.3569 0.7459 0.5623
vn -0.5784 0.2654 -0.7714
vn -0.1854 -0.04379 -0.9817
vn -0.1364 -0.03494 -0.99
vn -0.09757 0.05982 -0.9934
vn 0.2859 -0.3122 -0.9059
vn 0.2251 -0.4 -0.8884
vn 0.3004 -0.4054 -0.8633
vn -0.8018 0.5969 -0.02954
vn -0.6339 0.6977 -0.3337
vn -0.2001 0.9767 -0.07727
vn -0.871 0.4775 -0.1151
vn -0.718 0.5719 -0.3967
vn -0.4557 0.5774 -0.6774
vn -0.3374 0.7067 -0.6218
vn 0.1305 0.9381 -0.3207
vn -0.8776 0.4652 -0.1157
vn -0.725 0.5606 -0.4001
vn -0.8781 0.4676 -0.101
vn -0.7233 0.5669 -0.3942
vn -0.4601 0.5759 -0.6757
vn -0.465 0.5668 -0.68
vn -0.9337 0.1298 0.3338
vn -0.9347 0.1146 0.3365
vn -0.9374 0.3255 0.1237
vn -0.9327 0.3399 0.1206
vn -0.9231 0.1186 0.3657
vn -0.9337 0.3257 0.1486
vn -0.763 0.2722 0.5863
vn -0.4663 0.4584 0.7566
vn -0.5126 0.6099 0.6044
vn -0.8015 0.4646 0.3765
vn -0.01923 0.5964 0.8025
vn -0.04907 0.6644 0.7457
vn -0.01532 0.7907 0.6119
vn -0.4443 0.8075 0.388
vn -0.7447 0.6572 0.1158
vn -0.2159 0.9686 0.1234
vn -0.5426 0.8171 -0.1946
vn 0.1383 0.8997 0.4141
vn 0.3544 0.8976 0.262
vn 0.09281 0.9912 -0.09412
vn -0.2268 0.852 -0.4718
vn 0.5082 0.8161 -0.2751
vn 0.2853 0.659 -0.6959
vn 0.6072 0.7791 0.1556
vn 0.7934 0.5942 0.1322
vn 0.8308 0.4777 -0.2855
vn 0.7099 0.2613 -0.654
vn 0.04807 0.3745 -0.926
vn 0.06354 0.3811 -0.9224
vn 0.05466 0.3882 -0.9199
vn 0.5325 0.0437 -0.8453
vn 0.5246 0.02738 -0.8509
vn 0.5407 0.02698 -0.8408
vn 0.6919 -0.1955 -0.695
vn 0.7021 -0.1981 -0.684
vn 0.7033 -0.1764 -0.6886
vn 0.7692 -0.383 -0.5114
vn 0.754 -0.4055 -0.5167
vn 0.7596 -0.4078 -0.5066
vn 0.9374 0.2637 -0.2272
vn 0.848 0.01028 -0.53
vn 0.8479 0.4993 0.1781
vn 0.8338 0.4754 0.2807
vn 0.9879 0.1108 -0.1087
vn 0.9064 -0.1911 -0.3767
vn 0.993 -0.01682 0.1166
vn 0.9044 -0.4038 -0.1379
vn 0.7638 0.4927 0.4169
vn 0.645 0.5156 0.564
vn 0.9019 -0.0922 0.4219
vn 0.8052 -0.5706 0.161
vn 0.7253 -0.6341 -0.268
vn 0.7269 -0.6367 -0.2571
vn 0.7458 -0.6108 -0.2659
vn 0.6149 -0.7886 -0.006775
vn 0.5876 -0.8091 -0.008393
vn 0.5829 -0.8125 0.005829
vn 0.3773 -0.9011 0.2137
vn 0.3659 -0.902 0.2291
vn 0.4087 -0.8855 0.2209
vn 0.1421 -0.8986 0.415
vn 0.1116 -0.9106 0.398
vn 0.09763 -0.9067 0.4102
vn 0.697 -0.1131 0.7081
vn 0.6011 -0.653 0.4607
vn 0.4902 0.5343 0.6887
vn 0.3388 0.5481 0.7646
vn 0.4166 -0.07495 0.906
vn 0.3069 -0.6313 0.7122
vn 0.09311 0.02469 0.9953
vn -0.07215 -0.4855 0.8712
vn 0.2034 0.5536 0.8075
vn 0.1162 0.5632 0.8181
vn -0.172 0.1686 0.9705
vn -0.4093 -0.2437 0.8792
vn -0.2419 -0.7971 0.5532
vn -0.2528 -0.7889 0.5601
vn -0.218 -0.7847 0.5802
vn -0.5636 -0.5281 0.6352
vn -0.5817 -0.5427 0.6059
vn -0.5878 -0.5318 0.6096
vn -0.8222 -0.2141 0.5274
vn -0.825 -0.2007 0.5282
vn -0.8057 -0.2027 0.5565
vn -0.347 0.3051 0.8868
vn -0.6331 0.01617 0.7739
vn 0.04746 0.5656 0.8233
vn -0.2373 0.531 0.8135
vn 0.3077 0.6007 0.7379
vn 0.3671 0.6504 0.6649
vn -0.07682 0.4273 0.9008
vn 0.3386 0.7361 0.586
vn 0.07907 0.3338 0.9393
vn -0.3272 0.8116 0.484
vn -0.1478 0.9734 0.1751
vn 0.2597 0.828 0.4969
vn 0.1868 0.7253 0.6626
vn 0.2843 0.9552 -0.08191
vn 0.4337 0.8242 0.3641
vn 0.533 0.09226 0.8411
vn 0.1884 -0.98 0.06333
vn -0.1137 -0.977 0.1803
vn 0.2808 0.1821 0.9423
vn -0.06778 -0.9509 -0.3021
vn -0.2952 -0.9401 -0.1705
vn -0.6375 -0.7697 0.03339
vn -0.5585 -0.7065 0.4346
vn -0.8324 -0.2314 0.5035
vn -0.8986 -0.3988 0.1831
vn -0.9775 0.01453 0.2102
vn -0.9019 0.1442 0.4071
vn 0.4303 0.902 -0.03323
vn 0.2207 0.966 0.1345
vn -0.8867 0.1545 0.4357
vn -0.9091 0.3568 0.2148
vn -0.8575 0.5124 -0.04685
vn -0.04917 -0.9673 -0.2489
vn -0.3115 -0.9444 -0.1051
vn -0.0126 -0.988 -0.154
vn -0.311 -0.9504 -0.005585
vn -0.6544 -0.7435 0.1374
vn -0.6516 -0.7553 0.07041
vn -0.9036 -0.3897 0.178
vn -0.904 -0.38 0.1957
vn -0.9863 0.0322 0.1619
vn -0.9831 0.02136 0.1819
vn -0.982 0.05536 0.1807
vn -0.9866 0.04248 0.1572
vn -0.8995 -0.3777 0.2196
vn -0.8894 -0.3774 0.2579
vn -0.6461 -0.7389 0.1912
vn -0.6319 -0.7393 0.2325
vn -0.8656 0.4956 -0.07166
vn -0.8604 0.5029 -0.08136
vn -0.6807 0.6367 -0.3622
vn -0.6821 0.6302 -0.3708
vn -0.8525 0.5164 -0.08072
vn -0.6729 0.6474 -0.3579
vn -0.2773 0.6145 -0.7385
vn -0.2833 0.6021 -0.7464
vn -0.28 0.5853 -0.7609
vn 0.02554 -0.9984 -0.04926
vn 0.03476 -0.999 -0.02661
vn -0.285 -0.9478 0.1428
vn -0.2938 -0.9497 0.1083
vn 0.04846 -0.9988 0.006928
vn -0.2768 -0.9422 0.1885
vn -0.6039 -0.7233 0.3348
vn -0.617 -0.7357 0.2793
vn -0.8739 -0.3712 0.3138
vn -0.8541 -0.3572 0.378
vn -0.9529 0.08969 0.2895
vn -0.9708 0.07166 0.229
vn 0.07062 -0.9954 0.06473
vn -0.2663 -0.9286 0.2581
vn 0.1097 -0.9803 0.1642
vn -0.2434 -0.897 0.3689
vn -0.565 -0.6543 0.5026
vn -0.5898 -0.6989 0.4044
vn -0.8295 -0.3353 0.4465
vn -0.7935 -0.2997 0.5296
vn -0.8946 0.1314 0.4271
vn -0.929 0.1083 0.3537
vn 0.1761 -0.9279 0.3286
vn -0.1926 -0.8202 0.5386
vn 0.2663 -0.7939 0.5466
vn -0.1049 -0.661 0.743
vn -0.4086 -0.4243 0.808
vn -0.5105 -0.5701 0.6437
vn -0.728 -0.2386 0.6427
vn -0.6131 -0.1403 0.7775
vn -0.7283 0.2178 0.6496
vn -0.8343 0.1668 0.5255
vn 0.3424 -0.5935 0.7284
vn -0.01111 -0.4461 0.8949
vn 0.3829 -0.3934 0.8357
vn 0.06153 -0.2512 0.966
vn -0.1664 -0.09265 0.9817
vn -0.2819 -0.2475 0.927
vn -0.4653 -0.02408 0.8848
vn -0.3185 0.07874 0.9446
vn -0.4263 0.3136 0.8484
vn -0.5843 0.272 0.7645
vn 0.4017 -0.155 0.9025
vn 0.1336 -0.04227 0.9901
vn 0.416 0.1029 0.9035
vn 0.264 0.285 0.9214
vn 0.09775 0.2353 0.967
vn -0.03955 0.06757 0.9969
vn -0.1532 0.1877 0.9702
vn 0.1307 0.3273 0.9358
vn 0.05203 0.3611 0.9311
vn -0.2227 0.3431 0.9125
vn 0.8776 0.2798 0.3893
vn 0.8275 0.3768 0.4162
vn 0.5401 0.3923 0.7446
vn 0.8235 0.2364 0.5157
vn 0.8382 0.4232 0.344
vn 0.7637 0.4573 0.4557
vn 0.6617 0.5963 0.4544
vn 0.4724 0.5682 0.6738
vn 0.1814 0.5533 0.813
vn 0.1472 0.4423 0.8847
vn 0.5971 0.1901 0.7793
vn 0.7939 0.1177 0.5965
vn -0.226 0.5102 0.8298
vn -0.4336 0.5267 0.7311
vn -0.07352 0.693 0.7171
vn -0.2948 0.7458 0.5973
vn 0.2333 0.8196 0.5233
vn 0.06156 0.9249 0.3751
vn 0.6006 0.7502 0.2765
vn 0.5095 0.8549 0.09711
vn -0.6008 0.728 0.3303
vn -0.4504 0.7537 0.4786
vn -0.1009 0.9678 0.2304
vn -0.29 0.9559 0.04685
vn 0.3921 0.916 -0.08457
vn 0.2176 0.9255 -0.3099
vn -0.5818 0.5195 0.6258
vn -0.7147 0.4933 0.4957
vn -0.7814 0.6193 0.07569
vn -0.7172 0.6725 0.1824
vn -0.4597 0.8791 -0.1257
vn -0.5622 0.7924 -0.2364
vn 0.02918 0.8598 -0.5097
vn -0.1092 0.771 -0.6274
vn -0.8115 0.4564 0.3648
vn -0.8653 0.425 0.2657
vn -0.831 0.555 -0.03656
vn -0.8136 0.5814 0.007355
vn -0.6154 0.7299 -0.2976
vn -0.6437 0.6901 -0.3306
vn -0.1916 0.7024 -0.6854
vn -0.2373 0.6587 -0.714
vn -0.8942 0.4024 0.196
vn -0.9126 0.3833 0.1419
vn -0.8428 0.5343 -0.06531
vn -0.6607 0.6648 -0.3485
vn -0.2627 0.6317 -0.7293
vn -0.9265 0.3634 0.09787
vn -0.9369 0.3426 0.06894
vn -0.9439 0.324 0.0632
vn -0.9471 0.3104 0.08133
vn 0.5364 -0.4566 -0.7097
vn 0.551 -0.4487 -0.7035
vn 0.5132 -0.1646 -0.8423
vn 0.4949 -0.1579 -0.8545
vn 0.5197 -0.4657 -0.7162
vn 0.4979 -0.1907 -0.846
vn 0.4171 0.03293 -0.9082
vn 0.4182 0.06043 -0.9063
vn 0.403 0.07511 -0.9121
vn -0.863 0.5025 -0.0513
vn -0.8668 0.4947 -0.06131
vn -0.672 0.6284 -0.3919
vn -0.6477 0.6394 -0.4143
vn -0.2568 0.5613 -0.7868
vn -0.205 0.5495 -0.8099
vn -0.9471 0.3012 0.1102
vn -0.9442 0.2981 0.1398
vn -0.8105 0.5839 0.04599
vn -0.5716 0.7502 -0.3324
vn -0.06131 0.6977 -0.7138
vn 0.8789 0.4672 -0.0958
vn 0.682 0.05847 -0.7289
vn 0.733 -0.1641 -0.6601
vn 0.931 0.3634 0.03265
vn 0.4476 -0.0546 -0.8926
vn 0.4689 -0.2821 -0.837
vn 0.4323 -0.5292 -0.7301
vn 0.7535 -0.3853 -0.5326
vn 0.9186 0.3121 0.2422
vn -0.6917 0.6291 -0.3545
vn -0.4122 0.6473 -0.6411
vn 0.1113 0.4604 -0.8807
vn 0.5804 0.09842 -0.8083
vn -0.3338 0.6499 0.6828
vn 0.2237 0.6262 0.7468
vn 0.619 0.7226 0.3075
vn 0.7298 0.6085 0.3116
vn 0.6975 0.7017 -0.1451
vn 0.4711 0.3639 -0.8035
vn 0.2569 0.2288 -0.939
vn 0.5774 0.6233 0.5272
vn 0.7132 0.5739 0.4025
vn -0.884 0.3813 0.2705
vn 0.8241 0.3124 0.4725
vn 0.4046 0.7099 0.5764
vn 0.7119 0.3049 0.6326
vn 0.2849 0.7773 0.5608
vn 0.7454 -0.1285 -0.6541
vn 0.8109 -0.3319 -0.4818
vn 0.7947 -0.5575 -0.2399
vn 0.6742 -0.738 0.02753
vn 0.4135 -0.01343 -0.9104
vn 0.4637 -0.239 -0.8531
vn 0.4567 -0.5014 -0.7348
vn 0.205 0.2599 -0.9436
vn 0.1885 0.2994 -0.9353
vn 0.1842 0.3236 -0.9281
vn 0.1795 0.3379 -0.9239
vn 0.5014 -0.6918 -0.5197
vn 0.4582 -0.7018 -0.5454
vn 0.4963 -0.7024 -0.5102
vn 0.3936 -0.8557 -0.3359
vn 0.3853 -0.8516 -0.3555
vn 0.3338 -0.8559 -0.3949
vn 0.3899 0.09308 -0.9161
vn 0.4744 -0.1507 -0.8673
vn 0.3989 0.1227 -0.9087
vn 0.4833 -0.1298 -0.8657
vn 0.5263 -0.4709 -0.708
vn 0.5159 -0.4693 -0.7166
vn 0.1819 0.3553 -0.9169
vn 0.2004 0.3822 -0.9021
vn 0.4411 0.1661 -0.882
vn 0.5331 -0.09177 -0.841
vn 0.5256 0.2245 -0.8206
vn 0.6274 -0.0333 -0.778
vn 0.6769 -0.4103 -0.6111
vn 0.5794 -0.4542 -0.6767
vn 0.2456 0.4226 -0.8724
vn 0.3314 0.4806 -0.8119
vn 0.644 0.2948 -0.7059
vn 0.7455 0.04312 -0.665
vn 0.7663 0.3655 -0.5283
vn 0.8546 0.1278 -0.5033
vn 0.9012 -0.2379 -0.3622
vn 0.795 -0.3364 -0.5047
vn 0.4617 0.5527 -0.6938
vn 0.6134 0.6135 -0.4974
vn 0.8504 0.4176 -0.3198
vn 0.9271 0.2079 -0.312
vn 0.8872 0.4451 -0.1209
vn 0.9546 0.2749 -0.1145
vn 0.9998 -0.002747 -0.01822
vn 0.973 -0.1238 -0.1949
vn 0.7278 0.6305 -0.2697
vn 0.7855 0.6146 -0.07239
vn 0.8865 0.4511 0.1026
vn 0.9387 0.328 0.1061
vn 0.9751 0.1344 0.1765
vn 0.8127 0.5665 0.136
vn 0.9498 -0.05567 0.3079
vn 0.9559 -0.25 0.1542
vn 0.8543 -0.1683 0.4917
vn 0.8495 -0.3876 0.3581
vn 0.6814 -0.21 0.701
vn 0.6651 -0.4426 0.6014
vn 0.9154 -0.4024 0.01071
vn 0.832 -0.5376 -0.1368
vn 0.8046 -0.5481 0.2286
vn 0.7159 -0.6941 0.07459
vn 0.6244 -0.6189 0.4764
vn 0.5413 -0.7852 0.3007
vn 0.7204 -0.6399 -0.2674
vn 0.6114 -0.7016 -0.3659
vn 0.6003 -0.7964 -0.07273
vn 0.5009 -0.8469 -0.1784
vn 0.4332 -0.8938 0.1156
vn 0.3461 -0.938 -0.01532
vn 0.5303 -0.7286 -0.4335
vn 0.4893 -0.7308 -0.4758
vn 0.4353 -0.8656 -0.2474
vn 0.4022 -0.8679 -0.2914
vn 0.2911 -0.952 -0.09442
vn 0.2605 -0.9551 -0.1409
vn 0.4819 -0.7196 -0.4999
vn 0.3918 -0.863 -0.3189
vn 0.2445 -0.955 -0.168
vn 0.2362 -0.9538 -0.1857
vn 0.2208 -0.9521 -0.2113
vn 0.1729 -0.9479 -0.2675
vn 0.01395 -0.9966 -0.08167
vn 0.3808 -0.7221 -0.5775
vn 0.3402 -0.735 -0.5865
vn 0.2507 -0.8615 -0.4415
vn 0.1994 -0.8655 -0.4594
vn 0.09977 -0.9365 -0.3361
vn 0.05069 -0.929 -0.3666
vn 0.7323 -0.5934 -0.3341
vn 0.5983 -0.7913 -0.1257
vn 0.256 0.7918 0.5546
vn 0.2188 0.8124 0.5405
vn 0.4703 -0.8384 0.2755
vn 0.196 -0.8478 0.4928
vn -0.1749 -0.7223 0.669
vn -0.5236 -0.4622 0.7157
vn 0.6258 0.2119 0.7507
vn 0.232 0.8082 0.5413
vn 0.3753 -0.9268 0.01447
vn -0.04367 0.5736 0.818
vn 0.4622 0.7316 0.5011
vn 0.3244 0.7488 0.5779
vn 0.9228 0.1629 0.3489
vn 0.6252 0.7018 0.3413
vn 0.7248 0.6348 0.2674
vn 0.9661 0.2241 0.1283
vn 0.9055 0.2355 0.353
vn 0.984 0.1499 0.09555
vn 0.9822 0.1469 -0.1172
vn 0.7968 0.5651 0.2137
vn 0.963 0.2694 -0.01236
vn -0.8344 0.2879 0.47
vn -0.8545 0.4651 0.2311
vn 0.2205 0.5069 -0.8333
vn 0.5948 0.7133 -0.3706
vn 0.6796 0.1336 -0.7213
vn 0.8654 0.4208 -0.2719
vn -0.03302 -0.8164 0.5765
vn 0.3965 -0.2761 0.8755
vn 0.1155 -0.03293 0.9927
vn -0.3183 -0.5983 0.7353
vn -0.1155 0.2561 0.9597
vn -0.5695 -0.2868 0.7703
vn -0.2674 0.4839 0.8333
vn -0.747 0.04508 0.6633
vn -0.7045 -0.3466 0.6192
vn 0.1463 0.5132 0.8457
vn 0.3449 0.137 0.9286
vn -0.4995 -0.5879 0.6362
vn 0.8005 0.5958 0.0654
vn 0.8065 0.5752 0.1366
vn 0.862 0.4712 0.1868
vn 0.5784 -0.2027 0.7901
vn -0.2402 -0.766 0.5962
vn 0.101 0.8047 0.585
vn -0.8488 -0.03436 0.5277
vn 0.8299 0.5554 0.05228
vn 0.6605 0.6236 0.4181
vn 0.7416 0.4479 0.4993
vn 0.0296 0.4041 0.9142
vn 0.2043 0.05274 0.9775
vn 0.3531 -0.3168 0.8803
vn 0.8413 0.2033 0.5009
vn 0.6019 0.7186 0.3481
vn -0.1289 0.675 0.7264
vn -0.3049 -0.5598 0.7704
vn -0.4583 -0.2968 0.8377
vn -0.6096 -0.02585 0.7922
vn -0.7456 0.247 0.6189
vn -0.06427 -0.904 0.4225
vn -0.1722 -0.7539 0.634
vn 0.5181 -0.7824 0.3453
vn 0.4564 -0.5982 0.6587
vn -0.04566 -0.9677 -0.2477
vn -0.01675 -0.995 0.09824
vn 0.4617 -0.8142 -0.3519
vn 0.5141 -0.8576 -0.01566
vn 0.9749 0.2225 -0.00119
vn 0.9689 -0.1997 0.1461
vn 0.9565 -0.2708 -0.1086
vn 0.9718 0.1974 -0.1291
vn 0.9208 -0.2477 -0.3013
vn 0.9626 0.2116 -0.1691
vn 0.9251 -0.0296 0.3784
vn 0.9341 0.3276 0.1417
vn 0.2866 -0.9246 0.251
vn 0.8736 -0.4508 0.1833
vn 0.9081 -0.3987 -0.1276
vn 0.452 -0.8884 -0.07971
vn 0.8936 -0.3083 -0.3263
vn 0.4966 -0.7682 -0.404
vn 0.7581 -0.3893 0.5231
vn 0.03449 -0.875 0.4829
vn 0.5019 -0.718 -0.4822
vn 0.7547 -0.4932 -0.4326
vn 0.7926 -0.6002 -0.1076
vn 0.4924 -0.8531 -0.1726
vn 0.7622 -0.5876 0.2714
vn 0.39 -0.9112 0.1325
vn 0.6263 -0.4664 0.6247
vn 0.2068 -0.9016 0.3799
vn 0.7355 0.3849 0.5576
vn 0.5037 0.7641 0.403
vn 0.7669 0.1453 0.625
vn 0.8325 0.3743 -0.4084
vn 0.8304 0.557 0.01022
vn 0.8479 0.514 0.1299
vn 0.9407 0.2117 -0.2651
vn 0.9427 0.302 -0.1417
vn 0.8191 -0.08225 -0.5677
vn 0.8758 -0.2636 -0.4043
vn 0.8621 -0.4772 -0.1703
vn 0.7352 -0.6687 0.1106
vn 0.6725 0.7371 -0.06638
vn 0.5502 0.6882 -0.4729
vn 0.513 -0.7703 0.3786
vn 0.2246 -0.7642 0.6047
vn -0.4904 -0.3152 0.8125
vn -0.7178 0.003204 0.6962
vn -0.149 -0.6064 0.781
vn 0.546 -0.04926 -0.8363
vn 0.6859 -0.3124 -0.6572
vn 0.4442 -0.541 -0.7141
vn 0.1894 0.3635 -0.9121
vn 0.8568 -0.2278 -0.4625
vn 0.4595 -0.6124 -0.6432
vn 0.9579 0.2213 -0.1826
vn 0.9375 0.2636 -0.227
vn 0.788 -0.08667 -0.6095
vn 0.5934 0.2082 -0.7775
vn 0.8869 0.3716 -0.2743
vn 0.8853 -0.1653 -0.4346
vn 0.3967 -0.6798 -0.6168
vn 0.2819 -0.4243 -0.8605
vn 0.8076 -0.0123 -0.5895
vn 0.6601 0.2972 -0.6898
vn 0.07193 0.03067 -0.9969
vn -0.2615 -0.6001 -0.756
vn -0.1078 -0.843 -0.5269
vn -0.4681 -0.2118 -0.8579
vn -0.3029 -0.9505 0.06861
vn -0.7631 -0.1498 0.6287
vn 0.3916 -0.6128 -0.6864
vn 0.4388 -0.7785 -0.4487
vn 0.2625 -0.9506 0.1657
vn 0.04379 -0.9256 0.3759
vn -0.2065 -0.8429 0.4968
vn 0.4043 -0.9047 -0.1341
vn -0.6934 -0.4321 0.5766
vn -0.8621 -0.1229 0.4915
vn -0.9414 0.1766 0.2872
vn -0.4676 -0.6766 0.5688
vn -0.9434 0.3284 0.04575
vn -0.9017 0.3824 -0.2017
vn -0.7868 0.3775 -0.4882
f 1/1/1 2/2/2 3/3/3
f 1/1/1 3/3/3 4/4/4
f 5/5/5 6/6/6 3/3/3
f 5/5/5 3/3/3 2/2/2
f 7/7/7 8/8/8 3/3/3
f 7/7/7 3/3/3 6/6/6
f 9/9/9 10/10/10 3/3/3
f 9/9/9 3/3/3 8/8/8
f 11/11/11 12/12/12 3/3/3
f 11/11/11 3/3/3 10/10/10
f 13/13/13 14/14/14 3/3/3
f 13/13/13 3/3/3 12/12/12
f 15/15/15 16/16/16 3/3/3
f 15/15/15 3/3/3 14/14/14
f 17/17/17 4/4/4 3/3/3
f 17/17/17 3/3/3 16/16/16
f 1/1/1 18/18/18 19/19/19
f 1/1/1 19/19/19 2/2/2
f 18/18/18 20/20/20 21/21/21
f 18/18/18 21/21/21 19/19/19
f 19/19/19 21/21/21 22/22/22
f 19/19/19 22/22/22 23/23/23
f 2/2/2 19/19/19 23/23/23
f 2/2/2 23/23/23 5/5/5
f 17/17/17 24/24/24 25/25/25
f 17/17/17 25/25/25 4/4/4
f 24/24/24 26/26/26 27/27/27
f 24/24/24 27/27/27 25/25/25
f 25/25/25 27/27/27 20/20/20
f 25/25/25 20/20/20 18/18/18
f 4/4/4 25/25/25 18/18/18
f 4/4/4 18/18/18 1/1/1
f 28/28/28 29/29/29 30/30/30
f 28/28/28 30/30/30 31/31/31
f 29/29/29 22/22/22 21/21/21
f 29/29/29 21/21/21 30/30/30
f 30/30/30 21/21/21 20/20/20
f 30/30/30 20/20/20 32/32/32
f 31/31/31 30/30/30 32/32/32
f 31/31/31 32/32/32 33/33/33
f 33/33/33 32/32/32 34/34/34
f 33/33/33 34/34/34 35/35/35
f 32/32/32 20/20/20 27/27/27
f 32/32/32 27/27/27 34/34/34
f 34/34/34 27/27/27 26/26/26
f 34/34/34 26/26/26 36/36/36
f 35/35/35 34/34/34 36/36/36
f 35/35/35 36/36/36 37/37/37
f 38/38/38 39/39/39 40/40/40
f 38/38/38 40/40/40 41/41/41
f 39/39/39 28/28/28 31/31/31
f 39/39/39 31/31/31 40/40/40
f 40/40/40 31/31/31 33/33/33
f 40/40/40 33/33/33 42/42/42
f 41/41/41 40/40/40 42/42/42
f 41/41/41 42/42/42 43/43/43
f 43/43/43 42/42/42 44/44/44
f 43/43/43 44/44/44 45/45/45
f 42/42/42 33/33/33 35/35/35
f 42/42/42 35/35/35 44/44/44
f 44/44/44 35/35/35 37/37/37
f 44/44/44 37/37/37 46/46/46
f 45/45/45 44/44/44 46/46/46
f 45/45/45 46/46/46 47/47/47
f 48/48/48 49/49/49 50/50/50
f 48/48/48 50/50/50 51/51/51
f 49/49/49 52/52/52 53/53/53
f 49/49/49 53/53/53 50/50/50
f 50/50/50 53/53/53 54/54/54
f 50/50/50 54/54/54 55/55/55
f 51/51/51 50/50/50 55/55/55
f 51/51/51 55/55/55 56/56/56
f 57/57/57 58/58/58 59/59/59
f 57/57/57 59/59/59 60/60/60
f 58/58/58 61/61/61 62/62/62
f 58/58/58 62/62/62 59/59/59
f 59/59/59 62/62/62 52/52/52
f 59/59/59 52/52/52 49/49/49
f 60/60/60 59/59/59 49/49/49
f 60/60/60 49/49/49 48/48/48
f 63/63/63 64/64/64 65/65/65
f 63/63/63 65/65/65 66/66/66
f 64/64/64 52/52/52 62/62/62
f 64/64/64 62/62/62 65/65/65
f 65/65/65 62/62/62 61/61/61
f 65/65/65 61/61/61 67/67/67
f 66/66/66 65/65/65 67/67/67
f 66/66/66 67/67/67 68/68/68
f 69/69/69 70/70/70 71/71/71
f 69/69/69 71/71/71 72/72/72
f 70/70/70 73/73/73 74/74/74
f 70/70/70 74/74/74 71/71/71
f 71/71/71 74/74/74 75/75/75
f 71/71/71 75/75/75 76/76/76
f 72/72/72 71/71/71 76/76/76
f 72/72/72 76/76/76 77/77/77
f 38/38/38 78/78/78 79/79/79
f 38/38/38 79/79/79 80/80/80
f 78/78/78 56/56/56 81/81/81
f 78/78/78 81/81/81 79/79/79
f 79/79/79 81/81/81 82/82/82
f 79/79/79 82/82/82 83/83/83
f 80/80/80 79/79/79 83/83/83
f 80/80/80 83/83/83 84/84/84
f 63/63/63 85/85/85 86/86/86
f 63/63/63 86/86/86 87/87/87
f 85/85/85 88/88/88 89/89/89
f 85/85/85 89/89/89 86/86/86
f 86/86/86 89/89/89 90/90/90
f 86/86/86 90/90/90 91/91/91
f 87/87/87 86/86/86 91/91/91
f 87/87/87 91/91/91 92/92/92
f 88/88/88 93/93/93 94/94/94
f 88/88/88 94/94/94 89/89/89
f 93/93/93 95/95/95 96/96/96
f 93/93/93 96/96/96 94/94/94
f 94/94/94 96/96/96 97/97/97
f 94/94/94 97/97/97 98/98/98
f 89/89/89 94/94/94 98/98/98
f 89/89/89 98/98/98 90/90/90
f 99/99/99 100/100/100 101/101/101
f 99/99/99 101/101/101 102/102/102
f 100/100/100 103/103/103 104/104/104
f 100/100/100 104/104/104 101/101/101
f 101/101/101 104/104/104 95/95/95
f 101/101/101 95/95/95 93/93/93
f 102/102/102 101/101/101 93/93/93
f 102/102/102 93/93/93 88/88/88
f 105/105/105 106/106/106 107/107/107
f 105/105/105 107/107/107 108/108/108
f 106/106/106 109/109/109 110/110/110
f 106/106/106 110/110/110 107/107/107
f 107/107/107 110/110/110 111/111/111
f 107/107/107 111/111/111 112/112/112
f 108/108/108 107/107/107 112/112/112
f 108/108/108 112/112/112 113/113/113
f 113/113/113 112/112/112 114/114/114
f 113/113/113 114/114/114 115/115/115
f 112/112/112 111/111/111 116/116/116
f 112/112/112 116/116/116 114/114/114
f 114/114/114 116/116/116 117/117/117
f 114/114/114 117/117/117 118/118/118
f 115/115/115 114/114/114 118/118/118
f 115/115/115 118/118/118 119/119/119
f 119/119/119 118/118/118 120/120/120
f 119/119/119 120/120/120 121/121/121
f 118/118/118 117/117/117 122/122/122
f 118/118/118 122/122/122 120/120/120
f 120/120/120 122/122/122 123/123/123
f 120/120/120 123/123/123 124/124/124
f 121/121/121 120/120/120 124/124/124
f 121/121/121 124/124/124 125/125/125
f 90/90/90 98/98/98 126/126/126
f 90/90/90 126/126/126 127/127/127
f 98/98/98 97/97/97 128/128/128
f 98/98/98 128/128/128 126/126/126
f 126/126/126 128/128/128 129/129/129
f 126/126/126 129/129/129 130/130/130
f 127/127/127 126/126/126 130/130/130
f 127/127/127 130/130/130 131/131/131
f 131/131/131 130/130/130 132/132/132
f 131/131/131 132/132/132 133/133/133
f 130/130/130 129/129/129 134/134/134
f 130/130/130 134/134/134 132/132/132
f 132/132/132 134/134/134 135/135/135
f 132/132/132 135/135/135 136/136/136
f 133/133/133 132/132/132 136/136/136
f 133/133/133 136/136/136 137/137/137
f 125/125/125 124/124/124 138/138/138
f 125/125/125 138/138/138 139/139/139
f 124/124/124 123/123/123 140/140/140
f 124/124/124 140/140/140 138/138/138
f 138/138/138 140/140/140 141/141/141
f 138/138/138 141/141/141 142/142/142
f 139/139/139 138/138/138 142/142/142
f 139/139/139 142/142/142 143/143/143
f 143/143/143 142/142/142 144/144/144
f 143/143/143 144/144/144 145/145/145
f 142/142/142 141/141/141 146/146/146
f 142/142/142 146/146/146 144/144/144
f 144/144/144 146/146/146 147/147/147
f 144/144/144 147/147/147 148/148/148
f 145/145/145 144/144/144 148/148/148
f 145/145/145 148/148/148 149/149/149
f 137/137/137 136/136/136 150/150/150
f 137/137/137 150/150/150 151/151/151
f 136/136/136 135/135/135 152/152/152
f 136/136/136 152/152/152 150/150/150
f 150/150/150 152/152/152 153/153/153
f 150/150/150 153/153/153 154/154/154
f 151/151/151 150/150/150 154/154/154
f 151/151/151 154/154/154 155/155/155
f 155/155/155 154/154/154 156/156/156
f 155/155/155 156/156/156 157/157/157
f 154/154/154 153/153/153 158/158/158
f 154/154/154 158/158/158 156/156/156
f 156/156/156 158/158/158 159/159/159
f 156/156/156 159/159/159 160/160/160
f 157/157/157 156/156/156 160/160/160
f 157/157/157 160/160/160 161/161/161
f 149/149/149 148/148/148 162/162/162
f 149/149/149 162/162/162 163/163/163
f 148/148/148 147/147/147 164/164/164
f 148/148/148 164/164/164 162/162/162
f 162/162/162 164/164/164 165/165/165
f 162/162/162 165/165/165 166/166/166
f 163/163/163 162/162/162 166/166/166
f 163/163/163 166/166/166 167/167/167
f 167/167/167 166/166/166 168/168/168
f 167/167/167 168/168/168 169/169/169
f 166/166/166 165/165/165 170/170/170
f 166/166/166 170/170/170 168/168/168
f 168/168/168 170/170/170 171/171/171
f 168/168/168 171/171/171 172/172/172
f 169/169/169 168/168/168 172/172/172
f 169/169/169 172/172/172 173/173/173
f 161/161/161 160/160/160 174/174/174
f 161/161/161 174/174/174 175/175/175
f 160/160/160 159/159/159 176/176/176
f 160/160/160 176/176/176 174/174/174
f 174/174/174 176/176/176 177/177/177
f 174/174/174 177/177/177 178/178/178
f 175/175/175 174/174/174 178/178/178
f 175/175/175 178/178/178 179/179/179
f 179/179/179 178/178/178 180/180/180
f 179/179/179 180/180/180 181/181/181
f 178/178/178 177/177/177 182/182/182
f 178/178/178 182/182/182 180/180/180
f 180/180/180 182/182/182 103/103/103
f 180/180/180 103/103/103 100/100/100
f 181/181/181 180/180/180 100/100/100
f 181/181/181 100/100/100 99/99/99
f 173/173/173 172/172/172 183/183/183
f 173/173/173 183/183/183 184/184/184
f 172/172/172 171/171/171 185/185/185
f 172/172/172 185/185/185 183/183/183
f 183/183/183 185/185/185 109/109/109
f 183/183/183 109/109/109 106/106/106
f 184/184/184 183/183/183 106/106/106
f 184/184/184 106/106/106 105/105/105
f 186/186/186 187/187/187 188/188/188
f 186/186/186 188/188/188 189/189/189
f 187/187/187 109/109/109 185/185/185
f 187/187/187 185/185/185 188/188/188
f 188/188/188 185/185/185 171/171/171
f 188/188/188 171/171/171 190/190/190
f 189/189/189 188/188/188 190/190/190
f 189/189/189 190/190/190 191/191/191
f 192/192/192 193/193/193 194/194/194
f 192/192/192 194/194/194 195/195/195
f 193/193/193 196/196/196 197/197/197
f 193/193/193 197/197/197 194/194/194
f 194/194/194 197/197/197 117/117/117
f 194/194/194 117/117/117 116/116/116
f 195/195/195 194/194/194 116/116/116
f 195/195/195 116/116/116 111/111/111
f 198/198/198 199/199/199 200/200/200
f 198/198/198 200/200/200 201/201/201
f 199/199/199 202/202/202 203/203/203
f 199/199/199 203/203/203 200/200/200
f 200/200/200 203/203/203 204/204/204
f 200/200/200 204/204/204 205/205/205
f 201/201/201 200/200/200 205/205/205
f 201/201/201 205/205/205 191/191/191
f 191/191/191 205/205/205 206/206/206
f 191/191/191 206/206/206 189/189/189
f 205/205/205 204/204/204 207/207/207
f 205/205/205 207/207/207 206/206/206
f 206/206/206 207/207/207 208/208/208
f 206/206/206 208/208/208 209/209/209
f 189/189/189 206/206/206 209/209/209
f 189/189/189 209/209/209 186/186/186
f 92/92/92 210/210/210 211/211/211
f 92/92/92 211/211/211 87/87/87
f 210/210/210 54/54/54 53/53/53
f 210/210/210 53/53/53 211/211/211
f 211/211/211 53/53/53 52/52/52
f 211/211/211 52/52/52 64/64/64
f 87/87/87 211/211/211 64/64/64
f 87/87/87 64/64/64 63/63/63
f 103/103/103 212/212/212 213/213/213
f 103/103/103 213/213/213 104/104/104
f 212/212/212 105/105/105 108/108/108
f 212/212/212 108/108/108 213/213/213
f 213/213/213 108/108/108 113/113/113
f 213/213/213 113/113/113 214/214/214
f 104/104/104 213/213/213 214/214/214
f 104/104/104 214/214/214 95/95/95
f 202/202/202 215/215/215 216/216/216
f 202/202/202 216/216/216 203/203/203
f 215/215/215 217/217/217 218/218/218
f 215/215/215 218/218/218 216/216/216
f 216/216/216 218/218/218 219/219/219
f 216/216/216 219/219/219 220/220/220
f 203/203/203 216/216/216 220/220/220
f 203/203/203 220/220/220 204/204/204
f 204/204/204 220/220/220 221/221/221
f 204/204/204 221/221/221 207/207/207
f 220/220/220 219/219/219 222/222/222
f 220/220/220 222/222/222 221/221/221
f 221/221/221 222/222/222 223/223/223
f 221/221/221 223/223/223 224/224/224
f 207/207/207 221/221/221 224/224/224
f 207/207/207 224/224/224 208/208/208
f 225/225/225 226/226/226 227/227/227
f 225/225/225 227/227/227 228/228/228
f 226/226/226 223/223/223 222/222/222
f 226/226/226 222/222/222 227/227/227
f 227/227/227 222/222/222 219/219/219
f 227/227/227 219/219/219 229/229/229
f 228/228/228 227/227/227 229/229/229
f 228/228/228 229/229/229 230/230/230
f 231/231/231 232/232/232 233/233/233
f 231/231/231 233/233/233 234/234/234
f 232/232/232 235/235/235 236/236/236
f 232/232/232 236/236/236 233/233/233
f 233/233/233 236/236/236 237/237/237
f 233/233/233 237/237/237 238/238/238
f 234/234/234 233/233/233 238/238/238
f 234/234/234 238/238/238 239/239/239
f 240/240/240 241/241/241 242/242/242
f 240/240/240 242/242/242 243/243/243
f 241/241/241 244/244/244 245/245/245
f 241/241/241 245/245/245 242/242/242
f 242/242/242 245/245/245 246/246/246
f 242/242/242 246/246/246 247/247/247
f 243/243/243 242/242/242 247/247/247
f 243/243/243 247/247/247 230/230/230
f 230/230/230 247/247/247 248/248/248
f 230/230/230 248/248/248 228/228/228
f 247/247/247 246/246/246 249/249/249
f 247/247/247 249/249/249 248/248/248
f 248/248/248 249/249/249 250/250/250
f 248/248/248 250/250/250 251/251/251
f 228/228/228 248/248/248 251/251/251
f 228/228/228 251/251/251 225/225/225
f 244/244/244 252/252/252 253/253/253
f 244/244/244 253/253/253 245/245/245
f 252/252/252 254/254/254 255/255/255
f 252/252/252 255/255/255 253/253/253
f 253/253/253 255/255/255 256/256/256
f 253/253/253 256/256/256 257/257/257
f 245/245/245 253/253/253 257/257/257
f 245/245/245 257/257/257 246/246/246
f 246/246/246 257/257/257 258/258/258
f 246/246/246 258/258/258 249/249/249
f 257/257/257 256/256/256 259/259/259
f 257/257/257 259/259/259 258/258/258
f 258/258/258 259/259/259 260/260/260
f 258/258/258 260/260/260 261/261/261
f 249/249/249 258/258/258 261/261/261
f 249/249/249 261/261/261 250/250/250
f 254/254/254 262/262/262 263/263/263
f 254/254/254 263/263/263 255/255/255
f 262/262/262 264/264/264 265/265/265
f 262/262/262 265/265/265 263/263/263
f 263/263/263 265/265/265 266/266/266
f 263/263/263 266/266/266 267/267/267
f 255/255/255 263/263/263 267/267/267
f 255/255/255 267/267/267 256/256/256
f 256/256/256 267/267/267 268/268/268
f 256/256/256 268/268/268 259/259/259
f 267/267/267 266/266/266 269/269/269
f 267/267/267 269/269/269 268/268/268
f 268/268/268 269/269/269 270/270/270
f 268/268/268 270/270/270 271/271/271
f 259/259/259 268/268/268 271/271/271
f 259/259/259 271/271/271 260/260/260
f 264/264/264 272/272/272 273/273/273
f 264/264/264 273/273/273 265/265/265
f 272/272/272 274/274/274 275/275/275
f 272/272/272 275/275/275 273/273/273
f 273/273/273 275/275/275 276/276/276
f 273/273/273 276/276/276 277/277/277
f 265/265/265 273/273/273 277/277/277
f 265/265/265 277/277/277 266/266/266
f 266/266/266 277/277/277 278/278/278
f 266/266/266 278/278/278 269/269/269
f 277/277/277 276/276/276 279/279/279
f 277/277/277 279/279/279 278/278/278
f 278/278/278 279/279/279 280/280/280
f 278/278/278 280/280/280 281/281/281
f 269/269/269 278/278/278 281/281/281
f 269/269/269 281/281/281 270/270/270
f 274/274/274 282/282/282 283/283/283
f 274/274/274 283/283/283 275/275/275
f 282/282/282 284/284/284 285/285/285
f 282/282/282 285/285/285 283/283/283
f 283/283/283 285/285/285 286/286/286
f 283/283/283 286/286/286 287/287/287
f 275/275/275 283/283/283 287/287/287
f 275/275/275 287/287/287 276/276/276
f 276/276/276 287/287/287 288/288/288
f 276/276/276 288/288/288 279/279/279
f 287/287/287 286/286/286 289/289/289
f 287/287/287 289/289/289 288/288/288
f 288/288/288 289/289/289 290/290/290
f 288/288/288 290/290/290 291/291/291
f 279/279/279 288/288/288 291/291/291
f 279/279/279 291/291/291 280/280/280
f 292/292/292 293/293/293 294/294/294
f 292/292/292 294/294/294 295/295/295
f 296/296/296 297/297/297 294/294/294
f 296/296/296 294/294/294 293/293/293
f 298/298/298 299/299/299 294/294/294
f 298/298/298 294/294/294 297/297/297
f 300/300/300 301/301/301 294/294/294
f 300/300/300 294/294/294 299/299/299
f 290/290/290 289/289/289 294/294/294
f 290/290/290 294/294/294 301/301/301
f 286/286/286 285/285/285 294/294/294
f 286/286/286 294/294/294 289/289/289
f 284/284/284 302/302/302 294/294/294
f 284/284/284 294/294/294 285/285/285
f 303/303/303 295/295/295 294/294/294
f 303/303/303 294/294/294 302/302/302
f 280/280/280 291/291/291 304/304/304
f 280/280/280 304/304/304 305/305/305
f 291/291/291 290/290/290 301/301/301
f 291/291/291 301/301/301 304/304/304
f 304/304/304 301/301/301 300/300/300
f 304/304/304 300/300/300 306/306/306
f 305/305/305 304/304/304 306/306/306
f 305/305/305 306/306/306 307/307/307
f 307/307/307 306/306/306 308/308/308
f 307/307/307 308/308/308 309/309/309
f 306/306/306 300/300/300 299/299/299
f 306/306/306 299/299/299 308/308/308
f 308/308/308 299/299/299 298/298/298
f 308/308/308 298/298/298 310/310/310
f 309/309/309 308/308/308 310/310/310
f 309/309/309 310/310/310 311/311/311
f 312/312/312 313/313/313 314/314/314
f 312/312/312 314/314/314 315/315/315
f 313/313/313 307/307/307 309/309/309
f 313/313/313 309/309/309 314/314/314
f 314/314/314 309/309/309 311/311/311
f 314/314/314 311/311/311 316/316/316
f 315/315/315 314/314/314 316/316/316
f 315/315/315 316/316/316 317/317/317
f 270/270/270 281/281/281 318/318/318
f 270/270/270 318/318/318 319/319/319
f 281/281/281 280/280/280 305/305/305
f 281/281/281 305/305/305 318/318/318
f 318/318/318 305/305/305 307/307/307
f 318/318/318 307/307/307 313/313/313
f 319/319/319 318/318/318 313/313/313
f 319/319/319 313/313/313 312/312/312
f 320/320/320 321/321/321 322/322/322
f 320/320/320 322/322/322 323/323/323
f 321/321/321 312/312/312 315/315/315
f 321/321/321 315/315/315 322/322/322
f 322/322/322 315/315/315 317/317/317
f 322/322/322 317/317/317 324/324/324
f 323/323/323 322/322/322 324/324/324
f 323/323/323 324/324/324 325/325/325
f 260/260/260 271/271/271 326/326/326
f 260/260/260 326/326/326 327/327/327
f 271/271/271 270/270/270 319/319/319
f 271/271/271 319/319/319 326/326/326
f 326/326/326 319/319/319 312/312/312
f 326/326/326 312/312/312 321/321/321
f 327/327/327 326/326/326 321/321/321
f 327/327/327 321/321/321 320/320/320
f 328/328/328 329/329/329 330/330/330
f 328/328/328 330/330/330 331/331/331
f 329/329/329 320/320/320 323/323/323
f 329/329/329 323/323/323 330/330/330
f 330/330/330 323/323/323 325/325/325
f 330/330/330 325/325/325 332/332/332
f 331/331/331 330/330/330 332/332/332
f 331/331/331 332/332/332 333/333/333
f 250/250/250 261/261/261 334/334/334
f 250/250/250 334/334/334 335/335/335
f 261/261/261 260/260/260 327/327/327
f 261/261/261 327/327/327 334/334/334
f 334/334/334 327/327/327 320/320/320
f 334/334/334 320/320/320 329/329/329
f 335/335/335 334/334/334 329/329/329
f 335/335/335 329/329/329 328/328/328
f 235/235/235 336/336/336 337/337/337
f 235/235/235 337/337/337 236/236/236
f 336/336/336 328/328/328 331/331/331
f 336/336/336 331/331/331 337/337/337
f 337/337/337 331/331/331 333/333/333
f 337/337/337 333/333/333 338/338/338
f 236/236/236 337/337/337 338/338/338
f 236/236/236 338/338/338 237/237/237
f 225/225/225 251/251/251 339/339/339
f 225/225/225 339/339/339 340/340/340
f 251/251/251 250/250/250 335/335/335
f 251/251/251 335/335/335 339/339/339
f 339/339/339 335/335/335 328/328/328
f 339/339/339 328/328/328 336/336/336
f 340/340/340 339/339/339 336/336/336
f 340/340/340 336/336/336 235/235/235
f 223/223/223 226/226/226 341/341/341
f 223/223/223 341/341/341 342/342/342
f 226/226/226 225/225/225 340/340/340
f 226/226/226 340/340/340 341/341/341
f 341/341/341 340/340/340 235/235/235
f 341/341/341 235/235/235 232/232/232
f 342/342/342 341/341/341 232/232/232
f 342/342/342 232/232/232 231/231/231
f 343/343/343 344/344/344 345/345/345
f 343/343/343 345/345/345 346/346/346
f 344/344/344 347/347/347 348/348/348
f 344/344/344 348/348/348 345/345/345
f 345/345/345 348/348/348 349/349/349
f 345/345/345 349/349/349 350/350/350
f 346/346/346 345/345/345 350/350/350
f 346/346/346 350/350/350 351/351/351
f 352/352/352 353/353/353 354/354/354
f 352/352/352 354/354/354 355/355/355
f 353/353/353 231/231/231 234/234/234
f 353/353/353 234/234/234 354/354/354
f 354/354/354 234/234/234 239/239/239
f 354/354/354 239/239/239 356/356/356
f 355/355/355 354/354/354 356/356/356
f 355/355/355 356/356/356 357/357/357
f 208/208/208 224/224/224 358/358/358
f 208/208/208 358/358/358 359/359/359
f 224/224/224 223/223/223 342/342/342
f 224/224/224 342/342/342 358/358/358
f 358/358/358 342/342/342 231/231/231
f 358/358/358 231/231/231 353/353/353
f 359/359/359 358/358/358 353/353/353
f 359/359/359 353/353/353 352/352/352
f 192/192/192 360/360/360 361/361/361
f 192/192/192 361/361/361 193/193/193
f 360/360/360 352/352/352 355/355/355
f 360/360/360 355/355/355 361/361/361
f 361/361/361 355/355/355 357/357/357
f 361/361/361 357/357/357 362/362/362
f 193/193/193 361/361/361 362/362/362
f 193/193/193 362/362/362 196/196/196
f 363/363/363 364/364/364 365/365/365
f 363/363/363 365/365/365 366/366/366
f 364/364/364 367/367/367 368/368/368
f 364/364/364 368/368/368 365/365/365
f 365/365/365 368/368/368 369/369/369
f 365/365/365 369/369/369 370/370/370
f 366/366/366 365/365/365 370/370/370
f 366/366/366 370/370/370 371/371/371
f 95/95/95 214/214/214 372/372/372
f 95/95/95 372/372/372 96/96/96
f 214/214/214 113/113/113 115/115/115
f 214/214/214 115/115/115 372/372/372
f 372/372/372 115/115/115 119/119/119
f 372/372/372 119/119/119 373/373/373
f 96/96/96 372/372/372 373/373/373
f 96/96/96 373/373/373 97/97/97
f 97/97/97 373/373/373 374/374/374
f 97/97/97 374/374/374 128/128/128
f 373/373/373 119/119/119 121/121/121
f 373/373/373 121/121/121 374/374/374
f 374/374/374 121/121/121 125/125/125
f 374/374/374 125/125/125 375/375/375
f 128/128/128 374/374/374 375/375/375
f 128/128/128 375/375/375 129/129/129
f 186/186/186 376/376/376 377/377/377
f 186/186/186 377/377/377 187/187/187
f 376/376/376 192/192/192 195/195/195
f 376/376/376 195/195/195 377/377/377
f 377/377/377 195/195/195 111/111/111
f 377/377/377 111/111/111 110/110/110
f 187/187/187 377/377/377 110/110/110
f 187/187/187 110/110/110 109/109/109
f 123/123/123 122/122/122 378/378/378
f 123/123/123 378/378/378 379/379/379
f 122/122/122 117/117/117 197/197/197
f 122/122/122 197/197/197 378/378/378
f 378/378/378 197/197/197 196/196/196
f 378/378/378 196/196/196 380/380/380
f 379/379/379 378/378/378 380/380/380
f 379/379/379 380/380/380 363/363/363
f 196/196/196 362/362/362 381/381/381
f 196/196/196 381/381/381 380/380/380
f 362/362/362 357/357/357 382/382/382
f 362/362/362 382/382/382 381/381/381
f 381/381/381 382/382/382 367/367/367
f 381/381/381 367/367/367 364/364/364
f 380/380/380 381/381/381 364/364/364
f 380/380/380 364/364/364 363/363/363
f 371/371/371 383/383/383 384/384/384
f 371/371/371 384/384/384 366/366/366
f 383/383/383 141/141/141 140/140/140
f 383/383/383 140/140/140 384/384/384
f 384/384/384 140/140/140 123/123/123
f 384/384/384 123/123/123 379/379/379
f 366/366/366 384/384/384 379/379/379
f 366/366/366 379/379/379 363/363/363
f 186/186/186 209/209/209 385/385/385
f 186/186/186 385/385/385 376/376/376
f 209/209/209 208/208/208 359/359/359
f 209/209/209 359/359/359 385/385/385
f 385/385/385 359/359/359 352/352/352
f 385/385/385 352/352/352 360/360/360
f 376/376/376 385/385/385 360/360/360
f 376/376/376 360/360/360 192/192/192
f 371/371/371 386/386/386 387/387/387
f 371/371/371 387/387/387 383/383/383
f 386/386/386 388/388/388 389/389/389
f 386/386/386 389/389/389 387/387/387
f 387/387/387 389/389/389 147/147/147
f 387/387/387 147/147/147 146/146/146
f 383/383/383 387/387/387 146/146/146
f 383/383/383 146/146/146 141/141/141
f 129/129/129 375/375/375 390/390/390
f 129/129/129 390/390/390 134/134/134
f 375/375/375 125/125/125 139/139/139
f 375/375/375 139/139/139 390/390/390
f 390/390/390 139/139/139 143/143/143
f 390/390/390 143/143/143 391/391/391
f 134/134/134 390/390/390 391/391/391
f 134/134/134 391/391/391 135/135/135
f 135/135/135 391/391/391 392/392/392
f 135/135/135 392/392/392 152/152/152
f 391/391/391 143/143/143 145/145/145
f 391/391/391 145/145/145 392/392/392
f 392/392/392 145/145/145 149/149/149
f 392/392/392 149/149/149 393/393/393
f 152/152/152 392/392/392 393/393/393
f 152/152/152 393/393/393 153/153/153
f 367/367/367 394/394/394 395/395/395
f 367/367/367 395/395/395 368/368/368
f 394/394/394 349/349/349 348/348/348
f 394/394/394 348/348/348 395/395/395
f 395/395/395 348/348/348 347/347/347
f 395/395/395 347/347/347 396/396/396
f 368/368/368 395/395/395 396/396/396
f 368/368/368 396/396/396 369/369/369
f 357/357/357 356/356/356 397/397/397
f 357/357/357 397/397/397 382/382/382
f 356/356/356 239/239/239 398/398/398
f 356/356/356 398/398/398 397/397/397
f 397/397/397 398/398/398 349/349/349
f 397/397/397 349/349/349 394/394/394
f 382/382/382 397/397/397 394/394/394
f 382/382/382 394/394/394 367/367/367
f 349/349/349 398/398/398 399/399/399
f 349/349/349 399/399/399 350/350/350
f 398/398/398 239/239/239 238/238/238
f 398/398/398 238/238/238 399/399/399
f 399/399/399 238/238/238 237/237/237
f 399/399/399 237/237/237 400/400/400
f 350/350/350 399/399/399 400/400/400
f 350/350/350 400/400/400 351/351/351
f 347/347/347 344/344/344 401/401/401
f 347/347/347 401/401/401 402/402/402
f 344/344/344 343/343/343 403/403/403
f 344/344/344 403/403/403 401/401/401
f 401/401/401 403/403/403 404/404/404
f 401/401/401 404/404/404 405/405/405
f 402/402/402 401/401/401 405/405/405
f 402/402/402 405/405/405 406/406/406
f 351/351/351 407/407/407 408/408/408
f 351/351/351 408/408/408 346/346/346
f 407/407/407 409/409/409 410/410/410
f 407/407/407 410/410/410 408/408/408
f 408/408/408 410/410/410 411/411/411
f 408/408/408 411/411/411 412/412/412
f 346/346/346 408/408/408 412/412/412
f 346/346/346 412/412/412 343/343/343
f 237/237/237 338/338/338 413/413/413
f 237/237/237 413/413/413 400/400/400
f 338/338/338 333/333/333 414/414/414
f 338/338/338 414/414/414 413/413/413
f 413/413/413 414/414/414 409/409/409
f 413/413/413 409/409/409 407/407/407
f 400/400/400 413/413/413 407/407/407
f 400/400/400 407/407/407 351/351/351
f 409/409/409 415/415/415 416/416/416
f 409/409/409 416/416/416 410/410/410
f 415/415/415 417/417/417 418/418/418
f 415/415/415 418/418/418 416/416/416
f 416/416/416 418/418/418 419/419/419
f 416/416/416 419/419/419 420/420/420
f 410/410/410 416/416/416 420/420/420
f 410/410/410 420/420/420 411/411/411
f 333/333/333 332/332/332 421/421/421
f 333/333/333 421/421/421 414/414/414
f 332/332/332 325/325/325 422/422/422
f 332/332/332 422/422/422 421/421/421
f 421/421/421 422/422/422 417/417/417
f 421/421/421 417/417/417 415/415/415
f 414/414/414 421/421/421 415/415/415
f 414/414/414 415/415/415 409/409/409
f 417/417/417 423/423/423 424/424/424
f 417/417/417 424/424/424 418/418/418
f 423/423/423 425/425/425 426/426/426
f 423/423/423 426/426/426 424/424/424
f 424/424/424 426/426/426 427/427/427
f 424/424/424 427/427/427 428/428/428
f 418/418/418 424/424/424 428/428/428
f 418/418/418 428/428/428 419/419/419
f 325/325/325 324/324/324 429/429/429
f 325/325/325 429/429/429 422/422/422
f 324/324/324 317/317/317 430/430/430
f 324/324/324 430/430/430 429/429/429
f 429/429/429 430/430/430 425/425/425
f 429/429/429 425/425/425 423/423/423
f 422/422/422 429/429/429 423/423/423
f 422/422/422 423/423/423 417/417/417
f 425/425/425 431/431/431 432/432/432
f 425/425/425 432/432/432 426/426/426
f 431/431/431 433/433/433 434/434/434
f 431/431/431 434/434/434 432/432/432
f 432/432/432 434/434/434 435/435/435
f 432/432/432 435/435/435 436/436/436
f 426/426/426 432/432/432 436/436/436
f 426/426/426 436/436/436 427/427/427
f 317/317/317 316/316/316 437/437/437
f 317/317/317 437/437/437 430/430/430
f 316/316/316 311/311/311 438/438/438
f 316/316/316 438/438/438 437/437/437
f 437/437/437 438/438/438 433/433/433
f 437/437/437 433/433/433 431/431/431
f 430/430/430 437/437/437 431/431/431
f 430/430/430 431/431/431 425/425/425
f 433/433/433 439/439/439 440/440/440
f 433/433/433 440/440/440 434/434/434
f 439/439/439 296/296/296 293/293/293
f 439/439/439 293/293/293 440/440/440
f 440/440/440 293/293/293 292/292/292
f 440/440/440 292/292/292 441/441/441
f 434/434/434 440/440/440 441/441/441
f 434/434/434 441/441/441 435/435/435
f 311/311/311 310/310/310 442/442/442
f 311/311/311 442/442/442 438/438/438
f 310/310/310 298/298/298 297/297/297
f 310/310/310 297/297/297 442/442/442
f 442/442/442 297/297/297 296/296/296
f 442/442/442 296/296/296 439/439/439
f 438/438/438 442/442/442 439/439/439
f 438/438/438 439/439/439 433/433/433
f 435/435/435 441/441/441 443/443/443
f 435/435/435 443/443/443 444/444/444
f 441/441/441 292/292/292 295/295/295
f 441/441/441 295/295/295 443/443/443
f 443/443/443 295/295/295 303/303/303
f 443/443/443 303/303/303 445/445/445
f 444/444/444 443/443/443 445/445/445
f 444/444/444 445/445/445 446/446/446
f 446/446/446 445/445/445 447/447/447
f 446/446/446 447/447/447 448/448/448
f 445/445/445 303/303/303 302/302/302
f 445/445/445 302/302/302 447/447/447
f 447/447/447 302/302/302 284/284/284
f 447/447/447 284/284/284 282/282/282
f 448/448/448 447/447/447 282/282/282
f 448/448/448 282/282/282 274/274/274
f 427/427/427 436/436/436 449/449/449
f 427/427/427 449/449/449 450/450/450
f 436/436/436 435/435/435 444/444/444
f 436/436/436 444/444/444 449/449/449
f 449/449/449 444/444/444 446/446/446
f 449/449/449 446/446/446 451/451/451
f 450/450/450 449/449/449 451/451/451
f 450/450/450 451/451/451 452/452/452
f 452/452/452 451/451/451 453/453/453
f 452/452/452 453/453/453 454/454/454
f 451/451/451 446/446/446 448/448/448
f 451/451/451 448/448/448 453/453/453
f 453/453/453 448/448/448 274/274/274
f 453/453/453 274/274/274 272/272/272
f 454/454/454 453/453/453 272/272/272
f 454/454/454 272/272/272 264/264/264
f 419/419/419 428/428/428 455/455/455
f 419/419/419 455/455/455 456/456/456
f 428/428/428 427/427/427 450/450/450
f 428/428/428 450/450/450 455/455/455
f 455/455/455 450/450/450 452/452/452
f 455/455/455 452/452/452 457/457/457
f 456/456/456 455/455/455 457/457/457
f 456/456/456 457/457/457 458/458/458
f 458/458/458 457/457/457 459/459/459
f 458/458/458 459/459/459 460/460/460
f 457/457/457 452/452/452 454/454/454
f 457/457/457 454/454/454 459/459/459
f 459/459/459 454/454/454 264/264/264
f 459/459/459 264/264/264 262/262/262
f 460/460/460 459/459/459 262/262/262
f 460/460/460 262/262/262 254/254/254
f 411/411/411 420/420/420 461/461/461
f 411/411/411 461/461/461 462/462/462
f 420/420/420 419/419/419 456/456/456
f 420/420/420 456/456/456 461/461/461
f 461/461/461 456/456/456 458/458/458
f 461/461/461 458/458/458 463/463/463
f 462/462/462 461/461/461 463/463/463
f 462/462/462 463/463/463 464/464/464
f 464/464/464 463/463/463 465/465/465
f 464/464/464 465/465/465 466/466/466
f 463/463/463 458/458/458 460/460/460
f 463/463/463 460/460/460 465/465/465
f 465/465/465 460/460/460 254/254/254
f 465/465/465 254/254/254 252/252/252
f 466/466/466 465/465/465 252/252/252
f 466/466/466 252/252/252 244/244/244
f 343/343/343 412/412/412 467/467/467
f 343/343/343 467/467/467 403/403/403
f 412/412/412 411/411/411 462/462/462
f 412/412/412 462/462/462 467/467/467
f 467/467/467 462/462/462 464/464/464
f 467/467/467 464/464/464 468/468/468
f 403/403/403 467/467/467 468/468/468
f 403/403/403 468/468/468 404/404/404
f 404/404/404 468/468/468 469/469/469
f 404/404/404 469/469/469 470/470/470
f 468/468/468 464/464/464 466/466/466
f 468/468/468 466/466/466 469/469/469
f 469/469/469 466/466/466 244/244/244
f 469/469/469 244/244/244 241/241/241
f 470/470/470 469/469/469 241/241/241
f 470/470/470 241/241/241 240/240/240
f 406/406/406 405/405/405 471/471/471
f 406/406/406 471/471/471 472/472/472
f 405/405/405 404/404/404 470/470/470
f 405/405/405 470/470/470 471/471/471
f 471/471/471 470/470/470 240/240/240
f 471/471/471 240/240/240 473/473/473
f 472/472/472 471/471/471 473/473/473
f 472/472/472 473/473/473 217/217/217
f 369/369/369 396/396/396 474/474/474
f 369/369/369 474/474/474 475/475/475
f 396/396/396 347/347/347 402/402/402
f 396/396/396 402/402/402 474/474/474
f 474/474/474 402/402/402 406/406/406
f 474/474/474 406/406/406 476/476/476
f 475/475/475 474/474/474 476/476/476
f 475/475/475 476/476/476 477/477/477
f 477/477/477 476/476/476 478/478/478
f 477/477/477 478/478/478 479/479/479
f 476/476/476 406/406/406 472/472/472
f 476/476/476 472/472/472 478/478/478
f 478/478/478 472/472/472 217/217/217
f 478/478/478 217/217/217 215/215/215
f 479/479/479 478/478/478 215/215/215
f 479/479/479 215/215/215 202/202/202
f 371/371/371 370/370/370 480/480/480
f 371/371/371 480/480/480 386/386/386
f 370/370/370 369/369/369 475/475/475
f 370/370/370 475/475/475 480/480/480
f 480/480/480 475/475/475 477/477/477
f 480/480/480 477/477/477 481/481/481
f 386/386/386 480/480/480 481/481/481
f 386/386/386 481/481/481 388/388/388
f 171/171/171 170/170/170 482/482/482
f 171/171/171 482/482/482 190/190/190
f 170/170/170 165/165/165 483/483/483
f 170/170/170 483/483/483 482/482/482
f 482/482/482 483/483/483 198/198/198
f 482/482/482 198/198/198 201/201/201
f 190/190/190 482/482/482 201/201/201
f 190/190/190 201/201/201 191/191/191
f 153/153/153 393/393/393 484/484/484
f 153/153/153 484/484/484 158/158/158
f 393/393/393 149/149/149 163/163/163
f 393/393/393 163/163/163 484/484/484
f 484/484/484 163/163/163 167/167/167
f 484/484/484 167/167/167 485/485/485
f 158/158/158 484/484/484 485/485/485
f 158/158/158 485/485/485 159/159/159
f 159/159/159 485/485/485 486/486/486
f 159/159/159 486/486/486 176/176/176
f 485/485/485 167/167/167 169/169/169
f 485/485/485 169/169/169 486/486/486
f 486/486/486 169/169/169 173/173/173
f 486/486/486 173/173/173 487/487/487
f 176/176/176 486/486/486 487/487/487
f 176/176/176 487/487/487 177/177/177
f 388/388/388 488/488/488 489/489/489
f 388/388/388 489/489/489 389/389/389
f 488/488/488 198/198/198 483/483/483
f 488/488/488 483/483/483 489/489/489
f 489/489/489 483/483/483 165/165/165
f 489/489/489 165/165/165 164/164/164
f 389/389/389 489/489/489 164/164/164
f 389/389/389 164/164/164 147/147/147
f 388/388/388 481/481/481 490/490/490
f 388/388/388 490/490/490 488/488/488
f 481/481/481 477/477/477 479/479/479
f 481/481/481 479/479/479 490/490/490
f 490/490/490 479/479/479 202/202/202
f 490/490/490 202/202/202 199/199/199
f 488/488/488 490/490/490 199/199/199
f 488/488/488 199/199/199 198/198/198
f 75/75/75 491/491/491 492/492/492
f 75/75/75 492/492/492 76/76/76
f 491/491/491 68/68/68 67/67/67
f 491/491/491 67/67/67 492/492/492
f 492/492/492 67/67/67 61/61/61
f 492/492/492 61/61/61 493/493/493
f 76/76/76 492/492/492 493/493/493
f 76/76/76 493/493/493 77/77/77
f 494/494/494 495/495/495 496/496/496
f 494/494/494 496/496/496 497/497/497
f 495/495/495 498/498/498 499/499/499
f 495/495/495 499/499/499 496/496/496
f 496/496/496 499/499/499 500/500/500
f 496/496/496 500/500/500 501/501/501
f 497/497/497 496/496/496 501/501/501
f 497/497/497 501/501/501 502/502/502
f 68/68/68 503/503/503 504/504/504
f 68/68/68 504/504/504 66/66/66
f 503/503/503 99/99/99 102/102/102
f 503/503/503 102/102/102 504/504/504
f 504/504/504 102/102/102 88/88/88
f 504/504/504 88/88/88 85/85/85
f 66/66/66 504/504/504 85/85/85
f 66/66/66 85/85/85 63/63/63
f 92/92/92 91/91/91 505/505/505
f 92/92/92 505/505/505 506/506/506
f 91/91/91 90/90/90 127/127/127
f 91/91/91 127/127/127 505/505/505
f 505/505/505 127/127/127 131/131/131
f 505/505/505 131/131/131 507/507/507
f 506/506/506 505/505/505 507/507/507
f 506/506/506 507/507/507 508/508/508
f 509/509/509 510/510/510 511/511/511
f 509/509/509 511/511/511 512/512/512
f 510/510/510 69/69/69 72/72/72
f 510/510/510 72/72/72 511/511/511
f 511/511/511 72/72/72 77/77/77
f 511/511/511 77/77/77 513/513/513
f 512/512/512 511/511/511 513/513/513
f 512/512/512 513/513/513 514/514/514
f 514/514/514 513/513/513 515/515/515
f 514/514/514 515/515/515 516/516/516
f 513/513/513 77/77/77 493/493/493
f 513/513/513 493/493/493 515/515/515
f 515/515/515 493/493/493 61/61/61
f 515/515/515 61/61/61 58/58/58
f 516/516/516 515/515/515 58/58/58
f 516/516/516 58/58/58 57/57/57
f 517/517/517 518/518/518 519/519/519
f 517/517/517 519/519/519 520/520/520
f 518/518/518 521/521/521 522/522/522
f 518/518/518 522/522/522 519/519/519
f 519/519/519 522/522/522 523/523/523
f 519/519/519 523/523/523 524/524/524
f 520/520/520 519/519/519 524/524/524
f 520/520/520 524/524/524 525/525/525
f 47/47/47 46/46/46 526/526/526
f 47/47/47 526/526/526 527/527/527
f 46/46/46 37/37/37 528/528/528
f 46/46/46 528/528/528 526/526/526
f 526/526/526 528/528/528 521/521/521
f 526/526/526 521/521/521 518/518/518
f 527/527/527 526/526/526 518/518/518
f 527/527/527 518/518/518 517/517/517
f 521/521/521 529/529/529 530/530/530
f 521/521/521 530/530/530 522/522/522
f 529/529/529 531/531/531 532/532/532
f 529/529/529 532/532/532 530/530/530
f 530/530/530 532/532/532 533/533/533
f 530/530/530 533/533/533 534/534/534
f 522/522/522 530/530/530 534/534/534
f 522/522/522 534/534/534 523/523/523
f 37/37/37 36/36/36 535/535/535
f 37/37/37 535/535/535 528/528/528
f 36/36/36 26/26/26 536/536/536
f 36/36/36 536/536/536 535/535/535
f 535/535/535 536/536/536 531/531/531
f 535/535/535 531/531/531 529/529/529
f 528/528/528 535/535/535 529/529/529
f 528/528/528 529/529/529 521/521/521
f 13/13/13 537/537/537 538/538/538
f 13/13/13 538/538/538 14/14/14
f 537/537/537 533/533/533 532/532/532
f 537/537/537 532/532/532 538/538/538
f 538/538/538 532/532/532 531/531/531
f 538/538/538 531/531/531 539/539/539
f 14/14/14 538/538/538 539/539/539
f 14/14/14 539/539/539 15/15/15
f 15/15/15 539/539/539 540/540/540
f 15/15/15 540/540/540 16/16/16
f 539/539/539 531/531/531 536/536/536
f 539/539/539 536/536/536 540/540/540
f 540/540/540 536/536/536 26/26/26
f 540/540/540 26/26/26 24/24/24
f 16/16/16 540/540/540 24/24/24
f 16/16/16 24/24/24 17/17/17
f 11/11/11 541/541/541 542/542/542
f 11/11/11 542/542/542 12/12/12
f 541/541/541 543/543/543 544/544/544
f 541/541/541 544/544/544 542/542/542
f 542/542/542 544/544/544 533/533/533
f 542/542/542 533/533/533 537/537/537
f 12/12/12 542/542/542 537/537/537
f 12/12/12 537/537/537 13/13/13
f 9/9/9 545/545/545 546/546/546
f 9/9/9 546/546/546 10/10/10
f 545/545/545 547/547/547 548/548/548
f 545/545/545 548/548/548 546/546/546
f 546/546/546 548/548/548 543/543/543
f 546/546/546 543/543/543 541/541/541
f 10/10/10 546/546/546 541/541/541
f 10/10/10 541/541/541 11/11/11
f 549/549/549 550/550/550 551/551/551
f 549/549/549 551/551/551 552/552/552
f 550/550/550 543/543/543 548/548/548
f 550/550/550 548/548/548 551/551/551
f 551/551/551 548/548/548 547/547/547
f 551/551/551 547/547/547 553/553/553
f 552/552/552 551/551/551 553/553/553
f 552/552/552 553/553/553 554/554/554
f 523/523/523 534/534/534 555/555/555
f 523/523/523 555/555/555 556/556/556
f 534/534/534 533/533/533 544/544/544
f 534/534/534 544/544/544 555/555/555
f 555/555/555 544/544/544 543/543/543
f 555/555/555 543/543/543 550/550/550
f 556/556/556 555/555/555 550/550/550
f 556/556/556 550/550/550 549/549/549
f 557/557/557 558/558/558 559/559/559
f 557/557/557 559/559/559 560/560/560
f 558/558/558 549/549/549 552/552/552
f 558/558/558 552/552/552 559/559/559
f 559/559/559 552/552/552 554/554/554
f 559/559/559 554/554/554 561/561/561
f 560/560/560 559/559/559 561/561/561
f 560/560/560 561/561/561 562/562/562
f 525/525/525 524/524/524 563/563/563
f 525/525/525 563/563/563 564/564/564
f 524/524/524 523/523/523 556/556/556
f 524/524/524 556/556/556 563/563/563
f 563/563/563 556/556/556 549/549/549
f 563/563/563 549/549/549 558/558/558
f 564/564/564 563/563/563 558/558/558
f 564/564/564 558/558/558 557/557/557
f 565/565/565 566/566/566 567/567/567
f 565/565/565 567/567/567 568/568/568
f 566/566/566 500/500/500 499/499/499
f 566/566/566 499/499/499 567/567/567
f 567/567/567 499/499/499 498/498/498
f 567/567/567 498/498/498 569/569/569
f 568/568/568 567/567/567 569/569/569
f 568/568/568 569/569/569 570/570/570
f 570/570/570 569/569/569 571/571/571
f 570/570/570 571/571/571 572/572/572
f 569/569/569 498/498/498 573/573/573
f 569/569/569 573/573/573 571/571/571
f 571/571/571 573/573/573 69/69/69
f 571/571/571 69/69/69 510/510/510
f 572/572/572 571/571/571 510/510/510
f 572/572/572 510/510/510 509/509/509
f 73/73/73 70/70/70 574/574/574
f 73/73/73 574/574/574 575/575/575
f 70/70/70 69/69/69 573/573/573
f 70/70/70 573/573/573 574/574/574
f 574/574/574 573/573/573 498/498/498
f 574/574/574 498/498/498 495/495/495
f 575/575/575 574/574/574 495/495/495
f 575/575/575 495/495/495 494/494/494
f 576/576/576 577/577/577 578/578/578
f 576/576/576 578/578/578 579/579/579
f 577/577/577 508/508/508 580/580/580
f 577/577/577 580/580/580 578/578/578
f 578/578/578 580/580/580 502/502/502
f 578/578/578 502/502/502 501/501/501
f 579/579/579 578/578/578 501/501/501
f 579/579/579 501/501/501 500/500/500
f 508/508/508 507/507/507 581/581/581
f 508/508/508 581/581/581 580/580/580
f 507/507/507 131/131/131 133/133/133
f 507/507/507 133/133/133 581/581/581
f 581/581/581 133/133/133 137/137/137
f 581/581/581 137/137/137 582/582/582
f 580/580/580 581/581/581 582/582/582
f 580/580/580 582/582/582 502/502/502
f 502/502/502 582/582/582 583/583/583
f 502/502/502 583/583/583 497/497/497
f 582/582/582 137/137/137 151/151/151
f 582/582/582 151/151/151 583/583/583
f 583/583/583 151/151/151 155/155/155
f 583/583/583 155/155/155 584/584/584
f 497/497/497 583/583/583 584/584/584
f 497/497/497 584/584/584 494/494/494
f 92/92/92 506/506/506 585/585/585
f 92/92/92 585/585/585 210/210/210
f 506/506/506 508/508/508 577/577/577
f 506/506/506 577/577/577 585/585/585
f 585/585/585 577/577/577 576/576/576
f 585/585/585 576/576/576 586/586/586
f 210/210/210 585/585/585 586/586/586
f 210/210/210 586/586/586 54/54/54
f 494/494/494 584/584/584 587/587/587
f 494/494/494 587/587/587 575/575/575
f 584/584/584 155/155/155 157/157/157
f 584/584/584 157/157/157 587/587/587
f 587/587/587 157/157/157 161/161/161
f 587/587/587 161/161/161 588/588/588
f 575/575/575 587/587/587 588/588/588
f 575/575/575 588/588/588 73/73/73
f 75/75/75 589/589/589 590/590/590
f 75/75/75 590/590/590 491/491/491
f 589/589/589 179/179/179 181/181/181
f 589/589/589 181/181/181 590/590/590
f 590/590/590 181/181/181 99/99/99
f 590/590/590 99/99/99 503/503/503
f 491/491/491 590/590/590 503/503/503
f 491/491/491 503/503/503 68/68/68
f 73/73/73 588/588/588 591/591/591
f 73/73/73 591/591/591 74/74/74
f 588/588/588 161/161/161 175/175/175
f 588/588/588 175/175/175 591/591/591
f 591/591/591 175/175/175 179/179/179
f 591/591/591 179/179/179 589/589/589
f 74/74/74 591/591/591 589/589/589
f 74/74/74 589/589/589 75/75/75
f 82/82/82 592/592/592 593/593/593
f 82/82/82 593/593/593 594/594/594
f 592/592/592 576/576/576 579/579/579
f 592/592/592 579/579/579 593/593/593
f 593/593/593 579/579/579 500/500/500
f 593/593/593 500/500/500 566/566/566
f 594/594/594 593/593/593 566/566/566
f 594/594/594 566/566/566 565/565/565
f 56/56/56 55/55/55 595/595/595
f 56/56/56 595/595/595 81/81/81
f 55/55/55 54/54/54 586/586/586
f 55/55/55 586/586/586 595/595/595
f 595/595/595 586/586/586 576/576/576
f 595/595/595 576/576/576 592/592/592
f 81/81/81 595/595/595 592/592/592
f 81/81/81 592/592/592 82/82/82
f 562/562/562 561/561/561 596/596/596
f 562/562/562 596/596/596 597/597/597
f 561/561/561 554/554/554 598/598/598
f 561/561/561 598/598/598 596/596/596
f 596/596/596 598/598/598 599/599/599
f 596/596/596 599/599/599 600/600/600
f 597/597/597 596/596/596 600/600/600
f 597/597/597 600/600/600 84/84/84
f 84/84/84 600/600/600 601/601/601
f 84/84/84 601/601/601 80/80/80
f 600/600/600 599/599/599 602/602/602
f 600/600/600 602/602/602 601/601/601
f 601/601/601 602/602/602 28/28/28
f 601/601/601 28/28/28 39/39/39
f 80/80/80 601/601/601 39/39/39
f 80/80/80 39/39/39 38/38/38
f 554/554/554 553/553/553 603/603/603
f 554/554/554 603/603/603 598/598/598
f 553/553/553 547/547/547 604/604/604
f 553/553/553 604/604/604 603/603/603
f 603/603/603 604/604/604 605/605/605
f 603/603/603 605/605/605 606/606/606
f 598/598/598 603/603/603 606/606/606
f 598/598/598 606/606/606 599/599/599
f 599/599/599 606/606/606 607/607/607
f 599/599/599 607/607/607 602/602/602
f 606/606/606 605/605/605 608/608/608
f 606/606/606 608/608/608 607/607/607
f 607/607/607 608/608/608 22/22/22
f 607/607/607 22/22/22 29/29/29
f 602/602/602 607/607/607 29/29/29
f 602/602/602 29/29/29 28/28/28
f 7/7/7 609/609/609 610/610/610
f 7/7/7 610/610/610 8/8/8
f 609/609/609 605/605/605 604/604/604
f 609/609/609 604/604/604 610/610/610
f 610/610/610 604/604/604 547/547/547
f 610/610/610 547/547/547 545/545/545
f 8/8/8 610/610/610 545/545/545
f 8/8/8 545/545/545 9/9/9
f 5/5/5 23/23/23 611/611/611
f 5/5/5 611/611/611 6/6/6
f 23/23/23 22/22/22 608/608/608
f 23/23/23 608/608/608 611/611/611
f 611/611/611 608/608/608 605/605/605
f 611/611/611 605/605/605 609/609/609
f 6/6/6 611/611/611 609/609/609
f 6/6/6 609/609/609 7/7/7
f 219/219/219 218/218/218 612/612/612
f 219/219/219 612/612/612 229/229/229
f 218/218/218 217/217/217 473/473/473
f 218/218/218 473/473/473 612/612/612
f 612/612/612 473/473/473 240/240/240
f 612/612/612 240/240/240 243/243/243
f 229/229/229 612/612/612 243/243/243
f 229/229/229 243/243/243 230/230/230
f 177/177/177 487/487/487 613/613/613
f 177/177/177 613/613/613 182/182/182
f 487/487/487 173/173/173 184/184/184
f 487/487/487 184/184/184 613/613/613
f 613/613/613 184/184/184 105/105/105
f 613/613/613 105/105/105 212/212/212
f 182/182/182 613/613/613 212/212/212
f 182/182/182 212/212/212 103/103/103
f 84/84/84 83/83/83 614/614/614
f 84/84/84 614/614/614 597/597/597
f 83/83/83 82/82/82 594/594/594
f 83/83/83 594/594/594 614/614/614
f 614/614/614 594/594/594 565/565/565
f 614/614/614 565/565/565 615/615/615
f 597/597/597 614/614/614 615/615/615
f 597/597/597 615/615/615 562/562/562
f 557/557/557 616/616/616 617/617/617
f 557/557/557 617/617/617 564/564/564
f 616/616/616 570/570/570 572/572/572
f 616/616/616 572/572/572 617/617/617
f 617/617/617 572/572/572 509/509/509
f 617/617/617 509/509/509 618/618/618
f 564/564/564 617/617/617 618/618/618
f 564/564/564 618/618/618 525/525/525
f 562/562/562 615/615/615 619/619/619
f 562/562/562 619/619/619 560/560/560
f 615/615/615 565/565/565 568/568/568
f 615/615/615 568/568/568 619/619/619
f 619/619/619 568/568/568 570/570/570
f 619/619/619 570/570/570 616/616/616
f 560/560/560 619/619/619 616/616/616
f 560/560/560 616/616/616 557/557/557
f 517/517/517 620/620/620 621/621/621
f 517/517/517 621/621/621 527/527/527
f 620/620/620 514/514/514 516/516/516
f 620/620/620 516/516/516 621/621/621
f 621/621/621 516/516/516 57/57/57
f 621/621/621 57/57/57 622/622/622
f 527/527/527 621/621/621 622/622/622
f 527/527/527 622/622/622 47/47/47
f 525/525/525 618/618/618 623/623/623
f 525/525/525 623/623/623 520/520/520
f 618/618/618 509/509/509 512/512/512
f 618/618/618 512/512/512 623/623/623
f 623/623/623 512/512/512 514/514/514
f 623/623/623 514/514/514 620/620/620
f 520/520/520 623/623/623 620/620/620
f 520/520/520 620/620/620 517/517/517
f 47/47/47 622/622/622 624/624/624
f 47/47/47 624/624/624 45/45/45
f 622/622/622 57/57/57 60/60/60
f 622/622/622 60/60/60 624/624/624
f 624/624/624 60/60/60 48/48/48
f 624/624/624 48/48/48 625/625/625
f 45/45/45 624/624/624 625/625/625
f 45/45/45 625/625/625 43/43/43
f 43/43/43 625/625/625 626/626/626
f 43/43/43 626/626/626 41/41/41
f 625/625/625 48/48/48 51/51/51
f 625/625/625 51/51/51 626/626/626
f 626/626/626 51/51/51 56/56/56
f 626/626/626 56/56/56 78/78/78
f 41/41/41 626/626/626 78/78/78
f 41/41/41 78/78/78 38/38/38
