v -0.784776 -0.0756886 0.68845
v -0.782571 -0.0830336 0.664438
v -0.772455 -0.0828428 0.661957
v -0.770161 -0.0752863 0.685072
v -0.788181 -0.00787243 0.751833
v -0.787173 -0.0150894 0.763288
v -0.765964 -0.00978007 0.754211
v -0.770814 -0.000557644 0.745966
v -0.786494 -0.0672565 0.708841
v -0.768688 -0.0665362 0.704234
v -0.787796 -0.00033011 0.743988
v -0.772594 0.00545038 0.741018
v -0.787969 -0.0557801 0.730632
v -0.767693 -0.0545114 0.724015
v -0.786346 0.00880063 0.735719
v -0.773447 0.0111744 0.734282
v -0.788422 -0.0398563 0.75225
v -0.766486 -0.0380015 0.743079
v -0.781474 0.0136508 0.727338
v -0.77252 0.0146035 0.726081
v -0.787894 -0.0290036 0.76325
v -0.76509 -0.0265946 0.753185
v -0.774582 0.0160517 0.717717
v -0.770135 0.0165492 0.716425
v -0.786317 -0.0217497 0.764799
v -0.762749 -0.0188939 0.754494
v -0.780154 -0.087636 0.637475
v -0.777431 -0.0881202 0.617646
v -0.775564 -0.0875747 0.63614
v -0.773453 0.019566 0.696781
v -0.786663 -0.0175727 0.767644
v -0.763762 -0.0139392 0.75792
v -0.770929 -0.0875305 0.634236
v -0.761949 -0.0828217 0.658328
v -0.74048 -0.00559557 0.742523
v -0.743848 0.00121153 0.740337
v -0.754653 -0.0752649 0.679807
v -0.749593 0.00626809 0.736737
v -0.749473 -0.0663871 0.696887
v -0.754681 0.0106032 0.733962
v -0.745485 -0.0540099 0.713716
v -0.759521 0.0141679 0.729204
v -0.742562 -0.0364643 0.729519
v -0.76323 0.0160631 0.722431
v -0.74134 -0.0235363 0.737535
v -0.76562 0.0171783 0.714133
v -0.738816 -0.0135112 0.73846
v -0.722916 -0.0547194 0.698231
v -0.717613 -0.0375405 0.710369
v -0.745483 0.0167063 0.719449
v -0.75392 0.0176425 0.716163
v -0.715735 -0.0246498 0.716895
v -0.761201 0.0177956 0.710905
v -0.713049 -0.0136204 0.71733
v -0.766449 -0.0874972 0.631779
v -0.714917 -0.00406987 0.721405
v -0.75162 -0.0829207 0.653199
v -0.718795 0.00275434 0.720904
v -0.73925 -0.0755413 0.671716
v -0.728044 0.0091376 0.720156
v -0.730242 -0.0668144 0.685578
v -0.736456 0.0137704 0.72053
v -0.688692 -0.00694761 0.697741
v -0.694813 0.00160059 0.696654
v -0.742005 -0.0830585 0.6468
v -0.724864 -0.0759167 0.661651
v -0.707503 0.00967224 0.69804
v -0.712255 -0.0674428 0.67227
v -0.719114 0.0152574 0.701919
v -0.70164 -0.0557611 0.681432
v -0.732178 0.0181194 0.705567
v -0.69316 -0.0394947 0.690542
v -0.745208 0.0188201 0.707402
v -0.689804 -0.0273708 0.695891
v -0.757059 0.0182671 0.706892
v -0.686786 -0.0165136 0.69472
v -0.762308 -0.08747 0.628884
v -0.720398 0.0193295 0.689307
v -0.737429 0.0193964 0.697053
v -0.671951 -0.0410212 0.675318
v -0.667814 -0.0294231 0.678713
v -0.753392 0.0185327 0.702296
v -0.664329 -0.0188643 0.675801
v -0.758699 -0.0874561 0.625743
v -0.665799 -0.00912057 0.67757
v -0.733683 -0.0832502 0.639984
v -0.67261 -0.00151898 0.675968
v -0.712576 -0.0763677 0.651493
v -0.68971 0.00878984 0.674942
v -0.696885 -0.0681077 0.659763
v -0.70389 0.0150777 0.681151
v -0.683043 -0.0566864 0.667911
v -0.727063 -0.0834319 0.632915
v -0.702844 -0.0767548 0.641236
v -0.654292 -0.00410913 0.659834
v -0.674098 0.00621087 0.656954
v -0.684463 -0.0686334 0.647714
v -0.691968 0.0145937 0.661548
v -0.667287 -0.057392 0.655329
v -0.710948 0.0187833 0.672664
v -0.652902 -0.0421494 0.661227
v -0.731143 0.0198034 0.68592
v -0.647569 -0.0309278 0.66396
v -0.750396 0.0186076 0.697373
v -0.64385 -0.0210841 0.660798
v -0.755796 -0.0874442 0.622445
v -0.64589 -0.0117348 0.661948
v -0.63717 -0.0425485 0.646277
v -0.628841 -0.0313543 0.649568
v -0.726708 0.0197041 0.674914
v -0.748245 0.0185483 0.6924
v -0.624926 -0.0212991 0.646142
v -0.753738 -0.0874216 0.619072
v -0.632115 -0.0119154 0.645504
v -0.72249 -0.0835364 0.625651
v -0.642445 -0.00495644 0.643786
v -0.696141 -0.0769605 0.630769
v -0.663108 0.00484473 0.641605
v -0.675462 -0.0688766 0.63578
v -0.683967 0.0131783 0.644364
v -0.65561 -0.0577132 0.641342
v -0.704323 0.0175883 0.657453
v -0.641489 -0.00307786 0.625145
v -0.660469 0.00540991 0.626055
v -0.693594 -0.0768851 0.619764
v -0.672968 -0.0686503 0.622216
v -0.680353 0.0121202 0.628994
v -0.654808 -0.0571679 0.624383
v -0.700871 0.0165497 0.644406
v -0.64028 -0.0414908 0.625959
v -0.72431 0.0191676 0.664854
v -0.635212 -0.0299947 0.627378
v -0.747072 0.0184123 0.687635
v -0.631507 -0.019948 0.623531
v -0.752621 -0.0873776 0.615717
v -0.633437 -0.0102935 0.625088
v -0.720345 -0.0835131 0.618234
v -0.724053 0.0183913 0.656268
v -0.746957 0.0182386 0.683296
v -0.643188 -0.0288502 0.607366
v -0.639671 -0.0188005 0.603157
v -0.752491 -0.0873062 0.612483
v -0.6407 -0.00843762 0.605138
v -0.720573 -0.0833583 0.610945
v -0.647117 -0.00123773 0.606569
v -0.694596 -0.0765854 0.608932
v -0.663893 0.00608977 0.610414
v -0.675049 -0.0681603 0.608556
v -0.681135 0.0111238 0.615471
v -0.659108 -0.0563726 0.607698
v -0.700606 0.0151098 0.632974
v -0.647333 -0.0403991 0.606807
v -0.670723 0.00552574 0.596152
v -0.685483 0.00961861 0.604211
v -0.680873 -0.0675932 0.595692
v -0.666524 -0.0558204 0.592658
v -0.70333 0.0136226 0.623613
v -0.656386 -0.03991 0.590029
v -0.725797 0.017613 0.649574
v -0.652739 -0.0283431 0.589974
v -0.74792 0.0180529 0.679553
v -0.649328 -0.0180726 0.585485
v -0.753364 -0.0872063 0.609448
v -0.650117 -0.00771083 0.587629
v -0.723044 -0.0830872 0.604113
v -0.655731 -0.000945031 0.590005
v -0.698749 -0.0761336 0.598879
v -0.755195 -0.0870827 0.606715
v -0.749915 0.0178802 0.676529
v -0.662424 -0.0189443 0.570045
v -0.663142 -0.00835041 0.572367
v -0.727604 -0.0827665 0.597982
v -0.668119 -0.00152254 0.575568
v -0.705898 -0.0757981 0.589878
v -0.681332 0.00492625 0.583709
v -0.690386 -0.0676984 0.583943
v -0.693228 0.00917237 0.59519
v -0.677773 -0.056929 0.579127
v -0.708997 0.0127759 0.616258
v -0.668846 -0.0414241 0.575246
v -0.72958 0.0169578 0.64432
v -0.665614 -0.0297015 0.574727
v -0.703113 -0.0676797 0.573912
v -0.692533 -0.0574041 0.567832
v -0.703746 0.00917641 0.588839
v -0.717241 0.0124218 0.611247
v -0.684978 -0.0417477 0.563157
v -0.735178 0.016434 0.640658
v -0.682277 -0.0294863 0.562315
v -0.752838 0.0177531 0.674303
v -0.679384 -0.0179489 0.557536
v -0.757897 -0.0869443 0.604391
v -0.679985 -0.0072013 0.560077
v -0.734037 -0.0823776 0.592749
v -0.684146 -0.00079604 0.563958
v -0.715677 -0.0753583 0.58229
v -0.695261 0.00492539 0.573665
v -0.699544 -0.0186417 0.548132
v -0.699972 -0.00453082 0.551331
v -0.761327 -0.0868039 0.602609
v -0.747056 -0.0836035 0.591167
v -0.703285 0.000341282 0.555592
v -0.735772 -0.0781231 0.580365
v -0.71104 0.00535555 0.568286
v -0.726181 -0.0710266 0.569974
v -0.717132 0.00898116 0.584799
v -0.719021 -0.0632126 0.560554
v -0.72784 0.0116426 0.608082
v -0.717042 -0.0517029 0.552988
v -0.742342 0.0159864 0.63844
v -0.702004 -0.0277777 0.553362
v -0.756534 0.01772 0.672924
v -0.73244 0.00779486 0.583108
v -0.740008 0.0112202 0.606831
v -0.729395 -0.0538223 0.554927
v -0.725793 -0.0370691 0.549459
v -0.750652 0.0155451 0.637665
v -0.72452 -0.0245098 0.548472
v -0.760811 0.0178099 0.672403
v -0.722542 -0.0157378 0.54318
v -0.76534 -0.0866761 0.601445
v -0.722931 -0.00355726 0.546266
v -0.751045 -0.0814153 0.586148
v -0.724787 -0.000360249 0.551367
v -0.740627 -0.0736072 0.573488
v -0.728697 0.00421943 0.566401
v -0.734103 -0.0651321 0.56359
v -0.769747 -0.0865759 0.600991
v -0.76083 -0.0810468 0.58512
v -0.743443 -0.00386097 0.548081
v -0.74495 -0.00160599 0.552214
v -0.754667 -0.07299 0.572528
v -0.746678 0.00350688 0.567817
v -0.751032 -0.0642905 0.56319
v -0.748377 0.00690024 0.584166
v -0.748421 -0.0525748 0.555557
v -0.752895 0.0105422 0.607638
v -0.746274 -0.0354945 0.551067
v -0.759649 0.0154082 0.638559
v -0.745392 -0.0229425 0.550525
v -0.765453 0.0180044 0.672738
v -0.743599 -0.0151072 0.544416
v -0.76765 -0.0516415 0.559075
v -0.768053 -0.0345395 0.554372
v -0.765942 0.0108683 0.611411
v -0.768902 0.0154733 0.64123
v -0.768356 -0.0221427 0.553642
v -0.770237 0.0182985 0.673902
v -0.767469 -0.0147476 0.548087
v -0.774353 -0.0865173 0.601305
v -0.767179 -0.00446674 0.551705
v -0.770735 -0.0807948 0.585979
v -0.765537 -0.00152176 0.558408
v -0.768437 -0.0725225 0.574555
v -0.763677 0.00353543 0.573632
v -0.767151 -0.0635555 0.566724
v -0.76372 0.00699364 0.589564
v -0.79145 -0.00487312 0.555709
v -0.788644 -0.00211658 0.562387
v -0.780416 -0.0807465 0.588701
v -0.782919 -0.0724396 0.577978
v -0.783929 0.00270255 0.577373
v -0.786349 -0.063446 0.569425
v -0.780037 0.00654305 0.595964
v -0.789412 -0.0517226 0.562351
v -0.778014 0.012401 0.620767
v -0.791544 -0.0348451 0.558031
v -0.777983 0.0159123 0.645806
v -0.792443 -0.0225951 0.557447
v -0.774947 0.0186465 0.675826
v -0.791899 -0.0150313 0.552025
v -0.778936 -0.0865119 0.602457
v -0.791268 0.01249 0.627161
v -0.786187 0.0166381 0.652839
v -0.815483 -0.0357134 0.564612
v -0.817262 -0.023323 0.564057
v -0.779382 0.0189761 0.678403
v -0.817213 -0.0150548 0.558695
v -0.783303 -0.0865689 0.604428
v -0.816644 -0.00416962 0.562353
v -0.789849 -0.0808441 0.592961
v -0.81253 -0.000963488 0.56896
v -0.798155 -0.0725257 0.582541
v -0.804517 0.00417282 0.583613
v -0.804997 -0.0637415 0.57506
v -0.797415 0.00749287 0.601929
v -0.811048 -0.0523959 0.568679
v -0.835263 -0.00139008 0.577549
v -0.824153 0.00513279 0.591462
v -0.812102 -0.0729865 0.589437
v -0.822141 -0.0646883 0.583147
v -0.81371 0.00913275 0.609306
v -0.831113 -0.0541412 0.577308
v -0.803857 0.0120844 0.633179
v -0.838012 -0.0383365 0.573251
v -0.793104 0.0176552 0.661623
v -0.840781 -0.0262864 0.572573
v -0.783369 0.0192435 0.681555
v -0.841248 -0.0176232 0.567248
v -0.78723 -0.0866977 0.607222
v -0.840504 -0.00571513 0.571124
v -0.799577 -0.0810254 0.597746
v -0.800619 0.0179432 0.666095
v -0.786769 0.0194066 0.685183
v -0.860128 -0.0279896 0.584812
v -0.860758 -0.0171585 0.580246
v -0.790185 -0.0869446 0.6112
v -0.86035 -0.00858178 0.58279
v -0.808098 -0.0813477 0.60401
v -0.854395 -0.0035732 0.588171
v -0.824258 -0.0735965 0.59828
v -0.840757 0.0042764 0.600948
v -0.836993 -0.0656746 0.593465
v -0.827515 0.00921006 0.617333
v -0.848255 -0.0553696 0.588543
v -0.814637 0.0126649 0.639773
v -0.856894 -0.0399478 0.584997
v -0.83414 -0.0738595 0.608821
v -0.848788 -0.0652951 0.60617
v -0.854192 0.0040267 0.61239
v -0.838768 0.00929195 0.626731
v -0.861627 -0.0543594 0.602826
v -0.823377 0.0129839 0.647242
v -0.871348 -0.0390591 0.600664
v -0.806745 0.0180047 0.671177
v -0.875116 -0.0276186 0.600734
v -0.78948 0.0194237 0.689168
v -0.87605 -0.0174647 0.596328
v -0.793169 -0.0871449 0.614977
v -0.875585 -0.00889367 0.598653
v -0.815145 -0.0816861 0.611435
v -0.869936 -0.00417297 0.60118
v -0.885757 -0.0261844 0.618552
v -0.886903 -0.0163234 0.614415
v -0.795874 -0.0873196 0.618566
v -0.791442 0.0192686 0.693375
v -0.886415 -0.00742433 0.616599
v -0.820528 -0.0821124 0.619618
v -0.880268 -0.00205505 0.61824
v -0.841568 -0.0743057 0.620327
v -0.864076 0.00531916 0.625726
v -0.857564 -0.0653243 0.619863
v -0.847291 0.0101962 0.637711
v -0.871333 -0.053366 0.61843
v -0.830027 0.0135793 0.655683
v -0.88162 -0.037557 0.618012
v -0.811382 0.0181252 0.676843
v -0.87014 0.00640188 0.640471
v -0.852801 0.0112476 0.650003
v -0.863065 -0.0661219 0.634127
v -0.877094 -0.054147 0.634766
v -0.834448 0.0143432 0.664946
v -0.887514 -0.0382052 0.635979
v -0.814447 0.0181831 0.683004
v -0.891746 -0.026775 0.637133
v -0.792648 0.018941 0.697635
v -0.892985 -0.0168817 0.633367
v -0.797751 -0.0875117 0.622328
v -0.892503 -0.00706887 0.635557
v -0.824079 -0.0826113 0.628253
v -0.886197 -0.00067896 0.636342
v -0.846369 -0.0750141 0.63234
v -0.798661 -0.087696 0.626182
v -0.793153 0.0184664 0.701747
v -0.894505 -0.0176548 0.652676
v -0.89407 -0.00709408 0.654892
v -0.825763 -0.0830816 0.636819
v -0.88797 -0.000114754 0.654788
v -0.848482 -0.0757019 0.64448
v -0.872369 0.00668485 0.656033
v -0.865257 -0.0669073 0.648642
v -0.855192 0.0114261 0.663078
v -0.879016 -0.0549703 0.651493
v -0.836534 0.0144403 0.67479
v -0.889227 -0.0390258 0.654233
v -0.8159 0.0179564 0.689811
v -0.893336 -0.0275812 0.656031
v -0.864328 -0.0676207 0.662806
v -0.877468 -0.0557211 0.667784
v -0.854593 0.010759 0.67633
v -0.836325 0.0140042 0.684969
v -0.887117 -0.039767 0.672121
v -0.815796 0.0174371 0.697061
v -0.890968 -0.0282856 0.674563
v -0.79302 0.0178985 0.705538
v -0.89197 -0.0181943 0.671624
v -0.798626 -0.0878615 0.629885
v -0.89157 -0.00734721 0.673856
v -0.825597 -0.083469 0.644777
v -0.88587 -0.000337748 0.672851
v -0.847998 -0.076296 0.656052
v -0.870996 0.00610071 0.671665
v -0.885835 -0.0184426 0.689449
v -0.88545 -0.00786608 0.691665
v -0.797653 -0.0880025 0.63331
v -0.823632 -0.0837496 0.651775
v -0.880298 -0.00133926 0.689781
v -0.845058 -0.0767325 0.666333
v -0.866385 0.00484935 0.686567
v -0.860515 -0.0681939 0.67578
v -0.85126 0.00939643 0.68919
v -0.872762 -0.0563716 0.683004
v -0.834078 0.0132986 0.695616
v -0.881587 -0.0403965 0.688933
v -0.814251 0.0165922 0.70431
v -0.885078 -0.0288481 0.691988
v -0.792249 0.0172987 0.708948
v -0.845711 0.00740205 0.702226
v -0.83005 0.0119365 0.706153
v -0.865258 -0.0568064 0.696157
v -0.873047 -0.0407712 0.703975
v -0.811418 0.015548 0.710979
v -0.876112 -0.0290212 0.707591
v -0.790807 0.0167247 0.711937
v -0.876565 -0.0182885 0.705407
v -0.795823 -0.088118 0.636255
v -0.876182 -0.00843933 0.707561
v -0.819946 -0.0839148 0.657566
v -0.871682 -0.00278318 0.704903
v -0.839807 -0.076977 0.674854
v -0.85903 0.00332462 0.700603
v -0.854057 -0.0685415 0.686715
v -0.864208 -0.00904759 0.723
v -0.860469 -0.0045082 0.720201
v -0.814613 -0.0839715 0.662058
v -0.832282 -0.0770212 0.681544
v -0.849821 0.00115557 0.714836
v -0.845024 -0.0686261 0.69545
v -0.838373 0.00494877 0.714871
v -0.855164 -0.0569179 0.706822
v -0.824388 0.0101499 0.715716
v -0.861871 -0.0407104 0.717294
v -0.807261 0.0144282 0.716944
v -0.864463 -0.0286144 0.722212
v -0.788697 0.0162349 0.714423
v -0.864584 -0.0177599 0.720721
v -0.794208 -0.0880157 0.637444
v -0.81711 0.00834863 0.723826
v -0.801857 0.0134019 0.721924
v -0.848228 -0.0403716 0.730506
v -0.850271 -0.0282426 0.737312
v -0.785948 0.0158794 0.716333
v -0.849992 -0.0179476 0.736895
v -0.791746 -0.0879006 0.638139
v -0.849628 -0.0107342 0.739301
v -0.807185 -0.0842888 0.66495
v -0.846725 -0.007104 0.736128
v -0.819887 -0.0786517 0.68456
v -0.838901 -0.00174481 0.728018
v -0.825033 -0.0739173 0.696601
v -0.829276 0.00232313 0.725882
v -0.842309 -0.0568274 0.716624
v -0.799415 -0.0838945 0.667355
v -0.810907 -0.0766978 0.689528
v -0.830187 -0.0108251 0.750509
v -0.824786 -0.00495467 0.740174
v -0.819469 -0.0682597 0.707265
v -0.818002 0.000154618 0.734797
v -0.826819 -0.0566794 0.724935
v -0.808043 0.00715107 0.730309
v -0.831639 -0.0400996 0.742381
v -0.795591 0.0127467 0.725445
v -0.832984 -0.0283607 0.751126
v -0.782617 0.0157085 0.71758
v -0.832236 -0.0193073 0.751704
v -0.788434 -0.0878041 0.63844
v -0.832118 -0.0136944 0.754274
v -0.815279 -0.0429859 0.747853
v -0.819173 -0.0346225 0.755733
v -0.789527 0.0130882 0.726759
v -0.778791 0.0157617 0.718073
v -0.811025 -0.0211262 0.762246
v -0.784505 -0.0877141 0.63824
v -0.811094 -0.0165961 0.764869
v -0.79168 -0.0834391 0.666235
v -0.810295 -0.0141458 0.760567
v -0.797469 -0.0766188 0.69106
v -0.807705 -0.00770217 0.748879
v -0.803507 -0.0683041 0.709905
v -0.804147 -0.000748636 0.741142
v -0.809595 -0.0573187 0.729375
v -0.79701 0.00689153 0.734935
vt 0.7176 0.1429
vt 0.7509 0.1429
vt 0.7188 0.2813
vt 0.75 0.75
vt 0.5312 0.9375
vt 0.5156 1
vt 0.7187 0.3475
vt 0.75 0.8125
vt 0.7188 0.2178
vt 0.75 0.6875
vt 0.5 0.9375
vt 0.75 0.75
vt 0.75 0.6875
vt 0.7188 0.6875
vt 0.75 0.2178
vt 0.7188 0.75
vt 0.75 0.625
vt 0.7188 0.75
vt 0.5312 0.5625
vt 0.7188 0.8125
vt 0.7188 0.625
vt 0.75 0.3475
vt 0.5312 0.5
vt 0.75 0.4179
vt 0.7188 0.6875
vt 0.75 0.2813
vt 0.75 0.2178
vt 0.5937 0.6875
vt 0.7188 0.2178
vt 0.625 0.75
vt 0.75 0.2813
vt 0.7188 0.2813
vt 0.75 0.3475
vt 0.7187 0.3475
vt 0.75 0.4179
vt 0.7187 0.4179
vt 0.7187 0.4179
vt 0.7188 0.4582
vt 0.75 0.875
vt 0.75 0.9375
vt 0.75 0.8125
vt 0.75 0.875
vt 0.7188 0.8125
vt 0.7188 0.875
vt 0.7188 0.875
vt 0.7187 0.9375
vt 0.75 0.4582
vt 0.75 0.0625
vt 0.7344 0
vt 0.7188 0.5
vt 0.7188 0.5625
vt 0.7187 0.0625
vt 0.7509 0.1429
vt 0.7344 1
vt 0.75 0.5
vt 0.75 0.9375
vt 0.75 0.4582
vt 0.7187 0.9375
vt 0.7188 0.4582
vt 0.75 0.5625
vt 0.7188 0.5
vt 0.75 0.5
vt 0.7187 0.0625
vt 0.6875 0.0625
vt 0.7187 0.0625
vt 0.7176 0.1429
vt 0.6866 0.1429
vt 0.75 0.625
vt 0.7188 0.625
vt 0.75 0.5625
vt 0.7188 0.5625
vt 0.7188 0.5625
vt 0.6875 0.5625
vt 0.7188 0.625
vt 0.6875 0.625
vt 0.7176 0.1429
vt 0.75 0.0625
vt 0.7188 0.75
vt 0.7188 0.6875
vt 0.7188 0.625
vt 0.6875 0.625
vt 0.6875 0.6875
vt 0.6875 0.6875
vt 0.7188 0.2178
vt 0.7188 0.2813
vt 0.7176 0.1429
vt 0.7188 0.2178
vt 0.6866 0.1429
vt 0.6875 0.2178
vt 0.6875 0.2178
vt 0.6875 0.2813
vt 0.7188 0.6875
vt 0.7187 0.3475
vt 0.7188 0.2813
vt 0.7187 0.4179
vt 0.7187 0.3475
vt 0.6875 0.2813
vt 0.6875 0.3475
vt 0.6875 0.3475
vt 0.6875 0.4179
vt 0.7188 0.8125
vt 0.7188 0.875
vt 0.7188 0.75
vt 0.7188 0.8125
vt 0.6875 0.75
vt 0.6875 0.75
vt 0.6875 0.8125
vt 0.6875 0.4582
vt 0.7187 0.9375
vt 0.6875 0.5
vt 0.7187 0.0625
vt 0.7188 0.875
vt 0.6875 0.8125
vt 0.6875 0.875
vt 0.6875 0.875
vt 0.6875 0.9375
vt 0.7188 0.4582
vt 0.7188 0.5
vt 0.7187 0.4179
vt 0.7188 0.4582
vt 0.6875 0.4179
vt 0.6875 0.4582
vt 0.6875 0.4179
vt 0.6875 0.3475
vt 0.7031 1
vt 0.7187 0.9375
vt 0.6562 0.3475
vt 0.6875 0.9375
vt 0.6562 0.4179
vt 0.7188 0.5625
vt 0.6875 0.875
vt 0.7188 0.5
vt 0.6875 0.8125
vt 0.6875 0.5
vt 0.7031 0
vt 0.6875 0.5625
vt 0.6875 0.0625
vt 0.6562 0.5
vt 0.6875 0.0625
vt 0.6875 0.9375
vt 0.6875 0.875
vt 0.6562 0.8125
vt 0.6562 0.875
vt 0.6562 0.875
vt 0.6562 0.9375
vt 0.6875 0.4582
vt 0.6875 0.5
vt 0.6875 0.4179
vt 0.6875 0.4582
vt 0.6562 0.4179
vt 0.6562 0.4582
vt 0.6562 0.4582
vt 0.6875 0.0625
vt 0.6562 0.0625
vt 0.6875 0.9375
vt 0.6562 0.9375
vt 0.6553 0.1427
vt 0.6875 0.5625
vt 0.6875 0.625
vt 0.6875 0.5
vt 0.6875 0.5625
vt 0.6562 0.5
vt 0.6719 0
vt 0.6562 0.5625
vt 0.6562 0.0625
vt 0.6866 0.1429
vt 0.6719 1
vt 0.6562 0.5625
vt 0.6875 0.75
vt 0.6875 0.625
vt 0.6562 0.625
vt 0.6562 0.625
vt 0.6562 0.6875
vt 0.6875 0.2178
vt 0.6875 0.2813
vt 0.6866 0.1429
vt 0.6875 0.2178
vt 0.6553 0.1427
vt 0.6562 0.2178
vt 0.6562 0.2178
vt 0.6562 0.2813
vt 0.6875 0.6875
vt 0.6875 0.3475
vt 0.6875 0.2813
vt 0.6562 0.625
vt 0.6562 0.5625
vt 0.6562 0.2813
vt 0.625 0.5625
vt 0.6562 0.3475
vt 0.625 0.625
vt 0.6875 0.8125
vt 0.6875 0.6875
vt 0.6875 0.75
vt 0.6562 0.6875
vt 0.6562 0.75
vt 0.6562 0.75
vt 0.6562 0.8125
vt 0.625 0.6875
vt 0.6562 0.2813
vt 0.6562 0.2178
vt 0.6553 0.1427
vt 0.6562 0.2178
vt 0.6252 0.1422
vt 0.625 0.2178
vt 0.625 0.2178
vt 0.625 0.2813
vt 0.6562 0.6875
vt 0.6562 0.75
vt 0.6562 0.625
vt 0.6562 0.6875
vt 0.625 0.625
vt 0.625 0.6875
vt 0.625 0.4179
vt 0.6562 0.875
vt 0.6562 0.8125
vt 0.6562 0.75
vt 0.6562 0.8125
vt 0.625 0.75
vt 0.625 0.8125
vt 0.625 0.8125
vt 0.6562 0.3475
vt 0.6562 0.4179
vt 0.6562 0.2813
vt 0.6562 0.3475
vt 0.625 0.2813
vt 0.625 0.3475
vt 0.625 0.3475
vt 0.625 0.875
vt 0.6562 0.4582
vt 0.625 0.9375
vt 0.6562 0.5
vt 0.6562 0.4179
vt 0.6562 0.4582
vt 0.625 0.4179
vt 0.625 0.4582
vt 0.625 0.4582
vt 0.625 0.5
vt 0.6562 0.9375
vt 0.6562 0.0625
vt 0.6562 0.875
vt 0.6406 0
vt 0.625 0.875
vt 0.6562 0.5625
vt 0.6562 0.5
vt 0.625 0.875
vt 0.625 0.8125
vt 0.625 0.5
vt 0.5937 0.8125
vt 0.625 0.5625
vt 0.625 0.0625
vt 0.6553 0.1427
vt 0.6406 1
vt 0.6562 0.0625
vt 0.6562 0.9375
vt 0.625 0.0625
vt 0.625 0.9375
vt 0.6252 0.1422
vt 0.5937 0.9375
vt 0.625 0.5
vt 0.625 0.4582
vt 0.625 0.4179
vt 0.625 0.4582
vt 0.5937 0.4179
vt 0.5937 0.4582
vt 0.5937 0.4582
vt 0.5937 0.5
vt 0.625 0.9375
vt 0.625 0.0625
vt 0.625 0.875
vt 0.6094 0
vt 0.5937 0.875
vt 0.5937 0.875
vt 0.625 0.625
vt 0.625 0.5625
vt 0.625 0.5
vt 0.5937 0.5
vt 0.5937 0.5625
vt 0.5937 0.5625
vt 0.5937 0.0625
vt 0.6252 0.1422
vt 0.6094 1
vt 0.625 0.0625
vt 0.625 0.9375
vt 0.5937 0.0625
vt 0.5937 0.9375
vt 0.5941 0.1421
vt 0.625 0.5625
vt 0.625 0.2813
vt 0.625 0.2178
vt 0.6252 0.1422
vt 0.5941 0.1421
vt 0.5937 0.2178
vt 0.5937 0.2178
vt 0.5937 0.2813
vt 0.625 0.6875
vt 0.625 0.75
vt 0.625 0.625
vt 0.625 0.6875
vt 0.5938 0.625
vt 0.5938 0.625
vt 0.5937 0.6875
vt 0.625 0.2178
vt 0.5937 0.2178
vt 0.5941 0.1421
vt 0.625 0.75
vt 0.5937 0.75
vt 0.5937 0.75
vt 0.5937 0.8125
vt 0.625 0.3475
vt 0.625 0.4179
vt 0.625 0.2813
vt 0.625 0.3475
vt 0.5937 0.2813
vt 0.5937 0.3475
vt 0.5937 0.3475
vt 0.5937 0.4179
vt 0.625 0.8125
vt 0.5937 0.6875
vt 0.5938 0.625
vt 0.5937 0.75
vt 0.5937 0.6875
vt 0.5625 0.625
vt 0.5625 0.6875
vt 0.5625 0.6875
vt 0.5625 0.75
vt 0.5937 0.2813
vt 0.5937 0.3475
vt 0.5937 0.2178
vt 0.5631 0.1422
vt 0.5625 0.2178
vt 0.5625 0.2178
vt 0.5625 0.2813
vt 0.5625 0.8125
vt 0.5937 0.4179
vt 0.5937 0.2813
vt 0.5625 0.875
vt 0.5937 0.3475
vt 0.5625 0.2813
vt 0.5625 0.3475
vt 0.5625 0.3475
vt 0.5625 0.4179
vt 0.5937 0.8125
vt 0.5937 0.875
vt 0.5937 0.75
vt 0.5937 0.8125
vt 0.5625 0.75
vt 0.5625 0.8125
vt 0.5625 0.4582
vt 0.5625 0.5
vt 0.5625 0.4582
vt 0.5937 0.9375
vt 0.5937 0.0625
vt 0.5937 0.875
vt 0.5781 0
vt 0.5625 0.875
vt 0.5625 0.0625
vt 0.5625 0.9375
vt 0.5937 0.4582
vt 0.5937 0.5
vt 0.5937 0.4179
vt 0.5937 0.4582
vt 0.5625 0.4179
vt 0.5781 1
vt 0.5625 0.625
vt 0.5941 0.1421
vt 0.5937 0.0625
vt 0.5937 0.9375
vt 0.5625 0.0625
vt 0.5625 0.9375
vt 0.5631 0.1422
vt 0.5937 0.5625
vt 0.5938 0.625
vt 0.5937 0.5
vt 0.5937 0.5625
vt 0.5625 0.5
vt 0.5625 0.5625
vt 0.5625 0.5625
vt 0.5312 0.4582
vt 0.5625 0.9375
vt 0.5312 0.5
vt 0.5625 0.0625
vt 0.5625 0.875
vt 0.5469 0
vt 0.5312 0.875
vt 0.5312 0.0625
vt 0.5312 0.9375
vt 0.5625 0.4582
vt 0.5625 0.5
vt 0.5625 0.4179
vt 0.5625 0.4582
vt 0.5312 0.4179
vt 0.5312 0.4582
vt 0.5631 0.1422
vt 0.5625 0.0625
vt 0.5469 1
vt 0.5625 0.9375
vt 0.5312 0.0625
vt 0.5312 0.9375
vt 0.5321 0.1423
vt 0.5625 0.5625
vt 0.5625 0.625
vt 0.5625 0.5
vt 0.5625 0.5625
vt 0.5312 0.5
vt 0.5312 0.5625
vt 0.5312 0.5625
vt 0.5312 0.625
vt 0.5312 0.2813
vt 0.5625 0.75
vt 0.5625 0.6875
vt 0.5625 0.625
vt 0.5625 0.6875
vt 0.5312 0.625
vt 0.5312 0.6875
vt 0.5312 0.6875
vt 0.5625 0.2178
vt 0.5625 0.2813
vt 0.5631 0.1422
vt 0.5625 0.2178
vt 0.5321 0.1423
vt 0.531 0.2174
vt 0.531 0.2174
vt 0.5312 0.8125
vt 0.5625 0.4179
vt 0.5625 0.3475
vt 0.5625 0.2813
vt 0.5625 0.3475
vt 0.5312 0.2813
vt 0.5312 0.3475
vt 0.5312 0.3475
vt 0.5312 0.4179
vt 0.5625 0.8125
vt 0.5625 0.875
vt 0.5625 0.75
vt 0.5625 0.8125
vt 0.5312 0.75
vt 0.5312 0.75
vt 0.5 0.6875
vt 0.5 0.75
vt 0.5 0.6875
vt 0.5312 0.2813
vt 0.5312 0.3475
vt 0.531 0.2174
vt 0.5312 0.8125
vt 0.4999 0.2171
vt 0.5312 0.875
vt 0.5 0.2813
vt 0.5312 0.6875
vt 0.5312 0.75
vt 0.5312 0.625
vt 0.5312 0.6875
vt 0.5 0.625
vt 0.5 0.2813
vt 0.5 0.3475
vt 0.5 0.3475
vt 0.5 0.4179
vt 0.5312 0.8125
vt 0.5312 0.875
vt 0.5312 0.75
vt 0.5312 0.8125
vt 0.5 0.75
vt 0.5 0.8125
vt 0.5 0.8125
vt 0.5 0.875
vt 0.5312 0.4179
vt 0.5312 0.2813
vt 0.5312 0.3475
vt 0.5312 0.875
vt 0.5 0.875
vt 0.5156 0
vt 0.5 0.0625
vt 0.5 0.9375
vt 0.5312 0.4582
vt 0.5312 0.5
vt 0.5312 0.4179
vt 0.5312 0.4582
vt 0.5 0.4179
vt 0.5 0.4582
vt 0.5 0.4582
vt 0.5 0.5
vt 0.5312 0.9375
vt 0.5312 0.0625
vn 0.1149 -0.9296 0.3501
vn 0.08496 -0.968 0.2362
vn 0.08228 -0.9677 0.238
vn 0.1213 -0.9274 0.3538
vn -0.05307 0.778 0.6259
vn 0.01468 0.8261 0.5632
vn 0.1264 0.7005 0.7024
vn 0.03055 0.6963 0.7171
vn 0.1242 -0.8856 0.4475
vn 0.1782 -0.8722 0.4555
vn -0.1087 0.7044 0.7014
vn -0.005066 0.7033 0.7108
vn 0.1349 -0.8223 0.5529
vn 0.2684 -0.7819 0.5626
vn -0.1264 0.7964 0.5914
vn -0.04694 0.8407 0.5394
vn 0.1485 -0.7355 0.661
vn 0.3677 -0.6677 0.6472
vn -0.09116 0.9401 0.3283
vn -0.06842 0.9559 0.2856
vn 0.1263 -0.4892 0.8629
vn 0.4511 -0.4468 0.7725
vn -0.06473 0.982 0.1775
vn -0.06775 0.9835 0.1679
vn 0.1761 -0.4146 0.8928
vn 0.5126 -0.323 0.7955
vn 0.04404 -0.9937 0.1025
vn -0.005554 -0.9992 -0.03992
vn 0.04355 -0.9938 0.102
vn 0.00354 0.9984 0.05542
vn 0.124 0.1585 0.9795
vn 0.4153 0.1379 0.8992
vn 0.04788 -0.994 0.09864
vn 0.09693 -0.9677 0.2325
vn 0.5488 0.1491 0.8225
vn 0.3354 0.6192 0.71
vn 0.153 -0.9222 0.3552
vn 0.2437 0.6957 0.6757
vn 0.2334 -0.8502 0.4718
vn 0.174 0.7534 0.6341
vn 0.3444 -0.7319 0.588
vn 0.04749 0.8936 0.4464
vn 0.4566 -0.5831 0.6719
vn -0.04425 0.9712 0.234
vn 0.5532 -0.3715 0.7456
vn -0.05679 0.9866 0.1526
vn 0.6029 -0.2426 0.76
vn 0.4061 -0.6973 0.5906
vn 0.4998 -0.5365 0.6799
vn 0.139 0.9327 0.3327
vn -0.01001 0.985 0.1721
vn 0.5858 -0.3161 0.7462
vn -0.035 0.9916 0.1241
vn 0.6295 -0.1725 0.7576
vn 0.0546 -0.9943 0.09174
vn 0.6506 0.1507 0.7443
vn 0.1179 -0.9687 0.2184
vn 0.5298 0.5988 0.6006
vn 0.1937 -0.9191 0.3431
vn 0.4327 0.7275 0.5324
vn 0.293 -0.833 0.4693
vn 0.3294 0.8078 0.4888
vn 0.664 0.2172 0.7154
vn 0.5607 0.6545 0.5072
vn 0.1325 -0.9705 0.2012
vn 0.2192 -0.92 0.3248
vn 0.4966 0.7631 0.4136
vn 0.3189 -0.8301 0.4573
vn 0.4049 0.8357 0.3709
vn 0.4141 -0.693 0.5902
vn 0.1805 0.9561 0.2309
vn 0.4932 -0.528 0.6913
vn 0.01016 0.9948 0.1009
vn 0.5871 -0.2752 0.7613
vn -0.01535 0.9966 0.08087
vn 0.637 -0.09354 0.7651
vn 0.0596 -0.9947 0.08377
vn 0.1881 0.9718 0.1418
vn 0.001556 0.9988 0.04855
vn 0.4842 -0.5297 0.6964
vn 0.5791 -0.226 0.7833
vn -0.008881 0.9994 0.03427
vn 0.6139 -0.01746 0.7891
vn 0.06333 -0.9952 0.07395
vn 0.6328 0.3154 0.7071
vn 0.143 -0.9733 0.1795
vn 0.5189 0.7265 0.4504
vn 0.2359 -0.9258 0.2954
vn 0.4782 0.816 0.3246
vn 0.3258 -0.8454 0.4232
vn 0.4099 0.8736 0.2621
vn 0.4062 -0.715 0.569
vn 0.1567 -0.9774 0.1421
vn 0.256 -0.9372 0.2369
vn 0.4821 0.7898 0.3791
vn 0.4303 0.8702 0.2397
vn 0.344 -0.8742 0.3426
vn 0.3584 0.921 0.1523
vn 0.4331 -0.7588 0.4864
vn 0.1776 0.9824 0.05765
vn 0.5127 -0.5774 0.6353
vn -0.01944 0.9997 -0.01459
vn 0.5875 -0.2306 0.7757
vn -0.01517 0.9999 0.001556
vn 0.6258 0.1023 0.7732
vn 0.06842 -0.996 0.05698
vn 0.6213 0.4395 0.6487
vn 0.7328 -0.6402 0.2304
vn 0.8559 -0.3568 0.3743
vn -0.02069 0.9986 -0.04859
vn -0.03143 0.999 -0.03262
vn 0.9735 0.03665 0.2256
vn 0.07398 -0.9968 0.03073
vn 0.7558 0.5864 0.2912
vn 0.173 -0.9815 0.08216
vn 0.5054 0.8373 0.2084
vn 0.2857 -0.9494 0.1304
vn 0.3961 0.9069 0.1433
vn 0.4046 -0.8981 0.1725
vn 0.3066 0.9499 0.06128
vn 0.5538 -0.8057 0.2098
vn 0.1439 0.9894 -0.01605
vn 0.5496 0.8353 -0.01379
vn 0.3695 0.929 0.01874
vn 0.3135 -0.9496 -0.002533
vn 0.4642 -0.8849 -0.03687
vn 0.2445 0.9691 -0.03159
vn 0.6414 -0.7578 -0.1197
vn 0.1095 0.9916 -0.06909
vn 0.8114 -0.5361 -0.2328
vn -0.02158 0.9973 -0.0708
vn 0.8598 -0.4172 -0.2944
vn -0.04166 0.9977 -0.05368
vn 0.9504 -0.06418 -0.3041
vn 0.07797 -0.9969 -0.00354
vn 0.8201 0.5536 -0.145
vn 0.1858 -0.9825 0.00589
vn -0.03021 0.9948 -0.09763
vn -0.04144 0.9971 -0.06296
vn 0.8361 -0.3754 -0.4001
vn 0.8936 -0.1369 -0.4274
vn 0.07816 -0.996 -0.04215
vn 0.8256 0.4552 -0.3335
vn 0.1889 -0.9794 -0.07178
vn 0.5444 0.818 -0.1858
vn 0.3233 -0.9385 -0.1207
vn 0.3151 0.9424 -0.1117
vn 0.4849 -0.8541 -0.188
vn 0.1723 0.9773 -0.1234
vn 0.6641 -0.6918 -0.2835
vn 0.06073 0.9902 -0.1253
vn 0.8133 -0.4425 -0.3778
vn 0.2531 0.9446 -0.2091
vn 0.1299 0.978 -0.1631
vn 0.4671 -0.8303 -0.3038
vn 0.639 -0.6503 -0.4108
vn 0.03873 0.9889 -0.1436
vn 0.7653 -0.3929 -0.5097
vn -0.02246 0.9942 -0.1054
vn 0.7755 -0.365 -0.5151
vn -0.03275 0.9974 -0.06452
vn 0.8139 -0.1353 -0.565
vn 0.07309 -0.994 -0.08094
vn 0.7482 0.4343 -0.5016
vn 0.1804 -0.9729 -0.1443
vn 0.4853 0.8052 -0.3408
vn 0.3104 -0.9249 -0.2195
vn 0.0625 -0.991 -0.1181
vn -0.02124 0.9978 -0.06293
vn 0.6741 -0.1405 -0.7251
vn 0.6223 0.4272 -0.6558
vn 0.1587 -0.9641 -0.2128
vn 0.4088 0.7964 -0.4456
vn 0.2694 -0.9131 -0.306
vn 0.2089 0.9459 -0.2483
vn 0.4047 -0.8169 -0.411
vn 0.1097 0.9802 -0.1649
vn 0.5531 -0.6298 -0.5452
vn 0.04202 0.9908 -0.1283
vn 0.6526 -0.3618 -0.6657
vn -0.009339 0.995 -0.099
vn 0.6556 -0.3413 -0.6735
vn 0.2998 -0.8105 -0.5032
vn 0.4164 -0.6099 -0.6743
vn 0.06958 0.9832 -0.1686
vn 0.01288 0.9912 -0.1313
vn 0.4753 -0.3247 -0.8177
vn -0.01636 0.9946 -0.1021
vn 0.4706 -0.3333 -0.8169
vn -0.01154 0.998 -0.06189
vn 0.501 -0.1212 -0.8569
vn 0.05631 -0.9901 -0.1285
vn 0.4781 0.446 -0.7566
vn 0.1354 -0.954 -0.2675
vn 0.3195 0.814 -0.485
vn 0.2051 -0.8989 -0.3872
vn 0.1551 0.9525 -0.2619
vn 0.2989 -0.1625 -0.9403
vn 0.3032 0.4999 -0.8112
vn 0.0105 -0.9827 -0.1849
vn 0.05307 -0.95 -0.3075
vn 0.1657 0.8585 -0.4852
vn 0.08139 -0.8845 -0.4593
vn 0.04733 0.9613 -0.2713
vn 0.09754 -0.7997 -0.5924
vn -0.003479 0.9839 -0.1787
vn 0.1484 -0.6408 -0.7532
vn -0.02457 0.9893 -0.1439
vn 0.1673 -0.3594 -0.9181
vn -0.02432 0.9938 -0.1086
vn 0.2774 -0.3398 -0.8986
vn -0.003052 0.998 -0.06198
vn -0.0528 0.9807 -0.1879
vn -0.04593 0.9868 -0.1553
vn -0.06577 -0.4527 -0.8892
vn 0.03204 -0.1677 -0.9853
vn -0.02768 0.993 -0.1149
vn 0.02896 -0.3317 -0.9429
vn 0.009339 0.998 -0.06241
vn 0.05756 -0.1382 -0.9887
vn -0.006806 -0.976 -0.2177
vn 0.06787 0.5596 -0.826
vn -0.001221 -0.8958 -0.4443
vn -0.001862 0.8914 -0.4531
vn -0.002716 -0.8032 -0.5957
vn -0.04315 0.9612 -0.2723
vn -0.03568 -0.6797 -0.7325
vn -0.02326 -0.9727 -0.2306
vn -0.03632 -0.8876 -0.4592
vn -0.1011 0.6232 -0.7754
vn -0.08609 0.9141 -0.3962
vn -0.06571 -0.7689 -0.6359
vn -0.07553 0.9607 -0.267
vn -0.09787 -0.6296 -0.7707
vn -0.06137 0.9796 -0.1914
vn -0.1167 -0.4059 -0.9064
vn -0.0459 0.9854 -0.1637
vn -0.1193 -0.1543 -0.9808
vn -0.01926 0.9926 -0.1194
vn -0.1207 -0.3272 -0.9372
vn 0.02051 0.9977 -0.06442
vn -0.1196 -0.1453 -0.9821
vn -0.1589 -0.3957 -0.9045
vn -0.1536 -0.1537 -0.9761
vn -0.04526 0.9833 -0.176
vn -0.003265 0.9929 -0.1192
vn -0.1421 -0.3369 -0.9308
vn 0.02991 0.9973 -0.06769
vn -0.1558 -0.1404 -0.9778
vn -0.05478 -0.9683 -0.2435
vn -0.1329 0.6751 -0.7256
vn -0.1025 -0.8681 -0.4855
vn -0.09217 0.9324 -0.3494
vn -0.1343 -0.738 -0.6613
vn -0.08341 0.9644 -0.2511
vn -0.1537 -0.6024 -0.7832
vn -0.0672 0.9791 -0.192
vn -0.1502 0.6799 -0.7177
vn -0.06616 0.9388 -0.338
vn -0.1517 -0.8661 -0.4763
vn -0.1679 -0.752 -0.6374
vn -0.05216 0.967 -0.2493
vn -0.1695 -0.6231 -0.7635
vn -0.05234 0.9786 -0.1989
vn -0.1892 -0.4116 -0.8915
vn -0.03806 0.9842 -0.1729
vn -0.2038 -0.1693 -0.9643
vn -0.01331 0.9927 -0.1197
vn -0.1948 -0.3286 -0.9242
vn 0.03162 0.997 -0.07038
vn -0.1987 -0.1294 -0.9715
vn -0.08533 -0.9655 -0.2462
vn -0.05161 0.9856 -0.1607
vn -0.03314 0.9918 -0.1231
vn -0.2955 -0.1982 -0.9345
vn -0.2662 -0.3291 -0.906
vn 0.0275 0.9972 -0.06995
vn -0.2843 -0.1041 -0.953
vn -0.1047 -0.9652 -0.2395
vn -0.2333 0.6732 -0.7017
vn -0.1844 -0.8776 -0.4424
vn -0.09684 0.9324 -0.3481
vn -0.2154 -0.7818 -0.5851
vn -0.03696 0.9669 -0.2525
vn -0.2442 -0.6586 -0.7117
vn -0.02167 0.9822 -0.1863
vn -0.2775 -0.4479 -0.8499
vn -0.2157 0.9147 -0.3417
vn -0.1196 0.9626 -0.243
vn -0.2685 -0.8137 -0.5155
vn -0.3121 -0.7124 -0.6286
vn -0.0506 0.9859 -0.1592
vn -0.37 -0.5198 -0.77
vn -0.05295 0.9879 -0.1458
vn -0.4165 -0.2604 -0.871
vn -0.0267 0.9926 -0.1186
vn -0.4143 -0.3067 -0.8569
vn 0.01196 0.9981 -0.05957
vn -0.4219 -0.1107 -0.8998
vn -0.1208 -0.9684 -0.2179
vn -0.3829 0.6343 -0.6716
vn -0.2161 -0.895 -0.3901
vn -0.05249 0.9926 -0.1094
vn -0.01166 0.9991 -0.03891
vn -0.622 -0.2819 -0.7305
vn -0.6264 -0.06034 -0.7771
vn -0.123 -0.9771 -0.1737
vn -0.5432 0.5642 -0.6217
vn -0.2475 -0.914 -0.3214
vn -0.3131 0.8862 -0.3416
vn -0.3275 -0.849 -0.4147
vn -0.1996 0.9519 -0.2325
vn -0.4042 -0.7706 -0.4928
vn -0.101 0.9841 -0.1461
vn -0.5121 -0.5984 -0.6161
vn -0.06708 0.9885 -0.1355
vn -0.6009 -0.3324 -0.7269
vn -0.3796 -0.8689 -0.3176
vn -0.4888 -0.792 -0.3658
vn -0.2172 0.9457 -0.2417
vn -0.1137 0.9812 -0.156
vn -0.6334 -0.6284 -0.4516
vn -0.08313 0.9881 -0.1291
vn -0.7509 -0.3793 -0.5406
vn -0.07169 0.9934 -0.08939
vn -0.7825 -0.2811 -0.5555
vn -0.0285 0.9995 -0.01309
vn -0.7867 -0.06006 -0.6144
vn -0.1273 -0.9802 -0.1519
vn -0.6768 0.5099 -0.531
vn -0.2701 -0.9276 -0.2579
vn -0.3775 0.8561 -0.3529
vn -0.8837 -0.2759 -0.3779
vn -0.9022 -0.05197 -0.4281
vn -0.1338 -0.9823 -0.1309
vn -0.03732 0.9991 0.01996
vn -0.7973 0.4701 -0.3784
vn -0.2817 -0.9379 -0.2024
vn -0.4574 0.8415 -0.2874
vn -0.4066 -0.8787 -0.2499
vn -0.2416 0.9467 -0.213
vn -0.5375 -0.7926 -0.2879
vn -0.1193 0.9814 -0.1506
vn -0.7029 -0.6268 -0.3362
vn -0.08509 0.989 -0.1208
vn -0.8343 -0.4012 -0.3781
vn -0.07804 0.9947 -0.06748
vn -0.2936 0.948 -0.1231
vn -0.1602 0.9826 -0.09369
vn -0.5668 -0.8018 -0.1892
vn -0.7455 -0.6348 -0.2029
vn -0.1179 0.9904 -0.0727
vn -0.883 -0.4225 -0.2044
vn -0.0998 0.9948 -0.01877
vn -0.9503 -0.2519 -0.1828
vn -0.04285 0.9971 0.06281
vn -0.975 -0.05368 -0.2156
vn -0.133 -0.9862 -0.09857
vn -0.8923 0.4151 -0.1774
vn -0.2804 -0.9496 -0.14
vn -0.5451 0.8247 -0.1505
vn -0.4155 -0.8938 -0.1688
vn -0.1241 -0.9902 -0.06336
vn -0.04364 0.9933 0.1068
vn -0.9992 -0.0401 0.005585
vn -0.9304 0.3654 0.02927
vn -0.2672 -0.9608 -0.0737
vn -0.5922 0.8057 0.004273
vn -0.4089 -0.9095 -0.07404
vn -0.333 0.9429 -0.005585
vn -0.5765 -0.8147 -0.06247
vn -0.2173 0.9761 0.003662
vn -0.7634 -0.6448 -0.03818
vn -0.1731 0.9848 0.01086
vn -0.8994 -0.4369 -0.01074
vn -0.1293 0.9904 0.04801
vn -0.9752 -0.2194 0.02722
vn -0.561 -0.8253 0.06394
vn -0.7485 -0.6517 0.1223
vn -0.2621 0.9589 0.1088
vn -0.2232 0.9699 0.09723
vn -0.8781 -0.4456 0.174
vn -0.1488 0.9824 0.1125
vn -0.9557 -0.1876 0.2266
vn -0.04096 0.9883 0.1468
vn -0.9769 -0.02344 0.2123
vn -0.1098 -0.9935 -0.03006
vn -0.9156 0.3309 0.2282
vn -0.2433 -0.9699 -0.008759
vn -0.5866 0.7942 0.1585
vn -0.3857 -0.9224 0.02005
vn -0.3442 0.9318 0.1151
vn -0.9157 -0.01074 0.4017
vn -0.8558 0.3123 0.4123
vn -0.0914 -0.9958 0.0007019
vn -0.2079 -0.9766 0.05539
vn -0.5386 0.7902 0.2924
vn -0.341 -0.933 0.1151
vn -0.3354 0.9157 0.2214
vn -0.513 -0.8367 0.1914
vn -0.2951 0.9325 0.2081
vn -0.6966 -0.6607 0.2794
vn -0.2676 0.944 0.1928
vn -0.8201 -0.4537 0.3486
vn -0.1622 0.9693 0.1848
vn -0.8967 -0.1622 0.4118
vn -0.03729 0.9829 0.1804
vn -0.3167 0.8985 0.3039
vn -0.296 0.9073 0.2986
vn -0.6002 -0.6772 0.4256
vn -0.7248 -0.471 0.5027
vn -0.1679 0.951 0.2593
vn -0.8126 -0.1532 0.5623
vn -0.03388 0.978 0.2059
vn -0.8332 -0.0094 0.5529
vn -0.05441 -0.9974 0.04593
vn -0.7757 0.3117 0.5487
vn -0.1582 -0.9802 0.1191
vn -0.472 0.7964 0.3781
vn -0.273 -0.9396 0.2064
vn -0.3185 0.8993 0.2996
vn -0.4268 -0.8481 0.3139
vn -0.7074 0.3263 0.627
vn -0.4013 0.8112 0.4252
vn -0.1204 -0.9809 0.1529
vn -0.2186 -0.9417 0.2556
vn -0.2885 0.8856 0.3638
vn -0.3248 -0.854 0.4063
vn -0.3126 0.862 0.399
vn -0.4736 -0.71 0.5211
vn -0.2963 0.8667 0.4012
vn -0.6213 -0.5098 0.595
vn -0.1621 0.9308 0.3274
vn -0.7382 -0.1709 0.6526
vn -0.03177 0.9743 0.223
vn -0.7674 -0.02991 0.6404
vn -0.02121 -0.997 0.07465
vn -0.2726 0.8291 0.4881
vn -0.1455 0.9153 0.3755
vn -0.5151 -0.5734 0.6371
vn -0.6527 -0.2217 0.7244
vn -0.0332 0.9728 0.2293
vn -0.6984 -0.07981 0.7112
vn 0.006165 -0.9966 0.08255
vn -0.6235 0.326 0.7106
vn -0.04642 -0.981 0.1883
vn -0.3018 0.8322 0.4651
vn -0.09217 -0.9508 0.2958
vn -0.2368 0.8729 0.4266
vn -0.144 -0.9006 0.4101
vn -0.2832 0.8263 0.4867
vn -0.3577 -0.7511 0.5549
vn 0.02091 -0.9727 0.2312
vn -0.004181 -0.9335 0.3585
vn -0.1791 0.8534 0.4895
vn -0.1713 0.8569 0.4861
vn -0.1238 -0.8771 0.4639
vn -0.2402 0.7906 0.5632
vn -0.2501 -0.795 0.5526
vn -0.2333 0.8019 0.55
vn -0.4006 -0.6539 0.6417
vn -0.1313 0.9106 0.3919
vn -0.5186 -0.2896 0.8044
vn -0.04978 0.9774 0.2054
vn -0.5494 -0.1916 0.8133
vn 0.0347 -0.995 0.09375
vn -0.4796 0.295 0.8264
vn -0.1685 -0.7427 0.648
vn -0.2994 -0.4841 0.8222
vn -0.1207 0.9266 0.3562
vn -0.05933 0.9806 0.187
vn -0.2653 -0.3649 0.8924
vn 0.04605 -0.9938 0.1006
vn -0.2464 0.2324 0.9409
vn 0.07288 -0.9702 0.2311
vn -0.07401 0.8646 0.497
vn 0.05054 -0.9336 0.3548
vn -0.1062 0.8307 0.5464
vn -0.004181 -0.8942 0.4477
vn -0.1774 0.7477 0.6398
vn -0.07947 -0.8334 0.5469
vn -0.179 0.7796 0.6001
f 1/1/1 2/2/2 3/3/3
f 1/1/1 3/3/3 4/4/4
f 5/5/5 6/6/6 7/7/7
f 5/5/5 7/7/7 8/8/8
f 9/9/9 1/1/1 4/4/4
f 9/9/9 4/4/4 10/10/10
f 11/11/11 5/5/5 8/8/8
f 11/11/11 8/8/8 12/12/12
f 13/13/13 9/9/9 10/10/10
f 13/13/13 10/10/10 14/14/14
f 15/15/15 11/11/11 12/12/12
f 15/15/15 12/12/12 16/16/16
f 17/17/17 13/13/13 14/14/14
f 17/17/17 14/14/14 18/18/18
f 19/19/19 15/15/15 16/16/16
f 19/19/19 16/16/16 20/20/20
f 21/21/21 17/17/17 18/18/18
f 21/21/21 18/18/18 22/22/22
f 23/23/23 19/19/19 20/20/20
f 23/23/23 20/20/20 24/24/24
f 25/25/25 21/21/21 22/22/22
f 25/25/25 22/22/22 26/26/26
f 27/27/27 28/28/28 29/29/29
f 30/30/30 23/23/23 24/24/24
f 31/31/31 25/25/25 26/26/26
f 31/31/31 26/26/26 32/32/32
f 2/2/2 27/27/27 29/29/29
f 2/2/2 29/29/29 3/3/3
f 6/6/6 31/31/31 32/32/32
f 6/6/6 32/32/32 7/7/7
f 3/3/3 29/29/29 33/33/33
f 3/3/3 33/33/33 34/34/34
f 7/7/7 32/32/32 35/35/35
f 7/7/7 35/35/35 36/36/36
f 4/4/4 3/3/3 34/34/34
f 4/4/4 34/34/34 37/37/37
f 8/8/8 7/7/7 36/36/36
f 8/8/8 36/36/36 38/38/38
f 10/10/10 4/4/4 37/37/37
f 10/10/10 37/37/37 39/39/39
f 12/12/12 8/8/8 38/38/38
f 12/12/12 38/38/38 40/40/40
f 14/14/14 10/10/10 39/39/39
f 14/14/14 39/39/39 41/41/41
f 16/16/16 12/12/12 40/40/40
f 16/16/16 40/40/40 42/42/42
f 18/18/18 14/14/14 41/41/41
f 18/18/18 41/41/41 43/43/43
f 20/20/20 16/16/16 42/42/42
f 20/20/20 42/42/42 44/44/44
f 22/22/22 18/18/18 43/43/43
f 22/22/22 43/43/43 45/45/45
f 24/24/24 20/20/20 44/44/44
f 24/24/24 44/44/44 46/46/46
f 26/26/26 22/22/22 45/45/45
f 26/26/26 45/45/45 47/47/47
f 29/29/29 28/28/28 33/33/33
f 30/30/30 24/24/24 46/46/46
f 32/32/32 26/26/26 47/47/47
f 32/32/32 47/47/47 35/35/35
f 43/43/43 41/41/41 48/48/48
f 43/43/43 48/48/48 49/49/49
f 44/44/44 42/42/42 50/50/50
f 44/44/44 50/50/50 51/51/51
f 45/45/45 43/43/43 49/49/49
f 45/45/45 49/49/49 52/52/52
f 46/46/46 44/44/44 51/51/51
f 46/46/46 51/51/51 53/53/53
f 47/47/47 45/45/45 52/52/52
f 47/47/47 52/52/52 54/54/54
f 33/33/33 28/28/28 55/55/55
f 30/30/30 46/46/46 53/53/53
f 35/35/35 47/47/47 54/54/54
f 35/35/35 54/54/54 56/56/56
f 34/34/34 33/33/33 55/55/55
f 34/34/34 55/55/55 57/57/57
f 36/36/36 35/35/35 56/56/56
f 36/36/36 56/56/56 58/58/58
f 37/37/37 34/34/34 57/57/57
f 37/37/37 57/57/57 59/59/59
f 38/38/38 36/36/36 58/58/58
f 38/38/38 58/58/58 60/60/60
f 39/39/39 37/37/37 59/59/59
f 39/39/39 59/59/59 61/61/61
f 40/40/40 38/38/38 60/60/60
f 40/40/40 60/60/60 62/62/62
f 41/41/41 39/39/39 61/61/61
f 41/41/41 61/61/61 48/48/48
f 42/42/42 40/40/40 62/62/62
f 42/42/42 62/62/62 50/50/50
f 58/58/58 56/56/56 63/63/63
f 58/58/58 63/63/63 64/64/64
f 59/59/59 57/57/57 65/65/65
f 59/59/59 65/65/65 66/66/66
f 60/60/60 58/58/58 64/64/64
f 60/60/60 64/64/64 67/67/67
f 61/61/61 59/59/59 66/66/66
f 61/61/61 66/66/66 68/68/68
f 62/62/62 60/60/60 67/67/67
f 62/62/62 67/67/67 69/69/69
f 48/48/48 61/61/61 68/68/68
f 48/48/48 68/68/68 70/70/70
f 50/50/50 62/62/62 69/69/69
f 50/50/50 69/69/69 71/71/71
f 49/49/49 48/48/48 70/70/70
f 49/49/49 70/70/70 72/72/72
f 51/51/51 50/50/50 71/71/71
f 51/51/51 71/71/71 73/73/73
f 52/52/52 49/49/49 72/72/72
f 52/52/52 72/72/72 74/74/74
f 53/53/53 51/51/51 73/73/73
f 53/53/53 73/73/73 75/75/75
f 54/54/54 52/52/52 74/74/74
f 54/54/54 74/74/74 76/76/76
f 55/55/55 28/28/28 77/77/77
f 30/30/30 53/53/53 75/75/75
f 56/56/56 54/54/54 76/76/76
f 56/56/56 76/76/76 63/63/63
f 57/57/57 55/55/55 77/77/77
f 57/57/57 77/77/77 65/65/65
f 73/73/73 71/71/71 78/78/78
f 73/73/73 78/78/78 79/79/79
f 74/74/74 72/72/72 80/80/80
f 74/74/74 80/80/80 81/81/81
f 75/75/75 73/73/73 79/79/79
f 75/75/75 79/79/79 82/82/82
f 76/76/76 74/74/74 81/81/81
f 76/76/76 81/81/81 83/83/83
f 77/77/77 28/28/28 84/84/84
f 30/30/30 75/75/75 82/82/82
f 63/63/63 76/76/76 83/83/83
f 63/63/63 83/83/83 85/85/85
f 65/65/65 77/77/77 84/84/84
f 65/65/65 84/84/84 86/86/86
f 64/64/64 63/63/63 85/85/85
f 64/64/64 85/85/85 87/87/87
f 66/66/66 65/65/65 86/86/86
f 66/66/66 86/86/86 88/88/88
f 67/67/67 64/64/64 87/87/87
f 67/67/67 87/87/87 89/89/89
f 68/68/68 66/66/66 88/88/88
f 68/68/68 88/88/88 90/90/90
f 69/69/69 67/67/67 89/89/89
f 69/69/69 89/89/89 91/91/91
f 70/70/70 68/68/68 90/90/90
f 70/70/70 90/90/90 92/92/92
f 71/71/71 69/69/69 91/91/91
f 71/71/71 91/91/91 78/78/78
f 72/72/72 70/70/70 92/92/92
f 72/72/72 92/92/92 80/80/80
f 88/88/88 86/86/86 93/93/93
f 88/88/88 93/93/93 94/94/94
f 89/89/89 87/87/87 95/95/95
f 89/89/89 95/95/95 96/96/96
f 90/90/90 88/88/88 94/94/94
f 90/90/90 94/94/94 97/97/97
f 91/91/91 89/89/89 96/96/96
f 91/91/91 96/96/96 98/98/98
f 92/92/92 90/90/90 97/97/97
f 92/92/92 97/97/97 99/99/99
f 78/78/78 91/91/91 98/98/98
f 78/78/78 98/98/98 100/100/100
f 80/80/80 92/92/92 99/99/99
f 80/80/80 99/99/99 101/101/101
f 79/79/79 78/78/78 100/100/100
f 79/79/79 100/100/100 102/102/102
f 81/81/81 80/80/80 101/101/101
f 81/81/81 101/101/101 103/103/103
f 82/82/82 79/79/79 102/102/102
f 82/82/82 102/102/102 104/104/104
f 83/83/83 81/81/81 103/103/103
f 83/83/83 103/103/103 105/105/105
f 84/84/84 28/28/28 106/106/106
f 30/30/30 82/82/82 104/104/104
f 85/85/85 83/83/83 105/105/105
f 85/85/85 105/105/105 107/107/107
f 86/86/86 84/84/84 106/106/106
f 86/86/86 106/106/106 93/93/93
f 87/87/87 85/85/85 107/107/107
f 87/87/87 107/107/107 95/95/95
f 103/103/103 101/101/101 108/108/108
f 103/103/103 108/108/108 109/109/109
f 104/104/104 102/102/102 110/110/110
f 104/104/104 110/110/110 111/111/111
f 105/105/105 103/103/103 109/109/109
f 105/105/105 109/109/109 112/112/112
f 106/106/106 28/28/28 113/113/113
f 30/30/30 104/104/104 111/111/111
f 107/107/107 105/105/105 112/112/112
f 107/107/107 112/112/112 114/114/114
f 93/93/93 106/106/106 113/113/113
f 93/93/93 113/113/113 115/115/115
f 95/95/95 107/107/107 114/114/114
f 95/95/95 114/114/114 116/116/116
f 94/94/94 93/93/93 115/115/115
f 94/94/94 115/115/115 117/117/117
f 96/96/96 95/95/95 116/116/116
f 96/96/96 116/116/116 118/118/118
f 97/97/97 94/94/94 117/117/117
f 97/97/97 117/117/117 119/119/119
f 98/98/98 96/96/96 118/118/118
f 98/98/98 118/118/118 120/120/120
f 99/99/99 97/97/97 119/119/119
f 99/99/99 119/119/119 121/121/121
f 100/100/100 98/98/98 120/120/120
f 100/100/100 120/120/120 122/122/122
f 101/101/101 99/99/99 121/121/121
f 101/101/101 121/121/121 108/108/108
f 102/102/102 100/100/100 122/122/122
f 102/102/102 122/122/122 110/110/110
f 118/118/118 116/116/116 123/123/123
f 118/118/118 123/123/123 124/124/124
f 119/119/119 117/117/117 125/125/125
f 119/119/119 125/125/125 126/126/126
f 120/120/120 118/118/118 124/124/124
f 120/120/120 124/124/124 127/127/127
f 121/121/121 119/119/119 126/126/126
f 121/121/121 126/126/126 128/128/128
f 122/122/122 120/120/120 127/127/127
f 122/122/122 127/127/127 129/129/129
f 108/108/108 121/121/121 128/128/128
f 108/108/108 128/128/128 130/130/130
f 110/110/110 122/122/122 129/129/129
f 110/110/110 129/129/129 131/131/131
f 109/109/109 108/108/108 130/130/130
f 109/109/109 130/130/130 132/132/132
f 111/111/111 110/110/110 131/131/131
f 111/111/111 131/131/131 133/133/133
f 112/112/112 109/109/109 132/132/132
f 112/112/112 132/132/132 134/134/134
f 113/113/113 28/28/28 135/135/135
f 30/30/30 111/111/111 133/133/133
f 114/114/114 112/112/112 134/134/134
f 114/114/114 134/134/134 136/136/136
f 115/115/115 113/113/113 135/135/135
f 115/115/115 135/135/135 137/137/137
f 116/116/116 114/114/114 136/136/136
f 116/116/116 136/136/136 123/123/123
f 117/117/117 115/115/115 137/137/137
f 117/117/117 137/137/137 125/125/125
f 133/133/133 131/131/131 138/138/138
f 133/133/133 138/138/138 139/139/139
f 134/134/134 132/132/132 140/140/140
f 134/134/134 140/140/140 141/141/141
f 135/135/135 28/28/28 142/142/142
f 30/30/30 133/133/133 139/139/139
f 136/136/136 134/134/134 141/141/141
f 136/136/136 141/141/141 143/143/143
f 137/137/137 135/135/135 142/142/142
f 137/137/137 142/142/142 144/144/144
f 123/123/123 136/136/136 143/143/143
f 123/123/123 143/143/143 145/145/145
f 125/125/125 137/137/137 144/144/144
f 125/125/125 144/144/144 146/146/146
f 124/124/124 123/123/123 145/145/145
f 124/124/124 145/145/145 147/147/147
f 126/126/126 125/125/125 146/146/146
f 126/126/126 146/146/146 148/148/148
f 127/127/127 124/124/124 147/147/147
f 127/127/127 147/147/147 149/149/149
f 128/128/128 126/126/126 148/148/148
f 128/128/128 148/148/148 150/150/150
f 129/129/129 127/127/127 149/149/149
f 129/129/129 149/149/149 151/151/151
f 130/130/130 128/128/128 150/150/150
f 130/130/130 150/150/150 152/152/152
f 131/131/131 129/129/129 151/151/151
f 131/131/131 151/151/151 138/138/138
f 132/132/132 130/130/130 152/152/152
f 132/132/132 152/152/152 140/140/140
f 149/149/149 147/147/147 153/153/153
f 149/149/149 153/153/153 154/154/154
f 150/150/150 148/148/148 155/155/155
f 150/150/150 155/155/155 156/156/156
f 151/151/151 149/149/149 154/154/154
f 151/151/151 154/154/154 157/157/157
f 152/152/152 150/150/150 156/156/156
f 152/152/152 156/156/156 158/158/158
f 138/138/138 151/151/151 157/157/157
f 138/138/138 157/157/157 159/159/159
f 140/140/140 152/152/152 158/158/158
f 140/140/140 158/158/158 160/160/160
f 139/139/139 138/138/138 159/159/159
f 139/139/139 159/159/159 161/161/161
f 141/141/141 140/140/140 160/160/160
f 141/141/141 160/160/160 162/162/162
f 142/142/142 28/28/28 163/163/163
f 30/30/30 139/139/139 161/161/161
f 143/143/143 141/141/141 162/162/162
f 143/143/143 162/162/162 164/164/164
f 144/144/144 142/142/142 163/163/163
f 144/144/144 163/163/163 165/165/165
f 145/145/145 143/143/143 164/164/164
f 145/145/145 164/164/164 166/166/166
f 146/146/146 144/144/144 165/165/165
f 146/146/146 165/165/165 167/167/167
f 147/147/147 145/145/145 166/166/166
f 147/147/147 166/166/166 153/153/153
f 148/148/148 146/146/146 167/167/167
f 148/148/148 167/167/167 155/155/155
f 163/163/163 28/28/28 168/168/168
f 30/30/30 161/161/161 169/169/169
f 164/164/164 162/162/162 170/170/170
f 164/164/164 170/170/170 171/171/171
f 165/165/165 163/163/163 168/168/168
f 165/165/165 168/168/168 172/172/172
f 166/166/166 164/164/164 171/171/171
f 166/166/166 171/171/171 173/173/173
f 167/167/167 165/165/165 172/172/172
f 167/167/167 172/172/172 174/174/174
f 153/153/153 166/166/166 173/173/173
f 153/153/153 173/173/173 175/175/175
f 155/155/155 167/167/167 174/174/174
f 155/155/155 174/174/174 176/176/176
f 154/154/154 153/153/153 175/175/175
f 154/154/154 175/175/175 177/177/177
f 156/156/156 155/155/155 176/176/176
f 156/156/156 176/176/176 178/178/178
f 157/157/157 154/154/154 177/177/177
f 157/157/157 177/177/177 179/179/179
f 158/158/158 156/156/156 178/178/178
f 158/158/158 178/178/178 180/180/180
f 159/159/159 157/157/157 179/179/179
f 159/159/159 179/179/179 181/181/181
f 160/160/160 158/158/158 180/180/180
f 160/160/160 180/180/180 182/182/182
f 161/161/161 159/159/159 181/181/181
f 161/161/161 181/181/181 169/169/169
f 162/162/162 160/160/160 182/182/182
f 162/162/162 182/182/182 170/170/170
f 178/178/178 176/176/176 183/183/183
f 178/178/178 183/183/183 184/184/184
f 179/179/179 177/177/177 185/185/185
f 179/179/179 185/185/185 186/186/186
f 180/180/180 178/178/178 184/184/184
f 180/180/180 184/184/184 187/187/187
f 181/181/181 179/179/179 186/186/186
f 181/181/181 186/186/186 188/188/188
f 182/182/182 180/180/180 187/187/187
f 182/182/182 187/187/187 189/189/189
f 169/169/169 181/181/181 188/188/188
f 169/169/169 188/188/188 190/190/190
f 170/170/170 182/182/182 189/189/189
f 170/170/170 189/189/189 191/191/191
f 168/168/168 28/28/28 192/192/192
f 30/30/30 169/169/169 190/190/190
f 171/171/171 170/170/170 191/191/191
f 171/171/171 191/191/191 193/193/193
f 172/172/172 168/168/168 192/192/192
f 172/172/172 192/192/192 194/194/194
f 173/173/173 171/171/171 193/193/193
f 173/173/173 193/193/193 195/195/195
f 174/174/174 172/172/172 194/194/194
f 174/174/174 194/194/194 196/196/196
f 175/175/175 173/173/173 195/195/195
f 175/175/175 195/195/195 197/197/197
f 176/176/176 174/174/174 196/196/196
f 176/176/176 196/196/196 183/183/183
f 177/177/177 175/175/175 197/197/197
f 177/177/177 197/197/197 185/185/185
f 193/193/193 191/191/191 198/198/198
f 193/193/193 198/198/198 199/199/199
f 194/194/194 192/192/192 200/200/200
f 194/194/194 200/200/200 201/201/201
f 195/195/195 193/193/193 199/199/199
f 195/195/195 199/199/199 202/202/202
f 196/196/196 194/194/194 201/201/201
f 196/196/196 201/201/201 203/203/203
f 197/197/197 195/195/195 202/202/202
f 197/197/197 202/202/202 204/204/204
f 183/183/183 196/196/196 203/203/203
f 183/183/183 203/203/203 205/205/205
f 185/185/185 197/197/197 204/204/204
f 185/185/185 204/204/204 206/206/206
f 184/184/184 183/183/183 205/205/205
f 184/184/184 205/205/205 207/207/207
f 186/186/186 185/185/185 206/206/206
f 186/186/186 206/206/206 208/208/208
f 187/187/187 184/184/184 207/207/207
f 187/187/187 207/207/207 209/209/209
f 188/188/188 186/186/186 208/208/208
f 188/188/188 208/208/208 210/210/210
f 189/189/189 187/187/187 209/209/209
f 189/189/189 209/209/209 211/211/211
f 190/190/190 188/188/188 210/210/210
f 190/190/190 210/210/210 212/212/212
f 191/191/191 189/189/189 211/211/211
f 191/191/191 211/211/211 198/198/198
f 192/192/192 28/28/28 200/200/200
f 30/30/30 190/190/190 212/212/212
f 208/208/208 206/206/206 213/213/213
f 208/208/208 213/213/213 214/214/214
f 209/209/209 207/207/207 215/215/215
f 209/209/209 215/215/215 216/216/216
f 210/210/210 208/208/208 214/214/214
f 210/210/210 214/214/214 217/217/217
f 211/211/211 209/209/209 216/216/216
f 211/211/211 216/216/216 218/218/218
f 212/212/212 210/210/210 217/217/217
f 212/212/212 217/217/217 219/219/219
f 198/198/198 211/211/211 218/218/218
f 198/198/198 218/218/218 220/220/220
f 200/200/200 28/28/28 221/221/221
f 30/30/30 212/212/212 219/219/219
f 199/199/199 198/198/198 220/220/220
f 199/199/199 220/220/220 222/222/222
f 201/201/201 200/200/200 221/221/221
f 201/201/201 221/221/221 223/223/223
f 202/202/202 199/199/199 222/222/222
f 202/202/202 222/222/222 224/224/224
f 203/203/203 201/201/201 223/223/223
f 203/203/203 223/223/223 225/225/225
f 204/204/204 202/202/202 224/224/224
f 204/204/204 224/224/224 226/226/226
f 205/205/205 203/203/203 225/225/225
f 205/205/205 225/225/225 227/227/227
f 206/206/206 204/204/204 226/226/226
f 206/206/206 226/226/226 213/213/213
f 207/207/207 205/205/205 227/227/227
f 207/207/207 227/227/227 215/215/215
f 223/223/223 221/221/221 228/228/228
f 223/223/223 228/228/228 229/229/229
f 224/224/224 222/222/222 230/230/230
f 224/224/224 230/230/230 231/231/231
f 225/225/225 223/223/223 229/229/229
f 225/225/225 229/229/229 232/232/232
f 226/226/226 224/224/224 231/231/231
f 226/226/226 231/231/231 233/233/233
f 227/227/227 225/225/225 232/232/232
f 227/227/227 232/232/232 234/234/234
f 213/213/213 226/226/226 233/233/233
f 213/213/213 233/233/233 235/235/235
f 215/215/215 227/227/227 234/234/234
f 215/215/215 234/234/234 236/236/236
f 214/214/214 213/213/213 235/235/235
f 214/214/214 235/235/235 237/237/237
f 216/216/216 215/215/215 236/236/236
f 216/216/216 236/236/236 238/238/238
f 217/217/217 214/214/214 237/237/237
f 217/217/217 237/237/237 239/239/239
f 218/218/218 216/216/216 238/238/238
f 218/218/218 238/238/238 240/240/240
f 219/219/219 217/217/217 239/239/239
f 219/219/219 239/239/239 241/241/241
f 220/220/220 218/218/218 240/240/240
f 220/220/220 240/240/240 242/242/242
f 221/221/221 28/28/28 228/228/228
f 30/30/30 219/219/219 241/241/241
f 222/222/222 220/220/220 242/242/242
f 222/222/222 242/242/242 230/230/230
f 238/238/238 236/236/236 243/243/243
f 238/238/238 243/243/243 244/244/244
f 239/239/239 237/237/237 245/245/245
f 239/239/239 245/245/245 246/246/246
f 240/240/240 238/238/238 244/244/244
f 240/240/240 244/244/244 247/247/247
f 241/241/241 239/239/239 246/246/246
f 241/241/241 246/246/246 248/248/248
f 242/242/242 240/240/240 247/247/247
f 242/242/242 247/247/247 249/249/249
f 228/228/228 28/28/28 250/250/250
f 30/30/30 241/241/241 248/248/248
f 230/230/230 242/242/242 249/249/249
f 230/230/230 249/249/249 251/251/251
f 229/229/229 228/228/228 250/250/250
f 229/229/229 250/250/250 252/252/252
f 231/231/231 230/230/230 251/251/251
f 231/231/231 251/251/251 253/253/253
f 232/232/232 229/229/229 252/252/252
f 232/232/232 252/252/252 254/254/254
f 233/233/233 231/231/231 253/253/253
f 233/233/233 253/253/253 255/255/255
f 234/234/234 232/232/232 254/254/254
f 234/234/234 254/254/254 256/256/256
f 235/235/235 233/233/233 255/255/255
f 235/235/235 255/255/255 257/257/257
f 236/236/236 234/234/234 256/256/256
f 236/236/236 256/256/256 243/243/243
f 237/237/237 235/235/235 257/257/257
f 237/237/237 257/257/257 245/245/245
f 253/253/253 251/251/251 258/258/258
f 253/253/253 258/258/258 259/259/259
f 254/254/254 252/252/252 260/260/260
f 254/254/254 260/260/260 261/261/261
f 255/255/255 253/253/253 259/259/259
f 255/255/255 259/259/259 262/262/262
f 256/256/256 254/254/254 261/261/261
f 256/256/256 261/261/261 263/263/263
f 257/257/257 255/255/255 262/262/262
f 257/257/257 262/262/262 264/264/264
f 243/243/243 256/256/256 263/263/263
f 243/243/243 263/263/263 265/265/265
f 245/245/245 257/257/257 264/264/264
f 245/245/245 264/264/264 266/266/266
f 244/244/244 243/243/243 265/265/265
f 244/244/244 265/265/265 267/267/267
f 246/246/246 245/245/245 266/266/266
f 246/246/246 266/266/266 268/268/268
f 247/247/247 244/244/244 267/267/267
f 247/247/247 267/267/267 269/269/269
f 248/248/248 246/246/246 268/268/268
f 248/248/248 268/268/268 270/270/270
f 249/249/249 247/247/247 269/269/269
f 249/249/249 269/269/269 271/271/271
f 250/250/250 28/28/28 272/272/272
f 30/30/30 248/248/248 270/270/270
f 251/251/251 249/249/249 271/271/271
f 251/251/251 271/271/271 258/258/258
f 252/252/252 250/250/250 272/272/272
f 252/252/252 272/272/272 260/260/260
f 268/268/268 266/266/266 273/273/273
f 268/268/268 273/273/273 274/274/274
f 269/269/269 267/267/267 275/275/275
f 269/269/269 275/275/275 276/276/276
f 270/270/270 268/268/268 274/274/274
f 270/270/270 274/274/274 277/277/277
f 271/271/271 269/269/269 276/276/276
f 271/271/271 276/276/276 278/278/278
f 272/272/272 28/28/28 279/279/279
f 30/30/30 270/270/270 277/277/277
f 258/258/258 271/271/271 278/278/278
f 258/258/258 278/278/278 280/280/280
f 260/260/260 272/272/272 279/279/279
f 260/260/260 279/279/279 281/281/281
f 259/259/259 258/258/258 280/280/280
f 259/259/259 280/280/280 282/282/282
f 261/261/261 260/260/260 281/281/281
f 261/261/261 281/281/281 283/283/283
f 262/262/262 259/259/259 282/282/282
f 262/262/262 282/282/282 284/284/284
f 263/263/263 261/261/261 283/283/283
f 263/263/263 283/283/283 285/285/285
f 264/264/264 262/262/262 284/284/284
f 264/264/264 284/284/284 286/286/286
f 265/265/265 263/263/263 285/285/285
f 265/265/265 285/285/285 287/287/287
f 266/266/266 264/264/264 286/286/286
f 266/266/266 286/286/286 273/273/273
f 267/267/267 265/265/265 287/287/287
f 267/267/267 287/287/287 275/275/275
f 284/284/284 282/282/282 288/288/288
f 284/284/284 288/288/288 289/289/289
f 285/285/285 283/283/283 290/290/290
f 285/285/285 290/290/290 291/291/291
f 286/286/286 284/284/284 289/289/289
f 286/286/286 289/289/289 292/292/292
f 287/287/287 285/285/285 291/291/291
f 287/287/287 291/291/291 293/293/293
f 273/273/273 286/286/286 292/292/292
f 273/273/273 292/292/292 294/294/294
f 275/275/275 287/287/287 293/293/293
f 275/275/275 293/293/293 295/295/295
f 274/274/274 273/273/273 294/294/294
f 274/274/274 294/294/294 296/296/296
f 276/276/276 275/275/275 295/295/295
f 276/276/276 295/295/295 297/297/297
f 277/277/277 274/274/274 296/296/296
f 277/277/277 296/296/296 298/298/298
f 278/278/278 276/276/276 297/297/297
f 278/278/278 297/297/297 299/299/299
f 279/279/279 28/28/28 300/300/300
f 30/30/30 277/277/277 298/298/298
f 280/280/280 278/278/278 299/299/299
f 280/280/280 299/299/299 301/301/301
f 281/281/281 279/279/279 300/300/300
f 281/281/281 300/300/300 302/302/302
f 282/282/282 280/280/280 301/301/301
f 282/282/282 301/301/301 288/288/288
f 283/283/283 281/281/281 302/302/302
f 283/283/283 302/302/302 290/290/290
f 298/298/298 296/296/296 303/303/303
f 298/298/298 303/303/303 304/304/304
f 299/299/299 297/297/297 305/305/305
f 299/299/299 305/305/305 306/306/306
f 300/300/300 28/28/28 307/307/307
f 30/30/30 298/298/298 304/304/304
f 301/301/301 299/299/299 306/306/306
f 301/301/301 306/306/306 308/308/308
f 302/302/302 300/300/300 307/307/307
f 302/302/302 307/307/307 309/309/309
f 288/288/288 301/301/301 308/308/308
f 288/288/288 308/308/308 310/310/310
f 290/290/290 302/302/302 309/309/309
f 290/290/290 309/309/309 311/311/311
f 289/289/289 288/288/288 310/310/310
f 289/289/289 310/310/310 312/312/312
f 291/291/291 290/290/290 311/311/311
f 291/291/291 311/311/311 313/313/313
f 292/292/292 289/289/289 312/312/312
f 292/292/292 312/312/312 314/314/314
f 293/293/293 291/291/291 313/313/313
f 293/293/293 313/313/313 315/315/315
f 294/294/294 292/292/292 314/314/314
f 294/294/294 314/314/314 316/316/316
f 295/295/295 293/293/293 315/315/315
f 295/295/295 315/315/315 317/317/317
f 296/296/296 294/294/294 316/316/316
f 296/296/296 316/316/316 303/303/303
f 297/297/297 295/295/295 317/317/317
f 297/297/297 317/317/317 305/305/305
f 313/313/313 311/311/311 318/318/318
f 313/313/313 318/318/318 319/319/319
f 314/314/314 312/312/312 320/320/320
f 314/314/314 320/320/320 321/321/321
f 315/315/315 313/313/313 319/319/319
f 315/315/315 319/319/319 322/322/322
f 316/316/316 314/314/314 321/321/321
f 316/316/316 321/321/321 323/323/323
f 317/317/317 315/315/315 322/322/322
f 317/317/317 322/322/322 324/324/324
f 303/303/303 316/316/316 323/323/323
f 303/303/303 323/323/323 325/325/325
f 305/305/305 317/317/317 324/324/324
f 305/305/305 324/324/324 326/326/326
f 304/304/304 303/303/303 325/325/325
f 304/304/304 325/325/325 327/327/327
f 306/306/306 305/305/305 326/326/326
f 306/306/306 326/326/326 328/328/328
f 307/307/307 28/28/28 329/329/329
f 30/30/30 304/304/304 327/327/327
f 308/308/308 306/306/306 328/328/328
f 308/308/308 328/328/328 330/330/330
f 309/309/309 307/307/307 329/329/329
f 309/309/309 329/329/329 331/331/331
f 310/310/310 308/308/308 330/330/330
f 310/310/310 330/330/330 332/332/332
f 311/311/311 309/309/309 331/331/331
f 311/311/311 331/331/331 318/318/318
f 312/312/312 310/310/310 332/332/332
f 312/312/312 332/332/332 320/320/320
f 328/328/328 326/326/326 333/333/333
f 328/328/328 333/333/333 334/334/334
f 329/329/329 28/28/28 335/335/335
f 30/30/30 327/327/327 336/336/336
f 330/330/330 328/328/328 334/334/334
f 330/330/330 334/334/334 337/337/337
f 331/331/331 329/329/329 335/335/335
f 331/331/331 335/335/335 338/338/338
f 332/332/332 330/330/330 337/337/337
f 332/332/332 337/337/337 339/339/339
f 318/318/318 331/331/331 338/338/338
f 318/318/318 338/338/338 340/340/340
f 320/320/320 332/332/332 339/339/339
f 320/320/320 339/339/339 341/341/341
f 319/319/319 318/318/318 340/340/340
f 319/319/319 340/340/340 342/342/342
f 321/321/321 320/320/320 341/341/341
f 321/321/321 341/341/341 343/343/343
f 322/322/322 319/319/319 342/342/342
f 322/322/322 342/342/342 344/344/344
f 323/323/323 321/321/321 343/343/343
f 323/323/323 343/343/343 345/345/345
f 324/324/324 322/322/322 344/344/344
f 324/324/324 344/344/344 346/346/346
f 325/325/325 323/323/323 345/345/345
f 325/325/325 345/345/345 347/347/347
f 326/326/326 324/324/324 346/346/346
f 326/326/326 346/346/346 333/333/333
f 327/327/327 325/325/325 347/347/347
f 327/327/327 347/347/347 336/336/336
f 343/343/343 341/341/341 348/348/348
f 343/343/343 348/348/348 349/349/349
f 344/344/344 342/342/342 350/350/350
f 344/344/344 350/350/350 351/351/351
f 345/345/345 343/343/343 349/349/349
f 345/345/345 349/349/349 352/352/352
f 346/346/346 344/344/344 351/351/351
f 346/346/346 351/351/351 353/353/353
f 347/347/347 345/345/345 352/352/352
f 347/347/347 352/352/352 354/354/354
f 333/333/333 346/346/346 353/353/353
f 333/333/333 353/353/353 355/355/355
f 336/336/336 347/347/347 354/354/354
f 336/336/336 354/354/354 356/356/356
f 334/334/334 333/333/333 355/355/355
f 334/334/334 355/355/355 357/357/357
f 335/335/335 28/28/28 358/358/358
f 30/30/30 336/336/336 356/356/356
f 337/337/337 334/334/334 357/357/357
f 337/337/337 357/357/357 359/359/359
f 338/338/338 335/335/335 358/358/358
f 338/338/338 358/358/358 360/360/360
f 339/339/339 337/337/337 359/359/359
f 339/339/339 359/359/359 361/361/361
f 340/340/340 338/338/338 360/360/360
f 340/340/340 360/360/360 362/362/362
f 341/341/341 339/339/339 361/361/361
f 341/341/341 361/361/361 348/348/348
f 342/342/342 340/340/340 362/362/362
f 342/342/342 362/362/362 350/350/350
f 358/358/358 28/28/28 363/363/363
f 30/30/30 356/356/356 364/364/364
f 359/359/359 357/357/357 365/365/365
f 359/359/359 365/365/365 366/366/366
f 360/360/360 358/358/358 363/363/363
f 360/360/360 363/363/363 367/367/367
f 361/361/361 359/359/359 366/366/366
f 361/361/361 366/366/366 368/368/368
f 362/362/362 360/360/360 367/367/367
f 362/362/362 367/367/367 369/369/369
f 348/348/348 361/361/361 368/368/368
f 348/348/348 368/368/368 370/370/370
f 350/350/350 362/362/362 369/369/369
f 350/350/350 369/369/369 371/371/371
f 349/349/349 348/348/348 370/370/370
f 349/349/349 370/370/370 372/372/372
f 351/351/351 350/350/350 371/371/371
f 351/351/351 371/371/371 373/373/373
f 352/352/352 349/349/349 372/372/372
f 352/352/352 372/372/372 374/374/374
f 353/353/353 351/351/351 373/373/373
f 353/353/353 373/373/373 375/375/375
f 354/354/354 352/352/352 374/374/374
f 354/354/354 374/374/374 376/376/376
f 355/355/355 353/353/353 375/375/375
f 355/355/355 375/375/375 377/377/377
f 356/356/356 354/354/354 376/376/376
f 356/356/356 376/376/376 364/364/364
f 357/357/357 355/355/355 377/377/377
f 357/357/357 377/377/377 365/365/365
f 373/373/373 371/371/371 378/378/378
f 373/373/373 378/378/378 379/379/379
f 374/374/374 372/372/372 380/380/380
f 374/374/374 380/380/380 381/381/381
f 375/375/375 373/373/373 379/379/379
f 375/375/375 379/379/379 382/382/382
f 376/376/376 374/374/374 381/381/381
f 376/376/376 381/381/381 383/383/383
f 377/377/377 375/375/375 382/382/382
f 377/377/377 382/382/382 384/384/384
f 364/364/364 376/376/376 383/383/383
f 364/364/364 383/383/383 385/385/385
f 365/365/365 377/377/377 384/384/384
f 365/365/365 384/384/384 386/386/386
f 363/363/363 28/28/28 387/387/387
f 30/30/30 364/364/364 385/385/385
f 366/366/366 365/365/365 386/386/386
f 366/366/366 386/386/386 388/388/388
f 367/367/367 363/363/363 387/387/387
f 367/367/367 387/387/387 389/389/389
f 368/368/368 366/366/366 388/388/388
f 368/368/368 388/388/388 390/390/390
f 369/369/369 367/367/367 389/389/389
f 369/369/369 389/389/389 391/391/391
f 370/370/370 368/368/368 390/390/390
f 370/370/370 390/390/390 392/392/392
f 371/371/371 369/369/369 391/391/391
f 371/371/371 391/391/391 378/378/378
f 372/372/372 370/370/370 392/392/392
f 372/372/372 392/392/392 380/380/380
f 388/388/388 386/386/386 393/393/393
f 388/388/388 393/393/393 394/394/394
f 389/389/389 387/387/387 395/395/395
f 389/389/389 395/395/395 396/396/396
f 390/390/390 388/388/388 394/394/394
f 390/390/390 394/394/394 397/397/397
f 391/391/391 389/389/389 396/396/396
f 391/391/391 396/396/396 398/398/398
f 392/392/392 390/390/390 397/397/397
f 392/392/392 397/397/397 399/399/399
f 378/378/378 391/391/391 398/398/398
f 378/378/378 398/398/398 400/400/400
f 380/380/380 392/392/392 399/399/399
f 380/380/380 399/399/399 401/401/401
f 379/379/379 378/378/378 400/400/400
f 379/379/379 400/400/400 402/402/402
f 381/381/381 380/380/380 401/401/401
f 381/381/381 401/401/401 403/403/403
f 382/382/382 379/379/379 402/402/402
f 382/382/382 402/402/402 404/404/404
f 383/383/383 381/381/381 403/403/403
f 383/383/383 403/403/403 405/405/405
f 384/384/384 382/382/382 404/404/404
f 384/384/384 404/404/404 406/406/406
f 385/385/385 383/383/383 405/405/405
f 385/385/385 405/405/405 407/407/407
f 386/386/386 384/384/384 406/406/406
f 386/386/386 406/406/406 393/393/393
f 387/387/387 28/28/28 395/395/395
f 30/30/30 385/385/385 407/407/407
f 403/403/403 401/401/401 408/408/408
f 403/403/403 408/408/408 409/409/409
f 404/404/404 402/402/402 410/410/410
f 404/404/404 410/410/410 411/411/411
f 405/405/405 403/403/403 409/409/409
f 405/405/405 409/409/409 412/412/412
f 406/406/406 404/404/404 411/411/411
f 406/406/406 411/411/411 413/413/413
f 407/407/407 405/405/405 412/412/412
f 407/407/407 412/412/412 414/414/414
f 393/393/393 406/406/406 413/413/413
f 393/393/393 413/413/413 415/415/415
f 395/395/395 28/28/28 416/416/416
f 30/30/30 407/407/407 414/414/414
f 394/394/394 393/393/393 415/415/415
f 394/394/394 415/415/415 417/417/417
f 396/396/396 395/395/395 416/416/416
f 396/396/396 416/416/416 418/418/418
f 397/397/397 394/394/394 417/417/417
f 397/397/397 417/417/417 419/419/419
f 398/398/398 396/396/396 418/418/418
f 398/398/398 418/418/418 420/420/420
f 399/399/399 397/397/397 419/419/419
f 399/399/399 419/419/419 421/421/421
f 400/400/400 398/398/398 420/420/420
f 400/400/400 420/420/420 422/422/422
f 401/401/401 399/399/399 421/421/421
f 401/401/401 421/421/421 408/408/408
f 402/402/402 400/400/400 422/422/422
f 402/402/402 422/422/422 410/410/410
f 419/419/419 417/417/417 423/423/423
f 419/419/419 423/423/423 424/424/424
f 420/420/420 418/418/418 425/425/425
f 420/420/420 425/425/425 426/426/426
f 421/421/421 419/419/419 424/424/424
f 421/421/421 424/424/424 427/427/427
f 422/422/422 420/420/420 426/426/426
f 422/422/422 426/426/426 428/428/428
f 408/408/408 421/421/421 427/427/427
f 408/408/408 427/427/427 429/429/429
f 410/410/410 422/422/422 428/428/428
f 410/410/410 428/428/428 430/430/430
f 409/409/409 408/408/408 429/429/429
f 409/409/409 429/429/429 431/431/431
f 411/411/411 410/410/410 430/430/430
f 411/411/411 430/430/430 432/432/432
f 412/412/412 409/409/409 431/431/431
f 412/412/412 431/431/431 433/433/433
f 413/413/413 411/411/411 432/432/432
f 413/413/413 432/432/432 434/434/434
f 414/414/414 412/412/412 433/433/433
f 414/414/414 433/433/433 435/435/435
f 415/415/415 413/413/413 434/434/434
f 415/415/415 434/434/434 436/436/436
f 416/416/416 28/28/28 437/437/437
f 30/30/30 414/414/414 435/435/435
f 417/417/417 415/415/415 436/436/436
f 417/417/417 436/436/436 423/423/423
f 418/418/418 416/416/416 437/437/437
f 418/418/418 437/437/437 425/425/425
f 433/433/433 431/431/431 438/438/438
f 433/433/433 438/438/438 439/439/439
f 434/434/434 432/432/432 440/440/440
f 434/434/434 440/440/440 441/441/441
f 435/435/435 433/433/433 439/439/439
f 435/435/435 439/439/439 442/442/442
f 436/436/436 434/434/434 441/441/441
f 436/436/436 441/441/441 443/443/443
f 437/437/437 28/28/28 444/444/444
f 30/30/30 435/435/435 442/442/442
f 423/423/423 436/436/436 443/443/443
f 423/423/423 443/443/443 445/445/445
f 425/425/425 437/437/437 444/444/444
f 425/425/425 444/444/444 446/446/446
f 424/424/424 423/423/423 445/445/445
f 424/424/424 445/445/445 447/447/447
f 426/426/426 425/425/425 446/446/446
f 426/426/426 446/446/446 448/448/448
f 427/427/427 424/424/424 447/447/447
f 427/427/427 447/447/447 449/449/449
f 428/428/428 426/426/426 448/448/448
f 428/428/428 448/448/448 450/450/450
f 429/429/429 427/427/427 449/449/449
f 429/429/429 449/449/449 451/451/451
f 430/430/430 428/428/428 450/450/450
f 430/430/430 450/450/450 452/452/452
f 431/431/431 429/429/429 451/451/451
f 431/431/431 451/451/451 438/438/438
f 432/432/432 430/430/430 452/452/452
f 432/432/432 452/452/452 440/440/440
f 448/448/448 446/446/446 453/453/453
f 448/448/448 453/453/453 454/454/454
f 449/449/449 447/447/447 455/455/455
f 449/449/449 455/455/455 456/456/456
f 450/450/450 448/448/448 454/454/454
f 450/450/450 454/454/454 457/457/457
f 451/451/451 449/449/449 456/456/456
f 451/451/451 456/456/456 458/458/458
f 452/452/452 450/450/450 457/457/457
f 452/452/452 457/457/457 459/459/459
f 438/438/438 451/451/451 458/458/458
f 438/438/438 458/458/458 460/460/460
f 440/440/440 452/452/452 459/459/459
f 440/440/440 459/459/459 461/461/461
f 439/439/439 438/438/438 460/460/460
f 439/439/439 460/460/460 462/462/462
f 441/441/441 440/440/440 461/461/461
f 441/441/441 461/461/461 463/463/463
f 442/442/442 439/439/439 462/462/462
f 442/442/442 462/462/462 464/464/464
f 443/443/443 441/441/441 463/463/463
f 443/443/443 463/463/463 465/465/465
f 444/444/444 28/28/28 466/466/466
f 30/30/30 442/442/442 464/464/464
f 445/445/445 443/443/443 465/465/465
f 445/445/445 465/465/465 467/467/467
f 446/446/446 444/444/444 466/466/466
f 446/446/446 466/466/466 453/453/453
f 447/447/447 445/445/445 467/467/467
f 447/447/447 467/467/467 455/455/455
f 463/463/463 461/461/461 468/468/468
f 463/463/463 468/468/468 469/469/469
f 464/464/464 462/462/462 470/470/470
f 464/464/464 470/470/470 471/471/471
f 465/465/465 463/463/463 469/469/469
f 465/465/465 469/469/469 472/472/472
f 466/466/466 28/28/28 473/473/473
f 30/30/30 464/464/464 471/471/471
f 467/467/467 465/465/465 472/472/472
f 467/467/467 472/472/472 474/474/474
f 453/453/453 466/466/466 473/473/473
f 453/453/453 473/473/473 475/475/475
f 455/455/455 467/467/467 474/474/474
f 455/455/455 474/474/474 476/476/476
f 454/454/454 453/453/453 475/475/475
f 454/454/454 475/475/475 477/477/477
f 456/456/456 455/455/455 476/476/476
f 456/456/456 476/476/476 478/478/478
f 457/457/457 454/454/454 477/477/477
f 457/457/457 477/477/477 479/479/479
f 458/458/458 456/456/456 478/478/478
f 458/458/458 478/478/478 480/480/480
f 459/459/459 457/457/457 479/479/479
f 459/459/459 479/479/479 481/481/481
f 460/460/460 458/458/458 480/480/480
f 460/460/460 480/480/480 482/482/482
f 461/461/461 459/459/459 481/481/481
f 461/461/461 481/481/481 468/468/468
f 462/462/462 460/460/460 482/482/482
f 462/462/462 482/482/482 470/470/470
f 478/478/478 476/476/476 6/6/6
f 478/478/478 6/6/6 5/5/5
f 479/479/479 477/477/477 1/1/1
f 479/479/479 1/1/1 9/9/9
f 480/480/480 478/478/478 5/5/5
f 480/480/480 5/5/5 11/11/11
f 481/481/481 479/479/479 9/9/9
f 481/481/481 9/9/9 13/13/13
f 482/482/482 480/480/480 11/11/11
f 482/482/482 11/11/11 15/15/15
f 468/468/468 481/481/481 13/13/13
f 468/468/468 13/13/13 17/17/17
f 470/470/470 482/482/482 15/15/15
f 470/470/470 15/15/15 19/19/19
f 469/469/469 468/468/468 17/17/17
f 469/469/469 17/17/17 21/21/21
f 471/471/471 470/470/470 19/19/19
f 471/471/471 19/19/19 23/23/23
f 472/472/472 469/469/469 21/21/21
f 472/472/472 21/21/21 25/25/25
f 473/473/473 28/28/28 27/27/27
f 30/30/30 471/471/471 23/23/23
f 474/474/474 472/472/472 25/25/25
f 474/474/474 25/25/25 31/31/31
f 475/475/475 473/473/473 27/27/27
f 475/475/475 27/27/27 2/2/2
f 476/476/476 474/474/474 31/31/31
f 476/476/476 31/31/31 6/6/6
f 477/477/477 475/475/475 2/2/2
f 477/477/477 2/2/2 1/1/1
