v -0.85743 -0.781476 0.309447
v -0.857838 -0.784445 0.305716
v -0.856712 -0.78142 0.3033
v -0.856557 -0.779114 0.307498
v -0.856884 -0.777788 0.301519
v -0.856703 -0.776261 0.306059
v -0.857417 -0.783492 0.299259
v -0.857608 -0.779309 0.297234
v -0.858721 -0.786984 0.302007
v -0.893096 -0.783306 0.251675
v -0.888092 -0.784291 0.249499
v -0.897033 -0.791031 0.227526
v -0.902128 -0.789923 0.229796
v -0.90587 -0.797851 0.204929
v -0.910908 -0.796417 0.207679
v -0.892357 -0.794074 0.226209
v -0.90131 -0.801209 0.203246
v -0.883481 -0.787141 0.248231
v -0.879986 -0.79147 0.248104
v -0.888778 -0.798609 0.226065
v -0.897757 -0.80593 0.202965
v -0.886785 -0.803919 0.227079
v -0.895632 -0.811326 0.2041
v -0.878101 -0.796585 0.249109
v -0.919784 -0.800352 0.214655
v -0.927059 -0.804933 0.198024
v -0.929294 -0.809867 0.201851
v -0.922045 -0.805185 0.217938
v -0.929301 -0.815956 0.204681
v -0.922229 -0.810945 0.220395
v -0.933827 -0.812977 0.191333
v -0.933636 -0.819162 0.194397
v -0.931713 -0.808134 0.18715
v -0.898037 -0.80635 0.262944
v -0.901549 -0.80203 0.263072
v -0.911157 -0.809547 0.241945
v -0.907466 -0.814065 0.24176
v -0.92019 -0.816682 0.221561
v -0.916282 -0.82152 0.221286
v -0.913072 -0.804162 0.240885
v -0.903418 -0.796906 0.262066
v -0.903314 -0.791748 0.260053
v -0.912877 -0.798723 0.238718
v -0.910716 -0.794081 0.23584
v -0.901328 -0.78734 0.257375
v -0.888338 -0.810139 0.259494
v -0.893384 -0.809177 0.261672
v -0.902532 -0.816997 0.240333
v -0.897191 -0.817971 0.23795
v -0.911078 -0.824686 0.21958
v -0.905502 -0.825746 0.21679
v -0.880106 -0.806105 0.253794
v -0.883687 -0.809043 0.256729
v -0.892319 -0.816805 0.23499
v -0.88864 -0.813748 0.2319
v -0.90052 -0.824493 0.213356
v -0.896918 -0.821292 0.209763
v -0.897731 -0.784394 0.254438
v -0.906924 -0.791009 0.232711
v -0.915817 -0.797299 0.211075
v -0.886736 -0.809221 0.229133
v -0.878162 -0.80172 0.251119
v -0.895289 -0.816681 0.20651
v -0.909276 -0.821924 0.170878
v -0.912839 -0.82404 0.165297
v -0.915055 -0.819421 0.163648
v -0.911595 -0.81692 0.169271
v -0.917819 -0.814935 0.164546
v -0.914646 -0.812162 0.170078
v -0.916864 -0.820525 0.163141
v -0.919386 -0.816432 0.163982
v -0.91486 -0.824738 0.16468
v -0.92289 -0.82742 0.205622
v -0.91749 -0.830973 0.203582
v -0.911809 -0.832197 0.200251
v -0.921607 -0.834903 0.193115
v -0.916044 -0.836241 0.189419
v -0.926989 -0.831089 0.195368
v -0.906879 -0.830798 0.196106
v -0.903584 -0.827396 0.191659
v -0.911347 -0.834724 0.184757
v -0.908451 -0.831231 0.17963
v -0.917964 -0.801683 0.189585
v -0.922936 -0.8021 0.193779
v -0.927571 -0.805629 0.182439
v -0.922686 -0.805675 0.177613
v -0.902536 -0.822791 0.187482
v -0.903401 -0.817576 0.184352
v -0.907965 -0.826807 0.174655
v -0.909014 -0.80747 0.18352
v -0.913192 -0.803684 0.185932
v -0.918322 -0.808122 0.173164
v -0.905665 -0.812291 0.182968
v -0.927031 -0.822126 0.205993
v -0.931208 -0.825535 0.195799
v -0.925799 -0.81088 0.171345
v -0.92608 -0.812528 0.171572
v -0.929606 -0.812519 0.175367
v -0.929861 -0.810687 0.175742
v -0.932557 -0.814337 0.178952
v -0.933343 -0.81263 0.179885
v -0.928225 -0.812984 0.177416
v -0.930744 -0.814779 0.180505
v -0.9251 -0.812768 0.174213
v -0.935115 -0.820917 0.18895
v -0.93277 -0.826982 0.190302
v -0.928778 -0.832303 0.189874
v -0.932722 -0.82725 0.187394
v -0.929163 -0.832002 0.187008
v -0.934819 -0.821839 0.186184
v -0.933434 -0.810579 0.181911
v -0.935377 -0.815073 0.18598
v -0.935063 -0.81663 0.183527
v -0.923735 -0.835989 0.187674
v -0.918571 -0.837275 0.184057
v -0.924674 -0.835298 0.185039
v -0.920084 -0.83645 0.181799
v -0.914273 -0.835772 0.179461
v -0.911718 -0.832454 0.174322
v -0.916263 -0.83511 0.177672
v -0.913966 -0.832175 0.173013
v -0.924963 -0.808633 0.172459
v -0.92952 -0.808394 0.177296
v -0.911455 -0.828439 0.169218
v -0.913671 -0.82865 0.168319
v -0.921052 -0.811068 0.167836
v -0.922302 -0.812995 0.167063
v -0.919835 -0.811264 0.185274
v -0.916921 -0.812554 0.185048
v -0.916639 -0.81772 0.191306
v -0.921322 -0.812172 0.188367
v -0.924144 -0.813175 0.189491
v -0.923839 -0.815679 0.191902
v -0.925033 -0.818582 0.192773
v -0.922767 -0.820937 0.193674
v -0.921886 -0.824217 0.193233
v -0.918734 -0.824817 0.192647
v -0.91657 -0.826735 0.190597
v -0.914151 -0.825007 0.189413
v -0.912348 -0.824672 0.186366
v -0.911897 -0.82156 0.185784
v -0.911845 -0.819514 0.182883
v -0.91315 -0.816495 0.183927
v -0.914914 -0.813987 0.182424
v -0.915544 -0.831503 0.173076
v -0.915112 -0.828379 0.16905
v -0.91602 -0.824812 0.16592
v -0.914847 -0.827214 0.172305
v -0.915478 -0.823811 0.169757
v -0.915467 -0.830106 0.175609
v -0.920129 -0.817247 0.16527
v -0.922883 -0.814257 0.167896
v -0.922046 -0.814151 0.171223
v -0.91931 -0.816774 0.169149
v -0.917784 -0.820946 0.164576
v -0.917048 -0.820169 0.168638
v -0.933801 -0.822361 0.184391
v -0.931991 -0.827034 0.185434
v -0.928916 -0.831138 0.185102
v -0.930249 -0.825973 0.186095
v -0.927562 -0.829544 0.185815
v -0.931821 -0.821896 0.185194
v -0.934014 -0.817852 0.182098
v -0.931995 -0.817943 0.183219
v -0.925033 -0.83399 0.183406
v -0.921036 -0.835032 0.180618
v -0.924152 -0.832027 0.184362
v -0.920599 -0.832991 0.181978
v -0.91766 -0.833978 0.177073
v -0.917518 -0.832208 0.178961
v -0.922358 -0.811425 0.180111
v -0.919338 -0.812552 0.177898
v -0.916644 -0.81486 0.176216
v -0.918339 -0.830052 0.186804
v -0.921565 -0.829079 0.188917
v -0.924723 -0.826962 0.190112
v -0.913001 -0.821473 0.176775
v -0.912596 -0.824709 0.178901
v -0.913383 -0.827536 0.18142
v -0.92855 -0.820101 0.189553
v -0.928575 -0.816513 0.187894
v -0.927524 -0.813587 0.185466
v -0.925174 -0.81183 0.182886
v -0.927062 -0.823713 0.19039
v -0.915414 -0.829326 0.184304
v -0.914424 -0.817985 0.176029
v -0.867444 -0.794912 0.283544
v -0.872787 -0.799645 0.271365
v -0.870899 -0.795444 0.268582
v -0.865683 -0.790916 0.280636
v -0.8708 -0.790507 0.266468
v -0.865617 -0.786188 0.278426
v -0.886845 -0.777299 0.287461
v -0.883719 -0.774721 0.284423
v -0.88973 -0.778772 0.272084
v -0.893094 -0.781538 0.275029
v -0.885316 -0.777767 0.269264
v -0.879559 -0.773832 0.281486
v -0.870618 -0.797516 0.286649
v -0.876184 -0.802425 0.274356
v -0.880564 -0.803416 0.27713
v -0.874725 -0.798388 0.289521
v -0.879203 -0.797362 0.291769
v -0.885312 -0.802428 0.279296
v -0.889709 -0.799665 0.280553
v -0.883378 -0.794648 0.293084
v -0.888399 -0.78591 0.29223
v -0.88847 -0.781237 0.290194
v -0.894891 -0.785702 0.27769
v -0.894899 -0.790603 0.279682
v -0.886596 -0.790616 0.293234
v -0.893063 -0.795502 0.280677
v -0.870633 -0.777459 0.277574
v -0.867367 -0.781465 0.277357
v -0.872602 -0.785594 0.265427
v -0.87599 -0.781445 0.265598
v -0.874943 -0.774803 0.279063
v -0.880477 -0.778719 0.266976
v -0.873935 -0.770189 0.292691
v -0.869767 -0.77127 0.290284
v -0.871742 -0.77263 0.28609
v -0.876097 -0.771606 0.288532
v -0.867655 -0.775264 0.2846
v -0.865847 -0.773917 0.288845
v -0.862797 -0.777774 0.288639
v -0.864519 -0.779166 0.284378
v -0.862784 -0.783722 0.285432
v -0.861049 -0.782235 0.289666
v -0.87695 -0.789648 0.304676
v -0.880009 -0.785762 0.304871
v -0.88253 -0.787607 0.30053
v -0.87942 -0.791537 0.300353
v -0.884306 -0.783052 0.299518
v -0.881777 -0.781277 0.303848
v -0.881941 -0.776874 0.301734
v -0.884436 -0.778558 0.297441
v -0.882945 -0.774802 0.294642
v -0.880525 -0.773214 0.298881
v -0.868891 -0.79339 0.300875
v -0.873038 -0.792313 0.303261
v -0.87542 -0.794214 0.298981
v -0.871159 -0.79527 0.296655
v -0.862331 -0.790311 0.294678
v -0.865142 -0.79267 0.297862
v -0.867281 -0.794496 0.293702
v -0.864325 -0.792047 0.290541
v -0.877704 -0.770885 0.29571
v -0.880016 -0.772381 0.291527
v -0.862748 -0.788248 0.287625
v -0.860905 -0.786635 0.291801
v -0.869262 -0.770217 0.312343
v -0.867476 -0.768724 0.310171
v -0.870619 -0.768267 0.306586
v -0.872935 -0.770179 0.309289
v -0.873428 -0.768379 0.302988
v -0.876114 -0.770586 0.306069
v -0.867524 -0.767718 0.304027
v -0.86985 -0.767743 0.300077
v -0.865069 -0.7683 0.308107
v -0.859216 -0.782969 0.311619
v -0.860132 -0.78638 0.308415
v -0.861371 -0.789228 0.305081
v -0.863221 -0.786958 0.310985
v -0.864939 -0.789911 0.30801
v -0.861623 -0.783393 0.313683
v -0.864295 -0.782651 0.315316
v -0.866652 -0.786044 0.313022
v -0.868903 -0.788873 0.310335
v -0.869898 -0.783816 0.314232
v -0.872649 -0.786313 0.311716
v -0.866825 -0.780889 0.316286
v -0.869989 -0.775431 0.315731
v -0.870135 -0.772578 0.314292
v -0.874087 -0.773202 0.311724
v -0.873929 -0.776852 0.313528
v -0.877458 -0.774075 0.308848
v -0.87729 -0.778286 0.310909
v -0.868818 -0.778348 0.316423
v -0.872445 -0.780579 0.314399
v -0.875586 -0.782585 0.311906
v -0.859867 -0.770804 0.305504
v -0.857874 -0.773345 0.305367
v -0.858361 -0.77409 0.300659
v -0.860887 -0.770876 0.300822
v -0.859301 -0.775057 0.296255
v -0.862203 -0.771365 0.296438
v -0.862397 -0.769041 0.306474
v -0.864107 -0.768649 0.302012
v -0.865909 -0.768809 0.297788
v -0.860367 -0.78882 0.298334
v -0.858999 -0.785175 0.295472
v -0.85919 -0.780808 0.293362
v -0.875692 -0.769417 0.299367
v -0.878492 -0.771721 0.302569
v -0.87196 -0.768749 0.296337
v -0.863136 -0.79116 0.301532
v -0.866856 -0.791871 0.304577
v -0.870986 -0.790788 0.306993
v -0.874888 -0.788119 0.308429
v -0.879894 -0.775361 0.305455
v -0.87972 -0.779752 0.307594
v -0.877947 -0.784233 0.308628
v -0.860951 -0.776371 0.292343
v -0.863978 -0.77252 0.292538
v -0.867847 -0.769857 0.293949
vt 0.0843 0.08419
vt 0.9167 0.08333
vt 0.2622 0.01042
vt 0.7396 0.9896
vt 0.7396 0.01042
vt 0.2612 0.01105
vt 0.08333 0.9167
vt 0.9896 0.7326
vt 1 0.4792
vt 0.7396 0.9896
vt 0.9167 0.08333
vt 0.2604 0.01042
vt 0 0.5
vt 0.7396 0.9896
vt 0.2619 0.01169
vt 0.08333 0.08333
vt 0.2612 0.01105
vt 0.7396 0.9896
vt 0.9167 0.08333
vt 0.08333 0.08333
vt 0.7396 0.9896
vt 0.9236 0.08333
vt 0.5003 0.0008831
vt 0.7396 0.9896
vt 0.2619 0.01169
vt 0.7413 0.008681
vt 0.08333 0.08333
vt 0.7396 0.9896
vt 0.4167 -2.384e-07
vt 0.2612 0.01105
vt 0.9896 0.2604
vt 0.08333 0.9167
vt 0.01042 0.7396
vt 0.9167 0.9167
vt 0.9896 0.2587
vt 0.5069 0
vt 0.9896 0.2604
vt 0.5 1
vt 0.08526 0.08505
vt 0.01042 0.2604
vt 0.9167 0.9167
vt 0.9896 0.25
vt 0.5 0
vt 0.9913 0.2604
vt 0.7396 0.9896
vt 0.5 1
vt 0.9896 0.25
vt 0.2604 0.01042
vt 0.01042 0.2604
vt 0.5 1
vt 0.0843 0.08419
vt 0.5 1
vt 0.9896 0.2587
vt 0.2622 0.01042
vt 1 0.08333
vt 0.5 1
vt 0.5002 0.0004414
vt 1 0.4931
vt 0 0.5
vt 0.7396 0.9896
vt 0 0.5
vt 1 0.4167
vt 0.5 1
vt 0.01042 0.7396
vt 0.2604 0.9896
vt 0.01042 0.7396
vt 0.9913 0.2604
vt 0.5 1
vt 0.08333 0.9167
vt 0.7396 0.01042
vt 0.01042 0.7396
vt 0 0.5
vt 0.4896 -1.192e-07
vt 0.01042 0.7396
vt 0.7396 0.01042
vt 1 0.5
vt 0.08333 0.9167
vt 0.01042 0.7396
vt 0.01042 0.7396
vt 0.4896 -1.192e-07
vt 1 0.5
vt 0.08333 0.9167
vt 0.7396 0.01042
vt 0.01042 0.7396
vt 1 0.2604
vt 0.01042 0.7396
vt 0.08333 0.9167
vt 0.7396 0.01042
vt 1 0.5
vt 0.5 -1.192e-07
vt 0.08333 0.9167
vt 0.9913 0.2604
vt 0.01042 0.7396
vt 0.01042 0.7396
vt 1 0.5
vt 0 0.5
vt 0.5104 -1.192e-07
vt 0.08333 0.9167
vt 0.7413 0.008681
vt 0.5 -1.192e-07
vt 0 0.5
vt 0.2604 0.9896
vt 0.08333 0.07639
vt 0.08333 0.07639
vt 0.5 1
vt 0.08333 0.9167
vt 0.2604 0.9896
vt 1 0.08333
vt 0 0.5
vt 0.01042 0.7396
vt 0.5 1
vt 0 0.5
vt 0.7396 0.01042
vt 0 0.5
vt 0.2604 0.9896
vt 0.9236 0.08333
vt 0.01042 0.7396
vt 0.01042 0.7396
vt 0.2604 0.9896
vt 0.9236 0.08333
vt 0.01042 0.7396
vt 0.5 1
vt 0.01042 0.7396
vt 0.08333 0.08333
vt 0.9167 0.08333
vt 0.08333 0.08333
vt 0.7396 0.01042
vt 0.008681 0.2517
vt 0.2622 0.00868
vt 0.01042 0.2604
vt 0.5104 -1.192e-07
vt 0.01042 0.2604
vt 0.08333 0.07639
vt 0 0.5
vt 0.5833 -2.384e-07
vt 0.01042 0.2587
vt 0.2674 0.01042
vt 0 0.5
vt 0.2674 0.01042
vt 0 0.5
vt 0.08333 0.08333
vt 0.01042 0.2587
vt 0.2622 0.00868
vt 0 0.5
vt 0.2604 -1.192e-07
vt 0.01042 0.2604
vt 0.2622 0.00868
vt 0.08333 0.9167
vt 0.08333 -1.192e-07
vt 0.008681 0.2517
vt 0.2604 -1.192e-07
vt 0.01042 0.2604
vt 0.2604 0.9896
vt 0.01042 0.2587
vt 0.01042 0.2604
vt 0.2604 0.9896
vt 0.08333 0.07639
vt 0 0.5
vt 0.2622 0.00868
vt 0.08333 0.9167
vt 0.08333 0.08333
vt 0.01042 0.2587
vt 0 0.5
vt 0.2604 0.9896
vt 0.01042 0.2604
vt 0.08333 -1.192e-07
vt 0.08333 0.9167
vt 0.01042 0.2604
vt 0.01042 0.2604
vt 0.08333 0.9167
vt 0.08333 0.08333
vt 0 0.5
vt 0.08333 0.08333
vt 0.01042 0.2604
vt 0 0.5
vt 0.01042 0.2604
vt 0.01042 0.2604
vt 0.08333 0.08333
vt 0.01042 0.2604
vt 0 0.5
vt 0.08333 0.08333
vt 0 0.5
vt 0.01042 0.2604
vt 0.01042 0.2604
vt 0.9167 0.9167
vt 0.9167 0.9167
vt 0.5 1
vt 0.01042 0.2604
vt 0.9896 0.7378
vt 0.5833 -3.576e-07
vt 0.08333 0.08333
vt 0.7396 0.9896
vt 0.5 1
vt 0.5069 0
vt 0.9896 0.7326
vt 0 0.5
vt 0.9896 0.2604
vt 0.7396 0.9896
vt 0.7413 0.01042
vt 0.9896 0.7326
vt 0.9896 0.2587
vt 0.7396 0.9896
vt 0.75 0.01042
vt 0.9896 0.7378
vt 0.01042 0.2604
vt 0.7396 0.9896
vt 0.9167 0.9167
vt 0.75 0.01042
vt 1 0.4931
vt 0.9167 0.08333
vt 0.7413 0.01042
vt 1 0.4167
vt 0.9167 0.9167
vt 0.9167 0.08333
vt 0.9896 0.7378
vt 0.9167 0.08333
vt 0.9167 0.08333
vt 0.9896 0.7396
vt 0.9167 0.9167
vt 0.08333 0.08333
vt 1 0.5
vt 0.08333 0.9167
vt 0.2604 0.9896
vt 0.9167 0.9167
vt 0.08333 0.08333
vt 1 0.4931
vt 0.9896 0.2604
vt 0.9167 0.9167
vt 0.9896 0.7326
vt 0.2622 0.01042
vt 0.9167 0.9167
vt 0.9896 0.2587
vt 0.2604 0.9896
vt 0.9896 0.7361
vt 0.2674 0.01042
vt 0.9167 0.9167
vt 1 0.5
vt 0.9167 0.9167
vt 0.9896 0.7326
vt 0.2674 0.01042
vt 0.9896 0.7396
vt 0.08333 0.9167
vt 0.9896 0.7361
vt 0.2622 0.01042
vt 0.9896 0.7378
vt 1 0.4931
vt 0.5069 0
vt 0.08333 0.9167
vt 0.08392 0.9161
vt 0.5833 0
vt 0.2604 0.01042
vt 0.9167 0.9167
vt 0.2608 0.989
vt 0.9167 0.08333
vt 0.08333 0.9167
vt 0.9896 0.7361
vt 0.9236 0.08333
vt 0.9896 0.7326
vt 0.5 -1.192e-07
vt 0.7396 0.9896
vt 0.2604 0.9896
vt 0.2604 0.9896
vt 1 0.2604
vt 1 0.4167
vt 0.2604 0.01042
vt 0.7396 0.9896
vt 0.2604 0.9896
vt 0.2604 0.9896
vt 0.7413 0.01042
vt 1 0.4167
vt 0.2612 0.01105
vt 0.5002 0.0004414
vt 0.9167 0.9167
vt 0.2608 0.989
vt 0.9167 0.08333
vt 0.2604 0.9896
vt 1 0.4792
vt 0.7396 0.9896
vt 0.5 0.9995
vt 0.2604 0.9896
vt 0.08333 0.08333
vt 0.9167 0.9167
vt 0.5 1
vt 0.9913 0.2604
vt 0.5 1
vt 0.9896 0.7361
vt 0.9167 0.9167
vt 0.2608 0.989
vt 0.5 1
vt 0.2604 0.9896
vt 0.2633 0.985
vt 0.5 1
vt 0.5 0.9958
vt 0.2604 0.9896
vt 0.7396 0.01042
vt 0.5 0.9995
vt 0.7413 0.01042
vt 0.08392 0.9161
vt 0.5 1
vt 0.088 0.912
vt 0.5069 0
vt 0.2633 0.985
vt 0.2608 0.989
vt 0.5 0
vt 0.9167 0.9167
vn 0.8892 -0.4004 0.221
vn 0.8824 -0.44 0.1662
vn 0.987 -0.1589 -0.02426
vn 0.9911 -0.1289 0.03378
vn 0.974 0.1598 -0.1604
vn 0.9786 0.1798 -0.09992
vn 0.9546 -0.2461 -0.1677
vn 0.9455 0.09821 -0.3104
vn 0.8356 -0.5484 0.0314
vn -0.1347 0.9614 -0.2399
vn 0.2231 0.8995 -0.3757
vn 0.2457 0.8957 -0.3706
vn -0.1189 0.9636 -0.2393
vn 0.2726 0.886 -0.375
vn -0.08963 0.965 -0.2462
vn 0.5633 0.6987 -0.4409
vn 0.5786 0.6867 -0.4401
vn 0.5457 0.7048 -0.4532
vn 0.7897 0.4068 -0.4592
vn 0.7963 0.4108 -0.444
vn 0.798 0.41 -0.4418
vn 0.9225 0.06711 -0.3802
vn 0.9196 0.08551 -0.3834
vn 0.9196 0.04801 -0.3899
vn -0.7244 0.6793 0.1172
vn -0.7123 0.6938 0.106
vn -0.8903 0.3545 0.2858
vn -0.8889 0.3567 0.2875
vn -0.9122 -0.03052 0.4085
vn -0.9095 -0.02136 0.415
vn -0.9216 0.3176 0.223
vn -0.9352 -0.06479 0.348
vn -0.7439 0.6678 0.02625
vn -0.5217 -0.6935 0.4968
vn -0.7706 -0.3919 0.5025
vn -0.7774 -0.3964 0.4883
vn -0.5216 -0.7027 0.4838
vn -0.7799 -0.3972 0.4837
vn -0.5211 -0.7038 0.4828
vn -0.9084 -0.02322 0.4174
vn -0.9013 -0.02698 0.4323
vn -0.8911 0.3418 0.2983
vn -0.8926 0.3489 0.2856
vn -0.7382 0.6644 0.1165
vn -0.7422 0.6586 0.124
vn 0.1591 -0.9453 0.2846
vn -0.1963 -0.8863 0.4193
vn -0.1903 -0.8925 0.4088
vn 0.1669 -0.9458 0.2784
vn -0.1819 -0.8924 0.413
vn 0.1878 -0.941 0.2814
vn 0.7648 -0.6393 -0.07996
vn 0.4979 -0.8602 0.1101
vn 0.507 -0.8552 0.1077
vn 0.7758 -0.6257 -0.08078
vn 0.5332 -0.8397 0.103
vn 0.7952 -0.5994 -0.09156
vn -0.4756 0.8773 -0.06494
vn -0.4672 0.8816 -0.06751
vn -0.442 0.894 -0.07233
vn 0.9207 -0.2962 -0.2541
vn 0.9124 -0.3192 -0.2561
vn 0.9271 -0.2655 -0.2644
vn 0.8714 0.04978 -0.488
vn 0.638 -0.1897 -0.7463
vn 0.4943 0.2034 -0.8451
vn 0.7527 0.3709 -0.5439
vn 0.2185 0.5442 -0.81
vn 0.5295 0.6515 -0.5433
vn -0.2325 -0.208 -0.9501
vn -0.4314 0.1002 -0.8965
vn -0.08173 -0.5252 -0.847
vn -0.5305 -0.7011 0.4765
vn -0.1839 -0.892 0.4129
vn 0.2087 -0.9391 0.273
vn -0.2276 -0.9089 0.3493
vn 0.1769 -0.9649 0.1938
vn -0.5687 -0.7104 0.4145
vn 0.5632 -0.8226 0.07764
vn 0.8111 -0.5715 -0.1244
vn 0.5329 -0.846 -0.01593
vn 0.7685 -0.6025 -0.2153
vn -0.06149 0.9599 -0.2734
vn -0.4127 0.9056 -0.09714
vn -0.4422 0.8768 -0.1889
vn -0.1087 0.9264 -0.3606
vn 0.9251 -0.2393 -0.2949
vn 0.9088 0.09565 -0.406
vn 0.8804 -0.2858 -0.3783
vn 0.5837 0.6698 -0.4589
vn 0.2904 0.8701 -0.3983
vn 0.2266 0.8469 -0.481
vn 0.7919 0.4021 -0.4596
vn -0.7852 -0.4001 0.4726
vn -0.8105 -0.4185 0.4098
vn -0.6609 0.3138 -0.6817
vn -0.6833 -0.5781 -0.4459
vn -0.5347 -0.5838 -0.6109
vn -0.7408 0.2808 -0.6102
vn -0.4546 -0.5291 -0.7165
vn -0.8683 0.1602 -0.4694
vn 0.1982 -0.9717 -0.1284
vn 0.4481 -0.8043 -0.3902
vn -0.1021 -0.9904 0.09339
vn -0.9779 -0.153 0.1426
vn -0.862 -0.4636 0.2049
vn -0.6544 -0.7288 0.2016
vn -0.8592 -0.4905 -0.1455
vn -0.7184 -0.6776 -0.157
vn -0.9409 -0.2761 -0.1963
vn -0.8417 0.5019 -0.1987
vn -0.9827 0.1849 0.009064
vn -0.9502 -0.05008 -0.3077
vn -0.3606 -0.9247 0.1219
vn -0.002045 -0.9988 -0.04862
vn -0.5254 -0.8182 -0.2334
vn -0.2942 -0.8806 -0.3715
vn 0.3081 -0.9175 -0.2514
vn 0.5131 -0.7469 -0.4229
vn -0.1147 -0.8532 -0.5087
vn -0.0347 -0.8068 -0.5897
vn -0.3466 0.7556 -0.5558
vn -0.5972 0.6917 -0.406
vn 0.6292 -0.5122 -0.5846
vn -0.01892 -0.7248 -0.6887
vn -0.082 0.7218 -0.6872
vn -0.5833 0.2741 -0.7646
vn -0.2092 -0.9618 -0.1763
vn -0.5526 -0.8027 -0.2241
vn -0.5437 -0.3681 -0.7543
vn -0.106 -0.8606 -0.4981
vn 0.2852 -0.7703 -0.5703
vn 0.1946 -0.5304 -0.8251
vn 0.4142 -0.2112 -0.8853
vn 0.1148 -0.01834 -0.9932
vn 0.09949 0.3413 -0.9346
vn -0.2892 0.3255 -0.9002
vn -0.4606 0.5535 -0.6938
vn -0.7454 0.2813 -0.6044
vn -0.9112 0.2894 -0.2931
vn -0.9526 -0.08475 -0.2922
vn -0.9723 -0.2336 0.00824
vn -0.8586 -0.4895 -0.1519
vn -0.7121 -0.7003 0.05029
vn -0.8146 -0.3424 -0.4682
vn -0.827 -0.4576 -0.3266
vn -0.8238 -0.4966 -0.2733
vn -0.9814 0.1238 0.147
vn -0.9497 -0.1691 0.2636
vn -0.9078 0.417 -0.04352
vn -0.8425 -0.4629 -0.2754
vn -0.8024 -0.5034 -0.3206
vn -0.4108 -0.8795 0.2402
vn -0.6676 -0.677 0.3097
vn -0.838 -0.4787 -0.2618
vn -0.8441 -0.4331 0.3161
vn -0.3823 -0.3967 -0.8345
vn -0.4111 -0.2983 -0.8614
vn -0.484 -0.2241 -0.8459
vn 0.502 0.2115 -0.8386
vn 0.2581 0.497 -0.8284
vn 0.6244 -0.1392 -0.7686
vn -0.4008 -0.4794 -0.7806
vn 0.6069 -0.5001 -0.6176
vn -0.5667 -0.1959 -0.8003
vn -0.639 -0.2111 -0.7397
vn -0.06821 0.6789 -0.731
vn -0.4249 0.7259 -0.5408
vn -0.731 -0.2377 -0.6396
vn -0.718 0.6335 -0.2882
vn -0.02918 -0.9929 0.1155
vn -0.3507 -0.9001 0.2582
vn -0.6374 -0.694 0.3347
vn -0.3289 0.8169 -0.4738
vn 0.03958 0.7627 -0.6455
vn 0.3615 0.5731 -0.7354
vn -0.9496 -0.1346 0.283
vn -0.9689 0.1919 0.156
vn -0.8712 0.49 -0.02832
vn 0.7363 -0.07971 -0.6719
vn 0.727 -0.441 -0.5263
vn 0.5684 -0.7592 -0.317
vn 0.3063 -0.9475 -0.09162
vn 0.6092 0.2784 -0.7425
vn -0.642 0.7222 -0.2574
vn -0.836 -0.4317 0.3388
vn 0.7614 -0.6433 -0.07974
vn 0.7597 -0.6451 -0.0817
vn 0.9052 -0.335 -0.2614
vn 0.9055 -0.3363 -0.2586
vn 0.9153 0.03207 -0.4015
vn 0.9177 0.03134 -0.3961
vn -0.7302 0.6659 0.1525
vn -0.4681 0.882 -0.0539
vn -0.4744 0.8782 -0.06101
vn -0.7386 0.6601 0.1371
vn -0.1415 0.9599 -0.2418
vn -0.1391 0.9609 -0.2394
vn 0.5042 -0.8551 0.1205
vn 0.4986 -0.8593 0.1138
vn 0.1611 -0.9412 0.2971
vn 0.1688 -0.9349 0.312
vn -0.1856 -0.8683 0.4599
vn -0.1946 -0.8774 0.4384
vn -0.5161 -0.6821 0.5181
vn -0.5048 -0.6712 0.5427
vn -0.8769 -0.01865 0.4803
vn -0.8735 0.3471 0.3413
vn -0.8842 0.3411 0.3189
vn -0.8902 -0.02582 0.4549
vn -0.7464 -0.3746 0.55
vn -0.7598 -0.3843 0.5243
vn 0.5298 0.7119 -0.461
vn 0.7851 0.4048 -0.4687
vn 0.7827 0.4021 -0.4751
vn 0.5303 0.7081 -0.4662
vn 0.2051 0.9022 -0.3793
vn 0.2065 0.9007 -0.3822
vn -0.1438 0.9517 -0.2712
vn 0.2057 0.8862 -0.4151
vn 0.2121 0.8994 -0.3821
vn -0.1357 0.9601 -0.2445
vn 0.5376 0.7103 -0.4543
vn 0.5282 0.6944 -0.4887
vn 0.7747 0.3978 -0.4916
vn 0.7896 0.4092 -0.4571
vn 0.9196 0.04074 -0.3908
vn 0.9036 0.03629 -0.4268
vn -0.4958 -0.6651 0.5584
vn -0.736 -0.3676 0.5685
vn -0.7345 -0.3662 0.5713
vn -0.494 -0.6631 0.5623
vn -0.8657 -0.01093 0.5004
vn -0.8678 -0.01233 0.4967
vn -0.8681 0.3515 0.3505
vn -0.8645 0.3535 0.3572
vn -0.7243 0.6703 0.1614
vn -0.73 0.6668 0.1498
vn 0.1692 -0.936 0.3085
vn -0.18 -0.865 0.4683
vn -0.1771 -0.8618 0.4752
vn 0.1744 -0.9311 0.3204
vn 0.7534 -0.6477 -0.1134
vn 0.4988 -0.8607 0.1019
vn 0.5067 -0.8536 0.1205
vn 0.7627 -0.641 -0.08591
vn -0.4732 0.878 -0.07166
vn -0.465 0.8837 -0.05335
vn 0.907 -0.3289 -0.263
vn 0.8949 -0.3323 -0.2978
vn -0.3994 0.7747 0.4901
vn -0.1764 0.9452 0.2748
vn -0.22 0.9501 0.2212
vn -0.4528 0.7747 0.4412
vn -0.3456 0.9344 0.08649
vn -0.5944 0.7403 0.3141
vn 0.07059 0.9973 0.02106
vn -0.03171 0.992 -0.122
vn 0.1035 0.9915 0.07874
vn 0.6829 -0.5892 0.4319
vn 0.6694 -0.637 0.3822
vn 0.601 -0.757 0.2563
vn 0.379 -0.713 0.5898
vn 0.2873 -0.8346 0.47
vn 0.4024 -0.6602 0.6341
vn 0.09455 -0.6016 0.7932
vn 0.05847 -0.6539 0.7543
vn -0.05329 -0.7689 0.6372
vn -0.2394 -0.4675 0.851
vn -0.3665 -0.572 0.7338
vn -0.1909 -0.4211 0.8867
vn -0.528 0.1778 0.8304
vn -0.5249 0.504 0.6859
vn -0.585 0.4944 0.6428
vn -0.59 0.1559 0.7922
vn -0.7325 0.4382 0.5209
vn -0.7356 0.08005 0.6727
vn -0.4104 -0.148 0.8998
vn -0.4681 -0.1832 0.8644
vn -0.6062 -0.2748 0.7463
vn 0.6577 0.7371 -0.155
vn 0.8608 0.4812 -0.1656
vn 0.8528 0.4704 -0.2269
vn 0.6435 0.7342 -0.2163
vn 0.817 0.4338 -0.3799
vn 0.5907 0.7173 -0.3694
vn 0.3947 0.916 -0.07129
vn 0.372 0.9189 -0.1312
vn 0.2958 0.9131 -0.2807
vn 0.7702 -0.6309 -0.09336
vn 0.9029 -0.3175 -0.2897
vn 0.902 0.04349 -0.4295
vn -0.4498 0.8921 -0.04324
vn -0.7053 0.6849 0.1827
vn -0.1231 0.9602 -0.2504
vn 0.5208 -0.8437 0.13
vn 0.1943 -0.9196 0.3414
vn -0.1541 -0.8494 0.5047
vn -0.4708 -0.6491 0.5974
vn -0.8438 0.3717 0.3869
vn -0.8444 0.007233 0.5357
vn -0.7123 -0.35 0.6083
vn 0.7716 0.3956 -0.498
vn 0.5333 0.6894 -0.4901
vn 0.221 0.8869 -0.4057
f 1/1/1 2/2/2 3/3/3
f 1/1/1 3/3/3 4/4/4
f 4/4/4 3/3/3 5/5/5
f 4/4/4 5/5/5 6/6/6
f 3/3/3 7/7/7 8/8/8
f 3/3/3 8/8/8 5/5/5
f 2/2/2 9/9/9 7/7/7
f 2/2/2 7/7/7 3/3/3
f 10/10/10 11/11/11 12/12/12
f 10/10/10 12/12/12 13/13/13
f 13/13/13 12/12/12 14/14/14
f 13/13/13 14/14/14 15/15/15
f 12/12/12 16/16/16 17/17/17
f 12/12/12 17/17/17 14/14/14
f 11/11/11 18/18/18 16/16/16
f 11/11/11 16/16/16 12/12/12
f 18/18/18 19/19/19 20/20/20
f 18/18/18 20/20/20 16/16/16
f 16/16/16 20/20/20 21/21/21
f 16/16/16 21/21/21 17/17/17
f 20/20/20 22/22/22 23/23/23
f 20/20/20 23/23/23 21/21/21
f 19/19/19 24/24/24 22/22/22
f 19/19/19 22/22/22 20/20/20
f 25/25/25 26/26/26 27/27/27
f 25/25/25 27/27/27 28/28/28
f 28/28/28 27/27/27 29/29/29
f 28/28/28 29/29/29 30/30/30
f 27/27/27 31/31/31 32/32/32
f 27/27/27 32/32/32 29/29/29
f 26/26/26 33/33/33 31/31/31
f 26/26/26 31/31/31 27/27/27
f 34/34/34 35/35/35 36/36/36
f 34/34/34 36/36/36 37/37/37
f 37/37/37 36/36/36 38/38/38
f 37/37/37 38/38/38 39/39/39
f 36/36/36 40/40/40 30/30/30
f 36/36/36 30/30/30 38/38/38
f 35/35/35 41/41/41 40/40/40
f 35/35/35 40/40/40 36/36/36
f 41/41/41 42/42/42 43/43/43
f 41/41/41 43/43/43 40/40/40
f 40/40/40 43/43/43 28/28/28
f 40/40/40 28/28/28 30/30/30
f 43/43/43 44/44/44 25/25/25
f 43/43/43 25/25/25 28/28/28
f 42/42/42 45/45/45 44/44/44
f 42/42/42 44/44/44 43/43/43
f 46/46/46 47/47/47 48/48/48
f 46/46/46 48/48/48 49/49/49
f 49/49/49 48/48/48 50/50/50
f 49/49/49 50/50/50 51/51/51
f 48/48/48 37/37/37 39/39/39
f 48/48/48 39/39/39 50/50/50
f 47/47/47 34/34/34 37/37/37
f 47/47/47 37/37/37 48/48/48
f 52/52/52 53/53/53 54/54/54
f 52/52/52 54/54/54 55/55/55
f 55/55/55 54/54/54 56/56/56
f 55/55/55 56/56/56 57/57/57
f 54/54/54 49/49/49 51/51/51
f 54/54/54 51/51/51 56/56/56
f 53/53/53 46/46/46 49/49/49
f 53/53/53 49/49/49 54/54/54
f 45/45/45 58/58/58 59/59/59
f 45/45/45 59/59/59 44/44/44
f 44/44/44 59/59/59 60/60/60
f 44/44/44 60/60/60 25/25/25
f 59/59/59 13/13/13 15/15/15
f 59/59/59 15/15/15 60/60/60
f 58/58/58 10/10/10 13/13/13
f 58/58/58 13/13/13 59/59/59
f 52/52/52 55/55/55 61/61/61
f 52/52/52 61/61/61 62/62/62
f 62/62/62 61/61/61 22/22/22
f 62/62/62 22/22/22 24/24/24
f 61/61/61 63/63/63 23/23/23
f 61/61/61 23/23/23 22/22/22
f 55/55/55 57/57/57 63/63/63
f 55/55/55 63/63/63 61/61/61
f 64/64/64 65/65/65 66/66/66
f 64/64/64 66/66/66 67/67/67
f 67/67/67 66/66/66 68/68/68
f 67/67/67 68/68/68 69/69/69
f 66/66/66 70/70/70 71/71/71
f 66/66/66 71/71/71 68/68/68
f 65/65/65 72/72/72 70/70/70
f 65/65/65 70/70/70 66/66/66
f 39/39/39 73/73/73 74/74/74
f 39/39/39 74/74/74 50/50/50
f 50/50/50 74/74/74 75/75/75
f 50/50/50 75/75/75 51/51/51
f 74/74/74 76/76/76 77/77/77
f 74/74/74 77/77/77 75/75/75
f 73/73/73 78/78/78 76/76/76
f 73/73/73 76/76/76 74/74/74
f 51/51/51 75/75/75 79/79/79
f 51/51/51 79/79/79 56/56/56
f 56/56/56 79/79/79 80/80/80
f 56/56/56 80/80/80 57/57/57
f 79/79/79 81/81/81 82/82/82
f 79/79/79 82/82/82 80/80/80
f 75/75/75 77/77/77 81/81/81
f 75/75/75 81/81/81 79/79/79
f 15/15/15 83/83/83 84/84/84
f 15/15/15 84/84/84 60/60/60
f 60/60/60 84/84/84 26/26/26
f 60/60/60 26/26/26 25/25/25
f 84/84/84 85/85/85 33/33/33
f 84/84/84 33/33/33 26/26/26
f 83/83/83 86/86/86 85/85/85
f 83/83/83 85/85/85 84/84/84
f 57/57/57 80/80/80 87/87/87
f 57/57/57 87/87/87 63/63/63
f 63/63/63 87/87/87 88/88/88
f 63/63/63 88/88/88 23/23/23
f 87/87/87 89/89/89 64/64/64
f 87/87/87 64/64/64 88/88/88
f 80/80/80 82/82/82 89/89/89
f 80/80/80 89/89/89 87/87/87
f 17/17/17 90/90/90 91/91/91
f 17/17/17 91/91/91 14/14/14
f 14/14/14 91/91/91 83/83/83
f 14/14/14 83/83/83 15/15/15
f 91/91/91 92/92/92 86/86/86
f 91/91/91 86/86/86 83/83/83
f 90/90/90 69/69/69 92/92/92
f 90/90/90 92/92/92 91/91/91
f 23/23/23 88/88/88 93/93/93
f 23/23/23 93/93/93 21/21/21
f 21/21/21 93/93/93 90/90/90
f 21/21/21 90/90/90 17/17/17
f 93/93/93 67/67/67 69/69/69
f 93/93/93 69/69/69 90/90/90
f 88/88/88 64/64/64 67/67/67
f 88/88/88 67/67/67 93/93/93
f 30/30/30 29/29/29 94/94/94
f 30/30/30 94/94/94 38/38/38
f 38/38/38 94/94/94 73/73/73
f 38/38/38 73/73/73 39/39/39
f 94/94/94 95/95/95 78/78/78
f 94/94/94 78/78/78 73/73/73
f 29/29/29 32/32/32 95/95/95
f 29/29/29 95/95/95 94/94/94
f 96/96/96 97/97/97 98/98/98
f 96/96/96 98/98/98 99/99/99
f 99/99/99 98/98/98 100/100/100
f 99/99/99 100/100/100 101/101/101
f 98/98/98 102/102/102 103/103/103
f 98/98/98 103/103/103 100/100/100
f 97/97/97 104/104/104 102/102/102
f 97/97/97 102/102/102 98/98/98
f 32/32/32 105/105/105 106/106/106
f 32/32/32 106/106/106 95/95/95
f 95/95/95 106/106/106 107/107/107
f 95/95/95 107/107/107 78/78/78
f 106/106/106 108/108/108 109/109/109
f 106/106/106 109/109/109 107/107/107
f 105/105/105 110/110/110 108/108/108
f 105/105/105 108/108/108 106/106/106
f 33/33/33 111/111/111 112/112/112
f 33/33/33 112/112/112 31/31/31
f 31/31/31 112/112/112 105/105/105
f 31/31/31 105/105/105 32/32/32
f 112/112/112 113/113/113 110/110/110
f 112/112/112 110/110/110 105/105/105
f 111/111/111 101/101/101 113/113/113
f 111/111/111 113/113/113 112/112/112
f 78/78/78 107/107/107 114/114/114
f 78/78/78 114/114/114 76/76/76
f 76/76/76 114/114/114 115/115/115
f 76/76/76 115/115/115 77/77/77
f 114/114/114 116/116/116 117/117/117
f 114/114/114 117/117/117 115/115/115
f 107/107/107 109/109/109 116/116/116
f 107/107/107 116/116/116 114/114/114
f 77/77/77 115/115/115 118/118/118
f 77/77/77 118/118/118 81/81/81
f 81/81/81 118/118/118 119/119/119
f 81/81/81 119/119/119 82/82/82
f 118/118/118 120/120/120 121/121/121
f 118/118/118 121/121/121 119/119/119
f 115/115/115 117/117/117 120/120/120
f 115/115/115 120/120/120 118/118/118
f 86/86/86 122/122/122 123/123/123
f 86/86/86 123/123/123 85/85/85
f 85/85/85 123/123/123 111/111/111
f 85/85/85 111/111/111 33/33/33
f 123/123/123 99/99/99 101/101/101
f 123/123/123 101/101/101 111/111/111
f 122/122/122 96/96/96 99/99/99
f 122/122/122 99/99/99 123/123/123
f 82/82/82 119/119/119 124/124/124
f 82/82/82 124/124/124 89/89/89
f 89/89/89 124/124/124 65/65/65
f 89/89/89 65/65/65 64/64/64
f 124/124/124 125/125/125 72/72/72
f 124/124/124 72/72/72 65/65/65
f 119/119/119 121/121/121 125/125/125
f 119/119/119 125/125/125 124/124/124
f 69/69/69 68/68/68 126/126/126
f 69/69/69 126/126/126 92/92/92
f 92/92/92 126/126/126 122/122/122
f 92/92/92 122/122/122 86/86/86
f 126/126/126 127/127/127 96/96/96
f 126/126/126 96/96/96 122/122/122
f 68/68/68 71/71/71 127/127/127
f 68/68/68 127/127/127 126/126/126
f 128/128/128 129/129/129 130/130/130
f 128/128/128 130/130/130 131/131/131
f 132/132/132 131/131/131 130/130/130
f 132/132/132 130/130/130 133/133/133
f 134/134/134 133/133/133 130/130/130
f 134/134/134 130/130/130 135/135/135
f 136/136/136 135/135/135 130/130/130
f 136/136/136 130/130/130 137/137/137
f 138/138/138 137/137/137 130/130/130
f 138/138/138 130/130/130 139/139/139
f 140/140/140 139/139/139 130/130/130
f 140/140/140 130/130/130 141/141/141
f 142/142/142 141/141/141 130/130/130
f 142/142/142 130/130/130 143/143/143
f 144/144/144 143/143/143 130/130/130
f 144/144/144 130/130/130 129/129/129
f 121/121/121 145/145/145 146/146/146
f 121/121/121 146/146/146 125/125/125
f 125/125/125 146/146/146 147/147/147
f 125/125/125 147/147/147 72/72/72
f 146/146/146 148/148/148 149/149/149
f 146/146/146 149/149/149 147/147/147
f 145/145/145 150/150/150 148/148/148
f 145/145/145 148/148/148 146/146/146
f 71/71/71 151/151/151 152/152/152
f 71/71/71 152/152/152 127/127/127
f 127/127/127 152/152/152 97/97/97
f 127/127/127 97/97/97 96/96/96
f 152/152/152 153/153/153 104/104/104
f 152/152/152 104/104/104 97/97/97
f 151/151/151 154/154/154 153/153/153
f 151/151/151 153/153/153 152/152/152
f 72/72/72 147/147/147 155/155/155
f 72/72/72 155/155/155 70/70/70
f 70/70/70 155/155/155 151/151/151
f 70/70/70 151/151/151 71/71/71
f 155/155/155 156/156/156 154/154/154
f 155/155/155 154/154/154 151/151/151
f 147/147/147 149/149/149 156/156/156
f 147/147/147 156/156/156 155/155/155
f 110/110/110 157/157/157 158/158/158
f 110/110/110 158/158/158 108/108/108
f 108/108/108 158/158/158 159/159/159
f 108/108/108 159/159/159 109/109/109
f 158/158/158 160/160/160 161/161/161
f 158/158/158 161/161/161 159/159/159
f 157/157/157 162/162/162 160/160/160
f 157/157/157 160/160/160 158/158/158
f 101/101/101 100/100/100 163/163/163
f 101/101/101 163/163/163 113/113/113
f 113/113/113 163/163/163 157/157/157
f 113/113/113 157/157/157 110/110/110
f 163/163/163 164/164/164 162/162/162
f 163/163/163 162/162/162 157/157/157
f 100/100/100 103/103/103 164/164/164
f 100/100/100 164/164/164 163/163/163
f 109/109/109 159/159/159 165/165/165
f 109/109/109 165/165/165 116/116/116
f 116/116/116 165/165/165 166/166/166
f 116/116/116 166/166/166 117/117/117
f 165/165/165 167/167/167 168/168/168
f 165/165/165 168/168/168 166/166/166
f 159/159/159 161/161/161 167/167/167
f 159/159/159 167/167/167 165/165/165
f 117/117/117 166/166/166 169/169/169
f 117/117/117 169/169/169 120/120/120
f 120/120/120 169/169/169 145/145/145
f 120/120/120 145/145/145 121/121/121
f 169/169/169 170/170/170 150/150/150
f 169/169/169 150/150/150 145/145/145
f 166/166/166 168/168/168 170/170/170
f 166/166/166 170/170/170 169/169/169
f 128/128/128 171/171/171 172/172/172
f 128/128/128 172/172/172 129/129/129
f 129/129/129 172/172/172 173/173/173
f 129/129/129 173/173/173 144/144/144
f 172/172/172 153/153/153 154/154/154
f 172/172/172 154/154/154 173/173/173
f 171/171/171 104/104/104 153/153/153
f 171/171/171 153/153/153 172/172/172
f 138/138/138 174/174/174 175/175/175
f 138/138/138 175/175/175 137/137/137
f 137/137/137 175/175/175 176/176/176
f 137/137/137 176/176/176 136/136/136
f 175/175/175 167/167/167 161/161/161
f 175/175/175 161/161/161 176/176/176
f 174/174/174 168/168/168 167/167/167
f 174/174/174 167/167/167 175/175/175
f 142/142/142 177/177/177 178/178/178
f 142/142/142 178/178/178 141/141/141
f 141/141/141 178/178/178 179/179/179
f 141/141/141 179/179/179 140/140/140
f 178/178/178 148/148/148 150/150/150
f 178/178/178 150/150/150 179/179/179
f 177/177/177 149/149/149 148/148/148
f 177/177/177 148/148/148 178/178/178
f 134/134/134 180/180/180 181/181/181
f 134/134/134 181/181/181 133/133/133
f 133/133/133 181/181/181 182/182/182
f 133/133/133 182/182/182 132/132/132
f 181/181/181 164/164/164 103/103/103
f 181/181/181 103/103/103 182/182/182
f 180/180/180 162/162/162 164/164/164
f 180/180/180 164/164/164 181/181/181
f 132/132/132 182/182/182 183/183/183
f 132/132/132 183/183/183 131/131/131
f 131/131/131 183/183/183 171/171/171
f 131/131/131 171/171/171 128/128/128
f 183/183/183 102/102/102 104/104/104
f 183/183/183 104/104/104 171/171/171
f 182/182/182 103/103/103 102/102/102
f 182/182/182 102/102/102 183/183/183
f 136/136/136 176/176/176 184/184/184
f 136/136/136 184/184/184 135/135/135
f 135/135/135 184/184/184 180/180/180
f 135/135/135 180/180/180 134/134/134
f 184/184/184 160/160/160 162/162/162
f 184/184/184 162/162/162 180/180/180
f 176/176/176 161/161/161 160/160/160
f 176/176/176 160/160/160 184/184/184
f 140/140/140 179/179/179 185/185/185
f 140/140/140 185/185/185 139/139/139
f 139/139/139 185/185/185 174/174/174
f 139/139/139 174/174/174 138/138/138
f 185/185/185 170/170/170 168/168/168
f 185/185/185 168/168/168 174/174/174
f 179/179/179 150/150/150 170/170/170
f 179/179/179 170/170/170 185/185/185
f 144/144/144 173/173/173 186/186/186
f 144/144/144 186/186/186 143/143/143
f 143/143/143 186/186/186 177/177/177
f 143/143/143 177/177/177 142/142/142
f 186/186/186 156/156/156 149/149/149
f 186/186/186 149/149/149 177/177/177
f 173/173/173 154/154/154 156/156/156
f 173/173/173 156/156/156 186/186/186
f 187/187/187 188/188/188 189/189/189
f 187/187/187 189/189/189 190/190/190
f 190/190/190 189/189/189 191/191/191
f 190/190/190 191/191/191 192/192/192
f 189/189/189 62/62/62 24/24/24
f 189/189/189 24/24/24 191/191/191
f 188/188/188 52/52/52 62/62/62
f 188/188/188 62/62/62 189/189/189
f 193/193/193 194/194/194 195/195/195
f 193/193/193 195/195/195 196/196/196
f 196/196/196 195/195/195 58/58/58
f 196/196/196 58/58/58 45/45/45
f 195/195/195 197/197/197 10/10/10
f 195/195/195 10/10/10 58/58/58
f 194/194/194 198/198/198 197/197/197
f 194/194/194 197/197/197 195/195/195
f 187/187/187 199/199/199 200/200/200
f 187/187/187 200/200/200 188/188/188
f 188/188/188 200/200/200 53/53/53
f 188/188/188 53/53/53 52/52/52
f 200/200/200 201/201/201 46/46/46
f 200/200/200 46/46/46 53/53/53
f 199/199/199 202/202/202 201/201/201
f 199/199/199 201/201/201 200/200/200
f 202/202/202 203/203/203 204/204/204
f 202/202/202 204/204/204 201/201/201
f 201/201/201 204/204/204 47/47/47
f 201/201/201 47/47/47 46/46/46
f 204/204/204 205/205/205 34/34/34
f 204/204/204 34/34/34 47/47/47
f 203/203/203 206/206/206 205/205/205
f 203/203/203 205/205/205 204/204/204
f 207/207/207 208/208/208 209/209/209
f 207/207/207 209/209/209 210/210/210
f 210/210/210 209/209/209 42/42/42
f 210/210/210 42/42/42 41/41/41
f 209/209/209 196/196/196 45/45/45
f 209/209/209 45/45/45 42/42/42
f 208/208/208 193/193/193 196/196/196
f 208/208/208 196/196/196 209/209/209
f 206/206/206 211/211/211 212/212/212
f 206/206/206 212/212/212 205/205/205
f 205/205/205 212/212/212 35/35/35
f 205/205/205 35/35/35 34/34/34
f 212/212/212 210/210/210 41/41/41
f 212/212/212 41/41/41 35/35/35
f 211/211/211 207/207/207 210/210/210
f 211/211/211 210/210/210 212/212/212
f 213/213/213 214/214/214 215/215/215
f 213/213/213 215/215/215 216/216/216
f 216/216/216 215/215/215 19/19/19
f 216/216/216 19/19/19 18/18/18
f 215/215/215 191/191/191 24/24/24
f 215/215/215 24/24/24 19/19/19
f 214/214/214 192/192/192 191/191/191
f 214/214/214 191/191/191 215/215/215
f 198/198/198 217/217/217 218/218/218
f 198/198/198 218/218/218 197/197/197
f 197/197/197 218/218/218 11/11/11
f 197/197/197 11/11/11 10/10/10
f 218/218/218 216/216/216 18/18/18
f 218/218/218 18/18/18 11/11/11
f 217/217/217 213/213/213 216/216/216
f 217/217/217 216/216/216 218/218/218
f 219/219/219 220/220/220 221/221/221
f 219/219/219 221/221/221 222/222/222
f 222/222/222 221/221/221 217/217/217
f 222/222/222 217/217/217 198/198/198
f 221/221/221 223/223/223 213/213/213
f 221/221/221 213/213/213 217/217/217
f 220/220/220 224/224/224 223/223/223
f 220/220/220 223/223/223 221/221/221
f 224/224/224 225/225/225 226/226/226
f 224/224/224 226/226/226 223/223/223
f 223/223/223 226/226/226 214/214/214
f 223/223/223 214/214/214 213/213/213
f 226/226/226 227/227/227 192/192/192
f 226/226/226 192/192/192 214/214/214
f 225/225/225 228/228/228 227/227/227
f 225/225/225 227/227/227 226/226/226
f 229/229/229 230/230/230 231/231/231
f 229/229/229 231/231/231 232/232/232
f 232/232/232 231/231/231 211/211/211
f 232/232/232 211/211/211 206/206/206
f 231/231/231 233/233/233 207/207/207
f 231/231/231 207/207/207 211/211/211
f 230/230/230 234/234/234 233/233/233
f 230/230/230 233/233/233 231/231/231
f 234/234/234 235/235/235 236/236/236
f 234/234/234 236/236/236 233/233/233
f 233/233/233 236/236/236 208/208/208
f 233/233/233 208/208/208 207/207/207
f 236/236/236 237/237/237 193/193/193
f 236/236/236 193/193/193 208/208/208
f 235/235/235 238/238/238 237/237/237
f 235/235/235 237/237/237 236/236/236
f 239/239/239 240/240/240 241/241/241
f 239/239/239 241/241/241 242/242/242
f 242/242/242 241/241/241 203/203/203
f 242/242/242 203/203/203 202/202/202
f 241/241/241 232/232/232 206/206/206
f 241/241/241 206/206/206 203/203/203
f 240/240/240 229/229/229 232/232/232
f 240/240/240 232/232/232 241/241/241
f 243/243/243 244/244/244 245/245/245
f 243/243/243 245/245/245 246/246/246
f 246/246/246 245/245/245 199/199/199
f 246/246/246 199/199/199 187/187/187
f 245/245/245 242/242/242 202/202/202
f 245/245/245 202/202/202 199/199/199
f 244/244/244 239/239/239 242/242/242
f 244/244/244 242/242/242 245/245/245
f 238/238/238 247/247/247 248/248/248
f 238/238/238 248/248/248 237/237/237
f 237/237/237 248/248/248 194/194/194
f 237/237/237 194/194/194 193/193/193
f 248/248/248 222/222/222 198/198/198
f 248/248/248 198/198/198 194/194/194
f 247/247/247 219/219/219 222/222/222
f 247/247/247 222/222/222 248/248/248
f 243/243/243 246/246/246 249/249/249
f 243/243/243 249/249/249 250/250/250
f 250/250/250 249/249/249 227/227/227
f 250/250/250 227/227/227 228/228/228
f 249/249/249 190/190/190 192/192/192
f 249/249/249 192/192/192 227/227/227
f 246/246/246 187/187/187 190/190/190
f 246/246/246 190/190/190 249/249/249
f 251/251/251 252/252/252 253/253/253
f 251/251/251 253/253/253 254/254/254
f 254/254/254 253/253/253 255/255/255
f 254/254/254 255/255/255 256/256/256
f 253/253/253 257/257/257 258/258/258
f 253/253/253 258/258/258 255/255/255
f 252/252/252 259/259/259 257/257/257
f 252/252/252 257/257/257 253/253/253
f 1/1/1 260/260/260 261/261/261
f 1/1/1 261/261/261 2/2/2
f 2/2/2 261/261/261 262/262/262
f 2/2/2 262/262/262 9/9/9
f 261/261/261 263/263/263 264/264/264
f 261/261/261 264/264/264 262/262/262
f 260/260/260 265/265/265 263/263/263
f 260/260/260 263/263/263 261/261/261
f 265/265/265 266/266/266 267/267/267
f 265/265/265 267/267/267 263/263/263
f 263/263/263 267/267/267 268/268/268
f 263/263/263 268/268/268 264/264/264
f 267/267/267 269/269/269 270/270/270
f 267/267/267 270/270/270 268/268/268
f 266/266/266 271/271/271 269/269/269
f 266/266/266 269/269/269 267/267/267
f 272/272/272 273/273/273 274/274/274
f 272/272/272 274/274/274 275/275/275
f 275/275/275 274/274/274 276/276/276
f 275/275/275 276/276/276 277/277/277
f 274/274/274 254/254/254 256/256/256
f 274/274/274 256/256/256 276/276/276
f 273/273/273 251/251/251 254/254/254
f 273/273/273 254/254/254 274/274/274
f 271/271/271 278/278/278 279/279/279
f 271/271/271 279/279/279 269/269/269
f 269/269/269 279/279/279 280/280/280
f 269/269/269 280/280/280 270/270/270
f 279/279/279 275/275/275 277/277/277
f 279/279/279 277/277/277 280/280/280
f 278/278/278 272/272/272 275/275/275
f 278/278/278 275/275/275 279/279/279
f 281/281/281 282/282/282 283/283/283
f 281/281/281 283/283/283 284/284/284
f 284/284/284 283/283/283 285/285/285
f 284/284/284 285/285/285 286/286/286
f 283/283/283 5/5/5 8/8/8
f 283/283/283 8/8/8 285/285/285
f 282/282/282 6/6/6 5/5/5
f 282/282/282 5/5/5 283/283/283
f 259/259/259 287/287/287 288/288/288
f 259/259/259 288/288/288 257/257/257
f 257/257/257 288/288/288 289/289/289
f 257/257/257 289/289/289 258/258/258
f 288/288/288 284/284/284 286/286/286
f 288/288/288 286/286/286 289/289/289
f 287/287/287 281/281/281 284/284/284
f 287/287/287 284/284/284 288/288/288
f 9/9/9 290/290/290 291/291/291
f 9/9/9 291/291/291 7/7/7
f 7/7/7 291/291/291 292/292/292
f 7/7/7 292/292/292 8/8/8
f 291/291/291 250/250/250 228/228/228
f 291/291/291 228/228/228 292/292/292
f 290/290/290 243/243/243 250/250/250
f 290/290/290 250/250/250 291/291/291
f 256/256/256 255/255/255 293/293/293
f 256/256/256 293/293/293 294/294/294
f 294/294/294 293/293/293 247/247/247
f 294/294/294 247/247/247 238/238/238
f 293/293/293 295/295/295 219/219/219
f 293/293/293 219/219/219 247/247/247
f 255/255/255 258/258/258 295/295/295
f 255/255/255 295/295/295 293/293/293
f 9/9/9 262/262/262 296/296/296
f 9/9/9 296/296/296 290/290/290
f 290/290/290 296/296/296 244/244/244
f 290/290/290 244/244/244 243/243/243
f 296/296/296 297/297/297 239/239/239
f 296/296/296 239/239/239 244/244/244
f 262/262/262 264/264/264 297/297/297
f 262/262/262 297/297/297 296/296/296
f 264/264/264 268/268/268 298/298/298
f 264/264/264 298/298/298 297/297/297
f 297/297/297 298/298/298 240/240/240
f 297/297/297 240/240/240 239/239/239
f 298/298/298 299/299/299 229/229/229
f 298/298/298 229/229/229 240/240/240
f 268/268/268 270/270/270 299/299/299
f 268/268/268 299/299/299 298/298/298
f 277/277/277 276/276/276 300/300/300
f 277/277/277 300/300/300 301/301/301
f 301/301/301 300/300/300 235/235/235
f 301/301/301 235/235/235 234/234/234
f 300/300/300 294/294/294 238/238/238
f 300/300/300 238/238/238 235/235/235
f 276/276/276 256/256/256 294/294/294
f 276/276/276 294/294/294 300/300/300
f 270/270/270 280/280/280 302/302/302
f 270/270/270 302/302/302 299/299/299
f 299/299/299 302/302/302 230/230/230
f 299/299/299 230/230/230 229/229/229
f 302/302/302 301/301/301 234/234/234
f 302/302/302 234/234/234 230/230/230
f 280/280/280 277/277/277 301/301/301
f 280/280/280 301/301/301 302/302/302
f 286/286/286 285/285/285 303/303/303
f 286/286/286 303/303/303 304/304/304
f 304/304/304 303/303/303 225/225/225
f 304/304/304 225/225/225 224/224/224
f 303/303/303 292/292/292 228/228/228
f 303/303/303 228/228/228 225/225/225
f 285/285/285 8/8/8 292/292/292
f 285/285/285 292/292/292 303/303/303
f 258/258/258 289/289/289 305/305/305
f 258/258/258 305/305/305 295/295/295
f 295/295/295 305/305/305 220/220/220
f 295/295/295 220/220/220 219/219/219
f 305/305/305 304/304/304 224/224/224
f 305/305/305 224/224/224 220/220/220
f 289/289/289 286/286/286 304/304/304
f 289/289/289 304/304/304 305/305/305
