v 1.64851 1.01352 0.0629486
v 1.64995 1.01575 0.0612452
v 1.65023 1.01465 0.0595735
v 1.6487 1.01272 0.061705
v 1.65084 1.01311 0.0584319
v 1.64914 1.01159 0.060856
v 1.6521 1.01681 0.0569878
v 1.65288 1.01483 0.0555007
v 1.65172 1.0182 0.0591408
v 1.64905 1.01374 0.0658424
v 1.65053 1.01597 0.0651461
v 1.65006 1.0162 0.0632034
v 1.64864 1.01387 0.0644047
v 1.65182 1.01877 0.0616252
v 1.65234 1.01845 0.0640752
v 1.65408 1.02103 0.0563589
v 1.65452 1.01931 0.0536462
v 1.65545 1.01687 0.0517347
v 1.65732 1.02197 0.0498577
v 1.65833 1.01906 0.0475245
v 1.65691 1.02407 0.0531196
v 1.65478 1.02133 0.0623539
v 1.65417 1.02173 0.0594012
v 1.65712 1.02496 0.0566945
v 1.65794 1.02456 0.0601019
v 1.6517 1.01134 0.0580121
v 1.64977 1.01029 0.0605439
v 1.65266 1.00962 0.0583572
v 1.65047 1.00903 0.0608004
v 1.65397 1.01258 0.0549531
v 1.6552 1.01039 0.0554061
v 1.65678 1.01411 0.0510296
v 1.6583 1.01143 0.0516197
v 1.65986 1.01578 0.0466633
v 1.66169 1.01265 0.0473914
v 1.6517 1.00738 0.0628132
v 1.65114 1.00801 0.0616019
v 1.65358 1.00822 0.0594357
v 1.65432 1.00735 0.061065
v 1.65638 1.0086 0.0568137
v 1.65732 1.00747 0.0589138
v 1.65978 1.00926 0.0534345
v 1.66096 1.00788 0.0560825
v 1.66352 1.01014 0.0496123
v 1.66503 1.00857 0.052799
v 1.66738 1.01118 0.0456856
v 1.66934 1.00954 0.0492984
v 1.67185 1.0126 0.0414728
v 1.6743 1.01091 0.0453414
v 1.66513 1.01395 0.0431563
v 1.66918 1.01561 0.0387949
v 1.66131 1.02125 0.0433032
v 1.663 1.01749 0.0423243
v 1.66674 1.01953 0.0379185
v 1.66491 1.02375 0.0389554
v 1.67064 1.00927 0.0532903
v 1.66591 1.0082 0.0563483
v 1.67113 1.0104 0.0570965
v 1.66607 1.00905 0.0597821
v 1.67611 1.01081 0.0496758
v 1.677 1.01226 0.0537955
v 1.66161 1.00752 0.0591031
v 1.65786 1.00719 0.0613804
v 1.66165 1.00821 0.0620788
v 1.65791 1.00777 0.0638495
v 1.66109 1.00987 0.0646125
v 1.65746 1.00915 0.0659604
v 1.66004 1.01224 0.0663446
v 1.65662 1.01108 0.0674047
v 1.66551 1.01106 0.062667
v 1.66434 1.0139 0.0646229
v 1.67072 1.01281 0.0602208
v 1.66955 1.01612 0.0623024
v 1.67683 1.0151 0.0570989
v 1.67569 1.01888 0.0592561
v 1.66779 1.01985 0.0630666
v 1.66274 1.01715 0.0653422
v 1.66572 1.02343 0.062449
v 1.66097 1.02032 0.0647551
v 1.67378 1.02306 0.0600468
v 1.67142 1.02703 0.0594166
v 1.65868 1.01497 0.0669816
v 1.65552 1.01329 0.0679354
v 1.65721 1.01766 0.0664579
v 1.65433 1.01546 0.0674975
v 1.65584 1.01989 0.0648223
v 1.65322 1.01727 0.0661322
v 1.65929 1.02292 0.0629113
v 1.66366 1.02631 0.0604914
v 1.66188 1.02805 0.0574506
v 1.66895 1.03014 0.0573951
v 1.6667 1.03194 0.0541831
v 1.66066 1.02834 0.0536733
v 1.66011 1.02716 0.0496528
v 1.66497 1.03208 0.0500949
v 1.664 1.03058 0.045729
v 1.67798 1.0311 0.0554798
v 1.67513 1.03447 0.0533727
v 1.67244 1.03635 0.0499769
v 1.68212 1.0391 0.0481066
v 1.67907 1.04105 0.0444344
v 1.68531 1.03551 0.0504237
v 1.67027 1.03636 0.0456049
v 1.66895 1.03458 0.040997
v 1.67658 1.04098 0.0398142
v 1.67508 1.03901 0.0350787
v 1.66877 1.03124 0.0369638
v 1.66398 1.02764 0.0417691
v 1.66974 1.02692 0.0341693
v 1.67491 1.03543 0.0310891
v 1.67604 1.0308 0.0283941
v 1.66033 1.02465 0.0459567
v 1.67175 1.02225 0.0331385
v 1.67447 1.01793 0.0339885
v 1.67827 1.02579 0.0273901
v 1.6812 1.02113 0.028175
v 1.68371 1.03526 0.0213017
v 1.68617 1.03009 0.0203029
v 1.68921 1.0252 0.0210239
v 1.69422 1.03447 0.0126876
v 1.69725 1.02947 0.0133757
v 1.69157 1.03963 0.0136934
v 1.68223 1.0436 0.0278521
v 1.68229 1.03997 0.0239256
v 1.6898 1.04428 0.0163044
v 1.68941 1.04783 0.0202444
v 1.68748 1.01562 0.0345711
v 1.68442 1.01756 0.0306928
v 1.69237 1.02134 0.0234354
v 1.69535 1.01917 0.0272411
v 1.7002 1.02536 0.0157428
v 1.70293 1.02293 0.0195471
v 1.6775 1.01466 0.0366311
v 1.68036 1.01288 0.040563
v 1.69783 1.01916 0.0319917
v 1.68997 1.01568 0.0392758
v 1.69939 1.02121 0.0368934
v 1.69145 1.01764 0.0439426
v 1.70529 1.02278 0.0244056
v 1.70686 1.02484 0.029599
v 1.6826 1.0129 0.045137
v 1.68385 1.01464 0.0495449
v 1.69965 1.02501 0.0411147
v 1.69158 1.0212 0.0477299
v 1.69857 1.02991 0.0440181
v 1.69044 1.02582 0.0502171
v 1.7072 1.02874 0.0343109
v 1.70619 1.03382 0.037673
v 1.68385 1.01788 0.0530423
v 1.6827 1.02211 0.0553005
v 1.69627 1.03519 0.0451077
v 1.68822 1.03084 0.0511382
v 1.69315 1.04005 0.0442602
v 1.70384 1.03927 0.0389444
v 1.70057 1.04426 0.0379466
v 1.68063 1.02675 0.0561296
v 1.68968 1.04374 0.0415487
v 1.68636 1.04571 0.0374583
v 1.69691 1.04796 0.0347962
v 1.69343 1.04991 0.0302295
v 1.70299 1.05143 0.0288937
v 1.69948 1.05333 0.0239028
v 1.70807 1.05429 0.0235306
v 1.70465 1.05615 0.0182524
v 1.70674 1.04773 0.0323663
v 1.71178 1.05057 0.0271637
v 1.71011 1.04263 0.0334735
v 1.71521 1.04535 0.0283225
v 1.71252 1.03703 0.032077
v 1.71771 1.03963 0.0268688
v 1.71943 1.0476 0.0231046
v 1.716 1.05293 0.0219547
v 1.72255 1.04927 0.0185733
v 1.7192 1.05456 0.0174807
v 1.72204 1.04181 0.0216575
v 1.72519 1.04357 0.0171895
v 1.71241 1.05669 0.0183313
v 1.70916 1.05855 0.012971
v 1.7158 1.0583 0.0140166
v 1.7128 1.06015 0.00880751
v 1.69075 1.04982 0.0251167
v 1.69684 1.05322 0.0183863
v 1.69569 1.05128 0.0132112
v 1.70211 1.05604 0.0123314
v 1.70119 1.05418 0.00677154
v 1.70681 1.05846 0.00680895
v 1.70621 1.05672 0.000962529
v 1.71069 1.06005 0.00269132
v 1.71044 1.05846 -0.00316939
v 1.69642 1.04785 0.00911666
v 1.69851 1.04336 0.00645624
v 1.70235 1.05092 0.00244452
v 1.70482 1.04665 -0.000309934
v 1.70791 1.05372 -0.00356616
v 1.71085 1.04977 -0.00641815
v 1.71265 1.05582 -0.00770548
v 1.71602 1.05231 -0.0105459
v 1.70126 1.03832 0.0054479
v 1.70416 1.03331 0.00615254
v 1.70763 1.04181 -0.00132166
v 1.71031 1.03683 -0.000566999
v 1.71376 1.04517 -0.0074361
v 1.71618 1.04021 -0.00662619
v 1.71899 1.04801 -0.0115388
v 1.7211 1.04315 -0.0107113
v 1.71479 1.02929 0.00605825
v 1.71264 1.03229 0.00192465
v 1.71801 1.03541 -0.00403812
v 1.71969 1.03206 0.000267819
v 1.72235 1.03821 -0.00812904
v 1.72348 1.03462 -0.0038322
v 1.70684 1.02899 0.00855427
v 1.70932 1.0263 0.0124872
v 1.71844 1.03066 0.0175601
v 1.7169 1.02878 0.0115667
v 1.72158 1.03132 0.00603895
v 1.72302 1.03304 0.0122637
v 1.72509 1.03365 0.00193764
v 1.72641 1.03517 0.00810808
v 1.71157 1.02599 0.0176353
v 1.71313 1.02797 0.023233
v 1.71879 1.03449 0.0229991
v 1.72325 1.03673 0.0177894
v 1.72651 1.03865 0.0134814
v 1.71352 1.03188 0.0283785
v 1.72818 1.04029 0.0107562
v 1.72687 1.04491 0.0141705
v 1.72876 1.04176 0.00897415
v 1.72753 1.04595 0.0120047
v 1.72816 1.03708 0.00577689
v 1.72877 1.03886 0.00455002
v 1.72694 1.03581 1.28352e-05
v 1.72768 1.03779 -0.000573283
v 1.72561 1.03693 -0.00538312
v 1.72656 1.0389 -0.00534347
v 1.72863 1.04305 0.00749873
v 1.72752 1.04675 0.0101061
v 1.72706 1.04358 0.00702623
v 1.72611 1.04679 0.00922729
v 1.72868 1.04045 0.00369332
v 1.72712 1.04126 0.00382024
v 1.72776 1.03947 -0.000706615
v 1.72631 1.04028 0.000122648
v 1.72673 1.04038 -0.00476815
v 1.72525 1.04086 -0.00328028
v 1.72018 1.04122 0.0064299
v 1.71924 1.04304 0.00829014
v 1.72351 1.04308 0.00795826
v 1.72359 1.04103 0.00531515
v 1.72284 1.04581 0.0097878
v 1.71969 1.04501 0.00986666
v 1.7185 1.04048 0.00188884
v 1.71861 1.04086 0.00450631
v 1.72274 1.04007 0.00231109
v 1.72168 1.04032 -0.000565988
v 1.71264 1.05117 0.00222699
v 1.71306 1.051 0.00482422
v 1.71458 1.04526 0.00569873
v 1.71276 1.04893 0.00132398
v 1.71374 1.04774 -0.000705915
v 1.71447 1.04528 -8.97887e-05
v 1.71618 1.04336 -0.000836143
v 1.71668 1.04185 0.00109446
v 1.71785 1.04694 0.00997754
v 1.71723 1.04951 0.0100009
v 1.7153 1.05026 0.00850969
v 1.71426 1.05205 0.00675937
v 1.72048 1.04189 -0.00258306
v 1.7193 1.04432 -0.00389273
v 1.72445 1.04301 -0.00569638
v 1.72353 1.04611 -0.00708285
v 1.71775 1.04709 -0.00418551
v 1.71622 1.04986 -0.00376925
v 1.722 1.04943 -0.00752893
v 1.72001 1.05245 -0.00700266
v 1.72627 1.04219 -0.00882067
v 1.72631 1.04315 -0.0076671
v 1.72577 1.04691 -0.00934361
v 1.72589 1.04655 -0.0108725
v 1.72432 1.05079 -0.0115428
v 1.72427 1.0507 -0.00989324
v 1.72187 1.05395 -0.00926868
v 1.72158 1.05432 -0.0107718
v 1.72503 1.0405 -0.00937416
v 1.72434 1.04528 -0.01176
v 1.72255 1.0499 -0.0125341
v 1.71962 1.0538 -0.0116289
v 1.71821 1.05685 -0.00850475
v 1.71906 1.05633 -0.00740504
v 1.71795 1.05484 -0.0054529
v 1.71707 1.05804 -0.00431
v 1.71666 1.05657 -0.00287309
v 1.71574 1.05868 -0.00480895
v 1.71607 1.05678 -0.00900231
v 1.71356 1.05896 -0.00477574
v 1.7135 1.06044 0.000713838
v 1.71555 1.06003 4.94718e-05
v 1.71533 1.06059 0.00643055
v 1.71712 1.06022 0.00513168
v 1.71697 1.05924 -0.000168737
v 1.71683 1.05766 0.000594888
v 1.71838 1.05936 0.00419604
v 1.71816 1.05769 0.00426011
v 1.71484 1.05211 -0.00231395
v 1.71423 1.05391 -0.000175984
v 1.71467 1.05484 0.00274018
v 1.71599 1.05495 0.00571348
v 1.71772 1.05371 0.00825862
v 1.71968 1.05162 0.00995063
v 1.72012 1.0563 0.00736177
v 1.72233 1.05372 0.00940869
v 1.72139 1.04878 0.0104541
v 1.72444 1.05037 0.0100501
v 1.71959 1.05858 0.00941897
v 1.72057 1.05783 0.00788304
v 1.7231 1.05486 0.0103143
v 1.72246 1.05526 0.0122458
v 1.72528 1.05076 0.0131343
v 1.72556 1.05094 0.0110782
v 1.71808 1.05883 0.0112561
v 1.72123 1.05524 0.0144415
v 1.72437 1.05025 0.0154433
v 1.68371 1.04562 0.0326221
v 1.6517 1.00967 0.0677611
v 1.65396 1.01028 0.0677758
v 1.65312 1.01201 0.0681943
v 1.65112 1.01095 0.068066
v 1.65218 1.01369 0.0678495
v 1.65041 1.01216 0.0678168
v 1.65127 1.01508 0.0667731
v 1.64968 1.01313 0.0670346
v 1.6522 1.00767 0.0657073
v 1.65486 1.00764 0.0649669
v 1.65457 1.00875 0.0666366
v 1.65207 1.00852 0.0669315
v 1.65477 1.00715 0.0630091
v 1.65206 1.00727 0.0642583
vt 0.08333 0.9167
vt 0.0843 0.08419
vt 0.9151 0.9149
vt 0.01147 0.2613
vt 0.01112 0.261
vt 0.08433 0.9159
vt 0.0004738 0.5001
vt 0.0004723 0.5001
vt 0.01042 0.7396
vt 0.01114 0.7391
vt 0.9886 0.7387
vt 0.9155 0.9154
vt 0.01112 0.261
vt 0.0007095 0.5001
vt 0.01114 0.7391
vt 0.08478 0.08462
vt 0.7389 0.9886
vt 0.01147 0.2613
vt 0.989 0.739
vt 0 0.5
vt 0.01042 0.7396
vt 0.5003 0.0006633
vt 0.7386 0.9883
vt 0.2615 0.01137
vt 0.2612 0.989
vt 0.7386 0.9883
vt 0.9996 0.5
vt 0.2604 0.01042
vt 0.01187 0.7385
vt 0.5 -1.192e-07
vt 0.01114 0.7391
vt 0.7389 0.9886
vt 0.5002 0.0004414
vt 0.2619 0.01169
vt 0.0004723 0.5001
vt 0.08526 0.08505
vt 0.9155 0.9154
vt 0.5002 0.9994
vt 0.9151 0.9149
vt 0.2612 0.01105
vt 0.0009446 0.5001
vt 0.5003 0.9992
vt 0.2612 0.01105
vt 0.2612 0.01105
vt 0.08532 0.9151
vt 0.7389 0.9886
vt 0.5003 0.0008831
vt 0.9994 0.5001
vt 0.01187 0.7385
vt 0.5002 0.0004414
vt 0.08433 0.9159
vt 0.08478 0.08462
vt 0.7391 0.9889
vt 0.08526 0.08505
vt 0.5003 0.9992
vt 0.5002 0.9996
vt 0.0843 0.08419
vt 0.2619 0.01169
vt 0.01114 0.7391
vt 0.9159 0.9158
vt 0.5002 0.9996
vt 0.5002 0.9994
vt 0.9155 0.9154
vt 0.08526 0.08505
vt 0.5 1
vt 0.9155 0.9154
vt 0.9886 0.7387
vt 0.0843 0.08419
vt 0.2604 0.9896
vt 0.2604 0.01042
vt 0.2612 0.989
vt 0.9159 0.9158
vt 0.08333 0.08333
vt 0.989 0.739
vt 0.2604 0.9896
vt 0.7391 0.9889
vt 0.2612 0.01105
vt 0.2619 0.01169
vt 0.2612 0.989
vt 0.9998 0.5
vt 0.08333 0.9167
vt 0.7389 0.9886
vt 0.9893 0.7393
vt 0.5003 0.0008831
vt 0.08433 0.9159
vt 0.9159 0.9158
vt 0.9895 0.7395
vt 0.2615 0.01137
vt 0.9162 0.9162
vt 0.5003 0.0006633
vt 0.5002 0.000443
vt 0.2619 0.9884
vt 0.7393 0.9892
vt 0.2612 0.01106
vt 0.2615 0.01137
vt 0.08433 0.9159
vt 0.0004738 0.5001
vt 0.7391 0.9889
vt 0.2612 0.01106
vt 0.2608 0.01075
vt 0.08532 0.9151
vt 0.0115 0.7388
vt 0.7391 0.9889
vt 0.08478 0.08462
vt 0.9162 0.9162
vt 0.5002 0.9996
vt 0.7393 0.9892
vt 0.0843 0.08419
vt 0.2619 0.01169
vt 0.2612 0.01106
vt 0.2619 0.9884
vt 0.5001 0.9998
vt 0.5002 0.9996
vt 0.5001 0.000231
vt 0.5002 0.000443
vt 0.08532 0.9151
vt 0.2615 0.01137
vt 0.7393 0.9892
vt 0.2608 0.01075
vt 0.9165 0.9165
vt 0.08482 0.9155
vt 0.2612 0.989
vt 0.989 0.739
vt 0.7395 0.9895
vt 0.9998 0.5
vt 0.5002 0.9994
vt 0.0115 0.7388
vt 0.5001 0.000231
vt 0.5 0.9999
vt 0.2608 0.01075
vt 0.9895 0.7395
vt 0.01187 0.7385
vt 0.5001 0.9998
vt 0.2605 0.01052
vt 0.9162 0.9162
vt 0.5 7.397e-05
vt 0.2608 0.01075
vt 0.01187 0.7385
vt 0.9893 0.7393
vt 0.0115 0.7388
vt 0.9165 0.9165
vt 0.08349 0.08348
vt 0.7395 0.9895
vt 0.08384 0.08378
vt 0.2605 0.01052
vt 0.0007095 0.5001
vt 0.9159 0.9158
vt 0.0009446 0.5001
vt 0.7393 0.9892
vt 0.2612 0.01106
vt 0.5002 0.9996
vt 0.0843 0.08419
vt 0.08384 0.08378
vt 0.01078 0.2607
vt 0.01114 0.7391
vt 0.5001 0.9998
vt 0.2608 0.9893
vt 0.9162 0.9162
vt 0.0002471 0.5
vt 0.0004738 0.5001
vt 0.2612 0.989
vt 0.0843 0.08419
vt 0.08384 0.08378
vt 0.01114 0.7391
vt 0.01112 0.261
vt 0.0007095 0.5001
vt 0.2612 0.989
vt 0.01078 0.2607
vt 0.9893 0.7393
vt 0.08433 0.9159
vt 0.2608 0.9893
vt 0.01112 0.261
vt 0.9998 0.5
vt 0.08482 0.9155
vt 0.9163 0.08382
vt 0.08482 0.9155
vt 0.08385 0.9162
vt 0.01078 0.2607
vt 0.989 0.739
vt 0.0115 0.7388
vt 0.9893 0.7393
vt 0.08433 0.9159
vt 0.08349 0.08348
vt 0.01053 0.2605
vt 0.5003 0.9992
vt 0.2608 0.9893
vt 0.08384 0.08378
vt 0.9996 0.5
vt 0.2615 0.9887
vt 0.2605 0.9895
vt 7.91e-05 0.5
vt 0.0002471 0.5
vt 0.2619 0.9884
vt 0.0835 0.9165
vt 0.01053 0.2605
vt 0.9893 0.2608
vt 0.2619 0.9884
vt 0.08385 0.9162
vt 0.5001 0.000231
vt 0.01078 0.2607
vt 0.2615 0.9887
vt 0.5001 0.9998
vt 0.5002 0.000443
vt 0.9895 0.2605
vt 0.08482 0.9155
vt 0.08532 0.9151
vt 0.7393 0.01078
vt 0.5 0.9999
vt 0.7391 0.01111
vt 0.9165 0.08349
vt 0.2615 0.9887
vt 0.2605 0.9895
vt 0.7391 0.01111
vt 0.2612 0.989
vt 0.7393 0.01078
vt 0.2608 0.9893
vt 0.9163 0.08382
vt 0.9165 0.08349
vt 0.08433 0.9159
vt 0.9165 0.9165
vt 0.9159 0.08426
vt 0.7393 0.01078
vt 0.9166 0.9166
vt 0.7395 0.01053
vt 0.7396 0.9896
vt 0.7395 0.9895
vt 0.9999 0.5
vt 0.5001 0.000231
vt 0.5002 0.9996
vt 0.9163 0.08382
vt 0.5002 0.9994
vt 0.7395 0.9895
vt 0.5 7.397e-05
vt 0.9895 0.2605
vt 0.2612 0.989
vt 0.7396 0.9896
vt 0.9893 0.2608
vt 0.7393 0.01078
vt 0 0.5
vt 0.7395 0.01053
vt 0.2615 0.9887
vt 0.5 1
vt 0.5003 0.0008831
vt 0.9996 0.5
vt 0.0004723 0.5001
vt 0.01112 0.261
vt 0.7389 0.01145
vt 0.5 0.9999
vt 0.5003 0.0006633
vt 0.9998 0.5
vt 0.01042 0.2604
vt 0.01042 0.2604
vt 0.7387 0.0118
vt 0.7396 0.9896
vt 0.7389 0.01145
vt 0.01112 0.261
vt 0.9887 0.2614
vt 0.7396 0.9896
vt 0.9992 0.5001
vt 0.0843 0.08419
vt 0.9155 0.08473
vt 0.01112 0.261
vt 0.7387 0.0118
vt 0.9994 0.5001
vt 0.0007095 0.5001
vt 0.989 0.2611
vt 0.0009446 0.5001
vt 0.5 1
vt 0.9151 0.08519
vt 0.7389 0.01145
vt 0.08333 0.08333
vt 0.5 1
vt 0.9893 0.2608
vt 0.7391 0.01111
vt 0.01112 0.261
vt 0.9155 0.08473
vt 0.9166 0.9166
vt 0.9159 0.08426
vt 0.01182 0.2617
vt 0.5003 0.0006633
vt 0.9167 0.9167
vt 0.9151 0.08519
vt 0.08526 0.08505
vt 0.7396 0.9896
vt 0.5002 0.000443
vt 0.7396 0.9896
vt 0.7389 0.01145
vt 0.7391 0.01111
vt 0.5 0.9999
vt 0.9884 0.2617
vt 0.9884 0.2617
vt 0.0009446 0.5001
vt 0.0843 0.08419
vt 0.5 1
vt 0.9887 0.2614
vt 0.2604 0.9896
vt 0.9155 0.08473
vt 0.989 0.2611
vt 0.0004723 0.5001
vt 0.2605 0.9895
vt 0.9887 0.2614
vt 0.989 0.2611
vt 0.01182 0.2617
vt 0.2605 0.9895
vt 0.9994 0.5001
vt 0.2604 0.9896
vt 0.9996 0.5
vt 0.08335 0.9166
vt 0.9155 0.08473
vt 0.9159 0.08426
vt 0.01147 0.2613
vt 0.0835 0.9165
vt 0.989 0.2611
vt 0.9159 0.08426
vt 0.2604 0.9896
vt 0.9887 0.2614
vt 0.01182 0.2617
vt 0.9163 0.08382
vt 0.2604 0.9896
vt 0.08333 0.9167
vt 0.9893 0.2608
vt 0.08335 0.9166
vt 0.5 1
vt 0.01147 0.2613
vt 0.9883 0.7384
vt 0.5 1
vt 0.9994 0.5001
vt 0.9999 0.5
vt 0.01182 0.2617
vt 0.2604 0.9896
vt 0.9992 0.5001
vt 0.08478 0.08462
vt 0.9886 0.7387
vt 0.2604 0.9896
vt 0.9886 0.7387
vt 0.0835 0.9165
vt 0.9883 0.7384
vn -0.8851 0.427 -0.1847
vn -0.8786 0.427 -0.214
vn -0.8695 0.1995 -0.4518
vn -0.8748 0.2069 -0.438
vn -0.7992 -0.06616 -0.5973
vn -0.8 -0.05866 -0.597
vn -0.8637 0.2139 -0.4563
vn -0.8043 -0.0625 -0.591
vn -0.8599 0.455 -0.2315
vn -0.6724 0.5844 0.4542
vn -0.6561 0.6204 0.4296
vn -0.8096 0.5793 0.09473
vn -0.8172 0.5621 0.1276
vn -0.7739 0.6285 0.07694
vn -0.5889 0.6877 0.4245
vn -0.8374 0.4906 -0.241
vn -0.8578 0.2391 -0.4549
vn -0.8102 -0.05033 -0.584
vn -0.849 0.2758 -0.4507
vn -0.8117 -0.02826 -0.5834
vn -0.8108 0.534 -0.2395
vn -0.5175 0.7455 0.4198
vn -0.7313 0.6789 0.06479
vn -0.6859 0.7249 0.06317
vn -0.4559 0.785 0.4195
vn -0.6796 -0.3402 -0.6499
vn -0.6761 -0.3374 -0.655
vn -0.5215 -0.5989 -0.6077
vn -0.5163 -0.6031 -0.6079
vn -0.6868 -0.3453 -0.6396
vn -0.5199 -0.607 -0.601
vn -0.6921 -0.3493 -0.6316
vn -0.5122 -0.6206 -0.5936
vn -0.69 -0.3488 -0.6342
vn -0.4944 -0.6355 -0.5929
vn -0.1482 -0.9685 -0.2001
vn -0.3335 -0.826 -0.4544
vn -0.3367 -0.8169 -0.4682
vn -0.1453 -0.9621 -0.2306
vn -0.3201 -0.8213 -0.4722
vn -0.1105 -0.9624 -0.2481
vn -0.295 -0.8318 -0.4702
vn -0.0679 -0.9639 -0.2574
vn -0.2593 -0.8462 -0.4655
vn -0.01709 -0.9666 -0.2555
vn -0.2087 -0.8559 -0.4731
vn 0.03967 -0.9671 -0.2514
vn -0.1553 -0.8518 -0.5003
vn 0.08982 -0.9627 -0.2551
vn -0.4541 -0.6406 -0.6192
vn -0.3974 -0.6255 -0.6714
vn -0.7934 0.007447 -0.6087
vn -0.6631 -0.3345 -0.6696
vn -0.6091 -0.3055 -0.7319
vn -0.7503 0.04547 -0.6595
vn 0.2755 -0.9599 0.05182
vn 0.217 -0.975 0.04672
vn 0.452 -0.7956 0.4032
vn 0.3992 -0.8246 0.4007
vn 0.3216 -0.9452 0.05512
vn 0.4942 -0.7707 0.4023
vn 0.1541 -0.9868 0.04862
vn 0.08878 -0.9941 0.0614
vn 0.3328 -0.8531 0.4017
vn 0.2458 -0.8795 0.4075
vn 0.4196 -0.575 0.7023
vn 0.3224 -0.6269 0.7092
vn 0.3956 -0.2279 0.8897
vn 0.2952 -0.291 0.91
vn 0.4775 -0.533 0.6984
vn 0.4439 -0.1878 0.8762
vn 0.5176 -0.4967 0.6966
vn 0.474 -0.1566 0.8664
vn 0.555 -0.464 0.6904
vn 0.5074 -0.1259 0.8524
vn 0.3491 0.1647 0.9225
vn 0.3177 0.1476 0.9366
vn 0.1528 0.4531 0.8782
vn 0.1101 0.4455 0.8884
vn 0.3851 0.1842 0.9043
vn 0.1969 0.4639 0.8637
vn 0.2682 0.121 0.9557
vn 0.1628 0.06488 0.9845
vn 0.04962 0.4277 0.9025
vn -0.05979 0.3798 0.9231
vn -0.2311 0.6528 0.7214
vn -0.3301 0.6011 0.7277
vn -0.163 0.6772 0.7175
vn -0.1099 0.6897 0.7156
vn -0.402 0.8124 0.4223
vn -0.06162 0.7024 0.7091
vn -0.3579 0.833 0.4218
vn -0.6409 0.7645 0.06854
vn -0.7797 0.5803 -0.2351
vn -0.6041 0.7935 0.07251
vn -0.7496 0.6178 -0.2376
vn 0.2444 0.4849 0.8397
vn -0.01093 0.7247 0.6889
vn -0.3119 0.8573 0.4095
vn 0.03632 0.7605 0.6483
vn -0.2624 0.8874 0.379
vn 0.2878 0.5202 0.8041
vn -0.5694 0.8192 0.06742
vn -0.7252 0.641 -0.2511
vn -0.533 0.8446 0.04987
vn -0.7083 0.6504 -0.2744
vn -0.7697 0.3763 -0.5156
vn -0.7971 0.3625 -0.483
vn -0.7098 0.05832 -0.7019
vn -0.7568 0.3594 -0.546
vn -0.6918 0.03775 -0.7211
vn -0.8288 0.322 -0.4576
vn -0.5649 -0.2825 -0.7753
vn -0.3627 -0.5985 -0.7143
vn -0.554 -0.2787 -0.7844
vn -0.3681 -0.5724 -0.7327
vn -0.69 -0.0003967 -0.7238
vn -0.5639 -0.2875 -0.7742
vn -0.3969 -0.5511 -0.734
vn -0.5844 -0.3028 -0.7528
vn -0.4363 -0.5362 -0.7225
vn -0.6986 -0.04425 -0.7141
vn -0.7013 0.6467 -0.2997
vn -0.7559 0.3232 -0.5693
vn -0.764 0.2797 -0.5814
vn -0.7027 0.6362 -0.3184
vn 0.14 -0.9452 -0.2949
vn -0.1345 -0.8137 -0.5654
vn -0.1664 -0.7907 -0.5891
vn 0.1367 -0.9368 -0.3218
vn -0.2114 -0.7706 -0.6012
vn 0.1193 -0.9318 -0.3428
vn -0.1272 -0.8356 -0.5343
vn 0.124 -0.9548 -0.27
vn 0.4296 -0.903 0.008911
vn 0.4034 -0.9145 0.03088
vn 0.6271 -0.7085 0.3235
vn 0.5918 -0.7214 0.3595
vn 0.4378 -0.899 -0.009095
vn 0.6387 -0.7106 0.2951
vn 0.363 -0.9305 0.0491
vn 0.5401 -0.7459 0.3897
vn 0.698 -0.416 0.5828
vn 0.6568 -0.414 0.6302
vn 0.649 -0.08243 0.7562
vn 0.6036 -0.07987 0.7932
vn 0.7161 -0.4351 0.5458
vn 0.6789 -0.0965 0.7278
vn 0.6016 -0.4342 0.6705
vn 0.5509 -0.09748 0.8288
vn 0.5115 0.254 0.8209
vn 0.4746 0.2333 0.8487
vn 0.3105 0.5615 0.767
vn 0.5367 0.2687 0.7998
vn 0.3154 0.5972 0.7374
vn 0.4282 0.2078 0.8794
vn 0.05753 0.7982 0.5996
vn -0.2306 0.9111 0.3415
vn 0.05304 0.8272 0.5594
vn -0.2218 0.9245 0.31
vn 0.05298 0.849 0.5256
vn -0.2195 0.9335 0.2835
vn 0.07675 0.8668 0.4926
vn -0.2122 0.9419 0.2605
vn 0.3325 0.6262 0.7052
vn 0.3782 0.6501 0.6589
vn 0.5699 0.2882 0.7695
vn 0.6217 0.3186 0.7156
vn 0.7095 -0.0961 0.698
vn 0.7529 -0.06748 0.6547
vn 0.673 0.3489 0.6522
vn 0.436 0.6642 0.6072
vn 0.7151 0.374 0.5905
vn 0.4975 0.6697 0.5513
vn 0.7959 -0.02255 0.605
vn 0.8352 0.03085 0.5491
vn 0.1212 0.8797 0.4598
vn -0.1863 0.9538 0.2357
vn 0.1978 0.889 0.4129
vn -0.09845 0.9774 0.187
vn -0.4924 0.8703 0.0101
vn -0.4855 0.8742 -0.004456
vn -0.7081 0.6235 -0.3313
vn -0.4817 0.8762 -0.01688
vn -0.7114 0.6119 -0.3455
vn -0.4573 0.8885 -0.03803
vn -0.6828 0.626 -0.3765
vn -0.3403 0.9361 -0.0889
vn -0.5342 0.7252 -0.4344
vn -0.7731 0.2373 -0.5882
vn -0.7054 -0.08377 -0.7038
vn -0.7694 0.2044 -0.6051
vn -0.6926 -0.1075 -0.7132
vn -0.7287 0.2141 -0.6504
vn -0.6408 -0.09287 -0.762
vn -0.5679 0.3752 -0.7326
vn -0.4752 0.05731 -0.878
vn -0.6014 -0.3154 -0.7341
vn -0.4718 -0.5218 -0.7107
vn -0.5954 -0.3137 -0.7397
vn -0.4844 -0.4979 -0.7193
vn -0.5444 -0.2857 -0.7886
vn -0.4452 -0.4601 -0.7682
vn -0.3573 -0.1806 -0.9163
vn -0.2349 -0.3968 -0.8873
vn 0.07395 -0.9228 -0.3781
vn -0.2875 -0.7252 -0.6257
vn -0.2619 -0.6912 -0.6735
vn 0.09574 -0.9044 -0.4156
vn -0.04318 -0.6417 -0.7656
vn 0.2659 -0.8338 -0.4837
vn -0.2572 -0.7511 -0.6081
vn 0.09525 -0.9284 -0.3591
vn 0.6498 -0.7175 0.2507
vn 0.4323 -0.9008 -0.04089
vn 0.4538 -0.8885 -0.06751
vn 0.6754 -0.7022 0.2249
vn 0.5682 -0.8132 -0.1255
vn 0.7528 -0.6354 0.1716
vn 0.4361 -0.8995 -0.02493
vn 0.642 -0.7168 0.272
vn 0.7567 -0.4349 0.488
vn 0.7935 -0.4016 0.4573
vn 0.8484 -0.3364 0.4086
vn 0.7304 -0.4466 0.5167
vn 0.9294 -0.2028 0.3082
vn 0.8868 0.1123 0.4483
vn 0.9896 0.006287 0.1439
vn 0.9364 0.2327 0.2627
vn 0.8859 -0.4581 0.07288
vn 0.9835 -0.1749 -0.04627
vn 0.7814 -0.5929 -0.1946
vn 0.9427 -0.2502 -0.2206
vn 0.613 -0.6187 -0.4913
vn 0.9141 -0.2529 -0.3168
vn 0.8492 0.4424 -0.2883
vn 0.8405 0.4577 -0.2897
vn 0.09247 0.711 -0.6971
vn 0.142 0.4535 -0.8798
vn 0.8553 0.4325 -0.2851
vn 0.1083 0.8972 -0.428
vn 0.8707 0.4518 -0.1939
vn 0.183 0.9792 -0.08713
vn 0.9217 0.384 0.05502
vn 0.3462 0.8804 0.3241
vn 0.1535 0.8464 -0.5099
vn 0.2922 0.6604 -0.6918
vn -0.2032 0.648 -0.734
vn -0.1495 0.8832 -0.4444
vn -0.1597 0.3443 -0.9251
vn 0.1675 0.4342 -0.8851
vn 0.4045 0.9114 0.07562
vn 0.4123 0.8671 -0.2795
vn -0.02561 0.9938 -0.1082
vn 0.1867 0.9406 0.2835
vn 0.9842 -0.1697 0.05017
vn 0.9451 -0.125 -0.302
vn 0.8129 0.4544 -0.3642
vn 0.9752 0.1606 0.1524
vn 0.8479 0.2476 0.4687
vn 0.8306 0.4517 0.3258
vn 0.6739 0.5635 0.4778
vn 0.6682 0.7254 0.1653
vn 0.4137 0.2503 -0.8753
vn 0.4311 -0.06467 -0.9
vn 0.6942 -0.09253 -0.7138
vn 0.7786 -0.3265 -0.5358
vn 0.3768 0.7155 0.5882
vn 0.49 0.4764 0.73
vn 0.4807 0.6088 0.6311
vn 0.5254 0.4071 0.7471
vn 0.5716 0.3014 0.7631
vn 0.6795 0.1316 0.7218
vn 0.5598 0.2997 0.7725
vn 0.6399 0.2022 0.7414
vn 0.9005 -0.1655 -0.402
vn 0.9175 0.2948 0.2668
vn 0.8784 0.3279 0.3476
vn 0.8679 0.0773 -0.4906
vn 0.7371 0.4152 -0.5332
vn 0.8163 0.4467 0.3661
vn 0.7519 0.5584 0.3505
vn 0.521 0.709 -0.4752
vn 0.4334 -0.487 -0.7582
vn 0.2771 -0.2402 -0.9303
vn 0.1066 0.07666 -0.9913
vn -0.06726 0.4043 -0.9121
vn 0.3355 0.8682 -0.3655
vn 0.7497 0.6028 0.2729
vn 0.7887 0.03574 0.6137
vn 0.8263 0.56 0.06119
vn 0.9265 -0.2298 0.2979
vn 0.2701 0.9215 -0.279
vn -0.1837 0.6772 -0.7125
vn -0.1792 0.8829 -0.4339
vn -0.06543 0.9857 -0.155
vn 0.2835 0.9396 -0.1916
vn 0.09989 0.9904 0.09494
vn 0.3725 0.9277 -0.02445
vn 0.8508 0.4881 -0.1947
vn 0.9053 -0.4097 -0.1117
vn 0.8211 0.491 -0.2909
vn 0.7896 -0.4134 -0.4534
vn 0.8168 -0.1072 0.5669
vn 0.8857 -0.3873 0.2559
vn 0.8006 -0.584 -0.1343
vn 0.6319 -0.616 -0.4703
vn 0.4005 -0.5157 -0.7573
vn 0.17 -0.294 -0.9405
vn 0.6204 -0.3045 -0.7227
vn 0.43 -0.1006 -0.8972
vn -0.03607 0.006897 -0.9993
vn 0.2562 0.1652 -0.9524
vn 0.5386 0.8278 0.1567
vn 0.8244 0.4835 -0.2941
vn 0.8332 0.469 -0.2928
vn 0.7085 0.6527 0.2682
vn 0.8404 0.45 0.302
vn 0.8354 0.4626 -0.2968
vn 0.3407 0.8847 0.3181
vn 0.5875 0.6708 0.4525
vn 0.77 0.4068 0.4916
vn -0.5063 0.8619 0.02814
vn 0.09684 -0.3776 0.9208
vn 0.1646 -0.3578 0.9191
vn 0.02637 -0.007172 0.9996
vn -0.04004 -0.04367 0.9982
vn -0.1897 0.3092 0.9319
vn -0.2434 0.2624 0.9337
vn -0.4349 0.5298 0.7281
vn -0.4693 0.4831 0.7391
vn 0.1144 -0.8907 0.4399
vn 0.153 -0.8972 0.4143
vn 0.2056 -0.6725 0.7109
vn 0.1483 -0.6756 0.7221
vn 0.02762 -0.9964 0.0802
vn 0.009735 -0.9933 0.1147
f 1/1/1 2/2/2 3/3/3
f 1/1/1 3/3/3 4/4/4
f 4/4/4 3/3/3 5/5/5
f 4/4/4 5/5/5 6/6/6
f 3/3/3 7/7/7 8/8/8
f 3/3/3 8/8/8 5/5/5
f 2/2/2 9/9/9 7/7/7
f 2/2/2 7/7/7 3/3/3
f 10/10/10 11/11/11 12/12/12
f 10/10/10 12/12/12 13/13/13
f 13/13/13 12/12/12 2/2/2
f 13/13/13 2/2/2 1/1/1
f 12/12/12 14/14/14 9/9/9
f 12/12/12 9/9/9 2/2/2
f 11/11/11 15/15/15 14/14/14
f 11/11/11 14/14/14 12/12/12
f 9/9/9 16/16/16 17/17/17
f 9/9/9 17/17/17 7/7/7
f 7/7/7 17/17/17 18/18/18
f 7/7/7 18/18/18 8/8/8
f 17/17/17 19/19/19 20/20/20
f 17/17/17 20/20/20 18/18/18
f 16/16/16 21/21/21 19/19/19
f 16/16/16 19/19/19 17/17/17
f 15/15/15 22/22/22 23/23/23
f 15/15/15 23/23/23 14/14/14
f 14/14/14 23/23/23 16/16/16
f 14/14/14 16/16/16 9/9/9
f 23/23/23 24/24/24 21/21/21
f 23/23/23 21/21/21 16/16/16
f 22/22/22 25/25/25 24/24/24
f 22/22/22 24/24/24 23/23/23
f 6/6/6 5/5/5 26/26/26
f 6/6/6 26/26/26 27/27/27
f 27/27/27 26/26/26 28/28/28
f 27/27/27 28/28/28 29/29/29
f 26/26/26 30/30/30 31/31/31
f 26/26/26 31/31/31 28/28/28
f 5/5/5 8/8/8 30/30/30
f 5/5/5 30/30/30 26/26/26
f 8/8/8 18/18/18 32/32/32
f 8/8/8 32/32/32 30/30/30
f 30/30/30 32/32/32 33/33/33
f 30/30/30 33/33/33 31/31/31
f 32/32/32 34/34/34 35/35/35
f 32/32/32 35/35/35 33/33/33
f 18/18/18 20/20/20 34/34/34
f 18/18/18 34/34/34 32/32/32
f 36/36/36 37/37/37 38/38/38
f 36/36/36 38/38/38 39/39/39
f 39/39/39 38/38/38 40/40/40
f 39/39/39 40/40/40 41/41/41
f 38/38/38 28/28/28 31/31/31
f 38/38/38 31/31/31 40/40/40
f 37/37/37 29/29/29 28/28/28
f 37/37/37 28/28/28 38/38/38
f 41/41/41 40/40/40 42/42/42
f 41/41/41 42/42/42 43/43/43
f 43/43/43 42/42/42 44/44/44
f 43/43/43 44/44/44 45/45/45
f 42/42/42 33/33/33 35/35/35
f 42/42/42 35/35/35 44/44/44
f 40/40/40 31/31/31 33/33/33
f 40/40/40 33/33/33 42/42/42
f 45/45/45 44/44/44 46/46/46
f 45/45/45 46/46/46 47/47/47
f 47/47/47 46/46/46 48/48/48
f 47/47/47 48/48/48 49/49/49
f 46/46/46 50/50/50 51/51/51
f 46/46/46 51/51/51 48/48/48
f 44/44/44 35/35/35 50/50/50
f 44/44/44 50/50/50 46/46/46
f 20/20/20 52/52/52 53/53/53
f 20/20/20 53/53/53 34/34/34
f 34/34/34 53/53/53 50/50/50
f 34/34/34 50/50/50 35/35/35
f 53/53/53 54/54/54 51/51/51
f 53/53/53 51/51/51 50/50/50
f 52/52/52 55/55/55 54/54/54
f 52/52/52 54/54/54 53/53/53
f 45/45/45 47/47/47 56/56/56
f 45/45/45 56/56/56 57/57/57
f 57/57/57 56/56/56 58/58/58
f 57/57/57 58/58/58 59/59/59
f 56/56/56 60/60/60 61/61/61
f 56/56/56 61/61/61 58/58/58
f 47/47/47 49/49/49 60/60/60
f 47/47/47 60/60/60 56/56/56
f 41/41/41 43/43/43 62/62/62
f 41/41/41 62/62/62 63/63/63
f 63/63/63 62/62/62 64/64/64
f 63/63/63 64/64/64 65/65/65
f 62/62/62 57/57/57 59/59/59
f 62/62/62 59/59/59 64/64/64
f 43/43/43 45/45/45 57/57/57
f 43/43/43 57/57/57 62/62/62
f 65/65/65 64/64/64 66/66/66
f 65/65/65 66/66/66 67/67/67
f 67/67/67 66/66/66 68/68/68
f 67/67/67 68/68/68 69/69/69
f 66/66/66 70/70/70 71/71/71
f 66/66/66 71/71/71 68/68/68
f 64/64/64 59/59/59 70/70/70
f 64/64/64 70/70/70 66/66/66
f 59/59/59 58/58/58 72/72/72
f 59/59/59 72/72/72 70/70/70
f 70/70/70 72/72/72 73/73/73
f 70/70/70 73/73/73 71/71/71
f 72/72/72 74/74/74 75/75/75
f 72/72/72 75/75/75 73/73/73
f 58/58/58 61/61/61 74/74/74
f 58/58/58 74/74/74 72/72/72
f 71/71/71 73/73/73 76/76/76
f 71/71/71 76/76/76 77/77/77
f 77/77/77 76/76/76 78/78/78
f 77/77/77 78/78/78 79/79/79
f 76/76/76 80/80/80 81/81/81
f 76/76/76 81/81/81 78/78/78
f 73/73/73 75/75/75 80/80/80
f 73/73/73 80/80/80 76/76/76
f 69/69/69 68/68/68 82/82/82
f 69/69/69 82/82/82 83/83/83
f 83/83/83 82/82/82 84/84/84
f 83/83/83 84/84/84 85/85/85
f 82/82/82 77/77/77 79/79/79
f 82/82/82 79/79/79 84/84/84
f 68/68/68 71/71/71 77/77/77
f 68/68/68 77/77/77 82/82/82
f 85/85/85 84/84/84 86/86/86
f 85/85/85 86/86/86 87/87/87
f 87/87/87 86/86/86 22/22/22
f 87/87/87 22/22/22 15/15/15
f 86/86/86 88/88/88 25/25/25
f 86/86/86 25/25/25 22/22/22
f 84/84/84 79/79/79 88/88/88
f 84/84/84 88/88/88 86/86/86
f 79/79/79 78/78/78 89/89/89
f 79/79/79 89/89/89 88/88/88
f 88/88/88 89/89/89 90/90/90
f 88/88/88 90/90/90 25/25/25
f 89/89/89 91/91/91 92/92/92
f 89/89/89 92/92/92 90/90/90
f 78/78/78 81/81/81 91/91/91
f 78/78/78 91/91/91 89/89/89
f 25/25/25 90/90/90 93/93/93
f 25/25/25 93/93/93 24/24/24
f 24/24/24 93/93/93 94/94/94
f 24/24/24 94/94/94 21/21/21
f 93/93/93 95/95/95 96/96/96
f 93/93/93 96/96/96 94/94/94
f 90/90/90 92/92/92 95/95/95
f 90/90/90 95/95/95 93/93/93
f 81/81/81 97/97/97 98/98/98
f 81/81/81 98/98/98 91/91/91
f 91/91/91 98/98/98 99/99/99
f 91/91/91 99/99/99 92/92/92
f 98/98/98 100/100/100 101/101/101
f 98/98/98 101/101/101 99/99/99
f 97/97/97 102/102/102 100/100/100
f 97/97/97 100/100/100 98/98/98
f 92/92/92 99/99/99 103/103/103
f 92/92/92 103/103/103 95/95/95
f 95/95/95 103/103/103 104/104/104
f 95/95/95 104/104/104 96/96/96
f 103/103/103 105/105/105 106/106/106
f 103/103/103 106/106/106 104/104/104
f 99/99/99 101/101/101 105/105/105
f 99/99/99 105/105/105 103/103/103
f 96/96/96 104/104/104 107/107/107
f 96/96/96 107/107/107 108/108/108
f 108/108/108 107/107/107 109/109/109
f 108/108/108 109/109/109 55/55/55
f 107/107/107 110/110/110 111/111/111
f 107/107/107 111/111/111 109/109/109
f 104/104/104 106/106/106 110/110/110
f 104/104/104 110/110/110 107/107/107
f 21/21/21 94/94/94 112/112/112
f 21/21/21 112/112/112 19/19/19
f 19/19/19 112/112/112 52/52/52
f 19/19/19 52/52/52 20/20/20
f 112/112/112 108/108/108 55/55/55
f 112/112/112 55/55/55 52/52/52
f 94/94/94 96/96/96 108/108/108
f 94/94/94 108/108/108 112/112/112
f 55/55/55 109/109/109 113/113/113
f 55/55/55 113/113/113 54/54/54
f 54/54/54 113/113/113 114/114/114
f 54/54/54 114/114/114 51/51/51
f 113/113/113 115/115/115 116/116/116
f 113/113/113 116/116/116 114/114/114
f 109/109/109 111/111/111 115/115/115
f 109/109/109 115/115/115 113/113/113
f 111/111/111 117/117/117 118/118/118
f 111/111/111 118/118/118 115/115/115
f 115/115/115 118/118/118 119/119/119
f 115/115/115 119/119/119 116/116/116
f 118/118/118 120/120/120 121/121/121
f 118/118/118 121/121/121 119/119/119
f 117/117/117 122/122/122 120/120/120
f 117/117/117 120/120/120 118/118/118
f 106/106/106 123/123/123 124/124/124
f 106/106/106 124/124/124 110/110/110
f 110/110/110 124/124/124 117/117/117
f 110/110/110 117/117/117 111/111/111
f 124/124/124 125/125/125 122/122/122
f 124/124/124 122/122/122 117/117/117
f 123/123/123 126/126/126 125/125/125
f 123/123/123 125/125/125 124/124/124
f 127/127/127 128/128/128 129/129/129
f 127/127/127 129/129/129 130/130/130
f 130/130/130 129/129/129 131/131/131
f 130/130/130 131/131/131 132/132/132
f 129/129/129 119/119/119 121/121/121
f 129/129/129 121/121/121 131/131/131
f 128/128/128 116/116/116 119/119/119
f 128/128/128 119/119/119 129/129/129
f 49/49/49 48/48/48 133/133/133
f 49/49/49 133/133/133 134/134/134
f 134/134/134 133/133/133 128/128/128
f 134/134/134 128/128/128 127/127/127
f 133/133/133 114/114/114 116/116/116
f 133/133/133 116/116/116 128/128/128
f 48/48/48 51/51/51 114/114/114
f 48/48/48 114/114/114 133/133/133
f 127/127/127 130/130/130 135/135/135
f 127/127/127 135/135/135 136/136/136
f 136/136/136 135/135/135 137/137/137
f 136/136/136 137/137/137 138/138/138
f 135/135/135 139/139/139 140/140/140
f 135/135/135 140/140/140 137/137/137
f 130/130/130 132/132/132 139/139/139
f 130/130/130 139/139/139 135/135/135
f 49/49/49 134/134/134 141/141/141
f 49/49/49 141/141/141 60/60/60
f 60/60/60 141/141/141 142/142/142
f 60/60/60 142/142/142 61/61/61
f 141/141/141 136/136/136 138/138/138
f 141/141/141 138/138/138 142/142/142
f 134/134/134 127/127/127 136/136/136
f 134/134/134 136/136/136 141/141/141
f 138/138/138 137/137/137 143/143/143
f 138/138/138 143/143/143 144/144/144
f 144/144/144 143/143/143 145/145/145
f 144/144/144 145/145/145 146/146/146
f 143/143/143 147/147/147 148/148/148
f 143/143/143 148/148/148 145/145/145
f 137/137/137 140/140/140 147/147/147
f 137/137/137 147/147/147 143/143/143
f 61/61/61 142/142/142 149/149/149
f 61/61/61 149/149/149 74/74/74
f 74/74/74 149/149/149 150/150/150
f 74/74/74 150/150/150 75/75/75
f 149/149/149 144/144/144 146/146/146
f 149/149/149 146/146/146 150/150/150
f 142/142/142 138/138/138 144/144/144
f 142/142/142 144/144/144 149/149/149
f 146/146/146 145/145/145 151/151/151
f 146/146/146 151/151/151 152/152/152
f 152/152/152 151/151/151 153/153/153
f 152/152/152 153/153/153 102/102/102
f 151/151/151 154/154/154 155/155/155
f 151/151/151 155/155/155 153/153/153
f 145/145/145 148/148/148 154/154/154
f 145/145/145 154/154/154 151/151/151
f 75/75/75 150/150/150 156/156/156
f 75/75/75 156/156/156 80/80/80
f 80/80/80 156/156/156 97/97/97
f 80/80/80 97/97/97 81/81/81
f 156/156/156 152/152/152 102/102/102
f 156/156/156 102/102/102 97/97/97
f 150/150/150 146/146/146 152/152/152
f 150/150/150 152/152/152 156/156/156
f 102/102/102 153/153/153 157/157/157
f 102/102/102 157/157/157 100/100/100
f 100/100/100 157/157/157 158/158/158
f 100/100/100 158/158/158 101/101/101
f 157/157/157 159/159/159 160/160/160
f 157/157/157 160/160/160 158/158/158
f 153/153/153 155/155/155 159/159/159
f 153/153/153 159/159/159 157/157/157
f 160/160/160 159/159/159 161/161/161
f 160/160/160 161/161/161 162/162/162
f 162/162/162 161/161/161 163/163/163
f 162/162/162 163/163/163 164/164/164
f 161/161/161 165/165/165 166/166/166
f 161/161/161 166/166/166 163/163/163
f 159/159/159 155/155/155 165/165/165
f 159/159/159 165/165/165 161/161/161
f 155/155/155 154/154/154 167/167/167
f 155/155/155 167/167/167 165/165/165
f 165/165/165 167/167/167 168/168/168
f 165/165/165 168/168/168 166/166/166
f 167/167/167 169/169/169 170/170/170
f 167/167/167 170/170/170 168/168/168
f 154/154/154 148/148/148 169/169/169
f 154/154/154 169/169/169 167/167/167
f 166/166/166 168/168/168 171/171/171
f 166/166/166 171/171/171 172/172/172
f 172/172/172 171/171/171 173/173/173
f 172/172/172 173/173/173 174/174/174
f 171/171/171 175/175/175 176/176/176
f 171/171/171 176/176/176 173/173/173
f 168/168/168 170/170/170 175/175/175
f 168/168/168 175/175/175 171/171/171
f 164/164/164 163/163/163 177/177/177
f 164/164/164 177/177/177 178/178/178
f 178/178/178 177/177/177 179/179/179
f 178/178/178 179/179/179 180/180/180
f 177/177/177 172/172/172 174/174/174
f 177/177/177 174/174/174 179/179/179
f 163/163/163 166/166/166 172/172/172
f 163/163/163 172/172/172 177/177/177
f 126/126/126 181/181/181 182/182/182
f 126/126/126 182/182/182 183/183/183
f 183/183/183 182/182/182 184/184/184
f 183/183/183 184/184/184 185/185/185
f 182/182/182 162/162/162 164/164/164
f 182/182/182 164/164/164 184/184/184
f 181/181/181 160/160/160 162/162/162
f 181/181/181 162/162/162 182/182/182
f 185/185/185 184/184/184 186/186/186
f 185/185/185 186/186/186 187/187/187
f 187/187/187 186/186/186 188/188/188
f 187/187/187 188/188/188 189/189/189
f 186/186/186 178/178/178 180/180/180
f 186/186/186 180/180/180 188/188/188
f 184/184/184 164/164/164 178/178/178
f 184/184/184 178/178/178 186/186/186
f 122/122/122 125/125/125 190/190/190
f 122/122/122 190/190/190 191/191/191
f 191/191/191 190/190/190 192/192/192
f 191/191/191 192/192/192 193/193/193
f 190/190/190 183/183/183 185/185/185
f 190/190/190 185/185/185 192/192/192
f 125/125/125 126/126/126 183/183/183
f 125/125/125 183/183/183 190/190/190
f 193/193/193 192/192/192 194/194/194
f 193/193/193 194/194/194 195/195/195
f 195/195/195 194/194/194 196/196/196
f 195/195/195 196/196/196 197/197/197
f 194/194/194 187/187/187 189/189/189
f 194/194/194 189/189/189 196/196/196
f 192/192/192 185/185/185 187/187/187
f 192/192/192 187/187/187 194/194/194
f 121/121/121 120/120/120 198/198/198
f 121/121/121 198/198/198 199/199/199
f 199/199/199 198/198/198 200/200/200
f 199/199/199 200/200/200 201/201/201
f 198/198/198 191/191/191 193/193/193
f 198/198/198 193/193/193 200/200/200
f 120/120/120 122/122/122 191/191/191
f 120/120/120 191/191/191 198/198/198
f 201/201/201 200/200/200 202/202/202
f 201/201/201 202/202/202 203/203/203
f 203/203/203 202/202/202 204/204/204
f 203/203/203 204/204/204 205/205/205
f 202/202/202 195/195/195 197/197/197
f 202/202/202 197/197/197 204/204/204
f 200/200/200 193/193/193 195/195/195
f 200/200/200 195/195/195 202/202/202
f 206/206/206 207/207/207 208/208/208
f 206/206/206 208/208/208 209/209/209
f 209/209/209 208/208/208 210/210/210
f 209/209/209 210/210/210 211/211/211
f 208/208/208 203/203/203 205/205/205
f 208/208/208 205/205/205 210/210/210
f 207/207/207 201/201/201 203/203/203
f 207/207/207 203/203/203 208/208/208
f 132/132/132 131/131/131 212/212/212
f 132/132/132 212/212/212 213/213/213
f 213/213/213 212/212/212 207/207/207
f 213/213/213 207/207/207 206/206/206
f 212/212/212 199/199/199 201/201/201
f 212/212/212 201/201/201 207/207/207
f 131/131/131 121/121/121 199/199/199
f 131/131/131 199/199/199 212/212/212
f 214/214/214 215/215/215 216/216/216
f 214/214/214 216/216/216 217/217/217
f 217/217/217 216/216/216 218/218/218
f 217/217/217 218/218/218 219/219/219
f 216/216/216 209/209/209 211/211/211
f 216/216/216 211/211/211 218/218/218
f 215/215/215 206/206/206 209/209/209
f 215/215/215 209/209/209 216/216/216
f 140/140/140 139/139/139 220/220/220
f 140/140/140 220/220/220 221/221/221
f 221/221/221 220/220/220 215/215/215
f 221/221/221 215/215/215 214/214/214
f 220/220/220 213/213/213 206/206/206
f 220/220/220 206/206/206 215/215/215
f 139/139/139 132/132/132 213/213/213
f 139/139/139 213/213/213 220/220/220
f 170/170/170 222/222/222 223/223/223
f 170/170/170 223/223/223 175/175/175
f 175/175/175 223/223/223 224/224/224
f 175/175/175 224/224/224 176/176/176
f 223/223/223 217/217/217 219/219/219
f 223/223/223 219/219/219 224/224/224
f 222/222/222 214/214/214 217/217/217
f 222/222/222 217/217/217 223/223/223
f 148/148/148 147/147/147 225/225/225
f 148/148/148 225/225/225 169/169/169
f 169/169/169 225/225/225 222/222/222
f 169/169/169 222/222/222 170/170/170
f 225/225/225 221/221/221 214/214/214
f 225/225/225 214/214/214 222/222/222
f 147/147/147 140/140/140 221/221/221
f 147/147/147 221/221/221 225/225/225
f 176/176/176 224/224/224 226/226/226
f 176/176/176 226/226/226 227/227/227
f 227/227/227 226/226/226 228/228/228
f 227/227/227 228/228/228 229/229/229
f 226/226/226 230/230/230 231/231/231
f 226/226/226 231/231/231 228/228/228
f 224/224/224 219/219/219 230/230/230
f 224/224/224 230/230/230 226/226/226
f 219/219/219 218/218/218 232/232/232
f 219/219/219 232/232/232 230/230/230
f 230/230/230 232/232/232 233/233/233
f 230/230/230 233/233/233 231/231/231
f 232/232/232 234/234/234 235/235/235
f 232/232/232 235/235/235 233/233/233
f 218/218/218 211/211/211 234/234/234
f 218/218/218 234/234/234 232/232/232
f 229/229/229 228/228/228 236/236/236
f 229/229/229 236/236/236 237/237/237
f 237/237/237 236/236/236 238/238/238
f 237/237/237 238/238/238 239/239/239
f 236/236/236 240/240/240 241/241/241
f 236/236/236 241/241/241 238/238/238
f 228/228/228 231/231/231 240/240/240
f 228/228/228 240/240/240 236/236/236
f 231/231/231 233/233/233 242/242/242
f 231/231/231 242/242/242 240/240/240
f 240/240/240 242/242/242 243/243/243
f 240/240/240 243/243/243 241/241/241
f 242/242/242 244/244/244 245/245/245
f 242/242/242 245/245/245 243/243/243
f 233/233/233 235/235/235 244/244/244
f 233/233/233 244/244/244 242/242/242
f 246/246/246 247/247/247 248/248/248
f 246/246/246 248/248/248 249/249/249
f 249/249/249 248/248/248 238/238/238
f 249/249/249 238/238/238 241/241/241
f 248/248/248 250/250/250 239/239/239
f 248/248/248 239/239/239 238/238/238
f 247/247/247 251/251/251 250/250/250
f 247/247/247 250/250/250 248/248/248
f 252/252/252 253/253/253 254/254/254
f 252/252/252 254/254/254 255/255/255
f 255/255/255 254/254/254 243/243/243
f 255/255/255 243/243/243 245/245/245
f 254/254/254 249/249/249 241/241/241
f 254/254/254 241/241/241 243/243/243
f 253/253/253 246/246/246 249/249/249
f 253/253/253 249/249/249 254/254/254
f 256/256/256 257/257/257 258/258/258
f 256/256/256 258/258/258 259/259/259
f 260/260/260 259/259/259 258/258/258
f 260/260/260 258/258/258 261/261/261
f 262/262/262 261/261/261 258/258/258
f 262/262/262 258/258/258 263/263/263
f 252/252/252 263/263/263 258/258/258
f 252/252/252 258/258/258 253/253/253
f 246/246/246 253/253/253 258/258/258
f 246/246/246 258/258/258 247/247/247
f 251/251/251 247/247/247 258/258/258
f 251/251/251 258/258/258 264/264/264
f 265/265/265 264/264/264 258/258/258
f 265/265/265 258/258/258 266/266/266
f 267/267/267 266/266/266 258/258/258
f 267/267/267 258/258/258 257/257/257
f 262/262/262 263/263/263 268/268/268
f 262/262/262 268/268/268 269/269/269
f 269/269/269 268/268/268 270/270/270
f 269/269/269 270/270/270 271/271/271
f 268/268/268 255/255/255 245/245/245
f 268/268/268 245/245/245 270/270/270
f 263/263/263 252/252/252 255/255/255
f 263/263/263 255/255/255 268/268/268
f 260/260/260 261/261/261 272/272/272
f 260/260/260 272/272/272 273/273/273
f 273/273/273 272/272/272 274/274/274
f 273/273/273 274/274/274 275/275/275
f 272/272/272 269/269/269 271/271/271
f 272/272/272 271/271/271 274/274/274
f 261/261/261 262/262/262 269/269/269
f 261/261/261 269/269/269 272/272/272
f 235/235/235 276/276/276 277/277/277
f 235/235/235 277/277/277 244/244/244
f 244/244/244 277/277/277 270/270/270
f 244/244/244 270/270/270 245/245/245
f 277/277/277 278/278/278 271/271/271
f 277/277/277 271/271/271 270/270/270
f 276/276/276 279/279/279 278/278/278
f 276/276/276 278/278/278 277/277/277
f 279/279/279 280/280/280 281/281/281
f 279/279/279 281/281/281 278/278/278
f 278/278/278 281/281/281 274/274/274
f 278/278/278 274/274/274 271/271/271
f 281/281/281 282/282/282 275/275/275
f 281/281/281 275/275/275 274/274/274
f 280/280/280 283/283/283 282/282/282
f 280/280/280 282/282/282 281/281/281
f 211/211/211 210/210/210 284/284/284
f 211/211/211 284/284/284 234/234/234
f 234/234/234 284/284/284 276/276/276
f 234/234/234 276/276/276 235/235/235
f 284/284/284 285/285/285 279/279/279
f 284/284/284 279/279/279 276/276/276
f 210/210/210 205/205/205 285/285/285
f 210/210/210 285/285/285 284/284/284
f 205/205/205 204/204/204 286/286/286
f 205/205/205 286/286/286 285/285/285
f 285/285/285 286/286/286 280/280/280
f 285/285/285 280/280/280 279/279/279
f 286/286/286 287/287/287 283/283/283
f 286/286/286 283/283/283 280/280/280
f 204/204/204 197/197/197 287/287/287
f 204/204/204 287/287/287 286/286/286
f 283/283/283 288/288/288 289/289/289
f 283/283/283 289/289/289 282/282/282
f 282/282/282 289/289/289 290/290/290
f 282/282/282 290/290/290 275/275/275
f 289/289/289 291/291/291 292/292/292
f 289/289/289 292/292/292 290/290/290
f 288/288/288 293/293/293 291/291/291
f 288/288/288 291/291/291 289/289/289
f 197/197/197 196/196/196 294/294/294
f 197/197/197 294/294/294 287/287/287
f 287/287/287 294/294/294 288/288/288
f 287/287/287 288/288/288 283/283/283
f 294/294/294 295/295/295 293/293/293
f 294/294/294 293/293/293 288/288/288
f 196/196/196 189/189/189 295/295/295
f 196/196/196 295/295/295 294/294/294
f 189/189/189 188/188/188 296/296/296
f 189/189/189 296/296/296 295/295/295
f 295/295/295 296/296/296 297/297/297
f 295/295/295 297/297/297 293/293/293
f 296/296/296 298/298/298 299/299/299
f 296/296/296 299/299/299 297/297/297
f 188/188/188 180/180/180 298/298/298
f 188/188/188 298/298/298 296/296/296
f 293/293/293 297/297/297 300/300/300
f 293/293/293 300/300/300 291/291/291
f 291/291/291 300/300/300 301/301/301
f 291/291/291 301/301/301 292/292/292
f 300/300/300 302/302/302 303/303/303
f 300/300/300 303/303/303 301/301/301
f 297/297/297 299/299/299 302/302/302
f 297/297/297 302/302/302 300/300/300
f 256/256/256 259/259/259 304/304/304
f 256/256/256 304/304/304 305/305/305
f 305/305/305 304/304/304 290/290/290
f 305/305/305 290/290/290 292/292/292
f 304/304/304 273/273/273 275/275/275
f 304/304/304 275/275/275 290/290/290
f 259/259/259 260/260/260 273/273/273
f 259/259/259 273/273/273 304/304/304
f 267/267/267 257/257/257 306/306/306
f 267/267/267 306/306/306 307/307/307
f 307/307/307 306/306/306 301/301/301
f 307/307/307 301/301/301 303/303/303
f 306/306/306 305/305/305 292/292/292
f 306/306/306 292/292/292 301/301/301
f 257/257/257 256/256/256 305/305/305
f 257/257/257 305/305/305 306/306/306
f 265/265/265 266/266/266 308/308/308
f 265/265/265 308/308/308 309/309/309
f 309/309/309 308/308/308 310/310/310
f 309/309/309 310/310/310 311/311/311
f 308/308/308 307/307/307 303/303/303
f 308/308/308 303/303/303 310/310/310
f 266/266/266 267/267/267 307/307/307
f 266/266/266 307/307/307 308/308/308
f 251/251/251 264/264/264 312/312/312
f 251/251/251 312/312/312 250/250/250
f 250/250/250 312/312/312 313/313/313
f 250/250/250 313/313/313 239/239/239
f 312/312/312 309/309/309 311/311/311
f 312/312/312 311/311/311 313/313/313
f 264/264/264 265/265/265 309/309/309
f 264/264/264 309/309/309 312/312/312
f 299/299/299 314/314/314 315/315/315
f 299/299/299 315/315/315 302/302/302
f 302/302/302 315/315/315 310/310/310
f 302/302/302 310/310/310 303/303/303
f 315/315/315 316/316/316 311/311/311
f 315/315/315 311/311/311 310/310/310
f 314/314/314 317/317/317 316/316/316
f 314/314/314 316/316/316 315/315/315
f 317/317/317 318/318/318 319/319/319
f 317/317/317 319/319/319 316/316/316
f 316/316/316 319/319/319 313/313/313
f 316/316/316 313/313/313 311/311/311
f 319/319/319 237/237/237 239/239/239
f 319/319/319 239/239/239 313/313/313
f 318/318/318 229/229/229 237/237/237
f 318/318/318 237/237/237 319/319/319
f 180/180/180 179/179/179 320/320/320
f 180/180/180 320/320/320 298/298/298
f 298/298/298 320/320/320 314/314/314
f 298/298/298 314/314/314 299/299/299
f 320/320/320 321/321/321 317/317/317
f 320/320/320 317/317/317 314/314/314
f 179/179/179 174/174/174 321/321/321
f 179/179/179 321/321/321 320/320/320
f 174/174/174 173/173/173 322/322/322
f 174/174/174 322/322/322 321/321/321
f 321/321/321 322/322/322 318/318/318
f 321/321/321 318/318/318 317/317/317
f 322/322/322 227/227/227 229/229/229
f 322/322/322 229/229/229 318/318/318
f 173/173/173 176/176/176 227/227/227
f 173/173/173 227/227/227 322/322/322
f 101/101/101 158/158/158 323/323/323
f 101/101/101 323/323/323 105/105/105
f 105/105/105 323/323/323 123/123/123
f 105/105/105 123/123/123 106/106/106
f 323/323/323 181/181/181 126/126/126
f 323/323/323 126/126/126 123/123/123
f 158/158/158 160/160/160 181/181/181
f 158/158/158 181/181/181 323/323/323
f 324/324/324 325/325/325 326/326/326
f 324/324/324 326/326/326 327/327/327
f 327/327/327 326/326/326 328/328/328
f 327/327/327 328/328/328 329/329/329
f 326/326/326 83/83/83 85/85/85
f 326/326/326 85/85/85 328/328/328
f 325/325/325 69/69/69 83/83/83
f 325/325/325 83/83/83 326/326/326
f 329/329/329 328/328/328 330/330/330
f 329/329/329 330/330/330 331/331/331
f 331/331/331 330/330/330 11/11/11
f 331/331/331 11/11/11 10/10/10
f 330/330/330 87/87/87 15/15/15
f 330/330/330 15/15/15 11/11/11
f 328/328/328 85/85/85 87/87/87
f 328/328/328 87/87/87 330/330/330
f 332/332/332 333/333/333 334/334/334
f 332/332/332 334/334/334 335/335/335
f 335/335/335 334/334/334 325/325/325
f 335/335/335 325/325/325 324/324/324
f 334/334/334 67/67/67 69/69/69
f 334/334/334 69/69/69 325/325/325
f 333/333/333 65/65/65 67/67/67
f 333/333/333 67/67/67 334/334/334
f 36/36/36 39/39/39 336/336/336
f 36/36/36 336/336/336 337/337/337
f 337/337/337 336/336/336 333/333/333
f 337/337/337 333/333/333 332/332/332
f 336/336/336 63/63/63 65/65/65
f 336/336/336 65/65/65 333/333/333
f 39/39/39 41/41/41 63/63/63
f 39/39/39 63/63/63 336/336/336
