v 1.65171 -1.00744 0.0628615
v 1.65433 -1.0074 0.061112
v 1.65359 -1.00828 0.0594825
v 1.65116 -1.00806 0.0616502
v 1.65267 -1.00968 0.0584038
v 1.65048 -1.00909 0.0608486
v 1.65639 -1.00865 0.0568589
v 1.65521 -1.01044 0.055451
v 1.65734 -1.00752 0.058959
v 1.67509 -1.03905 0.0350988
v 1.67492 -1.03546 0.0311111
v 1.68229 -1.04 0.0239414
v 1.68224 -1.04363 0.0278661
v 1.6898 -1.0443 0.016314
v 1.68942 -1.04786 0.0202525
v 1.68371 -1.03528 0.021319
v 1.69157 -1.03965 0.0137044
v 1.67604 -1.03084 0.0284178
v 1.67827 -1.02582 0.0274151
v 1.68617 -1.03011 0.0203215
v 1.69422 -1.03449 0.0126996
v 1.68921 -1.02522 0.0210432
v 1.69724 -1.02949 0.0133886
v 1.6812 -1.02116 0.0282006
v 1.70466 -1.05617 0.0182482
v 1.70917 -1.05856 0.0129631
v 1.71242 -1.0567 0.0183226
v 1.70808 -1.05431 0.0235254
v 1.71601 -1.05294 0.0219459
v 1.71179 -1.05059 0.0271583
v 1.71581 -1.05831 0.0140053
v 1.71921 -1.05457 0.0174694
v 1.7128 -1.06016 0.00879691
v 1.69045 -1.02586 0.0502355
v 1.68824 -1.03088 0.0511553
v 1.69628 -1.03522 0.0451183
v 1.69858 -1.02994 0.04403
v 1.70386 -1.0393 0.038949
v 1.7062 -1.03384 0.0376789
v 1.69317 -1.04009 0.0442701
v 1.70059 -1.04428 0.0379504
v 1.68532 -1.03555 0.05044
v 1.68214 -1.03914 0.0481228
v 1.68969 -1.04377 0.0415586
v 1.69692 -1.04799 0.0348001
v 1.68638 -1.04574 0.037469
v 1.69344 -1.04994 0.0302343
v 1.67909 -1.04108 0.0444513
v 1.69146 -1.01767 0.0439644
v 1.69159 -1.02124 0.0477499
v 1.69966 -1.02504 0.0411285
v 1.6994 -1.02124 0.0369093
v 1.70721 -1.02877 0.0343189
v 1.70686 -1.02486 0.0296091
v 1.68749 -1.01565 0.0345961
v 1.68998 -1.01571 0.0392994
v 1.69784 -1.01919 0.0320094
v 1.69535 -1.0192 0.0272601
v 1.70529 -1.0228 0.0244175
v 1.70292 -1.02295 0.0195602
v 1.67659 -1.04102 0.0398325
v 1.68372 -1.04565 0.0326343
v 1.69076 -1.04984 0.0251231
v 1.69237 -1.02137 0.0234549
v 1.68442 -1.01759 0.0307185
v 1.70019 -1.02538 0.0157562
v 1.72109 -1.04314 -0.0107179
v 1.72433 -1.04528 -0.0117694
v 1.72254 -1.04989 -0.0125448
v 1.71898 -1.048 -0.0115466
v 1.71961 -1.0538 -0.01164
v 1.71601 -1.05231 -0.0105543
v 1.72431 -1.05079 -0.0115549
v 1.72158 -1.05432 -0.0107842
v 1.72587 -1.04655 -0.0108834
v 1.71772 -1.03965 0.0268657
v 1.72205 -1.04183 0.0216509
v 1.72325 -1.03674 0.0177848
v 1.71879 -1.0345 0.022998
v 1.72302 -1.03305 0.0122611
v 1.71844 -1.03067 0.0175611
v 1.7265 -1.03866 0.0134741
v 1.7264 -1.03518 0.00810254
v 1.72519 -1.04358 0.0171804
v 1.72157 -1.03133 0.00603792
v 1.7169 -1.02879 0.0115694
v 1.71968 -1.03206 0.000267436
v 1.71478 -1.0293 0.00606186
v 1.72508 -1.03366 0.00193356
v 1.72346 -1.03462 -0.00383588
v 1.70119 -1.05419 0.00677013
v 1.70621 -1.05673 0.000957173
v 1.70681 -1.05847 0.00680241
v 1.70212 -1.05605 0.0123285
v 1.71069 -1.06006 0.00268191
v 1.71043 -1.05846 -0.00317787
v 1.71799 -1.03541 -0.00403925
v 1.71263 -1.0323 0.00192793
v 1.71617 -1.04021 -0.00662871
v 1.7103 -1.03684 -0.000564708
v 1.72234 -1.03821 -0.00813388
v 1.70481 -1.04666 -0.000309554
v 1.71084 -1.04978 -0.00642255
v 1.70791 -1.05373 -0.00357095
v 1.70235 -1.05093 0.00244411
v 1.71265 -1.05582 -0.00771385
v 1.71375 -1.04517 -0.00743978
v 1.70762 -1.04182 -0.00132039
v 1.71944 -1.04762 0.0230967
v 1.71522 -1.04537 0.0283179
v 1.72256 -1.04928 0.0185629
v 1.71574 -1.05869 -0.00482039
v 1.71707 -1.05804 -0.00432184
v 1.71697 -1.05924 -0.000181119
v 1.71555 -1.06003 3.74635e-05
v 1.71838 -1.05936 0.00418284
v 1.71712 -1.06023 0.00511873
v 1.71683 -1.05766 0.000583365
v 1.71816 -1.05769 0.00424785
v 1.71665 -1.05658 -0.00288398
v 1.72124 -1.05525 0.0144288
v 1.72437 -1.05026 0.0154314
v 1.72687 -1.04491 0.0141598
v 1.72528 -1.05077 0.0131216
v 1.72753 -1.04596 0.0119932
v 1.72246 -1.05527 0.0122324
v 1.71533 -1.0606 0.00641837
v 1.71808 -1.05884 0.0112433
v 1.7196 -1.05858 0.00940549
v 1.72818 -1.0403 0.0107472
v 1.72815 -1.03708 0.00576947
v 1.72876 -1.04176 0.00896409
v 1.72877 -1.03886 0.0045414
v 1.72693 -1.03581 6.69922e-06
v 1.7256 -1.03692 -0.00538909
v 1.72768 -1.03779 -0.000580797
v 1.72655 -1.0389 -0.00535093
v 1.71355 -1.05897 -0.00478615
v 1.7135 -1.06044 0.000702725
v 1.72501 -1.0405 -0.00938158
v 1.72626 -1.04218 -0.00882959
v 1.71607 -1.05678 -0.00901299
v 1.7182 -1.05685 -0.0085166
v 1.71263 -1.05117 0.00222094
v 1.71276 -1.04894 0.00131896
v 1.71457 -1.04527 0.00569455
v 1.71305 -1.05101 0.00481802
v 1.71426 -1.05206 0.00675199
v 1.7153 -1.05027 0.00850265
v 1.71723 -1.04952 0.00999316
v 1.71785 -1.04695 0.00997076
v 1.71969 -1.04502 0.00985986
v 1.71924 -1.04304 0.00828456
v 1.72018 -1.04123 0.00642471
v 1.7186 -1.04087 0.00450214
v 1.7185 -1.04049 0.00188493
v 1.71667 -1.04185 0.00109085
v 1.71617 -1.04336 -0.00084023
v 1.71447 -1.04529 -9.39153e-05
v 1.71373 -1.04774 -0.000710864
v 1.72672 -1.04038 -0.00477643
v 1.7263 -1.04314 -0.00767652
v 1.72576 -1.04691 -0.00935461
v 1.72444 -1.04301 -0.00570474
v 1.72352 -1.04611 -0.00709225
v 1.72524 -1.04086 -0.003288
v 1.72187 -1.05395 -0.00928107
v 1.71905 -1.05633 -0.0074171
v 1.71794 -1.05484 -0.00546362
v 1.72 -1.05245 -0.0070133
v 1.72427 -1.0507 -0.00990531
v 1.72199 -1.04942 -0.00753915
v 1.72311 -1.05487 0.0103008
v 1.72556 -1.05094 0.0110653
v 1.72752 -1.04676 0.0100942
v 1.72444 -1.05037 0.0100381
v 1.72611 -1.0468 0.00921615
v 1.72233 -1.05373 0.00939615
v 1.72058 -1.05783 0.00786942
v 1.72013 -1.05631 0.00734914
v 1.72862 -1.04305 0.0074881
v 1.72868 -1.04045 0.00368395
v 1.72705 -1.04358 0.00701618
v 1.72711 -1.04126 0.00381131
v 1.72775 -1.03947 -0.000715
v 1.72631 -1.04028 0.00011464
v 1.71423 -1.05391 -0.000184254
v 1.71484 -1.05211 -0.00232165
v 1.71621 -1.04986 -0.00377658
v 1.72359 -1.04103 0.00530823
v 1.72351 -1.04309 0.00795036
v 1.72284 -1.04582 0.00977891
v 1.71929 -1.04432 -0.00389896
v 1.72047 -1.04189 -0.00258873
v 1.72167 -1.04032 -0.000571527
v 1.71968 -1.05163 0.00994055
v 1.71772 -1.05371 0.00824857
v 1.71599 -1.05495 0.00570374
v 1.71467 -1.05485 0.00273121
v 1.72139 -1.04879 0.0104445
v 1.72274 -1.04008 0.0023051
v 1.71774 -1.04709 -0.00419228
v 1.67431 -1.01095 0.0453758
v 1.68037 -1.01291 0.0405932
v 1.6775 -1.01469 0.036662
v 1.67186 -1.01264 0.0415077
v 1.67447 -1.01797 0.0340194
v 1.66918 -1.01565 0.0388297
v 1.66671 -1.03199 0.0542112
v 1.66499 -1.03213 0.0501238
v 1.67028 -1.0364 0.0456289
v 1.67246 -1.03639 0.0499998
v 1.66897 -1.03462 0.0410225
v 1.66402 -1.03063 0.0457592
v 1.67612 -1.01085 0.0497093
v 1.68261 -1.01294 0.045166
v 1.68386 -1.01468 0.0495724
v 1.67701 -1.01231 0.0538278
v 1.67684 -1.01514 0.0571298
v 1.68386 -1.01792 0.0530682
v 1.68272 -1.02215 0.0553249
v 1.6757 -1.01892 0.0592858
v 1.67144 -1.02708 0.0594446
v 1.66897 -1.03019 0.0574229
v 1.67515 -1.03451 0.053395
v 1.678 -1.03114 0.0555022
v 1.6738 -1.02311 0.0600755
v 1.68064 -1.02679 0.0561528
v 1.66492 -1.02379 0.0389885
v 1.66675 -1.01957 0.0379527
v 1.67175 -1.02228 0.0331686
v 1.66975 -1.02696 0.0341983
v 1.66399 -1.02768 0.0418008
v 1.66878 -1.03128 0.0369912
v 1.65692 -1.02412 0.0531568
v 1.65733 -1.02202 0.0498958
v 1.66034 -1.0247 0.0459918
v 1.66012 -1.02721 0.0496868
v 1.66132 -1.02129 0.0433394
v 1.65834 -1.01911 0.0475635
v 1.65987 -1.01583 0.0467031
v 1.66301 -1.01753 0.0423616
v 1.66514 -1.014 0.0431941
v 1.6617 -1.0127 0.0474317
v 1.66435 -1.01395 0.0646612
v 1.66276 -1.0172 0.0653797
v 1.66781 -1.0199 0.0631001
v 1.66957 -1.01617 0.0623368
v 1.66574 -1.02349 0.0624818
v 1.66099 -1.02037 0.064792
v 1.65931 -1.02297 0.0629478
v 1.66368 -1.02636 0.0605239
v 1.6619 -1.0281 0.0574832
v 1.65796 -1.02462 0.0601384
v 1.66609 -1.00911 0.0598218
v 1.66552 -1.01111 0.0627061
v 1.67074 -1.01286 0.0602562
v 1.67114 -1.01045 0.0571328
v 1.66504 -1.00862 0.0528395
v 1.66592 -1.00825 0.0563885
v 1.67065 -1.00932 0.0533275
v 1.66935 -1.00958 0.0493362
v 1.65714 -1.02501 0.0567311
v 1.66067 -1.02839 0.0537064
v 1.66739 -1.01122 0.0457236
v 1.66353 -1.01019 0.0496529
v 1.64907 -1.0138 0.065889
v 1.64866 -1.01393 0.0644514
v 1.65008 -1.01626 0.0632482
v 1.65055 -1.01603 0.0651908
v 1.65183 -1.01882 0.0616678
v 1.65236 -1.01851 0.0641177
v 1.64997 -1.0158 0.0612903
v 1.65174 -1.01825 0.0591838
v 1.64853 -1.01358 0.0629956
v 1.65208 -1.00733 0.0643065
v 1.65478 -1.00721 0.0630558
v 1.65787 -1.00725 0.0614255
v 1.65488 -1.0077 0.0650134
v 1.65793 -1.00783 0.0638943
v 1.65221 -1.00773 0.0657552
v 1.65209 -1.00858 0.066979
v 1.65459 -1.00881 0.0666827
v 1.65748 -1.00921 0.0660047
v 1.65397 -1.01034 0.0678215
v 1.65664 -1.01114 0.0674485
v 1.65172 -1.00973 0.0678082
v 1.65043 -1.01222 0.0678634
v 1.6497 -1.01319 0.0670811
v 1.65129 -1.01514 0.0668178
v 1.6522 -1.01375 0.0678943
v 1.65324 -1.01733 0.0661748
v 1.65435 -1.01552 0.0675403
v 1.65114 -1.01101 0.0681128
v 1.65314 -1.01207 0.0682395
v 1.65554 -1.01335 0.0679787
v 1.64916 -1.01164 0.0609035
v 1.64978 -1.01035 0.0605918
v 1.65171 -1.0114 0.0580584
v 1.65086 -1.01317 0.0584778
v 1.65398 -1.01263 0.0549976
v 1.65289 -1.01489 0.0555447
v 1.64872 -1.01277 0.0617522
v 1.65025 -1.01471 0.059619
v 1.65211 -1.01686 0.0570312
v 1.66097 -1.00794 0.0561256
v 1.65979 -1.00931 0.0534775
v 1.65831 -1.01148 0.0516625
v 1.65419 -1.02178 0.0594411
v 1.6548 -1.02139 0.0623937
v 1.65409 -1.02108 0.0563991
v 1.66162 -1.00757 0.059146
v 1.66167 -1.00826 0.0621214
v 1.66111 -1.00993 0.0646545
v 1.66006 -1.0123 0.066386
v 1.65586 -1.01995 0.0648622
v 1.65723 -1.01771 0.0664982
v 1.6587 -1.01503 0.0670224
v 1.65679 -1.01416 0.0510719
v 1.65547 -1.01692 0.0517763
v 1.65454 -1.01936 0.0536871
v 1.70675 -1.04775 0.0323651
v 1.71012 -1.04266 0.033473
v 1.71253 -1.03705 0.0320779
v 1.70415 -1.03332 0.00615987
v 1.70126 -1.03833 0.00545431
v 1.69851 -1.04337 0.00646162
v 1.69642 -1.04786 0.00912095
v 1.69569 -1.0513 0.0132142
v 1.70931 -1.02631 0.0124952
v 1.70683 -1.02901 0.0085623
v 1.69685 -1.05324 0.0183877
v 1.69949 -1.05335 0.0239027
v 1.71314 -1.02799 0.0232381
v 1.71156 -1.026 0.0176423
v 1.71353 -1.0319 0.0283814
v 1.703 -1.05145 0.0288927
vt 0.0843 0.08419
vt 0.2502 0.9997
vt 0.08335 0.0836
vt 0.5834 1
vt 0.5003 1
vt 0.2612 0.01105
vt 0.2501 0.9998
vt 0.9913 0.7482
vt 1 0.4896
vt 0.75 1
vt 0.9983 0.2516
vt 0.08334 0.08347
vt 1 0.2497
vt 1 0.08333
vt 0.2619 0.01169
vt 0.9983 0.2516
vt 0.2612 0.01105
vt 0.7483 0.9983
vt 0.9913 0.2586
vt 0.01045 0.2605
vt 0.9167 4.876e-05
vt 1 0.2604
vt 0.5003 0.0008831
vt 0.75 1
vt 0.7396 0.9896
vt 0 0.4895
vt 0.01047 0.2605
vt 0.001697 0.748
vt 0.7396 0.008682
vt 0.9167 0.9167
vt 0.4896 -1.192e-07
vt -2.499e-05 0.9166
vt -3.124e-06 0.75
vt 0.9997 0.9897
vt 1 0.5832
vt 0.01047 0.2605
vt 1 0.5
vt 0.9913 0.2587
vt 0.08526 0.08505
vt 1 0.0002933
vt 0.2612 0.01105
vt 0.9995 1
vt 1 0.51
vt 0.01045 0.2605
vt 0.9236 0.07639
vt 1 0.4999
vt 0.2619 0.01169
vt 0.7483 0.9983
vt 0.4899 1
vt 0.9897 0.0001526
vt 0 0.4999
vt 1 0.51
vt 1 0.2604
vt 0.0843 0.08419
vt 0.5006 1
vt 0.9167 4.876e-05
vt 0 0.4998
vt 0.9913 0.2587
vt 0.9913 0.2517
vt 0.5002 0.0004414
vt 0.9913 0.2586
vt 0.01045 0.2605
vt 0.9236 0.07639
vt 0.01042 0.2604
vt 0.9983 0.2516
vt 0.9913 0.2587
vt 0.00868 0.7413
vt 0.07639 0.9167
vt 0 0.5
vt 0.5 -1.192e-07
vt 0.2604 0.9896
vt 0.08333 0.9167
vt 0.5834 1
vt 0.00868 0.7413
vt 0 0.5
vt 0.9167 0.9236
vt -7.498e-05 0.7496
vt 0 0.4999
vt 0.008668 0.7412
vt 0.9167 4.864e-05
vt 0.7413 0.9913
vt 0.7413 0.008681
vt 0.07639 0.9167
vt 0.00868 0.7413
vt 0.08334 0.08347
vt -9.095e-13 0.4166
vt 0.7413 0.008681
vt 0.9167 0.9236
vt 0.7396 5.96e-06
vt 0.07639 0.9167
vt 0.7413 0.9913
vt 0.001697 0.748
vt 0.08333 0.08333
vt 0 0.4895
vt 0.4896 -1.192e-07
vt 0.01042 0.7396
vt 0.01042 0.2604
vt 0.01034 0.9997
vt 0.9236 0.07639
vt 0.75 1
vt 0.7396 0.008682
vt 0.9166 1
vt -0.00015 0.9994
vt 0.01045 0.2605
vt 0.08331 0.9999
vt 0.4167 -2.384e-07
vt 0.9995 1
vt 0.008668 0.7412
vt 0.9997 1
vt 0.001697 0.748
vt 0.7396 0.008682
vt 2.591e-07 0.5069
vt 0.2673 0.01045
vt 0.9999 0.7499
vt 0.507 1
vt 0.2622 0.008685
vt 2.591e-07 0.5069
vt 0.2604 -1.192e-07
vt 0.08333 0.07639
vt 0.08333 0.07639
vt 0.2587 0.9913
vt 0.9997 0.7498
vt -2.5e-05 0.9166
vt 0.2604 0.9896
vt -8.527e-14 0.5833
vt 0.00868 0.7413
vt 0.2604 0.9896
vt 0.9997 0.7498
vt 0.507 1
vt 0.9999 0.7499
vt 0.08333 0.9167
vt 0.2604 0.9896
vt -3.124e-06 0.75
vt 1 0.4996
vt 0.07639 0.9167
vt 0.2587 0.9913
vt 0.01042 0.7396
vt 0.2604 0.9896
vt 1 0.4992
vt 0.9999 0.7499
vt 0.2604 0.9896
vt 1 0.75
vt 0.5 1
vt 0.008681 0.2517
vt 0.08333 0.08333
vt 1 0.5
vt 0.01042 0.25
vt 0.01043 0.2674
vt 0.01042 0.25
vt 0 0.5833
vt 0.01042 0.2587
vt 0.01042 0.2604
vt 0.08333 0.08333
vt 2.591e-07 0.5069
vt -2.604e-07 0.4931
vt 2.591e-07 0.5069
vt 0.01042 0.2587
vt 0.01042 0.2604
vt 0 0.4166
vt 0 0.5
vt 0.08333 0.07639
vt 1 0.4996
vt 0.08334 0.08338
vt 0.2622 0.008685
vt 0.08333 -1.192e-07
vt 0.008681 0.2517
vt 0.5104 -1.192e-07
vt 0.9997 1
vt 0.5 -1.192e-07
vt 0.01042 0.2604
vt 1 1
vt 0.08333 -1.192e-07
vt 0.2673 0.01045
vt 1 0.75
vt 0.5833 -2.384e-07
vt 0.2622 0.008685
vt 0.08334 0.08338
vt 0.01042 0.2604
vt 0.9999 0.7499
vt 0.2604 -1.192e-07
vt 0.08333 0.9167
vt 0.2622 0.008685
vt 0.5104 -1.192e-07
vt 0.01043 0.2674
vt 0.08392 0.9161
vt 0.08333 0.07639
vt 0.01042 0.2587
vt 0.2608 0.989
vt 0.01042 0.2604
vt 0 0.5
vt 0.2604 0.9896
vt -2.604e-07 0.4931
vt 0.08333 0.08333
vt 0.2604 0.9896
vt 0.08333 0.08333
vt 0.01042 0.2604
vt 0.2608 0.989
vt 0.01042 0.2587
vt 0.5 0.9995
vt 0.5 1
vt 0.2608 0.989
vt 0.2633 0.985
vt 0.4899 1
vt 1 0.4992
vt 0.5 0.9958
vt 0.75 8.1e-05
vt 1 0.2497
vt 0.7413 0.9913
vt 0.4168 1
vt 0.75 -1.192e-07
vt 0.5 0.9995
vt 0.9983 0.2516
vt 1 0.0001466
vt 0.7413 0.9913
vt 1 -1.192e-07
vt 0.08392 0.9161
vt 1 0.0002933
vt 0.7483 0.9983
vt 1 0.0001466
vt 0.088 0.912
vt 0.9897 0.0001526
vt 0.7483 0.9983
vt 0.9997 0.9897
vt 0.4999 6.217e-05
vt 0.2633 0.985
vt 0.7499 0.0001621
vt 0.5 -1.192e-07
vt 0.2608 0.989
vt 0.9999 0.9167
vt 0.75 -1.192e-07
vt 0.9999 0.9167
vt 0.75 8.1e-05
vt 0.75 8.1e-05
vt 0.9236 0.9167
vt 0.9167 0.9167
vt 0.2603 0.01053
vt 0.9913 0.7413
vt 0.2603 0.01053
vt 0.08334 0.08347
vt 0.9167 0.9236
vt 0.2604 0.01042
vt 1 0.75
vt 0.4999 6.217e-05
vt 0.9166 1
vt 0.9913 0.7482
vt 0.5 -1.192e-07
vt 1 0.75
vt 0.4997 0.0001244
vt 0.08335 0.0836
vt 0.9896 0.7396
vt 0.4999 6.211e-05
vt 0.9913 0.7413
vt 0.75 8.1e-05
vt 0.9167 0.9236
vt 0.9896 0.7326
vt 0.08334 0.08347
vt 1 0.5069
vt 0.2602 0.01064
vt 0.9896 0.7396
vt 0.08333 0.08333
vt 1 0.5832
vt 0.7499 0.0001621
vt 0.2604 0.01042
vt 0.9913 0.7413
vt 0.9896 0.7396
vt 0.2603 0.01053
vt 0.2604 0.01042
vt 0.7396 0.9896
vt 1 0.5
vt 0.2501 0.9998
vt 0.25 1
vt 0.9896 0.7396
vt 0.9913 0.2517
vt 0.9896 0.7326
vt 0.5 -1.192e-07
vt 0.507 1
vt 1 0.5069
vt 0.5 1
vt 1 0.5
vt 1 0.4167
vt 0.2604 0.01042
vt 0.507 1
vt 0.9236 0.9167
vt 0.5003 1
vt 0.5006 1
vt 1 0.4999
vt 0.2612 0.01105
vt 0.5002 0.0004414
vt 0.75 1
vt 0.9167 0.9167
vt 0.9913 0.2587
vt -7.498e-05 0.9997
vt 1 0.4896
vt 0.5 1
vt 0.9896 0.7396
vt 0 1
vt 0.08333 0.08333
vt 0.7413 0.9913
vt 0.9913 0.7413
vt 1 0.5
vt 0.25 1
vt 0.9896 0.7396
vt 0.7413 0.9913
vt 0.4168 1
vt 0.2501 0.9998
vt 0.4997 0.0001244
vt 0.4931 1
vt 0.2603 0.01053
vt 0.7396 0.9896
vt 0.4999 6.211e-05
vt -7.498e-05 0.9997
vt 0.7413 0.9913
vt -0.00015 0.9994
vt 0.7413 0.9913
vt 0.2602 0.01064
vt 0.7396 0.9896
vt 0.2502 0.9997
vt 0.9236 0.9167
vt 0.9999 0.9167
vt 0.2501 0.9998
vt 0.7396 0.9896
vt 0 0.4998
vt 0.7396 0.9896
vt 0.7396 5.96e-06
vt 0.01034 0.9997
vt 0.9167 0.9167
vt 0.7396 0.008682
vt 0.9236 0.9167
vt 1 0.08333
vt -7.498e-05 0.7496
vt 0.4931 1
vt 0.5 1
vt 0.9236 0.07639
vt 0.001697 0.748
vt 0.7396 0.9896
vt 0.7396 0.9896
vt 1 0.5832
vn -0.1486 0.9685 -0.1996
vn -0.1457 0.9622 -0.23
vn -0.3372 0.817 -0.4676
vn -0.3341 0.8261 -0.4538
vn -0.522 0.599 -0.6072
vn -0.5169 0.6033 -0.6073
vn -0.3207 0.8214 -0.4716
vn -0.5204 0.6072 -0.6004
vn -0.111 0.9625 -0.2476
vn -0.7082 -0.6505 -0.2743
vn -0.757 -0.3594 -0.5457
vn -0.7561 -0.3232 -0.569
vn -0.7013 -0.6468 -0.2996
vn -0.7642 -0.2797 -0.5811
vn -0.7027 -0.6362 -0.3183
vn -0.6903 0.0005188 -0.7234
vn -0.699 0.04437 -0.7137
vn -0.6922 -0.03763 -0.7207
vn -0.5545 0.2789 -0.784
vn -0.5644 0.2876 -0.7738
vn -0.5849 0.303 -0.7523
vn -0.3975 0.5513 -0.7335
vn -0.4369 0.5365 -0.722
vn -0.3687 0.5726 -0.7322
vn -0.2117 -0.942 0.2601
vn -0.1858 -0.954 0.2353
vn 0.1217 -0.8799 0.4593
vn 0.0773 -0.8671 0.4921
vn 0.4365 -0.6644 0.6066
vn 0.3788 -0.6503 0.6584
vn 0.1983 -0.8892 0.4124
vn 0.4981 -0.6698 0.5507
vn -0.09803 -0.9775 0.1866
vn 0.604 0.07965 0.793
vn 0.4751 -0.2336 0.8483
vn 0.512 -0.2542 0.8205
vn 0.6494 0.08228 0.7559
vn 0.5372 -0.2689 0.7994
vn 0.6793 0.09638 0.7275
vn 0.3111 -0.5618 0.7665
vn 0.316 -0.5975 0.7369
vn 0.2884 -0.5205 0.8037
vn 0.03693 -0.7608 0.6479
vn 0.05811 -0.7985 0.5992
vn 0.05362 -0.8274 0.5589
vn -0.2301 -0.9114 0.3411
vn -0.2213 -0.9247 0.3096
vn -0.2619 -0.8877 0.3787
vn 0.5918 0.7214 0.3595
vn 0.657 0.4139 0.6301
vn 0.6982 0.4159 0.5826
vn 0.627 0.7086 0.3235
vn 0.7162 0.435 0.5456
vn 0.6386 0.7107 0.2951
vn 0.1395 0.9454 -0.2945
vn 0.4031 0.9146 0.03113
vn 0.4293 0.9031 0.009125
vn 0.1362 0.937 -0.3215
vn 0.4375 0.8991 -0.008911
vn 0.1188 0.932 -0.3424
vn -0.5327 -0.8448 0.04971
vn -0.506 -0.8621 0.02795
vn -0.492 -0.8705 0.009919
vn -0.167 0.7909 -0.5886
vn -0.1351 0.814 -0.5649
vn -0.212 0.7708 -0.6007
vn -0.2356 0.3972 -0.887
vn 0.2765 0.2408 -0.9304
vn 0.1061 -0.07614 -0.9914
vn -0.3579 0.1809 -0.916
vn -0.06757 -0.4039 -0.9123
vn -0.4756 -0.05707 -0.8778
vn 0.7369 -0.4147 -0.5339
vn 0.521 -0.7085 -0.4759
vn 0.8677 -0.07678 -0.4911
vn 0.7532 0.06738 0.6543
vn 0.7962 0.02252 0.6045
vn 0.7936 0.4016 0.4571
vn 0.7569 0.4349 0.4878
vn 0.6753 0.7024 0.2249
vn 0.6497 0.7176 0.2507
vn 0.8485 0.3365 0.4083
vn 0.7527 0.6356 0.1715
vn 0.8355 -0.03079 0.5486
vn 0.4534 0.8887 -0.06729
vn 0.432 0.9009 -0.04068
vn 0.09519 0.9047 -0.4152
vn 0.07343 0.923 -0.3777
vn 0.5679 0.8135 -0.1254
vn 0.2654 0.8342 -0.4835
vn -0.7114 -0.612 -0.3454
vn -0.6828 -0.6261 -0.3765
vn -0.457 -0.8886 -0.03821
vn -0.4814 -0.8763 -0.01703
vn -0.3401 -0.9362 -0.08918
vn -0.5342 -0.7251 -0.4345
vn -0.2626 0.6915 -0.673
vn -0.2881 0.7254 -0.6251
vn -0.4458 0.4603 -0.7677
vn -0.4849 0.4981 -0.7188
vn -0.04382 0.6421 -0.7653
vn -0.693 0.1076 -0.7128
vn -0.6412 0.09305 -0.7617
vn -0.729 -0.2141 -0.6501
vn -0.7697 -0.2044 -0.6048
vn -0.5681 -0.375 -0.7325
vn -0.5449 0.2859 -0.7882
vn -0.5958 0.3138 -0.7392
vn 0.6735 -0.349 0.6516
vn 0.6222 -0.3187 0.7151
vn 0.7156 -0.3741 0.5899
vn 0.2703 -0.9213 -0.2796
vn 0.8265 -0.5597 0.06046
vn 0.8509 -0.4877 -0.1954
vn 0.2837 -0.9395 -0.1921
vn 0.8211 -0.4907 -0.2916
vn 0.3728 -0.9275 -0.02509
vn 0.9051 0.4102 -0.112
vn 0.7892 0.4139 -0.4537
vn 0.9266 0.23 0.2975
vn 0.588 -0.6709 0.4519
vn 0.7704 -0.4067 0.491
vn 0.8871 -0.1122 0.4477
vn 0.8407 -0.4499 0.3013
vn 0.9366 -0.2325 0.2621
vn 0.7089 -0.6526 0.2675
vn 0.1003 -0.9904 0.09436
vn 0.3412 -0.8848 0.3175
vn 0.539 -0.8278 0.1559
vn 0.9295 0.203 0.3078
vn 0.8858 0.4583 0.0726
vn 0.9896 -0.005982 0.1434
vn 0.9834 0.1753 -0.04666
vn 0.7811 0.5932 -0.1948
vn 0.6125 0.6192 -0.4913
vn 0.9425 0.2506 -0.221
vn 0.9139 0.2533 -0.3172
vn -0.1791 -0.8828 -0.4342
vn -0.06519 -0.9857 -0.1554
vn 0.4329 0.4875 -0.7582
vn 0.9003 0.166 -0.4024
vn -0.1838 -0.6769 -0.7127
vn 0.3356 -0.8679 -0.3661
vn 0.9842 0.17 0.04968
vn 0.9753 -0.1603 0.1518
vn 0.8129 -0.4539 -0.3649
vn 0.9449 0.1255 -0.3024
vn 0.7783 0.3271 -0.536
vn 0.6937 0.09314 -0.7141
vn 0.4306 0.06531 -0.9002
vn 0.4133 -0.2497 -0.8756
vn 0.1671 -0.4337 -0.8854
vn 0.292 -0.6599 -0.6923
vn 0.1536 -0.8461 -0.5104
vn 0.4125 -0.8668 -0.2802
vn 0.4048 -0.9113 0.07495
vn 0.6685 -0.7252 0.1647
vn 0.6744 -0.5634 0.4771
vn 0.8309 -0.4516 0.3251
vn 0.8482 -0.2475 0.4682
vn 0.9218 -0.3838 0.05435
vn 0.9178 -0.2946 0.2662
vn 0.8787 -0.3277 0.3469
vn 0.4813 -0.6089 0.6305
vn 0.5259 -0.4072 0.7467
vn 0.3466 -0.8804 0.3235
vn 0.7523 -0.5583 0.3497
vn 0.7501 -0.6027 0.2722
vn 0.789 -0.03577 0.6133
vn 0.6403 -0.2023 0.7409
vn 0.8167 -0.4466 0.3653
vn 0.5604 -0.2999 0.772
vn 0.8332 -0.4686 -0.2934
vn 0.8354 -0.4622 -0.2975
vn 0.8406 -0.4573 -0.2903
vn 0.2558 -0.1647 -0.9526
vn 0.1417 -0.453 -0.8801
vn 0.4295 0.1011 -0.8973
vn 0.8244 -0.4831 -0.2947
vn 0.62 0.305 -0.7229
vn 0.8492 -0.4419 -0.289
vn 0.8554 -0.432 -0.2858
vn 0.09235 -0.7106 -0.6975
vn 0.1084 -0.897 -0.4285
vn 0.8708 -0.4515 -0.1946
vn 0.1833 -0.9791 -0.08771
vn 0.8857 0.3875 0.2556
vn 0.817 0.1072 0.5665
vn 0.6799 -0.1317 0.7213
vn -0.1494 -0.8831 -0.4448
vn -0.2033 -0.6477 -0.7343
vn -0.1601 -0.3439 -0.9252
vn 0.4906 -0.4766 0.7295
vn 0.3774 -0.7156 0.5877
vn 0.1871 -0.9407 0.283
vn 0.1694 0.2945 -0.9405
vn 0.3999 0.5163 -0.7573
vn 0.6315 0.6164 -0.4703
vn 0.8003 0.5843 -0.1344
vn -0.03659 -0.006409 -0.9993
vn -0.0253 -0.9937 -0.1087
vn 0.5722 -0.3016 0.7626
vn 0.08933 0.9629 -0.2547
vn 0.1235 0.955 -0.2697
vn -0.1278 0.8358 -0.5339
vn -0.1559 0.852 -0.4998
vn -0.3632 0.5987 -0.7138
vn -0.3979 0.6257 -0.6709
vn -0.3574 -0.8333 0.4216
vn -0.6038 -0.7938 0.07245
vn -0.5691 -0.8195 0.06732
vn -0.3114 -0.8576 0.4092
vn -0.7252 -0.6412 -0.251
vn -0.7495 -0.6179 -0.2376
vn 0.3213 0.9453 0.05539
vn 0.3627 0.9306 0.04935
vn 0.54 0.7459 0.3898
vn 0.4941 0.7706 0.4024
vn 0.5553 0.4638 0.6903
vn 0.6018 0.4341 0.6704
vn 0.5513 0.09726 0.8286
vn 0.5078 0.1256 0.8522
vn 0.1975 -0.4642 0.8634
vn -0.06101 -0.7027 0.7088
vn -0.01032 -0.7251 0.6886
vn 0.245 -0.4852 0.8394
vn 0.3856 -0.1845 0.904
vn 0.4288 -0.2081 0.8791
vn -0.7506 -0.04541 -0.6591
vn -0.6096 0.3056 -0.7314
vn -0.5654 0.2827 -0.7748
vn -0.7102 -0.0582 -0.7015
vn -0.7972 -0.3625 -0.4827
vn -0.7699 -0.3763 -0.5154
vn -0.8108 -0.5342 -0.2394
vn -0.8491 -0.2759 -0.4504
vn -0.8289 -0.322 -0.4573
vn -0.7796 -0.5805 -0.235
vn -0.7937 -0.007447 -0.6083
vn -0.812 0.02826 -0.5829
vn -0.6905 0.3489 -0.6336
vn -0.6636 0.3345 -0.6691
vn -0.4547 0.6407 -0.6186
vn -0.495 0.6356 -0.5923
vn 0.4443 0.1875 0.876
vn 0.3182 -0.148 0.9364
vn 0.3497 -0.165 0.9222
vn 0.4745 0.1563 0.8662
vn 0.1534 -0.4535 0.8779
vn 0.1108 -0.446 0.8881
vn -0.1624 -0.6776 0.7173
vn -0.1093 -0.6902 0.7153
vn -0.4015 -0.8127 0.4221
vn -0.4553 -0.7853 0.4194
vn 0.3992 0.8245 0.4009
vn 0.4777 0.5329 0.6984
vn 0.5178 0.4965 0.6966
vn 0.4519 0.7956 0.4034
vn -0.01761 0.9668 -0.255
vn 0.2167 0.9751 0.04709
vn 0.2752 0.96 0.05216
vn 0.03919 0.9672 -0.2509
vn -0.6856 -0.7252 0.0632
vn -0.6406 -0.7648 0.06851
vn -0.2093 0.8561 -0.4725
vn -0.2599 0.8463 -0.4649
vn -0.672 -0.5849 0.4542
vn -0.8169 -0.5624 0.1277
vn -0.8093 -0.5796 0.09485
vn -0.6556 -0.6209 0.4297
vn -0.7736 -0.6289 0.07703
vn -0.5885 -0.6881 0.4245
vn -0.8785 -0.4272 -0.2137
vn -0.8598 -0.4552 -0.2312
vn -0.8851 -0.4273 -0.1845
vn 0.009491 0.9933 0.1151
vn 0.02734 0.9963 0.08063
vn 0.08847 0.9941 0.06186
vn 0.1529 0.897 0.4146
vn 0.2457 0.8794 0.4078
vn 0.1144 0.8906 0.4402
vn 0.1485 0.6753 0.7224
vn 0.2058 0.6722 0.7111
vn 0.3226 0.6267 0.7093
vn 0.165 0.3574 0.9192
vn 0.2956 0.2907 0.91
vn 0.0972 0.3772 0.921
vn -0.2428 -0.2629 0.9337
vn -0.4688 -0.4837 0.7391
vn -0.4343 -0.5304 0.728
vn -0.1891 -0.3097 0.9318
vn -0.3295 -0.6016 0.7276
vn -0.05914 -0.3802 0.923
vn -0.03949 0.04321 0.9983
vn 0.02692 0.006684 0.9996
vn 0.1634 -0.06534 0.9844
vn -0.8004 0.05866 -0.5966
vn -0.6765 0.3376 -0.6545
vn -0.6801 0.3403 -0.6493
vn -0.7996 0.06616 -0.5969
vn -0.6872 0.3454 -0.639
vn -0.8046 0.06247 -0.5905
vn -0.875 -0.207 -0.4376
vn -0.8697 -0.1996 -0.4514
vn -0.8639 -0.214 -0.456
vn -0.06839 0.964 -0.2569
vn -0.2956 0.8319 -0.4696
vn -0.5127 0.6207 -0.5931
vn -0.731 -0.6792 0.06488
vn -0.517 -0.7459 0.4198
vn -0.8373 -0.4908 -0.2408
vn 0.1538 0.9869 0.04904
vn 0.3327 0.8531 0.4019
vn 0.4198 0.5748 0.7024
vn 0.3959 0.2277 0.8896
vn -0.2305 -0.6532 0.7212
vn 0.05023 -0.4282 0.9023
vn 0.2687 -0.1213 0.9555
vn -0.6925 0.3494 -0.6311
vn -0.8105 0.05036 -0.5835
vn -0.858 -0.2391 -0.4545
vn 0.333 -0.6265 0.7047
vn 0.5704 -0.2884 0.769
vn 0.7099 0.09598 0.6977
vn -0.4724 0.522 -0.7102
vn -0.6019 0.3155 -0.7336
vn -0.7059 0.08386 -0.7033
vn -0.7733 -0.2373 -0.5879
vn -0.7081 -0.6236 -0.3312
vn 0.09476 0.9286 -0.3587
vn -0.2578 0.7512 -0.6076
vn -0.4852 -0.8744 -0.004639
vn -0.219 -0.9337 0.2831
vn 0.6419 0.7168 0.272
vn 0.4358 0.8997 -0.02472
vn 0.7305 0.4466 0.5166
vn 0.05359 -0.8493 0.5252
f 1/1/1 2/2/2 3/3/3
f 1/1/1 3/3/3 4/4/4
f 4/4/4 3/3/3 5/5/5
f 4/4/4 5/5/5 6/6/6
f 3/3/3 7/7/7 8/8/8
f 3/3/3 8/8/8 5/5/5
f 2/2/2 9/9/9 7/7/7
f 2/2/2 7/7/7 3/3/3
f 10/10/10 11/11/11 12/12/12
f 10/10/10 12/12/12 13/13/13
f 13/13/13 12/12/12 14/14/14
f 13/13/13 14/14/14 15/15/15
f 12/12/12 16/16/16 17/17/17
f 12/12/12 17/17/17 14/14/14
f 11/11/11 18/18/18 16/16/16
f 11/11/11 16/16/16 12/12/12
f 18/18/18 19/19/19 20/20/20
f 18/18/18 20/20/20 16/16/16
f 16/16/16 20/20/20 21/21/21
f 16/16/16 21/21/21 17/17/17
f 20/20/20 22/22/22 23/23/23
f 20/20/20 23/23/23 21/21/21
f 19/19/19 24/24/24 22/22/22
f 19/19/19 22/22/22 20/20/20
f 25/25/25 26/26/26 27/27/27
f 25/25/25 27/27/27 28/28/28
f 28/28/28 27/27/27 29/29/29
f 28/28/28 29/29/29 30/30/30
f 27/27/27 31/31/31 32/32/32
f 27/27/27 32/32/32 29/29/29
f 26/26/26 33/33/33 31/31/31
f 26/26/26 31/31/31 27/27/27
f 34/34/34 35/35/35 36/36/36
f 34/34/34 36/36/36 37/37/37
f 37/37/37 36/36/36 38/38/38
f 37/37/37 38/38/38 39/39/39
f 36/36/36 40/40/40 41/41/41
f 36/36/36 41/41/41 38/38/38
f 35/35/35 42/42/42 40/40/40
f 35/35/35 40/40/40 36/36/36
f 42/42/42 43/43/43 44/44/44
f 42/42/42 44/44/44 40/40/40
f 40/40/40 44/44/44 45/45/45
f 40/40/40 45/45/45 41/41/41
f 44/44/44 46/46/46 47/47/47
f 44/44/44 47/47/47 45/45/45
f 43/43/43 48/48/48 46/46/46
f 43/43/43 46/46/46 44/44/44
f 49/49/49 50/50/50 51/51/51
f 49/49/49 51/51/51 52/52/52
f 52/52/52 51/51/51 53/53/53
f 52/52/52 53/53/53 54/54/54
f 51/51/51 37/37/37 39/39/39
f 51/51/51 39/39/39 53/53/53
f 50/50/50 34/34/34 37/37/37
f 50/50/50 37/37/37 51/51/51
f 55/55/55 56/56/56 57/57/57
f 55/55/55 57/57/57 58/58/58
f 58/58/58 57/57/57 59/59/59
f 58/58/58 59/59/59 60/60/60
f 57/57/57 52/52/52 54/54/54
f 57/57/57 54/54/54 59/59/59
f 56/56/56 49/49/49 52/52/52
f 56/56/56 52/52/52 57/57/57
f 48/48/48 61/61/61 62/62/62
f 48/48/48 62/62/62 46/46/46
f 46/46/46 62/62/62 63/63/63
f 46/46/46 63/63/63 47/47/47
f 62/62/62 13/13/13 15/15/15
f 62/62/62 15/15/15 63/63/63
f 61/61/61 10/10/10 13/13/13
f 61/61/61 13/13/13 62/62/62
f 55/55/55 58/58/58 64/64/64
f 55/55/55 64/64/64 65/65/65
f 65/65/65 64/64/64 22/22/22
f 65/65/65 22/22/22 24/24/24
f 64/64/64 66/66/66 23/23/23
f 64/64/64 23/23/23 22/22/22
f 58/58/58 60/60/60 66/66/66
f 58/58/58 66/66/66 64/64/64
f 67/67/67 68/68/68 69/69/69
f 67/67/67 69/69/69 70/70/70
f 70/70/70 69/69/69 71/71/71
f 70/70/70 71/71/71 72/72/72
f 69/69/69 73/73/73 74/74/74
f 69/69/69 74/74/74 71/71/71
f 68/68/68 75/75/75 73/73/73
f 68/68/68 73/73/73 69/69/69
f 76/76/76 77/77/77 78/78/78
f 76/76/76 78/78/78 79/79/79
f 79/79/79 78/78/78 80/80/80
f 79/79/79 80/80/80 81/81/81
f 78/78/78 82/82/82 83/83/83
f 78/78/78 83/83/83 80/80/80
f 77/77/77 84/84/84 82/82/82
f 77/77/77 82/82/82 78/78/78
f 81/81/81 80/80/80 85/85/85
f 81/81/81 85/85/85 86/86/86
f 86/86/86 85/85/85 87/87/87
f 86/86/86 87/87/87 88/88/88
f 85/85/85 89/89/89 90/90/90
f 85/85/85 90/90/90 87/87/87
f 80/80/80 83/83/83 89/89/89
f 80/80/80 89/89/89 85/85/85
f 91/91/91 92/92/92 93/93/93
f 91/91/91 93/93/93 94/94/94
f 94/94/94 93/93/93 26/26/26
f 94/94/94 26/26/26 25/25/25
f 93/93/93 95/95/95 33/33/33
f 93/93/93 33/33/33 26/26/26
f 92/92/92 96/96/96 95/95/95
f 92/92/92 95/95/95 93/93/93
f 88/88/88 87/87/87 97/97/97
f 88/88/88 97/97/97 98/98/98
f 98/98/98 97/97/97 99/99/99
f 98/98/98 99/99/99 100/100/100
f 97/97/97 101/101/101 67/67/67
f 97/97/97 67/67/67 99/99/99
f 87/87/87 90/90/90 101/101/101
f 87/87/87 101/101/101 97/97/97
f 102/102/102 103/103/103 104/104/104
f 102/102/102 104/104/104 105/105/105
f 105/105/105 104/104/104 92/92/92
f 105/105/105 92/92/92 91/91/91
f 104/104/104 106/106/106 96/96/96
f 104/104/104 96/96/96 92/92/92
f 103/103/103 72/72/72 106/106/106
f 103/103/103 106/106/106 104/104/104
f 100/100/100 99/99/99 107/107/107
f 100/100/100 107/107/107 108/108/108
f 108/108/108 107/107/107 103/103/103
f 108/108/108 103/103/103 102/102/102
f 107/107/107 70/70/70 72/72/72
f 107/107/107 72/72/72 103/103/103
f 99/99/99 67/67/67 70/70/70
f 99/99/99 70/70/70 107/107/107
f 30/30/30 29/29/29 109/109/109
f 30/30/30 109/109/109 110/110/110
f 110/110/110 109/109/109 77/77/77
f 110/110/110 77/77/77 76/76/76
f 109/109/109 111/111/111 84/84/84
f 109/109/109 84/84/84 77/77/77
f 29/29/29 32/32/32 111/111/111
f 29/29/29 111/111/111 109/109/109
f 112/112/112 113/113/113 114/114/114
f 112/112/112 114/114/114 115/115/115
f 115/115/115 114/114/114 116/116/116
f 115/115/115 116/116/116 117/117/117
f 114/114/114 118/118/118 119/119/119
f 114/114/114 119/119/119 116/116/116
f 113/113/113 120/120/120 118/118/118
f 113/113/113 118/118/118 114/114/114
f 32/32/32 121/121/121 122/122/122
f 32/32/32 122/122/122 111/111/111
f 111/111/111 122/122/122 123/123/123
f 111/111/111 123/123/123 84/84/84
f 122/122/122 124/124/124 125/125/125
f 122/122/122 125/125/125 123/123/123
f 121/121/121 126/126/126 124/124/124
f 121/121/121 124/124/124 122/122/122
f 33/33/33 127/127/127 128/128/128
f 33/33/33 128/128/128 31/31/31
f 31/31/31 128/128/128 121/121/121
f 31/31/31 121/121/121 32/32/32
f 128/128/128 129/129/129 126/126/126
f 128/128/128 126/126/126 121/121/121
f 127/127/127 117/117/117 129/129/129
f 127/127/127 129/129/129 128/128/128
f 84/84/84 123/123/123 130/130/130
f 84/84/84 130/130/130 82/82/82
f 82/82/82 130/130/130 131/131/131
f 82/82/82 131/131/131 83/83/83
f 130/130/130 132/132/132 133/133/133
f 130/130/130 133/133/133 131/131/131
f 123/123/123 125/125/125 132/132/132
f 123/123/123 132/132/132 130/130/130
f 83/83/83 131/131/131 134/134/134
f 83/83/83 134/134/134 89/89/89
f 89/89/89 134/134/134 135/135/135
f 89/89/89 135/135/135 90/90/90
f 134/134/134 136/136/136 137/137/137
f 134/134/134 137/137/137 135/135/135
f 131/131/131 133/133/133 136/136/136
f 131/131/131 136/136/136 134/134/134
f 96/96/96 138/138/138 139/139/139
f 96/96/96 139/139/139 95/95/95
f 95/95/95 139/139/139 127/127/127
f 95/95/95 127/127/127 33/33/33
f 139/139/139 115/115/115 117/117/117
f 139/139/139 117/117/117 127/127/127
f 138/138/138 112/112/112 115/115/115
f 138/138/138 115/115/115 139/139/139
f 90/90/90 135/135/135 140/140/140
f 90/90/90 140/140/140 101/101/101
f 101/101/101 140/140/140 68/68/68
f 101/101/101 68/68/68 67/67/67
f 140/140/140 141/141/141 75/75/75
f 140/140/140 75/75/75 68/68/68
f 135/135/135 137/137/137 141/141/141
f 135/135/135 141/141/141 140/140/140
f 72/72/72 71/71/71 142/142/142
f 72/72/72 142/142/142 106/106/106
f 106/106/106 142/142/142 138/138/138
f 106/106/106 138/138/138 96/96/96
f 142/142/142 143/143/143 112/112/112
f 142/142/142 112/112/112 138/138/138
f 71/71/71 74/74/74 143/143/143
f 71/71/71 143/143/143 142/142/142
f 144/144/144 145/145/145 146/146/146
f 144/144/144 146/146/146 147/147/147
f 148/148/148 147/147/147 146/146/146
f 148/148/148 146/146/146 149/149/149
f 150/150/150 149/149/149 146/146/146
f 150/150/150 146/146/146 151/151/151
f 152/152/152 151/151/151 146/146/146
f 152/152/152 146/146/146 153/153/153
f 154/154/154 153/153/153 146/146/146
f 154/154/154 146/146/146 155/155/155
f 156/156/156 155/155/155 146/146/146
f 156/156/156 146/146/146 157/157/157
f 158/158/158 157/157/157 146/146/146
f 158/158/158 146/146/146 159/159/159
f 160/160/160 159/159/159 146/146/146
f 160/160/160 146/146/146 145/145/145
f 137/137/137 161/161/161 162/162/162
f 137/137/137 162/162/162 141/141/141
f 141/141/141 162/162/162 163/163/163
f 141/141/141 163/163/163 75/75/75
f 162/162/162 164/164/164 165/165/165
f 162/162/162 165/165/165 163/163/163
f 161/161/161 166/166/166 164/164/164
f 161/161/161 164/164/164 162/162/162
f 74/74/74 167/167/167 168/168/168
f 74/74/74 168/168/168 143/143/143
f 143/143/143 168/168/168 113/113/113
f 143/143/143 113/113/113 112/112/112
f 168/168/168 169/169/169 120/120/120
f 168/168/168 120/120/120 113/113/113
f 167/167/167 170/170/170 169/169/169
f 167/167/167 169/169/169 168/168/168
f 75/75/75 163/163/163 171/171/171
f 75/75/75 171/171/171 73/73/73
f 73/73/73 171/171/171 167/167/167
f 73/73/73 167/167/167 74/74/74
f 171/171/171 172/172/172 170/170/170
f 171/171/171 170/170/170 167/167/167
f 163/163/163 165/165/165 172/172/172
f 163/163/163 172/172/172 171/171/171
f 126/126/126 173/173/173 174/174/174
f 126/126/126 174/174/174 124/124/124
f 124/124/124 174/174/174 175/175/175
f 124/124/124 175/175/175 125/125/125
f 174/174/174 176/176/176 177/177/177
f 174/174/174 177/177/177 175/175/175
f 173/173/173 178/178/178 176/176/176
f 173/173/173 176/176/176 174/174/174
f 117/117/117 116/116/116 179/179/179
f 117/117/117 179/179/179 129/129/129
f 129/129/129 179/179/179 173/173/173
f 129/129/129 173/173/173 126/126/126
f 179/179/179 180/180/180 178/178/178
f 179/179/179 178/178/178 173/173/173
f 116/116/116 119/119/119 180/180/180
f 116/116/116 180/180/180 179/179/179
f 125/125/125 175/175/175 181/181/181
f 125/125/125 181/181/181 132/132/132
f 132/132/132 181/181/181 182/182/182
f 132/132/132 182/182/182 133/133/133
f 181/181/181 183/183/183 184/184/184
f 181/181/181 184/184/184 182/182/182
f 175/175/175 177/177/177 183/183/183
f 175/175/175 183/183/183 181/181/181
f 133/133/133 182/182/182 185/185/185
f 133/133/133 185/185/185 136/136/136
f 136/136/136 185/185/185 161/161/161
f 136/136/136 161/161/161 137/137/137
f 185/185/185 186/186/186 166/166/166
f 185/185/185 166/166/166 161/161/161
f 182/182/182 184/184/184 186/186/186
f 182/182/182 186/186/186 185/185/185
f 144/144/144 187/187/187 188/188/188
f 144/144/144 188/188/188 145/145/145
f 145/145/145 188/188/188 189/189/189
f 145/145/145 189/189/189 160/160/160
f 188/188/188 169/169/169 170/170/170
f 188/188/188 170/170/170 189/189/189
f 187/187/187 120/120/120 169/169/169
f 187/187/187 169/169/169 188/188/188
f 154/154/154 190/190/190 191/191/191
f 154/154/154 191/191/191 153/153/153
f 153/153/153 191/191/191 192/192/192
f 153/153/153 192/192/192 152/152/152
f 191/191/191 183/183/183 177/177/177
f 191/191/191 177/177/177 192/192/192
f 190/190/190 184/184/184 183/183/183
f 190/190/190 183/183/183 191/191/191
f 158/158/158 193/193/193 194/194/194
f 158/158/158 194/194/194 157/157/157
f 157/157/157 194/194/194 195/195/195
f 157/157/157 195/195/195 156/156/156
f 194/194/194 164/164/164 166/166/166
f 194/194/194 166/166/166 195/195/195
f 193/193/193 165/165/165 164/164/164
f 193/193/193 164/164/164 194/194/194
f 150/150/150 196/196/196 197/197/197
f 150/150/150 197/197/197 149/149/149
f 149/149/149 197/197/197 198/198/198
f 149/149/149 198/198/198 148/148/148
f 197/197/197 180/180/180 119/119/119
f 197/197/197 119/119/119 198/198/198
f 196/196/196 178/178/178 180/180/180
f 196/196/196 180/180/180 197/197/197
f 148/148/148 198/198/198 199/199/199
f 148/148/148 199/199/199 147/147/147
f 147/147/147 199/199/199 187/187/187
f 147/147/147 187/187/187 144/144/144
f 199/199/199 118/118/118 120/120/120
f 199/199/199 120/120/120 187/187/187
f 198/198/198 119/119/119 118/118/118
f 198/198/198 118/118/118 199/199/199
f 152/152/152 192/192/192 200/200/200
f 152/152/152 200/200/200 151/151/151
f 151/151/151 200/200/200 196/196/196
f 151/151/151 196/196/196 150/150/150
f 200/200/200 176/176/176 178/178/178
f 200/200/200 178/178/178 196/196/196
f 192/192/192 177/177/177 176/176/176
f 192/192/192 176/176/176 200/200/200
f 156/156/156 195/195/195 201/201/201
f 156/156/156 201/201/201 155/155/155
f 155/155/155 201/201/201 190/190/190
f 155/155/155 190/190/190 154/154/154
f 201/201/201 186/186/186 184/184/184
f 201/201/201 184/184/184 190/190/190
f 195/195/195 166/166/166 186/186/186
f 195/195/195 186/186/186 201/201/201
f 160/160/160 189/189/189 202/202/202
f 160/160/160 202/202/202 159/159/159
f 159/159/159 202/202/202 193/193/193
f 159/159/159 193/193/193 158/158/158
f 202/202/202 172/172/172 165/165/165
f 202/202/202 165/165/165 193/193/193
f 189/189/189 170/170/170 172/172/172
f 189/189/189 172/172/172 202/202/202
f 203/203/203 204/204/204 205/205/205
f 203/203/203 205/205/205 206/206/206
f 206/206/206 205/205/205 207/207/207
f 206/206/206 207/207/207 208/208/208
f 205/205/205 65/65/65 24/24/24
f 205/205/205 24/24/24 207/207/207
f 204/204/204 55/55/55 65/65/65
f 204/204/204 65/65/65 205/205/205
f 209/209/209 210/210/210 211/211/211
f 209/209/209 211/211/211 212/212/212
f 212/212/212 211/211/211 61/61/61
f 212/212/212 61/61/61 48/48/48
f 211/211/211 213/213/213 10/10/10
f 211/211/211 10/10/10 61/61/61
f 210/210/210 214/214/214 213/213/213
f 210/210/210 213/213/213 211/211/211
f 203/203/203 215/215/215 216/216/216
f 203/203/203 216/216/216 204/204/204
f 204/204/204 216/216/216 56/56/56
f 204/204/204 56/56/56 55/55/55
f 216/216/216 217/217/217 49/49/49
f 216/216/216 49/49/49 56/56/56
f 215/215/215 218/218/218 217/217/217
f 215/215/215 217/217/217 216/216/216
f 218/218/218 219/219/219 220/220/220
f 218/218/218 220/220/220 217/217/217
f 217/217/217 220/220/220 50/50/50
f 217/217/217 50/50/50 49/49/49
f 220/220/220 221/221/221 34/34/34
f 220/220/220 34/34/34 50/50/50
f 219/219/219 222/222/222 221/221/221
f 219/219/219 221/221/221 220/220/220
f 223/223/223 224/224/224 225/225/225
f 223/223/223 225/225/225 226/226/226
f 226/226/226 225/225/225 43/43/43
f 226/226/226 43/43/43 42/42/42
f 225/225/225 212/212/212 48/48/48
f 225/225/225 48/48/48 43/43/43
f 224/224/224 209/209/209 212/212/212
f 224/224/224 212/212/212 225/225/225
f 222/222/222 227/227/227 228/228/228
f 222/222/222 228/228/228 221/221/221
f 221/221/221 228/228/228 35/35/35
f 221/221/221 35/35/35 34/34/34
f 228/228/228 226/226/226 42/42/42
f 228/228/228 42/42/42 35/35/35
f 227/227/227 223/223/223 226/226/226
f 227/227/227 226/226/226 228/228/228
f 229/229/229 230/230/230 231/231/231
f 229/229/229 231/231/231 232/232/232
f 232/232/232 231/231/231 19/19/19
f 232/232/232 19/19/19 18/18/18
f 231/231/231 207/207/207 24/24/24
f 231/231/231 24/24/24 19/19/19
f 230/230/230 208/208/208 207/207/207
f 230/230/230 207/207/207 231/231/231
f 214/214/214 233/233/233 234/234/234
f 214/214/214 234/234/234 213/213/213
f 213/213/213 234/234/234 11/11/11
f 213/213/213 11/11/11 10/10/10
f 234/234/234 232/232/232 18/18/18
f 234/234/234 18/18/18 11/11/11
f 233/233/233 229/229/229 232/232/232
f 233/233/233 232/232/232 234/234/234
f 235/235/235 236/236/236 237/237/237
f 235/235/235 237/237/237 238/238/238
f 238/238/238 237/237/237 233/233/233
f 238/238/238 233/233/233 214/214/214
f 237/237/237 239/239/239 229/229/229
f 237/237/237 229/229/229 233/233/233
f 236/236/236 240/240/240 239/239/239
f 236/236/236 239/239/239 237/237/237
f 240/240/240 241/241/241 242/242/242
f 240/240/240 242/242/242 239/239/239
f 239/239/239 242/242/242 230/230/230
f 239/239/239 230/230/230 229/229/229
f 242/242/242 243/243/243 208/208/208
f 242/242/242 208/208/208 230/230/230
f 241/241/241 244/244/244 243/243/243
f 241/241/241 243/243/243 242/242/242
f 245/245/245 246/246/246 247/247/247
f 245/245/245 247/247/247 248/248/248
f 248/248/248 247/247/247 227/227/227
f 248/248/248 227/227/227 222/222/222
f 247/247/247 249/249/249 223/223/223
f 247/247/247 223/223/223 227/227/227
f 246/246/246 250/250/250 249/249/249
f 246/246/246 249/249/249 247/247/247
f 250/250/250 251/251/251 252/252/252
f 250/250/250 252/252/252 249/249/249
f 249/249/249 252/252/252 224/224/224
f 249/249/249 224/224/224 223/223/223
f 252/252/252 253/253/253 209/209/209
f 252/252/252 209/209/209 224/224/224
f 251/251/251 254/254/254 253/253/253
f 251/251/251 253/253/253 252/252/252
f 255/255/255 256/256/256 257/257/257
f 255/255/255 257/257/257 258/258/258
f 258/258/258 257/257/257 219/219/219
f 258/258/258 219/219/219 218/218/218
f 257/257/257 248/248/248 222/222/222
f 257/257/257 222/222/222 219/219/219
f 256/256/256 245/245/245 248/248/248
f 256/256/256 248/248/248 257/257/257
f 259/259/259 260/260/260 261/261/261
f 259/259/259 261/261/261 262/262/262
f 262/262/262 261/261/261 215/215/215
f 262/262/262 215/215/215 203/203/203
f 261/261/261 258/258/258 218/218/218
f 261/261/261 218/218/218 215/215/215
f 260/260/260 255/255/255 258/258/258
f 260/260/260 258/258/258 261/261/261
f 254/254/254 263/263/263 264/264/264
f 254/254/254 264/264/264 253/253/253
f 253/253/253 264/264/264 210/210/210
f 253/253/253 210/210/210 209/209/209
f 264/264/264 238/238/238 214/214/214
f 264/264/264 214/214/214 210/210/210
f 263/263/263 235/235/235 238/238/238
f 263/263/263 238/238/238 264/264/264
f 259/259/259 262/262/262 265/265/265
f 259/259/259 265/265/265 266/266/266
f 266/266/266 265/265/265 243/243/243
f 266/266/266 243/243/243 244/244/244
f 265/265/265 206/206/206 208/208/208
f 265/265/265 208/208/208 243/243/243
f 262/262/262 203/203/203 206/206/206
f 262/262/262 206/206/206 265/265/265
f 267/267/267 268/268/268 269/269/269
f 267/267/267 269/269/269 270/270/270
f 270/270/270 269/269/269 271/271/271
f 270/270/270 271/271/271 272/272/272
f 269/269/269 273/273/273 274/274/274
f 269/269/269 274/274/274 271/271/271
f 268/268/268 275/275/275 273/273/273
f 268/268/268 273/273/273 269/269/269
f 1/1/1 276/276/276 277/277/277
f 1/1/1 277/277/277 2/2/2
f 2/2/2 277/277/277 278/278/278
f 2/2/2 278/278/278 9/9/9
f 277/277/277 279/279/279 280/280/280
f 277/277/277 280/280/280 278/278/278
f 276/276/276 281/281/281 279/279/279
f 276/276/276 279/279/279 277/277/277
f 281/281/281 282/282/282 283/283/283
f 281/281/281 283/283/283 279/279/279
f 279/279/279 283/283/283 284/284/284
f 279/279/279 284/284/284 280/280/280
f 283/283/283 285/285/285 286/286/286
f 283/283/283 286/286/286 284/284/284
f 282/282/282 287/287/287 285/285/285
f 282/282/282 285/285/285 283/283/283
f 288/288/288 289/289/289 290/290/290
f 288/288/288 290/290/290 291/291/291
f 291/291/291 290/290/290 292/292/292
f 291/291/291 292/292/292 293/293/293
f 290/290/290 270/270/270 272/272/272
f 290/290/290 272/272/272 292/292/292
f 289/289/289 267/267/267 270/270/270
f 289/289/289 270/270/270 290/290/290
f 287/287/287 294/294/294 295/295/295
f 287/287/287 295/295/295 285/285/285
f 285/285/285 295/295/295 296/296/296
f 285/285/285 296/296/296 286/286/286
f 295/295/295 291/291/291 293/293/293
f 295/295/295 293/293/293 296/296/296
f 294/294/294 288/288/288 291/291/291
f 294/294/294 291/291/291 295/295/295
f 297/297/297 298/298/298 299/299/299
f 297/297/297 299/299/299 300/300/300
f 300/300/300 299/299/299 301/301/301
f 300/300/300 301/301/301 302/302/302
f 299/299/299 5/5/5 8/8/8
f 299/299/299 8/8/8 301/301/301
f 298/298/298 6/6/6 5/5/5
f 298/298/298 5/5/5 299/299/299
f 275/275/275 303/303/303 304/304/304
f 275/275/275 304/304/304 273/273/273
f 273/273/273 304/304/304 305/305/305
f 273/273/273 305/305/305 274/274/274
f 304/304/304 300/300/300 302/302/302
f 304/304/304 302/302/302 305/305/305
f 303/303/303 297/297/297 300/300/300
f 303/303/303 300/300/300 304/304/304
f 9/9/9 306/306/306 307/307/307
f 9/9/9 307/307/307 7/7/7
f 7/7/7 307/307/307 308/308/308
f 7/7/7 308/308/308 8/8/8
f 307/307/307 266/266/266 244/244/244
f 307/307/307 244/244/244 308/308/308
f 306/306/306 259/259/259 266/266/266
f 306/306/306 266/266/266 307/307/307
f 272/272/272 271/271/271 309/309/309
f 272/272/272 309/309/309 310/310/310
f 310/310/310 309/309/309 263/263/263
f 310/310/310 263/263/263 254/254/254
f 309/309/309 311/311/311 235/235/235
f 309/309/309 235/235/235 263/263/263
f 271/271/271 274/274/274 311/311/311
f 271/271/271 311/311/311 309/309/309
f 9/9/9 278/278/278 312/312/312
f 9/9/9 312/312/312 306/306/306
f 306/306/306 312/312/312 260/260/260
f 306/306/306 260/260/260 259/259/259
f 312/312/312 313/313/313 255/255/255
f 312/312/312 255/255/255 260/260/260
f 278/278/278 280/280/280 313/313/313
f 278/278/278 313/313/313 312/312/312
f 280/280/280 284/284/284 314/314/314
f 280/280/280 314/314/314 313/313/313
f 313/313/313 314/314/314 256/256/256
f 313/313/313 256/256/256 255/255/255
f 314/314/314 315/315/315 245/245/245
f 314/314/314 245/245/245 256/256/256
f 284/284/284 286/286/286 315/315/315
f 284/284/284 315/315/315 314/314/314
f 293/293/293 292/292/292 316/316/316
f 293/293/293 316/316/316 317/317/317
f 317/317/317 316/316/316 251/251/251
f 317/317/317 251/251/251 250/250/250
f 316/316/316 310/310/310 254/254/254
f 316/316/316 254/254/254 251/251/251
f 292/292/292 272/272/272 310/310/310
f 292/292/292 310/310/310 316/316/316
f 286/286/286 296/296/296 318/318/318
f 286/286/286 318/318/318 315/315/315
f 315/315/315 318/318/318 246/246/246
f 315/315/315 246/246/246 245/245/245
f 318/318/318 317/317/317 250/250/250
f 318/318/318 250/250/250 246/246/246
f 296/296/296 293/293/293 317/317/317
f 296/296/296 317/317/317 318/318/318
f 302/302/302 301/301/301 319/319/319
f 302/302/302 319/319/319 320/320/320
f 320/320/320 319/319/319 241/241/241
f 320/320/320 241/241/241 240/240/240
f 319/319/319 308/308/308 244/244/244
f 319/319/319 244/244/244 241/241/241
f 301/301/301 8/8/8 308/308/308
f 301/301/301 308/308/308 319/319/319
f 274/274/274 305/305/305 321/321/321
f 274/274/274 321/321/321 311/311/311
f 311/311/311 321/321/321 236/236/236
f 311/311/311 236/236/236 235/235/235
f 321/321/321 320/320/320 240/240/240
f 321/321/321 240/240/240 236/236/236
f 305/305/305 302/302/302 320/320/320
f 305/305/305 320/320/320 321/321/321
f 41/41/41 322/322/322 323/323/323
f 41/41/41 323/323/323 38/38/38
f 38/38/38 323/323/323 324/324/324
f 38/38/38 324/324/324 39/39/39
f 323/323/323 110/110/110 76/76/76
f 323/323/323 76/76/76 324/324/324
f 322/322/322 30/30/30 110/110/110
f 322/322/322 110/110/110 323/323/323
f 23/23/23 325/325/325 326/326/326
f 23/23/23 326/326/326 21/21/21
f 21/21/21 326/326/326 327/327/327
f 21/21/21 327/327/327 17/17/17
f 326/326/326 108/108/108 102/102/102
f 326/326/326 102/102/102 327/327/327
f 325/325/325 100/100/100 108/108/108
f 325/325/325 108/108/108 326/326/326
f 17/17/17 327/327/327 328/328/328
f 17/17/17 328/328/328 14/14/14
f 14/14/14 328/328/328 329/329/329
f 14/14/14 329/329/329 15/15/15
f 328/328/328 105/105/105 91/91/91
f 328/328/328 91/91/91 329/329/329
f 327/327/327 102/102/102 105/105/105
f 327/327/327 105/105/105 328/328/328
f 60/60/60 330/330/330 331/331/331
f 60/60/60 331/331/331 66/66/66
f 66/66/66 331/331/331 325/325/325
f 66/66/66 325/325/325 23/23/23
f 331/331/331 98/98/98 100/100/100
f 331/331/331 100/100/100 325/325/325
f 330/330/330 88/88/88 98/98/98
f 330/330/330 98/98/98 331/331/331
f 15/15/15 329/329/329 332/332/332
f 15/15/15 332/332/332 63/63/63
f 63/63/63 332/332/332 333/333/333
f 63/63/63 333/333/333 47/47/47
f 332/332/332 94/94/94 25/25/25
f 332/332/332 25/25/25 333/333/333
f 329/329/329 91/91/91 94/94/94
f 329/329/329 94/94/94 332/332/332
f 54/54/54 334/334/334 335/335/335
f 54/54/54 335/335/335 59/59/59
f 59/59/59 335/335/335 330/330/330
f 59/59/59 330/330/330 60/60/60
f 335/335/335 86/86/86 88/88/88
f 335/335/335 88/88/88 330/330/330
f 334/334/334 81/81/81 86/86/86
f 334/334/334 86/86/86 335/335/335
f 39/39/39 324/324/324 336/336/336
f 39/39/39 336/336/336 53/53/53
f 53/53/53 336/336/336 334/334/334
f 53/53/53 334/334/334 54/54/54
f 336/336/336 79/79/79 81/81/81
f 336/336/336 81/81/81 334/334/334
f 324/324/324 76/76/76 79/79/79
f 324/324/324 79/79/79 336/336/336
f 47/47/47 333/333/333 337/337/337
f 47/47/47 337/337/337 45/45/45
f 45/45/45 337/337/337 322/322/322
f 45/45/45 322/322/322 41/41/41
f 337/337/337 28/28/28 30/30/30
f 337/337/337 30/30/30 322/322/322
f 333/333/333 25/25/25 28/28/28
f 333/333/333 28/28/28 337/337/337
