v 1.56409 0.970002 0.127076
v 1.56533 0.972253 0.125134
v 1.56517 0.970475 0.123129
v 1.56398 0.968626 0.125488
v 1.56562 0.968194 0.121767
v 1.56435 0.966847 0.124407
v 1.56676 0.972451 0.120556
v 1.56732 0.969717 0.118923
v 1.56694 0.974582 0.122962
v 1.56561 0.97078 0.130796
v 1.56733 0.973301 0.129849
v 1.56609 0.973238 0.127496
v 1.56467 0.970752 0.128941
v 1.56784 0.975763 0.125797
v 1.56932 0.975837 0.128626
v 1.56918 0.97701 0.120432
v 1.56904 0.974613 0.117657
v 1.56971 0.971519 0.11577
v 1.57176 0.976762 0.114727
v 1.57254 0.97342 0.112602
v 1.57186 0.97933 0.117826
v 1.57177 0.978366 0.126946
v 1.57015 0.978319 0.123695
v 1.57283 0.980704 0.121434
v 1.57451 0.980706 0.125008
v 1.56664 0.965746 0.121272
v 1.56514 0.964929 0.124014
v 1.56804 0.963497 0.121693
v 1.56624 0.963163 0.124351
v 1.56853 0.966782 0.118328
v 1.57022 0.964084 0.118831
v 1.57111 0.968182 0.115081
v 1.57302 0.965103 0.11566
v 1.57409 0.969796 0.111825
v 1.57616 0.966438 0.112477
v 1.56865 0.961108 0.126941
v 1.56747 0.961827 0.125384
v 1.56963 0.961797 0.122993
v 1.57117 0.960887 0.124957
v 1.57213 0.962041 0.120387
v 1.57397 0.96094 0.122741
v 1.57516 0.962757 0.117455
v 1.57721 0.961477 0.120167
v 1.57845 0.963866 0.114495
v 1.58061 0.962442 0.117523
v 1.58178 0.965259 0.111736
v 1.58401 0.963748 0.11503
v 1.58579 0.967017 0.108704
v 1.58812 0.965442 0.112225
v 1.5794 0.967968 0.109509
v 1.58328 0.969846 0.106299
v 1.57559 0.975292 0.109645
v 1.57723 0.971495 0.108785
v 1.58101 0.973535 0.105516
v 1.57929 0.977507 0.106446
v 1.58572 0.963701 0.118858
v 1.58231 0.962422 0.121107
v 1.58669 0.965089 0.122663
v 1.58329 0.963774 0.124707
v 1.5899 0.965395 0.116261
v 1.5909 0.966845 0.120245
v 1.57884 0.961494 0.123409
v 1.57546 0.960983 0.125559
v 1.57983 0.962776 0.126682
v 1.57638 0.962138 0.128407
v 1.57999 0.965167 0.129481
v 1.57657 0.964265 0.130842
v 1.57932 0.968278 0.131392
v 1.57602 0.967016 0.132505
v 1.58339 0.966336 0.12778
v 1.58261 0.969688 0.129878
v 1.58673 0.967744 0.125904
v 1.58587 0.971233 0.128119
v 1.59093 0.969617 0.123636
v 1.59003 0.97326 0.125961
v 1.58423 0.97504 0.128933
v 1.58105 0.973333 0.130646
v 1.58205 0.978582 0.12826
v 1.57897 0.976712 0.130003
v 1.58832 0.977239 0.126838
v 1.58605 0.980941 0.126152
v 1.5779 0.971646 0.13209
v 1.5748 0.969983 0.13311
v 1.57598 0.974752 0.131501
v 1.57309 0.972706 0.132596
v 1.57382 0.977102 0.129682
v 1.57117 0.974754 0.13101
v 1.57667 0.979291 0.12801
v 1.57968 0.981301 0.12616
v 1.57747 0.982813 0.122993
v 1.58357 0.983779 0.123946
v 1.58125 0.985358 0.120613
v 1.57576 0.98285 0.119213
v 1.5748 0.981448 0.11536
v 1.57946 0.985402 0.116645
v 1.57846 0.983943 0.112578
v 1.59164 0.984273 0.123487
v 1.58893 0.987273 0.121126
v 1.58636 0.988912 0.117549
v 1.59513 0.991248 0.117585
v 1.59228 0.992938 0.113811
v 1.5981 0.988089 0.120065
v 1.58437 0.988917 0.113322
v 1.58323 0.987323 0.109016
v 1.59005 0.992882 0.109356
v 1.58872 0.991126 0.104844
v 1.60465 0.991853 0.11572
v 1.6015 0.995121 0.113231
v 1.59846 0.996846 0.109418
v 1.60846 0.999179 0.107915
v 1.6053 1.00094 0.104078
v 1.61172 0.99583 0.11042
v 1.59603 0.996736 0.10486
v 1.59456 0.994854 0.100238
v 1.60276 1.0008 0.0994534
v 1.60121 0.998846 0.0947628
v 1.58312 0.984321 0.105213
v 1.57841 0.981158 0.108974
v 1.58402 0.980403 0.10255
v 1.58852 0.98788 0.100904
v 1.58944 0.983676 0.0981668
v 1.59428 0.991434 0.0962439
v 1.5952 0.98703 0.0934902
v 1.60095 0.995344 0.0907383
v 1.60195 0.990844 0.0879753
v 1.58585 0.976155 0.101569
v 1.58831 0.972224 0.102391
v 1.59137 0.979138 0.0971584
v 1.59401 0.974958 0.0979955
v 1.59722 0.982293 0.0924739
v 1.59999 0.977943 0.0933068
v 1.60407 0.985996 0.0869456
v 1.60693 0.981525 0.0877626
v 1.59978 0.970078 0.10443
v 1.59697 0.97179 0.100588
v 1.60312 0.974663 0.0959066
v 1.60612 0.972914 0.0997981
v 1.6101 0.97813 0.0903558
v 1.61316 0.976315 0.0942748
v 1.59102 0.969225 0.104919
v 1.59357 0.967576 0.108632
v 1.60853 0.973013 0.10438
v 1.60199 0.970125 0.108901
v 1.61 0.974893 0.108938
v 1.60331 0.971875 0.113338
v 1.61566 0.976429 0.0989346
v 1.61722 0.97839 0.103591
v 1.59555 0.967565 0.112902
v 1.59668 0.969153 0.117122
v 1.59677 0.972144 0.120715
v 1.59586 0.976059 0.1232
v 1.6035 0.975114 0.117106
v 1.60259 0.979323 0.119717
v 1.61028 0.978315 0.112779
v 1.60937 0.982731 0.115411
v 1.61756 0.981933 0.107512
v 1.61664 0.986481 0.110178
v 1.6074 0.98749 0.116447
v 1.6007 0.983888 0.120769
v 1.61459 0.991362 0.111188
v 1.59406 0.980324 0.12418
v 1.62579 0.982653 0.0968132
v 1.62611 0.986264 0.100947
v 1.62515 0.99091 0.103778
v 1.6368 0.991655 0.0923598
v 1.63573 0.996363 0.0954503
v 1.63656 0.988076 0.08788
v 1.623 0.995905 0.10484
v 1.62004 1.00049 0.104011
v 1.63344 1.00153 0.096612
v 1.63037 1.00631 0.0957094
v 1.61671 1.00393 0.10136
v 1.6135 1.00575 0.0973462
v 1.62701 1.00991 0.0928213
v 1.62384 1.01179 0.0884802
v 1.63923 1.01705 0.08228
v 1.63622 1.019 0.0775481
v 1.64967 1.02288 0.0730786
v 1.6469 1.02486 0.0681592
v 1.64257 1.01324 0.0854014
v 1.65292 1.01896 0.0762847
v 1.64577 1.00815 0.0863757
v 1.65616 1.01371 0.0772838
v 1.64826 1.00275 0.0851207
v 1.65876 1.00827 0.0759941
v 1.65504 1.02519 0.0682396
v 1.6525 1.02711 0.063554
v 1.65717 1.02518 0.0661398
v 1.65487 1.02695 0.0619569
v 1.65807 1.02141 0.071275
v 1.65991 1.02173 0.0688526
v 1.66114 1.0164 0.0722186
v 1.66266 1.01724 0.0696952
v 1.66365 1.01128 0.0709871
v 1.66492 1.01268 0.0685855
v 1.65835 1.02441 0.0647169
v 1.65628 1.02601 0.061092
v 1.65751 1.0226 0.0647991
v 1.65565 1.02401 0.0616972
v 1.66076 1.0214 0.0670879
v 1.65961 1.02004 0.0668502
v 1.66315 1.01751 0.0678278
v 1.66165 1.01673 0.0674934
v 1.6651 1.01354 0.0668616
v 1.66331 1.0133 0.066664
v 1.6521 1.01458 0.0697923
v 1.65004 1.01525 0.0684341
v 1.65376 1.01932 0.0670099
v 1.65563 1.01725 0.0687316
v 1.65217 1.02059 0.0643828
v 1.64934 1.01718 0.0664106
v 1.65454 1.01013 0.0696599
v 1.65248 1.01191 0.0699744
v 1.65727 1.01442 0.0692731
v 1.65875 1.01155 0.0685701
v 1.64784 1.01642 0.061582
v 1.648 1.01609 0.0645701
v 1.64893 1.0101 0.0659388
v 1.64775 1.0141 0.0606437
v 1.64889 1.01299 0.0580165
v 1.64946 1.01043 0.0589085
v 1.65136 1.0086 0.0578827
v 1.65169 1.00702 0.0604148
v 1.6537 1.00582 0.0612482
v 1.6535 1.0061 0.0642575
v 1.65517 1.00658 0.0660865
v 1.65394 1.00815 0.0682179
v 1.65942 1.00899 0.0667113
v 1.65958 1.00709 0.0639869
v 1.66425 1.01037 0.0644472
v 1.66435 1.00823 0.0612344
v 1.65882 1.00609 0.0609148
v 1.65781 1.0062 0.0577364
v 1.66361 1.00713 0.0574982
v 1.66245 1.0074 0.0537314
v 1.66622 1.00896 0.0656168
v 1.66623 1.01025 0.0642773
v 1.66636 1.00792 0.060512
v 1.66637 1.00641 0.061266
v 1.66541 1.00524 0.0561382
v 1.66552 1.00678 0.0561033
v 1.66432 1.00722 0.0516432
v 1.6641 1.00587 0.0509684
v 1.66016 1.00372 0.072539
v 1.66506 1.0071 0.0676871
v 1.66518 1.00427 0.0628266
v 1.6602 1.00058 0.0674528
v 1.65899 0.999213 0.0614388
v 1.6641 1.00304 0.05707
v 1.66264 1.00383 0.0513077
v 1.6573 0.99999 0.0554659
v 1.64952 0.99805 0.0817728
v 1.64941 0.994642 0.0768873
v 1.63505 0.986195 0.0826835
v 1.64805 0.99301 0.0711732
v 1.64606 0.993509 0.0655371
v 1.63277 0.986347 0.0775695
v 1.62175 0.980622 0.087176
v 1.62421 0.980672 0.0919728
v 1.63021 0.988638 0.0733235
v 1.64404 0.996241 0.0608721
v 1.65582 1.00303 0.0504995
v 1.64185 1.00043 0.0578202
v 1.65419 1.00739 0.0472249
v 1.62747 0.992492 0.0705491
v 1.61884 0.982602 0.0831713
v 1.61577 0.98618 0.080543
v 1.62467 0.997176 0.0697045
v 1.63929 1.00514 0.0568627
v 1.65195 1.01202 0.0461604
v 1.63664 1.00975 0.0580902
v 1.64923 1.01633 0.0474363
v 1.62219 1.002 0.070849
v 1.6106 0.995661 0.08081
v 1.61288 0.99077 0.0797368
v 1.66151 1.0068 0.0464399
v 1.66311 1.0085 0.0465118
v 1.66024 1.01101 0.0431816
v 1.66196 1.01232 0.0434768
v 1.65823 1.0154 0.0420986
v 1.66012 1.01636 0.042454
v 1.65561 1.01938 0.0433476
v 1.6577 1.02002 0.0436091
v 1.66328 1.00944 0.0477462
v 1.66129 1.00919 0.0504417
v 1.66208 1.01277 0.045062
v 1.65995 1.01202 0.0481786
v 1.66033 1.01641 0.044149
v 1.65827 1.01524 0.0474156
v 1.65819 1.01979 0.0451663
v 1.65643 1.01835 0.048282
v 1.65648 1.0076 0.0551623
v 1.65516 1.00991 0.0532551
v 1.65351 1.01265 0.052795
v 1.65205 1.01546 0.0533902
v 1.65082 1.01779 0.0554393
v 1.65041 1.01965 0.0581252
v 1.65479 1.02095 0.0507049
v 1.65394 1.02288 0.054148
v 1.65088 1.02054 0.0613401
v 1.65432 1.02401 0.0579856
v 1.65515 1.02293 0.0468572
v 1.65607 1.02251 0.0480351
v 1.65476 1.02457 0.0521262
v 1.65345 1.02517 0.0515359
v 1.65345 1.02674 0.0568381
v 1.65492 1.02591 0.0566955
v 1.64651 1.01993 0.0509605
v 1.65281 1.02259 0.0468428
v 1.65094 1.02509 0.0519393
v 1.64482 1.02274 0.0561372
v 1.64507 1.02461 0.0621946
v 1.65094 1.02685 0.0578222
v 1.6205 1.00633 0.0738526
v 1.63437 1.01376 0.0613893
v 1.63329 1.01687 0.0662233
v 1.62011 1.00968 0.0782271
v 1.62135 1.01163 0.0833573
v 1.63404 1.0188 0.0719026
v 1.60941 1.00363 0.0877518
v 1.60934 1.00015 0.0836372
v 1.61091 1.0056 0.0925656
v 1.57475 0.978782 0.111988
v 1.56992 0.965041 0.13333
v 1.57291 0.965967 0.133076
v 1.57189 0.968434 0.133577
v 1.56912 0.966959 0.133722
v 1.57048 0.970698 0.133149
v 1.56803 0.968725 0.133386
v 1.56887 0.972401 0.131831
v 1.56679 0.970062 0.132352
v 1.57018 0.961886 0.130661
v 1.57319 0.961899 0.129673
v 1.57336 0.963675 0.131696
v 1.57028 0.963262 0.132249
v 1.57242 0.96093 0.127304
v 1.5696 0.961136 0.128795
vt 0.08333 0.9167
vt 0.0843 0.08419
vt 0.9151 0.9149
vt 0.01147 0.2613
vt 0.01112 0.261
vt 0.08433 0.9159
vt 0.0004738 0.5001
vt 0.0004723 0.5001
vt 0.01042 0.7396
vt 0.01114 0.7391
vt 0.9886 0.7387
vt 0.9155 0.9154
vt 0.01112 0.261
vt 0.0007095 0.5001
vt 0.01114 0.7391
vt 0.08478 0.08462
vt 0.7389 0.9886
vt 0.01147 0.2613
vt 0.989 0.739
vt 0 0.5
vt 0.01042 0.7396
vt 0.5003 0.0006633
vt 0.7386 0.9883
vt 0.2615 0.01137
vt 0.2612 0.989
vt 0.7386 0.9883
vt 0.9996 0.5
vt 0.2604 0.01042
vt 0.01187 0.7385
vt 0.5 -1.192e-07
vt 0.01114 0.7391
vt 0.7389 0.9886
vt 0.5002 0.0004414
vt 0.2619 0.01169
vt 0.0004723 0.5001
vt 0.08526 0.08505
vt 0.9155 0.9154
vt 0.5002 0.9994
vt 0.9151 0.9149
vt 0.2612 0.01105
vt 0.0009446 0.5001
vt 0.5003 0.9992
vt 0.2612 0.01105
vt 0.2612 0.01105
vt 0.08532 0.9151
vt 0.7389 0.9886
vt 0.5003 0.0008831
vt 0.9994 0.5001
vt 0.01187 0.7385
vt 0.5002 0.0004414
vt 0.08433 0.9159
vt 0.9893 0.7393
vt 0.7391 0.9889
vt 0.9159 0.9158
vt 0.08482 0.9155
vt 0.5002 0.9996
vt 0.0843 0.08419
vt 0.2619 0.01169
vt 0.01114 0.7391
vt 0.9159 0.9158
vt 0.5002 0.9996
vt 0.5002 0.9994
vt 0.9155 0.9154
vt 0.08526 0.08505
vt 0.5 1
vt 0.9155 0.9154
vt 0.9886 0.7387
vt 0.0843 0.08419
vt 0.2604 0.9896
vt 0.2604 0.01042
vt 0.2612 0.989
vt 0.9159 0.9158
vt 0.08333 0.08333
vt 0.989 0.739
vt 0.2604 0.9896
vt 0.7391 0.9889
vt 0.2612 0.01105
vt 0.2619 0.01169
vt 0.2612 0.989
vt 0.9998 0.5
vt 0.08333 0.9167
vt 0.7389 0.9886
vt 0.9893 0.7393
vt 0.5003 0.0008831
vt 0.08433 0.9159
vt 0.9159 0.9158
vt 0.9895 0.7395
vt 0.2615 0.01137
vt 0.9162 0.9162
vt 0.5003 0.0006633
vt 0.2612 0.01106
vt 0.2619 0.9884
vt 0.7393 0.9892
vt 0.9162 0.9162
vt 0.5002 0.000443
vt 0.08532 0.9151
vt 0.9165 0.9165
vt 0.7391 0.9889
vt 0.2615 0.01137
vt 0.0843 0.08419
vt 0.08433 0.9159
vt 0.5003 0.9992
vt 0.7391 0.9889
vt 0.2619 0.01169
vt 0.2612 0.01106
vt 0.2619 0.9884
vt 0.01112 0.261
vt 0.7393 0.9892
vt 0.08478 0.08462
vt 0.01078 0.2607
vt 0.5002 0.9996
vt 0.08482 0.9155
vt 0.5001 0.9998
vt 0.08526 0.08505
vt 0.9895 0.7395
vt 0.2612 0.989
vt 0.5002 0.9996
vt 0.9162 0.9162
vt 0.2615 0.01137
vt 0.08478 0.08462
vt 0.08532 0.9151
vt 0.7393 0.9892
vt 0.5002 0.000443
vt 0.9893 0.7393
vt 0.0115 0.7388
vt 0.7395 0.9895
vt 0.5001 0.000231
vt 0.2612 0.01106
vt 0.01187 0.7385
vt 0.5 0.9999
vt 0.2608 0.01075
vt 0.989 0.739
vt 0.01187 0.7385
vt 0.0115 0.7388
vt 0.5001 0.000231
vt 0.5001 0.9998
vt 0.2608 0.01075
vt 0.989 0.739
vt 0.0007095 0.5001
vt 0.9162 0.9162
vt 0.2605 0.01052
vt 0.9165 0.9165
vt 0.5 7.397e-05
vt 0.08384 0.08378
vt 0.0009446 0.5001
vt 0.9893 0.7393
vt 0.0115 0.7388
vt 0.7395 0.9895
vt 0.2608 0.01075
vt 0.7393 0.9892
vt 0.2612 0.01106
vt 0.08349 0.08348
vt 0.01114 0.7391
vt 0.5002 0.9996
vt 0.2605 0.01052
vt 0.2608 0.01075
vt 0.0004738 0.5001
vt 0.5001 0.9998
vt 0.0843 0.08419
vt 0.0004738 0.5001
vt 0.2608 0.9893
vt 0.5003 0.0006633
vt 0.2612 0.989
vt 0.08384 0.08378
vt 0.7393 0.01078
vt 0.0007095 0.5001
vt 0.01042 0.2604
vt 0.2612 0.989
vt 0.0002471 0.5
vt 0.01078 0.2607
vt 0.08433 0.9159
vt 0.2608 0.9893
vt 0.9998 0.5
vt 0.01112 0.261
vt 0.01114 0.7391
vt 0.08385 0.9162
vt 0.9996 0.5
vt 0.0843 0.08419
vt 0.5003 0.9992
vt 0.08384 0.08378
vt 0.0115 0.7388
vt 0.08433 0.9159
vt 0.01078 0.2607
vt 0.9893 0.2608
vt 0.5002 0.9994
vt 0.2608 0.9893
vt 0.9895 0.2605
vt 0.08349 0.08348
vt 0.2619 0.9884
vt 0.01053 0.2605
vt 0.2615 0.9887
vt 0.2605 0.9895
vt 0.08384 0.08378
vt 0.9165 0.08349
vt 0.2619 0.9884
vt 0.0835 0.9165
vt 0.9163 0.08382
vt 7.91e-05 0.5
vt 0.08482 0.9155
vt 0.0002471 0.5
vt 0.2615 0.9887
vt 0.08385 0.9162
vt 0.01053 0.2605
vt 0.9998 0.5
vt 0.08532 0.9151
vt 0.2615 0.9887
vt 0.5002 0.000443
vt 0.5001 0.9998
vt 0.01078 0.2607
vt 0.9999 0.5
vt 0.2612 0.989
vt 0.08433 0.9159
vt 0.5001 0.000231
vt 0.5 0.9999
vt 0.7391 0.01111
vt 0.01112 0.261
vt 0.9887 0.2614
vt 0.2605 0.9895
vt 0.9884 0.2617
vt 0.01182 0.2617
vt 0.9887 0.2614
vt 0.0009446 0.5001
vt 0.9155 0.08473
vt 0.5002 0.9994
vt 0.7391 0.01111
vt 0.08482 0.9155
vt 0.7393 0.01078
vt 0.2608 0.9893
vt 0.7393 0.01078
vt 0.9163 0.08382
vt 0.5002 0.9996
vt 0.9165 0.9165
vt 0.9895 0.2605
vt 0.9159 0.08426
vt 0.2612 0.989
vt 0.7395 0.01053
vt 0.9166 0.9166
vt 0.7393 0.01078
vt 0.2615 0.9887
vt 0.9165 0.08349
vt 0.7396 0.9896
vt 0.9893 0.2608
vt 0 0.5
vt 0.5001 0.000231
vt 0.7395 0.9895
vt 0.9163 0.08382
vt 0.0004723 0.5001
vt 0.5 7.397e-05
vt 0.7395 0.9895
vt 0.9996 0.5
vt 0.01112 0.261
vt 0.7396 0.9896
vt 0.7395 0.01053
vt 0.5003 0.0008831
vt 0.5 1
vt 0.7387 0.0118
vt 0.01042 0.2604
vt 0.7387 0.0118
vt 0.5 0.9999
vt 0.7389 0.01145
vt 0.7396 0.9896
vt 0.7389 0.01145
vt 0.9151 0.08519
vt 0.08333 0.08333
vt 0.01112 0.261
vt 0.7396 0.9896
vt 0.9155 0.08473
vt 0.7389 0.01145
vt 0.5 1
vt 0.7391 0.01111
vt 0.9893 0.2608
vt 0.01112 0.261
vt 0.0843 0.08419
vt 0.9998 0.5
vt 0.5 1
vt 0.9166 0.9166
vt 0.9155 0.08473
vt 0.9159 0.08426
vt 0.01182 0.2617
vt 0.9167 0.9167
vt 0.5003 0.0006633
vt 0.989 0.2611
vt 0.08526 0.08505
vt 0.7396 0.9896
vt 0.7391 0.01111
vt 0.5002 0.000443
vt 0.0843 0.08419
vt 0.7396 0.9896
vt 0.7389 0.01145
vt 0.989 0.2611
vt 0.0004723 0.5001
vt 0.5 0.9999
vt 0.9151 0.08519
vt 0.5 1
vt 0.9884 0.2617
vt 0.2604 0.9896
vt 0.9994 0.5001
vt 0.9992 0.5001
vt 0.0009446 0.5001
vt 0.2605 0.9895
vt 0.9887 0.2614
vt 0.9996 0.5
vt 0.2605 0.9895
vt 0.989 0.2611
vt 0.0007095 0.5001
vt 0.9994 0.5001
vt 0.2604 0.9896
vt 0.9159 0.08426
vt 0.08335 0.9166
vt 0.9155 0.08473
vt 0.01147 0.2613
vt 0.989 0.2611
vt 0.0835 0.9165
vt 0.9159 0.08426
vt 0.2604 0.9896
vt 0.9887 0.2614
vt 0.01182 0.2617
vt 0.9163 0.08382
vt 0.2604 0.9896
vt 0.9893 0.2608
vt 0.08333 0.9167
vt 0.08335 0.9166
vt 0.5 1
vt 0.01147 0.2613
vt 0.9883 0.7384
vt 0.5 1
vt 0.9994 0.5001
vt 0.9999 0.5
vt 0.01182 0.2617
vt 0.2604 0.9896
vt 0.9992 0.5001
vt 0.08478 0.08462
vt 0.9886 0.7387
vt 0.2604 0.9896
vt 0.9886 0.7387
vt 0.9167 0.9167
vt 0.9883 0.7384
vn -0.8991 0.4315 -0.07312
vn -0.883 0.4581 -0.1021
vn -0.9128 0.2196 -0.3442
vn -0.929 0.1985 -0.3122
vn -0.8617 -0.06961 -0.5026
vn -0.8793 -0.0853 -0.4686
vn -0.8718 0.2722 -0.4072
vn -0.8196 -0.03082 -0.572
vn -0.838 0.5231 -0.1553
vn -0.6039 0.6062 0.5175
vn -0.5818 0.642 0.4992
vn -0.7689 0.6094 0.1931
vn -0.7869 0.5775 0.2173
vn -0.7146 0.6828 0.152
vn -0.5137 0.7181 0.4695
vn -0.7837 0.5844 -0.2106
vn -0.8229 0.3228 -0.4675
vn -0.7727 0.007477 -0.6348
vn -0.776 0.3683 -0.5121
vn -0.7316 0.04263 -0.6804
vn -0.73 0.6346 -0.2535
vn -0.4386 0.7886 0.4309
vn -0.6515 0.7513 0.105
vn -0.5931 0.8023 0.06696
vn -0.3759 0.8365 0.3987
vn -0.7392 -0.3718 -0.5616
vn -0.759 -0.3825 -0.5268
vn -0.5607 -0.6502 -0.5126
vn -0.5835 -0.6566 -0.4779
vn -0.6918 -0.3467 -0.6334
vn -0.5042 -0.637 -0.583
vn -0.6416 -0.3202 -0.697
vn -0.4453 -0.6196 -0.6464
vn -0.599 -0.2978 -0.7433
vn -0.3923 -0.6054 -0.6925
vn -0.1543 -0.9843 -0.08618
vn -0.3724 -0.8689 -0.3261
vn -0.346 -0.8666 -0.3595
vn -0.1234 -0.9854 -0.1172
vn -0.2779 -0.862 -0.4239
vn -0.04233 -0.9842 -0.1719
vn -0.2069 -0.8495 -0.4852
vn 0.04059 -0.9727 -0.2283
vn -0.1415 -0.8359 -0.5303
vn 0.1134 -0.9556 -0.2717
vn -0.08856 -0.8256 -0.5573
vn 0.1636 -0.9412 -0.2954
vn -0.06415 -0.823 -0.5643
vn 0.1768 -0.9384 -0.2968
vn -0.3445 -0.5948 -0.7262
vn -0.314 -0.5892 -0.7444
vn -0.6963 0.07535 -0.7137
vn -0.5599 -0.2774 -0.7807
vn -0.5319 -0.2629 -0.805
vn -0.6747 0.09641 -0.7317
vn 0.3789 -0.925 0.02936
vn 0.3353 -0.9408 0.04993
vn 0.5236 -0.77 0.3644
vn 0.4881 -0.7855 0.3803
vn 0.3824 -0.9235 0.03018
vn 0.5192 -0.7714 0.3679
vn 0.26 -0.9615 0.08856
vn 0.1669 -0.9764 0.1368
vn 0.4139 -0.811 0.4133
vn 0.3133 -0.8343 0.4536
vn 0.4757 -0.546 0.6896
vn 0.3715 -0.5803 0.7247
vn 0.4346 -0.2123 0.8752
vn 0.3297 -0.2569 0.9084
vn 0.5466 -0.5159 0.6596
vn 0.5025 -0.1795 0.8457
vn 0.5734 -0.5024 0.6471
vn 0.5226 -0.17 0.8354
vn 0.5616 -0.5084 0.6528
vn 0.5054 -0.1828 0.8433
vn 0.3805 0.1796 0.9071
vn 0.3636 0.1726 0.9154
vn 0.1661 0.4997 0.8501
vn 0.1479 0.4906 0.8587
vn 0.3604 0.1633 0.9184
vn 0.1452 0.4874 0.861
vn 0.2973 0.1383 0.9447
vn 0.1946 0.08506 0.9772
vn 0.08191 0.4534 0.8875
vn -0.01535 0.3926 0.9196
vn -0.1781 0.6838 0.7076
vn -0.2658 0.6167 0.741
vn -0.1127 0.7259 0.6785
vn -0.08869 0.7401 0.6666
vn -0.3441 0.8574 0.3826
vn -0.1044 0.733 0.6722
vn -0.3495 0.8542 0.3848
vn -0.5561 0.8298 0.04645
vn -0.6909 0.6676 -0.2772
vn -0.5531 0.8318 0.047
vn -0.6815 0.6766 -0.2786
vn 0.1469 0.4858 0.8616
vn -0.1057 0.7336 0.6713
vn -0.35 0.8535 0.3859
vn -0.06272 0.7555 0.6522
vn -0.3194 0.8706 0.374
vn 0.1994 0.5105 0.8364
vn -0.5531 0.8315 0.05106
vn -0.6813 0.6783 -0.2751
vn -0.5336 0.8445 0.04486
vn -0.6715 0.6861 -0.2797
vn 0.2572 0.5387 0.8023
vn -0.009888 0.7786 0.6274
vn -0.2804 0.8909 0.3572
vn 0.01831 0.7905 0.6122
vn -0.2575 0.9024 0.3454
vn 0.2831 0.5537 0.7831
vn -0.5096 0.8597 0.03342
vn -0.6604 0.6932 -0.2886
vn -0.4965 0.8677 0.02481
vn -0.6569 0.6933 -0.2962
vn -0.7199 0.4274 -0.5469
vn -0.7231 0.423 -0.5459
vn -0.666 0.1032 -0.7388
vn -0.7154 0.4283 -0.552
vn -0.6624 0.1011 -0.7423
vn -0.7116 0.4248 -0.5595
vn -0.661 0.09363 -0.7445
vn -0.7123 0.4141 -0.5667
vn -0.661 0.08084 -0.746
vn -0.5194 -0.2567 -0.815
vn -0.3029 -0.5862 -0.7514
vn -0.5171 -0.256 -0.8167
vn -0.3023 -0.5825 -0.7544
vn -0.5187 -0.2577 -0.8152
vn -0.307 -0.5776 -0.7563
vn -0.5218 -0.2606 -0.8123
vn -0.3164 -0.571 -0.7575
vn 0.1898 -0.9356 -0.2976
vn -0.05512 -0.8198 -0.5699
vn -0.05573 -0.8146 -0.5773
vn 0.2019 -0.9301 -0.3067
vn -0.06467 -0.8084 -0.585
vn 0.2043 -0.9268 -0.3152
vn -0.05829 -0.823 -0.565
vn 0.1782 -0.9393 -0.2931
vn 0.4286 -0.9033 0.01682
vn 0.4029 -0.9148 0.0286
vn 0.5841 -0.7352 0.3438
vn 0.5474 -0.7549 0.3612
vn 0.4431 -0.8964 0.007263
vn 0.6066 -0.7236 0.3292
vn 0.3821 -0.9235 0.03458
vn 0.5183 -0.7703 0.3713
vn 0.5605 -0.5082 0.6539
vn 0.5062 -0.1867 0.8419
vn 0.5968 -0.4865 0.638
vn 0.5504 -0.1623 0.8189
vn 0.6413 -0.4586 0.6151
vn 0.6 -0.1281 0.7896
vn 0.668 -0.4432 0.5977
vn 0.6259 -0.108 0.7724
vn 0.4704 0.2164 0.8555
vn 0.416 0.1822 0.8909
vn 0.4938 0.2373 0.8366
vn 0.3639 0.1574 0.918
vn 0.616 -0.7218 0.3154
vn 0.6816 -0.4418 0.5833
vn 0.6402 -0.1015 0.7614
vn 0.6911 -0.4483 0.5669
vn 0.6551 -0.09803 0.7491
vn 0.6179 -0.7286 0.2953
vn 0.5045 0.2485 0.8269
vn 0.2917 0.5638 0.7727
vn 0.5193 0.2586 0.8145
vn 0.3024 0.5744 0.7607
vn 0.02643 0.7985 0.6013
vn -0.2514 0.9082 0.3345
vn 0.02853 0.8083 0.5881
vn -0.2566 0.9133 0.3164
vn 0.03491 0.8185 0.5734
vn -0.2624 0.9203 0.2899
vn 0.07437 0.8343 0.5462
vn -0.2289 0.9403 0.2518
vn 0.3188 0.5821 0.748
vn 0.358 0.5934 0.7208
vn 0.5361 0.2688 0.8002
vn 0.5682 0.2879 0.7708
vn 0.6707 -0.09061 0.7361
vn 0.7029 -0.06546 0.7082
vn 0.2265 0.8627 0.4521
vn -0.04379 0.9853 0.1651
vn 0.4898 0.8339 0.2543
vn 0.3148 0.9489 0.02029
vn 0.4753 0.6251 0.6191
vn 0.6557 0.6412 0.3986
vn 0.6611 0.3425 0.6675
vn 0.7905 0.4214 0.4445
vn 0.7932 0.0202 0.6086
vn 0.9015 0.1802 0.3935
vn 0.8661 0.3664 -0.34
vn 0.8751 0.3837 -0.2947
vn 0.4281 -0.5246 -0.7359
vn 0.669 -0.6034 -0.434
vn 0.835 0.3757 -0.4021
vn 0.154 -0.3166 -0.9359
vn 0.7819 0.4444 -0.4371
vn -0.07318 -0.009522 -0.9973
vn 0.7548 0.5267 -0.3908
vn -0.2085 0.3556 -0.9111
vn 0.2938 -0.2057 -0.9335
vn 0.6531 -0.2257 -0.7228
vn 0.2556 -0.6509 -0.7148
vn -0.008271 -0.4247 -0.9053
vn 0.5216 -0.7412 -0.4225
vn 0.7097 -0.4952 -0.5011
vn -0.0289 0.4031 -0.9147
vn 0.3074 0.1958 -0.9312
vn -0.2349 -0.1011 -0.9667
vn -0.3718 0.2741 -0.8869
vn 0.951 -0.2986 0.07947
vn 0.9375 -0.2441 -0.2481
vn 0.8145 0.456 -0.3585
vn 0.9805 0.08295 0.1782
vn 0.8701 0.1841 0.457
vn 0.8305 0.4542 0.3222
vn 0.6315 0.6214 0.4637
vn 0.6033 0.7757 0.185
vn 0.2693 0.9586 0.09259
vn 0.3012 0.9255 -0.2294
vn -0.0307 0.882 -0.4702
vn 0.1552 0.7049 -0.6921
vn -0.4068 0.6115 -0.6787
vn -0.3345 0.8575 -0.3909
vn -0.2457 0.6866 -0.6842
vn -0.197 0.8973 -0.395
vn -0.1866 0.9781 -0.09156
vn 0.05332 0.9702 0.2365
vn -0.07324 0.9932 -0.09037
vn 0.1496 0.961 0.2326
vn 0.9693 -0.06751 0.2362
vn 0.7537 0.5622 -0.3402
vn 0.7609 0.5736 -0.3032
vn 0.9663 -0.2571 0.009522
vn 0.9175 -0.3451 -0.1977
vn 0.7906 0.5775 -0.2035
vn 0.8596 0.5104 -0.02393
vn 0.8712 -0.3466 -0.3477
vn 0.7398 -0.4335 0.5145
vn 0.8491 -0.3187 0.4212
vn 0.8017 -0.5799 0.1448
vn 0.6607 -0.7155 0.2267
vn 0.4931 -0.8664 -0.0791
vn 0.6774 -0.7224 -0.1385
vn 0.4967 -0.7572 -0.4241
vn 0.2433 -0.8881 -0.3899
vn 0.703 -0.4537 0.5476
vn 0.6215 -0.7365 0.2668
vn 0.4449 -0.8954 -0.01938
vn 0.4456 -0.8941 -0.04526
vn 0.1834 -0.9138 -0.3623
vn 0.1864 -0.9215 -0.3406
vn 0.1981 -0.9247 -0.325
vn 0.4475 -0.8943 -0.002258
vn -0.1077 -0.7888 -0.6051
vn -0.118 -0.7735 -0.6227
vn -0.05014 -0.7548 -0.654
vn -0.3626 -0.5391 -0.7602
vn -0.2984 -0.5206 -0.7999
vn -0.356 -0.5531 -0.7532
vn -0.0831 -0.8005 -0.5936
vn -0.3338 -0.5632 -0.7559
vn -0.5402 -0.2756 -0.7951
vn -0.537 -0.2763 -0.797
vn -0.4818 -0.2468 -0.8408
vn -0.6602 0.02133 -0.7508
vn -0.6098 0.06726 -0.7897
vn -0.6681 0.03494 -0.7432
vn -0.6644 0.06046 -0.7449
vn -0.5299 -0.2671 -0.8048
vn 0.2892 -0.6559 -0.6972
vn 0.8332 -0.2459 -0.4952
vn 0.07889 -0.4153 -0.9062
vn 0.7573 -0.003601 -0.653
vn -0.14 -0.05539 -0.9886
vn 0.5961 0.341 -0.7268
vn -0.3163 0.3321 -0.8886
vn 0.3957 0.6633 -0.6351
vn 0.8949 0.4321 0.1114
vn 0.3895 0.7833 0.4845
vn 0.8895 0.4272 0.1624
vn 0.555 0.5698 0.6061
vn 0.8621 0.4746 0.1772
vn 0.6761 0.3652 0.6398
vn 0.8386 0.5184 0.1667
vn 0.7862 0.1428 0.6012
vn 0.2966 0.8201 0.4894
vn 0.5022 0.5911 0.6311
vn 0.655 0.35 0.6696
vn 0.7756 0.0846 0.6255
vn 0.8512 -0.2193 0.4768
vn 0.84 -0.4925 0.2278
vn 0.8731 -0.1185 0.4729
vn 0.8937 -0.3864 0.2277
vn 0.7172 -0.6893 -0.1022
vn 0.8216 -0.5618 -0.09687
vn 0.2451 0.8506 -0.4652
vn 0.8514 0.5109 0.1183
vn 0.8954 0.4448 -0.02051
vn 0.1859 0.9225 -0.3383
vn 0.2055 0.9573 -0.2033
vn 0.8998 0.3866 -0.2021
vn -0.6614 0.4039 -0.632
vn -0.3919 0.6332 -0.6674
vn -0.3604 0.8359 -0.4139
vn -0.61 0.6963 -0.3781
vn -0.4639 0.8826 -0.07611
vn -0.2455 0.9585 -0.1445
vn -0.721 0.3705 -0.5855
vn -0.7144 0.3558 -0.6024
vn -0.6611 0.6657 -0.346
vn -0.664 0.675 -0.3215
vn -0.499 0.8666 -0.003296
vn -0.5033 0.8634 -0.03433
vn -0.6593 0.6871 -0.3052
vn -0.7166 0.3953 -0.5745
vn -0.4937 0.8695 0.01569
vn -0.7385 0.4052 -0.5388
vn 0.1753 -0.3114 0.9339
vn 0.2223 -0.2979 0.9283
vn 0.09101 0.03168 0.9953
vn 0.04773 0.007752 0.9988
vn -0.1108 0.3284 0.938
vn -0.1473 0.296 0.9437
vn -0.3487 0.5444 0.7629
vn -0.3775 0.5081 0.7742
vn 0.1689 -0.8466 0.5047
vn 0.2113 -0.8484 0.4854
vn 0.2647 -0.6076 0.7488
vn 0.2183 -0.6118 0.7603
vn 0.07404 -0.9809 0.1796
vn 0.03742 -0.9779 0.2056
f 1/1/1 2/2/2 3/3/3
f 1/1/1 3/3/3 4/4/4
f 4/4/4 3/3/3 5/5/5
f 4/4/4 5/5/5 6/6/6
f 3/3/3 7/7/7 8/8/8
f 3/3/3 8/8/8 5/5/5
f 2/2/2 9/9/9 7/7/7
f 2/2/2 7/7/7 3/3/3
f 10/10/10 11/11/11 12/12/12
f 10/10/10 12/12/12 13/13/13
f 13/13/13 12/12/12 2/2/2
f 13/13/13 2/2/2 1/1/1
f 12/12/12 14/14/14 9/9/9
f 12/12/12 9/9/9 2/2/2
f 11/11/11 15/15/15 14/14/14
f 11/11/11 14/14/14 12/12/12
f 9/9/9 16/16/16 17/17/17
f 9/9/9 17/17/17 7/7/7
f 7/7/7 17/17/17 18/18/18
f 7/7/7 18/18/18 8/8/8
f 17/17/17 19/19/19 20/20/20
f 17/17/17 20/20/20 18/18/18
f 16/16/16 21/21/21 19/19/19
f 16/16/16 19/19/19 17/17/17
f 15/15/15 22/22/22 23/23/23
f 15/15/15 23/23/23 14/14/14
f 14/14/14 23/23/23 16/16/16
f 14/14/14 16/16/16 9/9/9
f 23/23/23 24/24/24 21/21/21
f 23/23/23 21/21/21 16/16/16
f 22/22/22 25/25/25 24/24/24
f 22/22/22 24/24/24 23/23/23
f 6/6/6 5/5/5 26/26/26
f 6/6/6 26/26/26 27/27/27
f 27/27/27 26/26/26 28/28/28
f 27/27/27 28/28/28 29/29/29
f 26/26/26 30/30/30 31/31/31
f 26/26/26 31/31/31 28/28/28
f 5/5/5 8/8/8 30/30/30
f 5/5/5 30/30/30 26/26/26
f 8/8/8 18/18/18 32/32/32
f 8/8/8 32/32/32 30/30/30
f 30/30/30 32/32/32 33/33/33
f 30/30/30 33/33/33 31/31/31
f 32/32/32 34/34/34 35/35/35
f 32/32/32 35/35/35 33/33/33
f 18/18/18 20/20/20 34/34/34
f 18/18/18 34/34/34 32/32/32
f 36/36/36 37/37/37 38/38/38
f 36/36/36 38/38/38 39/39/39
f 39/39/39 38/38/38 40/40/40
f 39/39/39 40/40/40 41/41/41
f 38/38/38 28/28/28 31/31/31
f 38/38/38 31/31/31 40/40/40
f 37/37/37 29/29/29 28/28/28
f 37/37/37 28/28/28 38/38/38
f 41/41/41 40/40/40 42/42/42
f 41/41/41 42/42/42 43/43/43
f 43/43/43 42/42/42 44/44/44
f 43/43/43 44/44/44 45/45/45
f 42/42/42 33/33/33 35/35/35
f 42/42/42 35/35/35 44/44/44
f 40/40/40 31/31/31 33/33/33
f 40/40/40 33/33/33 42/42/42
f 45/45/45 44/44/44 46/46/46
f 45/45/45 46/46/46 47/47/47
f 47/47/47 46/46/46 48/48/48
f 47/47/47 48/48/48 49/49/49
f 46/46/46 50/50/50 51/51/51
f 46/46/46 51/51/51 48/48/48
f 44/44/44 35/35/35 50/50/50
f 44/44/44 50/50/50 46/46/46
f 20/20/20 52/52/52 53/53/53
f 20/20/20 53/53/53 34/34/34
f 34/34/34 53/53/53 50/50/50
f 34/34/34 50/50/50 35/35/35
f 53/53/53 54/54/54 51/51/51
f 53/53/53 51/51/51 50/50/50
f 52/52/52 55/55/55 54/54/54
f 52/52/52 54/54/54 53/53/53
f 45/45/45 47/47/47 56/56/56
f 45/45/45 56/56/56 57/57/57
f 57/57/57 56/56/56 58/58/58
f 57/57/57 58/58/58 59/59/59
f 56/56/56 60/60/60 61/61/61
f 56/56/56 61/61/61 58/58/58
f 47/47/47 49/49/49 60/60/60
f 47/47/47 60/60/60 56/56/56
f 41/41/41 43/43/43 62/62/62
f 41/41/41 62/62/62 63/63/63
f 63/63/63 62/62/62 64/64/64
f 63/63/63 64/64/64 65/65/65
f 62/62/62 57/57/57 59/59/59
f 62/62/62 59/59/59 64/64/64
f 43/43/43 45/45/45 57/57/57
f 43/43/43 57/57/57 62/62/62
f 65/65/65 64/64/64 66/66/66
f 65/65/65 66/66/66 67/67/67
f 67/67/67 66/66/66 68/68/68
f 67/67/67 68/68/68 69/69/69
f 66/66/66 70/70/70 71/71/71
f 66/66/66 71/71/71 68/68/68
f 64/64/64 59/59/59 70/70/70
f 64/64/64 70/70/70 66/66/66
f 59/59/59 58/58/58 72/72/72
f 59/59/59 72/72/72 70/70/70
f 70/70/70 72/72/72 73/73/73
f 70/70/70 73/73/73 71/71/71
f 72/72/72 74/74/74 75/75/75
f 72/72/72 75/75/75 73/73/73
f 58/58/58 61/61/61 74/74/74
f 58/58/58 74/74/74 72/72/72
f 71/71/71 73/73/73 76/76/76
f 71/71/71 76/76/76 77/77/77
f 77/77/77 76/76/76 78/78/78
f 77/77/77 78/78/78 79/79/79
f 76/76/76 80/80/80 81/81/81
f 76/76/76 81/81/81 78/78/78
f 73/73/73 75/75/75 80/80/80
f 73/73/73 80/80/80 76/76/76
f 69/69/69 68/68/68 82/82/82
f 69/69/69 82/82/82 83/83/83
f 83/83/83 82/82/82 84/84/84
f 83/83/83 84/84/84 85/85/85
f 82/82/82 77/77/77 79/79/79
f 82/82/82 79/79/79 84/84/84
f 68/68/68 71/71/71 77/77/77
f 68/68/68 77/77/77 82/82/82
f 85/85/85 84/84/84 86/86/86
f 85/85/85 86/86/86 87/87/87
f 87/87/87 86/86/86 22/22/22
f 87/87/87 22/22/22 15/15/15
f 86/86/86 88/88/88 25/25/25
f 86/86/86 25/25/25 22/22/22
f 84/84/84 79/79/79 88/88/88
f 84/84/84 88/88/88 86/86/86
f 79/79/79 78/78/78 89/89/89
f 79/79/79 89/89/89 88/88/88
f 88/88/88 89/89/89 90/90/90
f 88/88/88 90/90/90 25/25/25
f 89/89/89 91/91/91 92/92/92
f 89/89/89 92/92/92 90/90/90
f 78/78/78 81/81/81 91/91/91
f 78/78/78 91/91/91 89/89/89
f 25/25/25 90/90/90 93/93/93
f 25/25/25 93/93/93 24/24/24
f 24/24/24 93/93/93 94/94/94
f 24/24/24 94/94/94 21/21/21
f 93/93/93 95/95/95 96/96/96
f 93/93/93 96/96/96 94/94/94
f 90/90/90 92/92/92 95/95/95
f 90/90/90 95/95/95 93/93/93
f 81/81/81 97/97/97 98/98/98
f 81/81/81 98/98/98 91/91/91
f 91/91/91 98/98/98 99/99/99
f 91/91/91 99/99/99 92/92/92
f 98/98/98 100/100/100 101/101/101
f 98/98/98 101/101/101 99/99/99
f 97/97/97 102/102/102 100/100/100
f 97/97/97 100/100/100 98/98/98
f 92/92/92 99/99/99 103/103/103
f 92/92/92 103/103/103 95/95/95
f 95/95/95 103/103/103 104/104/104
f 95/95/95 104/104/104 96/96/96
f 103/103/103 105/105/105 106/106/106
f 103/103/103 106/106/106 104/104/104
f 99/99/99 101/101/101 105/105/105
f 99/99/99 105/105/105 103/103/103
f 102/102/102 107/107/107 108/108/108
f 102/102/102 108/108/108 100/100/100
f 100/100/100 108/108/108 109/109/109
f 100/100/100 109/109/109 101/101/101
f 108/108/108 110/110/110 111/111/111
f 108/108/108 111/111/111 109/109/109
f 107/107/107 112/112/112 110/110/110
f 107/107/107 110/110/110 108/108/108
f 101/101/101 109/109/109 113/113/113
f 101/101/101 113/113/113 105/105/105
f 105/105/105 113/113/113 114/114/114
f 105/105/105 114/114/114 106/106/106
f 113/113/113 115/115/115 116/116/116
f 113/113/113 116/116/116 114/114/114
f 109/109/109 111/111/111 115/115/115
f 109/109/109 115/115/115 113/113/113
f 96/96/96 104/104/104 117/117/117
f 96/96/96 117/117/117 118/118/118
f 118/118/118 117/117/117 119/119/119
f 118/118/118 119/119/119 55/55/55
f 117/117/117 120/120/120 121/121/121
f 117/117/117 121/121/121 119/119/119
f 104/104/104 106/106/106 120/120/120
f 104/104/104 120/120/120 117/117/117
f 106/106/106 114/114/114 122/122/122
f 106/106/106 122/122/122 120/120/120
f 120/120/120 122/122/122 123/123/123
f 120/120/120 123/123/123 121/121/121
f 122/122/122 124/124/124 125/125/125
f 122/122/122 125/125/125 123/123/123
f 114/114/114 116/116/116 124/124/124
f 114/114/114 124/124/124 122/122/122
f 55/55/55 119/119/119 126/126/126
f 55/55/55 126/126/126 54/54/54
f 54/54/54 126/126/126 127/127/127
f 54/54/54 127/127/127 51/51/51
f 126/126/126 128/128/128 129/129/129
f 126/126/126 129/129/129 127/127/127
f 119/119/119 121/121/121 128/128/128
f 119/119/119 128/128/128 126/126/126
f 121/121/121 123/123/123 130/130/130
f 121/121/121 130/130/130 128/128/128
f 128/128/128 130/130/130 131/131/131
f 128/128/128 131/131/131 129/129/129
f 130/130/130 132/132/132 133/133/133
f 130/130/130 133/133/133 131/131/131
f 123/123/123 125/125/125 132/132/132
f 123/123/123 132/132/132 130/130/130
f 134/134/134 135/135/135 136/136/136
f 134/134/134 136/136/136 137/137/137
f 137/137/137 136/136/136 138/138/138
f 137/137/137 138/138/138 139/139/139
f 136/136/136 131/131/131 133/133/133
f 136/136/136 133/133/133 138/138/138
f 135/135/135 129/129/129 131/131/131
f 135/135/135 131/131/131 136/136/136
f 49/49/49 48/48/48 140/140/140
f 49/49/49 140/140/140 141/141/141
f 141/141/141 140/140/140 135/135/135
f 141/141/141 135/135/135 134/134/134
f 140/140/140 127/127/127 129/129/129
f 140/140/140 129/129/129 135/135/135
f 48/48/48 51/51/51 127/127/127
f 48/48/48 127/127/127 140/140/140
f 134/134/134 137/137/137 142/142/142
f 134/134/134 142/142/142 143/143/143
f 143/143/143 142/142/142 144/144/144
f 143/143/143 144/144/144 145/145/145
f 142/142/142 146/146/146 147/147/147
f 142/142/142 147/147/147 144/144/144
f 137/137/137 139/139/139 146/146/146
f 137/137/137 146/146/146 142/142/142
f 49/49/49 141/141/141 148/148/148
f 49/49/49 148/148/148 60/60/60
f 60/60/60 148/148/148 149/149/149
f 60/60/60 149/149/149 61/61/61
f 148/148/148 143/143/143 145/145/145
f 148/148/148 145/145/145 149/149/149
f 141/141/141 134/134/134 143/143/143
f 141/141/141 143/143/143 148/148/148
f 61/61/61 149/149/149 150/150/150
f 61/61/61 150/150/150 74/74/74
f 74/74/74 150/150/150 151/151/151
f 74/74/74 151/151/151 75/75/75
f 150/150/150 152/152/152 153/153/153
f 150/150/150 153/153/153 151/151/151
f 149/149/149 145/145/145 152/152/152
f 149/149/149 152/152/152 150/150/150
f 145/145/145 144/144/144 154/154/154
f 145/145/145 154/154/154 152/152/152
f 152/152/152 154/154/154 155/155/155
f 152/152/152 155/155/155 153/153/153
f 154/154/154 156/156/156 157/157/157
f 154/154/154 157/157/157 155/155/155
f 144/144/144 147/147/147 156/156/156
f 144/144/144 156/156/156 154/154/154
f 153/153/153 155/155/155 158/158/158
f 153/153/153 158/158/158 159/159/159
f 159/159/159 158/158/158 107/107/107
f 159/159/159 107/107/107 102/102/102
f 158/158/158 160/160/160 112/112/112
f 158/158/158 112/112/112 107/107/107
f 155/155/155 157/157/157 160/160/160
f 155/155/155 160/160/160 158/158/158
f 75/75/75 151/151/151 161/161/161
f 75/75/75 161/161/161 80/80/80
f 80/80/80 161/161/161 97/97/97
f 80/80/80 97/97/97 81/81/81
f 161/161/161 159/159/159 102/102/102
f 161/161/161 102/102/102 97/97/97
f 151/151/151 153/153/153 159/159/159
f 151/151/151 159/159/159 161/161/161
f 147/147/147 162/162/162 163/163/163
f 147/147/147 163/163/163 156/156/156
f 156/156/156 163/163/163 164/164/164
f 156/156/156 164/164/164 157/157/157
f 163/163/163 165/165/165 166/166/166
f 163/163/163 166/166/166 164/164/164
f 162/162/162 167/167/167 165/165/165
f 162/162/162 165/165/165 163/163/163
f 157/157/157 164/164/164 168/168/168
f 157/157/157 168/168/168 160/160/160
f 160/160/160 168/168/168 169/169/169
f 160/160/160 169/169/169 112/112/112
f 168/168/168 170/170/170 171/171/171
f 168/168/168 171/171/171 169/169/169
f 164/164/164 166/166/166 170/170/170
f 164/164/164 170/170/170 168/168/168
f 112/112/112 169/169/169 172/172/172
f 112/112/112 172/172/172 110/110/110
f 110/110/110 172/172/172 173/173/173
f 110/110/110 173/173/173 111/111/111
f 172/172/172 174/174/174 175/175/175
f 172/172/172 175/175/175 173/173/173
f 169/169/169 171/171/171 174/174/174
f 169/169/169 174/174/174 172/172/172
f 175/175/175 174/174/174 176/176/176
f 175/175/175 176/176/176 177/177/177
f 177/177/177 176/176/176 178/178/178
f 177/177/177 178/178/178 179/179/179
f 176/176/176 180/180/180 181/181/181
f 176/176/176 181/181/181 178/178/178
f 174/174/174 171/171/171 180/180/180
f 174/174/174 180/180/180 176/176/176
f 171/171/171 170/170/170 182/182/182
f 171/171/171 182/182/182 180/180/180
f 180/180/180 182/182/182 183/183/183
f 180/180/180 183/183/183 181/181/181
f 182/182/182 184/184/184 185/185/185
f 182/182/182 185/185/185 183/183/183
f 170/170/170 166/166/166 184/184/184
f 170/170/170 184/184/184 182/182/182
f 179/179/179 178/178/178 186/186/186
f 179/179/179 186/186/186 187/187/187
f 187/187/187 186/186/186 188/188/188
f 187/187/187 188/188/188 189/189/189
f 186/186/186 190/190/190 191/191/191
f 186/186/186 191/191/191 188/188/188
f 178/178/178 181/181/181 190/190/190
f 178/178/178 190/190/190 186/186/186
f 181/181/181 183/183/183 192/192/192
f 181/181/181 192/192/192 190/190/190
f 190/190/190 192/192/192 193/193/193
f 190/190/190 193/193/193 191/191/191
f 192/192/192 194/194/194 195/195/195
f 192/192/192 195/195/195 193/193/193
f 183/183/183 185/185/185 194/194/194
f 183/183/183 194/194/194 192/192/192
f 189/189/189 188/188/188 196/196/196
f 189/189/189 196/196/196 197/197/197
f 197/197/197 196/196/196 198/198/198
f 197/197/197 198/198/198 199/199/199
f 196/196/196 200/200/200 201/201/201
f 196/196/196 201/201/201 198/198/198
f 188/188/188 191/191/191 200/200/200
f 188/188/188 200/200/200 196/196/196
f 191/191/191 193/193/193 202/202/202
f 191/191/191 202/202/202 200/200/200
f 200/200/200 202/202/202 203/203/203
f 200/200/200 203/203/203 201/201/201
f 202/202/202 204/204/204 205/205/205
f 202/202/202 205/205/205 203/203/203
f 193/193/193 195/195/195 204/204/204
f 193/193/193 204/204/204 202/202/202
f 206/206/206 207/207/207 208/208/208
f 206/206/206 208/208/208 209/209/209
f 209/209/209 208/208/208 198/198/198
f 209/209/209 198/198/198 201/201/201
f 208/208/208 210/210/210 199/199/199
f 208/208/208 199/199/199 198/198/198
f 207/207/207 211/211/211 210/210/210
f 207/207/207 210/210/210 208/208/208
f 212/212/212 213/213/213 214/214/214
f 212/212/212 214/214/214 215/215/215
f 215/215/215 214/214/214 203/203/203
f 215/215/215 203/203/203 205/205/205
f 214/214/214 209/209/209 201/201/201
f 214/214/214 201/201/201 203/203/203
f 213/213/213 206/206/206 209/209/209
f 213/213/213 209/209/209 214/214/214
f 216/216/216 217/217/217 218/218/218
f 216/216/216 218/218/218 219/219/219
f 220/220/220 219/219/219 218/218/218
f 220/220/220 218/218/218 221/221/221
f 222/222/222 221/221/221 218/218/218
f 222/222/222 218/218/218 223/223/223
f 224/224/224 223/223/223 218/218/218
f 224/224/224 218/218/218 225/225/225
f 226/226/226 225/225/225 218/218/218
f 226/226/226 218/218/218 227/227/227
f 212/212/212 227/227/227 218/218/218
f 212/212/212 218/218/218 213/213/213
f 206/206/206 213/213/213 218/218/218
f 206/206/206 218/218/218 207/207/207
f 211/211/211 207/207/207 218/218/218
f 211/211/211 218/218/218 217/217/217
f 226/226/226 227/227/227 228/228/228
f 226/226/226 228/228/228 229/229/229
f 229/229/229 228/228/228 230/230/230
f 229/229/229 230/230/230 231/231/231
f 228/228/228 215/215/215 205/205/205
f 228/228/228 205/205/205 230/230/230
f 227/227/227 212/212/212 215/215/215
f 227/227/227 215/215/215 228/228/228
f 224/224/224 225/225/225 232/232/232
f 224/224/224 232/232/232 233/233/233
f 233/233/233 232/232/232 234/234/234
f 233/233/233 234/234/234 235/235/235
f 232/232/232 229/229/229 231/231/231
f 232/232/232 231/231/231 234/234/234
f 225/225/225 226/226/226 229/229/229
f 225/225/225 229/229/229 232/232/232
f 195/195/195 236/236/236 237/237/237
f 195/195/195 237/237/237 204/204/204
f 204/204/204 237/237/237 230/230/230
f 204/204/204 230/230/230 205/205/205
f 237/237/237 238/238/238 231/231/231
f 237/237/237 231/231/231 230/230/230
f 236/236/236 239/239/239 238/238/238
f 236/236/236 238/238/238 237/237/237
f 239/239/239 240/240/240 241/241/241
f 239/239/239 241/241/241 238/238/238
f 238/238/238 241/241/241 234/234/234
f 238/238/238 234/234/234 231/231/231
f 241/241/241 242/242/242 235/235/235
f 241/241/241 235/235/235 234/234/234
f 240/240/240 243/243/243 242/242/242
f 240/240/240 242/242/242 241/241/241
f 185/185/185 244/244/244 245/245/245
f 185/185/185 245/245/245 194/194/194
f 194/194/194 245/245/245 236/236/236
f 194/194/194 236/236/236 195/195/195
f 245/245/245 246/246/246 239/239/239
f 245/245/245 239/239/239 236/236/236
f 244/244/244 247/247/247 246/246/246
f 244/244/244 246/246/246 245/245/245
f 247/247/247 248/248/248 249/249/249
f 247/247/247 249/249/249 246/246/246
f 246/246/246 249/249/249 240/240/240
f 246/246/246 240/240/240 239/239/239
f 249/249/249 250/250/250 243/243/243
f 249/249/249 243/243/243 240/240/240
f 248/248/248 251/251/251 250/250/250
f 248/248/248 250/250/250 249/249/249
f 166/166/166 165/165/165 252/252/252
f 166/166/166 252/252/252 184/184/184
f 184/184/184 252/252/252 244/244/244
f 184/184/184 244/244/244 185/185/185
f 252/252/252 253/253/253 247/247/247
f 252/252/252 247/247/247 244/244/244
f 165/165/165 167/167/167 253/253/253
f 165/165/165 253/253/253 252/252/252
f 167/167/167 254/254/254 255/255/255
f 167/167/167 255/255/255 253/253/253
f 253/253/253 255/255/255 248/248/248
f 253/253/253 248/248/248 247/247/247
f 255/255/255 256/256/256 251/251/251
f 255/255/255 251/251/251 248/248/248
f 254/254/254 257/257/257 256/256/256
f 254/254/254 256/256/256 255/255/255
f 139/139/139 258/258/258 259/259/259
f 139/139/139 259/259/259 146/146/146
f 146/146/146 259/259/259 162/162/162
f 146/146/146 162/162/162 147/147/147
f 259/259/259 254/254/254 167/167/167
f 259/259/259 167/167/167 162/162/162
f 258/258/258 257/257/257 254/254/254
f 258/258/258 254/254/254 259/259/259
f 257/257/257 260/260/260 261/261/261
f 257/257/257 261/261/261 256/256/256
f 256/256/256 261/261/261 262/262/262
f 256/256/256 262/262/262 251/251/251
f 261/261/261 263/263/263 264/264/264
f 261/261/261 264/264/264 262/262/262
f 260/260/260 265/265/265 263/263/263
f 260/260/260 263/263/263 261/261/261
f 139/139/139 138/138/138 266/266/266
f 139/139/139 266/266/266 258/258/258
f 258/258/258 266/266/266 260/260/260
f 258/258/258 260/260/260 257/257/257
f 266/266/266 267/267/267 265/265/265
f 266/266/266 265/265/265 260/260/260
f 138/138/138 133/133/133 267/267/267
f 138/138/138 267/267/267 266/266/266
f 265/265/265 268/268/268 269/269/269
f 265/265/265 269/269/269 263/263/263
f 263/263/263 269/269/269 270/270/270
f 263/263/263 270/270/270 264/264/264
f 269/269/269 271/271/271 272/272/272
f 269/269/269 272/272/272 270/270/270
f 268/268/268 273/273/273 271/271/271
f 268/268/268 271/271/271 269/269/269
f 125/125/125 274/274/274 275/275/275
f 125/125/125 275/275/275 132/132/132
f 132/132/132 275/275/275 267/267/267
f 132/132/132 267/267/267 133/133/133
f 275/275/275 268/268/268 265/265/265
f 275/275/275 265/265/265 267/267/267
f 274/274/274 273/273/273 268/268/268
f 274/274/274 268/268/268 275/275/275
f 251/251/251 262/262/262 276/276/276
f 251/251/251 276/276/276 250/250/250
f 250/250/250 276/276/276 277/277/277
f 250/250/250 277/277/277 243/243/243
f 276/276/276 278/278/278 279/279/279
f 276/276/276 279/279/279 277/277/277
f 262/262/262 264/264/264 278/278/278
f 262/262/262 278/278/278 276/276/276
f 264/264/264 270/270/270 280/280/280
f 264/264/264 280/280/280 278/278/278
f 278/278/278 280/280/280 281/281/281
f 278/278/278 281/281/281 279/279/279
f 280/280/280 282/282/282 283/283/283
f 280/280/280 283/283/283 281/281/281
f 270/270/270 272/272/272 282/282/282
f 270/270/270 282/282/282 280/280/280
f 243/243/243 277/277/277 284/284/284
f 243/243/243 284/284/284 242/242/242
f 242/242/242 284/284/284 285/285/285
f 242/242/242 285/285/285 235/235/235
f 284/284/284 286/286/286 287/287/287
f 284/284/284 287/287/287 285/285/285
f 277/277/277 279/279/279 286/286/286
f 277/277/277 286/286/286 284/284/284
f 279/279/279 281/281/281 288/288/288
f 279/279/279 288/288/288 286/286/286
f 286/286/286 288/288/288 289/289/289
f 286/286/286 289/289/289 287/287/287
f 288/288/288 290/290/290 291/291/291
f 288/288/288 291/291/291 289/289/289
f 281/281/281 283/283/283 290/290/290
f 281/281/281 290/290/290 288/288/288
f 222/222/222 223/223/223 292/292/292
f 222/222/222 292/292/292 293/293/293
f 293/293/293 292/292/292 285/285/285
f 293/293/293 285/285/285 287/287/287
f 292/292/292 233/233/233 235/235/235
f 292/292/292 235/235/235 285/285/285
f 223/223/223 224/224/224 233/233/233
f 223/223/223 233/233/233 292/292/292
f 220/220/220 221/221/221 294/294/294
f 220/220/220 294/294/294 295/295/295
f 295/295/295 294/294/294 289/289/289
f 295/295/295 289/289/289 291/291/291
f 294/294/294 293/293/293 287/287/287
f 294/294/294 287/287/287 289/289/289
f 221/221/221 222/222/222 293/293/293
f 221/221/221 293/293/293 294/294/294
f 216/216/216 219/219/219 296/296/296
f 216/216/216 296/296/296 297/297/297
f 297/297/297 296/296/296 298/298/298
f 297/297/297 298/298/298 299/299/299
f 296/296/296 295/295/295 291/291/291
f 296/296/296 291/291/291 298/298/298
f 219/219/219 220/220/220 295/295/295
f 219/219/219 295/295/295 296/296/296
f 211/211/211 217/217/217 300/300/300
f 211/211/211 300/300/300 210/210/210
f 210/210/210 300/300/300 301/301/301
f 210/210/210 301/301/301 199/199/199
f 300/300/300 297/297/297 299/299/299
f 300/300/300 299/299/299 301/301/301
f 217/217/217 216/216/216 297/297/297
f 217/217/217 297/297/297 300/300/300
f 283/283/283 302/302/302 303/303/303
f 283/283/283 303/303/303 290/290/290
f 290/290/290 303/303/303 298/298/298
f 290/290/290 298/298/298 291/291/291
f 303/303/303 304/304/304 299/299/299
f 303/303/303 299/299/299 298/298/298
f 302/302/302 305/305/305 304/304/304
f 302/302/302 304/304/304 303/303/303
f 305/305/305 306/306/306 307/307/307
f 305/305/305 307/307/307 304/304/304
f 304/304/304 307/307/307 301/301/301
f 304/304/304 301/301/301 299/299/299
f 307/307/307 197/197/197 199/199/199
f 307/307/307 199/199/199 301/301/301
f 306/306/306 189/189/189 197/197/197
f 306/306/306 197/197/197 307/307/307
f 272/272/272 308/308/308 309/309/309
f 272/272/272 309/309/309 282/282/282
f 282/282/282 309/309/309 302/302/302
f 282/282/282 302/302/302 283/283/283
f 309/309/309 310/310/310 305/305/305
f 309/309/309 305/305/305 302/302/302
f 308/308/308 311/311/311 310/310/310
f 308/308/308 310/310/310 309/309/309
f 311/311/311 312/312/312 313/313/313
f 311/311/311 313/313/313 310/310/310
f 310/310/310 313/313/313 306/306/306
f 310/310/310 306/306/306 305/305/305
f 313/313/313 187/187/187 189/189/189
f 313/313/313 189/189/189 306/306/306
f 312/312/312 179/179/179 187/187/187
f 312/312/312 187/187/187 313/313/313
f 273/273/273 314/314/314 315/315/315
f 273/273/273 315/315/315 271/271/271
f 271/271/271 315/315/315 308/308/308
f 271/271/271 308/308/308 272/272/272
f 315/315/315 316/316/316 311/311/311
f 315/315/315 311/311/311 308/308/308
f 314/314/314 317/317/317 316/316/316
f 314/314/314 316/316/316 315/315/315
f 317/317/317 318/318/318 319/319/319
f 317/317/317 319/319/319 316/316/316
f 316/316/316 319/319/319 312/312/312
f 316/316/316 312/312/312 311/311/311
f 319/319/319 177/177/177 179/179/179
f 319/319/319 179/179/179 312/312/312
f 318/318/318 175/175/175 177/177/177
f 318/318/318 177/177/177 319/319/319
f 116/116/116 320/320/320 321/321/321
f 116/116/116 321/321/321 124/124/124
f 124/124/124 321/321/321 274/274/274
f 124/124/124 274/274/274 125/125/125
f 321/321/321 314/314/314 273/273/273
f 321/321/321 273/273/273 274/274/274
f 320/320/320 317/317/317 314/314/314
f 320/320/320 314/314/314 321/321/321
f 111/111/111 173/173/173 322/322/322
f 111/111/111 322/322/322 115/115/115
f 115/115/115 322/322/322 320/320/320
f 115/115/115 320/320/320 116/116/116
f 322/322/322 318/318/318 317/317/317
f 322/322/322 317/317/317 320/320/320
f 173/173/173 175/175/175 318/318/318
f 173/173/173 318/318/318 322/322/322
f 21/21/21 94/94/94 323/323/323
f 21/21/21 323/323/323 19/19/19
f 19/19/19 323/323/323 52/52/52
f 19/19/19 52/52/52 20/20/20
f 323/323/323 118/118/118 55/55/55
f 323/323/323 55/55/55 52/52/52
f 94/94/94 96/96/96 118/118/118
f 94/94/94 118/118/118 323/323/323
f 324/324/324 325/325/325 326/326/326
f 324/324/324 326/326/326 327/327/327
f 327/327/327 326/326/326 328/328/328
f 327/327/327 328/328/328 329/329/329
f 326/326/326 83/83/83 85/85/85
f 326/326/326 85/85/85 328/328/328
f 325/325/325 69/69/69 83/83/83
f 325/325/325 83/83/83 326/326/326
f 329/329/329 328/328/328 330/330/330
f 329/329/329 330/330/330 331/331/331
f 331/331/331 330/330/330 11/11/11
f 331/331/331 11/11/11 10/10/10
f 330/330/330 87/87/87 15/15/15
f 330/330/330 15/15/15 11/11/11
f 328/328/328 85/85/85 87/87/87
f 328/328/328 87/87/87 330/330/330
f 332/332/332 333/333/333 334/334/334
f 332/332/332 334/334/334 335/335/335
f 335/335/335 334/334/334 325/325/325
f 335/335/335 325/325/325 324/324/324
f 334/334/334 67/67/67 69/69/69
f 334/334/334 69/69/69 325/325/325
f 333/333/333 65/65/65 67/67/67
f 333/333/333 67/67/67 334/334/334
f 36/36/36 39/39/39 336/336/336
f 36/36/36 336/336/336 337/337/337
f 337/337/337 336/336/336 333/333/333
f 337/337/337 333/333/333 332/332/332
f 336/336/336 63/63/63 65/65/65
f 336/336/336 65/65/65 333/333/333
f 39/39/39 41/41/41 63/63/63
f 39/39/39 63/63/63 336/336/336
