v -0.927916 0.80401 0.189605
v -0.929783 0.803861 0.186438
v -0.92721 0.804686 0.184989
v -0.925912 0.804667 0.188436
v -0.924779 0.806426 0.184249
v -0.924011 0.806039 0.187832
v -0.928648 0.805073 0.181196
v -0.925774 0.807124 0.180336
v -0.931697 0.804103 0.182887
v -0.931046 0.805161 0.192902
v -0.933843 0.805357 0.190558
v -0.932109 0.804105 0.188396
v -0.929715 0.804192 0.191177
v -0.934459 0.804398 0.185178
v -0.936524 0.805886 0.187711
v -0.933678 0.80499 0.178764
v -0.930307 0.806059 0.176894
v -0.927127 0.808323 0.175939
v -0.932028 0.807329 0.172649
v -0.928607 0.80972 0.17161
v -0.935657 0.806218 0.174652
v -0.93901 0.806968 0.184081
v -0.93673 0.805321 0.181291
v -0.93893 0.806595 0.177326
v -0.941371 0.808369 0.180261
v -0.922866 0.808836 0.184348
v -0.922509 0.807937 0.187904
v -0.921741 0.811541 0.185249
v -0.92162 0.81006 0.188622
v -0.923515 0.809968 0.180456
v -0.922189 0.813165 0.181512
v -0.924632 0.811467 0.176069
v -0.92317 0.815003 0.177234
v -0.925937 0.813063 0.171738
v -0.924398 0.816835 0.172985
v -0.922143 0.813717 0.191511
v -0.921499 0.812087 0.189893
v -0.921596 0.814138 0.186837
v -0.92243 0.816241 0.188859
v -0.922023 0.81624 0.183371
v -0.923016 0.818737 0.185739
v -0.922994 0.818403 0.179288
v -0.924098 0.821165 0.181901
v -0.924254 0.820473 0.175189
v -0.925478 0.823431 0.177979
v -0.925624 0.822505 0.171209
v -0.927028 0.825676 0.174141
v -0.9277 0.825553 0.164801
v -0.929317 0.82901 0.167824
v -0.925677 0.818629 0.168866
v -0.927661 0.821369 0.16236
v -0.930101 0.811138 0.167421
v -0.927259 0.81464 0.167543
v -0.929308 0.817101 0.160971
v -0.93236 0.813395 0.160828
v -0.929678 0.827623 0.177179
v -0.927911 0.82523 0.180928
v -0.933165 0.82809 0.179892
v -0.931166 0.825627 0.183598
v -0.932255 0.83117 0.170911
v -0.936067 0.831752 0.173637
v -0.926354 0.822841 0.184691
v -0.925054 0.820254 0.188269
v -0.929396 0.823204 0.187232
v -0.927808 0.820583 0.190577
v -0.932781 0.822153 0.189126
v -0.930874 0.819631 0.192297
v -0.935986 0.819883 0.190099
v -0.933779 0.817576 0.193181
v -0.934776 0.82452 0.185581
v -0.938187 0.822116 0.186595
v -0.937007 0.826969 0.181892
v -0.94062 0.824474 0.182902
v -0.940233 0.830635 0.175625
v -0.944124 0.828035 0.176607
v -0.943437 0.820951 0.182736
v -0.940863 0.818749 0.186454
v -0.945058 0.816959 0.181452
v -0.94242 0.814956 0.18521
v -0.947132 0.82431 0.176402
v -0.948828 0.820053 0.175073
v -0.938506 0.81671 0.18997
v -0.936064 0.814703 0.193063
v -0.939978 0.813141 0.188789
v -0.937399 0.811472 0.19199
v -0.940141 0.809723 0.186712
v -0.937548 0.808378 0.190102
v -0.942584 0.811314 0.183027
v -0.945195 0.813103 0.179217
v -0.943871 0.809961 0.176396
v -0.948913 0.815905 0.172795
v -0.947419 0.812487 0.169936
v -0.941245 0.808036 0.173401
v -0.93772 0.807572 0.170649
v -0.944526 0.810344 0.166911
v -0.940664 0.809751 0.164125
v -0.954314 0.824892 0.16411
v -0.954327 0.820327 0.161749
v -0.952595 0.816523 0.158811
v -0.959988 0.825299 0.148629
v -0.958012 0.821119 0.145549
v -0.960061 0.830278 0.151124
v -0.949335 0.814088 0.155727
v -0.945049 0.813342 0.152922
v -0.954399 0.81841 0.142362
v -0.949744 0.817551 0.139507
v -0.940349 0.814444 0.150803
v -0.936374 0.810833 0.161973
v -0.935985 0.817185 0.149718
v -0.944739 0.818738 0.137388
v -0.940126 0.82172 0.136331
v -0.933794 0.808672 0.168542
v -0.932678 0.821199 0.149923
v -0.930901 0.825849 0.151363
v -0.936611 0.82607 0.136569
v -0.93468 0.831086 0.13805
v -0.94381 0.826081 0.123332
v -0.940233 0.830694 0.123503
v -0.938172 0.835916 0.125028
v -0.94354 0.835048 0.110752
v -0.941396 0.840236 0.11237
v -0.94701 0.830318 0.11074
v -0.953508 0.821478 0.12681
v -0.94844 0.822835 0.124529
v -0.951416 0.826809 0.1123
v -0.956318 0.825168 0.115004
v -0.936561 0.840131 0.143714
v -0.934672 0.836011 0.140584
v -0.937985 0.840959 0.127727
v -0.939775 0.84516 0.131073
v -0.940936 0.845144 0.115407
v -0.942459 0.849222 0.119194
v -0.930965 0.830434 0.153842
v -0.932772 0.834256 0.156901
v -0.943447 0.84793 0.134486
v -0.940134 0.842811 0.146933
v -0.948377 0.848865 0.137524
v -0.944812 0.843683 0.149787
v -0.946058 0.851977 0.123005
v -0.951064 0.85295 0.126396
v -0.93606 0.836698 0.160032
v -0.940316 0.837436 0.162795
v -0.953785 0.847718 0.139793
v -0.949898 0.84255 0.151868
v -0.958784 0.844683 0.140942
v -0.954596 0.839626 0.152875
v -0.956602 0.85181 0.128982
v -0.961745 0.848701 0.130355
v -0.944939 0.836315 0.164795
v -0.949228 0.833555 0.165759
v -0.962535 0.840151 0.14071
v -0.958152 0.835306 0.152605
v -0.964503 0.834853 0.139147
v -0.965623 0.843992 0.130191
v -0.967653 0.838494 0.128536
v -0.952507 0.829535 0.165507
v -0.964343 0.829601 0.13646
v -0.962179 0.825189 0.133163
v -0.967452 0.833105 0.125618
v -0.965168 0.828648 0.122022
v -0.969676 0.83594 0.116083
v -0.967346 0.831622 0.11214
v -0.970965 0.838155 0.108907
v -0.968693 0.834096 0.104784
v -0.969836 0.84135 0.119229
v -0.971044 0.843433 0.112145
v -0.967708 0.847021 0.120982
v -0.968871 0.849096 0.113934
v -0.96376 0.851908 0.121082
v -0.964989 0.853998 0.113988
v -0.971245 0.839823 0.104898
v -0.969162 0.836075 0.100947
v -0.97078 0.841186 0.102822
v -0.968972 0.837787 0.0992789
v -0.971255 0.84478 0.107985
v -0.970743 0.845664 0.105589
v -0.969185 0.850113 0.109682
v -0.968881 0.85044 0.107108
v -0.96557 0.854717 0.109715
v -0.965663 0.854546 0.107136
v -0.969881 0.842334 0.101548
v -0.968367 0.839299 0.0984704
v -0.968722 0.842598 0.10241
v -0.967417 0.839825 0.0997126
v -0.96982 0.846259 0.10395
v -0.968662 0.846093 0.104516
v -0.968198 0.850413 0.105267
v -0.967228 0.849769 0.105672
v -0.965396 0.853997 0.105298
v -0.96473 0.852969 0.105708
v -0.965163 0.843911 0.110623
v -0.964214 0.841324 0.109456
v -0.967194 0.841668 0.106218
v -0.967222 0.844909 0.108073
v -0.966047 0.839035 0.103743
v -0.964149 0.838945 0.10707
v -0.96213 0.849216 0.111521
v -0.963236 0.846228 0.111598
v -0.965847 0.848257 0.109153
v -0.963589 0.851262 0.10916
v -0.959759 0.837218 0.103003
v -0.961588 0.838108 0.105857
v -0.957755 0.843575 0.108823
v -0.95714 0.838555 0.102789
v -0.954837 0.839942 0.100527
v -0.953405 0.842427 0.102008
v -0.951849 0.845253 0.101384
v -0.952254 0.847182 0.10419
v -0.952522 0.849933 0.105107
v -0.954687 0.850205 0.107874
v -0.956911 0.851617 0.109199
v -0.959309 0.849908 0.110902
v -0.960602 0.853201 0.108184
v -0.957433 0.854111 0.106304
v -0.961572 0.855102 0.104572
v -0.958189 0.855963 0.102494
v -0.954476 0.853612 0.103973
v -0.952286 0.852168 0.101216
v -0.955067 0.855506 0.0997631
v -0.952852 0.853948 0.096616
v -0.961658 0.857133 0.105586
v -0.961886 0.856312 0.103975
v -0.958145 0.857166 0.10156
v -0.957403 0.858003 0.102766
v -0.953508 0.857222 0.0990532
v -0.95471 0.856577 0.0983763
v -0.952352 0.854871 0.0946616
v -0.950893 0.855247 0.0947283
v -0.960097 0.857102 0.112206
v -0.96107 0.857603 0.107979
v -0.956303 0.858534 0.104816
v -0.954907 0.858117 0.108947
v -0.950206 0.857073 0.104675
v -0.951961 0.857582 0.10066
v -0.949074 0.855298 0.0958682
v -0.947052 0.854528 0.0998033
v -0.95865 0.855065 0.119456
v -0.953191 0.856157 0.11646
v -0.948265 0.855128 0.112546
v -0.944857 0.852437 0.10812
v -0.946241 0.851086 0.0948677
v -0.948425 0.852249 0.0909328
v -0.950268 0.852547 0.0902054
v -0.949479 0.848603 0.0869709
v -0.95119 0.84925 0.0865389
v -0.947264 0.847005 0.0909344
v -0.94371 0.848631 0.103683
v -0.944495 0.844086 0.100144
v -0.946662 0.839188 0.0983604
v -0.949385 0.842517 0.0890189
v -0.949872 0.834534 0.0985626
v -0.952283 0.838078 0.0894039
v -0.951481 0.844496 0.0850629
v -0.953015 0.845477 0.0847632
v -0.954114 0.840345 0.0855213
v -0.955436 0.841663 0.0851902
v -0.951677 0.852406 0.0907689
v -0.952065 0.85156 0.093372
v -0.952387 0.849339 0.087597
v -0.952552 0.848565 0.0907374
v -0.954007 0.845847 0.0860307
v -0.954011 0.845228 0.0893998
v -0.956265 0.842384 0.0863511
v -0.956197 0.842024 0.0895869
v -0.951401 0.849725 0.0986349
v -0.951681 0.846791 0.096379
v -0.953056 0.843525 0.0953878
v -0.955193 0.840514 0.0953339
v -0.957887 0.83825 0.0967135
v -0.960862 0.837105 0.0986769
v -0.958887 0.839475 0.0912735
v -0.961891 0.838084 0.0938845
v -0.963704 0.83745 0.101236
v -0.964939 0.838232 0.0967927
v -0.958299 0.838367 0.0877388
v -0.958976 0.83949 0.0885054
v -0.962108 0.837766 0.091707
v -0.961708 0.836304 0.0914772
v -0.9656 0.836094 0.0954277
v -0.965505 0.837705 0.0951235
v -0.955793 0.834271 0.0919983
v -0.957242 0.836707 0.0882516
v -0.961007 0.834413 0.0922995
v -0.959958 0.83197 0.0959522
v -0.964633 0.831926 0.100351
v -0.965355 0.834191 0.0966555
v -0.953856 0.8308 0.10068
v -0.958428 0.828779 0.104066
v -0.961185 0.825852 0.11836
v -0.963257 0.829099 0.108013
v -0.958339 0.822338 0.129811
v -0.929178 0.812839 0.196581
v -0.931502 0.81522 0.195209
v -0.933431 0.812792 0.195111
v -0.93068 0.810941 0.19651
v -0.934562 0.810066 0.1942
v -0.931569 0.808818 0.195792
v -0.934696 0.807457 0.192594
v -0.93169 0.806791 0.194521
v -0.925273 0.814868 0.194808
v -0.926468 0.817776 0.192988
v -0.929052 0.816962 0.194455
v -0.927277 0.814211 0.195978
v -0.924147 0.817511 0.191019
v -0.923474 0.814686 0.193237
vt 0.08333 0.9167
vt 0.01147 0.2613
vt 0.9893 0.7393
vt 0.0009446 0.5001
vt 0.08478 0.08462
vt 0.08433 0.9159
vt 0.01147 0.2613
vt 0.0004723 0.5001
vt 0.01042 0.7396
vt 0.01114 0.7391
vt 0.9159 0.9158
vt 0.9895 0.7395
vt 0.0007095 0.5001
vt 0.01182 0.2617
vt 0.01114 0.7391
vt 0.01182 0.2617
vt 0.9165 0.9165
vt 0.08526 0.08505
vt 0.9162 0.9162
vt 0 0.5
vt 0.01042 0.7396
vt 0.2604 0.01042
vt 0.9162 0.9162
vt 0.08333 0.08333
vt 0.2612 0.989
vt 0.9998 0.5
vt 0.9893 0.7393
vt 0.01112 0.261
vt 0.01187 0.7385
vt 0.01147 0.2613
vt 0.01114 0.7391
vt 0.9999 0.5
vt 0.08478 0.08462
vt 0.01112 0.261
vt 0.0004723 0.5001
vt 0.01112 0.261
vt 0.9895 0.2605
vt 0.9895 0.7395
vt 0.9893 0.2608
vt 0.0843 0.08419
vt 0.0009446 0.5001
vt 0.9893 0.7393
vt 0.5 -1.192e-07
vt 0.0004738 0.5001
vt 0.08532 0.9151
vt 0.9992 0.5001
vt 0.01147 0.2613
vt 0.989 0.739
vt 0.01187 0.7385
vt 0.0007095 0.5001
vt 0.08433 0.9159
vt 0.2612 0.01106
vt 0.9994 0.5001
vt 0.2615 0.01137
vt 0.5003 0.9992
vt 0.9886 0.7387
vt 0.2604 0.01042
vt 0.5002 0.0004414
vt 0.01114 0.7391
vt 0.9893 0.7393
vt 0.5002 0.9996
vt 0.9883 0.7384
vt 0.989 0.739
vt 0.2612 0.01105
vt 0.5 1
vt 0.9883 0.7384
vt 0.9996 0.5
vt 0.2619 0.01169
vt 0.2604 0.9896
vt 0.5002 0.0004414
vt 0.2612 0.989
vt 0.9886 0.7387
vt 0.2612 0.01105
vt 0.9998 0.5
vt 0.2604 0.9896
vt 0.9155 0.9154
vt 0.5003 0.0008831
vt 0.0843 0.08419
vt 0.2612 0.989
vt 0.989 0.2611
vt 0.08333 0.9167
vt 0.9151 0.9149
vt 0.9996 0.5
vt 0.2612 0.01105
vt 0.08433 0.9159
vt 0.9886 0.7387
vt 0.9998 0.5
vt 0.08526 0.08505
vt 0.989 0.739
vt 0.2619 0.01169
vt 0.2612 0.01105
vt 0.2619 0.9884
vt 0.9159 0.9158
vt 0.5003 0.0006633
vt 0.5003 0.0008831
vt 0.08433 0.9159
vt 0.2608 0.01075
vt 0.9155 0.9154
vt 0.0843 0.08419
vt 0.5 7.397e-05
vt 0.08532 0.9151
vt 0.0115 0.7388
vt 0.9994 0.5001
vt 0.2619 0.01169
vt 0.989 0.2611
vt 0.5002 0.9996
vt 0.9996 0.5
vt 0.2615 0.01137
vt 0.5003 0.0006633
vt 0.08478 0.08462
vt 0.2619 0.9884
vt 0.989 0.739
vt 0.9886 0.7387
vt 0.2612 0.01106
vt 0.2615 0.01137
vt 0.08532 0.9151
vt 0.5002 0.000443
vt 0.9151 0.9149
vt 0.0843 0.08419
vt 0.9893 0.2608
vt 0.08482 0.9155
vt 0.2612 0.989
vt 0.9155 0.08473
vt 0.9155 0.9154
vt 0.7389 0.01145
vt 0.0843 0.08419
vt 0.0115 0.7388
vt 0.2619 0.01169
vt 0.7389 0.9886
vt 0.08526 0.08505
vt 0.9163 0.08382
vt 0.01187 0.7385
vt 0.7386 0.9883
vt 0.08478 0.08462
vt 0.7386 0.9883
vt 0.2615 0.01137
vt 0.5002 0.000443
vt 0.01187 0.7385
vt 0.9159 0.08426
vt 0.0115 0.7388
vt 0.7389 0.9886
vt 0.2608 0.01075
vt 0.5002 0.9994
vt 0.2612 0.01106
vt 0.5001 0.000231
vt 0.0007095 0.5001
vt 0.9887 0.2614
vt 0.0009446 0.5001
vt 0.5003 0.9992
vt 0.5001 0.000231
vt 0.7389 0.9886
vt 0.2608 0.01075
vt 0.2605 0.01052
vt 0.08349 0.08348
vt 0.01114 0.7391
vt 0.7391 0.9889
vt 0.5002 0.9996
vt 0.989 0.2611
vt 0.08384 0.08378
vt 0.0004738 0.5001
vt 0.5002 0.9994
vt 0.9159 0.08426
vt 0.2612 0.01106
vt 0.08482 0.9155
vt 0.2605 0.01052
vt 0.0007095 0.5001
vt 0.9155 0.9154
vt 0.0843 0.08419
vt 0.9155 0.08473
vt 0.08433 0.9159
vt 0.9159 0.9158
vt 0.9994 0.5001
vt 0.2608 0.01075
vt 0.0115 0.7388
vt 0.08384 0.08378
vt 0.01114 0.7391
vt 0.7391 0.9889
vt 0.0004738 0.5001
vt 0.9996 0.5
vt 0.5003 0.9992
vt 0.7389 0.9886
vt 0.989 0.2611
vt 0.01078 0.2607
vt 0.2615 0.9887
vt 0.0002471 0.5
vt 0.5002 0.9994
vt 0.9159 0.9158
vt 0.01112 0.261
vt 0.9887 0.2614
vt 0.2619 0.9884
vt 0.2619 0.9884
vt 0.01078 0.2607
vt 0.9162 0.9162
vt 0.01112 0.261
vt 0.9992 0.5001
vt 0.2615 0.9887
vt 0.08482 0.9155
vt 0.08384 0.08378
vt 0.7393 0.9892
vt 0.01078 0.2607
vt 0.08333 0.08333
vt 0.7387 0.0118
vt 0.7391 0.9889
vt 0.7389 0.01145
vt 0.0843 0.08419
vt 0.5003 0.0006633
vt 0.01112 0.261
vt 0.5003 0.0008831
vt 0.2615 0.9887
vt 0.01053 0.2605
vt 0.08532 0.9151
vt 0.0843 0.08419
vt 0.7391 0.9889
vt 0.08349 0.08348
vt 0.08384 0.08378
vt 0.2612 0.989
vt 0.7393 0.9892
vt 0.9994 0.5001
vt 0.0002471 0.5
vt 0.08433 0.9159
vt 0.01053 0.2605
vt 0.5001 0.9998
vt 7.91e-05 0.5
vt 0.08482 0.9155
vt 0.01078 0.2607
vt 0.5002 0.9996
vt 0.9887 0.2614
vt 0.5002 0.9994
vt 0.5001 0.000231
vt 0.7393 0.9892
vt 0.5002 0.000443
vt 0.5002 0.9996
vt 0.7393 0.01078
vt 0.7395 0.9895
vt 0.9163 0.08382
vt 0.2612 0.989
vt 0.5 0.9999
vt 0.7391 0.01111
vt 0.5001 0.9998
vt 0.7393 0.01078
vt 0.7391 0.01111
vt 0.9162 0.9162
vt 0.9165 0.08349
vt 0.7395 0.01053
vt 0.0004723 0.5001
vt 0.2615 0.9887
vt 0.9165 0.9165
vt 0.7393 0.01078
vt 0.7395 0.9895
vt 0.9159 0.08426
vt 0.9884 0.2617
vt 0 0.5
vt 0.7393 0.9892
vt 0.9163 0.08382
vt 0.9884 0.2617
vt 0.01112 0.261
vt 0.5002 0.9996
vt 0.5 7.397e-05
vt 0.5001 0.000231
vt 0.01042 0.2604
vt 0.5001 0.9998
vt 0.7395 0.01053
vt 0.9887 0.2614
vt 0.01042 0.2604
vt 0.2608 0.9893
vt 0.7393 0.01078
vt 0.2612 0.989
vt 0.7387 0.0118
vt 0.2612 0.989
vt 0.7389 0.01145
vt 0.9155 0.08473
vt 0.01112 0.261
vt 0.2608 0.9893
vt 0.9151 0.08519
vt 0.7391 0.01111
vt 0.08385 0.9162
vt 0.7389 0.01145
vt 0.01182 0.2617
vt 0.9159 0.08426
vt 0.08433 0.9159
vt 0.5003 0.0006633
vt 0.2608 0.9893
vt 0.9155 0.08473
vt 0.08526 0.08505
vt 0.5002 0.000443
vt 0.2605 0.9895
vt 0.0835 0.9165
vt 0.7391 0.01111
vt 0.9151 0.08519
vt 0.08385 0.9162
vt 0.5001 0.9998
vt 0.0009446 0.5001
vt 0.9998 0.5
vt 0.5 0.9999
vt 0.9895 0.2605
vt 0.9893 0.2608
vt 0.0004723 0.5001
vt 0.2605 0.9895
vt 0.9893 0.2608
vt 0.01182 0.2617
vt 0.9165 0.08349
vt 0.2608 0.9893
vt 0.9999 0.5
vt 0.9165 0.9165
vt 0.9163 0.08382
vn 0.099 -0.995 -0.01163
vn 0.07352 -0.9957 -0.05628
vn 0.376 -0.9061 -0.1937
vn 0.3911 -0.9076 -0.1527
vn 0.6465 -0.7184 -0.2565
vn 0.6548 -0.7235 -0.2187
vn 0.3335 -0.9004 -0.2792
vn 0.6223 -0.7068 -0.3363
vn 0.006348 -0.989 -0.1477
vn -0.4055 -0.8141 0.4157
vn -0.4584 -0.8085 0.3691
vn -0.2207 -0.9652 0.14
vn -0.1818 -0.9655 0.1866
vn -0.3147 -0.9481 0.04428
vn -0.5753 -0.772 0.2703
vn -0.04852 -0.9726 -0.2271
vn 0.2945 -0.8884 -0.3521
vn 0.5978 -0.6933 -0.4024
vn 0.2665 -0.8825 -0.3874
vn 0.5802 -0.6896 -0.4334
vn -0.07996 -0.9611 -0.2643
vn -0.6559 -0.7323 0.183
vn -0.3847 -0.9222 -0.03937
vn -0.4145 -0.907 -0.07407
vn -0.6815 -0.7156 0.1531
vn 0.8545 -0.4599 -0.2413
vn 0.8588 -0.4694 -0.2054
vn 0.9756 -0.1612 -0.1491
vn 0.9778 -0.1766 -0.1129
vn 0.8416 -0.4369 -0.3173
vn 0.9668 -0.1221 -0.2243
vn 0.8267 -0.4156 -0.3793
vn 0.9539 -0.0875 -0.2869
vn 0.8188 -0.405 -0.4068
vn 0.9471 -0.0643 -0.3145
vn 0.8914 0.3728 0.2578
vn 0.9918 0.1184 0.04758
vn 0.9898 0.1419 0.009949
vn 0.8868 0.4071 0.2186
vn 0.9773 0.2014 -0.06613
vn 0.8611 0.4885 0.1406
vn 0.9588 0.2511 -0.1327
vn 0.8314 0.5513 0.06915
vn 0.9449 0.2835 -0.1635
vn 0.8109 0.5841 0.03531
vn 0.9385 0.3043 -0.1628
vn 0.797 0.6032 0.03153
vn 0.9393 0.3087 -0.1499
vn 0.7927 0.6084 0.03748
vn 0.9478 -0.04965 -0.3151
vn 0.9513 -0.04639 -0.3048
vn 0.569 -0.6959 -0.4381
vn 0.8177 -0.4031 -0.4108
vn 0.8201 -0.4049 -0.4043
vn 0.5672 -0.7023 -0.4301
vn 0.5401 0.8049 0.2459
vn 0.5586 0.7889 0.2561
vn 0.2036 0.8733 0.4426
vn 0.2246 0.8601 0.4581
vn 0.5283 0.8154 0.2364
vn 0.1829 0.891 0.4154
vn 0.5816 0.7604 0.2889
vn 0.6263 0.6891 0.3645
vn 0.2469 0.8376 0.4872
vn 0.3069 0.7635 0.5683
vn -0.114 0.7699 0.6279
vn -0.04212 0.6971 0.7157
vn -0.4413 0.572 0.6914
vn -0.3627 0.5017 0.7853
vn -0.1335 0.7869 0.6025
vn -0.4578 0.586 0.6686
vn -0.1533 0.7979 0.5829
vn -0.4749 0.5969 0.6467
vn -0.1809 0.8215 0.5407
vn -0.5064 0.6244 0.5947
vn -0.7182 0.3025 0.6266
vn -0.7033 0.2898 0.6491
vn -0.8498 -0.04523 0.5252
vn -0.8351 -0.06082 0.5466
vn -0.7508 0.3321 0.571
vn -0.8812 -0.0163 0.4725
vn -0.6881 0.2766 0.6708
vn -0.6061 0.209 0.7674
vn -0.8186 -0.07523 0.5694
vn -0.7342 -0.138 0.6648
vn -0.8094 -0.4315 0.3983
vn -0.7245 -0.485 0.4897
vn -0.8298 -0.4153 0.3728
vn -0.8465 -0.3977 0.3539
vn -0.7015 -0.6992 0.1379
vn -0.8743 -0.3727 0.3107
vn -0.7235 -0.6816 0.1095
vn -0.4361 -0.8958 -0.08536
vn -0.102 -0.9571 -0.2712
vn -0.4502 -0.8877 -0.09632
vn -0.1098 -0.9573 -0.2673
vn -0.9042 0.003113 0.4271
vn -0.8935 -0.3568 0.2726
vn -0.7377 -0.6698 0.08469
vn -0.9093 -0.3451 0.2325
vn -0.75 -0.6589 0.05701
vn -0.924 0.01746 0.3818
vn -0.4587 -0.8823 -0.1052
vn -0.1103 -0.9581 -0.2642
vn -0.4671 -0.8763 -0.1177
vn -0.1072 -0.9581 -0.2655
vn 0.2484 -0.8939 -0.373
vn 0.2417 -0.8921 -0.3815
vn 0.5741 -0.7025 -0.4205
vn 0.2643 -0.8919 -0.3669
vn 0.5888 -0.6976 -0.4082
vn 0.2467 -0.8864 -0.3917
vn 0.8233 -0.4073 -0.3952
vn 0.9536 -0.05344 -0.2963
vn 0.828 -0.4107 -0.3818
vn 0.955 -0.06952 -0.2882
vn 0.6086 -0.6892 -0.3931
vn 0.8338 -0.4145 -0.3647
vn 0.9557 -0.09174 -0.2798
vn 0.8383 -0.4163 -0.352
vn 0.9539 -0.115 -0.2772
vn 0.6288 -0.6768 -0.3828
vn -0.09854 -0.9569 -0.273
vn 0.2875 -0.8865 -0.3624
vn 0.3134 -0.8767 -0.3648
vn -0.08344 -0.9536 -0.2892
vn 0.7947 0.6058 0.03833
vn 0.948 0.2858 -0.1401
vn 0.9544 0.2622 -0.1428
vn 0.7992 0.6005 0.02789
vn 0.9595 0.2359 -0.1541
vn 0.805 0.5932 0.007324
vn 0.9427 0.3018 -0.1421
vn 0.7928 0.6081 0.04099
vn 0.5093 0.8384 0.1939
vn 0.5139 0.8303 0.2153
vn 0.1517 0.9324 0.328
vn 0.159 0.9178 0.3638
vn 0.5108 0.8438 0.1646
vn 0.1539 0.9443 0.2908
vn 0.5213 0.8223 0.2281
vn 0.1701 0.9043 0.3914
vn -0.2181 0.8816 0.4185
vn -0.2095 0.86 0.4652
vn -0.5577 0.6951 0.4536
vn -0.5426 0.6698 0.5069
vn -0.2215 0.9003 0.3746
vn -0.5718 0.7161 0.4002
vn -0.1978 0.8408 0.504
vn -0.5273 0.6472 0.5505
vn -0.8152 0.3966 0.4219
vn -0.7943 0.3743 0.4786
vn -0.9446 0.03333 0.3264
vn -0.8333 0.4173 0.3624
vn -0.9611 0.05115 0.2715
vn -0.7744 0.3545 0.524
vn -0.9243 -0.3341 0.1844
vn -0.7596 -0.6499 0.02194
vn -0.9352 -0.3251 0.14
vn -0.7614 -0.6481 -0.01343
vn -0.9451 -0.3119 0.09717
vn -0.7608 -0.6466 -0.05542
vn -0.9625 -0.2703 0.02429
vn -0.7818 -0.608 -0.1379
vn -0.9727 0.07334 0.2202
vn -0.9828 0.1099 0.1484
vn -0.8473 0.4349 0.3048
vn -0.8603 0.4551 0.2295
vn -0.5871 0.7309 0.3478
vn -0.6111 0.7444 0.2692
vn -0.9799 -0.1507 -0.1303
vn -0.8368 -0.4546 -0.3052
vn -0.9377 0.05026 -0.3438
vn -0.8514 -0.1671 -0.4971
vn -0.9829 0.1841 0.0006104
vn -0.9301 0.2895 -0.2262
vn -0.8701 0.4864 0.07993
vn -0.8439 0.5125 -0.1584
vn -0.6523 0.7506 0.1052
vn -0.6833 0.7154 -0.1456
vn -0.4218 0.5179 -0.7442
vn -0.4896 0.5232 -0.6975
vn 0.6764 0.5272 -0.5142
vn 0.4623 0.8253 -0.3244
vn -0.3733 0.4639 -0.8034
vn 0.7349 0.1461 -0.6622
vn -0.3881 0.369 -0.8444
vn 0.6173 -0.2249 -0.7538
vn -0.4702 0.3093 -0.8266
vn 0.3382 -0.5258 -0.7804
vn 0.4379 0.2716 -0.857
vn 0.2186 0.5873 -0.7793
vn 0.811 0.4368 -0.3891
vn 0.8461 0.06629 -0.5289
vn 0.6075 0.7634 -0.2193
vn 0.2691 0.7898 -0.5511
vn 0.1151 -0.2758 -0.9543
vn 0.1579 0.0773 -0.9844
vn 0.7221 -0.3068 -0.62
vn 0.4442 -0.6079 -0.6581
vn -0.2427 0.9377 -0.2486
vn -0.1206 0.8591 -0.4974
vn -0.5085 0.4172 -0.7532
vn -0.5597 0.7692 -0.3083
vn -0.723 0.6834 -0.1012
vn -0.8155 0.5054 -0.2817
vn -0.9379 0.3027 -0.1697
vn -0.8901 0.1818 -0.4178
vn -0.8719 -0.1751 -0.4572
vn -0.7064 -0.1732 -0.6862
vn -0.4465 -0.4481 -0.7745
vn -0.2783 -0.2569 -0.9255
vn 0.08789 -0.7825 -0.6164
vn -0.2995 -0.8055 -0.5113
vn -0.03189 -0.702 -0.7115
vn -0.3833 -0.7243 -0.5731
vn -0.6158 -0.6927 -0.3754
vn -0.8816 -0.4295 -0.1956
vn -0.6789 -0.6113 -0.4067
vn -0.9144 -0.3429 -0.2149
vn -0.4579 0.8681 -0.1917
vn -0.5401 0.2978 -0.7871
vn -0.5964 0.3187 -0.7366
vn -0.2257 0.9333 -0.2792
vn -0.0521 0.9252 -0.3758
vn -0.6586 0.388 -0.6447
vn -0.6949 0.5122 -0.5046
vn 0.03854 0.8806 -0.4722
vn -0.2557 0.9357 0.2429
vn -0.3426 0.9375 0.06012
vn -0.0202 0.9989 -0.04263
vn 0.1181 0.9816 0.15
vn 0.4508 0.8922 0.02527
vn 0.2567 0.9524 -0.1642
vn 0.496 0.8111 -0.3099
vn 0.7383 0.6628 -0.1248
vn -0.2263 0.9169 0.3288
vn 0.1567 0.9568 0.2447
vn 0.5077 0.8531 0.1205
vn 0.8012 0.5976 -0.03128
vn 0.9048 0.3157 -0.2858
vn 0.6511 0.571 -0.5
vn 0.04831 0.7877 -0.6141
vn 0.6635 0.2481 -0.7058
vn -0.03101 0.5893 -0.8073
vn 0.9107 -0.04508 -0.4106
vn 0.9556 0.228 -0.1864
vn 0.9461 -0.1219 -0.2999
vn 0.835 -0.4093 -0.3677
vn 0.7938 -0.3637 -0.4873
vn 0.6349 -0.6608 -0.4003
vn 0.5666 -0.6382 -0.5211
vn 0.5135 -0.1422 -0.8462
vn -0.1917 0.2764 -0.9417
vn 0.2329 -0.4901 -0.8399
vn -0.3948 -0.04193 -0.9178
vn -0.7116 0.5778 -0.3996
vn -0.9995 -0.01053 -0.03006
vn -0.7414 0.5632 -0.3647
vn -0.9637 0.2499 0.09424
vn -0.7834 0.5035 -0.3643
vn -0.8738 0.4596 0.1586
vn -0.8095 0.4449 -0.3831
vn -0.7304 0.6611 0.1716
vn -0.9937 -0.1095 -0.02536
vn -0.9738 0.2019 0.1043
vn -0.8715 0.4592 0.1719
vn -0.6965 0.6901 0.1963
vn -0.4182 0.8928 0.1675
vn -0.07428 0.9938 0.08225
vn -0.503 0.8535 0.1355
vn -0.177 0.9835 0.03708
vn 0.3104 0.9487 -0.05945
vn 0.1701 0.9773 -0.1259
vn -0.5484 -0.2435 -0.8
vn -0.7936 0.4387 -0.4215
vn -0.7041 0.4908 -0.5131
vn -0.6318 -0.3115 -0.7098
vn -0.7213 -0.2892 -0.6293
vn -0.5716 0.5287 -0.6274
vn 0.2365 -0.8329 -0.5003
vn -0.07721 -0.6796 -0.7294
vn -0.3592 -0.7119 -0.6035
vn -0.1397 -0.8964 -0.4206
vn -0.4903 -0.8195 -0.2965
vn -0.6075 -0.6391 -0.4717
vn 0.3223 -0.862 -0.3912
vn -0.0763 -0.9428 -0.3245
vn -0.4654 -0.8696 -0.1646
vn -0.4575 -0.865 -0.2059
vn -0.4714 -0.8711 -0.1378
vn -0.1924 0.3418 0.9199
vn -0.2463 0.3959 0.8846
vn -0.4783 0.1131 0.8709
vn -0.4139 0.06955 0.9077
vn -0.6012 -0.2188 0.7685
vn -0.5332 -0.2486 0.8086
vn -0.5945 -0.5449 0.5912
vn -0.531 -0.561 0.635
vn 0.4045 0.5988 0.6912
vn 0.3807 0.654 0.6537
vn 0.05597 0.5864 0.8081
vn 0.09516 0.5283 0.8437
vn 0.6738 0.5898 0.4452
vn 0.6855 0.5437 0.4841
f 1/1/1 2/2/2 3/3/3
f 1/1/1 3/3/3 4/4/4
f 4/4/4 3/3/3 5/5/5
f 4/4/4 5/5/5 6/6/6
f 3/3/3 7/7/7 8/8/8
f 3/3/3 8/8/8 5/5/5
f 2/2/2 9/9/9 7/7/7
f 2/2/2 7/7/7 3/3/3
f 10/10/10 11/11/11 12/12/12
f 10/10/10 12/12/12 13/13/13
f 13/13/13 12/12/12 2/2/2
f 13/13/13 2/2/2 1/1/1
f 12/12/12 14/14/14 9/9/9
f 12/12/12 9/9/9 2/2/2
f 11/11/11 15/15/15 14/14/14
f 11/11/11 14/14/14 12/12/12
f 9/9/9 16/16/16 17/17/17
f 9/9/9 17/17/17 7/7/7
f 7/7/7 17/17/17 18/18/18
f 7/7/7 18/18/18 8/8/8
f 17/17/17 19/19/19 20/20/20
f 17/17/17 20/20/20 18/18/18
f 16/16/16 21/21/21 19/19/19
f 16/16/16 19/19/19 17/17/17
f 15/15/15 22/22/22 23/23/23
f 15/15/15 23/23/23 14/14/14
f 14/14/14 23/23/23 16/16/16
f 14/14/14 16/16/16 9/9/9
f 23/23/23 24/24/24 21/21/21
f 23/23/23 21/21/21 16/16/16
f 22/22/22 25/25/25 24/24/24
f 22/22/22 24/24/24 23/23/23
f 6/6/6 5/5/5 26/26/26
f 6/6/6 26/26/26 27/27/27
f 27/27/27 26/26/26 28/28/28
f 27/27/27 28/28/28 29/29/29
f 26/26/26 30/30/30 31/31/31
f 26/26/26 31/31/31 28/28/28
f 5/5/5 8/8/8 30/30/30
f 5/5/5 30/30/30 26/26/26
f 8/8/8 18/18/18 32/32/32
f 8/8/8 32/32/32 30/30/30
f 30/30/30 32/32/32 33/33/33
f 30/30/30 33/33/33 31/31/31
f 32/32/32 34/34/34 35/35/35
f 32/32/32 35/35/35 33/33/33
f 18/18/18 20/20/20 34/34/34
f 18/18/18 34/34/34 32/32/32
f 36/36/36 37/37/37 38/38/38
f 36/36/36 38/38/38 39/39/39
f 39/39/39 38/38/38 40/40/40
f 39/39/39 40/40/40 41/41/41
f 38/38/38 28/28/28 31/31/31
f 38/38/38 31/31/31 40/40/40
f 37/37/37 29/29/29 28/28/28
f 37/37/37 28/28/28 38/38/38
f 41/41/41 40/40/40 42/42/42
f 41/41/41 42/42/42 43/43/43
f 43/43/43 42/42/42 44/44/44
f 43/43/43 44/44/44 45/45/45
f 42/42/42 33/33/33 35/35/35
f 42/42/42 35/35/35 44/44/44
f 40/40/40 31/31/31 33/33/33
f 40/40/40 33/33/33 42/42/42
f 45/45/45 44/44/44 46/46/46
f 45/45/45 46/46/46 47/47/47
f 47/47/47 46/46/46 48/48/48
f 47/47/47 48/48/48 49/49/49
f 46/46/46 50/50/50 51/51/51
f 46/46/46 51/51/51 48/48/48
f 44/44/44 35/35/35 50/50/50
f 44/44/44 50/50/50 46/46/46
f 20/20/20 52/52/52 53/53/53
f 20/20/20 53/53/53 34/34/34
f 34/34/34 53/53/53 50/50/50
f 34/34/34 50/50/50 35/35/35
f 53/53/53 54/54/54 51/51/51
f 53/53/53 51/51/51 50/50/50
f 52/52/52 55/55/55 54/54/54
f 52/52/52 54/54/54 53/53/53
f 45/45/45 47/47/47 56/56/56
f 45/45/45 56/56/56 57/57/57
f 57/57/57 56/56/56 58/58/58
f 57/57/57 58/58/58 59/59/59
f 56/56/56 60/60/60 61/61/61
f 56/56/56 61/61/61 58/58/58
f 47/47/47 49/49/49 60/60/60
f 47/47/47 60/60/60 56/56/56
f 41/41/41 43/43/43 62/62/62
f 41/41/41 62/62/62 63/63/63
f 63/63/63 62/62/62 64/64/64
f 63/63/63 64/64/64 65/65/65
f 62/62/62 57/57/57 59/59/59
f 62/62/62 59/59/59 64/64/64
f 43/43/43 45/45/45 57/57/57
f 43/43/43 57/57/57 62/62/62
f 65/65/65 64/64/64 66/66/66
f 65/65/65 66/66/66 67/67/67
f 67/67/67 66/66/66 68/68/68
f 67/67/67 68/68/68 69/69/69
f 66/66/66 70/70/70 71/71/71
f 66/66/66 71/71/71 68/68/68
f 64/64/64 59/59/59 70/70/70
f 64/64/64 70/70/70 66/66/66
f 59/59/59 58/58/58 72/72/72
f 59/59/59 72/72/72 70/70/70
f 70/70/70 72/72/72 73/73/73
f 70/70/70 73/73/73 71/71/71
f 72/72/72 74/74/74 75/75/75
f 72/72/72 75/75/75 73/73/73
f 58/58/58 61/61/61 74/74/74
f 58/58/58 74/74/74 72/72/72
f 71/71/71 73/73/73 76/76/76
f 71/71/71 76/76/76 77/77/77
f 77/77/77 76/76/76 78/78/78
f 77/77/77 78/78/78 79/79/79
f 76/76/76 80/80/80 81/81/81
f 76/76/76 81/81/81 78/78/78
f 73/73/73 75/75/75 80/80/80
f 73/73/73 80/80/80 76/76/76
f 69/69/69 68/68/68 82/82/82
f 69/69/69 82/82/82 83/83/83
f 83/83/83 82/82/82 84/84/84
f 83/83/83 84/84/84 85/85/85
f 82/82/82 77/77/77 79/79/79
f 82/82/82 79/79/79 84/84/84
f 68/68/68 71/71/71 77/77/77
f 68/68/68 77/77/77 82/82/82
f 85/85/85 84/84/84 86/86/86
f 85/85/85 86/86/86 87/87/87
f 87/87/87 86/86/86 22/22/22
f 87/87/87 22/22/22 15/15/15
f 86/86/86 88/88/88 25/25/25
f 86/86/86 25/25/25 22/22/22
f 84/84/84 79/79/79 88/88/88
f 84/84/84 88/88/88 86/86/86
f 79/79/79 78/78/78 89/89/89
f 79/79/79 89/89/89 88/88/88
f 88/88/88 89/89/89 90/90/90
f 88/88/88 90/90/90 25/25/25
f 89/89/89 91/91/91 92/92/92
f 89/89/89 92/92/92 90/90/90
f 78/78/78 81/81/81 91/91/91
f 78/78/78 91/91/91 89/89/89
f 25/25/25 90/90/90 93/93/93
f 25/25/25 93/93/93 24/24/24
f 24/24/24 93/93/93 94/94/94
f 24/24/24 94/94/94 21/21/21
f 93/93/93 95/95/95 96/96/96
f 93/93/93 96/96/96 94/94/94
f 90/90/90 92/92/92 95/95/95
f 90/90/90 95/95/95 93/93/93
f 81/81/81 97/97/97 98/98/98
f 81/81/81 98/98/98 91/91/91
f 91/91/91 98/98/98 99/99/99
f 91/91/91 99/99/99 92/92/92
f 98/98/98 100/100/100 101/101/101
f 98/98/98 101/101/101 99/99/99
f 97/97/97 102/102/102 100/100/100
f 97/97/97 100/100/100 98/98/98
f 92/92/92 99/99/99 103/103/103
f 92/92/92 103/103/103 95/95/95
f 95/95/95 103/103/103 104/104/104
f 95/95/95 104/104/104 96/96/96
f 103/103/103 105/105/105 106/106/106
f 103/103/103 106/106/106 104/104/104
f 99/99/99 101/101/101 105/105/105
f 99/99/99 105/105/105 103/103/103
f 96/96/96 104/104/104 107/107/107
f 96/96/96 107/107/107 108/108/108
f 108/108/108 107/107/107 109/109/109
f 108/108/108 109/109/109 55/55/55
f 107/107/107 110/110/110 111/111/111
f 107/107/107 111/111/111 109/109/109
f 104/104/104 106/106/106 110/110/110
f 104/104/104 110/110/110 107/107/107
f 21/21/21 94/94/94 112/112/112
f 21/21/21 112/112/112 19/19/19
f 19/19/19 112/112/112 52/52/52
f 19/19/19 52/52/52 20/20/20
f 112/112/112 108/108/108 55/55/55
f 112/112/112 55/55/55 52/52/52
f 94/94/94 96/96/96 108/108/108
f 94/94/94 108/108/108 112/112/112
f 55/55/55 109/109/109 113/113/113
f 55/55/55 113/113/113 54/54/54
f 54/54/54 113/113/113 114/114/114
f 54/54/54 114/114/114 51/51/51
f 113/113/113 115/115/115 116/116/116
f 113/113/113 116/116/116 114/114/114
f 109/109/109 111/111/111 115/115/115
f 109/109/109 115/115/115 113/113/113
f 111/111/111 117/117/117 118/118/118
f 111/111/111 118/118/118 115/115/115
f 115/115/115 118/118/118 119/119/119
f 115/115/115 119/119/119 116/116/116
f 118/118/118 120/120/120 121/121/121
f 118/118/118 121/121/121 119/119/119
f 117/117/117 122/122/122 120/120/120
f 117/117/117 120/120/120 118/118/118
f 106/106/106 123/123/123 124/124/124
f 106/106/106 124/124/124 110/110/110
f 110/110/110 124/124/124 117/117/117
f 110/110/110 117/117/117 111/111/111
f 124/124/124 125/125/125 122/122/122
f 124/124/124 122/122/122 117/117/117
f 123/123/123 126/126/126 125/125/125
f 123/123/123 125/125/125 124/124/124
f 127/127/127 128/128/128 129/129/129
f 127/127/127 129/129/129 130/130/130
f 130/130/130 129/129/129 131/131/131
f 130/130/130 131/131/131 132/132/132
f 129/129/129 119/119/119 121/121/121
f 129/129/129 121/121/121 131/131/131
f 128/128/128 116/116/116 119/119/119
f 128/128/128 119/119/119 129/129/129
f 49/49/49 48/48/48 133/133/133
f 49/49/49 133/133/133 134/134/134
f 134/134/134 133/133/133 128/128/128
f 134/134/134 128/128/128 127/127/127
f 133/133/133 114/114/114 116/116/116
f 133/133/133 116/116/116 128/128/128
f 48/48/48 51/51/51 114/114/114
f 48/48/48 114/114/114 133/133/133
f 127/127/127 130/130/130 135/135/135
f 127/127/127 135/135/135 136/136/136
f 136/136/136 135/135/135 137/137/137
f 136/136/136 137/137/137 138/138/138
f 135/135/135 139/139/139 140/140/140
f 135/135/135 140/140/140 137/137/137
f 130/130/130 132/132/132 139/139/139
f 130/130/130 139/139/139 135/135/135
f 49/49/49 134/134/134 141/141/141
f 49/49/49 141/141/141 60/60/60
f 60/60/60 141/141/141 142/142/142
f 60/60/60 142/142/142 61/61/61
f 141/141/141 136/136/136 138/138/138
f 141/141/141 138/138/138 142/142/142
f 134/134/134 127/127/127 136/136/136
f 134/134/134 136/136/136 141/141/141
f 138/138/138 137/137/137 143/143/143
f 138/138/138 143/143/143 144/144/144
f 144/144/144 143/143/143 145/145/145
f 144/144/144 145/145/145 146/146/146
f 143/143/143 147/147/147 148/148/148
f 143/143/143 148/148/148 145/145/145
f 137/137/137 140/140/140 147/147/147
f 137/137/137 147/147/147 143/143/143
f 61/61/61 142/142/142 149/149/149
f 61/61/61 149/149/149 74/74/74
f 74/74/74 149/149/149 150/150/150
f 74/74/74 150/150/150 75/75/75
f 149/149/149 144/144/144 146/146/146
f 149/149/149 146/146/146 150/150/150
f 142/142/142 138/138/138 144/144/144
f 142/142/142 144/144/144 149/149/149
f 146/146/146 145/145/145 151/151/151
f 146/146/146 151/151/151 152/152/152
f 152/152/152 151/151/151 153/153/153
f 152/152/152 153/153/153 102/102/102
f 151/151/151 154/154/154 155/155/155
f 151/151/151 155/155/155 153/153/153
f 145/145/145 148/148/148 154/154/154
f 145/145/145 154/154/154 151/151/151
f 75/75/75 150/150/150 156/156/156
f 75/75/75 156/156/156 80/80/80
f 80/80/80 156/156/156 97/97/97
f 80/80/80 97/97/97 81/81/81
f 156/156/156 152/152/152 102/102/102
f 156/156/156 102/102/102 97/97/97
f 150/150/150 146/146/146 152/152/152
f 150/150/150 152/152/152 156/156/156
f 102/102/102 153/153/153 157/157/157
f 102/102/102 157/157/157 100/100/100
f 100/100/100 157/157/157 158/158/158
f 100/100/100 158/158/158 101/101/101
f 157/157/157 159/159/159 160/160/160
f 157/157/157 160/160/160 158/158/158
f 153/153/153 155/155/155 159/159/159
f 153/153/153 159/159/159 157/157/157
f 160/160/160 159/159/159 161/161/161
f 160/160/160 161/161/161 162/162/162
f 162/162/162 161/161/161 163/163/163
f 162/162/162 163/163/163 164/164/164
f 161/161/161 165/165/165 166/166/166
f 161/161/161 166/166/166 163/163/163
f 159/159/159 155/155/155 165/165/165
f 159/159/159 165/165/165 161/161/161
f 155/155/155 154/154/154 167/167/167
f 155/155/155 167/167/167 165/165/165
f 165/165/165 167/167/167 168/168/168
f 165/165/165 168/168/168 166/166/166
f 167/167/167 169/169/169 170/170/170
f 167/167/167 170/170/170 168/168/168
f 154/154/154 148/148/148 169/169/169
f 154/154/154 169/169/169 167/167/167
f 164/164/164 163/163/163 171/171/171
f 164/164/164 171/171/171 172/172/172
f 172/172/172 171/171/171 173/173/173
f 172/172/172 173/173/173 174/174/174
f 171/171/171 175/175/175 176/176/176
f 171/171/171 176/176/176 173/173/173
f 163/163/163 166/166/166 175/175/175
f 163/163/163 175/175/175 171/171/171
f 166/166/166 168/168/168 177/177/177
f 166/166/166 177/177/177 175/175/175
f 175/175/175 177/177/177 178/178/178
f 175/175/175 178/178/178 176/176/176
f 177/177/177 179/179/179 180/180/180
f 177/177/177 180/180/180 178/178/178
f 168/168/168 170/170/170 179/179/179
f 168/168/168 179/179/179 177/177/177
f 174/174/174 173/173/173 181/181/181
f 174/174/174 181/181/181 182/182/182
f 182/182/182 181/181/181 183/183/183
f 182/182/182 183/183/183 184/184/184
f 181/181/181 185/185/185 186/186/186
f 181/181/181 186/186/186 183/183/183
f 173/173/173 176/176/176 185/185/185
f 173/173/173 185/185/185 181/181/181
f 176/176/176 178/178/178 187/187/187
f 176/176/176 187/187/187 185/185/185
f 185/185/185 187/187/187 188/188/188
f 185/185/185 188/188/188 186/186/186
f 187/187/187 189/189/189 190/190/190
f 187/187/187 190/190/190 188/188/188
f 178/178/178 180/180/180 189/189/189
f 178/178/178 189/189/189 187/187/187
f 191/191/191 192/192/192 193/193/193
f 191/191/191 193/193/193 194/194/194
f 194/194/194 193/193/193 183/183/183
f 194/194/194 183/183/183 186/186/186
f 193/193/193 195/195/195 184/184/184
f 193/193/193 184/184/184 183/183/183
f 192/192/192 196/196/196 195/195/195
f 192/192/192 195/195/195 193/193/193
f 197/197/197 198/198/198 199/199/199
f 197/197/197 199/199/199 200/200/200
f 200/200/200 199/199/199 188/188/188
f 200/200/200 188/188/188 190/190/190
f 199/199/199 194/194/194 186/186/186
f 199/199/199 186/186/186 188/188/188
f 198/198/198 191/191/191 194/194/194
f 198/198/198 194/194/194 199/199/199
f 201/201/201 202/202/202 203/203/203
f 201/201/201 203/203/203 204/204/204
f 205/205/205 204/204/204 203/203/203
f 205/205/205 203/203/203 206/206/206
f 207/207/207 206/206/206 203/203/203
f 207/207/207 203/203/203 208/208/208
f 209/209/209 208/208/208 203/203/203
f 209/209/209 203/203/203 210/210/210
f 211/211/211 210/210/210 203/203/203
f 211/211/211 203/203/203 212/212/212
f 197/197/197 212/212/212 203/203/203
f 197/197/197 203/203/203 198/198/198
f 191/191/191 198/198/198 203/203/203
f 191/191/191 203/203/203 192/192/192
f 196/196/196 192/192/192 203/203/203
f 196/196/196 203/203/203 202/202/202
f 211/211/211 212/212/212 213/213/213
f 211/211/211 213/213/213 214/214/214
f 214/214/214 213/213/213 215/215/215
f 214/214/214 215/215/215 216/216/216
f 213/213/213 200/200/200 190/190/190
f 213/213/213 190/190/190 215/215/215
f 212/212/212 197/197/197 200/200/200
f 212/212/212 200/200/200 213/213/213
f 209/209/209 210/210/210 217/217/217
f 209/209/209 217/217/217 218/218/218
f 218/218/218 217/217/217 219/219/219
f 218/218/218 219/219/219 220/220/220
f 217/217/217 214/214/214 216/216/216
f 217/217/217 216/216/216 219/219/219
f 210/210/210 211/211/211 214/214/214
f 210/210/210 214/214/214 217/217/217
f 180/180/180 221/221/221 222/222/222
f 180/180/180 222/222/222 189/189/189
f 189/189/189 222/222/222 215/215/215
f 189/189/189 215/215/215 190/190/190
f 222/222/222 223/223/223 216/216/216
f 222/222/222 216/216/216 215/215/215
f 221/221/221 224/224/224 223/223/223
f 221/221/221 223/223/223 222/222/222
f 224/224/224 225/225/225 226/226/226
f 224/224/224 226/226/226 223/223/223
f 223/223/223 226/226/226 219/219/219
f 223/223/223 219/219/219 216/216/216
f 226/226/226 227/227/227 220/220/220
f 226/226/226 220/220/220 219/219/219
f 225/225/225 228/228/228 227/227/227
f 225/225/225 227/227/227 226/226/226
f 170/170/170 229/229/229 230/230/230
f 170/170/170 230/230/230 179/179/179
f 179/179/179 230/230/230 221/221/221
f 179/179/179 221/221/221 180/180/180
f 230/230/230 231/231/231 224/224/224
f 230/230/230 224/224/224 221/221/221
f 229/229/229 232/232/232 231/231/231
f 229/229/229 231/231/231 230/230/230
f 232/232/232 233/233/233 234/234/234
f 232/232/232 234/234/234 231/231/231
f 231/231/231 234/234/234 225/225/225
f 231/231/231 225/225/225 224/224/224
f 234/234/234 235/235/235 228/228/228
f 234/234/234 228/228/228 225/225/225
f 233/233/233 236/236/236 235/235/235
f 233/233/233 235/235/235 234/234/234
f 148/148/148 147/147/147 237/237/237
f 148/148/148 237/237/237 169/169/169
f 169/169/169 237/237/237 229/229/229
f 169/169/169 229/229/229 170/170/170
f 237/237/237 238/238/238 232/232/232
f 237/237/237 232/232/232 229/229/229
f 147/147/147 140/140/140 238/238/238
f 147/147/147 238/238/238 237/237/237
f 140/140/140 139/139/139 239/239/239
f 140/140/140 239/239/239 238/238/238
f 238/238/238 239/239/239 233/233/233
f 238/238/238 233/233/233 232/232/232
f 239/239/239 240/240/240 236/236/236
f 239/239/239 236/236/236 233/233/233
f 139/139/139 132/132/132 240/240/240
f 139/139/139 240/240/240 239/239/239
f 236/236/236 241/241/241 242/242/242
f 236/236/236 242/242/242 235/235/235
f 235/235/235 242/242/242 243/243/243
f 235/235/235 243/243/243 228/228/228
f 242/242/242 244/244/244 245/245/245
f 242/242/242 245/245/245 243/243/243
f 241/241/241 246/246/246 244/244/244
f 241/241/241 244/244/244 242/242/242
f 132/132/132 131/131/131 247/247/247
f 132/132/132 247/247/247 240/240/240
f 240/240/240 247/247/247 241/241/241
f 240/240/240 241/241/241 236/236/236
f 247/247/247 248/248/248 246/246/246
f 247/247/247 246/246/246 241/241/241
f 131/131/131 121/121/121 248/248/248
f 131/131/131 248/248/248 247/247/247
f 121/121/121 120/120/120 249/249/249
f 121/121/121 249/249/249 248/248/248
f 248/248/248 249/249/249 250/250/250
f 248/248/248 250/250/250 246/246/246
f 249/249/249 251/251/251 252/252/252
f 249/249/249 252/252/252 250/250/250
f 120/120/120 122/122/122 251/251/251
f 120/120/120 251/251/251 249/249/249
f 246/246/246 250/250/250 253/253/253
f 246/246/246 253/253/253 244/244/244
f 244/244/244 253/253/253 254/254/254
f 244/244/244 254/254/254 245/245/245
f 253/253/253 255/255/255 256/256/256
f 253/253/253 256/256/256 254/254/254
f 250/250/250 252/252/252 255/255/255
f 250/250/250 255/255/255 253/253/253
f 228/228/228 243/243/243 257/257/257
f 228/228/228 257/257/257 227/227/227
f 227/227/227 257/257/257 258/258/258
f 227/227/227 258/258/258 220/220/220
f 257/257/257 259/259/259 260/260/260
f 257/257/257 260/260/260 258/258/258
f 243/243/243 245/245/245 259/259/259
f 243/243/243 259/259/259 257/257/257
f 245/245/245 254/254/254 261/261/261
f 245/245/245 261/261/261 259/259/259
f 259/259/259 261/261/261 262/262/262
f 259/259/259 262/262/262 260/260/260
f 261/261/261 263/263/263 264/264/264
f 261/261/261 264/264/264 262/262/262
f 254/254/254 256/256/256 263/263/263
f 254/254/254 263/263/263 261/261/261
f 207/207/207 208/208/208 265/265/265
f 207/207/207 265/265/265 266/266/266
f 266/266/266 265/265/265 258/258/258
f 266/266/266 258/258/258 260/260/260
f 265/265/265 218/218/218 220/220/220
f 265/265/265 220/220/220 258/258/258
f 208/208/208 209/209/209 218/218/218
f 208/208/208 218/218/218 265/265/265
f 205/205/205 206/206/206 267/267/267
f 205/205/205 267/267/267 268/268/268
f 268/268/268 267/267/267 262/262/262
f 268/268/268 262/262/262 264/264/264
f 267/267/267 266/266/266 260/260/260
f 267/267/267 260/260/260 262/262/262
f 206/206/206 207/207/207 266/266/266
f 206/206/206 266/266/266 267/267/267
f 201/201/201 204/204/204 269/269/269
f 201/201/201 269/269/269 270/270/270
f 270/270/270 269/269/269 271/271/271
f 270/270/270 271/271/271 272/272/272
f 269/269/269 268/268/268 264/264/264
f 269/269/269 264/264/264 271/271/271
f 204/204/204 205/205/205 268/268/268
f 204/204/204 268/268/268 269/269/269
f 196/196/196 202/202/202 273/273/273
f 196/196/196 273/273/273 195/195/195
f 195/195/195 273/273/273 274/274/274
f 195/195/195 274/274/274 184/184/184
f 273/273/273 270/270/270 272/272/272
f 273/273/273 272/272/272 274/274/274
f 202/202/202 201/201/201 270/270/270
f 202/202/202 270/270/270 273/273/273
f 256/256/256 275/275/275 276/276/276
f 256/256/256 276/276/276 263/263/263
f 263/263/263 276/276/276 271/271/271
f 263/263/263 271/271/271 264/264/264
f 276/276/276 277/277/277 272/272/272
f 276/276/276 272/272/272 271/271/271
f 275/275/275 278/278/278 277/277/277
f 275/275/275 277/277/277 276/276/276
f 278/278/278 279/279/279 280/280/280
f 278/278/278 280/280/280 277/277/277
f 277/277/277 280/280/280 274/274/274
f 277/277/277 274/274/274 272/272/272
f 280/280/280 182/182/182 184/184/184
f 280/280/280 184/184/184 274/274/274
f 279/279/279 174/174/174 182/182/182
f 279/279/279 182/182/182 280/280/280
f 252/252/252 281/281/281 282/282/282
f 252/252/252 282/282/282 255/255/255
f 255/255/255 282/282/282 275/275/275
f 255/255/255 275/275/275 256/256/256
f 282/282/282 283/283/283 278/278/278
f 282/282/282 278/278/278 275/275/275
f 281/281/281 284/284/284 283/283/283
f 281/281/281 283/283/283 282/282/282
f 284/284/284 285/285/285 286/286/286
f 284/284/284 286/286/286 283/283/283
f 283/283/283 286/286/286 279/279/279
f 283/283/283 279/279/279 278/278/278
f 286/286/286 172/172/172 174/174/174
f 286/286/286 174/174/174 279/279/279
f 285/285/285 164/164/164 172/172/172
f 285/285/285 172/172/172 286/286/286
f 122/122/122 125/125/125 287/287/287
f 122/122/122 287/287/287 251/251/251
f 251/251/251 287/287/287 281/281/281
f 251/251/251 281/281/281 252/252/252
f 287/287/287 288/288/288 284/284/284
f 287/287/287 284/284/284 281/281/281
f 125/125/125 126/126/126 288/288/288
f 125/125/125 288/288/288 287/287/287
f 126/126/126 289/289/289 290/290/290
f 126/126/126 290/290/290 288/288/288
f 288/288/288 290/290/290 285/285/285
f 288/288/288 285/285/285 284/284/284
f 290/290/290 162/162/162 164/164/164
f 290/290/290 164/164/164 285/285/285
f 289/289/289 160/160/160 162/162/162
f 289/289/289 162/162/162 290/290/290
f 101/101/101 158/158/158 291/291/291
f 101/101/101 291/291/291 105/105/105
f 105/105/105 291/291/291 123/123/123
f 105/105/105 123/123/123 106/106/106
f 291/291/291 289/289/289 126/126/126
f 291/291/291 126/126/126 123/123/123
f 158/158/158 160/160/160 289/289/289
f 158/158/158 289/289/289 291/291/291
f 292/292/292 293/293/293 294/294/294
f 292/292/292 294/294/294 295/295/295
f 295/295/295 294/294/294 296/296/296
f 295/295/295 296/296/296 297/297/297
f 294/294/294 83/83/83 85/85/85
f 294/294/294 85/85/85 296/296/296
f 293/293/293 69/69/69 83/83/83
f 293/293/293 83/83/83 294/294/294
f 297/297/297 296/296/296 298/298/298
f 297/297/297 298/298/298 299/299/299
f 299/299/299 298/298/298 11/11/11
f 299/299/299 11/11/11 10/10/10
f 298/298/298 87/87/87 15/15/15
f 298/298/298 15/15/15 11/11/11
f 296/296/296 85/85/85 87/87/87
f 296/296/296 87/87/87 298/298/298
f 300/300/300 301/301/301 302/302/302
f 300/300/300 302/302/302 303/303/303
f 303/303/303 302/302/302 293/293/293
f 303/303/303 293/293/293 292/292/292
f 302/302/302 67/67/67 69/69/69
f 302/302/302 69/69/69 293/293/293
f 301/301/301 65/65/65 67/67/67
f 301/301/301 67/67/67 302/302/302
f 36/36/36 39/39/39 304/304/304
f 36/36/36 304/304/304 305/305/305
f 305/305/305 304/304/304 301/301/301
f 305/305/305 301/301/301 300/300/300
f 304/304/304 63/63/63 65/65/65
f 304/304/304 65/65/65 301/301/301
f 39/39/39 41/41/41 63/63/63
f 39/39/39 63/63/63 304/304/304
