v -0.947625 -0.850425 0.108549
v -0.948267 -0.853038 0.105576
v -0.947911 -0.851413 0.103614
v -0.94733 -0.849221 0.107082
v -0.948276 -0.849308 0.102177
v -0.947588 -0.84767 0.106002
v -0.94871 -0.853557 0.100067
v -0.949164 -0.850964 0.098333
v -0.949128 -0.855559 0.102438
v -0.971547 -0.84879 0.0660184
v -0.966702 -0.849928 0.0636208
v -0.969229 -0.852195 0.0525812
v -0.974063 -0.850865 0.0550761
v -0.971391 -0.85465 0.041191
v -0.975932 -0.852991 0.0440483
v -0.96479 -0.855459 0.0511152
v -0.967308 -0.858264 0.0394039
v -0.962204 -0.852899 0.0622349
v -0.958725 -0.857274 0.0621251
v -0.961283 -0.860108 0.0509532
v -0.963961 -0.863069 0.0390999
v -0.959144 -0.86538 0.0521197
v -0.961672 -0.868308 0.0403504
v -0.95674 -0.862349 0.063288
v -0.984674 -0.85701 0.0513332
v -0.985821 -0.858615 0.0428849
v -0.988599 -0.863429 0.0467562
v -0.987457 -0.861936 0.0551375
v -0.989232 -0.869187 0.0497527
v -0.988193 -0.867731 0.0581417
v -0.988833 -0.864457 0.0407493
v -0.989203 -0.869971 0.0435506
v -0.986277 -0.859947 0.0370331
v -0.976226 -0.871547 0.0790509
v -0.979827 -0.867234 0.0791896
v -0.983668 -0.870644 0.0693679
v -0.979774 -0.875121 0.0691229
v -0.986356 -0.873412 0.0595796
v -0.982253 -0.878035 0.059238
v -0.985518 -0.865201 0.0680274
v -0.981716 -0.862112 0.0779675
v -0.981572 -0.856958 0.0755459
v -0.985029 -0.859637 0.0652891
v -0.982576 -0.854893 0.0618028
v -0.979567 -0.852588 0.0724051
v -0.966308 -0.875362 0.0750325
v -0.971437 -0.874368 0.0775533
v -0.974424 -0.87792 0.0673314
v -0.968711 -0.87879 0.0644769
v -0.976546 -0.880817 0.0571762
v -0.970472 -0.881574 0.0539896
v -0.958308 -0.871578 0.068615
v -0.961714 -0.874365 0.0719099
v -0.963753 -0.877667 0.0611168
v -0.960267 -0.87478 0.0576593
v -0.965308 -0.880342 0.0503333
v -0.961912 -0.877441 0.0465636
v -0.976042 -0.849738 0.0690815
v -0.978717 -0.851826 0.0582623
v -0.980583 -0.853854 0.0475216
v -0.958739 -0.870492 0.0544984
v -0.956597 -0.867358 0.0655861
v -0.960814 -0.873274 0.0430297
v -0.966394 -0.872516 0.022753
v -0.96842 -0.873543 0.0199615
v -0.970813 -0.869414 0.0183745
v -0.968879 -0.867969 0.0211268
v -0.973154 -0.86506 0.0190482
v -0.971533 -0.863314 0.0218028
v -0.972207 -0.870217 0.0186394
v -0.974319 -0.86625 0.0191842
v -0.970019 -0.873972 0.0200343
v -0.983098 -0.879861 0.0508673
v -0.977469 -0.88276 0.048789
v -0.971481 -0.883506 0.0454978
v -0.977787 -0.883699 0.0427426
v -0.972188 -0.884473 0.0395587
v -0.983052 -0.880697 0.0446651
v -0.966322 -0.882176 0.0415868
v -0.96313 -0.879272 0.0373607
v -0.96726 -0.883074 0.0355742
v -0.964362 -0.880214 0.0310617
v -0.977093 -0.854867 0.0348918
v -0.981643 -0.855531 0.0388322
v -0.982176 -0.857091 0.0329231
v -0.97783 -0.856669 0.0286742
v -0.96265 -0.87535 0.033183
v -0.964118 -0.870747 0.0299391
v -0.964438 -0.876632 0.0264216
v -0.969572 -0.860978 0.0289959
v -0.973054 -0.856977 0.031367
v -0.974362 -0.859112 0.0246362
v -0.966546 -0.865788 0.0284799
v -0.98726 -0.875022 0.0511963
v -0.987106 -0.875767 0.0449256
v -0.978956 -0.860474 0.0250216
v -0.979242 -0.861996 0.0251502
v -0.982423 -0.862127 0.0281294
v -0.982569 -0.860565 0.0286142
v -0.985386 -0.864063 0.0310546
v -0.986028 -0.862731 0.0320455
v -0.981789 -0.86311 0.0295968
v -0.98431 -0.864927 0.0319137
v -0.978947 -0.862815 0.027324
v -0.988795 -0.870606 0.0397444
v -0.986748 -0.87607 0.0410106
v -0.98297 -0.880772 0.0408015
v -0.986227 -0.876085 0.038502
v -0.982842 -0.880326 0.0383265
v -0.988092 -0.871161 0.0373709
v -0.986324 -0.861316 0.0337669
v -0.988607 -0.865455 0.0371904
v -0.988006 -0.866473 0.0350936
v -0.97815 -0.883696 0.0390745
v -0.973048 -0.884459 0.0361386
v -0.97852 -0.883027 0.0368106
v -0.973969 -0.883765 0.0342109
v -0.968558 -0.883054 0.032365
v -0.966016 -0.880332 0.0280246
v -0.970013 -0.882461 0.030849
v -0.967807 -0.879974 0.0270152
v -0.978447 -0.858599 0.0258138
v -0.982468 -0.858805 0.0298995
v -0.966352 -0.877153 0.0235297
v -0.968141 -0.877168 0.0231133
v -0.975478 -0.86104 0.021855
v -0.976349 -0.862659 0.0215871
v -0.976861 -0.863782 0.0363052
v -0.974698 -0.864861 0.0366445
v -0.975351 -0.869472 0.0403599
v -0.97848 -0.86487 0.0380322
v -0.980804 -0.86573 0.0382672
v -0.980927 -0.868001 0.0397136
v -0.98189 -0.870322 0.0400359
v -0.980236 -0.872251 0.0407538
v -0.979324 -0.874743 0.0404925
v -0.976806 -0.875096 0.0404425
v -0.974629 -0.876372 0.0393558
v -0.972696 -0.87483 0.0390395
v -0.970769 -0.874292 0.0373548
v -0.970657 -0.871846 0.037327
v -0.970367 -0.870102 0.0355657
v -0.971676 -0.867854 0.0363021
v -0.972855 -0.865768 0.0351412
v -0.969293 -0.879408 0.0269488
v -0.969449 -0.876857 0.0238165
v -0.970972 -0.873907 0.0213754
v -0.96992 -0.875882 0.0266119
v -0.970981 -0.873054 0.0248254
v -0.970084 -0.878299 0.0289295
v -0.974863 -0.866905 0.0205908
v -0.97682 -0.863812 0.0224247
v -0.976544 -0.86419 0.0253682
v -0.974499 -0.86675 0.0241285
v -0.972893 -0.87046 0.020231
v -0.972605 -0.869876 0.0239485
v -0.987045 -0.871555 0.0356384
v -0.985411 -0.875847 0.036615
v -0.98247 -0.879541 0.0364735
v -0.98429 -0.875207 0.0364173
v -0.981769 -0.878351 0.0363267
v -0.985684 -0.871532 0.0356136
v -0.987029 -0.867405 0.0336752
v -0.985686 -0.867912 0.0340208
v -0.978695 -0.881951 0.0351912
v -0.974717 -0.882675 0.0329834
v -0.9785 -0.880427 0.0353265
v -0.975025 -0.881094 0.0335933
v -0.971266 -0.881591 0.0301321
v -0.971966 -0.880218 0.0313647
v -0.977889 -0.862978 0.0322031
v -0.975451 -0.863912 0.031074
v -0.973325 -0.865868 0.0302354
v -0.974802 -0.87887 0.0367182
v -0.977829 -0.878283 0.0379336
v -0.980675 -0.876656 0.038561
v -0.970211 -0.871363 0.0308018
v -0.969675 -0.874002 0.0321043
v -0.970181 -0.876355 0.0335672
v -0.983971 -0.87095 0.0379675
v -0.983859 -0.867842 0.0368512
v -0.982704 -0.865187 0.0353065
v -0.980454 -0.863503 0.0337853
v -0.982761 -0.874009 0.0386148
v -0.972068 -0.878025 0.0352737
v -0.971532 -0.868502 0.0302894
v -0.954463 -0.865045 0.0846958
v -0.956287 -0.868191 0.0776103
v -0.954639 -0.864271 0.0746107
v -0.953074 -0.861561 0.0817142
v -0.95469 -0.859604 0.0723157
v -0.953184 -0.857357 0.0794343
v -0.972002 -0.84861 0.0885692
v -0.969334 -0.846425 0.0854038
v -0.972725 -0.847933 0.0781434
v -0.975852 -0.850478 0.0813517
v -0.968606 -0.847104 0.0751309
v -0.965742 -0.845799 0.0824083
v -0.957137 -0.867238 0.0878775
v -0.959404 -0.87073 0.0808267
v -0.96353 -0.871563 0.083835
v -0.960718 -0.867865 0.0908578
v -0.964741 -0.866808 0.0932582
v -0.968099 -0.870531 0.0862326
v -0.972384 -0.867825 0.0876417
v -0.96856 -0.86426 0.0946943
v -0.973235 -0.856283 0.093746
v -0.973368 -0.852086 0.0915083
v -0.977519 -0.854411 0.0843343
v -0.977488 -0.859091 0.0866136
v -0.971535 -0.860557 0.0948569
v -0.975671 -0.863798 0.0877663
v -0.957854 -0.849387 0.0784871
v -0.954873 -0.853084 0.0783081
v -0.956512 -0.854901 0.0711587
v -0.95979 -0.850869 0.0712915
v -0.961696 -0.846849 0.0799657
v -0.964055 -0.84815 0.0727176
v -0.961234 -0.843898 0.0930997
v -0.958307 -0.845106 0.0907578
v -0.959907 -0.845907 0.0858531
v -0.963366 -0.84477 0.0882706
v -0.956561 -0.848355 0.0843898
v -0.955417 -0.847475 0.0893559
v -0.953023 -0.850676 0.0891517
v -0.953886 -0.851789 0.0841889
v -0.952272 -0.855671 0.0852562
v -0.951471 -0.85421 0.0901462
v -0.961707 -0.858258 0.104828
v -0.9641 -0.855049 0.105037
v -0.96762 -0.857618 0.100527
v -0.964945 -0.861064 0.100336
v -0.969245 -0.853728 0.0994666
v -0.965658 -0.851513 0.104035
v -0.966122 -0.848184 0.101947
v -0.969546 -0.849986 0.0972904
v -0.968544 -0.846961 0.0944003
v -0.965456 -0.845559 0.0991369
v -0.95591 -0.861855 0.101051
v -0.958825 -0.860639 0.10341
v -0.961611 -0.863521 0.0988943
v -0.958168 -0.864659 0.0964973
v -0.951694 -0.86018 0.0950113
v -0.953416 -0.861681 0.0981058
v -0.955166 -0.864274 0.09352
v -0.953001 -0.86245 0.0903647
v -0.963735 -0.844069 0.0960375
v -0.966378 -0.845148 0.0912543
v -0.951987 -0.859416 0.087453
v -0.951019 -0.857545 0.0922177
v -0.954211 -0.843527 0.110814
v -0.953373 -0.842794 0.109205
v -0.95599 -0.842594 0.106451
v -0.957019 -0.843518 0.108658
v -0.95859 -0.842662 0.103471
v -0.95981 -0.843764 0.106159
v -0.954458 -0.842527 0.104348
v -0.956737 -0.842607 0.100926
v -0.952189 -0.842704 0.107646
v -0.948464 -0.851096 0.110175
v -0.949322 -0.853918 0.107774
v -0.950381 -0.856637 0.105103
v -0.950881 -0.85394 0.109874
v -0.952242 -0.856647 0.107663
v -0.949699 -0.851157 0.111705
v -0.951136 -0.85059 0.112898
v -0.952704 -0.853082 0.111553
v -0.954426 -0.85556 0.109724
v -0.954504 -0.851514 0.112568
v -0.956601 -0.853595 0.110979
v -0.952536 -0.849493 0.113603
v -0.954383 -0.846371 0.113239
v -0.954564 -0.844793 0.112222
v -0.957367 -0.845162 0.110629
v -0.957014 -0.847251 0.112072
v -0.960182 -0.845757 0.108581
v -0.959701 -0.848313 0.110364
v -0.95367 -0.848016 0.113716
v -0.956008 -0.849472 0.112744
v -0.958441 -0.851054 0.111196
v -0.949486 -0.844456 0.105626
v -0.948351 -0.845996 0.105495
v -0.949313 -0.847037 0.101501
v -0.950845 -0.844945 0.101667
v -0.950437 -0.848169 0.0975142
v -0.952317 -0.845597 0.0977071
v -0.950829 -0.843298 0.106389
v -0.95265 -0.843364 0.102674
v -0.954531 -0.843649 0.0989114
v -0.950339 -0.857924 0.0989702
v -0.949843 -0.85561 0.0963381
v -0.950343 -0.852631 0.094406
v -0.961163 -0.84319 0.100052
v -0.962588 -0.844461 0.103023
v -0.959021 -0.843117 0.0972403
v -0.951782 -0.859191 0.101922
v -0.953922 -0.859243 0.10475
v -0.956442 -0.858036 0.107021
v -0.958955 -0.855804 0.108395
v -0.963051 -0.84676 0.105704
v -0.962525 -0.849713 0.107683
v -0.961082 -0.852882 0.108618
v -0.951788 -0.849435 0.0934875
v -0.953937 -0.846503 0.0936908
v -0.95648 -0.844293 0.0950165
vt 0.0843 0.08419
vt 0.9167 0.08333
vt 0.2622 0.01042
vt 0.7396 0.9896
vt 0.7396 0.01042
vt 0.2612 0.01105
vt 0.08333 0.9167
vt 0.9896 0.7326
vt 1 0.4792
vt 0.7396 0.9896
vt 0.9167 0.08333
vt 0.2604 0.01042
vt 0 0.5
vt 0.7396 0.9896
vt 0.2619 0.01169
vt 0.08333 0.08333
vt 0.2612 0.01105
vt 0.7396 0.9896
vt 0.9167 0.08333
vt 0.08333 0.08333
vt 0.7396 0.9896
vt 0.9236 0.08333
vt 0.5003 0.0008831
vt 0.7396 0.9896
vt 0.2619 0.01169
vt 0.7413 0.008681
vt 0.08333 0.08333
vt 0.7396 0.9896
vt 0.4167 -2.384e-07
vt 0.2612 0.01105
vt 0.9896 0.2604
vt 0.08333 0.9167
vt 0.01042 0.7396
vt 0.9167 0.9167
vt 0.9896 0.2587
vt 0.5069 0
vt 0.9896 0.2604
vt 0.5 1
vt 0.08526 0.08505
vt 0.01042 0.2604
vt 0.9167 0.9167
vt 0.9896 0.25
vt 0.5 0
vt 0.9913 0.2604
vt 0.7396 0.9896
vt 0.5 1
vt 0.9896 0.25
vt 0.2604 0.01042
vt 0.01042 0.2604
vt 0.5 1
vt 0.0843 0.08419
vt 0.5 1
vt 0.9896 0.2587
vt 0.2622 0.01042
vt 1 0.08333
vt 0.5 1
vt 0.5002 0.0004414
vt 1 0.4931
vt 0 0.5
vt 0.7396 0.9896
vt 0 0.5
vt 1 0.4167
vt 0.5 1
vt 0.01042 0.7396
vt 0.2604 0.9896
vt 0.01042 0.7396
vt 0.9913 0.2604
vt 0.5 1
vt 0.08333 0.9167
vt 0.7396 0.01042
vt 0.01042 0.7396
vt 0 0.5
vt 0.4896 -1.192e-07
vt 0.01042 0.7396
vt 0.7396 0.01042
vt 1 0.5
vt 0.08333 0.9167
vt 0.01042 0.7396
vt 0.01042 0.7396
vt 0.4896 -1.192e-07
vt 1 0.5
vt 0.08333 0.9167
vt 0.7396 0.01042
vt 0.01042 0.7396
vt 1 0.2604
vt 0.01042 0.7396
vt 0.08333 0.9167
vt 0.7396 0.01042
vt 1 0.5
vt 0.5 -1.192e-07
vt 0.08333 0.9167
vt 0.9913 0.2604
vt 0.01042 0.7396
vt 0.01042 0.7396
vt 1 0.5
vt 0 0.5
vt 0.5104 -1.192e-07
vt 0.08333 0.9167
vt 0.7413 0.008681
vt 0.5 -1.192e-07
vt 0 0.5
vt 0.2604 0.9896
vt 0.08333 0.07639
vt 0.08333 0.07639
vt 0.5 1
vt 0.08333 0.9167
vt 0.2604 0.9896
vt 1 0.08333
vt 0 0.5
vt 0.01042 0.7396
vt 0.5 1
vt 0 0.5
vt 0.7396 0.01042
vt 0 0.5
vt 0.2604 0.9896
vt 0.9236 0.08333
vt 0.01042 0.7396
vt 0.01042 0.7396
vt 0.2604 0.9896
vt 0.9236 0.08333
vt 0.01042 0.7396
vt 0.5 1
vt 0.01042 0.7396
vt 0.08333 0.08333
vt 0.9167 0.08333
vt 0.08333 0.08333
vt 0.7396 0.01042
vt 0.008681 0.2517
vt 0.2622 0.00868
vt 0.01042 0.2604
vt 0.5104 -1.192e-07
vt 0.01042 0.2604
vt 0.08333 0.07639
vt 0 0.5
vt 0.5833 -2.384e-07
vt 0.01042 0.2587
vt 0.2674 0.01042
vt 0 0.5
vt 0.2674 0.01042
vt 0 0.5
vt 0.08333 0.08333
vt 0.01042 0.2587
vt 0.2622 0.00868
vt 0 0.5
vt 0.2604 -1.192e-07
vt 0.01042 0.2604
vt 0.2622 0.00868
vt 0.08333 0.9167
vt 0.08333 -1.192e-07
vt 0.008681 0.2517
vt 0.2604 -1.192e-07
vt 0.01042 0.2604
vt 0.2604 0.9896
vt 0.01042 0.2587
vt 0.01042 0.2604
vt 0.2604 0.9896
vt 0.08333 0.07639
vt 0 0.5
vt 0.2622 0.00868
vt 0.08333 0.9167
vt 0.08333 0.08333
vt 0.01042 0.2587
vt 0 0.5
vt 0.2604 0.9896
vt 0.01042 0.2604
vt 0.08333 -1.192e-07
vt 0.08333 0.9167
vt 0.01042 0.2604
vt 0.01042 0.2604
vt 0.08333 0.9167
vt 0.08333 0.08333
vt 0 0.5
vt 0.08333 0.08333
vt 0.01042 0.2604
vt 0 0.5
vt 0.01042 0.2604
vt 0.01042 0.2604
vt 0.08333 0.08333
vt 0.01042 0.2604
vt 0 0.5
vt 0.08333 0.08333
vt 0 0.5
vt 0.01042 0.2604
vt 0.01042 0.2604
vt 0.9167 0.9167
vt 0.9167 0.9167
vt 0.5 1
vt 0.01042 0.2604
vt 0.9896 0.7378
vt 0.5833 -3.576e-07
vt 0.08333 0.08333
vt 0.7396 0.9896
vt 0.5 1
vt 0.5069 0
vt 0.9896 0.7326
vt 0 0.5
vt 0.9896 0.2604
vt 0.7396 0.9896
vt 0.7413 0.01042
vt 0.9896 0.7326
vt 0.9896 0.2587
vt 0.7396 0.9896
vt 0.75 0.01042
vt 0.9896 0.7378
vt 0.01042 0.2604
vt 0.7396 0.9896
vt 0.9167 0.9167
vt 0.75 0.01042
vt 1 0.4931
vt 0.9167 0.08333
vt 0.7413 0.01042
vt 1 0.4167
vt 0.9167 0.9167
vt 0.9167 0.08333
vt 0.9896 0.7378
vt 0.9167 0.08333
vt 0.9167 0.08333
vt 0.9896 0.7396
vt 0.9167 0.9167
vt 0.08333 0.08333
vt 1 0.5
vt 0.08333 0.9167
vt 0.2604 0.9896
vt 0.9167 0.9167
vt 0.08333 0.08333
vt 1 0.4931
vt 0.9896 0.2604
vt 0.9167 0.9167
vt 0.9896 0.7326
vt 0.2622 0.01042
vt 0.9167 0.9167
vt 0.9896 0.2587
vt 0.2604 0.9896
vt 0.9896 0.7361
vt 0.2674 0.01042
vt 0.9167 0.9167
vt 1 0.5
vt 0.9167 0.9167
vt 0.9896 0.7326
vt 0.2674 0.01042
vt 0.9896 0.7396
vt 0.08333 0.9167
vt 0.9896 0.7361
vt 0.2622 0.01042
vt 0.9896 0.7378
vt 1 0.4931
vt 0.5069 0
vt 0.08333 0.9167
vt 0.08392 0.9161
vt 0.5833 0
vt 0.2604 0.01042
vt 0.9167 0.9167
vt 0.2608 0.989
vt 0.9167 0.08333
vt 0.08333 0.9167
vt 0.9896 0.7361
vt 0.9236 0.08333
vt 0.9896 0.7326
vt 0.5 -1.192e-07
vt 0.7396 0.9896
vt 0.2604 0.9896
vt 0.2604 0.9896
vt 1 0.2604
vt 1 0.4167
vt 0.2604 0.01042
vt 0.7396 0.9896
vt 0.2604 0.9896
vt 0.2604 0.9896
vt 0.7413 0.01042
vt 1 0.4167
vt 0.2612 0.01105
vt 0.5002 0.0004414
vt 0.9167 0.9167
vt 0.2608 0.989
vt 0.9167 0.08333
vt 0.2604 0.9896
vt 1 0.4792
vt 0.7396 0.9896
vt 0.5 0.9995
vt 0.2604 0.9896
vt 0.08333 0.08333
vt 0.9167 0.9167
vt 0.5 1
vt 0.9913 0.2604
vt 0.5 1
vt 0.9896 0.7361
vt 0.9167 0.9167
vt 0.2608 0.989
vt 0.5 1
vt 0.2604 0.9896
vt 0.2633 0.985
vt 0.5 1
vt 0.5 0.9958
vt 0.2604 0.9896
vt 0.7396 0.01042
vt 0.5 0.9995
vt 0.7413 0.01042
vt 0.08392 0.9161
vt 0.5 1
vt 0.088 0.912
vt 0.5069 0
vt 0.2633 0.985
vt 0.2608 0.989
vt 0.5 0
vt 0.9167 0.9167
vn 0.9187 -0.3726 0.1309
vn 0.9202 -0.3805 0.09116
vn 0.9855 -0.1166 -0.123
vn 0.9891 -0.1151 -0.09131
vn 0.9479 0.1703 -0.269
vn 0.9541 0.1726 -0.2446
vn 0.9729 -0.1554 -0.1709
vn 0.938 0.1467 -0.3139
vn 0.8972 -0.4396 0.04065
vn -0.08203 0.9828 -0.1655
vn 0.2971 0.918 -0.2626
vn 0.3358 0.9047 -0.2622
vn -0.07025 0.9814 -0.1787
vn 0.3895 0.8804 -0.2706
vn -0.04703 0.9797 -0.1949
vn 0.641 0.7044 -0.3048
vn 0.675 0.6704 -0.308
vn 0.612 0.7255 -0.3148
vn 0.8379 0.449 -0.3103
vn 0.8422 0.4486 -0.2989
vn 0.8428 0.4444 -0.3035
vn 0.9582 0.1541 -0.241
vn 0.947 0.197 -0.2535
vn 0.9622 0.1207 -0.2441
vn -0.7602 0.6497 0.0004273
vn -0.7733 0.6318 -0.05283
vn -0.9496 0.3128 0.0213
vn -0.9311 0.3507 0.09995
vn -0.9933 -0.08658 0.07669
vn -0.9791 -0.0379 0.1996
vn -0.9656 0.2506 -0.06867
vn -0.9897 -0.1411 -0.02371
vn -0.8018 0.5783 -0.1505
vn -0.5083 -0.7125 0.4836
vn -0.7796 -0.3974 0.4841
vn -0.8125 -0.4254 0.3985
vn -0.5212 -0.7533 0.401
vn -0.8461 -0.4575 0.2733
vn -0.5463 -0.7839 0.2949
vn -0.9504 -0.01502 0.3106
vn -0.9167 -0.0105 0.3995
vn -0.8961 0.3596 0.26
vn -0.9158 0.3602 0.1773
vn -0.753 0.6563 0.04773
vn -0.7378 0.6661 0.1087
vn 0.1809 -0.9348 0.3057
vn -0.1718 -0.8946 0.4125
vn -0.1733 -0.9253 0.3373
vn 0.1722 -0.9528 0.2498
vn -0.1817 -0.9459 0.2688
vn 0.172 -0.9622 0.2113
vn 0.8154 -0.5783 0.02478
vn 0.53 -0.8297 0.175
vn 0.5226 -0.8403 0.1444
vn 0.8245 -0.5657 0.01062
vn 0.5275 -0.8406 0.1228
vn 0.8429 -0.5379 -0.006836
vn -0.4549 0.8898 -0.03696
vn -0.4678 0.8809 -0.07065
vn -0.4718 0.8762 -0.09787
vn 0.9723 -0.1929 -0.1318
vn 0.9638 -0.2355 -0.125
vn 0.98 -0.1294 -0.1509
vn 0.8648 0.1331 -0.4841
vn 0.4973 -0.2505 -0.8306
vn 0.3287 0.08502 -0.9406
vn 0.7605 0.3704 -0.5332
vn 0.111 0.4201 -0.9007
vn 0.596 0.5975 -0.5364
vn -0.4519 -0.3431 -0.8234
vn -0.5948 -0.04541 -0.8026
vn -0.2763 -0.6079 -0.7444
vn -0.586 -0.792 0.1712
vn -0.2168 -0.9567 0.1941
vn 0.1608 -0.9731 0.165
vn -0.2734 -0.9573 0.09391
vn 0.1086 -0.9925 0.05628
vn -0.6243 -0.7787 0.06223
vn 0.5277 -0.8455 0.08106
vn 0.8523 -0.52 -0.05585
vn 0.4644 -0.8843 -0.04764
vn 0.7802 -0.59 -0.2076
vn -0.03766 0.9697 -0.2415
vn -0.4824 0.8641 -0.1434
vn -0.5353 0.8036 -0.26
vn -0.1252 0.9142 -0.3854
vn 0.9752 -0.08075 -0.2059
vn 0.9254 0.2266 -0.3035
vn 0.9063 -0.1905 -0.3772
vn 0.6938 0.6297 -0.3495
vn 0.4246 0.8484 -0.3159
vn 0.3029 0.8165 -0.4915
vn 0.8326 0.4315 -0.3471
vn -0.866 -0.4843 0.1244
vn -0.8679 -0.4966 0.01166
vn -0.6696 0.288 -0.6846
vn -0.7426 -0.3955 -0.5405
vn -0.5805 -0.3916 -0.7139
vn -0.7156 0.3081 -0.6268
vn -0.5309 -0.3452 -0.7739
vn -0.8302 0.2096 -0.5165
vn 0.04279 -0.9331 -0.3569
vn 0.2796 -0.7759 -0.5654
vn -0.3235 -0.9362 -0.1374
vn -0.97 -0.2005 -0.1375
vn -0.8594 -0.5024 -0.09476
vn -0.657 -0.7508 -0.0679
vn -0.8219 -0.4995 -0.2738
vn -0.6707 -0.6911 -0.2693
vn -0.9082 -0.2719 -0.318
vn -0.8382 0.4402 -0.3219
vn -0.9673 0.1448 -0.2081
vn -0.9163 -0.01395 -0.4001
vn -0.3585 -0.9304 -0.07608
vn -0.02503 -0.9876 -0.1548
vn -0.4538 -0.8357 -0.3091
vn -0.2128 -0.8908 -0.4015
vn 0.2508 -0.925 -0.2853
vn 0.4751 -0.7565 -0.4495
vn -0.05802 -0.8586 -0.5093
vn -0.03812 -0.8165 -0.5761
vn -0.3901 0.6975 -0.601
vn -0.643 0.6147 -0.4568
vn 0.5645 -0.515 -0.645
vn -0.1191 -0.7578 -0.6415
vn -0.116 0.6386 -0.7607
vn -0.6573 0.1786 -0.7321
vn -0.1883 -0.899 -0.3954
vn -0.4849 -0.7342 -0.4752
vn -0.3191 -0.2795 -0.9055
vn 0.01901 -0.7407 -0.6715
vn 0.353 -0.658 -0.6651
vn 0.327 -0.4039 -0.8543
vn 0.4902 -0.1349 -0.8611
vn 0.2656 0.05295 -0.9626
vn 0.2052 0.3444 -0.9161
vn -0.1078 0.3337 -0.9365
vn -0.3254 0.5034 -0.8004
vn -0.562 0.2599 -0.7852
vn -0.8297 0.2034 -0.5197
vn -0.8301 -0.1351 -0.541
vn -0.9186 -0.3229 -0.2277
vn -0.7793 -0.4861 -0.3954
vn -0.7218 -0.6647 -0.1929
vn -0.6678 -0.526 -0.5267
vn -0.7337 -0.5973 -0.3237
vn -0.7911 -0.5708 -0.2198
vn -0.9829 -0.1838 -0.008911
vn -0.9227 -0.3623 0.1316
vn -0.955 0.1359 -0.2635
vn -0.8771 -0.4166 -0.2389
vn -0.8564 -0.3795 -0.3501
vn -0.6473 -0.7606 0.05066
vn -0.798 -0.5832 0.1518
vn -0.8469 -0.4938 -0.1971
vn -0.8672 -0.4655 0.1765
vn -0.538 -0.368 -0.7584
vn -0.5315 -0.3836 -0.7552
vn -0.5233 -0.3979 -0.7535
vn 0.3215 0.08747 -0.9428
vn 0.1008 0.3262 -0.9399
vn 0.4286 -0.2171 -0.877
vn -0.5352 -0.3475 -0.7699
vn 0.4133 -0.5231 -0.7453
vn -0.5056 -0.4086 -0.7598
vn -0.4998 -0.4093 -0.7633
vn -0.1787 0.4696 -0.8646
vn -0.4746 0.5007 -0.7239
vn -0.5656 -0.419 -0.7103
vn -0.7471 0.4092 -0.5238
vn -0.1483 -0.9845 -0.09311
vn -0.5157 -0.8551 0.05274
vn -0.7459 -0.6519 0.1364
vn -0.3179 0.7321 -0.6025
vn 0.05716 0.7129 -0.6989
vn 0.382 0.556 -0.7382
vn -0.9508 -0.2932 0.09931
vn -0.9989 -0.02701 -0.03891
vn -0.9136 0.3212 -0.2493
vn 0.7494 -0.056 -0.6598
vn 0.7246 -0.4089 -0.5547
vn 0.5436 -0.7288 -0.4164
vn 0.2595 -0.9297 -0.2615
vn 0.6332 0.2893 -0.7179
vn -0.6453 0.6139 -0.4546
vn -0.8668 -0.4749 0.1516
vn 0.8309 -0.5551 0.03772
vn 0.8184 -0.5735 0.03577
vn 0.9606 -0.2501 -0.1209
vn 0.9664 -0.2317 -0.1108
vn 0.9639 0.1065 -0.2438
vn 0.9682 0.1221 -0.2184
vn -0.6868 0.6992 0.1984
vn -0.4083 0.9128 0.00589
vn -0.4307 0.9025 -0.00528
vn -0.71 0.6841 0.1672
vn -0.07614 0.985 -0.1544
vn -0.05509 0.9869 -0.1517
vn 0.5684 -0.7938 0.2163
vn 0.5491 -0.8102 0.2052
vn 0.2041 -0.9095 0.3621
vn 0.2256 -0.8914 0.3929
vn -0.1301 -0.8366 0.5322
vn -0.1535 -0.8614 0.4841
vn -0.4859 -0.675 0.5552
vn -0.456 -0.6448 0.6134
vn -0.8448 0.02353 0.5346
vn -0.8373 0.388 0.3851
vn -0.8656 0.3716 0.3354
vn -0.8801 0.002533 0.4748
vn -0.7095 -0.3419 0.6162
vn -0.7456 -0.3699 0.5542
vn 0.6095 0.737 -0.2921
vn 0.8426 0.4595 -0.2807
vn 0.836 0.4504 -0.3135
vn 0.5983 0.7354 -0.318
vn 0.2991 0.9207 -0.2507
vn 0.2828 0.9228 -0.2617
vn -0.008301 0.984 -0.1778
vn 0.3413 0.8947 -0.2879
vn 0.3284 0.9106 -0.2507
vn -0.02924 0.9866 -0.1606
vn 0.6291 0.7274 -0.274
vn 0.6294 0.7069 -0.3226
vn 0.8362 0.4538 -0.3079
vn 0.8473 0.4661 -0.2546
vn 0.9677 0.1486 -0.2035
vn 0.955 0.1507 -0.2556
vn -0.4093 -0.5933 0.6931
vn -0.6494 -0.2978 0.6996
vn -0.6758 -0.3168 0.6655
vn -0.4306 -0.6175 0.6582
vn -0.8128 0.03986 0.5812
vn -0.7845 0.0521 0.6179
vn -0.7893 0.4099 0.4571
vn -0.8154 0.3978 0.4205
vn -0.6719 0.7085 0.2159
vn -0.6463 0.7238 0.2415
vn 0.263 -0.8612 0.4349
vn -0.09409 -0.7939 0.6007
vn -0.114 -0.8165 0.5659
vn 0.2396 -0.8799 0.4102
vn 0.856 -0.517 0.006561
vn 0.6055 -0.7648 0.2201
vn 0.5846 -0.7821 0.2157
vn 0.8456 -0.5331 0.0271
vn -0.3656 0.9307 0.0109
vn -0.3908 0.9205 0.005097
vn 0.9731 -0.1997 -0.1147
vn 0.9698 -0.187 -0.1564
vn -0.3382 0.8299 0.4437
vn -0.1276 0.973 0.1925
vn -0.144 0.9782 0.1496
vn -0.3738 0.8356 0.4025
vn -0.2292 0.969 0.09162
vn -0.4855 0.8032 0.3451
vn 0.1305 0.9885 -0.0763
vn 0.07498 0.9882 -0.1333
vn 0.1333 0.9904 -0.03705
vn 0.7428 -0.5499 0.3818
vn 0.7443 -0.5739 0.3414
vn 0.6989 -0.6532 0.2913
vn 0.4779 -0.6556 0.5846
vn 0.4003 -0.7451 0.5335
vn 0.4863 -0.6152 0.6205
vn 0.1898 -0.5569 0.8086
vn 0.1623 -0.6059 0.7787
vn 0.05658 -0.6926 0.719
vn -0.1481 -0.4223 0.8942
vn -0.2676 -0.5036 0.8214
vn -0.1013 -0.3746 0.9216
vn -0.4621 0.2506 0.8507
vn -0.4601 0.5769 0.6748
vn -0.5134 0.5725 0.6392
vn -0.5248 0.2305 0.8194
vn -0.6366 0.5123 0.5765
vn -0.6482 0.1535 0.7458
vn -0.3353 -0.08948 0.9378
vn -0.3956 -0.1262 0.9097
vn -0.5178 -0.2065 0.8302
vn 0.6439 0.7009 -0.3067
vn 0.8327 0.4534 -0.3178
vn 0.8277 0.4472 -0.339
vn 0.642 0.6919 -0.3302
vn 0.8155 0.4339 -0.383
vn 0.6227 0.6857 -0.3769
vn 0.4038 0.8899 -0.2122
vn 0.4039 0.882 -0.2425
vn 0.371 0.8807 -0.2944
vn 0.8701 -0.4928 0.003784
vn 0.964 -0.1836 -0.192
vn 0.9375 0.1371 -0.3197
vn -0.3152 0.9482 0.0376
vn -0.5892 0.7565 0.2839
vn 0.02029 0.9841 -0.1762
vn 0.6429 -0.7262 0.2435
vn 0.3148 -0.8213 0.4758
vn -0.04361 -0.7593 0.6493
vn -0.3662 -0.5634 0.7406
vn -0.7385 0.4453 0.5062
vn -0.7416 0.08286 0.6656
vn -0.6098 -0.2698 0.7452
vn 0.8158 0.4334 -0.3829
vn 0.6156 0.6879 -0.3845
vn 0.3453 0.8824 -0.3194
f 1/1/1 2/2/2 3/3/3
f 1/1/1 3/3/3 4/4/4
f 4/4/4 3/3/3 5/5/5
f 4/4/4 5/5/5 6/6/6
f 3/3/3 7/7/7 8/8/8
f 3/3/3 8/8/8 5/5/5
f 2/2/2 9/9/9 7/7/7
f 2/2/2 7/7/7 3/3/3
f 10/10/10 11/11/11 12/12/12
f 10/10/10 12/12/12 13/13/13
f 13/13/13 12/12/12 14/14/14
f 13/13/13 14/14/14 15/15/15
f 12/12/12 16/16/16 17/17/17
f 12/12/12 17/17/17 14/14/14
f 11/11/11 18/18/18 16/16/16
f 11/11/11 16/16/16 12/12/12
f 18/18/18 19/19/19 20/20/20
f 18/18/18 20/20/20 16/16/16
f 16/16/16 20/20/20 21/21/21
f 16/16/16 21/21/21 17/17/17
f 20/20/20 22/22/22 23/23/23
f 20/20/20 23/23/23 21/21/21
f 19/19/19 24/24/24 22/22/22
f 19/19/19 22/22/22 20/20/20
f 25/25/25 26/26/26 27/27/27
f 25/25/25 27/27/27 28/28/28
f 28/28/28 27/27/27 29/29/29
f 28/28/28 29/29/29 30/30/30
f 27/27/27 31/31/31 32/32/32
f 27/27/27 32/32/32 29/29/29
f 26/26/26 33/33/33 31/31/31
f 26/26/26 31/31/31 27/27/27
f 34/34/34 35/35/35 36/36/36
f 34/34/34 36/36/36 37/37/37
f 37/37/37 36/36/36 38/38/38
f 37/37/37 38/38/38 39/39/39
f 36/36/36 40/40/40 30/30/30
f 36/36/36 30/30/30 38/38/38
f 35/35/35 41/41/41 40/40/40
f 35/35/35 40/40/40 36/36/36
f 41/41/41 42/42/42 43/43/43
f 41/41/41 43/43/43 40/40/40
f 40/40/40 43/43/43 28/28/28
f 40/40/40 28/28/28 30/30/30
f 43/43/43 44/44/44 25/25/25
f 43/43/43 25/25/25 28/28/28
f 42/42/42 45/45/45 44/44/44
f 42/42/42 44/44/44 43/43/43
f 46/46/46 47/47/47 48/48/48
f 46/46/46 48/48/48 49/49/49
f 49/49/49 48/48/48 50/50/50
f 49/49/49 50/50/50 51/51/51
f 48/48/48 37/37/37 39/39/39
f 48/48/48 39/39/39 50/50/50
f 47/47/47 34/34/34 37/37/37
f 47/47/47 37/37/37 48/48/48
f 52/52/52 53/53/53 54/54/54
f 52/52/52 54/54/54 55/55/55
f 55/55/55 54/54/54 56/56/56
f 55/55/55 56/56/56 57/57/57
f 54/54/54 49/49/49 51/51/51
f 54/54/54 51/51/51 56/56/56
f 53/53/53 46/46/46 49/49/49
f 53/53/53 49/49/49 54/54/54
f 45/45/45 58/58/58 59/59/59
f 45/45/45 59/59/59 44/44/44
f 44/44/44 59/59/59 60/60/60
f 44/44/44 60/60/60 25/25/25
f 59/59/59 13/13/13 15/15/15
f 59/59/59 15/15/15 60/60/60
f 58/58/58 10/10/10 13/13/13
f 58/58/58 13/13/13 59/59/59
f 52/52/52 55/55/55 61/61/61
f 52/52/52 61/61/61 62/62/62
f 62/62/62 61/61/61 22/22/22
f 62/62/62 22/22/22 24/24/24
f 61/61/61 63/63/63 23/23/23
f 61/61/61 23/23/23 22/22/22
f 55/55/55 57/57/57 63/63/63
f 55/55/55 63/63/63 61/61/61
f 64/64/64 65/65/65 66/66/66
f 64/64/64 66/66/66 67/67/67
f 67/67/67 66/66/66 68/68/68
f 67/67/67 68/68/68 69/69/69
f 66/66/66 70/70/70 71/71/71
f 66/66/66 71/71/71 68/68/68
f 65/65/65 72/72/72 70/70/70
f 65/65/65 70/70/70 66/66/66
f 39/39/39 73/73/73 74/74/74
f 39/39/39 74/74/74 50/50/50
f 50/50/50 74/74/74 75/75/75
f 50/50/50 75/75/75 51/51/51
f 74/74/74 76/76/76 77/77/77
f 74/74/74 77/77/77 75/75/75
f 73/73/73 78/78/78 76/76/76
f 73/73/73 76/76/76 74/74/74
f 51/51/51 75/75/75 79/79/79
f 51/51/51 79/79/79 56/56/56
f 56/56/56 79/79/79 80/80/80
f 56/56/56 80/80/80 57/57/57
f 79/79/79 81/81/81 82/82/82
f 79/79/79 82/82/82 80/80/80
f 75/75/75 77/77/77 81/81/81
f 75/75/75 81/81/81 79/79/79
f 15/15/15 83/83/83 84/84/84
f 15/15/15 84/84/84 60/60/60
f 60/60/60 84/84/84 26/26/26
f 60/60/60 26/26/26 25/25/25
f 84/84/84 85/85/85 33/33/33
f 84/84/84 33/33/33 26/26/26
f 83/83/83 86/86/86 85/85/85
f 83/83/83 85/85/85 84/84/84
f 57/57/57 80/80/80 87/87/87
f 57/57/57 87/87/87 63/63/63
f 63/63/63 87/87/87 88/88/88
f 63/63/63 88/88/88 23/23/23
f 87/87/87 89/89/89 64/64/64
f 87/87/87 64/64/64 88/88/88
f 80/80/80 82/82/82 89/89/89
f 80/80/80 89/89/89 87/87/87
f 17/17/17 90/90/90 91/91/91
f 17/17/17 91/91/91 14/14/14
f 14/14/14 91/91/91 83/83/83
f 14/14/14 83/83/83 15/15/15
f 91/91/91 92/92/92 86/86/86
f 91/91/91 86/86/86 83/83/83
f 90/90/90 69/69/69 92/92/92
f 90/90/90 92/92/92 91/91/91
f 23/23/23 88/88/88 93/93/93
f 23/23/23 93/93/93 21/21/21
f 21/21/21 93/93/93 90/90/90
f 21/21/21 90/90/90 17/17/17
f 93/93/93 67/67/67 69/69/69
f 93/93/93 69/69/69 90/90/90
f 88/88/88 64/64/64 67/67/67
f 88/88/88 67/67/67 93/93/93
f 30/30/30 29/29/29 94/94/94
f 30/30/30 94/94/94 38/38/38
f 38/38/38 94/94/94 73/73/73
f 38/38/38 73/73/73 39/39/39
f 94/94/94 95/95/95 78/78/78
f 94/94/94 78/78/78 73/73/73
f 29/29/29 32/32/32 95/95/95
f 29/29/29 95/95/95 94/94/94
f 96/96/96 97/97/97 98/98/98
f 96/96/96 98/98/98 99/99/99
f 99/99/99 98/98/98 100/100/100
f 99/99/99 100/100/100 101/101/101
f 98/98/98 102/102/102 103/103/103
f 98/98/98 103/103/103 100/100/100
f 97/97/97 104/104/104 102/102/102
f 97/97/97 102/102/102 98/98/98
f 32/32/32 105/105/105 106/106/106
f 32/32/32 106/106/106 95/95/95
f 95/95/95 106/106/106 107/107/107
f 95/95/95 107/107/107 78/78/78
f 106/106/106 108/108/108 109/109/109
f 106/106/106 109/109/109 107/107/107
f 105/105/105 110/110/110 108/108/108
f 105/105/105 108/108/108 106/106/106
f 33/33/33 111/111/111 112/112/112
f 33/33/33 112/112/112 31/31/31
f 31/31/31 112/112/112 105/105/105
f 31/31/31 105/105/105 32/32/32
f 112/112/112 113/113/113 110/110/110
f 112/112/112 110/110/110 105/105/105
f 111/111/111 101/101/101 113/113/113
f 111/111/111 113/113/113 112/112/112
f 78/78/78 107/107/107 114/114/114
f 78/78/78 114/114/114 76/76/76
f 76/76/76 114/114/114 115/115/115
f 76/76/76 115/115/115 77/77/77
f 114/114/114 116/116/116 117/117/117
f 114/114/114 117/117/117 115/115/115
f 107/107/107 109/109/109 116/116/116
f 107/107/107 116/116/116 114/114/114
f 77/77/77 115/115/115 118/118/118
f 77/77/77 118/118/118 81/81/81
f 81/81/81 118/118/118 119/119/119
f 81/81/81 119/119/119 82/82/82
f 118/118/118 120/120/120 121/121/121
f 118/118/118 121/121/121 119/119/119
f 115/115/115 117/117/117 120/120/120
f 115/115/115 120/120/120 118/118/118
f 86/86/86 122/122/122 123/123/123
f 86/86/86 123/123/123 85/85/85
f 85/85/85 123/123/123 111/111/111
f 85/85/85 111/111/111 33/33/33
f 123/123/123 99/99/99 101/101/101
f 123/123/123 101/101/101 111/111/111
f 122/122/122 96/96/96 99/99/99
f 122/122/122 99/99/99 123/123/123
f 82/82/82 119/119/119 124/124/124
f 82/82/82 124/124/124 89/89/89
f 89/89/89 124/124/124 65/65/65
f 89/89/89 65/65/65 64/64/64
f 124/124/124 125/125/125 72/72/72
f 124/124/124 72/72/72 65/65/65
f 119/119/119 121/121/121 125/125/125
f 119/119/119 125/125/125 124/124/124
f 69/69/69 68/68/68 126/126/126
f 69/69/69 126/126/126 92/92/92
f 92/92/92 126/126/126 122/122/122
f 92/92/92 122/122/122 86/86/86
f 126/126/126 127/127/127 96/96/96
f 126/126/126 96/96/96 122/122/122
f 68/68/68 71/71/71 127/127/127
f 68/68/68 127/127/127 126/126/126
f 128/128/128 129/129/129 130/130/130
f 128/128/128 130/130/130 131/131/131
f 132/132/132 131/131/131 130/130/130
f 132/132/132 130/130/130 133/133/133
f 134/134/134 133/133/133 130/130/130
f 134/134/134 130/130/130 135/135/135
f 136/136/136 135/135/135 130/130/130
f 136/136/136 130/130/130 137/137/137
f 138/138/138 137/137/137 130/130/130
f 138/138/138 130/130/130 139/139/139
f 140/140/140 139/139/139 130/130/130
f 140/140/140 130/130/130 141/141/141
f 142/142/142 141/141/141 130/130/130
f 142/142/142 130/130/130 143/143/143
f 144/144/144 143/143/143 130/130/130
f 144/144/144 130/130/130 129/129/129
f 121/121/121 145/145/145 146/146/146
f 121/121/121 146/146/146 125/125/125
f 125/125/125 146/146/146 147/147/147
f 125/125/125 147/147/147 72/72/72
f 146/146/146 148/148/148 149/149/149
f 146/146/146 149/149/149 147/147/147
f 145/145/145 150/150/150 148/148/148
f 145/145/145 148/148/148 146/146/146
f 71/71/71 151/151/151 152/152/152
f 71/71/71 152/152/152 127/127/127
f 127/127/127 152/152/152 97/97/97
f 127/127/127 97/97/97 96/96/96
f 152/152/152 153/153/153 104/104/104
f 152/152/152 104/104/104 97/97/97
f 151/151/151 154/154/154 153/153/153
f 151/151/151 153/153/153 152/152/152
f 72/72/72 147/147/147 155/155/155
f 72/72/72 155/155/155 70/70/70
f 70/70/70 155/155/155 151/151/151
f 70/70/70 151/151/151 71/71/71
f 155/155/155 156/156/156 154/154/154
f 155/155/155 154/154/154 151/151/151
f 147/147/147 149/149/149 156/156/156
f 147/147/147 156/156/156 155/155/155
f 110/110/110 157/157/157 158/158/158
f 110/110/110 158/158/158 108/108/108
f 108/108/108 158/158/158 159/159/159
f 108/108/108 159/159/159 109/109/109
f 158/158/158 160/160/160 161/161/161
f 158/158/158 161/161/161 159/159/159
f 157/157/157 162/162/162 160/160/160
f 157/157/157 160/160/160 158/158/158
f 101/101/101 100/100/100 163/163/163
f 101/101/101 163/163/163 113/113/113
f 113/113/113 163/163/163 157/157/157
f 113/113/113 157/157/157 110/110/110
f 163/163/163 164/164/164 162/162/162
f 163/163/163 162/162/162 157/157/157
f 100/100/100 103/103/103 164/164/164
f 100/100/100 164/164/164 163/163/163
f 109/109/109 159/159/159 165/165/165
f 109/109/109 165/165/165 116/116/116
f 116/116/116 165/165/165 166/166/166
f 116/116/116 166/166/166 117/117/117
f 165/165/165 167/167/167 168/168/168
f 165/165/165 168/168/168 166/166/166
f 159/159/159 161/161/161 167/167/167
f 159/159/159 167/167/167 165/165/165
f 117/117/117 166/166/166 169/169/169
f 117/117/117 169/169/169 120/120/120
f 120/120/120 169/169/169 145/145/145
f 120/120/120 145/145/145 121/121/121
f 169/169/169 170/170/170 150/150/150
f 169/169/169 150/150/150 145/145/145
f 166/166/166 168/168/168 170/170/170
f 166/166/166 170/170/170 169/169/169
f 128/128/128 171/171/171 172/172/172
f 128/128/128 172/172/172 129/129/129
f 129/129/129 172/172/172 173/173/173
f 129/129/129 173/173/173 144/144/144
f 172/172/172 153/153/153 154/154/154
f 172/172/172 154/154/154 173/173/173
f 171/171/171 104/104/104 153/153/153
f 171/171/171 153/153/153 172/172/172
f 138/138/138 174/174/174 175/175/175
f 138/138/138 175/175/175 137/137/137
f 137/137/137 175/175/175 176/176/176
f 137/137/137 176/176/176 136/136/136
f 175/175/175 167/167/167 161/161/161
f 175/175/175 161/161/161 176/176/176
f 174/174/174 168/168/168 167/167/167
f 174/174/174 167/167/167 175/175/175
f 142/142/142 177/177/177 178/178/178
f 142/142/142 178/178/178 141/141/141
f 141/141/141 178/178/178 179/179/179
f 141/141/141 179/179/179 140/140/140
f 178/178/178 148/148/148 150/150/150
f 178/178/178 150/150/150 179/179/179
f 177/177/177 149/149/149 148/148/148
f 177/177/177 148/148/148 178/178/178
f 134/134/134 180/180/180 181/181/181
f 134/134/134 181/181/181 133/133/133
f 133/133/133 181/181/181 182/182/182
f 133/133/133 182/182/182 132/132/132
f 181/181/181 164/164/164 103/103/103
f 181/181/181 103/103/103 182/182/182
f 180/180/180 162/162/162 164/164/164
f 180/180/180 164/164/164 181/181/181
f 132/132/132 182/182/182 183/183/183
f 132/132/132 183/183/183 131/131/131
f 131/131/131 183/183/183 171/171/171
f 131/131/131 171/171/171 128/128/128
f 183/183/183 102/102/102 104/104/104
f 183/183/183 104/104/104 171/171/171
f 182/182/182 103/103/103 102/102/102
f 182/182/182 102/102/102 183/183/183
f 136/136/136 176/176/176 184/184/184
f 136/136/136 184/184/184 135/135/135
f 135/135/135 184/184/184 180/180/180
f 135/135/135 180/180/180 134/134/134
f 184/184/184 160/160/160 162/162/162
f 184/184/184 162/162/162 180/180/180
f 176/176/176 161/161/161 160/160/160
f 176/176/176 160/160/160 184/184/184
f 140/140/140 179/179/179 185/185/185
f 140/140/140 185/185/185 139/139/139
f 139/139/139 185/185/185 174/174/174
f 139/139/139 174/174/174 138/138/138
f 185/185/185 170/170/170 168/168/168
f 185/185/185 168/168/168 174/174/174
f 179/179/179 150/150/150 170/170/170
f 179/179/179 170/170/170 185/185/185
f 144/144/144 173/173/173 186/186/186
f 144/144/144 186/186/186 143/143/143
f 143/143/143 186/186/186 177/177/177
f 143/143/143 177/177/177 142/142/142
f 186/186/186 156/156/156 149/149/149
f 186/186/186 149/149/149 177/177/177
f 173/173/173 154/154/154 156/156/156
f 173/173/173 156/156/156 186/186/186
f 187/187/187 188/188/188 189/189/189
f 187/187/187 189/189/189 190/190/190
f 190/190/190 189/189/189 191/191/191
f 190/190/190 191/191/191 192/192/192
f 189/189/189 62/62/62 24/24/24
f 189/189/189 24/24/24 191/191/191
f 188/188/188 52/52/52 62/62/62
f 188/188/188 62/62/62 189/189/189
f 193/193/193 194/194/194 195/195/195
f 193/193/193 195/195/195 196/196/196
f 196/196/196 195/195/195 58/58/58
f 196/196/196 58/58/58 45/45/45
f 195/195/195 197/197/197 10/10/10
f 195/195/195 10/10/10 58/58/58
f 194/194/194 198/198/198 197/197/197
f 194/194/194 197/197/197 195/195/195
f 187/187/187 199/199/199 200/200/200
f 187/187/187 200/200/200 188/188/188
f 188/188/188 200/200/200 53/53/53
f 188/188/188 53/53/53 52/52/52
f 200/200/200 201/201/201 46/46/46
f 200/200/200 46/46/46 53/53/53
f 199/199/199 202/202/202 201/201/201
f 199/199/199 201/201/201 200/200/200
f 202/202/202 203/203/203 204/204/204
f 202/202/202 204/204/204 201/201/201
f 201/201/201 204/204/204 47/47/47
f 201/201/201 47/47/47 46/46/46
f 204/204/204 205/205/205 34/34/34
f 204/204/204 34/34/34 47/47/47
f 203/203/203 206/206/206 205/205/205
f 203/203/203 205/205/205 204/204/204
f 207/207/207 208/208/208 209/209/209
f 207/207/207 209/209/209 210/210/210
f 210/210/210 209/209/209 42/42/42
f 210/210/210 42/42/42 41/41/41
f 209/209/209 196/196/196 45/45/45
f 209/209/209 45/45/45 42/42/42
f 208/208/208 193/193/193 196/196/196
f 208/208/208 196/196/196 209/209/209
f 206/206/206 211/211/211 212/212/212
f 206/206/206 212/212/212 205/205/205
f 205/205/205 212/212/212 35/35/35
f 205/205/205 35/35/35 34/34/34
f 212/212/212 210/210/210 41/41/41
f 212/212/212 41/41/41 35/35/35
f 211/211/211 207/207/207 210/210/210
f 211/211/211 210/210/210 212/212/212
f 213/213/213 214/214/214 215/215/215
f 213/213/213 215/215/215 216/216/216
f 216/216/216 215/215/215 19/19/19
f 216/216/216 19/19/19 18/18/18
f 215/215/215 191/191/191 24/24/24
f 215/215/215 24/24/24 19/19/19
f 214/214/214 192/192/192 191/191/191
f 214/214/214 191/191/191 215/215/215
f 198/198/198 217/217/217 218/218/218
f 198/198/198 218/218/218 197/197/197
f 197/197/197 218/218/218 11/11/11
f 197/197/197 11/11/11 10/10/10
f 218/218/218 216/216/216 18/18/18
f 218/218/218 18/18/18 11/11/11
f 217/217/217 213/213/213 216/216/216
f 217/217/217 216/216/216 218/218/218
f 219/219/219 220/220/220 221/221/221
f 219/219/219 221/221/221 222/222/222
f 222/222/222 221/221/221 217/217/217
f 222/222/222 217/217/217 198/198/198
f 221/221/221 223/223/223 213/213/213
f 221/221/221 213/213/213 217/217/217
f 220/220/220 224/224/224 223/223/223
f 220/220/220 223/223/223 221/221/221
f 224/224/224 225/225/225 226/226/226
f 224/224/224 226/226/226 223/223/223
f 223/223/223 226/226/226 214/214/214
f 223/223/223 214/214/214 213/213/213
f 226/226/226 227/227/227 192/192/192
f 226/226/226 192/192/192 214/214/214
f 225/225/225 228/228/228 227/227/227
f 225/225/225 227/227/227 226/226/226
f 229/229/229 230/230/230 231/231/231
f 229/229/229 231/231/231 232/232/232
f 232/232/232 231/231/231 211/211/211
f 232/232/232 211/211/211 206/206/206
f 231/231/231 233/233/233 207/207/207
f 231/231/231 207/207/207 211/211/211
f 230/230/230 234/234/234 233/233/233
f 230/230/230 233/233/233 231/231/231
f 234/234/234 235/235/235 236/236/236
f 234/234/234 236/236/236 233/233/233
f 233/233/233 236/236/236 208/208/208
f 233/233/233 208/208/208 207/207/207
f 236/236/236 237/237/237 193/193/193
f 236/236/236 193/193/193 208/208/208
f 235/235/235 238/238/238 237/237/237
f 235/235/235 237/237/237 236/236/236
f 239/239/239 240/240/240 241/241/241
f 239/239/239 241/241/241 242/242/242
f 242/242/242 241/241/241 203/203/203
f 242/242/242 203/203/203 202/202/202
f 241/241/241 232/232/232 206/206/206
f 241/241/241 206/206/206 203/203/203
f 240/240/240 229/229/229 232/232/232
f 240/240/240 232/232/232 241/241/241
f 243/243/243 244/244/244 245/245/245
f 243/243/243 245/245/245 246/246/246
f 246/246/246 245/245/245 199/199/199
f 246/246/246 199/199/199 187/187/187
f 245/245/245 242/242/242 202/202/202
f 245/245/245 202/202/202 199/199/199
f 244/244/244 239/239/239 242/242/242
f 244/244/244 242/242/242 245/245/245
f 238/238/238 247/247/247 248/248/248
f 238/238/238 248/248/248 237/237/237
f 237/237/237 248/248/248 194/194/194
f 237/237/237 194/194/194 193/193/193
f 248/248/248 222/222/222 198/198/198
f 248/248/248 198/198/198 194/194/194
f 247/247/247 219/219/219 222/222/222
f 247/247/247 222/222/222 248/248/248
f 243/243/243 246/246/246 249/249/249
f 243/243/243 249/249/249 250/250/250
f 250/250/250 249/249/249 227/227/227
f 250/250/250 227/227/227 228/228/228
f 249/249/249 190/190/190 192/192/192
f 249/249/249 192/192/192 227/227/227
f 246/246/246 187/187/187 190/190/190
f 246/246/246 190/190/190 249/249/249
f 251/251/251 252/252/252 253/253/253
f 251/251/251 253/253/253 254/254/254
f 254/254/254 253/253/253 255/255/255
f 254/254/254 255/255/255 256/256/256
f 253/253/253 257/257/257 258/258/258
f 253/253/253 258/258/258 255/255/255
f 252/252/252 259/259/259 257/257/257
f 252/252/252 257/257/257 253/253/253
f 1/1/1 260/260/260 261/261/261
f 1/1/1 261/261/261 2/2/2
f 2/2/2 261/261/261 262/262/262
f 2/2/2 262/262/262 9/9/9
f 261/261/261 263/263/263 264/264/264
f 261/261/261 264/264/264 262/262/262
f 260/260/260 265/265/265 263/263/263
f 260/260/260 263/263/263 261/261/261
f 265/265/265 266/266/266 267/267/267
f 265/265/265 267/267/267 263/263/263
f 263/263/263 267/267/267 268/268/268
f 263/263/263 268/268/268 264/264/264
f 267/267/267 269/269/269 270/270/270
f 267/267/267 270/270/270 268/268/268
f 266/266/266 271/271/271 269/269/269
f 266/266/266 269/269/269 267/267/267
f 272/272/272 273/273/273 274/274/274
f 272/272/272 274/274/274 275/275/275
f 275/275/275 274/274/274 276/276/276
f 275/275/275 276/276/276 277/277/277
f 274/274/274 254/254/254 256/256/256
f 274/274/274 256/256/256 276/276/276
f 273/273/273 251/251/251 254/254/254
f 273/273/273 254/254/254 274/274/274
f 271/271/271 278/278/278 279/279/279
f 271/271/271 279/279/279 269/269/269
f 269/269/269 279/279/279 280/280/280
f 269/269/269 280/280/280 270/270/270
f 279/279/279 275/275/275 277/277/277
f 279/279/279 277/277/277 280/280/280
f 278/278/278 272/272/272 275/275/275
f 278/278/278 275/275/275 279/279/279
f 281/281/281 282/282/282 283/283/283
f 281/281/281 283/283/283 284/284/284
f 284/284/284 283/283/283 285/285/285
f 284/284/284 285/285/285 286/286/286
f 283/283/283 5/5/5 8/8/8
f 283/283/283 8/8/8 285/285/285
f 282/282/282 6/6/6 5/5/5
f 282/282/282 5/5/5 283/283/283
f 259/259/259 287/287/287 288/288/288
f 259/259/259 288/288/288 257/257/257
f 257/257/257 288/288/288 289/289/289
f 257/257/257 289/289/289 258/258/258
f 288/288/288 284/284/284 286/286/286
f 288/288/288 286/286/286 289/289/289
f 287/287/287 281/281/281 284/284/284
f 287/287/287 284/284/284 288/288/288
f 9/9/9 290/290/290 291/291/291
f 9/9/9 291/291/291 7/7/7
f 7/7/7 291/291/291 292/292/292
f 7/7/7 292/292/292 8/8/8
f 291/291/291 250/250/250 228/228/228
f 291/291/291 228/228/228 292/292/292
f 290/290/290 243/243/243 250/250/250
f 290/290/290 250/250/250 291/291/291
f 256/256/256 255/255/255 293/293/293
f 256/256/256 293/293/293 294/294/294
f 294/294/294 293/293/293 247/247/247
f 294/294/294 247/247/247 238/238/238
f 293/293/293 295/295/295 219/219/219
f 293/293/293 219/219/219 247/247/247
f 255/255/255 258/258/258 295/295/295
f 255/255/255 295/295/295 293/293/293
f 9/9/9 262/262/262 296/296/296
f 9/9/9 296/296/296 290/290/290
f 290/290/290 296/296/296 244/244/244
f 290/290/290 244/244/244 243/243/243
f 296/296/296 297/297/297 239/239/239
f 296/296/296 239/239/239 244/244/244
f 262/262/262 264/264/264 297/297/297
f 262/262/262 297/297/297 296/296/296
f 264/264/264 268/268/268 298/298/298
f 264/264/264 298/298/298 297/297/297
f 297/297/297 298/298/298 240/240/240
f 297/297/297 240/240/240 239/239/239
f 298/298/298 299/299/299 229/229/229
f 298/298/298 229/229/229 240/240/240
f 268/268/268 270/270/270 299/299/299
f 268/268/268 299/299/299 298/298/298
f 277/277/277 276/276/276 300/300/300
f 277/277/277 300/300/300 301/301/301
f 301/301/301 300/300/300 235/235/235
f 301/301/301 235/235/235 234/234/234
f 300/300/300 294/294/294 238/238/238
f 300/300/300 238/238/238 235/235/235
f 276/276/276 256/256/256 294/294/294
f 276/276/276 294/294/294 300/300/300
f 270/270/270 280/280/280 302/302/302
f 270/270/270 302/302/302 299/299/299
f 299/299/299 302/302/302 230/230/230
f 299/299/299 230/230/230 229/229/229
f 302/302/302 301/301/301 234/234/234
f 302/302/302 234/234/234 230/230/230
f 280/280/280 277/277/277 301/301/301
f 280/280/280 301/301/301 302/302/302
f 286/286/286 285/285/285 303/303/303
f 286/286/286 303/303/303 304/304/304
f 304/304/304 303/303/303 225/225/225
f 304/304/304 225/225/225 224/224/224
f 303/303/303 292/292/292 228/228/228
f 303/303/303 228/228/228 225/225/225
f 285/285/285 8/8/8 292/292/292
f 285/285/285 292/292/292 303/303/303
f 258/258/258 289/289/289 305/305/305
f 258/258/258 305/305/305 295/295/295
f 295/295/295 305/305/305 220/220/220
f 295/295/295 220/220/220 219/219/219
f 305/305/305 304/304/304 224/224/224
f 305/305/305 224/224/224 220/220/220
f 289/289/289 286/286/286 304/304/304
f 289/289/289 304/304/304 305/305/305
