v -0.261534 1.34185 0.225364
v -0.264266 1.34454 0.222576
v -0.261753 1.34368 0.219489
v -0.259556 1.3412 0.22291
v -0.258259 1.34351 0.217386
v -0.256793 1.34108 0.221236
v -0.263398 1.34644 0.216499
v -0.2595 1.34628 0.21401
v -0.266175 1.3474 0.220112
v -0.262055 1.34429 0.231104
v -0.264978 1.34777 0.229795
v -0.265388 1.34598 0.226198
v -0.2624 1.34294 0.228244
v -0.267427 1.34906 0.224289
v -0.266971 1.35117 0.228379
v -0.266748 1.35045 0.218204
v -0.264137 1.34957 0.214246
v -0.260357 1.34952 0.211457
v -0.264408 1.3525 0.212551
v -0.260937 1.35255 0.209555
v -0.266715 1.35328 0.216705
v -0.267457 1.35442 0.226802
v -0.267931 1.35215 0.222622
v -0.267765 1.35494 0.221173
v -0.267293 1.35728 0.225239
v -0.254286 1.34406 0.216616
v -0.25365 1.34152 0.220625
v -0.250446 1.34523 0.217258
v -0.250608 1.34244 0.221138
v -0.254994 1.34692 0.213097
v -0.250629 1.34824 0.213861
v -0.255799 1.35023 0.210431
v -0.251356 1.35151 0.211298
v -0.256541 1.3533 0.20845
v -0.252229 1.35449 0.209395
v -0.246604 1.34513 0.225128
v -0.248142 1.34371 0.222729
v -0.247335 1.34686 0.219255
v -0.245398 1.3487 0.22227
v -0.247142 1.35003 0.216224
v -0.245002 1.35207 0.219754
v -0.247922 1.35316 0.213955
v -0.245892 1.35506 0.217824
v -0.249023 1.3559 0.212257
v -0.247218 1.35758 0.216323
v -0.249729 1.35799 0.210869
v -0.248032 1.35963 0.215022
v -0.250074 1.35964 0.209733
v -0.248346 1.36141 0.213811
v -0.252824 1.35663 0.207904
v -0.253193 1.35815 0.206819
v -0.261385 1.35472 0.208063
v -0.257065 1.35546 0.206919
v -0.257423 1.35694 0.205851
v -0.261752 1.35624 0.206976
v -0.250226 1.36107 0.208828
v -0.248355 1.36305 0.212674
v -0.250133 1.36206 0.208094
v -0.24805 1.36417 0.211851
v -0.253461 1.35937 0.206114
v -0.253575 1.36026 0.205453
v -0.262066 1.35745 0.206268
v -0.257698 1.35809 0.205219
v -0.257903 1.35894 0.204584
v -0.262372 1.35829 0.205607
v -0.24977 1.36248 0.207444
v -0.247456 1.36448 0.211506
v -0.249446 1.36284 0.206763
v -0.246954 1.36467 0.21122
v -0.253493 1.3608 0.204533
v -0.253411 1.36135 0.203501
v -0.262706 1.35874 0.204692
v -0.258046 1.3595 0.203566
v -0.258195 1.36009 0.202408
v -0.263042 1.35919 0.203666
v -0.267456 1.35718 0.214188
v -0.268198 1.35864 0.213043
v -0.26569 1.35762 0.209112
v -0.265176 1.35628 0.210022
v -0.266232 1.35846 0.208376
v -0.268983 1.35949 0.21222
v -0.269663 1.3595 0.211887
v -0.266757 1.35867 0.207736
v -0.267222 1.35885 0.207068
v -0.270207 1.35945 0.211618
v -0.268011 1.3614 0.222502
v -0.268782 1.36293 0.221135
v -0.26933 1.36046 0.217262
v -0.268498 1.35894 0.218573
v -0.270217 1.36134 0.216376
v -0.269643 1.36386 0.220232
v -0.270477 1.36404 0.220157
v -0.270981 1.36134 0.216239
v -0.271583 1.36129 0.216232
v -0.271176 1.36417 0.220232
v -0.263881 1.36929 0.225198
v -0.264645 1.37005 0.224978
v -0.268141 1.36724 0.223142
v -0.267231 1.36678 0.223274
v -0.26898 1.36766 0.223141
v -0.265392 1.37078 0.224854
v -0.262883 1.36662 0.227223
v -0.263324 1.36815 0.226014
v -0.266482 1.36574 0.22414
v -0.265879 1.36421 0.225444
v -0.256442 1.36802 0.22707
v -0.25675 1.36959 0.225864
v -0.260164 1.36944 0.226597
v -0.259793 1.36791 0.227767
v -0.26046 1.37067 0.2258
v -0.256773 1.37086 0.225048
v -0.256434 1.37188 0.224822
v -0.260694 1.37165 0.225543
v -0.260922 1.37261 0.225368
v -0.256094 1.37286 0.22469
v -0.249265 1.36841 0.219865
v -0.2486 1.36894 0.219776
v -0.252069 1.37083 0.222852
v -0.252675 1.37001 0.222995
v -0.251507 1.37157 0.222837
v -0.248032 1.36936 0.219834
v -0.249589 1.36546 0.222127
v -0.249604 1.36718 0.220767
v -0.252871 1.36875 0.22386
v -0.252707 1.3671 0.22516
v -0.248078 1.36519 0.216863
v -0.248122 1.36345 0.218166
v -0.247691 1.36637 0.215977
v -0.247015 1.36671 0.215827
v -0.246455 1.36692 0.215801
v -0.246997 1.36597 0.210175
v -0.246481 1.36828 0.214859
v -0.24806 1.37082 0.218942
v -0.247485 1.3733 0.211151
v -0.249087 1.3759 0.215288
v -0.247977 1.37081 0.206514
v -0.251539 1.37316 0.221943
v -0.256226 1.37453 0.223774
v -0.252584 1.37818 0.21841
v -0.257313 1.37945 0.220359
v -0.249557 1.36415 0.205582
v -0.250525 1.36875 0.202066
v -0.253626 1.36269 0.202204
v -0.25461 1.36708 0.198839
v -0.250165 1.38127 0.198543
v -0.249725 1.38409 0.203065
v -0.251377 1.38679 0.20731
v -0.253012 1.39986 0.190721
v -0.254726 1.40266 0.195161
v -0.253414 1.3967 0.186246
v -0.252674 1.37871 0.194426
v -0.255923 1.39365 0.182415
v -0.256771 1.37658 0.191539
v -0.260088 1.39109 0.179843
v -0.264605 1.36483 0.199013
v -0.267031 1.37425 0.191724
v -0.261821 1.37504 0.190595
v -0.259564 1.36573 0.197763
v -0.265292 1.38934 0.179026
v -0.270722 1.38864 0.180051
v -0.263472 1.36048 0.202374
v -0.258522 1.36143 0.20107
v -0.270767 1.36063 0.210584
v -0.267729 1.36007 0.205894
v -0.268973 1.36459 0.202387
v -0.272108 1.36537 0.206935
v -0.274934 1.37564 0.19899
v -0.271609 1.3744 0.194768
v -0.275551 1.38913 0.182799
v -0.279089 1.39079 0.186748
v -0.271817 1.36548 0.219351
v -0.272179 1.3625 0.2153
v -0.273575 1.36741 0.211606
v -0.273219 1.37046 0.215709
v -0.276146 1.38116 0.207757
v -0.276504 1.37801 0.203548
v -0.28077 1.39346 0.191263
v -0.2804 1.39675 0.195663
v -0.267309 1.3772 0.220533
v -0.26997 1.38764 0.213094
v -0.273852 1.38462 0.21104
v -0.271032 1.37402 0.218732
v -0.277975 1.40015 0.199292
v -0.273896 1.40306 0.201662
v -0.266031 1.37232 0.223944
v -0.269673 1.36908 0.222255
v -0.261315 1.37425 0.224444
v -0.26249 1.37912 0.221074
v -0.25971 1.38998 0.212909
v -0.265001 1.38953 0.213726
v -0.268723 1.40494 0.202403
v -0.263261 1.40551 0.201454
v -0.254916 1.38893 0.210698
v -0.258347 1.40467 0.198908
v -0.258829 1.42215 0.179505
v -0.262576 1.42412 0.183653
v -0.267683 1.42489 0.18654
v -0.267315 1.44671 0.165969
v -0.272712 1.44737 0.169202
v -0.263431 1.44481 0.161353
v -0.273381 1.42423 0.187624
v -0.278794 1.42228 0.186784
v -0.278767 1.4466 0.170423
v -0.284541 1.44455 0.169488
v -0.257519 1.416 0.170122
v -0.257075 1.41928 0.174754
v -0.26176 1.442 0.156111
v -0.262452 1.43885 0.151039
v -0.272157 1.4708 0.147664
v -0.277906 1.4712 0.151233
v -0.276228 1.48979 0.133216
v -0.282119 1.48993 0.136941
v -0.268185 1.46913 0.142532
v -0.272317 1.48841 0.127812
v -0.266788 1.46652 0.136646
v -0.271252 1.48606 0.121532
v -0.267985 1.46375 0.130893
v -0.272902 1.48374 0.115306
v -0.278849 1.4982 0.126164
v -0.284434 1.49823 0.129722
v -0.280604 1.49994 0.123614
v -0.285585 1.49995 0.12679
v -0.275219 1.49703 0.120983
v -0.277375 1.49891 0.118987
v -0.274392 1.49492 0.114923
v -0.276649 1.49705 0.113562
v -0.276134 1.49294 0.10884
v -0.278189 1.49532 0.108064
v -0.282105 1.49991 0.122113
v -0.286415 1.49992 0.124854
v -0.282805 1.49768 0.122406
v -0.286581 1.49771 0.124781
v -0.279259 1.49902 0.118119
v -0.280231 1.49688 0.118946
v -0.278502 1.49743 0.113433
v -0.279368 1.49546 0.114889
v -0.279696 1.49587 0.108664
v -0.280209 1.49397 0.110778
v -0.280641 1.48694 0.124475
v -0.283081 1.48632 0.126971
v -0.28246 1.49236 0.12519
v -0.280041 1.49168 0.122107
v -0.28585 1.49257 0.127274
v -0.28546 1.48776 0.128677
v -0.280207 1.48437 0.118711
v -0.280566 1.48465 0.122238
v -0.279142 1.49022 0.11859
v -0.27968 1.48877 0.114949
v -0.295164 1.48074 0.119087
v -0.294887 1.48118 0.122599
v -0.287209 1.48073 0.124085
v -0.292364 1.47979 0.117884
v -0.29049 1.4804 0.11487
v -0.287216 1.48036 0.115841
v -0.284334 1.4819 0.11473
v -0.28232 1.48223 0.117637
v -0.288371 1.48599 0.129039
v -0.291746 1.48623 0.128834
v -0.293276 1.48385 0.127226
v -0.295768 1.48327 0.124854
v -0.281722 1.4873 0.112009
v -0.284768 1.4862 0.10985
v -0.282554 1.49286 0.107181
v -0.285947 1.49194 0.104705
v -0.288403 1.48508 0.10932
v -0.292116 1.48438 0.109997
v -0.289861 1.49096 0.103876
v -0.293741 1.48999 0.104832
v -0.281468 1.49451 0.103254
v -0.282468 1.495 0.104456
v -0.28627 1.49437 0.10154
v -0.285801 1.49402 0.0999438
v -0.290495 1.49309 0.0988346
v -0.290516 1.49345 0.100555
v -0.29464 1.49226 0.101676
v -0.294998 1.49171 0.100113
v -0.276773 1.48231 0.110058
v -0.279873 1.49198 0.103611
v -0.284744 1.4914 0.100065
v -0.281926 1.48131 0.106557
v -0.287422 1.48009 0.105417
v -0.289896 1.49038 0.0988903
v -0.294835 1.48887 0.100269
v -0.292765 1.47862 0.106794
v -0.265401 1.43592 0.146888
v -0.271477 1.46154 0.126129
v -0.276468 1.45979 0.123002
v -0.270023 1.43347 0.144195
v -0.275595 1.43169 0.143363
v -0.282094 1.45827 0.122011
v -0.287723 1.45704 0.123265
v -0.281333 1.43076 0.144463
v -0.260142 1.41279 0.166301
v -0.264474 1.41007 0.163811
v -0.275519 1.40748 0.164053
v -0.269877 1.40822 0.16304
v -0.286458 1.43088 0.147398
v -0.292782 1.45636 0.126664
v -0.297561 1.47719 0.110579
v -0.296678 1.4568 0.131639
v -0.301375 1.47678 0.116066
v -0.290276 1.4322 0.151722
v -0.284249 1.40973 0.170712
v -0.280551 1.408 0.166751
v -0.292181 1.43473 0.156856
v -0.29882 1.45877 0.137471
v -0.303685 1.47815 0.122385
v -0.298617 1.46177 0.143299
v -0.303651 1.48078 0.128607
v -0.291837 1.43803 0.162043
v -0.285632 1.41586 0.180096
v -0.286017 1.4125 0.175393
v -0.299178 1.4872 0.104087
v -0.298857 1.49019 0.103665
v -0.302657 1.48643 0.109555
v -0.301894 1.48949 0.108697
v -0.304894 1.48746 0.115732
v -0.303858 1.49039 0.114283
v -0.304966 1.48976 0.121739
v -0.303915 1.49242 0.119661
v -0.298147 1.4911 0.104803
v -0.297068 1.48926 0.107492
v -0.300818 1.49068 0.109209
v -0.299516 1.48923 0.111258
v -0.302409 1.49158 0.114057
v -0.300791 1.49024 0.115435
v -0.302318 1.49339 0.118702
v -0.300528 1.49193 0.119455
v -0.295256 1.48399 0.112319
v -0.297637 1.48439 0.115394
v -0.298652 1.48547 0.119081
v -0.298401 1.48722 0.122567
v -0.296474 1.48896 0.125539
v -0.293502 1.49071 0.127465
v -0.298501 1.49385 0.122795
v -0.295105 1.49564 0.124992
v -0.289715 1.49184 0.128066
v -0.290909 1.49699 0.125674
v -0.301404 1.49486 0.12413
v -0.300085 1.49552 0.122559
v -0.296195 1.49753 0.125096
v -0.296908 1.49719 0.12707
v -0.29133 1.49897 0.127984
v -0.291377 1.49907 0.125884
v -0.300672 1.48384 0.133824
v -0.302155 1.49252 0.126743
v -0.297122 1.49513 0.130036
v -0.295415 1.48669 0.137271
v -0.288876 1.48883 0.138343
v -0.290873 1.49714 0.13106
v -0.289128 1.4415 0.166497
v -0.295716 1.4651 0.14825
v -0.290702 1.46811 0.151551
v -0.284431 1.47025 0.152579
v -0.283079 1.41932 0.184105
v -0.248339 1.36145 0.224859
v -0.249238 1.36356 0.22347
v -0.25228 1.3652 0.226507
v -0.251374 1.36298 0.228025
v -0.255963 1.36612 0.228402
v -0.255144 1.36378 0.230033
v -0.24781 1.36158 0.219456
v -0.246938 1.35953 0.220761
v -0.245826 1.35585 0.228023
v -0.246878 1.35896 0.226425
v -0.24992 1.36031 0.229827
v -0.248738 1.35697 0.231482
v -0.253892 1.36089 0.232059
v -0.252717 1.35732 0.233816
v -0.245507 1.3571 0.222214
v -0.244542 1.35412 0.223903
v -0.258 1.3605 0.232874
v -0.257105 1.35677 0.23467
v -0.261895 1.35913 0.232214
v -0.261318 1.35542 0.233963
v -0.258746 1.36357 0.230764
v -0.262104 1.36227 0.230188
v -0.259332 1.366 0.229091
v -0.262442 1.36471 0.228556
v -0.265259 1.35693 0.230114
v -0.26479 1.35343 0.231753
v -0.265184 1.35995 0.228314
v -0.265392 1.36233 0.226795
v -0.267459 1.35955 0.223848
v -0.267925 1.35715 0.219867
v -0.266923 1.35546 0.215403
v -0.251866 1.34834 0.234995
v -0.252107 1.35303 0.234686
v -0.256089 1.35249 0.235457
v -0.255009 1.3479 0.235607
v -0.259933 1.3513 0.234812
v -0.25805 1.34698 0.235093
v -0.263047 1.34964 0.232813
v -0.260517 1.34571 0.233503
v -0.247124 1.34758 0.230868
v -0.246068 1.35194 0.22949
v -0.248591 1.35283 0.23258
v -0.249103 1.34822 0.233322
v -0.244964 1.35049 0.225867
v -0.246258 1.34649 0.227988
v -0.264732 1.35467 0.211162
vt 0.08333 0.9167
vt 0.08526 0.08505
vt 0.9162 0.9162
vt 0.2612 0.01105
vt 0.0843 0.08419
vt 0.08433 0.9159
vt 0.08333 0.08333
vt 0.0004723 0.5001
vt 0.01042 0.7396
vt 0.01114 0.7391
vt 0.7395 0.9895
vt 0.9164 0.9163
vt 0.0843 0.08419
vt 0.2604 0.01042
vt 0.01114 0.7391
vt 0.2619 0.01169
vt 0.7394 0.9893
vt 0.2612 0.01105
vt 0.7396 0.9896
vt 0 0.5
vt 0.01042 0.7396
vt 0.2607 0.9893
vt 0.7393 0.9892
vt 0.5 0.9999
vt 0.5002 0.0004414
vt 0.7393 0.9892
vt 0.9167 0.9167
vt 0.2619 0.01169
vt 0.01187 0.7385
vt 0.5003 0.0008831
vt 0.01114 0.7391
vt 0.7394 0.9893
vt 0.5003 0.0006679
vt 0.2615 0.01138
vt 0.0004723 0.5001
vt 0.5003 0.0008831
vt 0.08346 0.9166
vt 0.5001 0.9998
vt 0.5 0.9999
vt 0.2615 0.01138
vt 0.0009446 0.5001
vt 0.5001 0.9998
vt 0.9166 0.9166
vt 0.5003 0.0006679
vt 0.08433 0.9159
vt 0.7394 0.9893
vt 0.5 0.9999
vt 0.5002 0.00048
vt 0.01187 0.7385
vt 0.2612 0.01111
vt 0.08532 0.9151
vt 0.5 1
vt 0.7395 0.9894
vt 0.2615 0.01138
vt 0.01114 0.7391
vt 0.5 0.9999
vt 0.7396 0.9896
vt 0.2612 0.01111
vt 0.2612 0.989
vt 0.08479 0.08463
vt 0.5 1
vt 0.08526 0.08505
vt 0.5001 0.9998
vt 0.2619 0.01169
vt 0.2604 0.9896
vt 0.9164 0.9163
vt 0.01096 0.2609
vt 0.01118 0.2611
vt 0.01151 0.7388
vt 0.08438 0.08427
vt 0.5002 0.9996
vt 0.08479 0.08463
vt 0.9165 0.9164
vt 0.7395 0.9895
vt 0.2604 0.9896
vt 0.08433 0.9159
vt 0.5002 0.00048
vt 0.7395 0.9894
vt 0.5 0.9999
vt 0.2615 0.01138
vt 0.2612 0.989
vt 0.2612 0.01111
vt 0.7394 0.9893
vt 0.7395 0.9895
vt 0.08333 0.9167
vt 0.08532 0.9151
vt 0.5001 0.0003395
vt 0.9998 0.5
vt 0.7395 0.9894
vt 0.261 0.01091
vt 0.2612 0.989
vt 0.5001 0.0003395
vt 0.9998 0.5
vt 0.7395 0.9894
vt 0.2619 0.9884
vt 0.08433 0.9159
vt 0.5001 0.0002402
vt 0.9893 0.7394
vt 0.261 0.01091
vt 0.9166 0.9166
vt 0.5003 0.9992
vt 0.5002 0.9996
vt 0.2608 0.01076
vt 0.9892 0.7393
vt 0.7395 0.9895
vt 0.08532 0.9151
vt 0.08386 0.0838
vt 0.9892 0.7393
vt 0.2605 0.9895
vt 0.261 0.01091
vt 0.2619 0.9884
vt 0.08407 0.08399
vt 0.9893 0.7394
vt 0.9165 0.9164
vt 0.2612 0.989
vt 0.08483 0.9154
vt 0.08438 0.08427
vt 0.9164 0.9163
vt 0.2608 0.01076
vt 0.0005134 0.5001
vt 0.01187 0.7385
vt 0.01151 0.7388
vt 0.2612 0.01111
vt 0.9162 0.9162
vt 0.2607 0.9893
vt 0.9893 0.7394
vt 0.2608 0.9892
vt 0.08407 0.08399
vt 0.9894 0.7394
vt 0.0003633 0.5
vt 0.01118 0.2611
vt 0.9165 0.9164
vt 0.261 0.01091
vt 0.08407 0.08399
vt 0.01187 0.7385
vt 0.0007144 0.5001
vt 0.9164 0.9163
vt 0.2607 0.01066
vt 0.0837 0.08366
vt 0.2616 0.9887
vt 0.9998 0.5
vt 0.08438 0.08427
vt 0.0108 0.2608
vt 0.01151 0.7388
vt 0.01096 0.2609
vt 0.9999 0.5
vt 0.2607 0.01066
vt 0.0837 0.08366
vt 0.2616 0.9887
vt 0.0009446 0.5001
vt 0.9894 0.7394
vt 0.2607 0.9893
vt 0.01096 0.2609
vt 0.0112 0.739
vt 0.0005134 0.5001
vt 0.0003633 0.5
vt 0.9893 0.7394
vt 0.08386 0.0838
vt 0.5001 0.9998
vt 0.0007144 0.5001
vt 0.08407 0.08399
vt 0.9999 0.5
vt 0.0108 0.2608
vt 0.9999 0.5
vt 0.0002571 0.5
vt 0.08483 0.9154
vt 0.01096 0.2609
vt 0.9895 0.7395
vt 0.5001 0.9998
vt 0.08441 0.9158
vt 0.2607 0.01066
vt 0.9894 0.7394
vt 0.5001 0.0002402
vt 0.0112 0.739
vt 0.2608 0.01076
vt 0.9894 0.7394
vt 0.01051 0.7395
vt 0.01151 0.7388
vt 0.5003 0.9992
vt 0.2607 0.01066
vt 0.9895 0.7395
vt 0.5001 0.0001687
vt 0.01042 0.7396
vt 0.5002 0.9994
vt 0.5001 0.0001687
vt 0.9166 0.9166
vt 0.9165 0.9164
vt 0.2606 0.01058
vt 0.5 0.000111
vt 0.9895 0.7395
vt 0.2608 0.01076
vt 0.2619 0.9884
vt 0.9896 0.7396
vt 0.2606 0.01058
vt 0.08386 0.0838
vt 0.9167 0.9167
vt 0.08357 0.08355
vt 0.0002571 0.5
vt 0.2619 0.9884
vt 0.08483 0.9154
vt 0.9166 0.9166
vt 0.0106 0.7395
vt 0.08358 0.9165
vt 0.0007144 0.5001
vt 0.08333 0.9167
vt 0.9999 0.5
vt 0.0001805 0.5
vt 0.08532 0.9151
vt 1 0.5
vt 0.08346 0.9166
vt 0.0108 0.2608
vt 0.2612 0.9889
vt 0.01068 0.2607
vt 0.2616 0.9887
vt 0.9896 0.7396
vt 0.0108 0.2608
vt 5.933e-05 0.5
vt 0.08441 0.9158
vt 0.9895 0.7395
vt 0 0.5
vt 0.0837 0.08366
vt 0.5002 0.9994
vt 0.01068 0.2607
vt 0.08483 0.9154
vt 0.9165 0.08357
vt 0.08386 0.0838
vt 0.01042 0.7396
vt 0.5002 0.9995
vt 0.9166 0.08345
vt 0.01051 0.7395
vt 0.01059 0.2606
vt 0.2616 0.9887
vt 0.01068 0.2607
vt 0.2612 0.9889
vt 0.9895 0.2605
vt 0.08357 0.08355
vt 0.0001187 0.5
vt 0 0.5
vt 0.0004723 0.5001
vt 0.0001805 0.5
vt 0.9894 0.2606
vt 0.0837 0.08366
vt 5.933e-05 0.5
vt 0.01112 0.261
vt 0.01042 0.2604
vt 0.0001187 0.5
vt 0.9894 0.2606
vt 0.01068 0.2607
vt 0.08479 0.08463
vt 0.01042 0.2604
vt 0.9895 0.2605
vt 0 0.5
vt 0.01112 0.261
vt 0.5 0.000111
vt 0.01042 0.2604
vt 0.01059 0.2606
vt 0.08371 0.9164
vt 0.01148 0.2614
vt 0.0105 0.2605
vt 0.08526 0.08505
vt 0.9999 0.5
vt 0.2606 0.01058
vt 0.2605 0.0105
vt 0.0843 0.08419
vt 0.9999 0.5
vt 0.01051 0.7395
vt 0.5 5.543e-05
vt 0.08333 0.08333
vt 0.2605 0.0105
vt 0.9895 0.2605
vt 0.5 5.543e-05
vt 0.01112 0.261
vt 0.2604 0.01042
vt 0.9896 0.2604
vt 0.0106 0.7395
vt 0.01182 0.2617
vt 0.2605 0.0105
vt 1 0.5
vt 0.5 0
vt 0.08526 0.08505
vt 0.08345 0.08344
vt 0.9999 0.5
vt 0.0106 0.7395
vt 0.0843 0.08419
vt 0.2604 0.01042
vt 0.9166 0.08345
vt 0.08333 0.08333
vt 0.0004723 0.5001
vt 0.2606 0.01058
vt 0.9167 0.08333
vt 0.2605 0.0105
vt 0.0009446 0.5001
vt 0.9896 0.2604
vt 0.08357 0.08355
vt 0.0001187 0.5
vt 0.9895 0.2605
vt 0.08345 0.08344
vt 0.9162 0.08384
vt 0.01059 0.2606
vt 0.0105 0.2605
vt 0.0009446 0.5001
vt 0.01182 0.2617
vt 0.01059 0.2606
vt 0.9164 0.08369
vt 5.933e-05 0.5
vt 0.9893 0.2607
vt 0.0105 0.2605
vt 0.08346 0.9166
vt 0.0007144 0.5001
vt 0.01112 0.261
vt 0.01051 0.7395
vt 0.9893 0.2608
vt 0.9893 0.2608
vt 0.08357 0.08355
vt 0.08345 0.08344
vt 0.01148 0.2614
vt 0.9893 0.2607
vt 0.0105 0.2605
vt 0.08358 0.9165
vt 0.01182 0.2617
vt 0.9998 0.5
vt 0.08333 0.08333
vt 0.01042 0.2604
vt 0.01182 0.2617
vt 0.9998 0.5
vt 0.08345 0.08344
vt 0.01069 0.7394
vt 0.01148 0.2614
vt 0.9893 0.2607
vt 5.933e-05 0.5
vt 0.9894 0.2606
vt 0.08387 0.9162
vt 0.9999 0.5
vt 0.01069 0.7394
vt 0.01081 0.7393
vt 0.01118 0.2611
vt 0.9998 0.5
vt 0.01081 0.7393
vt 0.0001805 0.5
vt 0.9164 0.08369
vt 0.01069 0.7394
vt 0.08438 0.08427
vt 0.0002571 0.5
vt 0.9165 0.08357
vt 0.0106 0.7395
vt 0.9894 0.2606
vt 0.01069 0.7394
vt 0.08479 0.08463
vt 0.0001187 0.5
vt 0.9893 0.2607
vt 0.08371 0.9164
vt 0.5001 0.0002403
vt 0.0001805 0.5
vt 0.5001 0.0001687
vt 0.7394 0.01068
vt 0.0005134 0.5001
vt 0.2608 0.9892
vt 0.7393 0.01079
vt 0.2607 0.9893
vt 0.08371 0.9164
vt 0.01148 0.2614
vt 0.7393 0.01079
vt 0.08387 0.9162
vt 0.01118 0.2611
vt 0.08371 0.9164
vt 0.7394 0.01068
vt 0.5 1
vt 0.2606 0.9894
vt 0.5 -1.192e-07
vt 0.9164 0.08369
vt 0.2604 0.9896
vt 0.9162 0.08384
vt 0.2606 0.9894
vt 0.5001 0.9998
vt 0.2612 0.01105
vt 0.08358 0.9165
vt 0.2604 0.01042
vt 0.7394 0.01068
vt 0.5 0.9999
vt 0.7395 0.01059
vt 0.2606 0.9894
vt 0.2606 0.9894
vt 0.9165 0.08357
vt 0.5 0.9999
vt 0.9164 0.08369
vt 0.5 0.9999
vt 0.2612 0.01105
vt 0.2605 0.9895
vt 0.5001 0.0001687
vt 0.08346 0.9166
vt 0.2605 0.9895
vt 0.5002 0.0004414
vt 0.5 0.0001109
vt 0.2605 0.9895
vt 0.2619 0.01169
vt 0.08333 0.9167
vt 0.7395 0.01059
vt 0.08358 0.9165
vt 0.7394 0.01068
vt 0.2604 0.9896
vt 0.5 0.0001109
vn -0.6529 -0.7523 -0.08716
vn -0.7013 -0.7001 -0.134
vn -0.4719 -0.7961 -0.3788
vn -0.4352 -0.8379 -0.3292
vn -0.1687 -0.8253 -0.5389
vn -0.1469 -0.8606 -0.4877
vn -0.5779 -0.6503 -0.493
vn -0.2354 -0.7127 -0.6607
vn -0.8245 -0.5109 -0.2432
vn -0.7424 -0.4318 0.5122
vn -0.7957 -0.3645 0.4837
vn -0.8181 -0.55 0.1675
vn -0.764 -0.611 0.2073
vn -0.9402 -0.3343 0.0647
vn -0.9065 -0.1412 0.398
vn -0.9033 -0.2794 -0.3256
vn -0.6745 -0.4696 -0.5696
vn -0.3069 -0.5823 -0.7528
vn -0.7175 -0.4224 -0.5539
vn -0.3418 -0.5538 -0.7592
vn -0.924 -0.2242 -0.3098
vn -0.955 0.09516 0.2807
vn -0.9954 -0.08667 -0.04169
vn -0.9981 -0.03775 -0.04837
vn -0.9557 0.1431 0.2572
vn 0.1638 -0.784 -0.5987
vn 0.1725 -0.8191 -0.547
vn 0.4868 -0.6782 -0.5504
vn 0.4839 -0.7194 -0.4982
vn 0.138 -0.6762 -0.7236
vn 0.4961 -0.5473 -0.6741
vn 0.1097 -0.5574 -0.8229
vn 0.5018 -0.3979 -0.768
vn 0.1037 -0.5332 -0.8396
vn 0.5205 -0.3568 -0.7757
vn 0.9146 -0.3909 -0.1031
vn 0.7454 -0.5702 -0.3453
vn 0.7589 -0.5165 -0.3966
vn 0.9342 -0.3225 -0.1522
vn 0.7893 -0.3371 -0.5132
vn 0.9599 -0.09589 -0.2635
vn 0.7958 -0.1301 -0.5914
vn 0.9264 0.1487 -0.3458
vn 0.8142 -0.06748 -0.5766
vn 0.9207 0.2089 -0.3296
vn 0.8379 -0.1364 -0.5286
vn 0.9591 0.09705 -0.2657
vn 0.8371 -0.2098 -0.5052
vn 0.9763 -0.04596 -0.2116
vn 0.5358 -0.3885 -0.7496
vn 0.5294 -0.3811 -0.7579
vn -0.3408 -0.5895 -0.7323
vn 0.1091 -0.556 -0.824
vn 0.1007 -0.5181 -0.8494
vn -0.3369 -0.5818 -0.7402
vn 0.8221 -0.3213 -0.47
vn 0.9652 -0.214 -0.1503
vn 0.7337 -0.6205 -0.2767
vn 0.8003 -0.5968 0.05802
vn 0.5223 -0.426 -0.7387
vn 0.5069 -0.6661 -0.5471
vn -0.3094 -0.6202 -0.7208
vn 0.1053 -0.5361 -0.8375
vn 0.1567 -0.7493 -0.6434
vn -0.1871 -0.8255 -0.5324
vn 0.5959 -0.7941 -0.1198
vn 0.5453 -0.8116 0.2094
vn 0.727 -0.5987 -0.3363
vn 0.845 -0.5344 -0.01773
vn 0.4557 -0.8067 -0.3762
vn 0.4883 -0.687 -0.5381
vn -0.07648 -0.9271 -0.3669
vn 0.187 -0.868 -0.46
vn 0.1655 -0.7808 -0.6025
vn -0.1606 -0.8345 -0.527
vn -0.8578 -0.4775 -0.1903
vn -0.7715 -0.6231 -0.1286
vn -0.6081 -0.6572 -0.4453
vn -0.6726 -0.5625 -0.4808
vn -0.3948 -0.8821 -0.2567
vn -0.4517 -0.889 0.07428
vn -0.13 -0.9673 0.2179
vn -0.1953 -0.9748 -0.1073
vn -0.4017 -0.858 -0.32
vn -0.5231 -0.8523 -0.001587
vn -0.9186 -0.03806 0.3933
vn -0.8648 -0.1524 0.4784
vn -0.868 -0.4602 0.1864
vn -0.9461 -0.3077 0.1009
vn -0.4865 -0.7855 0.3824
vn -0.5509 -0.5163 0.6557
vn -0.155 -0.708 0.689
vn -0.07181 -0.8782 0.4729
vn -0.5816 -0.7338 0.351
vn -0.5866 -0.4798 0.6524
vn -0.3835 0.1634 0.909
vn -0.2456 -0.06244 0.9673
vn -0.2674 -0.4096 0.8722
vn -0.5351 -0.1522 0.831
vn -0.5077 -0.1698 0.8446
vn -0.3421 0.1229 0.9316
vn -0.5097 0.42 0.7508
vn -0.4928 0.3885 0.7786
vn -0.7281 0.1571 0.6672
vn -0.7616 0.2226 0.6086
vn 0.3113 0.603 0.7345
vn 0.3091 0.5651 0.7649
vn -0.1027 0.5499 0.8289
vn -0.1062 0.5699 0.8148
vn -0.05783 0.3475 0.9359
vn 0.3082 0.3143 0.8979
vn 0.2791 0.05298 0.9588
vn -0.01498 0.1483 0.9888
vn -0.05261 0.3074 0.9501
vn 0.284 0.2647 0.9215
vn 0.7341 -0.217 0.6435
vn 0.4658 -0.5618 0.6836
vn 0.4407 -0.2469 0.863
vn 0.568 0.09729 0.8172
vn 0.5524 0.07544 0.8302
vn 0.7517 -0.167 0.638
vn 0.8492 0.3717 0.375
vn 0.8527 0.244 0.4619
vn 0.605 0.4581 0.6512
vn 0.606 0.5339 0.5896
vn 0.9853 -0.02539 0.1688
vn 0.9858 0.1458 0.0828
vn 0.7917 -0.4856 0.3707
vn 0.4612 -0.7536 0.4683
vn 0.853 -0.3985 0.337
vn 0.9579 -0.09775 -0.2698
vn 0.9895 0.1359 0.0488
vn 0.8603 0.34 0.3798
vn 0.9788 0.2046 0.007447
vn 0.8531 0.4096 0.3231
vn 0.9532 -0.03098 -0.3005
vn 0.6021 0.4774 0.64
vn 0.2704 0.5393 0.7975
vn 0.5988 0.5446 0.5872
vn 0.2619 0.5929 0.7615
vn 0.7892 -0.3164 -0.5263
vn 0.7888 -0.258 -0.5578
vn 0.5038 -0.5031 -0.7021
vn 0.4997 -0.4542 -0.7376
vn 0.9529 -0.03363 -0.3012
vn 0.9781 0.208 0.006012
vn 0.8527 0.4158 0.3163
vn 0.9781 0.2078 0.004364
vn 0.8535 0.4206 0.3076
vn 0.9526 -0.04331 -0.3011
vn 0.7844 -0.2685 -0.5592
vn 0.7784 -0.2881 -0.5578
vn 0.4938 -0.4664 -0.7339
vn 0.4871 -0.4872 -0.7248
vn -0.2756 -0.6322 -0.7241
vn -0.2646 -0.6404 -0.721
vn 0.122 -0.5978 -0.7923
vn 0.1193 -0.5885 -0.7996
vn 0.1268 -0.6149 -0.7783
vn -0.2486 -0.656 -0.7126
vn -0.2576 -0.6775 -0.6889
vn 0.1298 -0.6333 -0.763
vn -0.8209 -0.5134 -0.2501
vn -0.5838 -0.6341 -0.5071
vn -0.6093 -0.5821 -0.5383
vn -0.8467 -0.4518 -0.2809
vn -0.8455 -0.4537 -0.2814
vn -0.6009 -0.5893 -0.5399
vn -0.5873 -0.6039 -0.5388
vn -0.8413 -0.4617 -0.2811
vn -0.9133 -0.0745 0.4003
vn -0.9456 -0.3182 0.06827
vn -0.9674 -0.2516 0.02658
vn -0.9392 -0.008301 0.3433
vn -0.9417 -0.002594 0.3363
vn -0.9684 -0.248 0.02524
vn -0.9685 -0.2478 0.02368
vn -0.9449 0.001343 0.3273
vn -0.4684 0.4259 0.774
vn -0.4748 0.4354 0.7648
vn -0.7667 0.2379 0.5963
vn -0.7607 0.2308 0.6067
vn -0.7754 0.2443 0.5822
vn -0.4851 0.4466 0.7518
vn -0.4516 0.3746 0.8098
vn -0.7327 0.169 0.6591
vn -0.0998 0.5083 0.8554
vn -0.1104 0.5517 0.8267
vn 0.2625 0.6041 0.7524
vn -0.1136 0.5629 0.8186
vn -0.1178 0.5782 0.8073
vn 0.2655 0.6185 0.7396
vn 0.6003 0.5535 0.5772
vn 0.6044 0.5631 0.5635
vn 0.8583 0.4172 0.2986
vn 0.6121 0.5646 0.5536
vn 0.2713 0.6254 0.7316
vn 0.619 0.556 0.5546
vn 0.2742 0.6207 0.7345
vn 0.8681 0.4028 0.2899
vn -0.1204 0.5864 0.801
vn -0.4946 0.4501 0.7434
vn -0.1203 0.5829 0.8036
vn -0.4962 0.4445 0.7458
vn 0.9491 -0.05527 -0.3101
vn 0.9796 0.2007 -0.003479
vn 0.9828 0.1828 -0.02435
vn 0.9391 -0.07071 -0.3361
vn 0.6182 0.5539 0.5576
vn 0.2676 0.6188 0.7385
vn 0.602 0.5885 0.5396
vn 0.2478 0.6472 0.7208
vn 0.8779 0.393 0.2736
vn 0.8733 0.4257 0.2365
vn 0.9843 0.1653 -0.06153
vn 0.9742 0.1944 -0.1141
vn 0.9232 -0.08298 -0.3753
vn 0.9061 -0.04517 -0.4207
vn 0.5162 0.745 0.4223
vn 0.1829 0.7797 0.5987
vn 0.2629 0.9553 0.1348
vn 0.02893 0.9618 0.2722
vn 0.78 0.6141 0.1202
vn 0.4509 0.8879 -0.09107
vn 0.8835 0.4171 -0.2133
vn 0.5289 0.7888 -0.313
vn 0.8458 0.2188 -0.4865
vn 0.5281 0.7199 -0.4505
vn -0.371 0.7932 -0.4829
vn -0.305 0.7748 -0.5537
vn -0.6807 -0.1378 -0.7194
vn -0.3528 -0.1937 -0.9154
vn -0.3955 0.828 -0.3974
vn -0.9116 -0.006623 -0.411
vn -0.417 0.8688 -0.2667
vn -0.9868 0.1526 -0.05432
vn -0.3622 0.9298 -0.06516
vn -0.9048 0.3301 0.269
vn -0.8358 0.1873 -0.516
vn -0.5945 0.3029 -0.7448
vn -0.6568 -0.295 -0.6939
vn -0.9041 -0.1543 -0.3985
vn -0.3247 -0.3457 -0.8803
vn -0.3604 0.05203 -0.9313
vn -0.8589 0.5087 0.05789
vn -0.8029 0.5206 -0.2901
vn -0.9972 0.03287 -0.06668
vn -0.9321 0.2521 0.2598
vn 0.5417 0.8398 0.03519
vn 0.4744 0.8236 -0.3107
vn -0.2205 0.8756 -0.4297
vn 0.1926 0.9752 0.1083
vn 0.06436 0.9102 0.4091
vn -0.2237 0.9399 0.2578
vn -0.4566 0.7851 0.4183
vn -0.6094 0.7839 0.1192
vn -0.09577 0.3025 -0.9483
vn 0.2608 0.196 -0.9452
vn 0.3651 0.5288 -0.7661
vn 0.6482 0.5355 -0.5413
vn -0.7413 0.446 0.5015
vn -0.4642 0.6036 0.6482
vn -0.7007 0.5027 0.5062
vn -0.4423 0.6337 0.6346
vn -0.1608 0.7064 0.6892
vn 0.1608 0.7529 0.6381
vn -0.1692 0.721 0.672
vn 0.1241 0.7704 0.6253
vn 0.446 0.6818 -0.5799
vn -0.259 0.9623 0.08225
vn -0.2183 0.9666 0.1342
vn 0.2114 0.644 -0.7352
vn -0.156 0.5653 -0.81
vn -0.2386 0.9597 0.1481
vn -0.2557 0.9572 0.1357
vn -0.5195 0.4663 -0.716
vn 0.7101 -0.2641 -0.6526
vn 0.7004 0.038 -0.7127
vn 0.4329 -0.1279 -0.8923
vn 0.4364 -0.4336 -0.7884
vn 0.116 -0.5446 -0.8306
vn 0.04279 -0.2587 -0.965
vn -0.3732 -0.3124 -0.8735
vn -0.2307 -0.5871 -0.7759
vn 0.7466 -0.3117 -0.5877
vn 0.7218 -0.3121 -0.6177
vn 0.4424 -0.4831 -0.7556
vn 0.4598 -0.4956 -0.7368
vn 0.1282 -0.6107 -0.7814
vn 0.1258 -0.5915 -0.7964
vn -0.2114 -0.6341 -0.7438
vn -0.2203 -0.6524 -0.7252
vn 0.7671 -0.3034 -0.5652
vn 0.4765 -0.4987 -0.7241
vn -0.2335 -0.6618 -0.7124
vn 0.1292 -0.621 -0.773
vn -0.554 -0.6103 -0.5662
vn -0.5387 -0.5988 -0.5926
vn -0.557 -0.5492 -0.623
vn -0.8065 -0.4783 -0.3474
vn -0.8128 -0.4346 -0.3878
vn -0.8213 -0.4772 -0.3127
vn -0.8339 -0.4699 -0.2894
vn -0.5718 -0.6124 -0.5459
vn -0.963 -0.2696 -0.004059
vn -0.958 -0.2839 -0.03952
vn -0.9634 -0.2524 -0.09012
vn -0.9557 -0.03168 0.2925
vn -0.9668 -0.0003052 0.2554
vn -0.9509 -0.01959 0.3088
vn -0.9481 -0.003418 0.3179
vn -0.9671 -0.2539 0.01596
vn -0.6859 -0.2767 -0.673
vn -0.7396 0.3991 -0.5419
vn -0.8773 -0.1758 -0.4466
vn -0.8181 0.3966 -0.4163
vn -0.9822 -0.01846 -0.1867
vn -0.8412 0.4561 -0.2904
vn -0.969 0.2042 0.1386
vn -0.8088 0.5832 -0.07547
vn -0.2081 0.9745 0.0835
vn 0.4273 0.7632 0.4846
vn -0.09888 0.9927 -0.06882
vn 0.6821 0.6899 0.2422
vn -0.02881 0.9604 -0.2771
vn 0.8221 0.5635 -0.08057
vn -0.0369 0.9107 -0.4114
vn 0.8122 0.3858 -0.4375
vn 0.4848 0.7313 0.4798
vn 0.7354 0.636 0.2338
vn 0.8812 0.4635 -0.09253
vn 0.8705 0.2506 -0.4234
vn 0.6997 0.01306 -0.7143
vn 0.4122 -0.1795 -0.8932
vn 0.6486 0.164 -0.7432
vn 0.3656 -0.03162 -0.9302
vn 0.05228 -0.3086 -0.9497
vn 0.01431 -0.1591 -0.9871
vn -0.665 0.7326 0.1449
vn -0.05051 0.8663 -0.4969
vn -0.1095 0.8191 -0.563
vn -0.4551 0.8461 0.2773
vn -0.2168 0.9227 0.3186
vn -0.2059 0.7824 -0.5878
vn -0.7871 0.2687 0.5552
vn -0.7841 0.4421 0.4356
vn -0.4952 0.6225 0.6059
vn -0.4874 0.4789 0.7301
vn -0.1287 0.6083 0.7832
vn -0.1631 0.7358 0.6573
vn -0.7867 0.232 0.572
vn -0.7854 0.231 0.5742
vn -0.4905 0.4456 0.7489
vn -0.1208 0.5815 0.8045
vn -0.7838 0.2423 0.5718
vn 0.7982 0.5546 0.235
vn 0.8314 0.465 0.3042
vn 0.6031 0.5719 0.556
vn 0.5874 0.6236 0.5157
vn 0.3094 0.6032 0.7351
vn 0.2958 0.6211 0.7258
vn 0.9566 0.2913 0.005707
vn 0.9088 0.4118 -0.06696
vn 0.8826 0.2813 0.3767
vn 0.8186 0.5131 0.2579
vn 0.6 0.5794 0.5517
vn 0.6478 0.3681 0.667
vn 0.2965 0.5661 0.7691
vn 0.3271 0.3717 0.8688
vn 0.9283 0.3668 -0.06104
vn 0.9917 0.12 0.04535
vn -0.0918 0.4918 0.8658
vn -0.05139 0.306 0.9506
vn -0.4818 0.3844 0.7874
vn -0.4257 0.1943 0.8837
vn -0.1038 0.5547 0.8255
vn -0.5032 0.4371 0.7454
vn -0.1021 0.5537 0.8264
vn -0.5067 0.4185 0.7537
vn -0.7757 0.2567 0.5765
vn -0.7237 0.04443 0.6887
vn -0.7841 0.3046 0.5406
vn -0.7749 0.2545 0.5785
vn -0.9444 0.05033 0.325
vn -0.9858 -0.1661 0.02426
vn -0.9073 -0.3416 -0.2452
vn 0.3516 0.07898 0.9328
vn 0.3495 0.159 0.9233
vn -0.007996 0.1085 0.994
vn 0.009705 0.03455 0.9993
vn -0.355 -0.007233 0.9348
vn -0.3208 -0.07904 0.9438
vn -0.6324 -0.1719 0.7553
vn -0.5868 -0.243 0.7724
vn 0.8664 -0.05292 0.4965
vn 0.8841 0.0315 0.4662
vn 0.6613 0.1336 0.7381
vn 0.6525 0.04898 0.7562
vn 0.9801 -0.1292 0.1505
vn 0.959 -0.2081 0.1926
vn -0.7071 -0.4951 -0.5049
f 1/1/1 2/2/2 3/3/3
f 1/1/1 3/3/3 4/4/4
f 4/4/4 3/3/3 5/5/5
f 4/4/4 5/5/5 6/6/6
f 3/3/3 7/7/7 8/8/8
f 3/3/3 8/8/8 5/5/5
f 2/2/2 9/9/9 7/7/7
f 2/2/2 7/7/7 3/3/3
f 10/10/10 11/11/11 12/12/12
f 10/10/10 12/12/12 13/13/13
f 13/13/13 12/12/12 2/2/2
f 13/13/13 2/2/2 1/1/1
f 12/12/12 14/14/14 9/9/9
f 12/12/12 9/9/9 2/2/2
f 11/11/11 15/15/15 14/14/14
f 11/11/11 14/14/14 12/12/12
f 9/9/9 16/16/16 17/17/17
f 9/9/9 17/17/17 7/7/7
f 7/7/7 17/17/17 18/18/18
f 7/7/7 18/18/18 8/8/8
f 17/17/17 19/19/19 20/20/20
f 17/17/17 20/20/20 18/18/18
f 16/16/16 21/21/21 19/19/19
f 16/16/16 19/19/19 17/17/17
f 15/15/15 22/22/22 23/23/23
f 15/15/15 23/23/23 14/14/14
f 14/14/14 23/23/23 16/16/16
f 14/14/14 16/16/16 9/9/9
f 23/23/23 24/24/24 21/21/21
f 23/23/23 21/21/21 16/16/16
f 22/22/22 25/25/25 24/24/24
f 22/22/22 24/24/24 23/23/23
f 6/6/6 5/5/5 26/26/26
f 6/6/6 26/26/26 27/27/27
f 27/27/27 26/26/26 28/28/28
f 27/27/27 28/28/28 29/29/29
f 26/26/26 30/30/30 31/31/31
f 26/26/26 31/31/31 28/28/28
f 5/5/5 8/8/8 30/30/30
f 5/5/5 30/30/30 26/26/26
f 8/8/8 18/18/18 32/32/32
f 8/8/8 32/32/32 30/30/30
f 30/30/30 32/32/32 33/33/33
f 30/30/30 33/33/33 31/31/31
f 32/32/32 34/34/34 35/35/35
f 32/32/32 35/35/35 33/33/33
f 18/18/18 20/20/20 34/34/34
f 18/18/18 34/34/34 32/32/32
f 36/36/36 37/37/37 38/38/38
f 36/36/36 38/38/38 39/39/39
f 39/39/39 38/38/38 40/40/40
f 39/39/39 40/40/40 41/41/41
f 38/38/38 28/28/28 31/31/31
f 38/38/38 31/31/31 40/40/40
f 37/37/37 29/29/29 28/28/28
f 37/37/37 28/28/28 38/38/38
f 41/41/41 40/40/40 42/42/42
f 41/41/41 42/42/42 43/43/43
f 43/43/43 42/42/42 44/44/44
f 43/43/43 44/44/44 45/45/45
f 42/42/42 33/33/33 35/35/35
f 42/42/42 35/35/35 44/44/44
f 40/40/40 31/31/31 33/33/33
f 40/40/40 33/33/33 42/42/42
f 45/45/45 44/44/44 46/46/46
f 45/45/45 46/46/46 47/47/47
f 47/47/47 46/46/46 48/48/48
f 47/47/47 48/48/48 49/49/49
f 46/46/46 50/50/50 51/51/51
f 46/46/46 51/51/51 48/48/48
f 44/44/44 35/35/35 50/50/50
f 44/44/44 50/50/50 46/46/46
f 20/20/20 52/52/52 53/53/53
f 20/20/20 53/53/53 34/34/34
f 34/34/34 53/53/53 50/50/50
f 34/34/34 50/50/50 35/35/35
f 53/53/53 54/54/54 51/51/51
f 53/53/53 51/51/51 50/50/50
f 52/52/52 55/55/55 54/54/54
f 52/52/52 54/54/54 53/53/53
f 49/49/49 48/48/48 56/56/56
f 49/49/49 56/56/56 57/57/57
f 57/57/57 56/56/56 58/58/58
f 57/57/57 58/58/58 59/59/59
f 56/56/56 60/60/60 61/61/61
f 56/56/56 61/61/61 58/58/58
f 48/48/48 51/51/51 60/60/60
f 48/48/48 60/60/60 56/56/56
f 55/55/55 62/62/62 63/63/63
f 55/55/55 63/63/63 54/54/54
f 54/54/54 63/63/63 60/60/60
f 54/54/54 60/60/60 51/51/51
f 63/63/63 64/64/64 61/61/61
f 63/63/63 61/61/61 60/60/60
f 62/62/62 65/65/65 64/64/64
f 62/62/62 64/64/64 63/63/63
f 59/59/59 58/58/58 66/66/66
f 59/59/59 66/66/66 67/67/67
f 67/67/67 66/66/66 68/68/68
f 67/67/67 68/68/68 69/69/69
f 66/66/66 70/70/70 71/71/71
f 66/66/66 71/71/71 68/68/68
f 58/58/58 61/61/61 70/70/70
f 58/58/58 70/70/70 66/66/66
f 65/65/65 72/72/72 73/73/73
f 65/65/65 73/73/73 64/64/64
f 64/64/64 73/73/73 70/70/70
f 64/64/64 70/70/70 61/61/61
f 73/73/73 74/74/74 71/71/71
f 73/73/73 71/71/71 70/70/70
f 72/72/72 75/75/75 74/74/74
f 72/72/72 74/74/74 73/73/73
f 76/76/76 77/77/77 78/78/78
f 76/76/76 78/78/78 79/79/79
f 79/79/79 78/78/78 62/62/62
f 79/79/79 62/62/62 55/55/55
f 78/78/78 80/80/80 65/65/65
f 78/78/78 65/65/65 62/62/62
f 77/77/77 81/81/81 80/80/80
f 77/77/77 80/80/80 78/78/78
f 81/81/81 82/82/82 83/83/83
f 81/81/81 83/83/83 80/80/80
f 80/80/80 83/83/83 72/72/72
f 80/80/80 72/72/72 65/65/65
f 83/83/83 84/84/84 75/75/75
f 83/83/83 75/75/75 72/72/72
f 82/82/82 85/85/85 84/84/84
f 82/82/82 84/84/84 83/83/83
f 86/86/86 87/87/87 88/88/88
f 86/86/86 88/88/88 89/89/89
f 89/89/89 88/88/88 77/77/77
f 89/89/89 77/77/77 76/76/76
f 88/88/88 90/90/90 81/81/81
f 88/88/88 81/81/81 77/77/77
f 87/87/87 91/91/91 90/90/90
f 87/87/87 90/90/90 88/88/88
f 91/91/91 92/92/92 93/93/93
f 91/91/91 93/93/93 90/90/90
f 90/90/90 93/93/93 82/82/82
f 90/90/90 82/82/82 81/81/81
f 93/93/93 94/94/94 85/85/85
f 93/93/93 85/85/85 82/82/82
f 92/92/92 95/95/95 94/94/94
f 92/92/92 94/94/94 93/93/93
f 96/96/96 97/97/97 98/98/98
f 96/96/96 98/98/98 99/99/99
f 99/99/99 98/98/98 92/92/92
f 99/99/99 92/92/92 91/91/91
f 98/98/98 100/100/100 95/95/95
f 98/98/98 95/95/95 92/92/92
f 97/97/97 101/101/101 100/100/100
f 97/97/97 100/100/100 98/98/98
f 102/102/102 103/103/103 104/104/104
f 102/102/102 104/104/104 105/105/105
f 105/105/105 104/104/104 87/87/87
f 105/105/105 87/87/87 86/86/86
f 104/104/104 99/99/99 91/91/91
f 104/104/104 91/91/91 87/87/87
f 103/103/103 96/96/96 99/99/99
f 103/103/103 99/99/99 104/104/104
f 106/106/106 107/107/107 108/108/108
f 106/106/106 108/108/108 109/109/109
f 109/109/109 108/108/108 103/103/103
f 109/109/109 103/103/103 102/102/102
f 108/108/108 110/110/110 96/96/96
f 108/108/108 96/96/96 103/103/103
f 107/107/107 111/111/111 110/110/110
f 107/107/107 110/110/110 108/108/108
f 111/111/111 112/112/112 113/113/113
f 111/111/111 113/113/113 110/110/110
f 110/110/110 113/113/113 97/97/97
f 110/110/110 97/97/97 96/96/96
f 113/113/113 114/114/114 101/101/101
f 113/113/113 101/101/101 97/97/97
f 112/112/112 115/115/115 114/114/114
f 112/112/112 114/114/114 113/113/113
f 116/116/116 117/117/117 118/118/118
f 116/116/116 118/118/118 119/119/119
f 119/119/119 118/118/118 112/112/112
f 119/119/119 112/112/112 111/111/111
f 118/118/118 120/120/120 115/115/115
f 118/118/118 115/115/115 112/112/112
f 117/117/117 121/121/121 120/120/120
f 117/117/117 120/120/120 118/118/118
f 122/122/122 123/123/123 124/124/124
f 122/122/122 124/124/124 125/125/125
f 125/125/125 124/124/124 107/107/107
f 125/125/125 107/107/107 106/106/106
f 124/124/124 119/119/119 111/111/111
f 124/124/124 111/111/111 107/107/107
f 123/123/123 116/116/116 119/119/119
f 123/123/123 119/119/119 124/124/124
f 49/49/49 57/57/57 126/126/126
f 49/49/49 126/126/126 127/127/127
f 127/127/127 126/126/126 123/123/123
f 127/127/127 123/123/123 122/122/122
f 126/126/126 128/128/128 116/116/116
f 126/126/126 116/116/116 123/123/123
f 57/57/57 59/59/59 128/128/128
f 57/57/57 128/128/128 126/126/126
f 59/59/59 67/67/67 129/129/129
f 59/59/59 129/129/129 128/128/128
f 128/128/128 129/129/129 117/117/117
f 128/128/128 117/117/117 116/116/116
f 129/129/129 130/130/130 121/121/121
f 129/129/129 121/121/121 117/117/117
f 67/67/67 69/69/69 130/130/130
f 67/67/67 130/130/130 129/129/129
f 69/69/69 131/131/131 132/132/132
f 69/69/69 132/132/132 130/130/130
f 130/130/130 132/132/132 133/133/133
f 130/130/130 133/133/133 121/121/121
f 132/132/132 134/134/134 135/135/135
f 132/132/132 135/135/135 133/133/133
f 131/131/131 136/136/136 134/134/134
f 131/131/131 134/134/134 132/132/132
f 121/121/121 133/133/133 137/137/137
f 121/121/121 137/137/137 120/120/120
f 120/120/120 137/137/137 138/138/138
f 120/120/120 138/138/138 115/115/115
f 137/137/137 139/139/139 140/140/140
f 137/137/137 140/140/140 138/138/138
f 133/133/133 135/135/135 139/139/139
f 133/133/133 139/139/139 137/137/137
f 69/69/69 68/68/68 141/141/141
f 69/69/69 141/141/141 131/131/131
f 131/131/131 141/141/141 142/142/142
f 131/131/131 142/142/142 136/136/136
f 141/141/141 143/143/143 144/144/144
f 141/141/141 144/144/144 142/142/142
f 68/68/68 71/71/71 143/143/143
f 68/68/68 143/143/143 141/141/141
f 136/136/136 145/145/145 146/146/146
f 136/136/136 146/146/146 134/134/134
f 134/134/134 146/146/146 147/147/147
f 134/134/134 147/147/147 135/135/135
f 146/146/146 148/148/148 149/149/149
f 146/146/146 149/149/149 147/147/147
f 145/145/145 150/150/150 148/148/148
f 145/145/145 148/148/148 146/146/146
f 136/136/136 142/142/142 151/151/151
f 136/136/136 151/151/151 145/145/145
f 145/145/145 151/151/151 152/152/152
f 145/145/145 152/152/152 150/150/150
f 151/151/151 153/153/153 154/154/154
f 151/151/151 154/154/154 152/152/152
f 142/142/142 144/144/144 153/153/153
f 142/142/142 153/153/153 151/151/151
f 155/155/155 156/156/156 157/157/157
f 155/155/155 157/157/157 158/158/158
f 158/158/158 157/157/157 153/153/153
f 158/158/158 153/153/153 144/144/144
f 157/157/157 159/159/159 154/154/154
f 157/157/157 154/154/154 153/153/153
f 156/156/156 160/160/160 159/159/159
f 156/156/156 159/159/159 157/157/157
f 75/75/75 161/161/161 162/162/162
f 75/75/75 162/162/162 74/74/74
f 74/74/74 162/162/162 143/143/143
f 74/74/74 143/143/143 71/71/71
f 162/162/162 158/158/158 144/144/144
f 162/162/162 144/144/144 143/143/143
f 161/161/161 155/155/155 158/158/158
f 161/161/161 158/158/158 162/162/162
f 85/85/85 163/163/163 164/164/164
f 85/85/85 164/164/164 84/84/84
f 84/84/84 164/164/164 161/161/161
f 84/84/84 161/161/161 75/75/75
f 164/164/164 165/165/165 155/155/155
f 164/164/164 155/155/155 161/161/161
f 163/163/163 166/166/166 165/165/165
f 163/163/163 165/165/165 164/164/164
f 166/166/166 167/167/167 168/168/168
f 166/166/166 168/168/168 165/165/165
f 165/165/165 168/168/168 156/156/156
f 165/165/165 156/156/156 155/155/155
f 168/168/168 169/169/169 160/160/160
f 168/168/168 160/160/160 156/156/156
f 167/167/167 170/170/170 169/169/169
f 167/167/167 169/169/169 168/168/168
f 95/95/95 171/171/171 172/172/172
f 95/95/95 172/172/172 94/94/94
f 94/94/94 172/172/172 163/163/163
f 94/94/94 163/163/163 85/85/85
f 172/172/172 173/173/173 166/166/166
f 172/172/172 166/166/166 163/163/163
f 171/171/171 174/174/174 173/173/173
f 171/171/171 173/173/173 172/172/172
f 174/174/174 175/175/175 176/176/176
f 174/174/174 176/176/176 173/173/173
f 173/173/173 176/176/176 167/167/167
f 173/173/173 167/167/167 166/166/166
f 176/176/176 177/177/177 170/170/170
f 176/176/176 170/170/170 167/167/167
f 175/175/175 178/178/178 177/177/177
f 175/175/175 177/177/177 176/176/176
f 179/179/179 180/180/180 181/181/181
f 179/179/179 181/181/181 182/182/182
f 182/182/182 181/181/181 175/175/175
f 182/182/182 175/175/175 174/174/174
f 181/181/181 183/183/183 178/178/178
f 181/181/181 178/178/178 175/175/175
f 180/180/180 184/184/184 183/183/183
f 180/180/180 183/183/183 181/181/181
f 101/101/101 185/185/185 186/186/186
f 101/101/101 186/186/186 100/100/100
f 100/100/100 186/186/186 171/171/171
f 100/100/100 171/171/171 95/95/95
f 186/186/186 182/182/182 174/174/174
f 186/186/186 174/174/174 171/171/171
f 185/185/185 179/179/179 182/182/182
f 185/185/185 182/182/182 186/186/186
f 115/115/115 138/138/138 187/187/187
f 115/115/115 187/187/187 114/114/114
f 114/114/114 187/187/187 185/185/185
f 114/114/114 185/185/185 101/101/101
f 187/187/187 188/188/188 179/179/179
f 187/187/187 179/179/179 185/185/185
f 138/138/138 140/140/140 188/188/188
f 138/138/138 188/188/188 187/187/187
f 140/140/140 189/189/189 190/190/190
f 140/140/140 190/190/190 188/188/188
f 188/188/188 190/190/190 180/180/180
f 188/188/188 180/180/180 179/179/179
f 190/190/190 191/191/191 184/184/184
f 190/190/190 184/184/184 180/180/180
f 189/189/189 192/192/192 191/191/191
f 189/189/189 191/191/191 190/190/190
f 135/135/135 147/147/147 193/193/193
f 135/135/135 193/193/193 139/139/139
f 139/139/139 193/193/193 189/189/189
f 139/139/139 189/189/189 140/140/140
f 193/193/193 194/194/194 192/192/192
f 193/193/193 192/192/192 189/189/189
f 147/147/147 149/149/149 194/194/194
f 147/147/147 194/194/194 193/193/193
f 149/149/149 195/195/195 196/196/196
f 149/149/149 196/196/196 194/194/194
f 194/194/194 196/196/196 197/197/197
f 194/194/194 197/197/197 192/192/192
f 196/196/196 198/198/198 199/199/199
f 196/196/196 199/199/199 197/197/197
f 195/195/195 200/200/200 198/198/198
f 195/195/195 198/198/198 196/196/196
f 192/192/192 197/197/197 201/201/201
f 192/192/192 201/201/201 191/191/191
f 191/191/191 201/201/201 202/202/202
f 191/191/191 202/202/202 184/184/184
f 201/201/201 203/203/203 204/204/204
f 201/201/201 204/204/204 202/202/202
f 197/197/197 199/199/199 203/203/203
f 197/197/197 203/203/203 201/201/201
f 150/150/150 205/205/205 206/206/206
f 150/150/150 206/206/206 148/148/148
f 148/148/148 206/206/206 195/195/195
f 148/148/148 195/195/195 149/149/149
f 206/206/206 207/207/207 200/200/200
f 206/206/206 200/200/200 195/195/195
f 205/205/205 208/208/208 207/207/207
f 205/205/205 207/207/207 206/206/206
f 199/199/199 198/198/198 209/209/209
f 199/199/199 209/209/209 210/210/210
f 210/210/210 209/209/209 211/211/211
f 210/210/210 211/211/211 212/212/212
f 209/209/209 213/213/213 214/214/214
f 209/209/209 214/214/214 211/211/211
f 198/198/198 200/200/200 213/213/213
f 198/198/198 213/213/213 209/209/209
f 200/200/200 207/207/207 215/215/215
f 200/200/200 215/215/215 213/213/213
f 213/213/213 215/215/215 216/216/216
f 213/213/213 216/216/216 214/214/214
f 215/215/215 217/217/217 218/218/218
f 215/215/215 218/218/218 216/216/216
f 207/207/207 208/208/208 217/217/217
f 207/207/207 217/217/217 215/215/215
f 212/212/212 211/211/211 219/219/219
f 212/212/212 219/219/219 220/220/220
f 220/220/220 219/219/219 221/221/221
f 220/220/220 221/221/221 222/222/222
f 219/219/219 223/223/223 224/224/224
f 219/219/219 224/224/224 221/221/221
f 211/211/211 214/214/214 223/223/223
f 211/211/211 223/223/223 219/219/219
f 214/214/214 216/216/216 225/225/225
f 214/214/214 225/225/225 223/223/223
f 223/223/223 225/225/225 226/226/226
f 223/223/223 226/226/226 224/224/224
f 225/225/225 227/227/227 228/228/228
f 225/225/225 228/228/228 226/226/226
f 216/216/216 218/218/218 227/227/227
f 216/216/216 227/227/227 225/225/225
f 222/222/222 221/221/221 229/229/229
f 222/222/222 229/229/229 230/230/230
f 230/230/230 229/229/229 231/231/231
f 230/230/230 231/231/231 232/232/232
f 229/229/229 233/233/233 234/234/234
f 229/229/229 234/234/234 231/231/231
f 221/221/221 224/224/224 233/233/233
f 221/221/221 233/233/233 229/229/229
f 224/224/224 226/226/226 235/235/235
f 224/224/224 235/235/235 233/233/233
f 233/233/233 235/235/235 236/236/236
f 233/233/233 236/236/236 234/234/234
f 235/235/235 237/237/237 238/238/238
f 235/235/235 238/238/238 236/236/236
f 226/226/226 228/228/228 237/237/237
f 226/226/226 237/237/237 235/235/235
f 239/239/239 240/240/240 241/241/241
f 239/239/239 241/241/241 242/242/242
f 242/242/242 241/241/241 231/231/231
f 242/242/242 231/231/231 234/234/234
f 241/241/241 243/243/243 232/232/232
f 241/241/241 232/232/232 231/231/231
f 240/240/240 244/244/244 243/243/243
f 240/240/240 243/243/243 241/241/241
f 245/245/245 246/246/246 247/247/247
f 245/245/245 247/247/247 248/248/248
f 248/248/248 247/247/247 236/236/236
f 248/248/248 236/236/236 238/238/238
f 247/247/247 242/242/242 234/234/234
f 247/247/247 234/234/234 236/236/236
f 246/246/246 239/239/239 242/242/242
f 246/246/246 242/242/242 247/247/247
f 249/249/249 250/250/250 251/251/251
f 249/249/249 251/251/251 252/252/252
f 253/253/253 252/252/252 251/251/251
f 253/253/253 251/251/251 254/254/254
f 255/255/255 254/254/254 251/251/251
f 255/255/255 251/251/251 256/256/256
f 245/245/245 256/256/256 251/251/251
f 245/245/245 251/251/251 246/246/246
f 239/239/239 246/246/246 251/251/251
f 239/239/239 251/251/251 240/240/240
f 244/244/244 240/240/240 251/251/251
f 244/244/244 251/251/251 257/257/257
f 258/258/258 257/257/257 251/251/251
f 258/258/258 251/251/251 259/259/259
f 260/260/260 259/259/259 251/251/251
f 260/260/260 251/251/251 250/250/250
f 255/255/255 256/256/256 261/261/261
f 255/255/255 261/261/261 262/262/262
f 262/262/262 261/261/261 263/263/263
f 262/262/262 263/263/263 264/264/264
f 261/261/261 248/248/248 238/238/238
f 261/261/261 238/238/238 263/263/263
f 256/256/256 245/245/245 248/248/248
f 256/256/256 248/248/248 261/261/261
f 253/253/253 254/254/254 265/265/265
f 253/253/253 265/265/265 266/266/266
f 266/266/266 265/265/265 267/267/267
f 266/266/266 267/267/267 268/268/268
f 265/265/265 262/262/262 264/264/264
f 265/265/265 264/264/264 267/267/267
f 254/254/254 255/255/255 262/262/262
f 254/254/254 262/262/262 265/265/265
f 228/228/228 269/269/269 270/270/270
f 228/228/228 270/270/270 237/237/237
f 237/237/237 270/270/270 263/263/263
f 237/237/237 263/263/263 238/238/238
f 270/270/270 271/271/271 264/264/264
f 270/270/270 264/264/264 263/263/263
f 269/269/269 272/272/272 271/271/271
f 269/269/269 271/271/271 270/270/270
f 272/272/272 273/273/273 274/274/274
f 272/272/272 274/274/274 271/271/271
f 271/271/271 274/274/274 267/267/267
f 271/271/271 267/267/267 264/264/264
f 274/274/274 275/275/275 268/268/268
f 274/274/274 268/268/268 267/267/267
f 273/273/273 276/276/276 275/275/275
f 273/273/273 275/275/275 274/274/274
f 218/218/218 277/277/277 278/278/278
f 218/218/218 278/278/278 227/227/227
f 227/227/227 278/278/278 269/269/269
f 227/227/227 269/269/269 228/228/228
f 278/278/278 279/279/279 272/272/272
f 278/278/278 272/272/272 269/269/269
f 277/277/277 280/280/280 279/279/279
f 277/277/277 279/279/279 278/278/278
f 280/280/280 281/281/281 282/282/282
f 280/280/280 282/282/282 279/279/279
f 279/279/279 282/282/282 273/273/273
f 279/279/279 273/273/273 272/272/272
f 282/282/282 283/283/283 276/276/276
f 282/282/282 276/276/276 273/273/273
f 281/281/281 284/284/284 283/283/283
f 281/281/281 283/283/283 282/282/282
f 208/208/208 285/285/285 286/286/286
f 208/208/208 286/286/286 217/217/217
f 217/217/217 286/286/286 277/277/277
f 217/217/217 277/277/277 218/218/218
f 286/286/286 287/287/287 280/280/280
f 286/286/286 280/280/280 277/277/277
f 285/285/285 288/288/288 287/287/287
f 285/285/285 287/287/287 286/286/286
f 288/288/288 289/289/289 290/290/290
f 288/288/288 290/290/290 287/287/287
f 287/287/287 290/290/290 281/281/281
f 287/287/287 281/281/281 280/280/280
f 290/290/290 291/291/291 284/284/284
f 290/290/290 284/284/284 281/281/281
f 289/289/289 292/292/292 291/291/291
f 289/289/289 291/291/291 290/290/290
f 150/150/150 152/152/152 293/293/293
f 150/150/150 293/293/293 205/205/205
f 205/205/205 293/293/293 285/285/285
f 205/205/205 285/285/285 208/208/208
f 293/293/293 294/294/294 288/288/288
f 293/293/293 288/288/288 285/285/285
f 152/152/152 154/154/154 294/294/294
f 152/152/152 294/294/294 293/293/293
f 160/160/160 295/295/295 296/296/296
f 160/160/160 296/296/296 159/159/159
f 159/159/159 296/296/296 294/294/294
f 159/159/159 294/294/294 154/154/154
f 296/296/296 289/289/289 288/288/288
f 296/296/296 288/288/288 294/294/294
f 295/295/295 292/292/292 289/289/289
f 295/295/295 289/289/289 296/296/296
f 292/292/292 297/297/297 298/298/298
f 292/292/292 298/298/298 291/291/291
f 291/291/291 298/298/298 299/299/299
f 291/291/291 299/299/299 284/284/284
f 298/298/298 300/300/300 301/301/301
f 298/298/298 301/301/301 299/299/299
f 297/297/297 302/302/302 300/300/300
f 297/297/297 300/300/300 298/298/298
f 170/170/170 303/303/303 304/304/304
f 170/170/170 304/304/304 169/169/169
f 169/169/169 304/304/304 295/295/295
f 169/169/169 295/295/295 160/160/160
f 304/304/304 297/297/297 292/292/292
f 304/304/304 292/292/292 295/295/295
f 303/303/303 302/302/302 297/297/297
f 303/303/303 297/297/297 304/304/304
f 302/302/302 305/305/305 306/306/306
f 302/302/302 306/306/306 300/300/300
f 300/300/300 306/306/306 307/307/307
f 300/300/300 307/307/307 301/301/301
f 306/306/306 308/308/308 309/309/309
f 306/306/306 309/309/309 307/307/307
f 305/305/305 310/310/310 308/308/308
f 305/305/305 308/308/308 306/306/306
f 178/178/178 311/311/311 312/312/312
f 178/178/178 312/312/312 177/177/177
f 177/177/177 312/312/312 303/303/303
f 177/177/177 303/303/303 170/170/170
f 312/312/312 305/305/305 302/302/302
f 312/312/312 302/302/302 303/303/303
f 311/311/311 310/310/310 305/305/305
f 311/311/311 305/305/305 312/312/312
f 284/284/284 299/299/299 313/313/313
f 284/284/284 313/313/313 283/283/283
f 283/283/283 313/313/313 314/314/314
f 283/283/283 314/314/314 276/276/276
f 313/313/313 315/315/315 316/316/316
f 313/313/313 316/316/316 314/314/314
f 299/299/299 301/301/301 315/315/315
f 299/299/299 315/315/315 313/313/313
f 301/301/301 307/307/307 317/317/317
f 301/301/301 317/317/317 315/315/315
f 315/315/315 317/317/317 318/318/318
f 315/315/315 318/318/318 316/316/316
f 317/317/317 319/319/319 320/320/320
f 317/317/317 320/320/320 318/318/318
f 307/307/307 309/309/309 319/319/319
f 307/307/307 319/319/319 317/317/317
f 276/276/276 314/314/314 321/321/321
f 276/276/276 321/321/321 275/275/275
f 275/275/275 321/321/321 322/322/322
f 275/275/275 322/322/322 268/268/268
f 321/321/321 323/323/323 324/324/324
f 321/321/321 324/324/324 322/322/322
f 314/314/314 316/316/316 323/323/323
f 314/314/314 323/323/323 321/321/321
f 316/316/316 318/318/318 325/325/325
f 316/316/316 325/325/325 323/323/323
f 323/323/323 325/325/325 326/326/326
f 323/323/323 326/326/326 324/324/324
f 325/325/325 327/327/327 328/328/328
f 325/325/325 328/328/328 326/326/326
f 318/318/318 320/320/320 327/327/327
f 318/318/318 327/327/327 325/325/325
f 249/249/249 252/252/252 329/329/329
f 249/249/249 329/329/329 330/330/330
f 330/330/330 329/329/329 322/322/322
f 330/330/330 322/322/322 324/324/324
f 329/329/329 266/266/266 268/268/268
f 329/329/329 268/268/268 322/322/322
f 252/252/252 253/253/253 266/266/266
f 252/252/252 266/266/266 329/329/329
f 260/260/260 250/250/250 331/331/331
f 260/260/260 331/331/331 332/332/332
f 332/332/332 331/331/331 326/326/326
f 332/332/332 326/326/326 328/328/328
f 331/331/331 330/330/330 324/324/324
f 331/331/331 324/324/324 326/326/326
f 250/250/250 249/249/249 330/330/330
f 250/250/250 330/330/330 331/331/331
f 258/258/258 259/259/259 333/333/333
f 258/258/258 333/333/333 334/334/334
f 334/334/334 333/333/333 335/335/335
f 334/334/334 335/335/335 336/336/336
f 333/333/333 332/332/332 328/328/328
f 333/333/333 328/328/328 335/335/335
f 259/259/259 260/260/260 332/332/332
f 259/259/259 332/332/332 333/333/333
f 244/244/244 257/257/257 337/337/337
f 244/244/244 337/337/337 243/243/243
f 243/243/243 337/337/337 338/338/338
f 243/243/243 338/338/338 232/232/232
f 337/337/337 334/334/334 336/336/336
f 337/337/337 336/336/336 338/338/338
f 257/257/257 258/258/258 334/334/334
f 257/257/257 334/334/334 337/337/337
f 320/320/320 339/339/339 340/340/340
f 320/320/320 340/340/340 327/327/327
f 327/327/327 340/340/340 335/335/335
f 327/327/327 335/335/335 328/328/328
f 340/340/340 341/341/341 336/336/336
f 340/340/340 336/336/336 335/335/335
f 339/339/339 342/342/342 341/341/341
f 339/339/339 341/341/341 340/340/340
f 342/342/342 343/343/343 344/344/344
f 342/342/342 344/344/344 341/341/341
f 341/341/341 344/344/344 338/338/338
f 341/341/341 338/338/338 336/336/336
f 344/344/344 230/230/230 232/232/232
f 344/344/344 232/232/232 338/338/338
f 343/343/343 222/222/222 230/230/230
f 343/343/343 230/230/230 344/344/344
f 309/309/309 345/345/345 346/346/346
f 309/309/309 346/346/346 319/319/319
f 319/319/319 346/346/346 339/339/339
f 319/319/319 339/339/339 320/320/320
f 346/346/346 347/347/347 342/342/342
f 346/346/346 342/342/342 339/339/339
f 345/345/345 348/348/348 347/347/347
f 345/345/345 347/347/347 346/346/346
f 348/348/348 349/349/349 350/350/350
f 348/348/348 350/350/350 347/347/347
f 347/347/347 350/350/350 343/343/343
f 347/347/347 343/343/343 342/342/342
f 350/350/350 220/220/220 222/222/222
f 350/350/350 222/222/222 343/343/343
f 349/349/349 212/212/212 220/220/220
f 349/349/349 220/220/220 350/350/350
f 310/310/310 351/351/351 352/352/352
f 310/310/310 352/352/352 308/308/308
f 308/308/308 352/352/352 345/345/345
f 308/308/308 345/345/345 309/309/309
f 352/352/352 353/353/353 348/348/348
f 352/352/352 348/348/348 345/345/345
f 351/351/351 204/204/204 353/353/353
f 351/351/351 353/353/353 352/352/352
f 204/204/204 203/203/203 354/354/354
f 204/204/204 354/354/354 353/353/353
f 353/353/353 354/354/354 349/349/349
f 353/353/353 349/349/349 348/348/348
f 354/354/354 210/210/210 212/212/212
f 354/354/354 212/212/212 349/349/349
f 203/203/203 199/199/199 210/210/210
f 203/203/203 210/210/210 354/354/354
f 184/184/184 202/202/202 355/355/355
f 184/184/184 355/355/355 183/183/183
f 183/183/183 355/355/355 311/311/311
f 183/183/183 311/311/311 178/178/178
f 355/355/355 351/351/351 310/310/310
f 355/355/355 310/310/310 311/311/311
f 202/202/202 204/204/204 351/351/351
f 202/202/202 351/351/351 355/355/355
f 356/356/356 357/357/357 358/358/358
f 356/356/356 358/358/358 359/359/359
f 359/359/359 358/358/358 360/360/360
f 359/359/359 360/360/360 361/361/361
f 358/358/358 125/125/125 106/106/106
f 358/358/358 106/106/106 360/360/360
f 357/357/357 122/122/122 125/125/125
f 357/357/357 125/125/125 358/358/358
f 45/45/45 47/47/47 362/362/362
f 45/45/45 362/362/362 363/363/363
f 363/363/363 362/362/362 357/357/357
f 363/363/363 357/357/357 356/356/356
f 362/362/362 127/127/127 122/122/122
f 362/362/362 122/122/122 357/357/357
f 47/47/47 49/49/49 127/127/127
f 47/47/47 127/127/127 362/362/362
f 364/364/364 365/365/365 366/366/366
f 364/364/364 366/366/366 367/367/367
f 367/367/367 366/366/366 368/368/368
f 367/367/367 368/368/368 369/369/369
f 366/366/366 359/359/359 361/361/361
f 366/366/366 361/361/361 368/368/368
f 365/365/365 356/356/356 359/359/359
f 365/365/365 359/359/359 366/366/366
f 41/41/41 43/43/43 370/370/370
f 41/41/41 370/370/370 371/371/371
f 371/371/371 370/370/370 365/365/365
f 371/371/371 365/365/365 364/364/364
f 370/370/370 363/363/363 356/356/356
f 370/370/370 356/356/356 365/365/365
f 43/43/43 45/45/45 363/363/363
f 43/43/43 363/363/363 370/370/370
f 369/369/369 368/368/368 372/372/372
f 369/369/369 372/372/372 373/373/373
f 373/373/373 372/372/372 374/374/374
f 373/373/373 374/374/374 375/375/375
f 372/372/372 376/376/376 377/377/377
f 372/372/372 377/377/377 374/374/374
f 368/368/368 361/361/361 376/376/376
f 368/368/368 376/376/376 372/372/372
f 361/361/361 360/360/360 378/378/378
f 361/361/361 378/378/378 376/376/376
f 376/376/376 378/378/378 379/379/379
f 376/376/376 379/379/379 377/377/377
f 378/378/378 109/109/109 102/102/102
f 378/378/378 102/102/102 379/379/379
f 360/360/360 106/106/106 109/109/109
f 360/360/360 109/109/109 378/378/378
f 375/375/375 374/374/374 380/380/380
f 375/375/375 380/380/380 381/381/381
f 381/381/381 380/380/380 22/22/22
f 381/381/381 22/22/22 15/15/15
f 380/380/380 382/382/382 25/25/25
f 380/380/380 25/25/25 22/22/22
f 374/374/374 377/377/377 382/382/382
f 374/374/374 382/382/382 380/380/380
f 377/377/377 379/379/379 383/383/383
f 377/377/377 383/383/383 382/382/382
f 382/382/382 383/383/383 384/384/384
f 382/382/382 384/384/384 25/25/25
f 383/383/383 105/105/105 86/86/86
f 383/383/383 86/86/86 384/384/384
f 379/379/379 102/102/102 105/105/105
f 379/379/379 105/105/105 383/383/383
f 25/25/25 384/384/384 385/385/385
f 25/25/25 385/385/385 24/24/24
f 24/24/24 385/385/385 386/386/386
f 24/24/24 386/386/386 21/21/21
f 385/385/385 89/89/89 76/76/76
f 385/385/385 76/76/76 386/386/386
f 384/384/384 86/86/86 89/89/89
f 384/384/384 89/89/89 385/385/385
f 387/387/387 388/388/388 389/389/389
f 387/387/387 389/389/389 390/390/390
f 390/390/390 389/389/389 391/391/391
f 390/390/390 391/391/391 392/392/392
f 389/389/389 373/373/373 375/375/375
f 389/389/389 375/375/375 391/391/391
f 388/388/388 369/369/369 373/373/373
f 388/388/388 373/373/373 389/389/389
f 392/392/392 391/391/391 393/393/393
f 392/392/392 393/393/393 394/394/394
f 394/394/394 393/393/393 11/11/11
f 394/394/394 11/11/11 10/10/10
f 393/393/393 381/381/381 15/15/15
f 393/393/393 15/15/15 11/11/11
f 391/391/391 375/375/375 381/381/381
f 391/391/391 381/381/381 393/393/393
f 395/395/395 396/396/396 397/397/397
f 395/395/395 397/397/397 398/398/398
f 398/398/398 397/397/397 388/388/388
f 398/398/398 388/388/388 387/387/387
f 397/397/397 367/367/367 369/369/369
f 397/397/397 369/369/369 388/388/388
f 396/396/396 364/364/364 367/367/367
f 396/396/396 367/367/367 397/397/397
f 36/36/36 39/39/39 399/399/399
f 36/36/36 399/399/399 400/400/400
f 400/400/400 399/399/399 396/396/396
f 400/400/400 396/396/396 395/395/395
f 399/399/399 371/371/371 364/364/364
f 399/399/399 364/364/364 396/396/396
f 39/39/39 41/41/41 371/371/371
f 39/39/39 371/371/371 399/399/399
f 21/21/21 386/386/386 401/401/401
f 21/21/21 401/401/401 19/19/19
f 19/19/19 401/401/401 52/52/52
f 19/19/19 52/52/52 20/20/20
f 401/401/401 79/79/79 55/55/55
f 401/401/401 55/55/55 52/52/52
f 386/386/386 76/76/76 79/79/79
f 386/386/386 79/79/79 401/401/401
