v -0.2466 -1.34515 0.225154
v -0.245395 -1.34873 0.222295
v -0.247332 -1.34689 0.21928
v -0.248138 -1.34373 0.222755
v -0.250442 -1.34526 0.217284
v -0.250605 -1.34246 0.221164
v -0.247139 -1.35005 0.21625
v -0.250626 -1.34826 0.213887
v -0.244998 -1.3521 0.21978
v -0.279085 -1.39081 0.186772
v -0.275548 -1.38915 0.182823
v -0.280547 -1.40802 0.166775
v -0.284245 -1.40975 0.170736
v -0.286454 -1.4309 0.147421
v -0.290272 -1.43222 0.151745
v -0.275515 -1.4075 0.164077
v -0.281329 -1.43078 0.144486
v -0.270719 -1.38866 0.180075
v -0.265288 -1.38937 0.179051
v -0.269873 -1.40824 0.163064
v -0.275591 -1.43171 0.143386
v -0.26447 -1.41009 0.163834
v -0.270019 -1.43349 0.144218
v -0.260084 -1.39111 0.179867
v -0.291833 -1.43805 0.162065
v -0.298613 -1.46179 0.143321
v -0.295712 -1.46512 0.148272
v -0.289124 -1.44152 0.16652
v -0.290698 -1.46813 0.151573
v -0.284537 -1.44457 0.169511
v -0.300668 -1.48386 0.133845
v -0.29541 -1.48671 0.137292
v -0.303646 -1.4808 0.128628
v -0.263257 -1.40554 0.201478
v -0.26872 -1.40497 0.202427
v -0.273377 -1.42425 0.187648
v -0.267679 -1.42491 0.186563
v -0.278763 -1.44662 0.170446
v -0.272708 -1.44739 0.169225
v -0.278789 -1.4223 0.186808
v -0.273892 -1.40309 0.201686
v -0.277971 -1.40017 0.199316
v -0.283075 -1.41934 0.184129
v -0.285628 -1.41588 0.18012
v -0.280396 -1.39677 0.195687
v -0.254722 -1.40268 0.195185
v -0.258344 -1.40469 0.198932
v -0.262573 -1.42415 0.183677
v -0.258825 -1.42217 0.179529
v -0.267311 -1.44673 0.165992
v -0.263427 -1.44483 0.161375
v -0.25341 -1.39672 0.18627
v -0.253008 -1.39988 0.190745
v -0.257071 -1.4193 0.174778
v -0.257515 -1.41602 0.170145
v -0.261756 -1.44202 0.156134
v -0.262448 -1.43887 0.151062
v -0.280767 -1.39348 0.191288
v -0.286013 -1.41252 0.175417
v -0.292177 -1.43475 0.156879
v -0.260139 -1.41281 0.166325
v -0.25592 -1.39367 0.182439
v -0.265397 -1.43594 0.146911
v -0.281922 -1.48133 0.106578
v -0.284739 -1.49142 0.100086
v -0.289892 -1.4904 0.0989116
v -0.287418 -1.48011 0.105438
v -0.29483 -1.48889 0.100291
v -0.292761 -1.47864 0.106816
v -0.290491 -1.49311 0.0988558
v -0.294993 -1.49173 0.100134
v -0.285796 -1.49404 0.099965
v -0.277902 -1.47122 0.151255
v -0.272153 -1.47082 0.147685
v -0.268181 -1.46915 0.142554
v -0.276224 -1.48981 0.133237
v -0.272313 -1.48843 0.127833
v -0.282114 -1.48995 0.136962
v -0.266783 -1.46654 0.136668
v -0.267981 -1.46377 0.130915
v -0.271248 -1.48608 0.121554
v -0.272897 -1.48376 0.115328
v -0.296674 -1.45682 0.131661
v -0.298816 -1.45879 0.137493
v -0.30368 -1.47817 0.122406
v -0.30137 -1.4768 0.116088
v -0.271473 -1.46156 0.126151
v -0.276464 -1.45981 0.123025
v -0.276769 -1.48233 0.11008
v -0.287719 -1.45706 0.123288
v -0.292778 -1.45638 0.126686
v -0.297556 -1.47721 0.110601
v -0.282089 -1.45829 0.122033
v -0.284427 -1.47027 0.152601
v -0.288871 -1.48885 0.138364
v -0.30189 -1.48951 0.108719
v -0.300813 -1.4907 0.10923
v -0.302405 -1.4916 0.114078
v -0.303853 -1.49041 0.114304
v -0.302314 -1.49341 0.118723
v -0.303911 -1.49244 0.119682
v -0.300786 -1.49025 0.115456
v -0.300523 -1.49195 0.119476
v -0.299512 -1.48925 0.111279
v -0.297117 -1.49515 0.130057
v -0.290869 -1.49716 0.131081
v -0.28443 -1.49825 0.129743
v -0.291326 -1.49899 0.128005
v -0.28558 -1.49997 0.126811
v -0.296904 -1.49721 0.127091
v -0.304961 -1.48978 0.12176
v -0.302151 -1.49253 0.126764
v -0.301399 -1.49488 0.124151
v -0.278845 -1.49822 0.126185
v -0.275215 -1.49705 0.121004
v -0.2806 -1.49996 0.123635
v -0.277371 -1.49893 0.119008
v -0.274387 -1.49494 0.114944
v -0.27613 -1.49296 0.108861
v -0.276645 -1.49707 0.113583
v -0.278185 -1.49533 0.108085
v -0.302652 -1.48645 0.109576
v -0.30489 -1.48748 0.115753
v -0.279869 -1.492 0.103632
v -0.281464 -1.49453 0.103275
v -0.299173 -1.48722 0.104108
v -0.298852 -1.49021 0.103686
v -0.29516 -1.48076 0.119108
v -0.292359 -1.47981 0.117905
v -0.287205 -1.48075 0.124107
v -0.294883 -1.4812 0.12262
v -0.295764 -1.48329 0.124876
v -0.293272 -1.48387 0.127247
v -0.291741 -1.48625 0.128855
v -0.288367 -1.48601 0.129061
v -0.285456 -1.48778 0.128698
v -0.283076 -1.48634 0.126992
v -0.280636 -1.48696 0.124496
v -0.280562 -1.48467 0.12226
v -0.280203 -1.48439 0.118732
v -0.282316 -1.48224 0.117658
v -0.284329 -1.48192 0.114751
v -0.287212 -1.48038 0.115862
v -0.290485 -1.48041 0.114892
v -0.279692 -1.49589 0.108685
v -0.282463 -1.49502 0.104477
v -0.286265 -1.49439 0.101561
v -0.28255 -1.49287 0.107202
v -0.285942 -1.49196 0.104727
v -0.280205 -1.49398 0.110799
v -0.294636 -1.49228 0.101697
v -0.298143 -1.49112 0.104824
v -0.297063 -1.48928 0.107513
v -0.293736 -1.49001 0.104853
v -0.290512 -1.49346 0.100577
v -0.289857 -1.49098 0.103897
v -0.29619 -1.49755 0.125117
v -0.291373 -1.49909 0.125905
v -0.286411 -1.49994 0.124875
v -0.290904 -1.49701 0.125695
v -0.286577 -1.49773 0.124802
v -0.2951 -1.49566 0.125013
v -0.300081 -1.49554 0.12258
v -0.298497 -1.49387 0.122816
v -0.2821 -1.49993 0.122133
v -0.279254 -1.49904 0.11814
v -0.282801 -1.4977 0.122427
v -0.280226 -1.4969 0.118967
v -0.278498 -1.49745 0.113454
v -0.279364 -1.49548 0.11491
v -0.297633 -1.48441 0.115415
v -0.295252 -1.484 0.112341
v -0.292111 -1.4844 0.110018
v -0.280037 -1.4917 0.122128
v -0.282456 -1.49238 0.125211
v -0.285846 -1.49259 0.127295
v -0.284764 -1.48622 0.109872
v -0.281717 -1.48732 0.112031
v -0.279675 -1.48878 0.11497
v -0.293497 -1.49073 0.127486
v -0.296469 -1.48898 0.12556
v -0.298397 -1.48724 0.122588
v -0.298647 -1.48549 0.119103
v -0.28971 -1.49185 0.128087
v -0.279138 -1.49024 0.118611
v -0.288399 -1.4851 0.109341
v -0.247973 -1.37084 0.206539
v -0.250161 -1.38129 0.198567
v -0.25267 -1.37873 0.194451
v -0.250521 -1.36878 0.202091
v -0.256768 -1.3766 0.191564
v -0.254606 -1.3671 0.198864
v -0.273215 -1.37048 0.215734
v -0.273571 -1.36744 0.211631
v -0.276501 -1.37803 0.203573
v -0.276142 -1.38119 0.207782
v -0.27493 -1.37566 0.199015
v -0.272105 -1.3654 0.20696
v -0.247482 -1.37332 0.211176
v -0.249722 -1.38411 0.203089
v -0.251373 -1.38682 0.207334
v -0.249084 -1.37592 0.215313
v -0.252581 -1.37821 0.218435
v -0.254913 -1.38895 0.210723
v -0.259707 -1.39 0.212933
v -0.257309 -1.37948 0.220383
v -0.267305 -1.37722 0.220558
v -0.271029 -1.37405 0.218756
v -0.273848 -1.38465 0.211065
v -0.269966 -1.38767 0.213118
v -0.262486 -1.37914 0.221099
v -0.264997 -1.38955 0.21375
v -0.264602 -1.36485 0.199038
v -0.259561 -1.36575 0.197788
v -0.261818 -1.37506 0.19062
v -0.267027 -1.37427 0.191749
v -0.268969 -1.36462 0.202413
v -0.271606 -1.37442 0.194793
v -0.268979 -1.35951 0.212246
v -0.266229 -1.35848 0.208401
v -0.266754 -1.35869 0.207762
v -0.269659 -1.35952 0.211913
v -0.267218 -1.35887 0.207093
v -0.270204 -1.35947 0.211644
v -0.262702 -1.35876 0.204717
v -0.263039 -1.35921 0.203692
v -0.262369 -1.35831 0.205632
v -0.2579 -1.35896 0.20461
v -0.258043 -1.35953 0.203592
v -0.258191 -1.36011 0.202433
v -0.25349 -1.36082 0.204559
v -0.253407 -1.36137 0.203527
v -0.253571 -1.36028 0.205479
v -0.25677 -1.37088 0.225073
v -0.260456 -1.37069 0.225825
v -0.260691 -1.37168 0.225568
v -0.256431 -1.3719 0.224846
v -0.260918 -1.37263 0.225392
v -0.25609 -1.37289 0.224715
v -0.264641 -1.37008 0.225003
v -0.265389 -1.3708 0.224879
v -0.263877 -1.36931 0.225223
v -0.267227 -1.3668 0.223299
v -0.268137 -1.36726 0.223167
v -0.268976 -1.36768 0.223166
v -0.270474 -1.36406 0.220182
v -0.271173 -1.36419 0.220257
v -0.269639 -1.36389 0.220257
v -0.249261 -1.36843 0.21989
v -0.252671 -1.37003 0.22302
v -0.252065 -1.37085 0.222877
v -0.248596 -1.36896 0.219801
v -0.251504 -1.37159 0.222862
v -0.248029 -1.36938 0.219859
v -0.248046 -1.36419 0.211877
v -0.247688 -1.36639 0.216002
v -0.247012 -1.36674 0.215852
v -0.247452 -1.3645 0.211531
v -0.246451 -1.36695 0.215826
v -0.24695 -1.36469 0.211245
v -0.270213 -1.36136 0.216401
v -0.270977 -1.36136 0.216264
v -0.271579 -1.36131 0.216257
v -0.249766 -1.3625 0.20747
v -0.250129 -1.36209 0.208119
v -0.249442 -1.36286 0.206788
v -0.262051 -1.34432 0.23113
v -0.262397 -1.34296 0.22827
v -0.265384 -1.346 0.226223
v -0.264975 -1.34779 0.229821
v -0.267423 -1.34908 0.224314
v -0.266967 -1.3512 0.228404
v -0.264262 -1.34456 0.222602
v -0.266171 -1.34742 0.220138
v -0.26153 -1.34187 0.22539
v -0.246255 -1.34651 0.228014
v -0.244961 -1.35051 0.225893
v -0.244539 -1.35414 0.223928
v -0.246064 -1.35196 0.229516
v -0.245823 -1.35587 0.228048
v -0.247121 -1.3476 0.230893
v -0.249099 -1.34825 0.233348
v -0.248588 -1.35285 0.232605
v -0.248735 -1.35699 0.231507
v -0.252103 -1.35305 0.234712
v -0.252713 -1.35734 0.233842
v -0.251862 -1.34837 0.235021
v -0.258046 -1.34701 0.235119
v -0.260513 -1.34574 0.233529
v -0.263044 -1.34966 0.232838
v -0.259929 -1.35133 0.234838
v -0.264786 -1.35345 0.231779
v -0.261314 -1.35544 0.233988
v -0.255005 -1.34793 0.235632
v -0.256085 -1.35251 0.235482
v -0.257102 -1.3568 0.234695
v -0.256789 -1.3411 0.221262
v -0.253646 -1.34154 0.220651
v -0.254283 -1.34408 0.216641
v -0.258255 -1.34353 0.217411
v -0.254991 -1.34695 0.213123
v -0.259496 -1.3463 0.214036
v -0.259552 -1.34122 0.222935
v -0.261749 -1.3437 0.219515
v -0.263395 -1.34646 0.216525
v -0.245889 -1.35508 0.21785
v -0.247918 -1.35318 0.21398
v -0.251352 -1.35153 0.211324
v -0.249019 -1.35593 0.212283
v -0.252226 -1.35451 0.20942
v -0.247214 -1.3576 0.216348
v -0.267928 -1.35217 0.222648
v -0.267453 -1.35444 0.226827
v -0.267761 -1.35496 0.221198
v -0.267289 -1.3573 0.225264
v -0.266745 -1.35048 0.218229
v -0.266712 -1.3533 0.216731
v -0.245504 -1.35712 0.222239
v -0.246934 -1.35955 0.220786
v -0.246874 -1.35898 0.22645
v -0.248336 -1.36147 0.224884
v -0.249916 -1.36033 0.229852
v -0.25137 -1.363 0.228051
v -0.253888 -1.36091 0.232084
v -0.25514 -1.3638 0.230058
v -0.265255 -1.35696 0.230139
v -0.261891 -1.35916 0.232239
v -0.26518 -1.35997 0.228339
v -0.2621 -1.36229 0.230213
v -0.257996 -1.36052 0.232899
v -0.258742 -1.3636 0.230789
v -0.255795 -1.35025 0.210457
v -0.260354 -1.34954 0.211482
v -0.256537 -1.35332 0.208476
v -0.260933 -1.35257 0.20958
v -0.264134 -1.34959 0.214271
v -0.264405 -1.35252 0.212577
v -0.248028 -1.35965 0.215047
v -0.249725 -1.35802 0.210895
v -0.252821 -1.35665 0.207929
v -0.25007 -1.35966 0.209758
v -0.253189 -1.35817 0.206844
v -0.248342 -1.36143 0.213836
v -0.267922 -1.35717 0.219892
v -0.267456 -1.35958 0.223874
v -0.268495 -1.35896 0.218598
v -0.268008 -1.36142 0.222527
v -0.266919 -1.35548 0.215428
v -0.267452 -1.3572 0.214213
v -0.247806 -1.3616 0.219481
v -0.248118 -1.36347 0.218192
v -0.249234 -1.36359 0.223495
v -0.249586 -1.36549 0.222152
v -0.252276 -1.36522 0.226532
v -0.252703 -1.36713 0.225184
v -0.25596 -1.36614 0.228426
v -0.256438 -1.36804 0.227095
v -0.265389 -1.36235 0.22682
v -0.262438 -1.36473 0.228581
v -0.265876 -1.36423 0.225469
v -0.262879 -1.36664 0.227248
v -0.259329 -1.36602 0.229116
v -0.259789 -1.36793 0.227792
v -0.257062 -1.35549 0.206945
v -0.261382 -1.35474 0.208089
v -0.257419 -1.35697 0.205877
v -0.261749 -1.35626 0.207002
v -0.264729 -1.35469 0.211188
v -0.265172 -1.35631 0.210047
v -0.248351 -1.36308 0.212699
v -0.250223 -1.36109 0.208854
v -0.253458 -1.35939 0.20614
v -0.269326 -1.36048 0.217287
v -0.268778 -1.36295 0.22116
v -0.268194 -1.35866 0.213069
v -0.248074 -1.36521 0.216888
v -0.2496 -1.36721 0.220792
v -0.252867 -1.36877 0.223885
v -0.256746 -1.36961 0.225889
v -0.266479 -1.36577 0.224165
v -0.263321 -1.36817 0.226039
v -0.260161 -1.36946 0.226622
v -0.257695 -1.35811 0.205244
v -0.262062 -1.35747 0.206294
v -0.265687 -1.35764 0.209137
v -0.267725 -1.36009 0.205919
v -0.270764 -1.36065 0.210609
v -0.263468 -1.3605 0.202399
v -0.258519 -1.36145 0.201095
v -0.253622 -1.36271 0.20223
v -0.261312 -1.37427 0.224469
v -0.256223 -1.37455 0.223799
v -0.266027 -1.37235 0.223968
v -0.269669 -1.36911 0.22228
v -0.271813 -1.36551 0.219376
v -0.251535 -1.37318 0.221968
v -0.248057 -1.37084 0.218967
v -0.246478 -1.3683 0.214884
v -0.246993 -1.36599 0.2102
v -0.272175 -1.36253 0.215326
v -0.249553 -1.36417 0.205607
vt 0.0843 0.08419
vt 0.2674 0.01042
vt 0.9167 0.9167
vt 1 0.5
vt 0.08333 0.08333
vt 0.2612 0.01105
vt 0.2622 0.01042
vt 0.9896 0.7326
vt 1 0.4896
vt 0.7396 0.9896
vt 0.7413 0.01042
vt 0.9167 0.9167
vt 0.75 0.01042
vt 0.4167 -2.384e-07
vt 0.2619 0.01169
vt 0.7413 0.01042
vt 0.2612 0.01105
vt 0.7396 0.9896
vt 0.7396 0.01042
vt 0.9896 0.7396
vt 0.5 -1.192e-07
vt 0.7326 0.01061
vt 0.5003 0.0008831
vt 0.7396 0.9896
vt 0.2619 0.01169
vt 0.08333 0.9167
vt 0.9896 0.7396
vt 0.4896 -1.192e-07
vt 0.2604 0.9896
vt 0.2612 0.01105
vt 0.5 1
vt 0.08333 0.9167
vt 0.01042 0.7396
vt 0.9167 0.9167
vt 0.9167 0.08333
vt 0.9896 0.7396
vt 0.9166 0.08337
vt 0.7378 0.01044
vt 0.08526 0.08505
vt 0.5833 -3.576e-07
vt 0.9167 0.9167
vt 0.9167 0.08333
vt 0.9896 0.7396
vt 0.9167 0.08333
vt 0.7396 0.9896
vt 0.5 1
vt 0.5069 0
vt 1 0.5
vt 0.9167 0.08333
vt 0.7326 0.01061
vt 0.0843 0.08419
vt 0.5 1
vt 0.5 0
vt 1 0.5
vt 0.7378 0.01044
vt 0.7396 0.01042
vt 0.5002 0.0004414
vt 0.7396 0.01042
vt 0.9896 0.7396
vt 0.4896 -1.192e-07
vt 0.9896 0.7396
vt 0.7413 0.01042
vt 0.7378 0.01044
vt 0.01042 0.7396
vt 0.2674 0.01042
vt 1 0.5
vt 0.5 1
vt 0.2622 0.01042
vt 0.08333 0.9167
vt 0.08333 0.08333
vt 0.01042 0.7396
vt 0 0.5
vt 0.2604 0.9896
vt 1 0.5
vt 0.08333 0.9167
vt 0.2604 0.9896
vt 0.08333 0.9167
vt 0.01042 0.7396
vt 0.9167 0.9167
vt 0.2604 0.9896
vt 0.2604 0.9896
vt 0.08333 0.9167
vt 0.08333 0.9167
vt 0.9167 0.9167
vt 0.5 1
vt 0.01042 0.7396
vt 0.9896 0.7396
vt 0.08333 0.9167
vt 0.2604 0.9896
vt 0.2604 0.9896
vt 0.9896 0.7396
vt 0.5 1
vt 0.5 1
vt 0.5 1
vt 0.2604 0.9896
vt 0 0.5
vt 0.01042 0.2604
vt 0.7396 0.9896
vt 0.2604 0.01042
vt 0.01042 0.2604
vt 0 0.5
vt 0.01042 0.2604
vt 0.08333 0.08333
vt 0.08333 0.08333
vt 0.08333 0.08333
vt 0.7396 0.9896
vt 0.08333 0.08333
vt 0.2622 0.01042
vt 0 0.5
vt 0.01042 0.7396
vt 0.5104 -1.192e-07
vt 0.7396 0.9896
vt 0.2604 0.01042
vt 0.7396 0.9896
vt 0.5833 -2.384e-07
vt 0.5104 -1.192e-07
vt 0.01042 0.7396
vt 0.9167 0.9167
vt 0.2674 0.01042
vt 0.08333 0.08333
vt 0.01042 0.7396
vt 0.2622 0.01042
vt 0.9167 0.9167
vt 0.7396 0.9896
vt 0.2622 0.01042
vt 0.7396 0.9896
vt 0.5 -1.192e-07
vt 0.01042 0.2604
vt 1 0.4167
vt 0.9167 0.9167
vt 0.9896 0.25
vt 0.01042 0.2604
vt 0.9896 0.25
vt 0 0.5
vt 0.9896 0.2587
vt 0.01042 0.2604
vt 1 0.4931
vt 0 0.5
vt 0.9167 0.08333
vt 0 0.5
vt 0.9896 0.2587
vt 0.01042 0.2604
vt 0.9167 0.08333
vt 0 0.5
vt 0 0.5
vt 0.9167 0.9167
vt 0 0.5
vt 0.01042 0.2604
vt 0.08333 0.08333
vt 0.01042 0.2604
vt 0.08333 0.08333
vt 0.5 1
vt 0.08333 0.08333
vt 0.01042 0.2604
vt 0.5 1
vt 0 0.5
vt 0.01042 0.2604
vt 0.7396 0.9896
vt 0.08333 0.08333
vt 0.01042 0.2604
vt 0.08333 0.08333
vt 0.01042 0.2604
vt 0.7396 0.9896
vt 0.01042 0.2604
vt 1 0.5
vt 0.01042 0.2604
vt 0.08333 0.08333
vt 0.01042 0.2604
vt 1 0.5
vt 0 0.5
vt 0.9896 0.2587
vt 0.9896 0.2604
vt 0.9896 0.2604
vt 0.9167 0.08333
vt 0.9896 0.2604
vt 0.9167 0.08333
vt 1 0.4931
vt 0.9896 0.2604
vt 1 0.5
vt 0.9896 0.2604
vt 0.9896 0.2604
vt 0.9896 0.2587
vt 0.9167 0.08333
vt 0.9167 0.08333
vt 0.9896 0.2604
vt 0.9896 0.2604
vt 0.9164 0.0836
vt 0.9167 0.08333
vt 0.9167 0.08333
vt 0.2608 0.989
vt 0.75 0.01042
vt 0.9896 0.2622
vt 0.9894 0.2675
vt 0.2633 0.985
vt 0.9167 0.08333
vt 0.7413 0.01042
vt 0.2608 0.989
vt 0.9896 0.2622
vt 0.088 0.912
vt 1 0.5
vt 0.2604 0.9896
vt 0.9166 0.08337
vt 0.08392 0.9161
vt 1 0.5
vt 0.5069 0
vt 0.9166 0.08337
vt 0.9167 0.08333
vt 0.5 0.9995
vt 0.9896 0.2604
vt 0.5 1
vt 0.5 0.9958
vt 0.9896 0.2604
vt 0.9896 0.2604
vt 0.2633 0.985
vt 0.9167 0.08333
vt 0.5 0.9995
vt 0.2608 0.989
vt 0.9167 0.08333
vt 0.5 1
vt 0.9896 0.7378
vt 0.7396 0.01042
vt 0.9896 0.7378
vt 0.2604 0.9896
vt 0.7396 0.9896
vt 1 0.4931
vt 0.9167 0.9167
vt 0.5 1
vt 0.9896 0.7396
vt 0.7396 0.01042
vt 0.2604 0.9896
vt 0.5 1
vt 0.7396 0.9896
vt 0.5 1
vt 0.7396 0.9896
vt 0.9167 0.9167
vt 0.7396 0.01042
vt 0.5 1
vt 0.5 1
vt 0.7396 0.9896
vt 1 0.4167
vt 0.9167 0.9167
vt 0.7396 0.9896
vt 0.9167 0.9167
vt 0.7396 0.01042
vt 0.5 1
vt 0.2604 0.9896
vt 0.5 1
vt 0.5 1
vt 0.7396 0.9896
vt 1 0.4931
vt 0.5 -1.192e-07
vt 0.9896 0.7326
vt 0.08333 0.9167
vt 0.7396 0.9896
vt 0.7396 0.9896
vt 1 0.5
vt 0.5 0
vt 0.2604 0.9896
vt 0.08333 0.9167
vt 0.5 1
vt 0.9896 0.7396
vt 0.7396 0.01042
vt 0.2604 0.9896
vt 0.7396 0.01042
vt 0.9896 0.7378
vt 0.2604 0.9896
vt 0.2604 0.01042
vt 0.9894 0.2675
vt 0.5 0
vt 0.2622 0.01042
vt 0.2604 0.01042
vt 0.9896 0.7378
vt 0.7396 0.01042
vt 0.9896 0.7396
vt 0.5 -1.192e-07
vt 1 0.5104
vt 0.5 -1.192e-07
vt 0.08333 0.08333
vt 0.9166 0.08337
vt 1 0.5
vt 0.2604 0.01042
vt 1 0.5104
vt 0.9167 0.08333
vt 0.08333 0.08333
vt 0.08333 0.08333
vt 1 0.4167
vt 0.2612 0.01105
vt 0.5002 0.0004414
vt 0.9896 0.2604
vt 0.9167 0.08333
vt 0.7378 0.01044
vt 0.5069 0
vt 1 0.4896
vt 1 0.5833
vt 0.7396 0.01042
vt 0.5 0
vt 0.08333 0.08333
vt 0.9896 0.2622
vt 0.7396 0.01042
vt 0.9164 0.0836
vt 0.2604 0.01042
vt 0.9896 0.7378
vt 0.9896 0.2622
vt 0.08333 0.9167
vt 0.2622 0.01042
vt 0 0.5
vt 0.08333 0.9167
vt 0.01042 0.7396
vt 0.01042 0.7396
vt 0.9167 0.9167
vt 0.9896 0.7378
vt 0.2604 0.9896
vt 0 0.5
vt 0.01042 0.7396
vt 0.9167 0.9167
vt 0.5069 0
vt 0.9167 0.9167
vt 0.2604 0.9896
vt 0.08333 0.9167
vt 0.5833 0
vt 0.9896 0.7396
vt 0.2604 0.9896
vt 0.08333 0.9167
vt 0.01042 0.7396
vt 0.9896 0.7326
vt 0.2604 0.9896
vt 0.2674 0.01042
vt 0 0.5
vt 0.9896 0.7378
vt 0.5 1
vt 0 0.5
vt 0.5 1
vt 0.2622 0.01042
vt 0.01042 0.7396
vt 0.9167 0.9167
vt 0.2604 0.9896
vt 0.01042 0.7396
vt 0.08333 0.08333
vt 0.2604 0.9896
vt 0.01042 0.2604
vt 0.01042 0.2604
vt 0.7396 0.9896
vt 0.9167 0.9167
vt 0.5 1
vt 0.08333 0.08333
vt 0.01042 0.2604
vt 0.7396 0.9896
vt 0.01042 0.7396
vt 0.7396 0.9896
vt 0.5 1
vt 0 0.5
vt 0.01042 0.7396
vt 0.9167 0.9167
vt 0.08333 0.9167
vt 0 0.5
vt 0.01042 0.2604
vt 0.9167 0.9167
vt 0.08333 0.9167
vt 0.08333 0.9167
vt 0.08333 0.08333
vt 0.9167 0.9167
vt 0.2604 0.9896
vt 0.08333 0.08333
vt 0.2604 0.9896
vt 0.08333 0.9167
vt 0.01042 0.2604
vt 0.7396 0.9896
vt 0.5 0
vt 0.01042 0.2604
vt 0.9167 0.9167
vt 0.5 -1.192e-07
vt 0.9896 0.7378
vt 0.2604 0.01042
vt 0.9167 0.9167
vt 0.01042 0.2604
vt 0.2604 0.01042
vt 0.01042 0.2604
vt 0.2604 0.01042
vt 0.9896 0.7326
vt 0.2604 0.01042
vt 0 0.5
vt 0.08333 0.08333
vt 0.08333 0.08333
vt 0 0.5
vt 0.2604 0.01042
vt 0.2604 0.01042
vt 0.08333 0.9167
vt 0.2604 0.9896
vt 0.08333 0.08333
vt 0.2608 0.989
vt 0.08333 0.08333
vt 0.2604 0.9896
vt 0.2604 0.9896
vt 0.5 -1.192e-07
vt 0.08392 0.9161
vt 0.5 0
vt 0.08333 0.9167
vt 0.2604 0.01042
vt 0.08333 0.9167
vt 0.2604 0.01042
vt 0 0.5
vn 0.9146 0.3909 -0.1031
vn 0.9342 0.3225 -0.1522
vn 0.7589 0.5165 -0.3966
vn 0.7453 0.5703 -0.3453
vn 0.4868 0.6782 -0.5504
vn 0.4839 0.7194 -0.4982
vn 0.7893 0.3371 -0.5132
vn 0.496 0.5473 -0.674
vn 0.9599 0.09589 -0.2634
vn -0.8412 0.4617 -0.2811
vn -0.5873 0.6039 -0.5388
vn -0.5718 0.6124 -0.5459
vn -0.8339 0.4699 -0.2893
vn -0.554 0.6103 -0.5662
vn -0.8213 0.4772 -0.3127
vn -0.2335 0.6618 -0.7123
vn -0.2203 0.6524 -0.7251
vn -0.2486 0.656 -0.7126
vn 0.1268 0.6149 -0.7783
vn 0.1292 0.621 -0.773
vn 0.1282 0.6107 -0.7814
vn 0.4765 0.4987 -0.724
vn 0.4598 0.4957 -0.7368
vn 0.4871 0.4873 -0.7248
vn -0.9509 0.01956 0.3088
vn -0.9557 0.03168 0.2925
vn -0.7854 -0.231 0.5742
vn -0.7867 -0.232 0.572
vn -0.4905 -0.4457 0.7489
vn -0.4962 -0.4446 0.7458
vn -0.7871 -0.2687 0.5552
vn -0.4874 -0.479 0.73
vn -0.9668 0.0002747 0.2554
vn 0.2655 -0.6185 0.7396
vn -0.1178 -0.5782 0.8073
vn -0.1204 -0.5865 0.801
vn 0.2713 -0.6254 0.7316
vn -0.1203 -0.583 0.8035
vn 0.2742 -0.6207 0.7345
vn -0.4946 -0.4501 0.7434
vn -0.4851 -0.4466 0.7518
vn -0.7754 -0.2444 0.5822
vn -0.7838 -0.2423 0.5718
vn -0.9481 0.003418 0.3179
vn -0.9449 -0.001373 0.3273
vn 0.8535 -0.4206 0.3076
vn 0.6044 -0.5631 0.5635
vn 0.6121 -0.5646 0.5536
vn 0.8583 -0.4172 0.2986
vn 0.619 -0.556 0.5546
vn 0.8681 -0.4028 0.2899
vn 0.9526 0.04331 -0.3011
vn 0.9781 -0.2078 0.004364
vn 0.9796 -0.2007 -0.003479
vn 0.9491 0.0553 -0.3101
vn 0.9828 -0.1828 -0.02435
vn 0.9391 0.07074 -0.3361
vn -0.9685 0.2478 0.02368
vn -0.9671 0.2539 0.01599
vn -0.963 0.2696 -0.004059
vn 0.7671 0.3034 -0.5652
vn 0.7784 0.2881 -0.5578
vn 0.7466 0.3117 -0.5877
vn 0.4363 0.4337 -0.7884
vn 0.4329 0.128 -0.8923
vn 0.04279 0.2587 -0.965
vn 0.1159 0.5446 -0.8306
vn -0.3732 0.3124 -0.8735
vn -0.2307 0.5871 -0.7759
vn -0.156 -0.5653 -0.81
vn -0.5195 -0.4662 -0.716
vn 0.2114 -0.6439 -0.7353
vn 0.2676 -0.6188 0.7385
vn 0.6182 -0.5539 0.5576
vn 0.8779 -0.393 0.2736
vn 0.602 -0.5885 0.5396
vn 0.8734 -0.4257 0.2365
vn 0.2478 -0.6473 0.7208
vn 0.9843 -0.1653 -0.06153
vn 0.9232 0.08301 -0.3753
vn 0.9742 -0.1944 -0.1141
vn 0.9061 0.0452 -0.4207
vn -0.8065 0.4783 -0.3474
vn -0.958 0.2839 -0.03952
vn -0.9634 0.2524 -0.09012
vn -0.8128 0.4346 -0.3878
vn 0.7218 0.3121 -0.6177
vn 0.4424 0.4831 -0.7555
vn 0.7101 0.2642 -0.6526
vn -0.2114 0.6341 -0.7438
vn -0.5387 0.5988 -0.5926
vn -0.557 0.5492 -0.623
vn 0.1257 0.5915 -0.7964
vn -0.1208 -0.5815 0.8045
vn -0.1287 -0.6083 0.7832
vn -0.8181 -0.3966 -0.4163
vn -0.09891 -0.9927 -0.06888
vn -0.02878 -0.9604 -0.2771
vn -0.8412 -0.4561 -0.2905
vn -0.03687 -0.9107 -0.4114
vn -0.8088 -0.5832 -0.0755
vn 0.8221 -0.5635 -0.08057
vn 0.8123 -0.3858 -0.4375
vn 0.6821 -0.6899 0.2422
vn -0.4952 -0.6226 0.6059
vn -0.1631 -0.7358 0.6572
vn 0.1829 -0.7797 0.5987
vn -0.2168 -0.9227 0.3186
vn 0.02893 -0.9618 0.2721
vn -0.4551 -0.8461 0.2773
vn -0.969 -0.2043 0.1386
vn -0.7841 -0.4421 0.4356
vn -0.665 -0.7326 0.1449
vn 0.5162 -0.7451 0.4223
vn 0.78 -0.6141 0.1202
vn 0.2629 -0.9554 0.1347
vn 0.4509 -0.8879 -0.0911
vn 0.8835 -0.417 -0.2133
vn 0.8458 -0.2188 -0.4865
vn 0.5289 -0.7888 -0.3131
vn 0.528 -0.7199 -0.4505
vn -0.8773 0.1758 -0.4466
vn -0.9822 0.01846 -0.1867
vn 0.7004 -0.03793 -0.7127
vn 0.446 -0.6818 -0.5799
vn -0.6859 0.2767 -0.673
vn -0.7396 -0.399 -0.5419
vn 0.5417 -0.8398 0.03513
vn 0.1926 -0.9753 0.1082
vn -0.2205 -0.8756 -0.4297
vn 0.4744 -0.8236 -0.3107
vn 0.6482 -0.5355 -0.5413
vn 0.3652 -0.5288 -0.7661
vn 0.2608 -0.1959 -0.9453
vn -0.09574 -0.3024 -0.9483
vn -0.3604 -0.05197 -0.9313
vn -0.5945 -0.3029 -0.7448
vn -0.8358 -0.1873 -0.516
vn -0.803 -0.5206 -0.2902
vn -0.859 -0.5087 0.05786
vn -0.6094 -0.7839 0.1191
vn -0.4566 -0.7851 0.4183
vn -0.2236 -0.9399 0.2578
vn 0.06436 -0.9102 0.4091
vn -0.3622 -0.9298 -0.06519
vn -0.2591 -0.9623 0.08222
vn -0.2183 -0.9666 0.1342
vn -0.7007 -0.5027 0.5062
vn -0.4423 -0.6337 0.6346
vn -0.9048 -0.3301 0.269
vn -0.2558 -0.9572 0.1356
vn -0.2082 -0.9745 0.08338
vn 0.4273 -0.7633 0.4846
vn 0.1241 -0.7705 0.6253
vn -0.2386 -0.9597 0.148
vn -0.1692 -0.721 0.6719
vn -0.1095 -0.8191 -0.563
vn -0.2059 -0.7824 -0.5878
vn -0.305 -0.7748 -0.5537
vn 0.01431 0.1592 -0.9871
vn -0.3528 0.1937 -0.9154
vn 0.3655 0.03165 -0.9302
vn -0.05048 -0.8663 -0.4969
vn 0.6486 -0.164 -0.7432
vn -0.371 -0.7931 -0.4829
vn -0.3956 -0.828 -0.3974
vn -0.6807 0.1379 -0.7194
vn -0.9116 0.006653 -0.411
vn -0.4171 -0.8688 -0.2667
vn -0.9868 -0.1527 -0.05432
vn 0.7354 -0.636 0.2338
vn 0.4848 -0.7313 0.4798
vn 0.1608 -0.7529 0.6381
vn -0.9041 0.1543 -0.3985
vn -0.6568 0.2951 -0.6939
vn -0.3247 0.3457 -0.8803
vn -0.4642 -0.6036 0.6482
vn -0.7413 -0.446 0.5015
vn -0.9322 -0.2521 0.2598
vn 0.4122 0.1795 -0.8932
vn 0.6997 -0.01303 -0.7143
vn 0.8705 -0.2506 -0.4235
vn 0.8812 -0.4635 -0.09256
vn 0.05228 0.3087 -0.9497
vn -0.9972 -0.03287 -0.06668
vn -0.1608 -0.7065 0.6892
vn 0.9532 0.03101 -0.3005
vn 0.9529 0.03363 -0.3012
vn 0.7844 0.2685 -0.5592
vn 0.7888 0.258 -0.5578
vn 0.4938 0.4664 -0.7339
vn 0.4997 0.4542 -0.7375
vn -0.9392 0.008271 0.3433
vn -0.9674 0.2516 0.02661
vn -0.9684 0.248 0.02524
vn -0.9417 0.002564 0.3363
vn -0.8455 0.4537 -0.2814
vn -0.8467 0.4518 -0.2809
vn 0.9788 -0.2046 0.007447
vn 0.9781 -0.208 0.006012
vn 0.8527 -0.4158 0.3163
vn 0.8531 -0.4096 0.3231
vn 0.5988 -0.5446 0.5872
vn 0.6004 -0.5535 0.5772
vn 0.2625 -0.6041 0.7524
vn 0.2619 -0.5929 0.7615
vn -0.4684 -0.4259 0.774
vn -0.7607 -0.2308 0.6066
vn -0.7667 -0.2379 0.5963
vn -0.4748 -0.4354 0.7648
vn -0.1104 -0.5517 0.8267
vn -0.1136 -0.563 0.8186
vn -0.2756 0.6322 -0.7241
vn 0.1193 0.5885 -0.7996
vn 0.122 0.5978 -0.7923
vn -0.2646 0.6404 -0.721
vn -0.6093 0.5821 -0.5383
vn -0.601 0.5893 -0.5399
vn -0.4517 0.889 0.07431
vn -0.3948 0.8821 -0.2567
vn -0.1954 0.9748 -0.1074
vn -0.1301 0.9673 0.2179
vn -0.4017 0.858 -0.32
vn -0.5231 0.8523 -0.001587
vn -0.07648 0.9271 -0.367
vn -0.1606 0.8345 -0.527
vn -0.1871 0.8255 -0.5324
vn 0.1567 0.7493 -0.6434
vn 0.187 0.868 -0.46
vn 0.1655 0.7808 -0.6025
vn 0.4557 0.8067 -0.3761
vn 0.4883 0.687 -0.5381
vn 0.5069 0.6661 -0.5471
vn 0.3082 -0.3144 0.8978
vn -0.05783 -0.3475 0.9359
vn -0.01498 -0.1483 0.9888
vn 0.2791 -0.05301 0.9588
vn -0.05261 -0.3074 0.9501
vn 0.284 -0.2647 0.9215
vn -0.2456 0.06238 0.9673
vn -0.3421 -0.123 0.9316
vn -0.3835 -0.1635 0.9089
vn -0.5351 0.1522 0.8309
vn -0.2675 0.4096 0.8722
vn -0.5077 0.1697 0.8446
vn -0.1551 0.7079 0.689
vn -0.5866 0.4797 0.6525
vn -0.5509 0.5163 0.6557
vn 0.7341 0.2169 0.6435
vn 0.568 -0.09732 0.8172
vn 0.4408 0.2468 0.863
vn 0.4657 0.5618 0.6837
vn 0.5524 -0.07547 0.8302
vn 0.7517 0.167 0.638
vn 0.8002 0.5968 0.05802
vn 0.7917 0.4855 0.3708
vn 0.4612 0.7536 0.4684
vn 0.5453 0.8116 0.2094
vn 0.853 0.3985 0.337
vn 0.845 0.5344 -0.0177
vn -0.4864 0.7855 0.3825
vn -0.07181 0.8781 0.4729
vn -0.5816 0.7338 0.3511
vn 0.5959 0.7941 -0.1197
vn 0.7337 0.6206 -0.2767
vn 0.727 0.5987 -0.3363
vn -0.7425 0.4318 0.5121
vn -0.764 0.6109 0.2073
vn -0.8181 0.55 0.1675
vn -0.7957 0.3645 0.4837
vn -0.9402 0.3343 0.0647
vn -0.9065 0.1412 0.398
vn -0.7014 0.7001 -0.1339
vn -0.8245 0.5109 -0.2432
vn -0.6529 0.7523 -0.08713
vn 0.959 0.2081 0.1926
vn 0.9801 0.1292 0.1505
vn 0.9917 -0.12 0.04535
vn 0.8841 -0.0315 0.4662
vn 0.8826 -0.2813 0.3767
vn 0.8664 0.05292 0.4964
vn 0.6525 -0.04901 0.7562
vn 0.6613 -0.1336 0.7381
vn 0.6478 -0.3681 0.6669
vn 0.3495 -0.159 0.9233
vn 0.3271 -0.3717 0.8688
vn 0.3516 -0.07901 0.9328
vn -0.3208 0.07901 0.9438
vn -0.5868 0.243 0.7724
vn -0.6324 0.1718 0.7553
vn -0.355 0.007202 0.9348
vn -0.7237 -0.04447 0.6887
vn -0.4257 -0.1944 0.8837
vn 0.009705 -0.03458 0.9993
vn -0.007996 -0.1086 0.994
vn -0.05139 -0.306 0.9506
vn -0.1469 0.8606 -0.4876
vn 0.1725 0.8192 -0.547
vn 0.1638 0.784 -0.5987
vn -0.1687 0.8253 -0.5389
vn 0.138 0.6763 -0.7236
vn -0.2354 0.7127 -0.6607
vn -0.4352 0.838 -0.3292
vn -0.4719 0.7961 -0.3788
vn -0.5779 0.6503 -0.4929
vn 0.9264 -0.1487 -0.3458
vn 0.7958 0.1301 -0.5914
vn 0.5018 0.3979 -0.7679
vn 0.8142 0.06751 -0.5766
vn 0.5205 0.3568 -0.7757
vn 0.9207 -0.2088 -0.3296
vn -0.9954 0.08667 -0.04166
vn -0.955 -0.09519 0.2807
vn -0.9981 0.03775 -0.04837
vn -0.9557 -0.1431 0.2572
vn -0.9033 0.2794 -0.3256
vn -0.924 0.2242 -0.3098
vn 0.9283 -0.3668 -0.06104
vn 0.9088 -0.4118 -0.06696
vn 0.8186 -0.5131 0.2578
vn 0.7982 -0.5546 0.235
vn 0.6 -0.5794 0.5516
vn 0.5874 -0.6237 0.5157
vn 0.2966 -0.5661 0.7691
vn 0.2959 -0.6211 0.7257
vn -0.7757 -0.2567 0.5765
vn -0.4818 -0.3844 0.7874
vn -0.7841 -0.3046 0.5406
vn -0.5032 -0.4372 0.7454
vn -0.0918 -0.4918 0.8658
vn -0.1038 -0.5547 0.8255
vn 0.1097 0.5574 -0.8229
vn -0.3069 0.5823 -0.7528
vn 0.1037 0.5332 -0.8396
vn -0.3418 0.5538 -0.7592
vn -0.6745 0.4696 -0.5696
vn -0.7175 0.4224 -0.5538
vn 0.9591 -0.09705 -0.2657
vn 0.8379 0.1364 -0.5286
vn 0.5358 0.3885 -0.7496
vn 0.8371 0.2098 -0.5052
vn 0.5294 0.3811 -0.7579
vn 0.9763 0.04599 -0.2116
vn -0.9858 0.1661 0.02429
vn -0.9444 -0.05033 0.325
vn -0.9461 0.3077 0.1009
vn -0.9186 0.03806 0.3933
vn -0.9073 0.3416 -0.2452
vn -0.8578 0.4774 -0.1903
vn 0.9566 -0.2912 0.005707
vn 0.9858 -0.1458 0.0828
vn 0.8314 -0.465 0.3042
vn 0.8492 -0.3717 0.375
vn 0.6031 -0.5719 0.556
vn 0.606 -0.5339 0.5896
vn 0.3094 -0.6033 0.735
vn 0.3113 -0.603 0.7345
vn -0.7749 -0.2545 0.5785
vn -0.5067 -0.4185 0.7537
vn -0.7616 -0.2226 0.6086
vn -0.5097 -0.4201 0.7508
vn -0.1021 -0.5537 0.8264
vn -0.1062 -0.5699 0.8148
vn 0.1091 0.556 -0.824
vn -0.3408 0.5895 -0.7323
vn 0.1007 0.5181 -0.8494
vn -0.337 0.5819 -0.7402
vn -0.7071 0.4951 -0.5048
vn -0.6726 0.5625 -0.4808
vn 0.9652 0.214 -0.1503
vn 0.8221 0.3213 -0.47
vn 0.5223 0.4259 -0.7387
vn -0.868 0.4601 0.1864
vn -0.8648 0.1524 0.4784
vn -0.7715 0.6231 -0.1286
vn 0.9853 0.02539 0.1688
vn 0.8527 -0.244 0.4619
vn 0.605 -0.4581 0.6512
vn 0.3091 -0.5652 0.7649
vn -0.7281 -0.1572 0.6672
vn -0.4928 -0.3885 0.7786
vn -0.1027 -0.5499 0.8289
vn 0.1053 0.5361 -0.8375
vn -0.3095 0.6202 -0.7208
vn -0.6081 0.6572 -0.4453
vn -0.5838 0.6341 -0.507
vn -0.8208 0.5134 -0.2501
vn -0.2576 0.6775 -0.6889
vn 0.1298 0.6333 -0.7629
vn 0.5038 0.5031 -0.7021
vn -0.0998 -0.5083 0.8553
vn 0.2703 -0.5393 0.7975
vn -0.4516 -0.3746 0.8098
vn -0.7327 -0.169 0.6591
vn -0.9133 0.07447 0.4003
vn 0.602 -0.4774 0.64
vn 0.8603 -0.34 0.3798
vn 0.9895 -0.1359 0.0488
vn 0.9579 0.09778 -0.2698
vn -0.9456 0.3181 0.06827
vn 0.7892 0.3164 -0.5263
f 1/1/1 2/2/2 3/3/3
f 1/1/1 3/3/3 4/4/4
f 4/4/4 3/3/3 5/5/5
f 4/4/4 5/5/5 6/6/6
f 3/3/3 7/7/7 8/8/8
f 3/3/3 8/8/8 5/5/5
f 2/2/2 9/9/9 7/7/7
f 2/2/2 7/7/7 3/3/3
f 10/10/10 11/11/11 12/12/12
f 10/10/10 12/12/12 13/13/13
f 13/13/13 12/12/12 14/14/14
f 13/13/13 14/14/14 15/15/15
f 12/12/12 16/16/16 17/17/17
f 12/12/12 17/17/17 14/14/14
f 11/11/11 18/18/18 16/16/16
f 11/11/11 16/16/16 12/12/12
f 18/18/18 19/19/19 20/20/20
f 18/18/18 20/20/20 16/16/16
f 16/16/16 20/20/20 21/21/21
f 16/16/16 21/21/21 17/17/17
f 20/20/20 22/22/22 23/23/23
f 20/20/20 23/23/23 21/21/21
f 19/19/19 24/24/24 22/22/22
f 19/19/19 22/22/22 20/20/20
f 25/25/25 26/26/26 27/27/27
f 25/25/25 27/27/27 28/28/28
f 28/28/28 27/27/27 29/29/29
f 28/28/28 29/29/29 30/30/30
f 27/27/27 31/31/31 32/32/32
f 27/27/27 32/32/32 29/29/29
f 26/26/26 33/33/33 31/31/31
f 26/26/26 31/31/31 27/27/27
f 34/34/34 35/35/35 36/36/36
f 34/34/34 36/36/36 37/37/37
f 37/37/37 36/36/36 38/38/38
f 37/37/37 38/38/38 39/39/39
f 36/36/36 40/40/40 30/30/30
f 36/36/36 30/30/30 38/38/38
f 35/35/35 41/41/41 40/40/40
f 35/35/35 40/40/40 36/36/36
f 41/41/41 42/42/42 43/43/43
f 41/41/41 43/43/43 40/40/40
f 40/40/40 43/43/43 28/28/28
f 40/40/40 28/28/28 30/30/30
f 43/43/43 44/44/44 25/25/25
f 43/43/43 25/25/25 28/28/28
f 42/42/42 45/45/45 44/44/44
f 42/42/42 44/44/44 43/43/43
f 46/46/46 47/47/47 48/48/48
f 46/46/46 48/48/48 49/49/49
f 49/49/49 48/48/48 50/50/50
f 49/49/49 50/50/50 51/51/51
f 48/48/48 37/37/37 39/39/39
f 48/48/48 39/39/39 50/50/50
f 47/47/47 34/34/34 37/37/37
f 47/47/47 37/37/37 48/48/48
f 52/52/52 53/53/53 54/54/54
f 52/52/52 54/54/54 55/55/55
f 55/55/55 54/54/54 56/56/56
f 55/55/55 56/56/56 57/57/57
f 54/54/54 49/49/49 51/51/51
f 54/54/54 51/51/51 56/56/56
f 53/53/53 46/46/46 49/49/49
f 53/53/53 49/49/49 54/54/54
f 45/45/45 58/58/58 59/59/59
f 45/45/45 59/59/59 44/44/44
f 44/44/44 59/59/59 60/60/60
f 44/44/44 60/60/60 25/25/25
f 59/59/59 13/13/13 15/15/15
f 59/59/59 15/15/15 60/60/60
f 58/58/58 10/10/10 13/13/13
f 58/58/58 13/13/13 59/59/59
f 52/52/52 55/55/55 61/61/61
f 52/52/52 61/61/61 62/62/62
f 62/62/62 61/61/61 22/22/22
f 62/62/62 22/22/22 24/24/24
f 61/61/61 63/63/63 23/23/23
f 61/61/61 23/23/23 22/22/22
f 55/55/55 57/57/57 63/63/63
f 55/55/55 63/63/63 61/61/61
f 64/64/64 65/65/65 66/66/66
f 64/64/64 66/66/66 67/67/67
f 67/67/67 66/66/66 68/68/68
f 67/67/67 68/68/68 69/69/69
f 66/66/66 70/70/70 71/71/71
f 66/66/66 71/71/71 68/68/68
f 65/65/65 72/72/72 70/70/70
f 65/65/65 70/70/70 66/66/66
f 39/39/39 73/73/73 74/74/74
f 39/39/39 74/74/74 50/50/50
f 50/50/50 74/74/74 75/75/75
f 50/50/50 75/75/75 51/51/51
f 74/74/74 76/76/76 77/77/77
f 74/74/74 77/77/77 75/75/75
f 73/73/73 78/78/78 76/76/76
f 73/73/73 76/76/76 74/74/74
f 51/51/51 75/75/75 79/79/79
f 51/51/51 79/79/79 56/56/56
f 56/56/56 79/79/79 80/80/80
f 56/56/56 80/80/80 57/57/57
f 79/79/79 81/81/81 82/82/82
f 79/79/79 82/82/82 80/80/80
f 75/75/75 77/77/77 81/81/81
f 75/75/75 81/81/81 79/79/79
f 15/15/15 83/83/83 84/84/84
f 15/15/15 84/84/84 60/60/60
f 60/60/60 84/84/84 26/26/26
f 60/60/60 26/26/26 25/25/25
f 84/84/84 85/85/85 33/33/33
f 84/84/84 33/33/33 26/26/26
f 83/83/83 86/86/86 85/85/85
f 83/83/83 85/85/85 84/84/84
f 57/57/57 80/80/80 87/87/87
f 57/57/57 87/87/87 63/63/63
f 63/63/63 87/87/87 88/88/88
f 63/63/63 88/88/88 23/23/23
f 87/87/87 89/89/89 64/64/64
f 87/87/87 64/64/64 88/88/88
f 80/80/80 82/82/82 89/89/89
f 80/80/80 89/89/89 87/87/87
f 17/17/17 90/90/90 91/91/91
f 17/17/17 91/91/91 14/14/14
f 14/14/14 91/91/91 83/83/83
f 14/14/14 83/83/83 15/15/15
f 91/91/91 92/92/92 86/86/86
f 91/91/91 86/86/86 83/83/83
f 90/90/90 69/69/69 92/92/92
f 90/90/90 92/92/92 91/91/91
f 23/23/23 88/88/88 93/93/93
f 23/23/23 93/93/93 21/21/21
f 21/21/21 93/93/93 90/90/90
f 21/21/21 90/90/90 17/17/17
f 93/93/93 67/67/67 69/69/69
f 93/93/93 69/69/69 90/90/90
f 88/88/88 64/64/64 67/67/67
f 88/88/88 67/67/67 93/93/93
f 30/30/30 29/29/29 94/94/94
f 30/30/30 94/94/94 38/38/38
f 38/38/38 94/94/94 73/73/73
f 38/38/38 73/73/73 39/39/39
f 94/94/94 95/95/95 78/78/78
f 94/94/94 78/78/78 73/73/73
f 29/29/29 32/32/32 95/95/95
f 29/29/29 95/95/95 94/94/94
f 96/96/96 97/97/97 98/98/98
f 96/96/96 98/98/98 99/99/99
f 99/99/99 98/98/98 100/100/100
f 99/99/99 100/100/100 101/101/101
f 98/98/98 102/102/102 103/103/103
f 98/98/98 103/103/103 100/100/100
f 97/97/97 104/104/104 102/102/102
f 97/97/97 102/102/102 98/98/98
f 32/32/32 105/105/105 106/106/106
f 32/32/32 106/106/106 95/95/95
f 95/95/95 106/106/106 107/107/107
f 95/95/95 107/107/107 78/78/78
f 106/106/106 108/108/108 109/109/109
f 106/106/106 109/109/109 107/107/107
f 105/105/105 110/110/110 108/108/108
f 105/105/105 108/108/108 106/106/106
f 33/33/33 111/111/111 112/112/112
f 33/33/33 112/112/112 31/31/31
f 31/31/31 112/112/112 105/105/105
f 31/31/31 105/105/105 32/32/32
f 112/112/112 113/113/113 110/110/110
f 112/112/112 110/110/110 105/105/105
f 111/111/111 101/101/101 113/113/113
f 111/111/111 113/113/113 112/112/112
f 78/78/78 107/107/107 114/114/114
f 78/78/78 114/114/114 76/76/76
f 76/76/76 114/114/114 115/115/115
f 76/76/76 115/115/115 77/77/77
f 114/114/114 116/116/116 117/117/117
f 114/114/114 117/117/117 115/115/115
f 107/107/107 109/109/109 116/116/116
f 107/107/107 116/116/116 114/114/114
f 77/77/77 115/115/115 118/118/118
f 77/77/77 118/118/118 81/81/81
f 81/81/81 118/118/118 119/119/119
f 81/81/81 119/119/119 82/82/82
f 118/118/118 120/120/120 121/121/121
f 118/118/118 121/121/121 119/119/119
f 115/115/115 117/117/117 120/120/120
f 115/115/115 120/120/120 118/118/118
f 86/86/86 122/122/122 123/123/123
f 86/86/86 123/123/123 85/85/85
f 85/85/85 123/123/123 111/111/111
f 85/85/85 111/111/111 33/33/33
f 123/123/123 99/99/99 101/101/101
f 123/123/123 101/101/101 111/111/111
f 122/122/122 96/96/96 99/99/99
f 122/122/122 99/99/99 123/123/123
f 82/82/82 119/119/119 124/124/124
f 82/82/82 124/124/124 89/89/89
f 89/89/89 124/124/124 65/65/65
f 89/89/89 65/65/65 64/64/64
f 124/124/124 125/125/125 72/72/72
f 124/124/124 72/72/72 65/65/65
f 119/119/119 121/121/121 125/125/125
f 119/119/119 125/125/125 124/124/124
f 69/69/69 68/68/68 126/126/126
f 69/69/69 126/126/126 92/92/92
f 92/92/92 126/126/126 122/122/122
f 92/92/92 122/122/122 86/86/86
f 126/126/126 127/127/127 96/96/96
f 126/126/126 96/96/96 122/122/122
f 68/68/68 71/71/71 127/127/127
f 68/68/68 127/127/127 126/126/126
f 128/128/128 129/129/129 130/130/130
f 128/128/128 130/130/130 131/131/131
f 132/132/132 131/131/131 130/130/130
f 132/132/132 130/130/130 133/133/133
f 134/134/134 133/133/133 130/130/130
f 134/134/134 130/130/130 135/135/135
f 136/136/136 135/135/135 130/130/130
f 136/136/136 130/130/130 137/137/137
f 138/138/138 137/137/137 130/130/130
f 138/138/138 130/130/130 139/139/139
f 140/140/140 139/139/139 130/130/130
f 140/140/140 130/130/130 141/141/141
f 142/142/142 141/141/141 130/130/130
f 142/142/142 130/130/130 143/143/143
f 144/144/144 143/143/143 130/130/130
f 144/144/144 130/130/130 129/129/129
f 121/121/121 145/145/145 146/146/146
f 121/121/121 146/146/146 125/125/125
f 125/125/125 146/146/146 147/147/147
f 125/125/125 147/147/147 72/72/72
f 146/146/146 148/148/148 149/149/149
f 146/146/146 149/149/149 147/147/147
f 145/145/145 150/150/150 148/148/148
f 145/145/145 148/148/148 146/146/146
f 71/71/71 151/151/151 152/152/152
f 71/71/71 152/152/152 127/127/127
f 127/127/127 152/152/152 97/97/97
f 127/127/127 97/97/97 96/96/96
f 152/152/152 153/153/153 104/104/104
f 152/152/152 104/104/104 97/97/97
f 151/151/151 154/154/154 153/153/153
f 151/151/151 153/153/153 152/152/152
f 72/72/72 147/147/147 155/155/155
f 72/72/72 155/155/155 70/70/70
f 70/70/70 155/155/155 151/151/151
f 70/70/70 151/151/151 71/71/71
f 155/155/155 156/156/156 154/154/154
f 155/155/155 154/154/154 151/151/151
f 147/147/147 149/149/149 156/156/156
f 147/147/147 156/156/156 155/155/155
f 110/110/110 157/157/157 158/158/158
f 110/110/110 158/158/158 108/108/108
f 108/108/108 158/158/158 159/159/159
f 108/108/108 159/159/159 109/109/109
f 158/158/158 160/160/160 161/161/161
f 158/158/158 161/161/161 159/159/159
f 157/157/157 162/162/162 160/160/160
f 157/157/157 160/160/160 158/158/158
f 101/101/101 100/100/100 163/163/163
f 101/101/101 163/163/163 113/113/113
f 113/113/113 163/163/163 157/157/157
f 113/113/113 157/157/157 110/110/110
f 163/163/163 164/164/164 162/162/162
f 163/163/163 162/162/162 157/157/157
f 100/100/100 103/103/103 164/164/164
f 100/100/100 164/164/164 163/163/163
f 109/109/109 159/159/159 165/165/165
f 109/109/109 165/165/165 116/116/116
f 116/116/116 165/165/165 166/166/166
f 116/116/116 166/166/166 117/117/117
f 165/165/165 167/167/167 168/168/168
f 165/165/165 168/168/168 166/166/166
f 159/159/159 161/161/161 167/167/167
f 159/159/159 167/167/167 165/165/165
f 117/117/117 166/166/166 169/169/169
f 117/117/117 169/169/169 120/120/120
f 120/120/120 169/169/169 145/145/145
f 120/120/120 145/145/145 121/121/121
f 169/169/169 170/170/170 150/150/150
f 169/169/169 150/150/150 145/145/145
f 166/166/166 168/168/168 170/170/170
f 166/166/166 170/170/170 169/169/169
f 128/128/128 171/171/171 172/172/172
f 128/128/128 172/172/172 129/129/129
f 129/129/129 172/172/172 173/173/173
f 129/129/129 173/173/173 144/144/144
f 172/172/172 153/153/153 154/154/154
f 172/172/172 154/154/154 173/173/173
f 171/171/171 104/104/104 153/153/153
f 171/171/171 153/153/153 172/172/172
f 138/138/138 174/174/174 175/175/175
f 138/138/138 175/175/175 137/137/137
f 137/137/137 175/175/175 176/176/176
f 137/137/137 176/176/176 136/136/136
f 175/175/175 167/167/167 161/161/161
f 175/175/175 161/161/161 176/176/176
f 174/174/174 168/168/168 167/167/167
f 174/174/174 167/167/167 175/175/175
f 142/142/142 177/177/177 178/178/178
f 142/142/142 178/178/178 141/141/141
f 141/141/141 178/178/178 179/179/179
f 141/141/141 179/179/179 140/140/140
f 178/178/178 148/148/148 150/150/150
f 178/178/178 150/150/150 179/179/179
f 177/177/177 149/149/149 148/148/148
f 177/177/177 148/148/148 178/178/178
f 134/134/134 180/180/180 181/181/181
f 134/134/134 181/181/181 133/133/133
f 133/133/133 181/181/181 182/182/182
f 133/133/133 182/182/182 132/132/132
f 181/181/181 164/164/164 103/103/103
f 181/181/181 103/103/103 182/182/182
f 180/180/180 162/162/162 164/164/164
f 180/180/180 164/164/164 181/181/181
f 132/132/132 182/182/182 183/183/183
f 132/132/132 183/183/183 131/131/131
f 131/131/131 183/183/183 171/171/171
f 131/131/131 171/171/171 128/128/128
f 183/183/183 102/102/102 104/104/104
f 183/183/183 104/104/104 171/171/171
f 182/182/182 103/103/103 102/102/102
f 182/182/182 102/102/102 183/183/183
f 136/136/136 176/176/176 184/184/184
f 136/136/136 184/184/184 135/135/135
f 135/135/135 184/184/184 180/180/180
f 135/135/135 180/180/180 134/134/134
f 184/184/184 160/160/160 162/162/162
f 184/184/184 162/162/162 180/180/180
f 176/176/176 161/161/161 160/160/160
f 176/176/176 160/160/160 184/184/184
f 140/140/140 179/179/179 185/185/185
f 140/140/140 185/185/185 139/139/139
f 139/139/139 185/185/185 174/174/174
f 139/139/139 174/174/174 138/138/138
f 185/185/185 170/170/170 168/168/168
f 185/185/185 168/168/168 174/174/174
f 179/179/179 150/150/150 170/170/170
f 179/179/179 170/170/170 185/185/185
f 144/144/144 173/173/173 186/186/186
f 144/144/144 186/186/186 143/143/143
f 143/143/143 186/186/186 177/177/177
f 143/143/143 177/177/177 142/142/142
f 186/186/186 156/156/156 149/149/149
f 186/186/186 149/149/149 177/177/177
f 173/173/173 154/154/154 156/156/156
f 173/173/173 156/156/156 186/186/186
f 187/187/187 188/188/188 189/189/189
f 187/187/187 189/189/189 190/190/190
f 190/190/190 189/189/189 191/191/191
f 190/190/190 191/191/191 192/192/192
f 189/189/189 62/62/62 24/24/24
f 189/189/189 24/24/24 191/191/191
f 188/188/188 52/52/52 62/62/62
f 188/188/188 62/62/62 189/189/189
f 193/193/193 194/194/194 195/195/195
f 193/193/193 195/195/195 196/196/196
f 196/196/196 195/195/195 58/58/58
f 196/196/196 58/58/58 45/45/45
f 195/195/195 197/197/197 10/10/10
f 195/195/195 10/10/10 58/58/58
f 194/194/194 198/198/198 197/197/197
f 194/194/194 197/197/197 195/195/195
f 187/187/187 199/199/199 200/200/200
f 187/187/187 200/200/200 188/188/188
f 188/188/188 200/200/200 53/53/53
f 188/188/188 53/53/53 52/52/52
f 200/200/200 201/201/201 46/46/46
f 200/200/200 46/46/46 53/53/53
f 199/199/199 202/202/202 201/201/201
f 199/199/199 201/201/201 200/200/200
f 202/202/202 203/203/203 204/204/204
f 202/202/202 204/204/204 201/201/201
f 201/201/201 204/204/204 47/47/47
f 201/201/201 47/47/47 46/46/46
f 204/204/204 205/205/205 34/34/34
f 204/204/204 34/34/34 47/47/47
f 203/203/203 206/206/206 205/205/205
f 203/203/203 205/205/205 204/204/204
f 207/207/207 208/208/208 209/209/209
f 207/207/207 209/209/209 210/210/210
f 210/210/210 209/209/209 42/42/42
f 210/210/210 42/42/42 41/41/41
f 209/209/209 196/196/196 45/45/45
f 209/209/209 45/45/45 42/42/42
f 208/208/208 193/193/193 196/196/196
f 208/208/208 196/196/196 209/209/209
f 206/206/206 211/211/211 212/212/212
f 206/206/206 212/212/212 205/205/205
f 205/205/205 212/212/212 35/35/35
f 205/205/205 35/35/35 34/34/34
f 212/212/212 210/210/210 41/41/41
f 212/212/212 41/41/41 35/35/35
f 211/211/211 207/207/207 210/210/210
f 211/211/211 210/210/210 212/212/212
f 213/213/213 214/214/214 215/215/215
f 213/213/213 215/215/215 216/216/216
f 216/216/216 215/215/215 19/19/19
f 216/216/216 19/19/19 18/18/18
f 215/215/215 191/191/191 24/24/24
f 215/215/215 24/24/24 19/19/19
f 214/214/214 192/192/192 191/191/191
f 214/214/214 191/191/191 215/215/215
f 198/198/198 217/217/217 218/218/218
f 198/198/198 218/218/218 197/197/197
f 197/197/197 218/218/218 11/11/11
f 197/197/197 11/11/11 10/10/10
f 218/218/218 216/216/216 18/18/18
f 218/218/218 18/18/18 11/11/11
f 217/217/217 213/213/213 216/216/216
f 217/217/217 216/216/216 218/218/218
f 219/219/219 220/220/220 221/221/221
f 219/219/219 221/221/221 222/222/222
f 222/222/222 221/221/221 223/223/223
f 222/222/222 223/223/223 224/224/224
f 221/221/221 225/225/225 226/226/226
f 221/221/221 226/226/226 223/223/223
f 220/220/220 227/227/227 225/225/225
f 220/220/220 225/225/225 221/221/221
f 227/227/227 228/228/228 229/229/229
f 227/227/227 229/229/229 225/225/225
f 225/225/225 229/229/229 230/230/230
f 225/225/225 230/230/230 226/226/226
f 229/229/229 231/231/231 232/232/232
f 229/229/229 232/232/232 230/230/230
f 228/228/228 233/233/233 231/231/231
f 228/228/228 231/231/231 229/229/229
f 234/234/234 235/235/235 236/236/236
f 234/234/234 236/236/236 237/237/237
f 237/237/237 236/236/236 238/238/238
f 237/237/237 238/238/238 239/239/239
f 236/236/236 240/240/240 241/241/241
f 236/236/236 241/241/241 238/238/238
f 235/235/235 242/242/242 240/240/240
f 235/235/235 240/240/240 236/236/236
f 242/242/242 243/243/243 244/244/244
f 242/242/242 244/244/244 240/240/240
f 240/240/240 244/244/244 245/245/245
f 240/240/240 245/245/245 241/241/241
f 244/244/244 246/246/246 247/247/247
f 244/244/244 247/247/247 245/245/245
f 243/243/243 248/248/248 246/246/246
f 243/243/243 246/246/246 244/244/244
f 249/249/249 250/250/250 251/251/251
f 249/249/249 251/251/251 252/252/252
f 252/252/252 251/251/251 253/253/253
f 252/252/252 253/253/253 254/254/254
f 251/251/251 237/237/237 239/239/239
f 251/251/251 239/239/239 253/253/253
f 250/250/250 234/234/234 237/237/237
f 250/250/250 237/237/237 251/251/251
f 255/255/255 256/256/256 257/257/257
f 255/255/255 257/257/257 258/258/258
f 258/258/258 257/257/257 259/259/259
f 258/258/258 259/259/259 260/260/260
f 257/257/257 252/252/252 254/254/254
f 257/257/257 254/254/254 259/259/259
f 256/256/256 249/249/249 252/252/252
f 256/256/256 252/252/252 257/257/257
f 248/248/248 261/261/261 262/262/262
f 248/248/248 262/262/262 246/246/246
f 246/246/246 262/262/262 263/263/263
f 246/246/246 263/263/263 247/247/247
f 262/262/262 222/222/222 224/224/224
f 262/262/262 224/224/224 263/263/263
f 261/261/261 219/219/219 222/222/222
f 261/261/261 222/222/222 262/262/262
f 255/255/255 258/258/258 264/264/264
f 255/255/255 264/264/264 265/265/265
f 265/265/265 264/264/264 231/231/231
f 265/265/265 231/231/231 233/233/233
f 264/264/264 266/266/266 232/232/232
f 264/264/264 232/232/232 231/231/231
f 258/258/258 260/260/260 266/266/266
f 258/258/258 266/266/266 264/264/264
f 267/267/267 268/268/268 269/269/269
f 267/267/267 269/269/269 270/270/270
f 270/270/270 269/269/269 271/271/271
f 270/270/270 271/271/271 272/272/272
f 269/269/269 273/273/273 274/274/274
f 269/269/269 274/274/274 271/271/271
f 268/268/268 275/275/275 273/273/273
f 268/268/268 273/273/273 269/269/269
f 1/1/1 276/276/276 277/277/277
f 1/1/1 277/277/277 2/2/2
f 2/2/2 277/277/277 278/278/278
f 2/2/2 278/278/278 9/9/9
f 277/277/277 279/279/279 280/280/280
f 277/277/277 280/280/280 278/278/278
f 276/276/276 281/281/281 279/279/279
f 276/276/276 279/279/279 277/277/277
f 281/281/281 282/282/282 283/283/283
f 281/281/281 283/283/283 279/279/279
f 279/279/279 283/283/283 284/284/284
f 279/279/279 284/284/284 280/280/280
f 283/283/283 285/285/285 286/286/286
f 283/283/283 286/286/286 284/284/284
f 282/282/282 287/287/287 285/285/285
f 282/282/282 285/285/285 283/283/283
f 288/288/288 289/289/289 290/290/290
f 288/288/288 290/290/290 291/291/291
f 291/291/291 290/290/290 292/292/292
f 291/291/291 292/292/292 293/293/293
f 290/290/290 270/270/270 272/272/272
f 290/290/290 272/272/272 292/292/292
f 289/289/289 267/267/267 270/270/270
f 289/289/289 270/270/270 290/290/290
f 287/287/287 294/294/294 295/295/295
f 287/287/287 295/295/295 285/285/285
f 285/285/285 295/295/295 296/296/296
f 285/285/285 296/296/296 286/286/286
f 295/295/295 291/291/291 293/293/293
f 295/295/295 293/293/293 296/296/296
f 294/294/294 288/288/288 291/291/291
f 294/294/294 291/291/291 295/295/295
f 297/297/297 298/298/298 299/299/299
f 297/297/297 299/299/299 300/300/300
f 300/300/300 299/299/299 301/301/301
f 300/300/300 301/301/301 302/302/302
f 299/299/299 5/5/5 8/8/8
f 299/299/299 8/8/8 301/301/301
f 298/298/298 6/6/6 5/5/5
f 298/298/298 5/5/5 299/299/299
f 275/275/275 303/303/303 304/304/304
f 275/275/275 304/304/304 273/273/273
f 273/273/273 304/304/304 305/305/305
f 273/273/273 305/305/305 274/274/274
f 304/304/304 300/300/300 302/302/302
f 304/304/304 302/302/302 305/305/305
f 303/303/303 297/297/297 300/300/300
f 303/303/303 300/300/300 304/304/304
f 9/9/9 306/306/306 307/307/307
f 9/9/9 307/307/307 7/7/7
f 7/7/7 307/307/307 308/308/308
f 7/7/7 308/308/308 8/8/8
f 307/307/307 309/309/309 310/310/310
f 307/307/307 310/310/310 308/308/308
f 306/306/306 311/311/311 309/309/309
f 306/306/306 309/309/309 307/307/307
f 272/272/272 271/271/271 312/312/312
f 272/272/272 312/312/312 313/313/313
f 313/313/313 312/312/312 314/314/314
f 313/313/313 314/314/314 315/315/315
f 312/312/312 316/316/316 317/317/317
f 312/312/312 317/317/317 314/314/314
f 271/271/271 274/274/274 316/316/316
f 271/271/271 316/316/316 312/312/312
f 9/9/9 278/278/278 318/318/318
f 9/9/9 318/318/318 306/306/306
f 306/306/306 318/318/318 319/319/319
f 306/306/306 319/319/319 311/311/311
f 318/318/318 320/320/320 321/321/321
f 318/318/318 321/321/321 319/319/319
f 278/278/278 280/280/280 320/320/320
f 278/278/278 320/320/320 318/318/318
f 280/280/280 284/284/284 322/322/322
f 280/280/280 322/322/322 320/320/320
f 320/320/320 322/322/322 323/323/323
f 320/320/320 323/323/323 321/321/321
f 322/322/322 324/324/324 325/325/325
f 322/322/322 325/325/325 323/323/323
f 284/284/284 286/286/286 324/324/324
f 284/284/284 324/324/324 322/322/322
f 293/293/293 292/292/292 326/326/326
f 293/293/293 326/326/326 327/327/327
f 327/327/327 326/326/326 328/328/328
f 327/327/327 328/328/328 329/329/329
f 326/326/326 313/313/313 315/315/315
f 326/326/326 315/315/315 328/328/328
f 292/292/292 272/272/272 313/313/313
f 292/292/292 313/313/313 326/326/326
f 286/286/286 296/296/296 330/330/330
f 286/286/286 330/330/330 324/324/324
f 324/324/324 330/330/330 331/331/331
f 324/324/324 331/331/331 325/325/325
f 330/330/330 327/327/327 329/329/329
f 330/330/330 329/329/329 331/331/331
f 296/296/296 293/293/293 327/327/327
f 296/296/296 327/327/327 330/330/330
f 302/302/302 301/301/301 332/332/332
f 302/302/302 332/332/332 333/333/333
f 333/333/333 332/332/332 334/334/334
f 333/333/333 334/334/334 335/335/335
f 332/332/332 308/308/308 310/310/310
f 332/332/332 310/310/310 334/334/334
f 301/301/301 8/8/8 308/308/308
f 301/301/301 308/308/308 332/332/332
f 274/274/274 305/305/305 336/336/336
f 274/274/274 336/336/336 316/316/316
f 316/316/316 336/336/336 337/337/337
f 316/316/316 337/337/337 317/317/317
f 336/336/336 333/333/333 335/335/335
f 336/336/336 335/335/335 337/337/337
f 305/305/305 302/302/302 333/333/333
f 305/305/305 333/333/333 336/336/336
f 311/311/311 338/338/338 339/339/339
f 311/311/311 339/339/339 309/309/309
f 309/309/309 339/339/339 340/340/340
f 309/309/309 340/340/340 310/310/310
f 339/339/339 341/341/341 342/342/342
f 339/339/339 342/342/342 340/340/340
f 338/338/338 343/343/343 341/341/341
f 338/338/338 341/341/341 339/339/339
f 315/315/315 314/314/314 344/344/344
f 315/315/315 344/344/344 345/345/345
f 345/345/345 344/344/344 346/346/346
f 345/345/345 346/346/346 347/347/347
f 344/344/344 348/348/348 349/349/349
f 344/344/344 349/349/349 346/346/346
f 314/314/314 317/317/317 348/348/348
f 314/314/314 348/348/348 344/344/344
f 311/311/311 319/319/319 350/350/350
f 311/311/311 350/350/350 338/338/338
f 338/338/338 350/350/350 351/351/351
f 338/338/338 351/351/351 343/343/343
f 350/350/350 352/352/352 353/353/353
f 350/350/350 353/353/353 351/351/351
f 319/319/319 321/321/321 352/352/352
f 319/319/319 352/352/352 350/350/350
f 321/321/321 323/323/323 354/354/354
f 321/321/321 354/354/354 352/352/352
f 352/352/352 354/354/354 355/355/355
f 352/352/352 355/355/355 353/353/353
f 354/354/354 356/356/356 357/357/357
f 354/354/354 357/357/357 355/355/355
f 323/323/323 325/325/325 356/356/356
f 323/323/323 356/356/356 354/354/354
f 329/329/329 328/328/328 358/358/358
f 329/329/329 358/358/358 359/359/359
f 359/359/359 358/358/358 360/360/360
f 359/359/359 360/360/360 361/361/361
f 358/358/358 345/345/345 347/347/347
f 358/358/358 347/347/347 360/360/360
f 328/328/328 315/315/315 345/345/345
f 328/328/328 345/345/345 358/358/358
f 325/325/325 331/331/331 362/362/362
f 325/325/325 362/362/362 356/356/356
f 356/356/356 362/362/362 363/363/363
f 356/356/356 363/363/363 357/357/357
f 362/362/362 359/359/359 361/361/361
f 362/362/362 361/361/361 363/363/363
f 331/331/331 329/329/329 359/359/359
f 331/331/331 359/359/359 362/362/362
f 335/335/335 334/334/334 364/364/364
f 335/335/335 364/364/364 365/365/365
f 365/365/365 364/364/364 366/366/366
f 365/365/365 366/366/366 367/367/367
f 364/364/364 340/340/340 342/342/342
f 364/364/364 342/342/342 366/366/366
f 334/334/334 310/310/310 340/340/340
f 334/334/334 340/340/340 364/364/364
f 317/317/317 337/337/337 368/368/368
f 317/317/317 368/368/368 348/348/348
f 348/348/348 368/368/368 369/369/369
f 348/348/348 369/369/369 349/349/349
f 368/368/368 365/365/365 367/367/367
f 368/368/368 367/367/367 369/369/369
f 337/337/337 335/335/335 365/365/365
f 337/337/337 365/365/365 368/368/368
f 343/343/343 370/370/370 371/371/371
f 343/343/343 371/371/371 341/341/341
f 341/341/341 371/371/371 372/372/372
f 341/341/341 372/372/372 342/342/342
f 371/371/371 265/265/265 233/233/233
f 371/371/371 233/233/233 372/372/372
f 370/370/370 255/255/255 265/265/265
f 370/370/370 265/265/265 371/371/371
f 347/347/347 346/346/346 373/373/373
f 347/347/347 373/373/373 374/374/374
f 374/374/374 373/373/373 261/261/261
f 374/374/374 261/261/261 248/248/248
f 373/373/373 375/375/375 219/219/219
f 373/373/373 219/219/219 261/261/261
f 346/346/346 349/349/349 375/375/375
f 346/346/346 375/375/375 373/373/373
f 343/343/343 351/351/351 376/376/376
f 343/343/343 376/376/376 370/370/370
f 370/370/370 376/376/376 256/256/256
f 370/370/370 256/256/256 255/255/255
f 376/376/376 377/377/377 249/249/249
f 376/376/376 249/249/249 256/256/256
f 351/351/351 353/353/353 377/377/377
f 351/351/351 377/377/377 376/376/376
f 353/353/353 355/355/355 378/378/378
f 353/353/353 378/378/378 377/377/377
f 377/377/377 378/378/378 250/250/250
f 377/377/377 250/250/250 249/249/249
f 378/378/378 379/379/379 234/234/234
f 378/378/378 234/234/234 250/250/250
f 355/355/355 357/357/357 379/379/379
f 355/355/355 379/379/379 378/378/378
f 361/361/361 360/360/360 380/380/380
f 361/361/361 380/380/380 381/381/381
f 381/381/381 380/380/380 243/243/243
f 381/381/381 243/243/243 242/242/242
f 380/380/380 374/374/374 248/248/248
f 380/380/380 248/248/248 243/243/243
f 360/360/360 347/347/347 374/374/374
f 360/360/360 374/374/374 380/380/380
f 357/357/357 363/363/363 382/382/382
f 357/357/357 382/382/382 379/379/379
f 379/379/379 382/382/382 235/235/235
f 379/379/379 235/235/235 234/234/234
f 382/382/382 381/381/381 242/242/242
f 382/382/382 242/242/242 235/235/235
f 363/363/363 361/361/361 381/381/381
f 363/363/363 381/381/381 382/382/382
f 367/367/367 366/366/366 383/383/383
f 367/367/367 383/383/383 384/384/384
f 384/384/384 383/383/383 228/228/228
f 384/384/384 228/228/228 227/227/227
f 383/383/383 372/372/372 233/233/233
f 383/383/383 233/233/233 228/228/228
f 366/366/366 342/342/342 372/372/372
f 366/366/366 372/372/372 383/383/383
f 349/349/349 369/369/369 385/385/385
f 349/349/349 385/385/385 375/375/375
f 375/375/375 385/385/385 220/220/220
f 375/375/375 220/220/220 219/219/219
f 385/385/385 384/384/384 227/227/227
f 385/385/385 227/227/227 220/220/220
f 369/369/369 367/367/367 384/384/384
f 369/369/369 384/384/384 385/385/385
f 224/224/224 223/223/223 386/386/386
f 224/224/224 386/386/386 387/387/387
f 387/387/387 386/386/386 217/217/217
f 387/387/387 217/217/217 198/198/198
f 386/386/386 388/388/388 213/213/213
f 386/386/386 213/213/213 217/217/217
f 223/223/223 226/226/226 388/388/388
f 223/223/223 388/388/388 386/386/386
f 226/226/226 230/230/230 389/389/389
f 226/226/226 389/389/389 388/388/388
f 388/388/388 389/389/389 214/214/214
f 388/388/388 214/214/214 213/213/213
f 389/389/389 390/390/390 192/192/192
f 389/389/389 192/192/192 214/214/214
f 230/230/230 232/232/232 390/390/390
f 230/230/230 390/390/390 389/389/389
f 239/239/239 238/238/238 391/391/391
f 239/239/239 391/391/391 392/392/392
f 392/392/392 391/391/391 211/211/211
f 392/392/392 211/211/211 206/206/206
f 391/391/391 393/393/393 207/207/207
f 391/391/391 207/207/207 211/211/211
f 238/238/238 241/241/241 393/393/393
f 238/238/238 393/393/393 391/391/391
f 241/241/241 245/245/245 394/394/394
f 241/241/241 394/394/394 393/393/393
f 393/393/393 394/394/394 208/208/208
f 393/393/393 208/208/208 207/207/207
f 394/394/394 395/395/395 193/193/193
f 394/394/394 193/193/193 208/208/208
f 245/245/245 247/247/247 395/395/395
f 245/245/245 395/395/395 394/394/394
f 254/254/254 253/253/253 396/396/396
f 254/254/254 396/396/396 397/397/397
f 397/397/397 396/396/396 203/203/203
f 397/397/397 203/203/203 202/202/202
f 396/396/396 392/392/392 206/206/206
f 396/396/396 206/206/206 203/203/203
f 253/253/253 239/239/239 392/392/392
f 253/253/253 392/392/392 396/396/396
f 260/260/260 259/259/259 398/398/398
f 260/260/260 398/398/398 399/399/399
f 399/399/399 398/398/398 199/199/199
f 399/399/399 199/199/199 187/187/187
f 398/398/398 397/397/397 202/202/202
f 398/398/398 202/202/202 199/199/199
f 259/259/259 254/254/254 397/397/397
f 259/259/259 397/397/397 398/398/398
f 247/247/247 263/263/263 400/400/400
f 247/247/247 400/400/400 395/395/395
f 395/395/395 400/400/400 194/194/194
f 395/395/395 194/194/194 193/193/193
f 400/400/400 387/387/387 198/198/198
f 400/400/400 198/198/198 194/194/194
f 263/263/263 224/224/224 387/387/387
f 263/263/263 387/387/387 400/400/400
f 260/260/260 399/399/399 401/401/401
f 260/260/260 401/401/401 266/266/266
f 266/266/266 401/401/401 390/390/390
f 266/266/266 390/390/390 232/232/232
f 401/401/401 190/190/190 192/192/192
f 401/401/401 192/192/192 390/390/390
f 399/399/399 187/187/187 190/190/190
f 399/399/399 190/190/190 401/401/401
