v -0.302169 -1.56234 0.0574259
v -0.301315 -1.56537 0.0551987
v -0.302583 -1.56469 0.0532073
v -0.303091 -1.56181 0.0559276
v -0.304542 -1.56399 0.0518938
v -0.304532 -1.56129 0.0549368
v -0.302321 -1.56785 0.0503874
v -0.304725 -1.56701 0.0488054
v -0.300751 -1.56865 0.0527886
v -0.327689 -1.59292 0.0279275
v -0.324229 -1.59166 0.0238547
v -0.326627 -1.59944 0.0154661
v -0.330188 -1.60048 0.0195238
v -0.328978 -1.60831 0.00617684
v -0.332485 -1.60869 0.0103137
v -0.32169 -1.59952 0.0127479
v -0.324106 -1.60907 0.00345705
v -0.319441 -1.59143 0.0210715
v -0.314013 -1.59225 0.0200285
v -0.31606 -1.60055 0.0117095
v -0.318504 -1.61039 0.00241484
v -0.310567 -1.60226 0.0124511
v -0.312914 -1.61192 0.00313078
v -0.30877 -1.59395 0.0208363
v -0.333604 -1.6136 0.0210471
v -0.335521 -1.62105 0.0131849
v -0.332913 -1.62416 0.01847
v -0.330966 -1.61695 0.0261797
v -0.328431 -1.627 0.0221256
v -0.326542 -1.61996 0.0298053
v -0.334118 -1.62959 0.0124825
v -0.329669 -1.63212 0.0159282
v -0.336641 -1.62688 0.00734078
v -0.311317 -1.60579 0.0444065
v -0.316772 -1.60507 0.0455363
v -0.318881 -1.61374 0.0386713
v -0.313142 -1.61444 0.0373636
v -0.320885 -1.62201 0.030969
v -0.314931 -1.62275 0.0295114
v -0.324347 -1.6118 0.0376228
v -0.322 -1.60331 0.0446276
v -0.326191 -1.60075 0.04178
v -0.32869 -1.60892 0.0343527
v -0.331319 -1.60568 0.0296615
v -0.328754 -1.59786 0.0375779
v -0.30296 -1.60384 0.0370512
v -0.306472 -1.60532 0.0413765
v -0.308022 -1.61377 0.0338879
v -0.304302 -1.61202 0.0290566
v -0.309666 -1.62202 0.0256565
v -0.305888 -1.62019 0.0203671
v -0.301904 -1.59893 0.0273837
v -0.301374 -1.60158 0.0321498
v -0.30263 -1.60958 0.0237968
v -0.303221 -1.60691 0.0188705
v -0.304248 -1.61777 0.014728
v -0.304999 -1.61537 0.00957302
v -0.329259 -1.59511 0.0327265
v -0.331818 -1.60269 0.0244714
v -0.334098 -1.61061 0.0154909
v -0.30605 -1.60442 0.0149422
v -0.304525 -1.59628 0.0234298
v -0.308125 -1.61349 0.00558966
v -0.318076 -1.63068 -0.0121243
v -0.319528 -1.63497 -0.0139986
v -0.324468 -1.63447 -0.0147931
v -0.323387 -1.62996 -0.012969
v -0.328986 -1.63257 -0.0138453
v -0.32833 -1.62807 -0.0119187
v -0.324745 -1.63583 -0.0138267
v -0.328863 -1.63412 -0.0130351
v -0.320254 -1.63629 -0.0131538
v -0.316421 -1.62991 0.0218131
v -0.311147 -1.62942 0.0179076
v -0.30749 -1.62782 0.012453
v -0.312484 -1.63487 0.0119132
v -0.309065 -1.63361 0.00659848
v -0.317613 -1.63506 0.0156165
v -0.306024 -1.62562 0.00648442
v -0.307056 -1.62373 0.000973992
v -0.307853 -1.6317 0.000556673
v -0.309148 -1.63032 -0.00512221
v -0.334456 -1.617 0.00173079
v -0.336001 -1.61834 0.00729293
v -0.337057 -1.62455 0.00136041
v -0.335578 -1.62381 -0.0044038
v -0.310585 -1.62285 -0.00324569
v -0.315657 -1.62226 -0.00583714
v -0.312926 -1.63036 -0.00945909
v -0.326529 -1.61947 -0.0055563
v -0.331135 -1.6177 -0.00268792
v -0.332532 -1.62546 -0.00897912
v -0.321188 -1.62113 -0.00662111
v -0.322566 -1.62904 0.0232877
v -0.323762 -1.63406 0.0170094
v -0.334622 -1.62984 -0.00702134
v -0.333658 -1.63094 -0.00655402
v -0.33488 -1.63134 -0.00244771
v -0.336009 -1.63018 -0.00219566
v -0.334666 -1.63289 0.00186415
v -0.335828 -1.63193 0.00282665
v -0.333394 -1.63083 -0.0016563
v -0.333107 -1.63225 0.00196165
v -0.332361 -1.63025 -0.00509309
v -0.330002 -1.63487 0.0121667
v -0.324392 -1.63666 0.013146
v -0.318579 -1.63766 0.0118749
v -0.324657 -1.63769 0.0107065
v -0.319425 -1.6386 0.00957974
v -0.329723 -1.63608 0.00983963
v -0.336625 -1.63022 0.0042646
v -0.334253 -1.63261 0.0090256
v -0.333637 -1.63405 0.00705614
v -0.313757 -1.63763 0.00848872
v -0.31062 -1.63659 0.00356395
v -0.315037 -1.63861 0.00657723
v -0.312195 -1.63772 0.0022015
v -0.309662 -1.6349 -0.00213039
v -0.31106 -1.63381 -0.0074971
v -0.31141 -1.63622 -0.00286401
v -0.312734 -1.63524 -0.00759722
v -0.335454 -1.62779 -0.00684287
v -0.336905 -1.62821 -0.00137931
v -0.31469 -1.63425 -0.0115404
v -0.315955 -1.63565 -0.0110807
v -0.332727 -1.62976 -0.0111307
v -0.332194 -1.6316 -0.0107327
v -0.328197 -1.62518 0.000213687
v -0.326002 -1.62471 -0.000657635
v -0.322019 -1.62568 0.0037129
v -0.327946 -1.62564 0.00279813
v -0.328674 -1.62714 0.0046759
v -0.326689 -1.62775 0.00641946
v -0.32548 -1.62948 0.00785815
v -0.322837 -1.62942 0.00785531
v -0.320498 -1.6307 0.00771473
v -0.318693 -1.62971 0.00618502
v -0.316685 -1.63009 0.00432396
v -0.316727 -1.62841 0.00245885
v -0.31637 -1.62812 -0.000147551
v -0.31815 -1.62668 -0.000903258
v -0.319723 -1.62651 -0.00283994
v -0.322024 -1.62538 -0.0020687
v -0.324582 -1.62527 -0.00269925
v -0.314114 -1.63576 -0.00704898
v -0.316856 -1.63587 -0.00993838
v -0.3206 -1.63616 -0.0116182
v -0.317233 -1.63419 -0.00794148
v -0.320445 -1.634 -0.00933163
v -0.314974 -1.63453 -0.0055331
v -0.328404 -1.63419 -0.011527
v -0.331455 -1.63223 -0.00964753
v -0.330325 -1.63093 -0.00767204
v -0.327476 -1.63222 -0.00923658
v -0.324637 -1.63563 -0.0121642
v -0.324033 -1.63334 -0.00977459
v -0.329159 -1.63653 0.0078946
v -0.32474 -1.63793 0.00863973
v -0.320186 -1.63873 0.00767001
v -0.32447 -1.63667 0.00765794
v -0.320581 -1.63734 0.00683743
v -0.328247 -1.63546 0.00703283
v -0.332652 -1.63475 0.00550097
v -0.331287 -1.63391 0.00501889
v -0.316307 -1.63876 0.00508676
v -0.313752 -1.63801 0.00132307
v -0.317217 -1.63736 0.00465759
v -0.314932 -1.63671 0.0014884
v -0.313013 -1.63671 -0.00302597
v -0.314165 -1.63555 -0.0021641
v -0.330422 -1.62734 -0.00228242
v -0.328513 -1.62739 -0.0044087
v -0.325974 -1.62809 -0.00587086
v -0.315621 -1.6333 0.00310139
v -0.317646 -1.63384 0.00571285
v -0.320472 -1.63395 0.00751999
v -0.319829 -1.62965 -0.00600758
v -0.317195 -1.63022 -0.0047007
v -0.315382 -1.63106 -0.00270128
v -0.326896 -1.63238 0.00769461
v -0.329399 -1.63096 0.00603489
v -0.331021 -1.62951 0.00352829
v -0.331236 -1.6281 0.000601995
v -0.323718 -1.63333 0.00818652
v -0.314894 -1.63213 0.00014229
v -0.322905 -1.62884 -0.00629246
v -0.300846 -1.58564 0.0391864
v -0.301155 -1.59176 0.0340525
v -0.303585 -1.58932 0.0301642
v -0.303101 -1.58365 0.0355098
v -0.307511 -1.58715 0.0275487
v -0.306692 -1.58183 0.0330094
v -0.32319 -1.58399 0.0481026
v -0.323723 -1.58215 0.0438774
v -0.326473 -1.58818 0.0391012
v -0.32596 -1.59053 0.0436464
v -0.325049 -1.58628 0.0345168
v -0.322497 -1.58071 0.0396001
v -0.30031 -1.58748 0.04343
v -0.300639 -1.5941 0.0386006
v -0.302064 -1.59601 0.0431842
v -0.301532 -1.58892 0.0476889
v -0.304376 -1.58974 0.0514138
v -0.305269 -1.59719 0.0471765
v -0.30972 -1.59747 0.0499495
v -0.30837 -1.58983 0.05401
v -0.317344 -1.58779 0.0541814
v -0.320936 -1.58597 0.0517301
v -0.323538 -1.593 0.04753
v -0.319618 -1.5952 0.0501413
v -0.312927 -1.58914 0.0549701
v -0.31476 -1.59676 0.0509771
v -0.315658 -1.57979 0.0331807
v -0.311105 -1.58048 0.0322023
v -0.312369 -1.5856 0.026712
v -0.317406 -1.58488 0.0277422
v -0.319651 -1.57988 0.0358261
v -0.32185 -1.58513 0.0305202
v -0.318296 -1.57238 0.0472698
v -0.31612 -1.57227 0.0442304
v -0.317765 -1.57581 0.0403363
v -0.320249 -1.57623 0.0437488
v -0.314227 -1.57594 0.0379581
v -0.312977 -1.57258 0.0421395
v -0.309326 -1.57327 0.0413662
v -0.310155 -1.57663 0.0370786
v -0.306173 -1.57777 0.037801
v -0.305724 -1.57423 0.0419937
v -0.306317 -1.5775 0.0591082
v -0.309971 -1.5768 0.0598846
v -0.311319 -1.58243 0.0577328
v -0.307238 -1.58313 0.0568633
v -0.315312 -1.5813 0.0570201
v -0.313579 -1.57584 0.059253
v -0.316585 -1.57476 0.0572755
v -0.318596 -1.57988 0.0548008
v -0.320699 -1.57842 0.0515037
v -0.31855 -1.57373 0.0543092
v -0.301003 -1.57773 0.0539588
v -0.303174 -1.57782 0.0570079
v -0.303697 -1.58327 0.0545113
v -0.301216 -1.58285 0.051125
v -0.300763 -1.57638 0.0469185
v -0.300171 -1.57722 0.0504226
v -0.300211 -1.58194 0.0472369
v -0.300787 -1.58066 0.0433698
v -0.319136 -1.5729 0.0508019
v -0.321264 -1.57714 0.0476466
v -0.302893 -1.57919 0.0400465
v -0.302725 -1.57533 0.0439615
v -0.310693 -1.56131 0.061181
v -0.310973 -1.56079 0.0594046
v -0.313265 -1.56316 0.0578371
v -0.312862 -1.56373 0.0602238
v -0.315392 -1.56586 0.0559761
v -0.314887 -1.56647 0.0588662
v -0.312738 -1.5628 0.0554341
v -0.314751 -1.56548 0.0530741
v -0.310578 -1.56046 0.0576034
v -0.301929 -1.56281 0.0592128
v -0.300959 -1.56593 0.0575832
v -0.300288 -1.56927 0.0556683
v -0.301535 -1.56628 0.0599896
v -0.300962 -1.56962 0.0585824
v -0.302381 -1.56316 0.061004
v -0.30346 -1.56333 0.0625169
v -0.302966 -1.56635 0.0620439
v -0.302692 -1.56961 0.0610808
v -0.304999 -1.56615 0.0634471
v -0.305174 -1.56929 0.0627926
v -0.304973 -1.56329 0.0635425
v -0.308374 -1.56253 0.0636155
v -0.309774 -1.56192 0.0626519
v -0.311572 -1.56442 0.0622222
v -0.309631 -1.56511 0.0635433
v -0.313285 -1.56721 0.0612969
v -0.310881 -1.568 0.0629092
v -0.306694 -1.563 0.0639209
v -0.307331 -1.56572 0.0639645
v -0.308041 -1.56872 0.063424
v -0.308031 -1.56051 0.0550096
v -0.30627 -1.56084 0.054621
v -0.306897 -1.56337 0.0514761
v -0.309283 -1.56292 0.0519915
v -0.307609 -1.56626 0.048303
v -0.310526 -1.5657 0.0489243
v -0.309541 -1.56037 0.0560629
v -0.311331 -1.56272 0.0533875
v -0.313031 -1.56543 0.0506063
v -0.300657 -1.57236 0.0500415
v -0.302452 -1.57149 0.0473573
v -0.305183 -1.57055 0.0455865
v -0.317269 -1.56912 0.0536034
v -0.316701 -1.56977 0.0568281
v -0.316539 -1.56874 0.050364
v -0.300107 -1.57302 0.0532554
v -0.300847 -1.57338 0.056507
v -0.302795 -1.57335 0.0592978
v -0.305617 -1.57297 0.0612121
v -0.314887 -1.57059 0.0595426
v -0.312149 -1.57148 0.0613443
v -0.308897 -1.57231 0.0619191
v -0.308452 -1.5697 0.0450242
v -0.311756 -1.56906 0.0457207
v -0.314591 -1.56872 0.0476045
vt 0.0843 0.08419
vt 0.9167 0.08333
vt 0.2622 0.01042
vt 0.7396 0.9896
vt 0.7396 0.01042
vt 0.2612 0.01105
vt 0.08333 0.9167
vt 0.9896 0.7326
vt 1 0.4792
vt 0.7396 0.9896
vt 0.9167 0.08333
vt 0.2604 0.01042
vt 0 0.5
vt 0.7396 0.9896
vt 0.2619 0.01169
vt 0.08333 0.08333
vt 0.2612 0.01105
vt 0.7396 0.9896
vt 0.9167 0.08333
vt 0.08333 0.08333
vt 0.7396 0.9896
vt 0.9236 0.08333
vt 0.5003 0.0008831
vt 0.7396 0.9896
vt 0.2619 0.01169
vt 0.7413 0.008681
vt 0.08333 0.08333
vt 0.7396 0.9896
vt 0.4167 -2.384e-07
vt 0.2612 0.01105
vt 0.9896 0.2604
vt 0.08333 0.9167
vt 0.01042 0.7396
vt 0.9167 0.9167
vt 0.9896 0.2587
vt 0.5069 0
vt 0.9896 0.2604
vt 0.5 1
vt 0.08526 0.08505
vt 0.01042 0.2604
vt 0.9167 0.9167
vt 0.9896 0.25
vt 0.5 0
vt 0.9913 0.2604
vt 0.7396 0.9896
vt 0.5 1
vt 0.9896 0.25
vt 0.2604 0.01042
vt 0.01042 0.2604
vt 0.5 1
vt 0.0843 0.08419
vt 0.5 1
vt 0.9896 0.2587
vt 0.2622 0.01042
vt 1 0.08333
vt 0.5 1
vt 0.5002 0.0004414
vt 1 0.4931
vt 0 0.5
vt 0.7396 0.9896
vt 0 0.5
vt 1 0.4167
vt 0.5 1
vt 0.01042 0.7396
vt 0.2604 0.9896
vt 0.01042 0.7396
vt 0.9913 0.2604
vt 0.5 1
vt 0.08333 0.9167
vt 0.7396 0.01042
vt 0.01042 0.7396
vt 0 0.5
vt 0.4896 -1.192e-07
vt 0.01042 0.7396
vt 0.7396 0.01042
vt 1 0.5
vt 0.08333 0.9167
vt 0.01042 0.7396
vt 0.01042 0.7396
vt 0.4896 -1.192e-07
vt 1 0.5
vt 0.08333 0.9167
vt 0.7396 0.01042
vt 0.01042 0.7396
vt 1 0.2604
vt 0.01042 0.7396
vt 0.08333 0.9167
vt 0.7396 0.01042
vt 1 0.5
vt 0.5 -1.192e-07
vt 0.08333 0.9167
vt 0.9913 0.2604
vt 0.01042 0.7396
vt 0.01042 0.7396
vt 1 0.5
vt 0 0.5
vt 0.5104 -1.192e-07
vt 0.08333 0.9167
vt 0.7413 0.008681
vt 0.5 -1.192e-07
vt 0 0.5
vt 0.2604 0.9896
vt 0.08333 0.07639
vt 0.08333 0.07639
vt 0.5 1
vt 0.08333 0.9167
vt 0.2604 0.9896
vt 1 0.08333
vt 0 0.5
vt 0.01042 0.7396
vt 0.5 1
vt 0 0.5
vt 0.7396 0.01042
vt 0 0.5
vt 0.2604 0.9896
vt 0.9236 0.08333
vt 0.01042 0.7396
vt 0.01042 0.7396
vt 0.2604 0.9896
vt 0.9236 0.08333
vt 0.01042 0.7396
vt 0.5 1
vt 0.01042 0.7396
vt 0.08333 0.08333
vt 0.9167 0.08333
vt 0.08333 0.08333
vt 0.7396 0.01042
vt 0.008681 0.2517
vt 0.2622 0.00868
vt 0.01042 0.2604
vt 0.5104 -1.192e-07
vt 0.01042 0.2604
vt 0.08333 0.07639
vt 0 0.5
vt 0.5833 -2.384e-07
vt 0.01042 0.2587
vt 0.2674 0.01042
vt 0 0.5
vt 0.2674 0.01042
vt 0 0.5
vt 0.08333 0.08333
vt 0.01042 0.2587
vt 0.2622 0.00868
vt 0 0.5
vt 0.2604 -1.192e-07
vt 0.01042 0.2604
vt 0.2622 0.00868
vt 0.08333 0.9167
vt 0.08333 -1.192e-07
vt 0.008681 0.2517
vt 0.2604 -1.192e-07
vt 0.01042 0.2604
vt 0.2604 0.9896
vt 0.01042 0.2587
vt 0.01042 0.2604
vt 0.2604 0.9896
vt 0.08333 0.07639
vt 0 0.5
vt 0.2622 0.00868
vt 0.08333 0.9167
vt 0.08333 0.08333
vt 0.01042 0.2587
vt 0 0.5
vt 0.2604 0.9896
vt 0.01042 0.2604
vt 0.08333 -1.192e-07
vt 0.08333 0.9167
vt 0.01042 0.2604
vt 0.01042 0.2604
vt 0.08333 0.9167
vt 0.08333 0.08333
vt 0 0.5
vt 0.08333 0.08333
vt 0.01042 0.2604
vt 0 0.5
vt 0.01042 0.2604
vt 0.01042 0.2604
vt 0.08333 0.08333
vt 0.01042 0.2604
vt 0 0.5
vt 0.08333 0.08333
vt 0 0.5
vt 0.01042 0.2604
vt 0.01042 0.2604
vt 0.9167 0.9167
vt 0.9167 0.9167
vt 0.5 1
vt 0.01042 0.2604
vt 0.9896 0.7378
vt 0.5833 -3.576e-07
vt 0.08333 0.08333
vt 0.7396 0.9896
vt 0.5 1
vt 0.5069 0
vt 0.9896 0.7326
vt 0 0.5
vt 0.9896 0.2604
vt 0.7396 0.9896
vt 0.7413 0.01042
vt 0.9896 0.7326
vt 0.9896 0.2587
vt 0.7396 0.9896
vt 0.75 0.01042
vt 0.9896 0.7378
vt 0.01042 0.2604
vt 0.7396 0.9896
vt 0.9167 0.9167
vt 0.75 0.01042
vt 1 0.4931
vt 0.9167 0.08333
vt 0.7413 0.01042
vt 1 0.4167
vt 0.9167 0.9167
vt 0.9167 0.08333
vt 0.9896 0.7378
vt 0.9167 0.08333
vt 0.9167 0.08333
vt 0.9896 0.7396
vt 0.9167 0.9167
vt 0.08333 0.08333
vt 1 0.5
vt 0.08333 0.9167
vt 0.2604 0.9896
vt 0.9167 0.9167
vt 0.08333 0.08333
vt 1 0.4931
vt 0.9896 0.2604
vt 0.9167 0.9167
vt 0.9896 0.7326
vt 0.2622 0.01042
vt 0.9167 0.9167
vt 0.9896 0.2587
vt 0.2604 0.9896
vt 0.9896 0.7361
vt 0.2674 0.01042
vt 0.9167 0.9167
vt 1 0.5
vt 0.9167 0.9167
vt 0.9896 0.7326
vt 0.2674 0.01042
vt 0.9896 0.7396
vt 0.08333 0.9167
vt 0.9896 0.7361
vt 0.2622 0.01042
vt 0.9896 0.7378
vt 1 0.4931
vt 0.5069 0
vt 0.08333 0.9167
vt 0.08392 0.9161
vt 0.5833 0
vt 0.2604 0.01042
vt 0.9167 0.9167
vt 0.2608 0.989
vt 0.9167 0.08333
vt 0.08333 0.9167
vt 0.9896 0.7361
vt 0.9236 0.08333
vt 0.9896 0.7326
vt 0.5 -1.192e-07
vt 0.7396 0.9896
vt 0.2604 0.9896
vt 0.2604 0.9896
vt 1 0.2604
vt 1 0.4167
vt 0.2604 0.01042
vt 0.7396 0.9896
vt 0.2604 0.9896
vt 0.2604 0.9896
vt 0.7413 0.01042
vt 1 0.4167
vt 0.2612 0.01105
vt 0.5002 0.0004414
vt 0.9167 0.9167
vt 0.2608 0.989
vt 0.9167 0.08333
vt 0.2604 0.9896
vt 1 0.4792
vt 0.7396 0.9896
vt 0.5 0.9995
vt 0.2604 0.9896
vt 0.08333 0.08333
vt 0.9167 0.9167
vt 0.5 1
vt 0.9913 0.2604
vt 0.5 1
vt 0.9896 0.7361
vt 0.9167 0.9167
vt 0.2608 0.989
vt 0.5 1
vt 0.2604 0.9896
vt 0.2633 0.985
vt 0.5 1
vt 0.5 0.9958
vt 0.2604 0.9896
vt 0.7396 0.01042
vt 0.5 0.9995
vt 0.7413 0.01042
vt 0.08392 0.9161
vt 0.5 1
vt 0.088 0.912
vt 0.5069 0
vt 0.2633 0.985
vt 0.2608 0.989
vt 0.5 0
vt 0.9167 0.9167
vn 0.902 0.3908 -0.1834
vn 0.9029 0.3662 -0.225
vn 0.7111 0.5219 -0.4711
vn 0.7177 0.5422 -0.4369
vn 0.4477 0.6464 -0.6178
vn 0.4552 0.6664 -0.5905
vn 0.7197 0.4606 -0.5194
vn 0.4468 0.597 -0.6662
vn 0.9206 0.2834 -0.2687
vn -0.8051 0.5416 -0.242
vn -0.5304 0.6911 -0.4909
vn -0.4935 0.6945 -0.5236
vn -0.7992 0.5372 -0.2696
vn -0.446 0.6823 -0.5792
vn -0.7885 0.5303 -0.3114
vn -0.1609 0.7218 -0.6731
vn -0.1189 0.6899 -0.714
vn -0.1979 0.7309 -0.6531
vn 0.1469 0.6857 -0.7129
vn 0.1475 0.6749 -0.723
vn 0.1422 0.6426 -0.7528
vn 0.4425 0.5798 -0.684
vn 0.3903 0.5693 -0.7235
vn 0.4781 0.5733 -0.6654
vn -0.964 -0.01962 0.2651
vn -0.969 -0.03668 0.2444
vn -0.8318 -0.3053 0.4635
vn -0.8301 -0.2777 0.4835
vn -0.5507 -0.5631 0.6161
vn -0.5521 -0.5195 0.6522
vn -0.8219 -0.3746 0.429
vn -0.5351 -0.6229 0.5707
vn -0.9732 -0.1091 0.2022
vn 0.2867 -0.6064 0.7416
vn -0.1149 -0.5651 0.8169
vn -0.1318 -0.63 0.7653
vn 0.2891 -0.6672 0.6865
vn -0.1466 -0.6832 0.7154
vn 0.2855 -0.7103 0.6434
vn -0.5319 -0.4789 0.6984
vn -0.4993 -0.4256 0.7547
vn -0.786 -0.218 0.5784
vn -0.8134 -0.2591 0.5207
vn -0.9562 -0.007813 0.2926
vn -0.9416 0.02979 0.3355
vn 0.8637 -0.3931 0.3153
vn 0.6243 -0.5455 0.5591
vn 0.6286 -0.5924 0.5039
vn 0.8599 -0.4301 0.2748
vn 0.6339 -0.6128 0.4718
vn 0.8632 -0.438 0.2509
vn 0.9557 0.1293 -0.2641
vn 0.9872 -0.1562 0.03052
vn 0.9835 -0.1807 0.005158
vn 0.9467 0.1328 -0.2935
vn 0.9821 -0.187 -0.01965
vn 0.9299 0.1408 -0.3397
vn -0.9527 0.2995 0.05118
vn -0.962 0.2718 0.02554
vn -0.9665 0.2568 0.001801
vn 0.7313 0.4104 -0.5447
vn 0.7662 0.3889 -0.5115
vn 0.6762 0.4249 -0.6017
vn 0.3143 0.3973 -0.8622
vn 0.311 -0.1965 -0.9299
vn -0.05179 -0.1301 -0.9901
vn 0.09754 0.4559 -0.8846
vn -0.4133 -0.02219 -0.9103
vn -0.1375 0.5041 -0.8526
vn -0.2241 -0.8646 -0.4497
vn -0.5459 -0.7327 -0.4063
vn 0.12 -0.8985 -0.4221
vn 0.2608 -0.7474 0.611
vn 0.6217 -0.6361 0.457
vn 0.8621 -0.4503 0.2322
vn 0.5781 -0.6975 0.4234
vn 0.8323 -0.5218 0.1869
vn 0.2151 -0.7949 0.5674
vn 0.9777 -0.2035 -0.05225
vn 0.908 0.1272 -0.3992
vn 0.9483 -0.2975 -0.11
vn 0.8821 0.005066 -0.4709
vn -0.7855 0.5014 -0.3628
vn -0.9727 0.2307 -0.02585
vn -0.9879 0.1352 -0.0752
vn -0.8223 0.38 -0.4235
vn 0.6168 0.4124 -0.6704
vn 0.3356 0.5358 -0.7747
vn 0.6015 0.2692 -0.7521
vn -0.08707 0.6364 -0.7664
vn -0.4101 0.6442 -0.6456
vn -0.4719 0.5086 -0.7201
vn 0.1311 0.5909 -0.796
vn -0.1597 -0.7278 0.6669
vn -0.1729 -0.7721 0.6115
vn -0.8172 -0.4966 -0.2924
vn -0.3174 -0.948 0.02182
vn -0.2509 -0.9394 -0.2335
vn -0.8423 -0.4948 -0.2135
vn -0.2633 -0.908 -0.3258
vn -0.8122 -0.5817 -0.04364
vn 0.6269 -0.7669 -0.1372
vn 0.6041 -0.6416 -0.4727
vn 0.4551 -0.8503 0.2644
vn -0.5103 -0.7266 0.46
vn -0.1942 -0.8453 0.4977
vn 0.138 -0.8795 0.4554
vn -0.2216 -0.9342 0.2794
vn 0.01898 -0.9704 0.2407
vn -0.456 -0.855 0.2469
vn -0.9467 -0.3057 0.101
vn -0.7852 -0.5265 0.3259
vn -0.6724 -0.7274 0.1371
vn 0.4665 -0.8263 0.3154
vn 0.7071 -0.7028 0.07807
vn 0.2586 -0.9581 0.123
vn 0.4381 -0.8964 -0.06781
vn 0.811 -0.5512 -0.196
vn 0.7818 -0.3652 -0.5053
vn 0.4978 -0.8318 -0.2457
vn 0.4739 -0.8154 -0.3325
vn -0.8944 0.01978 -0.4468
vn -0.9794 -0.1296 -0.1545
vn 0.5922 -0.2409 -0.7689
vn 0.3648 -0.8516 -0.3764
vn -0.6881 0.05963 -0.7231
vn -0.7412 -0.5793 -0.3391
vn 0.4148 -0.9097 0.02026
vn 0.09238 -0.9887 0.1175
vn -0.2294 -0.8883 -0.3978
vn 0.364 -0.8707 -0.3308
vn 0.5181 -0.6502 -0.5557
vn 0.2715 -0.6218 -0.7346
vn 0.1787 -0.368 -0.9125
vn -0.1304 -0.4323 -0.8922
vn -0.371 -0.2409 -0.8968
vn -0.5591 -0.4259 -0.7113
vn -0.7757 -0.3458 -0.5279
vn -0.7312 -0.6093 -0.3066
vn -0.7786 -0.6257 0.04755
vn -0.532 -0.8364 0.1316
vn -0.3763 -0.8122 0.4458
vn -0.2271 -0.9294 0.2907
vn -0.02637 -0.8995 0.436
vn -0.151 -0.9884 0.01633
vn -0.07904 -0.9655 0.2481
vn -0.1141 -0.928 0.3545
vn -0.4726 -0.6486 0.5965
vn -0.2673 -0.6462 0.7148
vn -0.7655 -0.5735 0.2918
vn -0.3245 -0.8759 0.357
vn -0.3666 -0.8953 0.2529
vn 0.1609 -0.7999 0.5781
vn -0.03928 -0.7047 0.7084
vn -0.2209 -0.8963 0.3844
vn -0.1545 -0.6535 0.741
vn -0.2389 -0.9142 -0.3272
vn -0.2321 -0.9145 -0.3312
vn -0.2261 -0.9185 -0.3242
vn -0.0878 -0.2557 -0.9627
vn -0.3962 -0.2214 -0.891
vn 0.2132 -0.3579 -0.9091
vn -0.2552 -0.9094 -0.3285
vn 0.4577 -0.4962 -0.7378
vn -0.2091 -0.923 -0.3229
vn -0.198 -0.9264 -0.3202
vn -0.659 -0.2456 -0.7109
vn -0.8367 -0.3181 -0.4457
vn -0.2159 -0.9483 -0.2328
vn -0.8988 -0.424 -0.111
vn 0.5987 -0.7667 0.2315
vn 0.308 -0.7836 0.5395
vn 0.0408 -0.7181 0.6948
vn -0.889 -0.06464 -0.4532
vn -0.6733 0.05747 -0.7371
vn -0.3673 0.09967 -0.9247
vn -0.3415 -0.6229 0.7037
vn -0.6005 -0.5686 0.5622
vn -0.8641 -0.4304 0.2609
vn 0.3341 -0.05585 -0.9409
vn 0.6061 -0.2286 -0.7618
vn 0.76 -0.437 -0.481
vn 0.7697 -0.6201 -0.1516
vn -0.008942 0.06876 -0.9976
vn -0.9666 -0.2246 -0.1234
vn -0.1515 -0.6587 0.737
vn 0.9521 0.1793 -0.2478
vn 0.9574 0.1441 -0.25
vn 0.7793 0.3847 -0.4946
vn 0.7721 0.4171 -0.4794
vn 0.4946 0.5738 -0.6527
vn 0.4934 0.6088 -0.6213
vn -0.908 0.1421 0.394
vn -0.9216 0.3808 0.07453
vn -0.9373 0.3413 0.07025
vn -0.9228 0.09003 0.3744
vn -0.7988 0.5563 -0.2288
vn -0.7791 0.5841 -0.2278
vn 0.996 -0.07038 0.05457
vn 0.9923 -0.1133 0.04971
vn 0.8745 -0.3321 0.3534
vn 0.8849 -0.2791 0.373
vn 0.6447 -0.4099 0.6452
vn 0.6324 -0.4749 0.6119
vn 0.2951 -0.5295 0.7953
vn 0.3102 -0.4534 0.8356
vn -0.4486 -0.2779 0.8494
vn -0.741 -0.08676 0.6658
vn -0.76 -0.1507 0.6322
vn -0.4704 -0.3529 0.8088
vn -0.07593 -0.4073 0.9101
vn -0.09552 -0.4876 0.8678
vn -0.1993 0.7674 -0.6094
vn 0.1543 0.7302 -0.6655
vn 0.1469 0.6952 -0.7036
vn -0.2147 0.7378 -0.6399
vn -0.5234 0.7167 -0.4608
vn -0.5432 0.6926 -0.4746
vn -0.7476 0.6078 -0.2676
vn -0.4775 0.7238 -0.4981
vn -0.4897 0.7385 -0.4634
vn -0.7563 0.6079 -0.2417
vn -0.1708 0.7894 -0.5896
vn -0.1646 0.7621 -0.6261
vn 0.1524 0.7268 -0.6697
vn 0.1603 0.7568 -0.6337
vn 0.4768 0.6423 -0.6001
vn 0.4572 0.6209 -0.6367
vn 0.3047 -0.4187 0.8555
vn -0.06687 -0.3726 0.9256
vn -0.0636 -0.3569 0.9319
vn 0.3159 -0.4071 0.857
vn -0.4321 -0.2339 0.871
vn -0.4264 -0.25 0.8693
vn -0.7226 -0.06247 0.6883
vn -0.728 -0.05353 0.6835
vn -0.9006 0.1694 0.4002
vn -0.8999 0.1727 0.4005
vn 0.8915 -0.2473 0.3794
vn 0.6406 -0.3797 0.6674
vn 0.6485 -0.3746 0.6626
vn 0.8906 -0.2509 0.3792
vn 0.9328 0.2171 -0.2875
vn 0.9988 -0.03323 0.03406
vn 0.998 -0.04163 0.04669
vn 0.9415 0.2129 -0.2611
vn -0.9086 0.4141 0.05377
vn -0.9113 0.4063 0.06626
vn 0.7504 0.4537 -0.4806
vn 0.7312 0.4464 -0.5159
vn -0.7432 0.4798 0.4662
vn -0.7571 0.6372 0.1441
vn -0.7859 0.609 0.107
vn -0.785 0.4365 0.4395
vn -0.8532 0.5157 0.07785
vn -0.8527 0.3041 0.4248
vn -0.6549 0.7271 -0.2058
vn -0.7071 0.6621 -0.2485
vn -0.642 0.7485 -0.1658
vn 0.9639 0.2332 0.1286
vn 0.9765 0.1958 0.08963
vn 0.9949 0.08176 0.05887
vn 0.9061 0.03797 0.4213
vn 0.9079 -0.1097 0.4045
vn 0.8883 0.09464 0.4493
vn 0.6864 -0.00238 0.7272
vn 0.6966 -0.07865 0.7131
vn 0.672 -0.2501 0.697
vn 0.3782 -0.1246 0.9173
vn 0.3363 -0.3085 0.8898
vn 0.3831 -0.03504 0.923
vn -0.324 0.1306 0.937
vn -0.5946 0.2994 0.7462
vn -0.6388 0.2352 0.7325
vn -0.3612 0.04822 0.9312
vn -0.6927 0.06842 0.7179
vn -0.4049 -0.137 0.904
vn 0.02411 0.009735 0.9996
vn 0.001556 -0.08209 0.9966
vn -0.04236 -0.2709 0.9617
vn -0.1464 0.8022 -0.5788
vn 0.1563 0.7544 -0.6374
vn 0.1518 0.7338 -0.6621
vn -0.1484 0.7814 -0.6061
vn 0.1419 0.6897 -0.71
vn -0.1686 0.7372 -0.6543
vn -0.4243 0.8028 -0.4189
vn -0.428 0.7823 -0.4525
vn -0.4621 0.7323 -0.5002
vn 0.9287 0.2224 -0.2966
vn 0.7236 0.4265 -0.5426
vn 0.4469 0.5802 -0.6809
vn -0.8982 0.4361 0.05521
vn -0.8919 0.1974 0.4068
vn -0.7414 0.6116 -0.276
vn 0.9993 -0.009461 0.0354
vn 0.8955 -0.2218 0.3857
vn 0.6414 -0.3674 0.6735
vn 0.301 -0.4222 0.8551
vn -0.7176 -0.05152 0.6946
vn -0.4241 -0.2553 0.8688
vn -0.06912 -0.3838 0.9208
vn 0.14 0.6789 -0.7207
vn -0.1752 0.7222 -0.6691
vn -0.4802 0.7038 -0.5235
f 1/1/1 2/2/2 3/3/3
f 1/1/1 3/3/3 4/4/4
f 4/4/4 3/3/3 5/5/5
f 4/4/4 5/5/5 6/6/6
f 3/3/3 7/7/7 8/8/8
f 3/3/3 8/8/8 5/5/5
f 2/2/2 9/9/9 7/7/7
f 2/2/2 7/7/7 3/3/3
f 10/10/10 11/11/11 12/12/12
f 10/10/10 12/12/12 13/13/13
f 13/13/13 12/12/12 14/14/14
f 13/13/13 14/14/14 15/15/15
f 12/12/12 16/16/16 17/17/17
f 12/12/12 17/17/17 14/14/14
f 11/11/11 18/18/18 16/16/16
f 11/11/11 16/16/16 12/12/12
f 18/18/18 19/19/19 20/20/20
f 18/18/18 20/20/20 16/16/16
f 16/16/16 20/20/20 21/21/21
f 16/16/16 21/21/21 17/17/17
f 20/20/20 22/22/22 23/23/23
f 20/20/20 23/23/23 21/21/21
f 19/19/19 24/24/24 22/22/22
f 19/19/19 22/22/22 20/20/20
f 25/25/25 26/26/26 27/27/27
f 25/25/25 27/27/27 28/28/28
f 28/28/28 27/27/27 29/29/29
f 28/28/28 29/29/29 30/30/30
f 27/27/27 31/31/31 32/32/32
f 27/27/27 32/32/32 29/29/29
f 26/26/26 33/33/33 31/31/31
f 26/26/26 31/31/31 27/27/27
f 34/34/34 35/35/35 36/36/36
f 34/34/34 36/36/36 37/37/37
f 37/37/37 36/36/36 38/38/38
f 37/37/37 38/38/38 39/39/39
f 36/36/36 40/40/40 30/30/30
f 36/36/36 30/30/30 38/38/38
f 35/35/35 41/41/41 40/40/40
f 35/35/35 40/40/40 36/36/36
f 41/41/41 42/42/42 43/43/43
f 41/41/41 43/43/43 40/40/40
f 40/40/40 43/43/43 28/28/28
f 40/40/40 28/28/28 30/30/30
f 43/43/43 44/44/44 25/25/25
f 43/43/43 25/25/25 28/28/28
f 42/42/42 45/45/45 44/44/44
f 42/42/42 44/44/44 43/43/43
f 46/46/46 47/47/47 48/48/48
f 46/46/46 48/48/48 49/49/49
f 49/49/49 48/48/48 50/50/50
f 49/49/49 50/50/50 51/51/51
f 48/48/48 37/37/37 39/39/39
f 48/48/48 39/39/39 50/50/50
f 47/47/47 34/34/34 37/37/37
f 47/47/47 37/37/37 48/48/48
f 52/52/52 53/53/53 54/54/54
f 52/52/52 54/54/54 55/55/55
f 55/55/55 54/54/54 56/56/56
f 55/55/55 56/56/56 57/57/57
f 54/54/54 49/49/49 51/51/51
f 54/54/54 51/51/51 56/56/56
f 53/53/53 46/46/46 49/49/49
f 53/53/53 49/49/49 54/54/54
f 45/45/45 58/58/58 59/59/59
f 45/45/45 59/59/59 44/44/44
f 44/44/44 59/59/59 60/60/60
f 44/44/44 60/60/60 25/25/25
f 59/59/59 13/13/13 15/15/15
f 59/59/59 15/15/15 60/60/60
f 58/58/58 10/10/10 13/13/13
f 58/58/58 13/13/13 59/59/59
f 52/52/52 55/55/55 61/61/61
f 52/52/52 61/61/61 62/62/62
f 62/62/62 61/61/61 22/22/22
f 62/62/62 22/22/22 24/24/24
f 61/61/61 63/63/63 23/23/23
f 61/61/61 23/23/23 22/22/22
f 55/55/55 57/57/57 63/63/63
f 55/55/55 63/63/63 61/61/61
f 64/64/64 65/65/65 66/66/66
f 64/64/64 66/66/66 67/67/67
f 67/67/67 66/66/66 68/68/68
f 67/67/67 68/68/68 69/69/69
f 66/66/66 70/70/70 71/71/71
f 66/66/66 71/71/71 68/68/68
f 65/65/65 72/72/72 70/70/70
f 65/65/65 70/70/70 66/66/66
f 39/39/39 73/73/73 74/74/74
f 39/39/39 74/74/74 50/50/50
f 50/50/50 74/74/74 75/75/75
f 50/50/50 75/75/75 51/51/51
f 74/74/74 76/76/76 77/77/77
f 74/74/74 77/77/77 75/75/75
f 73/73/73 78/78/78 76/76/76
f 73/73/73 76/76/76 74/74/74
f 51/51/51 75/75/75 79/79/79
f 51/51/51 79/79/79 56/56/56
f 56/56/56 79/79/79 80/80/80
f 56/56/56 80/80/80 57/57/57
f 79/79/79 81/81/81 82/82/82
f 79/79/79 82/82/82 80/80/80
f 75/75/75 77/77/77 81/81/81
f 75/75/75 81/81/81 79/79/79
f 15/15/15 83/83/83 84/84/84
f 15/15/15 84/84/84 60/60/60
f 60/60/60 84/84/84 26/26/26
f 60/60/60 26/26/26 25/25/25
f 84/84/84 85/85/85 33/33/33
f 84/84/84 33/33/33 26/26/26
f 83/83/83 86/86/86 85/85/85
f 83/83/83 85/85/85 84/84/84
f 57/57/57 80/80/80 87/87/87
f 57/57/57 87/87/87 63/63/63
f 63/63/63 87/87/87 88/88/88
f 63/63/63 88/88/88 23/23/23
f 87/87/87 89/89/89 64/64/64
f 87/87/87 64/64/64 88/88/88
f 80/80/80 82/82/82 89/89/89
f 80/80/80 89/89/89 87/87/87
f 17/17/17 90/90/90 91/91/91
f 17/17/17 91/91/91 14/14/14
f 14/14/14 91/91/91 83/83/83
f 14/14/14 83/83/83 15/15/15
f 91/91/91 92/92/92 86/86/86
f 91/91/91 86/86/86 83/83/83
f 90/90/90 69/69/69 92/92/92
f 90/90/90 92/92/92 91/91/91
f 23/23/23 88/88/88 93/93/93
f 23/23/23 93/93/93 21/21/21
f 21/21/21 93/93/93 90/90/90
f 21/21/21 90/90/90 17/17/17
f 93/93/93 67/67/67 69/69/69
f 93/93/93 69/69/69 90/90/90
f 88/88/88 64/64/64 67/67/67
f 88/88/88 67/67/67 93/93/93
f 30/30/30 29/29/29 94/94/94
f 30/30/30 94/94/94 38/38/38
f 38/38/38 94/94/94 73/73/73
f 38/38/38 73/73/73 39/39/39
f 94/94/94 95/95/95 78/78/78
f 94/94/94 78/78/78 73/73/73
f 29/29/29 32/32/32 95/95/95
f 29/29/29 95/95/95 94/94/94
f 96/96/96 97/97/97 98/98/98
f 96/96/96 98/98/98 99/99/99
f 99/99/99 98/98/98 100/100/100
f 99/99/99 100/100/100 101/101/101
f 98/98/98 102/102/102 103/103/103
f 98/98/98 103/103/103 100/100/100
f 97/97/97 104/104/104 102/102/102
f 97/97/97 102/102/102 98/98/98
f 32/32/32 105/105/105 106/106/106
f 32/32/32 106/106/106 95/95/95
f 95/95/95 106/106/106 107/107/107
f 95/95/95 107/107/107 78/78/78
f 106/106/106 108/108/108 109/109/109
f 106/106/106 109/109/109 107/107/107
f 105/105/105 110/110/110 108/108/108
f 105/105/105 108/108/108 106/106/106
f 33/33/33 111/111/111 112/112/112
f 33/33/33 112/112/112 31/31/31
f 31/31/31 112/112/112 105/105/105
f 31/31/31 105/105/105 32/32/32
f 112/112/112 113/113/113 110/110/110
f 112/112/112 110/110/110 105/105/105
f 111/111/111 101/101/101 113/113/113
f 111/111/111 113/113/113 112/112/112
f 78/78/78 107/107/107 114/114/114
f 78/78/78 114/114/114 76/76/76
f 76/76/76 114/114/114 115/115/115
f 76/76/76 115/115/115 77/77/77
f 114/114/114 116/116/116 117/117/117
f 114/114/114 117/117/117 115/115/115
f 107/107/107 109/109/109 116/116/116
f 107/107/107 116/116/116 114/114/114
f 77/77/77 115/115/115 118/118/118
f 77/77/77 118/118/118 81/81/81
f 81/81/81 118/118/118 119/119/119
f 81/81/81 119/119/119 82/82/82
f 118/118/118 120/120/120 121/121/121
f 118/118/118 121/121/121 119/119/119
f 115/115/115 117/117/117 120/120/120
f 115/115/115 120/120/120 118/118/118
f 86/86/86 122/122/122 123/123/123
f 86/86/86 123/123/123 85/85/85
f 85/85/85 123/123/123 111/111/111
f 85/85/85 111/111/111 33/33/33
f 123/123/123 99/99/99 101/101/101
f 123/123/123 101/101/101 111/111/111
f 122/122/122 96/96/96 99/99/99
f 122/122/122 99/99/99 123/123/123
f 82/82/82 119/119/119 124/124/124
f 82/82/82 124/124/124 89/89/89
f 89/89/89 124/124/124 65/65/65
f 89/89/89 65/65/65 64/64/64
f 124/124/124 125/125/125 72/72/72
f 124/124/124 72/72/72 65/65/65
f 119/119/119 121/121/121 125/125/125
f 119/119/119 125/125/125 124/124/124
f 69/69/69 68/68/68 126/126/126
f 69/69/69 126/126/126 92/92/92
f 92/92/92 126/126/126 122/122/122
f 92/92/92 122/122/122 86/86/86
f 126/126/126 127/127/127 96/96/96
f 126/126/126 96/96/96 122/122/122
f 68/68/68 71/71/71 127/127/127
f 68/68/68 127/127/127 126/126/126
f 128/128/128 129/129/129 130/130/130
f 128/128/128 130/130/130 131/131/131
f 132/132/132 131/131/131 130/130/130
f 132/132/132 130/130/130 133/133/133
f 134/134/134 133/133/133 130/130/130
f 134/134/134 130/130/130 135/135/135
f 136/136/136 135/135/135 130/130/130
f 136/136/136 130/130/130 137/137/137
f 138/138/138 137/137/137 130/130/130
f 138/138/138 130/130/130 139/139/139
f 140/140/140 139/139/139 130/130/130
f 140/140/140 130/130/130 141/141/141
f 142/142/142 141/141/141 130/130/130
f 142/142/142 130/130/130 143/143/143
f 144/144/144 143/143/143 130/130/130
f 144/144/144 130/130/130 129/129/129
f 121/121/121 145/145/145 146/146/146
f 121/121/121 146/146/146 125/125/125
f 125/125/125 146/146/146 147/147/147
f 125/125/125 147/147/147 72/72/72
f 146/146/146 148/148/148 149/149/149
f 146/146/146 149/149/149 147/147/147
f 145/145/145 150/150/150 148/148/148
f 145/145/145 148/148/148 146/146/146
f 71/71/71 151/151/151 152/152/152
f 71/71/71 152/152/152 127/127/127
f 127/127/127 152/152/152 97/97/97
f 127/127/127 97/97/97 96/96/96
f 152/152/152 153/153/153 104/104/104
f 152/152/152 104/104/104 97/97/97
f 151/151/151 154/154/154 153/153/153
f 151/151/151 153/153/153 152/152/152
f 72/72/72 147/147/147 155/155/155
f 72/72/72 155/155/155 70/70/70
f 70/70/70 155/155/155 151/151/151
f 70/70/70 151/151/151 71/71/71
f 155/155/155 156/156/156 154/154/154
f 155/155/155 154/154/154 151/151/151
f 147/147/147 149/149/149 156/156/156
f 147/147/147 156/156/156 155/155/155
f 110/110/110 157/157/157 158/158/158
f 110/110/110 158/158/158 108/108/108
f 108/108/108 158/158/158 159/159/159
f 108/108/108 159/159/159 109/109/109
f 158/158/158 160/160/160 161/161/161
f 158/158/158 161/161/161 159/159/159
f 157/157/157 162/162/162 160/160/160
f 157/157/157 160/160/160 158/158/158
f 101/101/101 100/100/100 163/163/163
f 101/101/101 163/163/163 113/113/113
f 113/113/113 163/163/163 157/157/157
f 113/113/113 157/157/157 110/110/110
f 163/163/163 164/164/164 162/162/162
f 163/163/163 162/162/162 157/157/157
f 100/100/100 103/103/103 164/164/164
f 100/100/100 164/164/164 163/163/163
f 109/109/109 159/159/159 165/165/165
f 109/109/109 165/165/165 116/116/116
f 116/116/116 165/165/165 166/166/166
f 116/116/116 166/166/166 117/117/117
f 165/165/165 167/167/167 168/168/168
f 165/165/165 168/168/168 166/166/166
f 159/159/159 161/161/161 167/167/167
f 159/159/159 167/167/167 165/165/165
f 117/117/117 166/166/166 169/169/169
f 117/117/117 169/169/169 120/120/120
f 120/120/120 169/169/169 145/145/145
f 120/120/120 145/145/145 121/121/121
f 169/169/169 170/170/170 150/150/150
f 169/169/169 150/150/150 145/145/145
f 166/166/166 168/168/168 170/170/170
f 166/166/166 170/170/170 169/169/169
f 128/128/128 171/171/171 172/172/172
f 128/128/128 172/172/172 129/129/129
f 129/129/129 172/172/172 173/173/173
f 129/129/129 173/173/173 144/144/144
f 172/172/172 153/153/153 154/154/154
f 172/172/172 154/154/154 173/173/173
f 171/171/171 104/104/104 153/153/153
f 171/171/171 153/153/153 172/172/172
f 138/138/138 174/174/174 175/175/175
f 138/138/138 175/175/175 137/137/137
f 137/137/137 175/175/175 176/176/176
f 137/137/137 176/176/176 136/136/136
f 175/175/175 167/167/167 161/161/161
f 175/175/175 161/161/161 176/176/176
f 174/174/174 168/168/168 167/167/167
f 174/174/174 167/167/167 175/175/175
f 142/142/142 177/177/177 178/178/178
f 142/142/142 178/178/178 141/141/141
f 141/141/141 178/178/178 179/179/179
f 141/141/141 179/179/179 140/140/140
f 178/178/178 148/148/148 150/150/150
f 178/178/178 150/150/150 179/179/179
f 177/177/177 149/149/149 148/148/148
f 177/177/177 148/148/148 178/178/178
f 134/134/134 180/180/180 181/181/181
f 134/134/134 181/181/181 133/133/133
f 133/133/133 181/181/181 182/182/182
f 133/133/133 182/182/182 132/132/132
f 181/181/181 164/164/164 103/103/103
f 181/181/181 103/103/103 182/182/182
f 180/180/180 162/162/162 164/164/164
f 180/180/180 164/164/164 181/181/181
f 132/132/132 182/182/182 183/183/183
f 132/132/132 183/183/183 131/131/131
f 131/131/131 183/183/183 171/171/171
f 131/131/131 171/171/171 128/128/128
f 183/183/183 102/102/102 104/104/104
f 183/183/183 104/104/104 171/171/171
f 182/182/182 103/103/103 102/102/102
f 182/182/182 102/102/102 183/183/183
f 136/136/136 176/176/176 184/184/184
f 136/136/136 184/184/184 135/135/135
f 135/135/135 184/184/184 180/180/180
f 135/135/135 180/180/180 134/134/134
f 184/184/184 160/160/160 162/162/162
f 184/184/184 162/162/162 180/180/180
f 176/176/176 161/161/161 160/160/160
f 176/176/176 160/160/160 184/184/184
f 140/140/140 179/179/179 185/185/185
f 140/140/140 185/185/185 139/139/139
f 139/139/139 185/185/185 174/174/174
f 139/139/139 174/174/174 138/138/138
f 185/185/185 170/170/170 168/168/168
f 185/185/185 168/168/168 174/174/174
f 179/179/179 150/150/150 170/170/170
f 179/179/179 170/170/170 185/185/185
f 144/144/144 173/173/173 186/186/186
f 144/144/144 186/186/186 143/143/143
f 143/143/143 186/186/186 177/177/177
f 143/143/143 177/177/177 142/142/142
f 186/186/186 156/156/156 149/149/149
f 186/186/186 149/149/149 177/177/177
f 173/173/173 154/154/154 156/156/156
f 173/173/173 156/156/156 186/186/186
f 187/187/187 188/188/188 189/189/189
f 187/187/187 189/189/189 190/190/190
f 190/190/190 189/189/189 191/191/191
f 190/190/190 191/191/191 192/192/192
f 189/189/189 62/62/62 24/24/24
f 189/189/189 24/24/24 191/191/191
f 188/188/188 52/52/52 62/62/62
f 188/188/188 62/62/62 189/189/189
f 193/193/193 194/194/194 195/195/195
f 193/193/193 195/195/195 196/196/196
f 196/196/196 195/195/195 58/58/58
f 196/196/196 58/58/58 45/45/45
f 195/195/195 197/197/197 10/10/10
f 195/195/195 10/10/10 58/58/58
f 194/194/194 198/198/198 197/197/197
f 194/194/194 197/197/197 195/195/195
f 187/187/187 199/199/199 200/200/200
f 187/187/187 200/200/200 188/188/188
f 188/188/188 200/200/200 53/53/53
f 188/188/188 53/53/53 52/52/52
f 200/200/200 201/201/201 46/46/46
f 200/200/200 46/46/46 53/53/53
f 199/199/199 202/202/202 201/201/201
f 199/199/199 201/201/201 200/200/200
f 202/202/202 203/203/203 204/204/204
f 202/202/202 204/204/204 201/201/201
f 201/201/201 204/204/204 47/47/47
f 201/201/201 47/47/47 46/46/46
f 204/204/204 205/205/205 34/34/34
f 204/204/204 34/34/34 47/47/47
f 203/203/203 206/206/206 205/205/205
f 203/203/203 205/205/205 204/204/204
f 207/207/207 208/208/208 209/209/209
f 207/207/207 209/209/209 210/210/210
f 210/210/210 209/209/209 42/42/42
f 210/210/210 42/42/42 41/41/41
f 209/209/209 196/196/196 45/45/45
f 209/209/209 45/45/45 42/42/42
f 208/208/208 193/193/193 196/196/196
f 208/208/208 196/196/196 209/209/209
f 206/206/206 211/211/211 212/212/212
f 206/206/206 212/212/212 205/205/205
f 205/205/205 212/212/212 35/35/35
f 205/205/205 35/35/35 34/34/34
f 212/212/212 210/210/210 41/41/41
f 212/212/212 41/41/41 35/35/35
f 211/211/211 207/207/207 210/210/210
f 211/211/211 210/210/210 212/212/212
f 213/213/213 214/214/214 215/215/215
f 213/213/213 215/215/215 216/216/216
f 216/216/216 215/215/215 19/19/19
f 216/216/216 19/19/19 18/18/18
f 215/215/215 191/191/191 24/24/24
f 215/215/215 24/24/24 19/19/19
f 214/214/214 192/192/192 191/191/191
f 214/214/214 191/191/191 215/215/215
f 198/198/198 217/217/217 218/218/218
f 198/198/198 218/218/218 197/197/197
f 197/197/197 218/218/218 11/11/11
f 197/197/197 11/11/11 10/10/10
f 218/218/218 216/216/216 18/18/18
f 218/218/218 18/18/18 11/11/11
f 217/217/217 213/213/213 216/216/216
f 217/217/217 216/216/216 218/218/218
f 219/219/219 220/220/220 221/221/221
f 219/219/219 221/221/221 222/222/222
f 222/222/222 221/221/221 217/217/217
f 222/222/222 217/217/217 198/198/198
f 221/221/221 223/223/223 213/213/213
f 221/221/221 213/213/213 217/217/217
f 220/220/220 224/224/224 223/223/223
f 220/220/220 223/223/223 221/221/221
f 224/224/224 225/225/225 226/226/226
f 224/224/224 226/226/226 223/223/223
f 223/223/223 226/226/226 214/214/214
f 223/223/223 214/214/214 213/213/213
f 226/226/226 227/227/227 192/192/192
f 226/226/226 192/192/192 214/214/214
f 225/225/225 228/228/228 227/227/227
f 225/225/225 227/227/227 226/226/226
f 229/229/229 230/230/230 231/231/231
f 229/229/229 231/231/231 232/232/232
f 232/232/232 231/231/231 211/211/211
f 232/232/232 211/211/211 206/206/206
f 231/231/231 233/233/233 207/207/207
f 231/231/231 207/207/207 211/211/211
f 230/230/230 234/234/234 233/233/233
f 230/230/230 233/233/233 231/231/231
f 234/234/234 235/235/235 236/236/236
f 234/234/234 236/236/236 233/233/233
f 233/233/233 236/236/236 208/208/208
f 233/233/233 208/208/208 207/207/207
f 236/236/236 237/237/237 193/193/193
f 236/236/236 193/193/193 208/208/208
f 235/235/235 238/238/238 237/237/237
f 235/235/235 237/237/237 236/236/236
f 239/239/239 240/240/240 241/241/241
f 239/239/239 241/241/241 242/242/242
f 242/242/242 241/241/241 203/203/203
f 242/242/242 203/203/203 202/202/202
f 241/241/241 232/232/232 206/206/206
f 241/241/241 206/206/206 203/203/203
f 240/240/240 229/229/229 232/232/232
f 240/240/240 232/232/232 241/241/241
f 243/243/243 244/244/244 245/245/245
f 243/243/243 245/245/245 246/246/246
f 246/246/246 245/245/245 199/199/199
f 246/246/246 199/199/199 187/187/187
f 245/245/245 242/242/242 202/202/202
f 245/245/245 202/202/202 199/199/199
f 244/244/244 239/239/239 242/242/242
f 244/244/244 242/242/242 245/245/245
f 238/238/238 247/247/247 248/248/248
f 238/238/238 248/248/248 237/237/237
f 237/237/237 248/248/248 194/194/194
f 237/237/237 194/194/194 193/193/193
f 248/248/248 222/222/222 198/198/198
f 248/248/248 198/198/198 194/194/194
f 247/247/247 219/219/219 222/222/222
f 247/247/247 222/222/222 248/248/248
f 243/243/243 246/246/246 249/249/249
f 243/243/243 249/249/249 250/250/250
f 250/250/250 249/249/249 227/227/227
f 250/250/250 227/227/227 228/228/228
f 249/249/249 190/190/190 192/192/192
f 249/249/249 192/192/192 227/227/227
f 246/246/246 187/187/187 190/190/190
f 246/246/246 190/190/190 249/249/249
f 251/251/251 252/252/252 253/253/253
f 251/251/251 253/253/253 254/254/254
f 254/254/254 253/253/253 255/255/255
f 254/254/254 255/255/255 256/256/256
f 253/253/253 257/257/257 258/258/258
f 253/253/253 258/258/258 255/255/255
f 252/252/252 259/259/259 257/257/257
f 252/252/252 257/257/257 253/253/253
f 1/1/1 260/260/260 261/261/261
f 1/1/1 261/261/261 2/2/2
f 2/2/2 261/261/261 262/262/262
f 2/2/2 262/262/262 9/9/9
f 261/261/261 263/263/263 264/264/264
f 261/261/261 264/264/264 262/262/262
f 260/260/260 265/265/265 263/263/263
f 260/260/260 263/263/263 261/261/261
f 265/265/265 266/266/266 267/267/267
f 265/265/265 267/267/267 263/263/263
f 263/263/263 267/267/267 268/268/268
f 263/263/263 268/268/268 264/264/264
f 267/267/267 269/269/269 270/270/270
f 267/267/267 270/270/270 268/268/268
f 266/266/266 271/271/271 269/269/269
f 266/266/266 269/269/269 267/267/267
f 272/272/272 273/273/273 274/274/274
f 272/272/272 274/274/274 275/275/275
f 275/275/275 274/274/274 276/276/276
f 275/275/275 276/276/276 277/277/277
f 274/274/274 254/254/254 256/256/256
f 274/274/274 256/256/256 276/276/276
f 273/273/273 251/251/251 254/254/254
f 273/273/273 254/254/254 274/274/274
f 271/271/271 278/278/278 279/279/279
f 271/271/271 279/279/279 269/269/269
f 269/269/269 279/279/279 280/280/280
f 269/269/269 280/280/280 270/270/270
f 279/279/279 275/275/275 277/277/277
f 279/279/279 277/277/277 280/280/280
f 278/278/278 272/272/272 275/275/275
f 278/278/278 275/275/275 279/279/279
f 281/281/281 282/282/282 283/283/283
f 281/281/281 283/283/283 284/284/284
f 284/284/284 283/283/283 285/285/285
f 284/284/284 285/285/285 286/286/286
f 283/283/283 5/5/5 8/8/8
f 283/283/283 8/8/8 285/285/285
f 282/282/282 6/6/6 5/5/5
f 282/282/282 5/5/5 283/283/283
f 259/259/259 287/287/287 288/288/288
f 259/259/259 288/288/288 257/257/257
f 257/257/257 288/288/288 289/289/289
f 257/257/257 289/289/289 258/258/258
f 288/288/288 284/284/284 286/286/286
f 288/288/288 286/286/286 289/289/289
f 287/287/287 281/281/281 284/284/284
f 287/287/287 284/284/284 288/288/288
f 9/9/9 290/290/290 291/291/291
f 9/9/9 291/291/291 7/7/7
f 7/7/7 291/291/291 292/292/292
f 7/7/7 292/292/292 8/8/8
f 291/291/291 250/250/250 228/228/228
f 291/291/291 228/228/228 292/292/292
f 290/290/290 243/243/243 250/250/250
f 290/290/290 250/250/250 291/291/291
f 256/256/256 255/255/255 293/293/293
f 256/256/256 293/293/293 294/294/294
f 294/294/294 293/293/293 247/247/247
f 294/294/294 247/247/247 238/238/238
f 293/293/293 295/295/295 219/219/219
f 293/293/293 219/219/219 247/247/247
f 255/255/255 258/258/258 295/295/295
f 255/255/255 295/295/295 293/293/293
f 9/9/9 262/262/262 296/296/296
f 9/9/9 296/296/296 290/290/290
f 290/290/290 296/296/296 244/244/244
f 290/290/290 244/244/244 243/243/243
f 296/296/296 297/297/297 239/239/239
f 296/296/296 239/239/239 244/244/244
f 262/262/262 264/264/264 297/297/297
f 262/262/262 297/297/297 296/296/296
f 264/264/264 268/268/268 298/298/298
f 264/264/264 298/298/298 297/297/297
f 297/297/297 298/298/298 240/240/240
f 297/297/297 240/240/240 239/239/239
f 298/298/298 299/299/299 229/229/229
f 298/298/298 229/229/229 240/240/240
f 268/268/268 270/270/270 299/299/299
f 268/268/268 299/299/299 298/298/298
f 277/277/277 276/276/276 300/300/300
f 277/277/277 300/300/300 301/301/301
f 301/301/301 300/300/300 235/235/235
f 301/301/301 235/235/235 234/234/234
f 300/300/300 294/294/294 238/238/238
f 300/300/300 238/238/238 235/235/235
f 276/276/276 256/256/256 294/294/294
f 276/276/276 294/294/294 300/300/300
f 270/270/270 280/280/280 302/302/302
f 270/270/270 302/302/302 299/299/299
f 299/299/299 302/302/302 230/230/230
f 299/299/299 230/230/230 229/229/229
f 302/302/302 301/301/301 234/234/234
f 302/302/302 234/234/234 230/230/230
f 280/280/280 277/277/277 301/301/301
f 280/280/280 301/301/301 302/302/302
f 286/286/286 285/285/285 303/303/303
f 286/286/286 303/303/303 304/304/304
f 304/304/304 303/303/303 225/225/225
f 304/304/304 225/225/225 224/224/224
f 303/303/303 292/292/292 228/228/228
f 303/303/303 228/228/228 225/225/225
f 285/285/285 8/8/8 292/292/292
f 285/285/285 292/292/292 303/303/303
f 258/258/258 289/289/289 305/305/305
f 258/258/258 305/305/305 295/295/295
f 295/295/295 305/305/305 220/220/220
f 295/295/295 220/220/220 219/219/219
f 305/305/305 304/304/304 224/224/224
f 305/305/305 224/224/224 220/220/220
f 289/289/289 286/286/286 304/304/304
f 289/289/289 304/304/304 305/305/305
