v -0.0704837 0.768428 0.956844
v -0.0796126 0.76359 0.959917
v -0.0803039 0.76711 0.959827
v -0.0711016 0.771924 0.956445
v -0.0810899 0.770176 0.959072
v -0.07194 0.774721 0.955627
v -0.0888726 0.761702 0.96729
v -0.0897807 0.765381 0.966465
v -0.0878584 0.757741 0.966994
v -0.0791035 0.759352 0.958899
v -0.0868173 0.753427 0.964891
v -0.0787056 0.754683 0.957217
v -0.08577 0.748908 0.961707
v -0.0702408 0.763792 0.956535
v -0.0702235 0.758472 0.955801
v -0.0952147 0.752261 0.976035
v -0.0971078 0.756951 0.976828
v -0.098366 0.761265 0.975873
v -0.102255 0.753359 0.986736
v -0.104033 0.758231 0.986249
v -0.0993444 0.747972 0.984977
v -0.0926792 0.747217 0.972548
v -0.0950979 0.742028 0.980005
v -0.0897859 0.741979 0.967459
v -0.090087 0.735771 0.973141
v -0.0923318 0.744571 0.997314
v -0.0980887 0.745416 0.99213
v -0.09285 0.738886 0.985791
v -0.0870716 0.737588 0.989913
v -0.0866195 0.731925 0.97775
v -0.080815 0.730105 0.98113
v -0.0747634 0.74741 1.00242
v -0.0838275 0.745278 1.00071
v -0.0794561 0.737729 0.992695
v -0.0715652 0.739327 0.994233
v -0.0742674 0.729665 0.983368
v -0.0677357 0.730701 0.984686
v -0.101637 0.751223 0.995524
v -0.103968 0.756564 0.996551
v -0.0959295 0.750749 1.00225
v -0.0985219 0.756602 1.00487
v -0.086852 0.752011 1.00635
v -0.0891523 0.758497 1.00962
v -0.0769276 0.754638 1.00815
v -0.0785715 0.761602 1.01143
v -0.105844 0.761802 0.996032
v -0.105169 0.76273 0.984808
v -0.108012 0.767166 0.993944
v -0.106543 0.767118 0.982722
v -0.100994 0.762688 1.00543
v -0.103817 0.769089 1.00356
v -0.0915231 0.765356 1.01064
v -0.0942959 0.772556 1.00904
v -0.0803474 0.768942 1.01246
v -0.082546 0.776563 1.01101
v -0.069273 0.76519 1.01104
v -0.0703094 0.772536 1.0119
v -0.0717475 0.780121 1.01035
v -0.061957 0.775911 1.0077
v -0.0626554 0.782974 1.0058
v -0.0616161 0.769025 1.00745
v -0.0669882 0.750781 1.00246
v -0.0683692 0.758171 1.00796
v -0.0613411 0.762261 1.0052
v -0.0605605 0.754919 1.00056
v -0.0552595 0.759347 0.996289
v -0.0556489 0.766561 0.999192
v -0.05557 0.772915 0.999719
v -0.0517136 0.770629 0.989836
v -0.0516761 0.776368 0.988782
v -0.0515368 0.763847 0.988757
v -0.055426 0.778972 0.998759
v -0.0555891 0.78508 0.996399
v -0.0515015 0.781491 0.986843
v -0.0515517 0.786519 0.984295
v -0.0507318 0.778794 0.976323
v -0.0510858 0.783112 0.974403
v -0.0515364 0.787233 0.972225
v -0.0549041 0.783118 0.963691
v -0.0558126 0.786495 0.962078
v -0.0539854 0.779516 0.965096
v -0.0502152 0.768058 0.977832
v -0.0503241 0.773923 0.977799
v -0.0531265 0.775591 0.966308
v -0.0529302 0.770804 0.966807
v -0.061974 0.778046 0.957773
v -0.0629925 0.780989 0.956714
v -0.0639823 0.78376 0.955442
v -0.0728115 0.77736 0.954707
v -0.0737006 0.779863 0.953555
v -0.0606029 0.770961 0.959304
v -0.0610252 0.774904 0.958733
v -0.0818842 0.773101 0.958161
v -0.0827663 0.775832 0.956985
v -0.0905631 0.768866 0.965355
v -0.0914988 0.772082 0.963975
v -0.0649029 0.786223 0.953863
v -0.0567173 0.789577 0.960225
v -0.0655904 0.788167 0.952359
v -0.0573969 0.792057 0.95855
v -0.0745961 0.782103 0.952055
v -0.0753319 0.783869 0.95059
v -0.0837876 0.77821 0.955421
v -0.0847241 0.780033 0.953897
v -0.0928002 0.77489 0.962262
v -0.0941166 0.777036 0.960666
v -0.100195 0.768955 0.972616
v -0.101901 0.772429 0.970662
v -0.103764 0.775208 0.96898
v -0.108804 0.771495 0.980195
v -0.11129 0.775187 0.977991
v -0.0991817 0.765235 0.974386
v -0.11094 0.772646 0.99041
v -0.113997 0.77743 0.987013
v -0.107178 0.775604 0.999299
v -0.110523 0.78137 0.994958
v -0.105214 0.777237 0.967663
v -0.0952104 0.778571 0.95936
v -0.106586 0.78047 0.965001
v -0.096859 0.780895 0.956876
v -0.113161 0.777991 0.976435
v -0.114168 0.782347 0.97355
v -0.116321 0.781229 0.984836
v -0.117237 0.786661 0.981525
v -0.113111 0.786085 0.992288
v -0.114188 0.79236 0.988522
v -0.097536 0.779769 1.00494
v -0.100707 0.786141 1.00072
v -0.0852239 0.784083 1.0073
v -0.0878608 0.790693 1.00354
v -0.10318 0.791407 0.998147
v -0.104556 0.798167 0.994093
v -0.0899551 0.796172 1.00123
v -0.0916563 0.803079 0.997008
v -0.0755722 0.794102 1.00281
v -0.0771998 0.799532 1.00046
v -0.0791597 0.806281 0.996134
v -0.06625 0.801203 0.995702
v -0.068387 0.80743 0.991498
v -0.0650736 0.796139 0.998114
v -0.0736473 0.787564 1.00659
v -0.0638161 0.789973 1.00193
v -0.0562738 0.791305 0.992835
v -0.0570964 0.796802 0.989529
v -0.052093 0.791725 0.981327
v -0.0527229 0.796285 0.978767
v -0.0579141 0.801141 0.987358
v -0.0601488 0.806454 0.983629
v -0.0533215 0.799701 0.976981
v -0.0555673 0.803865 0.973874
v -0.0528645 0.794754 0.967871
v -0.0533982 0.797257 0.966378
v -0.0555542 0.800258 0.963803
v -0.0579354 0.793846 0.957235
v -0.0598677 0.795958 0.955049
v -0.0522386 0.791306 0.969878
v -0.0661296 0.789574 0.951134
v -0.0677256 0.791288 0.949179
v -0.0759322 0.785149 0.949374
v -0.0773388 0.786823 0.947426
v -0.0712605 0.794157 0.945531
v -0.0642887 0.799385 0.950858
v -0.0752033 0.798192 0.940595
v -0.0690835 0.803909 0.945303
v -0.0802714 0.789757 0.943801
v -0.0836443 0.793864 0.938908
v -0.060554 0.805086 0.958721
v -0.0606611 0.810429 0.967589
v -0.0659155 0.810844 0.952147
v -0.0660963 0.817699 0.959687
v -0.0870655 0.78318 0.95044
v -0.0900629 0.786523 0.946241
v -0.093502 0.791028 0.940737
v -0.0997264 0.785218 0.951924
v -0.103008 0.790642 0.945569
v -0.0855195 0.781341 0.952631
v -0.108322 0.786502 0.959517
v -0.110423 0.793484 0.952484
v -0.114436 0.79019 0.967575
v -0.114987 0.798769 0.959933
v -0.096286 0.796277 0.934731
v -0.0863118 0.79897 0.933248
v -0.0986799 0.802839 0.927651
v -0.0886944 0.805508 0.926355
v -0.105775 0.796196 0.938989
v -0.108076 0.802707 0.931467
v -0.112732 0.799493 0.9453
v -0.11494 0.805737 0.937134
v -0.116685 0.805267 0.952207
v -0.118849 0.811265 0.943459
v -0.116962 0.813908 0.926448
v -0.110307 0.811223 0.921585
v -0.119794 0.824504 0.911117
v -0.113294 0.821867 0.90702
v -0.120842 0.819091 0.932049
v -0.123722 0.829653 0.916061
v -0.101275 0.811373 0.918293
v -0.0914945 0.813958 0.9172
v -0.104604 0.821893 0.904301
v -0.0949778 0.824381 0.903465
v -0.077969 0.803311 0.934877
v -0.0720774 0.809216 0.939139
v -0.0801686 0.809907 0.927908
v -0.0740643 0.815789 0.931801
v -0.082763 0.818412 0.918656
v -0.0763173 0.824242 0.922122
v -0.0859172 0.828956 0.904811
v -0.0790569 0.834894 0.907848
v -0.071214 0.829963 0.943318
v -0.0709882 0.822845 0.937264
v -0.0730877 0.830914 0.92686
v -0.0733403 0.837654 0.932234
v -0.0757637 0.841443 0.911951
v -0.0762012 0.848068 0.916751
v -0.0690928 0.816517 0.945236
v -0.0693092 0.823859 0.951912
v -0.076357 0.826128 0.972003
v -0.069777 0.823053 0.966526
v -0.0728286 0.82974 0.95796
v -0.0791446 0.833285 0.962857
v -0.0748014 0.835887 0.949017
v -0.0812871 0.839602 0.953758
v -0.0770713 0.843556 0.937606
v -0.0838648 0.847426 0.942243
v -0.0801951 0.854116 0.921833
v -0.0874227 0.858226 0.926349
v -0.0997957 0.83796 0.958275
v -0.0899793 0.840325 0.957023
v -0.0930138 0.848238 0.945427
v -0.10306 0.845911 0.946597
v -0.0972057 0.859161 0.929419
v -0.107594 0.856881 0.930469
v -0.0950352 0.823937 0.976859
v -0.0850447 0.826426 0.975625
v -0.0875548 0.833906 0.966213
v -0.09718 0.831538 0.967502
v -0.116574 0.825826 0.953982
v -0.109368 0.83278 0.957149
v -0.112327 0.840763 0.945409
v -0.119021 0.833773 0.942208
v -0.116497 0.851774 0.929173
v -0.122538 0.844727 0.925904
v -0.112949 0.812399 0.971699
v -0.105177 0.818944 0.975375
v -0.106828 0.826439 0.966348
v -0.114234 0.819636 0.963116
v -0.116118 0.805376 0.966471
v -0.117425 0.812283 0.958305
v -0.11963 0.818301 0.949269
v -0.121747 0.826114 0.937539
v -0.12483 0.836852 0.921262
v -0.123003 0.867107 0.905532
v -0.128567 0.859799 0.902149
v -0.133055 0.889122 0.867361
v -0.138525 0.881112 0.863731
v -0.114199 0.872331 0.906968
v -0.123959 0.894807 0.868917
v -0.130437 0.851516 0.897488
v -0.129006 0.843834 0.892444
v -0.140103 0.872152 0.858896
v -0.138336 0.863864 0.853856
v -0.124817 0.838213 0.887879
v -0.118172 0.835182 0.884302
v -0.133862 0.857714 0.849514
v -0.126881 0.854305 0.846278
v -0.154313 0.899411 0.80175
v -0.152303 0.890588 0.796582
v -0.169378 0.927339 0.741022
v -0.167159 0.917996 0.735682
v -0.152827 0.909336 0.806974
v -0.167899 0.938334 0.746658
v -0.147713 0.884294 0.792459
v -0.140371 0.880967 0.789498
v -0.162502 0.911704 0.731747
v -0.154813 0.908669 0.729007
v -0.109453 0.834957 0.8821
v -0.0996234 0.83743 0.881542
v -0.117662 0.853937 0.84439
v -0.107202 0.856558 0.843937
v -0.130221 0.88077 0.787636
v -0.118754 0.883738 0.786977
v -0.143658 0.908829 0.727075
v -0.131111 0.912228 0.726153
v -0.174169 0.93355 0.683162
v -0.166158 0.930669 0.680581
v -0.182525 0.950389 0.646911
v -0.17425 0.947478 0.644416
v -0.178982 0.939999 0.687001
v -0.187511 0.957054 0.650739
v -0.154269 0.931167 0.678687
v -0.140877 0.934938 0.677718
v -0.161906 0.948135 0.642648
v -0.147956 0.95211 0.641802
v -0.0892582 0.868696 0.847241
v -0.0969274 0.86184 0.844931
v -0.107942 0.88959 0.787626
v -0.100153 0.896904 0.789517
v -0.119779 0.918585 0.726511
v -0.111884 0.9262 0.728059
v -0.128948 0.941566 0.678004
v -0.120754 0.949297 0.679423
v -0.135501 0.958854 0.64217
v -0.126963 0.96666 0.643618
v -0.11062 0.941003 0.73463
v -0.109017 0.933519 0.730698
v -0.117847 0.95661 0.681863
v -0.119589 0.964243 0.685688
v -0.123999 0.974093 0.646038
v -0.125873 0.981951 0.649863
v -0.0875536 0.88346 0.855071
v -0.0862552 0.876031 0.850695
v -0.0972603 0.904319 0.792555
v -0.0987662 0.911833 0.796708
v -0.100729 0.895544 0.864587
v -0.0923771 0.890497 0.860004
v -0.103824 0.91937 0.801786
v -0.112557 0.925178 0.806906
v -0.115858 0.949039 0.739895
v -0.124919 0.955697 0.745594
v -0.125077 0.972822 0.691086
v -0.134535 0.980261 0.697067
v -0.131571 0.990894 0.655337
v -0.141362 0.998808 0.661409
v -0.150837 0.956632 0.752743
v -0.137568 0.958693 0.750468
v -0.147764 0.983968 0.702224
v -0.161748 0.982049 0.704663
v -0.155098 1.003 0.666595
v -0.169659 1.00122 0.668974
v -0.112202 0.897053 0.867828
v -0.124665 0.927369 0.810961
v -0.137187 0.925192 0.812643
v -0.161482 0.949052 0.751112
v -0.173127 0.973707 0.702996
v -0.18 0.961834 0.698354
v -0.181547 0.992422 0.667158
v -0.188712 0.979835 0.662333
v -0.14698 0.918615 0.811031
v -0.181441 0.9499 0.692473
v -0.19014 0.967333 0.656296
v -0.196175 0.981463 0.628529
v -0.193539 0.971159 0.622909
v -0.201009 0.99419 0.604141
v -0.198423 0.983909 0.598423
v -0.194663 0.994053 0.634747
v -0.199342 1.0068 0.610553
v -0.187321 1.00691 0.639949
v -0.191763 1.01984 0.616139
v -0.175163 1.01591 0.642076
v -0.179381 1.02895 0.618581
v -0.196074 1.03347 0.591232
v -0.204087 1.02003 0.585478
v -0.200288 1.04759 0.565235
v -0.20876 1.03367 0.559513
v -0.18334 1.04279 0.59382
v -0.187183 1.05715 0.567786
v -0.205929 1.00707 0.578905
v -0.203332 0.996557 0.573018
v -0.210762 1.02024 0.552863
v -0.208114 1.0094 0.546827
v -0.160263 1.01756 0.639703
v -0.16436 1.03045 0.616211
v -0.146241 1.01316 0.634378
v -0.150297 1.02585 0.610739
v -0.168352 1.04409 0.591533
v -0.172257 1.05833 0.565553
v -0.154456 1.0391 0.586062
v -0.158556 1.05298 0.560122
v -0.175933 1.07243 0.539493
v -0.190852 1.07118 0.54182
v -0.179539 1.08581 0.515459
v -0.194393 1.08418 0.51797
v -0.162298 1.06703 0.533982
v -0.165933 1.08087 0.509641
v -0.204197 1.06143 0.53941
v -0.212959 1.04725 0.533801
v -0.207806 1.07462 0.515549
v -0.216684 1.06074 0.509825
v -0.140365 1.01789 0.604494
v -0.144534 1.03082 0.579723
v -0.148612 1.0443 0.553698
v -0.138714 1.02168 0.573953
v -0.142676 1.03485 0.547764
v -0.134614 1.00897 0.598888
v -0.152272 1.05817 0.527449
v -0.155738 1.072 0.502805
v -0.146199 1.04851 0.521416
v -0.149429 1.06198 0.496622
v -0.14068 1.02648 0.543328
v -0.144146 1.03999 0.516939
v -0.147239 1.05299 0.492265
v -0.147059 1.03217 0.513856
v -0.150141 1.04473 0.489512
v -0.143571 1.01873 0.540225
v -0.132677 1.00086 0.594832
v -0.136756 1.01344 0.56969
v -0.13968 1.00564 0.566753
v -0.135654 0.993069 0.592126
v -0.152062 1.01101 0.538124
v -0.155623 1.02441 0.511836
v -0.158777 1.03663 0.487909
v -0.168586 1.01769 0.511079
v -0.171748 1.02972 0.487463
v -0.164927 1.00436 0.537229
v -0.144388 0.98504 0.590406
v -0.148274 0.997754 0.564804
v -0.161126 0.99104 0.563974
v -0.157243 0.978228 0.589744
v -0.171754 0.974305 0.590262
v -0.175961 0.987023 0.564441
v -0.180054 1.00015 0.537774
v -0.189259 0.986401 0.566081
v -0.19372 0.999252 0.53957
v -0.184644 0.973833 0.591835
v -0.183821 1.01329 0.511799
v -0.186838 1.02534 0.488232
v -0.197626 1.01221 0.513741
v -0.200594 1.02447 0.490035
v -0.193283 0.977035 0.594407
v -0.198115 0.989574 0.568811
v -0.202792 1.00231 0.542462
v -0.206878 1.01522 0.516695
v -0.210118 1.02783 0.492783
v -0.21236 1.02243 0.521085
v -0.215955 1.03545 0.497024
v -0.21507 1.03353 0.527159
v -0.218822 1.04692 0.50309
v -0.222022 1.06034 0.481669
v -0.21884 1.04816 0.475621
v -0.2244 1.07308 0.462646
v -0.220893 1.05998 0.456827
v -0.219959 1.07409 0.488749
v -0.2225 1.08667 0.470124
v -0.212368 1.03953 0.471765
v -0.202379 1.03516 0.469642
v -0.21375 1.0498 0.453773
v -0.203267 1.04377 0.452755
v -0.214434 1.05826 0.438916
v -0.203632 1.05018 0.439419
v -0.214532 1.06504 0.428097
v -0.203692 1.05544 0.430079
v -0.222003 1.07027 0.440679
v -0.222172 1.0782 0.428573
v -0.225653 1.08417 0.445906
v -0.225619 1.09222 0.433157
v -0.22395 1.09755 0.453606
v -0.223958 1.10507 0.440889
v -0.213949 1.09824 0.477336
v -0.216 1.10822 0.461731
v -0.216777 1.11516 0.449563
v -0.203828 1.11529 0.466195
v -0.205598 1.12176 0.454599
v -0.20106 1.10609 0.4809
v -0.21112 1.08691 0.495063
v -0.197836 1.09573 0.497884
v -0.183232 1.098 0.495209
v -0.186844 1.10886 0.478234
v -0.169737 1.09403 0.488847
v -0.17353 1.10575 0.471391
v -0.190085 1.11804 0.46378
v -0.192488 1.1242 0.452382
v -0.176997 1.11514 0.456804
v -0.17975 1.12117 0.445525
v -0.162914 1.09682 0.46343
v -0.166437 1.10596 0.448763
v -0.169444 1.11197 0.437876
v -0.159265 1.09332 0.442331
v -0.162423 1.09908 0.432007
v -0.155865 1.08508 0.456797
v -0.159293 1.08519 0.481415
v -0.152598 1.07442 0.474951
v -0.153073 1.07361 0.453205
v -0.156158 1.08038 0.43934
v -0.159287 1.08538 0.429595
v -0.158048 1.06825 0.439078
v -0.160838 1.07239 0.430029
v -0.155472 1.06294 0.452055
v -0.150148 1.0644 0.470891
v -0.152895 1.05513 0.468838
v -0.163543 1.05325 0.452202
v -0.165446 1.05772 0.440155
v -0.167514 1.06135 0.431946
v -0.176909 1.05032 0.441021
v -0.1781 1.05395 0.433263
v -0.175725 1.04597 0.452633
v -0.161387 1.04633 0.468022
v -0.174093 1.03922 0.467996
v -0.188767 1.03522 0.468495
v -0.189839 1.04258 0.452656
v -0.190421 1.04757 0.44054
v -0.190871 1.05173 0.432348
v -0.191501 1.0567 0.427957
v -0.179712 1.05854 0.429229
v -0.192432 1.06324 0.425593
v -0.181766 1.06457 0.427402
v -0.203621 1.06084 0.424795
v -0.203591 1.06755 0.421684
v -0.170125 1.06582 0.427427
v -0.164059 1.07679 0.424786
v -0.173286 1.07154 0.425238
v -0.167883 1.0821 0.42202
v -0.193594 1.07109 0.423856
v -0.184033 1.07161 0.42652
v -0.19434 1.07687 0.424503
v -0.185649 1.07676 0.427717
v -0.20366 1.0757 0.419298
v -0.20344 1.0815 0.41988
v -0.176689 1.07807 0.424273
v -0.172132 1.08811 0.420707
v -0.17915 1.08264 0.425659
v -0.175258 1.09202 0.422234
v -0.20209 1.08256 0.431845
v -0.196372 1.08154 0.436331
v -0.194477 1.07839 0.42923
v -0.202672 1.0822 0.425329
v -0.186246 1.07846 0.432244
v -0.188078 1.08274 0.439418
v -0.181018 1.08722 0.437536
v -0.179959 1.08375 0.430496
v -0.176276 1.09192 0.42768
v -0.177294 1.09175 0.433839
v -0.206954 1.08747 0.433972
v -0.20298 1.09236 0.443236
v -0.192966 1.09474 0.447495
v -0.198425 1.10867 0.451806
v -0.206184 1.10617 0.448042
v -0.21101 1.105 0.442708
v -0.211195 1.09812 0.439209
v -0.211241 1.093 0.434167
v -0.183752 1.09932 0.444896
v -0.177104 1.09847 0.436404
v -0.177569 1.10523 0.4372
v -0.181253 1.10876 0.44216
v -0.186073 1.11362 0.445511
v -0.190733 1.11148 0.449785
v -0.194115 1.11964 0.445819
v -0.186927 1.11878 0.440999
v -0.195233 1.12411 0.439537
v -0.187018 1.12246 0.434897
v -0.201804 1.11805 0.447557
v -0.203538 1.12277 0.441041
v -0.208741 1.11469 0.443923
v -0.210587 1.11866 0.437612
v -0.213477 1.10966 0.43774
v -0.215439 1.11243 0.431425
v -0.205465 1.12449 0.442124
v -0.194456 1.12636 0.43983
v -0.195101 1.12588 0.437631
v -0.204652 1.12435 0.439483
v -0.185483 1.12362 0.432435
v -0.18333 1.12358 0.433752
v -0.219989 1.10974 0.429965
v -0.214256 1.11854 0.437812
v -0.212389 1.11926 0.435777
v -0.217569 1.11173 0.428936
v -0.19376 1.12639 0.444605
v -0.205976 1.12423 0.446911
v -0.181611 1.12336 0.437992
v -0.215974 1.11788 0.442015
v -0.222393 1.1083 0.433464
v -0.220002 1.08806 0.418466
v -0.222119 1.09937 0.422707
v -0.219664 1.10293 0.422238
v -0.218023 1.09339 0.417749
v -0.217341 1.10481 0.425297
v -0.215898 1.09656 0.42065
v -0.224287 1.09649 0.425864
v -0.221456 1.08347 0.421623
v -0.214143 1.07064 0.421867
v -0.213375 1.07664 0.418575
v -0.21232 1.08376 0.416837
v -0.211013 1.08847 0.418529
v -0.215105 1.10263 0.432204
v -0.213773 1.09516 0.427705
v -0.209381 1.08809 0.425188
v -0.17424 1.1162 0.427652
v -0.177595 1.11774 0.426882
v -0.180221 1.11784 0.429614
v -0.172437 1.10916 0.422409
v -0.175704 1.11074 0.424984
v -0.168287 1.10572 0.42314
v -0.171738 1.11478 0.431095
v -0.165134 1.1027 0.426008
v -0.16615 1.09394 0.421148
v -0.170635 1.09894 0.420043
v -0.174057 1.10184 0.422076
v -0.162433 1.08954 0.423978
v -0.175182 1.10059 0.428338
v -0.176662 1.10853 0.431381
v -0.180799 1.11471 0.435985
v -0.188456 0.964368 0.619023
v -0.179993 0.961297 0.616533
v -0.167377 0.961862 0.614898
v -0.153112 0.965829 0.614231
v -0.14036 0.972643 0.614732
v -0.13163 0.980598 0.61628
v -0.128639 0.988236 0.6188
v -0.130565 0.99624 0.622704
v -0.136316 1.00519 0.628226
v -0.103203 0.874596 0.906034
v -0.0925726 0.873474 0.903053
v -0.0847704 0.868988 0.898626
v -0.0803544 0.862506 0.893697
v -0.0794892 0.855512 0.889172
v -0.0826698 0.848606 0.885431
v -0.0899916 0.842274 0.882757
v -0.116588 0.795765 0.974846
v -0.113515 0.802215 0.980962
v -0.104809 0.808429 0.985614
v -0.0932649 0.813386 0.987841
v -0.0820068 0.816224 0.986778
v -0.0722599 0.816615 0.982623
v -0.0648203 0.81451 0.975924
v -0.0507389 0.760933 0.975646
v -0.0538933 0.764742 0.966164
v -0.0516511 0.753079 0.972138
v -0.0555558 0.757924 0.964839
v -0.0511593 0.755803 0.984604
v -0.0506717 0.747034 0.978637
v -0.0610726 0.765725 0.959226
v -0.0620785 0.759718 0.958758
v -0.0541328 0.75088 0.990387
v -0.0525665 0.741673 0.982751
v -0.0588358 0.746397 0.993368
v -0.0565379 0.737154 0.98473
v -0.0646482 0.74238 0.994521
v -0.0617221 0.733347 0.985231
vt 0.01042 0.7396
vt 1 0.5001
vt 0.9168 0.08333
vt 0.9896 0.2604
vt 0.9168 0.08331
vt 0 0.5
vt 0.9897 0.2587
vt 3.545e-06 0.5
vt 0 0.5
vt 0.9169 0.08333
vt 1 0.4931
vt 1 0.4931
vt 3.545e-06 0.5
vt 0.9896 0.2622
vt 0.01042 0.7396
vt 0.9897 0.2604
vt 0.9895 0.2674
vt 0.9895 0.2674
vt 0.9896 0.2622
vt 0.08333 0.9167
vt 0.01042 0.7396
vt 0.9896 0.2604
vt 1 0.4167
vt 0.9897 0.2587
vt 0.01042 0.7396
vt 0.08332 0.9167
vt 0.9167 0.08333
vt 0.9167 0.08333
vt 0.9168 0.08331
vt 0.9896 0.25
vt 7.09e-06 0.5
vt 0.08331 0.9167
vt 0.9896 0.25
vt 0.9168 0.08333
vt 0.999 0.5833
vt 0.9897 0.2587
vt 0.01042 0.7396
vt 0.9896 0.2622
vt 0.9168 0.08331
vt 0.9897 0.2604
vt 0.01042 0.7396
vt 0.9167 0.08333
vt 0.9897 0.2587
vt 0.9896 0.2604
vt 0.08332 0.9167
vt 0.7396 0.01042
vt 0.7396 0.0104
vt 0.7396 0.01038
vt 0 0.5
vt 0.9168 0.08329
vt 0.01042 0.7396
vt 0.7383 0.01041
vt 0.9999 0.5104
vt 1 0.5
vt 0.01042 0.7396
vt 0.9897 0.2604
vt 0.9168 0.08333
vt 0.9896 0.2622
vt 1 0.5
vt 0.01042 0.7396
vt 0.08333 0.9167
vt 0.9999 0.5104
vt 0.9168 0.08333
vt 1 0.5
vt 0.01042 0.7396
vt 1 0.5
vt 0.7383 0.01041
vt 0.9897 0.2604
vt 1 0.5001
vt 0.08333 0.9167
vt 0.01042 0.7396
vt 0.7334 0.01041
vt 0.9896 0.2604
vt 0.9897 0.2604
vt 0.08333 0.9167
vt 0.9897 0.2604
vt 0.9169 0.08333
vt 0.9913 0.2604
vt 0.9168 0.08331
vt 0.08333 0.9167
vt 0.01042 0.7396
vt 1 0.25
vt 0.7383 0.01041
vt 0.9168 0.08329
vt 0.01042 0.7396
vt 0.9897 0.2604
vt 0.4937 -1.943e-05
vt 0.7396 0.01041
vt 0.9167 0.08333
vt 0 0.5
vt 1 0.4167
vt 0.418 -3.898e-05
vt 0.7334 0.01041
vt 0.9167 0.08333
vt 0.9168 0.08331
vt 0.01042 0.7396
vt 0.7396 0.01042
vt 0.7396 0.0104
vt 0.5 -7.153e-06
vt 0.4999 1
vt 0.9897 0.2604
vt 0.01042 0.7396
vt 0.5 -1.192e-07
vt 0.9913 0.2604
vt 0.7396 0.0104
vt 0 0.5
vt 0.9168 0.08331
vt 0.4937 -1.943e-05
vt 0.5 -7.51e-06
vt 0.9168 0.08329
vt 0.01042 0.7396
vt 0.7383 0.01041
vt 0.9169 0.08333
vt 0.4999 -1.419e-05
vt 0.7396 0.01038
vt 0.2604 0.9896
vt 0.7334 0.01041
vt 0.25 -1.192e-06
vt 0.2499 -2.384e-06
vt 0.4999 1
vt 0.7396 0.0104
vt 0.08333 0.9167
vt 0.7384 0.01042
vt 0.9995 0.5
vt 0.7396 0.01041
vt 0.2604 0.9896
vt 0.9238 0.08333
vt 0.5 -2.384e-06
vt 0.7396 0.0104
vt 0.08332 0.9167
vt 0.9238 0.08333
vt 0.9995 0.5
vt 0.5 -7.51e-06
vt 0.08332 0.9167
vt 0.9168 0.08329
vt 0.7384 0.01042
vt 0.9913 0.2604
vt 0.7396 0.0104
vt 0.2603 0.9896
vt 0.2604 0.9896
vt 0.7415 0.00868
vt 0.7396 0.01038
vt 1 0.08333
vt 0.9168 0.08331
vt 0.7396 0.0104
vt 0.08331 0.9167
vt 0.7384 0.01042
vt 0.9895 0.2674
vt 0.9168 0.08331
vt 0.2604 0.9896
vt 0.7396 0.01042
vt 0.4802 -5.007e-06
vt 0.7396 0.01038
vt 0.9167 0.08333
vt 0.4998 1
vt 0.417 -2.384e-07
vt 0.7415 0.00868
vt 0.7396 0.01042
vt 0.7396 0.0104
vt 0.2604 0.9896
vt 0.7334 0.01041
vt 0.5 -1.192e-07
vt 0.999 0.5833
vt 0.2603 0.9896
vt 0.4999 -1.419e-05
vt 0.5 1
vt 0.418 -3.898e-05
vt 0.9891 0.7326
vt 1 0.4167
vt 0.08333 0.9167
vt 0.5 -7.153e-06
vt 0.4802 -5.007e-06
vt 0.5 -7.033e-06
vt 0.4999 -1.431e-05
vt 0.2604 0.9896
vt 0.7384 0.01042
vt 0.5023 -1.192e-07
vt 0.5 -7.033e-06
vt 0.9898 0.7396
vt 0.4166 1
vt 0.2612 0.0103
vt 1.691e-05 -5.96e-07
vt 0.25 -1.192e-06
vt 0.4931 1
vt 0.25 -1.192e-06
vt 0.25 0.9896
vt 0.2608 0.01036
vt 0.5 -1.192e-07
vt 0.9995 0.5
vt 0.4931 1
vt 0.5011 -1.192e-07
vt 0.25 -1.192e-07
vt 0.25 0.001735
vt 0.2587 0.9896
vt 3.382e-05 -1.073e-06
vt 0.7378 0.9896
vt 0.5011 -1.192e-07
vt 0 -2.384e-07
vt 0.999 0.5833
vt 0.2587 0.9896
vt 0.2608 0.01036
vt 3.382e-05 -1.073e-06
vt 0.25 -1.192e-07
vt 0.2604 0.9896
vt 0.2604 0.01042
vt 0.2499 -2.384e-06
vt 0.997 0.75
vt 0.5 1
vt 0.2587 0.9896
vt 1.691e-05 -5.96e-07
vt 0.5 -1.192e-07
vt 0.5 -2.384e-06
vt 0.9995 0.5
vt 0.08333 0.9167
vt 0.2608 0.01036
vt 0.25 -1.192e-06
vt 0.08333 0.9167
vt 0.9891 0.7326
vt 0.08321 0.08323
vt 0.5 -7.51e-06
vt 0.2517 0.00868
vt 0.2604 0.9896
vt 0.08333 0.08333
vt 0.25 0.001735
vt 0.9898 0.7396
vt 0.25 0.9896
vt 0.08333 0.9167
vt 0.5 -7.51e-06
vt 0.2604 0.01042
vt 0.25 0.001735
vt 0.9898 0.7396
vt 0.2587 0.9896
vt 0.9167 0.9167
vt 0.9217 0.9167
vt 0.2612 0.0103
vt 0.2499 -2.384e-06
vt 0.7326 0.9896
vt 0.4999 -1.431e-05
vt 0.08309 0.08313
vt 1.761e-05 0.01042
vt 0.2517 0.00868
vt 0.9167 0.9167
vt 0.7378 0.9896
vt 0.997 0.75
vt 0.08321 0.08323
vt 0.25 0.001735
vt 0.9959 0.9167
vt 0.2608 0.01036
vt 3.382e-05 -1.073e-06
vt 0.5 -1.192e-07
vt 5.637e-06 0.08333
vt 0.2604 -2.384e-07
vt 0.2499 -2.384e-06
vt 0.9864 1
vt 0.9167 0.9167
vt 0.9908 0.7413
vt 0.9167 0.9167
vt 0.259 0.008622
vt 1.761e-05 0.01042
vt 0.01043 -5.96e-07
vt 0.7396 0.9896
vt 0.4937 -1.943e-05
vt 0.01043 -5.96e-07
vt 0.001738 0.25
vt 0.7378 0.9896
vt 0.4937 -1.943e-05
vt 1.78e-05 0.25
vt 1.78e-05 0.25
vt 0.9167 0.9167
vt 3.545e-06 0.5
vt 0.9167 0.9167
vt 0.259 0.008622
vt 0.00862 0.2517
vt 0.001738 0.25
vt 0.5 1
vt 0.2506 0.0103
vt 0.9967 0.7483
vt 0.001738 0.25
vt 0.4931 1
vt 0.418 -3.898e-05
vt -4.842e-05 0.5
vt -2.507e-06 0.5
vt 0.7326 0.9896
vt 0.259 0.008622
vt 0.08334 -4.768e-07
vt 0.7373 0.9896
vt 0.7396 0.9896
vt 0.9156 1
vt 0.9896 0.7396
vt 0.08321 0.07629
vt 0.00862 0.2517
vt 1 0.4896
vt 0.4166 1
vt 1 0.5
vt 0.9908 0.7413
vt 0.08309 0.08313
vt -2.507e-06 0.5
vt 1.78e-05 0.25
vt 0.4931 1
vt 0.2506 0.0103
vt 7.09e-06 0.5
vt 1 0.4167
vt 0.7378 0.9896
vt 0.9896 0.7396
vt 0.001738 0.25
vt 0.2604 -2.384e-07
vt 0 0.25
vt 0.9967 0.7483
vt 1 0.5
vt 0.9896 0.7396
vt 1 0.4896
vt 0.08334 -3.576e-07
vt 0 -1.192e-07
vt 0.9896 0.7396
vt 0.9969 0.75
vt 0.08321 0.07629
vt 1.691e-05 -5.96e-07
vt 8.898e-06 0.25
vt 1 0.5
vt 0.259 0.008622
vt 1.691e-05 -5.96e-07
vt 0.9938 1
vt 0.9896 0.7396
vt 1 0.5
vt 8.898e-06 0.25
vt 0.08309 0.08313
vt 1.78e-05 0.25
vt 0.9864 1
vt 0.9896 0.7396
vt 0.9967 0.7483
vt 0.01 0.2602
vt 3.382e-05 -1.073e-06
vt 8.898e-06 0.25
vt 0.01021 0.2603
vt 7.09e-06 0.5
vt 0 0.5
vt 0.9896 0.7396
vt 0.08321 0.08323
vt 0.08321 0.08323
vt 0 0.25
vt 0.01021 0.2603
vt 0.9217 0.9167
vt 7.09e-06 0.5
vt 0.9896 0.7396
vt 3.545e-06 0.5
vt 0.9167 0.9167
vt 0.01042 0.2604
vt 0.01042 0.7396
vt 0.01041 0.7396
vt 0.4166 1
vt 0.08333 0.08333
vt 8.898e-06 0.25
vt -4.842e-05 0.5
vt 0.9167 0.9167
vt -2.507e-06 0.5
vt 0.7379 0.9896
vt 0.01021 0.2603
vt 0.0102 0.2586
vt -0.0001548 0.4999
vt 0.9896 0.7396
vt -0.0001488 0.5
vt -2.507e-06 0.5
vt 0.9959 0.9167
vt 0.7326 0.9896
vt 0 0.5
vt 0.01036 0.7396
vt 0.01041 0.7396
vt 0.4895 1
vt 0.01042 0.2604
vt 0.01041 0.7396
vt 0.7404 0.9913
vt 0.4895 1
vt 0.08332 0.9167
vt 0.7379 0.9896
vt 0.01 0.2602
vt 0.5017 1
vt 0.5034 1
vt 0.9167 0.9167
vt 0.9161 0.9167
vt -0.0002976 0.4999
vt 0.08333 0.9167
vt 0.01042 0.7396
vt 0.7396 0.9896
vt 0.7379 0.9896
vt -0.0001488 0.5
vt 0.7325 0.9896
vt 0.01036 0.7396
vt 0.4998 1
vt 0.08331 0.9167
vt 0.01021 0.2603
vt 0.7373 0.9896
vt 0.08332 0.9167
vt 0.9168 0.9167
vt 0.9167 0.9167
vt 0.4172 1
vt 0.08333 0.08333
vt 0.01041 0.7396
vt 0.7396 0.9896
vt 0.08334 -3.576e-07
vt 0.01042 0.2604
vt 0.4808 1
vt 0.0102 0.2586
vt 0.9167 0.9167
vt 0.7326 0.9896
vt 0.7373 0.9896
vt 0.01042 0.2604
vt 0.00862 0.2517
vt 0.9167 0.9167
vt 0.7404 0.9913
vt 0.08333 0.08333
vt 0.08321 0.07629
vt 0.08321 0.07629
vt 0.7379 0.9896
vt 0.9167 0.9167
vt 0.08333 0.08333
vt 0.2611 0.9898
vt 0.0102 0.2586
vt 0.9896 0.7396
vt 0.7373 0.9896
vt 0.01042 0.2604
vt 0.01 0.2602
vt 0.01042 0.2604
vt 0.01 0.2602
vt 0.08309 0.08313
vt 0.9167 0.9167
vt 0.08333 0.08333
vt -0.0002976 0.4999
vt 0.01042 0.2604
vt 0.00862 0.2517
vt 0.0102 0.2586
vt 0.9896 0.7396
vt 0.01036 0.7396
vt 0.9896 0.7396
vt 0 0.5
vt 0.2618 0.9899
vt -0.0001548 0.4999
vt 0.9168 0.9167
vt 0 0.5
vt 0.2604 0.9896
vt 0.2611 0.9898
vt 0.4999 1
vt -4.842e-05 0.5
vt 0.9897 0.7397
vt 0.01042 0.2604
vt 0.2604 0.9896
vt -4.842e-05 0.5
vt 1 0.5
vt 0.01023 0.7397
vt 0.01042 0.2604
vt 0.5 1
vt -0.0001548 0.4999
vt 0.9897 0.7397
vt 1 0.5001
vt 0 0.5
vt -0.0001548 0.4999
vt 0 0.5
vt 0.01023 0.7397
vt -0.0002976 0.4999
vt 0.9896 0.7396
vt 0.01042 0.2604
vt 0.5017 1
vt 0.01006 0.7398
vt 1 0.5
vt 0.01023 0.7397
vt 0.417 -2.384e-07
vt 0.2611 0.9898
vt 0.08333 0.9169
vt 0.9896 0.7396
vt 1 0.5
vt 0.25 0.01042
vt 0.08333 0.9171
vt 0.01006 0.7398
vt 0.2604 0.01042
vt 0.08333 0.9167
vt 0.01036 0.7396
vt 0.7396 0.9896
vt 0.4998 1
vt 0.5 0
vt 0.08333 0.9167
vt 0.08333 0.9169
vt 0.5 0
vt 0.08333 0.9169
vt 0.08333 0.9167
vt 0.4999 1
vt 0.7396 0.9913
vt 0.2604 0.01042
vt 0.01023 0.7397
vt 0.2674 0.01042
vt 0.2675 0.9896
vt 0.5833 -1.192e-07
vt 0.261 0.9898
vt 0.2604 0.01042
vt 0.08333 0.9169
vt 0.261 0.9898
vt 0.7396 0.9913
vt 0.08333 0.9169
vt 0.7395 1
vt 0.08333 0.08333
vt 0.08333 0.9169
vt 0.2512 0.9899
vt 0.5 1
vt 0.08333 0.08333
vt 0.08333 0.9171
vt 0.261 0.9898
vt 0.7396 0.9913
vt 0.2611 0.9898
vt 0.9166 0.9236
vt 0.2674 0.01042
vt 0.2618 0.9899
vt 0.5006 1
vt 0.9156 1
vt 0.7396 0.9896
vt 0.2512 0.9899
vt 0.25 0.01042
vt 0.08333 0.9171
vt 0.4188 1
vt 0.7395 1
vt 0.2675 0.9896
vt 0.08333 0.08333
vt 0.7493 0.9983
vt 0.9168 0.9167
vt 0.7604 1
vt 0.08333 0.08333
vt 0.5833 1
vt 0.9166 0.9236
vt 0.261 0.9898
vt 0.9168 0.9167
vt 0.5833 1
vt 1 0.4931
vt 0.2604 0.01042
vt 0.7404 0.9913
vt 0.9897 0.7397
vt 0.7604 1
vt 0.7396 0.9913
vt 0.5006 1
vt 0 0.5
vt 0.9972 0.9896
vt 0.2603 0.9896
vt 0.9896 0.7396
vt 0.08331 0.9167
vt 0.9897 0.7397
vt 0.01042 0.7396
vt 0.2621 0.9896
vt 1 1
vt 0.9166 0.9236
vt 0.9166 0.9236
vt 0.08332 0.9167
vt 0.01042 0.7396
vt 0.08332 0.9167
vt 0.5006 1
vt 0.9896 0.7396
vt 0.9908 0.7413
vt 0.2621 0.9896
vt 0 0.5
vt 0.5103 1
vt 0 0.5
vt 0.2675 0.9896
vt 0.5006 1
vt 0.01042 0.7396
vt 0.2621 0.9896
vt 0.9156 1
vt 0.08333 0.9167
vt 0.01042 0.7396
vt 0.2603 0.9896
vt 0.4998 1
vt 0.9896 0.7396
vt 0 0.5
vt 0.2675 0.9896
vt 0.01042 0.7396
vt 0.5833 1
vt 0.08333 0.9167
vt 0.5103 1
vt 0.08333 0.9167
vt 0.2621 0.9896
vt 0.01042 0.7396
vt 0.7493 0.9983
vt 0.01042 0.7396
vt 0.9972 0.9896
vt 0.4188 1
vt 0.9908 0.7413
vt 1 0.4167
vt 0.08333 0.9167
vt 0.7404 0.9913
vt 0.7493 0.9983
vt 0.08333 0.9167
vt 0.7493 0.9983
vt 0.01042 0.7396
vt -0.0002976 0.4999
vt 0.9959 0.9167
vt 0.01006 0.7398
vt 0.01024 0.7397
vt 0.4188 1
vt -0.0001488 0.5
vt 0.4808 1
vt -0.0001488 0.5
vt 0.7325 0.9896
vt 0.01024 0.7397
vt 0.9217 0.9167
vt 0.01042 0.7396
vt 0 0.5
vt 0.9967 0.7483
vt 0.01024 0.7397
vt 1 0.5
vt 0.08333 0.9169
vt 0.9969 0.75
vt 0.08333 0.9167
vt 0.01042 0.7396
vt 0.9898 0.7396
vt 0.01006 0.7398
vt 0.9217 0.9167
vt 0.08333 0.9171
vt 0.9161 0.9167
vt 0.08333 0.9169
vt 0.01024 0.7397
vt 0.9913 0.2604
vt 0.9238 0.08333
vt 1 0.5001
vt 0.9895 0.2674
vt 1 0.4931
vt 0.08333 0.9167
vt 1 0.08333
vt 0.2501 0.9896
vt 1 0.25
vt 0.9238 0.08333
vt 0.9896 0.7396
vt 0.2587 0.9896
vt 0.9169 0.08333
vn -0.01343 -0.02838 -0.9995
vn -0.4909 0.001587 -0.8712
vn -0.4024 -0.2202 -0.8886
vn 0.02762 -0.1917 -0.981
vn -0.3424 -0.3412 -0.8754
vn 0.04907 -0.2835 -0.9577
vn -0.6218 -0.228 -0.7492
vn -0.5535 -0.3471 -0.757
vn -0.7143 -0.02033 -0.6995
vn -0.5166 0.1821 -0.8366
vn -0.7627 0.1356 -0.6324
vn -0.1997 -0.2361 -0.951
vn -0.3856 -0.3024 -0.8717
vn -0.02057 0.107 -0.994
vn 0.1088 -0.2407 -0.9645
vn -0.8145 -0.151 -0.5602
vn -0.7491 -0.2741 -0.6031
vn -0.7027 -0.3518 -0.6184
vn -0.8871 -0.3819 -0.259
vn -0.8926 -0.3507 -0.2832
vn -0.8748 -0.4149 -0.2499
vn -0.8668 -0.07392 -0.4932
vn -0.8719 -0.4343 -0.2261
vn -0.4621 -0.464 -0.7557
vn -0.4512 -0.7158 -0.533
vn -0.3723 -0.7401 0.56
vn -0.7137 -0.6636 0.2243
vn -0.651 -0.7343 0.1921
vn -0.337 -0.8036 0.4906
vn -0.2603 -0.9305 -0.2575
vn -0.04221 -0.9944 -0.0965
vn 0.1336 -0.6381 0.7583
vn -0.09586 -0.706 0.7017
vn -0.0958 -0.7656 0.6361
vn 0.1334 -0.6947 0.7068
vn 0.1216 -0.9925 -0.01257
vn 0.2809 -0.9591 0.03284
vn -0.8061 -0.531 0.2612
vn -0.8867 -0.3844 0.2567
vn -0.4643 -0.6014 0.6501
vn -0.5711 -0.4037 0.7147
vn -0.1374 -0.5734 0.8077
vn -0.2126 -0.3513 0.9118
vn 0.101 -0.5091 0.8547
vn 0.03351 -0.2826 0.9586
vn -0.9255 -0.3065 0.2223
vn -0.8688 -0.3858 -0.3103
vn -0.9278 -0.3223 0.188
vn -0.7995 -0.5059 -0.3238
vn -0.6621 -0.1928 0.7242
vn -0.7286 -0.02451 0.6845
vn -0.3032 -0.0716 0.9502
vn -0.3858 0.1859 0.9036
vn -0.05661 0.008698 0.9984
vn -0.1425 0.2788 0.9497
vn 0.3079 -0.2025 0.9296
vn 0.2265 0.08032 0.9707
vn 0.1391 0.3489 0.9267
vn 0.5943 0.1423 0.7916
vn 0.5215 0.374 0.7669
vn 0.6377 -0.09207 0.7647
vn 0.3822 -0.5369 0.7521
vn 0.3609 -0.4178 0.8338
vn 0.6454 -0.2746 0.7128
vn 0.6328 -0.3873 0.6704
vn 0.8405 -0.2062 0.501
vn 0.8558 -0.1118 0.505
vn 0.868 0.004822 0.4965
vn 0.9659 0.00119 0.2589
vn 0.9724 0.04886 0.2283
vn 0.9659 -0.06256 0.2511
vn 0.8582 0.1417 0.4933
vn 0.8209 0.2965 0.488
vn 0.9754 0.09421 0.1993
vn 0.9686 0.1716 0.1797
vn 0.9945 0.05002 -0.0914
vn 0.989 0.0365 -0.1433
vn 0.9813 0.04715 -0.1866
vn 0.8318 -0.05313 -0.5525
vn 0.8156 -0.1021 -0.5695
vn 0.853 -0.01016 -0.5218
vn 0.9977 -0.01318 -0.06595
vn 0.998 0.03928 -0.04855
vn 0.8752 0.004364 -0.4837
vn 0.8737 -0.0253 -0.4858
vn 0.494 -0.1444 -0.8573
vn 0.4917 -0.1976 -0.848
vn 0.5017 -0.2834 -0.8173
vn 0.07102 -0.3477 -0.9349
vn 0.1175 -0.4517 -0.8844
vn 0.5083 -0.04071 -0.8602
vn 0.5078 -0.09449 -0.8562
vn -0.3056 -0.4142 -0.8573
vn -0.2359 -0.5297 -0.8147
vn -0.509 -0.4205 -0.751
vn -0.4342 -0.5372 -0.7231
vn 0.5135 -0.3688 -0.7748
vn 0.8052 -0.1554 -0.5722
vn 0.5259 -0.4154 -0.7422
vn 0.8041 -0.1817 -0.566
vn 0.1628 -0.5472 -0.821
vn 0.1942 -0.6013 -0.775
vn -0.1647 -0.6337 -0.7558
vn -0.1198 -0.694 -0.71
vn -0.3607 -0.6429 -0.6757
vn -0.3221 -0.702 -0.6352
vn -0.5817 -0.5399 -0.6084
vn -0.5106 -0.6411 -0.5729
vn -0.4849 -0.6852 -0.5435
vn -0.7273 -0.6125 -0.3095
vn -0.7075 -0.6426 -0.2942
vn -0.6595 -0.421 -0.6227
vn -0.9035 -0.3881 0.1815
vn -0.8853 -0.4232 0.193
vn -0.7579 0.02951 0.6517
vn -0.7498 -0.01303 0.6615
vn -0.5162 -0.6716 -0.5314
vn -0.3048 -0.744 -0.5946
vn -0.5819 -0.6313 -0.5126
vn -0.3181 -0.7696 -0.5535
vn -0.7783 -0.5426 -0.3158
vn -0.8513 -0.386 -0.3555
vn -0.9493 -0.2766 0.1494
vn -0.9979 -0.0444 0.0477
vn -0.7813 0.07602 0.6194
vn -0.8195 0.2859 0.4967
vn -0.4349 0.3087 0.8459
vn -0.4457 0.2687 0.8539
vn -0.19 0.415 0.8897
vn -0.1906 0.3861 0.9025
vn -0.4686 0.2957 0.8324
vn -0.5079 0.4593 0.7287
vn -0.2018 0.4035 0.8925
vn -0.2351 0.5507 0.8009
vn 0.1055 0.473 0.8747
vn 0.1055 0.4917 0.8643
vn 0.0748 0.6276 0.7749
vn 0.4523 0.5317 0.716
vn 0.4112 0.6635 0.625
vn 0.4682 0.4919 0.7341
vn 0.09137 0.4911 0.8663
vn 0.4669 0.5005 0.729
vn 0.7843 0.391 0.4816
vn 0.7768 0.4 0.4863
vn 0.9596 0.2273 0.1655
vn 0.9568 0.2453 0.1559
vn 0.742 0.4907 0.4567
vn 0.6839 0.6356 0.3581
vn 0.9167 0.383 0.1136
vn 0.8377 0.546 0.01071
vn 0.9712 0.0517 -0.2327
vn 0.9393 0.2049 -0.275
vn 0.8578 0.3666 -0.3603
vn 0.7995 -0.06351 -0.5973
vn 0.7545 0.05216 -0.6542
vn 0.9748 0.04953 -0.2173
vn 0.5421 -0.38 -0.7495
vn 0.5361 -0.3385 -0.7733
vn 0.2261 -0.6288 -0.7439
vn 0.2369 -0.6437 -0.7277
vn 0.5461 -0.3518 -0.7602
vn 0.7527 0.03851 -0.6572
vn 0.5727 -0.4101 -0.7098
vn 0.8037 -0.07917 -0.5898
vn 0.2425 -0.6502 -0.72
vn 0.25 -0.6564 -0.7117
vn 0.8419 0.3509 -0.4099
vn 0.8324 0.5482 -0.08032
vn 0.9018 0.2129 -0.3761
vn 0.8891 0.4472 -0.09677
vn -0.05908 -0.7803 -0.6226
vn -0.06879 -0.7866 -0.6136
vn -0.08386 -0.7774 -0.6233
vn -0.3739 -0.7718 -0.5143
vn -0.4305 -0.7641 -0.4804
vn -0.07855 -0.7456 -0.6617
vn -0.6707 -0.6001 -0.4359
vn -0.7418 -0.5896 -0.3195
vn -0.9059 -0.3053 -0.2933
vn -0.9422 -0.302 -0.1447
vn -0.0856 -0.7584 -0.6461
vn 0.2599 -0.6573 -0.7073
vn -0.07126 -0.7477 -0.6602
vn 0.2676 -0.6624 -0.6997
vn -0.4545 -0.7488 -0.4824
vn -0.4436 -0.7349 -0.5129
vn -0.7676 -0.5892 -0.2521
vn -0.7675 -0.5802 -0.2725
vn -0.9438 -0.329 -0.02948
vn -0.9446 -0.3271 -0.02786
vn -0.7488 -0.5934 -0.2951
vn -0.4076 -0.7571 -0.5105
vn -0.721 -0.64 -0.2655
vn -0.3659 -0.8117 -0.4553
vn -0.944 -0.3256 -0.05377
vn -0.9328 -0.3585 -0.03708
vn -0.04096 -0.776 -0.6294
vn 0.2813 -0.699 -0.6574
vn -0.002899 -0.8326 -0.5538
vn 0.3013 -0.7592 -0.5769
vn 0.5924 -0.4649 -0.6579
vn 0.8437 -0.2032 -0.4967
vn 0.5896 -0.5015 -0.6331
vn 0.8454 -0.2752 -0.4577
vn 0.5781 -0.5529 -0.6
vn 0.8309 -0.3328 -0.4458
vn 0.5705 -0.6225 -0.5357
vn 0.8206 -0.3939 -0.414
vn 0.9574 0.2888 0.0008545
vn 0.9731 -0.007935 -0.2303
vn 0.9743 -0.03687 -0.2221
vn 0.9568 0.2901 0.01529
vn 0.9769 -0.05179 -0.2073
vn 0.9511 0.3076 0.02615
vn 0.9572 0.06626 -0.2816
vn 0.9402 0.338 -0.04312
vn 0.4405 0.7586 0.48
vn 0.7362 0.6415 0.2157
vn 0.7724 0.5973 0.2159
vn 0.4569 0.771 0.4436
vn 0.7828 0.5783 0.2297
vn 0.4579 0.7782 0.4297
vn 0.775 0.5847 0.2395
vn 0.4493 0.7822 0.4316
vn 0.7621 0.6 0.2432
vn 0.4369 0.79 0.4301
vn -0.2829 0.7524 0.5949
vn 0.07044 0.8287 0.5552
vn 0.06568 0.8312 0.552
vn -0.2899 0.7532 0.5904
vn 0.05972 0.8353 0.5466
vn -0.2988 0.7538 0.5852
vn -0.2577 0.7007 0.6652
vn 0.07794 0.7705 0.6327
vn 0.07743 0.8093 0.5822
vn -0.2694 0.7361 0.6208
vn -0.8395 0.3382 0.4252
vn -0.5813 0.5941 0.556
vn -0.6019 0.5842 0.5445
vn -0.8583 0.3214 0.4
vn -0.6271 0.5643 0.5369
vn -0.8769 0.2798 0.3908
vn -0.8213 0.3834 0.4225
vn -0.5437 0.5851 0.6016
vn -0.5598 0.5939 0.5777
vn -0.8233 0.3553 0.4426
vn -0.9913 0.05033 0.1214
vn -0.9777 0.005982 0.2097
vn -0.9781 -0.0065 0.2077
vn -0.9836 -0.01019 0.1797
vn -0.982 -0.04666 0.1829
vn -0.6575 0.5521 0.5126
vn -0.8959 0.2399 0.3738
vn -0.688 0.5478 0.4759
vn -0.9136 0.2131 0.3462
vn -0.3118 0.7677 0.5598
vn -0.3219 0.7896 0.5223
vn -0.9778 -0.08744 0.1901
vn -0.9193 -0.3934 -0.004273
vn -0.9757 -0.1158 0.186
vn -0.9095 -0.4154 0.01712
vn -0.702 -0.6794 -0.2135
vn -0.3397 -0.8557 -0.3904
vn -0.6895 -0.7022 -0.1774
vn -0.3211 -0.879 -0.3524
vn -0.9746 -0.1326 0.1803
vn -0.9036 -0.4277 0.02457
vn -0.974 -0.1422 0.1762
vn -0.9003 -0.4346 0.02319
vn -0.9245 0.1946 0.3276
vn -0.9293 0.1825 0.3209
vn -0.6727 -0.7205 -0.1682
vn -0.2918 -0.8925 -0.344
vn -0.6532 -0.7365 -0.1754
vn -0.2552 -0.9011 -0.3505
vn 0.02451 -0.8755 -0.4825
vn 0.3152 -0.803 -0.5057
vn 0.04059 -0.8947 -0.4448
vn 0.3215 -0.8221 -0.4699
vn 0.05585 -0.9 -0.4324
vn 0.3251 -0.8277 -0.4574
vn 0.07389 -0.8993 -0.4309
vn 0.3276 -0.8285 -0.454
vn -0.6401 -0.7443 -0.1906
vn -0.2267 -0.9035 -0.3636
vn -0.638 -0.7392 -0.2156
vn -0.216 -0.8974 -0.3847
vn -0.8995 -0.4366 0.01376
vn -0.9022 -0.4312 -0.006928
vn 0.0904 -0.8954 -0.436
vn 0.3284 -0.8272 -0.4558
vn 0.09873 -0.8882 -0.4486
vn 0.3269 -0.8235 -0.4636
vn 0.821 -0.4349 -0.3699
vn 0.5634 -0.6916 -0.4519
vn 0.5642 -0.6969 -0.4427
vn 0.8208 -0.4378 -0.3669
vn 0.5627 -0.7002 -0.4393
vn 0.817 -0.4464 -0.3649
vn 0.5557 -0.7053 -0.4401
vn 0.8111 -0.4574 -0.3646
vn 0.5474 -0.7075 -0.4469
vn 0.8063 -0.462 -0.3693
vn 0.925 0.3799 0.007233
vn 0.9825 -0.006775 -0.1863
vn 0.9837 -0.01117 -0.1796
vn 0.9262 0.3766 0.01715
vn 0.9845 -0.01212 -0.1747
vn 0.9272 0.3735 0.02936
vn 0.9299 0.3676 0.01401
vn 0.9818 -0.01654 -0.1889
vn 0.9818 -0.00531 -0.1896
vn 0.9251 0.3797 0.005188
vn 0.4362 0.8252 0.3588
vn 0.7444 0.6396 0.1916
vn 0.7542 0.6357 0.1643
vn 0.4705 0.8218 0.3213
vn 0.7696 0.6197 0.1536
vn 0.5108 0.8046 0.3028
vn 0.7814 0.6041 0.1562
vn 0.5388 0.7873 0.2998
vn 0.7872 0.5938 0.1667
vn 0.5523 0.7754 0.3059
vn -0.3186 0.8079 0.4956
vn 0.1438 0.8905 0.4317
vn 0.1719 0.8856 0.4315
vn -0.3143 0.8075 0.4991
vn 0.1868 0.8804 0.436
vn -0.3133 0.8064 0.5016
vn 0.06787 0.8773 0.4752
vn 0.1032 0.8901 0.4439
vn -0.3231 0.8036 0.4997
vn -0.7224 0.5292 0.445
vn -0.7284 0.5218 0.4438
vn -0.932 0.1764 0.3164
vn -0.7339 0.5191 0.4381
vn -0.9357 0.1777 0.3048
vn -0.7103 0.5396 0.452
vn -0.9747 -0.1465 0.1689
vn -0.9779 -0.1429 0.1527
vn -0.9819 -0.1325 0.1351
vn -0.9066 -0.4211 -0.02802
vn -0.9839 -0.1231 0.129
vn -0.909 -0.4155 -0.03333
vn -0.939 0.1852 0.2897
vn -0.9393 0.1944 0.2825
vn -0.7394 0.5199 0.4277
vn -0.7416 0.5231 0.4199
vn -0.3136 0.8062 0.5016
vn -0.3117 0.8076 0.5007
vn -0.7398 0.5299 0.4145
vn -0.9377 0.205 0.2803
vn -0.7363 0.5399 0.4079
vn -0.9364 0.2182 0.2747
vn -0.3082 0.8112 0.497
vn -0.3053 0.8164 0.4902
vn -0.985 -0.116 0.1276
vn -0.9098 -0.4136 -0.03372
vn -0.9872 -0.1067 0.1189
vn -0.9117 -0.4083 -0.04559
vn 0.1971 0.8756 0.4409
vn 0.2094 0.8716 0.4432
vn 0.5589 0.7677 0.3133
vn 0.5675 0.7611 0.314
vn 0.2236 0.8693 0.4408
vn 0.235 0.8684 0.4367
vn 0.5816 0.7523 0.3095
vn 0.5962 0.7412 0.3083
vn 0.238 0.8658 0.44
vn -0.3035 0.8171 0.4901
vn 0.2286 0.8582 0.4595
vn -0.3025 0.8071 0.5071
vn 0.6037 0.732 0.3156
vn 0.6019 0.7261 0.3325
vn -0.7313 0.5462 0.4086
vn -0.9352 0.2271 0.2715
vn -0.7224 0.5444 0.4263
vn -0.9333 0.2271 0.2779
vn 0.7898 0.5871 0.1774
vn 0.7952 0.5806 0.1746
vn 0.8025 0.5688 0.1802
vn 0.9285 0.369 0.04096
vn 0.9311 0.361 0.05213
vn 0.9272 0.3724 0.03958
vn 0.8072 0.5584 0.1915
vn 0.809 0.5525 0.2006
vn 0.9328 0.3544 0.06513
vn 0.9331 0.353 0.06848
vn 0.9899 -0.005646 -0.1414
vn 0.9913 -0.007813 -0.1314
vn 0.9915 -0.002564 -0.1297
vn 0.8252 -0.4517 -0.3389
vn 0.8292 -0.447 -0.3354
vn 0.8243 -0.4513 -0.3418
vn 0.9866 -0.002167 -0.1628
vn 0.9881 -0.001984 -0.1537
vn 0.8215 -0.4511 -0.3487
vn 0.815 -0.4528 -0.3616
vn 0.5551 -0.7093 -0.4343
vn 0.5535 -0.7096 -0.4359
vn 0.5569 -0.7112 -0.429
vn 0.3297 -0.8224 -0.4637
vn 0.331 -0.8263 -0.4556
vn 0.3299 -0.8239 -0.4607
vn 0.5504 -0.707 -0.444
vn 0.5551 -0.7092 -0.4346
vn 0.3293 -0.8255 -0.4584
vn 0.327 -0.8226 -0.4651
vn 0.0994 -0.8836 -0.4575
vn 0.1046 -0.8859 -0.4518
vn 0.1109 -0.8828 -0.4563
vn -0.2138 -0.8924 -0.3973
vn -0.2051 -0.8903 -0.4065
vn -0.2201 -0.8886 -0.4023
vn 0.1132 -0.8791 -0.463
vn 0.1075 -0.8809 -0.4608
vn -0.2032 -0.8835 -0.4219
vn -0.2162 -0.8752 -0.4326
vn -0.6459 -0.7248 -0.2397
vn -0.6436 -0.7276 -0.2371
vn -0.6405 -0.7259 -0.2504
vn -0.6396 -0.7181 -0.2741
vn -0.6443 -0.7038 -0.2991
vn -0.9133 -0.4016 -0.06732
vn -0.9136 -0.3954 -0.09455
vn -0.9894 -0.09894 0.1061
vn -0.9909 -0.0968 0.0933
vn -0.9926 -0.095 0.0748
vn -0.9138 -0.3869 -0.1239
vn -0.9952 -0.08719 0.04285
vn -0.915 -0.3735 -0.1524
vn -0.9329 0.2255 0.2807
vn -0.9381 0.2299 0.2589
vn -0.6579 -0.683 -0.3173
vn -0.2474 -0.8676 -0.4312
vn -0.6802 -0.6578 -0.3234
vn -0.2956 -0.8607 -0.4144
vn -0.6964 -0.6278 -0.3476
vn -0.3382 -0.8376 -0.4289
vn -0.6596 -0.5878 -0.4684
vn -0.307 -0.7552 -0.5791
vn -0.9152 -0.3548 -0.191
vn -0.9015 -0.3259 -0.2847
vn -0.9977 -0.06711 -0.006256
vn -0.9946 -0.01065 -0.1032
vn -0.9472 0.2486 0.2026
vn -0.9442 0.3204 0.07672
vn -0.7155 0.5377 0.4459
vn -0.7314 0.5502 0.4028
vn -0.7419 0.6134 0.2707
vn -0.3329 0.7885 0.517
vn -0.3563 0.8455 0.3976
vn -0.3155 0.7785 0.5426
vn -0.7135 0.5394 0.4472
vn -0.3055 0.7903 0.5311
vn 0.2073 0.8489 0.4861
vn 0.1848 0.8469 0.4985
vn 0.5927 0.726 0.3488
vn 0.5828 0.7357 0.3451
vn 0.1659 0.8662 0.4713
vn 0.1319 0.9255 0.3549
vn 0.5722 0.7606 0.3068
vn 0.5394 0.817 0.2038
vn 0.8105 0.5593 0.1737
vn 0.8093 0.574 0.1245
vn 0.794 0.6065 0.04022
vn 0.9279 0.3702 -0.04349
vn 0.9161 0.3752 -0.1415
vn 0.9312 0.3641 0.01807
vn 0.8096 0.5523 0.1986
vn 0.9325 0.3568 0.05554
vn 0.9858 0.03912 -0.1632
vn 0.9723 0.05774 -0.2264
vn 0.9261 0.05683 -0.373
vn 0.8576 -0.3606 -0.3667
vn 0.7704 -0.3263 -0.5477
vn 0.8592 -0.3978 -0.3218
vn 0.9904 0.01407 -0.1376
vn 0.8414 -0.4299 -0.3275
vn 0.5986 -0.7054 -0.3795
vn 0.6103 -0.6807 -0.405
vn 0.5277 -0.6026 -0.5986
vn 0.3408 -0.8473 -0.4074
vn 0.2978 -0.7442 -0.5978
vn 0.3426 -0.8533 -0.393
vn 0.5717 -0.7114 -0.4086
vn 0.3355 -0.8375 -0.4312
vn 0.09153 -0.8914 -0.444
vn 0.06439 -0.9087 -0.4124
vn 0.03442 -0.9043 -0.4254
vn 0.035 -0.7977 -0.602
vn 0.09314 -0.5261 -0.8453
vn 0.1878 -0.4832 -0.8551
vn 0.1944 -0.2593 -0.946
vn 0.08676 -0.2369 -0.9676
vn -0.1484 -0.563 -0.813
vn 0.06955 -0.3407 -0.9376
vn 0.2851 -0.4337 -0.8547
vn 0.5227 -0.2701 -0.8086
vn 0.004181 -0.2741 -0.9617
vn 0.1881 -0.2058 -0.9603
vn 0.3119 -0.02643 -0.9497
vn 0.02261 -0.02643 -0.9994
vn 0.4363 0.5721 -0.6944
vn -0.1905 0.5851 -0.7882
vn 0.2709 -0.08362 -0.9589
vn 0.5662 0.482 -0.6686
vn -0.268 -0.1163 -0.9564
vn -0.2015 -0.09864 -0.9745
vn -0.7154 0.2537 -0.651
vn -0.7717 0.099 -0.6283
vn 0.5344 0.7935 -0.2911
vn 0.2955 0.7953 -0.5293
vn 0.2783 0.9128 -0.2987
vn 0.5786 0.7974 -0.171
vn -0.2956 0.8563 -0.4235
vn -0.207 0.6884 -0.6951
vn -0.6894 0.4382 -0.5768
vn -0.7848 0.5341 -0.3141
vn -0.9511 0.24 -0.1943
vn -0.9018 0.2567 -0.3475
vn 0.6606 0.6559 -0.3651
vn 0.4396 0.5266 -0.7276
vn -0.07532 0.4089 -0.9095
vn 0.1007 -0.02738 -0.9945
vn 0.5627 0.1136 -0.8188
vn 0.7995 0.1278 -0.5868
vn 0.7877 0.3464 -0.5094
vn 0.8018 0.4879 -0.3449
vn -0.5919 0.1664 -0.7886
vn -0.8997 0.08506 -0.4282
vn -0.8978 -0.1277 -0.4215
vn -0.7778 -0.2139 -0.5909
vn -0.6311 -0.3872 -0.6721
vn -0.3852 -0.225 -0.895
vn -0.2212 -0.6821 -0.697
vn -0.5798 -0.6397 -0.5045
vn -0.2137 -0.7635 -0.6095
vn -0.5729 -0.6272 -0.5275
vn 0.2751 -0.5484 -0.7897
vn 0.2978 -0.6732 -0.6768
vn 0.6997 -0.3312 -0.633
vn 0.7133 -0.331 -0.6177
vn 0.8988 -0.08649 -0.4298
vn 0.8415 0.03958 -0.5387
vn -0.3576 0.9313 -0.06888
vn 0.009522 0.9964 -0.08408
vn -0.3194 0.431 -0.8439
vn -0.05487 0.5404 -0.8396
vn -0.3295 0.526 -0.784
vn 0.3637 0.9066 -0.2137
vn -0.7582 0.5511 -0.3482
vn -0.6184 0.7642 -0.1833
vn 0.03458 0.68 -0.7324
vn -0.07895 0.6927 -0.7169
vn 0.07248 0.9882 0.1346
vn -0.3682 0.9159 0.16
vn 0.4688 0.8831 0.01633
vn -0.7009 0.7128 0.0267
vn -0.8812 0.4487 -0.149
vn -0.6055 -0.08139 -0.7916
vn -0.782 0.2612 -0.5659
vn -0.1844 0.5521 -0.8131
vn -0.1387 0.2718 -0.9523
vn 0.7908 0.3165 -0.5238
vn 0.6799 0.467 -0.5654
vn -0.9444 0.1044 -0.3117
vn -0.8142 -0.2542 -0.5219
vn -0.5017 -0.4907 -0.7123
vn -0.2641 -0.3159 -0.9113
vn 0.06427 0.006897 -0.9979
vn 0.5933 0.4919 -0.6371
vn 0.9385 0.1716 -0.2995
vn 0.8791 0.431 -0.2037
vn 0.7447 0.6511 -0.1466
vn 0.594 0.6987 -0.3987
vn -0.1234 0.5581 -0.8206
vn -0.7733 -0.3697 -0.515
vn 0.03717 0.4065 -0.9128
vn -0.8185 -0.08203 -0.5686
vn 0.6486 0.4159 -0.6374
vn 0.7427 0.6573 -0.1278
vn 0.8517 0.3866 -0.3537
vn 0.4964 0.07257 -0.865
vn -0.01511 0.126 -0.9919
vn -0.7752 0.07065 -0.6277
vn 0.7725 0.05249 -0.6328
vn -0.9815 0.01267 -0.1911
vn -0.9339 -0.2409 -0.2642
vn -0.7997 -0.4727 -0.3701
vn -0.643 -0.728 -0.2378
vn -0.2186 -0.8888 -0.4028
vn 0.09885 -0.8824 -0.4599
vn 0.3255 -0.8205 -0.4699
vn 0.5454 -0.7062 -0.4514
vn 0.8077 -0.458 -0.3713
vn 0.9854 -0.007569 -0.1701
vn 0.9274 0.3721 0.03824
vn 0.7885 0.589 0.1768
vn 0.05521 0.8532 0.5186
vn 0.4267 0.8089 0.4044
vn 0.7484 0.6234 0.2263
vn 0.9404 0.3389 0.02652
vn 0.9805 -0.03983 -0.1921
vn 0.8191 -0.4274 -0.3825
vn 0.5654 -0.6716 -0.4789
vn -0.9978 0.06012 0.02762
vn -0.8248 0.3855 0.4136
vn -0.5306 0.559 0.6371
vn -0.252 0.6529 0.7143
vn 0.06766 0.7221 0.6884
vn 0.4119 0.7371 0.5357
vn 0.689 0.6757 0.2619
vn 0.987 -0.0304 -0.1575
vn 0.8415 -0.04093 -0.5387
vn 0.7812 -0.376 -0.4982
vn 0.6442 -0.3486 -0.6808
vn 0.9784 -0.08267 0.1896
vn 0.8468 -0.4507 -0.2824
vn 0.5016 0.002441 -0.8651
vn 0.4296 -0.3023 -0.8509
vn 0.8407 -0.2513 0.4797
vn 0.783 -0.6181 -0.06915
vn 0.6168 -0.4419 0.6513
vn 0.6196 -0.7843 0.03049
vn 0.377 -0.5891 0.7147
vn 0.4482 -0.8925 0.05023
f 1/1/1 2/2/2 3/3/3
f 1/1/1 3/3/3 4/4/4
f 4/4/4 3/3/3 5/5/5
f 4/4/4 5/5/5 6/6/6
f 3/3/3 7/7/7 8/8/8
f 3/3/3 8/8/8 5/5/5
f 2/2/2 9/9/9 7/7/7
f 2/2/2 7/7/7 3/3/3
f 9/9/9 2/2/2 10/10/10
f 9/9/9 10/10/10 11/11/11
f 11/11/11 10/10/10 12/12/12
f 11/11/11 12/12/12 13/13/13
f 10/10/10 14/14/14 15/15/15
f 10/10/10 15/15/15 12/12/12
f 2/2/2 1/1/1 14/14/14
f 2/2/2 14/14/14 10/10/10
f 9/9/9 16/16/16 17/17/17
f 9/9/9 17/17/17 7/7/7
f 7/7/7 17/17/17 18/18/18
f 7/7/7 18/18/18 8/8/8
f 17/17/17 19/19/19 20/20/20
f 17/17/17 20/20/20 18/18/18
f 16/16/16 21/21/21 19/19/19
f 16/16/16 19/19/19 17/17/17
f 21/21/21 16/16/16 22/22/22
f 21/21/21 22/22/22 23/23/23
f 23/23/23 22/22/22 24/24/24
f 23/23/23 24/24/24 25/25/25
f 22/22/22 11/11/11 13/13/13
f 22/22/22 13/13/13 24/24/24
f 16/16/16 9/9/9 11/11/11
f 16/16/16 11/11/11 22/22/22
f 26/26/26 27/27/27 28/28/28
f 26/26/26 28/28/28 29/29/29
f 29/29/29 28/28/28 30/30/30
f 29/29/29 30/30/30 31/31/31
f 28/28/28 23/23/23 25/25/25
f 28/28/28 25/25/25 30/30/30
f 27/27/27 21/21/21 23/23/23
f 27/27/27 23/23/23 28/28/28
f 32/32/32 33/33/33 34/34/34
f 32/32/32 34/34/34 35/35/35
f 35/35/35 34/34/34 36/36/36
f 35/35/35 36/36/36 37/37/37
f 34/34/34 29/29/29 31/31/31
f 34/34/34 31/31/31 36/36/36
f 33/33/33 26/26/26 29/29/29
f 33/33/33 29/29/29 34/34/34
f 21/21/21 27/27/27 38/38/38
f 21/21/21 38/38/38 19/19/19
f 19/19/19 38/38/38 39/39/39
f 19/19/19 39/39/39 20/20/20
f 38/38/38 40/40/40 41/41/41
f 38/38/38 41/41/41 39/39/39
f 27/27/27 26/26/26 40/40/40
f 27/27/27 40/40/40 38/38/38
f 26/26/26 33/33/33 42/42/42
f 26/26/26 42/42/42 40/40/40
f 40/40/40 42/42/42 43/43/43
f 40/40/40 43/43/43 41/41/41
f 42/42/42 44/44/44 45/45/45
f 42/42/42 45/45/45 43/43/43
f 33/33/33 32/32/32 44/44/44
f 33/33/33 44/44/44 42/42/42
f 20/20/20 39/39/39 46/46/46
f 20/20/20 46/46/46 47/47/47
f 47/47/47 46/46/46 48/48/48
f 47/47/47 48/48/48 49/49/49
f 46/46/46 50/50/50 51/51/51
f 46/46/46 51/51/51 48/48/48
f 39/39/39 41/41/41 50/50/50
f 39/39/39 50/50/50 46/46/46
f 41/41/41 43/43/43 52/52/52
f 41/41/41 52/52/52 50/50/50
f 50/50/50 52/52/52 53/53/53
f 50/50/50 53/53/53 51/51/51
f 52/52/52 54/54/54 55/55/55
f 52/52/52 55/55/55 53/53/53
f 43/43/43 45/45/45 54/54/54
f 43/43/43 54/54/54 52/52/52
f 45/45/45 56/56/56 57/57/57
f 45/45/45 57/57/57 54/54/54
f 54/54/54 57/57/57 58/58/58
f 54/54/54 58/58/58 55/55/55
f 57/57/57 59/59/59 60/60/60
f 57/57/57 60/60/60 58/58/58
f 56/56/56 61/61/61 59/59/59
f 56/56/56 59/59/59 57/57/57
f 32/32/32 62/62/62 63/63/63
f 32/32/32 63/63/63 44/44/44
f 44/44/44 63/63/63 56/56/56
f 44/44/44 56/56/56 45/45/45
f 63/63/63 64/64/64 61/61/61
f 63/63/63 61/61/61 56/56/56
f 62/62/62 65/65/65 64/64/64
f 62/62/62 64/64/64 63/63/63
f 65/65/65 66/66/66 67/67/67
f 65/65/65 67/67/67 64/64/64
f 64/64/64 67/67/67 68/68/68
f 64/64/64 68/68/68 61/61/61
f 67/67/67 69/69/69 70/70/70
f 67/67/67 70/70/70 68/68/68
f 66/66/66 71/71/71 69/69/69
f 66/66/66 69/69/69 67/67/67
f 61/61/61 68/68/68 72/72/72
f 61/61/61 72/72/72 59/59/59
f 59/59/59 72/72/72 73/73/73
f 59/59/59 73/73/73 60/60/60
f 72/72/72 74/74/74 75/75/75
f 72/72/72 75/75/75 73/73/73
f 68/68/68 70/70/70 74/74/74
f 68/68/68 74/74/74 72/72/72
f 70/70/70 76/76/76 77/77/77
f 70/70/70 77/77/77 74/74/74
f 74/74/74 77/77/77 78/78/78
f 74/74/74 78/78/78 75/75/75
f 77/77/77 79/79/79 80/80/80
f 77/77/77 80/80/80 78/78/78
f 76/76/76 81/81/81 79/79/79
f 76/76/76 79/79/79 77/77/77
f 71/71/71 82/82/82 83/83/83
f 71/71/71 83/83/83 69/69/69
f 69/69/69 83/83/83 76/76/76
f 69/69/69 76/76/76 70/70/70
f 83/83/83 84/84/84 81/81/81
f 83/83/83 81/81/81 76/76/76
f 82/82/82 85/85/85 84/84/84
f 82/82/82 84/84/84 83/83/83
f 81/81/81 86/86/86 87/87/87
f 81/81/81 87/87/87 79/79/79
f 79/79/79 87/87/87 88/88/88
f 79/79/79 88/88/88 80/80/80
f 87/87/87 89/89/89 90/90/90
f 87/87/87 90/90/90 88/88/88
f 86/86/86 6/6/6 89/89/89
f 86/86/86 89/89/89 87/87/87
f 85/85/85 91/91/91 92/92/92
f 85/85/85 92/92/92 84/84/84
f 84/84/84 92/92/92 86/86/86
f 84/84/84 86/86/86 81/81/81
f 92/92/92 4/4/4 6/6/6
f 92/92/92 6/6/6 86/86/86
f 91/91/91 1/1/1 4/4/4
f 91/91/91 4/4/4 92/92/92
f 6/6/6 5/5/5 93/93/93
f 6/6/6 93/93/93 89/89/89
f 89/89/89 93/93/93 94/94/94
f 89/89/89 94/94/94 90/90/90
f 93/93/93 95/95/95 96/96/96
f 93/93/93 96/96/96 94/94/94
f 5/5/5 8/8/8 95/95/95
f 5/5/5 95/95/95 93/93/93
f 80/80/80 88/88/88 97/97/97
f 80/80/80 97/97/97 98/98/98
f 98/98/98 97/97/97 99/99/99
f 98/98/98 99/99/99 100/100/100
f 97/97/97 101/101/101 102/102/102
f 97/97/97 102/102/102 99/99/99
f 88/88/88 90/90/90 101/101/101
f 88/88/88 101/101/101 97/97/97
f 90/90/90 94/94/94 103/103/103
f 90/90/90 103/103/103 101/101/101
f 101/101/101 103/103/103 104/104/104
f 101/101/101 104/104/104 102/102/102
f 103/103/103 105/105/105 106/106/106
f 103/103/103 106/106/106 104/104/104
f 94/94/94 96/96/96 105/105/105
f 94/94/94 105/105/105 103/103/103
f 96/96/96 107/107/107 108/108/108
f 96/96/96 108/108/108 105/105/105
f 105/105/105 108/108/108 109/109/109
f 105/105/105 109/109/109 106/106/106
f 108/108/108 110/110/110 111/111/111
f 108/108/108 111/111/111 109/109/109
f 107/107/107 49/49/49 110/110/110
f 107/107/107 110/110/110 108/108/108
f 8/8/8 18/18/18 112/112/112
f 8/8/8 112/112/112 95/95/95
f 95/95/95 112/112/112 107/107/107
f 95/95/95 107/107/107 96/96/96
f 112/112/112 47/47/47 49/49/49
f 112/112/112 49/49/49 107/107/107
f 18/18/18 20/20/20 47/47/47
f 18/18/18 47/47/47 112/112/112
f 49/49/49 48/48/48 113/113/113
f 49/49/49 113/113/113 110/110/110
f 110/110/110 113/113/113 114/114/114
f 110/110/110 114/114/114 111/111/111
f 113/113/113 115/115/115 116/116/116
f 113/113/113 116/116/116 114/114/114
f 48/48/48 51/51/51 115/115/115
f 48/48/48 115/115/115 113/113/113
f 106/106/106 109/109/109 117/117/117
f 106/106/106 117/117/117 118/118/118
f 118/118/118 117/117/117 119/119/119
f 118/118/118 119/119/119 120/120/120
f 117/117/117 121/121/121 122/122/122
f 117/117/117 122/122/122 119/119/119
f 109/109/109 111/111/111 121/121/121
f 109/109/109 121/121/121 117/117/117
f 111/111/111 114/114/114 123/123/123
f 111/111/111 123/123/123 121/121/121
f 121/121/121 123/123/123 124/124/124
f 121/121/121 124/124/124 122/122/122
f 123/123/123 125/125/125 126/126/126
f 123/123/123 126/126/126 124/124/124
f 114/114/114 116/116/116 125/125/125
f 114/114/114 125/125/125 123/123/123
f 51/51/51 53/53/53 127/127/127
f 51/51/51 127/127/127 115/115/115
f 115/115/115 127/127/127 128/128/128
f 115/115/115 128/128/128 116/116/116
f 127/127/127 129/129/129 130/130/130
f 127/127/127 130/130/130 128/128/128
f 53/53/53 55/55/55 129/129/129
f 53/53/53 129/129/129 127/127/127
f 116/116/116 128/128/128 131/131/131
f 116/116/116 131/131/131 125/125/125
f 125/125/125 131/131/131 132/132/132
f 125/125/125 132/132/132 126/126/126
f 131/131/131 133/133/133 134/134/134
f 131/131/131 134/134/134 132/132/132
f 128/128/128 130/130/130 133/133/133
f 128/128/128 133/133/133 131/131/131
f 130/130/130 135/135/135 136/136/136
f 130/130/130 136/136/136 133/133/133
f 133/133/133 136/136/136 137/137/137
f 133/133/133 137/137/137 134/134/134
f 136/136/136 138/138/138 139/139/139
f 136/136/136 139/139/139 137/137/137
f 135/135/135 140/140/140 138/138/138
f 135/135/135 138/138/138 136/136/136
f 55/55/55 58/58/58 141/141/141
f 55/55/55 141/141/141 129/129/129
f 129/129/129 141/141/141 135/135/135
f 129/129/129 135/135/135 130/130/130
f 141/141/141 142/142/142 140/140/140
f 141/141/141 140/140/140 135/135/135
f 58/58/58 60/60/60 142/142/142
f 58/58/58 142/142/142 141/141/141
f 60/60/60 73/73/73 143/143/143
f 60/60/60 143/143/143 142/142/142
f 142/142/142 143/143/143 144/144/144
f 142/142/142 144/144/144 140/140/140
f 143/143/143 145/145/145 146/146/146
f 143/143/143 146/146/146 144/144/144
f 73/73/73 75/75/75 145/145/145
f 73/73/73 145/145/145 143/143/143
f 140/140/140 144/144/144 147/147/147
f 140/140/140 147/147/147 138/138/138
f 138/138/138 147/147/147 148/148/148
f 138/138/138 148/148/148 139/139/139
f 147/147/147 149/149/149 150/150/150
f 147/147/147 150/150/150 148/148/148
f 144/144/144 146/146/146 149/149/149
f 144/144/144 149/149/149 147/147/147
f 146/146/146 151/151/151 152/152/152
f 146/146/146 152/152/152 149/149/149
f 149/149/149 152/152/152 153/153/153
f 149/149/149 153/153/153 150/150/150
f 152/152/152 154/154/154 155/155/155
f 152/152/152 155/155/155 153/153/153
f 151/151/151 100/100/100 154/154/154
f 151/151/151 154/154/154 152/152/152
f 75/75/75 78/78/78 156/156/156
f 75/75/75 156/156/156 145/145/145
f 145/145/145 156/156/156 151/151/151
f 145/145/145 151/151/151 146/146/146
f 156/156/156 98/98/98 100/100/100
f 156/156/156 100/100/100 151/151/151
f 78/78/78 80/80/80 98/98/98
f 78/78/78 98/98/98 156/156/156
f 100/100/100 99/99/99 157/157/157
f 100/100/100 157/157/157 154/154/154
f 154/154/154 157/157/157 158/158/158
f 154/154/154 158/158/158 155/155/155
f 157/157/157 159/159/159 160/160/160
f 157/157/157 160/160/160 158/158/158
f 99/99/99 102/102/102 159/159/159
f 99/99/99 159/159/159 157/157/157
f 155/155/155 158/158/158 161/161/161
f 155/155/155 161/161/161 162/162/162
f 162/162/162 161/161/161 163/163/163
f 162/162/162 163/163/163 164/164/164
f 161/161/161 165/165/165 166/166/166
f 161/161/161 166/166/166 163/163/163
f 158/158/158 160/160/160 165/165/165
f 158/158/158 165/165/165 161/161/161
f 150/150/150 153/153/153 167/167/167
f 150/150/150 167/167/167 168/168/168
f 168/168/168 167/167/167 169/169/169
f 168/168/168 169/169/169 170/170/170
f 167/167/167 162/162/162 164/164/164
f 167/167/167 164/164/164 169/169/169
f 153/153/153 155/155/155 162/162/162
f 153/153/153 162/162/162 167/167/167
f 160/160/160 171/171/171 172/172/172
f 160/160/160 172/172/172 165/165/165
f 165/165/165 172/172/172 173/173/173
f 165/165/165 173/173/173 166/166/166
f 172/172/172 174/174/174 175/175/175
f 172/172/172 175/175/175 173/173/173
f 171/171/171 120/120/120 174/174/174
f 171/171/171 174/174/174 172/172/172
f 102/102/102 104/104/104 176/176/176
f 102/102/102 176/176/176 159/159/159
f 159/159/159 176/176/176 171/171/171
f 159/159/159 171/171/171 160/160/160
f 176/176/176 118/118/118 120/120/120
f 176/176/176 120/120/120 171/171/171
f 104/104/104 106/106/106 118/118/118
f 104/104/104 118/118/118 176/176/176
f 120/120/120 119/119/119 177/177/177
f 120/120/120 177/177/177 174/174/174
f 174/174/174 177/177/177 178/178/178
f 174/174/174 178/178/178 175/175/175
f 177/177/177 179/179/179 180/180/180
f 177/177/177 180/180/180 178/178/178
f 119/119/119 122/122/122 179/179/179
f 119/119/119 179/179/179 177/177/177
f 166/166/166 173/173/173 181/181/181
f 166/166/166 181/181/181 182/182/182
f 182/182/182 181/181/181 183/183/183
f 182/182/182 183/183/183 184/184/184
f 181/181/181 185/185/185 186/186/186
f 181/181/181 186/186/186 183/183/183
f 173/173/173 175/175/175 185/185/185
f 173/173/173 185/185/185 181/181/181
f 175/175/175 178/178/178 187/187/187
f 175/175/175 187/187/187 185/185/185
f 185/185/185 187/187/187 188/188/188
f 185/185/185 188/188/188 186/186/186
f 187/187/187 189/189/189 190/190/190
f 187/187/187 190/190/190 188/188/188
f 178/178/178 180/180/180 189/189/189
f 178/178/178 189/189/189 187/187/187
f 186/186/186 188/188/188 191/191/191
f 186/186/186 191/191/191 192/192/192
f 192/192/192 191/191/191 193/193/193
f 192/192/192 193/193/193 194/194/194
f 191/191/191 195/195/195 196/196/196
f 191/191/191 196/196/196 193/193/193
f 188/188/188 190/190/190 195/195/195
f 188/188/188 195/195/195 191/191/191
f 184/184/184 183/183/183 197/197/197
f 184/184/184 197/197/197 198/198/198
f 198/198/198 197/197/197 199/199/199
f 198/198/198 199/199/199 200/200/200
f 197/197/197 192/192/192 194/194/194
f 197/197/197 194/194/194 199/199/199
f 183/183/183 186/186/186 192/192/192
f 183/183/183 192/192/192 197/197/197
f 164/164/164 163/163/163 201/201/201
f 164/164/164 201/201/201 202/202/202
f 202/202/202 201/201/201 203/203/203
f 202/202/202 203/203/203 204/204/204
f 201/201/201 182/182/182 184/184/184
f 201/201/201 184/184/184 203/203/203
f 163/163/163 166/166/166 182/182/182
f 163/163/163 182/182/182 201/201/201
f 204/204/204 203/203/203 205/205/205
f 204/204/204 205/205/205 206/206/206
f 206/206/206 205/205/205 207/207/207
f 206/206/206 207/207/207 208/208/208
f 205/205/205 198/198/198 200/200/200
f 205/205/205 200/200/200 207/207/207
f 203/203/203 184/184/184 198/198/198
f 203/203/203 198/198/198 205/205/205
f 209/209/209 210/210/210 211/211/211
f 209/209/209 211/211/211 212/212/212
f 212/212/212 211/211/211 213/213/213
f 212/212/212 213/213/213 214/214/214
f 211/211/211 206/206/206 208/208/208
f 211/211/211 208/208/208 213/213/213
f 210/210/210 204/204/204 206/206/206
f 210/210/210 206/206/206 211/211/211
f 170/170/170 169/169/169 215/215/215
f 170/170/170 215/215/215 216/216/216
f 216/216/216 215/215/215 210/210/210
f 216/216/216 210/210/210 209/209/209
f 215/215/215 202/202/202 204/204/204
f 215/215/215 204/204/204 210/210/210
f 169/169/169 164/164/164 202/202/202
f 169/169/169 202/202/202 215/215/215
f 217/217/217 218/218/218 219/219/219
f 217/217/217 219/219/219 220/220/220
f 220/220/220 219/219/219 221/221/221
f 220/220/220 221/221/221 222/222/222
f 219/219/219 216/216/216 209/209/209
f 219/219/219 209/209/209 221/221/221
f 218/218/218 170/170/170 216/216/216
f 218/218/218 216/216/216 219/219/219
f 222/222/222 221/221/221 223/223/223
f 222/222/222 223/223/223 224/224/224
f 224/224/224 223/223/223 225/225/225
f 224/224/224 225/225/225 226/226/226
f 223/223/223 212/212/212 214/214/214
f 223/223/223 214/214/214 225/225/225
f 221/221/221 209/209/209 212/212/212
f 221/221/221 212/212/212 223/223/223
f 227/227/227 228/228/228 229/229/229
f 227/227/227 229/229/229 230/230/230
f 230/230/230 229/229/229 231/231/231
f 230/230/230 231/231/231 232/232/232
f 229/229/229 224/224/224 226/226/226
f 229/229/229 226/226/226 231/231/231
f 228/228/228 222/222/222 224/224/224
f 228/228/228 224/224/224 229/229/229
f 233/233/233 234/234/234 235/235/235
f 233/233/233 235/235/235 236/236/236
f 236/236/236 235/235/235 228/228/228
f 236/236/236 228/228/228 227/227/227
f 235/235/235 220/220/220 222/222/222
f 235/235/235 222/222/222 228/228/228
f 234/234/234 217/217/217 220/220/220
f 234/234/234 220/220/220 235/235/235
f 237/237/237 238/238/238 239/239/239
f 237/237/237 239/239/239 240/240/240
f 240/240/240 239/239/239 241/241/241
f 240/240/240 241/241/241 242/242/242
f 239/239/239 230/230/230 232/232/232
f 239/239/239 232/232/232 241/241/241
f 238/238/238 227/227/227 230/230/230
f 238/238/238 230/230/230 239/239/239
f 243/243/243 244/244/244 245/245/245
f 243/243/243 245/245/245 246/246/246
f 246/246/246 245/245/245 238/238/238
f 246/246/246 238/238/238 237/237/237
f 245/245/245 236/236/236 227/227/227
f 245/245/245 227/227/227 238/238/238
f 244/244/244 233/233/233 236/236/236
f 244/244/244 236/236/236 245/245/245
f 180/180/180 247/247/247 248/248/248
f 180/180/180 248/248/248 189/189/189
f 189/189/189 248/248/248 249/249/249
f 189/189/189 249/249/249 190/190/190
f 248/248/248 246/246/246 237/237/237
f 248/248/248 237/237/237 249/249/249
f 247/247/247 243/243/243 246/246/246
f 247/247/247 246/246/246 248/248/248
f 190/190/190 249/249/249 250/250/250
f 190/190/190 250/250/250 195/195/195
f 195/195/195 250/250/250 251/251/251
f 195/195/195 251/251/251 196/196/196
f 250/250/250 240/240/240 242/242/242
f 250/250/250 242/242/242 251/251/251
f 249/249/249 237/237/237 240/240/240
f 249/249/249 240/240/240 250/250/250
f 242/242/242 241/241/241 252/252/252
f 242/242/242 252/252/252 253/253/253
f 253/253/253 252/252/252 254/254/254
f 253/253/253 254/254/254 255/255/255
f 252/252/252 256/256/256 257/257/257
f 252/252/252 257/257/257 254/254/254
f 241/241/241 232/232/232 256/256/256
f 241/241/241 256/256/256 252/252/252
f 196/196/196 251/251/251 258/258/258
f 196/196/196 258/258/258 259/259/259
f 259/259/259 258/258/258 260/260/260
f 259/259/259 260/260/260 261/261/261
f 258/258/258 253/253/253 255/255/255
f 258/258/258 255/255/255 260/260/260
f 251/251/251 242/242/242 253/253/253
f 251/251/251 253/253/253 258/258/258
f 194/194/194 193/193/193 262/262/262
f 194/194/194 262/262/262 263/263/263
f 263/263/263 262/262/262 264/264/264
f 263/263/263 264/264/264 265/265/265
f 262/262/262 259/259/259 261/261/261
f 262/262/262 261/261/261 264/264/264
f 193/193/193 196/196/196 259/259/259
f 193/193/193 259/259/259 262/262/262
f 261/261/261 260/260/260 266/266/266
f 261/261/261 266/266/266 267/267/267
f 267/267/267 266/266/266 268/268/268
f 267/267/267 268/268/268 269/269/269
f 266/266/266 270/270/270 271/271/271
f 266/266/266 271/271/271 268/268/268
f 260/260/260 255/255/255 270/270/270
f 260/260/260 270/270/270 266/266/266
f 265/265/265 264/264/264 272/272/272
f 265/265/265 272/272/272 273/273/273
f 273/273/273 272/272/272 274/274/274
f 273/273/273 274/274/274 275/275/275
f 272/272/272 267/267/267 269/269/269
f 272/272/272 269/269/269 274/274/274
f 264/264/264 261/261/261 267/267/267
f 264/264/264 267/267/267 272/272/272
f 200/200/200 199/199/199 276/276/276
f 200/200/200 276/276/276 277/277/277
f 277/277/277 276/276/276 278/278/278
f 277/277/277 278/278/278 279/279/279
f 276/276/276 263/263/263 265/265/265
f 276/276/276 265/265/265 278/278/278
f 199/199/199 194/194/194 263/263/263
f 199/199/199 263/263/263 276/276/276
f 279/279/279 278/278/278 280/280/280
f 279/279/279 280/280/280 281/281/281
f 281/281/281 280/280/280 282/282/282
f 281/281/281 282/282/282 283/283/283
f 280/280/280 273/273/273 275/275/275
f 280/280/280 275/275/275 282/282/282
f 278/278/278 265/265/265 273/273/273
f 278/278/278 273/273/273 280/280/280
f 275/275/275 274/274/274 284/284/284
f 275/275/275 284/284/284 285/285/285
f 285/285/285 284/284/284 286/286/286
f 285/285/285 286/286/286 287/287/287
f 284/284/284 288/288/288 289/289/289
f 284/284/284 289/289/289 286/286/286
f 274/274/274 269/269/269 288/288/288
f 274/274/274 288/288/288 284/284/284
f 283/283/283 282/282/282 290/290/290
f 283/283/283 290/290/290 291/291/291
f 291/291/291 290/290/290 292/292/292
f 291/291/291 292/292/292 293/293/293
f 290/290/290 285/285/285 287/287/287
f 290/290/290 287/287/287 292/292/292
f 282/282/282 275/275/275 285/285/285
f 282/282/282 285/285/285 290/290/290
f 294/294/294 295/295/295 296/296/296
f 294/294/294 296/296/296 297/297/297
f 297/297/297 296/296/296 298/298/298
f 297/297/297 298/298/298 299/299/299
f 296/296/296 281/281/281 283/283/283
f 296/296/296 283/283/283 298/298/298
f 295/295/295 279/279/279 281/281/281
f 295/295/295 281/281/281 296/296/296
f 299/299/299 298/298/298 300/300/300
f 299/299/299 300/300/300 301/301/301
f 301/301/301 300/300/300 302/302/302
f 301/301/301 302/302/302 303/303/303
f 300/300/300 291/291/291 293/293/293
f 300/300/300 293/293/293 302/302/302
f 298/298/298 283/283/283 291/291/291
f 298/298/298 291/291/291 300/300/300
f 304/304/304 305/305/305 306/306/306
f 304/304/304 306/306/306 307/307/307
f 307/307/307 306/306/306 308/308/308
f 307/307/307 308/308/308 309/309/309
f 306/306/306 301/301/301 303/303/303
f 306/306/306 303/303/303 308/308/308
f 305/305/305 299/299/299 301/301/301
f 305/305/305 301/301/301 306/306/306
f 310/310/310 311/311/311 312/312/312
f 310/310/310 312/312/312 313/313/313
f 313/313/313 312/312/312 305/305/305
f 313/313/313 305/305/305 304/304/304
f 312/312/312 297/297/297 299/299/299
f 312/312/312 299/299/299 305/305/305
f 311/311/311 294/294/294 297/297/297
f 311/311/311 297/297/297 312/312/312
f 314/314/314 315/315/315 316/316/316
f 314/314/314 316/316/316 317/317/317
f 317/317/317 316/316/316 318/318/318
f 317/317/317 318/318/318 319/319/319
f 316/316/316 313/313/313 304/304/304
f 316/316/316 304/304/304 318/318/318
f 315/315/315 310/310/310 313/313/313
f 315/315/315 313/313/313 316/316/316
f 319/319/319 318/318/318 320/320/320
f 319/319/319 320/320/320 321/321/321
f 321/321/321 320/320/320 322/322/322
f 321/321/321 322/322/322 323/323/323
f 320/320/320 307/307/307 309/309/309
f 320/320/320 309/309/309 322/322/322
f 318/318/318 304/304/304 307/307/307
f 318/318/318 307/307/307 320/320/320
f 324/324/324 325/325/325 326/326/326
f 324/324/324 326/326/326 327/327/327
f 327/327/327 326/326/326 328/328/328
f 327/327/327 328/328/328 329/329/329
f 326/326/326 321/321/321 323/323/323
f 326/326/326 323/323/323 328/328/328
f 325/325/325 319/319/319 321/321/321
f 325/325/325 321/321/321 326/326/326
f 257/257/257 330/330/330 331/331/331
f 257/257/257 331/331/331 332/332/332
f 332/332/332 331/331/331 325/325/325
f 332/332/332 325/325/325 324/324/324
f 331/331/331 317/317/317 319/319/319
f 331/331/331 319/319/319 325/325/325
f 330/330/330 314/314/314 317/317/317
f 330/330/330 317/317/317 331/331/331
f 271/271/271 333/333/333 334/334/334
f 271/271/271 334/334/334 335/335/335
f 335/335/335 334/334/334 336/336/336
f 335/335/335 336/336/336 337/337/337
f 334/334/334 327/327/327 329/329/329
f 334/334/334 329/329/329 336/336/336
f 333/333/333 324/324/324 327/327/327
f 333/333/333 327/327/327 334/334/334
f 255/255/255 254/254/254 338/338/338
f 255/255/255 338/338/338 270/270/270
f 270/270/270 338/338/338 333/333/333
f 270/270/270 333/333/333 271/271/271
f 338/338/338 332/332/332 324/324/324
f 338/338/338 324/324/324 333/333/333
f 254/254/254 257/257/257 332/332/332
f 254/254/254 332/332/332 338/338/338
f 269/269/269 268/268/268 339/339/339
f 269/269/269 339/339/339 288/288/288
f 288/288/288 339/339/339 340/340/340
f 288/288/288 340/340/340 289/289/289
f 339/339/339 335/335/335 337/337/337
f 339/339/339 337/337/337 340/340/340
f 268/268/268 271/271/271 335/335/335
f 268/268/268 335/335/335 339/339/339
f 289/289/289 340/340/340 341/341/341
f 289/289/289 341/341/341 342/342/342
f 342/342/342 341/341/341 343/343/343
f 342/342/342 343/343/343 344/344/344
f 341/341/341 345/345/345 346/346/346
f 341/341/341 346/346/346 343/343/343
f 340/340/340 337/337/337 345/345/345
f 340/340/340 345/345/345 341/341/341
f 337/337/337 336/336/336 347/347/347
f 337/337/337 347/347/347 345/345/345
f 345/345/345 347/347/347 348/348/348
f 345/345/345 348/348/348 346/346/346
f 347/347/347 349/349/349 350/350/350
f 347/347/347 350/350/350 348/348/348
f 336/336/336 329/329/329 349/349/349
f 336/336/336 349/349/349 347/347/347
f 346/346/346 348/348/348 351/351/351
f 346/346/346 351/351/351 352/352/352
f 352/352/352 351/351/351 353/353/353
f 352/352/352 353/353/353 354/354/354
f 351/351/351 355/355/355 356/356/356
f 351/351/351 356/356/356 353/353/353
f 348/348/348 350/350/350 355/355/355
f 348/348/348 355/355/355 351/351/351
f 344/344/344 343/343/343 357/357/357
f 344/344/344 357/357/357 358/358/358
f 358/358/358 357/357/357 359/359/359
f 358/358/358 359/359/359 360/360/360
f 357/357/357 352/352/352 354/354/354
f 357/357/357 354/354/354 359/359/359
f 343/343/343 346/346/346 352/352/352
f 343/343/343 352/352/352 357/357/357
f 329/329/329 328/328/328 361/361/361
f 329/329/329 361/361/361 349/349/349
f 349/349/349 361/361/361 362/362/362
f 349/349/349 362/362/362 350/350/350
f 361/361/361 363/363/363 364/364/364
f 361/361/361 364/364/364 362/362/362
f 328/328/328 323/323/323 363/363/363
f 328/328/328 363/363/363 361/361/361
f 350/350/350 362/362/362 365/365/365
f 350/350/350 365/365/365 355/355/355
f 355/355/355 365/365/365 366/366/366
f 355/355/355 366/366/366 356/356/356
f 365/365/365 367/367/367 368/368/368
f 365/365/365 368/368/368 366/366/366
f 362/362/362 364/364/364 367/367/367
f 362/362/362 367/367/367 365/365/365
f 356/356/356 366/366/366 369/369/369
f 356/356/356 369/369/369 370/370/370
f 370/370/370 369/369/369 371/371/371
f 370/370/370 371/371/371 372/372/372
f 369/369/369 373/373/373 374/374/374
f 369/369/369 374/374/374 371/371/371
f 366/366/366 368/368/368 373/373/373
f 366/366/366 373/373/373 369/369/369
f 354/354/354 353/353/353 375/375/375
f 354/354/354 375/375/375 376/376/376
f 376/376/376 375/375/375 377/377/377
f 376/376/376 377/377/377 378/378/378
f 375/375/375 370/370/370 372/372/372
f 375/375/375 372/372/372 377/377/377
f 353/353/353 356/356/356 370/370/370
f 353/353/353 370/370/370 375/375/375
f 364/364/364 379/379/379 380/380/380
f 364/364/364 380/380/380 367/367/367
f 367/367/367 380/380/380 381/381/381
f 367/367/367 381/381/381 368/368/368
f 380/380/380 382/382/382 383/383/383
f 380/380/380 383/383/383 381/381/381
f 379/379/379 384/384/384 382/382/382
f 379/379/379 382/382/382 380/380/380
f 368/368/368 381/381/381 385/385/385
f 368/368/368 385/385/385 373/373/373
f 373/373/373 385/385/385 386/386/386
f 373/373/373 386/386/386 374/374/374
f 385/385/385 387/387/387 388/388/388
f 385/385/385 388/388/388 386/386/386
f 381/381/381 383/383/383 387/387/387
f 381/381/381 387/387/387 385/385/385
f 383/383/383 389/389/389 390/390/390
f 383/383/383 390/390/390 387/387/387
f 387/387/387 390/390/390 391/391/391
f 387/387/387 391/391/391 388/388/388
f 390/390/390 392/392/392 393/393/393
f 390/390/390 393/393/393 391/391/391
f 389/389/389 394/394/394 392/392/392
f 389/389/389 392/392/392 390/390/390
f 384/384/384 395/395/395 396/396/396
f 384/384/384 396/396/396 382/382/382
f 382/382/382 396/396/396 389/389/389
f 382/382/382 389/389/389 383/383/383
f 396/396/396 397/397/397 394/394/394
f 396/396/396 394/394/394 389/389/389
f 395/395/395 398/398/398 397/397/397
f 395/395/395 397/397/397 396/396/396
f 394/394/394 399/399/399 400/400/400
f 394/394/394 400/400/400 392/392/392
f 392/392/392 400/400/400 401/401/401
f 392/392/392 401/401/401 393/393/393
f 400/400/400 402/402/402 403/403/403
f 400/400/400 403/403/403 401/401/401
f 399/399/399 404/404/404 402/402/402
f 399/399/399 402/402/402 400/400/400
f 398/398/398 405/405/405 406/406/406
f 398/398/398 406/406/406 397/397/397
f 397/397/397 406/406/406 399/399/399
f 397/397/397 399/399/399 394/394/394
f 406/406/406 407/407/407 404/404/404
f 406/406/406 404/404/404 399/399/399
f 405/405/405 408/408/408 407/407/407
f 405/405/405 407/407/407 406/406/406
f 408/408/408 409/409/409 410/410/410
f 408/408/408 410/410/410 407/407/407
f 407/407/407 410/410/410 411/411/411
f 407/407/407 411/411/411 404/404/404
f 410/410/410 412/412/412 413/413/413
f 410/410/410 413/413/413 411/411/411
f 409/409/409 414/414/414 412/412/412
f 409/409/409 412/412/412 410/410/410
f 404/404/404 411/411/411 415/415/415
f 404/404/404 415/415/415 402/402/402
f 402/402/402 415/415/415 416/416/416
f 402/402/402 416/416/416 403/403/403
f 415/415/415 417/417/417 418/418/418
f 415/415/415 418/418/418 416/416/416
f 411/411/411 413/413/413 417/417/417
f 411/411/411 417/417/417 415/415/415
f 414/414/414 419/419/419 420/420/420
f 414/414/414 420/420/420 412/412/412
f 412/412/412 420/420/420 421/421/421
f 412/412/412 421/421/421 413/413/413
f 420/420/420 358/358/358 360/360/360
f 420/420/420 360/360/360 421/421/421
f 419/419/419 344/344/344 358/358/358
f 419/419/419 358/358/358 420/420/420
f 413/413/413 421/421/421 422/422/422
f 413/413/413 422/422/422 417/417/417
f 417/417/417 422/422/422 423/423/423
f 417/417/417 423/423/423 418/418/418
f 422/422/422 424/424/424 425/425/425
f 422/422/422 425/425/425 423/423/423
f 421/421/421 360/360/360 424/424/424
f 421/421/421 424/424/424 422/422/422
f 360/360/360 359/359/359 426/426/426
f 360/360/360 426/426/426 424/424/424
f 424/424/424 426/426/426 427/427/427
f 424/424/424 427/427/427 425/425/425
f 426/426/426 376/376/376 378/378/378
f 426/426/426 378/378/378 427/427/427
f 359/359/359 354/354/354 376/376/376
f 359/359/359 376/376/376 426/426/426
f 425/425/425 427/427/427 428/428/428
f 425/425/425 428/428/428 429/429/429
f 429/429/429 428/428/428 430/430/430
f 429/429/429 430/430/430 431/431/431
f 428/428/428 432/432/432 433/433/433
f 428/428/428 433/433/433 430/430/430
f 427/427/427 378/378/378 432/432/432
f 427/427/427 432/432/432 428/428/428
f 418/418/418 423/423/423 434/434/434
f 418/418/418 434/434/434 435/435/435
f 435/435/435 434/434/434 436/436/436
f 435/435/435 436/436/436 437/437/437
f 434/434/434 429/429/429 431/431/431
f 434/434/434 431/431/431 436/436/436
f 423/423/423 425/425/425 429/429/429
f 423/423/423 429/429/429 434/434/434
f 437/437/437 436/436/436 438/438/438
f 437/437/437 438/438/438 439/439/439
f 439/439/439 438/438/438 440/440/440
f 439/439/439 440/440/440 441/441/441
f 438/438/438 442/442/442 443/443/443
f 438/438/438 443/443/443 440/440/440
f 436/436/436 431/431/431 442/442/442
f 436/436/436 442/442/442 438/438/438
f 431/431/431 430/430/430 444/444/444
f 431/431/431 444/444/444 442/442/442
f 442/442/442 444/444/444 445/445/445
f 442/442/442 445/445/445 443/443/443
f 444/444/444 446/446/446 447/447/447
f 444/444/444 447/447/447 445/445/445
f 430/430/430 433/433/433 446/446/446
f 430/430/430 446/446/446 444/444/444
f 433/433/433 448/448/448 449/449/449
f 433/433/433 449/449/449 446/446/446
f 446/446/446 449/449/449 450/450/450
f 446/446/446 450/450/450 447/447/447
f 449/449/449 451/451/451 452/452/452
f 449/449/449 452/452/452 450/450/450
f 448/448/448 453/453/453 451/451/451
f 448/448/448 451/451/451 449/449/449
f 378/378/378 377/377/377 454/454/454
f 378/378/378 454/454/454 432/432/432
f 432/432/432 454/454/454 448/448/448
f 432/432/432 448/448/448 433/433/433
f 454/454/454 455/455/455 453/453/453
f 454/454/454 453/453/453 448/448/448
f 377/377/377 372/372/372 455/455/455
f 377/377/377 455/455/455 454/454/454
f 372/372/372 371/371/371 456/456/456
f 372/372/372 456/456/456 455/455/455
f 455/455/455 456/456/456 457/457/457
f 455/455/455 457/457/457 453/453/453
f 456/456/456 458/458/458 459/459/459
f 456/456/456 459/459/459 457/457/457
f 371/371/371 374/374/374 458/458/458
f 371/371/371 458/458/458 456/456/456
f 453/453/453 457/457/457 460/460/460
f 453/453/453 460/460/460 451/451/451
f 451/451/451 460/460/460 461/461/461
f 451/451/451 461/461/461 452/452/452
f 460/460/460 462/462/462 463/463/463
f 460/460/460 463/463/463 461/461/461
f 457/457/457 459/459/459 462/462/462
f 457/457/457 462/462/462 460/460/460
f 459/459/459 464/464/464 465/465/465
f 459/459/459 465/465/465 462/462/462
f 462/462/462 465/465/465 466/466/466
f 462/462/462 466/466/466 463/463/463
f 465/465/465 467/467/467 468/468/468
f 465/465/465 468/468/468 466/466/466
f 464/464/464 469/469/469 467/467/467
f 464/464/464 467/467/467 465/465/465
f 374/374/374 386/386/386 470/470/470
f 374/374/374 470/470/470 458/458/458
f 458/458/458 470/470/470 464/464/464
f 458/458/458 464/464/464 459/459/459
f 470/470/470 471/471/471 469/469/469
f 470/470/470 469/469/469 464/464/464
f 386/386/386 388/388/388 471/471/471
f 386/386/386 471/471/471 470/470/470
f 469/469/469 472/472/472 473/473/473
f 469/469/469 473/473/473 467/467/467
f 467/467/467 473/473/473 474/474/474
f 467/467/467 474/474/474 468/468/468
f 473/473/473 475/475/475 476/476/476
f 473/473/473 476/476/476 474/474/474
f 472/472/472 477/477/477 475/475/475
f 472/472/472 475/475/475 473/473/473
f 388/388/388 391/391/391 478/478/478
f 388/388/388 478/478/478 471/471/471
f 471/471/471 478/478/478 472/472/472
f 471/471/471 472/472/472 469/469/469
f 478/478/478 479/479/479 477/477/477
f 478/478/478 477/477/477 472/472/472
f 391/391/391 393/393/393 479/479/479
f 391/391/391 479/479/479 478/478/478
f 477/477/477 480/480/480 481/481/481
f 477/477/477 481/481/481 475/475/475
f 475/475/475 481/481/481 482/482/482
f 475/475/475 482/482/482 476/476/476
f 481/481/481 483/483/483 484/484/484
f 481/481/481 484/484/484 482/482/482
f 480/480/480 485/485/485 483/483/483
f 480/480/480 483/483/483 481/481/481
f 393/393/393 401/401/401 486/486/486
f 393/393/393 486/486/486 479/479/479
f 479/479/479 486/486/486 480/480/480
f 479/479/479 480/480/480 477/477/477
f 486/486/486 487/487/487 485/485/485
f 486/486/486 485/485/485 480/480/480
f 401/401/401 403/403/403 487/487/487
f 401/401/401 487/487/487 486/486/486
f 403/403/403 416/416/416 488/488/488
f 403/403/403 488/488/488 487/487/487
f 487/487/487 488/488/488 489/489/489
f 487/487/487 489/489/489 485/485/485
f 488/488/488 435/435/435 437/437/437
f 488/488/488 437/437/437 489/489/489
f 416/416/416 418/418/418 435/435/435
f 416/416/416 435/435/435 488/488/488
f 485/485/485 489/489/489 490/490/490
f 485/485/485 490/490/490 483/483/483
f 483/483/483 490/490/490 491/491/491
f 483/483/483 491/491/491 484/484/484
f 490/490/490 439/439/439 441/441/441
f 490/490/490 441/441/441 491/491/491
f 489/489/489 437/437/437 439/439/439
f 489/489/489 439/439/439 490/490/490
f 484/484/484 491/491/491 492/492/492
f 484/484/484 492/492/492 493/493/493
f 493/493/493 492/492/492 494/494/494
f 493/493/493 494/494/494 495/495/495
f 492/492/492 496/496/496 497/497/497
f 492/492/492 497/497/497 494/494/494
f 491/491/491 441/441/441 496/496/496
f 491/491/491 496/496/496 492/492/492
f 476/476/476 482/482/482 498/498/498
f 476/476/476 498/498/498 499/499/499
f 499/499/499 498/498/498 500/500/500
f 499/499/499 500/500/500 501/501/501
f 498/498/498 493/493/493 495/495/495
f 498/498/498 495/495/495 500/500/500
f 482/482/482 484/484/484 493/493/493
f 482/482/482 493/493/493 498/498/498
f 495/495/495 494/494/494 502/502/502
f 495/495/495 502/502/502 503/503/503
f 503/503/503 502/502/502 504/504/504
f 503/503/503 504/504/504 505/505/505
f 502/502/502 506/506/506 507/507/507
f 502/502/502 507/507/507 504/504/504
f 494/494/494 497/497/497 506/506/506
f 494/494/494 506/506/506 502/502/502
f 501/501/501 500/500/500 508/508/508
f 501/501/501 508/508/508 509/509/509
f 509/509/509 508/508/508 510/510/510
f 509/509/509 510/510/510 511/511/511
f 508/508/508 503/503/503 505/505/505
f 508/508/508 505/505/505 510/510/510
f 500/500/500 495/495/495 503/503/503
f 500/500/500 503/503/503 508/508/508
f 512/512/512 513/513/513 514/514/514
f 512/512/512 514/514/514 515/515/515
f 515/515/515 514/514/514 504/504/504
f 515/515/515 504/504/504 507/507/507
f 514/514/514 516/516/516 505/505/505
f 514/514/514 505/505/505 504/504/504
f 513/513/513 517/517/517 516/516/516
f 513/513/513 516/516/516 514/514/514
f 517/517/517 518/518/518 519/519/519
f 517/517/517 519/519/519 516/516/516
f 516/516/516 519/519/519 510/510/510
f 516/516/516 510/510/510 505/505/505
f 519/519/519 520/520/520 511/511/511
f 519/519/519 511/511/511 510/510/510
f 518/518/518 521/521/521 520/520/520
f 518/518/518 520/520/520 519/519/519
f 512/512/512 522/522/522 523/523/523
f 512/512/512 523/523/523 513/513/513
f 517/517/517 513/513/513 523/523/523
f 517/517/517 523/523/523 524/524/524
f 525/525/525 524/524/524 523/523/523
f 525/525/525 523/523/523 526/526/526
f 527/527/527 526/526/526 523/523/523
f 527/527/527 523/523/523 528/528/528
f 529/529/529 528/528/528 523/523/523
f 529/529/529 523/523/523 522/522/522
f 517/517/517 524/524/524 530/530/530
f 517/517/517 530/530/530 518/518/518
f 521/521/521 518/518/518 530/530/530
f 521/521/521 530/530/530 531/531/531
f 532/532/532 531/531/531 530/530/530
f 532/532/532 530/530/530 533/533/533
f 534/534/534 533/533/533 530/530/530
f 534/534/534 530/530/530 535/535/535
f 525/525/525 535/535/535 530/530/530
f 525/525/525 530/530/530 524/524/524
f 534/534/534 535/535/535 536/536/536
f 534/534/534 536/536/536 537/537/537
f 537/537/537 536/536/536 538/538/538
f 537/537/537 538/538/538 539/539/539
f 536/536/536 540/540/540 541/541/541
f 536/536/536 541/541/541 538/538/538
f 535/535/535 525/525/525 540/540/540
f 535/535/535 540/540/540 536/536/536
f 525/525/525 526/526/526 542/542/542
f 525/525/525 542/542/542 540/540/540
f 540/540/540 542/542/542 543/543/543
f 540/540/540 543/543/543 541/541/541
f 542/542/542 544/544/544 545/545/545
f 542/542/542 545/545/545 543/543/543
f 526/526/526 527/527/527 544/544/544
f 526/526/526 544/544/544 542/542/542
f 546/546/546 547/547/547 548/548/548
f 546/546/546 548/548/548 549/549/549
f 549/549/549 548/548/548 538/538/538
f 549/549/549 538/538/538 541/541/541
f 548/548/548 550/550/550 539/539/539
f 548/548/548 539/539/539 538/538/538
f 547/547/547 551/551/551 550/550/550
f 547/547/547 550/550/550 548/548/548
f 552/552/552 553/553/553 554/554/554
f 552/552/552 554/554/554 555/555/555
f 555/555/555 554/554/554 543/543/543
f 555/555/555 543/543/543 545/545/545
f 554/554/554 549/549/549 541/541/541
f 554/554/554 541/541/541 543/543/543
f 553/553/553 546/546/546 549/549/549
f 553/553/553 549/549/549 554/554/554
f 452/452/452 461/461/461 556/556/556
f 452/452/452 556/556/556 557/557/557
f 557/557/557 556/556/556 547/547/547
f 557/557/557 547/547/547 546/546/546
f 556/556/556 558/558/558 551/551/551
f 556/556/556 551/551/551 547/547/547
f 461/461/461 463/463/463 558/558/558
f 461/461/461 558/558/558 556/556/556
f 447/447/447 450/450/450 559/559/559
f 447/447/447 559/559/559 560/560/560
f 560/560/560 559/559/559 553/553/553
f 560/560/560 553/553/553 552/552/552
f 559/559/559 557/557/557 546/546/546
f 559/559/559 546/546/546 553/553/553
f 450/450/450 452/452/452 557/557/557
f 450/450/450 557/557/557 559/559/559
f 561/561/561 562/562/562 563/563/563
f 561/561/561 563/563/563 564/564/564
f 564/564/564 563/563/563 565/565/565
f 564/564/564 565/565/565 566/566/566
f 563/563/563 555/555/555 545/545/545
f 563/563/563 545/545/545 565/565/565
f 562/562/562 552/552/552 555/555/555
f 562/562/562 555/555/555 563/563/563
f 443/443/443 445/445/445 567/567/567
f 443/443/443 567/567/567 568/568/568
f 568/568/568 567/567/567 562/562/562
f 568/568/568 562/562/562 561/561/561
f 567/567/567 560/560/560 552/552/552
f 567/567/567 552/552/552 562/562/562
f 445/445/445 447/447/447 560/560/560
f 445/445/445 560/560/560 567/567/567
f 441/441/441 440/440/440 569/569/569
f 441/441/441 569/569/569 496/496/496
f 496/496/496 569/569/569 570/570/570
f 496/496/496 570/570/570 497/497/497
f 569/569/569 568/568/568 561/561/561
f 569/569/569 561/561/561 570/570/570
f 440/440/440 443/443/443 568/568/568
f 440/440/440 568/568/568 569/569/569
f 497/497/497 570/570/570 571/571/571
f 497/497/497 571/571/571 506/506/506
f 506/506/506 571/571/571 572/572/572
f 506/506/506 572/572/572 507/507/507
f 571/571/571 564/564/564 566/566/566
f 571/571/571 566/566/566 572/572/572
f 570/570/570 561/561/561 564/564/564
f 570/570/570 564/564/564 571/571/571
f 527/527/527 528/528/528 573/573/573
f 527/527/527 573/573/573 544/544/544
f 544/544/544 573/573/573 565/565/565
f 544/544/544 565/565/565 545/545/545
f 573/573/573 574/574/574 566/566/566
f 573/573/573 566/566/566 565/565/565
f 528/528/528 529/529/529 574/574/574
f 528/528/528 574/574/574 573/573/573
f 529/529/529 522/522/522 575/575/575
f 529/529/529 575/575/575 574/574/574
f 574/574/574 575/575/575 572/572/572
f 574/574/574 572/572/572 566/566/566
f 575/575/575 515/515/515 507/507/507
f 575/575/575 507/507/507 572/572/572
f 522/522/522 512/512/512 515/515/515
f 522/522/522 515/515/515 575/575/575
f 551/551/551 576/576/576 577/577/577
f 551/551/551 577/577/577 550/550/550
f 550/550/550 577/577/577 578/578/578
f 550/550/550 578/578/578 539/539/539
f 577/577/577 579/579/579 580/580/580
f 577/577/577 580/580/580 578/578/578
f 576/576/576 581/581/581 579/579/579
f 576/576/576 579/579/579 577/577/577
f 463/463/463 466/466/466 582/582/582
f 463/463/463 582/582/582 558/558/558
f 558/558/558 582/582/582 576/576/576
f 558/558/558 576/576/576 551/551/551
f 582/582/582 583/583/583 581/581/581
f 582/582/582 581/581/581 576/576/576
f 466/466/466 468/468/468 583/583/583
f 466/466/466 583/583/583 582/582/582
f 581/581/581 584/584/584 585/585/585
f 581/581/581 585/585/585 579/579/579
f 579/579/579 585/585/585 586/586/586
f 579/579/579 586/586/586 580/580/580
f 585/585/585 509/509/509 511/511/511
f 585/585/585 511/511/511 586/586/586
f 584/584/584 501/501/501 509/509/509
f 584/584/584 509/509/509 585/585/585
f 468/468/468 474/474/474 587/587/587
f 468/468/468 587/587/587 583/583/583
f 583/583/583 587/587/587 584/584/584
f 583/583/583 584/584/584 581/581/581
f 587/587/587 499/499/499 501/501/501
f 587/587/587 501/501/501 584/584/584
f 474/474/474 476/476/476 499/499/499
f 474/474/474 499/499/499 587/587/587
f 521/521/521 531/531/531 588/588/588
f 521/521/521 588/588/588 520/520/520
f 520/520/520 588/588/588 586/586/586
f 520/520/520 586/586/586 511/511/511
f 588/588/588 589/589/589 580/580/580
f 588/588/588 580/580/580 586/586/586
f 531/531/531 532/532/532 589/589/589
f 531/531/531 589/589/589 588/588/588
f 532/532/532 533/533/533 590/590/590
f 532/532/532 590/590/590 589/589/589
f 589/589/589 590/590/590 578/578/578
f 589/589/589 578/578/578 580/580/580
f 590/590/590 537/537/537 539/539/539
f 590/590/590 539/539/539 578/578/578
f 533/533/533 534/534/534 537/537/537
f 533/533/533 537/537/537 590/590/590
f 287/287/287 286/286/286 591/591/591
f 287/287/287 591/591/591 592/592/592
f 592/592/592 591/591/591 419/419/419
f 592/592/592 419/419/419 414/414/414
f 591/591/591 342/342/342 344/344/344
f 591/591/591 344/344/344 419/419/419
f 286/286/286 289/289/289 342/342/342
f 286/286/286 342/342/342 591/591/591
f 293/293/293 292/292/292 593/593/593
f 293/293/293 593/593/593 594/594/594
f 594/594/594 593/593/593 409/409/409
f 594/594/594 409/409/409 408/408/408
f 593/593/593 592/592/592 414/414/414
f 593/593/593 414/414/414 409/409/409
f 292/292/292 287/287/287 592/592/592
f 292/292/292 592/592/592 593/593/593
f 303/303/303 302/302/302 595/595/595
f 303/303/303 595/595/595 596/596/596
f 596/596/596 595/595/595 405/405/405
f 596/596/596 405/405/405 398/398/398
f 595/595/595 594/594/594 408/408/408
f 595/595/595 408/408/408 405/405/405
f 302/302/302 293/293/293 594/594/594
f 302/302/302 594/594/594 595/595/595
f 309/309/309 308/308/308 597/597/597
f 309/309/309 597/597/597 598/598/598
f 598/598/598 597/597/597 395/395/395
f 598/598/598 395/395/395 384/384/384
f 597/597/597 596/596/596 398/398/398
f 597/597/597 398/398/398 395/395/395
f 308/308/308 303/303/303 596/596/596
f 308/308/308 596/596/596 597/597/597
f 323/323/323 322/322/322 599/599/599
f 323/323/323 599/599/599 363/363/363
f 363/363/363 599/599/599 379/379/379
f 363/363/363 379/379/379 364/364/364
f 599/599/599 598/598/598 384/384/384
f 599/599/599 384/384/384 379/379/379
f 322/322/322 309/309/309 598/598/598
f 322/322/322 598/598/598 599/599/599
f 232/232/232 231/231/231 600/600/600
f 232/232/232 600/600/600 256/256/256
f 256/256/256 600/600/600 330/330/330
f 256/256/256 330/330/330 257/257/257
f 600/600/600 601/601/601 314/314/314
f 600/600/600 314/314/314 330/330/330
f 231/231/231 226/226/226 601/601/601
f 231/231/231 601/601/601 600/600/600
f 226/226/226 225/225/225 602/602/602
f 226/226/226 602/602/602 601/601/601
f 601/601/601 602/602/602 315/315/315
f 601/601/601 315/315/315 314/314/314
f 602/602/602 603/603/603 310/310/310
f 602/602/602 310/310/310 315/315/315
f 225/225/225 214/214/214 603/603/603
f 225/225/225 603/603/603 602/602/602
f 214/214/214 213/213/213 604/604/604
f 214/214/214 604/604/604 603/603/603
f 603/603/603 604/604/604 311/311/311
f 603/603/603 311/311/311 310/310/310
f 604/604/604 605/605/605 294/294/294
f 604/604/604 294/294/294 311/311/311
f 213/213/213 208/208/208 605/605/605
f 213/213/213 605/605/605 604/604/604
f 208/208/208 207/207/207 606/606/606
f 208/208/208 606/606/606 605/605/605
f 605/605/605 606/606/606 295/295/295
f 605/605/605 295/295/295 294/294/294
f 606/606/606 277/277/277 279/279/279
f 606/606/606 279/279/279 295/295/295
f 207/207/207 200/200/200 277/277/277
f 207/207/207 277/277/277 606/606/606
f 122/122/122 124/124/124 607/607/607
f 122/122/122 607/607/607 179/179/179
f 179/179/179 607/607/607 247/247/247
f 179/179/179 247/247/247 180/180/180
f 607/607/607 608/608/608 243/243/243
f 607/607/607 243/243/243 247/247/247
f 124/124/124 126/126/126 608/608/608
f 124/124/124 608/608/608 607/607/607
f 126/126/126 132/132/132 609/609/609
f 126/126/126 609/609/609 608/608/608
f 608/608/608 609/609/609 244/244/244
f 608/608/608 244/244/244 243/243/243
f 609/609/609 610/610/610 233/233/233
f 609/609/609 233/233/233 244/244/244
f 132/132/132 134/134/134 610/610/610
f 132/132/132 610/610/610 609/609/609
f 134/134/134 137/137/137 611/611/611
f 134/134/134 611/611/611 610/610/610
f 610/610/610 611/611/611 234/234/234
f 610/610/610 234/234/234 233/233/233
f 611/611/611 612/612/612 217/217/217
f 611/611/611 217/217/217 234/234/234
f 137/137/137 139/139/139 612/612/612
f 137/137/137 612/612/612 611/611/611
f 139/139/139 148/148/148 613/613/613
f 139/139/139 613/613/613 612/612/612
f 612/612/612 613/613/613 218/218/218
f 612/612/612 218/218/218 217/217/217
f 613/613/613 168/168/168 170/170/170
f 613/613/613 170/170/170 218/218/218
f 148/148/148 150/150/150 168/168/168
f 148/148/148 168/168/168 613/613/613
f 85/85/85 82/82/82 614/614/614
f 85/85/85 614/614/614 615/615/615
f 615/615/615 614/614/614 616/616/616
f 615/615/615 616/616/616 617/617/617
f 614/614/614 618/618/618 619/619/619
f 614/614/614 619/619/619 616/616/616
f 82/82/82 71/71/71 618/618/618
f 82/82/82 618/618/618 614/614/614
f 1/1/1 91/91/91 620/620/620
f 1/1/1 620/620/620 14/14/14
f 14/14/14 620/620/620 621/621/621
f 14/14/14 621/621/621 15/15/15
f 620/620/620 615/615/615 617/617/617
f 620/620/620 617/617/617 621/621/621
f 91/91/91 85/85/85 615/615/615
f 91/91/91 615/615/615 620/620/620
f 71/71/71 66/66/66 622/622/622
f 71/71/71 622/622/622 618/618/618
f 618/618/618 622/622/622 623/623/623
f 618/618/618 623/623/623 619/619/619
f 622/622/622 624/624/624 625/625/625
f 622/622/622 625/625/625 623/623/623
f 66/66/66 65/65/65 624/624/624
f 66/66/66 624/624/624 622/622/622
f 65/65/65 62/62/62 626/626/626
f 65/65/65 626/626/626 624/624/624
f 624/624/624 626/626/626 627/627/627
f 624/624/624 627/627/627 625/625/625
f 626/626/626 35/35/35 37/37/37
f 626/626/626 37/37/37 627/627/627
f 62/62/62 32/32/32 35/35/35
f 62/62/62 35/35/35 626/626/626
f 12/12/12 15/15/15 621/621/621
f 621/621/621 617/617/617 616/616/616
f 616/616/616 619/619/619 623/623/623
f 623/623/623 625/625/625 627/627/627
f 627/627/627 37/37/37 36/36/36
f 36/36/36 31/31/31 30/30/30
f 30/30/30 25/25/25 24/24/24
f 24/24/24 13/13/13 12/12/12
f 12/12/12 621/621/621 616/616/616
f 616/616/616 623/623/623 627/627/627
f 627/627/627 36/36/36 30/30/30
f 30/30/30 24/24/24 12/12/12
f 12/12/12 616/616/616 627/627/627
f 627/627/627 30/30/30 12/12/12
