v -0.608486 0.555663 0.910813
v -0.614848 0.547962 0.914665
v -0.616847 0.550641 0.912613
v -0.610415 0.55819 0.908484
v -0.618869 0.55276 0.909823
v -0.612505 0.560039 0.905802
v -0.622713 0.54325 0.920523
v -0.625183 0.545845 0.917308
v -0.620144 0.54019 0.922373
v -0.612679 0.544551 0.915462
v -0.617199 0.536575 0.921895
v -0.610395 0.540715 0.915504
v -0.614015 0.532642 0.920017
v -0.606674 0.55219 0.912464
v -0.604923 0.548162 0.913702
v -0.624245 0.532616 0.931487
v -0.628045 0.535851 0.929835
v -0.631679 0.539018 0.92609
v -0.631183 0.530738 0.938939
v -0.63637 0.534514 0.934989
v -0.625884 0.527359 0.940101
v -0.620101 0.529415 0.929504
v -0.620409 0.524704 0.936675
v -0.615746 0.526246 0.925331
v -0.614828 0.522487 0.930501
v -0.618848 0.529052 0.951456
v -0.62392 0.526368 0.946785
v -0.617357 0.5237 0.942244
v -0.611849 0.525702 0.946176
v -0.610782 0.52171 0.934905
v -0.604959 0.523151 0.938235
v -0.60459 0.540594 0.955506
v -0.611772 0.534193 0.954336
v -0.605232 0.529622 0.948682
v -0.598944 0.534793 0.949831
v -0.598974 0.525949 0.940338
v -0.593647 0.529952 0.941374
v -0.630485 0.530158 0.946576
v -0.637156 0.534588 0.943057
v -0.626078 0.533716 0.952149
v -0.633709 0.539066 0.949267
v -0.618842 0.540219 0.955359
v -0.626568 0.546874 0.952822
v -0.610893 0.547922 0.956434
v -0.617981 0.555766 0.953919
v -0.634903 0.553499 0.948161
v -0.641737 0.544666 0.944258
v -0.643257 0.56148 0.941277
v -0.649428 0.551995 0.937381
v -0.625881 0.563239 0.949552
v -0.634385 0.571527 0.942793
v -0.643958 0.539354 0.938083
v -0.641555 0.538508 0.930375
v -0.650477 0.545805 0.931763
v -0.646864 0.543745 0.924864
v -0.635466 0.542134 0.921999
v -0.62801 0.548168 0.913798
v -0.639971 0.545806 0.917173
v -0.631963 0.550491 0.909592
v -0.6567 0.555041 0.923227
v -0.652714 0.551145 0.917178
v -0.664647 0.565532 0.909401
v -0.660647 0.560007 0.904205
v -0.656484 0.562249 0.928045
v -0.665084 0.573573 0.913456
v -0.645904 0.550739 0.910278
v -0.637879 0.553356 0.903511
v -0.654308 0.557446 0.898347
v -0.646566 0.558297 0.892747
v -0.61818 0.563098 0.899905
v -0.624718 0.556285 0.903267
v -0.630088 0.558354 0.898058
v -0.623115 0.565062 0.895292
v -0.638348 0.562687 0.888424
v -0.630851 0.569452 0.886351
v -0.621257 0.554585 0.906837
v -0.614902 0.561602 0.903069
v -0.607523 0.578273 0.905573
v -0.612116 0.570873 0.900867
v -0.617414 0.572749 0.896228
v -0.613791 0.580491 0.900272
v -0.625235 0.57725 0.887193
v -0.622252 0.585314 0.890428
v -0.599824 0.574473 0.913105
v -0.605722 0.567983 0.90707
v -0.608458 0.56949 0.904126
v -0.603079 0.576514 0.909461
v -0.594907 0.567558 0.919825
v -0.601273 0.562979 0.912754
v -0.603353 0.56603 0.910082
v -0.59716 0.571708 0.916864
v -0.595834 0.577117 0.93304
v -0.596316 0.577399 0.922547
v -0.600148 0.580839 0.917853
v -0.600311 0.582265 0.927551
v -0.605541 0.583843 0.912897
v -0.606639 0.586946 0.921494
v -0.590047 0.563946 0.940749
v -0.591087 0.5674 0.930295
v -0.593438 0.57295 0.927274
v -0.592638 0.570806 0.93821
v -0.603635 0.569893 0.949069
v -0.598551 0.574481 0.942268
v -0.603778 0.581005 0.936762
v -0.609735 0.577297 0.944032
v -0.610896 0.587235 0.92997
v -0.617497 0.584713 0.936972
v -0.594711 0.553495 0.952626
v -0.591519 0.559141 0.948149
v -0.59472 0.566869 0.946783
v -0.598841 0.56161 0.952517
v -0.598953 0.5472 0.95498
v -0.604191 0.55522 0.955597
v -0.61018 0.56361 0.952822
v -0.617243 0.571351 0.948276
v -0.625504 0.579461 0.941359
v -0.635105 0.58902 0.930806
v -0.643507 0.581744 0.932415
v -0.646459 0.59933 0.914898
v -0.654399 0.592645 0.916564
v -0.627113 0.593216 0.926721
v -0.638405 0.602669 0.911341
v -0.620157 0.594242 0.920675
v -0.6311 0.60244 0.906433
v -0.61517 0.59218 0.913567
v -0.625477 0.598991 0.900832
v -0.651411 0.571992 0.931319
v -0.661197 0.583337 0.915988
v -0.659757 0.609557 0.892658
v -0.66797 0.602904 0.894182
v -0.674025 0.620115 0.866515
v -0.683012 0.613247 0.868008
v -0.650999 0.612698 0.889549
v -0.664099 0.623196 0.86344
v -0.67421 0.593702 0.89373
v -0.67717 0.583909 0.891513
v -0.689069 0.603683 0.867425
v -0.691252 0.593454 0.865084
v -0.688357 0.631556 0.838695
v -0.698215 0.624606 0.840545
v -0.703259 0.643733 0.807207
v -0.713969 0.636695 0.809529
v -0.677124 0.634165 0.83506
v -0.690783 0.645785 0.802868
v -0.704156 0.614235 0.839827
v -0.705562 0.602899 0.837077
v -0.719898 0.625337 0.808744
v -0.720669 0.612655 0.805581
v -0.718966 0.656051 0.770882
v -0.730449 0.648744 0.773474
v -0.733209 0.666829 0.736044
v -0.745264 0.659258 0.738784
v -0.705467 0.657863 0.766149
v -0.71901 0.668551 0.731076
v -0.736543 0.6365 0.772688
v -0.736978 0.622731 0.769329
v -0.75158 0.646335 0.737953
v -0.751901 0.63178 0.734434
v -0.684534 0.578128 0.857713
v -0.689286 0.584585 0.86157
v -0.702666 0.593114 0.8332
v -0.69719 0.586102 0.829267
v -0.716919 0.601789 0.80124
v -0.710696 0.594091 0.796986
v -0.732624 0.611026 0.764729
v -0.725806 0.602809 0.760285
v -0.747194 0.6195 0.72967
v -0.739968 0.610934 0.725122
v -0.671027 0.575342 0.851428
v -0.678429 0.574849 0.854265
v -0.690752 0.582666 0.826141
v -0.683073 0.583242 0.82371
v -0.703803 0.590351 0.793775
v -0.695648 0.590867 0.791259
v -0.718504 0.598824 0.757022
v -0.709865 0.599243 0.754409
v -0.732343 0.606768 0.721842
v -0.723333 0.607149 0.719225
v -0.676069 0.603794 0.787578
v -0.685702 0.595617 0.789011
v -0.699137 0.603983 0.751865
v -0.688806 0.612491 0.75017
v -0.712063 0.611991 0.716619
v -0.701214 0.620835 0.714849
v -0.653991 0.587237 0.848262
v -0.662394 0.579832 0.849318
v -0.673894 0.587914 0.821757
v -0.664928 0.595718 0.820629
v -0.644093 0.604864 0.84996
v -0.647501 0.596114 0.848529
v -0.658165 0.605273 0.820683
v -0.654736 0.614563 0.821778
v -0.669149 0.614108 0.787542
v -0.665885 0.624133 0.788643
v -0.681663 0.623647 0.750134
v -0.678502 0.634539 0.751337
v -0.693797 0.6326 0.714781
v -0.690595 0.644088 0.71597
v -0.671467 0.637946 0.793606
v -0.666713 0.631845 0.790566
v -0.679538 0.642677 0.753277
v -0.684659 0.649053 0.756353
v -0.69176 0.65255 0.717886
v -0.697167 0.659144 0.720978
v -0.648462 0.617926 0.855565
v -0.64453 0.612165 0.852327
v -0.655319 0.621923 0.82373
v -0.659647 0.627721 0.8267
v -0.655236 0.622052 0.859511
v -0.667164 0.632335 0.830731
v -0.679744 0.643188 0.797965
v -0.693557 0.654767 0.760909
v -0.706506 0.665166 0.725642
v -0.701408 0.659665 0.689593
v -0.70704 0.66647 0.692774
v -0.70963 0.665119 0.664724
v -0.715535 0.672224 0.668111
v -0.700186 0.651079 0.687732
v -0.708307 0.656438 0.662807
v -0.716662 0.672714 0.697584
v -0.729491 0.67633 0.703248
v -0.725432 0.678736 0.67315
v -0.738529 0.682677 0.679091
v -0.717998 0.670436 0.638527
v -0.724313 0.677996 0.642253
v -0.726655 0.675943 0.610811
v -0.73347 0.684029 0.614948
v -0.716421 0.661503 0.636327
v -0.724714 0.666646 0.60822
v -0.734617 0.684924 0.647611
v -0.748119 0.689374 0.653853
v -0.744254 0.691423 0.620669
v -0.758232 0.69645 0.62723
v -0.735239 0.681598 0.583066
v -0.742574 0.690186 0.587565
v -0.742794 0.687064 0.558951
v -0.750655 0.696174 0.563458
v -0.732886 0.671893 0.580193
v -0.739982 0.676855 0.556266
v -0.753825 0.697981 0.593624
v -0.768226 0.703477 0.600519
v -0.762354 0.704284 0.569715
v -0.777034 0.709964 0.576962
v -0.765926 0.674137 0.687731
v -0.753352 0.681597 0.6847
v -0.763361 0.688968 0.659727
v -0.776258 0.681771 0.662826
v -0.773962 0.696815 0.63337
v -0.787191 0.689938 0.636566
v -0.784341 0.704488 0.607007
v -0.797751 0.697917 0.610418
v -0.793211 0.711135 0.583868
v -0.806534 0.704655 0.587525
v -0.793954 0.656961 0.629881
v -0.793919 0.674808 0.634867
v -0.804321 0.682304 0.608677
v -0.804028 0.663644 0.603493
v -0.812951 0.688998 0.585676
v -0.812491 0.670169 0.580241
v -0.77281 0.644471 0.682169
v -0.772509 0.6603 0.686448
v -0.782964 0.667307 0.661287
v -0.783199 0.650512 0.656606
v -0.760093 0.622168 0.671918
v -0.767806 0.631307 0.676845
v -0.777975 0.636671 0.650932
v -0.769907 0.62707 0.645684
v -0.788427 0.642375 0.623888
v -0.779934 0.632254 0.618294
v -0.798176 0.648454 0.59727
v -0.789265 0.637881 0.591399
v -0.806452 0.654713 0.573873
v -0.797154 0.6438 0.567963
v -0.760308 0.627027 0.610842
v -0.77074 0.626806 0.614009
v -0.779478 0.631999 0.586768
v -0.768526 0.631956 0.583248
v -0.786675 0.63753 0.563345
v -0.775121 0.637115 0.559889
v -0.742454 0.618086 0.665798
v -0.751912 0.617588 0.66836
v -0.76127 0.622089 0.641799
v -0.751375 0.622504 0.639009
v -0.719821 0.63347 0.662338
v -0.730949 0.623813 0.663712
v -0.739555 0.628652 0.63689
v -0.728185 0.638725 0.635596
v -0.748117 0.633434 0.60846
v -0.736519 0.643829 0.607079
v -0.75613 0.638401 0.580583
v -0.744513 0.648928 0.579016
v -0.762594 0.643271 0.557314
v -0.751132 0.653633 0.555709
v -0.711884 0.645211 0.662024
v -0.720038 0.650408 0.63538
v -0.728248 0.65553 0.606984
v -0.736261 0.660657 0.578857
v -0.743072 0.66537 0.55527
v -0.766822 0.64771 0.541679
v -0.755594 0.657559 0.540391
v -0.769866 0.651716 0.530691
v -0.75888 0.660868 0.529949
v -0.779541 0.642243 0.543474
v -0.782833 0.647201 0.531206
v -0.747908 0.669264 0.539494
v -0.745274 0.681145 0.539578
v -0.751678 0.672492 0.528534
v -0.749631 0.684799 0.527429
v -0.755504 0.67534 0.518867
v -0.754093 0.687947 0.516636
v -0.759684 0.678067 0.511113
v -0.758817 0.690673 0.507933
v -0.762176 0.663873 0.520752
v -0.765737 0.666919 0.51345
v -0.772928 0.655415 0.520911
v -0.776089 0.659136 0.513099
v -0.786119 0.651921 0.519963
v -0.789227 0.656488 0.51082
v -0.791876 0.6432 0.546107
v -0.796007 0.648967 0.532325
v -0.803193 0.649855 0.550072
v -0.808177 0.656181 0.535001
v -0.799995 0.65474 0.519132
v -0.803381 0.660088 0.508207
v -0.812823 0.662744 0.520071
v -0.81635 0.668549 0.507588
v -0.812838 0.660997 0.555647
v -0.818105 0.667543 0.539906
v -0.818806 0.676263 0.562101
v -0.82389 0.682361 0.54646
v -0.822884 0.674351 0.524105
v -0.826052 0.680078 0.510894
v -0.828499 0.688669 0.530825
v -0.831297 0.693762 0.517755
v -0.82378 0.699249 0.553172
v -0.828272 0.704353 0.538593
v -0.831212 0.708393 0.526311
v -0.8219 0.717566 0.542589
v -0.825301 0.72071 0.531046
v -0.817284 0.713436 0.556143
v -0.819038 0.694364 0.568016
v -0.812596 0.709465 0.570248
v -0.799677 0.716193 0.566436
v -0.804875 0.720475 0.552345
v -0.783889 0.715567 0.559085
v -0.789644 0.720614 0.544617
v -0.809919 0.724665 0.538978
v -0.813789 0.727559 0.527564
v -0.795122 0.725258 0.531032
v -0.799406 0.728287 0.51958
v -0.774931 0.715375 0.536802
v -0.780542 0.72007 0.523233
v -0.78517 0.723228 0.512118
v -0.767892 0.71103 0.51778
v -0.772758 0.714165 0.507327
v -0.762455 0.706706 0.530859
v -0.769126 0.710075 0.551495
v -0.757001 0.70171 0.545276
v -0.753551 0.696349 0.527891
v -0.758581 0.700072 0.51583
v -0.763517 0.703004 0.506192
v -0.748611 0.692002 0.54135
v -0.76816 0.70512 0.500336
v -0.776584 0.715797 0.501073
v -0.773408 0.70711 0.497173
v -0.780681 0.716794 0.497992
v -0.763843 0.693147 0.502489
v -0.769628 0.695921 0.499309
v -0.788154 0.724157 0.505137
v -0.801653 0.728689 0.511933
v -0.790909 0.723941 0.501624
v -0.803074 0.727603 0.507685
v -0.779637 0.709398 0.495675
v -0.785916 0.717889 0.497017
v -0.784049 0.710639 0.497484
v -0.789608 0.718088 0.499497
v -0.776102 0.699199 0.497491
v -0.78069 0.701409 0.498686
v -0.794558 0.723693 0.500767
v -0.804785 0.72633 0.506288
v -0.796982 0.722851 0.503519
v -0.805473 0.72465 0.508723
v -0.783936 0.700194 0.509932
v -0.787584 0.705796 0.511572
v -0.784898 0.709418 0.503792
v -0.781886 0.701232 0.504079
v -0.789815 0.716156 0.506053
v -0.790348 0.712368 0.511889
v -0.796074 0.713645 0.51635
v -0.796478 0.7202 0.510099
v -0.803936 0.721723 0.514964
v -0.801965 0.716875 0.519571
v -0.79945 0.683242 0.509602
v -0.805416 0.68637 0.51116
v -0.79947 0.699079 0.518664
v -0.793009 0.685721 0.513095
v -0.786624 0.687405 0.513275
v -0.785616 0.693821 0.513215
v -0.806679 0.713283 0.523649
v -0.813046 0.711815 0.525094
v -0.814305 0.705407 0.522978
v -0.817841 0.700276 0.51838
v -0.814138 0.694443 0.515386
v -0.812382 0.688606 0.511067
v -0.811162 0.719976 0.520009
v -0.81412 0.723364 0.513919
v -0.817481 0.715845 0.522005
v -0.821238 0.718874 0.516091
v -0.821482 0.709269 0.519023
v -0.82531 0.711408 0.512962
v -0.823044 0.701725 0.513359
v -0.82621 0.702568 0.507038
v -0.825401 0.721286 0.518283
v -0.815628 0.726918 0.514851
v -0.815378 0.72542 0.512332
v -0.823774 0.72048 0.515095
v -0.829431 0.698391 0.506293
v -0.829709 0.71084 0.514162
v -0.827768 0.711562 0.511617
v -0.827953 0.700949 0.504862
v -0.815413 0.728004 0.519729
v -0.826227 0.721683 0.523291
v -0.831311 0.710179 0.518604
v -0.831101 0.696485 0.510034
v -0.818721 0.677309 0.4965
v -0.825902 0.686907 0.499677
v -0.825281 0.691092 0.498763
v -0.819348 0.682856 0.495184
v -0.824105 0.694097 0.501529
v -0.818952 0.686924 0.497687
v -0.82662 0.683711 0.503176
v -0.818012 0.672907 0.500145
v -0.805677 0.664837 0.501517
v -0.791911 0.661178 0.505162
v -0.807656 0.670189 0.497618
v -0.794901 0.666875 0.501397
v -0.809891 0.676801 0.495126
v -0.798587 0.673824 0.498184
v -0.810893 0.681743 0.496288
v -0.801022 0.67912 0.498157
v -0.821041 0.694142 0.508484
v -0.816414 0.687583 0.504744
v -0.809193 0.683104 0.502844
v -0.800606 0.680865 0.503435
v -0.79161 0.681593 0.507372
v -0.790923 0.6796 0.502999
v -0.784513 0.685354 0.509827
v -0.783202 0.683767 0.505982
v -0.781559 0.692555 0.50769
v -0.780011 0.691698 0.503161
v -0.774228 0.674684 0.506829
v -0.783094 0.668497 0.505442
v -0.787637 0.674755 0.502933
v -0.779404 0.679802 0.505283
v -0.769758 0.684461 0.503739
v -0.775717 0.68861 0.502192
v -0.779296 0.663297 0.508418
v -0.769645 0.670379 0.509189
v -0.764346 0.68096 0.5064
v -0.722299 0.618482 0.688595
v -0.711264 0.627716 0.686995
v -0.733724 0.61326 0.690946
v -0.703577 0.639589 0.686779
v -0.742944 0.612814 0.693495
v -0.750823 0.617145 0.696857
v -0.758298 0.625973 0.701553
v -0.763174 0.638671 0.706558
v -0.762869 0.653822 0.710407
v -0.756402 0.667206 0.711423
v -0.744047 0.674819 0.708526
v -0.622386 0.592925 0.895239
v -0.633276 0.601841 0.876761
v -0.63688 0.607961 0.88094
v -0.632848 0.594252 0.873336
v -0.643056 0.61191 0.885419
v -0.612993 0.587306 0.906409
v -0.635924 0.585881 0.871086
v -0.641914 0.577641 0.870507
v -0.649863 0.570615 0.871932
v -0.65827 0.566321 0.874972
v -0.665734 0.56599 0.879052
v -0.671796 0.56928 0.883575
v -0.676029 0.57547 0.887935
v -0.594127 0.54066 0.949625
v -0.590655 0.546687 0.947953
v -0.58949 0.535068 0.941487
v -0.586573 0.54073 0.940462
v -0.588274 0.552366 0.944552
v -0.58749 0.55729 0.938665
v -0.584928 0.546239 0.937995
v -0.584887 0.55083 0.933789
v -0.588934 0.56086 0.930064
v -0.592975 0.561602 0.921132
v -0.586854 0.553783 0.927856
v -0.591211 0.554596 0.921424
v -0.599491 0.558369 0.914658
v -0.597874 0.552841 0.916089
vt 0.01042 0.7396
vt 1 0.9167
vt 0.9931 0.2587
vt 0.7483 0.9913
vt 1 0.9167
vt 0.01042 0.7396
vt 0.9913 0.7378
vt 0 0.5
vt 0 0.5
vt 0.9306 0.08333
vt 0.9236 0.9167
vt 0.9236 0.9167
vt 0 0.5
vt 1 0.4167
vt 0.01042 0.7396
vt 1 0.7396
vt 1 0.08333
vt 0.7413 0.9896
vt 0.7483 0.9913
vt 0.08333 0.9167
vt 0.01042 0.7396
vt 1 0.25
vt 0.9167 0.9167
vt 0.9913 0.7378
vt 0.01042 0.7396
vt 0.08333 0.9167
vt 1 0.4167
vt 1 0.2604
vt 1 0.4931
vt 0.9896 0.7326
vt 0 0.5
vt 0.08333 0.9167
vt 0.9896 0.7326
vt 1 0.08333
vt 1 0.25
vt 0.9913 0.7378
vt 0.01042 0.7396
vt 0.9306 0.08333
vt 0.9913 0.7378
vt 1 0.7396
vt 0.01042 0.7396
vt 0.9931 0.2587
vt 1 0.4931
vt 0.9931 0.2587
vt 0.08333 0.9167
vt 1 0.5
vt 1 0.5
vt 0.5 1
vt 0.01042 0.7396
vt 0.2604 0.9896
vt 0.08333 0.9167
vt 1 0.25
vt 0.5 1
vt 0.5 1
vt 0.01042 0.7396
vt 1 0.25
vt 0.7413 0.9896
vt 0.7413 0.9896
vt 0.01042 0.7396
vt 1 0.5
vt 0.5 1
vt 1 0.25
vt 0.08333 0.9167
vt 1 0.25
vt 0.2604 0.9896
vt 1 0.5
vt 0.7396 0.9896
vt 1 0.4931
vt 0.01042 0.7396
vt 0.08333 0.9167
vt 0.5 1
vt 1 0.25
vt 0.9236 0.9167
vt 1 0.4931
vt 0.08333 0.9167
vt 1 0.25
vt 0.7396 0.9896
vt 0.01042 0.7396
vt 0.9167 0.9167
vt 1 0.5
vt 1 0.02083
vt 1 0.02083
vt 1 0.75
vt 0.08333 0.9167
vt 0.9236 0.9167
vt 1 0.25
vt 0.7413 0.9896
vt 0.01042 0.7396
vt 0.9931 0.2587
vt 1 -1.192e-07
vt 0.08333 0.9167
vt 0 0.5
vt 0.2604 0.9896
vt 1 -1.192e-07
vt 0.2604 0.9896
vt 1 0.2604
vt 0 0.5
vt 0.01042 0.7396
vt 1 0.5
vt 1 0.25
vt 0.08333 0.9167
vt 0.01042 0.7396
vt 0.08333 0.9167
vt 1 0.25
vt 0.2604 0.9896
vt 0.5 1
vt 0 0.5
vt 0 0.5
vt 1 0.25
vt 1 -2.384e-07
vt 0.2604 0.9896
vt 1 0.5
vt 1 -1.192e-07
vt 0.08333 0.9167
vt 1 0.25
vt 0.5 1
vt 1 0.08333
vt 0.2604 0.9896
vt 0.5 1
vt 0.2604 0.9896
vt 0.2604 0.9896
vt 0.01042 0.7396
vt 0.7483 0.00868
vt 0.7483 0.00868
vt 0.75 0.003472
vt 1 0.75
vt 0.75 0.003472
vt 0.2604 0.9896
vt 1 0.02083
vt 0.5 1
vt 0.7396 0.9896
vt 0.08333 0.9167
vt 1 0.5
vt 0.08333 0.9167
vt 1 0.02083
vt 1 0.5
vt 0.7396 0.9896
vt 0.2604 0.9896
vt 0.75 0.003472
vt 0.5 1
vt 0.7396 0.9896
vt 0.2604 0.9896
vt 1 0.25
vt 0.2604 0.9896
vt 0.7483 0.00868
vt 0.5 1
vt 0.7396 0.9896
vt 0.5 1
vt 1 0.08333
vt 0.5 1
vt 0.7483 0.00868
vt 0.08333 0.9167
vt 0.7483 0.00868
vt 0.08333 0.9167
vt 0.75 0.003472
vt 0.7396 0.9896
vt 1 0.25
vt 0.5 1
vt 0.2604 0.9896
vt 1 0.5
vt 0.5 0
vt 0.9167 0.9167
vt 0.9167 0.9167
vt 0.2604 0.9896
vt 0.5 0
vt 0.7396 0.9896
vt 0.5 0
vt 0.5 1
vt 0.5 1
vt 0.7483 0.00868
vt 0.7483 0.00868
vt 0.9167 0.9167
vt 0.7396 0.9896
vt 0.5 1
vt 0.7483 0.00868
vt 0.9167 0.9167
vt 0.5 0
vt 0.2604 0.9896
vt 0.2604 0.9896
vt 0.7396 0.9896
vt 0.5 0
vt 0.2604 0.9896
vt 0.75 0.003472
vt 0.5 1
vt 0.2604 0.9896
vt 0.5 0
vt 0.5 0
vt 0.08333 0.9167
vt 0.2604 0.9896
vt 0.7483 0.00868
vt 0.75 0.003472
vt 0.08333 0.9167
vt 0.2604 0.9896
vt 0.5 1
vt 0.9167 0.9167
vt 0.08333 0.9167
vt 1 0.08333
vt 0.2604 0.9896
vt 0.5 1
vt 0.2604 0.9896
vt 0.9896 0.7326
vt 0.08333 0.9167
vt 0.5 1
vt 0.08333 0.9167
vt 0.2604 0.9896
vt 0.7431 0.01042
vt 0.9896 0.7361
vt 0.2604 0.9896
vt 0.5 0
vt 0.9167 0.9167
vt 0.2604 0.9896
vt 0.9167 0.9167
vt 0.5 1
vt 0.9896 0.7361
vt 0.2604 0.9896
vt 0.2604 0.9896
vt 0.2604 0.9896
vt 0.5 0
vt 0.2604 0.9896
vt 0.9896 0.7326
vt 0.5 0
vt 0.5 1
vt 0.08333 0.9167
vt 0.9167 0.9167
vt 0.5 1
vt 0 0.5
vt 0.08333 0.9167
vt 0.7431 0.01042
vt 1 0.9167
vt 0.9896 0.7361
vt 0.01042 0.7396
vt 0.01042 0.7396
vt 0.7483 0.9913
vt 1 0.4792
vt 0.2604 0.9896
vt 0.2604 0.01042
vt 0.2604 0.9896
vt 0.5 -1.192e-07
vt 0.9913 0.7396
vt 1 0.4167
vt 0 0.5
vt 1 0.08333
vt 0.7413 0.9896
vt 0.7413 0.9896
vt 0.7431 0.01042
vt 0.9896 0.7326
vt 0.01042 0.7396
vt 0 0.5
vt 0.9236 0.9167
vt 0.9896 0.7326
vt 0.01042 0.7396
vt 0.7483 0.00868
vt 0.9236 0.9167
vt 0.7396 0.9896
vt 0 0.5
vt 1 0.4167
vt 0.08333 0.9167
vt 0.7483 0.00868
vt 0.7413 0.9896
vt 0.9167 0.9167
vt 0.9306 0.08333
vt 1 0.4792
vt 0.01042 0.7396
vt 0.7396 0.9896
vt 0.2604 0.01042
vt 0.9896 0.7361
vt 0.01042 0.7396
vt 0.08333 0.9167
vt 0.5 1
vt 1 0.4167
vt 0.01042 0.7396
vt 1 0.08333
vt 0.5 1
vt 0.7483 0.9913
vt 0.08333 0.9167
vt 1 0.25
vt 0.01042 0.7396
vt 0.2604 0.01042
vt 0.5 1
vt 0.5 1
vt 0.08333 0.08333
vt 0.9931 0.2587
vt 0.08333 0.9167
vt 1 0.5
vt 0.08333 0.08333
vt 1 0.4931
vt 0.01042 0.7396
vt 0 0.5
vt 0.7413 0.9896
vt 1 0.4931
vt 0.01042 0.7396
vt 0 0.5
vt 1 0.7396
vt 0.08333 0.08333
vt 0.9931 0.2587
vt 0 0.5
vt 1 0.2604
vt 0.01042 0.7396
vt 1 0.5
vt 0.01042 0.7396
vt 0.08333 0.9167
vt 1 0.5
vt 0.08333 0.9167
vt 0.9896 0.7396
vt 0.9931 0.2587
vt 0.2604 0.01042
vt 0.01042 0.7396
vt 0.9913 0.7396
vt 0.9306 0.08333
vt 0.2604 0.01042
vt 0.08333 0.08333
vt 0.75 0.9965
vt 0 0.5
vt 1 0.5
vt 1 0.08333
vt 0.5 -1.192e-07
vt 0.01042 0.7396
vt 1 0.5
vt 1 0.2604
vt 0.01042 0.7396
vt 0.08333 0.9167
vt 0.9913 0.7396
vt 1 0.25
vt 0.5 -1.192e-07
vt 0.08333 0.9167
vt 0.9236 0.9167
vt 1 0.08333
vt 0.01042 0.7396
vt 0.01042 0.2604
vt 0.9167 0.9167
vt 0.9306 0.08333
vt 0.2604 0.01042
vt 0.08333 0.08333
vt 0.9896 0.7396
vt 0.01042 0.2604
vt 0.9931 0.2587
vt 0.2604 0.01042
vt 0.08333 0.08333
vt 1 0.9167
vt 1 0.7396
vt 0.9167 0.9167
vt 0.08333 0.08333
vt 0.9896 0.7326
vt 0.01042 0.2604
vt 0.08333 0.08333
vt 0.9236 0.9167
vt 0.9913 0.7378
vt 0.5 0
vt 0.01042 0.2604
vt 0.9913 0.7396
vt 0.01042 0.2604
vt 0.9236 0.9167
vt 0 0.5
vt 0 0.5
vt 0.7483 0.9913
vt 0.5 1
vt 0.9236 0.9167
vt 0 0.5
vt 0.01042 0.2604
vt 0.9913 0.7378
vt 0.01042 0.2604
vt 1 0.7396
vt 1 0.9167
vt 0 0.5
vt 0.01042 0.2604
vt 0.5 1
vt 0.08333 0.08333
vt 0.5 1
vt 0.9913 0.7378
vt 0.2604 0.01042
vt 0.08333 0.08333
vt 0.75 0.9965
vt 1 0.4931
vt 0.01042 0.2604
vt 0.01042 0.2604
vt 0.7483 0.9913
vt 0.2604 0.01042
vt 0.5 1
vt 1 0.5
vt 0.08333 0.08333
vt 0.08333 0.08333
vt 0.75 0.9965
vt 1 0.9167
vt 0.01042 0.2604
vt 1 0.7396
vt 0.08333 0.08333
vt 0.08333 0.08333
vt 1 0.9792
vt 0.01042 0.2604
vt 0.9896 0.7326
vt 0.01042 0.2604
vt 0.7483 0.9913
vt 1 1
vt 0.01042 0.2604
vt 1 0.4167
vt 0.01042 0.2604
vt 1 0.75
vt 0 0.5
vt 0.08333 0.08333
vt 0.7483 0.9913
vt 0 0.5
vt 1 0.9167
vt 0 0.5
vt 1 0.75
vt 1 0.4931
vt 0.01042 0.2604
vt 0 0.5
vt 1 0.9792
vt 0.9913 0.7378
vt 0.01042 0.2604
vt 0.2604 0.01042
vt 0.75 0.9965
vt 1 1
vt 0 0.5
vt 1 0.5
vt 0 0.5
vt 1 0.75
vt 0.01042 0.2604
vt 1 0.25
vt 0.08333 0.08333
vt 1 0.25
vt 0.08333 0.08333
vt 1 0.5
vt 0.01042 0.2604
vt 1 0.75
vt 0.01042 0.2604
vt 1 0.5
vt 0.01042 0.2604
vt 0.08333 0.08333
vt 1 1
vt 1 0.25
vt 0.01042 0.2604
vt 1 0.25
vt 0.5 0
vt 0.08333 0.08333
vt 1 1
vt 1 0.5
vt 0.2604 0.01042
vt 0.01042 0.2604
vt 1 0.75
vt 1 0.25
vt 0 0.5
vt 1 -1.192e-07
vt 0 0.5
vt 1 -1.192e-07
vt 0.5 -1.192e-07
vt 0.01042 0.2604
vt 1 0.5
vt 1 0.25
vt 0.2604 0.01042
vt 1 0.5
vt 0.5 -1.192e-07
vt 1 0.25
vt 0.2604 0.01042
vt 0.5 -1.192e-07
vt 1 -1.192e-07
vt 1 -1.192e-07
vt 0.2604 0.01042
vt 1 0.25
vt 1 1
vt 0.2604 0.01042
vt 0.2604 0.01042
vt 1 0.75
vt 1 0.75
vt 0.08333 0.08333
vt 1 1
vt 0.7431 0.01042
vt 1 1
vt 0.9306 0.08333
vt 1 0.75
vt 1 0.08333
vt 1 0.75
vt 0.5 0
vt 0.75 0.003472
vt 1 1
vt 1 0.75
vt 1 0.5
vt 0.5 0
vt 1 0.5
vt 0.7483 0.00868
vt 1 0.75
vt 0.75 0.003472
vt 1 0.75
vt 1 0.5
vt 1 -1.192e-07
vt 1 -1.192e-07
vt 1 0.5
vt 1 0.5
vt 1 -1.192e-07
vt 1 0.25
vt 1 0.5
vt 1 0.75
vt 1 0.25
vt 1 0.25
vt 1 0.75
vt 1 0.5
vt 1 -1.192e-07
vn 0.3021 -0.3798 -0.8743
vn -0.137 -0.5159 -0.8456
vn 0.1064 -0.6678 -0.7366
vn 0.4215 -0.4886 -0.7639
vn 0.218 -0.7184 -0.6605
vn 0.4639 -0.5227 -0.7153
vn -0.0997 -0.721 -0.6857
vn 0.04996 -0.7829 -0.6201
vn -0.4063 -0.5495 -0.7299
vn -0.3247 -0.3153 -0.8917
vn -0.6268 -0.3425 -0.6998
vn 0.05414 -0.4641 -0.8841
vn -0.09397 -0.5453 -0.8329
vn 0.1757 -0.2415 -0.9543
vn 0.3252 -0.3686 -0.8708
vn -0.497 -0.6413 -0.5846
vn -0.2286 -0.7667 -0.5999
vn -0.09482 -0.8182 -0.5671
vn -0.4576 -0.8504 -0.2595
vn -0.3925 -0.8714 -0.2942
vn -0.5003 -0.8416 -0.2033
vn -0.6916 -0.5048 -0.5165
vn -0.5166 -0.834 -0.1938
vn -0.1685 -0.6699 -0.7231
vn -0.08206 -0.8827 -0.4628
vn -0.08408 -0.6406 0.7633
vn -0.3399 -0.856 0.3896
vn -0.1597 -0.9554 0.2484
vn 0.1214 -0.8366 0.5341
vn 0.248 -0.9509 -0.185
vn 0.4505 -0.8913 -0.05127
vn 0.2319 -0.2688 0.9348
vn 0.09043 -0.436 0.8954
vn 0.2893 -0.6806 0.6731
vn 0.449 -0.5094 0.734
vn 0.574 -0.8184 0.02567
vn 0.6899 -0.721 0.06458
vn -0.5642 -0.716 0.4111
vn -0.663 -0.6664 0.3412
vn -0.3728 -0.3613 0.8546
vn -0.5531 -0.2111 0.8059
vn -0.1862 -0.1119 0.9761
vn -0.3603 0.06809 0.9303
vn -0.05396 0.04126 0.9977
vn -0.2188 0.2199 0.9507
vn -0.4728 0.1444 0.8692
vn -0.6678 -0.1566 0.7276
vn -0.5714 0.2087 0.7937
vn -0.7739 -0.08701 0.6272
vn -0.3136 0.3137 0.8962
vn -0.3928 0.3945 0.8307
vn -0.7329 -0.6264 0.2655
vn -0.4267 -0.8509 -0.3064
vn -0.8248 -0.5331 0.1882
vn -0.5167 -0.802 -0.2995
vn -0.1013 -0.8339 -0.5426
vn 0.07996 -0.8082 -0.5834
vn -0.1614 -0.8529 -0.4964
vn 0.07587 -0.8382 -0.5401
vn -0.8737 -0.4528 0.1777
vn -0.5996 -0.7726 -0.2086
vn -0.8682 -0.4419 0.2257
vn -0.6388 -0.767 -0.06049
vn -0.8389 -0.02686 0.5437
vn -0.8713 -0.0246 0.49
vn -0.242 -0.8867 -0.3939
vn 0.04663 -0.8722 -0.4868
vn -0.3052 -0.9123 -0.273
vn 0.02814 -0.8944 -0.4463
vn 0.4675 -0.5091 -0.7226
vn 0.2661 -0.7451 -0.6116
vn 0.2758 -0.7557 -0.594
vn 0.4884 -0.5194 -0.7011
vn 0.3007 -0.7536 -0.5845
vn 0.5248 -0.5302 -0.6659
vn 0.2502 -0.7328 -0.6327
vn 0.4657 -0.5155 -0.7193
vn 0.6969 0.2721 -0.6636
vn 0.6265 -0.1413 -0.7665
vn 0.661 -0.1735 -0.73
vn 0.741 0.2171 -0.6354
vn 0.715 -0.2318 -0.6595
vn 0.8274 0.1202 -0.5486
vn 0.821 0.1457 -0.552
vn 0.6772 -0.2148 -0.7037
vn 0.6459 -0.1689 -0.7445
vn 0.7486 0.2351 -0.62
vn 0.8532 0.1347 -0.5038
vn 0.6397 -0.1295 -0.7576
vn 0.6809 -0.2068 -0.7025
vn 0.8574 0.1016 -0.5044
vn 0.7311 0.6575 0.1822
vn 0.854 0.4714 -0.2202
vn 0.7489 0.5896 -0.3025
vn 0.6166 0.7808 0.1005
vn 0.6781 0.6282 -0.3816
vn 0.5586 0.8294 0.002472
vn 0.8998 0.3659 0.2375
vn 0.9366 0.3203 -0.1416
vn 0.9171 0.3654 -0.1595
vn 0.8267 0.5103 0.2368
vn 0.2004 0.5687 0.7978
vn 0.4855 0.6854 0.5425
vn 0.3882 0.8016 0.4546
vn 0.1235 0.689 0.7141
vn 0.3482 0.8649 0.3614
vn 0.08609 0.7711 0.6308
vn 0.5784 0.09357 0.8104
vn 0.7661 0.2702 0.5831
vn 0.6122 0.5073 0.6065
vn 0.3431 0.373 0.862
vn 0.3941 -0.09421 0.9142
vn 0.1107 0.1957 0.9744
vn -0.04813 0.3834 0.9223
vn -0.1261 0.4978 0.858
vn -0.1788 0.5904 0.787
vn -0.2242 0.6794 0.6986
vn -0.4635 0.478 0.7461
vn -0.2752 0.7562 0.5936
vn -0.5317 0.5454 0.6479
vn 0.06949 0.8389 0.5398
vn 0.05142 0.8953 0.4425
vn 0.361 0.8921 0.2717
vn 0.3883 0.8989 0.2029
vn 0.591 0.8036 -0.06928
vn 0.658 0.7489 -0.07859
vn -0.6539 0.2709 0.7064
vn -0.7236 0.3034 0.62
vn -0.306 0.7982 0.5189
vn -0.5779 0.5732 0.5809
vn -0.2962 0.8198 0.49
vn -0.5945 0.5761 0.561
vn 0.04102 0.9254 0.3767
vn 0.05496 0.9368 0.3455
vn -0.7739 0.2891 0.5635
vn -0.8874 -0.07083 0.4555
vn -0.8065 0.2458 0.5376
vn -0.8959 -0.1325 0.424
vn -0.2616 0.8461 0.4643
vn -0.6029 0.5827 0.545
vn -0.2341 0.8759 0.4217
vn -0.6185 0.5988 0.5088
vn 0.0936 0.9445 0.3149
vn 0.1302 0.9521 0.2766
vn -0.8356 0.2016 0.511
vn -0.9019 -0.1885 0.3885
vn -0.8635 0.173 0.4738
vn -0.9064 -0.227 0.3562
vn -0.2236 0.896 0.3835
vn -0.6344 0.6115 0.4728
vn -0.2197 0.907 0.3591
vn -0.6444 0.6182 0.4501
vn 0.1483 0.9579 0.2458
vn 0.1551 0.9624 0.2228
vn -0.8829 0.1594 0.4415
vn -0.91 -0.2463 0.3335
vn -0.8944 0.1545 0.4197
vn -0.9143 -0.2525 0.3167
vn -0.6352 -0.7701 0.05963
vn -0.8324 -0.4942 0.2505
vn -0.8204 -0.5235 0.2301
vn -0.6227 -0.7798 0.0647
vn -0.8111 -0.5441 0.2145
vn -0.6158 -0.7851 0.06644
vn -0.8061 -0.5555 0.204
vn -0.6129 -0.7873 0.06586
vn -0.8055 -0.5597 0.1945
vn -0.6122 -0.7881 0.06369
vn 0.1289 -0.9211 -0.3674
vn -0.2876 -0.9435 -0.1645
vn -0.2591 -0.956 -0.1374
vn 0.1708 -0.9348 -0.3112
vn -0.2537 -0.9595 -0.1222
vn 0.1706 -0.944 -0.2824
vn -0.258 -0.9591 -0.116
vn 0.1562 -0.9491 -0.2734
vn -0.2594 -0.9593 -0.1113
vn 0.1538 -0.951 -0.2683
vn 0.6745 -0.6314 -0.3825
vn 0.4602 -0.8141 -0.3543
vn 0.4443 -0.825 -0.349
vn 0.6745 -0.6309 -0.3833
vn 0.4405 -0.8265 -0.3504
vn 0.6725 -0.629 -0.3898
vn 0.6242 -0.5942 -0.5072
vn 0.4263 -0.7715 -0.4722
vn 0.4631 -0.7959 -0.3899
vn 0.6621 -0.6232 -0.4162
vn 0.9144 -0.02945 -0.4038
vn 0.7888 -0.3682 -0.4921
vn 0.8206 -0.397 -0.4111
vn 0.9351 -0.05402 -0.3501
vn 0.8397 -0.3868 -0.3812
vn 0.9435 -0.0416 -0.3287
vn 0.848 -0.368 -0.3812
vn 0.9449 -0.02194 -0.3265
vn 0.8487 -0.3627 -0.3849
vn 0.9449 -0.01462 -0.3269
vn 0.6691 0.7431 -0.0108
vn 0.8899 0.4181 -0.1825
vn 0.8838 0.431 -0.1819
vn 0.6645 0.7471 -0.01639
vn 0.8786 0.4402 -0.1849
vn 0.6587 0.7519 -0.02634
vn 0.6829 0.7302 -0.01929
vn 0.8879 0.4028 -0.2221
vn 0.8932 0.4063 -0.1928
vn 0.6736 0.739 -0.009095
vn 0.4026 0.9008 0.1627
vn 0.4149 0.8979 0.1472
vn 0.4312 0.8933 0.1266
vn 0.4393 0.8917 0.1092
vn 0.4401 0.8932 0.09214
vn 0.8749 0.4461 -0.1885
vn 0.6536 0.7557 -0.03995
vn 0.8722 0.4522 -0.1865
vn 0.6522 0.7565 -0.04907
vn 0.9463 -0.01993 -0.3225
vn 0.9507 -0.02545 -0.3089
vn 0.4407 0.8947 0.07309
vn 0.1646 0.9655 0.2019
vn 0.4475 0.8923 0.05939
vn 0.1856 0.9645 0.1876
vn 0.8679 0.4635 -0.1786
vn 0.6534 0.7552 -0.05118
vn 0.8616 0.4787 -0.1689
vn 0.6552 0.7538 -0.04926
vn 0.956 -0.01767 -0.2929
vn 0.9593 0.002258 -0.2823
vn 0.4597 0.8865 0.05194
vn 0.2151 0.9604 0.1767
vn 0.4726 0.88 0.04706
vn 0.2449 0.9556 0.1639
vn 0.8561 0.4919 -0.1583
vn 0.6582 0.7517 -0.04089
vn 0.8545 0.4983 -0.1468
vn 0.6647 0.7468 -0.02124
vn 0.9602 0.02454 -0.2781
vn 0.9581 0.04257 -0.2833
vn 0.4842 0.8734 0.05051
vn 0.2691 0.9501 0.1575
vn 0.495 0.866 0.0712
vn 0.2828 0.9439 0.1701
vn -0.6441 0.6229 0.4439
vn -0.1859 0.9226 0.338
vn -0.1542 0.9298 0.3342
vn -0.6379 0.6242 0.4511
vn -0.1228 0.9386 0.3224
vn -0.6359 0.6289 0.4473
vn -0.09836 0.9456 0.31
vn -0.6384 0.6344 0.4358
vn -0.09049 0.9472 0.3074
vn -0.6458 0.6374 0.4203
vn -0.9173 -0.2669 0.2954
vn -0.9082 0.1159 0.4021
vn -0.917 0.1059 0.3845
vn -0.923 -0.2704 0.2737
vn -0.9262 0.1017 0.3631
vn -0.93 -0.2714 0.2479
vn -0.9158 -0.259 0.3069
vn -0.9021 0.1397 0.4082
vn -0.9025 0.1274 0.4113
vn -0.9141 -0.2636 0.3082
vn -0.611 -0.7879 0.07584
vn -0.8041 -0.562 0.1937
vn -0.8036 -0.5622 0.1956
vn -0.614 -0.7852 0.08054
vn -0.8085 -0.5598 0.1815
vn -0.6227 -0.7795 0.06751
vn -0.8158 -0.5568 0.1559
vn -0.6335 -0.7728 0.03858
vn -0.8247 -0.5524 0.1207
vn -0.6445 -0.7645 -0.009461
vn 0.1905 -0.9561 -0.2228
vn -0.2782 -0.9572 -0.07904
vn -0.3011 -0.9478 -0.1049
vn 0.1671 -0.9561 -0.2406
vn -0.326 -0.9319 -0.1587
vn 0.1311 -0.9488 -0.2872
vn 0.1931 -0.9516 -0.2392
vn -0.2524 -0.9639 -0.08411
vn -0.26 -0.9629 -0.07263
vn 0.2009 -0.9538 -0.2232
vn 0.6851 -0.6346 -0.3575
vn 0.4873 -0.8117 -0.3219
vn 0.5075 -0.8082 -0.2987
vn 0.6945 -0.6402 -0.3282
vn 0.5126 -0.8076 -0.2917
vn 0.6982 -0.642 -0.3167
vn 0.5058 -0.8081 -0.3016
vn 0.6972 -0.6407 -0.3216
vn 0.4851 -0.8074 -0.3357
vn 0.6895 -0.6361 -0.3462
vn 0.8464 -0.3962 -0.3557
vn 0.8507 -0.4079 -0.3314
vn 0.8551 -0.407 -0.3211
vn 0.8578 -0.399 -0.3239
vn 0.856 -0.387 -0.3425
vn 0.4551 -0.8013 -0.3884
vn 0.6752 -0.6272 -0.3882
vn 0.4307 -0.7952 -0.4269
vn 0.6617 -0.6171 -0.4259
vn 0.09323 -0.931 -0.3527
vn 0.06784 -0.9173 -0.3923
vn 0.8485 -0.3712 -0.3771
vn 0.9512 0.05829 -0.303
vn 0.8381 -0.3549 -0.4143
vn 0.9389 0.0708 -0.3368
vn 0.8059 -0.3448 -0.4813
vn 0.9099 0.06384 -0.4098
vn 0.6868 -0.3396 -0.6427
vn 0.8166 0.01578 -0.577
vn 0.6353 -0.5999 -0.4863
vn 0.5461 -0.5374 -0.6426
vn 0.4077 -0.7786 -0.477
vn 0.3716 -0.6871 -0.6243
vn 0.05423 -0.902 -0.4283
vn 0.07053 -0.8246 -0.5612
vn -0.3453 -0.91 -0.2296
vn -0.3525 -0.8955 -0.2716
vn -0.653 -0.754 -0.07016
vn -0.6558 -0.7465 -0.1119
vn -0.3505 -0.8864 -0.3022
vn -0.3157 -0.8524 -0.4168
vn -0.6563 -0.7407 -0.1436
vn -0.6511 -0.7226 -0.2319
vn -0.8356 -0.5437 0.07807
vn -0.8444 -0.534 0.04263
vn -0.9389 -0.2655 0.2191
vn -0.9468 -0.2581 0.1922
vn -0.8532 -0.5214 0.006226
vn -0.8731 -0.48 -0.08536
vn -0.9572 -0.247 0.1505
vn -0.9809 -0.1917 0.03177
vn -0.938 0.1073 0.3296
vn -0.9484 0.111 0.297
vn -0.9734 0.1539 0.1697
vn -0.6778 0.6211 0.3933
vn -0.7152 0.6432 0.2732
vn -0.6628 0.6255 0.4116
vn -0.9336 0.105 0.3424
vn -0.6554 0.6348 0.409
vn -0.1009 0.9425 0.3185
vn -0.1198 0.9346 0.3348
vn 0.2823 0.9391 0.1961
vn 0.2697 0.9397 0.2101
vn -0.149 0.9356 0.3201
vn -0.2106 0.9549 0.2091
vn 0.245 0.9512 0.1877
vn 0.1857 0.9785 0.09
vn 0.4992 0.8609 0.09851
vn 0.4899 0.8693 0.06537
vn 0.4598 0.8878 -0.01889
vn 0.6706 0.7389 -0.06665
vn 0.6614 0.7313 -0.1667
vn 0.6719 0.7404 -0.01813
vn 0.5011 0.8599 0.09729
vn 0.671 0.7414 -0.004059
vn 0.8479 0.5012 -0.1725
vn 0.8387 0.4887 -0.2401
vn 0.8083 0.442 -0.3888
vn 0.8533 0.5006 -0.1454
vn 0.683 0.3373 -0.6478
vn 0.6011 0.6937 -0.3969
vn 0.4315 0.2002 -0.8796
vn 0.4077 0.5968 -0.691
vn 0.591 -0.08261 -0.8024
vn 0.2806 -0.1969 -0.9394
vn 0.3861 0.8993 -0.2051
vn 0.07889 0.9907 -0.1104
vn 0.2294 0.8411 -0.4897
vn -0.05991 0.9272 -0.3698
vn -0.04669 0.001892 -0.9989
vn -0.1289 0.2832 -0.9503
vn -0.6972 -0.3451 -0.6283
vn -0.6761 -0.4853 -0.5543
vn -0.112 -0.2795 -0.9536
vn -0.7026 -0.3275 -0.6317
vn -0.3421 0.3395 -0.8762
vn -0.4816 0.2114 -0.8505
vn -0.5333 -0.6937 -0.4841
vn -0.3172 -0.7999 -0.5094
vn -0.7584 -0.2329 -0.6088
vn -0.6845 -0.2569 -0.6822
vn -0.8568 -0.4219 -0.2965
vn -0.9099 -0.2617 -0.3218
vn -0.7258 -0.5981 -0.3398
vn -0.689 -0.3695 -0.6234
vn -0.5954 -0.3237 -0.7353
vn -0.5369 -0.7383 -0.4082
vn -0.3195 -0.7998 -0.5082
vn -0.4822 -0.4573 -0.7472
vn 0.161 0.7715 -0.6155
vn 0.2149 0.6917 -0.6894
vn -0.2314 0.2398 -0.9428
vn -0.06165 0.5967 -0.8
vn -0.445 0.4081 -0.7971
vn -0.5986 0.01401 -0.8009
vn -0.2867 -0.2037 -0.9361
vn 0.1368 -0.07163 -0.988
vn 0.2367 0.3414 -0.9096
vn 0.4478 0.5051 -0.7378
vn 0.3121 0.6006 -0.7361
vn 0.3424 0.6974 -0.6296
vn -0.0002747 -0.7392 -0.6735
vn -0.01233 -0.7608 -0.6488
vn 0.4599 -0.3912 -0.7971
vn 0.4414 -0.3909 -0.8077
vn 0.7421 0.08255 -0.6651
vn 0.6812 0.1544 -0.7156
vn 0.7671 0.3757 -0.5199
vn 0.6577 0.4418 -0.61
vn -0.7059 0.6435 -0.2961
vn -0.3948 0.8627 -0.316
vn -0.4286 0.201 -0.8808
vn -0.3557 0.3851 -0.8516
vn -0.8962 0.09452 -0.4335
vn -0.8634 0.3497 -0.3637
vn -0.2925 0.4895 -0.8215
vn -0.3394 0.4835 -0.8068
vn -0.3038 0.9523 -0.02658
vn -0.7434 0.6686 0.01297
vn -0.9636 0.2509 -0.09238
vn -0.9766 -0.05899 -0.2068
vn -0.485 -0.427 -0.7631
vn -0.7961 -0.1831 -0.5767
vn -0.3821 0.3218 -0.8663
vn -0.225 0.07971 -0.9711
vn 0.5406 0.5957 -0.594
vn 0.3954 0.6565 -0.6424
vn -0.8765 -0.3738 -0.3033
vn -0.5994 -0.6455 -0.4734
vn -0.2094 -0.7271 -0.6538
vn 0.1402 -0.6242 -0.7685
vn -0.07099 -0.4921 -0.8676
vn 0.2386 -0.3637 -0.9004
vn 0.07801 -0.06839 -0.9946
vn 0.3023 -0.05133 -0.9518
vn 0.3159 0.6254 -0.7135
vn 0.3057 0.5958 -0.7426
vn 0.6913 0.5755 -0.437
vn 0.5371 0.7524 -0.3812
vn 0.3501 0.8695 -0.3485
vn 0.1893 0.9041 -0.383
vn -0.09497 0.8753 -0.4741
vn 0.16 0.6164 -0.771
vn -0.6121 0.5536 -0.5647
vn -0.4044 0.3411 -0.8486
vn -0.9026 0.02481 -0.4297
vn -0.7235 -0.1771 -0.6672
vn 0.2033 -0.268 -0.9417
vn 0.3115 -0.2352 -0.9207
vn 0.3128 0.01877 -0.9496
vn 0.05597 -0.1169 -0.9915
vn 0.145 -0.34 -0.9292
vn -0.1637 -0.3233 -0.932
vn 0.3256 -0.4718 -0.8193
vn 0.3684 -0.4036 -0.8375
vn 0.4302 -0.3363 -0.8377
vn 0.4582 -0.8193 -0.3446
vn 0.6752 -0.6293 -0.3848
vn 0.1706 -0.9508 -0.2584
vn 0.8457 -0.3757 -0.3789
vn -0.2556 -0.9615 -0.1013
vn -0.6119 -0.7881 0.06586
vn -0.8061 -0.5607 0.1892
vn -0.9174 -0.2547 0.3058
vn -0.901 0.1497 0.407
vn -0.6481 0.6218 0.4396
vn -0.2096 0.9155 0.3434
vn 0.8123 0.4707 -0.3444
vn 0.8674 0.4168 -0.2718
vn 0.6884 0.7238 -0.04727
vn 0.8818 0.03488 -0.4703
vn 0.4007 0.8997 0.1728
vn 0.7187 0.5669 -0.4026
vn 0.7533 -0.3014 -0.5845
vn 0.5706 -0.5541 -0.6061
vn 0.3576 -0.7532 -0.552
vn 0.06171 -0.9066 -0.4173
vn -0.3182 -0.9265 -0.2009
vn -0.6452 -0.7633 0.03287
vn -0.8476 -0.4638 0.2577
vn 0.6135 -0.3153 0.724
vn 0.7613 -0.1103 0.639
vn 0.8004 -0.5954 0.06912
vn 0.8934 -0.4479 0.03519
vn 0.8844 0.1066 0.4545
vn 0.9453 0.2854 0.158
vn 0.9608 -0.2708 -0.05896
vn 0.964 -0.1136 -0.2404
vn 0.9265 0.3196 -0.1988
vn 0.808 0.1752 -0.5625
vn 0.8865 -0.08258 -0.4552
vn 0.7524 -0.1567 -0.6397
vn 0.5658 -0.05152 -0.8229
vn 0.5798 -0.2701 -0.7686
f 1/1/1 2/2/2 3/3/3
f 1/1/1 3/3/3 4/4/4
f 4/4/4 3/3/3 5/5/5
f 4/4/4 5/5/5 6/6/6
f 3/3/3 7/7/7 8/8/8
f 3/3/3 8/8/8 5/5/5
f 2/2/2 9/9/9 7/7/7
f 2/2/2 7/7/7 3/3/3
f 9/9/9 2/2/2 10/10/10
f 9/9/9 10/10/10 11/11/11
f 11/11/11 10/10/10 12/12/12
f 11/11/11 12/12/12 13/13/13
f 10/10/10 14/14/14 15/15/15
f 10/10/10 15/15/15 12/12/12
f 2/2/2 1/1/1 14/14/14
f 2/2/2 14/14/14 10/10/10
f 9/9/9 16/16/16 17/17/17
f 9/9/9 17/17/17 7/7/7
f 7/7/7 17/17/17 18/18/18
f 7/7/7 18/18/18 8/8/8
f 17/17/17 19/19/19 20/20/20
f 17/17/17 20/20/20 18/18/18
f 16/16/16 21/21/21 19/19/19
f 16/16/16 19/19/19 17/17/17
f 21/21/21 16/16/16 22/22/22
f 21/21/21 22/22/22 23/23/23
f 23/23/23 22/22/22 24/24/24
f 23/23/23 24/24/24 25/25/25
f 22/22/22 11/11/11 13/13/13
f 22/22/22 13/13/13 24/24/24
f 16/16/16 9/9/9 11/11/11
f 16/16/16 11/11/11 22/22/22
f 26/26/26 27/27/27 28/28/28
f 26/26/26 28/28/28 29/29/29
f 29/29/29 28/28/28 30/30/30
f 29/29/29 30/30/30 31/31/31
f 28/28/28 23/23/23 25/25/25
f 28/28/28 25/25/25 30/30/30
f 27/27/27 21/21/21 23/23/23
f 27/27/27 23/23/23 28/28/28
f 32/32/32 33/33/33 34/34/34
f 32/32/32 34/34/34 35/35/35
f 35/35/35 34/34/34 36/36/36
f 35/35/35 36/36/36 37/37/37
f 34/34/34 29/29/29 31/31/31
f 34/34/34 31/31/31 36/36/36
f 33/33/33 26/26/26 29/29/29
f 33/33/33 29/29/29 34/34/34
f 21/21/21 27/27/27 38/38/38
f 21/21/21 38/38/38 19/19/19
f 19/19/19 38/38/38 39/39/39
f 19/19/19 39/39/39 20/20/20
f 38/38/38 40/40/40 41/41/41
f 38/38/38 41/41/41 39/39/39
f 27/27/27 26/26/26 40/40/40
f 27/27/27 40/40/40 38/38/38
f 26/26/26 33/33/33 42/42/42
f 26/26/26 42/42/42 40/40/40
f 40/40/40 42/42/42 43/43/43
f 40/40/40 43/43/43 41/41/41
f 42/42/42 44/44/44 45/45/45
f 42/42/42 45/45/45 43/43/43
f 33/33/33 32/32/32 44/44/44
f 33/33/33 44/44/44 42/42/42
f 41/41/41 43/43/43 46/46/46
f 41/41/41 46/46/46 47/47/47
f 47/47/47 46/46/46 48/48/48
f 47/47/47 48/48/48 49/49/49
f 46/46/46 50/50/50 51/51/51
f 46/46/46 51/51/51 48/48/48
f 43/43/43 45/45/45 50/50/50
f 43/43/43 50/50/50 46/46/46
f 20/20/20 39/39/39 52/52/52
f 20/20/20 52/52/52 53/53/53
f 53/53/53 52/52/52 54/54/54
f 53/53/53 54/54/54 55/55/55
f 52/52/52 47/47/47 49/49/49
f 52/52/52 49/49/49 54/54/54
f 39/39/39 41/41/41 47/47/47
f 39/39/39 47/47/47 52/52/52
f 8/8/8 18/18/18 56/56/56
f 8/8/8 56/56/56 57/57/57
f 57/57/57 56/56/56 58/58/58
f 57/57/57 58/58/58 59/59/59
f 56/56/56 53/53/53 55/55/55
f 56/56/56 55/55/55 58/58/58
f 18/18/18 20/20/20 53/53/53
f 18/18/18 53/53/53 56/56/56
f 55/55/55 54/54/54 60/60/60
f 55/55/55 60/60/60 61/61/61
f 61/61/61 60/60/60 62/62/62
f 61/61/61 62/62/62 63/63/63
f 60/60/60 64/64/64 65/65/65
f 60/60/60 65/65/65 62/62/62
f 54/54/54 49/49/49 64/64/64
f 54/54/54 64/64/64 60/60/60
f 59/59/59 58/58/58 66/66/66
f 59/59/59 66/66/66 67/67/67
f 67/67/67 66/66/66 68/68/68
f 67/67/67 68/68/68 69/69/69
f 66/66/66 61/61/61 63/63/63
f 66/66/66 63/63/63 68/68/68
f 58/58/58 55/55/55 61/61/61
f 58/58/58 61/61/61 66/66/66
f 70/70/70 71/71/71 72/72/72
f 70/70/70 72/72/72 73/73/73
f 73/73/73 72/72/72 74/74/74
f 73/73/73 74/74/74 75/75/75
f 72/72/72 67/67/67 69/69/69
f 72/72/72 69/69/69 74/74/74
f 71/71/71 59/59/59 67/67/67
f 71/71/71 67/67/67 72/72/72
f 6/6/6 5/5/5 76/76/76
f 6/6/6 76/76/76 77/77/77
f 77/77/77 76/76/76 71/71/71
f 77/77/77 71/71/71 70/70/70
f 76/76/76 57/57/57 59/59/59
f 76/76/76 59/59/59 71/71/71
f 5/5/5 8/8/8 57/57/57
f 5/5/5 57/57/57 76/76/76
f 78/78/78 79/79/79 80/80/80
f 78/78/78 80/80/80 81/81/81
f 81/81/81 80/80/80 82/82/82
f 81/81/81 82/82/82 83/83/83
f 80/80/80 73/73/73 75/75/75
f 80/80/80 75/75/75 82/82/82
f 79/79/79 70/70/70 73/73/73
f 79/79/79 73/73/73 80/80/80
f 84/84/84 85/85/85 86/86/86
f 84/84/84 86/86/86 87/87/87
f 87/87/87 86/86/86 79/79/79
f 87/87/87 79/79/79 78/78/78
f 86/86/86 77/77/77 70/70/70
f 86/86/86 70/70/70 79/79/79
f 85/85/85 6/6/6 77/77/77
f 85/85/85 77/77/77 86/86/86
f 88/88/88 89/89/89 90/90/90
f 88/88/88 90/90/90 91/91/91
f 91/91/91 90/90/90 85/85/85
f 91/91/91 85/85/85 84/84/84
f 90/90/90 4/4/4 6/6/6
f 90/90/90 6/6/6 85/85/85
f 89/89/89 1/1/1 4/4/4
f 89/89/89 4/4/4 90/90/90
f 92/92/92 93/93/93 94/94/94
f 92/92/92 94/94/94 95/95/95
f 95/95/95 94/94/94 96/96/96
f 95/95/95 96/96/96 97/97/97
f 94/94/94 87/87/87 78/78/78
f 94/94/94 78/78/78 96/96/96
f 93/93/93 84/84/84 87/87/87
f 93/93/93 87/87/87 94/94/94
f 98/98/98 99/99/99 100/100/100
f 98/98/98 100/100/100 101/101/101
f 101/101/101 100/100/100 93/93/93
f 101/101/101 93/93/93 92/92/92
f 100/100/100 91/91/91 84/84/84
f 100/100/100 84/84/84 93/93/93
f 99/99/99 88/88/88 91/91/91
f 99/99/99 91/91/91 100/100/100
f 102/102/102 103/103/103 104/104/104
f 102/102/102 104/104/104 105/105/105
f 105/105/105 104/104/104 106/106/106
f 105/105/105 106/106/106 107/107/107
f 104/104/104 95/95/95 97/97/97
f 104/104/104 97/97/97 106/106/106
f 103/103/103 92/92/92 95/95/95
f 103/103/103 95/95/95 104/104/104
f 108/108/108 109/109/109 110/110/110
f 108/108/108 110/110/110 111/111/111
f 111/111/111 110/110/110 103/103/103
f 111/111/111 103/103/103 102/102/102
f 110/110/110 101/101/101 92/92/92
f 110/110/110 92/92/92 103/103/103
f 109/109/109 98/98/98 101/101/101
f 109/109/109 101/101/101 110/110/110
f 32/32/32 112/112/112 113/113/113
f 32/32/32 113/113/113 44/44/44
f 44/44/44 113/113/113 114/114/114
f 44/44/44 114/114/114 45/45/45
f 113/113/113 111/111/111 102/102/102
f 113/113/113 102/102/102 114/114/114
f 112/112/112 108/108/108 111/111/111
f 112/112/112 111/111/111 113/113/113
f 45/45/45 114/114/114 115/115/115
f 45/45/45 115/115/115 50/50/50
f 50/50/50 115/115/115 116/116/116
f 50/50/50 116/116/116 51/51/51
f 115/115/115 105/105/105 107/107/107
f 115/115/115 107/107/107 116/116/116
f 114/114/114 102/102/102 105/105/105
f 114/114/114 105/105/105 115/115/115
f 51/51/51 116/116/116 117/117/117
f 51/51/51 117/117/117 118/118/118
f 118/118/118 117/117/117 119/119/119
f 118/118/118 119/119/119 120/120/120
f 117/117/117 121/121/121 122/122/122
f 117/117/117 122/122/122 119/119/119
f 116/116/116 107/107/107 121/121/121
f 116/116/116 121/121/121 117/117/117
f 107/107/107 106/106/106 123/123/123
f 107/107/107 123/123/123 121/121/121
f 121/121/121 123/123/123 124/124/124
f 121/121/121 124/124/124 122/122/122
f 123/123/123 125/125/125 126/126/126
f 123/123/123 126/126/126 124/124/124
f 106/106/106 97/97/97 125/125/125
f 106/106/106 125/125/125 123/123/123
f 49/49/49 48/48/48 127/127/127
f 49/49/49 127/127/127 64/64/64
f 64/64/64 127/127/127 128/128/128
f 64/64/64 128/128/128 65/65/65
f 127/127/127 118/118/118 120/120/120
f 127/127/127 120/120/120 128/128/128
f 48/48/48 51/51/51 118/118/118
f 48/48/48 118/118/118 127/127/127
f 120/120/120 119/119/119 129/129/129
f 120/120/120 129/129/129 130/130/130
f 130/130/130 129/129/129 131/131/131
f 130/130/130 131/131/131 132/132/132
f 129/129/129 133/133/133 134/134/134
f 129/129/129 134/134/134 131/131/131
f 119/119/119 122/122/122 133/133/133
f 119/119/119 133/133/133 129/129/129
f 65/65/65 128/128/128 135/135/135
f 65/65/65 135/135/135 136/136/136
f 136/136/136 135/135/135 137/137/137
f 136/136/136 137/137/137 138/138/138
f 135/135/135 130/130/130 132/132/132
f 135/135/135 132/132/132 137/137/137
f 128/128/128 120/120/120 130/130/130
f 128/128/128 130/130/130 135/135/135
f 132/132/132 131/131/131 139/139/139
f 132/132/132 139/139/139 140/140/140
f 140/140/140 139/139/139 141/141/141
f 140/140/140 141/141/141 142/142/142
f 139/139/139 143/143/143 144/144/144
f 139/139/139 144/144/144 141/141/141
f 131/131/131 134/134/134 143/143/143
f 131/131/131 143/143/143 139/139/139
f 138/138/138 137/137/137 145/145/145
f 138/138/138 145/145/145 146/146/146
f 146/146/146 145/145/145 147/147/147
f 146/146/146 147/147/147 148/148/148
f 145/145/145 140/140/140 142/142/142
f 145/145/145 142/142/142 147/147/147
f 137/137/137 132/132/132 140/140/140
f 137/137/137 140/140/140 145/145/145
f 142/142/142 141/141/141 149/149/149
f 142/142/142 149/149/149 150/150/150
f 150/150/150 149/149/149 151/151/151
f 150/150/150 151/151/151 152/152/152
f 149/149/149 153/153/153 154/154/154
f 149/149/149 154/154/154 151/151/151
f 141/141/141 144/144/144 153/153/153
f 141/141/141 153/153/153 149/149/149
f 148/148/148 147/147/147 155/155/155
f 148/148/148 155/155/155 156/156/156
f 156/156/156 155/155/155 157/157/157
f 156/156/156 157/157/157 158/158/158
f 155/155/155 150/150/150 152/152/152
f 155/155/155 152/152/152 157/157/157
f 147/147/147 142/142/142 150/150/150
f 147/147/147 150/150/150 155/155/155
f 159/159/159 160/160/160 161/161/161
f 159/159/159 161/161/161 162/162/162
f 162/162/162 161/161/161 163/163/163
f 162/162/162 163/163/163 164/164/164
f 161/161/161 146/146/146 148/148/148
f 161/161/161 148/148/148 163/163/163
f 160/160/160 138/138/138 146/146/146
f 160/160/160 146/146/146 161/161/161
f 164/164/164 163/163/163 165/165/165
f 164/164/164 165/165/165 166/166/166
f 166/166/166 165/165/165 167/167/167
f 166/166/166 167/167/167 168/168/168
f 165/165/165 156/156/156 158/158/158
f 165/165/165 158/158/158 167/167/167
f 163/163/163 148/148/148 156/156/156
f 163/163/163 156/156/156 165/165/165
f 169/169/169 170/170/170 171/171/171
f 169/169/169 171/171/171 172/172/172
f 172/172/172 171/171/171 173/173/173
f 172/172/172 173/173/173 174/174/174
f 171/171/171 162/162/162 164/164/164
f 171/171/171 164/164/164 173/173/173
f 170/170/170 159/159/159 162/162/162
f 170/170/170 162/162/162 171/171/171
f 174/174/174 173/173/173 175/175/175
f 174/174/174 175/175/175 176/176/176
f 176/176/176 175/175/175 177/177/177
f 176/176/176 177/177/177 178/178/178
f 175/175/175 166/166/166 168/168/168
f 175/175/175 168/168/168 177/177/177
f 173/173/173 164/164/164 166/166/166
f 173/173/173 166/166/166 175/175/175
f 179/179/179 180/180/180 181/181/181
f 179/179/179 181/181/181 182/182/182
f 182/182/182 181/181/181 183/183/183
f 182/182/182 183/183/183 184/184/184
f 181/181/181 176/176/176 178/178/178
f 181/181/181 178/178/178 183/183/183
f 180/180/180 174/174/174 176/176/176
f 180/180/180 176/176/176 181/181/181
f 185/185/185 186/186/186 187/187/187
f 185/185/185 187/187/187 188/188/188
f 188/188/188 187/187/187 180/180/180
f 188/188/188 180/180/180 179/179/179
f 187/187/187 172/172/172 174/174/174
f 187/187/187 174/174/174 180/180/180
f 186/186/186 169/169/169 172/172/172
f 186/186/186 172/172/172 187/187/187
f 189/189/189 190/190/190 191/191/191
f 189/189/189 191/191/191 192/192/192
f 192/192/192 191/191/191 193/193/193
f 192/192/192 193/193/193 194/194/194
f 191/191/191 188/188/188 179/179/179
f 191/191/191 179/179/179 193/193/193
f 190/190/190 185/185/185 188/188/188
f 190/190/190 188/188/188 191/191/191
f 194/194/194 193/193/193 195/195/195
f 194/194/194 195/195/195 196/196/196
f 196/196/196 195/195/195 197/197/197
f 196/196/196 197/197/197 198/198/198
f 195/195/195 182/182/182 184/184/184
f 195/195/195 184/184/184 197/197/197
f 193/193/193 179/179/179 182/182/182
f 193/193/193 182/182/182 195/195/195
f 199/199/199 200/200/200 201/201/201
f 199/199/199 201/201/201 202/202/202
f 202/202/202 201/201/201 203/203/203
f 202/202/202 203/203/203 204/204/204
f 201/201/201 196/196/196 198/198/198
f 201/201/201 198/198/198 203/203/203
f 200/200/200 194/194/194 196/196/196
f 200/200/200 196/196/196 201/201/201
f 205/205/205 206/206/206 207/207/207
f 205/205/205 207/207/207 208/208/208
f 208/208/208 207/207/207 200/200/200
f 208/208/208 200/200/200 199/199/199
f 207/207/207 192/192/192 194/194/194
f 207/207/207 194/194/194 200/200/200
f 206/206/206 189/189/189 192/192/192
f 206/206/206 192/192/192 207/207/207
f 134/134/134 209/209/209 210/210/210
f 134/134/134 210/210/210 143/143/143
f 143/143/143 210/210/210 211/211/211
f 143/143/143 211/211/211 144/144/144
f 210/210/210 208/208/208 199/199/199
f 210/210/210 199/199/199 211/211/211
f 209/209/209 205/205/205 208/208/208
f 209/209/209 208/208/208 210/210/210
f 144/144/144 211/211/211 212/212/212
f 144/144/144 212/212/212 153/153/153
f 153/153/153 212/212/212 213/213/213
f 153/153/153 213/213/213 154/154/154
f 212/212/212 202/202/202 204/204/204
f 212/212/212 204/204/204 213/213/213
f 211/211/211 199/199/199 202/202/202
f 211/211/211 202/202/202 212/212/212
f 204/204/204 203/203/203 214/214/214
f 204/204/204 214/214/214 215/215/215
f 215/215/215 214/214/214 216/216/216
f 215/215/215 216/216/216 217/217/217
f 214/214/214 218/218/218 219/219/219
f 214/214/214 219/219/219 216/216/216
f 203/203/203 198/198/198 218/218/218
f 203/203/203 218/218/218 214/214/214
f 154/154/154 213/213/213 220/220/220
f 154/154/154 220/220/220 221/221/221
f 221/221/221 220/220/220 222/222/222
f 221/221/221 222/222/222 223/223/223
f 220/220/220 215/215/215 217/217/217
f 220/220/220 217/217/217 222/222/222
f 213/213/213 204/204/204 215/215/215
f 213/213/213 215/215/215 220/220/220
f 217/217/217 216/216/216 224/224/224
f 217/217/217 224/224/224 225/225/225
f 225/225/225 224/224/224 226/226/226
f 225/225/225 226/226/226 227/227/227
f 224/224/224 228/228/228 229/229/229
f 224/224/224 229/229/229 226/226/226
f 216/216/216 219/219/219 228/228/228
f 216/216/216 228/228/228 224/224/224
f 223/223/223 222/222/222 230/230/230
f 223/223/223 230/230/230 231/231/231
f 231/231/231 230/230/230 232/232/232
f 231/231/231 232/232/232 233/233/233
f 230/230/230 225/225/225 227/227/227
f 230/230/230 227/227/227 232/232/232
f 222/222/222 217/217/217 225/225/225
f 222/222/222 225/225/225 230/230/230
f 227/227/227 226/226/226 234/234/234
f 227/227/227 234/234/234 235/235/235
f 235/235/235 234/234/234 236/236/236
f 235/235/235 236/236/236 237/237/237
f 234/234/234 238/238/238 239/239/239
f 234/234/234 239/239/239 236/236/236
f 226/226/226 229/229/229 238/238/238
f 226/226/226 238/238/238 234/234/234
f 233/233/233 232/232/232 240/240/240
f 233/233/233 240/240/240 241/241/241
f 241/241/241 240/240/240 242/242/242
f 241/241/241 242/242/242 243/243/243
f 240/240/240 235/235/235 237/237/237
f 240/240/240 237/237/237 242/242/242
f 232/232/232 227/227/227 235/235/235
f 232/232/232 235/235/235 240/240/240
f 244/244/244 245/245/245 246/246/246
f 244/244/244 246/246/246 247/247/247
f 247/247/247 246/246/246 248/248/248
f 247/247/247 248/248/248 249/249/249
f 246/246/246 231/231/231 233/233/233
f 246/246/246 233/233/233 248/248/248
f 245/245/245 223/223/223 231/231/231
f 245/245/245 231/231/231 246/246/246
f 249/249/249 248/248/248 250/250/250
f 249/249/249 250/250/250 251/251/251
f 251/251/251 250/250/250 252/252/252
f 251/251/251 252/252/252 253/253/253
f 250/250/250 241/241/241 243/243/243
f 250/250/250 243/243/243 252/252/252
f 248/248/248 233/233/233 241/241/241
f 248/248/248 241/241/241 250/250/250
f 254/254/254 255/255/255 256/256/256
f 254/254/254 256/256/256 257/257/257
f 257/257/257 256/256/256 258/258/258
f 257/257/257 258/258/258 259/259/259
f 256/256/256 251/251/251 253/253/253
f 256/256/256 253/253/253 258/258/258
f 255/255/255 249/249/249 251/251/251
f 255/255/255 251/251/251 256/256/256
f 260/260/260 261/261/261 262/262/262
f 260/260/260 262/262/262 263/263/263
f 263/263/263 262/262/262 255/255/255
f 263/263/263 255/255/255 254/254/254
f 262/262/262 247/247/247 249/249/249
f 262/262/262 249/249/249 255/255/255
f 261/261/261 244/244/244 247/247/247
f 261/261/261 247/247/247 262/262/262
f 264/264/264 265/265/265 266/266/266
f 264/264/264 266/266/266 267/267/267
f 267/267/267 266/266/266 268/268/268
f 267/267/267 268/268/268 269/269/269
f 266/266/266 263/263/263 254/254/254
f 266/266/266 254/254/254 268/268/268
f 265/265/265 260/260/260 263/263/263
f 265/265/265 263/263/263 266/266/266
f 269/269/269 268/268/268 270/270/270
f 269/269/269 270/270/270 271/271/271
f 271/271/271 270/270/270 272/272/272
f 271/271/271 272/272/272 273/273/273
f 270/270/270 257/257/257 259/259/259
f 270/270/270 259/259/259 272/272/272
f 268/268/268 254/254/254 257/257/257
f 268/268/268 257/257/257 270/270/270
f 274/274/274 275/275/275 276/276/276
f 274/274/274 276/276/276 277/277/277
f 277/277/277 276/276/276 278/278/278
f 277/277/277 278/278/278 279/279/279
f 276/276/276 271/271/271 273/273/273
f 276/276/276 273/273/273 278/278/278
f 275/275/275 269/269/269 271/271/271
f 275/275/275 271/271/271 276/276/276
f 280/280/280 281/281/281 282/282/282
f 280/280/280 282/282/282 283/283/283
f 283/283/283 282/282/282 275/275/275
f 283/283/283 275/275/275 274/274/274
f 282/282/282 267/267/267 269/269/269
f 282/282/282 269/269/269 275/275/275
f 281/281/281 264/264/264 267/267/267
f 281/281/281 267/267/267 282/282/282
f 284/284/284 285/285/285 286/286/286
f 284/284/284 286/286/286 287/287/287
f 287/287/287 286/286/286 288/288/288
f 287/287/287 288/288/288 289/289/289
f 286/286/286 283/283/283 274/274/274
f 286/286/286 274/274/274 288/288/288
f 285/285/285 280/280/280 283/283/283
f 285/285/285 283/283/283 286/286/286
f 289/289/289 288/288/288 290/290/290
f 289/289/289 290/290/290 291/291/291
f 291/291/291 290/290/290 292/292/292
f 291/291/291 292/292/292 293/293/293
f 290/290/290 277/277/277 279/279/279
f 290/290/290 279/279/279 292/292/292
f 288/288/288 274/274/274 277/277/277
f 288/288/288 277/277/277 290/290/290
f 219/219/219 294/294/294 295/295/295
f 219/219/219 295/295/295 228/228/228
f 228/228/228 295/295/295 296/296/296
f 228/228/228 296/296/296 229/229/229
f 295/295/295 287/287/287 289/289/289
f 295/295/295 289/289/289 296/296/296
f 294/294/294 284/284/284 287/287/287
f 294/294/294 287/287/287 295/295/295
f 229/229/229 296/296/296 297/297/297
f 229/229/229 297/297/297 238/238/238
f 238/238/238 297/297/297 298/298/298
f 238/238/238 298/298/298 239/239/239
f 297/297/297 291/291/291 293/293/293
f 297/297/297 293/293/293 298/298/298
f 296/296/296 289/289/289 291/291/291
f 296/296/296 291/291/291 297/297/297
f 293/293/293 292/292/292 299/299/299
f 293/293/293 299/299/299 300/300/300
f 300/300/300 299/299/299 301/301/301
f 300/300/300 301/301/301 302/302/302
f 299/299/299 303/303/303 304/304/304
f 299/299/299 304/304/304 301/301/301
f 292/292/292 279/279/279 303/303/303
f 292/292/292 303/303/303 299/299/299
f 239/239/239 298/298/298 305/305/305
f 239/239/239 305/305/305 306/306/306
f 306/306/306 305/305/305 307/307/307
f 306/306/306 307/307/307 308/308/308
f 305/305/305 300/300/300 302/302/302
f 305/305/305 302/302/302 307/307/307
f 298/298/298 293/293/293 300/300/300
f 298/298/298 300/300/300 305/305/305
f 308/308/308 307/307/307 309/309/309
f 308/308/308 309/309/309 310/310/310
f 310/310/310 309/309/309 311/311/311
f 310/310/310 311/311/311 312/312/312
f 309/309/309 313/313/313 314/314/314
f 309/309/309 314/314/314 311/311/311
f 307/307/307 302/302/302 313/313/313
f 307/307/307 313/313/313 309/309/309
f 302/302/302 301/301/301 315/315/315
f 302/302/302 315/315/315 313/313/313
f 313/313/313 315/315/315 316/316/316
f 313/313/313 316/316/316 314/314/314
f 315/315/315 317/317/317 318/318/318
f 315/315/315 318/318/318 316/316/316
f 301/301/301 304/304/304 317/317/317
f 301/301/301 317/317/317 315/315/315
f 279/279/279 278/278/278 319/319/319
f 279/279/279 319/319/319 303/303/303
f 303/303/303 319/319/319 320/320/320
f 303/303/303 320/320/320 304/304/304
f 319/319/319 321/321/321 322/322/322
f 319/319/319 322/322/322 320/320/320
f 278/278/278 273/273/273 321/321/321
f 278/278/278 321/321/321 319/319/319
f 304/304/304 320/320/320 323/323/323
f 304/304/304 323/323/323 317/317/317
f 317/317/317 323/323/323 324/324/324
f 317/317/317 324/324/324 318/318/318
f 323/323/323 325/325/325 326/326/326
f 323/323/323 326/326/326 324/324/324
f 320/320/320 322/322/322 325/325/325
f 320/320/320 325/325/325 323/323/323
f 273/273/273 272/272/272 327/327/327
f 273/273/273 327/327/327 321/321/321
f 321/321/321 327/327/327 328/328/328
f 321/321/321 328/328/328 322/322/322
f 327/327/327 329/329/329 330/330/330
f 327/327/327 330/330/330 328/328/328
f 272/272/272 259/259/259 329/329/329
f 272/272/272 329/329/329 327/327/327
f 322/322/322 328/328/328 331/331/331
f 322/322/322 331/331/331 325/325/325
f 325/325/325 331/331/331 332/332/332
f 325/325/325 332/332/332 326/326/326
f 331/331/331 333/333/333 334/334/334
f 331/331/331 334/334/334 332/332/332
f 328/328/328 330/330/330 333/333/333
f 328/328/328 333/333/333 331/331/331
f 330/330/330 335/335/335 336/336/336
f 330/330/330 336/336/336 333/333/333
f 333/333/333 336/336/336 337/337/337
f 333/333/333 337/337/337 334/334/334
f 336/336/336 338/338/338 339/339/339
f 336/336/336 339/339/339 337/337/337
f 335/335/335 340/340/340 338/338/338
f 335/335/335 338/338/338 336/336/336
f 259/259/259 258/258/258 341/341/341
f 259/259/259 341/341/341 329/329/329
f 329/329/329 341/341/341 335/335/335
f 329/329/329 335/335/335 330/330/330
f 341/341/341 342/342/342 340/340/340
f 341/341/341 340/340/340 335/335/335
f 258/258/258 253/253/253 342/342/342
f 258/258/258 342/342/342 341/341/341
f 253/253/253 252/252/252 343/343/343
f 253/253/253 343/343/343 342/342/342
f 342/342/342 343/343/343 344/344/344
f 342/342/342 344/344/344 340/340/340
f 343/343/343 345/345/345 346/346/346
f 343/343/343 346/346/346 344/344/344
f 252/252/252 243/243/243 345/345/345
f 252/252/252 345/345/345 343/343/343
f 340/340/340 344/344/344 347/347/347
f 340/340/340 347/347/347 338/338/338
f 338/338/338 347/347/347 348/348/348
f 338/338/338 348/348/348 339/339/339
f 347/347/347 349/349/349 350/350/350
f 347/347/347 350/350/350 348/348/348
f 344/344/344 346/346/346 349/349/349
f 344/344/344 349/349/349 347/347/347
f 346/346/346 351/351/351 352/352/352
f 346/346/346 352/352/352 349/349/349
f 349/349/349 352/352/352 353/353/353
f 349/349/349 353/353/353 350/350/350
f 352/352/352 354/354/354 355/355/355
f 352/352/352 355/355/355 353/353/353
f 351/351/351 356/356/356 354/354/354
f 351/351/351 354/354/354 352/352/352
f 243/243/243 242/242/242 357/357/357
f 243/243/243 357/357/357 345/345/345
f 345/345/345 357/357/357 351/351/351
f 345/345/345 351/351/351 346/346/346
f 357/357/357 358/358/358 356/356/356
f 357/357/357 356/356/356 351/351/351
f 242/242/242 237/237/237 358/358/358
f 242/242/242 358/358/358 357/357/357
f 356/356/356 359/359/359 360/360/360
f 356/356/356 360/360/360 354/354/354
f 354/354/354 360/360/360 361/361/361
f 354/354/354 361/361/361 355/355/355
f 360/360/360 310/310/310 312/312/312
f 360/360/360 312/312/312 361/361/361
f 359/359/359 308/308/308 310/310/310
f 359/359/359 310/310/310 360/360/360
f 237/237/237 236/236/236 362/362/362
f 237/237/237 362/362/362 358/358/358
f 358/358/358 362/362/362 359/359/359
f 358/358/358 359/359/359 356/356/356
f 362/362/362 306/306/306 308/308/308
f 362/362/362 308/308/308 359/359/359
f 236/236/236 239/239/239 306/306/306
f 236/236/236 306/306/306 362/362/362
f 355/355/355 361/361/361 363/363/363
f 355/355/355 363/363/363 364/364/364
f 364/364/364 363/363/363 365/365/365
f 364/364/364 365/365/365 366/366/366
f 363/363/363 367/367/367 368/368/368
f 363/363/363 368/368/368 365/365/365
f 361/361/361 312/312/312 367/367/367
f 361/361/361 367/367/367 363/363/363
f 350/350/350 353/353/353 369/369/369
f 350/350/350 369/369/369 370/370/370
f 370/370/370 369/369/369 371/371/371
f 370/370/370 371/371/371 372/372/372
f 369/369/369 364/364/364 366/366/366
f 369/369/369 366/366/366 371/371/371
f 353/353/353 355/355/355 364/364/364
f 353/353/353 364/364/364 369/369/369
f 366/366/366 365/365/365 373/373/373
f 366/366/366 373/373/373 374/374/374
f 374/374/374 373/373/373 375/375/375
f 374/374/374 375/375/375 376/376/376
f 373/373/373 377/377/377 378/378/378
f 373/373/373 378/378/378 375/375/375
f 365/365/365 368/368/368 377/377/377
f 365/365/365 377/377/377 373/373/373
f 372/372/372 371/371/371 379/379/379
f 372/372/372 379/379/379 380/380/380
f 380/380/380 379/379/379 381/381/381
f 380/380/380 381/381/381 382/382/382
f 379/379/379 374/374/374 376/376/376
f 379/379/379 376/376/376 381/381/381
f 371/371/371 366/366/366 374/374/374
f 371/371/371 374/374/374 379/379/379
f 383/383/383 384/384/384 385/385/385
f 383/383/383 385/385/385 386/386/386
f 386/386/386 385/385/385 375/375/375
f 386/386/386 375/375/375 378/378/378
f 385/385/385 387/387/387 376/376/376
f 385/385/385 376/376/376 375/375/375
f 384/384/384 388/388/388 387/387/387
f 384/384/384 387/387/387 385/385/385
f 388/388/388 389/389/389 390/390/390
f 388/388/388 390/390/390 387/387/387
f 387/387/387 390/390/390 381/381/381
f 387/387/387 381/381/381 376/376/376
f 390/390/390 391/391/391 382/382/382
f 390/390/390 382/382/382 381/381/381
f 389/389/389 392/392/392 391/391/391
f 389/389/389 391/391/391 390/390/390
f 393/393/393 394/394/394 395/395/395
f 393/393/393 395/395/395 396/396/396
f 397/397/397 396/396/396 395/395/395
f 397/397/397 395/395/395 398/398/398
f 383/383/383 398/398/398 395/395/395
f 383/383/383 395/395/395 384/384/384
f 388/388/388 384/384/384 395/395/395
f 388/388/388 395/395/395 389/389/389
f 392/392/392 389/389/389 395/395/395
f 392/392/392 395/395/395 399/399/399
f 400/400/400 399/399/399 395/395/395
f 400/400/400 395/395/395 401/401/401
f 402/402/402 401/401/401 395/395/395
f 402/402/402 395/395/395 403/403/403
f 404/404/404 403/403/403 395/395/395
f 404/404/404 395/395/395 394/394/394
f 392/392/392 399/399/399 405/405/405
f 392/392/392 405/405/405 391/391/391
f 391/391/391 405/405/405 406/406/406
f 391/391/391 406/406/406 382/382/382
f 405/405/405 407/407/407 408/408/408
f 405/405/405 408/408/408 406/406/406
f 399/399/399 400/400/400 407/407/407
f 399/399/399 407/407/407 405/405/405
f 400/400/400 401/401/401 409/409/409
f 400/400/400 409/409/409 407/407/407
f 407/407/407 409/409/409 410/410/410
f 407/407/407 410/410/410 408/408/408
f 409/409/409 411/411/411 412/412/412
f 409/409/409 412/412/412 410/410/410
f 401/401/401 402/402/402 411/411/411
f 401/401/401 411/411/411 409/409/409
f 413/413/413 414/414/414 415/415/415
f 413/413/413 415/415/415 416/416/416
f 416/416/416 415/415/415 406/406/406
f 416/416/416 406/406/406 408/408/408
f 415/415/415 380/380/380 382/382/382
f 415/415/415 382/382/382 406/406/406
f 414/414/414 372/372/372 380/380/380
f 414/414/414 380/380/380 415/415/415
f 417/417/417 418/418/418 419/419/419
f 417/417/417 419/419/419 420/420/420
f 420/420/420 419/419/419 410/410/410
f 420/420/420 410/410/410 412/412/412
f 419/419/419 416/416/416 408/408/408
f 419/419/419 408/408/408 410/410/410
f 418/418/418 413/413/413 416/416/416
f 418/418/418 416/416/416 419/419/419
f 339/339/339 348/348/348 421/421/421
f 339/339/339 421/421/421 422/422/422
f 422/422/422 421/421/421 414/414/414
f 422/422/422 414/414/414 413/413/413
f 421/421/421 370/370/370 372/372/372
f 421/421/421 372/372/372 414/414/414
f 348/348/348 350/350/350 370/370/370
f 348/348/348 370/370/370 421/421/421
f 334/334/334 337/337/337 423/423/423
f 334/334/334 423/423/423 424/424/424
f 424/424/424 423/423/423 418/418/418
f 424/424/424 418/418/418 417/417/417
f 423/423/423 422/422/422 413/413/413
f 423/423/423 413/413/413 418/418/418
f 337/337/337 339/339/339 422/422/422
f 337/337/337 422/422/422 423/423/423
f 425/425/425 426/426/426 427/427/427
f 425/425/425 427/427/427 428/428/428
f 428/428/428 427/427/427 429/429/429
f 428/428/428 429/429/429 430/430/430
f 427/427/427 420/420/420 412/412/412
f 427/427/427 412/412/412 429/429/429
f 426/426/426 417/417/417 420/420/420
f 426/426/426 420/420/420 427/427/427
f 326/326/326 332/332/332 431/431/431
f 326/326/326 431/431/431 432/432/432
f 432/432/432 431/431/431 426/426/426
f 432/432/432 426/426/426 425/425/425
f 431/431/431 424/424/424 417/417/417
f 431/431/431 417/417/417 426/426/426
f 332/332/332 334/334/334 424/424/424
f 332/332/332 424/424/424 431/431/431
f 318/318/318 324/324/324 433/433/433
f 318/318/318 433/433/433 434/434/434
f 434/434/434 433/433/433 435/435/435
f 434/434/434 435/435/435 436/436/436
f 433/433/433 432/432/432 425/425/425
f 433/433/433 425/425/425 435/435/435
f 324/324/324 326/326/326 432/432/432
f 324/324/324 432/432/432 433/433/433
f 436/436/436 435/435/435 437/437/437
f 436/436/436 437/437/437 438/438/438
f 438/438/438 437/437/437 439/439/439
f 438/438/438 439/439/439 440/440/440
f 437/437/437 428/428/428 430/430/430
f 437/437/437 430/430/430 439/439/439
f 435/435/435 425/425/425 428/428/428
f 435/435/435 428/428/428 437/437/437
f 402/402/402 403/403/403 441/441/441
f 402/402/402 441/441/441 411/411/411
f 411/411/411 441/441/441 429/429/429
f 411/411/411 429/429/429 412/412/412
f 441/441/441 442/442/442 430/430/430
f 441/441/441 430/430/430 429/429/429
f 403/403/403 404/404/404 442/442/442
f 403/403/403 442/442/442 441/441/441
f 404/404/404 394/394/394 443/443/443
f 404/404/404 443/443/443 442/442/442
f 442/442/442 443/443/443 439/439/439
f 442/442/442 439/439/439 430/430/430
f 443/443/443 444/444/444 440/440/440
f 443/443/443 440/440/440 439/439/439
f 394/394/394 393/393/393 444/444/444
f 394/394/394 444/444/444 443/443/443
f 393/393/393 396/396/396 445/445/445
f 393/393/393 445/445/445 444/444/444
f 444/444/444 445/445/445 446/446/446
f 444/444/444 446/446/446 440/440/440
f 445/445/445 447/447/447 448/448/448
f 445/445/445 448/448/448 446/446/446
f 396/396/396 397/397/397 447/447/447
f 396/396/396 447/447/447 445/445/445
f 397/397/397 398/398/398 449/449/449
f 397/397/397 449/449/449 447/447/447
f 447/447/447 449/449/449 450/450/450
f 447/447/447 450/450/450 448/448/448
f 449/449/449 386/386/386 378/378/378
f 449/449/449 378/378/378 450/450/450
f 398/398/398 383/383/383 386/386/386
f 398/398/398 386/386/386 449/449/449
f 451/451/451 452/452/452 453/453/453
f 451/451/451 453/453/453 454/454/454
f 454/454/454 453/453/453 446/446/446
f 454/454/454 446/446/446 448/448/448
f 453/453/453 438/438/438 440/440/440
f 453/453/453 440/440/440 446/446/446
f 452/452/452 436/436/436 438/438/438
f 452/452/452 438/438/438 453/453/453
f 368/368/368 455/455/455 456/456/456
f 368/368/368 456/456/456 377/377/377
f 377/377/377 456/456/456 450/450/450
f 377/377/377 450/450/450 378/378/378
f 456/456/456 454/454/454 448/448/448
f 456/456/456 448/448/448 450/450/450
f 455/455/455 451/451/451 454/454/454
f 455/455/455 454/454/454 456/456/456
f 314/314/314 316/316/316 457/457/457
f 314/314/314 457/457/457 458/458/458
f 458/458/458 457/457/457 452/452/452
f 458/458/458 452/452/452 451/451/451
f 457/457/457 434/434/434 436/436/436
f 457/457/457 436/436/436 452/452/452
f 316/316/316 318/318/318 434/434/434
f 316/316/316 434/434/434 457/457/457
f 312/312/312 311/311/311 459/459/459
f 312/312/312 459/459/459 367/367/367
f 367/367/367 459/459/459 455/455/455
f 367/367/367 455/455/455 368/368/368
f 459/459/459 458/458/458 451/451/451
f 459/459/459 451/451/451 455/455/455
f 311/311/311 314/314/314 458/458/458
f 311/311/311 458/458/458 459/459/459
f 184/184/184 183/183/183 460/460/460
f 184/184/184 460/460/460 461/461/461
f 461/461/461 460/460/460 285/285/285
f 461/461/461 285/285/285 284/284/284
f 460/460/460 462/462/462 280/280/280
f 460/460/460 280/280/280 285/285/285
f 183/183/183 178/178/178 462/462/462
f 183/183/183 462/462/462 460/460/460
f 198/198/198 197/197/197 463/463/463
f 198/198/198 463/463/463 218/218/218
f 218/218/218 463/463/463 294/294/294
f 218/218/218 294/294/294 219/219/219
f 463/463/463 461/461/461 284/284/284
f 463/463/463 284/284/284 294/294/294
f 197/197/197 184/184/184 461/461/461
f 197/197/197 461/461/461 463/463/463
f 178/178/178 177/177/177 464/464/464
f 178/178/178 464/464/464 462/462/462
f 462/462/462 464/464/464 281/281/281
f 462/462/462 281/281/281 280/280/280
f 464/464/464 465/465/465 264/264/264
f 464/464/464 264/264/264 281/281/281
f 177/177/177 168/168/168 465/465/465
f 177/177/177 465/465/465 464/464/464
f 168/168/168 167/167/167 466/466/466
f 168/168/168 466/466/466 465/465/465
f 465/465/465 466/466/466 265/265/265
f 465/465/465 265/265/265 264/264/264
f 466/466/466 467/467/467 260/260/260
f 466/466/466 260/260/260 265/265/265
f 167/167/167 158/158/158 467/467/467
f 167/167/167 467/467/467 466/466/466
f 158/158/158 157/157/157 468/468/468
f 158/158/158 468/468/468 467/467/467
f 467/467/467 468/468/468 261/261/261
f 467/467/467 261/261/261 260/260/260
f 468/468/468 469/469/469 244/244/244
f 468/468/468 244/244/244 261/261/261
f 157/157/157 152/152/152 469/469/469
f 157/157/157 469/469/469 468/468/468
f 152/152/152 151/151/151 470/470/470
f 152/152/152 470/470/470 469/469/469
f 469/469/469 470/470/470 245/245/245
f 469/469/469 245/245/245 244/244/244
f 470/470/470 221/221/221 223/223/223
f 470/470/470 223/223/223 245/245/245
f 151/151/151 154/154/154 221/221/221
f 151/151/151 221/221/221 470/470/470
f 126/126/126 471/471/471 472/472/472
f 126/126/126 472/472/472 473/473/473
f 473/473/473 472/472/472 206/206/206
f 473/473/473 206/206/206 205/205/205
f 472/472/472 474/474/474 189/189/189
f 472/472/472 189/189/189 206/206/206
f 471/471/471 83/83/83 474/474/474
f 471/471/471 474/474/474 472/472/472
f 122/122/122 124/124/124 475/475/475
f 122/122/122 475/475/475 133/133/133
f 133/133/133 475/475/475 209/209/209
f 133/133/133 209/209/209 134/134/134
f 475/475/475 473/473/473 205/205/205
f 475/475/475 205/205/205 209/209/209
f 124/124/124 126/126/126 473/473/473
f 124/124/124 473/473/473 475/475/475
f 97/97/97 96/96/96 476/476/476
f 97/97/97 476/476/476 125/125/125
f 125/125/125 476/476/476 471/471/471
f 125/125/125 471/471/471 126/126/126
f 476/476/476 81/81/81 83/83/83
f 476/476/476 83/83/83 471/471/471
f 96/96/96 78/78/78 81/81/81
f 96/96/96 81/81/81 476/476/476
f 83/83/83 82/82/82 477/477/477
f 83/83/83 477/477/477 474/474/474
f 474/474/474 477/477/477 190/190/190
f 474/474/474 190/190/190 189/189/189
f 477/477/477 478/478/478 185/185/185
f 477/477/477 185/185/185 190/190/190
f 82/82/82 75/75/75 478/478/478
f 82/82/82 478/478/478 477/477/477
f 75/75/75 74/74/74 479/479/479
f 75/75/75 479/479/479 478/478/478
f 478/478/478 479/479/479 186/186/186
f 478/478/478 186/186/186 185/185/185
f 479/479/479 480/480/480 169/169/169
f 479/479/479 169/169/169 186/186/186
f 74/74/74 69/69/69 480/480/480
f 74/74/74 480/480/480 479/479/479
f 69/69/69 68/68/68 481/481/481
f 69/69/69 481/481/481 480/480/480
f 480/480/480 481/481/481 170/170/170
f 480/480/480 170/170/170 169/169/169
f 481/481/481 482/482/482 159/159/159
f 481/481/481 159/159/159 170/170/170
f 68/68/68 63/63/63 482/482/482
f 68/68/68 482/482/482 481/481/481
f 63/63/63 62/62/62 483/483/483
f 63/63/63 483/483/483 482/482/482
f 482/482/482 483/483/483 160/160/160
f 482/482/482 160/160/160 159/159/159
f 483/483/483 136/136/136 138/138/138
f 483/483/483 138/138/138 160/160/160
f 62/62/62 65/65/65 136/136/136
f 62/62/62 136/136/136 483/483/483
f 108/108/108 112/112/112 484/484/484
f 108/108/108 484/484/484 485/485/485
f 485/485/485 484/484/484 486/486/486
f 485/485/485 486/486/486 487/487/487
f 484/484/484 35/35/35 37/37/37
f 484/484/484 37/37/37 486/486/486
f 112/112/112 32/32/32 35/35/35
f 112/112/112 35/35/35 484/484/484
f 98/98/98 109/109/109 488/488/488
f 98/98/98 488/488/488 489/489/489
f 489/489/489 488/488/488 490/490/490
f 489/489/489 490/490/490 491/491/491
f 488/488/488 485/485/485 487/487/487
f 488/488/488 487/487/487 490/490/490
f 109/109/109 108/108/108 485/485/485
f 109/109/109 485/485/485 488/488/488
f 88/88/88 99/99/99 492/492/492
f 88/88/88 492/492/492 493/493/493
f 493/493/493 492/492/492 494/494/494
f 493/493/493 494/494/494 495/495/495
f 492/492/492 489/489/489 491/491/491
f 492/492/492 491/491/491 494/494/494
f 99/99/99 98/98/98 489/489/489
f 99/99/99 489/489/489 492/492/492
f 1/1/1 89/89/89 496/496/496
f 1/1/1 496/496/496 14/14/14
f 14/14/14 496/496/496 497/497/497
f 14/14/14 497/497/497 15/15/15
f 496/496/496 493/493/493 495/495/495
f 496/496/496 495/495/495 497/497/497
f 89/89/89 88/88/88 493/493/493
f 89/89/89 493/493/493 496/496/496
f 12/12/12 15/15/15 497/497/497
f 497/497/497 495/495/495 494/494/494
f 494/494/494 491/491/491 490/490/490
f 490/490/490 487/487/487 486/486/486
f 486/486/486 37/37/37 36/36/36
f 36/36/36 31/31/31 30/30/30
f 30/30/30 25/25/25 24/24/24
f 24/24/24 13/13/13 12/12/12
f 12/12/12 497/497/497 494/494/494
f 494/494/494 490/490/490 486/486/486
f 486/486/486 36/36/36 30/30/30
f 30/30/30 24/24/24 12/12/12
f 12/12/12 494/494/494 486/486/486
f 486/486/486 30/30/30 12/12/12
