v 0.203903 3.01891 1.31974
v 0.147885 2.98387 1.32004
v 0.292548 1.79202 1.32205
v 0.266283 3.04584 1.31928
v 0.334473 3.05469 1.31872
v 0.407005 3.03706 1.31817
v 0.0318018 2.8757 1.32126
v 0.00315891 2.83725 1.32177
v 0.0627664 2.91121 1.32075
v 0.100197 2.94679 1.32033
v -0.026178 2.79165 1.32222
v -0.0574536 2.73527 1.32253
v -0.085832 2.67149 1.32267
v -0.106322 2.60375 1.3226
v -0.120863 2.53251 1.32248
v -0.132137 2.45729 1.32244
v -0.141769 2.37871 1.32252
v -0.150465 2.29619 1.32271
v -0.157262 2.20517 1.32285
v -0.16031 2.09749 1.32285
v -0.156946 1.95916 1.323
v -0.144653 1.78145 1.32357
v -0.125502 1.59693 1.32438
v -0.102597 1.44219 1.32513
v -0.0818819 1.33139 1.32559
v -0.0689939 1.27098 1.3256
v -0.0644545 1.23797 1.32552
v -0.066406 1.20484 1.32569
v -0.064716 1.14228 1.3261
v -0.0512048 1.03255 1.3266
v -0.0353557 0.919184 1.32695
v -0.0268955 0.841042 1.32693
v -0.0200008 0.759273 1.32684
v -0.00727805 0.636695 1.32699
v 0.00998175 0.522074 1.32719
v 0.0291051 0.469265 1.32718
v 0.0484778 0.461895 1.32697
v 0.0685644 0.475064 1.32664
v 0.0967023 0.498321 1.3263
v 0.140155 0.527167 1.32601
v 0.195064 0.560732 1.3257
v 0.293539 0.944677 1.32498
v 0.333876 0.817207 1.32618
v 0.343943 0.8209 1.32625
v 0.387896 0.832646 1.32583
v 0.482628 0.858002 1.32457
v 0.591628 0.895937 1.32323
v 0.677799 0.947186 1.3225
v 0.74812 1.01964 1.32178
v 0.814255 1.12188 1.32045
v 0.869883 1.2474 1.31901
v 0.906022 1.38779 1.31807
v 0.926622 1.53068 1.31753
v 0.936118 1.66499 1.31722
v 0.93568 1.78743 1.31715
v 0.925048 1.89284 1.31736
v 0.906658 1.96706 1.31772
v 0.885095 2.0003 1.31803
v 0.874451 2.02431 1.31803
v 0.88372 2.07508 1.31754
v 0.887194 2.16819 1.31701
v 0.858994 2.31057 1.31689
v 0.810196 2.47491 1.31698
v 0.755642 2.63107 1.31701
v 0.698122 2.76124 1.31704
v 0.638128 2.85319 1.31713
v 0.580796 2.91714 1.31728
v 0.529469 2.96458 1.31744
v 0.47456 3.00362 1.31772
v 0.33639 0.816161 1.32609
v 0.372683 0.748875 1.32543
v 0.351249 0.815919 1.32597
v 0.381049 0.81562 1.32575
v 0.306442 0.632078 1.325
v 0.341296 0.657359 1.32497
v 0.2545 0.597933 1.3253
v 0.369131 0.679708 1.32507
v 0.40062 0.705733 1.32515
v 0.432708 0.734409 1.3252
v 0.458886 0.762684 1.32524
v 0.472691 0.785953 1.32528
v 0.469174 0.800241 1.32532
v 0.455402 0.808066 1.32537
v 0.437853 0.812394 1.32542
v 0.413829 0.814661 1.32554
v 0.203902 3.01891 1.3194
v 0.266282 3.04585 1.31894
v 0.292547 1.79202 1.32172
v 0.147884 2.98387 1.3197
v 0.334472 3.05469 1.31839
v 0.407004 3.03706 1.31783
v 0.0318007 2.8757 1.32092
v 0.0627652 2.91121 1.32041
v 0.00315774 2.83725 1.32143
v 0.100195 2.94679 1.31999
v -0.0261792 2.79165 1.32188
v -0.0574548 2.73527 1.32219
v -0.0858332 2.67149 1.32233
v -0.106324 2.60375 1.32226
v -0.120864 2.53251 1.32214
v -0.132138 2.45729 1.3221
v -0.141771 2.37871 1.32218
v -0.150466 2.29619 1.32237
v -0.157263 2.20517 1.32251
v -0.160311 2.09749 1.32251
v -0.156947 1.95916 1.32266
v -0.144654 1.78145 1.32323
v -0.125503 1.59693 1.32404
v -0.102599 1.44219 1.32479
v -0.0818831 1.33139 1.32525
v -0.0689951 1.27098 1.32526
v -0.0644557 1.23797 1.32518
v -0.0664072 1.20484 1.32535
v -0.0647172 1.14228 1.32576
v -0.0512059 1.03255 1.32627
v -0.0353568 0.919184 1.32661
v -0.0268967 0.841042 1.32659
v -0.020002 0.759273 1.32651
v -0.00727921 0.636695 1.32666
v 0.00998059 0.522074 1.32685
v 0.029104 0.469265 1.32684
v 0.0484766 0.461896 1.32664
v 0.0685632 0.475065 1.32631
v 0.0967012 0.498321 1.32596
v 0.140154 0.527167 1.32567
v 0.195062 0.560732 1.32536
v 0.293537 0.944677 1.32464
v 0.333875 0.817207 1.32584
v 0.343942 0.8209 1.32591
v 0.387895 0.832647 1.32549
v 0.482627 0.858002 1.32423
v 0.591626 0.895937 1.32289
v 0.677798 0.947186 1.32216
v 0.748119 1.01964 1.32144
v 0.814254 1.12188 1.32011
v 0.869881 1.2474 1.31867
v 0.906021 1.38779 1.31773
v 0.92662 1.53068 1.31719
v 0.936117 1.66499 1.31688
v 0.935679 1.78743 1.31681
v 0.925047 1.89284 1.31703
v 0.906657 1.96706 1.31738
v 0.885094 2.0003 1.31769
v 0.87445 2.02431 1.31769
v 0.883719 2.07508 1.3172
v 0.887193 2.16819 1.31668
v 0.858993 2.31057 1.31655
v 0.810194 2.47491 1.31664
v 0.755641 2.63107 1.31668
v 0.698121 2.76124 1.3167
v 0.638127 2.85319 1.3168
v 0.580795 2.91714 1.31694
v 0.529468 2.96458 1.31711
v 0.474559 3.00362 1.31738
v 0.336389 0.816161 1.32575
v 0.372682 0.748875 1.32509
v 0.351248 0.815919 1.32563
v 0.381048 0.81562 1.32541
v 0.306441 0.632079 1.32466
v 0.254499 0.597933 1.32496
v 0.341295 0.657359 1.32463
v 0.369129 0.679708 1.32473
v 0.400619 0.705733 1.32481
v 0.432707 0.734409 1.32486
v 0.458885 0.762684 1.3249
v 0.47269 0.785953 1.32494
v 0.469172 0.800241 1.32499
v 0.455401 0.808066 1.32503
v 0.437851 0.812394 1.32508
v 0.413828 0.814662 1.3252
v -0.14177 2.37871 1.32235
v -0.150466 2.29619 1.32254
v 0.254499 0.597933 1.32513
v 0.306441 0.632079 1.32483
v 0.343942 0.8209 1.32608
v 0.387895 0.832647 1.32566
v 0.407005 3.03706 1.318
v 0.334472 3.05469 1.31855
v -0.132138 2.45729 1.32227
v 0.195063 0.560732 1.32553
v 0.333875 0.817207 1.32601
v 0.47456 3.00362 1.31755
v -0.120863 2.53251 1.32231
v 0.140155 0.527167 1.32584
v 0.529469 2.96458 1.31728
v -0.106323 2.60375 1.32243
v 0.336389 0.816161 1.32592
v 0.580796 2.91714 1.31711
v -0.0858326 2.67149 1.3225
v 0.0967018 0.498321 1.32613
v 0.351248 0.815919 1.3258
v 0.638127 2.85319 1.31697
v -0.0574542 2.73527 1.32236
v 0.0685638 0.475065 1.32647
v 0.698121 2.76124 1.31687
v -0.0261786 2.79165 1.32205
v 0.0484772 0.461895 1.3268
v 0.755641 2.63107 1.31684
v 0.00315832 2.83725 1.3216
v 0.0291046 0.469265 1.32701
v 0.810195 2.47491 1.31681
v 0.0318012 2.8757 1.32109
v 0.00998117 0.522074 1.32702
v 0.858993 2.31057 1.31672
v 0.0627658 2.91121 1.32058
v -0.00727863 0.636695 1.32683
v 0.887193 2.16819 1.31684
v 0.100196 2.94679 1.32016
v -0.0200014 0.759273 1.32668
v 0.88372 2.07508 1.31737
v 0.147884 2.98387 1.31987
v -0.0268961 0.841042 1.32676
v 0.87445 2.02431 1.31786
v -0.0353562 0.919184 1.32678
v 0.885095 2.0003 1.31786
v -0.0512054 1.03255 1.32644
v 0.906657 1.96706 1.31755
v -0.0647166 1.14228 1.32593
v 0.381049 0.81562 1.32558
v 0.925047 1.89284 1.3172
v -0.0664066 1.20484 1.32552
v 0.413828 0.814662 1.32537
v 0.93568 1.78743 1.31698
v 0.203902 3.01891 1.31957
v -0.0644551 1.23797 1.32535
v 0.437852 0.812394 1.32525
v 0.936118 1.66499 1.31705
v 0.266283 3.04585 1.31911
v -0.0689945 1.27098 1.32543
v 0.455401 0.808066 1.3252
v 0.926621 1.53068 1.31736
v -0.0818825 1.33139 1.32542
v 0.469173 0.800241 1.32515
v 0.906022 1.38779 1.3179
v -0.102598 1.44219 1.32496
v 0.47269 0.785953 1.32511
v 0.869882 1.2474 1.31884
v -0.125503 1.59693 1.32421
v 0.458886 0.762684 1.32507
v 0.814254 1.12188 1.32028
v -0.144654 1.78145 1.3234
v 0.432708 0.734409 1.32503
v 0.748119 1.01964 1.32161
v -0.156947 1.95916 1.32283
v 0.400619 0.705733 1.32498
v 0.677799 0.947186 1.32233
v -0.160311 2.09749 1.32268
v 0.36913 0.679708 1.3249
v 0.591627 0.895937 1.32306
v -0.157263 2.20517 1.32268
v 0.341296 0.657359 1.3248
v 0.482627 0.858002 1.3244
vt 0 1
vt 0 1
vt 0 1
vt 0 1
vt 0 1
vt 0 1
vt 0 1
vt 0 1
vt 0 1
vt 0 1
vt 0 1
vt 0 1
vt 0 1
vt 0 1
vt 0 1
vt 0 1
vt 0 1
vt 0 1
vt 0 1
vt 0 1
vt 0 1
vt 0 1
vt 0 1
vt 0 1
vt 0 1
vt 0 1
vt 0 1
vt 0 1
vt 0 1
vt 0 1
vt 0 1
vt 0 1
vt 0 1
vt 0 1
vt 0 1
vt 0 1
vt 0 1
vt 0 1
vt 0 1
vt 0 1
vt 0 1
vt 0 1
vt 0 1
vt 0 1
vt 0 1
vt 0 1
vt 0 1
vt 0 1
vt 0 1
vt 0 1
vt 0 1
vt 0 1
vt 0 1
vt 0 1
vt 0 1
vt 0 1
vt 0 1
vt 0 1
vt 0 1
vt 0 1
vt 0 1
vt 0 1
vt 0 1
vt 0 1
vt 0 1
vt 0 1
vt 0 1
vt 0 1
vt 0 1
vt 0 1
vt 0 1
vt 0 1
vt 0 1
vt 0 1
vt 0 1
vt 0 1
vt 0 1
vt 0 1
vt 0 1
vt 0 1
vt 0 1
vt 0 1
vt 0 1
vt 0 1
vt 0 1
vt 0 1
vt 0 1
vt 0 1
vt 0 1
vt 0 1
vt 0 1
vt 0 1
vt 0 1
vt 0 1
vt 0 1
vt 0 1
vt 0 1
vt 0 1
vt 0 1
vt 0 1
vt 0 1
vt 0 1
vt 0 1
vt 0 1
vt 0 1
vt 0 1
vt 0 1
vt 0 1
vt 0 1
vt 0 1
vt 0 1
vt 0 1
vt 0 1
vt 0 1
vt 0 1
vt 0 1
vt 0 1
vt 0 1
vt 0 1
vt 0 1
vt 0 1
vt 0 1
vt 0 1
vt 0 1
vt 0 1
vt 0 1
vt 0 1
vt 0 1
vt 0 1
vt 0 1
vt 0 1
vt 0 1
vt 0 1
vt 0 1
vt 0 1
vt 0 1
vt 0 1
vt 0 1
vt 0 1
vt 0 1
vt 0 1
vt 0 1
vt 0 1
vt 0 1
vt 0 1
vt 0 1
vt 0 1
vt 0 1
vt 0 1
vt 0 1
vt 0 1
vt 0 1
vt 0 1
vt 0 1
vt 0 1
vt 0 1
vt 0 1
vt 0 1
vt 0 1
vt 0 1
vt 0 1
vt 0 1
vt 0 1
vt 0 1
vt 0 1
vt 0 1
vt 0 1
vt 0 1
vt 0 1
vt 0 1
vt 0 1
vt 0 1
vt 0 1
vt 0 1
vt 0 1
vt 0 1
vt 0 1
vt 0 1
vt 0 1
vt 0 1
vt 0 1
vt 0 1
vt 0 1
vt 0 1
vt 0 1
vt 0 1
vt 0 1
vt 0 1
vt 0 1
vt 0 1
vt 0 1
vt 0 1
vt 0 1
vt 0 1
vt 0 1
vt 0 1
vt 0 1
vt 0 1
vt 0 1
vt 0 1
vt 0 1
vt 0 1
vt 0 1
vt 0 1
vt 0 1
vt 0 1
vt 0 1
vt 0 1
vt 0 1
vt 0 1
vt 0 1
vt 0 1
vt 0 1
vt 0 1
vt 0 1
vt 0 1
vt 0 1
vt 0 1
vt 0 1
vt 0 1
vt 0 1
vt 0 1
vt 0 1
vt 0 1
vt 0 1
vt 0 1
vt 0 1
vt 0 1
vt 0 1
vt 0 1
vt 0 1
vt 0 1
vt 0 1
vt 0 1
vt 0 1
vt 0 1
vt 0 1
vt 0 1
vt 0 1
vt 0 1
vt 0 1
vt 0 1
vt 0 1
vt 0 1
vt 0 1
vt 0 1
vt 0 1
vt 0 1
vt 0 1
vt 0 1
vt 0 1
vt 0 1
vn -0.3318 0.641 0.692
vn -0.4071 0.5901 0.6971
vn 0.005646 0.002777 1
vn -0.1902 0.71 0.678
vn 0.04563 0.7432 0.6674
vn 0.2545 0.6867 0.6809
vn -0.5497 0.4529 0.702
vn -0.5806 0.4101 0.7033
vn -0.5128 0.4987 0.6988
vn -0.464 0.5463 0.6973
vn -0.6076 0.3688 0.7034
vn -0.6371 0.3215 0.7005
vn -0.6734 0.2511 0.6953
vn -0.6937 0.1755 0.6985
vn -0.7013 0.1233 0.7021
vn -0.7026 0.0954 0.7052
vn -0.7023 0.08124 0.7072
vn -0.7053 0.06449 0.7059
vn -0.7091 0.03696 0.7042
vn -0.7109 0.002228 0.7032
vn -0.7093 -0.03153 0.7042
vn -0.7062 -0.05872 0.7055
vn -0.7043 -0.08545 0.7047
vn -0.699 -0.1146 0.7059
vn -0.693 -0.1368 0.7078
vn -0.6843 -0.1192 0.7194
vn -0.7245 -0.02719 0.6887
vn -0.7145 0.01462 0.6994
vn -0.7138 -0.04984 0.6986
vn -0.6993 -0.09027 0.7091
vn -0.7009 -0.08563 0.708
vn -0.6962 -0.06659 0.7148
vn -0.7014 -0.06571 0.7097
vn -0.7029 -0.08832 0.7057
vn -0.7023 -0.1776 0.6894
vn -0.5514 -0.5479 0.629
vn 0.09082 -0.7812 0.6176
vn 0.4343 -0.5773 0.6914
vn 0.4337 -0.5757 0.6931
vn 0.3817 -0.5915 0.7102
vn 0.3728 -0.6019 0.7061
vn -0.009186 0.002625 0.9999
vn 0.7738 -0.1176 -0.6224
vn 0.2067 -0.6619 0.7205
vn 0.1906 -0.6808 0.7072
vn 0.2172 -0.6815 0.6988
vn 0.3137 -0.6585 0.684
vn 0.461 -0.5734 0.6772
vn 0.5747 -0.4496 0.6838
vn 0.6422 -0.3406 0.6867
vn 0.6903 -0.2341 0.6846
vn 0.7099 -0.138 0.6906
vn 0.7151 -0.07465 0.6949
vn 0.7189 -0.02316 0.6947
vn 0.7207 0.03711 0.6923
vn 0.7159 0.122 0.6875
vn 0.684 0.2924 0.6683
vn 0.6081 0.3276 0.7231
vn 0.759 0.09491 0.6442
vn 0.7219 -0.07578 0.6878
vn 0.7328 0.05988 0.6778
vn 0.6998 0.1733 0.693
vn 0.6814 0.2198 0.6981
vn 0.6691 0.2641 0.6946
vn 0.6399 0.3467 0.6858
vn 0.5772 0.4417 0.6868
vn 0.5143 0.5047 0.6934
vn 0.4583 0.5605 0.6897
vn 0.3759 0.622 0.6868
vn 0.1346 0.8964 -0.4224
vn 0.001495 -0.003754 1
vn 0.01459 0.7056 0.7084
vn 0.01846 0.7071 0.7069
vn 0.4102 -0.5896 0.6957
vn 0.4368 -0.57 0.6959
vn 0.3846 -0.5978 0.7033
vn 0.4479 -0.5523 0.703
vn 0.4645 -0.542 0.7003
vn 0.5043 -0.5139 0.6939
vn 0.5862 -0.438 0.6815
vn 0.7692 -0.1151 0.6286
vn 0.6223 0.4684 0.6271
vn 0.274 0.6824 0.6776
vn 0.1232 0.7118 0.6914
vn 0.04801 0.7111 0.7015
vn -0.3401 0.6398 -0.6891
vn -0.1998 0.7091 -0.6762
vn -0.005646 -0.002777 -1
vn -0.4153 0.5872 -0.6947
vn 0.03571 0.7422 -0.6691
vn 0.2451 0.686 -0.685
vn -0.5641 0.4457 -0.695
vn -0.5228 0.4939 -0.6948
vn -0.594 0.404 -0.6956
vn -0.4721 0.5422 -0.695
vn -0.6185 0.3648 -0.696
vn -0.646 0.3186 -0.6936
vn -0.6775 0.2517 -0.6911
vn -0.697 0.1761 -0.6951
vn -0.7028 0.1251 -0.7002
vn -0.7047 0.09629 -0.7029
vn -0.7066 0.07935 -0.7031
vn -0.7099 0.0629 -0.7014
vn -0.7135 0.03619 -0.6997
vn -0.7148 0.0006104 -0.6992
vn -0.7132 -0.03488 -0.7
vn -0.7103 -0.06372 -0.701
vn -0.7084 -0.09226 -0.6998
vn -0.7041 -0.1202 -0.6999
vn -0.6992 -0.1418 -0.7007
vn -0.6919 -0.122 -0.7115
vn -0.73 -0.02942 -0.6828
vn -0.7183 0.008148 -0.6957
vn -0.7172 -0.05728 -0.6944
vn -0.7064 -0.09445 -0.7014
vn -0.7093 -0.08918 -0.6992
vn -0.7061 -0.06836 -0.7048
vn -0.7108 -0.06708 -0.7001
vn -0.71 -0.09122 -0.6982
vn -0.709 -0.1803 -0.6817
vn -0.5623 -0.5479 -0.6193
vn 0.0791 -0.7826 -0.6175
vn 0.4193 -0.5802 -0.6982
vn 0.4228 -0.5782 -0.6977
vn 0.374 -0.5938 -0.7123
vn 0.3726 -0.6027 -0.7056
vn 0.009186 -0.002625 -0.9999
vn 0.8802 0.05881 0.4709
vn 0.2134 -0.6666 -0.7142
vn 0.175 -0.6862 -0.706
vn 0.2032 -0.6856 -0.6991
vn 0.3013 -0.6621 -0.6861
vn 0.4494 -0.5793 -0.68
vn 0.5644 -0.4569 -0.6875
vn 0.6315 -0.3479 -0.6929
vn 0.6789 -0.2418 -0.6933
vn 0.6998 -0.1442 -0.6996
vn 0.7067 -0.07794 -0.7032
vn 0.7107 -0.02472 -0.703
vn 0.7126 0.0376 -0.7006
vn 0.7076 0.1248 -0.6955
vn 0.6752 0.297 -0.6752
vn 0.6025 0.3279 -0.7276
vn 0.7564 0.08518 -0.6485
vn 0.7147 -0.08136 -0.6947
vn 0.7257 0.05573 -0.6858
vn 0.6929 0.1706 -0.7006
vn 0.6744 0.2181 -0.7054
vn 0.6629 0.2618 -0.7015
vn 0.6338 0.3442 -0.6926
vn 0.5709 0.4394 -0.6935
vn 0.5079 0.5024 -0.6997
vn 0.4509 0.5591 -0.6957
vn 0.3676 0.6214 -0.6919
vn 0.2335 0.887 0.3984
vn -0.001495 0.003754 -1
vn 0.004028 0.7098 -0.7043
vn 0.009369 0.7112 -0.7029
vn 0.3996 -0.5822 -0.7081
vn 0.3818 -0.5967 -0.7058
vn 0.4281 -0.5626 -0.7073
vn 0.4473 -0.5463 -0.7081
vn 0.463 -0.5367 -0.7053
vn 0.5014 -0.5093 -0.6994
vn 0.5829 -0.4343 -0.6866
vn 0.7657 -0.1124 -0.6333
vn 0.6186 0.4707 -0.6291
vn 0.2704 0.6839 -0.6775
vn 0.1185 0.7137 -0.6903
vn 0.04004 0.7147 -0.6982
vn -0.9935 0.1133 0.003418
vn -0.9959 0.08966 0.003418
vn 0.54 -0.8416 -0.002197
vn 0.5685 -0.8227 -0.00235
vn 0.3016 -0.9534 -0.001556
vn 0.2583 -0.966 -0.001495
vn 0.342 0.9397 -0.0006104
vn 0.05466 0.9985 0.0003967
vn -0.9908 0.135 0.003449
vn 0.5262 -0.8503 -0.002289
vn 0.9998 -0.02133 -0.00354
vn 0.5132 0.8582 -0.0006409
vn -0.9847 0.1742 0.00351
vn 0.5376 -0.8432 -0.00235
vn 0.6304 0.7762 -0.001709
vn -0.9695 0.2451 0.003479
vn 0.2037 0.979 -0.0002441
vn 0.7124 0.7018 -0.002777
vn -0.9372 0.3488 0.003449
vn 0.596 -0.8029 -0.002533
vn 0.01315 0.9999 0.0004578
vn 0.7933 0.6088 -0.00293
vn -0.8948 0.4463 0.003754
vn 0.5935 -0.8048 -0.002503
vn 0.879 0.4767 -0.002991
vn -0.8581 0.5134 0.00351
vn 0.108 -0.9941 -0.0008545
vn 0.9301 0.3672 -0.002899
vn -0.8219 0.5696 0.002686
vn -0.7128 -0.7013 0.002136
vn 0.9516 0.3073 -0.00293
vn -0.7783 0.6279 0.002441
vn -0.9693 -0.2458 0.003204
vn 0.9708 0.2397 -0.003082
vn -0.7219 0.6919 0.002716
vn -0.992 -0.1261 0.003327
vn 0.9969 0.07901 -0.003235
vn -0.652 0.7582 0.002228
vn -0.9956 -0.09363 0.003388
vn 0.994 -0.1087 -0.003449
vn -0.5726 0.8198 0.002197
vn -0.9954 -0.0958 0.003388
vn 0.993 0.118 -0.003296
vn -0.9924 -0.123 0.003357
vn 0.8793 0.4761 -0.002686
vn -0.9915 -0.1303 0.003357
vn 0.9175 0.3977 -0.002869
vn -0.9972 -0.07465 0.003388
vn 0.01962 0.9998 0.0005799
vn 0.9853 0.1709 -0.003204
vn -0.9998 0.01593 0.003418
vn 0.06162 0.9981 0.0003967
vn 0.9986 0.05203 -0.003357
vn -0.4645 0.8855 0.002869
vn -0.9992 -0.03888 0.003418
vn 0.1672 0.9859 -0.0001221
vn 0.9994 -0.03348 -0.003449
vn -0.265 0.9642 0.002258
vn -0.985 -0.1726 0.003296
vn 0.3701 0.929 -0.000763
vn 0.9943 -0.1067 -0.003479
vn -0.9805 -0.1962 0.003235
vn 0.7974 0.6034 -0.00235
vn 0.9805 -0.1964 -0.003357
vn -0.9863 -0.165 0.003296
vn 0.9892 -0.1465 -0.003418
vn 0.9445 -0.3283 -0.003113
vn -0.9922 -0.1248 0.003327
vn 0.8014 -0.598 -0.003052
vn 0.8797 -0.4755 -0.002899
vn -0.9963 -0.08609 0.003388
vn 0.701 -0.7131 -0.002716
vn 0.7824 -0.6227 -0.002594
vn -0.9989 -0.04666 0.003418
vn 0.652 -0.7582 -0.002441
vn 0.6198 -0.7848 -0.002075
vn -1 0.001984 0.003418
vn 0.6317 -0.7752 -0.002594
vn 0.4221 -0.9065 -0.001679
vn -0.9987 0.05139 0.003418
vn 0.6069 -0.7947 -0.002686
vn 0.2939 -0.9558 -0.001495
f 1/1/1 2/2/2 3/3/3
f 1/1/1 3/3/3 4/4/4
f 5/5/5 4/4/4 3/3/3
f 5/5/5 3/3/3 6/6/6
f 7/7/7 8/8/8 3/3/3
f 7/7/7 3/3/3 9/9/9
f 10/10/10 9/9/9 3/3/3
f 10/10/10 3/3/3 2/2/2
f 11/11/11 12/12/12 3/3/3
f 11/11/11 3/3/3 8/8/8
f 13/13/13 14/14/14 3/3/3
f 13/13/13 3/3/3 12/12/12
f 15/15/15 16/16/16 3/3/3
f 15/15/15 3/3/3 14/14/14
f 17/17/17 18/18/18 3/3/3
f 17/17/17 3/3/3 16/16/16
f 19/19/19 20/20/20 3/3/3
f 19/19/19 3/3/3 18/18/18
f 21/21/21 22/22/22 3/3/3
f 21/21/21 3/3/3 20/20/20
f 23/23/23 24/24/24 3/3/3
f 23/23/23 3/3/3 22/22/22
f 25/25/25 26/26/26 3/3/3
f 25/25/25 3/3/3 24/24/24
f 27/27/27 28/28/28 3/3/3
f 27/27/27 3/3/3 26/26/26
f 29/29/29 30/30/30 3/3/3
f 29/29/29 3/3/3 28/28/28
f 31/31/31 32/32/32 3/3/3
f 31/31/31 3/3/3 30/30/30
f 33/33/33 34/34/34 3/3/3
f 33/33/33 3/3/3 32/32/32
f 35/35/35 36/36/36 3/3/3
f 35/35/35 3/3/3 34/34/34
f 37/37/37 38/38/38 3/3/3
f 37/37/37 3/3/3 36/36/36
f 39/39/39 40/40/40 3/3/3
f 39/39/39 3/3/3 38/38/38
f 41/41/41 42/42/42 3/3/3
f 41/41/41 3/3/3 40/40/40
f 43/43/43 44/44/44 3/3/3
f 43/43/43 3/3/3 42/42/42
f 45/45/45 46/46/46 3/3/3
f 45/45/45 3/3/3 44/44/44
f 47/47/47 48/48/48 3/3/3
f 47/47/47 3/3/3 46/46/46
f 49/49/49 50/50/50 3/3/3
f 49/49/49 3/3/3 48/48/48
f 51/51/51 52/52/52 3/3/3
f 51/51/51 3/3/3 50/50/50
f 53/53/53 54/54/54 3/3/3
f 53/53/53 3/3/3 52/52/52
f 55/55/55 56/56/56 3/3/3
f 55/55/55 3/3/3 54/54/54
f 57/57/57 58/58/58 3/3/3
f 57/57/57 3/3/3 56/56/56
f 59/59/59 60/60/60 3/3/3
f 59/59/59 3/3/3 58/58/58
f 61/61/61 62/62/62 3/3/3
f 61/61/61 3/3/3 60/60/60
f 63/63/63 64/64/64 3/3/3
f 63/63/63 3/3/3 62/62/62
f 65/65/65 66/66/66 3/3/3
f 65/65/65 3/3/3 64/64/64
f 67/67/67 68/68/68 3/3/3
f 67/67/67 3/3/3 66/66/66
f 69/69/69 6/6/6 3/3/3
f 69/69/69 3/3/3 68/68/68
f 43/43/43 42/42/42 70/70/70
f 42/42/42 71/71/71 70/70/70
f 72/72/72 70/70/70 71/71/71
f 72/72/72 71/71/71 73/73/73
f 74/74/74 75/75/75 71/71/71
f 74/74/74 71/71/71 76/76/76
f 41/41/41 76/76/76 71/71/71
f 41/41/41 71/71/71 42/42/42
f 77/77/77 78/78/78 71/71/71
f 77/77/77 71/71/71 75/75/75
f 79/79/79 80/80/80 71/71/71
f 79/79/79 71/71/71 78/78/78
f 81/81/81 82/82/82 71/71/71
f 81/81/81 71/71/71 80/80/80
f 83/83/83 84/84/84 71/71/71
f 83/83/83 71/71/71 82/82/82
f 85/85/85 73/73/73 71/71/71
f 85/85/85 71/71/71 84/84/84
f 86/86/86 87/87/87 88/88/88
f 86/86/86 88/88/88 89/89/89
f 90/90/90 91/91/91 88/88/88
f 90/90/90 88/88/88 87/87/87
f 92/92/92 93/93/93 88/88/88
f 92/92/92 88/88/88 94/94/94
f 95/95/95 89/89/89 88/88/88
f 95/95/95 88/88/88 93/93/93
f 96/96/96 94/94/94 88/88/88
f 96/96/96 88/88/88 97/97/97
f 98/98/98 97/97/97 88/88/88
f 98/98/98 88/88/88 99/99/99
f 100/100/100 99/99/99 88/88/88
f 100/100/100 88/88/88 101/101/101
f 102/102/102 101/101/101 88/88/88
f 102/102/102 88/88/88 103/103/103
f 104/104/104 103/103/103 88/88/88
f 104/104/104 88/88/88 105/105/105
f 106/106/106 105/105/105 88/88/88
f 106/106/106 88/88/88 107/107/107
f 108/108/108 107/107/107 88/88/88
f 108/108/108 88/88/88 109/109/109
f 110/110/110 109/109/109 88/88/88
f 110/110/110 88/88/88 111/111/111
f 112/112/112 111/111/111 88/88/88
f 112/112/112 88/88/88 113/113/113
f 114/114/114 113/113/113 88/88/88
f 114/114/114 88/88/88 115/115/115
f 116/116/116 115/115/115 88/88/88
f 116/116/116 88/88/88 117/117/117
f 118/118/118 117/117/117 88/88/88
f 118/118/118 88/88/88 119/119/119
f 120/120/120 119/119/119 88/88/88
f 120/120/120 88/88/88 121/121/121
f 122/122/122 121/121/121 88/88/88
f 122/122/122 88/88/88 123/123/123
f 124/124/124 123/123/123 88/88/88
f 124/124/124 88/88/88 125/125/125
f 126/126/126 125/125/125 88/88/88
f 126/126/126 88/88/88 127/127/127
f 128/128/128 127/127/127 88/88/88
f 128/128/128 88/88/88 129/129/129
f 130/130/130 129/129/129 88/88/88
f 130/130/130 88/88/88 131/131/131
f 132/132/132 131/131/131 88/88/88
f 132/132/132 88/88/88 133/133/133
f 134/134/134 133/133/133 88/88/88
f 134/134/134 88/88/88 135/135/135
f 136/136/136 135/135/135 88/88/88
f 136/136/136 88/88/88 137/137/137
f 138/138/138 137/137/137 88/88/88
f 138/138/138 88/88/88 139/139/139
f 140/140/140 139/139/139 88/88/88
f 140/140/140 88/88/88 141/141/141
f 142/142/142 141/141/141 88/88/88
f 142/142/142 88/88/88 143/143/143
f 144/144/144 143/143/143 88/88/88
f 144/144/144 88/88/88 145/145/145
f 146/146/146 145/145/145 88/88/88
f 146/146/146 88/88/88 147/147/147
f 148/148/148 147/147/147 88/88/88
f 148/148/148 88/88/88 149/149/149
f 150/150/150 149/149/149 88/88/88
f 150/150/150 88/88/88 151/151/151
f 152/152/152 151/151/151 88/88/88
f 152/152/152 88/88/88 153/153/153
f 154/154/154 153/153/153 88/88/88
f 154/154/154 88/88/88 91/91/91
f 128/128/128 155/155/155 127/127/127
f 155/155/155 156/156/156 127/127/127
f 157/157/157 158/158/158 156/156/156
f 157/157/157 156/156/156 155/155/155
f 159/159/159 160/160/160 156/156/156
f 159/159/159 156/156/156 161/161/161
f 126/126/126 127/127/127 156/156/156
f 126/126/126 156/156/156 160/160/160
f 162/162/162 161/161/161 156/156/156
f 162/162/162 156/156/156 163/163/163
f 164/164/164 163/163/163 156/156/156
f 164/164/164 156/156/156 165/165/165
f 166/166/166 165/165/165 156/156/156
f 166/166/166 156/156/156 167/167/167
f 168/168/168 167/167/167 156/156/156
f 168/168/168 156/156/156 169/169/169
f 170/170/170 169/169/169 156/156/156
f 170/170/170 156/156/156 158/158/158
f 171/171/171 102/102/102 103/103/103
f 171/171/171 103/103/103 172/172/172
f 173/173/173 160/160/160 159/159/159
f 173/173/173 159/159/159 174/174/174
f 175/175/175 129/129/129 130/130/130
f 175/175/175 130/130/130 176/176/176
f 177/177/177 91/91/91 90/90/90
f 177/177/177 90/90/90 178/178/178
f 179/179/179 101/101/101 102/102/102
f 179/179/179 102/102/102 171/171/171
f 180/180/180 126/126/126 160/160/160
f 180/180/180 160/160/160 173/173/173
f 181/181/181 128/128/128 129/129/129
f 181/181/181 129/129/129 175/175/175
f 182/182/182 154/154/154 91/91/91
f 182/182/182 91/91/91 177/177/177
f 183/183/183 100/100/100 101/101/101
f 183/183/183 101/101/101 179/179/179
f 184/184/184 125/125/125 126/126/126
f 184/184/184 126/126/126 180/180/180
f 185/185/185 153/153/153 154/154/154
f 185/185/185 154/154/154 182/182/182
f 186/186/186 99/99/99 100/100/100
f 186/186/186 100/100/100 183/183/183
f 187/187/187 155/155/155 128/128/128
f 187/187/187 128/128/128 181/181/181
f 188/188/188 152/152/152 153/153/153
f 188/188/188 153/153/153 185/185/185
f 189/189/189 98/98/98 99/99/99
f 189/189/189 99/99/99 186/186/186
f 190/190/190 124/124/124 125/125/125
f 190/190/190 125/125/125 184/184/184
f 191/191/191 157/157/157 155/155/155
f 191/191/191 155/155/155 187/187/187
f 192/192/192 151/151/151 152/152/152
f 192/192/192 152/152/152 188/188/188
f 193/193/193 97/97/97 98/98/98
f 193/193/193 98/98/98 189/189/189
f 194/194/194 123/123/123 124/124/124
f 194/194/194 124/124/124 190/190/190
f 195/195/195 150/150/150 151/151/151
f 195/195/195 151/151/151 192/192/192
f 196/196/196 96/96/96 97/97/97
f 196/196/196 97/97/97 193/193/193
f 197/197/197 122/122/122 123/123/123
f 197/197/197 123/123/123 194/194/194
f 198/198/198 149/149/149 150/150/150
f 198/198/198 150/150/150 195/195/195
f 199/199/199 94/94/94 96/96/96
f 199/199/199 96/96/96 196/196/196
f 200/200/200 121/121/121 122/122/122
f 200/200/200 122/122/122 197/197/197
f 201/201/201 148/148/148 149/149/149
f 201/201/201 149/149/149 198/198/198
f 202/202/202 92/92/92 94/94/94
f 202/202/202 94/94/94 199/199/199
f 203/203/203 120/120/120 121/121/121
f 203/203/203 121/121/121 200/200/200
f 204/204/204 147/147/147 148/148/148
f 204/204/204 148/148/148 201/201/201
f 205/205/205 93/93/93 92/92/92
f 205/205/205 92/92/92 202/202/202
f 206/206/206 119/119/119 120/120/120
f 206/206/206 120/120/120 203/203/203
f 207/207/207 146/146/146 147/147/147
f 207/207/207 147/147/147 204/204/204
f 208/208/208 95/95/95 93/93/93
f 208/208/208 93/93/93 205/205/205
f 209/209/209 118/118/118 119/119/119
f 209/209/209 119/119/119 206/206/206
f 210/210/210 145/145/145 146/146/146
f 210/210/210 146/146/146 207/207/207
f 211/211/211 89/89/89 95/95/95
f 211/211/211 95/95/95 208/208/208
f 212/212/212 117/117/117 118/118/118
f 212/212/212 118/118/118 209/209/209
f 213/213/213 144/144/144 145/145/145
f 213/213/213 145/145/145 210/210/210
f 214/214/214 116/116/116 117/117/117
f 214/214/214 117/117/117 212/212/212
f 215/215/215 143/143/143 144/144/144
f 215/215/215 144/144/144 213/213/213
f 216/216/216 115/115/115 116/116/116
f 216/216/216 116/116/116 214/214/214
f 217/217/217 142/142/142 143/143/143
f 217/217/217 143/143/143 215/215/215
f 218/218/218 114/114/114 115/115/115
f 218/218/218 115/115/115 216/216/216
f 219/219/219 158/158/158 157/157/157
f 219/219/219 157/157/157 191/191/191
f 220/220/220 141/141/141 142/142/142
f 220/220/220 142/142/142 217/217/217
f 221/221/221 113/113/113 114/114/114
f 221/221/221 114/114/114 218/218/218
f 222/222/222 170/170/170 158/158/158
f 222/222/222 158/158/158 219/219/219
f 223/223/223 140/140/140 141/141/141
f 223/223/223 141/141/141 220/220/220
f 224/224/224 86/86/86 89/89/89
f 224/224/224 89/89/89 211/211/211
f 225/225/225 112/112/112 113/113/113
f 225/225/225 113/113/113 221/221/221
f 226/226/226 169/169/169 170/170/170
f 226/226/226 170/170/170 222/222/222
f 227/227/227 139/139/139 140/140/140
f 227/227/227 140/140/140 223/223/223
f 228/228/228 87/87/87 86/86/86
f 228/228/228 86/86/86 224/224/224
f 229/229/229 111/111/111 112/112/112
f 229/229/229 112/112/112 225/225/225
f 230/230/230 168/168/168 169/169/169
f 230/230/230 169/169/169 226/226/226
f 231/231/231 138/138/138 139/139/139
f 231/231/231 139/139/139 227/227/227
f 178/178/178 90/90/90 87/87/87
f 178/178/178 87/87/87 228/228/228
f 232/232/232 110/110/110 111/111/111
f 232/232/232 111/111/111 229/229/229
f 233/233/233 167/167/167 168/168/168
f 233/233/233 168/168/168 230/230/230
f 234/234/234 137/137/137 138/138/138
f 234/234/234 138/138/138 231/231/231
f 235/235/235 109/109/109 110/110/110
f 235/235/235 110/110/110 232/232/232
f 236/236/236 166/166/166 167/167/167
f 236/236/236 167/167/167 233/233/233
f 237/237/237 136/136/136 137/137/137
f 237/237/237 137/137/137 234/234/234
f 238/238/238 108/108/108 109/109/109
f 238/238/238 109/109/109 235/235/235
f 239/239/239 165/165/165 166/166/166
f 239/239/239 166/166/166 236/236/236
f 240/240/240 135/135/135 136/136/136
f 240/240/240 136/136/136 237/237/237
f 241/241/241 107/107/107 108/108/108
f 241/241/241 108/108/108 238/238/238
f 242/242/242 164/164/164 165/165/165
f 242/242/242 165/165/165 239/239/239
f 243/243/243 134/134/134 135/135/135
f 243/243/243 135/135/135 240/240/240
f 244/244/244 106/106/106 107/107/107
f 244/244/244 107/107/107 241/241/241
f 245/245/245 163/163/163 164/164/164
f 245/245/245 164/164/164 242/242/242
f 246/246/246 133/133/133 134/134/134
f 246/246/246 134/134/134 243/243/243
f 247/247/247 105/105/105 106/106/106
f 247/247/247 106/106/106 244/244/244
f 248/248/248 162/162/162 163/163/163
f 248/248/248 163/163/163 245/245/245
f 249/249/249 132/132/132 133/133/133
f 249/249/249 133/133/133 246/246/246
f 250/250/250 104/104/104 105/105/105
f 250/250/250 105/105/105 247/247/247
f 251/251/251 161/161/161 162/162/162
f 251/251/251 162/162/162 248/248/248
f 252/252/252 131/131/131 132/132/132
f 252/252/252 132/132/132 249/249/249
f 172/172/172 103/103/103 104/104/104
f 172/172/172 104/104/104 250/250/250
f 174/174/174 159/159/159 161/161/161
f 174/174/174 161/161/161 251/251/251
f 176/176/176 130/130/130 131/131/131
f 176/176/176 131/131/131 252/252/252
f 45/45/45 176/176/176 252/252/252
f 45/45/45 252/252/252 46/46/46
f 74/74/74 174/174/174 251/251/251
f 74/74/74 251/251/251 75/75/75
f 18/18/18 172/172/172 250/250/250
f 18/18/18 250/250/250 19/19/19
f 46/46/46 252/252/252 249/249/249
f 46/46/46 249/249/249 47/47/47
f 75/75/75 251/251/251 248/248/248
f 75/75/75 248/248/248 77/77/77
f 19/19/19 250/250/250 247/247/247
f 19/19/19 247/247/247 20/20/20
f 47/47/47 249/249/249 246/246/246
f 47/47/47 246/246/246 48/48/48
f 77/77/77 248/248/248 245/245/245
f 77/77/77 245/245/245 78/78/78
f 20/20/20 247/247/247 244/244/244
f 20/20/20 244/244/244 21/21/21
f 48/48/48 246/246/246 243/243/243
f 48/48/48 243/243/243 49/49/49
f 78/78/78 245/245/245 242/242/242
f 78/78/78 242/242/242 79/79/79
f 21/21/21 244/244/244 241/241/241
f 21/21/21 241/241/241 22/22/22
f 49/49/49 243/243/243 240/240/240
f 49/49/49 240/240/240 50/50/50
f 79/79/79 242/242/242 239/239/239
f 79/79/79 239/239/239 80/80/80
f 22/22/22 241/241/241 238/238/238
f 22/22/22 238/238/238 23/23/23
f 50/50/50 240/240/240 237/237/237
f 50/50/50 237/237/237 51/51/51
f 80/80/80 239/239/239 236/236/236
f 80/80/80 236/236/236 81/81/81
f 23/23/23 238/238/238 235/235/235
f 23/23/23 235/235/235 24/24/24
f 51/51/51 237/237/237 234/234/234
f 51/51/51 234/234/234 52/52/52
f 81/81/81 236/236/236 233/233/233
f 81/81/81 233/233/233 82/82/82
f 24/24/24 235/235/235 232/232/232
f 24/24/24 232/232/232 25/25/25
f 52/52/52 234/234/234 231/231/231
f 52/52/52 231/231/231 53/53/53
f 82/82/82 233/233/233 230/230/230
f 82/82/82 230/230/230 83/83/83
f 25/25/25 232/232/232 229/229/229
f 25/25/25 229/229/229 26/26/26
f 5/5/5 178/178/178 228/228/228
f 5/5/5 228/228/228 4/4/4
f 53/53/53 231/231/231 227/227/227
f 53/53/53 227/227/227 54/54/54
f 83/83/83 230/230/230 226/226/226
f 83/83/83 226/226/226 84/84/84
f 26/26/26 229/229/229 225/225/225
f 26/26/26 225/225/225 27/27/27
f 4/4/4 228/228/228 224/224/224
f 4/4/4 224/224/224 1/1/1
f 54/54/54 227/227/227 223/223/223
f 54/54/54 223/223/223 55/55/55
f 84/84/84 226/226/226 222/222/222
f 84/84/84 222/222/222 85/85/85
f 27/27/27 225/225/225 221/221/221
f 27/27/27 221/221/221 28/28/28
f 1/1/1 224/224/224 211/211/211
f 1/1/1 211/211/211 2/2/2
f 55/55/55 223/223/223 220/220/220
f 55/55/55 220/220/220 56/56/56
f 85/85/85 222/222/222 219/219/219
f 85/85/85 219/219/219 73/73/73
f 28/28/28 221/221/221 218/218/218
f 28/28/28 218/218/218 29/29/29
f 56/56/56 220/220/220 217/217/217
f 56/56/56 217/217/217 57/57/57
f 73/73/73 219/219/219 191/191/191
f 73/73/73 191/191/191 72/72/72
f 29/29/29 218/218/218 216/216/216
f 29/29/29 216/216/216 30/30/30
f 57/57/57 217/217/217 215/215/215
f 57/57/57 215/215/215 58/58/58
f 30/30/30 216/216/216 214/214/214
f 30/30/30 214/214/214 31/31/31
f 58/58/58 215/215/215 213/213/213
f 58/58/58 213/213/213 59/59/59
f 31/31/31 214/214/214 212/212/212
f 31/31/31 212/212/212 32/32/32
f 59/59/59 213/213/213 210/210/210
f 59/59/59 210/210/210 60/60/60
f 32/32/32 212/212/212 209/209/209
f 32/32/32 209/209/209 33/33/33
f 2/2/2 211/211/211 208/208/208
f 2/2/2 208/208/208 10/10/10
f 60/60/60 210/210/210 207/207/207
f 60/60/60 207/207/207 61/61/61
f 33/33/33 209/209/209 206/206/206
f 33/33/33 206/206/206 34/34/34
f 10/10/10 208/208/208 205/205/205
f 10/10/10 205/205/205 9/9/9
f 61/61/61 207/207/207 204/204/204
f 61/61/61 204/204/204 62/62/62
f 34/34/34 206/206/206 203/203/203
f 34/34/34 203/203/203 35/35/35
f 9/9/9 205/205/205 202/202/202
f 9/9/9 202/202/202 7/7/7
f 62/62/62 204/204/204 201/201/201
f 62/62/62 201/201/201 63/63/63
f 35/35/35 203/203/203 200/200/200
f 35/35/35 200/200/200 36/36/36
f 7/7/7 202/202/202 199/199/199
f 7/7/7 199/199/199 8/8/8
f 63/63/63 201/201/201 198/198/198
f 63/63/63 198/198/198 64/64/64
f 36/36/36 200/200/200 197/197/197
f 36/36/36 197/197/197 37/37/37
f 8/8/8 199/199/199 196/196/196
f 8/8/8 196/196/196 11/11/11
f 64/64/64 198/198/198 195/195/195
f 64/64/64 195/195/195 65/65/65
f 37/37/37 197/197/197 194/194/194
f 37/37/37 194/194/194 38/38/38
f 11/11/11 196/196/196 193/193/193
f 11/11/11 193/193/193 12/12/12
f 65/65/65 195/195/195 192/192/192
f 65/65/65 192/192/192 66/66/66
f 38/38/38 194/194/194 190/190/190
f 38/38/38 190/190/190 39/39/39
f 12/12/12 193/193/193 189/189/189
f 12/12/12 189/189/189 13/13/13
f 66/66/66 192/192/192 188/188/188
f 66/66/66 188/188/188 67/67/67
f 72/72/72 191/191/191 187/187/187
f 72/72/72 187/187/187 70/70/70
f 39/39/39 190/190/190 184/184/184
f 39/39/39 184/184/184 40/40/40
f 13/13/13 189/189/189 186/186/186
f 13/13/13 186/186/186 14/14/14
f 67/67/67 188/188/188 185/185/185
f 67/67/67 185/185/185 68/68/68
f 70/70/70 187/187/187 181/181/181
f 70/70/70 181/181/181 43/43/43
f 14/14/14 186/186/186 183/183/183
f 14/14/14 183/183/183 15/15/15
f 68/68/68 185/185/185 182/182/182
f 68/68/68 182/182/182 69/69/69
f 40/40/40 184/184/184 180/180/180
f 40/40/40 180/180/180 41/41/41
f 15/15/15 183/183/183 179/179/179
f 15/15/15 179/179/179 16/16/16
f 69/69/69 182/182/182 177/177/177
f 69/69/69 177/177/177 6/6/6
f 43/43/43 181/181/181 175/175/175
f 43/43/43 175/175/175 44/44/44
f 41/41/41 180/180/180 173/173/173
f 41/41/41 173/173/173 76/76/76
f 16/16/16 179/179/179 171/171/171
f 16/16/16 171/171/171 17/17/17
f 6/6/6 177/177/177 178/178/178
f 6/6/6 178/178/178 5/5/5
f 44/44/44 175/175/175 176/176/176
f 44/44/44 176/176/176 45/45/45
f 76/76/76 173/173/173 174/174/174
f 76/76/76 174/174/174 74/74/74
f 17/17/17 171/171/171 172/172/172
f 17/17/17 172/172/172 18/18/18
