v 1.73309 -0.0304463 0.851104
v 1.73779 -0.0299938 0.835487
v 1.73899 -0.0149757 0.836261
v 1.73391 -0.0152067 0.851952
v 1.73544 -0.0294825 0.825254
v 1.73711 -0.0147154 0.825785
v 1.73787 -3.82694e-06 0.826026
v 1.73953 -3.96434e-06 0.836516
v 1.73428 -3.91857e-06 0.852168
v 1.66739 -0.199406 0.822835
v 1.65571 -0.234506 0.789767
v 1.6773 -0.216876 0.768062
v 1.68887 -0.186972 0.799282
v 1.6422 -0.259149 0.755126
v 1.6641 -0.237003 0.735833
v 1.67938 -0.215774 0.719344
v 1.69213 -0.199467 0.749214
v 1.70367 -0.173923 0.7789
v 1.60763 -0.258702 0.682524
v 1.58987 -0.244836 0.647412
v 1.61557 -0.22059 0.64125
v 1.63195 -0.233101 0.671762
v 1.57616 -0.228106 0.622229
v 1.60253 -0.204954 0.619157
v 1.62462 -0.183006 0.620549
v 1.63648 -0.197531 0.6392
v 1.6508 -0.208714 0.664602
v 1.64597 -0.185384 0.639922
v 1.65882 -0.195995 0.662339
v 1.63505 -0.171403 0.623319
v 1.63819 -0.166563 0.62651
v 1.64837 -0.180379 0.642034
v 1.66023 -0.190918 0.66294
v 1.69691 -0.1887 0.740137
v 1.70809 -0.164301 0.76883
v 1.68475 -0.204082 0.711647
v 1.68425 -0.198645 0.7095
v 1.69572 -0.182338 0.737256
v 1.70634 -0.157033 0.765282
v 1.71662 -0.0307918 0.875158
v 1.7159 -0.0468811 0.873376
v 1.73209 -0.0463073 0.849232
v 1.69297 -0.031025 0.901376
v 1.69255 -0.047254 0.899913
v 1.69191 -0.0675978 0.896702
v 1.71469 -0.0668213 0.86974
v 1.73041 -0.0655657 0.845579
v 1.61695 -0.164488 0.612997
v 1.62749 -0.152612 0.616282
v 1.61232 -0.147597 0.611264
v 1.62257 -0.135134 0.614311
v 1.62609 -0.130704 0.617881
v 1.63093 -0.147981 0.619843
v 1.56921 -0.211709 0.61332
v 1.59511 -0.187448 0.610884
v 1.56619 -0.198529 0.612707
v 1.59128 -0.172349 0.609746
v 1.65084 -0.0680712 0.932596
v 1.63968 -0.0681907 0.93971
v 1.64027 -0.096173 0.935262
v 1.65099 -0.0960294 0.927709
v 1.62316 -0.0686623 0.947279
v 1.62398 -0.0965093 0.943073
v 1.62164 -0.13101 0.930095
v 1.63763 -0.130804 0.922041
v 1.64795 -0.130467 0.914305
v 1.51578 -0.252858 0.656148
v 1.50992 -0.23728 0.646888
v 1.52481 -0.237039 0.638091
v 1.53074 -0.252712 0.647363
v 1.50727 -0.225431 0.645989
v 1.52216 -0.225109 0.637221
v 1.53089 -0.222208 0.631452
v 1.53354 -0.234207 0.632207
v 1.53963 -0.249926 0.641446
v 1.54315 -0.284691 0.718368
v 1.52764 -0.270078 0.682144
v 1.54275 -0.270026 0.673449
v 1.55845 -0.284713 0.709811
v 1.55206 -0.267242 0.667618
v 1.56834 -0.281908 0.704136
v 1.60099 -0.212343 0.86774
v 1.58804 -0.253203 0.830934
v 1.60379 -0.253216 0.822721
v 1.61678 -0.212296 0.859567
v 1.57427 -0.28245 0.793835
v 1.58994 -0.282504 0.78554
v 1.60074 -0.279892 0.77999
v 1.61457 -0.251092 0.816865
v 1.62732 -0.210832 0.853108
v 1.66881 -0.0679537 0.918472
v 1.66827 -0.0957809 0.912911
v 1.69049 -0.0949698 0.89043
v 1.66477 -0.129663 0.899437
v 1.6864 -0.127606 0.877018
v 1.54783 -0.226935 0.622351
v 1.55429 -0.242789 0.631533
v 1.54516 -0.214698 0.621787
v 1.56756 -0.260015 0.657795
v 1.58494 -0.274529 0.694487
v 1.63275 -0.245646 0.80645
v 1.64493 -0.207113 0.841329
v 1.61903 -0.273129 0.770308
v 1.71234 -0.0931886 0.862987
v 1.72735 -0.0903906 0.838893
v 1.70754 -0.123672 0.849814
v 1.72205 -0.118334 0.826308
v 1.66886 -0.031157 0.922424
v 1.66884 -0.0474485 0.921203
v 1.65017 -0.031223 0.936045
v 1.65042 -0.0475342 0.934946
v 1.63893 -0.0313308 0.942917
v 1.63913 -0.0476565 0.94185
v 1.62264 -0.0318553 0.950396
v 1.62264 -0.0482163 0.949323
v 1.72573 -0.112267 0.813627
v 1.73104 -0.0866935 0.82515
v 1.72293 -0.10587 0.807753
v 1.72793 -0.0825099 0.817937
v 1.73121 -0.0618817 0.822545
v 1.73434 -0.0638503 0.831018
v 1.58508 -0.288609 0.7423
v 1.60275 -0.281273 0.732787
v 1.62578 -0.26573 0.719174
v 1.55912 -0.29135 0.756249
v 1.57463 -0.291408 0.747833
v 1.66542 -0.217006 0.691341
v 1.67195 -0.204525 0.686043
v 1.67234 -0.199432 0.685112
v 1.64867 -0.240768 0.703707
v 1.63932 -0.169402 0.887703
v 1.65633 -0.167359 0.87411
v 1.67818 -0.162882 0.85334
v 1.61317 -0.170329 0.903101
v 1.62902 -0.170215 0.894949
v 1.71392 -0.146387 0.805621
v 1.71792 -0.138307 0.794278
v 1.71561 -0.130892 0.789697
v 1.69935 -0.155254 0.8277
v 1.64984 -1.84116e-06 0.935966
v 1.63867 -1.53328e-06 0.942834
v 1.63876 -0.0156762 0.943002
v 1.64995 -0.0156133 0.936133
v 1.62263 -1.0712e-06 0.950348
v 1.62265 -0.0159899 0.950505
v 1.69348 -2.987e-06 0.90169
v 1.66888 -2.35229e-06 0.922459
v 1.66888 -0.0155767 0.92259
v 1.69332 -0.0155059 0.901732
v 1.71747 -3.56126e-06 0.875904
v 1.7172 -0.0153844 0.875808
v 1.73638 -0.0455416 0.834014
v 1.73354 -0.0446703 0.824481
v 1.58972 -0.0167325 0.965317
v 1.58963 -0.0330931 0.965197
v 1.58973 -1.20417e-07 0.965168
v 1.54615 1.13985e-06 0.984787
v 1.54612 -0.0177332 0.984932
v 1.54603 -0.0347601 0.984812
v 1.52713 -0.289557 0.773719
v 1.51139 -0.282989 0.736311
v 1.54206 -0.280769 0.810838
v 1.49936 -0.2783 0.83334
v 1.48471 -0.286926 0.796907
v 1.46927 -0.28048 0.760189
v 1.58954 -0.049526 0.964131
v 1.59001 -0.0697396 0.962142
v 1.54592 -0.0512869 0.983765
v 1.54639 -0.0711816 0.981817
v 1.49611 -0.268572 0.700537
v 1.48443 -0.251586 0.674861
v 1.45428 -0.266332 0.725075
v 1.44281 -0.249662 0.699873
v 1.58042 -0.170076 0.918727
v 1.56841 -0.211554 0.883815
v 1.58871 -0.131263 0.945343
v 1.54514 -0.131562 0.965353
v 1.53701 -0.169656 0.939234
v 1.52522 -0.210367 0.904968
v 1.55564 -0.251894 0.847472
v 1.51269 -0.24996 0.869297
v 1.47865 -0.236222 0.665709
v 1.47604 -0.224536 0.664814
v 1.43714 -0.234584 0.690889
v 1.43458 -0.223117 0.69001
v 1.59091 -0.0972153 0.958072
v 1.54728 -0.0981464 0.977835
v 1.73309 0.0304386 0.851105
v 1.73391 0.0151989 0.851952
v 1.73899 0.0149678 0.836262
v 1.73779 0.029986 0.835487
v 1.73711 0.0147078 0.825785
v 1.73544 0.029475 0.825254
v 1.6674 0.199403 0.822838
v 1.68888 0.186968 0.799285
v 1.67731 0.216873 0.768065
v 1.65573 0.234504 0.78977
v 1.70368 0.173918 0.778903
v 1.69215 0.199463 0.749217
v 1.67939 0.215772 0.719348
v 1.66411 0.237001 0.735837
v 1.64221 0.259149 0.75513
v 1.60764 0.258705 0.682528
v 1.63196 0.233102 0.671765
v 1.61558 0.220593 0.641253
v 1.58988 0.244841 0.647416
v 1.65082 0.208715 0.664606
v 1.63649 0.197533 0.639203
v 1.62463 0.183009 0.620552
v 1.60255 0.204958 0.619161
v 1.57618 0.228112 0.622232
v 1.65884 0.195995 0.662342
v 1.64598 0.185385 0.639925
v 1.66024 0.190918 0.662943
v 1.64838 0.18038 0.642037
v 1.6382 0.166565 0.626513
v 1.63506 0.171406 0.623321
v 1.7081 0.164296 0.768833
v 1.69692 0.188697 0.74014
v 1.70635 0.157029 0.765285
v 1.69573 0.182334 0.737259
v 1.68426 0.198643 0.709503
v 1.68476 0.20408 0.71165
v 1.73209 0.0462997 0.849233
v 1.7159 0.0468741 0.873376
v 1.71662 0.0307848 0.875158
v 1.73041 0.0655582 0.84558
v 1.71469 0.0668144 0.869741
v 1.69191 0.067592 0.896703
v 1.69255 0.0472481 0.899913
v 1.69297 0.0310191 0.901376
v 1.6275 0.152615 0.616284
v 1.61697 0.164492 0.612999
v 1.63094 0.147983 0.619845
v 1.6261 0.130707 0.617883
v 1.62258 0.135137 0.614313
v 1.61233 0.147601 0.611266
v 1.59513 0.187453 0.610887
v 1.56922 0.211716 0.613323
v 1.59129 0.172354 0.609749
v 1.5662 0.198536 0.61271
v 1.65085 0.0680675 0.932597
v 1.651 0.0960258 0.92771
v 1.64028 0.09617 0.935263
v 1.63968 0.0681877 0.939711
v 1.64796 0.130464 0.914307
v 1.63764 0.130801 0.922043
v 1.62164 0.131008 0.930097
v 1.62398 0.0965072 0.943075
v 1.62316 0.0686602 0.94728
v 1.5158 0.252868 0.656152
v 1.53076 0.252721 0.647367
v 1.52483 0.237048 0.638095
v 1.50994 0.23729 0.646892
v 1.53965 0.249934 0.64145
v 1.53355 0.234216 0.632211
v 1.53091 0.222217 0.631455
v 1.52217 0.225118 0.637224
v 1.50729 0.225441 0.645993
v 1.54317 0.284698 0.718373
v 1.55847 0.284719 0.709815
v 1.54277 0.270033 0.673453
v 1.52766 0.270086 0.682149
v 1.56836 0.281913 0.704141
v 1.55208 0.267249 0.667622
v 1.601 0.212343 0.867743
v 1.61679 0.212295 0.85957
v 1.60381 0.253218 0.822725
v 1.58806 0.253205 0.830938
v 1.62733 0.210831 0.853111
v 1.61459 0.251093 0.816869
v 1.60075 0.279894 0.779994
v 1.58995 0.282507 0.785545
v 1.57429 0.282453 0.79384
v 1.6905 0.0949642 0.890431
v 1.66827 0.0957764 0.912913
v 1.66881 0.0679491 0.918473
v 1.68641 0.127601 0.87702
v 1.66477 0.129659 0.899439
v 1.55431 0.242797 0.631537
v 1.54784 0.226943 0.622354
v 1.54517 0.214706 0.62179
v 1.58496 0.274534 0.694491
v 1.56758 0.260021 0.657799
v 1.64494 0.207111 0.841333
v 1.63277 0.245646 0.806454
v 1.61905 0.27313 0.770312
v 1.72736 0.0903834 0.838894
v 1.71234 0.093182 0.862988
v 1.72205 0.118327 0.82631
v 1.70755 0.123666 0.849816
v 1.66884 0.0474438 0.921204
v 1.66887 0.0311523 0.922425
v 1.65043 0.0475305 0.934947
v 1.65017 0.0312193 0.936045
v 1.63913 0.0476534 0.941851
v 1.63893 0.0313277 0.942918
v 1.62265 0.0482142 0.949324
v 1.62264 0.0318531 0.950396
v 1.73104 0.0866863 0.825152
v 1.72574 0.11226 0.813629
v 1.73435 0.0638428 0.831019
v 1.73121 0.0618745 0.822546
v 1.72794 0.082503 0.817938
v 1.72294 0.105864 0.807755
v 1.60277 0.281276 0.732791
v 1.5851 0.288613 0.742305
v 1.6258 0.265731 0.719179
v 1.57465 0.291413 0.747837
v 1.55914 0.291355 0.756253
v 1.67196 0.204524 0.686046
v 1.66544 0.217005 0.691344
v 1.67235 0.199431 0.685115
v 1.64869 0.240768 0.703711
v 1.65634 0.167356 0.874113
v 1.63933 0.1694 0.887705
v 1.67819 0.162878 0.853343
v 1.62903 0.170213 0.894952
v 1.61319 0.170328 0.903104
v 1.71793 0.138302 0.79428
v 1.71393 0.146381 0.805623
v 1.71562 0.130886 0.789699
v 1.69936 0.155249 0.827702
v 1.64995 0.0156096 0.936133
v 1.63876 0.0156732 0.943003
v 1.62265 0.0159877 0.950505
v 1.69332 0.0155 0.901733
v 1.66888 0.015572 0.92259
v 1.7172 0.0153773 0.875808
v 1.73638 0.0455339 0.834015
v 1.73354 0.0446629 0.824482
v 1.58963 0.0330928 0.965198
v 1.58972 0.0167322 0.965318
v 1.54603 0.0347623 0.984813
v 1.54613 0.0177355 0.984933
v 1.51141 0.282997 0.736315
v 1.52715 0.289564 0.773724
v 1.46929 0.280491 0.760193
v 1.48473 0.286935 0.796911
v 1.49938 0.278308 0.833344
v 1.54208 0.280774 0.810842
v 1.59002 0.0697394 0.962143
v 1.58954 0.0495258 0.964132
v 1.54639 0.0711839 0.981818
v 1.54593 0.0512892 0.983766
v 1.48444 0.251598 0.674865
v 1.49613 0.268582 0.700541
v 1.44283 0.249676 0.699877
v 1.4543 0.266344 0.72508
v 1.56842 0.211557 0.883818
v 1.58043 0.170077 0.91873
v 1.52523 0.210372 0.904971
v 1.53702 0.169659 0.939237
v 1.54515 0.131565 0.965355
v 1.58872 0.131263 0.945346
v 1.55565 0.251898 0.847476
v 1.5127 0.249966 0.869301
v 1.47605 0.224548 0.664818
v 1.47866 0.236233 0.665712
v 1.43459 0.223131 0.690014
v 1.43716 0.234598 0.690893
v 1.59092 0.0972151 0.958074
v 1.54729 0.0981487 0.977836
v 1.62211 -0.120305 0.614859
v 1.62211 0.120308 0.614861
v 1.61491 -0.112778 0.606195
v 1.60095 -0.102929 0.588862
v 1.58138 -0.0903777 0.564897
v 1.55914 -0.0761991 0.538624
v 1.61491 0.112782 0.606197
v 1.53958 -0.0624789 0.518468
v 1.52728 -0.0510823 0.510918
v 1.52118 -0.0419828 0.510622
v 1.51919 -0.0342912 0.510536
v 1.52049 -0.0255596 0.508672
v 1.52399 -0.0137464 0.505095
v 1.52609 5.62327e-06 0.503015
v 1.60096 0.102934 0.588864
v 1.55915 0.0762076 0.538626
v 1.58139 0.0903843 0.564898
v 1.52728 0.0510934 0.510919
v 1.53959 0.062489 0.518469
v 1.51919 0.0343028 0.510536
v 1.52119 0.0419943 0.510623
v 1.52399 0.0137578 0.505095
v 1.52049 0.0255712 0.508672
v 1.43099 0.215805 0.686501
v 1.42135 0.209275 0.673538
v 1.4018 0.19886 0.646896
v 1.37384 0.178415 0.608794
v 1.34156 0.145209 0.565462
v 1.43098 -0.215791 0.686498
v 1.37383 -0.178395 0.608791
v 1.40179 -0.198843 0.646893
v 1.42133 -0.209259 0.673535
v 1.34155 -0.145187 0.565459
v 1.31421 0.11166 0.53272
v 1.29957 0.0902472 0.52299
v 1.29434 0.0785572 0.525495
v 1.29334 0.0700327 0.52654
v 1.29493 0.0564259 0.523959
v 1.29798 0.0316576 0.51918
v 1.29971 1.28732e-05 0.516478
v 1.29798 -0.0316317 0.519179
v 1.29493 -0.0564 0.523958
v 1.29333 -0.0700067 0.526539
v 1.29433 -0.0785313 0.525494
v 1.29957 -0.0902216 0.522989
v 1.31421 -0.111636 0.532718
vt 0.4521 0.7959
vt 0.3842 0.8386
vt 0.3515 0.8992
vt 0.3395 0.8949
vt 0.4429 0.8008
vt 0.3855 0.8355
vt 0.4925 0.7845
vt 0.4298 0.8504
vt 0.4922 0.7764
vt 0.4349 0.8066
vt 0.4801 0.7774
vt 0.3479 0.8998
vt 0.4795 0.7713
vt 0.4017 0.8996
vt 0.4861 0.7642
vt 0.402 0.8886
vt 0.3468 0.8799
vt 0.4429 0.8008
vt 0.4367 0.7925
vt 0.3423 0.8898
vt 0.34 0.905
vt 0.3432 0.8863
vt 0.4017 0.8996
vt 0.4787 0.7656
vt 0.4009 0.8948
vt 0.3393 0.8896
vt 0.5005 0.7943
vt 0.3407 0.9072
vt 0.3402 0.8861
vt 0.479 0.7675
vt 0.402 0.8886
vt 0.3402 0.8861
vt 0.5039 0.7908
vt 0.34 0.9004
vt 0.479 0.7675
vt 0.4688 0.7685
vt 0.4068 0.8938
vt 0.4867 0.7704
vt 0.4367 0.7925
vt 0.3855 0.8355
vt 0.3394 0.9001
vt 0.3818 0.8327
vt 0.4164 0.8165
vt 0.3393 0.886
vt 0.5003 0.791
vt 0.3402 0.8861
vt 0.4071 0.897
vt 0.4288 0.84
vt 0.3408 0.9006
vt 0.4068 0.8938
vt 0.3785 0.8345
vt 0.3964 0.9017
vt 0.382 0.8259
vt 0.3848 0.8276
vt 0.34 0.9004
vt 0.4076 0.8986
vt 0.379 0.8348
vt 0.5038 0.794
vt 0.3393 0.886
vt 0.34 0.9004
vt 0.3393 0.8918
vt 0.5038 0.7949
vt 0.3395 0.8949
vt 0.395 0.8958
vt 0.4861 0.7642
vt 0.402 0.9006
vt 0.4009 0.8948
vt 0.4787 0.7656
vt 0.3408 0.9006
vt 0.3807 0.836
vt 0.4083 0.8881
vt 0.3799 0.8314
vt 0.4084 0.9007
vt 0.3818 0.8327
vt 0.396 0.9008
vt 0.5038 0.794
vt 0.3402 0.8861
vt 0.342 0.8947
vt 0.3438 0.8796
vt 0.3393 0.8896
vt 0.4406 0.7904
vt 0.4521 0.7959
vt 0.4871 0.7767
vt 0.3395 0.8949
vt 0.4863 0.7662
vt 0.4013 0.8981
vt 0.379 0.8348
vt 0.4017 0.8996
vt 0.4795 0.7713
vt 0.4284 0.7985
vt 0.3438 0.8796
vt 0.3395 0.8949
vt 0.3422 0.8919
vt 0.3827 0.8263
vt 0.4071 0.897
vt 0.3389 0.8948
vt 0.3827 0.8263
vt 0.3892 0.819
vt 0.4103 0.8792
vt 0.3432 0.8863
vt 0.4128 0.8802
vt 0.4867 0.7704
vt 0.382 0.8259
vt 0.4026 0.9145
vt 0.4194 0.8464
vt 0.3827 0.8263
vt 0.395 0.8958
vt 0.3855 0.8355
vt 0.4051 0.9135
vt 0.4568 0.8044
vt 0.3429 0.8794
vt 0.3842 0.8386
vt 0.4031 0.9097
vt 0.4484 0.8094
vt 0.3386 0.8895
vt 0.4186 0.8425
vt 0.4002 0.9106
vt 0.4009 0.8948
vt 0.3792 0.8311
vt 0.4009 0.8948
vt 0.3386 0.8895
vt 0.3848 0.8276
vt 0.4051 0.9135
vt 0.3912 0.8203
vt 0.486 0.7636
vt 0.4073 0.9125
vt 0.4863 0.7662
vt 0.4055 0.9087
vt 0.4787 0.7656
vt 0.4031 0.9097
vt 0.3971 0.8101
vt 0.4031 0.9097
vt 0.3978 0.8105
vt 0.4785 0.7649
vt 0.4055 0.9087
vt 0.429 0.8458
vt 0.4041 0.9064
vt 0.4688 0.7685
vt 0.4017 0.9065
vt 0.4882 0.7916
vt 0.479 0.7675
vt 0.4882 0.7916
vt 0.3818 0.8327
vt 0.4871 0.7767
vt 0.3888 0.8305
vt 0.415 0.8762
vt 0.3818 0.8327
vt 0.4876 0.7847
vt 0.3807 0.836
vt 0.3892 0.819
vt 0.4807 0.7852
vt 0.4815 0.7924
vt 0.3422 0.8919
vt 0.4876 0.7847
vt 0.3888 0.8305
vt 0.395 0.823
vt 0.4355 0.8491
vt 0.395 0.823
vt 0.4212 0.8299
vt 0.4801 0.7774
vt 0.395 0.823
vt 0.403 0.8142
vt 0.4249 0.8219
vt 0.3886 0.8421
vt 0.4288 0.84
vt 0.4807 0.7852
vt 0.4 0.8265
vt 0.403 0.8142
vt 0.4188 0.837
vt 0.4801 0.7774
vt 0.4307 0.7879
vt 0.3912 0.8203
vt 0.4117 0.8261
vt 0.4712 0.7793
vt 0.4453 0.7842
vt 0.4329 0.7902
vt 0.4117 0.8261
vt 0.3904 0.8392
vt 0.4306 0.8337
vt 0.4815 0.7924
vt 0.3848 0.8276
vt 0.472 0.7873
vt 0.394 0.8342
vt 0.3855 0.8355
vt 0.4087 0.8341
vt 0.4689 0.7982
vt 0.395 0.823
vt 0.4142 0.8737
vt 0.3781 0.8371
vt 0.496 0.7693
vt 0.3605 0.8575
vt 0.3532 0.8806
vt 0.414 0.8744
vt 0.4157 0.875
vt 0.43 0.8534
vt 0.4958 0.7647
vt 0.4285 0.8568
vt 0.4173 0.8755
vt 0.4183 0.8528
vt 0.4375 0.8373
vt 0.435 0.7932
vt 0.4482 0.8174
vt 0.4171 0.8761
vt 0.4081 0.8488
vt 0.4916 0.7653
vt 0.4091 0.8449
vt 0.4167 0.8771
vt 0.4371 0.8558
vt 0.4406 0.8306
vt 0.4406 0.7904
vt 0.449 0.8184
vt 0.4091 0.8449
vt 0.4919 0.7698
vt 0.4155 0.8754
vt 0.4381 0.8535
vt 0.4378 0.8441
vt 0.3487 0.892
vt 0.4195 0.8491
vt 0.4919 0.7698
vt 0.4139 0.8747
vt 0.4195 0.8491
vt 0.4367 0.8439
vt 0.3571 0.8922
vt 0.3601 0.871
vt 0.4916 0.7653
vt 0.3748 0.8624
vt 0.4385 0.8377
vt 0.4357 0.8578
vt 0.415 0.8762
vt 0.4371 0.8558
vt 0.4161 0.8743
vt 0.4922 0.7764
vt 0.4453 0.7842
vt 0.3488 0.8902
vt 0.4395 0.8381
vt 0.3468 0.8799
vt 0.4414 0.8311
vt 0.4919 0.7698
vt 0.3797 0.8383
vt 0.3432 0.8863
vt 0.4552 0.8127
vt 0.4139 0.8747
vt 0.3797 0.8383
vt 0.4867 0.7704
vt 0.438 0.8559
vt 0.4552 0.8127
vt 0.342 0.8947
vt 0.4385 0.8377
vt 0.3797 0.8383
vt 0.4155 0.8754
vt 0.4356 0.8436
vt 0.3432 0.8863
vt 0.4871 0.7767
vt 0.3488 0.8933
vt 0.4539 0.8115
vt 0.3498 0.8868
vt 0.4625 0.8073
vt 0.3488 0.8902
vt 0.4385 0.8377
vt 0.4171 0.8761
vt 0.4194 0.8464
vt 0.4958 0.7647
vt 0.438 0.8559
vt 0.4155 0.8754
vt 0.4089 0.8425
vt 0.4157 0.875
vt 0.4194 0.8464
vt 0.4957 0.7626
vt 0.4195 0.8491
vt 0.4155 0.8754
vt 0.4183 0.8528
vt 0.4605 0.8059
vt 0.3532 0.8806
vt 0.4375 0.8373
vt 0.4361 0.8532
vt 0.4957 0.7626
vt 0.4367 0.8579
vt 0.4552 0.8127
vt 0.3423 0.8898
vt 0.3585 0.8874
vt 0.4957 0.762
vt 0.3617 0.8815
vt 0.4195 0.8491
vt 0.4914 0.7627
vt 0.43 0.8534
vt 0.4915 0.7633
vt 0.3498 0.8868
vt 0.4329 0.7902
vt 0.4859 0.798
vt 0.4335 0.8272
vt 0.3807 0.836
vt 0.4836 0.7961
vt 0.3677 0.8724
vt 0.4371 0.8558
vt 0.4161 0.8743
vt 0.4836 0.7961
vt 0.3601 0.871
vt 0.4357 0.8578
vt 0.4157 0.875
vt 0.4859 0.798
vt 0.4247 0.7996
vt 0.4371 0.8533
vt 0.4395 0.8381
vt 0.3422 0.8919
vt 0.4367 0.8439
vt 0.4906 0.7971
vt 0.3498 0.8868
vt 0.383 0.8409
vt 0.4893 0.7954
vt 0.3488 0.8933
vt 0.4815 0.7924
vt 0.4329 0.7902
vt 0.3487 0.892
vt 0.4836 0.7961
vt 0.4893 0.7954
vt 0.3488 0.8902
vt 0.3842 0.8386
vt 0.4882 0.7916
vt 0.3487 0.892
vt 0.4186 0.7951
vt 0.4329 0.7902
vt 0.3571 0.8922
vt 0.4085 0.8032
vt 0.3677 0.8724
vt 0.403 0.8142
vt 0.3617 0.8815
vt 0.3684 0.8602
vt 0.4115 0.8053
vt 0.4115 0.8053
vt 0.403 0.8142
vt 0.3781 0.8371
vt 0.3635 0.8585
vt 0.4075 0.8173
vt 0.4365 0.8493
vt 0.3543 0.8698
vt 0.4278 0.8644
vt 0.4213 0.7971
vt 0.4355 0.8491
vt 0.3508 0.8691
vt 0.418 0.8749
vt 0.4223 0.8688
vt 0.4204 0.8681
vt 0.4115 0.8053
vt 0.4367 0.8439
vt 0.3468 0.8799
vt 0.4223 0.8688
vt 0.4247 0.7996
vt 0.418 0.8724
vt 0.3543 0.8698
vt 0.418 0.8724
vt 0.4167 0.7934
vt 0.4361 0.8532
vt 0.3516 0.8693
vt 0.4157 0.875
vt 0.4223 0.8688
vt 0.4069 0.802
vt 0.3612 0.8577
vt 0.4262 0.864
vt 0.4063 0.8015
vt 0.4161 0.8743
vt 0.3508 0.8691
vt 0.3971 0.8101
vt 0.3438 0.8796
vt 0.3792 0.8311
vt 0.3423 0.8898
vt 0.4017 0.8996
vt 0.4292 0.7861
vt 0.4349 0.8066
vt 0.4693 0.7702
vt 0.4564 0.8138
vt 0.5005 0.7943
vt 0.4186 0.7951
vt 0.4013 0.8981
vt 0.4693 0.7702
vt 0.5005 0.7943
vt 0.342 0.8947
vt 0.4929 0.7914
vt 0.383 0.8409
vt 0.3543 0.8698
vt 0.4142 0.8737
vt 0.3775 0.8368
vt 0.4967 0.7912
vt 0.3574 0.8906
vt 0.4385 0.8377
vt 0.379 0.8348
vt 0.4962 0.7762
vt 0.3429 0.8794
vt 0.418 0.8749
vt 0.3438 0.8796
vt 0.4371 0.8533
vt 0.3516 0.8693
vt 0.3904 0.8392
vt 0.4249 0.8219
vt 0.394 0.8342
vt 0.4188 0.837
vt 0.3888 0.8305
vt 0.42 0.8731
vt 0.3516 0.8693
vt 0.4173 0.8755
vt 0.3612 0.8577
vt 0.4356 0.8436
vt 0.3516 0.8693
vt 0.4365 0.8493
vt 0.3912 0.8203
vt 0.4212 0.8299
vt 0.3888 0.8305
vt 0.4212 0.8299
vt 0.3995 0.8118
vt 0.4212 0.8299
vn 0.8978 -0.08985 0.431
vn 0.9953 -0.0911 0.03211
vn 0.996 -0.06128 0.0643
vn 0.8946 -0.05066 0.444
vn 0.9248 -0.04324 -0.3779
vn 0.9347 -0.03253 -0.354
vn 0.9392 0 -0.3434
vn 0.997 -3.052e-05 0.07746
vn 0.8933 -3.052e-05 0.4493
vn 0.6789 -0.5986 0.4252
vn 0.6839 -0.6584 0.3142
vn 0.7784 -0.6035 0.1727
vn 0.7725 -0.561 0.2973
vn 0.6366 -0.7688 0.05951
vn 0.7267 -0.6832 -0.07117
vn 0.7856 -0.5918 -0.1802
vn 0.8545 -0.5186 0.02725
vn 0.8691 -0.4774 0.1291
vn 0.4387 -0.7774 -0.4507
vn 0.3725 -0.7237 -0.581
vn 0.5076 -0.6016 -0.6168
vn 0.5517 -0.6626 -0.5065
vn 0.2156 -0.5744 -0.7896
vn 0.3828 -0.4457 -0.8092
vn 0.4738 -0.3405 -0.8121
vn 0.5831 -0.4997 -0.6405
vn 0.6161 -0.5665 -0.5473
vn 0.7171 -0.3031 -0.6276
vn 0.7509 -0.3482 -0.5611
vn 0.6278 -0.178 -0.7577
vn 0.7955 -0.02438 -0.6054
vn 0.8304 -0.07395 -0.5522
vn 0.8448 -0.08438 -0.5284
vn 0.9449 -0.2472 -0.2147
vn 0.9625 -0.1998 -0.1837
vn 0.8843 -0.3356 -0.3246
vn 0.889 -0.04346 -0.4558
vn 0.8966 0 -0.4428
vn 0.8927 0.01611 -0.4504
vn 0.7831 -0.07758 0.617
vn 0.7877 -0.1267 0.6028
vn 0.9012 -0.1297 0.4136
vn 0.7002 -0.05692 0.7116
vn 0.7083 -0.1062 0.6978
vn 0.7202 -0.1599 0.6751
vn 0.7941 -0.1827 0.5796
vn 0.9036 -0.1801 0.3887
vn 0.3013 -0.1217 -0.9457
vn 0.5216 -0.01602 -0.8531
vn 0.2944 -0.09317 -0.9511
vn 0.5362 0.002319 -0.8441
vn 0.7711 0.03369 -0.6358
vn 0.7652 0.03577 -0.6428
vn -0.04151 -0.2709 -0.9617
vn 0.1628 -0.1853 -0.9691
vn -0.0762 -0.2042 -0.976
vn 0.1411 -0.141 -0.9799
vn 0.5795 -0.1123 0.8072
vn 0.4807 -0.105 0.8705
vn 0.4921 -0.2369 0.8377
vn 0.5943 -0.2392 0.7678
vn 0.4149 -0.1031 0.904
vn 0.4145 -0.2374 0.8785
vn 0.387 -0.4668 0.7951
vn 0.47 -0.4593 0.7537
vn 0.5683 -0.4483 0.6899
vn -0.3549 -0.7315 -0.5822
vn -0.4743 -0.3871 -0.7906
vn -0.439 -0.3976 -0.8057
vn -0.264 -0.7398 -0.6188
vn -0.4762 -0.3691 -0.7981
vn -0.4526 -0.3452 -0.8222
vn -0.4228 -0.3293 -0.8443
vn -0.4018 -0.3827 -0.8319
vn -0.1567 -0.7242 -0.6715
vn -0.1467 -0.9657 -0.214
vn -0.2336 -0.8994 -0.3695
vn -0.1155 -0.901 -0.418
vn -0.01831 -0.9637 -0.2665
vn 0.03461 -0.8788 -0.4759
vn 0.1429 -0.933 -0.3301
vn 0.3271 -0.675 0.6613
vn 0.2918 -0.7486 0.5953
vn 0.371 -0.743 0.557
vn 0.4016 -0.6674 0.627
vn 0.1729 -0.9106 0.3752
vn 0.2748 -0.9052 0.324
vn 0.4024 -0.8781 0.2587
vn 0.4676 -0.726 0.5042
vn 0.4894 -0.6512 0.58
vn 0.6501 -0.133 0.7481
vn 0.6594 -0.2512 0.7085
vn 0.7254 -0.2661 0.6348
vn 0.6315 -0.44 0.6384
vn 0.704 -0.4301 0.5651
vn -0.2783 -0.3503 -0.8943
vn -0.009949 -0.6816 -0.7316
vn -0.3149 -0.2803 -0.9068
vn 0.1817 -0.8307 -0.5262
vn 0.2772 -0.8808 -0.3838
vn 0.56 -0.7039 0.437
vn 0.5694 -0.6314 0.5264
vn 0.5078 -0.8417 0.1834
vn 0.7955 -0.2787 0.538
vn 0.9008 -0.2599 0.3479
vn 0.7793 -0.4195 0.4654
vn 0.8867 -0.3687 0.2787
vn 0.6236 -0.03659 0.7808
vn 0.6337 -0.08316 0.769
vn 0.5557 -0.02576 0.831
vn 0.5623 -0.06848 0.8241
vn 0.4703 -0.02683 0.882
vn 0.4706 -0.06696 0.8798
vn 0.414 -0.03207 0.9097
vn 0.4128 -0.06977 0.9081
vn 0.9778 -0.1648 -0.1295
vn 0.9861 -0.1379 -0.0929
vn 0.8869 0.004456 -0.4619
vn 0.8901 -0.01517 -0.4555
vn 0.8999 -0.03064 -0.4349
vn 0.9915 -0.1183 -0.05304
vn 0.2692 -0.9588 -0.09082
vn 0.3881 -0.9079 -0.1582
vn 0.5257 -0.8117 -0.2544
vn -0.01114 -0.9993 0.03458
vn 0.1142 -0.9932 -0.02042
vn 0.6739 -0.6094 -0.4176
vn 0.7961 -0.3706 -0.4783
vn 0.8613 -0.0809 -0.5015
vn 0.6193 -0.7042 -0.3472
vn 0.5177 -0.5952 0.6145
vn 0.5873 -0.5763 0.5682
vn 0.6771 -0.5509 0.4878
vn 0.3471 -0.6214 0.7024
vn 0.4262 -0.6128 0.6655
vn 0.8727 -0.446 0.1986
vn 0.9694 -0.1832 -0.1636
vn 0.8889 0.01691 -0.4577
vn 0.7636 -0.5231 0.3785
vn 0.5522 0 0.8337
vn 0.474 0 0.8805
vn 0.4728 0.005402 0.8812
vn 0.5531 0.00528 0.8331
vn 0.4167 0 0.909
vn 0.4157 0.002014 0.9095
vn 0.692 0 0.7219
vn 0.6143 0 0.7891
vn 0.617 -0.003143 0.787
vn 0.6944 -0.01877 0.7193
vn 0.7776 0 0.6287
vn 0.7793 -0.03586 0.6256
vn 0.9945 -0.1045 -0.007874
vn 0.9131 -0.03998 -0.4057
vn 0.4103 -0.0001831 0.912
vn 0.4106 -0.03442 0.9112
vn 0.4104 0 0.9119
vn -0.3271 0 0.945
vn -0.3287 -0.0005799 0.9444
vn -0.3256 -0.02441 0.9452
vn -0.03449 -0.9984 0.04465
vn -0.1699 -0.9641 -0.2039
vn 0.1527 -0.9104 0.3845
vn -0.4595 -0.6649 0.5888
vn -0.5974 -0.7278 0.3366
vn -0.7108 -0.6843 0.1627
vn 0.4108 -0.07016 0.909
vn 0.4111 -0.1005 0.906
vn -0.3296 -0.04837 0.9429
vn -0.3274 -0.06876 0.9424
vn -0.2556 -0.8975 -0.3592
vn -0.3742 -0.7297 -0.5722
vn -0.7691 -0.6371 0.0506
vn -0.8325 -0.5376 -0.1336
vn 0.3311 -0.6223 0.7093
vn 0.3109 -0.676 0.6681
vn 0.373 -0.4664 0.8021
vn -0.3215 -0.333 0.8864
vn -0.3745 -0.4395 0.8164
vn -0.3995 -0.4732 0.7852
vn 0.2749 -0.7491 0.6027
vn -0.4057 -0.5321 0.7431
vn -0.4872 -0.3865 -0.783
vn -0.4886 -0.3746 -0.788
vn -0.9137 -0.2755 -0.2986
vn -0.9207 -0.2847 -0.2666
vn 0.4054 -0.2345 0.8835
vn -0.304 -0.1635 0.9385
vn 0.8978 0.08979 0.431
vn 0.8946 0.05057 0.444
vn 0.996 0.06122 0.0643
vn 0.9953 0.09104 0.03211
vn 0.9347 0.03244 -0.354
vn 0.9248 0.04318 -0.3779
vn 0.6789 0.5985 0.4252
vn 0.7726 0.5609 0.2973
vn 0.7785 0.6034 0.1727
vn 0.684 0.6583 0.3142
vn 0.8691 0.4774 0.1291
vn 0.8546 0.5186 0.02725
vn 0.7857 0.5918 -0.1802
vn 0.7267 0.6832 -0.07114
vn 0.6367 0.7688 0.05954
vn 0.4388 0.7774 -0.4507
vn 0.5517 0.6626 -0.5065
vn 0.5076 0.6015 -0.6168
vn 0.3726 0.7236 -0.5809
vn 0.6161 0.5664 -0.5473
vn 0.5831 0.4997 -0.6405
vn 0.4738 0.3405 -0.8121
vn 0.3828 0.4456 -0.8092
vn 0.2156 0.5744 -0.7896
vn 0.751 0.3481 -0.5611
vn 0.7171 0.303 -0.6276
vn 0.8448 0.08432 -0.5283
vn 0.8304 0.07392 -0.5522
vn 0.7955 0.02432 -0.6054
vn 0.6278 0.178 -0.7577
vn 0.9625 0.1997 -0.1837
vn 0.9449 0.2471 -0.2147
vn 0.8927 -0.01614 -0.4504
vn 0.8966 -3.052e-05 -0.4428
vn 0.889 0.0434 -0.4558
vn 0.8843 0.3356 -0.3246
vn 0.9012 0.1296 0.4136
vn 0.7877 0.1266 0.6028
vn 0.7831 0.07752 0.617
vn 0.9036 0.18 0.3887
vn 0.7941 0.1827 0.5796
vn 0.7202 0.1598 0.6751
vn 0.7083 0.1061 0.6978
vn 0.7002 0.05686 0.7116
vn 0.5216 0.01599 -0.8531
vn 0.3013 0.1217 -0.9457
vn 0.7652 -0.03583 -0.6428
vn 0.7711 -0.03375 -0.6358
vn 0.5362 -0.00235 -0.8441
vn 0.2944 0.09317 -0.9511
vn 0.1628 0.1853 -0.9691
vn -0.04147 0.2709 -0.9617
vn 0.1411 0.141 -0.9799
vn -0.07617 0.2042 -0.976
vn 0.5795 0.1122 0.8072
vn 0.5944 0.2392 0.7678
vn 0.4921 0.2368 0.8377
vn 0.4808 0.1049 0.8705
vn 0.5684 0.4482 0.6899
vn 0.4701 0.4592 0.7537
vn 0.3871 0.4668 0.7951
vn 0.4145 0.2374 0.8785
vn 0.4149 0.103 0.904
vn -0.3549 0.7315 -0.5822
vn -0.264 0.7398 -0.6188
vn -0.439 0.3976 -0.8057
vn -0.4743 0.3871 -0.7906
vn -0.1566 0.7243 -0.6715
vn -0.4018 0.3828 -0.8319
vn -0.4228 0.3294 -0.8442
vn -0.4526 0.3452 -0.8222
vn -0.4762 0.3692 -0.7981
vn -0.1466 0.9658 -0.214
vn -0.01825 0.9637 -0.2664
vn -0.1155 0.9011 -0.418
vn -0.2335 0.8994 -0.3695
vn 0.143 0.933 -0.33
vn 0.03467 0.8788 -0.4759
vn 0.3271 0.675 0.6613
vn 0.4017 0.6674 0.6271
vn 0.371 0.743 0.5571
vn 0.2919 0.7485 0.5954
vn 0.4895 0.6511 0.58
vn 0.4676 0.7259 0.5043
vn 0.4025 0.878 0.2588
vn 0.2749 0.9052 0.324
vn 0.173 0.9106 0.3753
vn 0.7255 0.2661 0.6348
vn 0.6594 0.2511 0.7085
vn 0.6501 0.1329 0.7481
vn 0.704 0.4301 0.5651
vn 0.6316 0.44 0.6384
vn -0.009919 0.6816 -0.7316
vn -0.2782 0.3504 -0.8943
vn -0.3148 0.2804 -0.9068
vn 0.2773 0.8808 -0.3838
vn 0.1818 0.8307 -0.5262
vn 0.5695 0.6313 0.5264
vn 0.56 0.7038 0.437
vn 0.5078 0.8417 0.1834
vn 0.9008 0.2599 0.3479
vn 0.7955 0.2786 0.538
vn 0.8868 0.3687 0.2787
vn 0.7793 0.4195 0.4654
vn 0.6337 0.08313 0.769
vn 0.6236 0.03656 0.7808
vn 0.5623 0.06845 0.8241
vn 0.5557 0.0257 0.831
vn 0.4706 0.0669 0.8798
vn 0.4704 0.0268 0.882
vn 0.4128 0.06973 0.9081
vn 0.414 0.03204 0.9097
vn 0.9861 0.1378 -0.09293
vn 0.9778 0.1647 -0.1295
vn 0.9915 0.1182 -0.05304
vn 0.8999 0.03061 -0.4349
vn 0.8901 0.01511 -0.4555
vn 0.8869 -0.004517 -0.4619
vn 0.3882 0.9079 -0.1582
vn 0.2693 0.9587 -0.09082
vn 0.5257 0.8117 -0.2544
vn 0.1142 0.9932 -0.02039
vn -0.01108 0.9993 0.03461
vn 0.7961 0.3706 -0.4783
vn 0.674 0.6094 -0.4176
vn 0.8613 0.08084 -0.5015
vn 0.6193 0.7042 -0.3472
vn 0.5873 0.5763 0.5683
vn 0.5177 0.5952 0.6145
vn 0.6772 0.5508 0.4879
vn 0.4262 0.6127 0.6655
vn 0.3471 0.6214 0.7024
vn 0.9694 0.1831 -0.1636
vn 0.8727 0.4459 0.1986
vn 0.8889 -0.01694 -0.4577
vn 0.7636 0.523 0.3785
vn 0.5531 -0.005341 0.8331
vn 0.4728 -0.005432 0.8812
vn 0.4157 -0.002075 0.9095
vn 0.6944 0.01871 0.7193
vn 0.617 0.003082 0.787
vn 0.7793 0.0358 0.6256
vn 0.9945 0.1044 -0.007874
vn 0.9131 0.03992 -0.4057
vn 0.4106 0.03439 0.9112
vn 0.4103 0.0001221 0.912
vn -0.3256 0.02441 0.9452
vn -0.3287 0.0006104 0.9444
vn -0.1698 0.9641 -0.2039
vn -0.03442 0.9984 0.04465
vn -0.7107 0.6843 0.1627
vn -0.5973 0.7279 0.3366
vn -0.4595 0.665 0.5888
vn 0.1528 0.9103 0.3845
vn 0.4111 0.1005 0.906
vn 0.4108 0.07013 0.909
vn -0.3274 0.06876 0.9424
vn -0.3296 0.0484 0.9429
vn -0.3742 0.7298 -0.5722
vn -0.2555 0.8976 -0.3592
vn -0.8325 0.5376 -0.1336
vn -0.7691 0.6371 0.0506
vn 0.311 0.676 0.6681
vn 0.3312 0.6222 0.7093
vn -0.3995 0.4732 0.7852
vn -0.3745 0.4395 0.8164
vn -0.3215 0.333 0.8864
vn 0.373 0.4664 0.8021
vn 0.275 0.7491 0.6027
vn -0.4056 0.5321 0.7431
vn -0.4886 0.3746 -0.788
vn -0.4872 0.3866 -0.783
vn -0.9207 0.2848 -0.2666
vn -0.9137 0.2756 -0.2986
vn 0.4055 0.2344 0.8835
vn -0.304 0.1635 0.9385
vn 0.7905 -0.001556 -0.6125
vn 0.7905 0.001495 -0.6125
vn 0.8068 -0.03024 -0.59
vn 0.8111 -0.03165 -0.5841
vn 0.8107 -0.02271 -0.585
vn 0.8054 -0.002472 -0.5927
vn 0.8068 0.03021 -0.59
vn 0.7834 0.06107 -0.6184
vn 0.7349 0.1797 -0.6539
vn 0.7266 0.1641 -0.6671
vn 0.7733 -0.04602 -0.6323
vn 0.8005 -0.1783 -0.5722
vn 0.8012 -0.1461 -0.5803
vn 0.7994 0 -0.6007
vn 0.8111 0.03162 -0.5841
vn 0.8054 0.002411 -0.5927
vn 0.8107 0.02268 -0.585
vn 0.7349 -0.1798 -0.6539
vn 0.7834 -0.0611 -0.6184
vn 0.7733 0.04596 -0.6323
vn 0.7266 -0.1641 -0.6671
vn 0.8012 0.1461 -0.5803
vn 0.8005 0.1782 -0.5722
vn -0.8104 0.5798 -0.0842
vn -0.7437 0.6576 0.1205
vn -0.7468 0.656 0.1091
vn -0.7823 0.6216 0.03876
vn -0.8193 0.5726 -0.0275
vn -0.8104 -0.5798 -0.0842
vn -0.7824 -0.6216 0.03873
vn -0.7469 -0.6559 0.1091
vn -0.7437 -0.6575 0.1205
vn -0.8194 -0.5726 -0.0275
vn -0.8537 0.5014 -0.1408
vn -0.9251 0.229 -0.3027
vn -0.9721 0.01184 -0.2341
vn -0.9722 0.01706 -0.2335
vn -0.9714 0.05618 -0.2305
vn -0.9641 0.04352 -0.2619
vn -0.9594 3.052e-05 -0.282
vn -0.9641 -0.04346 -0.2619
vn -0.9714 -0.05612 -0.2305
vn -0.9722 -0.017 -0.2335
vn -0.9721 -0.01175 -0.2341
vn -0.9251 -0.2289 -0.3027
vn -0.8537 -0.5013 -0.1408
f 1/1/1 2/2/2 3/3/3
f 1/1/1 3/3/3 4/4/4
f 2/2/2 5/5/5 6/6/6
f 2/2/2 6/6/6 3/3/3
f 3/3/3 6/6/6 7/7/7
f 3/3/3 7/7/7 8/8/8
f 4/4/4 3/3/3 8/8/8
f 4/4/4 8/8/8 9/9/9
f 10/10/10 11/11/11 12/12/12
f 10/10/10 12/12/12 13/13/13
f 11/11/11 14/14/14 15/15/15
f 11/11/11 15/15/15 12/12/12
f 12/12/12 15/15/15 16/16/16
f 12/12/12 16/16/16 17/17/17
f 13/13/13 12/12/12 17/17/17
f 13/13/13 17/17/17 18/18/18
f 19/19/19 20/20/20 21/21/21
f 19/19/19 21/21/21 22/22/22
f 20/20/20 23/23/23 24/24/24
f 20/20/20 24/24/24 21/21/21
f 21/21/21 24/24/24 25/25/25
f 21/21/21 25/25/25 26/26/26
f 22/22/22 21/21/21 26/26/26
f 22/22/22 26/26/26 27/27/27
f 27/27/27 26/26/26 28/28/28
f 27/27/27 28/28/28 29/29/29
f 26/26/26 25/25/25 30/30/30
f 26/26/26 30/30/30 28/28/28
f 28/28/28 30/30/30 31/31/31
f 28/28/28 31/31/31 32/32/32
f 29/29/29 28/28/28 32/32/32
f 29/29/29 32/32/32 33/33/33
f 18/18/18 17/17/17 34/34/34
f 18/18/18 34/34/34 35/35/35
f 17/17/17 16/16/16 36/36/36
f 17/17/17 36/36/36 34/34/34
f 34/34/34 36/36/36 37/37/37
f 34/34/34 37/37/37 38/38/38
f 35/35/35 34/34/34 38/38/38
f 35/35/35 38/38/38 39/39/39
f 1/1/1 40/40/40 41/41/41
f 1/1/1 41/41/41 42/42/42
f 40/40/40 43/43/43 44/44/44
f 40/40/40 44/44/44 41/41/41
f 41/41/41 44/44/44 45/45/45
f 41/41/41 45/45/45 46/46/46
f 42/42/42 41/41/41 46/46/46
f 42/42/42 46/46/46 47/47/47
f 25/25/25 48/48/48 49/49/49
f 25/25/25 49/49/49 30/30/30
f 48/48/48 50/50/50 51/51/51
f 48/48/48 51/51/51 49/49/49
f 49/49/49 51/51/51 52/52/52
f 49/49/49 52/52/52 53/53/53
f 30/30/30 49/49/49 53/53/53
f 30/30/30 53/53/53 31/31/31
f 23/23/23 54/54/54 55/55/55
f 23/23/23 55/55/55 24/24/24
f 54/54/54 56/56/56 57/57/57
f 54/54/54 57/57/57 55/55/55
f 55/55/55 57/57/57 50/50/50
f 55/55/55 50/50/50 48/48/48
f 24/24/24 55/55/55 48/48/48
f 24/24/24 48/48/48 25/25/25
f 58/58/58 59/59/59 60/60/60
f 58/58/58 60/60/60 61/61/61
f 59/59/59 62/62/62 63/63/63
f 59/59/59 63/63/63 60/60/60
f 60/60/60 63/63/63 64/64/64
f 60/60/60 64/64/64 65/65/65
f 61/61/61 60/60/60 65/65/65
f 61/61/61 65/65/65 66/66/66
f 67/67/67 68/68/68 69/69/69
f 67/67/67 69/69/69 70/70/70
f 68/68/68 71/71/71 72/72/72
f 68/68/68 72/72/72 69/69/69
f 69/69/69 72/72/72 73/73/73
f 69/69/69 73/73/73 74/74/74
f 70/70/70 69/69/69 74/74/74
f 70/70/70 74/74/74 75/75/75
f 76/76/76 77/77/77 78/78/78
f 76/76/76 78/78/78 79/79/79
f 77/77/77 67/67/67 70/70/70
f 77/77/77 70/70/70 78/78/78
f 78/78/78 70/70/70 75/75/75
f 78/78/78 75/75/75 80/80/80
f 79/79/79 78/78/78 80/80/80
f 79/79/79 80/80/80 81/81/81
f 82/82/82 83/83/83 84/84/84
f 82/82/82 84/84/84 85/85/85
f 83/83/83 86/86/86 87/87/87
f 83/83/83 87/87/87 84/84/84
f 84/84/84 87/87/87 88/88/88
f 84/84/84 88/88/88 89/89/89
f 85/85/85 84/84/84 89/89/89
f 85/85/85 89/89/89 90/90/90
f 45/45/45 91/91/91 92/92/92
f 45/45/45 92/92/92 93/93/93
f 91/91/91 58/58/58 61/61/61
f 91/91/91 61/61/61 92/92/92
f 92/92/92 61/61/61 66/66/66
f 92/92/92 66/66/66 94/94/94
f 93/93/93 92/92/92 94/94/94
f 93/93/93 94/94/94 95/95/95
f 75/75/75 74/74/74 96/96/96
f 75/75/75 96/96/96 97/97/97
f 74/74/74 73/73/73 98/98/98
f 74/74/74 98/98/98 96/96/96
f 96/96/96 98/98/98 56/56/56
f 96/96/96 56/56/56 54/54/54
f 97/97/97 96/96/96 54/54/54
f 97/97/97 54/54/54 23/23/23
f 81/81/81 80/80/80 99/99/99
f 81/81/81 99/99/99 100/100/100
f 80/80/80 75/75/75 97/97/97
f 80/80/80 97/97/97 99/99/99
f 99/99/99 97/97/97 23/23/23
f 99/99/99 23/23/23 20/20/20
f 100/100/100 99/99/99 20/20/20
f 100/100/100 20/20/20 19/19/19
f 90/90/90 89/89/89 101/101/101
f 90/90/90 101/101/101 102/102/102
f 89/89/89 88/88/88 103/103/103
f 89/89/89 103/103/103 101/101/101
f 101/101/101 103/103/103 14/14/14
f 101/101/101 14/14/14 11/11/11
f 102/102/102 101/101/101 11/11/11
f 102/102/102 11/11/11 10/10/10
f 47/47/47 46/46/46 104/104/104
f 47/47/47 104/104/104 105/105/105
f 46/46/46 45/45/45 93/93/93
f 46/46/46 93/93/93 104/104/104
f 104/104/104 93/93/93 95/95/95
f 104/104/104 95/95/95 106/106/106
f 105/105/105 104/104/104 106/106/106
f 105/105/105 106/106/106 107/107/107
f 43/43/43 108/108/108 109/109/109
f 43/43/43 109/109/109 44/44/44
f 108/108/108 110/110/110 111/111/111
f 108/108/108 111/111/111 109/109/109
f 109/109/109 111/111/111 58/58/58
f 109/109/109 58/58/58 91/91/91
f 44/44/44 109/109/109 91/91/91
f 44/44/44 91/91/91 45/45/45
f 110/110/110 112/112/112 113/113/113
f 110/110/110 113/113/113 111/111/111
f 112/112/112 114/114/114 115/115/115
f 112/112/112 115/115/115 113/113/113
f 113/113/113 115/115/115 62/62/62
f 113/113/113 62/62/62 59/59/59
f 111/111/111 113/113/113 59/59/59
f 111/111/111 59/59/59 58/58/58
f 107/107/107 116/116/116 117/117/117
f 107/107/107 117/117/117 105/105/105
f 116/116/116 118/118/118 119/119/119
f 116/116/116 119/119/119 117/117/117
f 117/117/117 119/119/119 120/120/120
f 117/117/117 120/120/120 121/121/121
f 105/105/105 117/117/117 121/121/121
f 105/105/105 121/121/121 47/47/47
f 88/88/88 122/122/122 123/123/123
f 88/88/88 123/123/123 103/103/103
f 122/122/122 81/81/81 100/100/100
f 122/122/122 100/100/100 123/123/123
f 123/123/123 100/100/100 19/19/19
f 123/123/123 19/19/19 124/124/124
f 103/103/103 123/123/123 124/124/124
f 103/103/103 124/124/124 14/14/14
f 86/86/86 125/125/125 126/126/126
f 86/86/86 126/126/126 87/87/87
f 125/125/125 76/76/76 79/79/79
f 125/125/125 79/79/79 126/126/126
f 126/126/126 79/79/79 81/81/81
f 126/126/126 81/81/81 122/122/122
f 87/87/87 126/126/126 122/122/122
f 87/87/87 122/122/122 88/88/88
f 16/16/16 127/127/127 128/128/128
f 16/16/16 128/128/128 36/36/36
f 127/127/127 27/27/27 29/29/29
f 127/127/127 29/29/29 128/128/128
f 128/128/128 29/29/29 33/33/33
f 128/128/128 33/33/33 129/129/129
f 36/36/36 128/128/128 129/129/129
f 36/36/36 129/129/129 37/37/37
f 14/14/14 124/124/124 130/130/130
f 14/14/14 130/130/130 15/15/15
f 124/124/124 19/19/19 22/22/22
f 124/124/124 22/22/22 130/130/130
f 130/130/130 22/22/22 27/27/27
f 130/130/130 27/27/27 127/127/127
f 15/15/15 130/130/130 127/127/127
f 15/15/15 127/127/127 16/16/16
f 66/66/66 131/131/131 132/132/132
f 66/66/66 132/132/132 94/94/94
f 131/131/131 90/90/90 102/102/102
f 131/131/131 102/102/102 132/132/132
f 132/132/132 102/102/102 10/10/10
f 132/132/132 10/10/10 133/133/133
f 94/94/94 132/132/132 133/133/133
f 94/94/94 133/133/133 95/95/95
f 64/64/64 134/134/134 135/135/135
f 64/64/64 135/135/135 65/65/65
f 134/134/134 82/82/82 85/85/85
f 134/134/134 85/85/85 135/135/135
f 135/135/135 85/85/85 90/90/90
f 135/135/135 90/90/90 131/131/131
f 65/65/65 135/135/135 131/131/131
f 65/65/65 131/131/131 66/66/66
f 107/107/107 136/136/136 137/137/137
f 107/107/107 137/137/137 116/116/116
f 136/136/136 18/18/18 35/35/35
f 136/136/136 35/35/35 137/137/137
f 137/137/137 35/35/35 39/39/39
f 137/137/137 39/39/39 138/138/138
f 116/116/116 137/137/137 138/138/138
f 116/116/116 138/138/138 118/118/118
f 95/95/95 133/133/133 139/139/139
f 95/95/95 139/139/139 106/106/106
f 133/133/133 10/10/10 13/13/13
f 133/133/133 13/13/13 139/139/139
f 139/139/139 13/13/13 18/18/18
f 139/139/139 18/18/18 136/136/136
f 106/106/106 139/139/139 136/136/136
f 106/106/106 136/136/136 107/107/107
f 140/140/140 141/141/141 142/142/142
f 140/140/140 142/142/142 143/143/143
f 141/141/141 144/144/144 145/145/145
f 141/141/141 145/145/145 142/142/142
f 142/142/142 145/145/145 114/114/114
f 142/142/142 114/114/114 112/112/112
f 143/143/143 142/142/142 112/112/112
f 143/143/143 112/112/112 110/110/110
f 146/146/146 147/147/147 148/148/148
f 146/146/146 148/148/148 149/149/149
f 147/147/147 140/140/140 143/143/143
f 147/147/147 143/143/143 148/148/148
f 148/148/148 143/143/143 110/110/110
f 148/148/148 110/110/110 108/108/108
f 149/149/149 148/148/148 108/108/108
f 149/149/149 108/108/108 43/43/43
f 9/9/9 150/150/150 151/151/151
f 9/9/9 151/151/151 4/4/4
f 150/150/150 146/146/146 149/149/149
f 150/150/150 149/149/149 151/151/151
f 151/151/151 149/149/149 43/43/43
f 151/151/151 43/43/43 40/40/40
f 4/4/4 151/151/151 40/40/40
f 4/4/4 40/40/40 1/1/1
f 47/47/47 121/121/121 152/152/152
f 47/47/47 152/152/152 42/42/42
f 121/121/121 120/120/120 153/153/153
f 121/121/121 153/153/153 152/152/152
f 152/152/152 153/153/153 5/5/5
f 152/152/152 5/5/5 2/2/2
f 42/42/42 152/152/152 2/2/2
f 42/42/42 2/2/2 1/1/1
f 114/114/114 145/145/145 154/154/154
f 114/114/114 154/154/154 155/155/155
f 145/145/145 144/144/144 156/156/156
f 145/145/145 156/156/156 154/154/154
f 154/154/154 156/156/156 157/157/157
f 154/154/154 157/157/157 158/158/158
f 155/155/155 154/154/154 158/158/158
f 155/155/155 158/158/158 159/159/159
f 76/76/76 125/125/125 160/160/160
f 76/76/76 160/160/160 161/161/161
f 125/125/125 86/86/86 162/162/162
f 125/125/125 162/162/162 160/160/160
f 160/160/160 162/162/162 163/163/163
f 160/160/160 163/163/163 164/164/164
f 161/161/161 160/160/160 164/164/164
f 161/161/161 164/164/164 165/165/165
f 62/62/62 115/115/115 166/166/166
f 62/62/62 166/166/166 167/167/167
f 115/115/115 114/114/114 155/155/155
f 115/115/115 155/155/155 166/166/166
f 166/166/166 155/155/155 159/159/159
f 166/166/166 159/159/159 168/168/168
f 167/167/167 166/166/166 168/168/168
f 167/167/167 168/168/168 169/169/169
f 67/67/67 77/77/77 170/170/170
f 67/67/67 170/170/170 171/171/171
f 77/77/77 76/76/76 161/161/161
f 77/77/77 161/161/161 170/170/170
f 170/170/170 161/161/161 165/165/165
f 170/170/170 165/165/165 172/172/172
f 171/171/171 170/170/170 172/172/172
f 171/171/171 172/172/172 173/173/173
f 82/82/82 134/134/134 174/174/174
f 82/82/82 174/174/174 175/175/175
f 134/134/134 64/64/64 176/176/176
f 134/134/134 176/176/176 174/174/174
f 174/174/174 176/176/176 177/177/177
f 174/174/174 177/177/177 178/178/178
f 175/175/175 174/174/174 178/178/178
f 175/175/175 178/178/178 179/179/179
f 86/86/86 83/83/83 180/180/180
f 86/86/86 180/180/180 162/162/162
f 83/83/83 82/82/82 175/175/175
f 83/83/83 175/175/175 180/180/180
f 180/180/180 175/175/175 179/179/179
f 180/180/180 179/179/179 181/181/181
f 162/162/162 180/180/180 181/181/181
f 162/162/162 181/181/181 163/163/163
f 71/71/71 68/68/68 182/182/182
f 71/71/71 182/182/182 183/183/183
f 68/68/68 67/67/67 171/171/171
f 68/68/68 171/171/171 182/182/182
f 182/182/182 171/171/171 173/173/173
f 182/182/182 173/173/173 184/184/184
f 183/183/183 182/182/182 184/184/184
f 183/183/183 184/184/184 185/185/185
f 64/64/64 63/63/63 186/186/186
f 64/64/64 186/186/186 176/176/176
f 63/63/63 62/62/62 167/167/167
f 63/63/63 167/167/167 186/186/186
f 186/186/186 167/167/167 169/169/169
f 186/186/186 169/169/169 187/187/187
f 176/176/176 186/186/186 187/187/187
f 176/176/176 187/187/187 177/177/177
f 188/188/188 189/189/189 190/190/190
f 188/188/188 190/190/190 191/191/191
f 189/189/189 9/9/9 8/8/8
f 189/189/189 8/8/8 190/190/190
f 190/190/190 8/8/8 7/7/7
f 190/190/190 7/7/7 192/192/192
f 191/191/191 190/190/190 192/192/192
f 191/191/191 192/192/192 193/193/193
f 194/194/194 195/195/195 196/196/196
f 194/194/194 196/196/196 197/197/197
f 195/195/195 198/198/198 199/199/199
f 195/195/195 199/199/199 196/196/196
f 196/196/196 199/199/199 200/200/200
f 196/196/196 200/200/200 201/201/201
f 197/197/197 196/196/196 201/201/201
f 197/197/197 201/201/201 202/202/202
f 203/203/203 204/204/204 205/205/205
f 203/203/203 205/205/205 206/206/206
f 204/204/204 207/207/207 208/208/208
f 204/204/204 208/208/208 205/205/205
f 205/205/205 208/208/208 209/209/209
f 205/205/205 209/209/209 210/210/210
f 206/206/206 205/205/205 210/210/210
f 206/206/206 210/210/210 211/211/211
f 207/207/207 212/212/212 213/213/213
f 207/207/207 213/213/213 208/208/208
f 212/212/212 214/214/214 215/215/215
f 212/212/212 215/215/215 213/213/213
f 213/213/213 215/215/215 216/216/216
f 213/213/213 216/216/216 217/217/217
f 208/208/208 213/213/213 217/217/217
f 208/208/208 217/217/217 209/209/209
f 198/198/198 218/218/218 219/219/219
f 198/198/198 219/219/219 199/199/199
f 218/218/218 220/220/220 221/221/221
f 218/218/218 221/221/221 219/219/219
f 219/219/219 221/221/221 222/222/222
f 219/219/219 222/222/222 223/223/223
f 199/199/199 219/219/219 223/223/223
f 199/199/199 223/223/223 200/200/200
f 188/188/188 224/224/224 225/225/225
f 188/188/188 225/225/225 226/226/226
f 224/224/224 227/227/227 228/228/228
f 224/224/224 228/228/228 225/225/225
f 225/225/225 228/228/228 229/229/229
f 225/225/225 229/229/229 230/230/230
f 226/226/226 225/225/225 230/230/230
f 226/226/226 230/230/230 231/231/231
f 209/209/209 217/217/217 232/232/232
f 209/209/209 232/232/232 233/233/233
f 217/217/217 216/216/216 234/234/234
f 217/217/217 234/234/234 232/232/232
f 232/232/232 234/234/234 235/235/235
f 232/232/232 235/235/235 236/236/236
f 233/233/233 232/232/232 236/236/236
f 233/233/233 236/236/236 237/237/237
f 211/211/211 210/210/210 238/238/238
f 211/211/211 238/238/238 239/239/239
f 210/210/210 209/209/209 233/233/233
f 210/210/210 233/233/233 238/238/238
f 238/238/238 233/233/233 237/237/237
f 238/238/238 237/237/237 240/240/240
f 239/239/239 238/238/238 240/240/240
f 239/239/239 240/240/240 241/241/241
f 242/242/242 243/243/243 244/244/244
f 242/242/242 244/244/244 245/245/245
f 243/243/243 246/246/246 247/247/247
f 243/243/243 247/247/247 244/244/244
f 244/244/244 247/247/247 248/248/248
f 244/244/244 248/248/248 249/249/249
f 245/245/245 244/244/244 249/249/249
f 245/245/245 249/249/249 250/250/250
f 251/251/251 252/252/252 253/253/253
f 251/251/251 253/253/253 254/254/254
f 252/252/252 255/255/255 256/256/256
f 252/252/252 256/256/256 253/253/253
f 253/253/253 256/256/256 257/257/257
f 253/253/253 257/257/257 258/258/258
f 254/254/254 253/253/253 258/258/258
f 254/254/254 258/258/258 259/259/259
f 260/260/260 261/261/261 262/262/262
f 260/260/260 262/262/262 263/263/263
f 261/261/261 264/264/264 265/265/265
f 261/261/261 265/265/265 262/262/262
f 262/262/262 265/265/265 255/255/255
f 262/262/262 255/255/255 252/252/252
f 263/263/263 262/262/262 252/252/252
f 263/263/263 252/252/252 251/251/251
f 266/266/266 267/267/267 268/268/268
f 266/266/266 268/268/268 269/269/269
f 267/267/267 270/270/270 271/271/271
f 267/267/267 271/271/271 268/268/268
f 268/268/268 271/271/271 272/272/272
f 268/268/268 272/272/272 273/273/273
f 269/269/269 268/268/268 273/273/273
f 269/269/269 273/273/273 274/274/274
f 229/229/229 275/275/275 276/276/276
f 229/229/229 276/276/276 277/277/277
f 275/275/275 278/278/278 279/279/279
f 275/275/275 279/279/279 276/276/276
f 276/276/276 279/279/279 246/246/246
f 276/276/276 246/246/246 243/243/243
f 277/277/277 276/276/276 243/243/243
f 277/277/277 243/243/243 242/242/242
f 255/255/255 280/280/280 281/281/281
f 255/255/255 281/281/281 256/256/256
f 280/280/280 211/211/211 239/239/239
f 280/280/280 239/239/239 281/281/281
f 281/281/281 239/239/239 241/241/241
f 281/281/281 241/241/241 282/282/282
f 256/256/256 281/281/281 282/282/282
f 256/256/256 282/282/282 257/257/257
f 264/264/264 283/283/283 284/284/284
f 264/264/264 284/284/284 265/265/265
f 283/283/283 203/203/203 206/206/206
f 283/283/283 206/206/206 284/284/284
f 284/284/284 206/206/206 211/211/211
f 284/284/284 211/211/211 280/280/280
f 265/265/265 284/284/284 280/280/280
f 265/265/265 280/280/280 255/255/255
f 270/270/270 285/285/285 286/286/286
f 270/270/270 286/286/286 271/271/271
f 285/285/285 194/194/194 197/197/197
f 285/285/285 197/197/197 286/286/286
f 286/286/286 197/197/197 202/202/202
f 286/286/286 202/202/202 287/287/287
f 271/271/271 286/286/286 287/287/287
f 271/271/271 287/287/287 272/272/272
f 227/227/227 288/288/288 289/289/289
f 227/227/227 289/289/289 228/228/228
f 288/288/288 290/290/290 291/291/291
f 288/288/288 291/291/291 289/289/289
f 289/289/289 291/291/291 278/278/278
f 289/289/289 278/278/278 275/275/275
f 228/228/228 289/289/289 275/275/275
f 228/228/228 275/275/275 229/229/229
f 231/231/231 230/230/230 292/292/292
f 231/231/231 292/292/292 293/293/293
f 230/230/230 229/229/229 277/277/277
f 230/230/230 277/277/277 292/292/292
f 292/292/292 277/277/277 242/242/242
f 292/292/292 242/242/242 294/294/294
f 293/293/293 292/292/292 294/294/294
f 293/293/293 294/294/294 295/295/295
f 295/295/295 294/294/294 296/296/296
f 295/295/295 296/296/296 297/297/297
f 294/294/294 242/242/242 245/245/245
f 294/294/294 245/245/245 296/296/296
f 296/296/296 245/245/245 250/250/250
f 296/296/296 250/250/250 298/298/298
f 297/297/297 296/296/296 298/298/298
f 297/297/297 298/298/298 299/299/299
f 290/290/290 288/288/288 300/300/300
f 290/290/290 300/300/300 301/301/301
f 288/288/288 227/227/227 302/302/302
f 288/288/288 302/302/302 300/300/300
f 300/300/300 302/302/302 303/303/303
f 300/300/300 303/303/303 304/304/304
f 301/301/301 300/300/300 304/304/304
f 301/301/301 304/304/304 305/305/305
f 272/272/272 287/287/287 306/306/306
f 272/272/272 306/306/306 307/307/307
f 287/287/287 202/202/202 308/308/308
f 287/287/287 308/308/308 306/306/306
f 306/306/306 308/308/308 203/203/203
f 306/306/306 203/203/203 283/283/283
f 307/307/307 306/306/306 283/283/283
f 307/307/307 283/283/283 264/264/264
f 274/274/274 273/273/273 309/309/309
f 274/274/274 309/309/309 310/310/310
f 273/273/273 272/272/272 307/307/307
f 273/273/273 307/307/307 309/309/309
f 309/309/309 307/307/307 264/264/264
f 309/309/309 264/264/264 261/261/261
f 310/310/310 309/309/309 261/261/261
f 310/310/310 261/261/261 260/260/260
f 200/200/200 223/223/223 311/311/311
f 200/200/200 311/311/311 312/312/312
f 223/223/223 222/222/222 313/313/313
f 223/223/223 313/313/313 311/311/311
f 311/311/311 313/313/313 214/214/214
f 311/311/311 214/214/214 212/212/212
f 312/312/312 311/311/311 212/212/212
f 312/312/312 212/212/212 207/207/207
f 202/202/202 201/201/201 314/314/314
f 202/202/202 314/314/314 308/308/308
f 201/201/201 200/200/200 312/312/312
f 201/201/201 312/312/312 314/314/314
f 314/314/314 312/312/312 207/207/207
f 314/314/314 207/207/207 204/204/204
f 308/308/308 314/314/314 204/204/204
f 308/308/308 204/204/204 203/203/203
f 246/246/246 279/279/279 315/315/315
f 246/246/246 315/315/315 316/316/316
f 279/279/279 278/278/278 317/317/317
f 279/279/279 317/317/317 315/315/315
f 315/315/315 317/317/317 194/194/194
f 315/315/315 194/194/194 285/285/285
f 316/316/316 315/315/315 285/285/285
f 316/316/316 285/285/285 270/270/270
f 248/248/248 247/247/247 318/318/318
f 248/248/248 318/318/318 319/319/319
f 247/247/247 246/246/246 316/316/316
f 247/247/247 316/316/316 318/318/318
f 318/318/318 316/316/316 270/270/270
f 318/318/318 270/270/270 267/267/267
f 319/319/319 318/318/318 267/267/267
f 319/319/319 267/267/267 266/266/266
f 290/290/290 301/301/301 320/320/320
f 290/290/290 320/320/320 321/321/321
f 301/301/301 305/305/305 322/322/322
f 301/301/301 322/322/322 320/320/320
f 320/320/320 322/322/322 220/220/220
f 320/320/320 220/220/220 218/218/218
f 321/321/321 320/320/320 218/218/218
f 321/321/321 218/218/218 198/198/198
f 278/278/278 291/291/291 323/323/323
f 278/278/278 323/323/323 317/317/317
f 291/291/291 290/290/290 321/321/321
f 291/291/291 321/321/321 323/323/323
f 323/323/323 321/321/321 198/198/198
f 323/323/323 198/198/198 195/195/195
f 317/317/317 323/323/323 195/195/195
f 317/317/317 195/195/195 194/194/194
f 140/140/140 324/324/324 325/325/325
f 140/140/140 325/325/325 141/141/141
f 324/324/324 295/295/295 297/297/297
f 324/324/324 297/297/297 325/325/325
f 325/325/325 297/297/297 299/299/299
f 325/325/325 299/299/299 326/326/326
f 141/141/141 325/325/325 326/326/326
f 141/141/141 326/326/326 144/144/144
f 146/146/146 327/327/327 328/328/328
f 146/146/146 328/328/328 147/147/147
f 327/327/327 231/231/231 293/293/293
f 327/327/327 293/293/293 328/328/328
f 328/328/328 293/293/293 295/295/295
f 328/328/328 295/295/295 324/324/324
f 147/147/147 328/328/328 324/324/324
f 147/147/147 324/324/324 140/140/140
f 9/9/9 189/189/189 329/329/329
f 9/9/9 329/329/329 150/150/150
f 189/189/189 188/188/188 226/226/226
f 189/189/189 226/226/226 329/329/329
f 329/329/329 226/226/226 231/231/231
f 329/329/329 231/231/231 327/327/327
f 150/150/150 329/329/329 327/327/327
f 150/150/150 327/327/327 146/146/146
f 227/227/227 224/224/224 330/330/330
f 227/227/227 330/330/330 302/302/302
f 224/224/224 188/188/188 191/191/191
f 224/224/224 191/191/191 330/330/330
f 330/330/330 191/191/191 193/193/193
f 330/330/330 193/193/193 331/331/331
f 302/302/302 330/330/330 331/331/331
f 302/302/302 331/331/331 303/303/303
f 299/299/299 332/332/332 333/333/333
f 299/299/299 333/333/333 326/326/326
f 332/332/332 334/334/334 335/335/335
f 332/332/332 335/335/335 333/333/333
f 333/333/333 335/335/335 157/157/157
f 333/333/333 157/157/157 156/156/156
f 326/326/326 333/333/333 156/156/156
f 326/326/326 156/156/156 144/144/144
f 260/260/260 336/336/336 337/337/337
f 260/260/260 337/337/337 310/310/310
f 336/336/336 338/338/338 339/339/339
f 336/336/336 339/339/339 337/337/337
f 337/337/337 339/339/339 340/340/340
f 337/337/337 340/340/340 341/341/341
f 310/310/310 337/337/337 341/341/341
f 310/310/310 341/341/341 274/274/274
f 250/250/250 342/342/342 343/343/343
f 250/250/250 343/343/343 298/298/298
f 342/342/342 344/344/344 345/345/345
f 342/342/342 345/345/345 343/343/343
f 343/343/343 345/345/345 334/334/334
f 343/343/343 334/334/334 332/332/332
f 298/298/298 343/343/343 332/332/332
f 298/298/298 332/332/332 299/299/299
f 251/251/251 346/346/346 347/347/347
f 251/251/251 347/347/347 263/263/263
f 346/346/346 348/348/348 349/349/349
f 346/346/346 349/349/349 347/347/347
f 347/347/347 349/349/349 338/338/338
f 347/347/347 338/338/338 336/336/336
f 263/263/263 347/347/347 336/336/336
f 263/263/263 336/336/336 260/260/260
f 266/266/266 350/350/350 351/351/351
f 266/266/266 351/351/351 319/319/319
f 350/350/350 352/352/352 353/353/353
f 350/350/350 353/353/353 351/351/351
f 351/351/351 353/353/353 354/354/354
f 351/351/351 354/354/354 355/355/355
f 319/319/319 351/351/351 355/355/355
f 319/319/319 355/355/355 248/248/248
f 274/274/274 341/341/341 356/356/356
f 274/274/274 356/356/356 269/269/269
f 341/341/341 340/340/340 357/357/357
f 341/341/341 357/357/357 356/356/356
f 356/356/356 357/357/357 352/352/352
f 356/356/356 352/352/352 350/350/350
f 269/269/269 356/356/356 350/350/350
f 269/269/269 350/350/350 266/266/266
f 259/259/259 358/358/358 359/359/359
f 259/259/259 359/359/359 254/254/254
f 358/358/358 360/360/360 361/361/361
f 358/358/358 361/361/361 359/359/359
f 359/359/359 361/361/361 348/348/348
f 359/359/359 348/348/348 346/346/346
f 254/254/254 359/359/359 346/346/346
f 254/254/254 346/346/346 251/251/251
f 248/248/248 355/355/355 362/362/362
f 248/248/248 362/362/362 249/249/249
f 355/355/355 354/354/354 363/363/363
f 355/355/355 363/363/363 362/362/362
f 362/362/362 363/363/363 344/344/344
f 362/362/362 344/344/344 342/342/342
f 249/249/249 362/362/362 342/342/342
f 249/249/249 342/342/342 250/250/250
f 37/37/37 129/129/129 33/33/33
f 33/33/33 32/32/32 31/31/31
f 31/31/31 53/53/53 52/52/52
f 33/33/33 31/31/31 52/52/52
f 38/38/38 37/37/37 33/33/33
f 138/138/138 39/39/39 38/38/38
f 119/119/119 118/118/118 138/138/138
f 153/153/153 120/120/120 119/119/119
f 6/6/6 5/5/5 153/153/153
f 192/192/192 7/7/7 6/6/6
f 331/331/331 193/193/193 192/192/192
f 304/304/304 303/303/303 331/331/331
f 322/322/322 305/305/305 304/304/304
f 221/221/221 220/220/220 322/322/322
f 313/313/313 222/222/222 221/221/221
f 215/215/215 214/214/214 313/313/313
f 234/234/234 216/216/216 215/215/215
f 235/235/235 234/234/234 215/215/215
f 215/215/215 313/313/313 221/221/221
f 221/221/221 322/322/322 304/304/304
f 304/304/304 331/331/331 192/192/192
f 192/192/192 6/6/6 153/153/153
f 153/153/153 119/119/119 138/138/138
f 138/138/138 38/38/38 33/33/33
f 33/33/33 52/52/52 364/364/364
f 138/138/138 33/33/33 364/364/364
f 192/192/192 153/153/153 138/138/138
f 221/221/221 304/304/304 192/192/192
f 235/235/235 215/215/215 221/221/221
f 365/365/365 235/235/235 221/221/221
f 221/221/221 192/192/192 138/138/138
f 138/138/138 364/364/364 366/366/366
f 367/367/367 368/368/368 369/369/369
f 138/138/138 366/366/366 367/367/367
f 365/365/365 221/221/221 138/138/138
f 370/370/370 365/365/365 138/138/138
f 138/138/138 367/367/367 369/369/369
f 369/369/369 371/371/371 372/372/372
f 372/372/372 373/373/373 374/374/374
f 375/375/375 376/376/376 377/377/377
f 372/372/372 374/374/374 375/375/375
f 138/138/138 369/369/369 372/372/372
f 378/378/378 370/370/370 138/138/138
f 379/379/379 380/380/380 378/378/378
f 381/381/381 382/382/382 379/379/379
f 383/383/383 384/384/384 381/381/381
f 377/377/377 385/385/385 386/386/386
f 386/386/386 383/383/383 381/381/381
f 381/381/381 379/379/379 378/378/378
f 378/378/378 138/138/138 372/372/372
f 372/372/372 375/375/375 377/377/377
f 377/377/377 386/386/386 381/381/381
f 381/381/381 378/378/378 372/372/372
f 372/372/372 377/377/377 381/381/381
f 165/165/165 164/164/164 163/163/163
f 163/163/163 181/181/181 179/179/179
f 179/179/179 178/178/178 177/177/177
f 177/177/177 187/187/187 169/169/169
f 169/169/169 168/168/168 159/159/159
f 159/159/159 158/158/158 157/157/157
f 157/157/157 335/335/335 334/334/334
f 334/334/334 345/345/345 344/344/344
f 344/344/344 363/363/363 354/354/354
f 354/354/354 353/353/353 352/352/352
f 352/352/352 357/357/357 340/340/340
f 340/340/340 339/339/339 338/338/338
f 338/338/338 349/349/349 348/348/348
f 348/348/348 361/361/361 360/360/360
f 338/338/338 348/348/348 360/360/360
f 352/352/352 340/340/340 338/338/338
f 344/344/344 354/354/354 352/352/352
f 157/157/157 334/334/334 344/344/344
f 169/169/169 159/159/159 157/157/157
f 179/179/179 177/177/177 169/169/169
f 165/165/165 163/163/163 179/179/179
f 173/173/173 172/172/172 165/165/165
f 185/185/185 184/184/184 173/173/173
f 185/185/185 173/173/173 165/165/165
f 165/165/165 179/179/179 169/169/169
f 169/169/169 157/157/157 344/344/344
f 344/344/344 352/352/352 338/338/338
f 338/338/338 360/360/360 387/387/387
f 388/388/388 389/389/389 390/390/390
f 344/344/344 338/338/338 387/387/387
f 388/388/388 390/390/390 391/391/391
f 344/344/344 387/387/387 388/388/388
f 165/165/165 169/169/169 344/344/344
f 392/392/392 185/185/185 165/165/165
f 393/393/393 394/394/394 395/395/395
f 392/392/392 165/165/165 344/344/344
f 396/396/396 393/393/393 395/395/395
f 395/395/395 392/392/392 344/344/344
f 344/344/344 388/388/388 391/391/391
f 391/391/391 397/397/397 398/398/398
f 398/398/398 399/399/399 400/400/400
f 401/401/401 402/402/402 403/403/403
f 391/391/391 398/398/398 400/400/400
f 400/400/400 401/401/401 403/403/403
f 403/403/403 404/404/404 405/405/405
f 406/406/406 407/407/407 408/408/408
f 403/403/403 405/405/405 406/406/406
f 391/391/391 400/400/400 403/403/403
f 395/395/395 344/344/344 391/391/391
f 409/409/409 396/396/396 395/395/395
f 406/406/406 408/408/408 409/409/409
f 391/391/391 403/403/403 406/406/406
f 409/409/409 395/395/395 391/391/391
f 391/391/391 406/406/406 409/409/409
