v 1.48605 -0.0686612 1.12048
v 1.46037 -0.0683351 1.14685
v 1.459 -0.0977713 1.14303
v 1.4851 -0.0980446 1.11697
v 1.42206 -0.0682652 1.17724
v 1.42028 -0.0978498 1.17321
v 1.41546 -0.143201 1.15813
v 1.45442 -0.142086 1.12916
v 1.4809 -0.141532 1.10415
v 1.39344 -0.274019 1.07138
v 1.38011 -0.327287 1.0031
v 1.41823 -0.316791 0.985623
v 1.4319 -0.266924 1.04937
v 1.36422 -0.362869 0.93036
v 1.40241 -0.35073 0.917042
v 1.42985 -0.341404 0.905274
v 1.44522 -0.308729 0.969835
v 1.45873 -0.26146 1.02987
v 1.32129 -0.383175 0.800059
v 1.29912 -0.374278 0.740293
v 1.34042 -0.367221 0.735162
v 1.36142 -0.374656 0.792533
v 1.28296 -0.359772 0.695941
v 1.32506 -0.353409 0.692774
v 1.35683 -0.345445 0.697006
v 1.3713 -0.359642 0.736095
v 1.39105 -0.367124 0.789292
v 1.33686 -0.0691425 1.22782
v 1.3163 -0.0695155 1.23885
v 1.31499 -0.0997028 1.2351
v 1.33541 -0.0992515 1.224
v 1.2921 -0.0705688 1.24771
v 1.29086 -0.100517 1.24392
v 1.28763 -0.147642 1.2262
v 1.31151 -0.147162 1.21767
v 1.33162 -0.146437 1.20697
v 1.38521 -0.354535 0.736176
v 1.40453 -0.362196 0.78654
v 1.37106 -0.340131 0.699303
v 1.37475 -0.336762 0.699488
v 1.38898 -0.351134 0.735017
v 1.4084 -0.358892 0.783639
v 1.45784 -0.304057 0.958593
v 1.47138 -0.258287 1.01608
v 1.44257 -0.33594 0.896745
v 1.44668 -0.332738 0.890203
v 1.46213 -0.301372 0.950194
v 1.47587 -0.256459 1.00582
v 1.50459 -0.0692424 1.08776
v 1.4989 -0.0689714 1.10179
v 1.4979 -0.0983416 1.09847
v 1.50324 -0.0986153 1.08456
v 1.49366 -0.14133 1.08641
v 1.49864 -0.1413 1.07306
v 1.35105 -0.331814 0.681165
v 1.36538 -0.326857 0.68463
v 1.34975 -0.321579 0.677846
v 1.36407 -0.317225 0.681756
v 1.3677 -0.314688 0.682891
v 1.36903 -0.323875 0.685494
v 1.27668 -0.345302 0.677045
v 1.31896 -0.339438 0.675126
v 1.2755 -0.333719 0.672326
v 1.3177 -0.328404 0.671102
v 1.18012 -0.353547 0.742484
v 1.18664 -0.339803 0.726536
v 1.19061 -0.34148 0.725228
v 1.19495 -0.357469 0.742239
v 1.18736 -0.330229 0.721831
v 1.19013 -0.330657 0.719953
v 1.2035 -0.331812 0.710284
v 1.20436 -0.342966 0.715585
v 1.21005 -0.358889 0.733165
v 1.21361 -0.396689 0.840458
v 1.19299 -0.377851 0.7872
v 1.21006 -0.378958 0.782102
v 1.23184 -0.39742 0.835085
v 1.22596 -0.378923 0.773586
v 1.24815 -0.395617 0.827955
v 1.27335 -0.289209 1.12085
v 1.26468 -0.349811 1.04175
v 1.28612 -0.350177 1.03571
v 1.29583 -0.289462 1.11398
v 1.25266 -0.389015 0.962747
v 1.27299 -0.389424 0.95727
v 1.2902 -0.385547 0.952115
v 1.30403 -0.346821 1.02968
v 1.31456 -0.287183 1.10624
v 1.37562 -0.0686501 1.20622
v 1.37391 -0.0985031 1.20224
v 1.3695 -0.144902 1.18604
v 1.23513 -0.345455 0.694856
v 1.24119 -0.360689 0.713406
v 1.23411 -0.333954 0.689727
v 1.25742 -0.377856 0.756366
v 1.27987 -0.390607 0.81416
v 1.33783 -0.338353 1.01859
v 1.34982 -0.281476 1.09153
v 1.32284 -0.375711 0.942827
v 1.42379 -0.0313075 1.17895
v 1.37735 -0.0314859 1.20756
v 1.37659 -0.0479397 1.2072
v 1.42302 -0.0476672 1.17841
v 1.33831 -0.031719 1.22873
v 1.33767 -0.0482929 1.22856
v 1.50569 -0.0318387 1.08889
v 1.49952 -0.0316898 1.10309
v 1.49924 -0.0482192 1.10271
v 1.5052 -0.0484324 1.08863
v 1.48661 -0.0315235 1.12199
v 1.48636 -0.0479785 1.12149
v 1.3176 -0.0319775 1.23958
v 1.31702 -0.0486209 1.23948
v 1.29337 -0.0330526 1.24844
v 1.29281 -0.0498033 1.24834
v 1.46151 -0.031352 1.14856
v 1.461 -0.0477283 1.14799
v 1.27083 -0.400215 0.88609
v 1.30285 -0.391806 0.8755
v 1.34404 -0.380634 0.86312
v 1.23487 -0.402926 0.897075
v 1.25413 -0.403469 0.891791
v 1.41138 -0.361128 0.845452
v 1.42442 -0.355838 0.839774
v 1.42839 -0.352521 0.835062
v 1.383 -0.369753 0.853003
v 1.32418 -0.214356 1.16732
v 1.36091 -0.211132 1.14895
v 1.40587 -0.207066 1.12424
v 1.28135 -0.215766 1.1846
v 1.30467 -0.215695 1.1768
v 1.4714 -0.200771 1.07543
v 1.4841 -0.199278 1.05935
v 1.48882 -0.198454 1.04732
v 1.44469 -0.203431 1.09815
v 1.48693 2.90664e-06 1.12285
v 1.46215 3.00564e-06 1.14943
v 1.46195 -0.015676 1.14913
v 1.48683 -0.0157635 1.12254
v 1.42476 3.19769e-06 1.17963
v 1.42446 -0.0156526 1.1794
v 1.33912 3.72467e-06 1.22887
v 1.31834 3.85798e-06 1.23961
v 1.31811 -0.0160008 1.2396
v 1.33887 -0.0158576 1.22882
v 1.29409 4.0336e-06 1.24847
v 1.29387 -0.016636 1.24846
v 1.50631 2.8842e-06 1.08912
v 1.49986 2.87698e-06 1.1037
v 1.49976 -0.0158487 1.10349
v 1.50611 -0.0159253 1.08905
v 1.37833 3.47676e-06 1.20795
v 1.37802 -0.0157413 1.20783
v 1.23312 -0.215446 1.19812
v 1.22686 -0.287791 1.13294
v 1.23829 -0.148547 1.24092
v 1.17239 -0.149764 1.26002
v 1.16872 -0.215007 1.21565
v 1.16478 -0.285878 1.1486
v 1.2204 -0.347811 1.05268
v 1.21079 -0.386799 0.972874
v 1.1613 -0.345135 1.06686
v 1.15492 -0.383854 0.986066
v 1.24102 -0.102356 1.25918
v 1.24213 -0.0730376 1.26306
v 1.17539 -0.0763746 1.28299
v 1.17445 -0.104838 1.27897
v 1.15769 -0.375939 0.797424
v 1.1445 -0.354716 0.758205
v 1.17634 -0.394411 0.850011
v 1.12657 -0.391384 0.862547
v 1.11072 -0.37315 0.810383
v 1.09947 -0.352421 0.772031
v 1.24384 -0.0181584 1.26387
v 1.24336 -0.0356232 1.26384
v 1.24407 4.41082e-06 1.26389
v 1.17723 4.91753e-06 1.2839
v 1.17702 -0.0202176 1.28388
v 1.17654 -0.0391001 1.28383
v 1.2428 -0.0526133 1.26373
v 1.17601 -0.0564135 1.28369
v 1.19534 -0.400627 0.90675
v 1.14257 -0.397578 0.919399
v 1.48605 0.0686497 1.12048
v 1.4851 0.0979704 1.11697
v 1.459 0.0976748 1.14303
v 1.46037 0.0683171 1.14685
v 1.4809 0.141228 1.10417
v 1.45442 0.141727 1.12918
v 1.41547 0.142766 1.15818
v 1.42028 0.0977191 1.17321
v 1.42206 0.0682372 1.17724
v 1.39345 0.272328 1.07157
v 1.4319 0.265435 1.04949
v 1.41824 0.314842 0.985716
v 1.38012 0.32508 1.00326
v 1.45873 0.260138 1.02994
v 1.44522 0.307001 0.969887
v 1.42986 0.339474 0.905296
v 1.40242 0.348557 0.917084
v 1.36423 0.360413 0.930438
v 1.3213 0.381315 0.80007
v 1.36142 0.373347 0.792539
v 1.34043 0.36739 0.735165
v 1.29913 0.373268 0.740297
v 1.39106 0.366329 0.789296
v 1.3713 0.36094 0.736098
v 1.35684 0.348636 0.697009
v 1.32507 0.354913 0.692777
v 1.28297 0.359522 0.695944
v 1.33686 0.0690947 1.22782
v 1.33542 0.0990558 1.22401
v 1.31499 0.0995044 1.23511
v 1.3163 0.0694669 1.23885
v 1.33163 0.145869 1.20706
v 1.31152 0.146591 1.21776
v 1.28764 0.147187 1.22627
v 1.29086 0.100368 1.24393
v 1.2921 0.0705351 1.24771
v 1.40454 0.361643 0.786543
v 1.38522 0.356333 0.736179
v 1.4084 0.358406 0.783642
v 1.38899 0.353018 0.73502
v 1.37476 0.340718 0.69949
v 1.37107 0.344028 0.699306
v 1.47138 0.257046 1.01613
v 1.45785 0.30244 0.958626
v 1.47588 0.255245 1.00586
v 1.46214 0.299801 0.950219
v 1.44669 0.330992 0.890213
v 1.44258 0.334138 0.896758
v 1.50459 0.0692298 1.08776
v 1.50324 0.0985405 1.08456
v 1.4979 0.0982722 1.09848
v 1.4989 0.0689609 1.10179
v 1.49865 0.141011 1.07307
v 1.49366 0.141044 1.08642
v 1.36539 0.33117 0.684633
v 1.35105 0.335458 0.681168
v 1.36904 0.328138 0.685497
v 1.36771 0.318222 0.682894
v 1.36408 0.320928 0.681758
v 1.34976 0.324773 0.677848
v 1.31897 0.341321 0.675129
v 1.27668 0.345323 0.677048
v 1.31771 0.330058 0.671105
v 1.2755 0.333706 0.672329
v 1.18012 0.351598 0.742486
v 1.19496 0.355961 0.742242
v 1.19061 0.340215 0.725231
v 1.18665 0.338489 0.726539
v 1.21006 0.357494 0.733168
v 1.20436 0.341777 0.715588
v 1.20351 0.330691 0.710286
v 1.19014 0.32947 0.719956
v 1.18737 0.329031 0.721833
v 1.21362 0.393868 0.840493
v 1.23184 0.394948 0.835116
v 1.21007 0.376985 0.782108
v 1.193 0.375361 0.787207
v 1.24816 0.393251 0.827981
v 1.22597 0.37708 0.773592
v 1.27335 0.287478 1.12119
v 1.29584 0.287473 1.11436
v 1.28613 0.347594 1.03605
v 1.26468 0.347428 1.04207
v 1.31456 0.2852 1.1066
v 1.30404 0.344262 1.02999
v 1.2902 0.382714 0.952291
v 1.273 0.386542 0.95747
v 1.25267 0.386186 0.962955
v 1.37391 0.0983353 1.20225
v 1.37562 0.0686108 1.20622
v 1.36951 0.14439 1.1861
v 1.2412 0.35955 0.713409
v 1.23514 0.344533 0.694859
v 1.23411 0.333085 0.68973
v 1.27988 0.388402 0.814179
v 1.25743 0.37622 0.756372
v 1.34983 0.279609 1.09182
v 1.33783 0.335932 1.01883
v 1.32285 0.373025 0.942956
v 1.42379 0.0313139 1.17895
v 1.42302 0.0476693 1.17841
v 1.37659 0.0479409 1.2072
v 1.37735 0.0314929 1.20756
v 1.33767 0.0482935 1.22856
v 1.33831 0.0317265 1.22873
v 1.50569 0.0318445 1.08889
v 1.5052 0.0484359 1.08863
v 1.49924 0.0482229 1.10271
v 1.49952 0.0316956 1.10309
v 1.48636 0.0479822 1.12149
v 1.48661 0.0315293 1.12199
v 1.31702 0.0486216 1.23948
v 1.3176 0.0319853 1.23958
v 1.29281 0.0498062 1.24834
v 1.29337 0.0330607 1.24844
v 1.461 0.0477314 1.14799
v 1.46151 0.031358 1.14856
v 1.30286 0.389211 0.875554
v 1.27084 0.397474 0.886168
v 1.34405 0.378275 0.863149
v 1.25414 0.400651 0.891883
v 1.23488 0.399967 0.897179
v 1.42443 0.354183 0.839779
v 1.41139 0.359335 0.845459
v 1.4284 0.350924 0.835066
v 1.383 0.367696 0.853017
v 1.36091 0.209984 1.14915
v 1.32418 0.213121 1.16757
v 1.40588 0.206044 1.12438
v 1.30467 0.214459 1.17705
v 1.28135 0.214739 1.18482
v 1.48411 0.198546 1.05939
v 1.4714 0.199993 1.07548
v 1.48882 0.19773 1.04734
v 1.4447 0.202546 1.09823
v 1.48683 0.0157693 1.12254
v 1.46195 0.0156821 1.14913
v 1.42446 0.015659 1.1794
v 1.33887 0.0158651 1.22882
v 1.31811 0.0160085 1.2396
v 1.29387 0.016644 1.24846
v 1.50611 0.0159311 1.08905
v 1.49976 0.0158545 1.10349
v 1.37802 0.0157482 1.20783
v 1.22686 0.286696 1.13316
v 1.23313 0.21493 1.19826
v 1.16478 0.28564 1.14867
v 1.16873 0.21518 1.21566
v 1.17239 0.149973 1.26003
v 1.23829 0.148375 1.24097
v 1.2108 0.384118 0.973085
v 1.22041 0.345926 1.05293
v 1.15492 0.381372 0.98628
v 1.16131 0.343922 1.06702
v 1.24102 0.102327 1.25918
v 1.17445 0.10497 1.27897
v 1.17539 0.0764256 1.28299
v 1.24213 0.0730401 1.26307
v 1.14451 0.350936 0.758208
v 1.1577 0.372142 0.797433
v 1.09948 0.346461 0.772034
v 1.11073 0.367606 0.810392
v 1.12657 0.38662 0.862602
v 1.17634 0.390764 0.850055
v 1.24336 0.035632 1.26384
v 1.24384 0.0181672 1.26387
v 1.17655 0.0391099 1.28383
v 1.17702 0.0202275 1.28388
v 1.24281 0.0526214 1.26373
v 1.17601 0.0564286 1.28369
v 1.19534 0.397348 0.906876
v 1.14258 0.393866 0.919552
v 1.36513 -0.308765 0.678128
v 1.35702 -0.30096 0.662625
v 1.34045 -0.284442 0.631018
v 1.31676 -0.250365 0.58585
v 1.28948 -0.195647 0.534442
v 1.26675 -0.142289 0.495327
v 1.25531 -0.111652 0.483078
v 1.25168 -0.0974512 0.485213
v 1.36514 0.311556 0.678131
v 1.31677 0.250676 0.585852
v 1.34046 0.285531 0.63102
v 1.35702 0.302985 0.662628
v 1.26675 0.142287 0.495328
v 1.28948 0.195657 0.534444
v 1.25168 0.097467 0.485213
v 1.25531 0.111665 0.483079
v 1.25075 0.0391269 0.474261
v 1.25062 0.0699034 0.481596
v 1.25069 0.0870462 0.485729
v 1.25069 -0.0870303 0.485729
v 1.25062 -0.0698876 0.481595
v 1.25075 -0.039111 0.474261
v 1.25082 7.97397e-06 0.47012
v 1.09568 0.331113 0.755545
v 1.0953 0.320989 0.750434
v 1.09529 -0.326797 0.750431
v 1.09568 -0.337095 0.755542
v 1.09317 0.313085 0.742799
v 1.08675 0.303186 0.723608
v 1.07471 0.286143 0.687264
v 1.05818 0.254285 0.637025
v 1.03963 0.204806 0.581101
v 1.02462 0.156882 0.538629
v 1.01761 0.129093 0.524534
v 1.01578 0.115657 0.525932
v 1.01522 0.104743 0.526305
v 1.01481 0.0846884 0.522397
v 1.01432 0.0475395 0.515463
v 1.09317 -0.318674 0.742796
v 1.01405 9.99543e-06 0.511543
v 1.01432 -0.0475195 0.515462
v 1.01481 -0.0846685 0.522396
v 1.01522 -0.104723 0.526304
v 1.01578 -0.115637 0.525931
v 1.0176 -0.129124 0.524533
v 1.02462 -0.157271 0.538628
v 1.03963 -0.206078 0.581099
v 1.05817 -0.256825 0.637023
v 1.07471 -0.290075 0.687261
v 1.08675 -0.308233 0.723605
vt 0.2545 0.8272
vt 0.1833 0.7838
vt 0.2685 0.8006
vt 0.2604 0.7214
vt 0.2463 0.8261
vt 0.3489 0.6685
vt 0.4735 0.6681
vt 0.262 0.7222
vt 0.2406 0.8161
vt 0.4038 0.7064
vt 0.1762 0.7923
vt 0.2921 0.7901
vt 0.4721 0.6492
vt 0.4735 0.6681
vt 0.3008 0.7527
vt 0.2559 0.813
vt 0.1769 0.7995
vt 0.3967 0.6916
vt 0.425 0.6994
vt 0.1727 0.7963
vt 0.163 0.8297
vt 0.1734 0.7968
vt 0.4759 0.6854
vt 0.3136 0.7585
vt 0.2496 0.8202
vt 0.1755 0.7918
vt 0.2385 0.8195
vt 0.2374 0.8216
vt 0.1727 0.7963
vt 0.1705 0.8344
vt 0.3722 0.6533
vt 0.2474 0.8238
vt 0.175 0.8024
vt 0.2567 0.8234
vt 0.2579 0.7263
vt 0.4843 0.6846
vt 0.1755 0.8262
vt 0.1762 0.7923
vt 0.3233 0.7497
vt 0.2545 0.8272
vt 0.1841 0.7844
vt 0.3967 0.6916
vt 0.1687 0.8214
vt 0.4817 0.6482
vt 0.3266 0.7603
vt 0.2474 0.8238
vt 0.1799 0.7953
vt 0.3753 0.7003
vt 0.2474 0.8238
vt 0.1734 0.7968
vt 0.1801 0.8405
vt 0.3722 0.6533
vt 0.3096 0.7419
vt 0.2496 0.8202
vt 0.3233 0.7497
vt 0.1755 0.8262
vt 0.2567 0.8234
vt 0.2576 0.7262
vt 0.2496 0.8202
vt 0.2663 0.715
vt 0.2662 0.7272
vt 0.1755 0.8262
vt 0.4759 0.6854
vt 0.2596 0.723
vt 0.2474 0.8238
vt 0.1714 0.7999
vt 0.1882 0.826
vt 0.175 0.8024
vt 0.2633 0.8162
vt 0.2576 0.7262
vt 0.4771 0.6986
vt 0.262 0.7222
vt 0.4759 0.6854
vt 0.4196 0.684
vt 0.1762 0.7923
vt 0.1794 0.8198
vt 0.1762 0.7923
vt 0.1755 0.7918
vt 0.4038 0.7064
vt 0.4038 0.7064
vt 0.1799 0.7953
vt 0.1687 0.8214
vt 0.4832 0.6672
vt 0.2385 0.8195
vt 0.1713 0.8061
vt 0.4843 0.6846
vt 0.1841 0.7844
vt 0.384 0.714
vt 0.1714 0.7999
vt 0.1732 0.8169
vt 0.2606 0.7218
vt 0.1569 0.8203
vt 0.2627 0.732
vt 0.2662 0.7272
vt 0.1549 0.8239
vt 0.1734 0.7968
vt 0.1621 0.8131
vt 0.188 0.7877
vt 0.2589 0.7271
vt 0.3223 0.7325
vt 0.2627 0.732
vt 0.2526 0.8429
vt 0.1734 0.7968
vt 0.3389 0.7215
vt 0.1769 0.7995
vt 0.409 0.7179
vt 0.2662 0.7272
vt 0.2507 0.8424
vt 0.3033 0.7485
vt 0.4289 0.7116
vt 0.4564 0.6521
vt 0.2831 0.7315
vt 0.2487 0.8519
vt 0.3353 0.7418
vt 0.1708 0.7994
vt 0.2752 0.7387
vt 0.2505 0.8522
vt 0.2691 0.7145
vt 0.2546 0.8434
vt 0.2736 0.7196
vt 0.3167 0.7552
vt 0.2526 0.8429
vt 0.3033 0.7485
vt 0.2526 0.8429
vt 0.3167 0.7552
vt 0.2546 0.8434
vt 0.2606 0.7218
vt 0.2578 0.8365
vt 0.3022 0.688
vt 0.1676 0.8043
vt 0.2556 0.8357
vt 0.3316 0.7643
vt 0.2507 0.8424
vt 0.3266 0.7603
vt 0.2526 0.8429
vt 0.4113 0.727
vt 0.2691 0.7145
vt 0.2387 0.8381
vt 0.3717 0.652
vt 0.2533 0.8297
vt 0.2736 0.7196
vt 0.2556 0.8357
vt 0.2604 0.7214
vt 0.2328 0.8345
vt 0.4497 0.6735
vt 0.4303 0.7215
vt 0.2662 0.7272
vt 0.4111 0.7241
vt 0.3309 0.763
vt 0.2364 0.8448
vt 0.4721 0.6492
vt 0.2663 0.715
vt 0.2409 0.8478
vt 0.2387 0.8381
vt 0.2975 0.7202
vt 0.2831 0.7315
vt 0.3353 0.7418
vt 0.2828 0.7577
vt 0.3353 0.7418
vt 0.2387 0.8381
vt 0.2975 0.7202
vt 0.3069 0.6945
vt 0.3223 0.7325
vt 0.2328 0.8345
vt 0.31 0.7362
vt 0.3449 0.749
vt 0.2752 0.7387
vt 0.2344 0.8293
vt 0.2881 0.7082
vt 0.4033 0.6509
vt 0.3505 0.7324
vt 0.2957 0.7474
vt 0.3096 0.7419
vt 0.494 0.6666
vt 0.3813 0.6714
vt 0.3749 0.6589
vt 0.2586 0.829
vt 0.3158 0.7065
vt 0.3592 0.7408
vt 0.4934 0.6473
vt 0.2872 0.7541
vt 0.4882 0.6477
vt 0.2713 0.743
vt 0.2556 0.8357
vt 0.1931 0.8184
vt 0.4927 0.6319
vt 0.2548 0.73
vt 0.48 0.6265
vt 0.1851 0.8059
vt 0.3377 0.7589
vt 0.2496 0.7358
vt 0.2573 0.8317
vt 0.485 0.7048
vt 0.2 0.772
vt 0.4882 0.6477
vt 0.2 0.772
vt 0.2586 0.829
vt 0.188 0.7877
vt 0.4706 0.6345
vt 0.3665 0.6965
vt 0.3377 0.7589
vt 0.2573 0.8317
vt 0.1841 0.7844
vt 0.4882 0.6477
vt 0.1833 0.7838
vt 0.2596 0.8326
vt 0.2576 0.7262
vt 0.4698 0.6279
vt 0.3899 0.6879
vt 0.349 0.7527
vt 0.2596 0.8326
vt 0.2548 0.73
vt 0.4873 0.6325
vt 0.2511 0.7332
vt 0.3449 0.749
vt 0.1851 0.8059
vt 0.4537 0.6312
vt 0.2541 0.7298
vt 0.2573 0.8317
vt 0.1989 0.7714
vt 0.4805 0.6332
vt 0.2586 0.829
vt 0.2548 0.73
vt 0.4535 0.6297
vt 0.1713 0.8061
vt 0.1989 0.7714
vt 0.4817 0.6482
vt 0.2545 0.8272
vt 0.204 0.7756
vt 0.4697 0.6264
vt 0.415 0.6814
vt 0.2578 0.8365
vt 0.2589 0.7271
vt 0.4882 0.6477
vt 0.2487 0.7348
vt 0.4698 0.6279
vt 0.3489 0.6685
vt 0.4832 0.6672
vt 0.3813 0.6714
vt 0.182 0.8104
vt 0.4698 0.6279
vt 0.1942 0.8168
vt 0.4537 0.6312
vt 0.4945 0.7073
vt 0.196 0.8145
vt 0.196 0.8145
vt 0.349 0.7527
vt 0.4697 0.6264
vt 0.2541 0.7298
vt 0.4904 0.7041
vt 0.2591 0.7359
vt 0.349 0.7527
vt 0.188 0.7877
vt 0.3628 0.7452
vt 0.1851 0.8059
vt 0.4548 0.6376
vt 0.2608 0.83
vt 0.2 0.772
vt 0.4902 0.7078
vt 0.2543 0.7299
vt 0.2533 0.8297
vt 0.2579 0.7263
vt 0.4772 0.7058
vt 0.2197 0.7576
vt 0.4946 0.7036
vt 0.204 0.7756
vt 0.4847 0.7085
vt 0.2 0.772
vt 0.3449 0.749
vt 0.2577 0.7258
vt 0.4799 0.6249
vt 0.4904 0.7041
vt 0.2543 0.7299
vt 0.1769 0.7995
vt 0.1883 0.8021
vt 0.4904 0.7041
vt 0.1883 0.8021
vt 0.1841 0.7844
vt 0.4904 0.697
vt 0.2235 0.7617
vt 0.4849 0.6976
vt 0.1851 0.8059
vt 0.4657 0.7082
vt 0.2487 0.7348
vt 0.4799 0.6249
vt 0.3008 0.7527
vt 0.2473 0.7355
vt 0.4653 0.701
vt 0.4772 0.7058
vt 0.3564 0.6805
vt 0.48 0.6265
vt 0.3279 0.7666
vt 0.3195 0.7718
vt 0.4771 0.6986
vt 0.4873 0.6325
vt 0.3252 0.7687
vt 0.2543 0.7299
vt 0.4769 0.7097
vt 0.4869 0.6256
vt 0.3244 0.7676
vt 0.48 0.6265
vt 0.1799 0.7953
vt 0.1997 0.8113
vt 0.4805 0.6332
vt 0.4083 0.664
vt 0.4947 0.6966
vt 0.3564 0.6805
vt 0.182 0.8104
vt 0.4945 0.6839
vt 0.49 0.6842
vt 0.1883 0.8021
vt 0.1968 0.7951
vt 0.4904 0.697
vt 0.2589 0.7271
vt 0.4945 0.6839
vt 0.4083 0.664
vt 0.1833 0.8084
vt 0.494 0.6666
vt 0.2579 0.7263
vt 0.4832 0.6672
vt 0.3252 0.7687
vt 0.3205 0.7728
vt 0.4843 0.6846
vt 0.3271 0.7655
vt 0.3244 0.7676
vt 0.4904 0.697
vt 0.49 0.6842
vt 0.2131 0.7837
vt 0.4849 0.6976
vt 0.2586 0.829
vt 0.294 0.7602
vt 0.2567 0.8234
vt 0.204 0.7756
vt 0.2324 0.7707
vt 0.3489 0.6685
vt 0.4657 0.7082
vt 0.3204 0.7653
vt 0.3267 0.6807
vt 0.3111 0.7611
vt 0.2609 0.8252
vt 0.2131 0.7837
vt 0.3231 0.7631
vt 0.335 0.6926
vt 0.4653 0.712
vt 0.3154 0.7696
vt 0.2609 0.8252
vt 0.2086 0.8051
vt 0.2251 0.7946
vt 0.335 0.6926
vt 0.2631 0.8262
vt 0.3204 0.7653
vt 0.3158 0.7065
vt 0.3062 0.7655
vt 0.3277 0.7224
vt 0.2986 0.7556
vt 0.2577 0.7258
vt 0.4771 0.6986
vt 0.2828 0.7019
vt 0.409 0.7179
vt 0.4721 0.6492
vt 0.2463 0.8261
vt 0.2881 0.7082
vt 0.2496 0.8202
vt 0.1833 0.8084
vt 0.4849 0.6976
vt 0.2627 0.732
vt 0.3628 0.7452
vt 0.4111 0.7241
vt 0.3244 0.7676
vt 0.4698 0.6279
vt 0.2732 0.7645
vt 0.2554 0.7312
vt 0.3931 0.7304
vt 0.175 0.8024
vt 0.3334 0.7558
vt 0.2533 0.8297
vt 0.3457 0.6631
vt 0.4113 0.727
vt 0.3111 0.7611
vt 0.2633 0.8162
vt 0.3233 0.7497
vt 0.2752 0.7387
vt 0.3136 0.7585
vt 0.2609 0.8252
vt 0.3111 0.7611
vt 0.2608 0.83
vt 0.3136 0.7585
vt 0.2674 0.8179
vt 0.2986 0.7556
vt 0.4772 0.7058
vt 0.3062 0.7655
vt 0.2567 0.8234
vt 0.3111 0.7611
vt 0.2752 0.7387
vt 0.2545 0.8272
vt 0.2831 0.7315
vt 0.3334 0.7558
vt 0.2872 0.7541
vt 0.3505 0.7324
vt 0.2713 0.743
vt 0.3233 0.7497
vt 0.2881 0.7082
vt 0.3449 0.749
vt 0.2975 0.7202
vt 0.3353 0.7418
vn 0.769 -0.07532 0.6347
vn 0.6658 -0.09314 0.7403
vn 0.6449 -0.2087 0.7352
vn 0.7509 -0.1818 0.6348
vn 0.5726 -0.1043 0.8132
vn 0.5574 -0.2276 0.7984
vn 0.5218 -0.3894 0.7589
vn 0.603 -0.3657 0.7089
vn 0.7114 -0.3319 0.6194
vn 0.4311 -0.6826 0.5901
vn 0.3935 -0.812 0.431
vn 0.4385 -0.7999 0.4098
vn 0.4943 -0.666 0.5586
vn 0.3511 -0.9024 0.2497
vn 0.3786 -0.8907 0.2515
vn 0.4484 -0.8618 0.237
vn 0.5212 -0.7678 0.3724
vn 0.592 -0.6311 0.5012
vn 0.1602 -0.9791 -0.1249
vn 0.06073 -0.9608 -0.2704
vn 0.1905 -0.937 -0.2926
vn 0.2225 -0.9684 -0.1129
vn -0.03385 -0.8759 -0.4814
vn 0.1815 -0.8325 -0.5235
vn 0.3111 -0.7724 -0.5536
vn 0.2852 -0.9014 -0.3258
vn 0.2919 -0.9487 -0.1215
vn 0.4787 -0.09287 0.873
vn 0.4092 -0.08689 0.9083
vn 0.4017 -0.2373 0.8845
vn 0.4725 -0.2351 0.8494
vn 0.3207 -0.08631 0.9432
vn 0.3135 -0.2451 0.9174
vn 0.2837 -0.4403 0.8518
vn 0.3717 -0.4253 0.8252
vn 0.4433 -0.4136 0.7952
vn 0.4321 -0.8224 -0.3699
vn 0.4444 -0.8799 -0.1679
vn 0.4496 -0.6869 -0.5709
vn 0.7748 -0.3486 -0.5273
vn 0.7953 -0.4249 -0.4322
vn 0.8112 -0.4783 -0.3364
vn 0.6792 -0.6791 0.2783
vn 0.7465 -0.5495 0.3753
vn 0.6083 -0.776 0.1665
vn 0.8995 -0.41 -0.1504
vn 0.929 -0.3599 -0.08557
vn 0.9556 -0.293 -0.02948
vn 0.9994 -0.03226 0.01004
vn 0.8775 -0.06244 0.4754
vn 0.8699 -0.1519 0.4692
vn 0.9968 -0.0788 0.01065
vn 0.8446 -0.2818 0.4552
vn 0.9895 -0.1447 0.0005188
vn 0.3063 -0.4832 -0.8201
vn 0.4129 -0.4264 -0.8047
vn 0.3074 -0.3855 -0.8699
vn 0.4076 -0.3238 -0.8538
vn 0.7482 -0.1687 -0.6416
vn 0.7114 -0.2089 -0.6709
vn -0.1379 -0.6047 -0.7844
vn 0.1506 -0.55 -0.8215
vn -0.1451 -0.5023 -0.8524
vn 0.1557 -0.4392 -0.8848
vn -0.2276 -0.7884 -0.5714
vn -0.3359 -0.5716 -0.7486
vn -0.4347 -0.584 -0.6856
vn -0.2824 -0.8289 -0.4828
vn -0.405 -0.5394 -0.7383
vn -0.5148 -0.5287 -0.6749
vn -0.5098 -0.5319 -0.6761
vn -0.4897 -0.5788 -0.6521
vn -0.3216 -0.8354 -0.4457
vn -0.1012 -0.9779 -0.1828
vn -0.1608 -0.9217 -0.3529
vn -0.1645 -0.9286 -0.3327
vn -0.04056 -0.9807 -0.1914
vn -0.1408 -0.9411 -0.3072
vn 0.03958 -0.9804 -0.1927
vn 0.1752 -0.7281 0.6626
vn 0.1126 -0.8499 0.5148
vn 0.2245 -0.8407 0.4928
vn 0.272 -0.7149 0.6441
vn 0.04901 -0.9458 0.321
vn 0.1748 -0.941 0.2898
vn 0.3035 -0.9184 0.2539
vn 0.3353 -0.8213 0.4615
vn 0.3618 -0.6979 0.618
vn 0.5061 -0.1017 0.8564
vn 0.4977 -0.2351 0.8348
vn 0.4679 -0.405 0.7855
vn -0.392 -0.6026 -0.695
vn -0.2335 -0.866 -0.4421
vn -0.4124 -0.5261 -0.7437
vn -0.06714 -0.9587 -0.2763
vn 0.09674 -0.9828 -0.1575
vn 0.365 -0.8165 0.4472
vn 0.3893 -0.6917 0.6083
vn 0.3359 -0.9087 0.2477
vn 0.5763 -0.047 0.8159
vn 0.5006 -0.03815 0.8648
vn 0.5038 -0.05194 0.8622
vn 0.5758 -0.05881 0.8155
vn 0.4704 -0.02646 0.882
vn 0.4747 -0.04041 0.8792
vn 0.9998 -0.01489 0.01511
vn 0.8752 -0.02811 0.4828
vn 0.8765 -0.03372 0.4801
vn 0.9997 -0.01819 0.01288
vn 0.7782 -0.03406 0.627
vn 0.775 -0.03995 0.6307
vn 0.405 -0.01791 0.9142
vn 0.4072 -0.03186 0.9128
vn 0.3195 -0.01358 0.9475
vn 0.32 -0.02817 0.947
vn 0.6777 -0.04434 0.734
vn 0.6736 -0.05264 0.7372
vn 0.2062 -0.9785 0.005737
vn 0.2481 -0.9684 0.02353
vn 0.2703 -0.9613 0.05344
vn -0.02725 -0.9977 0.06195
vn 0.08383 -0.9959 0.03269
vn 0.3612 -0.929 0.08023
vn 0.5217 -0.8527 0.02561
vn 0.8557 -0.4637 -0.2295
vn 0.2977 -0.9515 0.07782
vn 0.4021 -0.5589 0.7252
vn 0.4274 -0.5492 0.7181
vn 0.4765 -0.5342 0.6982
vn 0.2355 -0.5906 0.7718
vn 0.3255 -0.5745 0.751
vn 0.6574 -0.4767 0.5835
vn 0.8038 -0.4096 0.4314
vn 0.9774 -0.2113 -0.008393
vn 0.5509 -0.5123 0.6588
vn 0.7814 0 0.624
vn 0.6811 0 0.7322
vn 0.6801 -0.03272 0.7324
vn 0.7804 -0.02594 0.6247
vn 0.5763 0 0.8172
vn 0.5763 -0.03311 0.8166
vn 0.4658 0 0.8849
vn 0.4028 0 0.9153
vn 0.4034 -0.01126 0.9149
vn 0.4671 -0.0173 0.884
vn 0.3192 0 0.9477
vn 0.3193 -0.008026 0.9476
vn 0.9998 0 0.01923
vn 0.8748 0 0.4845
vn 0.8748 -0.02063 0.4841
vn 0.9998 -0.01047 0.01782
vn 0.4969 0 0.8678
vn 0.4979 -0.02582 0.8668
vn 0.2079 -0.6049 0.7686
vn 0.1492 -0.7375 0.6586
vn 0.2557 -0.4553 0.8528
vn -0.5136 -0.3453 0.7855
vn -0.5442 -0.4477 0.7095
vn -0.5722 -0.535 0.6215
vn 0.08905 -0.8538 0.5128
vn 0.02811 -0.9464 0.3216
vn -0.6001 -0.6147 0.5118
vn -0.6194 -0.6913 0.372
vn 0.2854 -0.2546 0.9239
vn 0.2922 -0.0889 0.9522
vn -0.5008 -0.06931 0.8628
vn -0.4895 -0.1977 0.8492
vn -0.1516 -0.9212 -0.3582
vn -0.2043 -0.819 -0.5361
vn -0.1067 -0.9768 -0.1856
vn -0.7209 -0.693 -0.002045
vn -0.7584 -0.6413 -0.1163
vn -0.7826 -0.5739 -0.2412
vn 0.2908 -0.007111 0.9567
vn 0.291 -0.01285 0.9566
vn 0.2907 0 0.9568
vn -0.5062 0 0.8624
vn -0.5082 -0.005188 0.8612
vn -0.5105 -0.009705 0.8598
vn 0.2914 -0.02829 0.9561
vn -0.5092 -0.02188 0.8603
vn -0.04248 -0.9971 0.0625
vn -0.6611 -0.7295 0.1753
vn 0.769 0.07541 0.6348
vn 0.7508 0.1824 0.6348
vn 0.6447 0.2094 0.7352
vn 0.6658 0.0933 0.7403
vn 0.7108 0.3337 0.6191
vn 0.6024 0.3676 0.7085
vn 0.5212 0.3914 0.7584
vn 0.5572 0.2285 0.7983
vn 0.5725 0.1045 0.8132
vn 0.4285 0.6861 0.5878
vn 0.4911 0.6697 0.557
vn 0.4336 0.8031 0.4086
vn 0.3895 0.8149 0.4291
vn 0.5888 0.6348 0.5002
vn 0.5163 0.7714 0.372
vn 0.4425 0.8643 0.2392
vn 0.3728 0.8927 0.2532
vn 0.3464 0.904 0.2506
vn 0.1517 0.9823 -0.1098
vn 0.2088 0.9738 -0.08936
vn 0.1643 0.9515 -0.2598
vn 0.04523 0.9673 -0.2495
vn 0.2789 0.9559 -0.09174
vn 0.2596 0.9228 -0.2845
vn 0.2799 0.8011 -0.529
vn 0.1491 0.852 -0.5018
vn -0.05445 0.8839 -0.4645
vn 0.4787 0.09311 0.873
vn 0.4724 0.2358 0.8492
vn 0.4019 0.2379 0.8842
vn 0.4092 0.08707 0.9083
vn 0.443 0.4153 0.7945
vn 0.3724 0.4267 0.8241
vn 0.2854 0.4415 0.8506
vn 0.314 0.2456 0.9171
vn 0.3208 0.08646 0.9432
vn 0.4422 0.8858 -0.1405
vn 0.4259 0.8416 -0.3319
vn 0.8172 0.4785 -0.3212
vn 0.801 0.433 -0.4133
vn 0.7765 0.3598 -0.5173
vn 0.4386 0.7123 -0.5479
vn 0.7441 0.5531 0.3747
vn 0.6754 0.6829 0.2784
vn 0.9549 0.2953 -0.02969
vn 0.9281 0.3624 -0.0856
vn 0.8989 0.4118 -0.1494
vn 0.6038 0.779 0.1689
vn 0.9994 0.03229 0.01004
vn 0.9968 0.0791 0.01068
vn 0.8698 0.1524 0.4691
vn 0.8775 0.0625 0.4754
vn 0.9893 0.1456 0.0005493
vn 0.8442 0.2834 0.455
vn 0.4045 0.4346 -0.8047
vn 0.2848 0.4946 -0.8211
vn 0.7092 0.2074 -0.6738
vn 0.7487 0.1572 -0.6439
vn 0.3993 0.3032 -0.8652
vn 0.2913 0.3716 -0.8815
vn 0.1269 0.5584 -0.8198
vn -0.1544 0.6074 -0.7792
vn 0.1366 0.4328 -0.8911
vn -0.1593 0.5006 -0.8509
vn -0.2551 0.7908 -0.5563
vn -0.2944 0.8321 -0.4699
vn -0.441 0.5874 -0.6785
vn -0.3532 0.5742 -0.7385
vn -0.3233 0.839 -0.4377
vn -0.4916 0.5815 -0.6482
vn -0.5114 0.5342 -0.6731
vn -0.5159 0.5314 -0.6718
vn -0.4149 0.5401 -0.7322
vn -0.1184 0.9777 -0.1734
vn -0.0491 0.9821 -0.1815
vn -0.1763 0.9309 -0.3197
vn -0.1863 0.9225 -0.3379
vn 0.03763 0.9821 -0.1844
vn -0.1424 0.9439 -0.2978
vn 0.1809 0.7308 0.6582
vn 0.2745 0.7174 0.6403
vn 0.2263 0.8426 0.4887
vn 0.1181 0.8525 0.5092
vn 0.3607 0.7011 0.6151
vn 0.3333 0.8237 0.4586
vn 0.3007 0.9193 0.2538
vn 0.174 0.9416 0.2884
vn 0.04987 0.9471 0.3169
vn 0.4975 0.2359 0.8347
vn 0.506 0.102 0.8564
vn 0.4673 0.4069 0.7848
vn -0.2404 0.8696 -0.4313
vn -0.3987 0.6043 -0.6898
vn -0.418 0.5272 -0.7398
vn 0.09354 0.9846 -0.1478
vn -0.07187 0.9618 -0.2641
vn 0.3873 0.6951 0.6057
vn 0.3619 0.8192 0.4447
vn 0.3322 0.91 0.248
vn 0.5763 0.047 0.8159
vn 0.5758 0.05887 0.8155
vn 0.5038 0.052 0.8622
vn 0.5006 0.03815 0.8648
vn 0.4747 0.04047 0.8792
vn 0.4704 0.02643 0.882
vn 0.9998 0.01489 0.01511
vn 0.9997 0.01819 0.01288
vn 0.8765 0.03372 0.4801
vn 0.8752 0.02811 0.4828
vn 0.775 0.03995 0.6307
vn 0.7782 0.03403 0.627
vn 0.4072 0.03192 0.9128
vn 0.405 0.01791 0.9142
vn 0.32 0.0282 0.947
vn 0.3195 0.01358 0.9475
vn 0.6736 0.05267 0.7372
vn 0.6777 0.04431 0.734
vn 0.2447 0.9692 0.02872
vn 0.2036 0.979 0.01038
vn 0.265 0.9623 0.06034
vn 0.07941 0.9962 0.03696
vn -0.0347 0.9973 0.06366
vn 0.5184 0.8543 0.03619
vn 0.3544 0.9306 0.09174
vn 0.8577 0.4628 -0.2239
vn 0.2905 0.9528 0.08747
vn 0.4263 0.5521 0.7165
vn 0.4015 0.5616 0.7234
vn 0.4751 0.5372 0.6968
vn 0.3271 0.5767 0.7486
vn 0.2392 0.5926 0.7692
vn 0.8026 0.4124 0.431
vn 0.6558 0.4798 0.5828
vn 0.977 0.213 -0.008515
vn 0.5492 0.5155 0.6577
vn 0.7804 0.02591 0.6247
vn 0.6801 0.03269 0.7324
vn 0.5763 0.03311 0.8166
vn 0.4671 0.01727 0.884
vn 0.4034 0.01123 0.9149
vn 0.3193 0.007996 0.9476
vn 0.9998 0.01047 0.01782
vn 0.8748 0.0206 0.4841
vn 0.4979 0.02582 0.8668
vn 0.1558 0.7402 0.654
vn 0.2123 0.6064 0.7663
vn -0.5693 0.5394 0.6204
vn -0.5423 0.4498 0.7096
vn -0.5126 0.346 0.7858
vn 0.2577 0.4558 0.8519
vn 0.0282 0.9492 0.3132
vn 0.09488 0.8574 0.5057
vn -0.6197 0.6952 0.3643
vn -0.5977 0.6203 0.5078
vn 0.286 0.2546 0.9237
vn -0.4893 0.1977 0.8494
vn -0.5008 0.06922 0.8628
vn 0.2923 0.08887 0.9522
vn -0.2382 0.8179 -0.5238
vn -0.1818 0.9194 -0.3488
vn -0.7939 0.5621 -0.2318
vn -0.769 0.6294 -0.1114
vn -0.7295 0.6839 -0.003815
vn -0.1274 0.9748 -0.1832
vn 0.291 0.01285 0.9566
vn 0.2908 0.00708 0.9567
vn -0.5105 0.009705 0.8598
vn -0.5082 0.005188 0.8612
vn 0.2915 0.02829 0.9561
vn -0.5092 0.02185 0.8603
vn -0.05225 0.997 0.05747
vn -0.6661 0.7268 0.1675
vn 0.7888 -0.2453 -0.5635
vn 0.8201 -0.2723 -0.5033
vn 0.8353 -0.2205 -0.5036
vn 0.8603 -0.1263 -0.4939
vn 0.8858 -0.0448 -0.4618
vn 0.9016 0.02603 -0.4317
vn 0.9035 0.1193 -0.4117
vn 0.9122 0.09742 -0.398
vn 0.7912 0.2288 -0.5671
vn 0.8611 0.1227 -0.4934
vn 0.8377 0.2091 -0.5046
vn 0.8237 0.2539 -0.5069
vn 0.9016 -0.02606 -0.4317
vn 0.8859 0.04434 -0.4617
vn 0.9122 -0.09742 -0.3981
vn 0.9034 -0.1193 -0.4117
vn 0.9469 0.03308 -0.3197
vn 0.9323 0.0495 -0.3582
vn 0.9222 -0.002014 -0.3867
vn 0.9222 0.001984 -0.3867
vn 0.9323 -0.0495 -0.3582
vn 0.9469 -0.03311 -0.3197
vn 0.9542 0 -0.2991
vn -0.8192 0.417 -0.3936
vn -0.8166 0.4091 -0.4071
vn -0.8086 -0.4082 -0.4235
vn -0.8104 -0.4245 -0.4038
vn -0.7866 0.5694 -0.239
vn -0.7872 0.6053 -0.1176
vn -0.7856 0.6001 -0.1505
vn -0.8019 0.5519 -0.2289
vn -0.8219 0.489 -0.292
vn -0.8325 0.4069 -0.376
vn -0.8499 0.162 -0.5014
vn -0.8979 -0.01428 -0.4399
vn -0.8907 0.0549 -0.4512
vn -0.8931 0.1171 -0.4342
vn -0.8913 0.0853 -0.4454
vn -0.7764 -0.5731 -0.2621
vn -0.8907 0 -0.4546
vn -0.8913 -0.0853 -0.4454
vn -0.8931 -0.1171 -0.4342
vn -0.8907 -0.0549 -0.4512
vn -0.8979 0.01425 -0.4399
vn -0.8502 -0.1605 -0.5014
vn -0.8326 -0.4039 -0.3789
vn -0.8209 -0.4866 -0.2988
vn -0.799 -0.551 -0.2408
vn -0.7801 -0.6025 -0.1685
vn -0.7792 -0.611 -0.1394
f 1/1/1 2/2/2 3/3/3
f 1/1/1 3/3/3 4/4/4
f 2/2/2 5/5/5 6/6/6
f 2/2/2 6/6/6 3/3/3
f 3/3/3 6/6/6 7/7/7
f 3/3/3 7/7/7 8/8/8
f 4/4/4 3/3/3 8/8/8
f 4/4/4 8/8/8 9/9/9
f 10/10/10 11/11/11 12/12/12
f 10/10/10 12/12/12 13/13/13
f 11/11/11 14/14/14 15/15/15
f 11/11/11 15/15/15 12/12/12
f 12/12/12 15/15/15 16/16/16
f 12/12/12 16/16/16 17/17/17
f 13/13/13 12/12/12 17/17/17
f 13/13/13 17/17/17 18/18/18
f 19/19/19 20/20/20 21/21/21
f 19/19/19 21/21/21 22/22/22
f 20/20/20 23/23/23 24/24/24
f 20/20/20 24/24/24 21/21/21
f 21/21/21 24/24/24 25/25/25
f 21/21/21 25/25/25 26/26/26
f 22/22/22 21/21/21 26/26/26
f 22/22/22 26/26/26 27/27/27
f 28/28/28 29/29/29 30/30/30
f 28/28/28 30/30/30 31/31/31
f 29/29/29 32/32/32 33/33/33
f 29/29/29 33/33/33 30/30/30
f 30/30/30 33/33/33 34/34/34
f 30/30/30 34/34/34 35/35/35
f 31/31/31 30/30/30 35/35/35
f 31/31/31 35/35/35 36/36/36
f 27/27/27 26/26/26 37/37/37
f 27/27/27 37/37/37 38/38/38
f 26/26/26 25/25/25 39/39/39
f 26/26/26 39/39/39 37/37/37
f 37/37/37 39/39/39 40/40/40
f 37/37/37 40/40/40 41/41/41
f 38/38/38 37/37/37 41/41/41
f 38/38/38 41/41/41 42/42/42
f 18/18/18 17/17/17 43/43/43
f 18/18/18 43/43/43 44/44/44
f 17/17/17 16/16/16 45/45/45
f 17/17/17 45/45/45 43/43/43
f 43/43/43 45/45/45 46/46/46
f 43/43/43 46/46/46 47/47/47
f 44/44/44 43/43/43 47/47/47
f 44/44/44 47/47/47 48/48/48
f 49/49/49 50/50/50 51/51/51
f 49/49/49 51/51/51 52/52/52
f 50/50/50 1/1/1 4/4/4
f 50/50/50 4/4/4 51/51/51
f 51/51/51 4/4/4 9/9/9
f 51/51/51 9/9/9 53/53/53
f 52/52/52 51/51/51 53/53/53
f 52/52/52 53/53/53 54/54/54
f 25/25/25 55/55/55 56/56/56
f 25/25/25 56/56/56 39/39/39
f 55/55/55 57/57/57 58/58/58
f 55/55/55 58/58/58 56/56/56
f 56/56/56 58/58/58 59/59/59
f 56/56/56 59/59/59 60/60/60
f 39/39/39 56/56/56 60/60/60
f 39/39/39 60/60/60 40/40/40
f 23/23/23 61/61/61 62/62/62
f 23/23/23 62/62/62 24/24/24
f 61/61/61 63/63/63 64/64/64
f 61/61/61 64/64/64 62/62/62
f 62/62/62 64/64/64 57/57/57
f 62/62/62 57/57/57 55/55/55
f 24/24/24 62/62/62 55/55/55
f 24/24/24 55/55/55 25/25/25
f 65/65/65 66/66/66 67/67/67
f 65/65/65 67/67/67 68/68/68
f 66/66/66 69/69/69 70/70/70
f 66/66/66 70/70/70 67/67/67
f 67/67/67 70/70/70 71/71/71
f 67/67/67 71/71/71 72/72/72
f 68/68/68 67/67/67 72/72/72
f 68/68/68 72/72/72 73/73/73
f 74/74/74 75/75/75 76/76/76
f 74/74/74 76/76/76 77/77/77
f 75/75/75 65/65/65 68/68/68
f 75/75/75 68/68/68 76/76/76
f 76/76/76 68/68/68 73/73/73
f 76/76/76 73/73/73 78/78/78
f 77/77/77 76/76/76 78/78/78
f 77/77/77 78/78/78 79/79/79
f 80/80/80 81/81/81 82/82/82
f 80/80/80 82/82/82 83/83/83
f 81/81/81 84/84/84 85/85/85
f 81/81/81 85/85/85 82/82/82
f 82/82/82 85/85/85 86/86/86
f 82/82/82 86/86/86 87/87/87
f 83/83/83 82/82/82 87/87/87
f 83/83/83 87/87/87 88/88/88
f 5/5/5 89/89/89 90/90/90
f 5/5/5 90/90/90 6/6/6
f 89/89/89 28/28/28 31/31/31
f 89/89/89 31/31/31 90/90/90
f 90/90/90 31/31/31 36/36/36
f 90/90/90 36/36/36 91/91/91
f 6/6/6 90/90/90 91/91/91
f 6/6/6 91/91/91 7/7/7
f 73/73/73 72/72/72 92/92/92
f 73/73/73 92/92/92 93/93/93
f 72/72/72 71/71/71 94/94/94
f 72/72/72 94/94/94 92/92/92
f 92/92/92 94/94/94 63/63/63
f 92/92/92 63/63/63 61/61/61
f 93/93/93 92/92/92 61/61/61
f 93/93/93 61/61/61 23/23/23
f 79/79/79 78/78/78 95/95/95
f 79/79/79 95/95/95 96/96/96
f 78/78/78 73/73/73 93/93/93
f 78/78/78 93/93/93 95/95/95
f 95/95/95 93/93/93 23/23/23
f 95/95/95 23/23/23 20/20/20
f 96/96/96 95/95/95 20/20/20
f 96/96/96 20/20/20 19/19/19
f 88/88/88 87/87/87 97/97/97
f 88/88/88 97/97/97 98/98/98
f 87/87/87 86/86/86 99/99/99
f 87/87/87 99/99/99 97/97/97
f 97/97/97 99/99/99 14/14/14
f 97/97/97 14/14/14 11/11/11
f 98/98/98 97/97/97 11/11/11
f 98/98/98 11/11/11 10/10/10
f 100/100/100 101/101/101 102/102/102
f 100/100/100 102/102/102 103/103/103
f 101/101/101 104/104/104 105/105/105
f 101/101/101 105/105/105 102/102/102
f 102/102/102 105/105/105 28/28/28
f 102/102/102 28/28/28 89/89/89
f 103/103/103 102/102/102 89/89/89
f 103/103/103 89/89/89 5/5/5
f 106/106/106 107/107/107 108/108/108
f 106/106/106 108/108/108 109/109/109
f 107/107/107 110/110/110 111/111/111
f 107/107/107 111/111/111 108/108/108
f 108/108/108 111/111/111 1/1/1
f 108/108/108 1/1/1 50/50/50
f 109/109/109 108/108/108 50/50/50
f 109/109/109 50/50/50 49/49/49
f 104/104/104 112/112/112 113/113/113
f 104/104/104 113/113/113 105/105/105
f 112/112/112 114/114/114 115/115/115
f 112/112/112 115/115/115 113/113/113
f 113/113/113 115/115/115 32/32/32
f 113/113/113 32/32/32 29/29/29
f 105/105/105 113/113/113 29/29/29
f 105/105/105 29/29/29 28/28/28
f 110/110/110 116/116/116 117/117/117
f 110/110/110 117/117/117 111/111/111
f 116/116/116 100/100/100 103/103/103
f 116/116/116 103/103/103 117/117/117
f 117/117/117 103/103/103 5/5/5
f 117/117/117 5/5/5 2/2/2
f 111/111/111 117/117/117 2/2/2
f 111/111/111 2/2/2 1/1/1
f 86/86/86 118/118/118 119/119/119
f 86/86/86 119/119/119 99/99/99
f 118/118/118 79/79/79 96/96/96
f 118/118/118 96/96/96 119/119/119
f 119/119/119 96/96/96 19/19/19
f 119/119/119 19/19/19 120/120/120
f 99/99/99 119/119/119 120/120/120
f 99/99/99 120/120/120 14/14/14
f 84/84/84 121/121/121 122/122/122
f 84/84/84 122/122/122 85/85/85
f 121/121/121 74/74/74 77/77/77
f 121/121/121 77/77/77 122/122/122
f 122/122/122 77/77/77 79/79/79
f 122/122/122 79/79/79 118/118/118
f 85/85/85 122/122/122 118/118/118
f 85/85/85 118/118/118 86/86/86
f 16/16/16 123/123/123 124/124/124
f 16/16/16 124/124/124 45/45/45
f 123/123/123 27/27/27 38/38/38
f 123/123/123 38/38/38 124/124/124
f 124/124/124 38/38/38 42/42/42
f 124/124/124 42/42/42 125/125/125
f 45/45/45 124/124/124 125/125/125
f 45/45/45 125/125/125 46/46/46
f 14/14/14 120/120/120 126/126/126
f 14/14/14 126/126/126 15/15/15
f 120/120/120 19/19/19 22/22/22
f 120/120/120 22/22/22 126/126/126
f 126/126/126 22/22/22 27/27/27
f 126/126/126 27/27/27 123/123/123
f 15/15/15 126/126/126 123/123/123
f 15/15/15 123/123/123 16/16/16
f 36/36/36 127/127/127 128/128/128
f 36/36/36 128/128/128 91/91/91
f 127/127/127 88/88/88 98/98/98
f 127/127/127 98/98/98 128/128/128
f 128/128/128 98/98/98 10/10/10
f 128/128/128 10/10/10 129/129/129
f 91/91/91 128/128/128 129/129/129
f 91/91/91 129/129/129 7/7/7
f 34/34/34 130/130/130 131/131/131
f 34/34/34 131/131/131 35/35/35
f 130/130/130 80/80/80 83/83/83
f 130/130/130 83/83/83 131/131/131
f 131/131/131 83/83/83 88/88/88
f 131/131/131 88/88/88 127/127/127
f 35/35/35 131/131/131 127/127/127
f 35/35/35 127/127/127 36/36/36
f 9/9/9 132/132/132 133/133/133
f 9/9/9 133/133/133 53/53/53
f 132/132/132 18/18/18 44/44/44
f 132/132/132 44/44/44 133/133/133
f 133/133/133 44/44/44 48/48/48
f 133/133/133 48/48/48 134/134/134
f 53/53/53 133/133/133 134/134/134
f 53/53/53 134/134/134 54/54/54
f 7/7/7 129/129/129 135/135/135
f 7/7/7 135/135/135 8/8/8
f 129/129/129 10/10/10 13/13/13
f 129/129/129 13/13/13 135/135/135
f 135/135/135 13/13/13 18/18/18
f 135/135/135 18/18/18 132/132/132
f 8/8/8 135/135/135 132/132/132
f 8/8/8 132/132/132 9/9/9
f 136/136/136 137/137/137 138/138/138
f 136/136/136 138/138/138 139/139/139
f 137/137/137 140/140/140 141/141/141
f 137/137/137 141/141/141 138/138/138
f 138/138/138 141/141/141 100/100/100
f 138/138/138 100/100/100 116/116/116
f 139/139/139 138/138/138 116/116/116
f 139/139/139 116/116/116 110/110/110
f 142/142/142 143/143/143 144/144/144
f 142/142/142 144/144/144 145/145/145
f 143/143/143 146/146/146 147/147/147
f 143/143/143 147/147/147 144/144/144
f 144/144/144 147/147/147 114/114/114
f 144/144/144 114/114/114 112/112/112
f 145/145/145 144/144/144 112/112/112
f 145/145/145 112/112/112 104/104/104
f 148/148/148 149/149/149 150/150/150
f 148/148/148 150/150/150 151/151/151
f 149/149/149 136/136/136 139/139/139
f 149/149/149 139/139/139 150/150/150
f 150/150/150 139/139/139 110/110/110
f 150/150/150 110/110/110 107/107/107
f 151/151/151 150/150/150 107/107/107
f 151/151/151 107/107/107 106/106/106
f 140/140/140 152/152/152 153/153/153
f 140/140/140 153/153/153 141/141/141
f 152/152/152 142/142/142 145/145/145
f 152/152/152 145/145/145 153/153/153
f 153/153/153 145/145/145 104/104/104
f 153/153/153 104/104/104 101/101/101
f 141/141/141 153/153/153 101/101/101
f 141/141/141 101/101/101 100/100/100
f 80/80/80 130/130/130 154/154/154
f 80/80/80 154/154/154 155/155/155
f 130/130/130 34/34/34 156/156/156
f 130/130/130 156/156/156 154/154/154
f 154/154/154 156/156/156 157/157/157
f 154/154/154 157/157/157 158/158/158
f 155/155/155 154/154/154 158/158/158
f 155/155/155 158/158/158 159/159/159
f 84/84/84 81/81/81 160/160/160
f 84/84/84 160/160/160 161/161/161
f 81/81/81 80/80/80 155/155/155
f 81/81/81 155/155/155 160/160/160
f 160/160/160 155/155/155 159/159/159
f 160/160/160 159/159/159 162/162/162
f 161/161/161 160/160/160 162/162/162
f 161/161/161 162/162/162 163/163/163
f 34/34/34 33/33/33 164/164/164
f 34/34/34 164/164/164 156/156/156
f 33/33/33 32/32/32 165/165/165
f 33/33/33 165/165/165 164/164/164
f 164/164/164 165/165/165 166/166/166
f 164/164/164 166/166/166 167/167/167
f 156/156/156 164/164/164 167/167/167
f 156/156/156 167/167/167 157/157/157
f 65/65/65 75/75/75 168/168/168
f 65/65/65 168/168/168 169/169/169
f 75/75/75 74/74/74 170/170/170
f 75/75/75 170/170/170 168/168/168
f 168/168/168 170/170/170 171/171/171
f 168/168/168 171/171/171 172/172/172
f 169/169/169 168/168/168 172/172/172
f 169/169/169 172/172/172 173/173/173
f 114/114/114 147/147/147 174/174/174
f 114/114/114 174/174/174 175/175/175
f 147/147/147 146/146/146 176/176/176
f 147/147/147 176/176/176 174/174/174
f 174/174/174 176/176/176 177/177/177
f 174/174/174 177/177/177 178/178/178
f 175/175/175 174/174/174 178/178/178
f 175/175/175 178/178/178 179/179/179
f 32/32/32 115/115/115 180/180/180
f 32/32/32 180/180/180 165/165/165
f 115/115/115 114/114/114 175/175/175
f 115/115/115 175/175/175 180/180/180
f 180/180/180 175/175/175 179/179/179
f 180/180/180 179/179/179 181/181/181
f 165/165/165 180/180/180 181/181/181
f 165/165/165 181/181/181 166/166/166
f 74/74/74 121/121/121 182/182/182
f 74/74/74 182/182/182 170/170/170
f 121/121/121 84/84/84 161/161/161
f 121/121/121 161/161/161 182/182/182
f 182/182/182 161/161/161 163/163/163
f 182/182/182 163/163/163 183/183/183
f 170/170/170 182/182/182 183/183/183
f 170/170/170 183/183/183 171/171/171
f 184/184/184 185/185/185 186/186/186
f 184/184/184 186/186/186 187/187/187
f 185/185/185 188/188/188 189/189/189
f 185/185/185 189/189/189 186/186/186
f 186/186/186 189/189/189 190/190/190
f 186/186/186 190/190/190 191/191/191
f 187/187/187 186/186/186 191/191/191
f 187/187/187 191/191/191 192/192/192
f 193/193/193 194/194/194 195/195/195
f 193/193/193 195/195/195 196/196/196
f 194/194/194 197/197/197 198/198/198
f 194/194/194 198/198/198 195/195/195
f 195/195/195 198/198/198 199/199/199
f 195/195/195 199/199/199 200/200/200
f 196/196/196 195/195/195 200/200/200
f 196/196/196 200/200/200 201/201/201
f 202/202/202 203/203/203 204/204/204
f 202/202/202 204/204/204 205/205/205
f 203/203/203 206/206/206 207/207/207
f 203/203/203 207/207/207 204/204/204
f 204/204/204 207/207/207 208/208/208
f 204/204/204 208/208/208 209/209/209
f 205/205/205 204/204/204 209/209/209
f 205/205/205 209/209/209 210/210/210
f 211/211/211 212/212/212 213/213/213
f 211/211/211 213/213/213 214/214/214
f 212/212/212 215/215/215 216/216/216
f 212/212/212 216/216/216 213/213/213
f 213/213/213 216/216/216 217/217/217
f 213/213/213 217/217/217 218/218/218
f 214/214/214 213/213/213 218/218/218
f 214/214/214 218/218/218 219/219/219
f 206/206/206 220/220/220 221/221/221
f 206/206/206 221/221/221 207/207/207
f 220/220/220 222/222/222 223/223/223
f 220/220/220 223/223/223 221/221/221
f 221/221/221 223/223/223 224/224/224
f 221/221/221 224/224/224 225/225/225
f 207/207/207 221/221/221 225/225/225
f 207/207/207 225/225/225 208/208/208
f 197/197/197 226/226/226 227/227/227
f 197/197/197 227/227/227 198/198/198
f 226/226/226 228/228/228 229/229/229
f 226/226/226 229/229/229 227/227/227
f 227/227/227 229/229/229 230/230/230
f 227/227/227 230/230/230 231/231/231
f 198/198/198 227/227/227 231/231/231
f 198/198/198 231/231/231 199/199/199
f 232/232/232 233/233/233 234/234/234
f 232/232/232 234/234/234 235/235/235
f 233/233/233 236/236/236 237/237/237
f 233/233/233 237/237/237 234/234/234
f 234/234/234 237/237/237 188/188/188
f 234/234/234 188/188/188 185/185/185
f 235/235/235 234/234/234 185/185/185
f 235/235/235 185/185/185 184/184/184
f 208/208/208 225/225/225 238/238/238
f 208/208/208 238/238/238 239/239/239
f 225/225/225 224/224/224 240/240/240
f 225/225/225 240/240/240 238/238/238
f 238/238/238 240/240/240 241/241/241
f 238/238/238 241/241/241 242/242/242
f 239/239/239 238/238/238 242/242/242
f 239/239/239 242/242/242 243/243/243
f 210/210/210 209/209/209 244/244/244
f 210/210/210 244/244/244 245/245/245
f 209/209/209 208/208/208 239/239/239
f 209/209/209 239/239/239 244/244/244
f 244/244/244 239/239/239 243/243/243
f 244/244/244 243/243/243 246/246/246
f 245/245/245 244/244/244 246/246/246
f 245/245/245 246/246/246 247/247/247
f 248/248/248 249/249/249 250/250/250
f 248/248/248 250/250/250 251/251/251
f 249/249/249 252/252/252 253/253/253
f 249/249/249 253/253/253 250/250/250
f 250/250/250 253/253/253 254/254/254
f 250/250/250 254/254/254 255/255/255
f 251/251/251 250/250/250 255/255/255
f 251/251/251 255/255/255 256/256/256
f 257/257/257 258/258/258 259/259/259
f 257/257/257 259/259/259 260/260/260
f 258/258/258 261/261/261 262/262/262
f 258/258/258 262/262/262 259/259/259
f 259/259/259 262/262/262 252/252/252
f 259/259/259 252/252/252 249/249/249
f 260/260/260 259/259/259 249/249/249
f 260/260/260 249/249/249 248/248/248
f 263/263/263 264/264/264 265/265/265
f 263/263/263 265/265/265 266/266/266
f 264/264/264 267/267/267 268/268/268
f 264/264/264 268/268/268 265/265/265
f 265/265/265 268/268/268 269/269/269
f 265/265/265 269/269/269 270/270/270
f 266/266/266 265/265/265 270/270/270
f 266/266/266 270/270/270 271/271/271
f 192/192/192 191/191/191 272/272/272
f 192/192/192 272/272/272 273/273/273
f 191/191/191 190/190/190 274/274/274
f 191/191/191 274/274/274 272/272/272
f 272/272/272 274/274/274 215/215/215
f 272/272/272 215/215/215 212/212/212
f 273/273/273 272/272/272 212/212/212
f 273/273/273 212/212/212 211/211/211
f 252/252/252 275/275/275 276/276/276
f 252/252/252 276/276/276 253/253/253
f 275/275/275 210/210/210 245/245/245
f 275/275/275 245/245/245 276/276/276
f 276/276/276 245/245/245 247/247/247
f 276/276/276 247/247/247 277/277/277
f 253/253/253 276/276/276 277/277/277
f 253/253/253 277/277/277 254/254/254
f 261/261/261 278/278/278 279/279/279
f 261/261/261 279/279/279 262/262/262
f 278/278/278 202/202/202 205/205/205
f 278/278/278 205/205/205 279/279/279
f 279/279/279 205/205/205 210/210/210
f 279/279/279 210/210/210 275/275/275
f 262/262/262 279/279/279 275/275/275
f 262/262/262 275/275/275 252/252/252
f 267/267/267 280/280/280 281/281/281
f 267/267/267 281/281/281 268/268/268
f 280/280/280 193/193/193 196/196/196
f 280/280/280 196/196/196 281/281/281
f 281/281/281 196/196/196 201/201/201
f 281/281/281 201/201/201 282/282/282
f 268/268/268 281/281/281 282/282/282
f 268/268/268 282/282/282 269/269/269
f 283/283/283 284/284/284 285/285/285
f 283/283/283 285/285/285 286/286/286
f 284/284/284 192/192/192 273/273/273
f 284/284/284 273/273/273 285/285/285
f 285/285/285 273/273/273 211/211/211
f 285/285/285 211/211/211 287/287/287
f 286/286/286 285/285/285 287/287/287
f 286/286/286 287/287/287 288/288/288
f 289/289/289 290/290/290 291/291/291
f 289/289/289 291/291/291 292/292/292
f 290/290/290 232/232/232 235/235/235
f 290/290/290 235/235/235 291/291/291
f 291/291/291 235/235/235 184/184/184
f 291/291/291 184/184/184 293/293/293
f 292/292/292 291/291/291 293/293/293
f 292/292/292 293/293/293 294/294/294
f 288/288/288 287/287/287 295/295/295
f 288/288/288 295/295/295 296/296/296
f 287/287/287 211/211/211 214/214/214
f 287/287/287 214/214/214 295/295/295
f 295/295/295 214/214/214 219/219/219
f 295/295/295 219/219/219 297/297/297
f 296/296/296 295/295/295 297/297/297
f 296/296/296 297/297/297 298/298/298
f 294/294/294 293/293/293 299/299/299
f 294/294/294 299/299/299 300/300/300
f 293/293/293 184/184/184 187/187/187
f 293/293/293 187/187/187 299/299/299
f 299/299/299 187/187/187 192/192/192
f 299/299/299 192/192/192 284/284/284
f 300/300/300 299/299/299 284/284/284
f 300/300/300 284/284/284 283/283/283
f 269/269/269 282/282/282 301/301/301
f 269/269/269 301/301/301 302/302/302
f 282/282/282 201/201/201 303/303/303
f 282/282/282 303/303/303 301/301/301
f 301/301/301 303/303/303 202/202/202
f 301/301/301 202/202/202 278/278/278
f 302/302/302 301/301/301 278/278/278
f 302/302/302 278/278/278 261/261/261
f 271/271/271 270/270/270 304/304/304
f 271/271/271 304/304/304 305/305/305
f 270/270/270 269/269/269 302/302/302
f 270/270/270 302/302/302 304/304/304
f 304/304/304 302/302/302 261/261/261
f 304/304/304 261/261/261 258/258/258
f 305/305/305 304/304/304 258/258/258
f 305/305/305 258/258/258 257/257/257
f 199/199/199 231/231/231 306/306/306
f 199/199/199 306/306/306 307/307/307
f 231/231/231 230/230/230 308/308/308
f 231/231/231 308/308/308 306/306/306
f 306/306/306 308/308/308 222/222/222
f 306/306/306 222/222/222 220/220/220
f 307/307/307 306/306/306 220/220/220
f 307/307/307 220/220/220 206/206/206
f 201/201/201 200/200/200 309/309/309
f 201/201/201 309/309/309 303/303/303
f 200/200/200 199/199/199 307/307/307
f 200/200/200 307/307/307 309/309/309
f 309/309/309 307/307/307 206/206/206
f 309/309/309 206/206/206 203/203/203
f 303/303/303 309/309/309 203/203/203
f 303/303/303 203/203/203 202/202/202
f 215/215/215 274/274/274 310/310/310
f 215/215/215 310/310/310 311/311/311
f 274/274/274 190/190/190 312/312/312
f 274/274/274 312/312/312 310/310/310
f 310/310/310 312/312/312 193/193/193
f 310/310/310 193/193/193 280/280/280
f 311/311/311 310/310/310 280/280/280
f 311/311/311 280/280/280 267/267/267
f 217/217/217 216/216/216 313/313/313
f 217/217/217 313/313/313 314/314/314
f 216/216/216 215/215/215 311/311/311
f 216/216/216 311/311/311 313/313/313
f 313/313/313 311/311/311 267/267/267
f 313/313/313 267/267/267 264/264/264
f 314/314/314 313/313/313 264/264/264
f 314/314/314 264/264/264 263/263/263
f 188/188/188 237/237/237 315/315/315
f 188/188/188 315/315/315 316/316/316
f 237/237/237 236/236/236 317/317/317
f 237/237/237 317/317/317 315/315/315
f 315/315/315 317/317/317 228/228/228
f 315/315/315 228/228/228 226/226/226
f 316/316/316 315/315/315 226/226/226
f 316/316/316 226/226/226 197/197/197
f 190/190/190 189/189/189 318/318/318
f 190/190/190 318/318/318 312/312/312
f 189/189/189 188/188/188 316/316/316
f 189/189/189 316/316/316 318/318/318
f 318/318/318 316/316/316 197/197/197
f 318/318/318 197/197/197 194/194/194
f 312/312/312 318/318/318 194/194/194
f 312/312/312 194/194/194 193/193/193
f 136/136/136 319/319/319 320/320/320
f 136/136/136 320/320/320 137/137/137
f 319/319/319 294/294/294 300/300/300
f 319/319/319 300/300/300 320/320/320
f 320/320/320 300/300/300 283/283/283
f 320/320/320 283/283/283 321/321/321
f 137/137/137 320/320/320 321/321/321
f 137/137/137 321/321/321 140/140/140
f 142/142/142 322/322/322 323/323/323
f 142/142/142 323/323/323 143/143/143
f 322/322/322 288/288/288 296/296/296
f 322/322/322 296/296/296 323/323/323
f 323/323/323 296/296/296 298/298/298
f 323/323/323 298/298/298 324/324/324
f 143/143/143 323/323/323 324/324/324
f 143/143/143 324/324/324 146/146/146
f 148/148/148 325/325/325 326/326/326
f 148/148/148 326/326/326 149/149/149
f 325/325/325 289/289/289 292/292/292
f 325/325/325 292/292/292 326/326/326
f 326/326/326 292/292/292 294/294/294
f 326/326/326 294/294/294 319/319/319
f 149/149/149 326/326/326 319/319/319
f 149/149/149 319/319/319 136/136/136
f 140/140/140 321/321/321 327/327/327
f 140/140/140 327/327/327 152/152/152
f 321/321/321 283/283/283 286/286/286
f 321/321/321 286/286/286 327/327/327
f 327/327/327 286/286/286 288/288/288
f 327/327/327 288/288/288 322/322/322
f 152/152/152 327/327/327 322/322/322
f 152/152/152 322/322/322 142/142/142
f 263/263/263 328/328/328 329/329/329
f 263/263/263 329/329/329 314/314/314
f 328/328/328 330/330/330 331/331/331
f 328/328/328 331/331/331 329/329/329
f 329/329/329 331/331/331 332/332/332
f 329/329/329 332/332/332 333/333/333
f 314/314/314 329/329/329 333/333/333
f 314/314/314 333/333/333 217/217/217
f 271/271/271 334/334/334 335/335/335
f 271/271/271 335/335/335 266/266/266
f 334/334/334 336/336/336 337/337/337
f 334/334/334 337/337/337 335/335/335
f 335/335/335 337/337/337 330/330/330
f 335/335/335 330/330/330 328/328/328
f 266/266/266 335/335/335 328/328/328
f 266/266/266 328/328/328 263/263/263
f 217/217/217 333/333/333 338/338/338
f 217/217/217 338/338/338 218/218/218
f 333/333/333 332/332/332 339/339/339
f 333/333/333 339/339/339 338/338/338
f 338/338/338 339/339/339 340/340/340
f 338/338/338 340/340/340 341/341/341
f 218/218/218 338/338/338 341/341/341
f 218/218/218 341/341/341 219/219/219
f 248/248/248 342/342/342 343/343/343
f 248/248/248 343/343/343 260/260/260
f 342/342/342 344/344/344 345/345/345
f 342/342/342 345/345/345 343/343/343
f 343/343/343 345/345/345 346/346/346
f 343/343/343 346/346/346 347/347/347
f 260/260/260 343/343/343 347/347/347
f 260/260/260 347/347/347 257/257/257
f 298/298/298 348/348/348 349/349/349
f 298/298/298 349/349/349 324/324/324
f 348/348/348 350/350/350 351/351/351
f 348/348/348 351/351/351 349/349/349
f 349/349/349 351/351/351 177/177/177
f 349/349/349 177/177/177 176/176/176
f 324/324/324 349/349/349 176/176/176
f 324/324/324 176/176/176 146/146/146
f 219/219/219 341/341/341 352/352/352
f 219/219/219 352/352/352 297/297/297
f 341/341/341 340/340/340 353/353/353
f 341/341/341 353/353/353 352/352/352
f 352/352/352 353/353/353 350/350/350
f 352/352/352 350/350/350 348/348/348
f 297/297/297 352/352/352 348/348/348
f 297/297/297 348/348/348 298/298/298
f 257/257/257 347/347/347 354/354/354
f 257/257/257 354/354/354 305/305/305
f 347/347/347 346/346/346 355/355/355
f 347/347/347 355/355/355 354/354/354
f 354/354/354 355/355/355 336/336/336
f 354/354/354 336/336/336 334/334/334
f 305/305/305 354/354/354 334/334/334
f 305/305/305 334/334/334 271/271/271
f 151/151/151 106/106/106 109/109/109
f 109/109/109 49/49/49 52/52/52
f 52/52/52 54/54/54 134/134/134
f 134/134/134 48/48/48 47/47/47
f 47/47/47 46/46/46 125/125/125
f 125/125/125 42/42/42 41/41/41
f 41/41/41 40/40/40 60/60/60
f 41/41/41 60/60/60 59/59/59
f 47/47/47 125/125/125 41/41/41
f 52/52/52 134/134/134 47/47/47
f 151/151/151 109/109/109 52/52/52
f 325/325/325 148/148/148 151/151/151
f 290/290/290 289/289/289 325/325/325
f 233/233/233 232/232/232 290/290/290
f 317/317/317 236/236/236 233/233/233
f 229/229/229 228/228/228 317/317/317
f 308/308/308 230/230/230 229/229/229
f 223/223/223 222/222/222 308/308/308
f 240/240/240 224/224/224 223/223/223
f 241/241/241 240/240/240 223/223/223
f 223/223/223 308/308/308 229/229/229
f 229/229/229 317/317/317 233/233/233
f 233/233/233 290/290/290 325/325/325
f 325/325/325 151/151/151 52/52/52
f 52/52/52 47/47/47 41/41/41
f 41/41/41 59/59/59 356/356/356
f 356/356/356 357/357/357 358/358/358
f 358/358/358 359/359/359 360/360/360
f 360/360/360 361/361/361 362/362/362
f 360/360/360 362/362/362 363/363/363
f 356/356/356 358/358/358 360/360/360
f 52/52/52 41/41/41 356/356/356
f 233/233/233 325/325/325 52/52/52
f 223/223/223 229/229/229 233/233/233
f 364/364/364 241/241/241 223/223/223
f 365/365/365 366/366/366 367/367/367
f 364/364/364 223/223/223 233/233/233
f 365/365/365 367/367/367 364/364/364
f 368/368/368 369/369/369 365/365/365
f 370/370/370 371/371/371 368/368/368
f 372/372/372 373/373/373 374/374/374
f 374/374/374 370/370/370 368/368/368
f 368/368/368 365/365/365 364/364/364
f 364/364/364 233/233/233 52/52/52
f 52/52/52 356/356/356 360/360/360
f 360/360/360 363/363/363 375/375/375
f 375/375/375 376/376/376 377/377/377
f 377/377/377 378/378/378 372/372/372
f 372/372/372 374/374/374 368/368/368
f 368/368/368 364/364/364 52/52/52
f 52/52/52 360/360/360 375/375/375
f 375/375/375 377/377/377 372/372/372
f 372/372/372 368/368/368 52/52/52
f 52/52/52 375/375/375 372/372/372
f 171/171/171 183/183/183 163/163/163
f 163/163/163 162/162/162 159/159/159
f 159/159/159 158/158/158 157/157/157
f 157/157/157 167/167/167 166/166/166
f 166/166/166 181/181/181 179/179/179
f 179/179/179 178/178/178 177/177/177
f 177/177/177 351/351/351 350/350/350
f 350/350/350 353/353/353 340/340/340
f 340/340/340 339/339/339 332/332/332
f 332/332/332 331/331/331 330/330/330
f 330/330/330 337/337/337 336/336/336
f 336/336/336 355/355/355 346/346/346
f 346/346/346 345/345/345 344/344/344
f 344/344/344 379/379/379 380/380/380
f 346/346/346 344/344/344 380/380/380
f 330/330/330 336/336/336 346/346/346
f 340/340/340 332/332/332 330/330/330
f 177/177/177 350/350/350 340/340/340
f 166/166/166 179/179/179 177/177/177
f 159/159/159 157/157/157 166/166/166
f 171/171/171 163/163/163 159/159/159
f 173/173/173 172/172/172 171/171/171
f 381/381/381 382/382/382 173/173/173
f 381/381/381 173/173/173 171/171/171
f 171/171/171 159/159/159 166/166/166
f 166/166/166 177/177/177 340/340/340
f 340/340/340 330/330/330 346/346/346
f 346/346/346 380/380/380 383/383/383
f 384/384/384 385/385/385 386/386/386
f 340/340/340 346/346/346 383/383/383
f 383/383/383 384/384/384 386/386/386
f 386/386/386 387/387/387 388/388/388
f 388/388/388 389/389/389 390/390/390
f 391/391/391 392/392/392 393/393/393
f 388/388/388 390/390/390 391/391/391
f 383/383/383 386/386/386 388/388/388
f 166/166/166 340/340/340 383/383/383
f 381/381/381 171/171/171 166/166/166
f 394/394/394 381/381/381 166/166/166
f 166/166/166 383/383/383 388/388/388
f 388/388/388 391/391/391 393/393/393
f 393/393/393 395/395/395 396/396/396
f 396/396/396 397/397/397 398/398/398
f 399/399/399 400/400/400 401/401/401
f 393/393/393 396/396/396 398/398/398
f 398/398/398 399/399/399 401/401/401
f 401/401/401 402/402/402 403/403/403
f 403/403/403 404/404/404 405/405/405
f 405/405/405 394/394/394 166/166/166
f 166/166/166 388/388/388 393/393/393
f 393/393/393 398/398/398 401/401/401
f 401/401/401 403/403/403 405/405/405
f 405/405/405 166/166/166 393/393/393
f 393/393/393 401/401/401 405/405/405
