v 0.405003 -0.0655114 0.898376
v 0.409713 -0.0670944 0.873241
v 0.411189 -0.0855007 0.878429
v 0.404729 -0.083729 0.902823
v 0.427231 -0.0676202 0.857785
v 0.428469 -0.0860489 0.862892
v 0.428018 -0.097168 0.862257
v 0.410573 -0.0967002 0.877696
v 0.401725 -0.0948855 0.9017
v 0.437396 -0.0684979 0.856302
v 0.43853 -0.0871852 0.861207
v 0.440952 -0.0694285 0.861228
v 0.441996 -0.08844 0.865951
v 0.441455 -0.0996858 0.865288
v 0.43803 -0.0983391 0.860577
v 0.429386 -0.134139 0.868372
v 0.426731 -0.110896 0.859709
v 0.436703 -0.111706 0.858214
v 0.439314 -0.133104 0.86757
v 0.440079 -0.112821 0.862875
v 0.4426 -0.132775 0.871903
v 0.433365 -0.231957 1.0009
v 0.458577 -0.237278 0.986488
v 0.463246 -0.243724 1.00234
v 0.438141 -0.239046 1.01561
v 0.477774 -0.235421 0.977694
v 0.482308 -0.241735 0.994151
v 0.482298 -0.248655 0.999697
v 0.463131 -0.25062 1.00756
v 0.437872 -0.245821 1.02027
v 0.442236 -0.069863 0.863586
v 0.443244 -0.0890237 0.868315
v 0.442742 -0.069961 0.863653
v 0.443743 -0.0891467 0.868378
v 0.443181 -0.100445 0.867698
v 0.442684 -0.100314 0.867635
v 0.441288 -0.113552 0.86518
v 0.443775 -0.134267 0.873719
v 0.441785 -0.113994 0.865237
v 0.444279 -0.136893 0.87331
v 0.376909 -0.197085 1.03767
v 0.380204 -0.199083 1.03644
v 0.384418 -0.206463 1.04795
v 0.381029 -0.204397 1.04899
v 0.389316 -0.205874 1.03062
v 0.393747 -0.213315 1.04272
v 0.393212 -0.219188 1.04621
v 0.383827 -0.21215 1.05119
v 0.380412 -0.210036 1.05216
v 0.400765 -0.055848 0.975868
v 0.403616 -0.0562232 0.972809
v 0.398347 -0.0725594 0.970651
v 0.395821 -0.0720837 0.973688
v 0.410114 -0.0580062 0.960018
v 0.404779 -0.0747312 0.957986
v 0.39974 -0.0850907 0.952842
v 0.393503 -0.0827087 0.965558
v 0.39082 -0.0822049 0.968581
v 0.493792 -0.237964 0.999617
v 0.493808 -0.231038 0.994142
v 0.494671 -0.229055 0.9949
v 0.494642 -0.235767 1.00033
v 0.489436 -0.223587 0.97804
v 0.49033 -0.222819 0.978911
v 0.490804 -0.22519 0.97877
v 0.495132 -0.229188 0.994791
v 0.495099 -0.235576 1.00022
v 0.370227 -0.160605 0.992168
v 0.373279 -0.162251 0.990087
v 0.373959 -0.18404 1.01523
v 0.37088 -0.182167 1.01685
v 0.381443 -0.168809 0.98147
v 0.382503 -0.190929 1.00812
v 0.413511 -0.196861 0.943679
v 0.434976 -0.204547 0.926781
v 0.448265 -0.226235 0.956765
v 0.422934 -0.219244 0.972221
v 0.454375 -0.203712 0.917791
v 0.467933 -0.224832 0.948035
v 0.491269 -0.236243 0.992599
v 0.491276 -0.243204 0.998175
v 0.486836 -0.229173 0.976195
v 0.408775 -0.110647 0.874551
v 0.39607 -0.108702 0.897585
v 0.411789 -0.134194 0.881762
v 0.397233 -0.131091 0.902906
v 0.386559 -0.0950611 0.956277
v 0.383625 -0.0945217 0.959259
v 0.392457 -0.0977364 0.943485
v 0.386132 -0.116382 0.943001
v 0.379989 -0.112855 0.954137
v 0.377341 -0.112064 0.957
v 0.467005 -0.189636 0.921914
v 0.452879 -0.160984 0.89597
v 0.453983 -0.164091 0.896466
v 0.46805 -0.193362 0.921922
v 0.45448 -0.171401 0.894238
v 0.468578 -0.203443 0.91923
v 0.440027 -0.169292 0.892297
v 0.44972 -0.164421 0.892183
v 0.464058 -0.195751 0.91836
v 0.402406 0.0102076 0.977844
v 0.405485 0.0102723 0.974754
v 0.406903 -0.0269525 0.974254
v 0.403828 -0.0267682 0.977355
v 0.411522 0.0101455 0.961679
v 0.41292 -0.0280218 0.961266
v 0.437713 0.00884905 0.852798
v 0.439103 0.00903526 0.85522
v 0.440245 -0.0352671 0.852477
v 0.438893 -0.0351132 0.850037
v 0.439622 0.00904469 0.855295
v 0.440758 -0.0353173 0.852565
v 0.423473 0.00817026 0.849091
v 0.433911 0.00842565 0.847876
v 0.435181 -0.0347944 0.84519
v 0.424843 -0.0344207 0.84665
v 0.402978 0.00907978 0.896854
v 0.406365 0.00845817 0.865933
v 0.407591 -0.0339766 0.863681
v 0.404083 -0.0327746 0.894944
v 0.477293 -0.217008 0.947522
v 0.480042 -0.210584 0.950208
v 0.481004 -0.212407 0.950822
v 0.481509 -0.219572 0.949752
v 0.423119 -0.169687 0.902912
v 0.407258 -0.163943 0.921265
v 0.376362 -0.136768 0.968231
v 0.373583 -0.135541 0.970795
v 0.382878 -0.141909 0.9583
v 0.405316 0.0847073 0.898501
v 0.404963 0.103257 0.902865
v 0.411239 0.104395 0.878434
v 0.40985 0.0854743 0.873249
v 0.401976 0.114319 0.901752
v 0.410574 0.115593 0.877705
v 0.428017 0.115873 0.862266
v 0.428468 0.104696 0.862895
v 0.42723 0.0856516 0.857718
v 0.438529 0.106259 0.861213
v 0.437395 0.0869766 0.85623
v 0.438029 0.117475 0.860585
v 0.441454 0.119411 0.865296
v 0.441996 0.108124 0.865958
v 0.440951 0.0885836 0.861244
v 0.429385 0.152825 0.868527
v 0.439312 0.152203 0.867664
v 0.436702 0.130606 0.858223
v 0.42673 0.129351 0.859723
v 0.442599 0.152369 0.87193
v 0.440078 0.132302 0.862884
v 0.433363 0.250454 1.00092
v 0.438139 0.256897 1.01563
v 0.463244 0.26115 1.00236
v 0.458575 0.255507 0.986505
v 0.437869 0.263514 1.02029
v 0.463129 0.267865 1.00758
v 0.482295 0.265498 0.999714
v 0.482306 0.258787 0.994168
v 0.477771 0.253393 0.977711
v 0.443243 0.108971 0.868322
v 0.442236 0.0893119 0.863638
v 0.442683 0.120293 0.867643
v 0.44318 0.120435 0.867705
v 0.443742 0.109105 0.868386
v 0.442741 0.0894231 0.863706
v 0.443773 0.154047 0.873721
v 0.441287 0.133279 0.86519
v 0.444278 0.156647 0.873315
v 0.441784 0.133728 0.865246
v 0.376914 0.215904 1.03769
v 0.38103 0.222893 1.04901
v 0.384417 0.224976 1.04797
v 0.380208 0.217924 1.03646
v 0.38041 0.228419 1.05217
v 0.383825 0.230545 1.05121
v 0.39321 0.237512 1.04622
v 0.393745 0.231754 1.04273
v 0.38932 0.224694 1.03063
v 0.400716 0.0762808 0.975909
v 0.395929 0.0924245 0.973773
v 0.398377 0.093069 0.97067
v 0.4036 0.0768133 0.972797
v 0.391071 0.10226 0.968789
v 0.393579 0.10294 0.965689
v 0.399901 0.105317 0.952978
v 0.40482 0.0952088 0.958018
v 0.410142 0.0784995 0.960041
v 0.49379 0.254334 0.999634
v 0.494639 0.252064 1.00034
v 0.494669 0.245638 0.994916
v 0.493805 0.247685 0.994158
v 0.495097 0.251856 1.00024
v 0.49513 0.245752 0.994807
v 0.490802 0.242718 0.978788
v 0.490328 0.240398 0.978939
v 0.489434 0.241243 0.978072
v 0.370135 0.180003 0.992278
v 0.370845 0.201377 1.01685
v 0.373917 0.203296 1.01522
v 0.373165 0.181727 0.990178
v 0.382447 0.21026 1.00811
v 0.381277 0.188439 0.981417
v 0.413332 0.217081 0.943504
v 0.422908 0.238824 0.97223
v 0.448262 0.245854 0.956792
v 0.434901 0.224984 0.926579
v 0.467931 0.244427 0.948068
v 0.454371 0.224295 0.917568
v 0.491274 0.259752 0.998192
v 0.491266 0.253037 0.992616
v 0.486833 0.246955 0.976219
v 0.396351 0.127758 0.897633
v 0.408801 0.129235 0.874579
v 0.397328 0.150112 0.902881
v 0.411811 0.152918 0.881748
v 0.383972 0.114085 0.959669
v 0.386955 0.114802 0.956622
v 0.377931 0.131285 0.957536
v 0.380502 0.132229 0.954612
v 0.386596 0.135796 0.943026
v 0.392843 0.117483 0.943822
v 0.467003 0.210371 0.921677
v 0.468048 0.214013 0.921712
v 0.453975 0.184558 0.89627
v 0.45287 0.181406 0.895793
v 0.468576 0.223939 0.919052
v 0.454479 0.191763 0.894059
v 0.464056 0.216449 0.918121
v 0.449714 0.184569 0.892071
v 0.440014 0.18915 0.89226
v 0.403828 0.0471999 0.977384
v 0.406903 0.0475236 0.97425
v 0.412924 0.0483954 0.96131
v 0.438893 0.0533389 0.849823
v 0.440244 0.053837 0.852065
v 0.440758 0.0539041 0.852116
v 0.424842 0.0513735 0.846501
v 0.435181 0.0522347 0.845166
v 0.404179 0.0513141 0.894867
v 0.407641 0.0514249 0.863563
v 0.477291 0.236543 0.947563
v 0.48004 0.230034 0.950259
v 0.481002 0.23175 0.950885
v 0.481507 0.238797 0.949827
v 0.407176 0.183673 0.921242
v 0.423073 0.189442 0.902895
v 0.373845 0.154821 0.971159
v 0.376561 0.156165 0.968552
v 0.382952 0.161423 0.958318
v 0.394205 0.172386 0.942009
v 0.392093 0.143088 0.925919
v 0.395622 0.202424 0.96433
v 0.412682 0.0500095 0.928256
v 0.411371 0.00970987 0.928834
v 0.411777 0.0817934 0.927665
v 0.39605 0.122865 0.922955
v 0.403919 0.110047 0.926798
v 0.399539 0.224423 0.991829
v 0.40821 0.237831 1.01742
v 0.412981 0.244903 1.03071
v 0.412559 0.251134 1.03473
v 0.408096 0.0994414 0.927723
v 0.39171 -0.123803 0.925897
v 0.394277 -0.152743 0.942018
v 0.395874 -0.18251 0.964437
v 0.412634 -0.0303773 0.928039
v 0.411575 -0.0618072 0.927464
v 0.403655 -0.0901111 0.926788
v 0.395628 -0.10337 0.922906
v 0.399603 -0.204962 0.991844
v 0.408208 -0.219115 1.01741
v 0.412983 -0.226668 1.0307
v 0.412561 -0.233033 1.03471
v 0.407896 -0.0793199 0.927665
vt 0.2829 0.2328
vt 0.1969 0.172
vt 0.1696 0.1539
vt 0.4089 0.08744
vt 0.1855 0.1522
vt 0.2672 0.2332
vt 0.4154 0.2815
vt 0.1855 0.1522
vt 0.4262 0.2449
vt 0.2945 0.2419
vt 0.4034 0.1071
vt 0.4407 0.2447
vt 0.306 0.1682
vt 0.4154 0.2815
vt 0.2686 0.2324
vt 0.1766 0.1447
vt 0.3206 0.1819
vt 0.4046 0.09935
vt 0.2674 0.2329
vt 0.2686 0.2324
vt 0.1922 0.1397
vt 0.3029 0.2351
vt 0.2116 0.1858
vt 0.1558 0.1253
vt 0.4069 0.09589
vt 0.432 0.3039
vt 0.3047 0.1712
vt 0.4628 0.3062
vt 0.1969 0.172
vt 0.3152 0.2482
vt 0.2942 0.2423
vt 0.148 0.1352
vt 0.4345 0.2478
vt 0.2646 0.2255
vt 0.4628 0.3062
vt 0.3091 0.1713
vt 0.1601 0.1457
vt 0.2674 0.2329
vt 0.2674 0.2329
vt 0.1922 0.1397
vt 0.2011 0.1228
vt 0.3143 0.1701
vt 0.1619 0.1425
vt 0.3047 0.1712
vt 0.2057 0.1278
vt 0.2861 0.2045
vt 0.4492 0.3053
vt 0.306 0.1682
vt 0.4492 0.3053
vt 0.4421 0.247
vt 0.2785 0.2352
vt 0.1696 0.1539
vt 0.2641 0.2315
vt 0.4302 0.2356
vt 0.3212 0.1768
vt 0.4485 0.3003
vt 0.2646 0.2255
vt 0.4154 0.2815
vt 0.4489 0.307
vt 0.3037 0.1726
vt 0.1619 0.1425
vt 0.2726 0.2155
vt 0.1873 0.1348
vt 0.3143 0.1701
vt 0.1922 0.1397
vt 0.2726 0.2155
vt 0.4492 0.3053
vt 0.3914 0.2207
vt 0.1967 0.1724
vt 0.1713 0.1508
vt 0.2976 0.1697
vt 0.3879 0.2235
vt 0.2976 0.1697
vt 0.2829 0.2328
vt 0.2275 0.2023
vt 0.1766 0.1447
vt 0.4258 0.09175
vt 0.3914 0.2207
vt 0.2988 0.168
vt 0.2172 0.07364
vt 0.3069 0.1756
vt 0.3134 0.1757
vt 0.227 0.08564
vt 0.4251 0.09452
vt 0.2116 0.1858
vt 0.2877 0.2286
vt 0.2161 0.07449
vt 0.28 0.2343
vt 0.2788 0.2349
vt 0.1818 0.1495
vt 0.2604 0.2333
vt 0.1818 0.1495
vt 0.3798 0.214
vt 0.1794 0.1607
vt 0.215 0.07533
vt 0.1969 0.172
vt 0.179 0.1618
vt 0.3764 0.2172
vt 0.1969 0.172
vt 0.2247 0.0872
vt 0.1859 0.1651
vt 0.3199 0.1845
vt 0.2726 0.2155
vt 0.2247 0.0872
vt 0.2957 0.2411
vt 0.4349 0.2496
vt 0.2945 0.2419
vt 0.3199 0.1845
vt 0.3079 0.1743
vt 0.2321 0.09652
vt 0.2945 0.2419
vt 0.4443 0.2539
vt 0.28 0.2343
vt 0.3115 0.1797
vt 0.2829 0.2328
vt 0.227 0.08564
vt 0.1976 0.1685
vt 0.4149 0.24
vt 0.1818 0.1495
vt 0.4537 0.2479
vt 0.278 0.1423
vt 0.4256 0.1196
vt 0.3025 0.1744
vt 0.4233 0.1056
vt 0.3037 0.1726
vt 0.4052 0.1211
vt 0.2791 0.1379
vt 0.4052 0.1211
vt 0.1863 0.1637
vt 0.186 0.1648
vt 0.3943 0.2874
vt 0.2632 0.1241
vt 0.4266 0.1941
vt 0.1976 0.1685
vt 0.3152 0.2482
vt 0.3072 0.1856
vt 0.3438 0.1973
vt 0.2941 0.1746
vt 0.3674 0.215
vt 0.4302 0.2356
vt 0.2665 0.1872
vt 0.415 0.243
vt 0.2877 0.2286
vt 0.415 0.243
vt 0.3749 0.2192
vt 0.3674 0.215
vt 0.2881 0.1606
vt 0.4407 0.2447
vt 0.256 0.2325
vt 0.3613 0.2112
vt 0.276 0.146
vt 0.3773 0.2738
vt 0.2467 0.1059
vt 0.4407 0.2447
vt 0.2163 0.1774
vt 0.396 0.2825
vt 0.2293 0.1994
vt 0.2943 0.2204
vt 0.4276 0.2529
vt 0.3593 0.2416
vt 0.1927 0.1139
vt 0.2589 0.2201
vt 0.448 0.2641
vt 0.3479 0.2484
vt 0.4389 0.2644
vt 0.3091 0.1713
vt 0.2844 0.1652
vt 0.1672 0.115
vt 0.3609 0.2124
vt 0.2747 0.1476
vt 0.3557 0.2527
vt 0.4269 0.2481
vt 0.1558 0.1253
vt 0.2511 0.2274
vt 0.302 0.2098
vt 0.4267 0.2464
vt 0.3621 0.2666
vt 0.4304 0.2751
vt 0.3627 0.2091
vt 0.3674 0.215
vt 0.2379 0.1052
vt 0.1785 0.1261
vt 0.2482 0.2093
vt 0.2691 0.2269
vt 0.4276 0.2529
vt 0.3523 0.2616
vt 0.2604 0.2333
vt 0.3124 0.1785
vt 0.352 0.2375
vt 0.448 0.2641
vt 0.1873 0.1348
vt 0.4149 0.2413
vt 0.3441 0.2572
vt 0.4362 0.2545
vt 0.368 0.2462
vt 0.2563 0.2323
vt 0.3651 0.2575
vt 0.2369 0.1011
vt 0.2421 0.1091
vt 0.1927 0.1139
vt 0.2454 0.1112
vt 0.2409 0.1059
vt 0.2379 0.1052
vt 0.3593 0.2718
vt 0.2791 0.1379
vt 0.1785 0.1261
vt 0.1976 0.1685
vt 0.2442 0.1107
vt 0.2359 0.1017
vt 0.415 0.243
vt 0.1873 0.1348
vt 0.2508 0.2276
vt 0.2632 0.1241
vt 0.4324 0.1506
vt 0.375 0.2789
vt 0.2012 0.1632
vt 0.2602 0.2335
vt 0.412 0.1521
vt 0.3689 0.2129
vt 0.2708 0.152
vt 0.367 0.2162
vt 0.2881 0.1606
vt 0.2369 0.1011
vt 0.2489 0.1172
vt 0.4145 0.1633
vt 0.2421 0.1091
vt 0.2359 0.1017
vt 0.2409 0.1059
vt 0.2482 0.1185
vt 0.4324 0.1506
vt 0.2394 0.1033
vt 0.2521 0.173
vt 0.412 0.1521
vt 0.2482 0.2093
vt 0.2415 0.1849
vt 0.412 0.1521
vt 0.2415 0.1849
vt 0.3103 0.1813
vt 0.3884 0.1391
vt 0.2641 0.1194
vt 0.3191 0.1857
vt 0.326 0.2594
vt 0.2489 0.1172
vt 0.3373 0.2658
vt 0.2428 0.1087
vt 0.2119 0.1849
vt 0.3126 0.2502
vt 0.2389 0.1045
vt 0.3114 0.2511
vt 0.2379 0.1052
vt 0.3271 0.2583
vt 0.2747 0.1476
vt 0.2411 0.1101
vt 0.3271 0.2583
vt 0.2279 0.2015
vt 0.2597 0.2303
vt 0.3384 0.2646
vt 0.2272 0.2027
vt 0.3206 0.1819
vt 0.2563 0.2323
vt 0.3308 0.192
vt 0.4288 0.2625
vt 0.3191 0.1857
vt 0.2614 0.2328
vt 0.3302 0.1931
vt 0.1859 0.1651
vt 0.3316 0.1895
vt 0.3922 0.2904
vt 0.2119 0.1849
vt 0.3308 0.192
vt 0.3428 0.1996
vt 0.3106 0.1653
vt 0.302 0.2098
vt 0.2768 0.2173
vt 0.3154 0.2167
vn -0.9999 -0.009461 0.001251
vn -0.8666 -0.1773 -0.4663
vn -0.8609 -0.01654 -0.5084
vn -0.9864 0.1494 -0.06836
vn -0.4276 -0.2872 -0.8571
vn -0.4372 -0.1064 -0.893
vn -0.4144 0.1439 -0.8986
vn -0.7943 0.2145 -0.5684
vn -0.9218 0.3388 -0.1881
vn 0.3664 -0.2471 -0.897
vn 0.4045 -0.09101 -0.91
vn 0.8319 -0.1086 -0.5441
vn 0.8457 -0.04733 -0.5315
vn 0.8507 -0.001068 -0.5256
vn 0.4029 0.07868 -0.9118
vn -0.2806 -0.4773 -0.8327
vn -0.3929 -0.06858 -0.917
vn 0.339 -0.0987 -0.9356
vn 0.4245 -0.3728 -0.8251
vn 0.8281 -0.07355 -0.5557
vn 0.7894 -0.1832 -0.5858
vn -0.4605 -0.8545 -0.2402
vn -0.2076 -0.9296 -0.3044
vn -0.2972 -0.768 -0.5672
vn -0.5181 -0.6826 -0.5153
vn 0.2172 -0.8862 -0.4091
vn 0.1165 -0.7784 -0.6168
vn -0.0708 -0.467 -0.8814
vn -0.3928 -0.3664 -0.8434
vn -0.5199 -0.2768 -0.8081
vn 0.5375 -0.2032 -0.8184
vn 0.5254 -0.08893 -0.8461
vn 0.6695 -0.1664 -0.7238
vn 0.6689 -0.04361 -0.7421
vn 0.7021 0.06754 -0.7089
vn 0.5748 0.05124 -0.8167
vn 0.5637 -0.03204 -0.8253
vn -0.8261 -0.4212 -0.3742
vn 0.2557 -0.1787 -0.9501
vn 0.07327 -0.9489 -0.3069
vn -0.5463 -0.7654 -0.3401
vn -0.6321 -0.7251 -0.2731
vn -0.6139 -0.5835 -0.5316
vn -0.505 -0.6259 -0.5943
vn -0.6745 -0.7063 -0.2147
vn -0.6804 -0.5627 -0.4694
vn -0.5744 -0.1762 -0.7994
vn -0.4782 -0.1992 -0.8554
vn -0.3437 -0.2416 -0.9075
vn -0.763 0.2131 -0.6102
vn -0.7929 0.2128 -0.571
vn -0.7067 0.4426 -0.5519
vn -0.6741 0.4397 -0.5934
vn -0.9444 0.1925 -0.2665
vn -0.857 0.4067 -0.3164
vn -0.7555 0.5666 -0.329
vn -0.5925 0.6234 -0.5102
vn -0.5556 0.6307 -0.5418
vn 0.9105 -0.3065 -0.2775
vn 0.8847 -0.2968 -0.3595
vn 0.1653 -0.7766 -0.6079
vn 0.4249 -0.4534 -0.7835
vn 0.6303 -0.632 -0.4509
vn -0.5217 -0.8414 -0.1412
vn 0.04736 -0.9948 0.09003
vn 0.3637 -0.6745 -0.6425
vn 0.5719 -0.3915 -0.7208
vn -0.6017 -0.5461 -0.5828
vn -0.7386 -0.4624 -0.4905
vn -0.6808 -0.6296 -0.3741
vn -0.5723 -0.6867 -0.4482
vn -0.8168 -0.4137 -0.402
vn -0.7453 -0.5964 -0.298
vn -0.6968 -0.5896 -0.4084
vn -0.4377 -0.7165 -0.5432
vn -0.2806 -0.8842 -0.3733
vn -0.5528 -0.7825 -0.2866
vn 0.07523 -0.6941 -0.7159
vn 0.1984 -0.8322 -0.5177
vn 0.7013 -0.5164 -0.4913
vn 0.6449 -0.4773 -0.5968
vn 0.7183 -0.5386 -0.4404
vn -0.7623 -0.003113 -0.6472
vn -0.9382 0.1386 -0.3171
vn -0.6752 -0.4124 -0.6115
vn -0.8973 -0.2659 -0.3522
vn -0.6524 0.5249 -0.5466
vn -0.5876 0.5332 -0.6086
vn -0.8075 0.4666 -0.3609
vn -0.9135 0.05631 -0.4028
vn -0.808 0.07245 -0.5846
vn -0.6956 0.05899 -0.716
vn -0.1893 -0.7659 -0.6144
vn 0.04074 -0.6113 -0.7903
vn -0.9514 -0.2416 0.1909
vn -0.9363 -0.2183 0.2752
vn 0.1943 -0.7532 0.6285
vn 0.2396 -0.6406 0.7295
vn -0.09735 -0.5973 -0.7961
vn 0.5577 -0.3634 -0.7462
vn 0.6495 -0.358 -0.6708
vn -0.8184 0.0003052 -0.5747
vn -0.8195 0.0002747 -0.573
vn -0.8193 0.04379 -0.5716
vn -0.8033 0.0474 -0.5937
vn -0.9769 0.0002136 -0.2134
vn -0.9738 0.02921 -0.2255
vn 0.8331 -0.00119 -0.5531
vn 0.5588 -0.004028 -0.8293
vn 0.59 -0.07306 -0.804
vn 0.8292 -0.03772 -0.5576
vn 0.6798 -0.003082 -0.7333
vn 0.6527 -0.09015 -0.7522
vn -0.446 -0.0002441 -0.895
vn 0.3842 0.0002747 -0.9232
vn 0.3522 -0.1037 -0.9301
vn -0.4258 -0.1303 -0.8954
vn -0.997 0.0004578 0.07752
vn -0.9057 -0.0002441 -0.424
vn -0.8775 -0.09528 -0.47
vn -0.9982 -0.03076 0.05191
vn 0.7137 -0.4568 -0.5311
vn 0.103 -0.871 -0.4803
vn -0.8456 -0.525 0.09632
vn 0.2052 -0.7208 0.6621
vn -0.5656 -0.5687 -0.5972
vn -0.7969 -0.4424 -0.4113
vn -0.7902 -0.2892 -0.5404
vn -0.6273 -0.3905 -0.6738
vn -0.8711 -0.2492 -0.4231
vn -0.9999 0.009552 0.003052
vn -0.9865 -0.1513 -0.06262
vn -0.8636 0.01233 -0.5041
vn -0.868 0.1732 -0.4653
vn -0.9232 -0.3414 -0.1765
vn -0.7989 -0.2172 -0.5608
vn -0.4129 -0.1445 -0.8992
vn -0.4401 0.1057 -0.8917
vn -0.4324 0.281 -0.8568
vn 0.3999 0.08936 -0.9122
vn 0.3523 0.2448 -0.9033
vn 0.4064 -0.0795 -0.9102
vn 0.8508 0.000824 -0.5255
vn 0.8442 0.04596 -0.5341
vn 0.822 0.1125 -0.5582
vn -0.2928 0.4693 -0.833
vn 0.4056 0.3749 -0.8336
vn 0.3338 0.1015 -0.9371
vn -0.395 0.06253 -0.9165
vn 0.7806 0.1859 -0.5967
vn 0.8228 0.07904 -0.5628
vn -0.4438 0.8695 -0.2165
vn -0.5071 0.6992 -0.5038
vn -0.2768 0.7871 -0.5511
vn -0.1826 0.9447 -0.2724
vn -0.5172 0.2813 -0.8083
vn -0.3866 0.3721 -0.8438
vn -0.05615 0.4733 -0.8791
vn 0.1474 0.7917 -0.5929
vn 0.2446 0.8954 -0.3721
vn 0.5249 0.086 -0.8468
vn 0.5201 0.2064 -0.8288
vn 0.5747 -0.05158 -0.8167
vn 0.703 -0.06867 -0.7079
vn 0.6693 0.04041 -0.7418
vn 0.661 0.1671 -0.7315
vn -0.8421 0.4049 -0.3562
vn 0.5569 0.03604 -0.8297
vn 0.06873 0.9435 -0.324
vn 0.2541 0.1792 -0.9504
vn -0.5521 0.7692 -0.3217
vn -0.5108 0.6323 -0.5825
vn -0.6147 0.5906 -0.5228
vn -0.6317 0.7309 -0.258
vn -0.3462 0.2438 -0.9059
vn -0.4787 0.2016 -0.8545
vn -0.5743 0.1792 -0.7988
vn -0.678 0.5721 -0.4615
vn -0.6696 0.715 -0.2009
vn -0.77 -0.2123 -0.6016
vn -0.6778 -0.4403 -0.5888
vn -0.7061 -0.4451 -0.5507
vn -0.7928 -0.213 -0.571
vn -0.5499 -0.6352 -0.5422
vn -0.5854 -0.629 -0.5115
vn -0.7534 -0.5696 -0.3284
vn -0.856 -0.4078 -0.3176
vn -0.9442 -0.1913 -0.2681
vn 0.9163 0.303 -0.2619
vn 0.4372 0.4566 -0.7749
vn 0.1862 0.7908 -0.583
vn 0.8912 0.2964 -0.3432
vn 0.5823 0.4005 -0.7074
vn 0.3728 0.6954 -0.6143
vn 0.06531 0.9872 0.1451
vn -0.4896 0.8654 -0.1068
vn 0.6485 0.6358 -0.4185
vn -0.6195 0.5323 -0.5769
vn -0.5825 0.6859 -0.436
vn -0.6854 0.631 -0.3632
vn -0.7491 0.4519 -0.4843
vn -0.746 0.6009 -0.287
vn -0.8226 0.4075 -0.3964
vn -0.6974 0.5915 -0.4046
vn -0.5449 0.7943 -0.2685
vn -0.2676 0.8979 -0.3494
vn -0.4382 0.7195 -0.5388
vn 0.2126 0.8447 -0.4912
vn 0.07239 0.6995 -0.7109
vn 0.6612 0.4767 -0.5792
vn 0.7191 0.5151 -0.4664
vn 0.7321 0.5408 -0.414
vn -0.9401 -0.1433 -0.3092
vn -0.7647 -0.00116 -0.6444
vn -0.9 0.2566 -0.3522
vn -0.6767 0.4041 -0.6154
vn -0.5874 -0.5335 -0.6085
vn -0.6509 -0.526 -0.5473
vn -0.7108 -0.06821 -0.7001
vn -0.8146 -0.08109 -0.5743
vn -0.9153 -0.06723 -0.397
vn -0.8074 -0.4704 -0.3562
vn -0.1856 0.7712 -0.6089
vn -0.9351 0.2208 0.2771
vn -0.9521 0.2397 0.1896
vn 0.009156 0.6065 -0.795
vn 0.24 0.6436 0.7267
vn 0.1938 0.7611 0.6189
vn 0.6463 0.365 -0.6701
vn 0.5421 0.3641 -0.7573
vn -0.1113 0.5872 -0.8018
vn -0.8072 -0.0474 -0.5883
vn -0.8193 -0.04474 -0.5716
vn -0.9734 -0.02823 -0.2272
vn 0.82 0.04089 -0.5708
vn 0.5646 0.07846 -0.8216
vn 0.6375 0.09397 -0.7647
vn -0.4259 0.1223 -0.8965
vn 0.3484 0.09906 -0.9321
vn -0.9981 0.034 0.05054
vn -0.8779 0.09513 -0.4693
vn 0.7216 0.4649 -0.5129
vn 0.1353 0.8837 -0.4481
vn -0.8331 0.5407 0.1165
vn 0.2115 0.7109 0.6707
vn -0.8 0.4326 -0.4158
vn -0.5698 0.5578 -0.6034
vn -0.6551 0.3629 -0.6626
vn -0.8034 0.2678 -0.5318
vn -0.8772 0.233 -0.4198
vn -0.885 0.3021 -0.3543
vn -0.9636 0.06888 -0.2583
vn -0.811 0.4615 -0.3596
vn -0.9932 0.0003967 0.1162
vn -0.9915 0.0004273 0.1297
vn -0.9911 -0.1157 0.06607
vn -0.9253 -0.337 -0.1738
vn -0.8813 -0.4587 -0.113
vn -0.7047 0.6643 -0.2493
vn -0.6093 0.7701 -0.1887
vn -0.6395 0.6133 -0.4636
vn -0.5776 0.2121 -0.7882
vn -0.9574 -0.288 -0.02258
vn -0.9623 -0.07917 -0.2601
vn -0.8818 -0.3132 -0.3524
vn -0.8085 -0.4624 -0.3641
vn -0.9929 0.002167 0.1188
vn -0.9907 0.118 0.06821
vn -0.8817 0.4566 -0.1188
vn -0.9256 0.3321 -0.1815
vn -0.7076 -0.6559 -0.2628
vn -0.6185 -0.7583 -0.2057
vn -0.6446 -0.601 -0.4724
vn -0.5785 -0.2087 -0.7884
vn -0.9573 0.2879 -0.02383
f 1/1/1 2/2/2 3/3/3
f 1/1/1 3/3/3 4/4/4
f 2/2/2 5/5/5 6/6/6
f 2/2/2 6/6/6 3/3/3
f 3/3/3 6/6/6 7/7/7
f 3/3/3 7/7/7 8/8/8
f 4/4/4 3/3/3 8/8/8
f 4/4/4 8/8/8 9/9/9
f 5/5/5 10/10/10 11/11/11
f 5/5/5 11/11/11 6/6/6
f 10/10/10 12/12/12 13/13/13
f 10/10/10 13/13/13 11/11/11
f 11/11/11 13/13/13 14/14/14
f 11/11/11 14/14/14 15/15/15
f 6/6/6 11/11/11 15/15/15
f 6/6/6 15/15/15 7/7/7
f 16/16/16 17/17/17 18/18/18
f 16/16/16 18/18/18 19/19/19
f 17/17/17 7/7/7 15/15/15
f 17/17/17 15/15/15 18/18/18
f 18/18/18 15/15/15 14/14/14
f 18/18/18 14/14/14 20/20/20
f 19/19/19 18/18/18 20/20/20
f 19/19/19 20/20/20 21/21/21
f 22/22/22 23/23/23 24/24/24
f 22/22/22 24/24/24 25/25/25
f 23/23/23 26/26/26 27/27/27
f 23/23/23 27/27/27 24/24/24
f 24/24/24 27/27/27 28/28/28
f 24/24/24 28/28/28 29/29/29
f 25/25/25 24/24/24 29/29/29
f 25/25/25 29/29/29 30/30/30
f 12/12/12 31/31/31 32/32/32
f 12/12/12 32/32/32 13/13/13
f 31/31/31 33/33/33 34/34/34
f 31/31/31 34/34/34 32/32/32
f 32/32/32 34/34/34 35/35/35
f 32/32/32 35/35/35 36/36/36
f 13/13/13 32/32/32 36/36/36
f 13/13/13 36/36/36 14/14/14
f 21/21/21 20/20/20 37/37/37
f 21/21/21 37/37/37 38/38/38
f 20/20/20 14/14/14 36/36/36
f 20/20/20 36/36/36 37/37/37
f 37/37/37 36/36/36 35/35/35
f 37/37/37 35/35/35 39/39/39
f 38/38/38 37/37/37 39/39/39
f 38/38/38 39/39/39 40/40/40
f 41/41/41 42/42/42 43/43/43
f 41/41/41 43/43/43 44/44/44
f 42/42/42 45/45/45 46/46/46
f 42/42/42 46/46/46 43/43/43
f 43/43/43 46/46/46 47/47/47
f 43/43/43 47/47/47 48/48/48
f 44/44/44 43/43/43 48/48/48
f 44/44/44 48/48/48 49/49/49
f 50/50/50 51/51/51 52/52/52
f 50/50/50 52/52/52 53/53/53
f 51/51/51 54/54/54 55/55/55
f 51/51/51 55/55/55 52/52/52
f 52/52/52 55/55/55 56/56/56
f 52/52/52 56/56/56 57/57/57
f 53/53/53 52/52/52 57/57/57
f 53/53/53 57/57/57 58/58/58
f 59/59/59 60/60/60 61/61/61
f 59/59/59 61/61/61 62/62/62
f 60/60/60 63/63/63 64/64/64
f 60/60/60 64/64/64 61/61/61
f 61/61/61 64/64/64 65/65/65
f 61/61/61 65/65/65 66/66/66
f 62/62/62 61/61/61 66/66/66
f 62/62/62 66/66/66 67/67/67
f 68/68/68 69/69/69 70/70/70
f 68/68/68 70/70/70 71/71/71
f 69/69/69 72/72/72 73/73/73
f 69/69/69 73/73/73 70/70/70
f 70/70/70 73/73/73 45/45/45
f 70/70/70 45/45/45 42/42/42
f 71/71/71 70/70/70 42/42/42
f 71/71/71 42/42/42 41/41/41
f 74/74/74 75/75/75 76/76/76
f 74/74/74 76/76/76 77/77/77
f 75/75/75 78/78/78 79/79/79
f 75/75/75 79/79/79 76/76/76
f 76/76/76 79/79/79 26/26/26
f 76/76/76 26/26/26 23/23/23
f 77/77/77 76/76/76 23/23/23
f 77/77/77 23/23/23 22/22/22
f 28/28/28 27/27/27 80/80/80
f 28/28/28 80/80/80 81/81/81
f 27/27/27 26/26/26 82/82/82
f 27/27/27 82/82/82 80/80/80
f 80/80/80 82/82/82 63/63/63
f 80/80/80 63/63/63 60/60/60
f 81/81/81 80/80/80 60/60/60
f 81/81/81 60/60/60 59/59/59
f 9/9/9 8/8/8 83/83/83
f 9/9/9 83/83/83 84/84/84
f 8/8/8 7/7/7 17/17/17
f 8/8/8 17/17/17 83/83/83
f 83/83/83 17/17/17 16/16/16
f 83/83/83 16/16/16 85/85/85
f 84/84/84 83/83/83 85/85/85
f 84/84/84 85/85/85 86/86/86
f 58/58/58 57/57/57 87/87/87
f 58/58/58 87/87/87 88/88/88
f 57/57/57 56/56/56 89/89/89
f 57/57/57 89/89/89 87/87/87
f 87/87/87 89/89/89 90/90/90
f 87/87/87 90/90/90 91/91/91
f 88/88/88 87/87/87 91/91/91
f 88/88/88 91/91/91 92/92/92
f 93/93/93 94/94/94 95/95/95
f 93/93/93 95/95/95 96/96/96
f 94/94/94 21/21/21 95/95/95
f 21/21/21 38/38/38 95/95/95
f 95/95/95 38/38/38 40/40/40
f 95/95/95 40/40/40 97/97/97
f 96/96/96 95/95/95 97/97/97
f 96/96/96 97/97/97 98/98/98
f 78/78/78 99/99/99 100/100/100
f 78/78/78 100/100/100 101/101/101
f 99/99/99 16/16/16 19/19/19
f 99/99/99 19/19/19 100/100/100
f 100/100/100 19/19/19 21/21/21
f 100/100/100 21/21/21 94/94/94
f 101/101/101 100/100/100 94/94/94
f 101/101/101 94/94/94 93/93/93
f 102/102/102 103/103/103 104/104/104
f 102/102/102 104/104/104 105/105/105
f 103/103/103 106/106/106 107/107/107
f 103/103/103 107/107/107 104/104/104
f 104/104/104 107/107/107 54/54/54
f 104/104/104 54/54/54 51/51/51
f 105/105/105 104/104/104 51/51/51
f 105/105/105 51/51/51 50/50/50
f 108/108/108 109/109/109 110/110/110
f 108/108/108 110/110/110 111/111/111
f 109/109/109 112/112/112 113/113/113
f 109/109/109 113/113/113 110/110/110
f 110/110/110 113/113/113 33/33/33
f 110/110/110 33/33/33 31/31/31
f 111/111/111 110/110/110 31/31/31
f 111/111/111 31/31/31 12/12/12
f 114/114/114 115/115/115 116/116/116
f 114/114/114 116/116/116 117/117/117
f 115/115/115 108/108/108 111/111/111
f 115/115/115 111/111/111 116/116/116
f 116/116/116 111/111/111 12/12/12
f 116/116/116 12/12/12 10/10/10
f 117/117/117 116/116/116 10/10/10
f 117/117/117 10/10/10 5/5/5
f 118/118/118 119/119/119 120/120/120
f 118/118/118 120/120/120 121/121/121
f 119/119/119 114/114/114 117/117/117
f 119/119/119 117/117/117 120/120/120
f 120/120/120 117/117/117 5/5/5
f 120/120/120 5/5/5 2/2/2
f 121/121/121 120/120/120 2/2/2
f 121/121/121 2/2/2 1/1/1
f 26/26/26 79/79/79 122/122/122
f 26/26/26 122/122/122 82/82/82
f 79/79/79 78/78/78 101/101/101
f 79/79/79 101/101/101 122/122/122
f 122/122/122 101/101/101 93/93/93
f 122/122/122 93/93/93 123/123/123
f 82/82/82 122/122/122 123/123/123
f 82/82/82 123/123/123 63/63/63
f 63/63/63 123/123/123 64/64/64
f 123/123/123 124/124/124 64/64/64
f 123/123/123 93/93/93 96/96/96
f 123/123/123 96/96/96 124/124/124
f 124/124/124 96/96/96 98/98/98
f 124/124/124 98/98/98 125/125/125
f 64/64/64 124/124/124 125/125/125
f 64/64/64 125/125/125 65/65/65
f 86/86/86 85/85/85 126/126/126
f 86/86/86 126/126/126 127/127/127
f 85/85/85 16/16/16 99/99/99
f 85/85/85 99/99/99 126/126/126
f 126/126/126 99/99/99 78/78/78
f 126/126/126 78/78/78 75/75/75
f 127/127/127 126/126/126 75/75/75
f 127/127/127 75/75/75 74/74/74
f 92/92/92 91/91/91 128/128/128
f 92/92/92 128/128/128 129/129/129
f 91/91/91 90/90/90 130/130/130
f 91/91/91 130/130/130 128/128/128
f 128/128/128 130/130/130 72/72/72
f 128/128/128 72/72/72 69/69/69
f 129/129/129 128/128/128 69/69/69
f 129/129/129 69/69/69 68/68/68
f 131/131/131 132/132/132 133/133/133
f 131/131/131 133/133/133 134/134/134
f 132/132/132 135/135/135 136/136/136
f 132/132/132 136/136/136 133/133/133
f 133/133/133 136/136/136 137/137/137
f 133/133/133 137/137/137 138/138/138
f 134/134/134 133/133/133 138/138/138
f 134/134/134 138/138/138 139/139/139
f 139/139/139 138/138/138 140/140/140
f 139/139/139 140/140/140 141/141/141
f 138/138/138 137/137/137 142/142/142
f 138/138/138 142/142/142 140/140/140
f 140/140/140 142/142/142 143/143/143
f 140/140/140 143/143/143 144/144/144
f 141/141/141 140/140/140 144/144/144
f 141/141/141 144/144/144 145/145/145
f 146/146/146 147/147/147 148/148/148
f 146/146/146 148/148/148 149/149/149
f 147/147/147 150/150/150 151/151/151
f 147/147/147 151/151/151 148/148/148
f 148/148/148 151/151/151 143/143/143
f 148/148/148 143/143/143 142/142/142
f 149/149/149 148/148/148 142/142/142
f 149/149/149 142/142/142 137/137/137
f 152/152/152 153/153/153 154/154/154
f 152/152/152 154/154/154 155/155/155
f 153/153/153 156/156/156 157/157/157
f 153/153/153 157/157/157 154/154/154
f 154/154/154 157/157/157 158/158/158
f 154/154/154 158/158/158 159/159/159
f 155/155/155 154/154/154 159/159/159
f 155/155/155 159/159/159 160/160/160
f 145/145/145 144/144/144 161/161/161
f 145/145/145 161/161/161 162/162/162
f 144/144/144 143/143/143 163/163/163
f 144/144/144 163/163/163 161/161/161
f 161/161/161 163/163/163 164/164/164
f 161/161/161 164/164/164 165/165/165
f 162/162/162 161/161/161 165/165/165
f 162/162/162 165/165/165 166/166/166
f 150/150/150 167/167/167 168/168/168
f 150/150/150 168/168/168 151/151/151
f 167/167/167 169/169/169 170/170/170
f 167/167/167 170/170/170 168/168/168
f 168/168/168 170/170/170 164/164/164
f 168/168/168 164/164/164 163/163/163
f 151/151/151 168/168/168 163/163/163
f 151/151/151 163/163/163 143/143/143
f 171/171/171 172/172/172 173/173/173
f 171/171/171 173/173/173 174/174/174
f 172/172/172 175/175/175 176/176/176
f 172/172/172 176/176/176 173/173/173
f 173/173/173 176/176/176 177/177/177
f 173/173/173 177/177/177 178/178/178
f 174/174/174 173/173/173 178/178/178
f 174/174/174 178/178/178 179/179/179
f 180/180/180 181/181/181 182/182/182
f 180/180/180 182/182/182 183/183/183
f 181/181/181 184/184/184 185/185/185
f 181/181/181 185/185/185 182/182/182
f 182/182/182 185/185/185 186/186/186
f 182/182/182 186/186/186 187/187/187
f 183/183/183 182/182/182 187/187/187
f 183/183/183 187/187/187 188/188/188
f 189/189/189 190/190/190 191/191/191
f 189/189/189 191/191/191 192/192/192
f 190/190/190 193/193/193 194/194/194
f 190/190/190 194/194/194 191/191/191
f 191/191/191 194/194/194 195/195/195
f 191/191/191 195/195/195 196/196/196
f 192/192/192 191/191/191 196/196/196
f 192/192/192 196/196/196 197/197/197
f 198/198/198 199/199/199 200/200/200
f 198/198/198 200/200/200 201/201/201
f 199/199/199 171/171/171 174/174/174
f 199/199/199 174/174/174 200/200/200
f 200/200/200 174/174/174 179/179/179
f 200/200/200 179/179/179 202/202/202
f 201/201/201 200/200/200 202/202/202
f 201/201/201 202/202/202 203/203/203
f 204/204/204 205/205/205 206/206/206
f 204/204/204 206/206/206 207/207/207
f 205/205/205 152/152/152 155/155/155
f 205/205/205 155/155/155 206/206/206
f 206/206/206 155/155/155 160/160/160
f 206/206/206 160/160/160 208/208/208
f 207/207/207 206/206/206 208/208/208
f 207/207/207 208/208/208 209/209/209
f 158/158/158 210/210/210 211/211/211
f 158/158/158 211/211/211 159/159/159
f 210/210/210 189/189/189 192/192/192
f 210/210/210 192/192/192 211/211/211
f 211/211/211 192/192/192 197/197/197
f 211/211/211 197/197/197 212/212/212
f 159/159/159 211/211/211 212/212/212
f 159/159/159 212/212/212 160/160/160
f 135/135/135 213/213/213 214/214/214
f 135/135/135 214/214/214 136/136/136
f 213/213/213 215/215/215 216/216/216
f 213/213/213 216/216/216 214/214/214
f 214/214/214 216/216/216 146/146/146
f 214/214/214 146/146/146 149/149/149
f 136/136/136 214/214/214 149/149/149
f 136/136/136 149/149/149 137/137/137
f 184/184/184 217/217/217 218/218/218
f 184/184/184 218/218/218 185/185/185
f 217/217/217 219/219/219 220/220/220
f 217/217/217 220/220/220 218/218/218
f 218/218/218 220/220/220 221/221/221
f 218/218/218 221/221/221 222/222/222
f 185/185/185 218/218/218 222/222/222
f 185/185/185 222/222/222 186/186/186
f 223/223/223 224/224/224 225/225/225
f 223/223/223 225/225/225 226/226/226
f 224/224/224 227/227/227 228/228/228
f 224/224/224 228/228/228 225/225/225
f 225/225/225 228/228/228 169/169/169
f 225/225/225 169/169/169 167/167/167
f 226/226/226 225/225/225 150/150/150
f 225/225/225 167/167/167 150/150/150
f 209/209/209 229/229/229 230/230/230
f 209/209/209 230/230/230 231/231/231
f 229/229/229 223/223/223 226/226/226
f 229/229/229 226/226/226 230/230/230
f 230/230/230 226/226/226 150/150/150
f 230/230/230 150/150/150 147/147/147
f 231/231/231 230/230/230 147/147/147
f 231/231/231 147/147/147 146/146/146
f 102/102/102 232/232/232 233/233/233
f 102/102/102 233/233/233 103/103/103
f 232/232/232 180/180/180 183/183/183
f 232/232/232 183/183/183 233/233/233
f 233/233/233 183/183/183 188/188/188
f 233/233/233 188/188/188 234/234/234
f 103/103/103 233/233/233 234/234/234
f 103/103/103 234/234/234 106/106/106
f 108/108/108 235/235/235 236/236/236
f 108/108/108 236/236/236 109/109/109
f 235/235/235 145/145/145 162/162/162
f 235/235/235 162/162/162 236/236/236
f 236/236/236 162/162/162 166/166/166
f 236/236/236 166/166/166 237/237/237
f 109/109/109 236/236/236 237/237/237
f 109/109/109 237/237/237 112/112/112
f 114/114/114 238/238/238 239/239/239
f 114/114/114 239/239/239 115/115/115
f 238/238/238 139/139/139 141/141/141
f 238/238/238 141/141/141 239/239/239
f 239/239/239 141/141/141 145/145/145
f 239/239/239 145/145/145 235/235/235
f 115/115/115 239/239/239 235/235/235
f 115/115/115 235/235/235 108/108/108
f 118/118/118 240/240/240 241/241/241
f 118/118/118 241/241/241 119/119/119
f 240/240/240 131/131/131 134/134/134
f 240/240/240 134/134/134 241/241/241
f 241/241/241 134/134/134 139/139/139
f 241/241/241 139/139/139 238/238/238
f 119/119/119 241/241/241 238/238/238
f 119/119/119 238/238/238 114/114/114
f 160/160/160 212/212/212 242/242/242
f 160/160/160 242/242/242 208/208/208
f 212/212/212 197/197/197 243/243/243
f 212/212/212 243/243/243 242/242/242
f 242/242/242 243/243/243 223/223/223
f 242/242/242 223/223/223 229/229/229
f 208/208/208 242/242/242 229/229/229
f 208/208/208 229/229/229 209/209/209
f 197/197/197 196/196/196 243/243/243
f 196/196/196 244/244/244 243/243/243
f 196/196/196 195/195/195 245/245/245
f 196/196/196 245/245/245 244/244/244
f 244/244/244 245/245/245 227/227/227
f 244/244/244 227/227/227 224/224/224
f 243/243/243 244/244/244 224/224/224
f 243/243/243 224/224/224 223/223/223
f 215/215/215 246/246/246 247/247/247
f 215/215/215 247/247/247 216/216/216
f 246/246/246 204/204/204 207/207/207
f 246/246/246 207/207/207 247/247/247
f 247/247/247 207/207/207 209/209/209
f 247/247/247 209/209/209 231/231/231
f 216/216/216 247/247/247 231/231/231
f 216/216/216 231/231/231 146/146/146
f 219/219/219 248/248/248 249/249/249
f 219/219/219 249/249/249 220/220/220
f 248/248/248 198/198/198 201/201/201
f 248/248/248 201/201/201 249/249/249
f 249/249/249 201/201/201 203/203/203
f 249/249/249 203/203/203 250/250/250
f 220/220/220 249/249/249 250/250/250
f 220/220/220 250/250/250 221/221/221
f 221/221/221 250/250/250 251/251/251
f 221/221/221 251/251/251 252/252/252
f 250/250/250 203/203/203 253/253/253
f 250/250/250 253/253/253 251/251/251
f 251/251/251 253/253/253 204/204/204
f 251/251/251 204/204/204 246/246/246
f 252/252/252 251/251/251 246/246/246
f 252/252/252 246/246/246 215/215/215
f 106/106/106 234/234/234 254/254/254
f 106/106/106 254/254/254 255/255/255
f 234/234/234 188/188/188 256/256/256
f 234/234/234 256/256/256 254/254/254
f 254/254/254 256/256/256 131/131/131
f 254/254/254 131/131/131 240/240/240
f 255/255/255 254/254/254 240/240/240
f 255/255/255 240/240/240 118/118/118
f 186/186/186 222/222/222 257/257/257
f 186/186/186 257/257/257 258/258/258
f 222/222/222 221/221/221 252/252/252
f 222/222/222 252/252/252 257/257/257
f 257/257/257 252/252/252 215/215/215
f 257/257/257 215/215/215 213/213/213
f 258/258/258 257/257/257 213/213/213
f 258/258/258 213/213/213 135/135/135
f 203/203/203 202/202/202 259/259/259
f 203/203/203 259/259/259 253/253/253
f 202/202/202 179/179/179 260/260/260
f 202/202/202 260/260/260 259/259/259
f 259/259/259 260/260/260 152/152/152
f 259/259/259 152/152/152 205/205/205
f 253/253/253 259/259/259 205/205/205
f 253/253/253 205/205/205 204/204/204
f 179/179/179 178/178/178 261/261/261
f 179/179/179 261/261/261 260/260/260
f 178/178/178 177/177/177 262/262/262
f 178/178/178 262/262/262 261/261/261
f 261/261/261 262/262/262 156/156/156
f 261/261/261 156/156/156 153/153/153
f 260/260/260 261/261/261 153/153/153
f 260/260/260 153/153/153 152/152/152
f 188/188/188 187/187/187 263/263/263
f 188/188/188 263/263/263 256/256/256
f 187/187/187 186/186/186 258/258/258
f 187/187/187 258/258/258 263/263/263
f 263/263/263 258/258/258 135/135/135
f 263/263/263 135/135/135 132/132/132
f 256/256/256 263/263/263 132/132/132
f 256/256/256 132/132/132 131/131/131
f 90/90/90 264/264/264 265/265/265
f 90/90/90 265/265/265 130/130/130
f 264/264/264 86/86/86 127/127/127
f 264/264/264 127/127/127 265/265/265
f 265/265/265 127/127/127 74/74/74
f 265/265/265 74/74/74 266/266/266
f 130/130/130 265/265/265 266/266/266
f 130/130/130 266/266/266 72/72/72
f 106/106/106 255/255/255 267/267/267
f 106/106/106 267/267/267 107/107/107
f 255/255/255 118/118/118 121/121/121
f 255/255/255 121/121/121 267/267/267
f 267/267/267 121/121/121 1/1/1
f 267/267/267 1/1/1 268/268/268
f 107/107/107 267/267/267 268/268/268
f 107/107/107 268/268/268 54/54/54
f 56/56/56 269/269/269 270/270/270
f 56/56/56 270/270/270 89/89/89
f 269/269/269 9/9/9 84/84/84
f 269/269/269 84/84/84 270/270/270
f 270/270/270 84/84/84 86/86/86
f 270/270/270 86/86/86 264/264/264
f 89/89/89 270/270/270 264/264/264
f 89/89/89 264/264/264 90/90/90
f 72/72/72 266/266/266 271/271/271
f 72/72/72 271/271/271 73/73/73
f 266/266/266 74/74/74 77/77/77
f 266/266/266 77/77/77 271/271/271
f 271/271/271 77/77/77 22/22/22
f 271/271/271 22/22/22 272/272/272
f 73/73/73 271/271/271 272/272/272
f 73/73/73 272/272/272 45/45/45
f 45/45/45 272/272/272 273/273/273
f 45/45/45 273/273/273 46/46/46
f 272/272/272 22/22/22 25/25/25
f 272/272/272 25/25/25 273/273/273
f 273/273/273 25/25/25 30/30/30
f 273/273/273 30/30/30 274/274/274
f 46/46/46 273/273/273 274/274/274
f 46/46/46 274/274/274 47/47/47
f 54/54/54 268/268/268 275/275/275
f 54/54/54 275/275/275 55/55/55
f 268/268/268 1/1/1 4/4/4
f 268/268/268 4/4/4 275/275/275
f 275/275/275 4/4/4 9/9/9
f 275/275/275 9/9/9 269/269/269
f 55/55/55 275/275/275 269/269/269
f 55/55/55 269/269/269 56/56/56
