v 0.549363 -0.154613 0.75573
v 0.547174 -0.129329 0.744731
v 0.599502 -0.135713 0.688416
v 0.602135 -0.162203 0.701658
v 0.548638 -0.115542 0.747133
v 0.600836 -0.121867 0.690066
v 0.640704 -0.126537 0.663117
v 0.639525 -0.140378 0.662031
v 0.642695 -0.167671 0.676937
v 0.54933 -0.0986654 0.745431
v 0.600768 -0.103539 0.687607
v 0.601517 -0.111926 0.690375
v 0.549396 -0.105876 0.747563
v 0.643701 -0.09736 0.655037
v 0.641612 -0.11558 0.662912
v 0.657522 -0.0966409 0.653069
v 0.658306 -0.117494 0.657349
v 0.660092 -0.097345 0.659664
v 0.661471 -0.118707 0.663144
v 0.661072 -0.130461 0.662848
v 0.657795 -0.129107 0.657225
v 0.65669 -0.142896 0.656252
v 0.660143 -0.170277 0.671649
v 0.659985 -0.144174 0.661786
v 0.66354 -0.171211 0.676822
v 0.455429 -0.0741437 0.85927
v 0.499476 -0.0906797 0.811763
v 0.498771 -0.0986194 0.813795
v 0.45748 -0.0910158 0.861355
v 0.497981 -0.108398 0.813022
v 0.457019 -0.101489 0.860367
v 0.457897 -0.13763 0.866007
v 0.45561 -0.114785 0.858031
v 0.496508 -0.12203 0.810588
v 0.498663 -0.146082 0.819757
v 0.505713 -0.238441 0.989521
v 0.505791 -0.232234 0.984214
v 0.545213 -0.251753 0.946946
v 0.545103 -0.258209 0.952264
v 0.501736 -0.228144 0.968666
v 0.541289 -0.246899 0.931589
v 0.592021 -0.268102 0.896117
v 0.595935 -0.273912 0.911739
v 0.595865 -0.28059 0.917221
v 0.652881 -0.294972 0.892374
v 0.652965 -0.301787 0.898377
v 0.648607 -0.288321 0.875521
v 0.693925 -0.302292 0.867452
v 0.69861 -0.309422 0.885615
v 0.698822 -0.31626 0.892137
v 0.480838 -0.205174 0.911379
v 0.467521 -0.172491 0.886532
v 0.508045 -0.183587 0.844623
v 0.521033 -0.219473 0.872845
v 0.558811 -0.195213 0.78745
v 0.571841 -0.235006 0.82567
v 0.612521 -0.206026 0.741104
v 0.626701 -0.249828 0.793574
v 0.65423 -0.213749 0.721007
v 0.669839 -0.260322 0.778853
v 0.478749 0.00545024 0.830465
v 0.507774 0.00270097 0.78886
v 0.509185 -0.0329407 0.787396
v 0.480878 -0.0295818 0.827528
v 0.546255 -0.000890878 0.729675
v 0.547716 -0.0376939 0.729269
v 0.549692 -0.0663415 0.731805
v 0.510958 -0.0600843 0.789552
v 0.487292 -0.0521477 0.821579
v 0.651017 -0.00840512 0.635615
v 0.654101 -0.00843554 0.642401
v 0.655586 -0.0578835 0.646043
v 0.651569 -0.0570682 0.640095
v 0.655855 -0.00844956 0.650492
v 0.657405 -0.0583951 0.653774
v 0.586696 -0.00435618 0.675543
v 0.58802 -0.0419197 0.676891
v 0.618484 -0.00689214 0.644618
v 0.618721 -0.0450989 0.647942
v 0.614784 -0.0679927 0.656206
v 0.589941 -0.0701818 0.68043
v 0.718655 -0.313344 0.884793
v 0.718829 -0.320083 0.891463
v 0.713857 -0.306242 0.86626
v 0.718118 -0.304206 0.868262
v 0.722826 -0.310982 0.886526
v 0.722853 -0.317554 0.893098
v 0.672298 -0.216756 0.716745
v 0.688674 -0.263822 0.775836
v 0.675938 -0.216961 0.721127
v 0.692611 -0.263139 0.779248
v 0.683917 -0.288709 0.83066
v 0.703424 -0.292532 0.828719
v 0.707595 -0.291067 0.831295
v 0.583628 -0.257927 0.864718
v 0.639499 -0.276045 0.841439
v 0.493009 -0.222018 0.940969
v 0.532847 -0.239004 0.903884
v 0.428646 -0.108349 0.884966
v 0.42999 -0.0956286 0.887159
v 0.430927 -0.129982 0.892569
v 0.412053 -0.122862 0.908688
v 0.409886 -0.102446 0.902485
v 0.411173 -0.0904417 0.904257
v 0.440147 0.00723519 0.863671
v 0.44232 -0.0356346 0.859395
v 0.427331 -0.034093 0.874913
v 0.426473 0.00754613 0.878015
v 0.429477 -0.067195 0.884265
v 0.411258 -0.0631779 0.901054
v 0.410552 -0.031863 0.89926
v 0.410189 0.00793739 0.901742
v 0.430519 -0.0851112 0.887926
v 0.411708 -0.0804283 0.904735
v 0.465586 -0.208512 0.966065
v 0.453565 -0.193153 0.936171
v 0.47421 -0.213862 0.994549
v 0.453461 -0.20229 1.01283
v 0.445224 -0.197111 0.984183
v 0.433728 -0.182514 0.953207
v 0.440427 -0.16271 0.911949
v 0.421147 -0.153747 0.927978
v 0.478218 -0.217605 1.00984
v 0.478166 -0.223585 1.01503
v 0.457251 -0.211714 1.03245
v 0.457287 -0.205943 1.02748
v 0.54936 0.155838 0.756944
v 0.602131 0.156989 0.702242
v 0.599498 0.12949 0.688586
v 0.54717 0.129864 0.745055
v 0.642691 0.157635 0.676941
v 0.63952 0.129205 0.662032
v 0.640691 0.114858 0.663104
v 0.600826 0.115329 0.690022
v 0.548631 0.115995 0.746957
v 0.549244 0.0987082 0.745363
v 0.549372 0.106151 0.747425
v 0.601488 0.105071 0.69027
v 0.600688 0.0963732 0.687556
v 0.641579 0.103402 0.662871
v 0.643643 0.0839858 0.654986
v 0.658284 0.103251 0.657322
v 0.657491 0.0815657 0.653029
v 0.657786 0.115383 0.657218
v 0.66107 0.116549 0.662852
v 0.661468 0.104263 0.663147
v 0.66009 0.0821234 0.659666
v 0.660139 0.158326 0.671653
v 0.656686 0.129764 0.656255
v 0.663536 0.159102 0.676826
v 0.659982 0.130876 0.661789
v 0.455372 0.0872673 0.859278
v 0.457445 0.103722 0.861324
v 0.49874 0.106013 0.813688
v 0.499399 0.0979196 0.811701
v 0.457005 0.114079 0.860358
v 0.49797 0.115832 0.812972
v 0.457893 0.149495 0.866394
v 0.49866 0.153529 0.820533
v 0.496504 0.129349 0.810723
v 0.455606 0.127117 0.858032
v 0.505707 0.24377 0.989527
v 0.545097 0.264327 0.952271
v 0.545207 0.257861 0.946953
v 0.505786 0.237671 0.98422
v 0.595858 0.28624 0.917229
v 0.595928 0.279345 0.911746
v 0.592014 0.273519 0.896124
v 0.541283 0.253519 0.931893
v 0.50173 0.234407 0.969029
v 0.652958 0.305158 0.898384
v 0.652874 0.297811 0.892382
v 0.698814 0.317166 0.892145
v 0.698602 0.309515 0.885624
v 0.693917 0.301205 0.867459
v 0.6486 0.290504 0.875528
v 0.480833 0.215065 0.913909
v 0.521027 0.227864 0.873971
v 0.50804 0.191663 0.845902
v 0.467517 0.183633 0.888814
v 0.571835 0.239792 0.82702
v 0.558806 0.198224 0.789409
v 0.626695 0.249269 0.79358
v 0.612516 0.203008 0.741965
v 0.669833 0.255069 0.77886
v 0.654225 0.205879 0.721012
v 0.480795 0.0402733 0.828236
v 0.508866 0.0384849 0.789274
v 0.48708 0.0619476 0.821284
v 0.510447 0.0658994 0.78929
v 0.548939 0.0657778 0.733491
v 0.547235 0.0363663 0.731698
v 0.651538 0.0410129 0.640058
v 0.655566 0.0416141 0.646015
v 0.657403 0.0420862 0.653775
v 0.587662 0.0339098 0.678284
v 0.589373 0.0632928 0.682056
v 0.614492 0.0570015 0.656562
v 0.61858 0.0322471 0.64813
v 0.718821 0.319987 0.891471
v 0.718648 0.312315 0.884801
v 0.722846 0.317451 0.893106
v 0.722818 0.309932 0.886534
v 0.718111 0.301726 0.86827
v 0.71385 0.303814 0.866268
v 0.688668 0.256643 0.775842
v 0.672293 0.206926 0.716751
v 0.692604 0.255809 0.779255
v 0.675933 0.206971 0.721133
v 0.703417 0.287965 0.828727
v 0.68391 0.285811 0.830667
v 0.707588 0.286395 0.831302
v 0.639492 0.277199 0.841446
v 0.583622 0.263365 0.865003
v 0.532841 0.246671 0.904947
v 0.493004 0.230022 0.942582
v 0.42998 0.110343 0.887272
v 0.428643 0.122721 0.885166
v 0.411171 0.105463 0.904313
v 0.409883 0.117073 0.902564
v 0.41205 0.136315 0.908937
v 0.430924 0.143472 0.893079
v 0.42731 0.049183 0.875337
v 0.442291 0.0500693 0.859818
v 0.410551 0.0475858 0.899852
v 0.411257 0.0786178 0.900621
v 0.429444 0.0821798 0.883752
v 0.430495 0.0999735 0.887689
v 0.411706 0.0956514 0.904596
v 0.45356 0.202719 0.938205
v 0.465581 0.215695 0.967239
v 0.433723 0.190772 0.954818
v 0.445219 0.202912 0.984899
v 0.453456 0.206383 1.01283
v 0.474205 0.219157 0.994565
v 0.440423 0.174517 0.913623
v 0.421144 0.164843 0.92922
v 0.478213 0.222005 1.00985
v 0.457282 0.209212 1.02749
v 0.457246 0.214743 1.03246
v 0.478161 0.227802 1.01503
v 0.628227 -0.0830181 0.650644
v 0.63979 -0.0522385 0.634184
v 0.645599 -0.0547687 0.63602
v 0.633756 -0.0878102 0.652651
v 0.640164 -0.00825653 0.629647
v 0.645851 -0.0083453 0.631249
v 0.45606 0.00694323 0.854232
v 0.459049 -0.0327171 0.85
v 0.452359 -0.0346475 0.852439
v 0.449457 0.00705586 0.857021
v 0.473764 -0.0638379 0.842852
v 0.467584 -0.0677145 0.847411
v 0.505886 -0.0807082 0.804332
v 0.502506 -0.0852156 0.808143
v 0.549526 -0.0886689 0.740233
v 0.549263 -0.0934252 0.742894
v 0.594901 -0.0924163 0.682991
v 0.597764 -0.0974202 0.685031
v 0.639768 0.0367044 0.634214
v 0.645571 0.0389665 0.636009
v 0.628105 0.0706595 0.65078
v 0.633672 0.075073 0.652678
v 0.473692 0.0754842 0.842767
v 0.459062 0.0463564 0.850056
v 0.452347 0.0486093 0.852458
v 0.467522 0.0798181 0.847335
v 0.549088 0.0885571 0.740583
v 0.505594 0.0873602 0.804362
v 0.502345 0.0921542 0.808067
v 0.549039 0.0933505 0.743022
v 0.594575 0.0855216 0.683258
v 0.597588 0.0903129 0.685096
v 0.633638 -0.0490747 0.636251
v 0.623187 -0.0771034 0.651387
v 0.633931 -0.00800324 0.632118
v 0.466192 -0.0304771 0.844684
v 0.463411 0.00666686 0.848358
v 0.479584 -0.0590061 0.835338
v 0.509075 -0.0743078 0.798416
v 0.550055 -0.081745 0.736916
v 0.592651 -0.0854001 0.681984
v 0.633601 0.0341071 0.636327
v 0.622993 0.0652517 0.651639
v 0.466209 0.0434911 0.844776
v 0.479468 0.0700359 0.835211
v 0.508623 0.0805999 0.798515
v 0.549372 0.0815558 0.737416
v 0.592144 0.0787212 0.682458
vt 0.04607 0.4702
vt 0.2467 0.2581
vt 0.4777 0.3961
vt 0.2279 0.2811
vt 0.06871 0.4809
vt 0.1994 0.4766
vt 0.05422 0.4459
vt 0.2541 0.2408
vt 0.04297 0.4712
vt 0.1941 0.4638
vt 0.2939 0.2832
vt 0.4761 0.3697
vt 0.2717 0.244
vt 0.0599 0.4906
vt 0.1511 0.4172
vt 0.2375 0.2879
vt 0.4702 0.4162
vt 0.04607 0.4702
vt 0.2571 0.2627
vt 0.04345 0.4489
vt 0.1687 0.4454
vt 0.4836 0.3697
vt 0.2235 0.2772
vt 0.2411 0.2563
vt 0.04838 0.4869
vt 0.07393 0.4902
vt 0.2737 0.2716
vt 0.4745 0.3418
vt 0.4646 0.3414
vt 0.4505 0.3407
vt 0.04607 0.4702
vt 0.05182 0.4854
vt 0.2467 0.2581
vt 0.4745 0.3418
vt 0.2411 0.2563
vt 0.05091 0.4685
vt 0.4633 0.3198
vt 0.4633 0.3198
vt 0.4319 0.3156
vt 0.04311 0.4897
vt 0.2467 0.2581
vt 0.04297 0.4712
vt 0.2606 0.2412
vt 0.04297 0.4712
vt 0.4646 0.3414
vt 0.1817 0.4666
vt 0.2606 0.2412
vt 0.04038 0.4719
vt 0.1818 0.4419
vt 0.05091 0.4685
vt 0.4579 0.4274
vt 0.1646 0.1625
vt 0.4761 0.3697
vt 0.1338 0.2089
vt 0.1521 0.1846
vt 0.438 0.4299
vt 0.4745 0.3418
vt 0.1521 0.1846
vt 0.3798 0.3543
vt 0.457 0.4316
vt 0.1805 0.4773
vt 0.4494 0.3187
vt 0.4646 0.3414
vt 0.07219 0.4879
vt 0.3374 0.4459
vt 0.2878 0.2518
vt 0.1868 0.4762
vt 0.07393 0.4902
vt 0.04297 0.4712
vt 0.3366 0.4347
vt 0.1625 0.4472
vt 0.4665 0.3696
vt 0.2467 0.2581
vt 0.3366 0.4347
vt 0.2737 0.2716
vt 0.199 0.4738
vt 0.4855 0.4286
vt 0.1817 0.4666
vt 0.09537 0.4853
vt 0.03568 0.451
vt 0.09705 0.4875
vt 0.4858 0.4248
vt 0.1687 0.4454
vt 0.2571 0.2627
vt 0.04838 0.4869
vt 0.2737 0.2716
vt 0.05091 0.4685
vt 0.479 0.4254
vt 0.1682 0.1682
vt 0.1546 0.1865
vt 0.4369 0.4343
vt 0.1361 0.2108
vt 0.4785 0.4293
vt 0.1361 0.2108
vt 0.1546 0.1865
vt 0.479 0.4254
vt 0.1546 0.1865
vt 0.4704 0.4262
vt 0.3369 0.3061
vt 0.4553 0.397
vt 0.4687 0.3964
vt 0.3026 0.4404
vt 0.1582 0.189
vt 0.3286 0.3795
vt 0.3039 0.4518
vt 0.2375 0.2879
vt 0.2939 0.2832
vt 0.4553 0.397
vt 0.4553 0.397
vt 0.3366 0.4347
vt 0.1641 0.1929
vt 0.05182 0.4854
vt 0.2939 0.2832
vt 0.1789 0.174
vt 0.2764 0.3112
vt 0.4553 0.397
vt 0.4576 0.4172
vt 0.2985 0.416
vt 0.1641 0.1929
vt 0.3726 0.4291
vt 0.2992 0.3241
vt 0.174 0.2005
vt 0.3369 0.3061
vt 0.4516 0.3696
vt 0.3333 0.4109
vt 0.1722 0.1707
vt 0.2464 0.4636
vt 0.1892 0.2131
vt 0.3026 0.4404
vt 0.2043 0.1948
vt 0.199 0.4738
vt 0.2043 0.1948
vt 0.1908 0.406
vt 0.4376 0.4195
vt 0.2433 0.4528
vt 0.199 0.4738
vt 0.1625 0.4472
vt 0.272 0.4465
vt 0.1869 0.2509
vt 0.2501 0.2395
vt 0.1817 0.4666
vt 0.274 0.4577
vt 0.06233 0.4658
vt 0.2319 0.2499
vt 0.165 0.4127
vt 0.08379 0.4616
vt 0.2465 0.4667
vt 0.174 0.2005
vt 0.274 0.4577
vt 0.1994 0.4766
vt 0.1892 0.2131
vt 0.1868 0.4762
vt 0.1575 0.4484
vt 0.3035 0.4553
vt 0.1687 0.2379
vt 0.1941 0.4638
vt 0.1406 0.4212
vt 0.2203 0.4723
vt 0.1895 0.1814
vt 0.2928 0.3838
vt 0.2062 0.2278
vt 0.2159 0.459
vt 0.1575 0.4484
vt 0.2661 0.4224
vt 0.1625 0.4472
vt 0.2464 0.4636
vt 0.1575 0.4484
vt 0.2201 0.4693
vt 0.1701 0.4689
vt 0.199 0.4738
vt 0.2375 0.2544
vt 0.2985 0.416
vt 0.2053 0.4362
vt 0.2204 0.2746
vt 0.1941 0.4638
vt 0.2205 0.2107
vt 0.05228 0.497
vt 0.01837 0.5036
vt 0.2579 0.3903
vt 0.1442 0.1593
vt 0.05107 0.4943
vt 0.1312 0.174
vt 0.01751 0.5018
vt 0.2238 0.3982
vt 0.04591 0.4987
vt 0.1394 0.1807
vt 0.09537 0.4853
vt 0.2351 0.4293
vt 0.2203 0.4723
vt 0.09705 0.4875
vt 0.1873 0.4789
vt 0.1892 0.2131
vt 0.174 0.2005
vt 0.2661 0.4224
vt 0.07388 0.4402
vt 0.2661 0.4224
vt 0.1246 0.4852
vt 0.2201 0.4693
vt 0.1232 0.4829
vt 0.2411 0.2563
vt 0.2351 0.4293
vt 0.1818 0.4419
vt 0.1095 0.457
vt 0.2201 0.4693
vt 0.1754 0.468
vt 0.1482 0.1673
vt 0.2433 0.4528
vt 0.05107 0.4943
vt 0.1394 0.1807
vt 0.4116 0.3095
vt 0.03319 0.4997
vt 0.01939 0.5057
vt 0.3899 0.3015
vt 0.01837 0.5036
vt 0.3856 0.3239
vt 0.03207 0.4975
vt 0.02977 0.4715
vt 0.4063 0.3624
vt 0.05107 0.4943
vt 0.0215 0.4738
vt 0.07219 0.4879
vt 0.0215 0.4738
vt 0.4063 0.3624
vt 0.1687 0.2379
vt 0.01062 0.4769
vt 0.05675 0.4835
vt 0.1752 0.4782
vt 0.4079 0.4237
vt 0.006287 0.4599
vt 0.1752 0.4782
vt 0.4084 0.4344
vt 0.05606 0.4955
vt 0.0253 0.4864
vt 0.0599 0.4906
vt 0.1657 0.4792
vt 0.438 0.4299
vt 0.0215 0.4738
vt 0.4079 0.4237
vt 0.01062 0.4769
vt 0.05675 0.4835
vt 0.1701 0.4689
vt 0.1754 0.468
vt 0.1752 0.4782
vt 0.4084 0.4344
vt 0.1188 0.4748
vt 0.07219 0.4879
vt 0.09145 0.4778
vt 0.06142 0.4931
vt 0.1657 0.4792
vt 0.3732 0.4401
vt 0.09537 0.4853
vt 0.1868 0.4762
vt 0.1232 0.4829
vt 0.1666 0.4817
vt 0.3724 0.444
vt 0.03865 0.4501
vt 0.09145 0.4778
vt 0.176 0.4807
vt 0.4074 0.4386
vt 0.1805 0.4773
vt 0.438 0.4299
vt 0.1805 0.4773
vt 0.06871 0.4809
vt 0.1811 0.4799
vt 0.1752 0.4782
vt 0.4084 0.4344
vt 0.07219 0.4879
vt 0.3726 0.4291
vt 0.176 0.4807
vt 0.4074 0.4386
vt 0.09537 0.4853
vt 0.1811 0.4799
vt 0.4369 0.4343
vt 0.4163 0.3692
vt 0.4856 0.4152
vt 0.4848 0.3958
vt 0.3989 0.3736
vt 0.4777 0.3961
vt 0.4788 0.4156
vt 0.4048 0.402
vt 0.4848 0.3958
vt 0.4339 0.3985
vt 0.3989 0.3736
vt 0.4836 0.3697
vt 0.3651 0.3765
vt 0.4761 0.3697
vt 0.3695 0.4063
vt 0.4777 0.3961
vt 0.4048 0.402
vn -0.6978 -0.4471 -0.5595
vn -0.761 -0.07761 -0.6441
vn -0.6417 -0.1276 -0.7562
vn -0.5738 -0.5171 -0.6351
vn -0.7519 0.1361 -0.6451
vn -0.6423 0.1085 -0.7588
vn -0.4371 0.07318 -0.8964
vn -0.4443 -0.1767 -0.8783
vn -0.3995 -0.5762 -0.713
vn -0.7687 -0.2204 -0.6005
vn -0.613 -0.3935 -0.6851
vn -0.6614 -0.1017 -0.7431
vn -0.7719 -0.04459 -0.6342
vn -0.2071 -0.376 -0.9032
vn -0.4385 -0.1325 -0.8889
vn 0.576 -0.1786 -0.7977
vn 0.4252 -0.09839 -0.8997
vn 0.962 -0.007538 -0.2728
vn 0.9463 -0.01398 -0.323
vn 0.9389 -0.01416 -0.344
vn 0.3648 0.01944 -0.9309
vn 0.2653 -0.2052 -0.942
vn 0.2735 -0.5324 -0.801
vn 0.9138 -0.08203 -0.3977
vn 0.8958 -0.1823 -0.4053
vn -0.699 -0.1615 -0.6966
vn -0.7701 -0.07474 -0.6335
vn -0.7743 -0.01721 -0.6326
vn -0.7302 -0.03018 -0.6826
vn -0.7568 0.1476 -0.6368
vn -0.7087 0.1476 -0.6899
vn -0.7093 -0.406 -0.5763
vn -0.7386 -0.05506 -0.6719
vn -0.7782 -0.05527 -0.6256
vn -0.7286 -0.4104 -0.5483
vn -0.7284 -0.2723 -0.6287
vn -0.6562 -0.6786 -0.3298
vn -0.616 -0.698 -0.3651
vn -0.6817 -0.311 -0.6623
vn -0.4959 -0.8651 -0.07517
vn -0.4798 -0.8684 -0.1252
vn -0.4317 -0.8823 -0.1877
vn -0.5117 -0.7446 -0.4286
vn -0.5319 -0.4048 -0.7438
vn -0.3841 -0.7872 -0.4823
vn -0.3507 -0.4931 -0.7961
vn -0.3605 -0.9014 -0.2398
vn -0.2647 -0.923 -0.2791
vn -0.2539 -0.8204 -0.5123
vn -0.2034 -0.5472 -0.8119
vn -0.6101 -0.7136 -0.3442
vn -0.6677 -0.5614 -0.4889
vn -0.667 -0.5663 -0.4841
vn -0.5961 -0.7102 -0.3744
vn -0.6161 -0.6116 -0.4963
vn -0.5325 -0.7407 -0.4096
vn -0.4897 -0.6824 -0.5427
vn -0.4188 -0.7926 -0.4431
vn -0.34 -0.7317 -0.5908
vn -0.2989 -0.8265 -0.4769
vn -0.7862 0.005646 -0.6179
vn -0.8262 0.01013 -0.5633
vn -0.8266 -0.05438 -0.5601
vn -0.7965 -0.0539 -0.6021
vn -0.8171 0.01144 -0.5763
vn -0.8145 -0.06946 -0.5759
vn -0.8059 -0.1591 -0.5702
vn -0.8223 -0.1566 -0.5471
vn -0.8064 -0.1521 -0.5715
vn 0.7434 -0.0006104 -0.6688
vn 0.9312 0 -0.3645
vn 0.8146 -0.09162 -0.5726
vn 0.473 -0.2259 -0.8516
vn 0.9803 9.156e-05 -0.1973
vn 0.976 0.005676 -0.2177
vn -0.7481 0.007874 -0.6635
vn -0.7436 -0.0882 -0.6627
vn -0.6607 0.002228 -0.7506
vn -0.6584 -0.109 -0.7447
vn -0.6625 -0.174 -0.7285
vn -0.7345 -0.1698 -0.6569
vn 0.2504 -0.788 -0.5624
vn 0.2664 -0.5744 -0.774
vn 0.1867 -0.9022 -0.3887
vn 0.8543 -0.4039 -0.3271
vn 0.856 -0.3545 -0.3763
vn 0.8522 -0.2905 -0.4351
vn 0.2471 -0.6768 -0.6934
vn 0.2028 -0.784 -0.5867
vn 0.8722 -0.263 -0.4124
vn 0.8467 -0.3542 -0.3969
vn -0.2737 -0.9009 -0.3367
vn 0.1769 -0.8751 -0.4504
vn 0.8405 -0.4125 -0.3511
vn -0.4511 -0.8542 -0.2584
vn -0.3693 -0.8795 -0.3
vn -0.5169 -0.8438 -0.1444
vn -0.5034 -0.8406 -0.1997
vn -0.7 -0.05679 -0.7118
vn -0.6632 0.1399 -0.7352
vn -0.6919 -0.4101 -0.5942
vn -0.9328 -0.2381 -0.2705
vn -0.9305 -0.01721 -0.3657
vn -0.9372 0.07376 -0.3409
vn -0.6589 0.00293 -0.7522
vn -0.6612 -0.09149 -0.7446
vn -0.7573 -0.08109 -0.648
vn -0.7772 0.003327 -0.6292
vn -0.7168 -0.1837 -0.6726
vn -0.9507 -0.0925 -0.2958
vn -0.9687 -0.0303 -0.2462
vn -0.9768 0.001617 -0.214
vn -0.6899 -0.04462 -0.7225
vn -0.9427 -0.03452 -0.3317
vn -0.5304 -0.8412 -0.1045
vn -0.6206 -0.721 -0.3081
vn -0.507 -0.8605 -0.0488
vn -0.8646 -0.4975 0.07041
vn -0.8556 -0.5157 0.04318
vn -0.8897 -0.4469 -0.09262
vn -0.6669 -0.5712 -0.4784
vn -0.9244 -0.3335 -0.185
vn -0.6576 -0.6808 -0.3227
vn -0.7158 -0.2776 -0.6406
vn -0.9417 -0.1663 -0.2924
vn -0.9129 -0.3906 -0.1182
vn -0.6725 0.4558 -0.5831
vn -0.5414 0.5181 -0.6622
vn -0.634 0.1386 -0.7608
vn -0.7562 0.0947 -0.6474
vn -0.3522 0.5677 -0.744
vn -0.4304 0.1767 -0.8851
vn -0.4443 -0.06732 -0.8933
vn -0.6505 -0.09848 -0.753
vn -0.7602 -0.1254 -0.6375
vn -0.7557 0.2211 -0.6164
vn -0.7691 0.0445 -0.6375
vn -0.6528 0.1007 -0.7508
vn -0.5837 0.3873 -0.7136
vn -0.4251 0.1308 -0.8956
vn -0.1743 0.3666 -0.9139
vn 0.4325 0.1017 -0.8958
vn 0.5939 0.1689 -0.7866
vn 0.3619 -0.01617 -0.9321
vn 0.939 0.01358 -0.3435
vn 0.9465 0.01346 -0.3224
vn 0.9621 0.007202 -0.2726
vn 0.3065 0.5048 -0.8069
vn 0.2787 0.1856 -0.9422
vn 0.9002 0.1691 -0.4013
vn 0.9159 0.07624 -0.394
vn -0.6935 0.1649 -0.7013
vn -0.7282 0.03638 -0.6844
vn -0.7736 0.02002 -0.6333
vn -0.7664 0.07639 -0.6378
vn -0.7168 -0.1434 -0.6823
vn -0.7654 -0.1411 -0.6279
vn -0.6895 0.43 -0.5827
vn -0.7045 0.4261 -0.5675
vn -0.7742 0.07019 -0.629
vn -0.737 0.06803 -0.6724
vn -0.7321 0.2705 -0.6251
vn -0.682 0.3068 -0.6638
vn -0.6124 0.7049 -0.3578
vn -0.6587 0.6864 -0.308
vn -0.5223 0.3956 -0.7555
vn -0.4943 0.7468 -0.4448
vn -0.4021 0.8932 -0.2012
vn -0.461 0.8808 -0.1077
vn -0.4824 0.8752 -0.03562
vn -0.3258 0.4747 -0.8176
vn -0.3464 0.7786 -0.5231
vn -0.1712 0.5175 -0.8384
vn -0.2051 0.7968 -0.5683
vn -0.2054 0.917 -0.3418
vn -0.3127 0.9066 -0.2835
vn -0.5954 0.7331 -0.3287
vn -0.5765 0.7195 -0.3873
vn -0.6441 0.5747 -0.5048
vn -0.6488 0.5833 -0.4886
vn -0.5007 0.7427 -0.4445
vn -0.5872 0.611 -0.5308
vn -0.3677 0.7896 -0.4912
vn -0.4479 0.6776 -0.5832
vn -0.2283 0.8181 -0.5278
vn -0.2783 0.7219 -0.6336
vn -0.7906 0.04563 -0.6105
vn -0.821 0.04389 -0.5692
vn -0.8 0.1412 -0.5831
vn -0.8143 0.138 -0.5637
vn -0.7993 0.1326 -0.5861
vn -0.8108 0.06757 -0.5813
vn 0.4855 0.2142 -0.8476
vn 0.821 0.08554 -0.5645
vn 0.9759 -0.005402 -0.2182
vn -0.7433 0.0904 -0.6628
vn -0.7327 0.145 -0.6649
vn -0.6591 0.1583 -0.7351
vn -0.6542 0.1086 -0.7485
vn 0.2739 0.5342 -0.7997
vn 0.2736 0.7445 -0.609
vn 0.8489 0.2718 -0.4532
vn 0.8545 0.3358 -0.3964
vn 0.8557 0.3836 -0.3471
vn 0.2257 0.8682 -0.4418
vn 0.2528 0.7492 -0.6121
vn 0.2918 0.6446 -0.7067
vn 0.8542 0.3299 -0.4017
vn 0.8786 0.2442 -0.4104
vn 0.225 0.8415 -0.4912
vn -0.2043 0.8962 -0.3937
vn 0.8462 0.388 -0.3652
vn -0.3137 0.8843 -0.3459
vn -0.4161 0.8644 -0.2822
vn -0.4806 0.8554 -0.193
vn -0.4991 0.8595 -0.1098
vn -0.6677 -0.1338 -0.7322
vn -0.7006 0.0705 -0.71
vn -0.9377 -0.06867 -0.3406
vn -0.9293 0.02402 -0.3685
vn -0.9292 0.2573 -0.2651
vn -0.6812 0.4397 -0.5853
vn -0.7555 0.07819 -0.6505
vn -0.6613 0.09235 -0.7443
vn -0.9702 0.02725 -0.2405
vn -0.9488 0.09162 -0.3023
vn -0.7119 0.1821 -0.6782
vn -0.6892 0.0564 -0.7223
vn -0.9431 0.04215 -0.3299
vn -0.6149 0.7411 -0.2694
vn -0.5246 0.8497 -0.05219
vn -0.8887 0.4544 -0.0607
vn -0.8539 0.5145 0.0781
vn -0.8629 0.4952 0.1004
vn -0.504 0.8637 0.001801
vn -0.6566 0.601 -0.4556
vn -0.9221 0.3503 -0.1644
vn -0.6663 0.6859 -0.2926
vn -0.9154 0.3902 -0.09891
vn -0.9439 0.1672 -0.2848
vn -0.7224 0.2768 -0.6336
vn -0.3399 -0.4777 -0.8101
vn -0.1017 -0.2436 -0.9645
vn 0.2629 -0.2752 -0.9247
vn -0.207 -0.5383 -0.8169
vn -0.04913 -0.001343 -0.9988
vn 0.433 -0.001038 -0.9014
vn -0.4902 0.0005188 -0.8716
vn -0.5224 -0.008911 -0.8527
vn -0.5181 -0.03763 -0.8545
vn -0.4895 0.001434 -0.872
vn -0.6618 0.001007 -0.7496
vn -0.6418 -0.02002 -0.7666
vn -0.7997 -0.05292 -0.5981
vn -0.7717 0.007385 -0.6359
vn -0.787 -0.2538 -0.5623
vn -0.7732 -0.2667 -0.5752
vn -0.6347 -0.4435 -0.6328
vn -0.574 -0.5355 -0.6194
vn -0.08963 0.2327 -0.9684
vn 0.2768 0.2615 -0.9246
vn -0.3036 0.4607 -0.834
vn -0.1603 0.5204 -0.8387
vn -0.6629 -0.004608 -0.7486
vn -0.5198 0.008423 -0.8542
vn -0.5221 0.03916 -0.852
vn -0.6454 0.02243 -0.7635
vn -0.7694 0.2703 -0.5788
vn -0.7974 0.06412 -0.6001
vn -0.7728 -0.003601 -0.6346
vn -0.7559 0.2759 -0.5936
vn -0.5986 0.4486 -0.6636
vn -0.5309 0.5352 -0.657
vn -0.5051 -0.1548 -0.849
vn -0.5749 -0.2732 -0.7713
vn -0.497 -0.0004883 -0.8677
vn -0.7035 -0.04328 -0.7094
vn -0.6834 0.001984 -0.73
vn -0.7647 -0.1208 -0.6329
vn -0.8164 -0.1679 -0.5525
vn -0.7986 -0.2152 -0.562
vn -0.7087 -0.2663 -0.6533
vn -0.4957 0.1505 -0.8553
vn -0.5564 0.2608 -0.7888
vn -0.6995 0.0419 -0.7134
vn -0.7597 0.121 -0.6389
vn -0.8066 0.1813 -0.5626
vn -0.7858 0.2133 -0.5805
vn -0.6936 0.253 -0.6745
f 1/1/1 2/2/2 3/3/3
f 1/1/1 3/3/3 4/4/4
f 2/2/2 5/5/5 6/6/6
f 2/2/2 6/6/6 3/3/3
f 3/3/3 6/6/6 7/7/7
f 3/3/3 7/7/7 8/8/8
f 4/4/4 3/3/3 8/8/8
f 4/4/4 8/8/8 9/9/9
f 10/10/10 11/11/11 12/12/12
f 10/10/10 12/12/12 13/13/13
f 11/11/11 14/14/14 15/15/15
f 11/11/11 15/15/15 12/12/12
f 12/12/12 15/15/15 7/7/7
f 12/12/12 7/7/7 6/6/6
f 13/13/13 12/12/12 6/6/6
f 13/13/13 6/6/6 5/5/5
f 14/14/14 16/16/16 17/17/17
f 14/14/14 17/17/17 15/15/15
f 16/16/16 18/18/18 19/19/19
f 16/16/16 19/19/19 17/17/17
f 17/17/17 19/19/19 20/20/20
f 17/17/17 20/20/20 21/21/21
f 15/15/15 17/17/17 21/21/21
f 15/15/15 21/21/21 7/7/7
f 9/9/9 8/8/8 22/22/22
f 9/9/9 22/22/22 23/23/23
f 8/8/8 7/7/7 21/21/21
f 8/8/8 21/21/21 22/22/22
f 22/22/22 21/21/21 20/20/20
f 22/22/22 20/20/20 24/24/24
f 23/23/23 22/22/22 24/24/24
f 23/23/23 24/24/24 25/25/25
f 26/26/26 27/27/27 28/28/28
f 26/26/26 28/28/28 29/29/29
f 27/27/27 10/10/10 13/13/13
f 27/27/27 13/13/13 28/28/28
f 28/28/28 13/13/13 5/5/5
f 28/28/28 5/5/5 30/30/30
f 29/29/29 28/28/28 30/30/30
f 29/29/29 30/30/30 31/31/31
f 32/32/32 33/33/33 34/34/34
f 32/32/32 34/34/34 35/35/35
f 33/33/33 31/31/31 30/30/30
f 33/33/33 30/30/30 34/34/34
f 34/34/34 30/30/30 5/5/5
f 34/34/34 5/5/5 2/2/2
f 35/35/35 34/34/34 2/2/2
f 35/35/35 2/2/2 1/1/1
f 36/36/36 37/37/37 38/38/38
f 36/36/36 38/38/38 39/39/39
f 37/37/37 40/40/40 41/41/41
f 37/37/37 41/41/41 38/38/38
f 38/38/38 41/41/41 42/42/42
f 38/38/38 42/42/42 43/43/43
f 39/39/39 38/38/38 43/43/43
f 39/39/39 43/43/43 44/44/44
f 44/44/44 43/43/43 45/45/45
f 44/44/44 45/45/45 46/46/46
f 43/43/43 42/42/42 47/47/47
f 43/43/43 47/47/47 45/45/45
f 45/45/45 47/47/47 48/48/48
f 45/45/45 48/48/48 49/49/49
f 46/46/46 45/45/45 49/49/49
f 46/46/46 49/49/49 50/50/50
f 51/51/51 52/52/52 53/53/53
f 51/51/51 53/53/53 54/54/54
f 52/52/52 32/32/32 35/35/35
f 52/52/52 35/35/35 53/53/53
f 53/53/53 35/35/35 1/1/1
f 53/53/53 1/1/1 55/55/55
f 54/54/54 53/53/53 55/55/55
f 54/54/54 55/55/55 56/56/56
f 56/56/56 55/55/55 57/57/57
f 56/56/56 57/57/57 58/58/58
f 55/55/55 1/1/1 4/4/4
f 55/55/55 4/4/4 57/57/57
f 57/57/57 4/4/4 9/9/9
f 57/57/57 9/9/9 59/59/59
f 58/58/58 57/57/57 59/59/59
f 58/58/58 59/59/59 60/60/60
f 61/61/61 62/62/62 63/63/63
f 61/61/61 63/63/63 64/64/64
f 62/62/62 65/65/65 66/66/66
f 62/62/62 66/66/66 63/63/63
f 63/63/63 66/66/66 67/67/67
f 63/63/63 67/67/67 68/68/68
f 64/64/64 63/63/63 68/68/68
f 64/64/64 68/68/68 69/69/69
f 70/70/70 71/71/71 72/72/72
f 70/70/70 72/72/72 73/73/73
f 71/71/71 74/74/74 75/75/75
f 71/71/71 75/75/75 72/72/72
f 72/72/72 75/75/75 18/18/18
f 72/72/72 18/18/18 16/16/16
f 73/73/73 72/72/72 16/16/16
f 73/73/73 16/16/16 14/14/14
f 65/65/65 76/76/76 77/77/77
f 65/65/65 77/77/77 66/66/66
f 76/76/76 78/78/78 79/79/79
f 76/76/76 79/79/79 77/77/77
f 77/77/77 79/79/79 80/80/80
f 77/77/77 80/80/80 81/81/81
f 66/66/66 77/77/77 81/81/81
f 66/66/66 81/81/81 67/67/67
f 50/50/50 49/49/49 82/82/82
f 50/50/50 82/82/82 83/83/83
f 49/49/49 48/48/48 84/84/84
f 49/49/49 84/84/84 82/82/82
f 82/82/82 84/84/84 85/85/85
f 82/82/82 85/85/85 86/86/86
f 83/83/83 82/82/82 86/86/86
f 83/83/83 86/86/86 87/87/87
f 60/60/60 59/59/59 88/88/88
f 60/60/60 88/88/88 89/89/89
f 59/59/59 9/9/9 23/23/23
f 59/59/59 23/23/23 88/88/88
f 88/88/88 23/23/23 25/25/25
f 88/88/88 25/25/25 90/90/90
f 89/89/89 88/88/88 90/90/90
f 89/89/89 90/90/90 91/91/91
f 48/48/48 92/92/92 93/93/93
f 48/48/48 93/93/93 84/84/84
f 92/92/92 60/60/60 89/89/89
f 92/92/92 89/89/89 93/93/93
f 93/93/93 89/89/89 91/91/91
f 93/93/93 91/91/91 94/94/94
f 84/84/84 93/93/93 94/94/94
f 84/84/84 94/94/94 85/85/85
f 42/42/42 95/95/95 96/96/96
f 42/42/42 96/96/96 47/47/47
f 95/95/95 56/56/56 58/58/58
f 95/95/95 58/58/58 96/96/96
f 96/96/96 58/58/58 60/60/60
f 96/96/96 60/60/60 92/92/92
f 47/47/47 96/96/96 92/92/92
f 47/47/47 92/92/92 48/48/48
f 40/40/40 97/97/97 98/98/98
f 40/40/40 98/98/98 41/41/41
f 97/97/97 51/51/51 54/54/54
f 97/97/97 54/54/54 98/98/98
f 98/98/98 54/54/54 56/56/56
f 98/98/98 56/56/56 95/95/95
f 41/41/41 98/98/98 95/95/95
f 41/41/41 95/95/95 42/42/42
f 31/31/31 33/33/33 99/99/99
f 31/31/31 99/99/99 100/100/100
f 33/33/33 32/32/32 101/101/101
f 33/33/33 101/101/101 99/99/99
f 99/99/99 101/101/101 102/102/102
f 99/99/99 102/102/102 103/103/103
f 100/100/100 99/99/99 103/103/103
f 100/100/100 103/103/103 104/104/104
f 105/105/105 106/106/106 107/107/107
f 105/105/105 107/107/107 108/108/108
f 106/106/106 26/26/26 109/109/109
f 106/106/106 109/109/109 107/107/107
f 107/107/107 109/109/109 110/110/110
f 107/107/107 110/110/110 111/111/111
f 108/108/108 107/107/107 111/111/111
f 108/108/108 111/111/111 112/112/112
f 26/26/26 29/29/29 113/113/113
f 26/26/26 113/113/113 109/109/109
f 29/29/29 31/31/31 100/100/100
f 29/29/29 100/100/100 113/113/113
f 113/113/113 100/100/100 104/104/104
f 113/113/113 104/104/104 114/114/114
f 109/109/109 113/113/113 114/114/114
f 109/109/109 114/114/114 110/110/110
f 51/51/51 97/97/97 115/115/115
f 51/51/51 115/115/115 116/116/116
f 97/97/97 40/40/40 117/117/117
f 97/97/97 117/117/117 115/115/115
f 115/115/115 117/117/117 118/118/118
f 115/115/115 118/118/118 119/119/119
f 116/116/116 115/115/115 119/119/119
f 116/116/116 119/119/119 120/120/120
f 32/32/32 52/52/52 121/121/121
f 32/32/32 121/121/121 101/101/101
f 52/52/52 51/51/51 116/116/116
f 52/52/52 116/116/116 121/121/121
f 121/121/121 116/116/116 120/120/120
f 121/121/121 120/120/120 122/122/122
f 101/101/101 121/121/121 122/122/122
f 101/101/101 122/122/122 102/102/102
f 40/40/40 37/37/37 123/123/123
f 40/40/40 123/123/123 117/117/117
f 37/37/37 36/36/36 124/124/124
f 37/37/37 124/124/124 123/123/123
f 123/123/123 124/124/124 125/125/125
f 123/123/123 125/125/125 126/126/126
f 117/117/117 123/123/123 126/126/126
f 117/117/117 126/126/126 118/118/118
f 127/127/127 128/128/128 129/129/129
f 127/127/127 129/129/129 130/130/130
f 128/128/128 131/131/131 132/132/132
f 128/128/128 132/132/132 129/129/129
f 129/129/129 132/132/132 133/133/133
f 129/129/129 133/133/133 134/134/134
f 130/130/130 129/129/129 134/134/134
f 130/130/130 134/134/134 135/135/135
f 136/136/136 137/137/137 138/138/138
f 136/136/136 138/138/138 139/139/139
f 137/137/137 135/135/135 134/134/134
f 137/137/137 134/134/134 138/138/138
f 138/138/138 134/134/134 133/133/133
f 138/138/138 133/133/133 140/140/140
f 139/139/139 138/138/138 140/140/140
f 139/139/139 140/140/140 141/141/141
f 141/141/141 140/140/140 142/142/142
f 141/141/141 142/142/142 143/143/143
f 140/140/140 133/133/133 144/144/144
f 140/140/140 144/144/144 142/142/142
f 142/142/142 144/144/144 145/145/145
f 142/142/142 145/145/145 146/146/146
f 143/143/143 142/142/142 146/146/146
f 143/143/143 146/146/146 147/147/147
f 131/131/131 148/148/148 149/149/149
f 131/131/131 149/149/149 132/132/132
f 148/148/148 150/150/150 151/151/151
f 148/148/148 151/151/151 149/149/149
f 149/149/149 151/151/151 145/145/145
f 149/149/149 145/145/145 144/144/144
f 132/132/132 149/149/149 144/144/144
f 132/132/132 144/144/144 133/133/133
f 152/152/152 153/153/153 154/154/154
f 152/152/152 154/154/154 155/155/155
f 153/153/153 156/156/156 157/157/157
f 153/153/153 157/157/157 154/154/154
f 154/154/154 157/157/157 135/135/135
f 154/154/154 135/135/135 137/137/137
f 155/155/155 154/154/154 137/137/137
f 155/155/155 137/137/137 136/136/136
f 158/158/158 159/159/159 160/160/160
f 158/158/158 160/160/160 161/161/161
f 159/159/159 127/127/127 130/130/130
f 159/159/159 130/130/130 160/160/160
f 160/160/160 130/130/130 135/135/135
f 160/160/160 135/135/135 157/157/157
f 161/161/161 160/160/160 157/157/157
f 161/161/161 157/157/157 156/156/156
f 162/162/162 163/163/163 164/164/164
f 162/162/162 164/164/164 165/165/165
f 163/163/163 166/166/166 167/167/167
f 163/163/163 167/167/167 164/164/164
f 164/164/164 167/167/167 168/168/168
f 164/164/164 168/168/168 169/169/169
f 165/165/165 164/164/164 169/169/169
f 165/165/165 169/169/169 170/170/170
f 166/166/166 171/171/171 172/172/172
f 166/166/166 172/172/172 167/167/167
f 171/171/171 173/173/173 174/174/174
f 171/171/171 174/174/174 172/172/172
f 172/172/172 174/174/174 175/175/175
f 172/172/172 175/175/175 176/176/176
f 167/167/167 172/172/172 176/176/176
f 167/167/167 176/176/176 168/168/168
f 177/177/177 178/178/178 179/179/179
f 177/177/177 179/179/179 180/180/180
f 178/178/178 181/181/181 182/182/182
f 178/178/178 182/182/182 179/179/179
f 179/179/179 182/182/182 127/127/127
f 179/179/179 127/127/127 159/159/159
f 180/180/180 179/179/179 159/159/159
f 180/180/180 159/159/159 158/158/158
f 181/181/181 183/183/183 184/184/184
f 181/181/181 184/184/184 182/182/182
f 183/183/183 185/185/185 186/186/186
f 183/183/183 186/186/186 184/184/184
f 184/184/184 186/186/186 131/131/131
f 184/184/184 131/131/131 128/128/128
f 182/182/182 184/184/184 128/128/128
f 182/182/182 128/128/128 127/127/127
f 61/61/61 187/187/187 188/188/188
f 61/61/61 188/188/188 62/62/62
f 187/187/187 189/189/189 190/190/190
f 187/187/187 190/190/190 188/188/188
f 188/188/188 190/190/190 191/191/191
f 188/188/188 191/191/191 192/192/192
f 62/62/62 188/188/188 192/192/192
f 62/62/62 192/192/192 65/65/65
f 70/70/70 193/193/193 194/194/194
f 70/70/70 194/194/194 71/71/71
f 193/193/193 141/141/141 143/143/143
f 193/193/193 143/143/143 194/194/194
f 194/194/194 143/143/143 147/147/147
f 194/194/194 147/147/147 195/195/195
f 71/71/71 194/194/194 195/195/195
f 71/71/71 195/195/195 74/74/74
f 65/65/65 192/192/192 196/196/196
f 65/65/65 196/196/196 76/76/76
f 192/192/192 191/191/191 197/197/197
f 192/192/192 197/197/197 196/196/196
f 196/196/196 197/197/197 198/198/198
f 196/196/196 198/198/198 199/199/199
f 76/76/76 196/196/196 199/199/199
f 76/76/76 199/199/199 78/78/78
f 173/173/173 200/200/200 201/201/201
f 173/173/173 201/201/201 174/174/174
f 200/200/200 202/202/202 203/203/203
f 200/200/200 203/203/203 201/201/201
f 201/201/201 203/203/203 204/204/204
f 201/201/201 204/204/204 205/205/205
f 174/174/174 201/201/201 205/205/205
f 174/174/174 205/205/205 175/175/175
f 185/185/185 206/206/206 207/207/207
f 185/185/185 207/207/207 186/186/186
f 206/206/206 208/208/208 209/209/209
f 206/206/206 209/209/209 207/207/207
f 207/207/207 209/209/209 150/150/150
f 207/207/207 150/150/150 148/148/148
f 186/186/186 207/207/207 148/148/148
f 186/186/186 148/148/148 131/131/131
f 175/175/175 205/205/205 210/210/210
f 175/175/175 210/210/210 211/211/211
f 205/205/205 204/204/204 212/212/212
f 205/205/205 212/212/212 210/210/210
f 210/210/210 212/212/212 208/208/208
f 210/210/210 208/208/208 206/206/206
f 211/211/211 210/210/210 206/206/206
f 211/211/211 206/206/206 185/185/185
f 168/168/168 176/176/176 213/213/213
f 168/168/168 213/213/213 214/214/214
f 176/176/176 175/175/175 211/211/211
f 176/176/176 211/211/211 213/213/213
f 213/213/213 211/211/211 185/185/185
f 213/213/213 185/185/185 183/183/183
f 214/214/214 213/213/213 183/183/183
f 214/214/214 183/183/183 181/181/181
f 170/170/170 169/169/169 215/215/215
f 170/170/170 215/215/215 216/216/216
f 169/169/169 168/168/168 214/214/214
f 169/169/169 214/214/214 215/215/215
f 215/215/215 214/214/214 181/181/181
f 215/215/215 181/181/181 178/178/178
f 216/216/216 215/215/215 178/178/178
f 216/216/216 178/178/178 177/177/177
f 156/156/156 217/217/217 218/218/218
f 156/156/156 218/218/218 161/161/161
f 217/217/217 219/219/219 220/220/220
f 217/217/217 220/220/220 218/218/218
f 218/218/218 220/220/220 221/221/221
f 218/218/218 221/221/221 222/222/222
f 161/161/161 218/218/218 222/222/222
f 161/161/161 222/222/222 158/158/158
f 105/105/105 108/108/108 223/223/223
f 105/105/105 223/223/223 224/224/224
f 108/108/108 112/112/112 225/225/225
f 108/108/108 225/225/225 223/223/223
f 223/223/223 225/225/225 226/226/226
f 223/223/223 226/226/226 227/227/227
f 224/224/224 223/223/223 227/227/227
f 224/224/224 227/227/227 152/152/152
f 152/152/152 227/227/227 228/228/228
f 152/152/152 228/228/228 153/153/153
f 227/227/227 226/226/226 229/229/229
f 227/227/227 229/229/229 228/228/228
f 228/228/228 229/229/229 219/219/219
f 228/228/228 219/219/219 217/217/217
f 153/153/153 228/228/228 217/217/217
f 153/153/153 217/217/217 156/156/156
f 177/177/177 230/230/230 231/231/231
f 177/177/177 231/231/231 216/216/216
f 230/230/230 232/232/232 233/233/233
f 230/230/230 233/233/233 231/231/231
f 231/231/231 233/233/233 234/234/234
f 231/231/231 234/234/234 235/235/235
f 216/216/216 231/231/231 235/235/235
f 216/216/216 235/235/235 170/170/170
f 158/158/158 222/222/222 236/236/236
f 158/158/158 236/236/236 180/180/180
f 222/222/222 221/221/221 237/237/237
f 222/222/222 237/237/237 236/236/236
f 236/236/236 237/237/237 232/232/232
f 236/236/236 232/232/232 230/230/230
f 180/180/180 236/236/236 230/230/230
f 180/180/180 230/230/230 177/177/177
f 170/170/170 235/235/235 238/238/238
f 170/170/170 238/238/238 165/165/165
f 235/235/235 234/234/234 239/239/239
f 235/235/235 239/239/239 238/238/238
f 238/238/238 239/239/239 240/240/240
f 238/238/238 240/240/240 241/241/241
f 165/165/165 238/238/238 241/241/241
f 165/165/165 241/241/241 162/162/162
f 242/242/242 243/243/243 244/244/244
f 242/242/242 244/244/244 245/245/245
f 243/243/243 246/246/246 247/247/247
f 243/243/243 247/247/247 244/244/244
f 244/244/244 247/247/247 70/70/70
f 244/244/244 70/70/70 73/73/73
f 245/245/245 244/244/244 73/73/73
f 245/245/245 73/73/73 14/14/14
f 248/248/248 249/249/249 250/250/250
f 248/248/248 250/250/250 251/251/251
f 249/249/249 252/252/252 253/253/253
f 249/249/249 253/253/253 250/250/250
f 250/250/250 253/253/253 26/26/26
f 250/250/250 26/26/26 106/106/106
f 251/251/251 250/250/250 106/106/106
f 251/251/251 106/106/106 105/105/105
f 252/252/252 254/254/254 255/255/255
f 252/252/252 255/255/255 253/253/253
f 254/254/254 256/256/256 257/257/257
f 254/254/254 257/257/257 255/255/255
f 255/255/255 257/257/257 10/10/10
f 255/255/255 10/10/10 27/27/27
f 253/253/253 255/255/255 27/27/27
f 253/253/253 27/27/27 26/26/26
f 256/256/256 258/258/258 259/259/259
f 256/256/256 259/259/259 257/257/257
f 258/258/258 242/242/242 245/245/245
f 258/258/258 245/245/245 259/259/259
f 259/259/259 245/245/245 14/14/14
f 259/259/259 14/14/14 11/11/11
f 257/257/257 259/259/259 11/11/11
f 257/257/257 11/11/11 10/10/10
f 246/246/246 260/260/260 261/261/261
f 246/246/246 261/261/261 247/247/247
f 260/260/260 262/262/262 263/263/263
f 260/260/260 263/263/263 261/261/261
f 261/261/261 263/263/263 141/141/141
f 261/261/261 141/141/141 193/193/193
f 247/247/247 261/261/261 193/193/193
f 247/247/247 193/193/193 70/70/70
f 264/264/264 265/265/265 266/266/266
f 264/264/264 266/266/266 267/267/267
f 265/265/265 248/248/248 251/251/251
f 265/265/265 251/251/251 266/266/266
f 266/266/266 251/251/251 105/105/105
f 266/266/266 105/105/105 224/224/224
f 267/267/267 266/266/266 224/224/224
f 267/267/267 224/224/224 152/152/152
f 268/268/268 269/269/269 270/270/270
f 268/268/268 270/270/270 271/271/271
f 269/269/269 264/264/264 267/267/267
f 269/269/269 267/267/267 270/270/270
f 270/270/270 267/267/267 152/152/152
f 270/270/270 152/152/152 155/155/155
f 271/271/271 270/270/270 155/155/155
f 271/271/271 155/155/155 136/136/136
f 262/262/262 272/272/272 273/273/273
f 262/262/262 273/273/273 263/263/263
f 272/272/272 268/268/268 271/271/271
f 272/272/272 271/271/271 273/273/273
f 273/273/273 271/271/271 136/136/136
f 273/273/273 136/136/136 139/139/139
f 263/263/263 273/273/273 139/139/139
f 263/263/263 139/139/139 141/141/141
f 80/80/80 79/79/79 274/274/274
f 80/80/80 274/274/274 275/275/275
f 79/79/79 78/78/78 276/276/276
f 79/79/79 276/276/276 274/274/274
f 274/274/274 276/276/276 246/246/246
f 274/274/274 246/246/246 243/243/243
f 275/275/275 274/274/274 243/243/243
f 275/275/275 243/243/243 242/242/242
f 61/61/61 64/64/64 277/277/277
f 61/61/61 277/277/277 278/278/278
f 64/64/64 69/69/69 279/279/279
f 64/64/64 279/279/279 277/277/277
f 277/277/277 279/279/279 252/252/252
f 277/277/277 252/252/252 249/249/249
f 278/278/278 277/277/277 249/249/249
f 278/278/278 249/249/249 248/248/248
f 69/69/69 68/68/68 280/280/280
f 69/69/69 280/280/280 279/279/279
f 68/68/68 67/67/67 281/281/281
f 68/68/68 281/281/281 280/280/280
f 280/280/280 281/281/281 256/256/256
f 280/280/280 256/256/256 254/254/254
f 279/279/279 280/280/280 254/254/254
f 279/279/279 254/254/254 252/252/252
f 67/67/67 81/81/81 282/282/282
f 67/67/67 282/282/282 281/281/281
f 81/81/81 80/80/80 275/275/275
f 81/81/81 275/275/275 282/282/282
f 282/282/282 275/275/275 242/242/242
f 282/282/282 242/242/242 258/258/258
f 281/281/281 282/282/282 258/258/258
f 281/281/281 258/258/258 256/256/256
f 78/78/78 199/199/199 283/283/283
f 78/78/78 283/283/283 276/276/276
f 199/199/199 198/198/198 284/284/284
f 199/199/199 284/284/284 283/283/283
f 283/283/283 284/284/284 262/262/262
f 283/283/283 262/262/262 260/260/260
f 276/276/276 283/283/283 260/260/260
f 276/276/276 260/260/260 246/246/246
f 189/189/189 187/187/187 285/285/285
f 189/189/189 285/285/285 286/286/286
f 187/187/187 61/61/61 278/278/278
f 187/187/187 278/278/278 285/285/285
f 285/285/285 278/278/278 248/248/248
f 285/285/285 248/248/248 265/265/265
f 286/286/286 285/285/285 265/265/265
f 286/286/286 265/265/265 264/264/264
f 191/191/191 190/190/190 287/287/287
f 191/191/191 287/287/287 288/288/288
f 190/190/190 189/189/189 286/286/286
f 190/190/190 286/286/286 287/287/287
f 287/287/287 286/286/286 264/264/264
f 287/287/287 264/264/264 269/269/269
f 288/288/288 287/287/287 269/269/269
f 288/288/288 269/269/269 268/268/268
f 198/198/198 197/197/197 289/289/289
f 198/198/198 289/289/289 284/284/284
f 197/197/197 191/191/191 288/288/288
f 197/197/197 288/288/288 289/289/289
f 289/289/289 288/288/288 268/268/268
f 289/289/289 268/268/268 272/272/272
f 284/284/284 289/289/289 272/272/272
f 284/284/284 272/272/272 262/262/262
