v 1.32647 -0.136238 0.472701
v 1.31414 -0.107606 0.463177
v 1.34396 -0.105958 0.456654
v 1.35748 -0.132223 0.466154
v 1.30986 -0.0938801 0.465929
v 1.33915 -0.0926805 0.459365
v 1.36183 -0.0898948 0.457063
v 1.3671 -0.102676 0.45448
v 1.38177 -0.126485 0.464385
v 1.30893 -0.0789504 0.46552
v 1.33794 -0.0771157 0.458465
v 1.33801 -0.0839726 0.460362
v 1.30881 -0.0852218 0.466965
v 1.36373 -0.0670958 0.453485
v 1.3609 -0.0806928 0.457872
v 1.37333 -0.0601153 0.457891
v 1.37146 -0.0746167 0.460986
v 1.37654 -0.0537831 0.464467
v 1.37487 -0.0670789 0.467147
v 1.37591 -0.0758198 0.466062
v 1.3725 -0.0838542 0.46004
v 1.37795 -0.0962601 0.457489
v 1.39311 -0.11877 0.467603
v 1.38136 -0.0879351 0.463469
v 1.39656 -0.10993 0.473615
v 1.24062 -0.070465 0.486865
v 1.24971 -0.070145 0.482341
v 1.25009 -0.0870726 0.486232
v 1.2406 -0.0876752 0.490963
v 1.25833 -0.0717137 0.479946
v 1.25985 -0.0868861 0.482682
v 1.26103 -0.0967188 0.481885
v 1.25113 -0.0974076 0.485661
v 1.24159 -0.0980504 0.490472
v 1.25632 -0.141813 0.500821
v 1.24524 -0.112057 0.488434
v 1.25478 -0.11148 0.483505
v 1.26624 -0.141321 0.49564
v 1.26476 -0.110772 0.479591
v 1.27632 -0.140609 0.491179
v 1.28107 -0.079211 0.474106
v 1.28062 -0.0863973 0.47557
v 1.28161 -0.0953443 0.474595
v 1.28553 -0.10931 0.472041
v 1.29727 -0.138982 0.482503
v 1.37766 -0.302004 0.672184
v 1.37503 -0.294408 0.667657
v 1.39522 -0.293851 0.648078
v 1.39793 -0.301495 0.652198
v 1.36689 -0.286977 0.652702
v 1.38714 -0.286171 0.634071
v 1.41855 -0.278236 0.615614
v 1.42685 -0.285923 0.628811
v 1.42982 -0.293305 0.632608
v 1.3523 -0.303599 0.688893
v 1.34986 -0.295985 0.684118
v 1.36465 -0.294433 0.677276
v 1.36724 -0.301996 0.681997
v 1.34215 -0.28843 0.668578
v 1.35654 -0.287089 0.661873
v 1.50269 -0.248711 0.62622
v 1.49882 -0.242638 0.622278
v 1.51383 -0.225329 0.627252
v 1.51775 -0.23169 0.631122
v 1.48911 -0.236153 0.608882
v 1.50383 -0.219224 0.613735
v 1.50764 -0.206453 0.620233
v 1.51764 -0.212389 0.63373
v 1.52138 -0.219582 0.637388
v 1.46596 -0.265946 0.621056
v 1.46942 -0.272577 0.624877
v 1.45697 -0.258788 0.607934
v 1.32652 -0.243456 0.578524
v 1.29916 -0.191973 0.528865
v 1.32001 -0.190089 0.517731
v 1.34714 -0.241563 0.564374
v 1.34988 -0.185117 0.505805
v 1.37764 -0.234445 0.54982
v 1.30392 -0.244556 0.591617
v 1.278 -0.193082 0.540078
v 1.28898 -0.19266 0.534494
v 1.31627 -0.244029 0.585578
v 1.4415 -0.202332 0.542412
v 1.40916 -0.164587 0.497946
v 1.42137 -0.15402 0.50158
v 1.45473 -0.188602 0.54654
v 1.42492 -0.144117 0.50771
v 1.45838 -0.177451 0.552825
v 1.38284 -0.175825 0.499011
v 1.41282 -0.219546 0.542668
v 1.27854 1.03386e-05 0.460264
v 1.29441 1.00043e-05 0.453485
v 1.29401 -0.0280738 0.456532
v 1.27895 -0.0287686 0.463086
v 1.31398 9.58484e-06 0.446413
v 1.31321 -0.027755 0.449385
v 1.31168 -0.0499485 0.454932
v 1.29264 -0.0498605 0.462237
v 1.28082 -0.0467326 0.466486
v 1.2411 1.11453e-05 0.475499
v 1.24932 1.09729e-05 0.471177
v 1.24935 -0.0391403 0.475238
v 1.24092 -0.0394491 0.4796
v 1.25211 1.09102e-05 0.47047
v 1.25273 -0.0387072 0.474305
v 1.37542 8.14744e-06 0.442911
v 1.37869 8.03076e-06 0.449236
v 1.37689 -0.0334935 0.452323
v 1.37314 -0.0357209 0.446265
v 1.38152 7.92163e-06 0.456701
v 1.37972 -0.0300977 0.459505
v 1.33466 9.1335e-06 0.440528
v 1.33371 -0.0275107 0.443257
v 1.35174 8.75507e-06 0.43669
v 1.35025 -0.0277705 0.439301
v 1.34615 -0.0452494 0.443655
v 1.3323 -0.0488618 0.448147
v 1.40172 -0.264153 0.588542
v 1.4388 -0.24601 0.581073
v 1.46951 -0.22508 0.581518
v 1.48363 -0.209239 0.586075
v 1.48738 -0.197102 0.592495
v 1.32642 -0.274736 0.636894
v 1.33997 -0.273822 0.630464
v 1.35028 -0.273485 0.622168
v 1.37068 -0.272088 0.605389
v 1.31798 -0.299588 0.697075
v 1.31125 -0.29149 0.681384
v 1.32012 -0.30733 0.701901
v 1.27694 -0.312302 0.719307
v 1.2752 -0.304388 0.714416
v 1.26978 -0.29556 0.698532
v 1.22583 -0.113195 0.499091
v 1.22213 -0.0993631 0.500894
v 1.23603 -0.142719 0.511866
v 1.20881 -0.143924 0.52674
v 1.19977 -0.11472 0.513453
v 1.19602 -0.101127 0.514943
v 1.22113 -0.0890819 0.501316
v 1.22137 -0.0717225 0.497257
v 1.195 -0.0909744 0.515276
v 1.19554 -0.0734152 0.511281
v 1.22205 -0.0401874 0.49006
v 1.22244 1.15326e-05 0.485995
v 1.19674 -0.0411816 0.504205
v 1.19742 1.20513e-05 0.500206
v 1.2552 -0.193779 0.551622
v 1.27787 -0.245503 0.603677
v 1.24291 -0.246736 0.619866
v 1.22461 -0.194687 0.567144
v 1.29751 -0.276686 0.649394
v 1.25873 -0.279264 0.666148
v 1.32647 0.136431 0.472702
v 1.35748 0.132405 0.466155
v 1.34397 0.105996 0.456655
v 1.31415 0.107647 0.463178
v 1.38177 0.126668 0.464386
v 1.3671 0.102714 0.454481
v 1.36183 0.0899116 0.457064
v 1.33915 0.0926983 0.459366
v 1.30986 0.0938993 0.46593
v 1.30894 0.0789696 0.465521
v 1.30881 0.085241 0.466966
v 1.33802 0.0839905 0.460363
v 1.33794 0.0771335 0.458466
v 1.3609 0.0807096 0.457873
v 1.36373 0.0671125 0.453486
v 1.37147 0.0746329 0.460987
v 1.37333 0.0601315 0.457892
v 1.37251 0.0838704 0.460041
v 1.37592 0.0758358 0.466063
v 1.37487 0.067095 0.467147
v 1.37654 0.0537991 0.464468
v 1.39311 0.118959 0.467604
v 1.37795 0.0962979 0.45749
v 1.39656 0.110127 0.473616
v 1.38136 0.0879735 0.46347
v 1.24063 0.0704872 0.486866
v 1.2406 0.0876974 0.490963
v 1.25009 0.0870944 0.486233
v 1.24972 0.0701668 0.482342
v 1.2416 0.0980726 0.490473
v 1.25114 0.0974293 0.485662
v 1.26104 0.0967401 0.481886
v 1.25985 0.0869074 0.482683
v 1.25834 0.0717351 0.479946
v 1.25633 0.142048 0.500822
v 1.26625 0.141574 0.495642
v 1.25479 0.11153 0.483506
v 1.24525 0.112106 0.488435
v 1.27633 0.140854 0.49118
v 1.26476 0.110821 0.479592
v 1.28063 0.0864177 0.475571
v 1.28108 0.0792314 0.474107
v 1.28162 0.0953647 0.474596
v 1.29727 0.139201 0.482504
v 1.28554 0.109355 0.472042
v 1.37768 0.307176 0.672187
v 1.39795 0.306341 0.652202
v 1.39524 0.298493 0.648081
v 1.37505 0.299366 0.66766
v 1.42983 0.297831 0.632612
v 1.42686 0.290247 0.628814
v 1.41856 0.28196 0.615617
v 1.38715 0.290185 0.634073
v 1.3669 0.291277 0.652705
v 1.35232 0.308572 0.688896
v 1.36725 0.307262 0.682
v 1.36467 0.299481 0.677279
v 1.34987 0.300751 0.684121
v 1.35655 0.291471 0.661876
v 1.34216 0.292561 0.668581
v 1.5027 0.253133 0.626223
v 1.51777 0.236152 0.631124
v 1.51384 0.229522 0.627254
v 1.49883 0.246812 0.622281
v 1.52139 0.224087 0.637391
v 1.51765 0.216609 0.633732
v 1.50765 0.210066 0.620235
v 1.50384 0.222809 0.613738
v 1.48912 0.239721 0.608885
v 1.46943 0.276984 0.62488
v 1.46597 0.270131 0.621059
v 1.45698 0.262377 0.607937
v 1.32653 0.245169 0.578526
v 1.34715 0.243125 0.564376
v 1.32002 0.190776 0.517733
v 1.29917 0.192738 0.528867
v 1.37765 0.235854 0.549822
v 1.34988 0.185725 0.505807
v 1.30393 0.246194 0.591619
v 1.31628 0.245788 0.585581
v 1.28899 0.19345 0.534496
v 1.27801 0.193812 0.54008
v 1.44151 0.203675 0.542414
v 1.45474 0.18997 0.546542
v 1.42138 0.154615 0.501581
v 1.40917 0.165165 0.497948
v 1.45839 0.178855 0.552827
v 1.42492 0.144736 0.507711
v 1.41283 0.220888 0.54267
v 1.38285 0.1764 0.499013
v 1.27895 0.0287892 0.463086
v 1.29401 0.0280938 0.456532
v 1.28082 0.0467531 0.466487
v 1.29264 0.0498805 0.462237
v 1.31169 0.0499677 0.454933
v 1.31321 0.0277742 0.449385
v 1.24093 0.0394714 0.4796
v 1.24936 0.0391622 0.475238
v 1.25273 0.0387289 0.474305
v 1.37314 0.0357373 0.446266
v 1.37689 0.0335096 0.452323
v 1.37972 0.0301136 0.459506
v 1.33371 0.0275289 0.443258
v 1.3323 0.0488801 0.448148
v 1.34616 0.0452671 0.443656
v 1.35025 0.0277881 0.439301
v 1.43881 0.248507 0.581076
v 1.40173 0.266756 0.588545
v 1.46952 0.227566 0.58152
v 1.48364 0.211748 0.586078
v 1.48739 0.199645 0.592497
v 1.33998 0.276948 0.630467
v 1.32643 0.277671 0.636897
v 1.35029 0.276546 0.622171
v 1.37069 0.274923 0.605392
v 1.31126 0.294981 0.681387
v 1.31799 0.303633 0.697078
v 1.2698 0.298188 0.698535
v 1.27521 0.307462 0.714419
v 1.27695 0.315522 0.71931
v 1.32013 0.311557 0.701904
v 1.22214 0.0993861 0.500895
v 1.22583 0.113238 0.499092
v 1.19603 0.101151 0.514944
v 1.19978 0.114756 0.513454
v 1.20882 0.144046 0.526742
v 1.23604 0.142906 0.511867
v 1.22137 0.0717455 0.497258
v 1.22113 0.0891048 0.501317
v 1.19555 0.0734393 0.511282
v 1.19501 0.0909984 0.515277
v 1.22205 0.0402105 0.490061
v 1.19675 0.0412057 0.504206
v 1.25521 0.194354 0.551624
v 1.22462 0.195055 0.567146
v 1.24292 0.247643 0.619869
v 1.27788 0.24683 0.60368
v 1.29752 0.279131 0.649397
v 1.25874 0.281049 0.666151
v 1.35472 -0.0571378 0.446093
v 1.36462 -0.0328151 0.439298
v 1.36894 -0.0349105 0.441921
v 1.35838 -0.0612234 0.448873
v 1.36693 8.4003e-06 0.436173
v 1.37141 8.27449e-06 0.438607
v 1.26063 1.07151e-05 0.4686
v 1.26183 -0.034361 0.471794
v 1.25662 -0.0367608 0.473496
v 1.25551 1.08289e-05 0.470058
v 1.26904 -0.0593878 0.474783
v 1.26417 -0.0639003 0.476939
v 1.28596 -0.0688903 0.470307
v 1.28313 -0.0737435 0.472352
v 1.30954 -0.0693512 0.461625
v 1.30916 -0.0740931 0.463669
v 1.33467 -0.0673432 0.453489
v 1.33649 -0.0719883 0.455882
v 1.36462 0.032832 0.439299
v 1.36894 0.0349271 0.441922
v 1.35472 0.0571551 0.446094
v 1.35839 0.0612404 0.448874
v 1.26904 0.0594088 0.474783
v 1.26183 0.0343823 0.471794
v 1.25662 0.0367824 0.473496
v 1.26417 0.0639215 0.47694
v 1.30955 0.0693704 0.461626
v 1.28597 0.0689105 0.470307
v 1.28313 0.0737638 0.472353
v 1.30916 0.0741123 0.46367
v 1.33467 0.0673614 0.45349
v 1.3365 0.0720063 0.455883
v 1.35955 -0.0301577 0.438242
v 1.35088 -0.0520293 0.444434
v 1.36157 8.53295e-06 0.435378
v 1.26877 -0.0314814 0.468344
v 1.26774 1.05637e-05 0.465388
v 1.27483 -0.0539486 0.471133
v 1.28945 -0.0623356 0.467074
v 1.31038 -0.0627515 0.45901
v 1.33304 -0.0610109 0.451298
v 1.35955 0.0301749 0.438242
v 1.35089 0.0520468 0.444435
v 1.26877 0.0315025 0.468345
v 1.27484 0.0539693 0.471134
v 1.28945 0.0623557 0.467075
v 1.31039 0.0627707 0.459011
v 1.33304 0.0610292 0.451298
vt 0.3261 0.888
vt 0.4305 0.7222
vt 0.3581 0.8551
vt 0.2578 0.8365
vt 0.4866 0.7579
vt 0.379 0.8311
vt 0.3222 0.8746
vt 0.4115 0.7278
vt 0.4695 0.7622
vt 0.4904 0.7109
vt 0.2613 0.8303
vt 0.3506 0.869
vt 0.3502 0.7551
vt 0.4902 0.7087
vt 0.26 0.8328
vt 0.26 0.8328
vt 0.3446 0.8495
vt 0.3332 0.8923
vt 0.374 0.8203
vt 0.3264 0.8857
vt 0.3705 0.828
vt 0.3273 0.8614
vt 0.4311 0.7241
vt 0.3947 0.7357
vt 0.318 0.8891
vt 0.326 0.8897
vt 0.2596 0.8326
vt 0.3446 0.8495
vt 0.3594 0.819
vt 0.4848 0.7094
vt 0.3499 0.7545
vt 0.3372 0.8759
vt 0.3321 0.7649
vt 0.3182 0.8855
vt 0.4686 0.7675
vt 0.3938 0.7338
vt 0.3369 0.8631
vt 0.4123 0.7296
vt 0.4123 0.7296
vt 0.326 0.8897
vt 0.2613 0.8303
vt 0.2599 0.8489
vt 0.3499 0.7545
vt 0.261 0.8576
vt 0.4115 0.7278
vt 0.4785 0.7647
vt 0.3502 0.7551
vt 0.2682 0.8533
vt 0.3502 0.7551
vt 0.4785 0.7647
vt 0.4113 0.7272
vt 0.4794 0.7592
vt 0.3515 0.7577
vt 0.4794 0.7592
vt 0.3274 0.8821
vt 0.339 0.7611
vt 0.2636 0.8509
vt 0.3321 0.7649
vt 0.4697 0.754
vt 0.3936 0.7332
vt 0.3305 0.875
vt 0.3321 0.7649
vt 0.2636 0.8509
vt 0.328 0.7667
vt 0.4797 0.751
vt 0.3938 0.7338
vt 0.4695 0.7622
vt 0.3317 0.7644
vt 0.3337 0.8827
vt 0.2682 0.8533
vt 0.3284 0.7673
vt 0.4115 0.7278
vt 0.4133 0.7836
vt 0.4655 0.7191
vt 0.27 0.8478
vt 0.485 0.7115
vt 0.4776 0.7257
vt 0.427 0.7752
vt 0.4212 0.7628
vt 0.4772 0.7125
vt 0.2655 0.8456
vt 0.4578 0.7267
vt 0.4212 0.7628
vt 0.4775 0.7171
vt 0.2599 0.8489
vt 0.4655 0.7191
vt 0.4657 0.7148
vt 0.4059 0.7718
vt 0.2636 0.8509
vt 0.4775 0.7171
vt 0.3768 0.8288
vt 0.3639 0.7479
vt 0.2655 0.8456
vt 0.283 0.8071
vt 0.3328 0.8864
vt 0.2634 0.8314
vt 0.3711 0.8252
vt 0.2852 0.809
vt 0.3327 0.8889
vt 0.3384 0.8894
vt 0.3321 0.7649
vt 0.2622 0.8449
vt 0.2596 0.8326
vt 0.4847 0.7087
vt 0.26 0.8328
vt 0.3383 0.8917
vt 0.359 0.8224
vt 0.2519 0.8492
vt 0.379 0.8311
vt 0.3327 0.8889
vt 0.2601 0.837
vt 0.3768 0.8288
vt 0.2508 0.8519
vt 0.3711 0.8252
vt 0.2984 0.7934
vt 0.318 0.8876
vt 0.3003 0.7957
vt 0.4305 0.7222
vt 0.2548 0.843
vt 0.3651 0.7503
vt 0.2548 0.8434
vt 0.4113 0.7272
vt 0.4303 0.7216
vt 0.2581 0.8366
vt 0.4115 0.7278
vt 0.2578 0.8365
vt 0.3383 0.9079
vt 0.3334 0.7764
vt 0.3369 0.7741
vt 0.3473 0.8044
vt 0.4657 0.7148
vt 0.3624 0.8133
vt 0.3374 0.9
vt 0.3477 0.7784
vt 0.3413 0.7827
vt 0.3704 0.8042
vt 0.3336 0.7677
vt 0.3704 0.8042
vt 0.3387 0.8948
vt 0.3677 0.7554
vt 0.477 0.7105
vt 0.3704 0.8042
vt 0.3357 0.8998
vt 0.3515 0.7577
vt 0.3369 0.7741
vt 0.4902 0.7087
vt 0.3332 0.8923
vt 0.3405 0.7639
vt 0.3813 0.7933
vt 0.3334 0.7764
vt 0.3251 0.9083
vt 0.3405 0.7639
vt 0.3332 0.8923
vt 0.479 0.7385
vt 0.3244 0.9017
vt 0.4797 0.751
vt 0.4431 0.7748
vt 0.2851 0.8292
vt 0.3812 0.8124
vt 0.3544 0.7635
vt 0.4291 0.7822
vt 0.485 0.7115
vt 0.2659 0.8277
vt 0.3251 0.9083
vt 0.3226 0.7761
vt 0.4776 0.7257
vt 0.4902 0.7087
vt 0.3289 0.9017
vt 0.3273 0.7721
vt 0.3947 0.7357
vt 0.3865 0.8166
vt 0.3993 0.7447
vt 0.3327 0.8889
vt 0.4776 0.7257
vt 0.3277 0.8975
vt 0.429 0.7859
vt 0.4866 0.7375
vt 0.3364 0.8902
vt 0.4323 0.7279
vt 0.4908 0.7159
vt 0.3334 0.7764
vt 0.3956 0.8077
vt 0.2671 0.8362
vt 0.3865 0.8166
vt 0.2751 0.8376
vt 0.4848 0.7094
vt 0.4291 0.7822
vt 0.486 0.725
vt 0.4913 0.7246
vt 0.4869 0.7497
vt 0.4426 0.7791
vt 0.479 0.7385
vt 0.4904 0.7109
vt 0.3308 0.7783
vt 0.2621 0.8338
vt 0.4866 0.7375
vt 0.485 0.7115
vt 0.427 0.7752
vt 0.2634 0.8314
vt 0.4913 0.7246
vt 0.2684 0.8341
vt 0.4133 0.7836
vt 0.2634 0.8314
vt 0.429 0.7859
vt 0.2782 0.8349
vt 0.4166 0.7931
vt 0.3883 0.8185
vt 0.2737 0.8395
vt 0.4908 0.7159
vt 0.4161 0.7383
vt 0.2779 0.8243
vt 0.4291 0.7822
vt 0.3818 0.8258
vt 0.2601 0.837
vt 0.4854 0.7164
vt 0.4139 0.7334
vt 0.3956 0.8077
vt 0.434 0.7328
vt 0.4162 0.79
vt 0.2711 0.8308
vt 0.4291 0.7822
vt 0.2665 0.8378
vt 0.486 0.725
vt 0.2782 0.8349
vt 0.4918 0.7369
vt 0.3751 0.834
vt 0.4957 0.7618
vt 0.3751 0.834
vt 0.492 0.7488
vt 0.3761 0.8317
vt 0.4961 0.748
vt 0.3722 0.8378
vt 0.496 0.7561
vt 0.3705 0.828
vt 0.3427 0.8794
vt 0.3667 0.8343
vt 0.4918 0.7569
vt 0.3299 0.77
vt 0.4959 0.7363
vt 0.3695 0.8303
vt 0.3695 0.8303
vt 0.4914 0.7625
vt 0.3445 0.8649
vt 0.496 0.7561
vt 0.3367 0.8937
vt 0.3486 0.8669
vt 0.3768 0.8288
vt 0.3273 0.7721
vt 0.4578 0.7267
vt 0.4961 0.748
vt 0.4697 0.754
vt 0.3582 0.7711
vt 0.492 0.7488
vt 0.4797 0.751
vt 0.4918 0.7569
vt 0.3581 0.8551
vt 0.3367 0.8937
vt 0.3534 0.8525
vt 0.3816 0.7471
vt 0.2751 0.8376
vt 0.2684 0.8341
vt 0.3967 0.7396
vt 0.2711 0.8308
vt 0.3793 0.7427
vt 0.2711 0.8308
vt 0.2684 0.8341
vt 0.3651 0.7503
vt 0.3003 0.7957
vt 0.3711 0.7621
vt 0.4866 0.7375
vt 0.356 0.8293
vt 0.4918 0.7369
vt 0.3705 0.828
vt 0.2779 0.8243
vt 0.3816 0.7471
vt 0.486 0.725
vt 0.3583 0.825
vt 0.4869 0.7497
vt 0.2725 0.8206
vt 0.2851 0.8292
vt 0.3936 0.7332
vt 0.4947 0.7104
vt 0.3438 0.8187
vt 0.3782 0.7406
vt 0.356 0.8293
vt 0.3636 0.7473
vt 0.3583 0.825
vt 0.4902 0.708
vt 0.2971 0.8192
vt 0.3782 0.7406
vt 0.3583 0.825
vt 0.374 0.8203
vt 0.3049 0.8007
vt 0.3782 0.7406
vt 0.2826 0.8067
vt 0.4902 0.708
vt 0.2698 0.8188
vt 0.3364 0.8902
vt 0.2903 0.8134
vt 0.3639 0.7479
vt 0.2702 0.8191
vt 0.3797 0.824
vt 0.283 0.8071
vt 0.2971 0.8192
vt 0.3651 0.7503
vt 0.3261 0.888
vt 0.283 0.8071
vt 0.311 0.8076
vt 0.3793 0.7427
vt 0.298 0.793
vt 0.3938 0.7338
vt 0.3705 0.828
vt 0.2702 0.8191
vt 0.3761 0.8317
vt 0.2826 0.8067
vt 0.3782 0.7406
vt 0.2725 0.8206
vt 0.3387 0.8948
vt 0.283 0.8071
vt 0.3793 0.7427
vt 0.2852 0.809
vt 0.2984 0.7934
vt 0.3947 0.7357
vt 0.4133 0.7836
vt 0.3445 0.8649
vt 0.3372 0.8759
vt 0.4016 0.7929
vt 0.3408 0.8774
vt 0.3486 0.8669
vt 0.4053 0.7986
vt 0.3486 0.8669
vt 0.4162 0.79
vt 0.4016 0.7929
vt 0.3408 0.8774
vt 0.3911 0.8028
vt 0.3427 0.8794
vt 0.3956 0.8077
vt 0.3506 0.869
vt 0.4053 0.7986
vn -0.1663 -0.5051 -0.8469
vn -0.241 -0.1481 -0.9591
vn -0.1327 -0.1298 -0.9826
vn -0.01669 -0.4858 -0.8739
vn -0.2615 0.09284 -0.9607
vn -0.1725 0.1115 -0.9787
vn 0.009522 0.1578 -0.9874
vn 0.09272 -0.06827 -0.9933
vn 0.2592 -0.381 -0.8875
vn -0.2503 -0.2735 -0.9287
vn -0.1143 -0.3666 -0.9233
vn -0.1609 -0.08396 -0.9834
vn -0.2582 -0.068 -0.9637
vn 0.3537 -0.3764 -0.8563
vn 0.09906 -0.07886 -0.9919
vn 0.8223 -0.2502 -0.5111
vn 0.6515 -0.04596 -0.7572
vn 0.923 -0.09262 -0.3734
vn 0.9066 -0.05194 -0.4186
vn 0.8014 0.1193 -0.586
vn 0.3603 0.253 -0.8978
vn 0.44 0.1388 -0.8872
vn 0.6197 -0.08454 -0.7803
vn 0.732 0.1885 -0.6547
vn 0.8265 0.07453 -0.558
vn -0.445 -0.2018 -0.8725
vn -0.3656 -0.2094 -0.9069
vn -0.3912 -0.1012 -0.9147
vn -0.4526 -0.1049 -0.8855
vn -0.2883 -0.1939 -0.9377
vn -0.3287 -0.08194 -0.9409
vn -0.347 0.0488 -0.9366
vn -0.4075 0.0221 -0.9129
vn -0.4632 0.0006409 -0.8862
vn -0.3625 -0.5688 -0.7382
vn -0.4434 -0.2411 -0.8633
vn -0.3916 -0.2203 -0.8933
vn -0.3327 -0.562 -0.7573
vn -0.341 -0.1972 -0.9191
vn -0.3026 -0.5473 -0.7803
vn -0.2973 -0.1939 -0.9349
vn -0.308 -0.06415 -0.9492
vn -0.3175 0.07132 -0.9455
vn -0.3077 -0.1729 -0.9356
vn -0.2617 -0.5255 -0.8095
vn -0.6305 -0.4033 -0.6631
vn -0.4392 -0.7609 -0.4775
vn -0.3254 -0.757 -0.5665
vn -0.5268 -0.4008 -0.7495
vn -0.2454 -0.9205 -0.3041
vn -0.1419 -0.9111 -0.3869
vn 0.1183 -0.8424 -0.5257
vn -0.006653 -0.695 -0.7189
vn -0.2045 -0.3758 -0.9038
vn -0.3227 -0.4142 -0.851
vn -0.1862 -0.7668 -0.6142
vn -0.3273 -0.7676 -0.551
vn -0.4909 -0.4164 -0.7653
vn -0.08487 -0.9189 -0.3852
vn -0.17 -0.9267 -0.3351
vn 0.3375 -0.1934 -0.9212
vn 0.5002 -0.388 -0.7741
vn 0.7228 -0.08438 -0.6859
vn 0.6363 -0.001221 -0.7714
vn 0.5672 -0.5154 -0.6423
vn 0.7585 -0.1686 -0.6294
vn 0.8547 0.02588 -0.5184
vn 0.8469 0.03449 -0.5306
vn 0.8339 0.05039 -0.5496
vn 0.2874 -0.5614 -0.776
vn 0.1173 -0.3042 -0.9453
vn 0.3679 -0.7043 -0.6071
vn -0.2964 -0.7998 -0.522
vn -0.3035 -0.6931 -0.6538
vn -0.2388 -0.6751 -0.698
vn -0.2091 -0.7829 -0.586
vn -0.08298 -0.6482 -0.7569
vn 0.004059 -0.7374 -0.6754
vn -0.2259 -0.8041 -0.5499
vn -0.2995 -0.7022 -0.6459
vn -0.3042 -0.7024 -0.6435
vn -0.2645 -0.8089 -0.5251
vn 0.4792 -0.5067 -0.7166
vn 0.3855 -0.4829 -0.7862
vn 0.6997 -0.1606 -0.6961
vn 0.7324 -0.1798 -0.6566
vn 0.8529 0.03497 -0.5209
vn 0.8555 0.0278 -0.517
vn 0.1169 -0.6084 -0.785
vn 0.2405 -0.6568 -0.7147
vn -0.4134 0 -0.9105
vn -0.3681 0 -0.9297
vn -0.3653 -0.1523 -0.9183
vn -0.4054 -0.151 -0.9015
vn -0.3105 0 -0.9505
vn -0.3131 -0.1499 -0.9378
vn -0.318 -0.2338 -0.9188
vn -0.3646 -0.2333 -0.9014
vn -0.3938 -0.2251 -0.8912
vn -0.4732 0 -0.8809
vn -0.3556 0 -0.9346
vn -0.3589 -0.1537 -0.9206
vn -0.4614 -0.1435 -0.8755
vn -0.1953 0 -0.9807
vn -0.2202 -0.1543 -0.9632
vn 0.8039 0 -0.5948
vn 0.9096 0 -0.4154
vn 0.8838 -0.1675 -0.4369
vn 0.7016 -0.2361 -0.6723
vn 0.9177 0 -0.3972
vn 0.92 -0.06522 -0.3865
vn -0.2521 0 -0.9677
vn -0.2587 -0.1421 -0.9554
vn -0.1782 0 -0.984
vn -0.1863 -0.1385 -0.9727
vn -0.2078 -0.219 -0.9533
vn -0.2639 -0.2322 -0.9362
vn 0.08798 -0.8184 -0.5679
vn 0.3335 -0.7008 -0.6306
vn 0.5445 -0.5257 -0.6535
vn 0.7529 -0.1852 -0.6315
vn 0.8544 0.02692 -0.5188
vn -0.1324 -0.8951 -0.4257
vn -0.1929 -0.903 -0.3837
vn -0.2498 -0.8949 -0.3699
vn -0.1532 -0.8804 -0.4488
vn -0.1744 -0.7555 -0.6315
vn -0.08506 -0.9079 -0.4105
vn -0.3014 -0.4071 -0.8622
vn -0.8382 -0.2768 -0.4699
vn -0.7642 -0.5485 -0.3393
vn -0.7519 -0.6433 -0.1443
vn -0.4532 -0.2524 -0.8549
vn -0.4739 -0.01297 -0.8805
vn -0.3701 -0.5687 -0.7345
vn -0.8466 -0.3895 -0.3627
vn -0.8645 -0.1695 -0.4732
vn -0.9112 -0.01172 -0.4117
vn -0.4644 -0.1034 -0.8795
vn -0.4594 -0.1911 -0.8674
vn -0.9065 -0.06229 -0.4175
vn -0.9061 -0.1175 -0.4064
vn -0.4764 -0.135 -0.8688
vn -0.4879 0 -0.8729
vn -0.9014 -0.08673 -0.4242
vn -0.8991 0 -0.4377
vn -0.3037 -0.6974 -0.6491
vn -0.2277 -0.7956 -0.5613
vn -0.799 -0.5503 -0.2423
vn -0.8325 -0.4702 -0.2929
vn -0.1346 -0.8843 -0.4471
vn -0.7614 -0.6257 -0.1695
vn -0.1666 0.5025 -0.8484
vn -0.01727 0.4834 -0.8752
vn -0.1327 0.129 -0.9827
vn -0.241 0.1472 -0.9593
vn 0.2584 0.3791 -0.8885
vn 0.09268 0.06763 -0.9934
vn 0.009583 -0.1577 -0.9874
vn -0.1725 -0.1114 -0.9787
vn -0.2615 -0.09275 -0.9607
vn -0.2503 0.2735 -0.9287
vn -0.2582 0.068 -0.9637
vn -0.1609 0.08399 -0.9834
vn -0.1143 0.3666 -0.9233
vn 0.09909 0.07886 -0.9919
vn 0.3537 0.3764 -0.8563
vn 0.6515 0.04593 -0.7572
vn 0.8223 0.2502 -0.5111
vn 0.3607 -0.2528 -0.8978
vn 0.8015 -0.1193 -0.5859
vn 0.9066 0.05191 -0.4186
vn 0.923 0.09256 -0.3734
vn 0.6195 0.08386 -0.7804
vn 0.4404 -0.1389 -0.887
vn 0.8267 -0.07434 -0.5576
vn 0.7324 -0.1882 -0.6543
vn -0.445 0.2019 -0.8725
vn -0.4526 0.1049 -0.8855
vn -0.3912 0.1012 -0.9147
vn -0.3656 0.2094 -0.9069
vn -0.4632 -0.0006104 -0.8862
vn -0.4075 -0.02206 -0.9129
vn -0.347 -0.04871 -0.9366
vn -0.3287 0.08197 -0.9409
vn -0.2883 0.1939 -0.9377
vn -0.3648 0.566 -0.7393
vn -0.3341 0.5589 -0.7589
vn -0.3918 0.2192 -0.8935
vn -0.4438 0.24 -0.8634
vn -0.303 0.5441 -0.7823
vn -0.3411 0.1961 -0.9193
vn -0.308 0.06418 -0.9492
vn -0.2973 0.1939 -0.9349
vn -0.3175 -0.07123 -0.9456
vn -0.2619 0.5226 -0.8113
vn -0.3077 0.1719 -0.9358
vn -0.6301 0.3966 -0.6676
vn -0.526 0.3942 -0.7536
vn -0.3309 0.7423 -0.5827
vn -0.4458 0.7467 -0.4937
vn -0.2058 0.3692 -0.9062
vn -0.01334 0.6808 -0.7323
vn 0.1093 0.8289 -0.5486
vn -0.1528 0.8981 -0.4124
vn -0.2586 0.9081 -0.3293
vn -0.3318 0.4079 -0.8506
vn -0.4952 0.4084 -0.7668
vn -0.3408 0.7527 -0.5632
vn -0.2067 0.7544 -0.623
vn -0.1901 0.9146 -0.3569
vn -0.1106 0.9085 -0.4029
vn 0.3341 0.1899 -0.9232
vn 0.6362 0.001617 -0.7714
vn 0.7215 0.08371 -0.6873
vn 0.494 0.3806 -0.7817
vn 0.8348 -0.04962 -0.5482
vn 0.8476 -0.03378 -0.5295
vn 0.8551 -0.02554 -0.5178
vn 0.7561 0.1653 -0.6331
vn 0.561 0.5061 -0.6551
vn 0.1138 0.2987 -0.9475
vn 0.2803 0.55 -0.7867
vn 0.3603 0.692 -0.6255
vn -0.2999 0.7912 -0.5329
vn -0.2118 0.7743 -0.5963
vn -0.2393 0.6702 -0.7025
vn -0.3044 0.688 -0.6587
vn 0.001099 0.7292 -0.6843
vn -0.08386 0.6436 -0.7607
vn -0.2381 0.7963 -0.556
vn -0.2726 0.8004 -0.5339
vn -0.3077 0.6974 -0.6471
vn -0.3054 0.6976 -0.6481
vn 0.4761 0.5013 -0.7225
vn 0.7312 0.1773 -0.6587
vn 0.6991 0.1593 -0.697
vn 0.3838 0.4798 -0.789
vn 0.8558 -0.02756 -0.5165
vn 0.8531 -0.03485 -0.5206
vn 0.2371 0.6497 -0.7223
vn 0.1154 0.6043 -0.7884
vn -0.4054 0.1511 -0.9015
vn -0.3653 0.1523 -0.9183
vn -0.3938 0.2251 -0.8912
vn -0.3646 0.2333 -0.9014
vn -0.318 0.2338 -0.9188
vn -0.3131 0.1499 -0.9378
vn -0.4614 0.1436 -0.8755
vn -0.3588 0.1537 -0.9206
vn -0.2202 0.1543 -0.9632
vn 0.7016 0.2361 -0.6723
vn 0.8838 0.1674 -0.4369
vn 0.92 0.06519 -0.3865
vn -0.2587 0.1421 -0.9554
vn -0.2639 0.2322 -0.9362
vn -0.2078 0.219 -0.9533
vn -0.1863 0.1385 -0.9727
vn 0.3275 0.6903 -0.6451
vn 0.08136 0.8066 -0.5854
vn 0.5394 0.5177 -0.6641
vn 0.7508 0.1816 -0.6351
vn 0.8549 -0.02655 -0.5181
vn -0.2085 0.892 -0.401
vn -0.1529 0.8853 -0.4392
vn -0.2592 0.8835 -0.39
vn -0.1607 0.8686 -0.4686
vn -0.1103 0.8983 -0.4252
vn -0.195 0.7446 -0.6384
vn -0.7614 0.6302 -0.152
vn -0.7734 0.5363 -0.3379
vn -0.8416 0.2734 -0.4658
vn -0.311 0.4017 -0.8613
vn -0.4739 0.01297 -0.8805
vn -0.4536 0.2515 -0.855
vn -0.9112 0.01175 -0.4117
vn -0.8647 0.169 -0.473
vn -0.8474 0.3877 -0.3626
vn -0.3724 0.5664 -0.7351
vn -0.4594 0.1911 -0.8674
vn -0.4644 0.1034 -0.8795
vn -0.9061 0.1176 -0.4064
vn -0.9065 0.06232 -0.4175
vn -0.4764 0.135 -0.8688
vn -0.9014 0.08679 -0.4242
vn -0.3095 0.6935 -0.6505
vn -0.8346 0.4665 -0.2928
vn -0.8039 0.5426 -0.2437
vn -0.2398 0.7888 -0.566
vn -0.1547 0.8753 -0.4582
vn -0.7696 0.614 -0.175
vn 0.06842 -0.4063 -0.9112
vn 0.2642 -0.2215 -0.9387
vn 0.5105 -0.2523 -0.822
vn 0.2202 -0.461 -0.8596
vn 0.3215 0 -0.9469
vn 0.6054 0 -0.7959
vn -0.3426 0 -0.9395
vn -0.3173 -0.1492 -0.9365
vn -0.2024 -0.1419 -0.969
vn -0.2055 0 -0.9786
vn -0.3121 -0.1894 -0.931
vn -0.2547 -0.1729 -0.9514
vn -0.3384 -0.2378 -0.9104
vn -0.308 -0.2077 -0.9284
vn -0.2907 -0.3446 -0.8926
vn -0.2639 -0.3493 -0.8991
vn -0.1674 -0.4341 -0.8852
vn -0.1056 -0.4861 -0.8675
vn 0.2642 0.2215 -0.9387
vn 0.5105 0.2523 -0.822
vn 0.06845 0.4063 -0.9112
vn 0.2202 0.461 -0.8596
vn -0.3121 0.1895 -0.931
vn -0.3173 0.1493 -0.9365
vn -0.2024 0.1419 -0.9689
vn -0.2547 0.173 -0.9514
vn -0.2907 0.3446 -0.8925
vn -0.3384 0.2378 -0.9104
vn -0.308 0.2077 -0.9284
vn -0.2639 0.3493 -0.8991
vn -0.1673 0.4342 -0.8851
vn -0.1055 0.4861 -0.8675
vn -0.008301 -0.167 -0.9859
vn -0.1049 -0.2951 -0.9496
vn 0.01361 0 -0.9999
vn -0.4055 -0.1541 -0.901
vn -0.4227 0 -0.9062
vn -0.3794 -0.2252 -0.8974
vn -0.3612 -0.2574 -0.8962
vn -0.3127 -0.2915 -0.904
vn -0.2343 -0.3202 -0.9179
vn -0.008271 0.167 -0.9859
vn -0.1049 0.2951 -0.9496
vn -0.4055 0.1542 -0.901
vn -0.3794 0.2252 -0.8974
vn -0.3612 0.2574 -0.8962
vn -0.3127 0.2915 -0.904
vn -0.2343 0.3202 -0.9179
f 1/1/1 2/2/2 3/3/3
f 1/1/1 3/3/3 4/4/4
f 2/2/2 5/5/5 6/6/6
f 2/2/2 6/6/6 3/3/3
f 3/3/3 6/6/6 7/7/7
f 3/3/3 7/7/7 8/8/8
f 4/4/4 3/3/3 8/8/8
f 4/4/4 8/8/8 9/9/9
f 10/10/10 11/11/11 12/12/12
f 10/10/10 12/12/12 13/13/13
f 11/11/11 14/14/14 15/15/15
f 11/11/11 15/15/15 12/12/12
f 12/12/12 15/15/15 7/7/7
f 12/12/12 7/7/7 6/6/6
f 13/13/13 12/12/12 6/6/6
f 13/13/13 6/6/6 5/5/5
f 14/14/14 16/16/16 17/17/17
f 14/14/14 17/17/17 15/15/15
f 16/16/16 18/18/18 19/19/19
f 16/16/16 19/19/19 17/17/17
f 17/17/17 19/19/19 20/20/20
f 17/17/17 20/20/20 21/21/21
f 15/15/15 17/17/17 21/21/21
f 15/15/15 21/21/21 7/7/7
f 9/9/9 8/8/8 22/22/22
f 9/9/9 22/22/22 23/23/23
f 8/8/8 7/7/7 21/21/21
f 8/8/8 21/21/21 22/22/22
f 22/22/22 21/21/21 20/20/20
f 22/22/22 20/20/20 24/24/24
f 23/23/23 22/22/22 24/24/24
f 23/23/23 24/24/24 25/25/25
f 26/26/26 27/27/27 28/28/28
f 26/26/26 28/28/28 29/29/29
f 27/27/27 30/30/30 31/31/31
f 27/27/27 31/31/31 28/28/28
f 28/28/28 31/31/31 32/32/32
f 28/28/28 32/32/32 33/33/33
f 29/29/29 28/28/28 33/33/33
f 29/29/29 33/33/33 34/34/34
f 35/35/35 36/36/36 37/37/37
f 35/35/35 37/37/37 38/38/38
f 36/36/36 34/34/34 33/33/33
f 36/36/36 33/33/33 37/37/37
f 37/37/37 33/33/33 32/32/32
f 37/37/37 32/32/32 39/39/39
f 38/38/38 37/37/37 39/39/39
f 38/38/38 39/39/39 40/40/40
f 30/30/30 41/41/41 42/42/42
f 30/30/30 42/42/42 31/31/31
f 41/41/41 10/10/10 13/13/13
f 41/41/41 13/13/13 42/42/42
f 42/42/42 13/13/13 5/5/5
f 42/42/42 5/5/5 43/43/43
f 31/31/31 42/42/42 43/43/43
f 31/31/31 43/43/43 32/32/32
f 40/40/40 39/39/39 44/44/44
f 40/40/40 44/44/44 45/45/45
f 39/39/39 32/32/32 43/43/43
f 39/39/39 43/43/43 44/44/44
f 44/44/44 43/43/43 5/5/5
f 44/44/44 5/5/5 2/2/2
f 45/45/45 44/44/44 2/2/2
f 45/45/45 2/2/2 1/1/1
f 46/46/46 47/47/47 48/48/48
f 46/46/46 48/48/48 49/49/49
f 47/47/47 50/50/50 51/51/51
f 47/47/47 51/51/51 48/48/48
f 48/48/48 51/51/51 52/52/52
f 48/48/48 52/52/52 53/53/53
f 49/49/49 48/48/48 53/53/53
f 49/49/49 53/53/53 54/54/54
f 55/55/55 56/56/56 57/57/57
f 55/55/55 57/57/57 58/58/58
f 56/56/56 59/59/59 60/60/60
f 56/56/56 60/60/60 57/57/57
f 57/57/57 60/60/60 50/50/50
f 57/57/57 50/50/50 47/47/47
f 58/58/58 57/57/57 47/47/47
f 58/58/58 47/47/47 46/46/46
f 61/61/61 62/62/62 63/63/63
f 61/61/61 63/63/63 64/64/64
f 62/62/62 65/65/65 66/66/66
f 62/62/62 66/66/66 63/63/63
f 63/63/63 66/66/66 67/67/67
f 63/63/63 67/67/67 68/68/68
f 64/64/64 63/63/63 68/68/68
f 64/64/64 68/68/68 69/69/69
f 54/54/54 53/53/53 70/70/70
f 54/54/54 70/70/70 71/71/71
f 53/53/53 52/52/52 72/72/72
f 53/53/53 72/72/72 70/70/70
f 70/70/70 72/72/72 65/65/65
f 70/70/70 65/65/65 62/62/62
f 71/71/71 70/70/70 62/62/62
f 71/71/71 62/62/62 61/61/61
f 73/73/73 74/74/74 75/75/75
f 73/73/73 75/75/75 76/76/76
f 74/74/74 40/40/40 45/45/45
f 74/74/74 45/45/45 75/75/75
f 75/75/75 45/45/45 1/1/1
f 75/75/75 1/1/1 77/77/77
f 76/76/76 75/75/75 77/77/77
f 76/76/76 77/77/77 78/78/78
f 79/79/79 80/80/80 81/81/81
f 79/79/79 81/81/81 82/82/82
f 80/80/80 35/35/35 38/38/38
f 80/80/80 38/38/38 81/81/81
f 81/81/81 38/38/38 40/40/40
f 81/81/81 40/40/40 74/74/74
f 82/82/82 81/81/81 74/74/74
f 82/82/82 74/74/74 73/73/73
f 83/83/83 84/84/84 85/85/85
f 83/83/83 85/85/85 86/86/86
f 84/84/84 9/9/9 23/23/23
f 84/84/84 23/23/23 85/85/85
f 85/85/85 23/23/23 25/25/25
f 85/85/85 25/25/25 87/87/87
f 86/86/86 85/85/85 87/87/87
f 86/86/86 87/87/87 88/88/88
f 78/78/78 77/77/77 89/89/89
f 78/78/78 89/89/89 90/90/90
f 77/77/77 1/1/1 4/4/4
f 77/77/77 4/4/4 89/89/89
f 89/89/89 4/4/4 9/9/9
f 89/89/89 9/9/9 84/84/84
f 90/90/90 89/89/89 84/84/84
f 90/90/90 84/84/84 83/83/83
f 91/91/91 92/92/92 93/93/93
f 91/91/91 93/93/93 94/94/94
f 92/92/92 95/95/95 96/96/96
f 92/92/92 96/96/96 93/93/93
f 93/93/93 96/96/96 97/97/97
f 93/93/93 97/97/97 98/98/98
f 94/94/94 93/93/93 98/98/98
f 94/94/94 98/98/98 99/99/99
f 100/100/100 101/101/101 102/102/102
f 100/100/100 102/102/102 103/103/103
f 101/101/101 104/104/104 105/105/105
f 101/101/101 105/105/105 102/102/102
f 102/102/102 105/105/105 30/30/30
f 102/102/102 30/30/30 27/27/27
f 103/103/103 102/102/102 27/27/27
f 103/103/103 27/27/27 26/26/26
f 106/106/106 107/107/107 108/108/108
f 106/106/106 108/108/108 109/109/109
f 107/107/107 110/110/110 111/111/111
f 107/107/107 111/111/111 108/108/108
f 108/108/108 111/111/111 18/18/18
f 108/108/108 18/18/18 16/16/16
f 109/109/109 108/108/108 16/16/16
f 109/109/109 16/16/16 14/14/14
f 95/95/95 112/112/112 113/113/113
f 95/95/95 113/113/113 96/96/96
f 112/112/112 114/114/114 115/115/115
f 112/112/112 115/115/115 113/113/113
f 113/113/113 115/115/115 116/116/116
f 113/113/113 116/116/116 117/117/117
f 96/96/96 113/113/113 117/117/117
f 96/96/96 117/117/117 97/97/97
f 52/52/52 118/118/118 119/119/119
f 52/52/52 119/119/119 72/72/72
f 118/118/118 78/78/78 90/90/90
f 118/118/118 90/90/90 119/119/119
f 119/119/119 90/90/90 83/83/83
f 119/119/119 83/83/83 120/120/120
f 72/72/72 119/119/119 120/120/120
f 72/72/72 120/120/120 65/65/65
f 65/65/65 120/120/120 121/121/121
f 65/65/65 121/121/121 66/66/66
f 120/120/120 83/83/83 86/86/86
f 120/120/120 86/86/86 121/121/121
f 121/121/121 86/86/86 88/88/88
f 121/121/121 88/88/88 122/122/122
f 66/66/66 121/121/121 122/122/122
f 66/66/66 122/122/122 67/67/67
f 59/59/59 123/123/123 124/124/124
f 59/59/59 124/124/124 60/60/60
f 123/123/123 79/79/79 82/82/82
f 123/123/123 82/82/82 124/124/124
f 124/124/124 82/82/82 73/73/73
f 124/124/124 73/73/73 125/125/125
f 60/60/60 124/124/124 125/125/125
f 60/60/60 125/125/125 50/50/50
f 50/50/50 125/125/125 126/126/126
f 50/50/50 126/126/126 51/51/51
f 125/125/125 73/73/73 76/76/76
f 125/125/125 76/76/76 126/126/126
f 126/126/126 76/76/76 78/78/78
f 126/126/126 78/78/78 118/118/118
f 51/51/51 126/126/126 118/118/118
f 51/51/51 118/118/118 52/52/52
f 59/59/59 56/56/56 127/127/127
f 59/59/59 127/127/127 128/128/128
f 56/56/56 55/55/55 129/129/129
f 56/56/56 129/129/129 127/127/127
f 127/127/127 129/129/129 130/130/130
f 127/127/127 130/130/130 131/131/131
f 128/128/128 127/127/127 131/131/131
f 128/128/128 131/131/131 132/132/132
f 34/34/34 36/36/36 133/133/133
f 34/34/34 133/133/133 134/134/134
f 36/36/36 35/35/35 135/135/135
f 36/36/36 135/135/135 133/133/133
f 133/133/133 135/135/135 136/136/136
f 133/133/133 136/136/136 137/137/137
f 134/134/134 133/133/133 137/137/137
f 134/134/134 137/137/137 138/138/138
f 26/26/26 29/29/29 139/139/139
f 26/26/26 139/139/139 140/140/140
f 29/29/29 34/34/34 134/134/134
f 29/29/29 134/134/134 139/139/139
f 139/139/139 134/134/134 138/138/138
f 139/139/139 138/138/138 141/141/141
f 140/140/140 139/139/139 141/141/141
f 140/140/140 141/141/141 142/142/142
f 100/100/100 103/103/103 143/143/143
f 100/100/100 143/143/143 144/144/144
f 103/103/103 26/26/26 140/140/140
f 103/103/103 140/140/140 143/143/143
f 143/143/143 140/140/140 142/142/142
f 143/143/143 142/142/142 145/145/145
f 144/144/144 143/143/143 145/145/145
f 144/144/144 145/145/145 146/146/146
f 35/35/35 80/80/80 147/147/147
f 35/35/35 147/147/147 135/135/135
f 80/80/80 79/79/79 148/148/148
f 80/80/80 148/148/148 147/147/147
f 147/147/147 148/148/148 149/149/149
f 147/147/147 149/149/149 150/150/150
f 135/135/135 147/147/147 150/150/150
f 135/135/135 150/150/150 136/136/136
f 79/79/79 123/123/123 151/151/151
f 79/79/79 151/151/151 148/148/148
f 123/123/123 59/59/59 128/128/128
f 123/123/123 128/128/128 151/151/151
f 151/151/151 128/128/128 132/132/132
f 151/151/151 132/132/132 152/152/152
f 148/148/148 151/151/151 152/152/152
f 148/148/148 152/152/152 149/149/149
f 153/153/153 154/154/154 155/155/155
f 153/153/153 155/155/155 156/156/156
f 154/154/154 157/157/157 158/158/158
f 154/154/154 158/158/158 155/155/155
f 155/155/155 158/158/158 159/159/159
f 155/155/155 159/159/159 160/160/160
f 156/156/156 155/155/155 160/160/160
f 156/156/156 160/160/160 161/161/161
f 162/162/162 163/163/163 164/164/164
f 162/162/162 164/164/164 165/165/165
f 163/163/163 161/161/161 160/160/160
f 163/163/163 160/160/160 164/164/164
f 164/164/164 160/160/160 159/159/159
f 164/164/164 159/159/159 166/166/166
f 165/165/165 164/164/164 166/166/166
f 165/165/165 166/166/166 167/167/167
f 167/167/167 166/166/166 168/168/168
f 167/167/167 168/168/168 169/169/169
f 166/166/166 159/159/159 170/170/170
f 166/166/166 170/170/170 168/168/168
f 168/168/168 170/170/170 171/171/171
f 168/168/168 171/171/171 172/172/172
f 169/169/169 168/168/168 172/172/172
f 169/169/169 172/172/172 173/173/173
f 157/157/157 174/174/174 175/175/175
f 157/157/157 175/175/175 158/158/158
f 174/174/174 176/176/176 177/177/177
f 174/174/174 177/177/177 175/175/175
f 175/175/175 177/177/177 171/171/171
f 175/175/175 171/171/171 170/170/170
f 158/158/158 175/175/175 170/170/170
f 158/158/158 170/170/170 159/159/159
f 178/178/178 179/179/179 180/180/180
f 178/178/178 180/180/180 181/181/181
f 179/179/179 182/182/182 183/183/183
f 179/179/179 183/183/183 180/180/180
f 180/180/180 183/183/183 184/184/184
f 180/180/180 184/184/184 185/185/185
f 181/181/181 180/180/180 185/185/185
f 181/181/181 185/185/185 186/186/186
f 187/187/187 188/188/188 189/189/189
f 187/187/187 189/189/189 190/190/190
f 188/188/188 191/191/191 192/192/192
f 188/188/188 192/192/192 189/189/189
f 189/189/189 192/192/192 184/184/184
f 189/189/189 184/184/184 183/183/183
f 190/190/190 189/189/189 183/183/183
f 190/190/190 183/183/183 182/182/182
f 186/186/186 185/185/185 193/193/193
f 186/186/186 193/193/193 194/194/194
f 185/185/185 184/184/184 195/195/195
f 185/185/185 195/195/195 193/193/193
f 193/193/193 195/195/195 161/161/161
f 193/193/193 161/161/161 163/163/163
f 194/194/194 193/193/193 163/163/163
f 194/194/194 163/163/163 162/162/162
f 191/191/191 196/196/196 197/197/197
f 191/191/191 197/197/197 192/192/192
f 196/196/196 153/153/153 156/156/156
f 196/196/196 156/156/156 197/197/197
f 197/197/197 156/156/156 161/161/161
f 197/197/197 161/161/161 195/195/195
f 192/192/192 197/197/197 195/195/195
f 192/192/192 195/195/195 184/184/184
f 198/198/198 199/199/199 200/200/200
f 198/198/198 200/200/200 201/201/201
f 199/199/199 202/202/202 203/203/203
f 199/199/199 203/203/203 200/200/200
f 200/200/200 203/203/203 204/204/204
f 200/200/200 204/204/204 205/205/205
f 201/201/201 200/200/200 205/205/205
f 201/201/201 205/205/205 206/206/206
f 207/207/207 208/208/208 209/209/209
f 207/207/207 209/209/209 210/210/210
f 208/208/208 198/198/198 201/201/201
f 208/208/208 201/201/201 209/209/209
f 209/209/209 201/201/201 206/206/206
f 209/209/209 206/206/206 211/211/211
f 210/210/210 209/209/209 211/211/211
f 210/210/210 211/211/211 212/212/212
f 213/213/213 214/214/214 215/215/215
f 213/213/213 215/215/215 216/216/216
f 214/214/214 217/217/217 218/218/218
f 214/214/214 218/218/218 215/215/215
f 215/215/215 218/218/218 219/219/219
f 215/215/215 219/219/219 220/220/220
f 216/216/216 215/215/215 220/220/220
f 216/216/216 220/220/220 221/221/221
f 202/202/202 222/222/222 223/223/223
f 202/202/202 223/223/223 203/203/203
f 222/222/222 213/213/213 216/216/216
f 222/222/222 216/216/216 223/223/223
f 223/223/223 216/216/216 221/221/221
f 223/223/223 221/221/221 224/224/224
f 203/203/203 223/223/223 224/224/224
f 203/203/203 224/224/224 204/204/204
f 225/225/225 226/226/226 227/227/227
f 225/225/225 227/227/227 228/228/228
f 226/226/226 229/229/229 230/230/230
f 226/226/226 230/230/230 227/227/227
f 227/227/227 230/230/230 153/153/153
f 227/227/227 153/153/153 196/196/196
f 228/228/228 227/227/227 196/196/196
f 228/228/228 196/196/196 191/191/191
f 231/231/231 232/232/232 233/233/233
f 231/231/231 233/233/233 234/234/234
f 232/232/232 225/225/225 228/228/228
f 232/232/232 228/228/228 233/233/233
f 233/233/233 228/228/228 191/191/191
f 233/233/233 191/191/191 188/188/188
f 234/234/234 233/233/233 188/188/188
f 234/234/234 188/188/188 187/187/187
f 235/235/235 236/236/236 237/237/237
f 235/235/235 237/237/237 238/238/238
f 236/236/236 239/239/239 240/240/240
f 236/236/236 240/240/240 237/237/237
f 237/237/237 240/240/240 176/176/176
f 237/237/237 176/176/176 174/174/174
f 238/238/238 237/237/237 174/174/174
f 238/238/238 174/174/174 157/157/157
f 229/229/229 241/241/241 242/242/242
f 229/229/229 242/242/242 230/230/230
f 241/241/241 235/235/235 238/238/238
f 241/241/241 238/238/238 242/242/242
f 242/242/242 238/238/238 157/157/157
f 242/242/242 157/157/157 154/154/154
f 230/230/230 242/242/242 154/154/154
f 230/230/230 154/154/154 153/153/153
f 91/91/91 243/243/243 244/244/244
f 91/91/91 244/244/244 92/92/92
f 243/243/243 245/245/245 246/246/246
f 243/243/243 246/246/246 244/244/244
f 244/244/244 246/246/246 247/247/247
f 244/244/244 247/247/247 248/248/248
f 92/92/92 244/244/244 248/248/248
f 92/92/92 248/248/248 95/95/95
f 100/100/100 249/249/249 250/250/250
f 100/100/100 250/250/250 101/101/101
f 249/249/249 178/178/178 181/181/181
f 249/249/249 181/181/181 250/250/250
f 250/250/250 181/181/181 186/186/186
f 250/250/250 186/186/186 251/251/251
f 101/101/101 250/250/250 251/251/251
f 101/101/101 251/251/251 104/104/104
f 106/106/106 252/252/252 253/253/253
f 106/106/106 253/253/253 107/107/107
f 252/252/252 167/167/167 169/169/169
f 252/252/252 169/169/169 253/253/253
f 253/253/253 169/169/169 173/173/173
f 253/253/253 173/173/173 254/254/254
f 107/107/107 253/253/253 254/254/254
f 107/107/107 254/254/254 110/110/110
f 95/95/95 248/248/248 255/255/255
f 95/95/95 255/255/255 112/112/112
f 248/248/248 247/247/247 256/256/256
f 248/248/248 256/256/256 255/255/255
f 255/255/255 256/256/256 257/257/257
f 255/255/255 257/257/257 258/258/258
f 112/112/112 255/255/255 258/258/258
f 112/112/112 258/258/258 114/114/114
f 204/204/204 224/224/224 259/259/259
f 204/204/204 259/259/259 260/260/260
f 224/224/224 221/221/221 261/261/261
f 224/224/224 261/261/261 259/259/259
f 259/259/259 261/261/261 235/235/235
f 259/259/259 235/235/235 241/241/241
f 260/260/260 259/259/259 241/241/241
f 260/260/260 241/241/241 229/229/229
f 221/221/221 220/220/220 262/262/262
f 221/221/221 262/262/262 261/261/261
f 220/220/220 219/219/219 263/263/263
f 220/220/220 263/263/263 262/262/262
f 262/262/262 263/263/263 239/239/239
f 262/262/262 239/239/239 236/236/236
f 261/261/261 262/262/262 236/236/236
f 261/261/261 236/236/236 235/235/235
f 212/212/212 211/211/211 264/264/264
f 212/212/212 264/264/264 265/265/265
f 211/211/211 206/206/206 266/266/266
f 211/211/211 266/266/266 264/264/264
f 264/264/264 266/266/266 225/225/225
f 264/264/264 225/225/225 232/232/232
f 265/265/265 264/264/264 232/232/232
f 265/265/265 232/232/232 231/231/231
f 206/206/206 205/205/205 267/267/267
f 206/206/206 267/267/267 266/266/266
f 205/205/205 204/204/204 260/260/260
f 205/205/205 260/260/260 267/267/267
f 267/267/267 260/260/260 229/229/229
f 267/267/267 229/229/229 226/226/226
f 266/266/266 267/267/267 226/226/226
f 266/266/266 226/226/226 225/225/225
f 212/212/212 268/268/268 269/269/269
f 212/212/212 269/269/269 210/210/210
f 268/268/268 270/270/270 271/271/271
f 268/268/268 271/271/271 269/269/269
f 269/269/269 271/271/271 272/272/272
f 269/269/269 272/272/272 273/273/273
f 210/210/210 269/269/269 273/273/273
f 210/210/210 273/273/273 207/207/207
f 182/182/182 274/274/274 275/275/275
f 182/182/182 275/275/275 190/190/190
f 274/274/274 276/276/276 277/277/277
f 274/274/274 277/277/277 275/275/275
f 275/275/275 277/277/277 278/278/278
f 275/275/275 278/278/278 279/279/279
f 190/190/190 275/275/275 279/279/279
f 190/190/190 279/279/279 187/187/187
f 178/178/178 280/280/280 281/281/281
f 178/178/178 281/281/281 179/179/179
f 280/280/280 282/282/282 283/283/283
f 280/280/280 283/283/283 281/281/281
f 281/281/281 283/283/283 276/276/276
f 281/281/281 276/276/276 274/274/274
f 179/179/179 281/281/281 274/274/274
f 179/179/179 274/274/274 182/182/182
f 100/100/100 144/144/144 284/284/284
f 100/100/100 284/284/284 249/249/249
f 144/144/144 146/146/146 285/285/285
f 144/144/144 285/285/285 284/284/284
f 284/284/284 285/285/285 282/282/282
f 284/284/284 282/282/282 280/280/280
f 249/249/249 284/284/284 280/280/280
f 249/249/249 280/280/280 178/178/178
f 187/187/187 279/279/279 286/286/286
f 187/187/187 286/286/286 234/234/234
f 279/279/279 278/278/278 287/287/287
f 279/279/279 287/287/287 286/286/286
f 286/286/286 287/287/287 288/288/288
f 286/286/286 288/288/288 289/289/289
f 234/234/234 286/286/286 289/289/289
f 234/234/234 289/289/289 231/231/231
f 231/231/231 289/289/289 290/290/290
f 231/231/231 290/290/290 265/265/265
f 289/289/289 288/288/288 291/291/291
f 289/289/289 291/291/291 290/290/290
f 290/290/290 291/291/291 270/270/270
f 290/290/290 270/270/270 268/268/268
f 265/265/265 290/290/290 268/268/268
f 265/265/265 268/268/268 212/212/212
f 292/292/292 293/293/293 294/294/294
f 292/292/292 294/294/294 295/295/295
f 293/293/293 296/296/296 297/297/297
f 293/293/293 297/297/297 294/294/294
f 294/294/294 297/297/297 106/106/106
f 294/294/294 106/106/106 109/109/109
f 295/295/295 294/294/294 109/109/109
f 295/295/295 109/109/109 14/14/14
f 298/298/298 299/299/299 300/300/300
f 298/298/298 300/300/300 301/301/301
f 299/299/299 302/302/302 303/303/303
f 299/299/299 303/303/303 300/300/300
f 300/300/300 303/303/303 30/30/30
f 300/300/300 30/30/30 105/105/105
f 301/301/301 300/300/300 105/105/105
f 301/301/301 105/105/105 104/104/104
f 302/302/302 304/304/304 305/305/305
f 302/302/302 305/305/305 303/303/303
f 304/304/304 306/306/306 307/307/307
f 304/304/304 307/307/307 305/305/305
f 305/305/305 307/307/307 10/10/10
f 305/305/305 10/10/10 41/41/41
f 303/303/303 305/305/305 41/41/41
f 303/303/303 41/41/41 30/30/30
f 306/306/306 308/308/308 309/309/309
f 306/306/306 309/309/309 307/307/307
f 308/308/308 292/292/292 295/295/295
f 308/308/308 295/295/295 309/309/309
f 309/309/309 295/295/295 14/14/14
f 309/309/309 14/14/14 11/11/11
f 307/307/307 309/309/309 11/11/11
f 307/307/307 11/11/11 10/10/10
f 296/296/296 310/310/310 311/311/311
f 296/296/296 311/311/311 297/297/297
f 310/310/310 312/312/312 313/313/313
f 310/310/310 313/313/313 311/311/311
f 311/311/311 313/313/313 167/167/167
f 311/311/311 167/167/167 252/252/252
f 297/297/297 311/311/311 252/252/252
f 297/297/297 252/252/252 106/106/106
f 314/314/314 315/315/315 316/316/316
f 314/314/314 316/316/316 317/317/317
f 315/315/315 298/298/298 301/301/301
f 315/315/315 301/301/301 316/316/316
f 316/316/316 301/301/301 104/104/104
f 316/316/316 104/104/104 251/251/251
f 317/317/317 316/316/316 251/251/251
f 317/317/317 251/251/251 186/186/186
f 318/318/318 319/319/319 320/320/320
f 318/318/318 320/320/320 321/321/321
f 319/319/319 314/314/314 317/317/317
f 319/319/319 317/317/317 320/320/320
f 320/320/320 317/317/317 186/186/186
f 320/320/320 186/186/186 194/194/194
f 321/321/321 320/320/320 194/194/194
f 321/321/321 194/194/194 162/162/162
f 312/312/312 322/322/322 323/323/323
f 312/312/312 323/323/323 313/313/313
f 322/322/322 318/318/318 321/321/321
f 322/322/322 321/321/321 323/323/323
f 323/323/323 321/321/321 162/162/162
f 323/323/323 162/162/162 165/165/165
f 313/313/313 323/323/323 165/165/165
f 313/313/313 165/165/165 167/167/167
f 116/116/116 115/115/115 324/324/324
f 116/116/116 324/324/324 325/325/325
f 115/115/115 114/114/114 326/326/326
f 115/115/115 326/326/326 324/324/324
f 324/324/324 326/326/326 296/296/296
f 324/324/324 296/296/296 293/293/293
f 325/325/325 324/324/324 293/293/293
f 325/325/325 293/293/293 292/292/292
f 91/91/91 94/94/94 327/327/327
f 91/91/91 327/327/327 328/328/328
f 94/94/94 99/99/99 329/329/329
f 94/94/94 329/329/329 327/327/327
f 327/327/327 329/329/329 302/302/302
f 327/327/327 302/302/302 299/299/299
f 328/328/328 327/327/327 299/299/299
f 328/328/328 299/299/299 298/298/298
f 99/99/99 98/98/98 330/330/330
f 99/99/99 330/330/330 329/329/329
f 98/98/98 97/97/97 331/331/331
f 98/98/98 331/331/331 330/330/330
f 330/330/330 331/331/331 306/306/306
f 330/330/330 306/306/306 304/304/304
f 329/329/329 330/330/330 304/304/304
f 329/329/329 304/304/304 302/302/302
f 97/97/97 117/117/117 332/332/332
f 97/97/97 332/332/332 331/331/331
f 117/117/117 116/116/116 325/325/325
f 117/117/117 325/325/325 332/332/332
f 332/332/332 325/325/325 292/292/292
f 332/332/332 292/292/292 308/308/308
f 331/331/331 332/332/332 308/308/308
f 331/331/331 308/308/308 306/306/306
f 114/114/114 258/258/258 333/333/333
f 114/114/114 333/333/333 326/326/326
f 258/258/258 257/257/257 334/334/334
f 258/258/258 334/334/334 333/333/333
f 333/333/333 334/334/334 312/312/312
f 333/333/333 312/312/312 310/310/310
f 326/326/326 333/333/333 310/310/310
f 326/326/326 310/310/310 296/296/296
f 245/245/245 243/243/243 335/335/335
f 245/245/245 335/335/335 336/336/336
f 243/243/243 91/91/91 328/328/328
f 243/243/243 328/328/328 335/335/335
f 335/335/335 328/328/328 298/298/298
f 335/335/335 298/298/298 315/315/315
f 336/336/336 335/335/335 315/315/315
f 336/336/336 315/315/315 314/314/314
f 247/247/247 246/246/246 337/337/337
f 247/247/247 337/337/337 338/338/338
f 246/246/246 245/245/245 336/336/336
f 246/246/246 336/336/336 337/337/337
f 337/337/337 336/336/336 314/314/314
f 337/337/337 314/314/314 319/319/319
f 338/338/338 337/337/337 319/319/319
f 338/338/338 319/319/319 318/318/318
f 257/257/257 256/256/256 339/339/339
f 257/257/257 339/339/339 334/334/334
f 256/256/256 247/247/247 338/338/338
f 256/256/256 338/338/338 339/339/339
f 339/339/339 338/338/338 318/318/318
f 339/339/339 318/318/318 322/322/322
f 334/334/334 339/339/339 322/322/322
f 334/334/334 322/322/322 312/312/312
