v 1.18291 -0.147989 0.483715
v 1.17326 -0.116739 0.471543
v 1.21143 -0.114077 0.467681
v 1.22187 -0.145442 0.480187
v 1.17075 -0.102316 0.473698
v 1.20843 -0.0996682 0.46976
v 1.23532 -0.0981441 0.470958
v 1.23873 -0.112495 0.469009
v 1.2499 -0.143713 0.482073
v 1.16999 -0.0864573 0.472865
v 1.20735 -0.0830699 0.468111
v 1.20772 -0.0904476 0.470478
v 1.17013 -0.0931596 0.474517
v 1.237 -0.0726923 0.466225
v 1.23475 -0.0881763 0.471424
v 1.24742 -0.0701942 0.473122
v 1.24688 -0.0871738 0.477313
v 1.25062 -0.0698876 0.481595
v 1.25069 -0.0870303 0.485729
v 1.25168 -0.0974512 0.485213
v 1.24772 -0.09755 0.476817
v 1.25132 -0.111829 0.474833
v 1.26277 -0.142781 0.48774
v 1.25531 -0.111652 0.483078
v 1.26675 -0.142289 0.495327
v 1.18012 -0.353547 0.742484
v 1.17233 -0.339441 0.731113
v 1.18452 -0.336669 0.725927
v 1.18664 -0.339803 0.726536
v 1.17129 -0.330039 0.726983
v 1.18492 -0.329865 0.722712
v 1.18736 -0.330229 0.721831
v 1.06839 -0.0807012 0.495909
v 1.07968 -0.0801484 0.49099
v 1.08122 -0.0993666 0.494732
v 1.06931 -0.100302 0.499983
v 1.09267 -0.0815298 0.488407
v 1.09635 -0.098479 0.490645
v 1.09726 -0.109039 0.489895
v 1.08189 -0.110539 0.494219
v 1.06989 -0.111523 0.49955
v 1.08022 -0.155141 0.512119
v 1.07168 -0.125641 0.497948
v 1.08371 -0.124788 0.492578
v 1.0926 -0.154672 0.506806
v 1.09918 -0.123348 0.488151
v 1.10825 -0.153605 0.502025
v 1.12905 -0.0885479 0.481411
v 1.12901 -0.0963907 0.482765
v 1.12959 -0.105912 0.481916
v 1.13173 -0.120288 0.479932
v 1.14097 -0.151081 0.492821
v 1.2035 -0.331812 0.710284
v 1.20067 -0.323679 0.70322
v 1.23146 -0.325695 0.683304
v 1.23411 -0.333954 0.689727
v 1.19257 -0.313999 0.685913
v 1.22352 -0.31556 0.666533
v 1.26546 -0.315662 0.650837
v 1.27308 -0.325655 0.666657
v 1.2755 -0.333719 0.672326
v 1.18501 -0.322966 0.715431
v 1.18746 -0.322789 0.71298
v 1.19013 -0.330657 0.719953
v 1.18081 -0.317301 0.705858
v 1.18043 -0.314395 0.697869
v 1.1685 -0.322184 0.719419
v 1.18222 -0.32272 0.715666
v 1.16075 -0.312144 0.700936
v 1.17562 -0.314227 0.700154
v 1.11294 -0.20666 0.550478
v 1.09956 -0.206334 0.555406
v 1.12871 -0.206317 0.544795
v 1.15437 -0.261095 0.601555
v 1.13899 -0.261093 0.6095
v 1.12403 -0.259654 0.61316
v 1.34975 -0.321579 0.677846
v 1.34722 -0.315035 0.672665
v 1.3615 -0.311119 0.676755
v 1.36407 -0.317225 0.681756
v 1.33919 -0.306791 0.656483
v 1.35335 -0.303272 0.660724
v 1.35702 -0.30096 0.662625
v 1.36513 -0.308765 0.678128
v 1.3677 -0.314688 0.682891
v 1.31529 -0.321056 0.66579
v 1.3177 -0.328404 0.671102
v 1.30755 -0.311897 0.649964
v 1.16127 -0.20491 0.533386
v 1.18627 -0.26076 0.586695
v 1.20341 -0.202779 0.52274
v 1.2284 -0.259695 0.574062
v 1.29934 -0.254453 0.576514
v 1.27233 -0.198313 0.52295
v 1.28557 -0.196797 0.528266
v 1.31295 -0.252193 0.581398
v 1.28948 -0.195647 0.534442
v 1.31676 -0.250365 0.58585
v 1.2433 -0.200419 0.519903
v 1.26923 -0.257289 0.57206
v 1.11175 9.25012e-06 0.471615
v 1.13885 9.04586e-06 0.462106
v 1.13942 -0.0323869 0.465134
v 1.1134 -0.0336289 0.47425
v 1.17091 8.79729e-06 0.452648
v 1.17111 -0.0313067 0.455755
v 1.17123 -0.0561143 0.461544
v 1.13978 -0.057241 0.470732
v 1.11866 -0.0542796 0.476961
v 1.06611 9.63008e-06 0.484542
v 1.07613 9.5542e-06 0.480194
v 1.07723 -0.0447475 0.484137
v 1.06693 -0.0451852 0.488649
v 1.07951 9.51805e-06 0.480164
v 1.08152 -0.0442465 0.483708
v 1.24635 8.09257e-06 0.454276
v 1.24893 8.03073e-06 0.461643
v 1.24854 -0.0391362 0.465763
v 1.24517 -0.0388852 0.458354
v 1.25082 7.97397e-06 0.47012
v 1.25075 -0.039111 0.474261
v 1.19977 8.56174e-06 0.44672
v 1.19973 -0.0304141 0.449747
v 1.22093 8.38164e-06 0.444109
v 1.22017 -0.0302326 0.44709
v 1.21664 -0.049307 0.45173
v 1.19984 -0.0538443 0.455176
v 1.25017 -0.296483 0.619173
v 1.29178 -0.293541 0.617884
v 1.32279 -0.289598 0.62356
v 1.33673 -0.286637 0.628066
v 1.34045 -0.284442 0.631018
v 1.16464 -0.299303 0.668311
v 1.14597 -0.294404 0.66541
v 1.17713 -0.29641 0.652173
v 1.20812 -0.296785 0.633655
v 1.13962 -0.339283 0.742023
v 1.13891 -0.328926 0.736989
v 1.1445 -0.354716 0.758205
v 1.09947 -0.352421 0.772031
v 1.09568 -0.337095 0.755542
v 1.09529 -0.326797 0.750431
v 1.0444 -0.0461852 0.5
v 1.0438 9.78757e-06 0.495934
v 1.04546 -0.0824014 0.507187
v 1.01481 -0.0846685 0.522396
v 1.01432 -0.0475195 0.515462
v 1.01405 9.99543e-06 0.511543
v 1.04616 -0.102199 0.51122
v 1.04674 -0.11329 0.510818
v 1.01578 -0.115637 0.525931
v 1.01522 -0.104723 0.526304
v 1.11498 -0.292033 0.673584
v 1.09557 -0.258136 0.622756
v 1.12895 -0.310274 0.710068
v 1.08675 -0.308233 0.723605
v 1.07471 -0.290075 0.687261
v 1.05817 -0.256825 0.637023
v 1.13638 -0.320739 0.729296
v 1.09317 -0.318674 0.742796
v 1.04854 -0.127136 0.509299
v 1.05641 -0.156032 0.52341
v 1.02462 -0.157271 0.538628
v 1.0176 -0.129124 0.524533
v 1.07384 -0.206124 0.566231
v 1.03963 -0.206078 0.581099
v 1.18292 0.147978 0.483717
v 1.22187 0.145448 0.480189
v 1.21143 0.114092 0.467682
v 1.17326 0.116753 0.471544
v 1.2499 0.143717 0.482074
v 1.23873 0.11251 0.46901
v 1.23532 0.0981603 0.470959
v 1.20844 0.099685 0.469761
v 1.17075 0.102334 0.473698
v 1.17 0.0864747 0.472866
v 1.17014 0.0931771 0.474518
v 1.20772 0.0904643 0.470479
v 1.20735 0.0830867 0.468112
v 1.23475 0.0881925 0.471425
v 1.237 0.0727085 0.466225
v 1.24688 0.0871898 0.477314
v 1.24742 0.0702102 0.473123
v 1.24773 0.097566 0.476818
v 1.25168 0.097467 0.485213
v 1.25069 0.0870462 0.485729
v 1.25062 0.0699034 0.481596
v 1.26277 0.142782 0.487742
v 1.25132 0.111843 0.474834
v 1.26675 0.142287 0.495328
v 1.25531 0.111665 0.483079
v 1.18012 0.351598 0.742486
v 1.18665 0.338489 0.726539
v 1.18452 0.335292 0.72593
v 1.17233 0.337421 0.731116
v 1.18737 0.329031 0.721833
v 1.18492 0.32857 0.722714
v 1.17129 0.328071 0.726986
v 1.06839 0.0807203 0.49591
v 1.06931 0.100321 0.499984
v 1.08122 0.0993855 0.494733
v 1.07969 0.0801674 0.490991
v 1.06989 0.111542 0.499551
v 1.08189 0.110558 0.49422
v 1.09727 0.109057 0.489896
v 1.09635 0.0984977 0.490646
v 1.09267 0.0815485 0.488408
v 1.08022 0.154977 0.51212
v 1.0926 0.15455 0.506807
v 1.08371 0.12479 0.492579
v 1.07169 0.125638 0.497949
v 1.10825 0.153508 0.502026
v 1.09918 0.123352 0.488152
v 1.12901 0.0964088 0.482765
v 1.12905 0.088566 0.481412
v 1.12959 0.10593 0.481917
v 1.14097 0.151028 0.492822
v 1.13173 0.120298 0.479933
v 1.20351 0.330691 0.710286
v 1.23411 0.333085 0.68973
v 1.23147 0.324878 0.683307
v 1.20067 0.322634 0.703223
v 1.2755 0.333706 0.672329
v 1.27309 0.325579 0.66666
v 1.26547 0.315546 0.65084
v 1.22353 0.314838 0.666535
v 1.19257 0.313057 0.685915
v 1.19014 0.32947 0.719956
v 1.18747 0.321678 0.712983
v 1.18502 0.321842 0.715434
v 1.18044 0.313375 0.697872
v 1.18082 0.316244 0.70586
v 1.18222 0.321505 0.715669
v 1.16851 0.320319 0.719422
v 1.17563 0.313113 0.700156
v 1.16075 0.310453 0.700939
v 1.09957 0.205791 0.555408
v 1.11294 0.206251 0.55048
v 1.12403 0.258644 0.613162
v 1.139 0.260358 0.609502
v 1.15438 0.260486 0.601557
v 1.12872 0.205983 0.544797
v 1.34976 0.324773 0.677848
v 1.36408 0.320928 0.681758
v 1.3615 0.314123 0.676758
v 1.34723 0.317661 0.672668
v 1.36771 0.318222 0.682894
v 1.36514 0.311556 0.678131
v 1.35702 0.302985 0.662628
v 1.35336 0.305485 0.660726
v 1.3392 0.308737 0.656485
v 1.31771 0.330058 0.671105
v 1.31529 0.322397 0.665792
v 1.30756 0.312874 0.649967
v 1.18627 0.260363 0.586697
v 1.16128 0.204707 0.533388
v 1.22841 0.259576 0.574064
v 1.20341 0.202713 0.522742
v 1.29934 0.254776 0.576517
v 1.31295 0.252552 0.5814
v 1.28557 0.19682 0.528268
v 1.27234 0.198339 0.522952
v 1.31677 0.250676 0.585852
v 1.28948 0.195657 0.534444
v 1.26924 0.257436 0.572062
v 1.2433 0.200426 0.519905
v 1.1134 0.0336473 0.47425
v 1.13942 0.0324049 0.465135
v 1.11866 0.0542979 0.476962
v 1.13978 0.057259 0.470733
v 1.17123 0.0561318 0.461545
v 1.17111 0.0313243 0.455755
v 1.06693 0.0452044 0.48865
v 1.07723 0.0447665 0.484138
v 1.08152 0.0442655 0.483708
v 1.24517 0.0389013 0.458355
v 1.24854 0.0391522 0.465764
v 1.25075 0.0391269 0.474261
v 1.19973 0.0304311 0.449747
v 1.19984 0.0538613 0.455176
v 1.21664 0.0493238 0.45173
v 1.22017 0.0302493 0.44709
v 1.29178 0.294064 0.617887
v 1.25017 0.296349 0.619176
v 1.3228 0.290665 0.623563
v 1.33673 0.287844 0.628069
v 1.34046 0.285531 0.63102
v 1.14597 0.292996 0.665412
v 1.16465 0.298339 0.668313
v 1.17713 0.295601 0.652176
v 1.20812 0.296206 0.633658
v 1.13892 0.325326 0.736991
v 1.13963 0.335566 0.742026
v 1.0953 0.320989 0.750434
v 1.09568 0.331113 0.755545
v 1.09948 0.346461 0.772034
v 1.14451 0.350936 0.758208
v 1.0444 0.0462047 0.500001
v 1.01432 0.0475395 0.515463
v 1.01481 0.0846884 0.522397
v 1.04546 0.0824209 0.507187
v 1.04617 0.102218 0.511221
v 1.01522 0.104743 0.526305
v 1.01578 0.115657 0.525932
v 1.04674 0.113309 0.510819
v 1.09557 0.256477 0.622758
v 1.11498 0.289555 0.673587
v 1.05818 0.254285 0.637025
v 1.07471 0.286143 0.687264
v 1.08675 0.303186 0.723608
v 1.12895 0.307158 0.710071
v 1.13638 0.317292 0.729299
v 1.09317 0.313085 0.742799
v 1.04855 0.127121 0.5093
v 1.01761 0.129093 0.524534
v 1.02462 0.156882 0.538629
v 1.05641 0.155773 0.523411
v 1.07384 0.205272 0.566232
v 1.03963 0.204806 0.581101
v 1.22689 -0.0612792 0.45585
v 1.23658 -0.0350004 0.449047
v 1.24101 -0.0371487 0.452731
v 1.23081 -0.0654023 0.459722
v 1.23809 8.22027e-06 0.445475
v 1.24261 8.15771e-06 0.448898
v 1.08831 9.42739e-06 0.480387
v 1.09105 -0.0397086 0.483265
v 1.08579 -0.0421704 0.48391
v 1.08312 9.4782e-06 0.480809
v 1.10461 -0.0681282 0.485019
v 1.09967 -0.0727955 0.486249
v 1.13372 -0.0778025 0.47841
v 1.13099 -0.082733 0.48002
v 1.17021 -0.0766904 0.468546
v 1.16998 -0.0814308 0.470789
v 1.20355 -0.0730937 0.461624
v 1.20558 -0.0776981 0.46475
v 1.23658 0.0350168 0.449047
v 1.24101 0.037165 0.452731
v 1.22689 0.0612957 0.455851
v 1.23081 0.0654187 0.459722
v 1.10461 0.0681468 0.485019
v 1.09106 0.0397274 0.483266
v 1.08579 0.0421893 0.48391
v 1.09967 0.0728141 0.486249
v 1.17021 0.0767078 0.468547
v 1.13372 0.0778205 0.478411
v 1.13099 0.0827511 0.480021
v 1.16998 0.0814483 0.47079
v 1.20355 0.0731106 0.461625
v 1.20558 0.077715 0.464751
v 1.23108 -0.0324453 0.447106
v 1.22257 -0.0562576 0.453351
v 1.23237 8.28043e-06 0.443825
v 1.09861 -0.0367198 0.480354
v 1.09613 9.36566e-06 0.477673
v 1.11071 -0.0624402 0.48189
v 1.13707 -0.0710273 0.475474
v 1.17079 -0.0699705 0.465789
v 1.20156 -0.0667522 0.458872
v 1.23108 0.0324618 0.447106
v 1.22257 0.0562743 0.453352
v 1.09861 0.0367385 0.480354
v 1.11071 0.0624586 0.481891
v 1.13707 0.0710453 0.475475
v 1.17079 0.069988 0.465789
v 1.20156 0.0667692 0.458872
vt 0.2454 0.8277
vt 0.4007 0.6436
vt 0.2837 0.7864
vt 0.4011 0.645
vt 0.4832 0.6672
vt 0.3385 0.7604
vt 0.2466 0.8089
vt 0.303 0.6892
vt 0.2368 0.8231
vt 0.3334 0.7558
vt 0.4033 0.6509
vt 0.2763 0.804
vt 0.2828 0.7019
vt 0.2609 0.8252
vt 0.3167 0.7552
vt 0.3749 0.6589
vt 0.1705 0.8344
vt 0.2533 0.8297
vt 0.3334 0.7558
vt 0.2496 0.8202
vt 0.3231 0.7631
vt 0.1846 0.8324
vt 0.3722 0.6533
vt 0.2881 0.7082
vt 0.2463 0.8261
vt 0.2474 0.8238
vt 0.3167 0.7552
vt 0.1846 0.8324
vt 0.1714 0.7999
vt 0.2559 0.813
vt 0.2606 0.7218
vt 0.2633 0.8162
vt 0.2463 0.8261
vt 0.3722 0.6533
vt 0.1755 0.8262
vt 0.1681 0.8046
vt 0.2697 0.8188
vt 0.2579 0.7263
vt 0.4849 0.6976
vt 0.1681 0.8046
vt 0.2406 0.8161
vt 0.2454 0.8277
vt 0.2839 0.7029
vt 0.1794 0.8198
vt 0.1714 0.7999
vt 0.3069 0.6945
vt 0.2374 0.8216
vt 0.4011 0.645
vt 0.1621 0.8125
vt 0.262 0.7222
vt 0.1549 0.8239
vt 0.3717 0.652
vt 0.4771 0.6986
vt 0.2589 0.7271
vt 0.1551 0.8247
vt 0.2662 0.7272
vt 0.4627 0.6881
vt 0.2839 0.7029
vt 0.4653 0.701
vt 0.2839 0.7029
vt 0.4759 0.6854
vt 0.2596 0.723
vt 0.1627 0.8138
vt 0.2576 0.7262
vt 0.4759 0.6854
vt 0.2839 0.7029
vt 0.2606 0.7218
vt 0.1621 0.8131
vt 0.4627 0.6881
vt 0.2691 0.7145
vt 0.1621 0.8131
vt 0.4735 0.6681
vt 0.4721 0.6492
vt 0.425 0.6994
vt 0.4817 0.6482
vt 0.384 0.714
vt 0.2567 0.8234
vt 0.2596 0.723
vt 0.1627 0.8138
vt 0.2576 0.7262
vt 0.4497 0.6735
vt 0.2736 0.7196
vt 0.4771 0.6986
vt 0.2577 0.7258
vt 0.2496 0.8202
vt 0.1713 0.8061
vt 0.2596 0.723
vt 0.2881 0.7082
vt 0.1681 0.8046
vt 0.4735 0.6681
vt 0.4706 0.6345
vt 0.4038 0.7064
vt 0.3904 0.7247
vt 0.4805 0.6332
vt 0.1621 0.8125
vt 0.4564 0.6521
vt 0.4721 0.6492
vt 0.409 0.7179
vt 0.1621 0.8131
vt 0.4548 0.6376
vt 0.3271 0.7655
vt 0.262 0.7222
vt 0.1681 0.8046
vt 0.2805 0.8058
vt 0.2573 0.8317
vt 0.3749 0.6589
vt 0.3309 0.763
vt 0.2825 0.8067
vt 0.2463 0.8261
vt 0.4303 0.7182
vt 0.1708 0.7994
vt 0.1676 0.8043
vt 0.1714 0.7999
vt 0.2521 0.8336
vt 0.3457 0.6631
vt 0.3935 0.733
vt 0.3136 0.7585
vt 0.2471 0.8515
vt 0.3451 0.6618
vt 0.4113 0.727
vt 0.3457 0.6631
vt 0.3377 0.7589
vt 0.2487 0.8519
vt 0.3266 0.7603
vt 0.2962 0.792
vt 0.2521 0.8336
vt 0.2979 0.7929
vt 0.2691 0.7145
vt 0.2556 0.8357
vt 0.303 0.6892
vt 0.2521 0.8336
vt 0.2828 0.7019
vt 0.2309 0.8412
vt 0.4706 0.6345
vt 0.2663 0.715
vt 0.2364 0.8448
vt 0.2433 0.8408
vt 0.2736 0.7196
vt 0.2881 0.7082
vt 0.3096 0.7419
vt 0.2752 0.7387
vt 0.3233 0.7497
vt 0.2433 0.8408
vt 0.2957 0.7474
vt 0.2831 0.7315
vt 0.3334 0.7558
vt 0.2831 0.7315
vt 0.2545 0.8272
vt 0.2442 0.8361
vt 0.31 0.7362
vt 0.3505 0.7324
vt 0.2872 0.7541
vt 0.2406 0.833
vt 0.2975 0.7202
vt 0.3158 0.7065
vt 0.3353 0.7418
vt 0.2975 0.7202
vt 0.3449 0.749
vt 0.2387 0.8381
vt 0.2752 0.7387
vt 0.2406 0.833
vt 0.3277 0.7224
vt 0.3233 0.7497
vt 0.2713 0.743
vt 0.4892 0.6669
vt 0.2881 0.7082
vt 0.409 0.7179
vt 0.2828 0.7577
vt 0.4934 0.6473
vt 0.2713 0.743
vt 0.4289 0.7116
vt 0.2678 0.7464
vt 0.4805 0.6332
vt 0.3749 0.6589
vt 0.3334 0.7558
vt 0.3377 0.7589
vt 0.1883 0.8021
vt 0.4873 0.6325
vt 0.2591 0.7359
vt 0.3813 0.6714
vt 0.3266 0.7603
vt 0.4892 0.6669
vt 0.2525 0.7411
vt 0.3899 0.6879
vt 0.4698 0.6279
vt 0.175 0.8024
vt 0.3931 0.7304
vt 0.2794 0.7604
vt 0.4817 0.6482
vt 0.4111 0.7241
vt 0.2732 0.7645
vt 0.4697 0.6264
vt 0.2591 0.7359
vt 0.4946 0.7036
vt 0.3813 0.6714
vt 0.4548 0.6376
vt 0.175 0.8024
vt 0.4706 0.6345
vt 0.4111 0.7241
vt 0.2554 0.7312
vt 0.4947 0.6966
vt 0.2496 0.7358
vt 0.48 0.6265
vt 0.2627 0.732
vt 0.3592 0.7408
vt 0.1968 0.7951
vt 0.3309 0.763
vt 0.409 0.7179
vt 0.2543 0.7299
vt 0.4904 0.697
vt 0.2612 0.7512
vt 0.4303 0.7182
vt 0.2794 0.7604
vt 0.485 0.7048
vt 0.2554 0.7312
vt 0.1769 0.7995
vt 0.2678 0.7464
vt 0.4902 0.7078
vt 0.3628 0.7452
vt 0.1883 0.8021
vt 0.4904 0.7041
vt 0.1799 0.7953
vt 0.349 0.7527
vt 0.1997 0.8113
vt 0.3635 0.7472
vt 0.2713 0.743
vt 0.3498 0.7544
vt 0.1851 0.8059
vt 0.485 0.7048
vt 0.1833 0.8084
vt 0.2591 0.7359
vt 0.349 0.7527
vt 0.4847 0.7085
vt 0.1833 0.8084
vt 0.2525 0.7411
vt 0.3498 0.7544
vt 0.2197 0.7576
vt 0.4927 0.6319
vt 0.4769 0.7097
vt 0.2181 0.7572
vt 0.4771 0.6986
vt 0.3271 0.7655
vt 0.4537 0.6312
vt 0.1942 0.8168
vt 0.4925 0.6249
vt 0.1942 0.8168
vt 0.4698 0.6279
vt 0.1833 0.8084
vt 0.3628 0.7452
vt 0.2612 0.7512
vt 0.3385 0.7604
vt 0.196 0.8145
vt 0.4869 0.6256
vt 0.2678 0.7464
vt 0.3244 0.7676
vt 0.4873 0.6325
vt 0.4772 0.7058
vt 0.3204 0.7653
vt 0.485 0.7048
vt 0.3195 0.7718
vt 0.4925 0.6249
vt 0.3231 0.7631
vt 0.4849 0.6976
vt 0.3244 0.7676
vt 0.3154 0.7696
vt 0.4924 0.6233
vt 0.2585 0.7963
vt 0.4869 0.6241
vt 0.4111 0.7241
vt 0.2685 0.8006
vt 0.3316 0.7643
vt 0.2554 0.7312
vt 0.2576 0.7262
vt 0.4869 0.6256
vt 0.2511 0.7332
vt 0.2548 0.73
vt 0.4869 0.6256
vt 0.2554 0.7312
vt 0.4869 0.6241
vt 0.2837 0.7864
vt 0.3904 0.7247
vt 0.2728 0.7817
vt 0.4892 0.6669
vt 0.2678 0.7464
vt 0.2086 0.8051
vt 0.49 0.6842
vt 0.2627 0.732
vt 0.3204 0.7653
vt 0.49 0.6842
vt 0.2591 0.7359
vt 0.4892 0.6669
vt 0.2235 0.7617
vt 0.4843 0.6846
vt 0.2633 0.8162
vt 0.3111 0.7611
vt 0.4653 0.712
vt 0.3231 0.7631
vt 0.3267 0.6807
vt 0.3111 0.7611
vt 0.2567 0.8234
vt 0.204 0.7756
vt 0.335 0.6926
vt 0.3062 0.7655
vt 0.4772 0.7058
vt 0.188 0.7877
vt 0.2131 0.7837
vt 0.3564 0.6805
vt 0.2608 0.83
vt 0.3111 0.7611
vt 0.2609 0.8252
vt 0.1968 0.7951
vt 0.3069 0.6945
vt 0.3136 0.7585
vt 0.3158 0.7065
vt 0.2986 0.7556
vt 0.2674 0.8179
vt 0.1968 0.7951
vt 0.3462 0.7084
vt 0.3136 0.7585
vt 0.3231 0.7631
vt 0.2324 0.7707
vt 0.3564 0.6805
vt 0.2763 0.804
vt 0.2674 0.8179
vt 0.2633 0.8162
vt 0.2631 0.8262
vt 0.2131 0.7837
vt 0.335 0.6926
vt 0.2674 0.8179
vt 0.3309 0.763
vt 0.2805 0.8058
vt 0.2251 0.7946
vt 0.3462 0.7084
vt 0.2533 0.8297
vt 0.2805 0.8058
vt 0.2445 0.7825
vt 0.3665 0.6965
vt 0.2921 0.7901
vt 0.3451 0.6618
vt 0.3271 0.7655
vt 0.2674 0.8179
vt 0.3279 0.7666
vt 0.2763 0.804
vt 0.3224 0.6741
vt 0.2697 0.8188
vt 0.3931 0.7304
vt 0.2805 0.8058
vt 0.3231 0.6754
vt 0.2825 0.8067
vt 0.2962 0.792
vt 0.3457 0.6631
vt 0.3224 0.6741
vt 0.2585 0.7963
vt 0.2466 0.8089
vt 0.3022 0.688
vt 0.2559 0.813
vt 0.2685 0.8006
vt 0.303 0.6892
vt 0.2685 0.8006
vt 0.3231 0.6754
vt 0.3231 0.6754
vt 0.2559 0.813
vt 0.303 0.6892
vt 0.2633 0.8162
vt 0.3069 0.6945
vt 0.2763 0.804
vt 0.3267 0.6807
vn -0.09888 -0.503 -0.8586
vn -0.1389 -0.144 -0.9798
vn -0.0174 -0.1193 -0.9927
vn 0.02286 -0.4741 -0.8801
vn -0.1585 0.09476 -0.9828
vn -0.04001 0.1022 -0.994
vn 0.2221 0.1276 -0.9666
vn 0.2327 -0.05795 -0.9708
vn 0.2512 -0.3995 -0.8816
vn -0.1408 -0.3027 -0.9426
vn 0.006745 -0.4064 -0.9137
vn -0.02887 -0.1162 -0.9928
vn -0.1498 -0.08249 -0.9853
vn 0.4213 -0.3642 -0.8306
vn 0.2605 -0.1252 -0.9573
vn 0.8097 -0.1899 -0.5553
vn 0.7465 -0.05802 -0.6628
vn 0.9323 -0.0495 -0.3582
vn 0.9222 0.001984 -0.3867
vn 0.9122 0.09742 -0.398
vn 0.6876 0.1811 -0.7031
vn 0.6607 0.08444 -0.7459
vn 0.6778 -0.1574 -0.7182
vn 0.9035 0.1193 -0.4117
vn 0.9016 0.02603 -0.4317
vn -0.2276 -0.7884 -0.5714
vn -0.2651 -0.5659 -0.7807
vn -0.2979 -0.4739 -0.8286
vn -0.3359 -0.5716 -0.7486
vn -0.2532 -0.573 -0.7795
vn -0.2681 -0.5705 -0.7763
vn -0.405 -0.5394 -0.7383
vn -0.4032 -0.1996 -0.893
vn -0.2941 -0.1968 -0.9353
vn -0.3258 -0.08805 -0.9413
vn -0.4139 -0.09522 -0.9053
vn -0.1892 -0.1617 -0.9685
vn -0.2412 -0.06681 -0.9681
vn -0.2597 0.06552 -0.9634
vn -0.3434 0.04523 -0.9381
vn -0.4242 0.03043 -0.905
vn -0.3141 -0.5858 -0.7471
vn -0.3996 -0.2273 -0.888
vn -0.3207 -0.2132 -0.9228
vn -0.2568 -0.5783 -0.7743
vn -0.2445 -0.1924 -0.9503
vn -0.2047 -0.561 -0.8021
vn -0.2054 -0.1784 -0.9623
vn -0.2139 -0.05899 -0.975
vn -0.2249 0.08234 -0.9709
vn -0.2092 -0.1692 -0.9631
vn -0.1733 -0.5335 -0.8278
vn -0.5098 -0.5319 -0.6761
vn -0.386 -0.7856 -0.4834
vn -0.3055 -0.7784 -0.5484
vn -0.4124 -0.5261 -0.7437
vn -0.2785 -0.8917 -0.3568
vn -0.2194 -0.8845 -0.4117
vn -0.05335 -0.8673 -0.4948
vn -0.08542 -0.757 -0.6478
vn -0.1451 -0.5023 -0.8524
vn -0.3069 -0.7795 -0.546
vn -0.4155 -0.7885 -0.4534
vn -0.5148 -0.5287 -0.6749
vn -0.2026 -0.8913 -0.4057
vn -0.2574 -0.902 -0.3465
vn -0.1912 -0.8143 -0.5481
vn -0.1473 -0.8137 -0.5622
vn -0.1643 -0.9019 -0.3994
vn -0.169 -0.9066 -0.3867
vn -0.24 -0.7193 -0.6519
vn -0.2608 -0.721 -0.642
vn -0.2239 -0.7057 -0.6722
vn -0.2622 -0.7971 -0.5439
vn -0.2372 -0.8135 -0.531
vn -0.2151 -0.8084 -0.5479
vn 0.3074 -0.3855 -0.8699
vn 0.3239 -0.6452 -0.6919
vn 0.4846 -0.5345 -0.6924
vn 0.4076 -0.3238 -0.8538
vn 0.2986 -0.7743 -0.5579
vn 0.51 -0.6337 -0.5816
vn 0.8201 -0.2723 -0.5033
vn 0.7888 -0.2453 -0.5635
vn 0.7482 -0.1687 -0.6416
vn 0.1712 -0.6979 -0.6954
vn 0.1557 -0.4392 -0.8848
vn 0.1505 -0.824 -0.5462
vn -0.1847 -0.6802 -0.7094
vn -0.2081 -0.7745 -0.5973
vn -0.0864 -0.6497 -0.7553
vn -0.08023 -0.7451 -0.6621
vn 0.2666 -0.6467 -0.7146
vn 0.2554 -0.5511 -0.7944
vn 0.6503 -0.3018 -0.6972
vn 0.5999 -0.4301 -0.6746
vn 0.8858 -0.0448 -0.4618
vn 0.8603 -0.1263 -0.4939
vn 0.05463 -0.6172 -0.7849
vn 0.08765 -0.7071 -0.7017
vn -0.3464 0 -0.9381
vn -0.3053 0 -0.9522
vn -0.2969 -0.1531 -0.9425
vn -0.3368 -0.1479 -0.9299
vn -0.2416 0 -0.9703
vn -0.2364 -0.1586 -0.9586
vn -0.226 -0.2509 -0.9412
vn -0.2842 -0.2402 -0.9282
vn -0.3188 -0.2261 -0.9204
vn -0.4242 0 -0.9055
vn -0.2304 0 -0.9731
vn -0.2589 -0.143 -0.9552
vn -0.4152 -0.1427 -0.8984
vn 0.03259 0 -0.9995
vn -0.05536 -0.1215 -0.991
vn 0.8701 0 -0.4929
vn 0.9509 0 -0.3095
vn 0.9046 -0.1171 -0.4099
vn 0.7681 -0.2012 -0.6079
vn 0.9542 0 -0.2991
vn 0.9469 -0.03311 -0.3197
vn -0.1632 0 -0.9866
vn -0.163 -0.1585 -0.9738
vn -0.07254 0 -0.9973
vn -0.07523 -0.1587 -0.9844
vn -0.08881 -0.2495 -0.9643
vn -0.1548 -0.2587 -0.9535
vn -0.06406 -0.8333 -0.5491
vn 0.1215 -0.7929 -0.597
vn 0.2809 -0.7388 -0.6126
vn 0.5488 -0.5606 -0.62
vn 0.8353 -0.2205 -0.5036
vn -0.221 -0.8926 -0.393
vn -0.1767 -0.8787 -0.4434
vn -0.2705 -0.8679 -0.4165
vn -0.211 -0.8563 -0.4713
vn -0.2656 -0.5906 -0.762
vn -0.2649 -0.5749 -0.7741
vn -0.2043 -0.819 -0.5361
vn -0.7826 -0.5739 -0.2412
vn -0.8104 -0.4245 -0.4038
vn -0.8086 -0.4082 -0.4235
vn -0.4431 -0.1348 -0.8862
vn -0.455 0 -0.8905
vn -0.4256 -0.1899 -0.8847
vn -0.8931 -0.1171 -0.4342
vn -0.8913 -0.0853 -0.4454
vn -0.8907 0 -0.4546
vn -0.4313 -0.09229 -0.8974
vn -0.44 0.02493 -0.8976
vn -0.8979 0.01425 -0.4399
vn -0.8907 -0.0549 -0.4512
vn -0.1888 -0.8782 -0.4395
vn -0.2311 -0.8056 -0.5455
vn -0.1717 -0.8987 -0.4035
vn -0.7792 -0.611 -0.1394
vn -0.7801 -0.6025 -0.1685
vn -0.799 -0.551 -0.2408
vn -0.208 -0.8085 -0.5505
vn -0.7764 -0.5731 -0.2621
vn -0.4164 -0.232 -0.8791
vn -0.329 -0.5866 -0.74
vn -0.8326 -0.4039 -0.3789
vn -0.8502 -0.1605 -0.5014
vn -0.2742 -0.7196 -0.6379
vn -0.8209 -0.4866 -0.2988
vn -0.09934 0.5036 -0.8582
vn 0.02261 0.4743 -0.88
vn -0.0174 0.1194 -0.9927
vn -0.139 0.1442 -0.9797
vn 0.2512 0.3995 -0.8816
vn 0.2327 0.05799 -0.9708
vn 0.2221 -0.1276 -0.9666
vn -0.04001 -0.1022 -0.994
vn -0.1585 -0.09476 -0.9828
vn -0.1408 0.3027 -0.9426
vn -0.1498 0.08249 -0.9853
vn -0.02887 0.1162 -0.9928
vn 0.006745 0.4064 -0.9137
vn 0.2605 0.1252 -0.9573
vn 0.4213 0.3642 -0.8305
vn 0.7465 0.05802 -0.6628
vn 0.8097 0.1899 -0.5553
vn 0.6876 -0.1812 -0.7031
vn 0.9122 -0.09742 -0.3981
vn 0.9222 -0.002014 -0.3867
vn 0.9323 0.0495 -0.3582
vn 0.6778 0.1574 -0.7182
vn 0.6607 -0.08444 -0.7459
vn 0.9016 -0.02606 -0.4317
vn 0.9034 -0.1193 -0.4117
vn -0.2551 0.7908 -0.5563
vn -0.3532 0.5742 -0.7385
vn -0.3175 0.4767 -0.8197
vn -0.2903 0.568 -0.7701
vn -0.4149 0.5401 -0.7322
vn -0.2899 0.573 -0.7665
vn -0.2783 0.5768 -0.768
vn -0.4032 0.1996 -0.893
vn -0.4139 0.09525 -0.9053
vn -0.3258 0.08808 -0.9413
vn -0.294 0.1968 -0.9353
vn -0.4242 -0.03046 -0.905
vn -0.3434 -0.04523 -0.9381
vn -0.2597 -0.06555 -0.9634
vn -0.2412 0.06681 -0.9681
vn -0.1892 0.1617 -0.9685
vn -0.3159 0.5885 -0.7443
vn -0.2579 0.5804 -0.7724
vn -0.3208 0.2141 -0.9226
vn -0.3999 0.2286 -0.8876
vn -0.2054 0.5625 -0.8009
vn -0.2445 0.193 -0.9502
vn -0.2139 0.05899 -0.975
vn -0.2054 0.1784 -0.9623
vn -0.2249 -0.08234 -0.9709
vn -0.174 0.5346 -0.827
vn -0.2093 0.1697 -0.963
vn -0.5114 0.5342 -0.6731
vn -0.418 0.5272 -0.7398
vn -0.3123 0.7797 -0.5426
vn -0.3877 0.7878 -0.4786
vn -0.1593 0.5006 -0.8509
vn -0.1037 0.757 -0.6451
vn -0.06891 0.8683 -0.4911
vn -0.2261 0.8854 -0.406
vn -0.2814 0.8927 -0.3519
vn -0.5159 0.5314 -0.6718
vn -0.4155 0.7909 -0.4491
vn -0.3193 0.7811 -0.5366
vn -0.2643 0.9024 -0.3403
vn -0.2163 0.8928 -0.3952
vn -0.1772 0.8184 -0.5466
vn -0.2246 0.8186 -0.5286
vn -0.1935 0.9076 -0.3725
vn -0.1964 0.9044 -0.3787
vn -0.2672 0.7241 -0.6359
vn -0.2442 0.7216 -0.6478
vn -0.2296 0.8116 -0.5372
vn -0.2462 0.8153 -0.524
vn -0.2658 0.7985 -0.5401
vn -0.2261 0.7074 -0.6696
vn 0.2913 0.3716 -0.8815
vn 0.3993 0.3032 -0.8652
vn 0.4832 0.5071 -0.7137
vn 0.3058 0.6326 -0.7115
vn 0.7487 0.1572 -0.6439
vn 0.7912 0.2288 -0.5671
vn 0.8237 0.2539 -0.5069
vn 0.5109 0.6175 -0.5981
vn 0.2825 0.7701 -0.5719
vn 0.1366 0.4328 -0.8911
vn 0.147 0.6945 -0.7042
vn 0.1291 0.8247 -0.5506
vn -0.2119 0.7758 -0.5942
vn -0.1867 0.6815 -0.7076
vn -0.08512 0.746 -0.6605
vn -0.08823 0.6504 -0.7544
vn 0.2632 0.6449 -0.7175
vn 0.5996 0.4264 -0.6771
vn 0.6503 0.3009 -0.6975
vn 0.2548 0.5506 -0.7949
vn 0.8611 0.1227 -0.4934
vn 0.8859 0.04434 -0.4617
vn 0.0824 0.707 -0.7024
vn 0.05325 0.6172 -0.7849
vn -0.3367 0.148 -0.9299
vn -0.2969 0.1532 -0.9425
vn -0.3188 0.2261 -0.9204
vn -0.2842 0.2402 -0.9282
vn -0.226 0.2509 -0.9412
vn -0.2364 0.1586 -0.9586
vn -0.4152 0.1427 -0.8984
vn -0.2589 0.143 -0.9552
vn -0.05536 0.1215 -0.991
vn 0.7681 0.2011 -0.6079
vn 0.9046 0.117 -0.4099
vn 0.9469 0.03308 -0.3197
vn -0.163 0.1585 -0.9738
vn -0.1548 0.2587 -0.9535
vn -0.08881 0.2495 -0.9643
vn -0.07523 0.1587 -0.9844
vn 0.1086 0.7932 -0.5991
vn -0.07398 0.8343 -0.5464
vn 0.2713 0.736 -0.6201
vn 0.5484 0.5521 -0.6279
vn 0.8377 0.2091 -0.5046
vn -0.2005 0.8816 -0.4274
vn -0.2357 0.8931 -0.383
vn -0.2744 0.8689 -0.412
vn -0.2165 0.8574 -0.4669
vn -0.2903 0.5797 -0.7613
vn -0.2921 0.5916 -0.7514
vn -0.8166 0.4091 -0.4071
vn -0.8192 0.417 -0.3936
vn -0.7939 0.5621 -0.2318
vn -0.2382 0.8179 -0.5238
vn -0.4431 0.1348 -0.8862
vn -0.8913 0.0853 -0.4454
vn -0.8931 0.1171 -0.4342
vn -0.4256 0.1899 -0.8847
vn -0.4313 0.09232 -0.8974
vn -0.8907 0.0549 -0.4512
vn -0.8979 -0.01428 -0.4399
vn -0.44 -0.02496 -0.8976
vn -0.2456 0.8108 -0.5312
vn -0.213 0.8832 -0.4177
vn -0.8019 0.5519 -0.2289
vn -0.7856 0.6001 -0.1505
vn -0.7872 0.6053 -0.1176
vn -0.2035 0.9034 -0.3773
vn -0.2409 0.8143 -0.5281
vn -0.7866 0.5694 -0.239
vn -0.4166 0.2338 -0.8785
vn -0.8499 0.162 -0.5014
vn -0.8325 0.4069 -0.376
vn -0.3305 0.5906 -0.7362
vn -0.2806 0.7243 -0.6298
vn -0.8219 0.489 -0.292
vn 0.2124 -0.4398 -0.8726
vn 0.4028 -0.2265 -0.8868
vn 0.6267 -0.2361 -0.7426
vn 0.3374 -0.4729 -0.8139
vn 0.4507 0 -0.8926
vn 0.7099 0 -0.7042
vn -0.2031 0 -0.9792
vn -0.1877 -0.119 -0.975
vn -0.01584 -0.09622 -0.9952
vn 0.02548 0 -0.9997
vn -0.2171 -0.1446 -0.9654
vn -0.1446 -0.1115 -0.9832
vn -0.251 -0.2403 -0.9377
vn -0.2188 -0.1846 -0.9581
vn -0.1827 -0.3875 -0.9036
vn -0.1555 -0.3885 -0.9082
vn -0.03943 -0.4886 -0.8716
vn 0.01474 -0.5331 -0.8459
vn 0.4028 0.2265 -0.8868
vn 0.6267 0.2361 -0.7426
vn 0.2124 0.4398 -0.8726
vn 0.3374 0.4729 -0.8139
vn -0.2171 0.1446 -0.9654
vn -0.1877 0.119 -0.975
vn -0.01584 0.09622 -0.9952
vn -0.1446 0.1115 -0.9832
vn -0.1827 0.3875 -0.9036
vn -0.251 0.2403 -0.9377
vn -0.2188 0.1846 -0.9581
vn -0.1554 0.3885 -0.9082
vn -0.03943 0.4886 -0.8716
vn 0.01474 0.5331 -0.8459
vn 0.1193 -0.1838 -0.9757
vn 0.02908 -0.3296 -0.9436
vn 0.1343 0 -0.9909
vn -0.3289 -0.1441 -0.9333
vn -0.3453 0 -0.9385
vn -0.3039 -0.2199 -0.9269
vn -0.2737 -0.2734 -0.9221
vn -0.2092 -0.3222 -0.9232
vn -0.1132 -0.36 -0.926
vn 0.1193 0.1838 -0.9757
vn 0.02908 0.3296 -0.9436
vn -0.3289 0.1441 -0.9333
vn -0.3039 0.2199 -0.9269
vn -0.2737 0.2735 -0.9221
vn -0.2092 0.3222 -0.9232
vn -0.1132 0.36 -0.926
f 1/1/1 2/2/2 3/3/3
f 1/1/1 3/3/3 4/4/4
f 2/2/2 5/5/5 6/6/6
f 2/2/2 6/6/6 3/3/3
f 3/3/3 6/6/6 7/7/7
f 3/3/3 7/7/7 8/8/8
f 4/4/4 3/3/3 8/8/8
f 4/4/4 8/8/8 9/9/9
f 10/10/10 11/11/11 12/12/12
f 10/10/10 12/12/12 13/13/13
f 11/11/11 14/14/14 15/15/15
f 11/11/11 15/15/15 12/12/12
f 12/12/12 15/15/15 7/7/7
f 12/12/12 7/7/7 6/6/6
f 13/13/13 12/12/12 6/6/6
f 13/13/13 6/6/6 5/5/5
f 14/14/14 16/16/16 17/17/17
f 14/14/14 17/17/17 15/15/15
f 16/16/16 18/18/18 19/19/19
f 16/16/16 19/19/19 17/17/17
f 17/17/17 19/19/19 20/20/20
f 17/17/17 20/20/20 21/21/21
f 15/15/15 17/17/17 21/21/21
f 15/15/15 21/21/21 7/7/7
f 9/9/9 8/8/8 22/22/22
f 9/9/9 22/22/22 23/23/23
f 8/8/8 7/7/7 21/21/21
f 8/8/8 21/21/21 22/22/22
f 22/22/22 21/21/21 20/20/20
f 22/22/22 20/20/20 24/24/24
f 23/23/23 22/22/22 24/24/24
f 23/23/23 24/24/24 25/25/25
f 26/26/26 27/27/27 28/28/28
f 26/26/26 28/28/28 29/29/29
f 30/30/30 31/31/31 28/28/28
f 30/30/30 28/28/28 27/27/27
f 32/32/32 29/29/29 28/28/28
f 32/32/32 28/28/28 31/31/31
f 33/33/33 34/34/34 35/35/35
f 33/33/33 35/35/35 36/36/36
f 34/34/34 37/37/37 38/38/38
f 34/34/34 38/38/38 35/35/35
f 35/35/35 38/38/38 39/39/39
f 35/35/35 39/39/39 40/40/40
f 36/36/36 35/35/35 40/40/40
f 36/36/36 40/40/40 41/41/41
f 42/42/42 43/43/43 44/44/44
f 42/42/42 44/44/44 45/45/45
f 43/43/43 41/41/41 40/40/40
f 43/43/43 40/40/40 44/44/44
f 44/44/44 40/40/40 39/39/39
f 44/44/44 39/39/39 46/46/46
f 45/45/45 44/44/44 46/46/46
f 45/45/45 46/46/46 47/47/47
f 37/37/37 48/48/48 49/49/49
f 37/37/37 49/49/49 38/38/38
f 48/48/48 10/10/10 13/13/13
f 48/48/48 13/13/13 49/49/49
f 49/49/49 13/13/13 5/5/5
f 49/49/49 5/5/5 50/50/50
f 38/38/38 49/49/49 50/50/50
f 38/38/38 50/50/50 39/39/39
f 47/47/47 46/46/46 51/51/51
f 47/47/47 51/51/51 52/52/52
f 46/46/46 39/39/39 50/50/50
f 46/46/46 50/50/50 51/51/51
f 51/51/51 50/50/50 5/5/5
f 51/51/51 5/5/5 2/2/2
f 52/52/52 51/51/51 2/2/2
f 52/52/52 2/2/2 1/1/1
f 53/53/53 54/54/54 55/55/55
f 53/53/53 55/55/55 56/56/56
f 54/54/54 57/57/57 58/58/58
f 54/54/54 58/58/58 55/55/55
f 55/55/55 58/58/58 59/59/59
f 55/55/55 59/59/59 60/60/60
f 56/56/56 55/55/55 60/60/60
f 56/56/56 60/60/60 61/61/61
f 32/32/32 62/62/62 63/63/63
f 32/32/32 63/63/63 64/64/64
f 62/62/62 65/65/65 66/66/66
f 62/62/62 66/66/66 63/63/63
f 63/63/63 66/66/66 57/57/57
f 63/63/63 57/57/57 54/54/54
f 64/64/64 63/63/63 54/54/54
f 64/64/64 54/54/54 53/53/53
f 30/30/30 67/67/67 68/68/68
f 30/30/30 68/68/68 31/31/31
f 67/67/67 69/69/69 70/70/70
f 67/67/67 70/70/70 68/68/68
f 68/68/68 70/70/70 65/65/65
f 68/68/68 65/65/65 62/62/62
f 31/31/31 68/68/68 62/62/62
f 31/31/31 62/62/62 32/32/32
f 42/42/42 45/45/45 71/71/71
f 42/42/42 71/71/71 72/72/72
f 45/45/45 47/47/47 73/73/73
f 45/45/45 73/73/73 71/71/71
f 71/71/71 73/73/73 74/74/74
f 71/71/71 74/74/74 75/75/75
f 72/72/72 71/71/71 75/75/75
f 72/72/72 75/75/75 76/76/76
f 77/77/77 78/78/78 79/79/79
f 77/77/77 79/79/79 80/80/80
f 78/78/78 81/81/81 82/82/82
f 78/78/78 82/82/82 79/79/79
f 79/79/79 82/82/82 83/83/83
f 79/79/79 83/83/83 84/84/84
f 80/80/80 79/79/79 84/84/84
f 80/80/80 84/84/84 85/85/85
f 61/61/61 60/60/60 86/86/86
f 61/61/61 86/86/86 87/87/87
f 60/60/60 59/59/59 88/88/88
f 60/60/60 88/88/88 86/86/86
f 86/86/86 88/88/88 81/81/81
f 86/86/86 81/81/81 78/78/78
f 87/87/87 86/86/86 78/78/78
f 87/87/87 78/78/78 77/77/77
f 74/74/74 73/73/73 89/89/89
f 74/74/74 89/89/89 90/90/90
f 73/73/73 47/47/47 52/52/52
f 73/73/73 52/52/52 89/89/89
f 89/89/89 52/52/52 1/1/1
f 89/89/89 1/1/1 91/91/91
f 90/90/90 89/89/89 91/91/91
f 90/90/90 91/91/91 92/92/92
f 93/93/93 94/94/94 95/95/95
f 93/93/93 95/95/95 96/96/96
f 94/94/94 9/9/9 23/23/23
f 94/94/94 23/23/23 95/95/95
f 95/95/95 23/23/23 25/25/25
f 95/95/95 25/25/25 97/97/97
f 96/96/96 95/95/95 97/97/97
f 96/96/96 97/97/97 98/98/98
f 92/92/92 91/91/91 99/99/99
f 92/92/92 99/99/99 100/100/100
f 91/91/91 1/1/1 4/4/4
f 91/91/91 4/4/4 99/99/99
f 99/99/99 4/4/4 9/9/9
f 99/99/99 9/9/9 94/94/94
f 100/100/100 99/99/99 94/94/94
f 100/100/100 94/94/94 93/93/93
f 101/101/101 102/102/102 103/103/103
f 101/101/101 103/103/103 104/104/104
f 102/102/102 105/105/105 106/106/106
f 102/102/102 106/106/106 103/103/103
f 103/103/103 106/106/106 107/107/107
f 103/103/103 107/107/107 108/108/108
f 104/104/104 103/103/103 108/108/108
f 104/104/104 108/108/108 109/109/109
f 110/110/110 111/111/111 112/112/112
f 110/110/110 112/112/112 113/113/113
f 111/111/111 114/114/114 115/115/115
f 111/111/111 115/115/115 112/112/112
f 112/112/112 115/115/115 37/37/37
f 112/112/112 37/37/37 34/34/34
f 113/113/113 112/112/112 34/34/34
f 113/113/113 34/34/34 33/33/33
f 116/116/116 117/117/117 118/118/118
f 116/116/116 118/118/118 119/119/119
f 117/117/117 120/120/120 121/121/121
f 117/117/117 121/121/121 118/118/118
f 118/118/118 121/121/121 18/18/18
f 118/118/118 18/18/18 16/16/16
f 119/119/119 118/118/118 16/16/16
f 119/119/119 16/16/16 14/14/14
f 105/105/105 122/122/122 123/123/123
f 105/105/105 123/123/123 106/106/106
f 122/122/122 124/124/124 125/125/125
f 122/122/122 125/125/125 123/123/123
f 123/123/123 125/125/125 126/126/126
f 123/123/123 126/126/126 127/127/127
f 106/106/106 123/123/123 127/127/127
f 106/106/106 127/127/127 107/107/107
f 59/59/59 128/128/128 129/129/129
f 59/59/59 129/129/129 88/88/88
f 128/128/128 92/92/92 100/100/100
f 128/128/128 100/100/100 129/129/129
f 129/129/129 100/100/100 93/93/93
f 129/129/129 93/93/93 130/130/130
f 88/88/88 129/129/129 130/130/130
f 88/88/88 130/130/130 81/81/81
f 81/81/81 130/130/130 131/131/131
f 81/81/81 131/131/131 82/82/82
f 130/130/130 93/93/93 96/96/96
f 130/130/130 96/96/96 131/131/131
f 131/131/131 96/96/96 98/98/98
f 131/131/131 98/98/98 132/132/132
f 82/82/82 131/131/131 132/132/132
f 82/82/82 132/132/132 83/83/83
f 76/76/76 75/75/75 133/133/133
f 76/76/76 133/133/133 134/134/134
f 74/74/74 135/135/135 133/133/133
f 74/74/74 133/133/133 75/75/75
f 57/57/57 66/66/66 133/133/133
f 57/57/57 133/133/133 135/135/135
f 65/65/65 70/70/70 133/133/133
f 65/65/65 133/133/133 66/66/66
f 69/69/69 134/134/134 133/133/133
f 69/69/69 133/133/133 70/70/70
f 57/57/57 135/135/135 136/136/136
f 57/57/57 136/136/136 58/58/58
f 135/135/135 74/74/74 90/90/90
f 135/135/135 90/90/90 136/136/136
f 136/136/136 90/90/90 92/92/92
f 136/136/136 92/92/92 128/128/128
f 58/58/58 136/136/136 128/128/128
f 58/58/58 128/128/128 59/59/59
f 30/30/30 27/27/27 137/137/137
f 30/30/30 137/137/137 138/138/138
f 27/27/27 26/26/26 139/139/139
f 27/27/27 139/139/139 137/137/137
f 137/137/137 139/139/139 140/140/140
f 137/137/137 140/140/140 141/141/141
f 138/138/138 137/137/137 141/141/141
f 138/138/138 141/141/141 142/142/142
f 110/110/110 113/113/113 143/143/143
f 110/110/110 143/143/143 144/144/144
f 113/113/113 33/33/33 145/145/145
f 113/113/113 145/145/145 143/143/143
f 143/143/143 145/145/145 146/146/146
f 143/143/143 146/146/146 147/147/147
f 144/144/144 143/143/143 147/147/147
f 144/144/144 147/147/147 148/148/148
f 33/33/33 36/36/36 149/149/149
f 33/33/33 149/149/149 145/145/145
f 36/36/36 41/41/41 150/150/150
f 36/36/36 150/150/150 149/149/149
f 149/149/149 150/150/150 151/151/151
f 149/149/149 151/151/151 152/152/152
f 145/145/145 149/149/149 152/152/152
f 145/145/145 152/152/152 146/146/146
f 76/76/76 134/134/134 153/153/153
f 76/76/76 153/153/153 154/154/154
f 134/134/134 69/69/69 155/155/155
f 134/134/134 155/155/155 153/153/153
f 153/153/153 155/155/155 156/156/156
f 153/153/153 156/156/156 157/157/157
f 154/154/154 153/153/153 157/157/157
f 154/154/154 157/157/157 158/158/158
f 69/69/69 67/67/67 159/159/159
f 69/69/69 159/159/159 155/155/155
f 67/67/67 30/30/30 138/138/138
f 67/67/67 138/138/138 159/159/159
f 159/159/159 138/138/138 142/142/142
f 159/159/159 142/142/142 160/160/160
f 155/155/155 159/159/159 160/160/160
f 155/155/155 160/160/160 156/156/156
f 41/41/41 43/43/43 161/161/161
f 41/41/41 161/161/161 150/150/150
f 43/43/43 42/42/42 162/162/162
f 43/43/43 162/162/162 161/161/161
f 161/161/161 162/162/162 163/163/163
f 161/161/161 163/163/163 164/164/164
f 150/150/150 161/161/161 164/164/164
f 150/150/150 164/164/164 151/151/151
f 42/42/42 72/72/72 165/165/165
f 42/42/42 165/165/165 162/162/162
f 72/72/72 76/76/76 154/154/154
f 72/72/72 154/154/154 165/165/165
f 165/165/165 154/154/154 158/158/158
f 165/165/165 158/158/158 166/166/166
f 162/162/162 165/165/165 166/166/166
f 162/162/162 166/166/166 163/163/163
f 167/167/167 168/168/168 169/169/169
f 167/167/167 169/169/169 170/170/170
f 168/168/168 171/171/171 172/172/172
f 168/168/168 172/172/172 169/169/169
f 169/169/169 172/172/172 173/173/173
f 169/169/169 173/173/173 174/174/174
f 170/170/170 169/169/169 174/174/174
f 170/170/170 174/174/174 175/175/175
f 176/176/176 177/177/177 178/178/178
f 176/176/176 178/178/178 179/179/179
f 177/177/177 175/175/175 174/174/174
f 177/177/177 174/174/174 178/178/178
f 178/178/178 174/174/174 173/173/173
f 178/178/178 173/173/173 180/180/180
f 179/179/179 178/178/178 180/180/180
f 179/179/179 180/180/180 181/181/181
f 181/181/181 180/180/180 182/182/182
f 181/181/181 182/182/182 183/183/183
f 180/180/180 173/173/173 184/184/184
f 180/180/180 184/184/184 182/182/182
f 182/182/182 184/184/184 185/185/185
f 182/182/182 185/185/185 186/186/186
f 183/183/183 182/182/182 186/186/186
f 183/183/183 186/186/186 187/187/187
f 171/171/171 188/188/188 189/189/189
f 171/171/171 189/189/189 172/172/172
f 188/188/188 190/190/190 191/191/191
f 188/188/188 191/191/191 189/189/189
f 189/189/189 191/191/191 185/185/185
f 189/189/189 185/185/185 184/184/184
f 172/172/172 189/189/189 184/184/184
f 172/172/172 184/184/184 173/173/173
f 192/192/192 193/193/193 194/194/194
f 192/192/192 194/194/194 195/195/195
f 196/196/196 197/197/197 194/194/194
f 196/196/196 194/194/194 193/193/193
f 198/198/198 195/195/195 194/194/194
f 198/198/198 194/194/194 197/197/197
f 199/199/199 200/200/200 201/201/201
f 199/199/199 201/201/201 202/202/202
f 200/200/200 203/203/203 204/204/204
f 200/200/200 204/204/204 201/201/201
f 201/201/201 204/204/204 205/205/205
f 201/201/201 205/205/205 206/206/206
f 202/202/202 201/201/201 206/206/206
f 202/202/202 206/206/206 207/207/207
f 208/208/208 209/209/209 210/210/210
f 208/208/208 210/210/210 211/211/211
f 209/209/209 212/212/212 213/213/213
f 209/209/209 213/213/213 210/210/210
f 210/210/210 213/213/213 205/205/205
f 210/210/210 205/205/205 204/204/204
f 211/211/211 210/210/210 204/204/204
f 211/211/211 204/204/204 203/203/203
f 207/207/207 206/206/206 214/214/214
f 207/207/207 214/214/214 215/215/215
f 206/206/206 205/205/205 216/216/216
f 206/206/206 216/216/216 214/214/214
f 214/214/214 216/216/216 175/175/175
f 214/214/214 175/175/175 177/177/177
f 215/215/215 214/214/214 177/177/177
f 215/215/215 177/177/177 176/176/176
f 212/212/212 217/217/217 218/218/218
f 212/212/212 218/218/218 213/213/213
f 217/217/217 167/167/167 170/170/170
f 217/217/217 170/170/170 218/218/218
f 218/218/218 170/170/170 175/175/175
f 218/218/218 175/175/175 216/216/216
f 213/213/213 218/218/218 216/216/216
f 213/213/213 216/216/216 205/205/205
f 219/219/219 220/220/220 221/221/221
f 219/219/219 221/221/221 222/222/222
f 220/220/220 223/223/223 224/224/224
f 220/220/220 224/224/224 221/221/221
f 221/221/221 224/224/224 225/225/225
f 221/221/221 225/225/225 226/226/226
f 222/222/222 221/221/221 226/226/226
f 222/222/222 226/226/226 227/227/227
f 196/196/196 228/228/228 229/229/229
f 196/196/196 229/229/229 230/230/230
f 228/228/228 219/219/219 222/222/222
f 228/228/228 222/222/222 229/229/229
f 229/229/229 222/222/222 227/227/227
f 229/229/229 227/227/227 231/231/231
f 230/230/230 229/229/229 231/231/231
f 230/230/230 231/231/231 232/232/232
f 198/198/198 197/197/197 233/233/233
f 198/198/198 233/233/233 234/234/234
f 197/197/197 196/196/196 230/230/230
f 197/197/197 230/230/230 233/233/233
f 233/233/233 230/230/230 232/232/232
f 233/233/233 232/232/232 235/235/235
f 234/234/234 233/233/233 235/235/235
f 234/234/234 235/235/235 236/236/236
f 208/208/208 237/237/237 238/238/238
f 208/208/208 238/238/238 209/209/209
f 237/237/237 239/239/239 240/240/240
f 237/237/237 240/240/240 238/238/238
f 238/238/238 240/240/240 241/241/241
f 238/238/238 241/241/241 242/242/242
f 209/209/209 238/238/238 242/242/242
f 209/209/209 242/242/242 212/212/212
f 243/243/243 244/244/244 245/245/245
f 243/243/243 245/245/245 246/246/246
f 244/244/244 247/247/247 248/248/248
f 244/244/244 248/248/248 245/245/245
f 245/245/245 248/248/248 249/249/249
f 245/245/245 249/249/249 250/250/250
f 246/246/246 245/245/245 250/250/250
f 246/246/246 250/250/250 251/251/251
f 223/223/223 252/252/252 253/253/253
f 223/223/223 253/253/253 224/224/224
f 252/252/252 243/243/243 246/246/246
f 252/252/252 246/246/246 253/253/253
f 253/253/253 246/246/246 251/251/251
f 253/253/253 251/251/251 254/254/254
f 224/224/224 253/253/253 254/254/254
f 224/224/224 254/254/254 225/225/225
f 241/241/241 255/255/255 256/256/256
f 241/241/241 256/256/256 242/242/242
f 255/255/255 257/257/257 258/258/258
f 255/255/255 258/258/258 256/256/256
f 256/256/256 258/258/258 167/167/167
f 256/256/256 167/167/167 217/217/217
f 242/242/242 256/256/256 217/217/217
f 242/242/242 217/217/217 212/212/212
f 259/259/259 260/260/260 261/261/261
f 259/259/259 261/261/261 262/262/262
f 260/260/260 263/263/263 264/264/264
f 260/260/260 264/264/264 261/261/261
f 261/261/261 264/264/264 190/190/190
f 261/261/261 190/190/190 188/188/188
f 262/262/262 261/261/261 188/188/188
f 262/262/262 188/188/188 171/171/171
f 257/257/257 265/265/265 266/266/266
f 257/257/257 266/266/266 258/258/258
f 265/265/265 259/259/259 262/262/262
f 265/265/265 262/262/262 266/266/266
f 266/266/266 262/262/262 171/171/171
f 266/266/266 171/171/171 168/168/168
f 258/258/258 266/266/266 168/168/168
f 258/258/258 168/168/168 167/167/167
f 101/101/101 267/267/267 268/268/268
f 101/101/101 268/268/268 102/102/102
f 267/267/267 269/269/269 270/270/270
f 267/267/267 270/270/270 268/268/268
f 268/268/268 270/270/270 271/271/271
f 268/268/268 271/271/271 272/272/272
f 102/102/102 268/268/268 272/272/272
f 102/102/102 272/272/272 105/105/105
f 110/110/110 273/273/273 274/274/274
f 110/110/110 274/274/274 111/111/111
f 273/273/273 199/199/199 202/202/202
f 273/273/273 202/202/202 274/274/274
f 274/274/274 202/202/202 207/207/207
f 274/274/274 207/207/207 275/275/275
f 111/111/111 274/274/274 275/275/275
f 111/111/111 275/275/275 114/114/114
f 116/116/116 276/276/276 277/277/277
f 116/116/116 277/277/277 117/117/117
f 276/276/276 181/181/181 183/183/183
f 276/276/276 183/183/183 277/277/277
f 277/277/277 183/183/183 187/187/187
f 277/277/277 187/187/187 278/278/278
f 117/117/117 277/277/277 278/278/278
f 117/117/117 278/278/278 120/120/120
f 105/105/105 272/272/272 279/279/279
f 105/105/105 279/279/279 122/122/122
f 272/272/272 271/271/271 280/280/280
f 272/272/272 280/280/280 279/279/279
f 279/279/279 280/280/280 281/281/281
f 279/279/279 281/281/281 282/282/282
f 122/122/122 279/279/279 282/282/282
f 122/122/122 282/282/282 124/124/124
f 225/225/225 254/254/254 283/283/283
f 225/225/225 283/283/283 284/284/284
f 254/254/254 251/251/251 285/285/285
f 254/254/254 285/285/285 283/283/283
f 283/283/283 285/285/285 259/259/259
f 283/283/283 259/259/259 265/265/265
f 284/284/284 283/283/283 265/265/265
f 284/284/284 265/265/265 257/257/257
f 251/251/251 250/250/250 286/286/286
f 251/251/251 286/286/286 285/285/285
f 250/250/250 249/249/249 287/287/287
f 250/250/250 287/287/287 286/286/286
f 286/286/286 287/287/287 263/263/263
f 286/286/286 263/263/263 260/260/260
f 285/285/285 286/286/286 260/260/260
f 285/285/285 260/260/260 259/259/259
f 239/239/239 288/288/288 289/289/289
f 239/239/239 289/289/289 240/240/240
f 236/236/236 235/235/235 289/289/289
f 236/236/236 289/289/289 288/288/288
f 232/232/232 231/231/231 289/289/289
f 232/232/232 289/289/289 235/235/235
f 227/227/227 290/290/290 289/289/289
f 227/227/227 289/289/289 231/231/231
f 241/241/241 240/240/240 289/289/289
f 241/241/241 289/289/289 290/290/290
f 227/227/227 226/226/226 291/291/291
f 227/227/227 291/291/291 290/290/290
f 226/226/226 225/225/225 284/284/284
f 226/226/226 284/284/284 291/291/291
f 291/291/291 284/284/284 257/257/257
f 291/291/291 257/257/257 255/255/255
f 290/290/290 291/291/291 255/255/255
f 290/290/290 255/255/255 241/241/241
f 198/198/198 292/292/292 293/293/293
f 198/198/198 293/293/293 195/195/195
f 292/292/292 294/294/294 295/295/295
f 292/292/292 295/295/295 293/293/293
f 293/293/293 295/295/295 296/296/296
f 293/293/293 296/296/296 297/297/297
f 195/195/195 293/293/293 297/297/297
f 195/195/195 297/297/297 192/192/192
f 110/110/110 144/144/144 298/298/298
f 110/110/110 298/298/298 273/273/273
f 144/144/144 148/148/148 299/299/299
f 144/144/144 299/299/299 298/298/298
f 298/298/298 299/299/299 300/300/300
f 298/298/298 300/300/300 301/301/301
f 273/273/273 298/298/298 301/301/301
f 273/273/273 301/301/301 199/199/199
f 199/199/199 301/301/301 302/302/302
f 199/199/199 302/302/302 200/200/200
f 301/301/301 300/300/300 303/303/303
f 301/301/301 303/303/303 302/302/302
f 302/302/302 303/303/303 304/304/304
f 302/302/302 304/304/304 305/305/305
f 200/200/200 302/302/302 305/305/305
f 200/200/200 305/305/305 203/203/203
f 239/239/239 306/306/306 307/307/307
f 239/239/239 307/307/307 288/288/288
f 306/306/306 308/308/308 309/309/309
f 306/306/306 309/309/309 307/307/307
f 307/307/307 309/309/309 310/310/310
f 307/307/307 310/310/310 311/311/311
f 288/288/288 307/307/307 311/311/311
f 288/288/288 311/311/311 236/236/236
f 236/236/236 311/311/311 312/312/312
f 236/236/236 312/312/312 234/234/234
f 311/311/311 310/310/310 313/313/313
f 311/311/311 313/313/313 312/312/312
f 312/312/312 313/313/313 294/294/294
f 312/312/312 294/294/294 292/292/292
f 234/234/234 312/312/312 292/292/292
f 234/234/234 292/292/292 198/198/198
f 203/203/203 305/305/305 314/314/314
f 203/203/203 314/314/314 211/211/211
f 305/305/305 304/304/304 315/315/315
f 305/305/305 315/315/315 314/314/314
f 314/314/314 315/315/315 316/316/316
f 314/314/314 316/316/316 317/317/317
f 211/211/211 314/314/314 317/317/317
f 211/211/211 317/317/317 208/208/208
f 208/208/208 317/317/317 318/318/318
f 208/208/208 318/318/318 237/237/237
f 317/317/317 316/316/316 319/319/319
f 317/317/317 319/319/319 318/318/318
f 318/318/318 319/319/319 308/308/308
f 318/318/318 308/308/308 306/306/306
f 237/237/237 318/318/318 306/306/306
f 237/237/237 306/306/306 239/239/239
f 320/320/320 321/321/321 322/322/322
f 320/320/320 322/322/322 323/323/323
f 321/321/321 324/324/324 325/325/325
f 321/321/321 325/325/325 322/322/322
f 322/322/322 325/325/325 116/116/116
f 322/322/322 116/116/116 119/119/119
f 323/323/323 322/322/322 119/119/119
f 323/323/323 119/119/119 14/14/14
f 326/326/326 327/327/327 328/328/328
f 326/326/326 328/328/328 329/329/329
f 327/327/327 330/330/330 331/331/331
f 327/327/327 331/331/331 328/328/328
f 328/328/328 331/331/331 37/37/37
f 328/328/328 37/37/37 115/115/115
f 329/329/329 328/328/328 115/115/115
f 329/329/329 115/115/115 114/114/114
f 330/330/330 332/332/332 333/333/333
f 330/330/330 333/333/333 331/331/331
f 332/332/332 334/334/334 335/335/335
f 332/332/332 335/335/335 333/333/333
f 333/333/333 335/335/335 10/10/10
f 333/333/333 10/10/10 48/48/48
f 331/331/331 333/333/333 48/48/48
f 331/331/331 48/48/48 37/37/37
f 334/334/334 336/336/336 337/337/337
f 334/334/334 337/337/337 335/335/335
f 336/336/336 320/320/320 323/323/323
f 336/336/336 323/323/323 337/337/337
f 337/337/337 323/323/323 14/14/14
f 337/337/337 14/14/14 11/11/11
f 335/335/335 337/337/337 11/11/11
f 335/335/335 11/11/11 10/10/10
f 324/324/324 338/338/338 339/339/339
f 324/324/324 339/339/339 325/325/325
f 338/338/338 340/340/340 341/341/341
f 338/338/338 341/341/341 339/339/339
f 339/339/339 341/341/341 181/181/181
f 339/339/339 181/181/181 276/276/276
f 325/325/325 339/339/339 276/276/276
f 325/325/325 276/276/276 116/116/116
f 342/342/342 343/343/343 344/344/344
f 342/342/342 344/344/344 345/345/345
f 343/343/343 326/326/326 329/329/329
f 343/343/343 329/329/329 344/344/344
f 344/344/344 329/329/329 114/114/114
f 344/344/344 114/114/114 275/275/275
f 345/345/345 344/344/344 275/275/275
f 345/345/345 275/275/275 207/207/207
f 346/346/346 347/347/347 348/348/348
f 346/346/346 348/348/348 349/349/349
f 347/347/347 342/342/342 345/345/345
f 347/347/347 345/345/345 348/348/348
f 348/348/348 345/345/345 207/207/207
f 348/348/348 207/207/207 215/215/215
f 349/349/349 348/348/348 215/215/215
f 349/349/349 215/215/215 176/176/176
f 340/340/340 350/350/350 351/351/351
f 340/340/340 351/351/351 341/341/341
f 350/350/350 346/346/346 349/349/349
f 350/350/350 349/349/349 351/351/351
f 351/351/351 349/349/349 176/176/176
f 351/351/351 176/176/176 179/179/179
f 341/341/341 351/351/351 179/179/179
f 341/341/341 179/179/179 181/181/181
f 126/126/126 125/125/125 352/352/352
f 126/126/126 352/352/352 353/353/353
f 125/125/125 124/124/124 354/354/354
f 125/125/125 354/354/354 352/352/352
f 352/352/352 354/354/354 324/324/324
f 352/352/352 324/324/324 321/321/321
f 353/353/353 352/352/352 321/321/321
f 353/353/353 321/321/321 320/320/320
f 101/101/101 104/104/104 355/355/355
f 101/101/101 355/355/355 356/356/356
f 104/104/104 109/109/109 357/357/357
f 104/104/104 357/357/357 355/355/355
f 355/355/355 357/357/357 330/330/330
f 355/355/355 330/330/330 327/327/327
f 356/356/356 355/355/355 327/327/327
f 356/356/356 327/327/327 326/326/326
f 109/109/109 108/108/108 358/358/358
f 109/109/109 358/358/358 357/357/357
f 108/108/108 107/107/107 359/359/359
f 108/108/108 359/359/359 358/358/358
f 358/358/358 359/359/359 334/334/334
f 358/358/358 334/334/334 332/332/332
f 357/357/357 358/358/358 332/332/332
f 357/357/357 332/332/332 330/330/330
f 107/107/107 127/127/127 360/360/360
f 107/107/107 360/360/360 359/359/359
f 127/127/127 126/126/126 353/353/353
f 127/127/127 353/353/353 360/360/360
f 360/360/360 353/353/353 320/320/320
f 360/360/360 320/320/320 336/336/336
f 359/359/359 360/360/360 336/336/336
f 359/359/359 336/336/336 334/334/334
f 124/124/124 282/282/282 361/361/361
f 124/124/124 361/361/361 354/354/354
f 282/282/282 281/281/281 362/362/362
f 282/282/282 362/362/362 361/361/361
f 361/361/361 362/362/362 340/340/340
f 361/361/361 340/340/340 338/338/338
f 354/354/354 361/361/361 338/338/338
f 354/354/354 338/338/338 324/324/324
f 269/269/269 267/267/267 363/363/363
f 269/269/269 363/363/363 364/364/364
f 267/267/267 101/101/101 356/356/356
f 267/267/267 356/356/356 363/363/363
f 363/363/363 356/356/356 326/326/326
f 363/363/363 326/326/326 343/343/343
f 364/364/364 363/363/363 343/343/343
f 364/364/364 343/343/343 342/342/342
f 271/271/271 270/270/270 365/365/365
f 271/271/271 365/365/365 366/366/366
f 270/270/270 269/269/269 364/364/364
f 270/270/270 364/364/364 365/365/365
f 365/365/365 364/364/364 342/342/342
f 365/365/365 342/342/342 347/347/347
f 366/366/366 365/365/365 347/347/347
f 366/366/366 347/347/347 346/346/346
f 281/281/281 280/280/280 367/367/367
f 281/281/281 367/367/367 362/362/362
f 280/280/280 271/271/271 366/366/366
f 280/280/280 366/366/366 367/367/367
f 367/367/367 366/366/366 346/346/346
f 367/367/367 346/346/346 350/350/350
f 362/362/362 367/367/367 350/350/350
f 362/362/362 350/350/350 340/340/340
