v 0.92462 -0.295531 1.28814
v 0.910433 -0.357467 1.20634
v 0.975081 -0.362264 1.1839
v 0.988453 -0.299043 1.26652
v 0.896207 -0.396271 1.12036
v 0.961106 -0.402026 1.09793
v 1.00927 -0.40477 1.07953
v 1.02284 -0.364813 1.165
v 1.03541 -0.3012 1.24824
v 0.867884 -0.400564 0.970019
v 0.854919 -0.37977 0.90311
v 0.916553 -0.387367 0.886833
v 0.930872 -0.407579 0.95133
v 0.846475 -0.355946 0.853811
v 0.906974 -0.363967 0.839361
v 0.952785 -0.367453 0.833643
v 0.963054 -0.390641 0.878294
v 0.978152 -0.410634 0.939036
v 0.841942 -0.0693617 1.45095
v 0.815228 -0.0702246 1.45656
v 0.813926 -0.100507 1.45254
v 0.839843 -0.0997429 1.44646
v 0.791994 -0.0746345 1.45683
v 0.791449 -0.103842 1.45304
v 0.787377 -0.149444 1.43588
v 0.809122 -0.147825 1.43478
v 0.834339 -0.147471 1.42827
v 0.982618 -0.390578 0.87405
v 0.998151 -0.410474 0.93255
v 0.971978 -0.367487 0.831089
v 0.975059 -0.365724 0.829675
v 0.985907 -0.388773 0.871807
v 1.00171 -0.408611 0.929225
v 1.04335 -0.364714 1.15398
v 1.05568 -0.30132 1.23706
v 1.02985 -0.404526 1.06921
v 1.03389 -0.402625 1.06383
v 1.04756 -0.363101 1.14781
v 1.06003 -0.300233 1.23025
v 1.08599 -0.069317 1.35757
v 1.08076 -0.0690857 1.36707
v 1.07983 -0.0996426 1.3633
v 1.08477 -0.0999291 1.35464
v 1.06123 -0.0688046 1.38021
v 1.06021 -0.0992607 1.37555
v 1.05619 -0.14883 1.35704
v 1.07595 -0.149248 1.34546
v 1.08063 -0.14937 1.33748
v 0.950101 -0.348985 0.814239
v 0.969074 -0.349111 0.812421
v 0.950665 -0.336435 0.808853
v 0.969532 -0.336633 0.807167
v 0.972521 -0.334981 0.806267
v 0.972068 -0.347403 0.811396
v 0.844961 -0.33723 0.83243
v 0.904752 -0.345357 0.81877
v 0.846208 -0.324702 0.82681
v 0.905594 -0.332737 0.813247
v 0.704766 -0.318504 0.927849
v 0.705325 -0.300304 0.908224
v 0.724351 -0.307987 0.897155
v 0.723872 -0.32654 0.91707
v 0.707651 -0.289229 0.902664
v 0.72663 -0.296491 0.891529
v 0.747262 -0.302207 0.878482
v 0.74519 -0.313962 0.884117
v 0.745073 -0.332607 0.904403
v 0.71734 -0.366965 1.03323
v 0.709361 -0.343672 0.972574
v 0.728697 -0.351835 0.962449
v 0.737011 -0.37512 1.02398
v 0.750579 -0.357682 0.950741
v 0.759784 -0.380545 1.01358
v 0.763723 -0.283338 1.33345
v 0.749646 -0.337425 1.25421
v 0.770278 -0.343354 1.24866
v 0.784619 -0.286968 1.32963
v 0.736868 -0.369845 1.1719
v 0.757231 -0.377291 1.16479
v 0.781612 -0.381462 1.15674
v 0.794971 -0.346441 1.24123
v 0.809399 -0.288778 1.32253
v 0.956971 -0.0684341 1.4201
v 0.892709 -0.0688442 1.4383
v 0.890203 -0.0991053 1.43298
v 0.954619 -0.0986326 1.41423
v 0.88435 -0.147222 1.41411
v 0.948988 -0.147284 1.39489
v 0.787377 -0.324998 0.858615
v 0.788012 -0.343707 0.879655
v 0.789073 -0.312836 0.85297
v 0.794902 -0.368191 0.927975
v 0.8059 -0.390047 0.993516
v 0.84481 -0.351474 1.22665
v 0.859281 -0.291736 1.30806
v 0.830915 -0.388373 1.14135
v 1.01746 -0.0684916 1.39914
v 1.0158 -0.0987886 1.39362
v 1.01099 -0.14799 1.37449
v 1.06187 -0.031524 1.38325
v 1.01897 -0.031381 1.40311
v 1.01833 -0.0477885 1.40152
v 1.06161 -0.0480067 1.38202
v 0.959411 -0.0313553 1.42403
v 0.958355 -0.0477488 1.42251
v 0.895373 -0.0315438 1.44119
v 0.894219 -0.0480352 1.44014
v 0.84406 -0.0317814 1.45261
v 0.843148 -0.0483966 1.45209
v 1.08691 -0.0317585 1.35713
v 1.08129 -0.0316526 1.36854
v 1.08107 -0.0482027 1.36803
v 1.08652 -0.0483641 1.35754
v 0.816252 -0.0325442 1.45755
v 0.815821 -0.0492743 1.45732
v 0.792023 -0.0371349 1.45762
v 0.792009 -0.0542794 1.45747
v 0.770068 -0.39108 1.08152
v 0.81801 -0.39943 1.06414
v 0.881949 -0.408774 1.04203
v 0.72635 -0.378115 1.09891
v 0.746383 -0.386171 1.09061
v 0.994117 -0.418104 1.00508
v 1.0145 -0.417859 0.996392
v 1.01831 -0.415919 0.991976
v 0.946183 -0.415215 1.02103
v 0.823469 -0.216097 1.3867
v 0.873345 -0.217145 1.37227
v 0.938304 -0.21877 1.35268
v 0.777357 -0.214635 1.39579
v 0.798589 -0.215527 1.39354
v 1.04728 -0.222239 1.31427
v 1.06728 -0.222556 1.30301
v 1.07176 -0.222143 1.29562
v 1.00121 -0.220745 1.33187
v 0.845016 -9.16626e-07 1.45339
v 0.816595 -1.38879e-06 1.45806
v 0.81651 -0.0163339 1.45787
v 0.844739 -0.0158912 1.45312
v 0.791947 -1.76503e-06 1.45798
v 0.791981 -0.0190576 1.45784
v 1.08735 3.5626e-06 1.35658
v 1.0815 3.37486e-06 1.36877
v 1.08144 -0.0158246 1.36874
v 1.08721 -0.0158775 1.35674
v 1.06213 2.95611e-06 1.38419
v 1.06206 -0.0157605 1.38396
v 0.96063 1.07493e-06 1.42562
v 0.896674 -3.80369e-08 1.44246
v 0.896286 -0.0157719 1.44206
v 0.960263 -0.0156771 1.42515
v 1.0197 2.14518e-06 1.40456
v 1.01948 -0.0156895 1.40416
v 0.750416 -0.0256511 1.45495
v 0.750373 -0.0482418 1.45482
v 0.750462 -2.37581e-06 1.45504
v 0.697334 -3.15393e-06 1.45072
v 0.697082 -0.0345711 1.4507
v 0.696711 -0.0632675 1.45067
v 0.737593 -0.212715 1.39713
v 0.72469 -0.275199 1.33847
v 0.746918 -0.153349 1.43456
v 0.693597 -0.158639 1.43224
v 0.685071 -0.210146 1.39837
v 0.673134 -0.264256 1.34466
v 0.688797 -0.360538 1.11416
v 0.680132 -0.349348 1.05056
v 0.698913 -0.353426 1.18449
v 0.648784 -0.331389 1.20084
v 0.639157 -0.336963 1.13412
v 0.630889 -0.325728 1.07341
v 0.672442 -0.326174 0.99181
v 0.668 -0.301371 0.948517
v 0.623517 -0.30271 1.0173
v 0.619228 -0.27839 0.975985
v 0.668529 -0.283986 0.929536
v 0.670784 -0.273807 0.924156
v 0.619685 -0.2621 0.957897
v 0.621808 -0.253116 0.952765
v 0.750454 -0.0663708 1.4547
v 0.750686 -0.0852527 1.45409
v 0.696679 -0.0827278 1.45056
v 0.69694 -0.0996157 1.44994
v 0.750487 -0.111831 1.45055
v 0.696819 -0.122637 1.44669
v 0.711213 -0.32422 1.26322
v 0.660462 -0.306479 1.27475
v 0.924611 0.302917 1.28815
v 0.988444 0.30511 1.26652
v 0.97507 0.370841 1.18391
v 0.910422 0.36751 1.20634
v 1.0354 0.306889 1.24824
v 1.02283 0.37341 1.16501
v 1.00926 0.414869 1.07954
v 0.961094 0.411613 1.09793
v 0.896194 0.407225 1.12037
v 0.867872 0.406738 0.970026
v 0.93086 0.41268 0.951336
v 0.916541 0.388593 0.88684
v 0.854907 0.381992 0.903117
v 0.978139 0.416373 0.939043
v 0.963042 0.392283 0.878301
v 0.952773 0.365705 0.833649
v 0.906963 0.362023 0.839367
v 0.846464 0.35495 0.853817
v 0.84194 0.0693598 1.45095
v 0.83984 0.100003 1.44647
v 0.813923 0.100784 1.45254
v 0.815225 0.0702219 1.45656
v 0.834334 0.149565 1.42827
v 0.809117 0.150054 1.43479
v 0.787372 0.151592 1.43588
v 0.791446 0.104109 1.45304
v 0.791992 0.0746315 1.45683
v 0.998138 0.416539 0.932557
v 0.982606 0.39244 0.874056
v 1.0017 0.414605 0.929232
v 0.985894 0.390564 0.871814
v 0.975048 0.36406 0.829681
v 0.971967 0.365867 0.831095
v 1.05567 0.306985 1.23707
v 1.04334 0.37348 1.15398
v 1.06002 0.306006 1.23026
v 1.04755 0.371967 1.14781
v 1.03388 0.413137 1.06383
v 1.02983 0.414986 1.06922
v 1.08598 0.0693241 1.35757
v 1.08477 0.10005 1.35464
v 1.07983 0.0997602 1.3633
v 1.08076 0.0690924 1.36707
v 1.08062 0.150288 1.33748
v 1.07595 0.150141 1.34547
v 1.05618 0.149749 1.35704
v 1.06021 0.0993809 1.37556
v 1.06123 0.0688105 1.38021
v 0.969063 0.345972 0.812426
v 0.95009 0.34576 0.814245
v 0.972057 0.344235 0.811401
v 0.972511 0.331471 0.806272
v 0.969522 0.333146 0.807172
v 0.950655 0.332879 0.808858
v 0.904741 0.34204 0.818775
v 0.84495 0.334815 0.832436
v 0.905584 0.329129 0.813253
v 0.846198 0.321967 0.826816
v 0.704756 0.325721 0.927855
v 0.723862 0.333146 0.917075
v 0.724341 0.312208 0.89716
v 0.705315 0.305133 0.908229
v 0.745062 0.337678 0.904408
v 0.74518 0.31684 0.884123
v 0.747253 0.304401 0.878487
v 0.726621 0.299937 0.891534
v 0.707642 0.293271 0.902669
v 0.717328 0.38479 1.03324
v 0.736999 0.392433 1.02399
v 0.728686 0.363352 0.962455
v 0.70935 0.35579 0.97258
v 0.759772 0.395637 1.01358
v 0.750567 0.367328 0.950747
v 0.763715 0.296334 1.33346
v 0.78461 0.300293 1.32963
v 0.770267 0.362798 1.24867
v 0.749635 0.356648 1.25421
v 0.80939 0.301128 1.32253
v 0.79496 0.364206 1.24123
v 0.7816 0.402082 1.15675
v 0.757219 0.400162 1.1648
v 0.736856 0.392739 1.17191
v 0.956969 0.0684362 1.4201
v 0.954616 0.0987989 1.41423
v 0.8902 0.0993212 1.43298
v 0.892707 0.0688441 1.4383
v 0.948983 0.148599 1.39489
v 0.884346 0.14895 1.41411
v 0.788001 0.345642 0.87966
v 0.787367 0.325156 0.85862
v 0.789063 0.312503 0.852975
v 0.805887 0.400465 0.993522
v 0.79489 0.373965 0.927981
v 0.859272 0.301657 1.30807
v 0.844799 0.365326 1.22665
v 0.830902 0.403983 1.14135
v 1.01579 0.098923 1.39362
v 1.01746 0.0684959 1.39914
v 1.01098 0.149035 1.37449
v 1.06187 0.0315299 1.38325
v 1.0616 0.0480126 1.38202
v 1.01832 0.0477928 1.40152
v 1.01897 0.0313853 1.40311
v 0.958354 0.0477509 1.42251
v 0.95941 0.0313574 1.42403
v 0.894217 0.0480351 1.44015
v 0.895372 0.0315437 1.4412
v 0.843146 0.0483948 1.45209
v 0.844059 0.0317795 1.45261
v 1.08691 0.0317656 1.35713
v 1.08652 0.0483712 1.35754
v 1.08107 0.0482094 1.36803
v 1.08129 0.0316593 1.36854
v 0.815819 0.0492715 1.45732
v 0.816251 0.0325414 1.45755
v 0.792007 0.0542759 1.45747
v 0.792022 0.0371314 1.45762
v 0.817998 0.413603 1.06415
v 0.770056 0.41044 1.08152
v 0.881936 0.418218 1.04204
v 0.746371 0.407935 1.09062
v 0.726338 0.400179 1.09892
v 1.01448 0.427206 0.996399
v 0.994104 0.42705 1.00509
v 1.0183 0.425246 0.991983
v 0.94617 0.42345 1.02104
v 0.873339 0.222488 1.37227
v 0.823462 0.222616 1.3867
v 0.938298 0.222814 1.35268
v 0.798583 0.222491 1.39354
v 0.77735 0.221363 1.3958
v 1.06727 0.225377 1.30301
v 1.04727 0.225126 1.31427
v 1.07175 0.225034 1.29562
v 1.0012 0.223979 1.33188
v 0.844739 0.0158893 1.45312
v 0.816509 0.0163312 1.45787
v 0.791981 0.0190541 1.45784
v 1.08721 0.0158846 1.35674
v 1.08144 0.0158314 1.36874
v 1.06205 0.0157665 1.38396
v 0.960262 0.0156793 1.42515
v 0.896285 0.0157718 1.44206
v 1.01948 0.0156937 1.40416
v 0.750372 0.048237 1.45483
v 0.750416 0.0256464 1.45495
v 0.69671 0.0632611 1.45067
v 0.697081 0.0345648 1.4507
v 0.724682 0.287067 1.33848
v 0.737587 0.218747 1.39714
v 0.673125 0.274607 1.34466
v 0.685065 0.215249 1.39838
v 0.693592 0.160248 1.43225
v 0.746913 0.155266 1.43456
v 0.680121 0.36736 1.05057
v 0.688785 0.382217 1.11416
v 0.630879 0.343897 1.07341
v 0.639146 0.358034 1.13413
v 0.648774 0.352023 1.20085
v 0.698902 0.375386 1.1845
v 0.667991 0.309328 0.948521
v 0.672431 0.338846 0.991815
v 0.61922 0.287276 0.975989
v 0.623508 0.316045 1.0173
v 0.670776 0.278686 0.92416
v 0.66852 0.289634 0.929541
v 0.6218 0.259067 0.952769
v 0.619677 0.268792 0.957901
v 0.750683 0.0852495 1.45409
v 0.750452 0.0663662 1.45471
v 0.696937 0.0996125 1.44994
v 0.696676 0.0827218 1.45056
v 0.750483 0.112071 1.45055
v 0.696815 0.12284 1.44669
v 0.711202 0.342229 1.26322
v 0.660452 0.322824 1.27476
v 0.970667 -0.326811 0.799689
v 0.962693 -0.316756 0.780746
v 0.946301 -0.297522 0.742194
v 0.923314 -0.261703 0.687801
v 0.897659 -0.207488 0.626969
v 0.877568 -0.15556 0.580622
v 0.869506 -0.125675 0.565026
v 0.86857 -0.111388 0.566298
v 0.868183 -0.100054 0.566622
v 0.866453 -0.0804218 0.562594
v 0.863343 -0.0450073 0.555585
v 0.861554 6.68644e-06 0.551645
v 0.863342 0.0450207 0.555586
v 0.866451 0.0804351 0.562595
v 0.86818 0.100067 0.566623
v 0.868566 0.111402 0.5663
v 0.869502 0.125603 0.565028
v 0.877563 0.154887 0.580625
v 0.970657 0.323075 0.799695
v 0.897652 0.205442 0.626973
v 0.923306 0.258292 0.687806
v 0.946292 0.293542 0.742199
v 0.962683 0.312801 0.780752
v 0.621779 0.253355 0.946706
v 0.617625 0.246772 0.930027
v 0.608362 0.23481 0.896586
v 0.59524 0.214625 0.850175
v 0.580733 0.18617 0.799213
v 0.570002 0.158935 0.76067
v 0.566971 0.141861 0.747555
v 0.567926 0.132151 0.748461
v 0.568384 0.122691 0.748815
v 0.568413 0.100817 0.745784
v 0.568869 0.0570253 0.740391
v 0.621786 -0.247995 0.946701
v 0.569217 7.09578e-07 0.737342
v 0.56887 -0.0570239 0.74039
v 0.568416 -0.100816 0.745782
v 0.568388 -0.12269 0.748813
v 0.56793 -0.13215 0.748459
v 0.566975 -0.141857 0.747553
v 0.570007 -0.158916 0.760668
v 0.580739 -0.186015 0.79921
v 0.595247 -0.213733 0.850172
v 0.60837 -0.232278 0.896582
v 0.617632 -0.242482 0.930023
vt 0.2129 0.5521
vt 0.4614 0.4875
vt 0.04405 0.5189
vt 0.1911 0.5032
vt 0.06505 0.6686
vt 0.2082 0.6029
vt 0.0805 0.6393
vt 0.4383 0.4456
vt 0.2283 0.5718
vt 0.2129 0.5521
vt 0.4707 0.4431
vt 0.04103 0.5126
vt 0.4581 0.4437
vt 0.06958 0.6638
vt 0.2194 0.5961
vt 0.06833 0.6457
vt 0.4724 0.4626
vt 0.3478 0.5288
vt 0.3146 0.5368
vt 0.4743 0.4871
vt 0.02457 0.5045
vt 0.04596 0.4989
vt 0.3519 0.5462
vt 0.05613 0.4957
vt 0.06833 0.6457
vt 0.1889 0.4878
vt 0.04845 0.6365
vt 0.02019 0.5062
vt 0.46 0.4631
vt 0.1812 0.4802
vt 0.06355 0.6494
vt 0.4614 0.4875
vt 0.3856 0.5394
vt 0.03455 0.5025
vt 0.1889 0.4878
vt 0.1874 0.4792
vt 0.06833 0.6457
vt 0.4395 0.4648
vt 0.2068 0.5822
vt 0.3828 0.5223
vt 0.07535 0.497
vt 0.01972 0.5071
vt 0.0564 0.4967
vt 0.3478 0.5288
vt 0.1878 0.4808
vt 0.05604 0.6307
vt 0.05262 0.4981
vt 0.0777 0.657
vt 0.2068 0.5822
vt 0.03458 0.5035
vt 0.07281 0.6609
vt 0.1889 0.4878
vt 0.0805 0.6393
vt 0.1878 0.4808
vt 0.2207 0.4744
vt 0.03455 0.5025
vt 0.06055 0.6518
vt 0.1998 0.4787
vt 0.06355 0.6494
vt 0.1874 0.4792
vt 0.03455 0.5025
vt 0.06149 0.4933
vt 0.0777 0.657
vt 0.06177 0.4944
vt 0.06055 0.6518
vt 0.2204 0.4727
vt 0.05799 0.6536
vt 0.3519 0.5462
vt 0.46 0.4631
vt 0.03458 0.5035
vt 0.46 0.4631
vt 0.4724 0.4626
vt 0.2428 0.5387
vt 0.1895 0.5636
vt 0.46 0.4631
vt 0.04793 0.5032
vt 0.201 0.4857
vt 0.05136 0.6342
vt 0.07399 0.4905
vt 0.04624 0.6381
vt 0.4395 0.4648
vt 0.2556 0.5596
vt 0.3201 0.5542
vt 0.06287 0.4994
vt 0.03455 0.5025
vt 0.05262 0.4981
vt 0.2465 0.4671
vt 0.06055 0.6518
vt 0.04625 0.4997
vt 0.1998 0.4787
vt 0.201 0.4857
vt 0.04596 0.4989
vt 0.4581 0.4437
vt 0.04291 0.6905
vt 0.4281 0.4918
vt 0.2207 0.4744
vt 0.06177 0.4944
vt 0.05611 0.6804
vt 0.2468 0.4689
vt 0.2556 0.5596
vt 0.2033 0.5012
vt 0.01787 0.6594
vt 0.2219 0.4816
vt 0.2395 0.5866
vt 0.05748 0.5013
vt 0.2245 0.4974
vt 0.02788 0.6719
vt 0.2283 0.5718
vt 0.0564 0.4967
vt 0.4707 0.4431
vt 0.2245 0.4974
vt 0.03831 0.664
vt 0.07425 0.4917
vt 0.2033 0.5012
vt 0.0283 0.6515
vt 0.2649 0.5754
vt 0.06287 0.4994
vt 0.2207 0.4744
vt 0.02788 0.6719
vt 0.2219 0.4816
vt 0.1995 0.477
vt 0.03563 0.6816
vt 0.1951 0.5895
vt 0.04592 0.6734
vt 0.1815 0.4817
vt 0.03831 0.664
vt 0.2468 0.4689
vt 0.03831 0.664
vt 0.248 0.4763
vt 0.05383 0.5025
vt 0.04592 0.6734
vt 0.1897 0.594
vt 0.05115 0.6669
vt 0.0564 0.4967
vt 0.04631 0.6581
vt 0.07373 0.6692
vt 0.1878 0.4808
vt 0.4898 0.5261
vt 0.2245 0.4974
vt 0.07373 0.6692
vt 0.2219 0.4816
vt 0.07719 0.6663
vt 0.05262 0.4981
vt 0.4894 0.5096
vt 0.201 0.4857
vt 0.07373 0.6692
vt 0.3739 0.4546
vt 0.07281 0.6609
vt 0.201 0.4857
vt 0.4833 0.5096
vt 0.2509 0.4926
vt 0.2219 0.4816
vt 0.4837 0.5261
vt 0.4894 0.5096
vt 0.3082 0.4826
vt 0.3415 0.4777
vt 0.2082 0.6029
vt 0.3415 0.4777
vt 0.4572 0.4347
vt 0.4886 0.4871
vt 0.3458 0.5013
vt 0.3126 0.5056
vt 0.4698 0.431
vt 0.2245 0.4974
vt 0.4371 0.4369
vt 0.4833 0.5096
vt 0.05381 0.5136
vt 0.04793 0.5032
vt 0.4572 0.4347
vt 0.2064 0.5216
vt 0.4369 0.4348
vt 0.4823 0.4871
vt 0.05646 0.5128
vt 0.3769 0.4729
vt 0.4581 0.4437
vt 0.4743 0.4871
vt 0.05383 0.5025
vt 0.2278 0.5183
vt 0.4699 0.4337
vt 0.4755 0.5096
vt 0.05381 0.5136
vt 0.3415 0.4777
vt 0.457 0.4323
vt 0.4886 0.4871
vt 0.3383 0.46
vt 0.4873 0.4625
vt 0.3383 0.46
vt 0.09486 0.6557
vt 0.1758 0.6004
vt 0.4873 0.4625
vt 0.1897 0.594
vt 0.07864 0.6681
vt 0.1673 0.5793
vt 0.2395 0.5866
vt 0.05383 0.5025
vt 0.3864 0.5477
vt 0.07719 0.6663
vt 0.1718 0.5765
vt 0.4862 0.4425
vt 0.2079 0.613
vt 0.07281 0.6609
vt 0.2033 0.6156
vt 0.2649 0.5754
vt 0.05646 0.5128
vt 0.3519 0.5462
vt 0.0777 0.657
vt 0.1706 0.505
vt 0.4793 0.4428
vt 0.2033 0.6156
vt 0.3519 0.5462
vt 0.0629 0.5257
vt 0.2439 0.5953
vt 0.1815 0.4817
vt 0.09486 0.6557
vt 0.2083 0.6145
vt 0.4807 0.4625
vt 0.08217 0.6623
vt 0.1943 0.6207
vt 0.2438 0.5933
vt 0.06524 0.5104
vt 0.1851 0.5967
vt 0.4807 0.4625
vt 0.0837 0.664
vt 0.1584 0.5832
vt 0.2243 0.6025
vt 0.06287 0.4994
vt 0.0777 0.657
vt 0.1763 0.4824
vt 0.4724 0.4626
vt 0.1938 0.6192
vt 0.2684 0.5827
vt 0.1812 0.4802
vt 0.4383 0.4456
vt 0.05748 0.5013
vt 0.09023 0.6505
vt 0.4823 0.4871
vt 0.0629 0.5257
vt 0.06287 0.4994
vt 0.2245 0.6042
vt 0.06524 0.5104
vt 0.2438 0.5933
vt 0.4807 0.4625
vt 0.4614 0.4875
vt 0.05982 0.5118
vt 0.3201 0.5542
vt 0.2395 0.5866
vt 0.1763 0.4824
vt 0.4724 0.4626
vt 0.05748 0.5013
vt 0.2683 0.5849
vt 0.07779 0.5089
vt 0.3856 0.5394
vt 0.1669 0.4834
vt 0.2243 0.6025
vt 0.07719 0.6663
vt 0.2037 0.6171
vt 0.4743 0.4871
vt 0.1938 0.6192
vt 0.08217 0.6623
vt 0.2037 0.6171
vt 0.08217 0.6623
vt 0.1851 0.5967
vt 0.4898 0.5381
vt 0.1673 0.5793
vt 0.0837 0.664
vt 0.1851 0.5967
vt 0.2439 0.5953
vt 0.1763 0.4824
vt 0.2684 0.5827
vt 0.08217 0.6623
vt 0.1831 0.5249
vt 0.4835 0.5381
vt 0.1887 0.6133
vt 0.322 0.5623
vt 0.06839 0.525
vt 0.4648 0.5264
vt 0.4899 0.5345
vt 0.4755 0.5096
vt 0.2033 0.6156
vt 0.4898 0.5261
vt 0.1758 0.6004
vt 0.4837 0.5261
vt 0.4639 0.5099
vt 0.4837 0.5261
vt 0.1981 0.6097
vt 0.4743 0.4871
vt 0.476 0.5345
vt 0.101 0.5076
vt 0.4786 0.4302
vt 0.1246 0.4855
vt 0.1981 0.6097
vt 0.4648 0.5264
vt 0.4787 0.4331
vt 0.1321 0.5247
vt 0.2028 0.6071
vt 0.476 0.5261
vt 0.4647 0.5348
vt 0.2079 0.613
vt 0.4787 0.4331
vt 0.1043 0.5246
vt 0.4786 0.4302
vt 0.101 0.5076
vt 0.2033 0.6156
vt 0.4647 0.5348
vt 0.4698 0.431
vt 0.06524 0.5104
vt 0.4639 0.5099
vt 0.4699 0.4337
vt 0.05982 0.5118
vt 0.4793 0.4428
vt 0.05982 0.5118
vt 0.07779 0.5089
vt 0.4787 0.4331
vt 0.4699 0.4337
vt 0.06839 0.525
vt 0.4639 0.5099
vt 0.4707 0.4431
vt 0.176 0.4809
vt 0.305 0.4653
vt 0.05646 0.5128
vt 0.1815 0.4817
vt 0.2754 0.4708
vt 0.07779 0.5089
vt 0.2509 0.4926
vt 0.1043 0.5246
vt 0.1286 0.5066
vt 0.2785 0.4876
vt 0.1798 0.5045
vt 0.08103 0.5246
vt 0.2785 0.4876
vt 0.2509 0.4926
vt 0.126 0.4929
vt 0.2546 0.5141
vt 0.2133 0.6089
vt 0.09844 0.4949
vt 0.1146 0.6408
vt 0.2826 0.5098
vt 0.2028 0.6071
vt 0.09709 0.4878
vt 0.4647 0.5348
vt 0.144 0.6298
vt 0.1194 0.646
vt 0.2826 0.5098
vt 0.2082 0.6029
vt 0.09709 0.4878
vt 0.4465 0.5284
vt 0.09486 0.6557
vt 0.1194 0.646
vt 0.3126 0.5056
vt 0.4464 0.5367
vt 0.07535 0.497
vt 0.09486 0.6557
vt 0.3035 0.4557
vt 0.4642 0.5383
vt 0.09733 0.4891
vt 0.09642 0.6573
vt 0.2739 0.4614
vt 0.2243 0.6025
vt 0.07425 0.4917
vt 0.2468 0.4689
vt 0.09733 0.4891
vt 0.2741 0.4632
vt 0.09844 0.4949
vt 0.1826 0.4886
vt 0.07281 0.6609
vt 0.1911 0.5032
vt 0.2283 0.5718
vt 0.1889 0.4878
vt 0.3786 0.4998
vt 0.337 0.452
vt 0.06833 0.6457
vt 0.05234 0.4972
vt 0.3069 0.5139
vt 0.06177 0.4944
vt 0.07864 0.6681
vt 0.1774 0.4892
vt 0.06958 0.6638
vt 0.176 0.4809
vt 0.2194 0.5961
vt 0.1774 0.4892
vt 0.3527 0.5573
vt 0.06524 0.5104
vt 0.1981 0.6097
vt 0.4757 0.538
vt 0.09844 0.4949
vt 0.3532 0.5545
vt 0.07425 0.4917
vt 0.4464 0.5367
vt 0.09733 0.4891
vt 0.2079 0.613
vt 0.1249 0.4868
vt 0.4459 0.5401
vt 0.1249 0.4868
vt 0.4648 0.5264
vt 0.07399 0.4905
vt 0.2194 0.5961
vt 0.09733 0.4891
vt 0.2546 0.5141
vt 0.2133 0.6089
vt 0.3739 0.4546
vt 0.4572 0.4347
vt 0.2278 0.5183
vt 0.4699 0.4337
vt 0.2509 0.4926
vt 0.4572 0.4347
vt 0.305 0.4653
vt 0.4581 0.4437
vt 0.3082 0.4826
vt 0.457 0.4323
vn 0.1701 -0.7315 0.6603
vn 0.09104 -0.8635 0.4961
vn 0.1284 -0.8583 0.4968
vn 0.2026 -0.7251 0.6581
vn -0.004181 -0.9577 0.2876
vn 0.03629 -0.9559 0.2915
vn 0.105 -0.9522 0.2866
vn 0.2033 -0.8502 0.4856
vn 0.2807 -0.7152 0.64
vn -0.1938 -0.9658 -0.1721
vn -0.2521 -0.912 -0.3234
vn -0.1643 -0.9255 -0.3412
vn -0.1328 -0.9749 -0.1784
vn -0.3073 -0.804 -0.509
vn -0.1837 -0.8228 -0.5378
vn -0.1076 -0.8208 -0.5609
vn -0.1032 -0.9262 -0.3627
vn -0.07974 -0.9782 -0.1917
vn 0.225 -0.1141 0.9677
vn 0.1179 -0.08921 0.989
vn 0.1412 -0.247 0.9586
vn 0.2379 -0.2661 0.9341
vn -0.009186 -0.08097 0.9967
vn 0.02191 -0.2431 0.9697
vn 0.04297 -0.4437 0.8951
vn 0.1498 -0.4451 0.8828
vn 0.2322 -0.4515 0.8615
vn 0.05496 -0.9158 -0.3979
vn 0.103 -0.968 -0.2286
vn 0.03546 -0.814 -0.5798
vn 0.6511 -0.5017 -0.5694
vn 0.6998 -0.5598 -0.4437
vn 0.7226 -0.5975 -0.3475
vn 0.4832 -0.7781 0.4012
vn 0.5542 -0.6439 0.5275
vn 0.379 -0.897 0.2273
vn 0.8607 -0.5046 -0.06726
vn 0.9132 -0.4064 0.02982
vn 0.9404 -0.3273 0.0918
vn 0.9905 -0.0315 0.1339
vn 0.7334 -0.07938 0.6751
vn 0.6993 -0.2044 0.685
vn 0.9827 -0.09919 0.1562
vn 0.4743 -0.1176 0.8725
vn 0.4382 -0.2503 0.8633
vn 0.3889 -0.4256 0.8171
vn 0.6546 -0.3703 0.659
vn 0.9724 -0.1828 0.145
vn -0.1091 -0.5741 -0.8114
vn -0.02069 -0.5869 -0.8094
vn -0.1036 -0.5146 -0.8512
vn -0.04675 -0.4905 -0.8701
vn 0.6287 -0.3468 -0.696
vn 0.5575 -0.3476 -0.7538
vn -0.3506 -0.5449 -0.7617
vn -0.1948 -0.5714 -0.7971
vn -0.3495 -0.4895 -0.7989
vn -0.1889 -0.5108 -0.8386
vn -0.5623 -0.6804 -0.4699
vn -0.5825 -0.4422 -0.682
vn -0.5674 -0.4537 -0.6872
vn -0.5205 -0.7059 -0.4804
vn -0.5777 -0.4355 -0.6903
vn -0.5689 -0.4295 -0.7013
vn -0.5544 -0.4369 -0.7083
vn -0.5498 -0.465 -0.6939
vn -0.4782 -0.7313 -0.4863
vn -0.4661 -0.8675 -0.1738
vn -0.5179 -0.7961 -0.313
vn -0.4525 -0.8301 -0.3257
vn -0.3786 -0.9064 -0.187
vn -0.3875 -0.8607 -0.3301
vn -0.2953 -0.9359 -0.1917
vn -0.04324 -0.7504 0.6596
vn -0.1496 -0.864 0.4807
vn -0.043 -0.8761 0.4801
vn 0.05762 -0.7531 0.6554
vn -0.2706 -0.9237 0.2711
vn -0.1595 -0.9501 0.268
vn -0.06317 -0.9615 0.2672
vn 0.04358 -0.8769 0.4786
vn 0.135 -0.7492 0.6483
vn 0.2957 -0.1586 0.942
vn 0.2557 -0.1425 0.9561
vn 0.2591 -0.2823 0.9236
vn 0.2865 -0.2882 0.9137
vn 0.2456 -0.4531 0.8569
vn 0.2631 -0.4504 0.8532
vn -0.4907 -0.4981 -0.7148
vn -0.4222 -0.7643 -0.4874
vn -0.4952 -0.4556 -0.7397
vn -0.3375 -0.8853 -0.3198
vn -0.2533 -0.9508 -0.1781
vn 0.06403 -0.8702 0.4884
vn 0.1498 -0.7404 0.6552
vn -0.03656 -0.9598 0.2781
vn 0.3564 -0.1487 0.9224
vn 0.3332 -0.2765 0.9014
vn 0.2973 -0.442 0.8463
vn 0.5128 -0.05771 0.8565
vn 0.3748 -0.08374 0.9233
vn 0.3677 -0.1064 0.9238
vn 0.4968 -0.07736 0.8644
vn 0.2948 -0.08841 0.9514
vn 0.2961 -0.1104 0.9488
vn 0.2385 -0.07035 0.9686
vn 0.2464 -0.08844 0.9651
vn 0.1973 -0.0434 0.9794
vn 0.2092 -0.05652 0.9762
vn 0.9947 -0.007416 0.1028
vn 0.7688 -0.02783 0.6388
vn 0.7544 -0.04135 0.655
vn 0.9933 -0.01233 0.1145
vn 0.09131 -0.02197 0.9956
vn 0.1009 -0.03134 0.9944
vn -0.03015 -0.01068 0.9995
vn -0.02487 -0.02097 0.9995
vn -0.1834 -0.9828 0.01773
vn -0.1497 -0.9883 0.03046
vn -0.1086 -0.9933 0.04038
vn -0.3847 -0.9225 0.03067
vn -0.2793 -0.96 0.02118
vn -0.004913 -0.9993 0.03772
vn 0.2319 -0.9727 -0.004028
vn 0.7797 -0.589 -0.2123
vn -0.06314 -0.9971 0.04279
vn 0.2004 -0.6018 0.7731
vn 0.212 -0.5952 0.775
vn 0.2275 -0.5877 0.7765
vn 0.02445 -0.6035 0.797
vn 0.1249 -0.6036 0.7874
vn 0.3395 -0.5699 0.7483
vn 0.6083 -0.507 0.6106
vn 0.9599 -0.2508 0.125
vn 0.2572 -0.581 0.7722
vn 0.1865 0 0.9824
vn 0.08164 0 0.9966
vn 0.08457 -0.01804 0.9962
vn 0.1894 -0.03134 0.9814
vn -0.03571 0 0.9994
vn -0.03363 -0.009796 0.9994
vn 0.9953 0 0.09638
vn 0.7809 0 0.6247
vn 0.7778 -0.01349 0.6283
vn 0.9952 -0.003723 0.09766
vn 0.5286 0 0.8489
vn 0.5242 -0.0303 0.851
vn 0.2956 0 0.9553
vn 0.2321 0 0.9727
vn 0.2336 -0.04669 0.9712
vn 0.295 -0.05496 0.9539
vn 0.3834 0 0.9236
vn 0.3807 -0.04843 0.9234
vn -0.0734 -0.004395 0.9973
vn -0.07096 -0.006012 0.9974
vn -0.07486 0 0.9972
vn -0.6719 0 0.7407
vn -0.673 -0.001221 0.7396
vn -0.6729 -0.002991 0.7397
vn -0.01138 -0.6114 0.7912
vn -0.08161 -0.7573 0.6479
vn 0.007172 -0.45 0.893
vn -0.6221 -0.321 0.7141
vn -0.6398 -0.4242 0.6409
vn -0.6702 -0.5118 0.5375
vn -0.415 -0.9094 0.02628
vn -0.4895 -0.8542 -0.1752
vn -0.308 -0.9153 0.2595
vn -0.7672 -0.5827 0.2679
vn -0.8125 -0.571 0.1176
vn -0.8516 -0.5241 -0.00998
vn -0.5359 -0.7837 -0.3141
vn -0.5743 -0.6727 -0.4664
vn -0.878 -0.4696 -0.09214
vn -0.8948 -0.4074 -0.1824
vn -0.5892 -0.4441 -0.6749
vn -0.5832 -0.4501 -0.6762
vn -0.9052 -0.2828 -0.3172
vn -0.9054 -0.2753 -0.3233
vn -0.06607 -0.0202 0.9976
vn -0.05011 -0.08304 0.9953
vn -0.669 -0.01505 0.7431
vn -0.6521 -0.06119 0.7557
vn -0.01666 -0.2479 0.9686
vn -0.6198 -0.1848 0.7627
vn -0.1897 -0.8644 0.4657
vn -0.7194 -0.5636 0.4058
vn 0.1961 0.7148 0.6712
vn 0.2165 0.711 0.669
vn 0.1421 0.8497 0.5076
vn 0.1287 0.8538 0.5043
vn 0.2884 0.7013 0.6519
vn 0.2063 0.8411 0.5
vn 0.09439 0.9528 0.2885
vn 0.04086 0.9567 0.2882
vn 0.03555 0.9599 0.2781
vn -0.1714 0.9587 -0.2268
vn -0.1426 0.9638 -0.225
vn -0.1701 0.9049 -0.3901
vn -0.2352 0.8953 -0.3783
vn -0.1063 0.9657 -0.2368
vn -0.1219 0.9031 -0.4117
vn -0.1169 0.7929 -0.5979
vn -0.1839 0.7974 -0.5747
vn -0.2926 0.7819 -0.5505
vn 0.225 0.1134 0.9677
vn 0.2389 0.2595 0.9357
vn 0.1411 0.2404 0.9604
vn 0.1178 0.0886 0.989
vn 0.2382 0.4339 0.8689
vn 0.1514 0.4266 0.8917
vn 0.03937 0.4241 0.9047
vn 0.02054 0.2362 0.9715
vn -0.009308 0.08036 0.9967
vn 0.0723 0.959 -0.274
vn 0.02921 0.8938 -0.4475
vn 0.7062 0.5961 -0.382
vn 0.6861 0.5483 -0.4781
vn 0.6426 0.4838 -0.594
vn 0.01849 0.7862 -0.6177
vn 0.5583 0.6306 0.539
vn 0.4844 0.7695 0.4162
vn 0.9421 0.3206 0.09803
vn 0.9143 0.4032 0.03781
vn 0.8564 0.5118 -0.06757
vn 0.3703 0.8997 0.231
vn 0.9905 0.03143 0.1339
vn 0.9829 0.09784 0.1559
vn 0.6997 0.2021 0.6852
vn 0.7334 0.0792 0.6751
vn 0.973 0.179 0.1455
vn 0.6564 0.3635 0.661
vn 0.3915 0.4178 0.8198
vn 0.4387 0.2474 0.8639
vn 0.4743 0.1173 0.8725
vn -0.02875 0.5661 -0.8238
vn -0.1119 0.5544 -0.8246
vn 0.5565 0.3348 -0.7604
vn 0.6272 0.3411 -0.7002
vn -0.04968 0.4807 -0.8754
vn -0.1048 0.5058 -0.8562
vn -0.1918 0.5531 -0.8107
vn -0.3386 0.5282 -0.7786
vn -0.1858 0.504 -0.8435
vn -0.3384 0.4842 -0.8068
vn -0.5583 0.6472 -0.519
vn -0.5044 0.6782 -0.5344
vn -0.5529 0.4339 -0.7113
vn -0.5738 0.4186 -0.7039
vn -0.451 0.7089 -0.5422
vn -0.5307 0.4483 -0.7193
vn -0.5377 0.4274 -0.7268
vn -0.5565 0.4146 -0.7199
vn -0.5697 0.4178 -0.7077
vn -0.4735 0.8495 -0.2327
vn -0.3518 0.9 -0.2571
vn -0.4335 0.8091 -0.3967
vn -0.5204 0.7669 -0.3755
vn -0.2371 0.934 -0.267
vn -0.3486 0.8456 -0.4042
vn -0.04624 0.7182 0.6943
vn 0.07776 0.7247 0.6846
vn -0.006806 0.8601 0.51
vn -0.1499 0.8418 0.5186
vn 0.1765 0.7221 0.6689
vn 0.1133 0.8604 0.4967
vn 0.02304 0.9655 0.2593
vn -0.1163 0.9555 0.2711
vn -0.2742 0.9186 0.2845
vn 0.2958 0.1581 0.942
vn 0.2874 0.2837 0.9148
vn 0.2602 0.2766 0.925
vn 0.2558 0.1419 0.9562
vn 0.2679 0.4389 0.8576
vn 0.2517 0.4384 0.8628
vn -0.3964 0.7443 -0.5374
vn -0.4726 0.483 -0.7371
vn -0.4788 0.4496 -0.754
vn -0.2016 0.9482 -0.2452
vn -0.3018 0.8718 -0.3858
vn 0.1883 0.7184 0.6696
vn 0.1264 0.8572 0.4991
vn 0.03916 0.9631 0.2664
vn 0.3339 0.273 0.9022
vn 0.3565 0.1483 0.9225
vn 0.3008 0.433 0.8497
vn 0.5128 0.05771 0.8565
vn 0.4968 0.07736 0.8644
vn 0.3677 0.1064 0.9238
vn 0.3748 0.08374 0.9233
vn 0.2961 0.1104 0.9488
vn 0.2948 0.08838 0.9514
vn 0.2464 0.08841 0.9651
vn 0.2385 0.07035 0.9686
vn 0.2092 0.05652 0.9762
vn 0.1973 0.0434 0.9794
vn 0.9947 0.007447 0.1028
vn 0.9933 0.01236 0.1145
vn 0.7544 0.04135 0.655
vn 0.7688 0.02786 0.6388
vn 0.1009 0.03134 0.9944
vn 0.09131 0.02197 0.9956
vn -0.02487 0.02097 0.9995
vn -0.03015 0.01068 0.9995
vn -0.08057 0.9966 -0.01685
vn -0.1045 0.994 -0.03308
vn -0.07709 0.997 0.002228
vn -0.2422 0.97 -0.02133
vn -0.3937 0.9192 -0.0001831
vn 0.2088 0.9775 -0.02768
vn -0.0296 0.9995 0.01245
vn 0.7657 0.5991 -0.2339
vn -0.06992 0.9974 0.01346
vn 0.2299 0.5738 0.786
vn 0.219 0.5758 0.7877
vn 0.2407 0.5712 0.7847
vn 0.1325 0.5758 0.8068
vn 0.01978 0.5737 0.8188
vn 0.6117 0.4959 0.6163
vn 0.3454 0.5576 0.7548
vn 0.961 0.2452 0.1279
vn 0.2658 0.5676 0.7792
vn 0.1894 0.03134 0.9814
vn 0.08454 0.01804 0.9962
vn -0.03366 0.009766 0.9994
vn 0.9952 0.003754 0.09766
vn 0.7778 0.01352 0.6283
vn 0.5242 0.0303 0.851
vn 0.295 0.05496 0.9539
vn 0.2336 0.04669 0.9712
vn 0.3807 0.04843 0.9234
vn -0.07096 0.005982 0.9974
vn -0.0734 0.004364 0.9973
vn -0.6729 0.00296 0.7397
vn -0.673 0.00116 0.7396
vn -0.08942 0.723 0.685
vn -0.01895 0.5808 0.8138
vn -0.6721 0.484 0.5604
vn -0.6432 0.3995 0.6532
vn -0.6257 0.3048 0.718
vn 0.002228 0.4302 0.9027
vn -0.5025 0.834 -0.2279
vn -0.4317 0.902 0.002808
vn -0.8567 0.5141 -0.04236
vn -0.8149 0.5699 0.1049
vn -0.7657 0.5771 0.284
vn -0.3199 0.9054 0.279
vn -0.5728 0.6385 -0.514
vn -0.5421 0.753 -0.3729
vn -0.8977 0.3862 -0.2117
vn -0.8827 0.4522 -0.1278
vn -0.5763 0.4299 -0.695
vn -0.5818 0.4192 -0.697
vn -0.9048 0.2636 -0.3344
vn -0.9057 0.2653 -0.3307
vn -0.05026 0.08243 0.9953
vn -0.06607 0.02017 0.9976
vn -0.6523 0.06067 0.7555
vn -0.669 0.01502 0.7431
vn -0.01843 0.2408 0.9704
vn -0.6219 0.1787 0.7624
vn -0.197 0.8386 0.5077
vn -0.7183 0.5436 0.4342
vn 0.7021 -0.4489 -0.5527
vn 0.747 -0.4738 -0.4663
vn 0.7384 -0.4671 -0.4865
vn 0.739 -0.4148 -0.5308
vn 0.7584 -0.3373 -0.5577
vn 0.7738 -0.2495 -0.5822
vn 0.7744 -0.07096 -0.6287
vn 0.8181 0.03806 -0.5737
vn 0.8383 -0.01947 -0.5448
vn 0.8858 -0.0448 -0.4619
vn 0.9364 -0.01392 -0.3507
vn 0.9577 0 -0.2878
vn 0.9364 0.01395 -0.3507
vn 0.8858 0.04483 -0.4619
vn 0.8383 0.0195 -0.5448
vn 0.8181 -0.03818 -0.5737
vn 0.7738 0.073 -0.6291
vn 0.7738 0.2542 -0.5801
vn 0.7015 0.4448 -0.5567
vn 0.7602 0.3405 -0.5533
vn 0.7425 0.4143 -0.5262
vn 0.7418 0.4638 -0.4843
vn 0.7479 0.4707 -0.468
vn -0.8744 0.4529 -0.1741
vn -0.8542 0.5191 -0.03021
vn -0.8502 0.5249 -0.04053
vn -0.8528 0.5136 -0.09449
vn -0.8545 0.4942 -0.1598
vn -0.8598 0.4409 -0.2575
vn -0.897 0.1862 -0.4008
vn -0.9445 -0.05493 -0.3237
vn -0.9425 0.01111 -0.3341
vn -0.9426 0.06375 -0.3278
vn -0.9445 0.04309 -0.3255
vn -0.8727 -0.4641 -0.1513
vn -0.9456 0 -0.3252
vn -0.9445 -0.04312 -0.3255
vn -0.9426 -0.06375 -0.3278
vn -0.9425 -0.01111 -0.3341
vn -0.9445 0.05493 -0.3237
vn -0.897 -0.1863 -0.4008
vn -0.8596 -0.4414 -0.2571
vn -0.8535 -0.4968 -0.1575
vn -0.8498 -0.5199 -0.08615
vn -0.846 -0.5327 -0.02322
vn -0.8508 -0.5254 -0.005737
f 1/1/1 2/2/2 3/3/3
f 1/1/1 3/3/3 4/4/4
f 2/2/2 5/5/5 6/6/6
f 2/2/2 6/6/6 3/3/3
f 3/3/3 6/6/6 7/7/7
f 3/3/3 7/7/7 8/8/8
f 4/4/4 3/3/3 8/8/8
f 4/4/4 8/8/8 9/9/9
f 10/10/10 11/11/11 12/12/12
f 10/10/10 12/12/12 13/13/13
f 11/11/11 14/14/14 15/15/15
f 11/11/11 15/15/15 12/12/12
f 12/12/12 15/15/15 16/16/16
f 12/12/12 16/16/16 17/17/17
f 13/13/13 12/12/12 17/17/17
f 13/13/13 17/17/17 18/18/18
f 19/19/19 20/20/20 21/21/21
f 19/19/19 21/21/21 22/22/22
f 20/20/20 23/23/23 24/24/24
f 20/20/20 24/24/24 21/21/21
f 21/21/21 24/24/24 25/25/25
f 21/21/21 25/25/25 26/26/26
f 22/22/22 21/21/21 26/26/26
f 22/22/22 26/26/26 27/27/27
f 18/18/18 17/17/17 28/28/28
f 18/18/18 28/28/28 29/29/29
f 17/17/17 16/16/16 30/30/30
f 17/17/17 30/30/30 28/28/28
f 28/28/28 30/30/30 31/31/31
f 28/28/28 31/31/31 32/32/32
f 29/29/29 28/28/28 32/32/32
f 29/29/29 32/32/32 33/33/33
f 9/9/9 8/8/8 34/34/34
f 9/9/9 34/34/34 35/35/35
f 8/8/8 7/7/7 36/36/36
f 8/8/8 36/36/36 34/34/34
f 34/34/34 36/36/36 37/37/37
f 34/34/34 37/37/37 38/38/38
f 35/35/35 34/34/34 38/38/38
f 35/35/35 38/38/38 39/39/39
f 40/40/40 41/41/41 42/42/42
f 40/40/40 42/42/42 43/43/43
f 41/41/41 44/44/44 45/45/45
f 41/41/41 45/45/45 42/42/42
f 42/42/42 45/45/45 46/46/46
f 42/42/42 46/46/46 47/47/47
f 43/43/43 42/42/42 47/47/47
f 43/43/43 47/47/47 48/48/48
f 16/16/16 49/49/49 50/50/50
f 16/16/16 50/50/50 30/30/30
f 49/49/49 51/51/51 52/52/52
f 49/49/49 52/52/52 50/50/50
f 50/50/50 52/52/52 53/53/53
f 50/50/50 53/53/53 54/54/54
f 30/30/30 50/50/50 54/54/54
f 30/30/30 54/54/54 31/31/31
f 14/14/14 55/55/55 56/56/56
f 14/14/14 56/56/56 15/15/15
f 55/55/55 57/57/57 58/58/58
f 55/55/55 58/58/58 56/56/56
f 56/56/56 58/58/58 51/51/51
f 56/56/56 51/51/51 49/49/49
f 15/15/15 56/56/56 49/49/49
f 15/15/15 49/49/49 16/16/16
f 59/59/59 60/60/60 61/61/61
f 59/59/59 61/61/61 62/62/62
f 60/60/60 63/63/63 64/64/64
f 60/60/60 64/64/64 61/61/61
f 61/61/61 64/64/64 65/65/65
f 61/61/61 65/65/65 66/66/66
f 62/62/62 61/61/61 66/66/66
f 62/62/62 66/66/66 67/67/67
f 68/68/68 69/69/69 70/70/70
f 68/68/68 70/70/70 71/71/71
f 69/69/69 59/59/59 62/62/62
f 69/69/69 62/62/62 70/70/70
f 70/70/70 62/62/62 67/67/67
f 70/70/70 67/67/67 72/72/72
f 71/71/71 70/70/70 72/72/72
f 71/71/71 72/72/72 73/73/73
f 74/74/74 75/75/75 76/76/76
f 74/74/74 76/76/76 77/77/77
f 75/75/75 78/78/78 79/79/79
f 75/75/75 79/79/79 76/76/76
f 76/76/76 79/79/79 80/80/80
f 76/76/76 80/80/80 81/81/81
f 77/77/77 76/76/76 81/81/81
f 77/77/77 81/81/81 82/82/82
f 83/83/83 84/84/84 85/85/85
f 83/83/83 85/85/85 86/86/86
f 84/84/84 19/19/19 22/22/22
f 84/84/84 22/22/22 85/85/85
f 85/85/85 22/22/22 27/27/27
f 85/85/85 27/27/27 87/87/87
f 86/86/86 85/85/85 87/87/87
f 86/86/86 87/87/87 88/88/88
f 67/67/67 66/66/66 89/89/89
f 67/67/67 89/89/89 90/90/90
f 66/66/66 65/65/65 91/91/91
f 66/66/66 91/91/91 89/89/89
f 89/89/89 91/91/91 57/57/57
f 89/89/89 57/57/57 55/55/55
f 90/90/90 89/89/89 55/55/55
f 90/90/90 55/55/55 14/14/14
f 73/73/73 72/72/72 92/92/92
f 73/73/73 92/92/92 93/93/93
f 72/72/72 67/67/67 90/90/90
f 72/72/72 90/90/90 92/92/92
f 92/92/92 90/90/90 14/14/14
f 92/92/92 14/14/14 11/11/11
f 93/93/93 92/92/92 11/11/11
f 93/93/93 11/11/11 10/10/10
f 82/82/82 81/81/81 94/94/94
f 82/82/82 94/94/94 95/95/95
f 81/81/81 80/80/80 96/96/96
f 81/81/81 96/96/96 94/94/94
f 94/94/94 96/96/96 5/5/5
f 94/94/94 5/5/5 2/2/2
f 95/95/95 94/94/94 2/2/2
f 95/95/95 2/2/2 1/1/1
f 44/44/44 97/97/97 98/98/98
f 44/44/44 98/98/98 45/45/45
f 97/97/97 83/83/83 86/86/86
f 97/97/97 86/86/86 98/98/98
f 98/98/98 86/86/86 88/88/88
f 98/98/98 88/88/88 99/99/99
f 45/45/45 98/98/98 99/99/99
f 45/45/45 99/99/99 46/46/46
f 100/100/100 101/101/101 102/102/102
f 100/100/100 102/102/102 103/103/103
f 101/101/101 104/104/104 105/105/105
f 101/101/101 105/105/105 102/102/102
f 102/102/102 105/105/105 83/83/83
f 102/102/102 83/83/83 97/97/97
f 103/103/103 102/102/102 97/97/97
f 103/103/103 97/97/97 44/44/44
f 104/104/104 106/106/106 107/107/107
f 104/104/104 107/107/107 105/105/105
f 106/106/106 108/108/108 109/109/109
f 106/106/106 109/109/109 107/107/107
f 107/107/107 109/109/109 19/19/19
f 107/107/107 19/19/19 84/84/84
f 105/105/105 107/107/107 84/84/84
f 105/105/105 84/84/84 83/83/83
f 110/110/110 111/111/111 112/112/112
f 110/110/110 112/112/112 113/113/113
f 111/111/111 100/100/100 103/103/103
f 111/111/111 103/103/103 112/112/112
f 112/112/112 103/103/103 44/44/44
f 112/112/112 44/44/44 41/41/41
f 113/113/113 112/112/112 41/41/41
f 113/113/113 41/41/41 40/40/40
f 108/108/108 114/114/114 115/115/115
f 108/108/108 115/115/115 109/109/109
f 114/114/114 116/116/116 117/117/117
f 114/114/114 117/117/117 115/115/115
f 115/115/115 117/117/117 23/23/23
f 115/115/115 23/23/23 20/20/20
f 109/109/109 115/115/115 20/20/20
f 109/109/109 20/20/20 19/19/19
f 80/80/80 118/118/118 119/119/119
f 80/80/80 119/119/119 96/96/96
f 118/118/118 73/73/73 93/93/93
f 118/118/118 93/93/93 119/119/119
f 119/119/119 93/93/93 10/10/10
f 119/119/119 10/10/10 120/120/120
f 96/96/96 119/119/119 120/120/120
f 96/96/96 120/120/120 5/5/5
f 78/78/78 121/121/121 122/122/122
f 78/78/78 122/122/122 79/79/79
f 121/121/121 68/68/68 71/71/71
f 121/121/121 71/71/71 122/122/122
f 122/122/122 71/71/71 73/73/73
f 122/122/122 73/73/73 118/118/118
f 79/79/79 122/122/122 118/118/118
f 79/79/79 118/118/118 80/80/80
f 7/7/7 123/123/123 124/124/124
f 7/7/7 124/124/124 36/36/36
f 123/123/123 18/18/18 29/29/29
f 123/123/123 29/29/29 124/124/124
f 124/124/124 29/29/29 33/33/33
f 124/124/124 33/33/33 125/125/125
f 36/36/36 124/124/124 125/125/125
f 36/36/36 125/125/125 37/37/37
f 5/5/5 120/120/120 126/126/126
f 5/5/5 126/126/126 6/6/6
f 120/120/120 10/10/10 13/13/13
f 120/120/120 13/13/13 126/126/126
f 126/126/126 13/13/13 18/18/18
f 126/126/126 18/18/18 123/123/123
f 6/6/6 126/126/126 123/123/123
f 6/6/6 123/123/123 7/7/7
f 27/27/27 127/127/127 128/128/128
f 27/27/27 128/128/128 87/87/87
f 127/127/127 82/82/82 95/95/95
f 127/127/127 95/95/95 128/128/128
f 128/128/128 95/95/95 1/1/1
f 128/128/128 1/1/1 129/129/129
f 87/87/87 128/128/128 129/129/129
f 87/87/87 129/129/129 88/88/88
f 25/25/25 130/130/130 131/131/131
f 25/25/25 131/131/131 26/26/26
f 130/130/130 74/74/74 77/77/77
f 130/130/130 77/77/77 131/131/131
f 131/131/131 77/77/77 82/82/82
f 131/131/131 82/82/82 127/127/127
f 26/26/26 131/131/131 127/127/127
f 26/26/26 127/127/127 27/27/27
f 46/46/46 132/132/132 133/133/133
f 46/46/46 133/133/133 47/47/47
f 132/132/132 9/9/9 35/35/35
f 132/132/132 35/35/35 133/133/133
f 133/133/133 35/35/35 39/39/39
f 133/133/133 39/39/39 134/134/134
f 47/47/47 133/133/133 134/134/134
f 47/47/47 134/134/134 48/48/48
f 88/88/88 129/129/129 135/135/135
f 88/88/88 135/135/135 99/99/99
f 129/129/129 1/1/1 4/4/4
f 129/129/129 4/4/4 135/135/135
f 135/135/135 4/4/4 9/9/9
f 135/135/135 9/9/9 132/132/132
f 99/99/99 135/135/135 132/132/132
f 99/99/99 132/132/132 46/46/46
f 136/136/136 137/137/137 138/138/138
f 136/136/136 138/138/138 139/139/139
f 137/137/137 140/140/140 141/141/141
f 137/137/137 141/141/141 138/138/138
f 138/138/138 141/141/141 116/116/116
f 138/138/138 116/116/116 114/114/114
f 139/139/139 138/138/138 114/114/114
f 139/139/139 114/114/114 108/108/108
f 142/142/142 143/143/143 144/144/144
f 142/142/142 144/144/144 145/145/145
f 143/143/143 146/146/146 147/147/147
f 143/143/143 147/147/147 144/144/144
f 144/144/144 147/147/147 100/100/100
f 144/144/144 100/100/100 111/111/111
f 145/145/145 144/144/144 111/111/111
f 145/145/145 111/111/111 110/110/110
f 148/148/148 149/149/149 150/150/150
f 148/148/148 150/150/150 151/151/151
f 149/149/149 136/136/136 139/139/139
f 149/149/149 139/139/139 150/150/150
f 150/150/150 139/139/139 108/108/108
f 150/150/150 108/108/108 106/106/106
f 151/151/151 150/150/150 106/106/106
f 151/151/151 106/106/106 104/104/104
f 146/146/146 152/152/152 153/153/153
f 146/146/146 153/153/153 147/147/147
f 152/152/152 148/148/148 151/151/151
f 152/152/152 151/151/151 153/153/153
f 153/153/153 151/151/151 104/104/104
f 153/153/153 104/104/104 101/101/101
f 147/147/147 153/153/153 101/101/101
f 147/147/147 101/101/101 100/100/100
f 116/116/116 141/141/141 154/154/154
f 116/116/116 154/154/154 155/155/155
f 141/141/141 140/140/140 156/156/156
f 141/141/141 156/156/156 154/154/154
f 154/154/154 156/156/156 157/157/157
f 154/154/154 157/157/157 158/158/158
f 155/155/155 154/154/154 158/158/158
f 155/155/155 158/158/158 159/159/159
f 74/74/74 130/130/130 160/160/160
f 74/74/74 160/160/160 161/161/161
f 130/130/130 25/25/25 162/162/162
f 130/130/130 162/162/162 160/160/160
f 160/160/160 162/162/162 163/163/163
f 160/160/160 163/163/163 164/164/164
f 161/161/161 160/160/160 164/164/164
f 161/161/161 164/164/164 165/165/165
f 68/68/68 121/121/121 166/166/166
f 68/68/68 166/166/166 167/167/167
f 121/121/121 78/78/78 168/168/168
f 121/121/121 168/168/168 166/166/166
f 166/166/166 168/168/168 169/169/169
f 166/166/166 169/169/169 170/170/170
f 167/167/167 166/166/166 170/170/170
f 167/167/167 170/170/170 171/171/171
f 59/59/59 69/69/69 172/172/172
f 59/59/59 172/172/172 173/173/173
f 69/69/69 68/68/68 167/167/167
f 69/69/69 167/167/167 172/172/172
f 172/172/172 167/167/167 171/171/171
f 172/172/172 171/171/171 174/174/174
f 173/173/173 172/172/172 174/174/174
f 173/173/173 174/174/174 175/175/175
f 63/63/63 60/60/60 176/176/176
f 63/63/63 176/176/176 177/177/177
f 60/60/60 59/59/59 173/173/173
f 60/60/60 173/173/173 176/176/176
f 176/176/176 173/173/173 175/175/175
f 176/176/176 175/175/175 178/178/178
f 177/177/177 176/176/176 178/178/178
f 177/177/177 178/178/178 179/179/179
f 23/23/23 117/117/117 180/180/180
f 23/23/23 180/180/180 181/181/181
f 117/117/117 116/116/116 155/155/155
f 117/117/117 155/155/155 180/180/180
f 180/180/180 155/155/155 159/159/159
f 180/180/180 159/159/159 182/182/182
f 181/181/181 180/180/180 182/182/182
f 181/181/181 182/182/182 183/183/183
f 25/25/25 24/24/24 184/184/184
f 25/25/25 184/184/184 162/162/162
f 24/24/24 23/23/23 181/181/181
f 24/24/24 181/181/181 184/184/184
f 184/184/184 181/181/181 183/183/183
f 184/184/184 183/183/183 185/185/185
f 162/162/162 184/184/184 185/185/185
f 162/162/162 185/185/185 163/163/163
f 78/78/78 75/75/75 186/186/186
f 78/78/78 186/186/186 168/168/168
f 75/75/75 74/74/74 161/161/161
f 75/75/75 161/161/161 186/186/186
f 186/186/186 161/161/161 165/165/165
f 186/186/186 165/165/165 187/187/187
f 168/168/168 186/186/186 187/187/187
f 168/168/168 187/187/187 169/169/169
f 188/188/188 189/189/189 190/190/190
f 188/188/188 190/190/190 191/191/191
f 189/189/189 192/192/192 193/193/193
f 189/189/189 193/193/193 190/190/190
f 190/190/190 193/193/193 194/194/194
f 190/190/190 194/194/194 195/195/195
f 191/191/191 190/190/190 195/195/195
f 191/191/191 195/195/195 196/196/196
f 197/197/197 198/198/198 199/199/199
f 197/197/197 199/199/199 200/200/200
f 198/198/198 201/201/201 202/202/202
f 198/198/198 202/202/202 199/199/199
f 199/199/199 202/202/202 203/203/203
f 199/199/199 203/203/203 204/204/204
f 200/200/200 199/199/199 204/204/204
f 200/200/200 204/204/204 205/205/205
f 206/206/206 207/207/207 208/208/208
f 206/206/206 208/208/208 209/209/209
f 207/207/207 210/210/210 211/211/211
f 207/207/207 211/211/211 208/208/208
f 208/208/208 211/211/211 212/212/212
f 208/208/208 212/212/212 213/213/213
f 209/209/209 208/208/208 213/213/213
f 209/209/209 213/213/213 214/214/214
f 201/201/201 215/215/215 216/216/216
f 201/201/201 216/216/216 202/202/202
f 215/215/215 217/217/217 218/218/218
f 215/215/215 218/218/218 216/216/216
f 216/216/216 218/218/218 219/219/219
f 216/216/216 219/219/219 220/220/220
f 202/202/202 216/216/216 220/220/220
f 202/202/202 220/220/220 203/203/203
f 192/192/192 221/221/221 222/222/222
f 192/192/192 222/222/222 193/193/193
f 221/221/221 223/223/223 224/224/224
f 221/221/221 224/224/224 222/222/222
f 222/222/222 224/224/224 225/225/225
f 222/222/222 225/225/225 226/226/226
f 193/193/193 222/222/222 226/226/226
f 193/193/193 226/226/226 194/194/194
f 227/227/227 228/228/228 229/229/229
f 227/227/227 229/229/229 230/230/230
f 228/228/228 231/231/231 232/232/232
f 228/228/228 232/232/232 229/229/229
f 229/229/229 232/232/232 233/233/233
f 229/229/229 233/233/233 234/234/234
f 230/230/230 229/229/229 234/234/234
f 230/230/230 234/234/234 235/235/235
f 203/203/203 220/220/220 236/236/236
f 203/203/203 236/236/236 237/237/237
f 220/220/220 219/219/219 238/238/238
f 220/220/220 238/238/238 236/236/236
f 236/236/236 238/238/238 239/239/239
f 236/236/236 239/239/239 240/240/240
f 237/237/237 236/236/236 240/240/240
f 237/237/237 240/240/240 241/241/241
f 205/205/205 204/204/204 242/242/242
f 205/205/205 242/242/242 243/243/243
f 204/204/204 203/203/203 237/237/237
f 204/204/204 237/237/237 242/242/242
f 242/242/242 237/237/237 241/241/241
f 242/242/242 241/241/241 244/244/244
f 243/243/243 242/242/242 244/244/244
f 243/243/243 244/244/244 245/245/245
f 246/246/246 247/247/247 248/248/248
f 246/246/246 248/248/248 249/249/249
f 247/247/247 250/250/250 251/251/251
f 247/247/247 251/251/251 248/248/248
f 248/248/248 251/251/251 252/252/252
f 248/248/248 252/252/252 253/253/253
f 249/249/249 248/248/248 253/253/253
f 249/249/249 253/253/253 254/254/254
f 255/255/255 256/256/256 257/257/257
f 255/255/255 257/257/257 258/258/258
f 256/256/256 259/259/259 260/260/260
f 256/256/256 260/260/260 257/257/257
f 257/257/257 260/260/260 250/250/250
f 257/257/257 250/250/250 247/247/247
f 258/258/258 257/257/257 247/247/247
f 258/258/258 247/247/247 246/246/246
f 261/261/261 262/262/262 263/263/263
f 261/261/261 263/263/263 264/264/264
f 262/262/262 265/265/265 266/266/266
f 262/262/262 266/266/266 263/263/263
f 263/263/263 266/266/266 267/267/267
f 263/263/263 267/267/267 268/268/268
f 264/264/264 263/263/263 268/268/268
f 264/264/264 268/268/268 269/269/269
f 270/270/270 271/271/271 272/272/272
f 270/270/270 272/272/272 273/273/273
f 271/271/271 274/274/274 275/275/275
f 271/271/271 275/275/275 272/272/272
f 272/272/272 275/275/275 210/210/210
f 272/272/272 210/210/210 207/207/207
f 273/273/273 272/272/272 207/207/207
f 273/273/273 207/207/207 206/206/206
f 250/250/250 276/276/276 277/277/277
f 250/250/250 277/277/277 251/251/251
f 276/276/276 205/205/205 243/243/243
f 276/276/276 243/243/243 277/277/277
f 277/277/277 243/243/243 245/245/245
f 277/277/277 245/245/245 278/278/278
f 251/251/251 277/277/277 278/278/278
f 251/251/251 278/278/278 252/252/252
f 259/259/259 279/279/279 280/280/280
f 259/259/259 280/280/280 260/260/260
f 279/279/279 197/197/197 200/200/200
f 279/279/279 200/200/200 280/280/280
f 280/280/280 200/200/200 205/205/205
f 280/280/280 205/205/205 276/276/276
f 260/260/260 280/280/280 276/276/276
f 260/260/260 276/276/276 250/250/250
f 265/265/265 281/281/281 282/282/282
f 265/265/265 282/282/282 266/266/266
f 281/281/281 188/188/188 191/191/191
f 281/281/281 191/191/191 282/282/282
f 282/282/282 191/191/191 196/196/196
f 282/282/282 196/196/196 283/283/283
f 266/266/266 282/282/282 283/283/283
f 266/266/266 283/283/283 267/267/267
f 235/235/235 234/234/234 284/284/284
f 235/235/235 284/284/284 285/285/285
f 234/234/234 233/233/233 286/286/286
f 234/234/234 286/286/286 284/284/284
f 284/284/284 286/286/286 274/274/274
f 284/284/284 274/274/274 271/271/271
f 285/285/285 284/284/284 271/271/271
f 285/285/285 271/271/271 270/270/270
f 287/287/287 288/288/288 289/289/289
f 287/287/287 289/289/289 290/290/290
f 288/288/288 235/235/235 285/285/285
f 288/288/288 285/285/285 289/289/289
f 289/289/289 285/285/285 270/270/270
f 289/289/289 270/270/270 291/291/291
f 290/290/290 289/289/289 291/291/291
f 290/290/290 291/291/291 292/292/292
f 292/292/292 291/291/291 293/293/293
f 292/292/292 293/293/293 294/294/294
f 291/291/291 270/270/270 273/273/273
f 291/291/291 273/273/273 293/293/293
f 293/293/293 273/273/273 206/206/206
f 293/293/293 206/206/206 295/295/295
f 294/294/294 293/293/293 295/295/295
f 294/294/294 295/295/295 296/296/296
f 297/297/297 298/298/298 299/299/299
f 297/297/297 299/299/299 300/300/300
f 298/298/298 227/227/227 230/230/230
f 298/298/298 230/230/230 299/299/299
f 299/299/299 230/230/230 235/235/235
f 299/299/299 235/235/235 288/288/288
f 300/300/300 299/299/299 288/288/288
f 300/300/300 288/288/288 287/287/287
f 296/296/296 295/295/295 301/301/301
f 296/296/296 301/301/301 302/302/302
f 295/295/295 206/206/206 209/209/209
f 295/295/295 209/209/209 301/301/301
f 301/301/301 209/209/209 214/214/214
f 301/301/301 214/214/214 303/303/303
f 302/302/302 301/301/301 303/303/303
f 302/302/302 303/303/303 304/304/304
f 267/267/267 283/283/283 305/305/305
f 267/267/267 305/305/305 306/306/306
f 283/283/283 196/196/196 307/307/307
f 283/283/283 307/307/307 305/305/305
f 305/305/305 307/307/307 197/197/197
f 305/305/305 197/197/197 279/279/279
f 306/306/306 305/305/305 279/279/279
f 306/306/306 279/279/279 259/259/259
f 269/269/269 268/268/268 308/308/308
f 269/269/269 308/308/308 309/309/309
f 268/268/268 267/267/267 306/306/306
f 268/268/268 306/306/306 308/308/308
f 308/308/308 306/306/306 259/259/259
f 308/308/308 259/259/259 256/256/256
f 309/309/309 308/308/308 256/256/256
f 309/309/309 256/256/256 255/255/255
f 194/194/194 226/226/226 310/310/310
f 194/194/194 310/310/310 311/311/311
f 226/226/226 225/225/225 312/312/312
f 226/226/226 312/312/312 310/310/310
f 310/310/310 312/312/312 217/217/217
f 310/310/310 217/217/217 215/215/215
f 311/311/311 310/310/310 215/215/215
f 311/311/311 215/215/215 201/201/201
f 196/196/196 195/195/195 313/313/313
f 196/196/196 313/313/313 307/307/307
f 195/195/195 194/194/194 311/311/311
f 195/195/195 311/311/311 313/313/313
f 313/313/313 311/311/311 201/201/201
f 313/313/313 201/201/201 198/198/198
f 307/307/307 313/313/313 198/198/198
f 307/307/307 198/198/198 197/197/197
f 210/210/210 275/275/275 314/314/314
f 210/210/210 314/314/314 315/315/315
f 275/275/275 274/274/274 316/316/316
f 275/275/275 316/316/316 314/314/314
f 314/314/314 316/316/316 188/188/188
f 314/314/314 188/188/188 281/281/281
f 315/315/315 314/314/314 281/281/281
f 315/315/315 281/281/281 265/265/265
f 212/212/212 211/211/211 317/317/317
f 212/212/212 317/317/317 318/318/318
f 211/211/211 210/210/210 315/315/315
f 211/211/211 315/315/315 317/317/317
f 317/317/317 315/315/315 265/265/265
f 317/317/317 265/265/265 262/262/262
f 318/318/318 317/317/317 262/262/262
f 318/318/318 262/262/262 261/261/261
f 233/233/233 232/232/232 319/319/319
f 233/233/233 319/319/319 320/320/320
f 232/232/232 231/231/231 321/321/321
f 232/232/232 321/321/321 319/319/319
f 319/319/319 321/321/321 223/223/223
f 319/319/319 223/223/223 221/221/221
f 320/320/320 319/319/319 221/221/221
f 320/320/320 221/221/221 192/192/192
f 274/274/274 286/286/286 322/322/322
f 274/274/274 322/322/322 316/316/316
f 286/286/286 233/233/233 320/320/320
f 286/286/286 320/320/320 322/322/322
f 322/322/322 320/320/320 192/192/192
f 322/322/322 192/192/192 189/189/189
f 316/316/316 322/322/322 189/189/189
f 316/316/316 189/189/189 188/188/188
f 136/136/136 323/323/323 324/324/324
f 136/136/136 324/324/324 137/137/137
f 323/323/323 296/296/296 302/302/302
f 323/323/323 302/302/302 324/324/324
f 324/324/324 302/302/302 304/304/304
f 324/324/324 304/304/304 325/325/325
f 137/137/137 324/324/324 325/325/325
f 137/137/137 325/325/325 140/140/140
f 142/142/142 326/326/326 327/327/327
f 142/142/142 327/327/327 143/143/143
f 326/326/326 297/297/297 300/300/300
f 326/326/326 300/300/300 327/327/327
f 327/327/327 300/300/300 287/287/287
f 327/327/327 287/287/287 328/328/328
f 143/143/143 327/327/327 328/328/328
f 143/143/143 328/328/328 146/146/146
f 148/148/148 329/329/329 330/330/330
f 148/148/148 330/330/330 149/149/149
f 329/329/329 292/292/292 294/294/294
f 329/329/329 294/294/294 330/330/330
f 330/330/330 294/294/294 296/296/296
f 330/330/330 296/296/296 323/323/323
f 149/149/149 330/330/330 323/323/323
f 149/149/149 323/323/323 136/136/136
f 146/146/146 328/328/328 331/331/331
f 146/146/146 331/331/331 152/152/152
f 328/328/328 287/287/287 290/290/290
f 328/328/328 290/290/290 331/331/331
f 331/331/331 290/290/290 292/292/292
f 331/331/331 292/292/292 329/329/329
f 152/152/152 331/331/331 329/329/329
f 152/152/152 329/329/329 148/148/148
f 304/304/304 332/332/332 333/333/333
f 304/304/304 333/333/333 325/325/325
f 332/332/332 334/334/334 335/335/335
f 332/332/332 335/335/335 333/333/333
f 333/333/333 335/335/335 157/157/157
f 333/333/333 157/157/157 156/156/156
f 325/325/325 333/333/333 156/156/156
f 325/325/325 156/156/156 140/140/140
f 261/261/261 336/336/336 337/337/337
f 261/261/261 337/337/337 318/318/318
f 336/336/336 338/338/338 339/339/339
f 336/336/336 339/339/339 337/337/337
f 337/337/337 339/339/339 340/340/340
f 337/337/337 340/340/340 341/341/341
f 318/318/318 337/337/337 341/341/341
f 318/318/318 341/341/341 212/212/212
f 255/255/255 342/342/342 343/343/343
f 255/255/255 343/343/343 309/309/309
f 342/342/342 344/344/344 345/345/345
f 342/342/342 345/345/345 343/343/343
f 343/343/343 345/345/345 346/346/346
f 343/343/343 346/346/346 347/347/347
f 309/309/309 343/343/343 347/347/347
f 309/309/309 347/347/347 269/269/269
f 246/246/246 348/348/348 349/349/349
f 246/246/246 349/349/349 258/258/258
f 348/348/348 350/350/350 351/351/351
f 348/348/348 351/351/351 349/349/349
f 349/349/349 351/351/351 344/344/344
f 349/349/349 344/344/344 342/342/342
f 258/258/258 349/349/349 342/342/342
f 258/258/258 342/342/342 255/255/255
f 254/254/254 352/352/352 353/353/353
f 254/254/254 353/353/353 249/249/249
f 352/352/352 354/354/354 355/355/355
f 352/352/352 355/355/355 353/353/353
f 353/353/353 355/355/355 350/350/350
f 353/353/353 350/350/350 348/348/348
f 249/249/249 353/353/353 348/348/348
f 249/249/249 348/348/348 246/246/246
f 214/214/214 356/356/356 357/357/357
f 214/214/214 357/357/357 303/303/303
f 356/356/356 358/358/358 359/359/359
f 356/356/356 359/359/359 357/357/357
f 357/357/357 359/359/359 334/334/334
f 357/357/357 334/334/334 332/332/332
f 303/303/303 357/357/357 332/332/332
f 303/303/303 332/332/332 304/304/304
f 212/212/212 341/341/341 360/360/360
f 212/212/212 360/360/360 213/213/213
f 341/341/341 340/340/340 361/361/361
f 341/341/341 361/361/361 360/360/360
f 360/360/360 361/361/361 358/358/358
f 360/360/360 358/358/358 356/356/356
f 213/213/213 360/360/360 356/356/356
f 213/213/213 356/356/356 214/214/214
f 269/269/269 347/347/347 362/362/362
f 269/269/269 362/362/362 264/264/264
f 347/347/347 346/346/346 363/363/363
f 347/347/347 363/363/363 362/362/362
f 362/362/362 363/363/363 338/338/338
f 362/362/362 338/338/338 336/336/336
f 264/264/264 362/362/362 336/336/336
f 264/264/264 336/336/336 261/261/261
f 37/37/37 125/125/125 33/33/33
f 33/33/33 32/32/32 31/31/31
f 31/31/31 54/54/54 53/53/53
f 33/33/33 31/31/31 53/53/53
f 38/38/38 37/37/37 33/33/33
f 134/134/134 39/39/39 38/38/38
f 43/43/43 48/48/48 134/134/134
f 113/113/113 40/40/40 43/43/43
f 145/145/145 110/110/110 113/113/113
f 145/145/145 113/113/113 43/43/43
f 43/43/43 134/134/134 38/38/38
f 38/38/38 33/33/33 53/53/53
f 38/38/38 53/53/53 364/364/364
f 145/145/145 43/43/43 38/38/38
f 142/142/142 145/145/145 38/38/38
f 38/38/38 364/364/364 365/365/365
f 365/365/365 366/366/366 367/367/367
f 367/367/367 368/368/368 369/369/369
f 369/369/369 370/370/370 371/371/371
f 372/372/372 373/373/373 374/374/374
f 369/369/369 371/371/371 372/372/372
f 365/365/365 367/367/367 369/369/369
f 142/142/142 38/38/38 365/365/365
f 298/298/298 297/297/297 326/326/326
f 326/326/326 142/142/142 365/365/365
f 365/365/365 369/369/369 372/372/372
f 372/372/372 374/374/374 375/375/375
f 375/375/375 376/376/376 377/377/377
f 375/375/375 377/377/377 378/378/378
f 365/365/365 372/372/372 375/375/375
f 298/298/298 326/326/326 365/365/365
f 228/228/228 227/227/227 298/298/298
f 321/321/321 231/231/231 228/228/228
f 224/224/224 223/223/223 321/321/321
f 312/312/312 225/225/225 224/224/224
f 218/218/218 217/217/217 312/312/312
f 238/238/238 219/219/219 218/218/218
f 239/239/239 238/238/238 218/218/218
f 218/218/218 312/312/312 224/224/224
f 224/224/224 321/321/321 228/228/228
f 228/228/228 298/298/298 365/365/365
f 365/365/365 375/375/375 378/378/378
f 379/379/379 380/380/380 381/381/381
f 365/365/365 378/378/378 379/379/379
f 224/224/224 228/228/228 365/365/365
f 239/239/239 218/218/218 224/224/224
f 382/382/382 239/239/239 224/224/224
f 224/224/224 365/365/365 379/379/379
f 379/379/379 381/381/381 383/383/383
f 383/383/383 384/384/384 385/385/385
f 386/386/386 382/382/382 224/224/224
f 383/383/383 385/385/385 386/386/386
f 224/224/224 379/379/379 383/383/383
f 383/383/383 386/386/386 224/224/224
f 171/171/171 170/170/170 169/169/169
f 169/169/169 187/187/187 165/165/165
f 165/165/165 164/164/164 163/163/163
f 163/163/163 185/185/185 183/183/183
f 183/183/183 182/182/182 159/159/159
f 159/159/159 158/158/158 157/157/157
f 157/157/157 335/335/335 334/334/334
f 334/334/334 359/359/359 358/358/358
f 358/358/358 361/361/361 340/340/340
f 340/340/340 339/339/339 338/338/338
f 338/338/338 363/363/363 346/346/346
f 346/346/346 345/345/345 344/344/344
f 344/344/344 351/351/351 350/350/350
f 350/350/350 355/355/355 354/354/354
f 344/344/344 350/350/350 354/354/354
f 338/338/338 346/346/346 344/344/344
f 358/358/358 340/340/340 338/338/338
f 157/157/157 334/334/334 358/358/358
f 183/183/183 159/159/159 157/157/157
f 165/165/165 163/163/163 183/183/183
f 171/171/171 169/169/169 165/165/165
f 175/175/175 174/174/174 171/171/171
f 179/179/179 178/178/178 175/175/175
f 179/179/179 175/175/175 171/171/171
f 171/171/171 165/165/165 183/183/183
f 183/183/183 157/157/157 358/358/358
f 358/358/358 338/338/338 344/344/344
f 344/344/344 354/354/354 387/387/387
f 388/388/388 389/389/389 390/390/390
f 358/358/358 344/344/344 387/387/387
f 387/387/387 388/388/388 390/390/390
f 390/390/390 391/391/391 392/392/392
f 392/392/392 393/393/393 394/394/394
f 395/395/395 396/396/396 397/397/397
f 392/392/392 394/394/394 395/395/395
f 387/387/387 390/390/390 392/392/392
f 183/183/183 358/358/358 387/387/387
f 179/179/179 171/171/171 183/183/183
f 398/398/398 179/179/179 183/183/183
f 183/183/183 387/387/387 392/392/392
f 392/392/392 395/395/395 397/397/397
f 397/397/397 399/399/399 400/400/400
f 400/400/400 401/401/401 402/402/402
f 403/403/403 404/404/404 405/405/405
f 397/397/397 400/400/400 402/402/402
f 402/402/402 403/403/403 405/405/405
f 405/405/405 406/406/406 407/407/407
f 407/407/407 408/408/408 409/409/409
f 409/409/409 398/398/398 183/183/183
f 183/183/183 392/392/392 397/397/397
f 397/397/397 402/402/402 405/405/405
f 405/405/405 407/407/407 409/409/409
f 409/409/409 183/183/183 397/397/397
f 397/397/397 405/405/405 409/409/409
