v 1.46557 -0.0955419 0.477644
v 1.45258 -0.0764388 0.470386
v 1.47811 -0.0697614 0.476332
v 1.49107 -0.0867003 0.482817
v 1.44741 -0.0652844 0.473561
v 1.47282 -0.0591158 0.479596
v 1.49246 -0.0526282 0.487997
v 1.49798 -0.0627567 0.485188
v 1.51113 -0.0775125 0.491492
v 1.44638 -0.0556512 0.473233
v 1.47098 -0.0502142 0.478383
v 1.47129 -0.0535388 0.480629
v 1.44609 -0.0592606 0.474728
v 1.49149 -0.0395272 0.484192
v 1.49081 -0.0467292 0.48867
v 1.50717 -0.0319627 0.496089
v 1.50607 -0.0402824 0.499022
v 1.52049 -0.0255596 0.508672
v 1.51919 -0.0342912 0.510536
v 1.52118 -0.0419828 0.510622
v 1.5079 -0.047001 0.49868
v 1.5137 -0.056614 0.497172
v 1.52659 -0.0695635 0.503923
v 1.52728 -0.0510823 0.510918
v 1.53958 -0.0624789 0.518468
v 1.36309 -0.0539637 0.474776
v 1.37752 -0.053188 0.466416
v 1.37634 -0.0661287 0.469026
v 1.36145 -0.0672515 0.477423
v 1.38933 -0.0535021 0.466376
v 1.38998 -0.064941 0.468718
v 1.39135 -0.0729252 0.467561
v 1.37746 -0.0747149 0.467925
v 1.36248 -0.0759337 0.47634
v 1.383 -0.110139 0.48377
v 1.36789 -0.0880059 0.473746
v 1.38288 -0.0868264 0.465291
v 1.39801 -0.109048 0.475254
v 1.39671 -0.084898 0.464827
v 1.41141 -0.106743 0.474304
v 1.41654 -0.0580814 0.469788
v 1.41578 -0.063061 0.47092
v 1.417 -0.0698981 0.469687
v 1.42224 -0.0815253 0.466745
v 1.436 -0.102319 0.475172
v 1.53089 -0.222208 0.631452
v 1.52729 -0.214473 0.628039
v 1.54179 -0.206722 0.618745
v 1.54516 -0.214698 0.621787
v 1.51772 -0.207354 0.615101
v 1.53305 -0.199102 0.606703
v 1.55482 -0.182273 0.598837
v 1.56289 -0.190025 0.609918
v 1.56619 -0.198529 0.612707
v 1.50727 -0.225431 0.645989
v 1.50355 -0.217858 0.642371
v 1.51844 -0.217472 0.633624
v 1.52216 -0.225109 0.637221
v 1.4936 -0.2111 0.629001
v 1.50849 -0.21062 0.620277
v 1.61232 -0.147597 0.611264
v 1.60826 -0.137469 0.608122
v 1.61844 -0.124716 0.611153
v 1.62257 -0.135134 0.614311
v 1.60011 -0.131041 0.598155
v 1.61061 -0.118036 0.60179
v 1.61491 -0.112778 0.606195
v 1.62211 -0.120305 0.614859
v 1.62609 -0.130704 0.617881
v 1.58762 -0.162989 0.606832
v 1.59128 -0.172349 0.609746
v 1.57959 -0.155913 0.59638
v 1.47061 -0.174493 0.550312
v 1.4386 -0.140687 0.506958
v 1.46093 -0.133884 0.505536
v 1.49012 -0.165625 0.546087
v 1.48861 -0.123182 0.505455
v 1.51542 -0.150927 0.542874
v 1.44455 -0.179164 0.562225
v 1.41123 -0.144826 0.517534
v 1.42621 -0.143849 0.508954
v 1.4595 -0.178337 0.553586
v 1.56079 -0.112194 0.548654
v 1.53411 -0.0954975 0.515814
v 1.54832 -0.0848209 0.526289
v 1.57338 -0.0993038 0.55611
v 1.55914 -0.0761991 0.538624
v 1.58138 -0.0903777 0.564897
v 1.51394 -0.109277 0.508755
v 1.54052 -0.131163 0.543837
v 1.41528 9.59632e-06 0.456058
v 1.43379 9.01132e-06 0.454226
v 1.43272 -0.018728 0.456323
v 1.41481 -0.0195906 0.457899
v 1.45314 8.3919e-06 0.453347
v 1.45211 -0.0179011 0.455779
v 1.45009 -0.0326817 0.460626
v 1.43016 -0.0337235 0.460463
v 1.416 -0.0320156 0.460643
v 1.36799 1.10472e-05 0.467116
v 1.38157 1.06723e-05 0.458757
v 1.37997 -0.0296837 0.461505
v 1.36622 -0.0302094 0.469881
v 1.38603 1.05328e-05 0.458078
v 1.38518 -0.0289509 0.460815
v 1.50064 6.67462e-06 0.475153
v 1.51199 6.20501e-06 0.487664
v 1.51029 -0.0176194 0.49075
v 1.49888 -0.0204002 0.478799
v 1.52609 5.62327e-06 0.503015
v 1.52399 -0.0137464 0.505095
v 1.46798 7.90569e-06 0.454162
v 1.46719 -0.0166102 0.456847
v 1.47815 7.55959e-06 0.456308
v 1.47728 -0.0158343 0.45907
v 1.47498 -0.0264331 0.462923
v 1.46611 -0.0299663 0.462032
v 1.5386 -0.170375 0.575836
v 1.56351 -0.146365 0.574777
v 1.58391 -0.123618 0.577746
v 1.59521 -0.110225 0.582825
v 1.60095 -0.102929 0.588862
v 1.47342 -0.200318 0.601523
v 1.48834 -0.199675 0.592835
v 1.49834 -0.195942 0.588447
v 1.51538 -0.186903 0.581777
v 1.47236 -0.21707 0.661237
v 1.46254 -0.210414 0.64803
v 1.47604 -0.224536 0.664814
v 1.43458 -0.223117 0.69001
v 1.43098 -0.215791 0.686498
v 1.42133 -0.209259 0.673535
v 1.33847 -0.0891004 0.494659
v 1.33314 -0.0771887 0.497212
v 1.35339 -0.110923 0.50457
v 1.31421 -0.111636 0.532718
v 1.29957 -0.0902216 0.522989
v 1.29433 -0.0785313 0.525494
v 1.33212 -0.0685633 0.498277
v 1.33375 -0.0551131 0.49565
v 1.29333 -0.0700067 0.526539
v 1.29493 -0.0564 0.523958
v 1.33685 -0.0308776 0.490786
v 1.33861 1.18353e-05 0.488037
v 1.29798 -0.0316317 0.519179
v 1.29971 1.28732e-05 0.516478
v 1.38125 -0.145114 0.537925
v 1.41413 -0.178957 0.582071
v 1.37383 -0.178395 0.608791
v 1.34155 -0.145187 0.565459
v 1.44263 -0.199797 0.620888
v 1.40179 -0.198843 0.646893
v 1.46557 0.0955575 0.477646
v 1.49108 0.0867142 0.482819
v 1.47811 0.0697762 0.476333
v 1.45259 0.0764554 0.470388
v 1.51113 0.0775249 0.491493
v 1.49798 0.0627701 0.485189
v 1.49246 0.0526419 0.487998
v 1.47282 0.0591309 0.479597
v 1.44741 0.0653013 0.473562
v 1.44638 0.0556681 0.473234
v 1.4461 0.0592775 0.474729
v 1.47129 0.053554 0.480629
v 1.47099 0.0502294 0.478384
v 1.49081 0.046743 0.48867
v 1.4915 0.039541 0.484192
v 1.50608 0.040295 0.499023
v 1.50717 0.0319753 0.496089
v 1.5079 0.0470135 0.498681
v 1.52119 0.0419943 0.510623
v 1.51919 0.0343028 0.510536
v 1.52049 0.0255712 0.508672
v 1.52659 0.0695747 0.503924
v 1.5137 0.0566262 0.497173
v 1.53959 0.062489 0.518469
v 1.52728 0.0510934 0.510919
v 1.36309 0.053986 0.474777
v 1.36145 0.0672738 0.477424
v 1.37634 0.0661503 0.469027
v 1.37753 0.0532095 0.466417
v 1.36249 0.075956 0.476342
v 1.37747 0.0747363 0.467926
v 1.39135 0.0729458 0.467562
v 1.38999 0.0649617 0.468719
v 1.38934 0.0535229 0.466377
v 1.38301 0.11016 0.483772
v 1.39801 0.109068 0.475256
v 1.38289 0.0868475 0.465293
v 1.36789 0.0880279 0.473748
v 1.41142 0.106762 0.474306
v 1.39672 0.0849183 0.464828
v 1.41578 0.06308 0.470921
v 1.41655 0.0581003 0.469789
v 1.41701 0.0699169 0.469688
v 1.43601 0.102337 0.475173
v 1.42225 0.0815438 0.466747
v 1.53091 0.222217 0.631455
v 1.54517 0.214706 0.62179
v 1.54181 0.20673 0.618749
v 1.5273 0.214483 0.628043
v 1.5662 0.198536 0.61271
v 1.5629 0.190032 0.609921
v 1.55483 0.18228 0.59884
v 1.53306 0.199112 0.606706
v 1.51773 0.207364 0.615105
v 1.50729 0.225441 0.645993
v 1.52217 0.225118 0.637224
v 1.51845 0.217481 0.633628
v 1.50357 0.217868 0.642374
v 1.50851 0.21063 0.620281
v 1.49361 0.211112 0.629004
v 1.61233 0.147601 0.611266
v 1.62258 0.135137 0.614313
v 1.61845 0.124719 0.611155
v 1.60827 0.137473 0.608124
v 1.6261 0.130707 0.617883
v 1.62211 0.120308 0.614861
v 1.61491 0.112782 0.606197
v 1.61062 0.11804 0.601792
v 1.60012 0.131045 0.598157
v 1.59129 0.172354 0.609749
v 1.58763 0.162994 0.606835
v 1.5796 0.15592 0.596383
v 1.47063 0.174507 0.550315
v 1.49013 0.165638 0.54609
v 1.46094 0.1339 0.505539
v 1.43861 0.140704 0.50696
v 1.51543 0.150938 0.542877
v 1.48862 0.123196 0.505457
v 1.44457 0.17918 0.562228
v 1.45951 0.178352 0.553589
v 1.42622 0.143867 0.508956
v 1.41124 0.144844 0.517536
v 1.5608 0.112202 0.548656
v 1.57338 0.0993111 0.556112
v 1.54833 0.0848303 0.526291
v 1.53412 0.095508 0.515815
v 1.58139 0.0903843 0.564898
v 1.55915 0.0762076 0.538626
v 1.54053 0.131172 0.543839
v 1.51395 0.109289 0.508757
v 1.41481 0.0196098 0.457899
v 1.43272 0.0187461 0.456323
v 1.416 0.0320346 0.460643
v 1.43017 0.0337417 0.460464
v 1.45009 0.0326985 0.460626
v 1.45211 0.0179179 0.455779
v 1.36622 0.0302315 0.469882
v 1.37997 0.0297051 0.461505
v 1.38518 0.028972 0.460815
v 1.49888 0.0204136 0.4788
v 1.5103 0.0176319 0.49075
v 1.52399 0.0137578 0.505095
v 1.46719 0.016626 0.456848
v 1.46612 0.0299821 0.462033
v 1.47499 0.0264483 0.462924
v 1.47728 0.0158494 0.45907
v 1.56352 0.146373 0.57478
v 1.53861 0.170384 0.575838
v 1.58392 0.123624 0.577748
v 1.59522 0.110231 0.582826
v 1.60096 0.102934 0.588864
v 1.48835 0.199687 0.592838
v 1.47344 0.200331 0.601526
v 1.49835 0.195954 0.58845
v 1.51539 0.186914 0.58178
v 1.46255 0.210427 0.648033
v 1.47238 0.217083 0.66124
v 1.42135 0.209275 0.673538
v 1.43099 0.215805 0.686501
v 1.43459 0.223131 0.690014
v 1.47605 0.224548 0.664818
v 1.33314 0.0772126 0.497213
v 1.33848 0.089124 0.49466
v 1.29434 0.0785572 0.525495
v 1.29957 0.0902472 0.52299
v 1.31421 0.11166 0.53272
v 1.35339 0.110945 0.504572
v 1.33375 0.0551369 0.495651
v 1.33212 0.0685873 0.498279
v 1.29493 0.0564259 0.523959
v 1.29334 0.0700327 0.52654
v 1.33685 0.0309014 0.490786
v 1.29798 0.0316576 0.51918
v 1.38126 0.145134 0.537927
v 1.34156 0.145209 0.565462
v 1.37384 0.178415 0.608794
v 1.41415 0.178974 0.582074
v 1.44264 0.199812 0.620891
v 1.4018 0.19886 0.646896
v 1.48186 -0.0342501 0.470892
v 1.4881 -0.0189385 0.466223
v 1.49221 -0.020392 0.471059
v 1.48514 -0.0371596 0.475836
v 1.48948 7.13995e-06 0.462829
v 1.49382 6.96007e-06 0.467425
v 1.39495 1.02329e-05 0.458942
v 1.39494 -0.0247735 0.461257
v 1.38955 -0.0270656 0.461351
v 1.38974 1.04046e-05 0.458798
v 1.40172 -0.0427391 0.465054
v 1.39653 -0.0469553 0.465816
v 1.42189 -0.0491888 0.466864
v 1.41886 -0.0537051 0.468521
v 1.44736 -0.0479046 0.468235
v 1.44679 -0.0521395 0.47097
v 1.46823 -0.0433523 0.470722
v 1.46972 -0.0471039 0.474641
v 1.4881 0.0189528 0.466223
v 1.49221 0.020406 0.47106
v 1.48186 0.0342647 0.470893
v 1.48515 0.037174 0.475836
v 1.40173 0.0427591 0.465055
v 1.39494 0.0247939 0.461257
v 1.38955 0.0270864 0.461352
v 1.39654 0.0469755 0.465817
v 1.44736 0.0479215 0.468236
v 1.42189 0.0492074 0.466865
v 1.41887 0.0537238 0.468522
v 1.44679 0.0521565 0.470971
v 1.46823 0.0433678 0.470723
v 1.46972 0.0471193 0.474641
v 1.48369 -0.0170639 0.462323
v 1.47847 -0.0305271 0.466603
v 1.48484 7.31986e-06 0.459248
v 1.40264 -0.0220527 0.459892
v 1.4027 9.9899e-06 0.457882
v 1.40837 -0.0377581 0.463034
v 1.42592 -0.0432645 0.464167
v 1.44842 -0.0421501 0.464887
v 1.46677 -0.0382743 0.466691
v 1.48369 0.0170785 0.462323
v 1.47848 0.030542 0.466604
v 1.40264 0.0220727 0.459892
v 1.40837 0.0377777 0.463035
v 1.42592 0.0432829 0.464168
v 1.44843 0.042167 0.464888
v 1.46677 0.03829 0.466691
vt 0.4971 0.7946
vt 0.4431 0.78
vt 0.3476 0.9028
vt 0.3389 0.8948
vt 0.4076 0.8986
vt 0.4188 0.837
vt 0.3957 0.8892
vt 0.4296 0.7867
vt 0.4967 0.7912
vt 0.4367 0.8439
vt 0.3393 0.8896
vt 0.3521 0.9029
vt 0.3892 0.819
vt 0.4371 0.8533
vt 0.429 0.8458
vt 0.3393 0.8918
vt 0.3407 0.9072
vt 0.5005 0.7943
vt 0.4693 0.7702
vt 0.4013 0.8981
vt 0.4686 0.7678
vt 0.3414 0.9075
vt 0.444 0.7814
vt 0.4186 0.7951
vt 0.5005 0.7943
vt 0.5007 0.7955
vt 0.3385 0.8917
vt 0.3394 0.9001
vt 0.4787 0.7656
vt 0.4376 0.8494
vt 0.3885 0.8186
vt 0.402 0.9006
vt 0.3799 0.8314
vt 0.3955 0.8992
vt 0.4971 0.7946
vt 0.4172 0.7939
vt 0.34 0.9004
vt 0.4307 0.7879
vt 0.4307 0.7879
vt 0.5003 0.791
vt 0.3393 0.8896
vt 0.414 0.8779
vt 0.3885 0.8186
vt 0.4119 0.8769
vt 0.4296 0.7867
vt 0.4084 0.9007
vt 0.3892 0.819
vt 0.4128 0.8802
vt 0.3892 0.819
vt 0.4013 0.8981
vt 0.4292 0.7861
vt 0.3955 0.8992
vt 0.3912 0.8203
vt 0.4076 0.8986
vt 0.4083 0.8881
vt 0.3827 0.8263
vt 0.4153 0.8812
vt 0.3799 0.8314
vt 0.396 0.9008
vt 0.4167 0.7934
vt 0.4068 0.8938
vt 0.3799 0.8314
vt 0.4161 0.8789
vt 0.3785 0.8345
vt 0.4013 0.8981
vt 0.4172 0.7939
vt 0.4017 0.8996
vt 0.3792 0.8311
vt 0.3964 0.9017
vt 0.414 0.8779
vt 0.379 0.8348
vt 0.4296 0.7867
vt 0.4414 0.8147
vt 0.4701 0.7737
vt 0.414 0.8779
vt 0.3848 0.8276
vt 0.4801 0.7774
vt 0.4484 0.8094
vt 0.4429 0.8008
vt 0.479 0.7675
vt 0.4161 0.8789
vt 0.4712 0.7793
vt 0.4429 0.8008
vt 0.4795 0.7713
vt 0.4167 0.8771
vt 0.4701 0.7737
vt 0.4693 0.7702
vt 0.4349 0.8066
vt 0.415 0.8762
vt 0.4795 0.7713
vt 0.4186 0.8425
vt 0.3978 0.8105
vt 0.4119 0.8769
vt 0.4059 0.8791
vt 0.4132 0.8753
vt 0.3423 0.8898
vt 0.4082 0.8393
vt 0.4131 0.8797
vt 0.5005 0.7943
vt 0.4876 0.7847
vt 0.3799 0.8314
vt 0.414 0.8779
vt 0.3385 0.8917
vt 0.4381 0.8535
vt 0.3393 0.8918
vt 0.4925 0.7845
vt 0.4785 0.7649
vt 0.415 0.8762
vt 0.3393 0.8918
vt 0.4929 0.7914
vt 0.342 0.8947
vt 0.4186 0.8425
vt 0.4132 0.8753
vt 0.4087 0.8341
vt 0.4109 0.8685
vt 0.4975 0.796
vt 0.4194 0.8705
vt 0.4431 0.78
vt 0.4002 0.9106
vt 0.3995 0.8118
vt 0.4031 0.9097
vt 0.4292 0.7861
vt 0.4428 0.7793
vt 0.4017 0.9065
vt 0.4296 0.7867
vt 0.3984 0.9072
vt 0.4871 0.7767
vt 0.4 0.8265
vt 0.394 0.8342
vt 0.4087 0.8341
vt 0.3904 0.8392
vt 0.4188 0.837
vt 0.4807 0.7852
vt 0.444 0.7814
vt 0.4075 0.8173
vt 0.4212 0.8299
vt 0.3995 0.8118
vt 0.4212 0.8299
vt 0.472 0.7873
vt 0.4307 0.7879
vt 0.3888 0.8305
vt 0.4212 0.8299
vt 0.4807 0.7852
vt 0.4186 0.7951
vt 0.3912 0.8203
vt 0.4365 0.8493
vt 0.4962 0.7762
vt 0.4213 0.7971
vt 0.4249 0.8219
vt 0.3888 0.8305
vt 0.496 0.7693
vt 0.394 0.8342
vt 0.4925 0.7845
vt 0.3781 0.8371
vt 0.4919 0.7698
vt 0.379 0.8348
vt 0.4564 0.8138
vt 0.3886 0.8421
vt 0.4306 0.8337
vt 0.4213 0.7971
vt 0.4539 0.8115
vt 0.4378 0.8441
vt 0.3797 0.8383
vt 0.4922 0.7764
vt 0.4347 0.8577
vt 0.435 0.7932
vt 0.4365 0.8493
vt 0.4863 0.7662
vt 0.4362 0.8557
vt 0.3572 0.8932
vt 0.4385 0.8377
vt 0.3574 0.8906
vt 0.4962 0.7762
vt 0.3753 0.8407
vt 0.4867 0.7704
vt 0.4967 0.7912
vt 0.3775 0.8368
vt 0.4964 0.7843
vt 0.3422 0.8919
vt 0.4915 0.7633
vt 0.4371 0.8533
vt 0.4414 0.8311
vt 0.3498 0.8868
vt 0.4422 0.8317
vt 0.3574 0.8906
vt 0.4376 0.8494
vt 0.4644 0.8086
vt 0.3747 0.8404
vt 0.4916 0.7653
vt 0.3785 0.8345
vt 0.4964 0.7843
vt 0.3781 0.8371
vt 0.4915 0.7633
vt 0.4371 0.8558
vt 0.3532 0.8806
vt 0.3775 0.8368
vt 0.4914 0.7627
vt 0.4625 0.8073
vt 0.3617 0.8815
vt 0.486 0.7636
vt 0.3585 0.8874
vt 0.4552 0.8127
vt 0.3771 0.8419
vt 0.4552 0.8127
vt 0.3873 0.8443
vt 0.4625 0.8073
vt 0.4385 0.8377
vt 0.3488 0.8902
vt 0.4861 0.7642
vt 0.3488 0.8902
vt 0.3842 0.8386
vt 0.4497 0.8193
vt 0.4414 0.8311
vt 0.3468 0.8799
vt 0.4916 0.7653
vt 0.3487 0.892
vt 0.4395 0.8381
vt 0.3423 0.8898
vt 0.4564 0.8138
vt 0.383 0.8409
vt 0.449 0.8184
vt 0.3432 0.8863
vt 0.4915 0.7633
vt 0.3873 0.8443
vt 0.4161 0.8743
vt 0.3601 0.871
vt 0.4861 0.7642
vt 0.3601 0.871
vt 0.418 0.8724
vt 0.3684 0.8602
vt 0.4159 0.8717
vt 0.3532 0.8806
vt 0.4863 0.7662
vt 0.3635 0.8585
vt 0.414 0.8744
vt 0.3468 0.8799
vt 0.4689 0.7982
vt 0.4298 0.8504
vt 0.4142 0.8737
vt 0.3543 0.8698
vt 0.3543 0.8698
vt 0.4767 0.7983
vt 0.3528 0.9075
vt 0.4836 0.7961
vt 0.4922 0.7764
vt 0.3521 0.9029
vt 0.4186 0.8425
vt 0.4362 0.8557
vt 0.3771 0.8419
vt 0.4815 0.7924
vt 0.3807 0.836
vt 0.3753 0.8407
vt 0.4767 0.7983
vt 0.379 0.8348
vt 0.4799 0.7999
vt 0.3476 0.9028
vt 0.4929 0.7914
vt 0.3481 0.9075
vt 0.4115 0.8053
vt 0.3852 0.8476
vt 0.3806 0.8444
vt 0.4213 0.7971
vt 0.383 0.8409
vt 0.4085 0.8032
vt 0.383 0.8409
vt 0.3806 0.8444
vt 0.3995 0.8118
vt 0.4204 0.8681
vt 0.4155 0.808
vt 0.418 0.8749
vt 0.3429 0.8794
vt 0.4161 0.8743
vt 0.4262 0.864
vt 0.418 0.8724
vt 0.4155 0.808
vt 0.4173 0.8755
vt 0.3516 0.8693
vt 0.42 0.8731
vt 0.4159 0.8717
vt 0.42 0.8731
vt 0.4063 0.8015
vt 0.4356 0.8436
vt 0.3612 0.8577
vt 0.4172 0.7939
vt 0.3516 0.8693
vt 0.3978 0.8105
vt 0.3516 0.8693
vt 0.4371 0.8533
vt 0.4242 0.8694
vt 0.4069 0.802
vt 0.3438 0.8796
vt 0.4082 0.8393
vt 0.4278 0.8644
vt 0.4069 0.802
vt 0.3986 0.8786
vt 0.4365 0.8493
vt 0.3957 0.8892
vt 0.4876 0.7847
vt 0.4223 0.8688
vt 0.3978 0.8105
vt 0.402 0.8886
vt 0.4188 0.837
vt 0.4059 0.8791
vt 0.4242 0.8694
vt 0.3995 0.8118
vt 0.5007 0.7955
vt 0.4059 0.8791
vt 0.4293 0.8649
vt 0.4085 0.8032
vt 0.4025 0.8665
vt 0.4172 0.7939
vt 0.4089 0.8425
vt 0.402 0.8886
vt 0.4194 0.8464
vt 0.3986 0.8786
vt 0.4069 0.802
vt 0.4083 0.8881
vt 0.4925 0.7845
vt 0.4059 0.8791
vt 0.4085 0.8032
vt 0.4131 0.8797
vt 0.4109 0.8685
vt 0.4186 0.7951
vt 0.4482 0.8174
vt 0.3528 0.9075
vt 0.3586 0.9076
vt 0.444 0.8239
vt 0.3578 0.903
vt 0.3521 0.9029
vt 0.4446 0.8246
vt 0.3521 0.9029
vt 0.449 0.8184
vt 0.444 0.8239
vt 0.3578 0.903
vt 0.4406 0.8306
vt 0.3572 0.8992
vt 0.4414 0.8311
vt 0.3515 0.8992
vt 0.4446 0.8246
vn 0.2481 -0.3984 -0.883
vn 0.1564 0.03403 -0.9871
vn 0.2673 0.1202 -0.9561
vn 0.3925 -0.2824 -0.8753
vn 0.1164 0.2642 -0.9574
vn 0.2152 0.2977 -0.9301
vn 0.371 0.3147 -0.8737
vn 0.4144 0.2227 -0.8824
vn 0.5477 -0.1129 -0.829
vn 0.2099 -0.4596 -0.8629
vn 0.3921 -0.5559 -0.7329
vn 0.3351 -0.1254 -0.9338
vn 0.1797 -0.07611 -0.9807
vn 0.6043 -0.4639 -0.6478
vn 0.5173 -0.1225 -0.8469
vn 0.6951 -0.3632 -0.6204
vn 0.6463 -0.08069 -0.7588
vn 0.8005 -0.1783 -0.5722
vn 0.7733 -0.04602 -0.6323
vn 0.7266 0.1641 -0.6671
vn 0.5219 0.3033 -0.7972
vn 0.5471 0.2975 -0.7824
vn 0.6597 0.06079 -0.749
vn 0.7349 0.1797 -0.6539
vn 0.7834 0.06107 -0.6184
vn -0.5351 -0.1052 -0.8382
vn -0.2679 -0.1679 -0.9487
vn -0.288 -0.03528 -0.9569
vn -0.5409 -0.03125 -0.8405
vn 0.04132 -0.2058 -0.9777
vn 0.02747 -0.02847 -0.9992
vn 0.0005799 0.1845 -0.9828
vn -0.2973 0.07599 -0.9517
vn -0.5397 -0.01184 -0.8418
vn -0.3596 -0.6904 -0.6277
vn -0.4883 -0.3364 -0.8052
vn -0.2407 -0.214 -0.9467
vn -0.1428 -0.6144 -0.7759
vn 0.02585 -0.07327 -0.9969
vn 0.08008 -0.5089 -0.8571
vn 0.1058 -0.2798 -0.9542
vn 0.1 -0.02945 -0.9945
vn 0.06861 0.2276 -0.9713
vn 0.09482 -0.02029 -0.9953
vn 0.153 -0.462 -0.8736
vn -0.4228 -0.3293 -0.8443
vn -0.1386 -0.6987 -0.7018
vn 0.0001526 -0.6149 -0.7885
vn -0.3149 -0.2803 -0.9068
vn 0.107 -0.8568 -0.5044
vn 0.2369 -0.7692 -0.5935
vn 0.4127 -0.6247 -0.6629
vn 0.2224 -0.4705 -0.8539
vn -0.0762 -0.2042 -0.976
vn -0.4762 -0.3691 -0.7981
vn -0.3252 -0.7717 -0.5466
vn -0.2456 -0.7418 -0.624
vn -0.4526 -0.3452 -0.8222
vn -0.1714 -0.9398 -0.2956
vn -0.04572 -0.919 -0.3914
vn 0.2944 -0.09317 -0.9511
vn 0.49 -0.2561 -0.8332
vn 0.6498 -0.09702 -0.7538
vn 0.5362 0.002319 -0.8441
vn 0.6178 -0.3764 -0.6904
vn 0.7078 -0.1861 -0.6814
vn 0.8068 -0.03024 -0.59
vn 0.7905 -0.001556 -0.6125
vn 0.7711 0.03369 -0.6358
vn 0.3879 -0.3452 -0.8546
vn 0.1411 -0.141 -0.9799
vn 0.5448 -0.4862 -0.6832
vn 0.1401 -0.774 -0.6175
vn 0.1127 -0.693 -0.712
vn 0.1995 -0.65 -0.7333
vn 0.2434 -0.7143 -0.6562
vn 0.3201 -0.5854 -0.7448
vn 0.3819 -0.6254 -0.6804
vn -0.228 -0.8846 -0.4067
vn -0.2836 -0.8157 -0.5042
vn -0.09195 -0.7747 -0.6256
vn -0.05506 -0.8529 -0.5192
vn 0.6348 -0.3645 -0.6813
vn 0.6116 -0.3056 -0.7297
vn 0.713 -0.09967 -0.694
vn 0.7254 -0.1624 -0.6689
vn 0.8054 -0.002472 -0.5927
vn 0.8107 -0.02271 -0.585
vn 0.4707 -0.4751 -0.7434
vn 0.5231 -0.5097 -0.683
vn -0.1167 0 -0.9932
vn -0.06134 0 -0.9981
vn -0.04376 -0.1889 -0.981
vn -0.1046 -0.1615 -0.9813
vn 0.01938 0 -0.9998
vn 0.04123 -0.2294 -0.9724
vn 0.08444 -0.3734 -0.9238
vn -0.01175 -0.3218 -0.9467
vn -0.07547 -0.2739 -0.9588
vn -0.5491 0 -0.8357
vn -0.3248 0 -0.9458
vn -0.2984 -0.1243 -0.9463
vn -0.5437 -0.07556 -0.8358
vn 0.02368 0 -0.9997
vn 0.02387 -0.15 -0.9884
vn 0.7483 0 -0.6633
vn 0.7427 0 -0.6696
vn 0.7211 -0.294 -0.6273
vn 0.7105 -0.3105 -0.6315
vn 0.7994 0 -0.6007
vn 0.8012 -0.1461 -0.5803
vn 0.1447 0 -0.9894
vn 0.1587 -0.2603 -0.9524
vn 0.3167 0 -0.9485
vn 0.3119 -0.2747 -0.9095
vn 0.301 -0.4115 -0.8602
vn 0.2012 -0.4119 -0.8887
vn 0.4229 -0.6388 -0.6427
vn 0.5552 -0.5109 -0.6562
vn 0.641 -0.3863 -0.6632
vn 0.7238 -0.191 -0.663
vn 0.8111 -0.03165 -0.5841
vn -0.1734 -0.9355 -0.3079
vn -0.02319 -0.9102 -0.4134
vn 0.1526 -0.8366 -0.526
vn 0.2688 -0.7585 -0.5936
vn -0.3437 -0.7754 -0.5297
vn -0.1941 -0.941 -0.2771
vn -0.4886 -0.3746 -0.788
vn -0.9207 -0.2847 -0.2666
vn -0.8104 -0.5798 -0.0842
vn -0.7437 -0.6575 0.1205
vn -0.5367 -0.3601 -0.7631
vn -0.5838 -0.02799 -0.8114
vn -0.4026 -0.7004 -0.5893
vn -0.8537 -0.5013 -0.1408
vn -0.9251 -0.2289 -0.3027
vn -0.9721 -0.01175 -0.2341
vn -0.5839 -0.02823 -0.8113
vn -0.5803 -0.08771 -0.8096
vn -0.9722 -0.017 -0.2335
vn -0.9714 -0.05612 -0.2305
vn -0.5825 -0.06345 -0.8103
vn -0.5844 0 -0.8114
vn -0.9641 -0.04346 -0.2619
vn -0.9594 3.052e-05 -0.282
vn -0.3214 -0.8193 -0.4749
vn -0.2603 -0.8868 -0.3819
vn -0.7824 -0.6216 0.03873
vn -0.8194 -0.5726 -0.0275
vn -0.2002 -0.9368 -0.2868
vn -0.7469 -0.6559 0.1091
vn 0.2482 0.3984 -0.883
vn 0.3925 0.2824 -0.8753
vn 0.2673 -0.1202 -0.9561
vn 0.1564 -0.03403 -0.9871
vn 0.5477 0.1129 -0.829
vn 0.4144 -0.2227 -0.8824
vn 0.371 -0.3147 -0.8737
vn 0.2152 -0.2978 -0.9301
vn 0.1163 -0.2641 -0.9574
vn 0.2099 0.4596 -0.8629
vn 0.1797 0.07608 -0.9807
vn 0.3351 0.1254 -0.9338
vn 0.3921 0.5559 -0.7329
vn 0.5173 0.1225 -0.8469
vn 0.6043 0.4639 -0.6478
vn 0.6463 0.08066 -0.7588
vn 0.6951 0.3631 -0.6204
vn 0.5219 -0.3033 -0.7972
vn 0.7266 -0.1641 -0.6671
vn 0.7733 0.04596 -0.6323
vn 0.8005 0.1782 -0.5722
vn 0.6597 -0.06082 -0.749
vn 0.547 -0.2975 -0.7824
vn 0.7834 -0.0611 -0.6184
vn 0.7349 -0.1798 -0.6539
vn -0.5351 0.1052 -0.8382
vn -0.5409 0.03131 -0.8405
vn -0.288 0.03531 -0.9569
vn -0.2678 0.1679 -0.9487
vn -0.5397 0.0119 -0.8418
vn -0.2973 -0.07596 -0.9517
vn 0.0005493 -0.1845 -0.9828
vn 0.02747 0.0285 -0.9992
vn 0.04132 0.2058 -0.9777
vn -0.3596 0.6904 -0.6277
vn -0.1428 0.6144 -0.7759
vn -0.2407 0.2141 -0.9467
vn -0.4883 0.3364 -0.8052
vn 0.08011 0.509 -0.8571
vn 0.02585 0.07331 -0.9969
vn 0.1 0.02945 -0.9945
vn 0.1058 0.2798 -0.9542
vn 0.06858 -0.2276 -0.9713
vn 0.153 0.462 -0.8736
vn 0.09482 0.02029 -0.9953
vn -0.4228 0.3294 -0.8442
vn -0.3148 0.2804 -0.9068
vn 0.0001831 0.615 -0.7885
vn -0.1386 0.6987 -0.7018
vn -0.07617 0.2042 -0.976
vn 0.2224 0.4705 -0.8539
vn 0.4128 0.6247 -0.6628
vn 0.237 0.7692 -0.5935
vn 0.1071 0.8568 -0.5044
vn -0.4762 0.3692 -0.7981
vn -0.4526 0.3452 -0.8222
vn -0.2455 0.7418 -0.624
vn -0.3252 0.7717 -0.5466
vn -0.04566 0.9191 -0.3914
vn -0.1714 0.9398 -0.2956
vn 0.2944 0.09317 -0.9511
vn 0.5362 -0.00235 -0.8441
vn 0.6498 0.09699 -0.7538
vn 0.49 0.2561 -0.8332
vn 0.7711 -0.03375 -0.6358
vn 0.7905 0.001495 -0.6125
vn 0.8068 0.03021 -0.59
vn 0.7078 0.1861 -0.6814
vn 0.6178 0.3764 -0.6903
vn 0.1411 0.141 -0.9799
vn 0.3879 0.3452 -0.8546
vn 0.5448 0.4861 -0.6832
vn 0.1401 0.774 -0.6175
vn 0.2434 0.7143 -0.6562
vn 0.1995 0.65 -0.7333
vn 0.1127 0.693 -0.712
vn 0.3819 0.6254 -0.6804
vn 0.3202 0.5854 -0.7448
vn -0.2279 0.8847 -0.4066
vn -0.05499 0.8529 -0.5192
vn -0.09192 0.7747 -0.6256
vn -0.2835 0.8157 -0.5041
vn 0.6348 0.3644 -0.6813
vn 0.7254 0.1623 -0.6689
vn 0.713 0.09964 -0.694
vn 0.6116 0.3056 -0.7297
vn 0.8107 0.02268 -0.585
vn 0.8054 0.002411 -0.5927
vn 0.5231 0.5096 -0.683
vn 0.4707 0.4751 -0.7434
vn -0.1046 0.1615 -0.9813
vn -0.04373 0.1889 -0.981
vn -0.07547 0.2739 -0.9588
vn -0.01172 0.3218 -0.9467
vn 0.08444 0.3734 -0.9238
vn 0.04123 0.2294 -0.9724
vn -0.5437 0.07562 -0.8358
vn -0.2984 0.1243 -0.9463
vn 0.0239 0.15 -0.9884
vn 0.7105 0.3104 -0.6315
vn 0.7211 0.294 -0.6273
vn 0.8012 0.1461 -0.5803
vn 0.1587 0.2603 -0.9524
vn 0.2012 0.4119 -0.8887
vn 0.3011 0.4115 -0.8602
vn 0.3119 0.2747 -0.9095
vn 0.5552 0.5109 -0.6562
vn 0.4229 0.6388 -0.6427
vn 0.6411 0.3863 -0.6631
vn 0.7238 0.191 -0.663
vn 0.8111 0.03162 -0.5841
vn -0.02313 0.9102 -0.4134
vn -0.1734 0.9355 -0.3079
vn 0.1526 0.8366 -0.526
vn 0.2688 0.7585 -0.5936
vn -0.1941 0.941 -0.2771
vn -0.3436 0.7754 -0.5297
vn -0.7437 0.6576 0.1205
vn -0.8104 0.5798 -0.0842
vn -0.9207 0.2848 -0.2666
vn -0.4886 0.3746 -0.788
vn -0.5838 0.02805 -0.8114
vn -0.5367 0.3601 -0.7631
vn -0.9721 0.01184 -0.2341
vn -0.9251 0.229 -0.3027
vn -0.8537 0.5014 -0.1408
vn -0.4026 0.7004 -0.5893
vn -0.5803 0.08777 -0.8096
vn -0.5839 0.02829 -0.8113
vn -0.9714 0.05618 -0.2305
vn -0.9722 0.01706 -0.2335
vn -0.5825 0.06351 -0.8103
vn -0.9641 0.04352 -0.2619
vn -0.3213 0.8193 -0.4748
vn -0.8193 0.5726 -0.0275
vn -0.7823 0.6216 0.03876
vn -0.2602 0.8868 -0.3819
vn -0.2002 0.9369 -0.2867
vn -0.7468 0.656 0.1091
vn 0.4817 -0.51 -0.7126
vn 0.6154 -0.313 -0.7234
vn 0.6879 -0.3215 -0.6506
vn 0.55 -0.5447 -0.633
vn 0.6721 0 -0.7404
vn 0.7418 0 -0.6705
vn -0.05771 0 -0.9983
vn -0.03427 -0.1551 -0.9873
vn 0.103 -0.1444 -0.9841
vn 0.1006 0 -0.9949
vn -0.00882 -0.2604 -0.9655
vn 0.07578 -0.2159 -0.9734
vn 0.03128 -0.4043 -0.9141
vn 0.07407 -0.353 -0.9327
vn 0.1492 -0.5313 -0.8339
vn 0.1823 -0.5425 -0.82
vn 0.3088 -0.5772 -0.756
vn 0.3597 -0.6238 -0.6939
vn 0.6154 0.3129 -0.7234
vn 0.688 0.3215 -0.6506
vn 0.4817 0.51 -0.7126
vn 0.5501 0.5447 -0.633
vn -0.008789 0.2604 -0.9655
vn -0.03427 0.1551 -0.9873
vn 0.103 0.1444 -0.9841
vn 0.07578 0.2159 -0.9734
vn 0.1492 0.5313 -0.8339
vn 0.03131 0.4043 -0.9141
vn 0.0741 0.353 -0.9327
vn 0.1823 0.5425 -0.82
vn 0.3088 0.5772 -0.7559
vn 0.3597 0.6238 -0.6939
vn 0.4832 -0.2942 -0.8245
vn 0.3888 -0.4631 -0.7964
vn 0.5149 0 -0.8572
vn -0.1259 -0.1594 -0.9791
vn -0.1416 0 -0.9899
vn -0.07602 -0.295 -0.9525
vn 0.006897 -0.4036 -0.9149
vn 0.1204 -0.4724 -0.8731
vn 0.2556 -0.5044 -0.8247
vn 0.4832 0.2942 -0.8245
vn 0.3888 0.4631 -0.7964
vn -0.1259 0.1594 -0.9791
vn -0.07602 0.295 -0.9525
vn 0.006897 0.4036 -0.9149
vn 0.1204 0.4724 -0.8731
vn 0.2556 0.5044 -0.8247
f 1/1/1 2/2/2 3/3/3
f 1/1/1 3/3/3 4/4/4
f 2/2/2 5/5/5 6/6/6
f 2/2/2 6/6/6 3/3/3
f 3/3/3 6/6/6 7/7/7
f 3/3/3 7/7/7 8/8/8
f 4/4/4 3/3/3 8/8/8
f 4/4/4 8/8/8 9/9/9
f 10/10/10 11/11/11 12/12/12
f 10/10/10 12/12/12 13/13/13
f 11/11/11 14/14/14 15/15/15
f 11/11/11 15/15/15 12/12/12
f 12/12/12 15/15/15 7/7/7
f 12/12/12 7/7/7 6/6/6
f 13/13/13 12/12/12 6/6/6
f 13/13/13 6/6/6 5/5/5
f 14/14/14 16/16/16 17/17/17
f 14/14/14 17/17/17 15/15/15
f 16/16/16 18/18/18 19/19/19
f 16/16/16 19/19/19 17/17/17
f 17/17/17 19/19/19 20/20/20
f 17/17/17 20/20/20 21/21/21
f 15/15/15 17/17/17 21/21/21
f 15/15/15 21/21/21 7/7/7
f 9/9/9 8/8/8 22/22/22
f 9/9/9 22/22/22 23/23/23
f 8/8/8 7/7/7 21/21/21
f 8/8/8 21/21/21 22/22/22
f 22/22/22 21/21/21 20/20/20
f 22/22/22 20/20/20 24/24/24
f 23/23/23 22/22/22 24/24/24
f 23/23/23 24/24/24 25/25/25
f 26/26/26 27/27/27 28/28/28
f 26/26/26 28/28/28 29/29/29
f 27/27/27 30/30/30 31/31/31
f 27/27/27 31/31/31 28/28/28
f 28/28/28 31/31/31 32/32/32
f 28/28/28 32/32/32 33/33/33
f 29/29/29 28/28/28 33/33/33
f 29/29/29 33/33/33 34/34/34
f 35/35/35 36/36/36 37/37/37
f 35/35/35 37/37/37 38/38/38
f 36/36/36 34/34/34 33/33/33
f 36/36/36 33/33/33 37/37/37
f 37/37/37 33/33/33 32/32/32
f 37/37/37 32/32/32 39/39/39
f 38/38/38 37/37/37 39/39/39
f 38/38/38 39/39/39 40/40/40
f 30/30/30 41/41/41 42/42/42
f 30/30/30 42/42/42 31/31/31
f 41/41/41 10/10/10 13/13/13
f 41/41/41 13/13/13 42/42/42
f 42/42/42 13/13/13 5/5/5
f 42/42/42 5/5/5 43/43/43
f 31/31/31 42/42/42 43/43/43
f 31/31/31 43/43/43 32/32/32
f 40/40/40 39/39/39 44/44/44
f 40/40/40 44/44/44 45/45/45
f 39/39/39 32/32/32 43/43/43
f 39/39/39 43/43/43 44/44/44
f 44/44/44 43/43/43 5/5/5
f 44/44/44 5/5/5 2/2/2
f 45/45/45 44/44/44 2/2/2
f 45/45/45 2/2/2 1/1/1
f 46/46/46 47/47/47 48/48/48
f 46/46/46 48/48/48 49/49/49
f 47/47/47 50/50/50 51/51/51
f 47/47/47 51/51/51 48/48/48
f 48/48/48 51/51/51 52/52/52
f 48/48/48 52/52/52 53/53/53
f 49/49/49 48/48/48 53/53/53
f 49/49/49 53/53/53 54/54/54
f 55/55/55 56/56/56 57/57/57
f 55/55/55 57/57/57 58/58/58
f 56/56/56 59/59/59 60/60/60
f 56/56/56 60/60/60 57/57/57
f 57/57/57 60/60/60 50/50/50
f 57/57/57 50/50/50 47/47/47
f 58/58/58 57/57/57 47/47/47
f 58/58/58 47/47/47 46/46/46
f 61/61/61 62/62/62 63/63/63
f 61/61/61 63/63/63 64/64/64
f 62/62/62 65/65/65 66/66/66
f 62/62/62 66/66/66 63/63/63
f 63/63/63 66/66/66 67/67/67
f 63/63/63 67/67/67 68/68/68
f 64/64/64 63/63/63 68/68/68
f 64/64/64 68/68/68 69/69/69
f 54/54/54 53/53/53 70/70/70
f 54/54/54 70/70/70 71/71/71
f 53/53/53 52/52/52 72/72/72
f 53/53/53 72/72/72 70/70/70
f 70/70/70 72/72/72 65/65/65
f 70/70/70 65/65/65 62/62/62
f 71/71/71 70/70/70 62/62/62
f 71/71/71 62/62/62 61/61/61
f 73/73/73 74/74/74 75/75/75
f 73/73/73 75/75/75 76/76/76
f 74/74/74 40/40/40 45/45/45
f 74/74/74 45/45/45 75/75/75
f 75/75/75 45/45/45 1/1/1
f 75/75/75 1/1/1 77/77/77
f 76/76/76 75/75/75 77/77/77
f 76/76/76 77/77/77 78/78/78
f 79/79/79 80/80/80 81/81/81
f 79/79/79 81/81/81 82/82/82
f 80/80/80 35/35/35 38/38/38
f 80/80/80 38/38/38 81/81/81
f 81/81/81 38/38/38 40/40/40
f 81/81/81 40/40/40 74/74/74
f 82/82/82 81/81/81 74/74/74
f 82/82/82 74/74/74 73/73/73
f 83/83/83 84/84/84 85/85/85
f 83/83/83 85/85/85 86/86/86
f 84/84/84 9/9/9 23/23/23
f 84/84/84 23/23/23 85/85/85
f 85/85/85 23/23/23 25/25/25
f 85/85/85 25/25/25 87/87/87
f 86/86/86 85/85/85 87/87/87
f 86/86/86 87/87/87 88/88/88
f 78/78/78 77/77/77 89/89/89
f 78/78/78 89/89/89 90/90/90
f 77/77/77 1/1/1 4/4/4
f 77/77/77 4/4/4 89/89/89
f 89/89/89 4/4/4 9/9/9
f 89/89/89 9/9/9 84/84/84
f 90/90/90 89/89/89 84/84/84
f 90/90/90 84/84/84 83/83/83
f 91/91/91 92/92/92 93/93/93
f 91/91/91 93/93/93 94/94/94
f 92/92/92 95/95/95 96/96/96
f 92/92/92 96/96/96 93/93/93
f 93/93/93 96/96/96 97/97/97
f 93/93/93 97/97/97 98/98/98
f 94/94/94 93/93/93 98/98/98
f 94/94/94 98/98/98 99/99/99
f 100/100/100 101/101/101 102/102/102
f 100/100/100 102/102/102 103/103/103
f 101/101/101 104/104/104 105/105/105
f 101/101/101 105/105/105 102/102/102
f 102/102/102 105/105/105 30/30/30
f 102/102/102 30/30/30 27/27/27
f 103/103/103 102/102/102 27/27/27
f 103/103/103 27/27/27 26/26/26
f 106/106/106 107/107/107 108/108/108
f 106/106/106 108/108/108 109/109/109
f 107/107/107 110/110/110 111/111/111
f 107/107/107 111/111/111 108/108/108
f 108/108/108 111/111/111 18/18/18
f 108/108/108 18/18/18 16/16/16
f 109/109/109 108/108/108 16/16/16
f 109/109/109 16/16/16 14/14/14
f 95/95/95 112/112/112 113/113/113
f 95/95/95 113/113/113 96/96/96
f 112/112/112 114/114/114 115/115/115
f 112/112/112 115/115/115 113/113/113
f 113/113/113 115/115/115 116/116/116
f 113/113/113 116/116/116 117/117/117
f 96/96/96 113/113/113 117/117/117
f 96/96/96 117/117/117 97/97/97
f 52/52/52 118/118/118 119/119/119
f 52/52/52 119/119/119 72/72/72
f 118/118/118 78/78/78 90/90/90
f 118/118/118 90/90/90 119/119/119
f 119/119/119 90/90/90 83/83/83
f 119/119/119 83/83/83 120/120/120
f 72/72/72 119/119/119 120/120/120
f 72/72/72 120/120/120 65/65/65
f 65/65/65 120/120/120 121/121/121
f 65/65/65 121/121/121 66/66/66
f 120/120/120 83/83/83 86/86/86
f 120/120/120 86/86/86 121/121/121
f 121/121/121 86/86/86 88/88/88
f 121/121/121 88/88/88 122/122/122
f 66/66/66 121/121/121 122/122/122
f 66/66/66 122/122/122 67/67/67
f 59/59/59 123/123/123 124/124/124
f 59/59/59 124/124/124 60/60/60
f 123/123/123 79/79/79 82/82/82
f 123/123/123 82/82/82 124/124/124
f 124/124/124 82/82/82 73/73/73
f 124/124/124 73/73/73 125/125/125
f 60/60/60 124/124/124 125/125/125
f 60/60/60 125/125/125 50/50/50
f 50/50/50 125/125/125 126/126/126
f 50/50/50 126/126/126 51/51/51
f 125/125/125 73/73/73 76/76/76
f 125/125/125 76/76/76 126/126/126
f 126/126/126 76/76/76 78/78/78
f 126/126/126 78/78/78 118/118/118
f 51/51/51 126/126/126 118/118/118
f 51/51/51 118/118/118 52/52/52
f 59/59/59 56/56/56 127/127/127
f 59/59/59 127/127/127 128/128/128
f 56/56/56 55/55/55 129/129/129
f 56/56/56 129/129/129 127/127/127
f 127/127/127 129/129/129 130/130/130
f 127/127/127 130/130/130 131/131/131
f 128/128/128 127/127/127 131/131/131
f 128/128/128 131/131/131 132/132/132
f 34/34/34 36/36/36 133/133/133
f 34/34/34 133/133/133 134/134/134
f 36/36/36 35/35/35 135/135/135
f 36/36/36 135/135/135 133/133/133
f 133/133/133 135/135/135 136/136/136
f 133/133/133 136/136/136 137/137/137
f 134/134/134 133/133/133 137/137/137
f 134/134/134 137/137/137 138/138/138
f 26/26/26 29/29/29 139/139/139
f 26/26/26 139/139/139 140/140/140
f 29/29/29 34/34/34 134/134/134
f 29/29/29 134/134/134 139/139/139
f 139/139/139 134/134/134 138/138/138
f 139/139/139 138/138/138 141/141/141
f 140/140/140 139/139/139 141/141/141
f 140/140/140 141/141/141 142/142/142
f 100/100/100 103/103/103 143/143/143
f 100/100/100 143/143/143 144/144/144
f 103/103/103 26/26/26 140/140/140
f 103/103/103 140/140/140 143/143/143
f 143/143/143 140/140/140 142/142/142
f 143/143/143 142/142/142 145/145/145
f 144/144/144 143/143/143 145/145/145
f 144/144/144 145/145/145 146/146/146
f 35/35/35 80/80/80 147/147/147
f 35/35/35 147/147/147 135/135/135
f 80/80/80 79/79/79 148/148/148
f 80/80/80 148/148/148 147/147/147
f 147/147/147 148/148/148 149/149/149
f 147/147/147 149/149/149 150/150/150
f 135/135/135 147/147/147 150/150/150
f 135/135/135 150/150/150 136/136/136
f 79/79/79 123/123/123 151/151/151
f 79/79/79 151/151/151 148/148/148
f 123/123/123 59/59/59 128/128/128
f 123/123/123 128/128/128 151/151/151
f 151/151/151 128/128/128 132/132/132
f 151/151/151 132/132/132 152/152/152
f 148/148/148 151/151/151 152/152/152
f 148/148/148 152/152/152 149/149/149
f 153/153/153 154/154/154 155/155/155
f 153/153/153 155/155/155 156/156/156
f 154/154/154 157/157/157 158/158/158
f 154/154/154 158/158/158 155/155/155
f 155/155/155 158/158/158 159/159/159
f 155/155/155 159/159/159 160/160/160
f 156/156/156 155/155/155 160/160/160
f 156/156/156 160/160/160 161/161/161
f 162/162/162 163/163/163 164/164/164
f 162/162/162 164/164/164 165/165/165
f 163/163/163 161/161/161 160/160/160
f 163/163/163 160/160/160 164/164/164
f 164/164/164 160/160/160 159/159/159
f 164/164/164 159/159/159 166/166/166
f 165/165/165 164/164/164 166/166/166
f 165/165/165 166/166/166 167/167/167
f 167/167/167 166/166/166 168/168/168
f 167/167/167 168/168/168 169/169/169
f 166/166/166 159/159/159 170/170/170
f 166/166/166 170/170/170 168/168/168
f 168/168/168 170/170/170 171/171/171
f 168/168/168 171/171/171 172/172/172
f 169/169/169 168/168/168 172/172/172
f 169/169/169 172/172/172 173/173/173
f 157/157/157 174/174/174 175/175/175
f 157/157/157 175/175/175 158/158/158
f 174/174/174 176/176/176 177/177/177
f 174/174/174 177/177/177 175/175/175
f 175/175/175 177/177/177 171/171/171
f 175/175/175 171/171/171 170/170/170
f 158/158/158 175/175/175 170/170/170
f 158/158/158 170/170/170 159/159/159
f 178/178/178 179/179/179 180/180/180
f 178/178/178 180/180/180 181/181/181
f 179/179/179 182/182/182 183/183/183
f 179/179/179 183/183/183 180/180/180
f 180/180/180 183/183/183 184/184/184
f 180/180/180 184/184/184 185/185/185
f 181/181/181 180/180/180 185/185/185
f 181/181/181 185/185/185 186/186/186
f 187/187/187 188/188/188 189/189/189
f 187/187/187 189/189/189 190/190/190
f 188/188/188 191/191/191 192/192/192
f 188/188/188 192/192/192 189/189/189
f 189/189/189 192/192/192 184/184/184
f 189/189/189 184/184/184 183/183/183
f 190/190/190 189/189/189 183/183/183
f 190/190/190 183/183/183 182/182/182
f 186/186/186 185/185/185 193/193/193
f 186/186/186 193/193/193 194/194/194
f 185/185/185 184/184/184 195/195/195
f 185/185/185 195/195/195 193/193/193
f 193/193/193 195/195/195 161/161/161
f 193/193/193 161/161/161 163/163/163
f 194/194/194 193/193/193 163/163/163
f 194/194/194 163/163/163 162/162/162
f 191/191/191 196/196/196 197/197/197
f 191/191/191 197/197/197 192/192/192
f 196/196/196 153/153/153 156/156/156
f 196/196/196 156/156/156 197/197/197
f 197/197/197 156/156/156 161/161/161
f 197/197/197 161/161/161 195/195/195
f 192/192/192 197/197/197 195/195/195
f 192/192/192 195/195/195 184/184/184
f 198/198/198 199/199/199 200/200/200
f 198/198/198 200/200/200 201/201/201
f 199/199/199 202/202/202 203/203/203
f 199/199/199 203/203/203 200/200/200
f 200/200/200 203/203/203 204/204/204
f 200/200/200 204/204/204 205/205/205
f 201/201/201 200/200/200 205/205/205
f 201/201/201 205/205/205 206/206/206
f 207/207/207 208/208/208 209/209/209
f 207/207/207 209/209/209 210/210/210
f 208/208/208 198/198/198 201/201/201
f 208/208/208 201/201/201 209/209/209
f 209/209/209 201/201/201 206/206/206
f 209/209/209 206/206/206 211/211/211
f 210/210/210 209/209/209 211/211/211
f 210/210/210 211/211/211 212/212/212
f 213/213/213 214/214/214 215/215/215
f 213/213/213 215/215/215 216/216/216
f 214/214/214 217/217/217 218/218/218
f 214/214/214 218/218/218 215/215/215
f 215/215/215 218/218/218 219/219/219
f 215/215/215 219/219/219 220/220/220
f 216/216/216 215/215/215 220/220/220
f 216/216/216 220/220/220 221/221/221
f 202/202/202 222/222/222 223/223/223
f 202/202/202 223/223/223 203/203/203
f 222/222/222 213/213/213 216/216/216
f 222/222/222 216/216/216 223/223/223
f 223/223/223 216/216/216 221/221/221
f 223/223/223 221/221/221 224/224/224
f 203/203/203 223/223/223 224/224/224
f 203/203/203 224/224/224 204/204/204
f 225/225/225 226/226/226 227/227/227
f 225/225/225 227/227/227 228/228/228
f 226/226/226 229/229/229 230/230/230
f 226/226/226 230/230/230 227/227/227
f 227/227/227 230/230/230 153/153/153
f 227/227/227 153/153/153 196/196/196
f 228/228/228 227/227/227 196/196/196
f 228/228/228 196/196/196 191/191/191
f 231/231/231 232/232/232 233/233/233
f 231/231/231 233/233/233 234/234/234
f 232/232/232 225/225/225 228/228/228
f 232/232/232 228/228/228 233/233/233
f 233/233/233 228/228/228 191/191/191
f 233/233/233 191/191/191 188/188/188
f 234/234/234 233/233/233 188/188/188
f 234/234/234 188/188/188 187/187/187
f 235/235/235 236/236/236 237/237/237
f 235/235/235 237/237/237 238/238/238
f 236/236/236 239/239/239 240/240/240
f 236/236/236 240/240/240 237/237/237
f 237/237/237 240/240/240 176/176/176
f 237/237/237 176/176/176 174/174/174
f 238/238/238 237/237/237 174/174/174
f 238/238/238 174/174/174 157/157/157
f 229/229/229 241/241/241 242/242/242
f 229/229/229 242/242/242 230/230/230
f 241/241/241 235/235/235 238/238/238
f 241/241/241 238/238/238 242/242/242
f 242/242/242 238/238/238 157/157/157
f 242/242/242 157/157/157 154/154/154
f 230/230/230 242/242/242 154/154/154
f 230/230/230 154/154/154 153/153/153
f 91/91/91 243/243/243 244/244/244
f 91/91/91 244/244/244 92/92/92
f 243/243/243 245/245/245 246/246/246
f 243/243/243 246/246/246 244/244/244
f 244/244/244 246/246/246 247/247/247
f 244/244/244 247/247/247 248/248/248
f 92/92/92 244/244/244 248/248/248
f 92/92/92 248/248/248 95/95/95
f 100/100/100 249/249/249 250/250/250
f 100/100/100 250/250/250 101/101/101
f 249/249/249 178/178/178 181/181/181
f 249/249/249 181/181/181 250/250/250
f 250/250/250 181/181/181 186/186/186
f 250/250/250 186/186/186 251/251/251
f 101/101/101 250/250/250 251/251/251
f 101/101/101 251/251/251 104/104/104
f 106/106/106 252/252/252 253/253/253
f 106/106/106 253/253/253 107/107/107
f 252/252/252 167/167/167 169/169/169
f 252/252/252 169/169/169 253/253/253
f 253/253/253 169/169/169 173/173/173
f 253/253/253 173/173/173 254/254/254
f 107/107/107 253/253/253 254/254/254
f 107/107/107 254/254/254 110/110/110
f 95/95/95 248/248/248 255/255/255
f 95/95/95 255/255/255 112/112/112
f 248/248/248 247/247/247 256/256/256
f 248/248/248 256/256/256 255/255/255
f 255/255/255 256/256/256 257/257/257
f 255/255/255 257/257/257 258/258/258
f 112/112/112 255/255/255 258/258/258
f 112/112/112 258/258/258 114/114/114
f 204/204/204 224/224/224 259/259/259
f 204/204/204 259/259/259 260/260/260
f 224/224/224 221/221/221 261/261/261
f 224/224/224 261/261/261 259/259/259
f 259/259/259 261/261/261 235/235/235
f 259/259/259 235/235/235 241/241/241
f 260/260/260 259/259/259 241/241/241
f 260/260/260 241/241/241 229/229/229
f 221/221/221 220/220/220 262/262/262
f 221/221/221 262/262/262 261/261/261
f 220/220/220 219/219/219 263/263/263
f 220/220/220 263/263/263 262/262/262
f 262/262/262 263/263/263 239/239/239
f 262/262/262 239/239/239 236/236/236
f 261/261/261 262/262/262 236/236/236
f 261/261/261 236/236/236 235/235/235
f 212/212/212 211/211/211 264/264/264
f 212/212/212 264/264/264 265/265/265
f 211/211/211 206/206/206 266/266/266
f 211/211/211 266/266/266 264/264/264
f 264/264/264 266/266/266 225/225/225
f 264/264/264 225/225/225 232/232/232
f 265/265/265 264/264/264 232/232/232
f 265/265/265 232/232/232 231/231/231
f 206/206/206 205/205/205 267/267/267
f 206/206/206 267/267/267 266/266/266
f 205/205/205 204/204/204 260/260/260
f 205/205/205 260/260/260 267/267/267
f 267/267/267 260/260/260 229/229/229
f 267/267/267 229/229/229 226/226/226
f 266/266/266 267/267/267 226/226/226
f 266/266/266 226/226/226 225/225/225
f 212/212/212 268/268/268 269/269/269
f 212/212/212 269/269/269 210/210/210
f 268/268/268 270/270/270 271/271/271
f 268/268/268 271/271/271 269/269/269
f 269/269/269 271/271/271 272/272/272
f 269/269/269 272/272/272 273/273/273
f 210/210/210 269/269/269 273/273/273
f 210/210/210 273/273/273 207/207/207
f 182/182/182 274/274/274 275/275/275
f 182/182/182 275/275/275 190/190/190
f 274/274/274 276/276/276 277/277/277
f 274/274/274 277/277/277 275/275/275
f 275/275/275 277/277/277 278/278/278
f 275/275/275 278/278/278 279/279/279
f 190/190/190 275/275/275 279/279/279
f 190/190/190 279/279/279 187/187/187
f 178/178/178 280/280/280 281/281/281
f 178/178/178 281/281/281 179/179/179
f 280/280/280 282/282/282 283/283/283
f 280/280/280 283/283/283 281/281/281
f 281/281/281 283/283/283 276/276/276
f 281/281/281 276/276/276 274/274/274
f 179/179/179 281/281/281 274/274/274
f 179/179/179 274/274/274 182/182/182
f 100/100/100 144/144/144 284/284/284
f 100/100/100 284/284/284 249/249/249
f 144/144/144 146/146/146 285/285/285
f 144/144/144 285/285/285 284/284/284
f 284/284/284 285/285/285 282/282/282
f 284/284/284 282/282/282 280/280/280
f 249/249/249 284/284/284 280/280/280
f 249/249/249 280/280/280 178/178/178
f 187/187/187 279/279/279 286/286/286
f 187/187/187 286/286/286 234/234/234
f 279/279/279 278/278/278 287/287/287
f 279/279/279 287/287/287 286/286/286
f 286/286/286 287/287/287 288/288/288
f 286/286/286 288/288/288 289/289/289
f 234/234/234 286/286/286 289/289/289
f 234/234/234 289/289/289 231/231/231
f 231/231/231 289/289/289 290/290/290
f 231/231/231 290/290/290 265/265/265
f 289/289/289 288/288/288 291/291/291
f 289/289/289 291/291/291 290/290/290
f 290/290/290 291/291/291 270/270/270
f 290/290/290 270/270/270 268/268/268
f 265/265/265 290/290/290 268/268/268
f 265/265/265 268/268/268 212/212/212
f 292/292/292 293/293/293 294/294/294
f 292/292/292 294/294/294 295/295/295
f 293/293/293 296/296/296 297/297/297
f 293/293/293 297/297/297 294/294/294
f 294/294/294 297/297/297 106/106/106
f 294/294/294 106/106/106 109/109/109
f 295/295/295 294/294/294 109/109/109
f 295/295/295 109/109/109 14/14/14
f 298/298/298 299/299/299 300/300/300
f 298/298/298 300/300/300 301/301/301
f 299/299/299 302/302/302 303/303/303
f 299/299/299 303/303/303 300/300/300
f 300/300/300 303/303/303 30/30/30
f 300/300/300 30/30/30 105/105/105
f 301/301/301 300/300/300 105/105/105
f 301/301/301 105/105/105 104/104/104
f 302/302/302 304/304/304 305/305/305
f 302/302/302 305/305/305 303/303/303
f 304/304/304 306/306/306 307/307/307
f 304/304/304 307/307/307 305/305/305
f 305/305/305 307/307/307 10/10/10
f 305/305/305 10/10/10 41/41/41
f 303/303/303 305/305/305 41/41/41
f 303/303/303 41/41/41 30/30/30
f 306/306/306 308/308/308 309/309/309
f 306/306/306 309/309/309 307/307/307
f 308/308/308 292/292/292 295/295/295
f 308/308/308 295/295/295 309/309/309
f 309/309/309 295/295/295 14/14/14
f 309/309/309 14/14/14 11/11/11
f 307/307/307 309/309/309 11/11/11
f 307/307/307 11/11/11 10/10/10
f 296/296/296 310/310/310 311/311/311
f 296/296/296 311/311/311 297/297/297
f 310/310/310 312/312/312 313/313/313
f 310/310/310 313/313/313 311/311/311
f 311/311/311 313/313/313 167/167/167
f 311/311/311 167/167/167 252/252/252
f 297/297/297 311/311/311 252/252/252
f 297/297/297 252/252/252 106/106/106
f 314/314/314 315/315/315 316/316/316
f 314/314/314 316/316/316 317/317/317
f 315/315/315 298/298/298 301/301/301
f 315/315/315 301/301/301 316/316/316
f 316/316/316 301/301/301 104/104/104
f 316/316/316 104/104/104 251/251/251
f 317/317/317 316/316/316 251/251/251
f 317/317/317 251/251/251 186/186/186
f 318/318/318 319/319/319 320/320/320
f 318/318/318 320/320/320 321/321/321
f 319/319/319 314/314/314 317/317/317
f 319/319/319 317/317/317 320/320/320
f 320/320/320 317/317/317 186/186/186
f 320/320/320 186/186/186 194/194/194
f 321/321/321 320/320/320 194/194/194
f 321/321/321 194/194/194 162/162/162
f 312/312/312 322/322/322 323/323/323
f 312/312/312 323/323/323 313/313/313
f 322/322/322 318/318/318 321/321/321
f 322/322/322 321/321/321 323/323/323
f 323/323/323 321/321/321 162/162/162
f 323/323/323 162/162/162 165/165/165
f 313/313/313 323/323/323 165/165/165
f 313/313/313 165/165/165 167/167/167
f 116/116/116 115/115/115 324/324/324
f 116/116/116 324/324/324 325/325/325
f 115/115/115 114/114/114 326/326/326
f 115/115/115 326/326/326 324/324/324
f 324/324/324 326/326/326 296/296/296
f 324/324/324 296/296/296 293/293/293
f 325/325/325 324/324/324 293/293/293
f 325/325/325 293/293/293 292/292/292
f 91/91/91 94/94/94 327/327/327
f 91/91/91 327/327/327 328/328/328
f 94/94/94 99/99/99 329/329/329
f 94/94/94 329/329/329 327/327/327
f 327/327/327 329/329/329 302/302/302
f 327/327/327 302/302/302 299/299/299
f 328/328/328 327/327/327 299/299/299
f 328/328/328 299/299/299 298/298/298
f 99/99/99 98/98/98 330/330/330
f 99/99/99 330/330/330 329/329/329
f 98/98/98 97/97/97 331/331/331
f 98/98/98 331/331/331 330/330/330
f 330/330/330 331/331/331 306/306/306
f 330/330/330 306/306/306 304/304/304
f 329/329/329 330/330/330 304/304/304
f 329/329/329 304/304/304 302/302/302
f 97/97/97 117/117/117 332/332/332
f 97/97/97 332/332/332 331/331/331
f 117/117/117 116/116/116 325/325/325
f 117/117/117 325/325/325 332/332/332
f 332/332/332 325/325/325 292/292/292
f 332/332/332 292/292/292 308/308/308
f 331/331/331 332/332/332 308/308/308
f 331/331/331 308/308/308 306/306/306
f 114/114/114 258/258/258 333/333/333
f 114/114/114 333/333/333 326/326/326
f 258/258/258 257/257/257 334/334/334
f 258/258/258 334/334/334 333/333/333
f 333/333/333 334/334/334 312/312/312
f 333/333/333 312/312/312 310/310/310
f 326/326/326 333/333/333 310/310/310
f 326/326/326 310/310/310 296/296/296
f 245/245/245 243/243/243 335/335/335
f 245/245/245 335/335/335 336/336/336
f 243/243/243 91/91/91 328/328/328
f 243/243/243 328/328/328 335/335/335
f 335/335/335 328/328/328 298/298/298
f 335/335/335 298/298/298 315/315/315
f 336/336/336 335/335/335 315/315/315
f 336/336/336 315/315/315 314/314/314
f 247/247/247 246/246/246 337/337/337
f 247/247/247 337/337/337 338/338/338
f 246/246/246 245/245/245 336/336/336
f 246/246/246 336/336/336 337/337/337
f 337/337/337 336/336/336 314/314/314
f 337/337/337 314/314/314 319/319/319
f 338/338/338 337/337/337 319/319/319
f 338/338/338 319/319/319 318/318/318
f 257/257/257 256/256/256 339/339/339
f 257/257/257 339/339/339 334/334/334
f 256/256/256 247/247/247 338/338/338
f 256/256/256 338/338/338 339/339/339
f 339/339/339 338/338/338 318/318/318
f 339/339/339 318/318/318 322/322/322
f 334/334/334 339/339/339 322/322/322
f 334/334/334 322/322/322 312/312/312
