v 0.302657 -0.280882 1.14459
v 0.302372 -0.279149 1.15696
v 0.305533 -0.260135 1.15874
v 0.302813 -0.273517 1.13816
v 0.303612 -0.279695 1.16942
v 0.306115 -0.27282 1.1764
v 0.31073 -0.268788 1.18467
v 0.312753 -0.262227 1.18302
v 0.316828 -0.256424 1.18477
v 0.315997 -0.251147 1.17748
v 0.318067 -0.244559 1.17278
v 0.314053 -0.243417 1.1627
v 0.313496 -0.241993 1.15194
v 0.309123 -0.247999 1.14311
v 0.307997 -0.253746 1.13229
v 0.30487 -0.26069 1.13246
v 0.304058 -0.268753 1.12995
v 0.307241 -0.281884 1.13093
v 0.306126 -0.287968 1.14223
v 0.308941 -0.273464 1.12391
v 0.316482 -0.278111 1.12264
v 0.313813 -0.286664 1.1303
v 0.31169 -0.292156 1.14277
v 0.305223 -0.288619 1.15776
v 0.306118 -0.285291 1.17322
v 0.310236 -0.292257 1.15937
v 0.310778 -0.287941 1.17545
v 0.321511 -0.278426 1.12702
v 0.319043 -0.285283 1.13378
v 0.317609 -0.287021 1.1319
v 0.320437 -0.279284 1.12446
v 0.316841 -0.289544 1.14484
v 0.315218 -0.291831 1.14392
v 0.315195 -0.289094 1.15966
v 0.313563 -0.291511 1.15989
v 0.31531 -0.284984 1.17385
v 0.313855 -0.287126 1.17518
v 0.325053 -0.282219 1.12849
v 0.322066 -0.288002 1.13518
v 0.31994 -0.284582 1.13492
v 0.322249 -0.278304 1.12855
v 0.319255 -0.291085 1.14607
v 0.317793 -0.288433 1.14544
v 0.317103 -0.289355 1.16061
v 0.316106 -0.287782 1.15961
v 0.316955 -0.284317 1.17446
v 0.316106 -0.283723 1.17317
v 0.325403 -0.306825 1.14857
v 0.331659 -0.306897 1.13489
v 0.335728 -0.312467 1.13629
v 0.328589 -0.311284 1.15026
v 0.338371 -0.302575 1.12594
v 0.343394 -0.308875 1.127
v 0.346252 -0.310902 1.13027
v 0.338775 -0.313784 1.13908
v 0.331751 -0.311997 1.15216
v 0.320361 -0.290028 1.18226
v 0.321021 -0.300051 1.16597
v 0.323647 -0.303064 1.16776
v 0.322835 -0.291777 1.18406
v 0.326843 -0.303441 1.16835
v 0.325932 -0.292132 1.18333
v 0.338279 -0.30952 1.15663
v 0.334224 -0.301619 1.16844
v 0.330659 -0.302213 1.16811
v 0.335133 -0.310437 1.15425
v 0.333089 -0.291676 1.17911
v 0.329632 -0.291632 1.18079
v 0.352651 -0.268202 1.19695
v 0.344796 -0.271114 1.19933
v 0.345671 -0.2729 1.19396
v 0.352399 -0.270572 1.19185
v 0.33723 -0.275747 1.19802
v 0.339213 -0.27685 1.19297
v 0.341081 -0.278231 1.18905
v 0.346502 -0.274837 1.18977
v 0.35216 -0.272972 1.18789
v 0.328051 -0.276046 1.12592
v 0.335828 -0.28589 1.12383
v 0.331293 -0.291943 1.12703
v 0.331303 -0.268978 1.12866
v 0.340395 -0.278173 1.12657
v 0.350526 -0.288306 1.12478
v 0.344555 -0.296679 1.12209
v 0.343576 -0.311811 1.14678
v 0.345997 -0.314509 1.15006
v 0.340849 -0.311911 1.15953
v 0.348855 -0.310218 1.13992
v 0.351039 -0.313219 1.14341
v 0.354762 -0.319815 1.14672
v 0.349266 -0.320932 1.15374
v 0.343678 -0.317837 1.16367
v 0.353886 -0.330496 1.15882
v 0.347575 -0.326677 1.16959
v 0.36016 -0.32959 1.15118
v 0.366367 -0.340927 1.15641
v 0.359174 -0.341546 1.16475
v 0.352057 -0.336862 1.17645
v 0.338134 -0.297703 1.18589
v 0.339375 -0.308761 1.17539
v 0.34283 -0.316249 1.18223
v 0.341554 -0.303751 1.19356
v 0.346914 -0.324884 1.19014
v 0.345716 -0.310769 1.2024
v 0.355066 -0.323359 1.21698
v 0.355652 -0.339305 1.20382
v 0.360369 -0.342294 1.20728
v 0.360045 -0.327312 1.2195
v 0.360796 -0.353239 1.18911
v 0.365005 -0.355492 1.19364
v 0.368551 -0.354726 1.19631
v 0.364532 -0.342989 1.20832
v 0.364335 -0.329714 1.21909
v 0.368795 -0.359236 1.17648
v 0.372513 -0.361312 1.18194
v 0.377239 -0.35928 1.16745
v 0.380546 -0.361537 1.17359
v 0.382436 -0.360175 1.17922
v 0.375234 -0.35997 1.18621
v 0.384242 -0.356226 1.16308
v 0.387215 -0.358782 1.16959
v 0.390724 -0.348489 1.16471
v 0.393371 -0.351635 1.17121
v 0.39374 -0.351257 1.17773
v 0.388377 -0.357591 1.17609
v 0.359276 -0.316801 1.1433
v 0.365319 -0.326473 1.14746
v 0.363449 -0.310638 1.14432
v 0.370089 -0.319762 1.14857
v 0.377777 -0.330432 1.15361
v 0.372294 -0.337727 1.15235
v 0.36783 -0.300373 1.15022
v 0.375094 -0.308411 1.15499
v 0.371041 -0.289814 1.15976
v 0.378728 -0.296613 1.1654
v 0.387667 -0.304747 1.1722
v 0.383527 -0.317905 1.16073
v 0.397524 -0.3349 1.17303
v 0.39981 -0.33906 1.17911
v 0.40237 -0.320377 1.18593
v 0.404367 -0.325559 1.19119
v 0.402921 -0.328933 1.19479
v 0.399196 -0.340491 1.18455
v 0.402824 -0.310069 1.20057
v 0.40474 -0.31585 1.20471
v 0.398919 -0.303954 1.21393
v 0.401024 -0.309979 1.21694
v 0.399556 -0.315092 1.2165
v 0.402987 -0.320401 1.20618
v 0.371542 -0.282909 1.17112
v 0.379216 -0.288727 1.1778
v 0.369063 -0.279408 1.18183
v 0.376329 -0.28453 1.18948
v 0.384799 -0.290748 1.19845
v 0.388145 -0.295753 1.18576
v 0.363952 -0.27814 1.18975
v 0.37054 -0.282795 1.19805
v 0.357759 -0.278468 1.19454
v 0.363584 -0.282869 1.20319
v 0.370477 -0.288225 1.21316
v 0.378264 -0.288465 1.20769
v 0.3916 -0.300838 1.22351
v 0.394172 -0.306916 1.22569
v 0.382988 -0.300019 1.22907
v 0.386159 -0.306002 1.23075
v 0.386614 -0.311404 1.22833
v 0.393519 -0.31231 1.22394
v 0.374964 -0.301143 1.23095
v 0.378714 -0.306892 1.23244
v 0.367262 -0.304768 1.22965
v 0.371557 -0.310121 1.23123
v 0.374299 -0.314616 1.22911
v 0.380329 -0.311977 1.22995
v 0.35194 -0.280078 1.19638
v 0.357072 -0.284436 1.20511
v 0.346379 -0.283415 1.19565
v 0.350854 -0.287979 1.20423
v 0.356261 -0.293426 1.21409
v 0.363207 -0.289705 1.21514
v 0.341084 -0.289104 1.19249
v 0.344916 -0.294183 1.20072
v 0.349595 -0.300152 1.21021
v 0.359763 -0.311769 1.22539
v 0.364543 -0.31653 1.22729
v 0.368277 -0.320187 1.22585
v 0.368794 -0.331822 1.21583
v 0.371482 -0.323849 1.2207
v 0.370424 -0.322573 1.22286
v 0.36717 -0.33104 1.21718
v 0.375467 -0.319368 1.22232
v 0.375275 -0.31773 1.22521
v 0.372673 -0.352361 1.19757
v 0.370969 -0.353101 1.1971
v 0.376946 -0.357731 1.1887
v 0.378277 -0.356654 1.19035
v 0.383379 -0.357705 1.1834
v 0.384227 -0.356361 1.18629
v 0.382843 -0.317967 1.21985
v 0.379032 -0.317818 1.22189
v 0.379334 -0.318028 1.22217
v 0.383013 -0.318193 1.22009
v 0.375942 -0.319635 1.22272
v 0.376898 -0.318992 1.22594
v 0.380792 -0.316925 1.22563
v 0.385042 -0.31687 1.22368
v 0.372136 -0.324287 1.22134
v 0.369707 -0.33255 1.21681
v 0.370413 -0.333499 1.22
v 0.372765 -0.324272 1.22444
v 0.341287 -0.312522 1.14289
v 0.34766 -0.310356 1.13512
v 0.351167 -0.333117 1.19777
v 0.350239 -0.317621 1.21082
v 0.356475 -0.346486 1.18319
v 0.383089 -0.315234 1.23122
v 0.388273 -0.314844 1.22945
v 0.378356 -0.317997 1.23115
v 0.380494 -0.317221 1.23892
v 0.386314 -0.313696 1.23929
v 0.39266 -0.312981 1.23759
v 0.373643 -0.324223 1.22942
v 0.37133 -0.334909 1.225
v 0.372506 -0.337093 1.23235
v 0.374915 -0.324597 1.23693
v 0.375675 -0.34386 1.25357
v 0.378936 -0.327279 1.25927
v 0.376675 -0.325709 1.24742
v 0.373926 -0.340227 1.24236
v 0.387053 -0.317398 1.26165
v 0.38345 -0.317085 1.24963
v 0.382836 -0.369904 1.21456
v 0.390592 -0.377012 1.20496
v 0.3962 -0.386577 1.21125
v 0.387074 -0.378317 1.22235
v 0.397565 -0.376363 1.19789
v 0.404136 -0.385811 1.2029
v 0.41132 -0.395702 1.20832
v 0.402221 -0.396601 1.21789
v 0.391589 -0.387214 1.2306
v 0.404346 -0.31148 1.25991
v 0.39546 -0.312562 1.2621
v 0.400737 -0.312494 1.2738
v 0.410698 -0.31129 1.27135
v 0.391163 -0.317912 1.27337
v 0.396051 -0.318776 1.28529
v 0.40664 -0.312793 1.28578
v 0.41754 -0.311469 1.28315
v 0.38176 -0.328997 1.27085
v 0.377921 -0.347542 1.26457
v 0.381072 -0.351471 1.27582
v 0.385486 -0.331019 1.28262
v 0.413452 -0.313747 1.29874
v 0.425202 -0.312303 1.296
v 0.401998 -0.320271 1.29812
v 0.408903 -0.322833 1.31119
v 0.421002 -0.315886 1.31193
v 0.43341 -0.314358 1.30911
v 0.390439 -0.333618 1.29523
v 0.385511 -0.355926 1.28792
v 0.39128 -0.36089 1.30034
v 0.396603 -0.337068 1.3081
v 0.429043 -0.319874 1.32422
v 0.441769 -0.318336 1.32129
v 0.41663 -0.327012 1.32345
v 0.425282 -0.333663 1.3337
v 0.437488 -0.326677 1.33439
v 0.450003 -0.325192 1.33143
v 0.403961 -0.341702 1.32025
v 0.398439 -0.3663 1.31222
v 0.407439 -0.37222 1.32263
v 0.412842 -0.348084 1.33055
v 0.446295 -0.336974 1.34148
v 0.457904 -0.335594 1.33867
v 0.434985 -0.343388 1.34094
v 0.445732 -0.35545 1.34526
v 0.455432 -0.349991 1.34566
v 0.465428 -0.348789 1.34321
v 0.423564 -0.356595 1.33807
v 0.418695 -0.378666 1.33077
v 0.432057 -0.385317 1.33658
v 0.436073 -0.366637 1.34282
v 0.464576 -0.364584 1.3469
v 0.472223 -0.363306 1.34508
v 0.456922 -0.368498 1.34671
v 0.465323 -0.379198 1.34483
v 0.472462 -0.37987 1.34346
v 0.476484 -0.375317 1.34355
v 0.449917 -0.377361 1.34464
v 0.4467 -0.391628 1.33983
v 0.458707 -0.396131 1.33957
v 0.463763 -0.388144 1.3419
v 0.495968 -0.394425 1.31468
v 0.492227 -0.388493 1.32488
v 0.480458 -0.40067 1.33087
v 0.492644 -0.404099 1.31328
v 0.489003 -0.380024 1.3327
v 0.482793 -0.380273 1.33878
v 0.46494 -0.408801 1.33335
v 0.468141 -0.422029 1.3254
v 0.475926 -0.4243 1.31997
v 0.480821 -0.427703 1.31162
v 0.485497 -0.419653 1.31225
v 0.490544 -0.414206 1.30804
v 0.438423 -0.410996 1.32507
v 0.451789 -0.411324 1.33098
v 0.450617 -0.433855 1.31054
v 0.460812 -0.429003 1.31978
v 0.462841 -0.444331 1.29617
v 0.470326 -0.436882 1.30891
v 0.473626 -0.443191 1.28518
v 0.478546 -0.436326 1.30024
v 0.430744 -0.434983 1.28936
v 0.446371 -0.448524 1.27089
v 0.454708 -0.448379 1.28323
v 0.440336 -0.436006 1.30016
v 0.460162 -0.447071 1.25676
v 0.467385 -0.447045 1.27028
v 0.415311 -0.405423 1.30796
v 0.42606 -0.409003 1.31725
v 0.414355 -0.422935 1.26755
v 0.429801 -0.436309 1.2493
v 0.43802 -0.444145 1.25959
v 0.422108 -0.430336 1.27841
v 0.443372 -0.434859 1.23536
v 0.452055 -0.442652 1.24519
v 0.399083 -0.393708 1.2859
v 0.406419 -0.400172 1.29733
v 0.40131 -0.404657 1.24738
v 0.414629 -0.416142 1.23167
v 0.421891 -0.426497 1.23995
v 0.407382 -0.413977 1.25706
v 0.426089 -0.414962 1.21979
v 0.434519 -0.425164 1.22693
v 0.388001 -0.379606 1.26326
v 0.39295 -0.386634 1.27432
v 0.408225 -0.406307 1.22452
v 0.396195 -0.39586 1.23876
v 0.418504 -0.405271 1.21379
v 0.381131 -0.366773 1.24339
v 0.384202 -0.373094 1.25315
v 0.37584 -0.354426 1.2244
v 0.378362 -0.360348 1.23348
v 0.430354 -0.343088 1.21547
v 0.428172 -0.358863 1.20757
v 0.418512 -0.353662 1.2027
v 0.420365 -0.339852 1.2097
v 0.423723 -0.374434 1.20435
v 0.414789 -0.36725 1.19969
v 0.406932 -0.360509 1.19563
v 0.410155 -0.348885 1.19853
v 0.411727 -0.337039 1.20474
v 0.376315 -0.357421 1.20284
v 0.382402 -0.362502 1.19531
v 0.385943 -0.36885 1.19955
v 0.379186 -0.362844 1.20796
v 0.388438 -0.362009 1.19068
v 0.392316 -0.368292 1.19378
v 0.371836 -0.346187 1.212
v 0.37362 -0.349688 1.21723
v 0.379947 -0.358279 1.19235
v 0.374278 -0.353815 1.19937
v 0.385804 -0.357846 1.18844
v 0.392582 -0.347549 1.18748
v 0.395563 -0.34014 1.19171
v 0.396342 -0.340832 1.19331
v 0.393767 -0.348176 1.18969
v 0.396954 -0.332378 1.19763
v 0.397345 -0.333228 1.19852
v 0.400336 -0.334022 1.19972
v 0.399248 -0.342556 1.1944
v 0.396593 -0.350851 1.19107
v 0.364269 -0.352013 1.17069
v 0.372328 -0.351742 1.16177
v 0.378991 -0.34854 1.15743
v 0.385157 -0.340809 1.1589
v 0.367403 -0.342758 1.20764
v 0.36923 -0.342747 1.20713
v 0.392988 -0.349168 1.18339
v 0.388582 -0.354913 1.18156
v 0.388922 -0.353135 1.18549
v 0.390358 -0.354146 1.1878
v 0.393099 -0.357711 1.18954
v 0.397094 -0.340401 1.18881
v 0.399567 -0.331071 1.19668
v 0.370523 -0.343854 1.20856
v 0.39902 -0.32375 1.20553
v 0.395831 -0.325784 1.20458
v 0.395701 -0.318936 1.21368
v 0.39249 -0.321161 1.21121
v 0.391624 -0.327363 1.16683
v 0.396252 -0.313101 1.17934
v 0.396724 -0.303144 1.19383
v 0.392978 -0.297393 1.20724
v 0.403787 -0.345193 1.1959
v 0.400904 -0.354995 1.19284
v 0.405096 -0.335163 1.20155
v 0.397203 -0.363164 1.19182
v 0.402876 -0.370244 1.19508
v 0.410157 -0.378645 1.19938
v 0.418275 -0.387491 1.20418
v 0.410682 -0.326552 1.21476
v 0.419211 -0.327678 1.22144
v 0.406702 -0.318729 1.22535
v 0.414636 -0.318606 1.23394
v 0.423351 -0.319022 1.24349
v 0.42884 -0.329272 1.22901
v 0.438467 -0.363883 1.21235
v 0.433018 -0.381375 1.209
v 0.441052 -0.346241 1.22109
v 0.452672 -0.349563 1.22704
v 0.449621 -0.369031 1.2175
v 0.442974 -0.388437 1.21411
v 0.426522 -0.396046 1.20903
v 0.435263 -0.404719 1.2144
v 0.46174 -0.374705 1.22373
v 0.453837 -0.396011 1.22032
v 0.465277 -0.353433 1.23404
v 0.477464 -0.357983 1.24239
v 0.473541 -0.380725 1.23144
v 0.46464 -0.403575 1.22802
v 0.444869 -0.413901 1.22089
v 0.454667 -0.422769 1.2288
v 0.483608 -0.38673 1.24097
v 0.47425 -0.410342 1.23751
v 0.487705 -0.363253 1.25224
v 0.495422 -0.369177 1.26356
v 0.491375 -0.392208 1.25252
v 0.48209 -0.415384 1.24917
v 0.463807 -0.430171 1.23838
v 0.47175 -0.434836 1.25006
v 0.496506 -0.396746 1.26616
v 0.487778 -0.417997 1.2632
v 0.500282 -0.375659 1.27622
v 0.501976 -0.382599 1.29001
v 0.498721 -0.40048 1.28151
v 0.491153 -0.418525 1.27907
v 0.478114 -0.435832 1.2641
v 0.482813 -0.43367 1.2799
v 0.497661 -0.40335 1.29776
v 0.49205 -0.417292 1.2955
v 0.500259 -0.389543 1.30409
v 0.485612 -0.42876 1.29646
v 0.497799 -0.367653 1.30631
v 0.497002 -0.378162 1.31675
v 0.488346 -0.356892 1.32406
v 0.48993 -0.36961 1.33022
v 0.476833 -0.350861 1.33645
v 0.481076 -0.365236 1.33978
v 0.490483 -0.349798 1.28441
v 0.495539 -0.35798 1.29538
v 0.478922 -0.335779 1.30703
v 0.48465 -0.345223 1.31621
v 0.464444 -0.327918 1.32285
v 0.471229 -0.338069 1.33076
v 0.472869 -0.33877 1.26291
v 0.482786 -0.343468 1.27347
v 0.461818 -0.324832 1.28513
v 0.471152 -0.329138 1.29649
v 0.447676 -0.31703 1.3007
v 0.456465 -0.321107 1.3126
v 0.449676 -0.332848 1.24421
v 0.461388 -0.335346 1.25306
v 0.441452 -0.320596 1.26272
v 0.451593 -0.322169 1.27362
v 0.429844 -0.313773 1.27585
v 0.438588 -0.314807 1.2881
v 0.438895 -0.330934 1.23643
v 0.432161 -0.319644 1.2529
v 0.414376 -0.313355 1.25396
v 0.421904 -0.313381 1.2647
v 0.400049 -0.314425 1.2331
v 0.406894 -0.313593 1.24303
v 0.398186 -0.311933 1.24822
v 0.399083 -0.326431 1.20698
v 0.403981 -0.326259 1.21005
v 0.395585 -0.320845 1.21437
v 0.400325 -0.319647 1.21888
v 0.390396 -0.317925 1.21999
v 0.39452 -0.316078 1.22545
v 0.396022 -0.326495 1.20507
v 0.392618 -0.321603 1.21155
v 0.379896 -0.31575 1.22538
v 0.384756 -0.315589 1.22357
v 0.385833 -0.294586 1.21692
v 0.377379 -0.294016 1.22259
v 0.369497 -0.295341 1.22456
v 0.361951 -0.299116 1.22335
v 0.390438 -0.316465 1.21973
v 0.387693 -0.31884 1.21633
v 0.387811 -0.319125 1.2166
v 0.333135 -0.282974 1.18893
v 0.335955 -0.28371 1.18583
v 0.330125 -0.282655 1.19309
v 0.362972 -0.2729 1.17526
v 0.365271 -0.275653 1.16474
v 0.36785 -0.27247 1.16518
v 0.365109 -0.269851 1.17729
v 0.364732 -0.281682 1.15352
v 0.367251 -0.278697 1.15211
v 0.369733 -0.275506 1.15113
v 0.370463 -0.269043 1.1663
v 0.367319 -0.266608 1.18022
v 0.336832 -0.30373 1.17075
v 0.335634 -0.293611 1.18081
v 0.353298 -0.30696 1.13665
v 0.355189 -0.310235 1.14018
v 0.35742 -0.300941 1.13782
v 0.359029 -0.304398 1.14118
v 0.346451 -0.264238 1.1973
v 0.338917 -0.268192 1.19977
v 0.342708 -0.269508 1.2016
v 0.350908 -0.26605 1.19908
v 0.331543 -0.273566 1.19831
v 0.334767 -0.274647 1.20014
v 0.324567 -0.280868 1.19291
v 0.327297 -0.282015 1.19472
v 0.324328 -0.272026 1.18801
v 0.328985 -0.266708 1.18922
v 0.327034 -0.266448 1.18765
v 0.322845 -0.271971 1.18646
v 0.3335 -0.261874 1.18724
v 0.331015 -0.261221 1.18572
v 0.330981 -0.260479 1.18709
v 0.326807 -0.266302 1.18916
v 0.322405 -0.272412 1.1879
v 0.319799 -0.278135 1.18348
v 0.318736 -0.278024 1.18202
v 0.318102 -0.278968 1.18317
v 0.326583 -0.266037 1.19205
v 0.321738 -0.273077 1.19064
v 0.331156 -0.259302 1.18974
v 0.328996 -0.25789 1.19158
v 0.32448 -0.265335 1.19402
v 0.319466 -0.27301 1.19241
v 0.316996 -0.280482 1.18538
v 0.314331 -0.280974 1.1865
v 0.319319 -0.263979 1.19231
v 0.323031 -0.256678 1.19032
v 0.314926 -0.271368 1.19074
v 0.309788 -0.278745 1.18425
v 0.325427 -0.249277 1.18427
v 0.326372 -0.24281 1.17535
v 0.332765 -0.250591 1.18522
v 0.334708 -0.24461 1.17533
v 0.324531 -0.239343 1.16341
v 0.321646 -0.240193 1.14969
v 0.333947 -0.241484 1.16251
v 0.331216 -0.242948 1.14801
v 0.336759 -0.250064 1.173
v 0.336333 -0.247624 1.16169
v 0.337054 -0.244819 1.1619
v 0.337439 -0.247506 1.1742
v 0.334009 -0.249073 1.14891
v 0.334615 -0.2464 1.14805
v 0.334666 -0.254768 1.18163
v 0.335154 -0.252788 1.18368
v 0.340308 -0.253519 1.17352
v 0.340342 -0.251894 1.16231
v 0.336157 -0.249512 1.1617
v 0.33658 -0.251743 1.17245
v 0.33826 -0.253989 1.14965
v 0.333905 -0.250956 1.14951
v 0.337674 -0.257227 1.18197
v 0.334559 -0.256044 1.1806
v 0.360955 -0.26633 1.14952
v 0.362259 -0.260945 1.16545
v 0.369036 -0.265285 1.16642
v 0.368073 -0.271575 1.15017
v 0.359894 -0.259866 1.17988
v 0.365976 -0.263296 1.18124
v 0.354032 -0.261287 1.19066
v 0.359288 -0.263839 1.1923
v 0.360757 -0.266582 1.19059
v 0.358115 -0.27222 1.18309
v 0.359406 -0.269447 1.18632
v 0.359259 -0.298199 1.12845
v 0.365406 -0.286625 1.1375
v 0.363582 -0.289011 1.14062
v 0.358423 -0.299514 1.13314
v 0.361649 -0.291329 1.1439
v 0.363048 -0.294822 1.14682
v 0.366011 -0.285068 1.1559
v 0.366524 -0.278817 1.16665
v 0.364294 -0.275793 1.1768
v 0.35323 -0.306371 1.13151
v 0.352962 -0.306048 1.12629
v 0.359594 -0.274856 1.18433
v 0.353856 -0.275376 1.18893
v 0.33835 -0.285633 1.1871
v 0.343267 -0.280263 1.19009
v 0.348444 -0.277037 1.19073
v 0.356494 -0.276815 1.13483
v 0.363446 -0.2829 1.13537
v 0.356976 -0.294938 1.12541
v 0.350368 -0.303364 1.12289
v 0.334943 -0.260639 1.13742
v 0.330773 -0.256916 1.13758
v 0.327523 -0.264782 1.12895
v 0.327288 -0.263578 1.12737
v 0.330741 -0.255262 1.13641
v 0.324711 -0.271824 1.12617
v 0.324217 -0.271261 1.12447
v 0.331084 -0.253113 1.1345
v 0.327228 -0.262282 1.12471
v 0.323589 -0.25957 1.12324
v 0.327555 -0.249888 1.13369
v 0.323643 -0.271037 1.12161
v 0.3198 -0.269042 1.11981
v 0.318054 -0.246556 1.13605
v 0.314782 -0.255535 1.12554
v 0.311436 -0.264522 1.12202
v 0.39055 -0.31287 1.2501
v 0.354654 -0.30618 1.21916
v 0.34517 -0.268275 1.136
v 0.349058 -0.25974 1.14949
v 0.345434 -0.259003 1.18624
v 0.349634 -0.256382 1.17662
v 0.339597 -0.262847 1.19219
v 0.350783 -0.25605 1.1638
v 0.321887 -0.279324 1.18811
v 0.327618 -0.27262 1.19307
v 0.318374 -0.28697 1.17825
v 0.333607 -0.267264 1.19441
v 0.318777 -0.294441 1.16314
v 0.322021 -0.298616 1.14713
v 0.326505 -0.297042 1.13484
vt 1 0.6351
vt 1 0.6351
vt 1 0.6331
vt 1 0.6387
vt 1 0.6453
vt 1 0.6464
vt 1 0.6437
vt 1 0.652
vt 1 0.65
vt 1 0.6463
vt 1 0.65
vt 1 0.6464
vt 1 0.6437
vt 1 0.6375
vt 1 0.6328
vt 1 0.6375
vt 1 0.6322
vt 1 0.6317
vt 1 0.6342
vt 1 0.6331
vt 1 0.6278
vt 1 0.6379
vt 1 0.6422
vt 1 0.6317
vt 1 0.6317
vt 1 0.6351
vt 1 0.6294
vt 1 0.6322
vt 1 0.6318
vt 1 0.6331
vt 1 0.6317
vt 1 0.6453
vt 1 0.6322
vt 1 0.6342
vt 1 0.6345
vt 1 0.6291
vt 1 0.6331
vt 1 0.6453
vt 1 0.6318
vt 1 0.6331
vt 1 0.6345
vt 1 0.6353
vt 1 0.6342
vt 1 0.6292
vt 1 0.6331
vt 1 0.6294
vt 1 0.6331
vt 1 0.6328
vt 1 0.6331
vt 1 0.6345
vt 1 0.6332
vt 1 0.6292
vt 1 0.6345
vt 1 0.6487
vt 1 0.6379
vt 1 0.641
vt 1 0.6332
vt 1 0.6317
vt 1 0.6348
vt 1 0.6331
vt 1 0.6342
vt 1 0.6453
vt 1 0.6453
vt 1 0.6405
vt 1 0.6361
vt 1 0.6361
vt 1 0.663
vt 1 0.6374
vt 1 0.6324
vt 1 0.6553
vt 1 0.6346
vt 1 0.6376
vt 1 0.6371
vt 1 0.6586
vt 1 0.6411
vt 1 0.6552
vt 1 0.6493
vt 1 0.6512
vt 1 0.6332
vt 1 0.6331
vt 1 0.6327
vt 1 0.6331
vt 1 0.6332
vt 1 0.6346
vt 1 0.6367
vt 1 0.6361
vt 1 0.6361
vt 1 0.6487
vt 1 0.6405
vt 1 0.6327
vt 1 0.6371
vt 1 0.6328
vt 1 0.6374
vt 1 0.6405
vt 1 0.6336
vt 1 0.6608
vt 1 0.6367
vt 1 0.6609
vt 1 0.6353
vt 1 0.6425
vt 1 0.636
vt 1 0.6374
vt 1 0.6336
vt 1 0.659
vt 1 0.6411
vt 1 0.6387
vt 1 0.6346
vt 1 0.6552
vt 1 0.6324
vt 1 0.6574
vt 1 0.6453
vt 1 0.6586
vt 1 0.6501
vt 1 0.6447
vt 1 0.6346
vt 1 0.6305
vt 1 0.6367
vt 1 0.6548
vt 1 0.6345
vt 1 0.6317
vt 1 0.636
vt 1 0.6268
vt 1 0.6354
vt 1 0.6493
vt 1 0.6376
vt 1 0.6553
vt 1 0.6345
vt 1 0.6288
vt 1 0.6461
vt 1 0.6453
vt 1 0.635
vt 1 0.6553
vt 1 0.6331
vt 1 0.6313
vt 1 0.6405
vt 1 0.6422
vt 1 0.6367
vt 1 0.6354
vt 1 0.6332
vt 1 0.6266
vt 1 0.6375
vt 1 0.6453
vt 1 0.6376
vt 1 0.6317
vt 1 0.6346
vt 1 0.6292
vt 1 0.6354
vt 1 0.6411
vt 1 0.6376
vt 1 0.6461
vt 1 0.6331
vt 1 0.6286
vt 1 0.6586
vt 1 0.6351
vt 1 0.65
vt 1 0.6512
vt 1 0.6317
vt 1 0.659
vt 1 0.6599
vt 1 0.6328
vt 1 0.65
vt 1 0.6391
vt 1 0.6431
vt 1 0.63
vt 1 0.6552
vt 1 0.6422
vt 1 0.6413
vt 1 0.6575
vt 1 0.6409
vt 1 0.641
vt 1 0.6552
vt 1 0.6411
vt 1 0.6583
vt 1 0.6404
vt 1 0.6456
vt 1 0.6562
vt 1 0.6376
vt 1 0.6501
vt 1 0.6584
vt 1 0.6461
vt 1 0.6463
vt 1 0.6584
vt 1 0.6563
vt 1 0.6409
vt 1 0.6549
vt 1 0.6277
vt 1 0.6447
vt 1 0.6379
vt 1 0.6512
vt 1 0.6278
vt 1 0.6449
vt 1 0.6266
vt 1 0.6354
vt 1 0.645
vt 1 0.6317
vt 1 0.6575
vt 1 0.6292
vt 1 0.6322
vt 1 0.6391
vt 1 0.6456
vt 1 0.65
vt 1 0.6499
vt 1 0.6298
vt 1 0.655
vt 1 0.6503
vt 1 0.6456
vt 1 0.6552
vt 1 0.641
vt 1 0.6549
vt 1 0.645
vt 1 0.6395
vt 1 0.6499
vt 1 0.65
vt 1 0.6309
vt 1 0.6499
vt 1 0.6512
vt 1 0.6574
vt 1 0.6247
vt 1 0.6499
vt 1 0.6322
vt 1 0.6463
vt 1 0.6512
vt 1 0.6351
vt 1 0.6449
vt 1 0.6277
vt 1 0.6499
vt 1 0.6456
vt 1 0.6552
vt 1 0.6328
vt 1 0.6449
vt 1 0.6313
vt 1 0.6354
vt 1 0.6499
vt 1 0.6317
vt 1 0.6286
vt 1 0.6563
vt 1 0.6332
vt 1 0.6391
vt 1 0.6292
vt 1 0.6277
vt 1 0.6499
vt 1 0.6495
vt 1 0.6552
vt 1 0.6449
vt 1 0.6328
vt 1 0.6391
vt 1 0.63
vt 1 0.6409
vt 1 0.6586
vt 1 0.6268
vt 1 0.6449
vt 1 0.6389
vt 1 0.6564
vt 1 0.6449
vt 1 0.6247
vt 1 0.6391
vt 1 0.6277
vt 1 0.6392
vt 1 0.6575
vt 1 0.6268
vt 1 0.6391
vt 1 0.641
vt 1 0.6575
vt 1 0.6449
vt 1 0.6241
vt 1 0.6449
vt 1 0.6501
vt 1 0.6389
vt 1 0.6563
vt 1 0.6431
vt 1 0.6391
vt 1 0.6365
vt 1 0.6575
vt 1 0.6449
vt 1 0.6419
vt 1 0.6499
vt 1 0.6502
vt 1 0.6375
vt 1 0.6586
vt 1 0.6431
vt 1 0.6499
vt 1 0.6392
vt 1 0.6586
vt 1 0.6449
vt 1 0.6355
vt 1 0.6449
vt 1 0.6329
vt 1 0.6392
vt 1 0.6449
vt 1 0.6419
vt 1 0.6499
vt 1 0.6501
vt 1 0.6564
vt 1 0.6375
vt 1 0.6535
vt 1 0.6354
vt 1 0.6534
vt 1 0.6499
vt 1 0.6419
vt 1 0.6391
vt 1 0.6329
vt 1 0.6535
vt 1 0.6434
vt 1 0.6391
vt 1 0.6376
vt 1 0.63
vt 1 0.6449
vt 1 0.6449
vt 1 0.6392
vt 1 0.641
vt 1 0.6575
vt 1 0.6502
vt 1 0.6354
vt 1 0.641
vt 1 0.6317
vt 1 0.6419
vt 1 0.6575
vt 1 0.6354
vt 1 0.6392
vt 1 0.641
vt 1 0.6354
vt 1 0.6392
vt 1 0.6317
vt 1 0.6503
vt 1 0.6586
vt 1 0.6391
vt 1 0.641
vt 1 0.6372
vt 1 0.6354
vt 1 0.6365
vt 1 0.6391
vt 1 0.6313
vt 1 0.6586
vt 1 0.6354
vt 1 0.636
vt 1 0.6363
vt 1 0.6391
vt 1 0.6575
vt 1 0.6354
vt 1 0.6375
vt 1 0.6354
vt 1 0.636
vt 1 0.6354
vt 1 0.6449
vt 1 0.6347
vt 1 0.6563
vt 1 0.6436
vt 1 0.6449
vt 1 0.6435
vt 1 0.6499
vt 1 0.65
vt 1 0.6292
vt 1 0.6391
vt 1 0.6362
vt 1 0.6317
vt 1 0.6328
vt 1 0.6575
vt 1 0.6354
vt 1 0.6363
vt 1 0.6363
vt 1 0.6564
vt 1 0.6552
vt 1 0.65
vt 1 0.6449
vt 1 0.6362
vt 1 0.6449
vt 1 0.6436
vt 1 0.6391
vt 1 0.6241
vt 1 0.6391
vt 1 0.6332
vt 1 0.6364
vt 1 0.6575
vt 1 0.6363
vt 1 0.6405
vt 1 0.6375
vt 1 0.6354
vt 1 0.6449
vt 1 0.6363
vt 1 0.639
vt 1 0.6363
vt 1 0.6317
vt 1 0.6376
vt 1 0.6563
vt 1 0.6499
vt 1 0.6447
vt 1 0.6499
vt 1 0.6575
vt 1 0.6324
vt 1 0.6443
vt 1 0.6354
vt 1 0.6499
vt 1 0.655
vt 1 0.6447
vt 1 0.6354
vt 1 0.6575
vt 1 0.6387
vt 1 0.6499
vt 1 0.6379
vt 1 0.6499
vt 1 0.6499
vt 1 0.6443
vt 1 0.6298
vt 1 0.6535
vt 1 0.6301
vt 1 0.6563
vt 1 0.6443
vt 1 0.6499
vt 1 0.6575
vt 1 0.6435
vt 1 0.645
vt 1 0.6371
vt 1 0.6379
vt 1 0.639
vt 1 0.6371
vt 1 0.6449
vt 1 0.6586
vt 1 0.6371
vt 1 0.645
vt 1 0.6435
vt 1 0.6439
vt 1 0.6379
vt 1 0.6499
vt 1 0.6499
vt 1 0.6586
vt 1 0.6434
vt 1 0.6535
vt 1 0.6372
vt 1 0.6443
vt 1 0.6535
vt 1 0.6439
vt 1 0.6499
vt 1 0.6575
vt 1 0.6435
vt 1 0.6535
vt 1 0.65
vt 1 0.65
vt 1 0.6563
vt 1 0.6317
vt 1 0.6564
vt 1 0.6567
vt 1 0.6354
vt 1 0.6535
vt 1 0.6354
vt 1 0.6327
vt 1 0.6499
vt 1 0.6534
vt 1 0.6317
vt 1 0.6499
vt 1 0.6354
vt 1 0.6324
vt 1 0.6499
vt 1 0.6535
vt 1 0.6391
vt 1 0.6499
vt 1 0.6391
vt 1 0.6371
vt 1 0.6535
vt 1 0.6535
vt 1 0.6354
vt 1 0.6563
vt 1 0.6354
vt 1 0.6327
vt 1 0.6563
vt 1 0.6535
vt 1 0.6391
vt 1 0.6391
vt 1 0.6535
vt 1 0.6564
vt 1 0.6354
vt 1 0.6535
vt 1 0.6317
vt 1 0.6586
vt 1 0.6586
vt 1 0.6354
vt 1 0.6268
vt 1 0.6391
vt 1 0.6586
vt 1 0.6354
vt 1 0.6317
vt 1 0.6535
vt 1 0.641
vt 1 0.6552
vt 1 0.6392
vt 1 0.6512
vt 1 0.6393
vt 1 0.655
vt 1 0.6412
vt 1 0.6563
vt 1 0.6392
vt 1 0.6376
vt 1 0.6586
vt 1 0.652
vt 1 0.6422
vt 1 0.6341
vt 1 0.6376
vt 1 0.6461
vt 1 0.6548
vt 1 0.6461
vt 1 0.6371
vt 1 0.6531
vt 1 0.6439
vt 1 0.6393
vt 1 0.6332
vt 1 0.6345
vt 1 0.6393
vt 1 0.6609
vt 1 0.6375
vt 1 0.6328
vt 1 0.6317
vt 1 0.6376
vt 1 0.6405
vt 1 0.6367
vt 1 0.6317
vt 1 0.6331
vt 1 0.6376
vt 1 0.6313
vt 1 0.6553
vt 1 0.6394
vt 1 0.652
vt 1 0.6372
vt 1 0.6375
vt 1 0.6437
vt 1 0.652
vt 1 0.6367
vt 1 0.6553
vt 1 0.6412
vt 1 0.6553
vt 1 0.6393
vt 1 0.6586
vt 1 0.6375
vt 1 0.6367
vt 1 0.6553
vt 1 0.6437
vt 1 0.6394
vt 1 0.6553
vt 1 0.6424
vt 1 0.6522
vt 1 0.6586
vt 1 0.6376
vt 1 0.6363
vt 1 0.6423
vt 1 0.6463
vt 1 0.6437
vt 1 0.6363
vt 1 0.6405
vt 1 0.6413
vt 1 0.65
vt 1 0.65
vt 1 0.6413
vt 1 0.6376
vt 1 0.6463
vt 1 0.6439
vt 1 0.6375
vt 1 0.6395
vt 1 0.6363
vt 1 0.6367
vt 1 0.6522
vt 1 0.6364
vt 1 0.6462
vt 1 0.6437
vt 1 0.6345
vt 1 0.6463
vt 1 0.6364
vt 1 0.6289
vt 1 0.6345
vt 1 0.6363
vt 1 0.6345
vt 1 0.6371
vt 1 0.6317
vt 1 0.6331
vt 1 0.6363
vt 1 0.6512
vt 1 0.6376
vt 1 0.6364
vt 1 0.6289
vt 1 0.6461
vt 1 0.6364
vt 1 0.6405
vt 1 0.6345
vt 1 0.6363
vt 1 0.6423
vt 1 0.6376
vt 1 0.6552
vt 1 0.6363
vt 1 0.6512
vt 1 0.6363
vt 1 0.6413
vt 1 0.6376
vt 1 0.655
vt 1 0.6364
vt 1 0.6331
vt 1 0.6363
vt 1 0.6461
vt 1 0.6363
vt 1 0.6461
vt 1 0.6364
vt 1 0.6404
vt 1 0.6367
vt 1 0.6375
vt 1 0.6363
vt 1 0.6375
vt 1 0.6376
vt 1 0.6405
vt 1 0.6367
vt 1 0.6375
vt 1 0.6376
vt 1 0.6346
vt 1 0.6363
vt 1 0.6345
vt 1 0.6363
vt 1 0.6376
vt 1 0.6376
vt 1 0.6363
vt 1 0.6345
vt 1 0.6364
vt 1 0.6462
vt 1 0.6331
vt 1 0.6363
vt 1 0.6363
vt 1 0.652
vt 1 0.6346
vt 1 0.6364
vt 1 0.642
vt 1 0.6331
vt 1 0.6463
vn -0.98 -0.1714 -0.1006
vn -0.9952 -0.08057 0.05524
vn -0.9428 0.3007 0.1436
vn -0.9878 -0.0408 -0.1505
vn -0.9778 -0.07419 0.196
vn -0.9328 0.1415 0.3313
vn -0.8388 0.2426 0.4873
vn -0.8112 0.3856 0.4395
vn -0.6817 0.5091 0.5254
vn -0.7177 0.5406 0.4389
vn -0.5784 0.7101 0.4015
vn -0.667 0.7135 0.2144
vn -0.6027 0.7967 -0.04422
vn -0.7411 0.6478 -0.1762
vn -0.7176 0.5729 -0.3959
vn -0.9107 0.2859 -0.298
vn -0.925 0.03452 -0.3784
vn -0.7183 -0.4773 -0.5062
vn -0.7671 -0.5984 -0.2313
vn -0.6319 -0.2033 -0.7479
vn -0.09311 -0.4696 -0.8779
vn -0.1853 -0.7747 -0.6046
vn -0.2295 -0.9451 -0.2326
vn -0.7963 -0.6027 0.05185
vn -0.8065 -0.4872 0.3349
vn -0.2315 -0.9655 0.1188
vn -0.2126 -0.8781 0.4286
vn 0.8387 -0.4756 -0.265
vn 0.8034 -0.5726 -0.1635
vn 0.5146 -0.7693 -0.3784
vn 0.5691 -0.5741 -0.5886
vn 0.7927 -0.6095 0.01059
vn 0.496 -0.8641 -0.08515
vn 0.8191 -0.5599 0.1249
vn 0.5251 -0.8383 0.1466
vn 0.8494 -0.5164 0.1089
vn 0.5641 -0.7814 0.2668
vn -0.5403 -0.2925 -0.789
vn -0.7568 -0.422 -0.4991
vn 0.06821 -0.8352 -0.5457
vn 0.2749 -0.564 -0.7786
vn -0.8696 -0.444 -0.2161
vn -0.03336 -0.9832 -0.1792
vn -0.9037 -0.427 0.03079
vn -0.002106 -0.9894 0.1451
vn -0.9049 -0.3079 0.2938
vn 0.08908 -0.9345 0.3446
vn -0.8286 -0.5283 -0.1851
vn -0.6941 -0.5032 -0.5148
vn -0.4266 -0.8131 -0.396
vn -0.5592 -0.829 -0.003662
vn -0.4674 -0.3672 -0.8042
vn -0.1851 -0.6728 -0.7162
vn 0.2511 -0.9128 -0.3221
vn 0.03928 -0.9973 -0.06165
vn -0.06565 -0.9595 0.274
vn -0.8447 -0.3546 0.4009
vn -0.8666 -0.4852 0.1165
vn -0.5309 -0.7715 0.3504
vn -0.4038 -0.6797 0.6122
vn 0.03333 -0.8477 0.5293
vn 0.2198 -0.7725 0.5957
vn -0.37 -0.8996 0.232
vn -0.3582 -0.7802 0.5128
vn 0.1918 -0.7913 0.5805
vn 0.1112 -0.9161 0.3851
vn -0.2069 -0.6814 0.702
vn 0.3788 -0.7136 0.5893
vn 0.5422 -0.5573 0.6289
vn 0.4093 -0.69 0.597
vn 0.4235 -0.8138 0.3979
vn 0.4335 -0.805 0.4049
vn 0.3612 -0.7491 0.5553
vn 0.4542 -0.7844 0.4223
vn 0.06983 -0.4912 0.8682
vn 0.2493 -0.3744 0.8931
vn 0.5099 -0.2185 0.832
vn -0.1191 0.05048 -0.9916
vn -0.1684 0.05823 -0.984
vn -0.559 -0.2622 -0.7866
vn 0.308 0.4269 -0.8502
vn 0.2333 0.4205 -0.8767
vn 0.2962 0.3342 -0.8947
vn -0.07834 -0.04346 -0.996
vn -0.1795 -0.9788 -0.09851
vn -0.614 -0.7035 -0.3578
vn -0.7893 -0.6115 -0.05509
vn 0.1547 -0.9294 -0.335
vn -0.3121 -0.7016 -0.6405
vn -0.4319 -0.5736 -0.696
vn -0.6994 -0.5782 -0.4201
vn -0.8593 -0.492 -0.1397
vn -0.7065 -0.567 -0.4235
vn -0.8661 -0.4798 -0.1402
vn -0.4414 -0.5631 -0.6986
vn -0.4364 -0.5722 -0.6944
vn -0.7048 -0.5734 -0.4177
vn -0.8668 -0.4825 -0.1256
vn -0.9368 -0.1538 0.3141
vn -0.9279 -0.3599 0.09726
vn -0.9329 -0.3457 0.1004
vn -0.9382 -0.1387 0.317
vn -0.9297 -0.3463 0.1255
vn -0.9271 -0.1431 0.3464
vn -0.768 -0.2975 0.5671
vn -0.7989 -0.4868 0.3532
vn -0.5114 -0.6306 0.5837
vn -0.4708 -0.4812 0.7394
vn -0.7337 -0.6734 0.09024
vn -0.4353 -0.8229 0.3652
vn -0.01093 -0.802 0.5972
vn -0.04962 -0.6789 0.7326
vn -0.02213 -0.6113 0.7911
vn -0.5229 -0.8237 -0.2193
vn -0.1991 -0.9746 0.102
vn -0.2014 -0.8474 -0.4912
vn 0.1139 -0.9873 -0.1102
vn 0.367 -0.8953 0.2523
vn 0.1484 -0.9043 0.4003
vn 0.3107 -0.6406 -0.7022
vn 0.529 -0.801 -0.2803
vn 0.7266 -0.2355 -0.6454
vn 0.845 -0.4563 -0.2787
vn 0.8023 -0.5812 0.1361
vn 0.6194 -0.77 0.1528
vn 0.08771 -0.3628 -0.9277
vn 0.07218 -0.3564 -0.9315
vn 0.5563 -0.001129 -0.831
vn 0.5404 -0.001648 -0.8414
vn 0.5485 -0.01794 -0.836
vn 0.07892 -0.3701 -0.9256
vn 0.7104 0.2241 -0.6672
vn 0.7004 0.2215 -0.6785
vn 0.7605 0.4315 -0.4851
vn 0.7552 0.4293 -0.4953
vn 0.7707 0.407 -0.4901
vn 0.7121 0.2025 -0.6722
vn 0.8574 0.01572 -0.5143
vn 0.9464 -0.2414 -0.2146
vn 0.9091 0.2154 -0.3564
vn 0.9916 -0.08975 -0.09238
vn 0.8377 -0.4643 0.2875
vn 0.8541 -0.4861 0.1848
vn 0.8986 0.4236 -0.1139
vn 0.9902 0.03375 0.1352
vn 0.7909 0.583 0.1861
vn 0.8921 0.1018 0.4401
vn 0.6446 -0.5134 0.5665
vn 0.7656 -0.4855 0.422
vn 0.7189 0.6552 -0.2321
vn 0.7175 0.6527 -0.2431
vn 0.5667 0.8233 0.03122
vn 0.5717 0.8202 0.017
vn 0.5993 0.8003 0.01877
vn 0.7384 0.6298 -0.241
vn 0.344 0.9045 0.252
vn 0.3556 0.9041 0.2368
vn 0.07242 0.9008 0.4282
vn 0.08658 0.9051 0.4163
vn 0.117 0.8934 0.4337
vn 0.3872 0.889 0.2443
vn 0.5797 0.6559 0.4834
vn 0.6817 0.1135 0.7228
vn 0.2815 0.624 0.729
vn 0.3985 0.06635 0.9147
vn 0.3356 -0.5554 0.7608
vn 0.4879 -0.5373 0.6879
vn -0.09742 0.468 0.8783
vn 0.07553 -0.04114 0.9963
vn -0.4299 0.2196 0.8758
vn -0.1863 -0.1896 0.964
vn 0.1123 -0.5757 0.8099
vn 0.1995 -0.5643 0.801
vn -0.2783 0.7734 0.5695
vn -0.2675 0.782 0.5629
vn -0.609 0.5092 0.6081
vn -0.6031 0.5202 0.6046
vn -0.5852 0.5054 0.634
vn -0.2438 0.7696 0.5901
vn -0.8383 0.1751 0.5164
vn -0.8357 0.1885 0.5159
vn -0.8195 0.1769 0.545
vn -0.6466 -0.04254 0.7616
vn -0.357 -0.3279 0.8746
vn 0.04355 -0.5796 0.8137
vn -0.2415 -0.5503 0.7993
vn -0.08475 -0.4451 0.8914
vn 0.3677 -0.6553 0.6598
vn 0.306 -0.6081 0.7325
vn 0.06858 -0.3495 0.9344
vn 0.3423 -0.7401 0.5788
vn -0.32 -0.8265 0.4631
vn 0.1889 -0.7336 0.6528
vn 0.2668 -0.8318 0.4867
vn -0.1319 -0.9791 0.1548
vn 0.4431 -0.8222 0.3572
vn 0.3044 -0.9479 -0.09381
vn 0.5194 -0.09732 0.849
vn 0.2672 -0.1939 0.9439
vn -0.136 0.9712 0.1957
vn 0.1679 0.9821 0.08432
vn -0.58 0.6875 0.4369
vn -0.653 0.7565 0.03543
vn -0.3104 0.9372 -0.159
vn -0.08087 0.9548 -0.2861
vn -0.8457 0.2061 0.4921
vn -0.9061 -0.169 0.3877
vn -0.9807 -0.03717 0.1918
vn -0.9094 0.378 0.1737
vn 0.2371 -0.9639 0.1212
vn 0.4484 -0.8928 -0.04147
vn -0.9057 -0.3781 0.1915
vn -0.8913 -0.1794 0.4164
vn -0.8463 -0.5278 -0.0719
vn -0.328 0.94 -0.09387
vn -0.06354 0.9705 -0.2323
vn -0.6674 0.7412 0.0719
vn -0.6712 0.7282 0.1386
vn -0.3294 0.9442 0.005707
vn -0.02911 0.9902 -0.1364
vn -0.9141 0.3689 0.1683
vn -0.9856 -0.04358 0.1633
vn -0.9882 -0.05414 0.1431
vn -0.9147 0.3589 0.1857
vn -0.9838 -0.07755 0.1615
vn -0.9011 0.3554 0.2482
vn -0.9105 0.3563 0.2097
vn -0.9883 -0.06433 0.1382
vn -0.6503 0.7227 0.2341
vn -0.6638 0.7227 0.1925
vn -0.8543 -0.5107 -0.09656
vn -0.6628 -0.6363 -0.3947
vn -0.6614 -0.643 -0.3862
vn -0.8488 -0.5178 -0.1063
vn -0.2546 -0.5766 -0.7764
vn -0.2579 -0.5937 -0.7622
vn -0.2518 -0.606 -0.7545
vn -0.6535 -0.6536 -0.3818
vn -0.8406 -0.5311 -0.1057
vn 0.006897 0.9995 -0.03079
vn -0.3142 0.9417 0.1199
vn -0.306 0.9394 0.1545
vn 0.01569 0.9998 -0.007996
vn -0.6362 0.7185 0.281
vn -0.6239 0.7053 0.3366
vn -0.2986 0.9331 0.2003
vn 0.02878 0.9992 0.02579
vn -0.8865 0.3485 0.3042
vn -0.9732 -0.09449 0.2097
vn -0.9561 -0.1133 0.2702
vn -0.8676 0.3338 0.3685
vn -0.2891 0.9185 0.2698
vn 0.04993 0.9952 0.08393
vn -0.6106 0.6799 0.4059
vn -0.5867 0.634 0.5037
vn -0.2676 0.8852 0.3804
vn 0.08756 0.979 0.1838
vn -0.8439 0.311 0.4371
vn -0.933 -0.1326 0.3345
vn -0.8994 -0.1564 0.4081
vn -0.8087 0.2746 0.5202
vn -0.2183 0.8063 0.5496
vn 0.1519 0.9249 0.3485
vn -0.5332 0.5483 0.6443
vn -0.4314 0.4015 0.8079
vn -0.1313 0.6451 0.7527
vn 0.2408 0.7887 0.5656
vn -0.744 0.2127 0.6333
vn -0.8402 -0.1924 0.5069
vn -0.7356 -0.2437 0.6321
vn -0.6297 0.1142 0.7684
vn -0.03607 0.4293 0.9024
vn 0.3174 0.5865 0.7451
vn -0.3034 0.225 0.9259
vn -0.1859 0.07144 0.9799
vn 0.03906 0.2345 0.9713
vn 0.36 0.3854 0.8496
vn -0.4817 -0.001068 0.8763
vn -0.5926 -0.2972 0.7486
vn -0.4354 -0.3373 0.8347
vn -0.334 -0.1022 0.937
vn 0.1148 0.02667 0.993
vn 0.3822 0.1461 0.9124
vn -0.05628 -0.08661 0.9946
vn 0.08478 -0.251 0.9642
vn 0.2528 -0.2968 0.9209
vn 0.4015 -0.1115 0.909
vn -0.167 -0.2083 0.9637
vn -0.2325 -0.364 0.9019
vn 0.04218 -0.3771 0.9252
vn 0.1201 -0.3418 0.932
vn 0.8756 -0.27 0.4004
vn 0.8185 -0.23 0.5265
vn 0.534 -0.3954 0.7472
vn 0.8271 -0.3684 0.4245
vn 0.7851 -0.1133 0.6088
vn 0.5864 -0.1928 0.7867
vn 0.1398 -0.4555 0.8791
vn 0.1774 -0.5645 0.8061
vn 0.4711 -0.5713 0.672
vn 0.6649 -0.5917 0.4558
vn 0.7641 -0.4508 0.4614
vn 0.8399 -0.4132 0.3518
vn -0.4364 -0.5483 0.7134
vn -0.231 -0.5296 0.8162
vn -0.2909 -0.7622 0.5783
vn -0.07294 -0.7074 0.703
vn 0.07285 -0.9303 0.3595
vn 0.2398 -0.8244 0.5126
vn 0.5243 -0.8466 0.09113
vn 0.6101 -0.7434 0.274
vn -0.5923 -0.7454 0.306
vn -0.272 -0.962 0.02426
vn -0.08606 -0.9736 0.2111
vn -0.4442 -0.7709 0.4565
vn 0.2412 -0.9153 -0.3225
vn 0.4114 -0.9066 -0.09375
vn -0.7138 -0.516 0.4735
vn -0.5828 -0.542 0.6054
vn -0.7704 -0.6355 0.05008
vn -0.5423 -0.7986 -0.261
vn -0.44 -0.8853 -0.15
vn -0.7071 -0.6894 0.157
vn -0.08267 -0.7613 -0.6431
vn 0.05524 -0.8496 -0.5244
vn -0.8615 -0.4464 0.242
vn -0.8089 -0.4786 0.3415
vn -0.8192 -0.5701 -0.06189
vn -0.624 -0.6962 -0.3548
vn -0.5955 -0.736 -0.3221
vn -0.802 -0.597 -0.01813
vn -0.2114 -0.6499 -0.73
vn -0.1653 -0.6933 -0.7014
vn -0.9074 -0.4034 0.1181
vn -0.8896 -0.4231 0.1722
vn -0.6412 -0.6709 -0.3726
vn -0.8308 -0.5491 -0.09046
vn -0.237 -0.6232 -0.7452
vn -0.9311 -0.3618 0.04544
vn -0.9208 -0.3829 0.07416
vn -0.9422 -0.33 0.0582
vn -0.9384 -0.3432 0.03989
vn 0.5402 0.4798 -0.6914
vn 0.5071 0.183 -0.8422
vn 0.5251 0.1898 -0.8296
vn 0.5548 0.4721 -0.685
vn 0.4209 -0.0506 -0.9057
vn 0.4357 -0.03574 -0.8994
vn 0.4341 -0.00824 -0.9008
vn 0.5093 0.2157 -0.8331
vn 0.5234 0.4886 -0.698
vn -0.8519 -0.518 -0.0763
vn -0.6274 -0.644 -0.4376
vn -0.6523 -0.6339 -0.4154
vn -0.8558 -0.5101 -0.08621
vn -0.1795 -0.5384 -0.8233
vn -0.2315 -0.5516 -0.8014
vn -0.9406 -0.3187 0.1169
vn -0.9429 -0.3213 0.08728
vn -0.5506 -0.7548 -0.3563
vn -0.7996 -0.6001 0.02051
vn -0.03467 -0.6855 -0.7272
vn 0.8895 -0.4484 -0.08792
vn 0.9372 -0.346 0.04331
vn 0.7415 0.1903 -0.6434
vn 0.6962 -0.03198 -0.7172
vn 0.92 -0.2987 0.2535
vn 0.7554 0.4094 -0.5116
vn 0.435 0.5507 -0.7123
vn 0.4784 0.3063 -0.823
vn 0.4625 0.07956 -0.883
vn -0.6727 -0.6357 -0.3785
vn -0.3878 -0.6433 -0.6601
vn 0.1363 -0.442 -0.8866
vn 0.5968 -0.07239 -0.7991
vn 0.2224 -0.6354 0.7395
vn -0.3333 -0.6686 0.6647
vn 0.7357 -0.6 0.3141
vn 0.6274 -0.7161 0.3059
vn 0.7136 -0.6854 -0.1447
vn 0.4926 -0.3399 -0.801
vn 0.2783 -0.2065 -0.938
vn 0.7168 -0.5673 0.4053
vn 0.5799 -0.6216 0.5265
vn -0.8811 -0.4031 0.2472
vn 0.4079 -0.7124 0.571
vn 0.8213 -0.3051 0.4819
vn 0.2899 -0.7819 0.5519
vn 0.7061 -0.3028 0.64
vn 0.7545 0.1548 -0.6378
vn 0.8129 0.3562 -0.4607
vn 0.7879 0.577 -0.2151
vn 0.659 0.7502 0.05325
vn 0.4743 0.2635 -0.84
vn 0.4295 0.03809 -0.9022
vn 0.4601 0.5235 -0.7171
vn 0.2271 -0.2385 -0.9442
vn 0.2113 -0.2785 -0.9369
vn 0.2073 -0.3029 -0.9302
vn 0.2028 -0.3174 -0.9263
vn 0.4542 0.7204 -0.5242
vn 0.4971 0.7107 -0.4978
vn 0.3241 0.8693 -0.3732
vn 0.3749 0.8652 -0.3329
vn 0.3828 0.8691 -0.3131
vn 0.4916 0.721 -0.4882
vn 0.487 0.1756 -0.8555
vn 0.4082 -0.06876 -0.9103
vn 0.5195 0.4922 -0.6984
vn 0.5297 0.4938 -0.6895
vn 0.4963 0.1549 -0.8542
vn 0.4176 -0.09839 -0.9033
vn 0.2054 -0.3349 -0.9196
vn 0.2242 -0.3616 -0.9049
vn 0.5463 0.1174 -0.8292
vn 0.4601 -0.1414 -0.8765
vn 0.5825 0.4776 -0.6576
vn 0.6797 0.4344 -0.591
vn 0.6406 0.05963 -0.7655
vn 0.5447 -0.1993 -0.8146
vn 0.2696 -0.4017 -0.8751
vn 0.3554 -0.4592 -0.8141
vn 0.7582 -0.01657 -0.6518
vn 0.6623 -0.2694 -0.6991
vn 0.7973 0.3608 -0.4838
vn 0.9028 0.2618 -0.3412
vn 0.8659 -0.1021 -0.4897
vn 0.7828 -0.341 -0.5206
vn 0.4849 -0.5309 -0.6949
vn 0.6341 -0.5924 -0.4969
vn 0.9365 -0.1842 -0.2984
vn 0.8641 -0.3953 -0.3115
vn 0.9737 0.146 -0.1746
vn 0.9997 0.02231 0.0002747
vn 0.9617 -0.2543 -0.1018
vn 0.8978 -0.4257 -0.1124
vn 0.7447 -0.6113 -0.2675
vn 0.7985 -0.5979 -0.06888
vn 0.9428 -0.3118 0.1175
vn 0.8932 -0.4358 0.1109
vn 0.9742 -0.1189 0.192
vn 0.821 -0.5532 0.1408
vn 0.9478 0.2655 0.1763
vn 0.9428 0.06827 0.3263
vn 0.8351 0.3972 0.3806
vn 0.8418 0.1757 0.5103
vn 0.6453 0.4443 0.6214
vn 0.6644 0.2102 0.7172
vn 0.8236 0.556 -0.1117
vn 0.907 0.4197 0.03488
vn 0.7007 0.7063 0.1003
vn 0.7894 0.5591 0.2532
vn 0.5203 0.7898 0.3247
vn 0.6034 0.622 0.4989
vn 0.6041 0.7198 -0.3419
vn 0.7124 0.6585 -0.2425
vn 0.4874 0.8595 -0.1538
vn 0.5858 0.809 -0.04727
vn 0.3279 0.9447 0.007904
vn 0.4135 0.8997 0.1397
vn 0.4835 0.7487 -0.4534
vn 0.5237 0.7465 -0.4104
vn 0.3904 0.8807 -0.2682
vn 0.4227 0.8782 -0.2237
vn 0.2443 0.9624 -0.1188
vn 0.2741 0.959 -0.07187
vn 0.4768 0.7378 -0.4779
vn 0.3806 0.8761 -0.296
vn 0.2209 0.9614 -0.1641
vn 0.2288 0.9624 -0.1462
vn 0.1592 0.9558 -0.2472
vn 0.2059 0.9599 -0.19
vn -0.004028 0.998 -0.06345
vn 0.3364 0.752 -0.5668
vn 0.377 0.7398 -0.5572
vn 0.1907 0.8775 -0.44
vn 0.2418 0.8741 -0.4212
vn 0.03912 0.9364 -0.3488
vn 0.0875 0.9443 -0.3173
vn 0.7265 0.6134 -0.3097
vn 0.5849 0.8048 -0.1004
vn 0.2613 -0.7967 0.5449
vn 0.2248 -0.8178 0.5297
vn 0.4487 0.8421 0.2991
vn 0.1704 0.8422 0.5115
vn -0.2011 0.7064 0.6785
vn -0.5455 0.4388 0.714
vn 0.2379 -0.8133 0.5309
vn 0.6161 -0.2136 0.7581
vn 0.3569 0.9333 0.03803
vn 0.4673 -0.7316 0.4964
vn -0.04727 -0.5892 0.8065
vn 0.3284 -0.7529 0.5703
vn 0.9194 -0.1515 0.363
vn 0.9678 -0.2077 0.1421
vn 0.7322 -0.6256 0.2693
vn 0.6326 -0.6958 0.3402
vn 0.9681 -0.2505 0.0005799
vn 0.8037 -0.5535 0.2182
vn 0.9868 -0.1258 -0.1016
vn 0.9849 -0.1327 0.111
vn 0.9033 -0.2245 0.3654
vn -0.8493 -0.4856 0.2069
vn -0.837 -0.3124 0.4492
vn 0.6153 -0.6948 -0.3723
vn 0.2455 -0.4872 -0.838
vn 0.8783 -0.399 -0.2633
vn 0.695 -0.1073 -0.7109
vn -0.05945 0.8049 0.5904
vn -0.3432 0.5785 0.7399
vn 0.09677 0.01694 0.9951
vn 0.3751 0.2676 0.8875
vn -0.5889 0.2616 0.7647
vn -0.1278 -0.2759 0.9526
vn -0.7579 -0.07163 0.6484
vn -0.2729 -0.5041 0.8193
vn -0.7223 0.3216 0.6123
vn -0.5224 0.5665 0.6374
vn 0.3307 -0.1473 0.9322
vn 0.141 -0.5257 0.8389
vn -0.266 0.7502 0.6053
vn 0.5599 0.1993 0.8042
vn 0.8675 -0.4579 0.1942
vn 0.815 -0.562 0.1411
vn 0.8107 -0.5813 0.06946
vn -0.8587 0.008332 0.5124
vn 0.1062 -0.8132 0.5722
vn 0.8395 -0.5402 0.05762
vn 0.7411 -0.4426 0.5048
vn 0.6648 -0.6184 0.419
vn 0.8358 -0.1963 0.5126
vn 0.3308 0.3073 0.8922
vn 0.1875 -0.06671 0.98
vn 0.02091 -0.4201 0.9072
vn 0.6094 -0.7132 0.3462
vn -0.1288 -0.6905 0.7117
vn -0.4791 0.2726 0.8343
vn -0.3298 0.5396 0.7746
vn -0.6243 -0.0003967 0.7812
vn -0.7517 -0.2726 0.6005
vn -0.1983 0.7387 0.6442
vn -0.0896 0.8947 0.4374
vn 0.4325 0.5947 0.6776
vn 0.4964 0.7858 0.3689
vn -0.038 0.9925 0.1158
vn -0.06009 0.9711 -0.2311
vn 0.4974 0.8674 0.009247
vn 0.4519 0.8293 -0.3286
vn 0.9789 -0.2037 0.01279
vn 0.9776 -0.1763 -0.1147
vn 0.9528 0.2911 -0.08597
vn 0.962 0.2156 0.1675
vn 0.9695 -0.1899 -0.1551
vn 0.921 0.2709 -0.2797
vn 0.9376 -0.3122 0.153
vn 0.9174 0.04044 0.3959
vn 0.2639 0.9251 0.2729
vn 0.4359 0.8983 -0.05536
vn 0.9023 0.4184 -0.1036
vn 0.8611 0.4641 0.2074
vn 0.4887 0.7848 -0.3809
vn 0.8932 0.3313 -0.3041
vn 0.008576 0.8665 0.4991
vn 0.7408 0.3941 0.5439
vn 0.4964 0.7363 -0.4599
vn 0.4787 0.8654 -0.1482
vn 0.7825 0.6172 -0.08213
vn 0.7526 0.5154 -0.4097
vn 0.3696 0.916 0.1561
vn 0.7456 0.5971 0.2959
vn 0.1822 0.8983 0.3998
vn 0.6056 0.4668 0.6444
vn 0.7327 -0.3808 0.5641
vn 0.7582 -0.1419 0.6364
vn 0.5112 -0.7615 0.3984
vn 0.8469 -0.3507 -0.3996
vn 0.9493 -0.1887 -0.2514
vn 0.8553 -0.4999 0.1362
vn 0.8408 -0.541 0.01556
vn 0.9508 -0.2811 -0.1297
vn 0.8275 0.1084 -0.5509
vn 0.8777 0.2878 -0.3832
vn 0.8556 0.4967 -0.1457
vn 0.7199 0.6806 0.1362
vn 0.6879 -0.7227 -0.06717
vn 0.572 -0.6687 -0.4749
vn 0.4909 0.773 0.4018
vn 0.1986 0.7571 0.6223
vn -0.7301 -0.02976 0.6827
vn -0.5112 0.2907 0.8088
vn -0.175 0.589 0.7889
vn 0.4464 0.5625 -0.6959
vn 0.6915 0.3376 -0.6387
vn 0.56 0.07508 -0.825
vn 0.213 -0.343 -0.9149
vn 0.459 0.6329 -0.6235
vn 0.8605 0.2527 -0.4424
vn 0.7971 0.1129 -0.5932
vn 0.9465 -0.2413 -0.2144
vn 0.9652 -0.1995 -0.1688
vn 0.6113 -0.1824 -0.77
vn 0.8988 -0.3494 -0.2645
vn 0.8896 0.1902 -0.4151
vn 0.8178 0.03864 -0.5741
vn 0.2891 0.4454 -0.8473
vn 0.3944 0.6985 -0.5971
vn 0.6783 -0.2717 -0.6827
vn 0.09058 -0.01099 -0.9958
vn -0.1147 0.8503 -0.5136
vn -0.2594 0.6087 -0.7498
vn -0.4565 0.2184 -0.8625
vn -0.3226 0.9431 0.08008
vn -0.7772 0.1236 0.6171
vn 0.3919 0.6326 -0.6679
vn 0.4315 0.7949 -0.4264
vn 0.01886 0.9192 0.3932
vn 0.2408 0.9522 0.1876
vn -0.2319 0.8295 0.508
vn 0.3889 0.9146 -0.1103
vn -0.8732 0.09726 0.4776
vn -0.7121 0.4081 0.5713
vn -0.9428 -0.1999 0.2665
vn -0.491 0.6569 0.5721
vn -0.9375 -0.3472 0.0224
vn -0.8902 -0.3959 -0.2252
vn -0.7703 -0.3836 -0.5094
f 1/1/1 2/2/2 3/3/3
f 1/1/1 3/3/3 4/4/4
f 5/5/5 6/6/6 3/3/3
f 5/5/5 3/3/3 2/2/2
f 7/7/7 8/8/8 3/3/3
f 7/7/7 3/3/3 6/6/6
f 9/9/9 10/10/10 3/3/3
f 9/9/9 3/3/3 8/8/8
f 11/11/11 12/12/12 3/3/3
f 11/11/11 3/3/3 10/10/10
f 13/13/13 14/14/14 3/3/3
f 13/13/13 3/3/3 12/12/12
f 15/15/15 16/16/16 3/3/3
f 15/15/15 3/3/3 14/14/14
f 17/17/17 4/4/4 3/3/3
f 17/17/17 3/3/3 16/16/16
f 1/1/1 4/4/4 18/18/18
f 1/1/1 18/18/18 19/19/19
f 4/4/4 17/17/17 20/20/20
f 4/4/4 20/20/20 18/18/18
f 18/18/18 20/20/20 21/21/21
f 18/18/18 21/21/21 22/22/22
f 19/19/19 18/18/18 22/22/22
f 19/19/19 22/22/22 23/23/23
f 5/5/5 2/2/2 24/24/24
f 5/5/5 24/24/24 25/25/25
f 2/2/2 1/1/1 19/19/19
f 2/2/2 19/19/19 24/24/24
f 24/24/24 19/19/19 23/23/23
f 24/24/24 23/23/23 26/26/26
f 25/25/25 24/24/24 26/26/26
f 25/25/25 26/26/26 27/27/27
f 28/28/28 29/29/29 30/30/30
f 28/28/28 30/30/30 31/31/31
f 29/29/29 32/32/32 33/33/33
f 29/29/29 33/33/33 30/30/30
f 30/30/30 33/33/33 23/23/23
f 30/30/30 23/23/23 22/22/22
f 31/31/31 30/30/30 22/22/22
f 31/31/31 22/22/22 21/21/21
f 32/32/32 34/34/34 35/35/35
f 32/32/32 35/35/35 33/33/33
f 34/34/34 36/36/36 37/37/37
f 34/34/34 37/37/37 35/35/35
f 35/35/35 37/37/37 27/27/27
f 35/35/35 27/27/27 26/26/26
f 33/33/33 35/35/35 26/26/26
f 33/33/33 26/26/26 23/23/23
f 38/38/38 39/39/39 40/40/40
f 38/38/38 40/40/40 41/41/41
f 39/39/39 42/42/42 43/43/43
f 39/39/39 43/43/43 40/40/40
f 40/40/40 43/43/43 32/32/32
f 40/40/40 32/32/32 29/29/29
f 41/41/41 40/40/40 29/29/29
f 41/41/41 29/29/29 28/28/28
f 42/42/42 44/44/44 45/45/45
f 42/42/42 45/45/45 43/43/43
f 44/44/44 46/46/46 47/47/47
f 44/44/44 47/47/47 45/45/45
f 45/45/45 47/47/47 36/36/36
f 45/45/45 36/36/36 34/34/34
f 43/43/43 45/45/45 34/34/34
f 43/43/43 34/34/34 32/32/32
f 48/48/48 49/49/49 50/50/50
f 48/48/48 50/50/50 51/51/51
f 49/49/49 52/52/52 53/53/53
f 49/49/49 53/53/53 50/50/50
f 50/50/50 53/53/53 54/54/54
f 50/50/50 54/54/54 55/55/55
f 51/51/51 50/50/50 55/55/55
f 51/51/51 55/55/55 56/56/56
f 57/57/57 58/58/58 59/59/59
f 57/57/57 59/59/59 60/60/60
f 58/58/58 48/48/48 51/51/51
f 58/58/58 51/51/51 59/59/59
f 59/59/59 51/51/51 56/56/56
f 59/59/59 56/56/56 61/61/61
f 60/60/60 59/59/59 61/61/61
f 60/60/60 61/61/61 62/62/62
f 63/63/63 64/64/64 65/65/65
f 63/63/63 65/65/65 66/66/66
f 64/64/64 67/67/67 68/68/68
f 64/64/64 68/68/68 65/65/65
f 65/65/65 68/68/68 62/62/62
f 65/65/65 62/62/62 61/61/61
f 66/66/66 65/65/65 61/61/61
f 66/66/66 61/61/61 56/56/56
f 69/69/69 70/70/70 71/71/71
f 69/69/69 71/71/71 72/72/72
f 70/70/70 73/73/73 74/74/74
f 70/70/70 74/74/74 71/71/71
f 71/71/71 74/74/74 75/75/75
f 71/71/71 75/75/75 76/76/76
f 72/72/72 71/71/71 76/76/76
f 72/72/72 76/76/76 77/77/77
f 38/38/38 78/78/78 79/79/79
f 38/38/38 79/79/79 80/80/80
f 78/78/78 81/81/81 82/82/82
f 78/78/78 82/82/82 79/79/79
f 79/79/79 82/82/82 83/83/83
f 79/79/79 83/83/83 84/84/84
f 80/80/80 79/79/79 84/84/84
f 80/80/80 84/84/84 52/52/52
f 63/63/63 85/85/85 86/86/86
f 63/63/63 86/86/86 87/87/87
f 85/85/85 88/88/88 89/89/89
f 85/85/85 89/89/89 86/86/86
f 86/86/86 89/89/89 90/90/90
f 86/86/86 90/90/90 91/91/91
f 87/87/87 86/86/86 91/91/91
f 87/87/87 91/91/91 92/92/92
f 92/92/92 91/91/91 93/93/93
f 92/92/92 93/93/93 94/94/94
f 91/91/91 90/90/90 95/95/95
f 91/91/91 95/95/95 93/93/93
f 93/93/93 95/95/95 96/96/96
f 93/93/93 96/96/96 97/97/97
f 94/94/94 93/93/93 97/97/97
f 94/94/94 97/97/97 98/98/98
f 99/99/99 100/100/100 101/101/101
f 99/99/99 101/101/101 102/102/102
f 100/100/100 92/92/92 94/94/94
f 100/100/100 94/94/94 101/101/101
f 101/101/101 94/94/94 98/98/98
f 101/101/101 98/98/98 103/103/103
f 102/102/102 101/101/101 103/103/103
f 102/102/102 103/103/103 104/104/104
f 105/105/105 106/106/106 107/107/107
f 105/105/105 107/107/107 108/108/108
f 106/106/106 109/109/109 110/110/110
f 106/106/106 110/110/110 107/107/107
f 107/107/107 110/110/110 111/111/111
f 107/107/107 111/111/111 112/112/112
f 108/108/108 107/107/107 112/112/112
f 108/108/108 112/112/112 113/113/113
f 109/109/109 114/114/114 115/115/115
f 109/109/109 115/115/115 110/110/110
f 114/114/114 116/116/116 117/117/117
f 114/114/114 117/117/117 115/115/115
f 115/115/115 117/117/117 118/118/118
f 115/115/115 118/118/118 119/119/119
f 110/110/110 115/115/115 119/119/119
f 110/110/110 119/119/119 111/111/111
f 116/116/116 120/120/120 121/121/121
f 116/116/116 121/121/121 117/117/117
f 120/120/120 122/122/122 123/123/123
f 120/120/120 123/123/123 121/121/121
f 121/121/121 123/123/123 124/124/124
f 121/121/121 124/124/124 125/125/125
f 117/117/117 121/121/121 125/125/125
f 117/117/117 125/125/125 118/118/118
f 90/90/90 126/126/126 127/127/127
f 90/90/90 127/127/127 95/95/95
f 126/126/126 128/128/128 129/129/129
f 126/126/126 129/129/129 127/127/127
f 127/127/127 129/129/129 130/130/130
f 127/127/127 130/130/130 131/131/131
f 95/95/95 127/127/127 131/131/131
f 95/95/95 131/131/131 96/96/96
f 128/128/128 132/132/132 133/133/133
f 128/128/128 133/133/133 129/129/129
f 132/132/132 134/134/134 135/135/135
f 132/132/132 135/135/135 133/133/133
f 133/133/133 135/135/135 136/136/136
f 133/133/133 136/136/136 137/137/137
f 129/129/129 133/133/133 137/137/137
f 129/129/129 137/137/137 130/130/130
f 122/122/122 138/138/138 139/139/139
f 122/122/122 139/139/139 123/123/123
f 138/138/138 140/140/140 141/141/141
f 138/138/138 141/141/141 139/139/139
f 139/139/139 141/141/141 142/142/142
f 139/139/139 142/142/142 143/143/143
f 123/123/123 139/139/139 143/143/143
f 123/123/123 143/143/143 124/124/124
f 140/140/140 144/144/144 145/145/145
f 140/140/140 145/145/145 141/141/141
f 144/144/144 146/146/146 147/147/147
f 144/144/144 147/147/147 145/145/145
f 145/145/145 147/147/147 148/148/148
f 145/145/145 148/148/148 149/149/149
f 141/141/141 145/145/145 149/149/149
f 141/141/141 149/149/149 142/142/142
f 134/134/134 150/150/150 151/151/151
f 134/134/134 151/151/151 135/135/135
f 150/150/150 152/152/152 153/153/153
f 150/150/150 153/153/153 151/151/151
f 151/151/151 153/153/153 154/154/154
f 151/151/151 154/154/154 155/155/155
f 135/135/135 151/151/151 155/155/155
f 135/135/135 155/155/155 136/136/136
f 152/152/152 156/156/156 157/157/157
f 152/152/152 157/157/157 153/153/153
f 156/156/156 158/158/158 159/159/159
f 156/156/156 159/159/159 157/157/157
f 157/157/157 159/159/159 160/160/160
f 157/157/157 160/160/160 161/161/161
f 153/153/153 157/157/157 161/161/161
f 153/153/153 161/161/161 154/154/154
f 146/146/146 162/162/162 163/163/163
f 146/146/146 163/163/163 147/147/147
f 162/162/162 164/164/164 165/165/165
f 162/162/162 165/165/165 163/163/163
f 163/163/163 165/165/165 166/166/166
f 163/163/163 166/166/166 167/167/167
f 147/147/147 163/163/163 167/167/167
f 147/147/147 167/167/167 148/148/148
f 164/164/164 168/168/168 169/169/169
f 164/164/164 169/169/169 165/165/165
f 168/168/168 170/170/170 171/171/171
f 168/168/168 171/171/171 169/169/169
f 169/169/169 171/171/171 172/172/172
f 169/169/169 172/172/172 173/173/173
f 165/165/165 169/169/169 173/173/173
f 165/165/165 173/173/173 166/166/166
f 158/158/158 174/174/174 175/175/175
f 158/158/158 175/175/175 159/159/159
f 174/174/174 176/176/176 177/177/177
f 174/174/174 177/177/177 175/175/175
f 175/175/175 177/177/177 178/178/178
f 175/175/175 178/178/178 179/179/179
f 159/159/159 175/175/175 179/179/179
f 159/159/159 179/179/179 160/160/160
f 176/176/176 180/180/180 181/181/181
f 176/176/176 181/181/181 177/177/177
f 180/180/180 99/99/99 102/102/102
f 180/180/180 102/102/102 181/181/181
f 181/181/181 102/102/102 104/104/104
f 181/181/181 104/104/104 182/182/182
f 177/177/177 181/181/181 182/182/182
f 177/177/177 182/182/182 178/178/178
f 170/170/170 183/183/183 184/184/184
f 170/170/170 184/184/184 171/171/171
f 183/183/183 105/105/105 108/108/108
f 183/183/183 108/108/108 184/184/184
f 184/184/184 108/108/108 113/113/113
f 184/184/184 113/113/113 185/185/185
f 171/171/171 184/184/184 185/185/185
f 171/171/171 185/185/185 172/172/172
f 186/186/186 187/187/187 188/188/188
f 186/186/186 188/188/188 189/189/189
f 187/187/187 190/190/190 191/191/191
f 187/187/187 191/191/191 188/188/188
f 188/188/188 191/191/191 172/172/172
f 188/188/188 172/172/172 185/185/185
f 189/189/189 188/188/188 185/185/185
f 189/189/189 185/185/185 113/113/113
f 192/192/192 193/193/193 194/194/194
f 192/192/192 194/194/194 195/195/195
f 193/193/193 111/111/111 119/119/119
f 193/193/193 119/119/119 194/194/194
f 194/194/194 119/119/119 118/118/118
f 194/194/194 118/118/118 196/196/196
f 195/195/195 194/194/194 196/196/196
f 195/195/195 196/196/196 197/197/197
f 198/198/198 199/199/199 200/200/200
f 198/198/198 200/200/200 201/201/201
f 199/199/199 190/190/190 202/202/202
f 199/199/199 202/202/202 200/200/200
f 200/200/200 202/202/202 203/203/203
f 200/200/200 203/203/203 204/204/204
f 201/201/201 200/200/200 204/204/204
f 201/201/201 204/204/204 205/205/205
f 190/190/190 187/187/187 206/206/206
f 190/190/190 206/206/206 202/202/202
f 187/187/187 186/186/186 207/207/207
f 187/187/187 207/207/207 206/206/206
f 206/206/206 207/207/207 208/208/208
f 206/206/206 208/208/208 209/209/209
f 202/202/202 206/206/206 209/209/209
f 202/202/202 209/209/209 203/203/203
f 88/88/88 85/85/85 210/210/210
f 88/88/88 210/210/210 211/211/211
f 85/85/85 63/63/63 66/66/66
f 85/85/85 66/66/66 210/210/210
f 210/210/210 66/66/66 56/56/56
f 210/210/210 56/56/56 55/55/55
f 211/211/211 210/210/210 55/55/55
f 211/211/211 55/55/55 54/54/54
f 104/104/104 103/103/103 212/212/212
f 104/104/104 212/212/212 213/213/213
f 103/103/103 98/98/98 214/214/214
f 103/103/103 214/214/214 212/212/212
f 212/212/212 214/214/214 109/109/109
f 212/212/212 109/109/109 106/106/106
f 213/213/213 212/212/212 106/106/106
f 213/213/213 106/106/106 105/105/105
f 205/205/205 204/204/204 215/215/215
f 205/205/205 215/215/215 216/216/216
f 204/204/204 203/203/203 217/217/217
f 204/204/204 217/217/217 215/215/215
f 215/215/215 217/217/217 218/218/218
f 215/215/215 218/218/218 219/219/219
f 216/216/216 215/215/215 219/219/219
f 216/216/216 219/219/219 220/220/220
f 203/203/203 209/209/209 221/221/221
f 203/203/203 221/221/221 217/217/217
f 209/209/209 208/208/208 222/222/222
f 209/209/209 222/222/222 221/221/221
f 221/221/221 222/222/222 223/223/223
f 221/221/221 223/223/223 224/224/224
f 217/217/217 221/221/221 224/224/224
f 217/217/217 224/224/224 218/218/218
f 225/225/225 226/226/226 227/227/227
f 225/225/225 227/227/227 228/228/228
f 226/226/226 229/229/229 230/230/230
f 226/226/226 230/230/230 227/227/227
f 227/227/227 230/230/230 218/218/218
f 227/227/227 218/218/218 224/224/224
f 228/228/228 227/227/227 224/224/224
f 228/228/228 224/224/224 223/223/223
f 231/231/231 232/232/232 233/233/233
f 231/231/231 233/233/233 234/234/234
f 232/232/232 235/235/235 236/236/236
f 232/232/232 236/236/236 233/233/233
f 233/233/233 236/236/236 237/237/237
f 233/233/233 237/237/237 238/238/238
f 234/234/234 233/233/233 238/238/238
f 234/234/234 238/238/238 239/239/239
f 240/240/240 241/241/241 242/242/242
f 240/240/240 242/242/242 243/243/243
f 241/241/241 229/229/229 244/244/244
f 241/241/241 244/244/244 242/242/242
f 242/242/242 244/244/244 245/245/245
f 242/242/242 245/245/245 246/246/246
f 243/243/243 242/242/242 246/246/246
f 243/243/243 246/246/246 247/247/247
f 229/229/229 226/226/226 248/248/248
f 229/229/229 248/248/248 244/244/244
f 226/226/226 225/225/225 249/249/249
f 226/226/226 249/249/249 248/248/248
f 248/248/248 249/249/249 250/250/250
f 248/248/248 250/250/250 251/251/251
f 244/244/244 248/248/248 251/251/251
f 244/244/244 251/251/251 245/245/245
f 247/247/247 246/246/246 252/252/252
f 247/247/247 252/252/252 253/253/253
f 246/246/246 245/245/245 254/254/254
f 246/246/246 254/254/254 252/252/252
f 252/252/252 254/254/254 255/255/255
f 252/252/252 255/255/255 256/256/256
f 253/253/253 252/252/252 256/256/256
f 253/253/253 256/256/256 257/257/257
f 245/245/245 251/251/251 258/258/258
f 245/245/245 258/258/258 254/254/254
f 251/251/251 250/250/250 259/259/259
f 251/251/251 259/259/259 258/258/258
f 258/258/258 259/259/259 260/260/260
f 258/258/258 260/260/260 261/261/261
f 254/254/254 258/258/258 261/261/261
f 254/254/254 261/261/261 255/255/255
f 257/257/257 256/256/256 262/262/262
f 257/257/257 262/262/262 263/263/263
f 256/256/256 255/255/255 264/264/264
f 256/256/256 264/264/264 262/262/262
f 262/262/262 264/264/264 265/265/265
f 262/262/262 265/265/265 266/266/266
f 263/263/263 262/262/262 266/266/266
f 263/263/263 266/266/266 267/267/267
f 255/255/255 261/261/261 268/268/268
f 255/255/255 268/268/268 264/264/264
f 261/261/261 260/260/260 269/269/269
f 261/261/261 269/269/269 268/268/268
f 268/268/268 269/269/269 270/270/270
f 268/268/268 270/270/270 271/271/271
f 264/264/264 268/268/268 271/271/271
f 264/264/264 271/271/271 265/265/265
f 267/267/267 266/266/266 272/272/272
f 267/267/267 272/272/272 273/273/273
f 266/266/266 265/265/265 274/274/274
f 266/266/266 274/274/274 272/272/272
f 272/272/272 274/274/274 275/275/275
f 272/272/272 275/275/275 276/276/276
f 273/273/273 272/272/272 276/276/276
f 273/273/273 276/276/276 277/277/277
f 265/265/265 271/271/271 278/278/278
f 265/265/265 278/278/278 274/274/274
f 271/271/271 270/270/270 279/279/279
f 271/271/271 279/279/279 278/278/278
f 278/278/278 279/279/279 280/280/280
f 278/278/278 280/280/280 281/281/281
f 274/274/274 278/278/278 281/281/281
f 274/274/274 281/281/281 275/275/275
f 277/277/277 276/276/276 282/282/282
f 277/277/277 282/282/282 283/283/283
f 276/276/276 275/275/275 284/284/284
f 276/276/276 284/284/284 282/282/282
f 282/282/282 284/284/284 285/285/285
f 282/282/282 285/285/285 286/286/286
f 283/283/283 282/282/282 286/286/286
f 283/283/283 286/286/286 287/287/287
f 275/275/275 281/281/281 288/288/288
f 275/275/275 288/288/288 284/284/284
f 281/281/281 280/280/280 289/289/289
f 281/281/281 289/289/289 288/288/288
f 288/288/288 289/289/289 290/290/290
f 288/288/288 290/290/290 291/291/291
f 284/284/284 288/288/288 291/291/291
f 284/284/284 291/291/291 285/285/285
f 292/292/292 293/293/293 294/294/294
f 292/292/292 294/294/294 295/295/295
f 296/296/296 297/297/297 294/294/294
f 296/296/296 294/294/294 293/293/293
f 287/287/287 286/286/286 294/294/294
f 287/287/287 294/294/294 297/297/297
f 285/285/285 291/291/291 294/294/294
f 285/285/285 294/294/294 286/286/286
f 290/290/290 298/298/298 294/294/294
f 290/290/290 294/294/294 291/291/291
f 299/299/299 300/300/300 294/294/294
f 299/299/299 294/294/294 298/298/298
f 301/301/301 302/302/302 294/294/294
f 301/301/301 294/294/294 300/300/300
f 303/303/303 295/295/295 294/294/294
f 303/303/303 294/294/294 302/302/302
f 280/280/280 304/304/304 305/305/305
f 280/280/280 305/305/305 289/289/289
f 304/304/304 306/306/306 307/307/307
f 304/304/304 307/307/307 305/305/305
f 305/305/305 307/307/307 299/299/299
f 305/305/305 299/299/299 298/298/298
f 289/289/289 305/305/305 298/298/298
f 289/289/289 298/298/298 290/290/290
f 306/306/306 308/308/308 309/309/309
f 306/306/306 309/309/309 307/307/307
f 308/308/308 310/310/310 311/311/311
f 308/308/308 311/311/311 309/309/309
f 309/309/309 311/311/311 301/301/301
f 309/309/309 301/301/301 300/300/300
f 307/307/307 309/309/309 300/300/300
f 307/307/307 300/300/300 299/299/299
f 312/312/312 313/313/313 314/314/314
f 312/312/312 314/314/314 315/315/315
f 313/313/313 316/316/316 317/317/317
f 313/313/313 317/317/317 314/314/314
f 314/314/314 317/317/317 310/310/310
f 314/314/314 310/310/310 308/308/308
f 315/315/315 314/314/314 308/308/308
f 315/315/315 308/308/308 306/306/306
f 270/270/270 318/318/318 319/319/319
f 270/270/270 319/319/319 279/279/279
f 318/318/318 312/312/312 315/315/315
f 318/318/318 315/315/315 319/319/319
f 319/319/319 315/315/315 306/306/306
f 319/319/319 306/306/306 304/304/304
f 279/279/279 319/319/319 304/304/304
f 279/279/279 304/304/304 280/280/280
f 320/320/320 321/321/321 322/322/322
f 320/320/320 322/322/322 323/323/323
f 321/321/321 324/324/324 325/325/325
f 321/321/321 325/325/325 322/322/322
f 322/322/322 325/325/325 316/316/316
f 322/322/322 316/316/316 313/313/313
f 323/323/323 322/322/322 313/313/313
f 323/323/323 313/313/313 312/312/312
f 260/260/260 326/326/326 327/327/327
f 260/260/260 327/327/327 269/269/269
f 326/326/326 320/320/320 323/323/323
f 326/326/326 323/323/323 327/327/327
f 327/327/327 323/323/323 312/312/312
f 327/327/327 312/312/312 318/318/318
f 269/269/269 327/327/327 318/318/318
f 269/269/269 318/318/318 270/270/270
f 328/328/328 329/329/329 330/330/330
f 328/328/328 330/330/330 331/331/331
f 329/329/329 332/332/332 333/333/333
f 329/329/329 333/333/333 330/330/330
f 330/330/330 333/333/333 324/324/324
f 330/330/330 324/324/324 321/321/321
f 331/331/331 330/330/330 321/321/321
f 331/331/331 321/321/321 320/320/320
f 250/250/250 334/334/334 335/335/335
f 250/250/250 335/335/335 259/259/259
f 334/334/334 328/328/328 331/331/331
f 334/334/334 331/331/331 335/335/335
f 335/335/335 331/331/331 320/320/320
f 335/335/335 320/320/320 326/326/326
f 259/259/259 335/335/335 326/326/326
f 259/259/259 326/326/326 260/260/260
f 239/239/239 238/238/238 336/336/336
f 239/239/239 336/336/336 337/337/337
f 238/238/238 237/237/237 338/338/338
f 238/238/238 338/338/338 336/336/336
f 336/336/336 338/338/338 332/332/332
f 336/336/336 332/332/332 329/329/329
f 337/337/337 336/336/336 329/329/329
f 337/337/337 329/329/329 328/328/328
f 225/225/225 339/339/339 340/340/340
f 225/225/225 340/340/340 249/249/249
f 339/339/339 239/239/239 337/337/337
f 339/339/339 337/337/337 340/340/340
f 340/340/340 337/337/337 328/328/328
f 340/340/340 328/328/328 334/334/334
f 249/249/249 340/340/340 334/334/334
f 249/249/249 334/334/334 250/250/250
f 223/223/223 341/341/341 342/342/342
f 223/223/223 342/342/342 228/228/228
f 341/341/341 231/231/231 234/234/234
f 341/341/341 234/234/234 342/342/342
f 342/342/342 234/234/234 239/239/239
f 342/342/342 239/239/239 339/339/339
f 228/228/228 342/342/342 339/339/339
f 228/228/228 339/339/339 225/225/225
f 343/343/343 344/344/344 345/345/345
f 343/343/343 345/345/345 346/346/346
f 344/344/344 347/347/347 348/348/348
f 344/344/344 348/348/348 345/345/345
f 345/345/345 348/348/348 349/349/349
f 345/345/345 349/349/349 350/350/350
f 346/346/346 345/345/345 350/350/350
f 346/346/346 350/350/350 351/351/351
f 352/352/352 353/353/353 354/354/354
f 352/352/352 354/354/354 355/355/355
f 353/353/353 356/356/356 357/357/357
f 353/353/353 357/357/357 354/354/354
f 354/354/354 357/357/357 235/235/235
f 354/354/354 235/235/235 232/232/232
f 355/355/355 354/354/354 232/232/232
f 355/355/355 232/232/232 231/231/231
f 208/208/208 358/358/358 359/359/359
f 208/208/208 359/359/359 222/222/222
f 358/358/358 352/352/352 355/355/355
f 358/358/358 355/355/355 359/359/359
f 359/359/359 355/355/355 231/231/231
f 359/359/359 231/231/231 341/341/341
f 222/222/222 359/359/359 341/341/341
f 222/222/222 341/341/341 223/223/223
f 192/192/192 195/195/195 360/360/360
f 192/192/192 360/360/360 361/361/361
f 195/195/195 197/197/197 362/362/362
f 195/195/195 362/362/362 360/360/360
f 360/360/360 362/362/362 356/356/356
f 360/360/360 356/356/356 353/353/353
f 361/361/361 360/360/360 353/353/353
f 361/361/361 353/353/353 352/352/352
f 363/363/363 364/364/364 365/365/365
f 363/363/363 365/365/365 366/366/366
f 364/364/364 367/367/367 368/368/368
f 364/364/364 368/368/368 365/365/365
f 365/365/365 368/368/368 369/369/369
f 365/365/365 369/369/369 370/370/370
f 366/366/366 365/365/365 370/370/370
f 366/366/366 370/370/370 371/371/371
f 98/98/98 97/97/97 372/372/372
f 98/98/98 372/372/372 214/214/214
f 97/97/97 96/96/96 373/373/373
f 97/97/97 373/373/373 372/372/372
f 372/372/372 373/373/373 116/116/116
f 372/372/372 116/116/116 114/114/114
f 214/214/214 372/372/372 114/114/114
f 214/214/214 114/114/114 109/109/109
f 96/96/96 131/131/131 374/374/374
f 96/96/96 374/374/374 373/373/373
f 131/131/131 130/130/130 375/375/375
f 131/131/131 375/375/375 374/374/374
f 374/374/374 375/375/375 122/122/122
f 374/374/374 122/122/122 120/120/120
f 373/373/373 374/374/374 120/120/120
f 373/373/373 120/120/120 116/116/116
f 186/186/186 189/189/189 376/376/376
f 186/186/186 376/376/376 377/377/377
f 189/189/189 113/113/113 112/112/112
f 189/189/189 112/112/112 376/376/376
f 376/376/376 112/112/112 111/111/111
f 376/376/376 111/111/111 193/193/193
f 377/377/377 376/376/376 193/193/193
f 377/377/377 193/193/193 192/192/192
f 124/124/124 378/378/378 379/379/379
f 124/124/124 379/379/379 125/125/125
f 378/378/378 363/363/363 380/380/380
f 378/378/378 380/380/380 379/379/379
f 379/379/379 380/380/380 197/197/197
f 379/379/379 197/197/197 196/196/196
f 125/125/125 379/379/379 196/196/196
f 125/125/125 196/196/196 118/118/118
f 197/197/197 380/380/380 381/381/381
f 197/197/197 381/381/381 362/362/362
f 380/380/380 363/363/363 366/366/366
f 380/380/380 366/366/366 381/381/381
f 381/381/381 366/366/366 371/371/371
f 381/381/381 371/371/371 382/382/382
f 362/362/362 381/381/381 382/382/382
f 362/362/362 382/382/382 356/356/356
f 367/367/367 364/364/364 383/383/383
f 367/367/367 383/383/383 384/384/384
f 364/364/364 363/363/363 378/378/378
f 364/364/364 378/378/378 383/383/383
f 383/383/383 378/378/378 124/124/124
f 383/383/383 124/124/124 143/143/143
f 384/384/384 383/383/383 143/143/143
f 384/384/384 143/143/143 142/142/142
f 186/186/186 377/377/377 385/385/385
f 186/186/186 385/385/385 207/207/207
f 377/377/377 192/192/192 361/361/361
f 377/377/377 361/361/361 385/385/385
f 385/385/385 361/361/361 352/352/352
f 385/385/385 352/352/352 358/358/358
f 207/207/207 385/385/385 358/358/358
f 207/207/207 358/358/358 208/208/208
f 367/367/367 384/384/384 386/386/386
f 367/367/367 386/386/386 387/387/387
f 384/384/384 142/142/142 149/149/149
f 384/384/384 149/149/149 386/386/386
f 386/386/386 149/149/149 148/148/148
f 386/386/386 148/148/148 388/388/388
f 387/387/387 386/386/386 388/388/388
f 387/387/387 388/388/388 389/389/389
f 130/130/130 137/137/137 390/390/390
f 130/130/130 390/390/390 375/375/375
f 137/137/137 136/136/136 391/391/391
f 137/137/137 391/391/391 390/390/390
f 390/390/390 391/391/391 140/140/140
f 390/390/390 140/140/140 138/138/138
f 375/375/375 390/390/390 138/138/138
f 375/375/375 138/138/138 122/122/122
f 136/136/136 155/155/155 392/392/392
f 136/136/136 392/392/392 391/391/391
f 155/155/155 154/154/154 393/393/393
f 155/155/155 393/393/393 392/392/392
f 392/392/392 393/393/393 146/146/146
f 392/392/392 146/146/146 144/144/144
f 391/391/391 392/392/392 144/144/144
f 391/391/391 144/144/144 140/140/140
f 371/371/371 370/370/370 394/394/394
f 371/371/371 394/394/394 395/395/395
f 370/370/370 369/369/369 396/396/396
f 370/370/370 396/396/396 394/394/394
f 394/394/394 396/396/396 351/351/351
f 394/394/394 351/351/351 350/350/350
f 395/395/395 394/394/394 350/350/350
f 395/395/395 350/350/350 349/349/349
f 356/356/356 382/382/382 397/397/397
f 356/356/356 397/397/397 357/357/357
f 382/382/382 371/371/371 395/395/395
f 382/382/382 395/395/395 397/397/397
f 397/397/397 395/395/395 349/349/349
f 397/397/397 349/349/349 398/398/398
f 357/357/357 397/397/397 398/398/398
f 357/357/357 398/398/398 235/235/235
f 349/349/349 348/348/348 399/399/399
f 349/349/349 399/399/399 398/398/398
f 348/348/348 347/347/347 400/400/400
f 348/348/348 400/400/400 399/399/399
f 399/399/399 400/400/400 237/237/237
f 399/399/399 237/237/237 236/236/236
f 398/398/398 399/399/399 236/236/236
f 398/398/398 236/236/236 235/235/235
f 351/351/351 401/401/401 402/402/402
f 351/351/351 402/402/402 346/346/346
f 401/401/401 403/403/403 404/404/404
f 401/401/401 404/404/404 402/402/402
f 402/402/402 404/404/404 405/405/405
f 402/402/402 405/405/405 406/406/406
f 346/346/346 402/402/402 406/406/406
f 346/346/346 406/406/406 343/343/343
f 347/347/347 344/344/344 407/407/407
f 347/347/347 407/407/407 408/408/408
f 344/344/344 343/343/343 409/409/409
f 344/344/344 409/409/409 407/407/407
f 407/407/407 409/409/409 410/410/410
f 407/407/407 410/410/410 411/411/411
f 408/408/408 407/407/407 411/411/411
f 408/408/408 411/411/411 412/412/412
f 237/237/237 400/400/400 413/413/413
f 237/237/237 413/413/413 338/338/338
f 400/400/400 347/347/347 408/408/408
f 400/400/400 408/408/408 413/413/413
f 413/413/413 408/408/408 412/412/412
f 413/413/413 412/412/412 414/414/414
f 338/338/338 413/413/413 414/414/414
f 338/338/338 414/414/414 332/332/332
f 412/412/412 411/411/411 415/415/415
f 412/412/412 415/415/415 416/416/416
f 411/411/411 410/410/410 417/417/417
f 411/411/411 417/417/417 415/415/415
f 415/415/415 417/417/417 418/418/418
f 415/415/415 418/418/418 419/419/419
f 416/416/416 415/415/415 419/419/419
f 416/416/416 419/419/419 420/420/420
f 332/332/332 414/414/414 421/421/421
f 332/332/332 421/421/421 333/333/333
f 414/414/414 412/412/412 416/416/416
f 414/414/414 416/416/416 421/421/421
f 421/421/421 416/416/416 420/420/420
f 421/421/421 420/420/420 422/422/422
f 333/333/333 421/421/421 422/422/422
f 333/333/333 422/422/422 324/324/324
f 420/420/420 419/419/419 423/423/423
f 420/420/420 423/423/423 424/424/424
f 419/419/419 418/418/418 425/425/425
f 419/419/419 425/425/425 423/423/423
f 423/423/423 425/425/425 426/426/426
f 423/423/423 426/426/426 427/427/427
f 424/424/424 423/423/423 427/427/427
f 424/424/424 427/427/427 428/428/428
f 324/324/324 422/422/422 429/429/429
f 324/324/324 429/429/429 325/325/325
f 422/422/422 420/420/420 424/424/424
f 422/422/422 424/424/424 429/429/429
f 429/429/429 424/424/424 428/428/428
f 429/429/429 428/428/428 430/430/430
f 325/325/325 429/429/429 430/430/430
f 325/325/325 430/430/430 316/316/316
f 428/428/428 427/427/427 431/431/431
f 428/428/428 431/431/431 432/432/432
f 427/427/427 426/426/426 433/433/433
f 427/427/427 433/433/433 431/431/431
f 431/431/431 433/433/433 434/434/434
f 431/431/431 434/434/434 435/435/435
f 432/432/432 431/431/431 435/435/435
f 432/432/432 435/435/435 436/436/436
f 316/316/316 430/430/430 437/437/437
f 316/316/316 437/437/437 317/317/317
f 430/430/430 428/428/428 432/432/432
f 430/430/430 432/432/432 437/437/437
f 437/437/437 432/432/432 436/436/436
f 437/437/437 436/436/436 438/438/438
f 317/317/317 437/437/437 438/438/438
f 317/317/317 438/438/438 310/310/310
f 436/436/436 435/435/435 439/439/439
f 436/436/436 439/439/439 440/440/440
f 435/435/435 434/434/434 441/441/441
f 435/435/435 441/441/441 439/439/439
f 439/439/439 441/441/441 292/292/292
f 439/439/439 292/292/292 295/295/295
f 440/440/440 439/439/439 295/295/295
f 440/440/440 295/295/295 303/303/303
f 310/310/310 438/438/438 442/442/442
f 310/310/310 442/442/442 311/311/311
f 438/438/438 436/436/436 440/440/440
f 438/438/438 440/440/440 442/442/442
f 442/442/442 440/440/440 303/303/303
f 442/442/442 303/303/303 302/302/302
f 311/311/311 442/442/442 302/302/302
f 311/311/311 302/302/302 301/301/301
f 434/434/434 443/443/443 444/444/444
f 434/434/434 444/444/444 441/441/441
f 443/443/443 445/445/445 446/446/446
f 443/443/443 446/446/446 444/444/444
f 444/444/444 446/446/446 296/296/296
f 444/444/444 296/296/296 293/293/293
f 441/441/441 444/444/444 293/293/293
f 441/441/441 293/293/293 292/292/292
f 445/445/445 447/447/447 448/448/448
f 445/445/445 448/448/448 446/446/446
f 447/447/447 277/277/277 283/283/283
f 447/447/447 283/283/283 448/448/448
f 448/448/448 283/283/283 287/287/287
f 448/448/448 287/287/287 297/297/297
f 446/446/446 448/448/448 297/297/297
f 446/446/446 297/297/297 296/296/296
f 426/426/426 449/449/449 450/450/450
f 426/426/426 450/450/450 433/433/433
f 449/449/449 451/451/451 452/452/452
f 449/449/449 452/452/452 450/450/450
f 450/450/450 452/452/452 445/445/445
f 450/450/450 445/445/445 443/443/443
f 433/433/433 450/450/450 443/443/443
f 433/433/433 443/443/443 434/434/434
f 451/451/451 453/453/453 454/454/454
f 451/451/451 454/454/454 452/452/452
f 453/453/453 267/267/267 273/273/273
f 453/453/453 273/273/273 454/454/454
f 454/454/454 273/273/273 277/277/277
f 454/454/454 277/277/277 447/447/447
f 452/452/452 454/454/454 447/447/447
f 452/452/452 447/447/447 445/445/445
f 418/418/418 455/455/455 456/456/456
f 418/418/418 456/456/456 425/425/425
f 455/455/455 457/457/457 458/458/458
f 455/455/455 458/458/458 456/456/456
f 456/456/456 458/458/458 451/451/451
f 456/456/456 451/451/451 449/449/449
f 425/425/425 456/456/456 449/449/449
f 425/425/425 449/449/449 426/426/426
f 457/457/457 459/459/459 460/460/460
f 457/457/457 460/460/460 458/458/458
f 459/459/459 257/257/257 263/263/263
f 459/459/459 263/263/263 460/460/460
f 460/460/460 263/263/263 267/267/267
f 460/460/460 267/267/267 453/453/453
f 458/458/458 460/460/460 453/453/453
f 458/458/458 453/453/453 451/451/451
f 410/410/410 461/461/461 462/462/462
f 410/410/410 462/462/462 417/417/417
f 461/461/461 463/463/463 464/464/464
f 461/461/461 464/464/464 462/462/462
f 462/462/462 464/464/464 457/457/457
f 462/462/462 457/457/457 455/455/455
f 417/417/417 462/462/462 455/455/455
f 417/417/417 455/455/455 418/418/418
f 463/463/463 465/465/465 466/466/466
f 463/463/463 466/466/466 464/464/464
f 465/465/465 247/247/247 253/253/253
f 465/465/465 253/253/253 466/466/466
f 466/466/466 253/253/253 257/257/257
f 466/466/466 257/257/257 459/459/459
f 464/464/464 466/466/466 459/459/459
f 464/464/464 459/459/459 457/457/457
f 343/343/343 406/406/406 467/467/467
f 343/343/343 467/467/467 409/409/409
f 406/406/406 405/405/405 468/468/468
f 406/406/406 468/468/468 467/467/467
f 467/467/467 468/468/468 463/463/463
f 467/467/467 463/463/463 461/461/461
f 409/409/409 467/467/467 461/461/461
f 409/409/409 461/461/461 410/410/410
f 405/405/405 469/469/469 470/470/470
f 405/405/405 470/470/470 468/468/468
f 469/469/469 240/240/240 243/243/243
f 469/469/469 243/243/243 470/470/470
f 470/470/470 243/243/243 247/247/247
f 470/470/470 247/247/247 465/465/465
f 468/468/468 470/470/470 465/465/465
f 468/468/468 465/465/465 463/463/463
f 403/403/403 471/471/471 472/472/472
f 403/403/403 472/472/472 404/404/404
f 471/471/471 220/220/220 473/473/473
f 471/471/471 473/473/473 472/472/472
f 472/472/472 473/473/473 240/240/240
f 472/472/472 240/240/240 469/469/469
f 404/404/404 472/472/472 469/469/469
f 404/404/404 469/469/469 405/405/405
f 369/369/369 474/474/474 475/475/475
f 369/369/369 475/475/475 396/396/396
f 474/474/474 476/476/476 477/477/477
f 474/474/474 477/477/477 475/475/475
f 475/475/475 477/477/477 403/403/403
f 475/475/475 403/403/403 401/401/401
f 396/396/396 475/475/475 401/401/401
f 396/396/396 401/401/401 351/351/351
f 476/476/476 478/478/478 479/479/479
f 476/476/476 479/479/479 477/477/477
f 478/478/478 205/205/205 216/216/216
f 478/478/478 216/216/216 479/479/479
f 479/479/479 216/216/216 220/220/220
f 479/479/479 220/220/220 471/471/471
f 477/477/477 479/479/479 471/471/471
f 477/477/477 471/471/471 403/403/403
f 367/367/367 387/387/387 480/480/480
f 367/367/367 480/480/480 368/368/368
f 387/387/387 389/389/389 481/481/481
f 387/387/387 481/481/481 480/480/480
f 480/480/480 481/481/481 476/476/476
f 480/480/480 476/476/476 474/474/474
f 368/368/368 480/480/480 474/474/474
f 368/368/368 474/474/474 369/369/369
f 172/172/172 191/191/191 482/482/482
f 172/172/172 482/482/482 173/173/173
f 191/191/191 190/190/190 199/199/199
f 191/191/191 199/199/199 482/482/482
f 482/482/482 199/199/199 198/198/198
f 482/482/482 198/198/198 483/483/483
f 173/173/173 482/482/482 483/483/483
f 173/173/173 483/483/483 166/166/166
f 154/154/154 161/161/161 484/484/484
f 154/154/154 484/484/484 393/393/393
f 161/161/161 160/160/160 485/485/485
f 161/161/161 485/485/485 484/484/484
f 484/484/484 485/485/485 164/164/164
f 484/484/484 164/164/164 162/162/162
f 393/393/393 484/484/484 162/162/162
f 393/393/393 162/162/162 146/146/146
f 160/160/160 179/179/179 486/486/486
f 160/160/160 486/486/486 485/485/485
f 179/179/179 178/178/178 487/487/487
f 179/179/179 487/487/487 486/486/486
f 486/486/486 487/487/487 170/170/170
f 486/486/486 170/170/170 168/168/168
f 485/485/485 486/486/486 168/168/168
f 485/485/485 168/168/168 164/164/164
f 389/389/389 388/388/388 488/488/488
f 389/389/389 488/488/488 489/489/489
f 388/388/388 148/148/148 167/167/167
f 388/388/388 167/167/167 488/488/488
f 488/488/488 167/167/167 166/166/166
f 488/488/488 166/166/166 483/483/483
f 489/489/489 488/488/488 483/483/483
f 489/489/489 483/483/483 198/198/198
f 389/389/389 489/489/489 490/490/490
f 389/389/389 490/490/490 481/481/481
f 489/489/489 198/198/198 201/201/201
f 489/489/489 201/201/201 490/490/490
f 490/490/490 201/201/201 205/205/205
f 490/490/490 205/205/205 478/478/478
f 481/481/481 490/490/490 478/478/478
f 481/481/481 478/478/478 476/476/476
f 75/75/75 74/74/74 491/491/491
f 75/75/75 491/491/491 492/492/492
f 74/74/74 73/73/73 493/493/493
f 74/74/74 493/493/493 491/491/491
f 491/491/491 493/493/493 62/62/62
f 491/491/491 62/62/62 68/68/68
f 492/492/492 491/491/491 68/68/68
f 492/492/492 68/68/68 67/67/67
f 494/494/494 495/495/495 496/496/496
f 494/494/494 496/496/496 497/497/497
f 495/495/495 498/498/498 499/499/499
f 495/495/495 499/499/499 496/496/496
f 496/496/496 499/499/499 500/500/500
f 496/496/496 500/500/500 501/501/501
f 497/497/497 496/496/496 501/501/501
f 497/497/497 501/501/501 502/502/502
f 67/67/67 64/64/64 503/503/503
f 67/67/67 503/503/503 504/504/504
f 64/64/64 63/63/63 87/87/87
f 64/64/64 87/87/87 503/503/503
f 503/503/503 87/87/87 92/92/92
f 503/503/503 92/92/92 100/100/100
f 504/504/504 503/503/503 100/100/100
f 504/504/504 100/100/100 99/99/99
f 88/88/88 505/505/505 506/506/506
f 88/88/88 506/506/506 89/89/89
f 505/505/505 507/507/507 508/508/508
f 505/505/505 508/508/508 506/506/506
f 506/506/506 508/508/508 128/128/128
f 506/506/506 128/128/128 126/126/126
f 89/89/89 506/506/506 126/126/126
f 89/89/89 126/126/126 90/90/90
f 509/509/509 510/510/510 511/511/511
f 509/509/509 511/511/511 512/512/512
f 510/510/510 513/513/513 514/514/514
f 510/510/510 514/514/514 511/511/511
f 511/511/511 514/514/514 73/73/73
f 511/511/511 73/73/73 70/70/70
f 512/512/512 511/511/511 70/70/70
f 512/512/512 70/70/70 69/69/69
f 513/513/513 515/515/515 516/516/516
f 513/513/513 516/516/516 514/514/514
f 515/515/515 57/57/57 60/60/60
f 515/515/515 60/60/60 516/516/516
f 516/516/516 60/60/60 62/62/62
f 516/516/516 62/62/62 493/493/493
f 514/514/514 516/516/516 493/493/493
f 514/514/514 493/493/493 73/73/73
f 517/517/517 518/518/518 519/519/519
f 517/517/517 519/519/519 520/520/520
f 518/518/518 521/521/521 522/522/522
f 518/518/518 522/522/522 519/519/519
f 519/519/519 522/522/522 523/523/523
f 519/519/519 523/523/523 524/524/524
f 520/520/520 519/519/519 524/524/524
f 520/520/520 524/524/524 525/525/525
f 46/46/46 526/526/526 527/527/527
f 46/46/46 527/527/527 47/47/47
f 526/526/526 517/517/517 520/520/520
f 526/526/526 520/520/520 527/527/527
f 527/527/527 520/520/520 525/525/525
f 527/527/527 525/525/525 528/528/528
f 47/47/47 527/527/527 528/528/528
f 47/47/47 528/528/528 36/36/36
f 525/525/525 524/524/524 529/529/529
f 525/525/525 529/529/529 530/530/530
f 524/524/524 523/523/523 531/531/531
f 524/524/524 531/531/531 529/529/529
f 529/529/529 531/531/531 532/532/532
f 529/529/529 532/532/532 533/533/533
f 530/530/530 529/529/529 533/533/533
f 530/530/530 533/533/533 534/534/534
f 36/36/36 528/528/528 535/535/535
f 36/36/36 535/535/535 37/37/37
f 528/528/528 525/525/525 530/530/530
f 528/528/528 530/530/530 535/535/535
f 535/535/535 530/530/530 534/534/534
f 535/535/535 534/534/534 536/536/536
f 37/37/37 535/535/535 536/536/536
f 37/37/37 536/536/536 27/27/27
f 9/9/9 8/8/8 537/537/537
f 9/9/9 537/537/537 538/538/538
f 8/8/8 7/7/7 539/539/539
f 8/8/8 539/539/539 537/537/537
f 537/537/537 539/539/539 534/534/534
f 537/537/537 534/534/534 533/533/533
f 538/538/538 537/537/537 533/533/533
f 538/538/538 533/533/533 532/532/532
f 7/7/7 6/6/6 540/540/540
f 7/7/7 540/540/540 539/539/539
f 6/6/6 5/5/5 25/25/25
f 6/6/6 25/25/25 540/540/540
f 540/540/540 25/25/25 27/27/27
f 540/540/540 27/27/27 536/536/536
f 539/539/539 540/540/540 536/536/536
f 539/539/539 536/536/536 534/534/534
f 11/11/11 10/10/10 541/541/541
f 11/11/11 541/541/541 542/542/542
f 10/10/10 9/9/9 538/538/538
f 10/10/10 538/538/538 541/541/541
f 541/541/541 538/538/538 532/532/532
f 541/541/541 532/532/532 543/543/543
f 542/542/542 541/541/541 543/543/543
f 542/542/542 543/543/543 544/544/544
f 13/13/13 12/12/12 545/545/545
f 13/13/13 545/545/545 546/546/546
f 12/12/12 11/11/11 542/542/542
f 12/12/12 542/542/542 545/545/545
f 545/545/545 542/542/542 544/544/544
f 545/545/545 544/544/544 547/547/547
f 546/546/546 545/545/545 547/547/547
f 546/546/546 547/547/547 548/548/548
f 549/549/549 550/550/550 551/551/551
f 549/549/549 551/551/551 552/552/552
f 550/550/550 553/553/553 554/554/554
f 550/550/550 554/554/554 551/551/551
f 551/551/551 554/554/554 548/548/548
f 551/551/551 548/548/548 547/547/547
f 552/552/552 551/551/551 547/547/547
f 552/552/552 547/547/547 544/544/544
f 523/523/523 555/555/555 556/556/556
f 523/523/523 556/556/556 531/531/531
f 555/555/555 549/549/549 552/552/552
f 555/555/555 552/552/552 556/556/556
f 556/556/556 552/552/552 544/544/544
f 556/556/556 544/544/544 543/543/543
f 531/531/531 556/556/556 543/543/543
f 531/531/531 543/543/543 532/532/532
f 557/557/557 558/558/558 559/559/559
f 557/557/557 559/559/559 560/560/560
f 558/558/558 561/561/561 562/562/562
f 558/558/558 562/562/562 559/559/559
f 559/559/559 562/562/562 553/553/553
f 559/559/559 553/553/553 550/550/550
f 560/560/560 559/559/559 550/550/550
f 560/560/560 550/550/550 549/549/549
f 521/521/521 563/563/563 564/564/564
f 521/521/521 564/564/564 522/522/522
f 563/563/563 557/557/557 560/560/560
f 563/563/563 560/560/560 564/564/564
f 564/564/564 560/560/560 549/549/549
f 564/564/564 549/549/549 555/555/555
f 522/522/522 564/564/564 555/555/555
f 522/522/522 555/555/555 523/523/523
f 565/565/565 566/566/566 567/567/567
f 565/565/565 567/567/567 568/568/568
f 566/566/566 569/569/569 570/570/570
f 566/566/566 570/570/570 567/567/567
f 567/567/567 570/570/570 502/502/502
f 567/567/567 502/502/502 501/501/501
f 568/568/568 567/567/567 501/501/501
f 568/568/568 501/501/501 500/500/500
f 569/569/569 571/571/571 572/572/572
f 569/569/569 572/572/572 570/570/570
f 571/571/571 509/509/509 512/512/512
f 571/571/571 512/512/512 572/572/572
f 572/572/572 512/512/512 69/69/69
f 572/572/572 69/69/69 573/573/573
f 570/570/570 572/572/572 573/573/573
f 570/570/570 573/573/573 502/502/502
f 77/77/77 574/574/574 575/575/575
f 77/77/77 575/575/575 72/72/72
f 574/574/574 494/494/494 497/497/497
f 574/574/574 497/497/497 575/575/575
f 575/575/575 497/497/497 502/502/502
f 575/575/575 502/502/502 573/573/573
f 72/72/72 575/575/575 573/573/573
f 72/72/72 573/573/573 69/69/69
f 576/576/576 577/577/577 578/578/578
f 576/576/576 578/578/578 579/579/579
f 577/577/577 500/500/500 499/499/499
f 577/577/577 499/499/499 578/578/578
f 578/578/578 499/499/499 498/498/498
f 578/578/578 498/498/498 580/580/580
f 579/579/579 578/578/578 580/580/580
f 579/579/579 580/580/580 507/507/507
f 507/507/507 580/580/580 581/581/581
f 507/507/507 581/581/581 508/508/508
f 580/580/580 498/498/498 582/582/582
f 580/580/580 582/582/582 581/581/581
f 581/581/581 582/582/582 134/134/134
f 581/581/581 134/134/134 132/132/132
f 508/508/508 581/581/581 132/132/132
f 508/508/508 132/132/132 128/128/128
f 498/498/498 495/495/495 583/583/583
f 498/498/498 583/583/583 582/582/582
f 495/495/495 494/494/494 584/584/584
f 495/495/495 584/584/584 583/583/583
f 583/583/583 584/584/584 152/152/152
f 583/583/583 152/152/152 150/150/150
f 582/582/582 583/583/583 150/150/150
f 582/582/582 150/150/150 134/134/134
f 88/88/88 211/211/211 585/585/585
f 88/88/88 585/585/585 505/505/505
f 211/211/211 54/54/54 586/586/586
f 211/211/211 586/586/586 585/585/585
f 585/585/585 586/586/586 576/576/576
f 585/585/585 576/576/576 579/579/579
f 505/505/505 585/585/585 579/579/579
f 505/505/505 579/579/579 507/507/507
f 494/494/494 574/574/574 587/587/587
f 494/494/494 587/587/587 584/584/584
f 574/574/574 77/77/77 588/588/588
f 574/574/574 588/588/588 587/587/587
f 587/587/587 588/588/588 158/158/158
f 587/587/587 158/158/158 156/156/156
f 584/584/584 587/587/587 156/156/156
f 584/584/584 156/156/156 152/152/152
f 75/75/75 492/492/492 589/589/589
f 75/75/75 589/589/589 590/590/590
f 492/492/492 67/67/67 504/504/504
f 492/492/492 504/504/504 589/589/589
f 589/589/589 504/504/504 99/99/99
f 589/589/589 99/99/99 180/180/180
f 590/590/590 589/589/589 180/180/180
f 590/590/590 180/180/180 176/176/176
f 77/77/77 76/76/76 591/591/591
f 77/77/77 591/591/591 588/588/588
f 76/76/76 75/75/75 590/590/590
f 76/76/76 590/590/590 591/591/591
f 591/591/591 590/590/590 176/176/176
f 591/591/591 176/176/176 174/174/174
f 588/588/588 591/591/591 174/174/174
f 588/588/588 174/174/174 158/158/158
f 83/83/83 592/592/592 593/593/593
f 83/83/83 593/593/593 594/594/594
f 592/592/592 565/565/565 568/568/568
f 592/592/592 568/568/568 593/593/593
f 593/593/593 568/568/568 500/500/500
f 593/593/593 500/500/500 577/577/577
f 594/594/594 593/593/593 577/577/577
f 594/594/594 577/577/577 576/576/576
f 52/52/52 84/84/84 595/595/595
f 52/52/52 595/595/595 53/53/53
f 84/84/84 83/83/83 594/594/594
f 84/84/84 594/594/594 595/595/595
f 595/595/595 594/594/594 576/576/576
f 595/595/595 576/576/576 586/586/586
f 53/53/53 595/595/595 586/586/586
f 53/53/53 586/586/586 54/54/54
f 561/561/561 596/596/596 597/597/597
f 561/561/561 597/597/597 562/562/562
f 596/596/596 81/81/81 598/598/598
f 596/596/596 598/598/598 597/597/597
f 597/597/597 598/598/598 599/599/599
f 597/597/597 599/599/599 600/600/600
f 562/562/562 597/597/597 600/600/600
f 562/562/562 600/600/600 553/553/553
f 81/81/81 78/78/78 601/601/601
f 81/81/81 601/601/601 598/598/598
f 78/78/78 38/38/38 41/41/41
f 78/78/78 41/41/41 601/601/601
f 601/601/601 41/41/41 28/28/28
f 601/601/601 28/28/28 602/602/602
f 598/598/598 601/601/601 602/602/602
f 598/598/598 602/602/602 599/599/599
f 553/553/553 600/600/600 603/603/603
f 553/553/553 603/603/603 554/554/554
f 600/600/600 599/599/599 604/604/604
f 600/600/600 604/604/604 603/603/603
f 603/603/603 604/604/604 605/605/605
f 603/603/603 605/605/605 606/606/606
f 554/554/554 603/603/603 606/606/606
f 554/554/554 606/606/606 548/548/548
f 599/599/599 602/602/602 607/607/607
f 599/599/599 607/607/607 604/604/604
f 602/602/602 28/28/28 31/31/31
f 602/602/602 31/31/31 607/607/607
f 607/607/607 31/31/31 21/21/21
f 607/607/607 21/21/21 608/608/608
f 604/604/604 607/607/607 608/608/608
f 604/604/604 608/608/608 605/605/605
f 15/15/15 14/14/14 609/609/609
f 15/15/15 609/609/609 610/610/610
f 14/14/14 13/13/13 546/546/546
f 14/14/14 546/546/546 609/609/609
f 609/609/609 546/546/546 548/548/548
f 609/609/609 548/548/548 606/606/606
f 610/610/610 609/609/609 606/606/606
f 610/610/610 606/606/606 605/605/605
f 17/17/17 16/16/16 611/611/611
f 17/17/17 611/611/611 20/20/20
f 16/16/16 15/15/15 610/610/610
f 16/16/16 610/610/610 611/611/611
f 611/611/611 610/610/610 605/605/605
f 611/611/611 605/605/605 608/608/608
f 20/20/20 611/611/611 608/608/608
f 20/20/20 608/608/608 21/21/21
f 218/218/218 230/230/230 612/612/612
f 218/218/218 612/612/612 219/219/219
f 230/230/230 229/229/229 241/241/241
f 230/230/230 241/241/241 612/612/612
f 612/612/612 241/241/241 240/240/240
f 612/612/612 240/240/240 473/473/473
f 219/219/219 612/612/612 473/473/473
f 219/219/219 473/473/473 220/220/220
f 178/178/178 182/182/182 613/613/613
f 178/178/178 613/613/613 487/487/487
f 182/182/182 104/104/104 213/213/213
f 182/182/182 213/213/213 613/613/613
f 613/613/613 213/213/213 105/105/105
f 613/613/613 105/105/105 183/183/183
f 487/487/487 613/613/613 183/183/183
f 487/487/487 183/183/183 170/170/170
f 81/81/81 596/596/596 614/614/614
f 81/81/81 614/614/614 82/82/82
f 596/596/596 561/561/561 615/615/615
f 596/596/596 615/615/615 614/614/614
f 614/614/614 615/615/615 565/565/565
f 614/614/614 565/565/565 592/592/592
f 82/82/82 614/614/614 592/592/592
f 82/82/82 592/592/592 83/83/83
f 557/557/557 563/563/563 616/616/616
f 557/557/557 616/616/616 617/617/617
f 563/563/563 521/521/521 618/618/618
f 563/563/563 618/618/618 616/616/616
f 616/616/616 618/618/618 509/509/509
f 616/616/616 509/509/509 571/571/571
f 617/617/617 616/616/616 571/571/571
f 617/617/617 571/571/571 569/569/569
f 561/561/561 558/558/558 619/619/619
f 561/561/561 619/619/619 615/615/615
f 558/558/558 557/557/557 617/617/617
f 558/558/558 617/617/617 619/619/619
f 619/619/619 617/617/617 569/569/569
f 619/619/619 569/569/569 566/566/566
f 615/615/615 619/619/619 566/566/566
f 615/615/615 566/566/566 565/565/565
f 517/517/517 526/526/526 620/620/620
f 517/517/517 620/620/620 621/621/621
f 526/526/526 46/46/46 622/622/622
f 526/526/526 622/622/622 620/620/620
f 620/620/620 622/622/622 57/57/57
f 620/620/620 57/57/57 515/515/515
f 621/621/621 620/620/620 515/515/515
f 621/621/621 515/515/515 513/513/513
f 521/521/521 518/518/518 623/623/623
f 521/521/521 623/623/623 618/618/618
f 518/518/518 517/517/517 621/621/621
f 518/518/518 621/621/621 623/623/623
f 623/623/623 621/621/621 513/513/513
f 623/623/623 513/513/513 510/510/510
f 618/618/618 623/623/623 510/510/510
f 618/618/618 510/510/510 509/509/509
f 46/46/46 44/44/44 624/624/624
f 46/46/46 624/624/624 622/622/622
f 44/44/44 42/42/42 625/625/625
f 44/44/44 625/625/625 624/624/624
f 624/624/624 625/625/625 48/48/48
f 624/624/624 48/48/48 58/58/58
f 622/622/622 624/624/624 58/58/58
f 622/622/622 58/58/58 57/57/57
f 42/42/42 39/39/39 626/626/626
f 42/42/42 626/626/626 625/625/625
f 39/39/39 38/38/38 80/80/80
f 39/39/39 80/80/80 626/626/626
f 626/626/626 80/80/80 52/52/52
f 626/626/626 52/52/52 49/49/49
f 625/625/625 626/626/626 49/49/49
f 625/625/625 49/49/49 48/48/48
