v -0.79168 0.0834316 0.666235
v -0.782571 0.083026 0.664437
v -0.780155 0.0876284 0.637475
v -0.784506 0.0877065 0.638239
v -0.772455 0.0828352 0.661957
v -0.775565 0.0875671 0.636139
v -0.777431 0.0881126 0.617646
v -0.799415 0.0838869 0.667355
v -0.788435 0.0877965 0.63844
v -0.807185 0.0842812 0.66495
v -0.791746 0.087893 0.638139
v -0.814613 0.0839639 0.662058
v -0.794209 0.0880081 0.637444
v -0.819946 0.0839073 0.657566
v -0.795823 0.0881104 0.636254
v -0.823632 0.0837421 0.651775
v -0.797653 0.087995 0.633309
v -0.825597 0.0834614 0.644777
v -0.798627 0.0878539 0.629885
v -0.825764 0.083074 0.636819
v -0.798661 0.0876884 0.626181
v -0.824079 0.0826038 0.628253
v -0.797752 0.0875041 0.622328
v -0.820528 0.0821048 0.619618
v -0.795874 0.087312 0.618566
v -0.815145 0.0816785 0.611435
v -0.793169 0.0871373 0.614977
v -0.808098 0.0813401 0.60401
v -0.790185 0.0869369 0.6112
v -0.78723 0.08669 0.607222
v -0.799577 0.0810178 0.597746
v -0.78985 0.0808364 0.59296
v -0.783304 0.0865613 0.604428
v -0.780417 0.0807388 0.588701
v -0.778937 0.0865043 0.602457
v -0.770736 0.0807872 0.585979
v -0.774354 0.0865097 0.601305
v -0.760831 0.0810392 0.58512
v -0.769747 0.0865683 0.600991
v -0.751045 0.0814076 0.586148
v -0.76534 0.0866684 0.601444
v -0.747056 0.0835958 0.591167
v -0.761328 0.0867962 0.602609
v -0.734037 0.0823699 0.592749
v -0.757897 0.0869366 0.604391
v -0.727604 0.0827588 0.597982
v -0.755195 0.087075 0.606715
v -0.723044 0.0830795 0.604113
v -0.753364 0.0871987 0.609448
v -0.720574 0.0833506 0.610945
v -0.752492 0.0872985 0.612483
v -0.720345 0.0835054 0.618234
v -0.752621 0.08737 0.615717
v -0.72249 0.0835287 0.62565
v -0.753738 0.0874139 0.619072
v -0.727063 0.0834242 0.632915
v -0.755796 0.0874365 0.622444
v -0.733683 0.0832426 0.639984
v -0.7587 0.0874484 0.625743
v -0.742005 0.0830509 0.646799
v -0.762308 0.0874624 0.628884
v -0.751621 0.0829131 0.653199
v -0.766449 0.0874896 0.631779
v -0.761949 0.0828141 0.658328
v -0.770929 0.0875228 0.634236
v -0.754654 0.0752573 0.679807
v -0.739251 0.0755337 0.671716
v -0.770161 0.0752787 0.685072
v -0.784776 0.075681 0.68845
v -0.768688 0.0665286 0.704233
v -0.749474 0.0663795 0.696886
v -0.786495 0.067249 0.708841
v -0.797469 0.0766113 0.69106
v -0.803508 0.0682966 0.709904
v -0.810908 0.0766902 0.689528
v -0.81947 0.0682522 0.707265
v -0.819887 0.0786442 0.68456
v -0.825033 0.0739098 0.6966
v -0.832283 0.0770137 0.681544
v -0.845024 0.0686186 0.69545
v -0.839807 0.0769695 0.674854
v -0.854057 0.068534 0.686715
v -0.845059 0.076725 0.666332
v -0.860516 0.0681865 0.67578
v -0.847999 0.0762885 0.656052
v -0.864329 0.0676132 0.662806
v -0.848483 0.0756944 0.64448
v -0.865257 0.0668998 0.648642
v -0.84637 0.0750065 0.632339
v -0.863065 0.0661144 0.634127
v -0.841569 0.0742982 0.620327
v -0.857564 0.0653168 0.619863
v -0.83414 0.0738519 0.60882
v -0.848788 0.0652875 0.60617
v -0.824258 0.0735889 0.59828
v -0.836993 0.065667 0.593465
v -0.812103 0.0729789 0.589437
v -0.822142 0.0646807 0.583147
v -0.798155 0.0725181 0.582541
v -0.804998 0.0637339 0.57506
v -0.78292 0.0724319 0.577978
v -0.78635 0.0634383 0.569425
v -0.768438 0.0725148 0.574555
v -0.767152 0.0635478 0.566723
v -0.754668 0.0729823 0.572527
v -0.751032 0.0642828 0.56319
v -0.740628 0.0735995 0.573488
v -0.734104 0.0651243 0.56359
v -0.735772 0.0781154 0.580365
v -0.726181 0.0710189 0.569974
v -0.715678 0.0753506 0.582289
v -0.703114 0.0676719 0.573912
v -0.705899 0.0757904 0.589878
v -0.690387 0.0676906 0.583943
v -0.698749 0.0761258 0.598879
v -0.680874 0.0675855 0.595692
v -0.694596 0.0765777 0.608932
v -0.675049 0.0681525 0.608555
v -0.693594 0.0768774 0.619764
v -0.672969 0.0686425 0.622215
v -0.696141 0.0769528 0.630769
v -0.675462 0.0688688 0.63578
v -0.702845 0.0767471 0.641236
v -0.684463 0.0686257 0.647714
v -0.712576 0.07636 0.651493
v -0.696885 0.0681 0.659763
v -0.724865 0.0759091 0.661651
v -0.712255 0.0674352 0.67227
v -0.730242 0.0668068 0.685578
v -0.722916 0.0547118 0.698231
v -0.70164 0.0557535 0.681431
v -0.745486 0.0540023 0.713716
v -0.767693 0.0545038 0.724015
v -0.742563 0.0364567 0.729518
v -0.717614 0.0375328 0.710369
v -0.766487 0.0379939 0.743079
v -0.78797 0.0557726 0.730631
v -0.788423 0.0398488 0.75225
v -0.809596 0.0573112 0.729375
v -0.81528 0.0429784 0.747852
v -0.82682 0.0566719 0.724935
v -0.83164 0.0400921 0.742381
v -0.842309 0.05682 0.716624
v -0.848228 0.0403641 0.730506
v -0.855164 0.0569105 0.706822
v -0.861872 0.0407029 0.717294
v -0.865258 0.056799 0.696156
v -0.873047 0.0407637 0.703975
v -0.872763 0.0563641 0.683004
v -0.881588 0.040389 0.688933
v -0.877468 0.0557137 0.667784
v -0.887117 0.0397595 0.672121
v -0.879016 0.0549628 0.651493
v -0.889228 0.0390183 0.654233
v -0.877094 0.0541395 0.634766
v -0.887514 0.0381977 0.635979
v -0.871333 0.0533584 0.61843
v -0.88162 0.0375495 0.618012
v -0.861628 0.0543518 0.602826
v -0.871349 0.0390515 0.600664
v -0.848256 0.055362 0.588543
v -0.856895 0.0399402 0.584997
v -0.831113 0.0541336 0.577308
v -0.838012 0.0383288 0.57325
v -0.811048 0.0523883 0.568679
v -0.815483 0.0357057 0.564612
v -0.789412 0.0517149 0.562351
v -0.791545 0.0348375 0.558031
v -0.767651 0.0516338 0.559075
v -0.768054 0.0345317 0.554372
v -0.748422 0.0525671 0.555556
v -0.746275 0.0354867 0.551067
v -0.729395 0.0538145 0.554927
v -0.725794 0.0370614 0.549459
v -0.719022 0.0632049 0.560554
v -0.717042 0.0516951 0.552988
v -0.692533 0.0573963 0.567832
v -0.684979 0.0417399 0.563157
v -0.677773 0.0569212 0.579127
v -0.668846 0.0414163 0.575246
v -0.666524 0.0558126 0.592658
v -0.656386 0.0399021 0.590028
v -0.659109 0.0563648 0.607698
v -0.647333 0.0403912 0.606807
v -0.654808 0.0571601 0.624383
v -0.64028 0.041483 0.625958
v -0.655611 0.0577055 0.641342
v -0.63717 0.0425407 0.646277
v -0.667287 0.0573842 0.655329
v -0.652902 0.0421416 0.661226
v -0.683043 0.0566787 0.667911
v -0.671952 0.0410134 0.675318
v -0.693161 0.039487 0.690542
v -0.689804 0.0273631 0.695891
v -0.667815 0.0294154 0.678713
v -0.715736 0.0246422 0.716895
v -0.74134 0.0235287 0.737535
v -0.71305 0.0136128 0.717329
v -0.686786 0.0165059 0.69472
v -0.738817 0.0135036 0.73846
v -0.76509 0.026587 0.753185
v -0.76275 0.0188864 0.754493
v -0.787894 0.028996 0.76325
v -0.786318 0.0217422 0.764799
v -0.819173 0.034615 0.755732
v -0.811026 0.0211187 0.762246
v -0.832985 0.0283532 0.751125
v -0.832236 0.0192998 0.751704
v -0.850271 0.0282352 0.737312
v -0.849992 0.0179401 0.736895
v -0.864463 0.0286069 0.722212
v -0.864585 0.0177524 0.720721
v -0.876112 0.0290138 0.707591
v -0.876566 0.018281 0.705407
v -0.885078 0.0288406 0.691988
v -0.885835 0.0184352 0.689449
v -0.890968 0.0282781 0.674563
v -0.891971 0.0181868 0.671623
v -0.893337 0.0275737 0.656031
v -0.894505 0.0176473 0.652676
v -0.891746 0.0267675 0.637133
v -0.892985 0.0168742 0.633367
v -0.885757 0.0261768 0.618552
v -0.886903 0.0163158 0.614415
v -0.875116 0.0276111 0.600734
v -0.87605 0.0174572 0.596328
v -0.860128 0.027982 0.584812
v -0.860758 0.0171509 0.580246
v -0.840781 0.0262787 0.572573
v -0.841249 0.0176156 0.567248
v -0.817263 0.0233153 0.564057
v -0.817213 0.0150472 0.558695
v -0.792443 0.0225874 0.557447
v -0.7919 0.0150236 0.552025
v -0.768357 0.0221349 0.553642
v -0.76747 0.0147398 0.548086
v -0.745393 0.0229348 0.550525
v -0.7436 0.0150994 0.544416
v -0.724521 0.024502 0.548472
v -0.722542 0.01573 0.54318
v -0.702004 0.0277699 0.553362
v -0.699545 0.0186339 0.548132
v -0.682278 0.0294785 0.562315
v -0.679384 0.017941 0.557535
v -0.665614 0.0296936 0.574727
v -0.662425 0.0189364 0.570044
v -0.65274 0.0283353 0.589974
v -0.649328 0.0180647 0.585485
v -0.643189 0.0288424 0.607366
v -0.639672 0.0187926 0.603157
v -0.635213 0.0299869 0.627378
v -0.631507 0.0199401 0.623531
v -0.628842 0.0313465 0.649568
v -0.624927 0.0212913 0.646142
v -0.64757 0.03092 0.66396
v -0.643851 0.0210763 0.660798
v -0.66433 0.0188565 0.675801
v -0.6658 0.00911281 0.677569
v -0.64589 0.011727 0.661947
v -0.688692 0.0069399 0.697741
v -0.714917 0.00406221 0.721404
v -0.694814 -0.00160829 0.696654
v -0.67261 0.00151122 0.675967
v -0.718795 -0.002762 0.720904
v -0.74048 0.00558797 0.742523
v -0.743849 -0.00121914 0.740336
v -0.763763 0.0139317 0.75792
v -0.765965 0.00977251 0.754211
v -0.786663 0.0175652 0.767644
v -0.787174 0.0150819 0.763288
v -0.811094 0.0165886 0.764869
v -0.810295 0.0141383 0.760567
v -0.832119 0.013687 0.754274
v -0.830187 0.0108177 0.750508
v -0.849628 0.0107267 0.739301
v -0.846726 0.00709652 0.736128
v -0.864208 0.00904013 0.723
v -0.860469 0.00450073 0.720201
v -0.876182 0.00843187 0.707561
v -0.871683 0.00277571 0.704903
v -0.88545 0.00785861 0.691665
v -0.880298 0.00133178 0.689781
v -0.891571 0.00733973 0.673856
v -0.88587 0.000330261 0.672851
v -0.894071 0.00708659 0.654892
v -0.88797 0.000107253 0.654788
v -0.892503 0.00706137 0.635557
v -0.886197 0.000671441 0.636342
v -0.886415 0.0074168 0.616599
v -0.880269 0.00204751 0.61824
v -0.875586 0.00888611 0.598653
v -0.869936 0.00416541 0.60118
v -0.860351 0.00857418 0.58279
v -0.854395 0.00356559 0.588171
v -0.840504 0.0057075 0.571124
v -0.835264 0.00138245 0.577549
v -0.816645 0.00416195 0.562353
v -0.81253 0.000955817 0.56896
v -0.79145 0.00486542 0.555709
v -0.788644 0.00210888 0.562386
v -0.767179 0.004459 0.551705
v -0.765538 0.00151402 0.558408
v -0.743443 0.0038532 0.54808
v -0.744951 0.00159822 0.552213
v -0.722932 0.00354945 0.546266
v -0.724788 0.00035245 0.551367
v -0.699973 0.00452299 0.551331
v -0.703285 -0.000349104 0.555592
v -0.679986 0.00719345 0.560077
v -0.684147 0.000788202 0.563958
v -0.663142 0.00834256 0.572367
v -0.66812 0.0015147 0.575568
v -0.650118 0.00770298 0.587629
v -0.655732 0.000937179 0.590005
v -0.6407 0.00842976 0.605138
v -0.647117 0.00122988 0.606569
v -0.633438 0.0102857 0.625087
v -0.641489 0.00307003 0.625144
v -0.632116 0.0119076 0.645503
v -0.642445 0.00494862 0.643786
v -0.654293 0.00410134 0.659834
v -0.674098 -0.00621864 0.656954
v -0.663109 -0.00485252 0.641605
v -0.68971 -0.00879758 0.674941
v -0.707504 -0.00967993 0.698039
v -0.703891 -0.0150855 0.681151
v -0.691968 -0.0146015 0.661548
v -0.719114 -0.0152651 0.701919
v -0.728044 -0.00914524 0.720156
v -0.736456 -0.0137781 0.72053
v -0.749594 -0.0062757 0.736737
v -0.754681 -0.0106108 0.733961
v -0.770815 0.000550076 0.745966
v -0.772594 -0.00545795 0.741018
v -0.788182 0.00786489 0.751833
v -0.787796 0.000322562 0.743988
v -0.807706 0.00769466 0.748879
v -0.804147 0.000741106 0.741142
v -0.824786 0.00494717 0.740174
v -0.818002 -0.000162136 0.734797
v -0.838901 0.00173731 0.728018
v -0.829276 -0.00233065 0.725882
v -0.849821 -0.00116307 0.714836
v -0.838374 -0.00495629 0.714871
v -0.85903 -0.00333212 0.700603
v -0.845711 -0.00740957 0.702226
v -0.866385 -0.00485686 0.686567
v -0.85126 -0.00940395 0.68919
v -0.870997 -0.00610822 0.671665
v -0.854593 -0.0107665 0.67633
v -0.872369 -0.00669237 0.656033
v -0.855192 -0.0114337 0.663078
v -0.87014 -0.00640942 0.640471
v -0.852801 -0.0112551 0.650003
v -0.864077 -0.00532672 0.625726
v -0.847291 -0.0102038 0.637711
v -0.854192 -0.00403428 0.61239
v -0.838768 -0.00929955 0.626731
v -0.840758 -0.00428401 0.600948
v -0.827516 -0.00921768 0.617333
v -0.824153 -0.00514044 0.591462
v -0.813711 -0.00914039 0.609306
v -0.804518 -0.00418049 0.583613
v -0.797416 -0.00750053 0.601929
v -0.78393 -0.00271026 0.577372
v -0.780037 -0.00655074 0.595964
v -0.763677 -0.00354317 0.573632
v -0.76372 -0.00700135 0.589564
v -0.746679 -0.00351464 0.567817
v -0.748378 -0.00690798 0.584166
v -0.728697 -0.00422722 0.566401
v -0.73244 -0.00780263 0.583107
v -0.711041 -0.00536336 0.568285
v -0.717132 -0.00898895 0.584799
v -0.695262 -0.00493321 0.573664
v -0.703747 -0.00918421 0.588839
v -0.681332 -0.00493408 0.583709
v -0.693228 -0.00918017 0.59519
v -0.670724 -0.00553357 0.596151
v -0.685483 -0.00962641 0.604211
v -0.663893 -0.0060976 0.610413
v -0.681136 -0.0111316 0.615471
v -0.660469 -0.00541773 0.626055
v -0.680353 -0.0121279 0.628994
v -0.683968 -0.013186 0.644364
v -0.704323 -0.0175961 0.657452
v -0.700871 -0.0165575 0.644405
v -0.710949 -0.018791 0.672663
v -0.720398 -0.0193372 0.689307
v -0.731143 -0.0198111 0.685919
v -0.726709 -0.0197118 0.674913
v -0.737429 -0.0194041 0.697053
v -0.732179 -0.0181271 0.705567
v -0.745209 -0.0188277 0.707402
v -0.745483 -0.0167139 0.719449
v -0.75392 -0.0176501 0.716162
v -0.759522 -0.0141755 0.729204
v -0.763231 -0.0160707 0.722431
v -0.773447 -0.011182 0.734282
v -0.772521 -0.0146111 0.726081
v -0.786347 -0.00880819 0.735718
v -0.781474 -0.0136584 0.727338
v -0.79701 -0.00689908 0.734935
v -0.789528 -0.0130958 0.726758
v -0.808043 -0.00715861 0.730309
v -0.795591 -0.0127543 0.725445
v -0.81711 -0.00835617 0.723826
v -0.801857 -0.0134094 0.721924
v -0.824389 -0.0101574 0.715716
v -0.807261 -0.0144357 0.716943
v -0.830051 -0.011944 0.706152
v -0.811418 -0.0155556 0.710979
v -0.834079 -0.0133062 0.695616
v -0.814251 -0.0165998 0.70431
v -0.836326 -0.0140117 0.684969
v -0.815796 -0.0174446 0.697061
v -0.836534 -0.0144479 0.67479
v -0.815901 -0.017964 0.689811
v -0.834448 -0.0143507 0.664946
v -0.814448 -0.0181906 0.683004
v -0.830028 -0.0135869 0.655683
v -0.811383 -0.0181328 0.676843
v -0.823377 -0.0129915 0.647242
v -0.806745 -0.0180123 0.671177
v -0.814638 -0.0126725 0.639773
v -0.80062 -0.0179508 0.666095
v -0.803857 -0.012092 0.633179
v -0.793105 -0.0176629 0.661623
v -0.791269 -0.0124976 0.627161
v -0.786188 -0.0166457 0.652839
v -0.778014 -0.0124087 0.620767
v -0.777983 -0.0159199 0.645805
v -0.765942 -0.010876 0.611411
v -0.768902 -0.0154809 0.64123
v -0.752896 -0.0105499 0.607638
v -0.75965 -0.0154158 0.638559
v -0.740008 -0.011228 0.606831
v -0.750653 -0.0155528 0.637665
v -0.727841 -0.0116503 0.608082
v -0.742342 -0.0159941 0.63844
v -0.717242 -0.0124296 0.611247
v -0.735179 -0.0164417 0.640658
v -0.708997 -0.0127836 0.616258
v -0.729581 -0.0169655 0.64432
v -0.70333 -0.0136304 0.623612
v -0.725798 -0.0176207 0.649574
v -0.700607 -0.0151176 0.632973
v -0.724054 -0.018399 0.656268
v -0.72431 -0.0191753 0.664854
v -0.747072 -0.01842 0.687634
v -0.746958 -0.0182463 0.683296
v -0.748245 -0.018556 0.6924
v -0.750397 -0.0186153 0.697373
v -0.773454 -0.0195736 0.696781
v -0.760812 -0.0178175 0.672403
v -0.756535 -0.0177277 0.672924
v -0.752838 -0.0177608 0.674303
v -0.774583 -0.0160593 0.717717
v -0.778791 -0.0157693 0.718073
v -0.770136 -0.0165568 0.716425
v -0.76562 -0.0171859 0.714132
v -0.761201 -0.0178032 0.710905
v -0.757059 -0.0182747 0.706891
v -0.753392 -0.0185404 0.702296
v -0.74792 -0.0180606 0.679553
v -0.749915 -0.0178879 0.676529
v -0.765453 -0.018012 0.672738
v -0.770237 -0.0183062 0.673902
v -0.774948 -0.0186542 0.675826
v -0.779382 -0.0189838 0.678403
v -0.78337 -0.0192511 0.681555
v -0.78677 -0.0194142 0.685183
v -0.78948 -0.0194313 0.689168
v -0.791442 -0.0192762 0.693375
v -0.792649 -0.0189486 0.697635
v -0.793153 -0.018474 0.701747
v -0.793021 -0.017906 0.705538
v -0.792249 -0.0173063 0.708948
v -0.790807 -0.0167323 0.711937
v -0.788697 -0.0162425 0.714422
v -0.785948 -0.015887 0.716332
v -0.782618 -0.0157161 0.71758
vt 0.7176 0.1429
vt 0.7509 0.1429
vt 0.7819 0.1429
vt 0.7509 0.1429
vt 2.384e-07 0.0625
vt 0.75 0.0625
vt 0.7812 0.0625
vt 0.75 0.0625
vt 0.7187 0.0625
vt 0.7187 0.0625
vt 0.75 0.0625
vt 0.7812 0.0625
vt 0.7344 0
vt 0.7656 0
vt 0.75 0.0625
vt 0.7819 0.1429
vt 0.8126 0.142
vt 0.8125 0.0625
vt 0.7812 0.0625
vt 0.7812 0.0625
vt 0.8125 0.0625
vt 0.8425 0.1404
vt 0.7969 0
vt 0.8125 0.0625
vt 0.8126 0.142
vt 0.8438 0.0625
vt 0.8438 0.0625
vt 0.8281 0
vt 0.8125 0.0625
vt 0.874 0.142
vt 0.8425 0.1404
vt 0.875 0.0625
vt 0.8438 0.0625
vt 0.8438 0.0625
vt 0.875 0.0625
vt 0.9059 0.1419
vt 0.8594 0
vt 0.875 0.0625
vt 0.874 0.142
vt 0.9063 0.0625
vt 0.9063 0.0625
vt 0.8906 0
vt 0.875 0.0625
vt 0.9059 0.1419
vt 0.9371 0.1422
vt 0.9375 0.0625
vt 0.9063 0.0625
vt 0.9063 0.0625
vt 0.9375 0.0625
vt 0.9686 0.1424
vt 0.9219 0
vt 0.9375 0.0625
vt 0.9371 0.1422
vt 0.9688 0.0625
vt 0.9688 0.0625
vt 0.9531 0
vt 0.9375 0.0625
vt 0.9686 0.1424
vt 1 0.1431
vt 1 0.0625
vt 0.9688 0.0625
vt 0.9688 0.0625
vt 1 0.0625
vt 0.03101 0.1427
vt 0.9844 0
vt -0.0001703 0.1424
vt 0.3126 0.1427
vt 0.03125 0.0625
vt 2.384e-07 0.0625
vt 0.03125 0.0625
vt 0.3125 0.0625
vt 0.01563 0
vt 0.06201 0.1428
vt 0.03101 0.1427
vt 0.03125 0.0625
vt 0.0625 0.0625
vt 0.0625 0.0625
vt 0.03125 0.0625
vt 0.04688 0
vt 0.09383 0.1428
vt 0.06201 0.1428
vt 0.0625 0.0625
vt 0.09375 0.0625
vt 0.09375 0.0625
vt 0.0625 0.0625
vt 0.07813 0
vt 0.1255 0.143
vt 0.09383 0.1428
vt 0.09375 0.0625
vt 0.125 0.0625
vt 0.125 0.0625
vt 0.09375 0.0625
vt 0.1094 0
vt 0.1563 0.0625
vt 0.125 0.0625
vt 0.1406 0
vt 0.157 0.143
vt 0.1255 0.143
vt 0.125 0.0625
vt 0.1563 0.0625
vt 0.1882 0.1437
vt 0.157 0.143
vt 0.1563 0.0625
vt 0.1875 0.0625
vt 0.1875 0.0625
vt 0.1563 0.0625
vt 0.1719 0
vt 0.219 0.1431
vt 0.1882 0.1437
vt 0.1875 0.0625
vt 0.2188 0.0625
vt 0.2188 0.0625
vt 0.1875 0.0625
vt 0.2031 0
vt 0.2504 0.1426
vt 0.219 0.1431
vt 0.2188 0.0625
vt 0.25 0.0625
vt 0.25 0.0625
vt 0.2188 0.0625
vt 0.2344 0
vt 0.2815 0.1427
vt 0.2504 0.1426
vt 0.25 0.0625
vt 0.2812 0.0625
vt 0.2812 0.0625
vt 0.25 0.0625
vt 0.2656 0
vt 0.2815 0.1427
vt 0.2812 0.0625
vt 0.5631 0.1422
vt 0.3125 0.0625
vt 0.2969 0
vt 0.2812 0.0625
vt 0.5937 0.0625
vt 0.3373 0.1246
vt 0.3126 0.1427
vt 0.3125 0.0625
vt 0.3437 0.0625
vt 0.3437 0.0625
vt 0.3125 0.0625
vt 0.3281 0
vt 0.375 0.1426
vt 0.3373 0.1246
vt 0.3437 0.0625
vt 0.375 0.0625
vt 0.375 0.0625
vt 0.3437 0.0625
vt 0.3594 0
vt 0.4064 0.1424
vt 0.375 0.1426
vt 0.375 0.0625
vt 0.4062 0.0625
vt 0.4062 0.0625
vt 0.375 0.0625
vt 0.3906 0
vt 0.4377 0.1423
vt 0.4064 0.1424
vt 0.4062 0.0625
vt 0.4375 0.0625
vt 0.4375 0.0625
vt 0.4062 0.0625
vt 0.4219 0
vt 0.4692 0.1422
vt 0.4377 0.1423
vt 0.4375 0.0625
vt 0.4687 0.0625
vt 0.4687 0.0625
vt 0.4375 0.0625
vt 0.4531 0
vt 0.5007 0.1423
vt 0.4692 0.1422
vt 0.4687 0.0625
vt 0.5 0.0625
vt 0.5 0.0625
vt 0.4687 0.0625
vt 0.4844 0
vt 0.5321 0.1423
vt 0.5007 0.1423
vt 0.5 0.0625
vt 0.5312 0.0625
vt 0.5312 0.0625
vt 0.5 0.0625
vt 0.5156 0
vt 0.5631 0.1422
vt 0.5321 0.1423
vt 0.5312 0.0625
vt 0.5625 0.0625
vt 0.5625 0.0625
vt 0.5312 0.0625
vt 0.5469 0
vt 0.5941 0.1421
vt 0.5625 0.0625
vt 0.5937 0.0625
vt 0.7819 0.1429
vt 0.5625 0.0625
vt 0.6252 0.1422
vt 0.5781 0
vt 0.7818 0.2801
vt 0.5941 0.1421
vt 0.5937 0.0625
vt 0.625 0.0625
vt 0.625 0.0625
vt 0.5937 0.0625
vt 0.6094 0
vt 0.6553 0.1427
vt 0.6252 0.1422
vt 0.625 0.0625
vt 0.6562 0.0625
vt 0.6562 0.0625
vt 0.625 0.0625
vt 0.6406 0
vt 0.6866 0.1429
vt 0.6553 0.1427
vt 0.6562 0.0625
vt 0.6875 0.0625
vt 0.6875 0.0625
vt 0.6562 0.0625
vt 0.6719 0
vt 0.7176 0.1429
vt 0.6866 0.1429
vt 0.6875 0.0625
vt 0.7187 0.0625
vt 0.7187 0.0625
vt 0.6875 0.0625
vt 0.7031 0
vt 0.6875 0.2178
vt 0.6562 0.2178
vt 0.6553 0.1427
vt 0.6866 0.1429
vt 0.7188 0.2178
vt 0.6875 0.2178
vt 0.6866 0.1429
vt 0.7176 0.1429
vt 0.75 0.2178
vt 0.7188 0.2178
vt 0.7176 0.1429
vt 0.7509 0.1429
vt 0.7188 0.2813
vt 0.6875 0.2813
vt 0.6875 0.2178
vt 0.7188 0.2178
vt 0.75 0.2813
vt 0.7188 0.2813
vt 0.7188 0.2178
vt 0.75 0.2178
vt 0.7814 0.2174
vt 0.75 0.2178
vt 0.7509 0.1429
vt 0.7819 0.1429
vt 0.7818 0.2801
vt 0.75 0.2813
vt 0.75 0.2178
vt 0.7814 0.2174
vt 0.8135 0.2169
vt 0.7814 0.2174
vt 0.8126 0.142
vt 0.8125 0.2813
vt 0.03101 0.1427
vt 0.7814 0.2174
vt 0.8405 0.2072
vt 0.8135 0.2169
vt 0.03165 0.2805
vt 0.8135 0.2169
vt 0.8126 0.142
vt 0.8425 0.1404
vt 0.833 0.2492
vt 0.8125 0.2813
vt 0.8135 0.2169
vt 0.8405 0.2072
vt 0.8746 0.2151
vt 0.8405 0.2072
vt 0.8425 0.1404
vt 0.874 0.142
vt 0.875 0.2792
vt 0.833 0.2492
vt 0.8405 0.2072
vt 0.8746 0.2151
vt 0.9058 0.2153
vt 0.8746 0.2151
vt 0.874 0.142
vt 0.9059 0.1419
vt 0.9061 0.2779
vt 0.875 0.2792
vt 0.8746 0.2151
vt 0.9058 0.2153
vt 0.9375 0.2157
vt 0.9058 0.2153
vt 0.9059 0.1419
vt 0.9371 0.1422
vt 0.9373 0.2788
vt 0.9061 0.2779
vt 0.9058 0.2153
vt 0.9375 0.2157
vt 0.9691 0.2163
vt 0.9375 0.2157
vt 0.9371 0.1422
vt 0.9686 0.1424
vt 0.9688 0.2798
vt 0.9373 0.2788
vt 0.9375 0.2157
vt 0.9691 0.2163
vt 1 0.2178
vt 0.9691 0.2163
vt 0.9686 0.1424
vt 1 0.1431
vt 1 0.2813
vt 0.9688 0.2798
vt 0.9691 0.2163
vt 1 0.2178
vt 0.03171 0.2172
vt 0.0006921 0.2163
vt -0.0001703 0.1424
vt 0.03101 0.1427
vt 0.03165 0.2805
vt 0.0003443 0.2793
vt 0.0006921 0.2163
vt 0.03171 0.2172
vt 0.0628 0.2176
vt 0.03171 0.2172
vt 0.06201 0.1428
vt 0.06293 0.281
vt 0.2815 0.1427
vt 0.03171 0.2172
vt 0.09374 0.2178
vt 0.0628 0.2176
vt 0.2808 0.2823
vt 0.0628 0.2176
vt 0.06201 0.1428
vt 0.09383 0.1428
vt 0.09402 0.2811
vt 0.06293 0.281
vt 0.0628 0.2176
vt 0.09374 0.2178
vt 0.1247 0.2178
vt 0.09374 0.2178
vt 0.09383 0.1428
vt 0.1255 0.143
vt 0.1252 0.2813
vt 0.09402 0.2811
vt 0.09374 0.2178
vt 0.1247 0.2178
vt 0.1555 0.2176
vt 0.1247 0.2178
vt 0.1255 0.143
vt 0.157 0.143
vt 0.1562 0.2814
vt 0.1252 0.2813
vt 0.1247 0.2178
vt 0.1555 0.2176
vt 0.1883 0.2175
vt 0.1555 0.2176
vt 0.157 0.143
vt 0.1882 0.1437
vt 0.1872 0.2814
vt 0.1562 0.2814
vt 0.1555 0.2176
vt 0.1883 0.2175
vt 0.219 0.2183
vt 0.1883 0.2175
vt 0.1882 0.1437
vt 0.219 0.1431
vt 0.2179 0.2824
vt 0.1872 0.2814
vt 0.1883 0.2175
vt 0.219 0.2183
vt 0.2502 0.2178
vt 0.219 0.2183
vt 0.219 0.1431
vt 0.2504 0.1426
vt 0.2501 0.2825
vt 0.2179 0.2824
vt 0.219 0.2183
vt 0.2502 0.2178
vt 0.281 0.218
vt 0.2502 0.2178
vt 0.2504 0.1426
vt 0.2815 0.1427
vt 0.2808 0.2823
vt 0.2501 0.2825
vt 0.2502 0.2178
vt 0.281 0.218
vt 0.3121 0.2178
vt 0.281 0.218
vt 0.3126 0.1427
vt 0.3121 0.2817
vt 0.5321 0.1423
vt 0.281 0.218
vt 0.333 0.1863
vt 0.3121 0.2178
vt 0.5312 0.2813
vt 0.3121 0.2178
vt 0.3126 0.1427
vt 0.3373 0.1246
vt 0.3332 0.2485
vt 0.3121 0.2817
vt 0.3121 0.2178
vt 0.333 0.1863
vt 0.3748 0.2168
vt 0.333 0.1863
vt 0.3373 0.1246
vt 0.375 0.1426
vt 0.3751 0.28
vt 0.3332 0.2485
vt 0.333 0.1863
vt 0.3748 0.2168
vt 0.4065 0.2165
vt 0.3748 0.2168
vt 0.375 0.1426
vt 0.4064 0.1424
vt 0.4064 0.2798
vt 0.3751 0.28
vt 0.3748 0.2168
vt 0.4065 0.2165
vt 0.4368 0.2159
vt 0.4065 0.2165
vt 0.4064 0.1424
vt 0.4377 0.1423
vt 0.4375 0.28
vt 0.4064 0.2798
vt 0.4065 0.2165
vt 0.4368 0.2159
vt 0.4685 0.2162
vt 0.4368 0.2159
vt 0.4377 0.1423
vt 0.4692 0.1422
vt 0.4688 0.2799
vt 0.4375 0.28
vt 0.4368 0.2159
vt 0.4685 0.2162
vt 0.4999 0.2171
vt 0.4685 0.2162
vt 0.4692 0.1422
vt 0.5007 0.1423
vt 0.5 0.2813
vt 0.4688 0.2799
vt 0.4685 0.2162
vt 0.4999 0.2171
vt 0.531 0.2174
vt 0.4999 0.2171
vt 0.5007 0.1423
vt 0.5321 0.1423
vt 0.5312 0.2813
vt 0.5 0.2813
vt 0.4999 0.2171
vt 0.531 0.2174
vt 0.5625 0.2178
vt 0.531 0.2174
vt 0.5631 0.1422
vt 0.5625 0.2813
vt 0.625 0.2178
vt 0.531 0.2174
vt 0.5625 0.2178
vt 0.5937 0.2178
vt 0.625 0.2813
vt 0.5625 0.2178
vt 0.6252 0.1422
vt 0.5631 0.1422
vt 0.625 0.3475
vt 0.5941 0.1421
vt 0.5937 0.2813
vt 0.5625 0.2813
vt 0.5625 0.2178
vt 0.5937 0.2178
vt 0.5937 0.2178
vt 0.5941 0.1421
vt 0.5937 0.2813
vt 0.5937 0.2178
vt 0.625 0.2178
vt 0.6562 0.2178
vt 0.625 0.2178
vt 0.6252 0.1422
vt 0.6553 0.1427
vt 0.6562 0.2813
vt 0.625 0.2813
vt 0.625 0.2178
vt 0.6562 0.2178
vt 0.6875 0.2813
vt 0.6562 0.2813
vt 0.6562 0.2178
vt 0.6875 0.2178
vt 0.6562 0.3475
vn 0.07288 0.9702 0.2311
vn 0.08496 0.968 0.2362
vn 0.04404 0.9937 0.1025
vn 0.04605 0.9938 0.1006
vn 0.08228 0.9677 0.238
vn 0.04355 0.9938 0.102
vn -0.005554 0.9992 -0.03992
vn 0.02091 0.9727 0.2312
vn 0.0347 0.995 0.09375
vn -0.04639 0.981 0.1883
vn 0.006165 0.9966 0.08255
vn -0.1204 0.9809 0.1529
vn -0.02121 0.997 0.07465
vn -0.1582 0.9802 0.1191
vn -0.05441 0.9974 0.04593
vn -0.2079 0.9766 0.05539
vn -0.0914 0.9958 0.0007019
vn -0.2433 0.9699 -0.008759
vn -0.1098 0.9935 -0.03006
vn -0.2672 0.9608 -0.0737
vn -0.1241 0.9902 -0.06336
vn -0.2804 0.9496 -0.14
vn -0.133 0.9862 -0.09857
vn -0.2817 0.9379 -0.2024
vn -0.1338 0.9823 -0.1309
vn -0.2701 0.9276 -0.2579
vn -0.1273 0.9802 -0.1519
vn -0.2475 0.914 -0.3214
vn -0.123 0.9771 -0.1737
vn -0.1208 0.9684 -0.2179
vn -0.2161 0.895 -0.3901
vn -0.1844 0.8776 -0.4424
vn -0.1047 0.9652 -0.2395
vn -0.1517 0.8661 -0.4763
vn -0.08533 0.9655 -0.2462
vn -0.1026 0.8681 -0.4855
vn -0.05478 0.9683 -0.2435
vn -0.03632 0.8876 -0.4592
vn -0.02326 0.9727 -0.2306
vn -0.001221 0.8958 -0.4443
vn -0.006806 0.976 -0.2177
vn 0.05307 0.95 -0.3075
vn 0.0105 0.9827 -0.1849
vn 0.1354 0.954 -0.2675
vn 0.05631 0.9901 -0.1285
vn 0.1587 0.9641 -0.2128
vn 0.0625 0.991 -0.1181
vn 0.1804 0.9729 -0.1443
vn 0.07309 0.994 -0.08094
vn 0.1889 0.9794 -0.07178
vn 0.07816 0.996 -0.04218
vn 0.1858 0.9825 0.00589
vn 0.07797 0.9969 -0.00354
vn 0.173 0.9815 0.08216
vn 0.07398 0.9968 0.03073
vn 0.1567 0.9774 0.1421
vn 0.06842 0.996 0.05698
vn 0.143 0.9733 0.1795
vn 0.06333 0.9952 0.07395
vn 0.1325 0.9705 0.2012
vn 0.0596 0.9947 0.08377
vn 0.1179 0.9687 0.2184
vn 0.0546 0.9943 0.09174
vn 0.09693 0.9677 0.2324
vn 0.04788 0.994 0.09864
vn 0.153 0.9222 0.3552
vn 0.1937 0.9191 0.3431
vn 0.1213 0.9274 0.3538
vn 0.1149 0.9296 0.3501
vn 0.1782 0.8722 0.4555
vn 0.2335 0.8502 0.4718
vn 0.1242 0.8856 0.4475
vn 0.05054 0.9336 0.3548
vn -0.004181 0.8942 0.4477
vn -0.004151 0.9335 0.3585
vn -0.1238 0.8771 0.4639
vn -0.09217 0.9508 0.2958
vn -0.144 0.9006 0.4101
vn -0.2186 0.9417 0.2556
vn -0.3248 0.854 0.4063
vn -0.273 0.9396 0.2063
vn -0.4268 0.8481 0.3139
vn -0.341 0.933 0.1151
vn -0.513 0.8367 0.1914
vn -0.3857 0.9224 0.02005
vn -0.561 0.8253 0.06394
vn -0.4089 0.9095 -0.07404
vn -0.5765 0.8147 -0.06247
vn -0.4155 0.8938 -0.1688
vn -0.5668 0.8018 -0.1892
vn -0.4066 0.8787 -0.2499
vn -0.5375 0.7925 -0.2879
vn -0.3796 0.8689 -0.3176
vn -0.4888 0.792 -0.3658
vn -0.3275 0.849 -0.4147
vn -0.4042 0.7706 -0.4928
vn -0.2685 0.8137 -0.5155
vn -0.3121 0.7124 -0.6286
vn -0.2154 0.7818 -0.5851
vn -0.2442 0.6586 -0.7117
vn -0.1679 0.752 -0.6374
vn -0.1695 0.6231 -0.7635
vn -0.1343 0.738 -0.6613
vn -0.1537 0.6024 -0.7832
vn -0.06571 0.7689 -0.6359
vn -0.09787 0.6296 -0.7707
vn -0.002716 0.8032 -0.5957
vn -0.03568 0.6797 -0.7325
vn 0.08139 0.8845 -0.4593
vn 0.09757 0.7997 -0.5924
vn 0.2051 0.8989 -0.3872
vn 0.2998 0.8105 -0.5032
vn 0.2694 0.9131 -0.306
vn 0.4047 0.8169 -0.411
vn 0.3104 0.9249 -0.2195
vn 0.4671 0.8303 -0.3038
vn 0.3233 0.9385 -0.1207
vn 0.4849 0.8541 -0.188
vn 0.3135 0.9496 -0.002533
vn 0.4642 0.8849 -0.03687
vn 0.2857 0.9494 0.1304
vn 0.4046 0.8981 0.1725
vn 0.256 0.9372 0.2369
vn 0.344 0.8742 0.3426
vn 0.2359 0.9258 0.2954
vn 0.3258 0.8454 0.4232
vn 0.2192 0.92 0.3248
vn 0.3189 0.8301 0.4573
vn 0.293 0.833 0.4693
vn 0.4061 0.6973 0.5906
vn 0.4141 0.693 0.5902
vn 0.3444 0.7319 0.5879
vn 0.2684 0.7819 0.5626
vn 0.4566 0.5831 0.6719
vn 0.4998 0.5365 0.6799
vn 0.3677 0.6677 0.6472
vn 0.1349 0.8223 0.5529
vn 0.1485 0.7355 0.661
vn -0.07947 0.8334 0.5469
vn -0.1685 0.7427 0.648
vn -0.2501 0.795 0.5526
vn -0.4006 0.6539 0.6417
vn -0.3577 0.7511 0.5549
vn -0.5151 0.5734 0.6371
vn -0.4736 0.71 0.5211
vn -0.6213 0.5098 0.595
vn -0.6002 0.6772 0.4256
vn -0.7248 0.471 0.5027
vn -0.6966 0.6607 0.2794
vn -0.8201 0.4537 0.3486
vn -0.7485 0.6517 0.1223
vn -0.8781 0.4456 0.174
vn -0.7634 0.6448 -0.03818
vn -0.8994 0.4369 -0.01074
vn -0.7455 0.6348 -0.2029
vn -0.883 0.4225 -0.2044
vn -0.7029 0.6268 -0.3362
vn -0.8343 0.4012 -0.3781
vn -0.6334 0.6284 -0.4516
vn -0.7509 0.3793 -0.5406
vn -0.5121 0.5984 -0.6161
vn -0.6009 0.3324 -0.7269
vn -0.37 0.5198 -0.77
vn -0.4165 0.2604 -0.871
vn -0.2775 0.4479 -0.8499
vn -0.2955 0.1982 -0.9345
vn -0.1892 0.4116 -0.8915
vn -0.2038 0.1693 -0.9643
vn -0.1589 0.3957 -0.9045
vn -0.1536 0.1537 -0.9761
vn -0.1167 0.4059 -0.9064
vn -0.1193 0.1543 -0.9808
vn -0.06577 0.4527 -0.8892
vn 0.03204 0.1677 -0.9853
vn 0.1484 0.6408 -0.7532
vn 0.1673 0.3594 -0.9181
vn 0.4164 0.6098 -0.6743
vn 0.4753 0.3247 -0.8177
vn 0.5531 0.6298 -0.5452
vn 0.6526 0.3618 -0.6657
vn 0.639 0.6503 -0.4108
vn 0.7653 0.3929 -0.5097
vn 0.6641 0.6918 -0.2835
vn 0.8133 0.4425 -0.3778
vn 0.6414 0.7578 -0.1197
vn 0.8114 0.5361 -0.2328
vn 0.5538 0.8057 0.2098
vn 0.7328 0.6402 0.2304
vn 0.4331 0.7588 0.4864
vn 0.5127 0.5774 0.6353
vn 0.4062 0.715 0.569
vn 0.4842 0.5297 0.6964
vn 0.4932 0.528 0.6913
vn 0.5871 0.2752 0.7613
vn 0.5791 0.226 0.7833
vn 0.5858 0.3161 0.7462
vn 0.5532 0.3715 0.7456
vn 0.6295 0.1725 0.7576
vn 0.637 0.09354 0.7651
vn 0.6029 0.2426 0.76
vn 0.4511 0.4468 0.7725
vn 0.5126 0.323 0.7955
vn 0.1263 0.4892 0.8629
vn 0.1761 0.4146 0.8928
vn -0.2994 0.4841 0.8222
vn -0.2653 0.3649 0.8924
vn -0.5186 0.2896 0.8044
vn -0.5494 0.1916 0.8133
vn -0.6527 0.2217 0.7244
vn -0.6984 0.07981 0.7112
vn -0.7382 0.1709 0.6526
vn -0.7674 0.02991 0.6404
vn -0.8126 0.1532 0.5623
vn -0.8332 0.0094 0.5529
vn -0.8967 0.1622 0.4118
vn -0.9157 0.01077 0.4017
vn -0.9557 0.1876 0.2266
vn -0.9769 0.02344 0.2123
vn -0.9752 0.2194 0.02722
vn -0.9992 0.0401 0.005585
vn -0.9503 0.2519 -0.1828
vn -0.975 0.05368 -0.2156
vn -0.8837 0.2759 -0.3779
vn -0.9022 0.05197 -0.4281
vn -0.7825 0.2811 -0.5555
vn -0.7867 0.06006 -0.6144
vn -0.622 0.2819 -0.7305
vn -0.6264 0.06034 -0.7771
vn -0.4143 0.3067 -0.8569
vn -0.4219 0.1107 -0.8998
vn -0.2662 0.3291 -0.906
vn -0.2843 0.1041 -0.953
vn -0.1948 0.3286 -0.9242
vn -0.1988 0.1294 -0.9715
vn -0.1421 0.3369 -0.9308
vn -0.1558 0.1404 -0.9778
vn -0.1207 0.3272 -0.9372
vn -0.1196 0.1452 -0.9821
vn 0.02896 0.3317 -0.9429
vn 0.05756 0.1382 -0.9887
vn 0.2774 0.3398 -0.8986
vn 0.2989 0.1625 -0.9403
vn 0.4706 0.3333 -0.8169
vn 0.501 0.1212 -0.8569
vn 0.6556 0.3413 -0.6735
vn 0.6741 0.1405 -0.7251
vn 0.7755 0.365 -0.5151
vn 0.8139 0.1353 -0.565
vn 0.8361 0.3754 -0.4001
vn 0.8936 0.1369 -0.4274
vn 0.8598 0.4172 -0.2944
vn 0.9504 0.06418 -0.3041
vn 0.8559 0.3568 0.3743
vn 0.9735 -0.03665 0.2256
vn 0.5875 0.2306 0.7757
vn 0.6258 -0.1023 0.7732
vn 0.6139 0.01746 0.7891
vn 0.6328 -0.3154 0.7071
vn 0.6213 -0.4395 0.6487
vn 0.664 -0.2172 0.7154
vn 0.6506 -0.1507 0.7443
vn 0.5607 -0.6545 0.5072
vn 0.5189 -0.7265 0.4504
vn 0.5298 -0.5988 0.6006
vn 0.5488 -0.1491 0.8225
vn 0.3354 -0.6192 0.71
vn 0.4153 -0.1379 0.8992
vn 0.1264 -0.7005 0.7024
vn 0.124 -0.1585 0.9795
vn 0.01468 -0.8261 0.5632
vn -0.2464 -0.2324 0.9409
vn -0.07401 -0.8646 0.497
vn -0.4796 -0.295 0.8264
vn -0.1791 -0.8534 0.4895
vn -0.6235 -0.326 0.7106
vn -0.3018 -0.8322 0.4651
vn -0.7074 -0.3263 0.627
vn -0.4013 -0.8112 0.4252
vn -0.7757 -0.3117 0.5487
vn -0.472 -0.7964 0.3781
vn -0.8558 -0.3123 0.4123
vn -0.5386 -0.7902 0.2924
vn -0.9156 -0.3309 0.2282
vn -0.5866 -0.7942 0.1585
vn -0.9304 -0.3654 0.02927
vn -0.5922 -0.8057 0.004273
vn -0.8923 -0.4151 -0.1774
vn -0.5451 -0.8247 -0.1505
vn -0.7974 -0.4701 -0.3784
vn -0.4574 -0.8415 -0.2874
vn -0.6768 -0.5099 -0.531
vn -0.3775 -0.8561 -0.3529
vn -0.5432 -0.5642 -0.6217
vn -0.3131 -0.8862 -0.3416
vn -0.3829 -0.6343 -0.6716
vn -0.2157 -0.9147 -0.3417
vn -0.2333 -0.6732 -0.7016
vn -0.09684 -0.9324 -0.3481
vn -0.1502 -0.6799 -0.7177
vn -0.06616 -0.9388 -0.338
vn -0.1329 -0.6751 -0.7256
vn -0.09217 -0.9324 -0.3494
vn -0.1011 -0.6232 -0.7754
vn -0.08609 -0.9141 -0.3962
vn 0.06787 -0.5596 -0.826
vn -0.001892 -0.8914 -0.4531
vn 0.3032 -0.4999 -0.8112
vn 0.1657 -0.8585 -0.4852
vn 0.4781 -0.446 -0.7566
vn 0.3195 -0.814 -0.485
vn 0.6223 -0.4272 -0.6558
vn 0.4088 -0.7964 -0.4456
vn 0.7482 -0.4343 -0.5016
vn 0.4853 -0.8052 -0.3408
vn 0.8256 -0.4552 -0.3335
vn 0.5444 -0.818 -0.1858
vn 0.8201 -0.5536 -0.145
vn 0.5496 -0.8353 -0.01379
vn 0.7558 -0.5864 0.2912
vn 0.5054 -0.8373 0.2084
vn 0.4821 -0.7898 0.3791
vn 0.4303 -0.8702 0.2397
vn 0.3961 -0.9069 0.1433
vn 0.4782 -0.816 0.3246
vn 0.4966 -0.7631 0.4136
vn 0.4099 -0.8736 0.2621
vn 0.3584 -0.921 0.1523
vn 0.4049 -0.8357 0.3709
vn 0.4327 -0.7275 0.5324
vn 0.3294 -0.8078 0.4888
vn 0.2437 -0.6957 0.6757
vn 0.174 -0.7534 0.6341
vn 0.03055 -0.6963 0.7171
vn -0.005066 -0.7033 0.7108
vn -0.05307 -0.778 0.6259
vn -0.1087 -0.7044 0.7014
vn -0.1062 -0.8307 0.5464
vn -0.1774 -0.7477 0.6398
vn -0.1713 -0.8569 0.4861
vn -0.2402 -0.7906 0.5632
vn -0.2368 -0.8729 0.4266
vn -0.2832 -0.8263 0.4867
vn -0.2885 -0.8856 0.3638
vn -0.3126 -0.862 0.399
vn -0.3185 -0.8993 0.2997
vn -0.3167 -0.8985 0.3039
vn -0.3354 -0.9157 0.2214
vn -0.2951 -0.9325 0.2081
vn -0.3442 -0.9318 0.1151
vn -0.2621 -0.9589 0.1088
vn -0.333 -0.9429 -0.005585
vn -0.2173 -0.9761 0.003662
vn -0.2936 -0.948 -0.1231
vn -0.1602 -0.9826 -0.09369
vn -0.2416 -0.9467 -0.213
vn -0.1193 -0.9814 -0.1506
vn -0.2172 -0.9457 -0.2417
vn -0.1137 -0.9812 -0.156
vn -0.1996 -0.9519 -0.2325
vn -0.101 -0.9841 -0.1461
vn -0.1196 -0.9626 -0.243
vn -0.0506 -0.9859 -0.1592
vn -0.03696 -0.9669 -0.2525
vn -0.02167 -0.9822 -0.1863
vn -0.05216 -0.967 -0.2493
vn -0.05234 -0.9786 -0.1989
vn -0.08341 -0.9644 -0.2511
vn -0.0672 -0.9791 -0.192
vn -0.07553 -0.9607 -0.267
vn -0.06137 -0.9796 -0.1914
vn -0.04315 -0.9612 -0.2723
vn -0.0528 -0.9807 -0.1879
vn 0.04733 -0.9613 -0.2713
vn -0.003479 -0.9839 -0.1787
vn 0.1551 -0.9525 -0.2619
vn 0.06958 -0.9832 -0.1686
vn 0.2089 -0.9459 -0.2483
vn 0.1097 -0.9802 -0.1649
vn 0.2531 -0.9446 -0.2091
vn 0.1299 -0.978 -0.1631
vn 0.3151 -0.9424 -0.1117
vn 0.1723 -0.9773 -0.1234
vn 0.3695 -0.929 0.01874
vn 0.2445 -0.9691 -0.03159
vn 0.3066 -0.9499 0.06128
vn 0.1439 -0.9894 -0.01605
vn 0.1095 -0.9916 -0.06906
vn 0.1776 -0.9824 0.05765
vn 0.1881 -0.9718 0.1418
vn -0.01944 -0.9997 -0.01459
vn -0.02069 -0.9986 -0.04859
vn 0.001556 -0.9988 0.04855
vn 0.1804 -0.9561 0.2309
vn 0.01016 -0.9948 0.1009
vn 0.139 -0.9327 0.3327
vn -0.01004 -0.985 0.1721
vn 0.04749 -0.8936 0.4464
vn -0.04425 -0.9712 0.234
vn -0.04694 -0.8407 0.5394
vn -0.06842 -0.9559 0.2856
vn -0.1264 -0.7964 0.5914
vn -0.09116 -0.9401 0.3283
vn -0.179 -0.7796 0.6001
vn -0.1207 -0.9266 0.3562
vn -0.2333 -0.8019 0.55
vn -0.1313 -0.9106 0.3919
vn -0.2727 -0.8291 0.4881
vn -0.1455 -0.9153 0.3755
vn -0.2963 -0.8667 0.4012
vn -0.1621 -0.9308 0.3274
vn -0.296 -0.9073 0.2986
vn -0.1679 -0.951 0.2593
vn -0.2676 -0.944 0.1928
vn -0.1622 -0.9693 0.1848
vn -0.2232 -0.9699 0.09723
vn -0.1488 -0.9824 0.1125
vn -0.1731 -0.9848 0.01086
vn -0.1293 -0.9904 0.04801
vn -0.1179 -0.9904 -0.0727
vn -0.0998 -0.9948 -0.01877
vn -0.08509 -0.989 -0.1208
vn -0.07804 -0.9947 -0.06748
vn -0.08313 -0.9881 -0.1291
vn -0.07169 -0.9934 -0.08939
vn -0.06708 -0.9885 -0.1355
vn -0.05249 -0.9926 -0.1094
vn -0.05295 -0.9879 -0.1458
vn -0.0267 -0.9926 -0.1186
vn -0.05161 -0.9856 -0.1607
vn -0.03314 -0.9918 -0.1231
vn -0.03806 -0.9842 -0.1729
vn -0.01331 -0.9927 -0.1197
vn -0.04526 -0.9833 -0.176
vn -0.003265 -0.9929 -0.1192
vn -0.0459 -0.9854 -0.1637
vn -0.01926 -0.9926 -0.1194
vn -0.04593 -0.9868 -0.1553
vn -0.02768 -0.993 -0.1149
vn -0.02457 -0.9893 -0.1439
vn -0.02432 -0.9938 -0.1086
vn 0.01288 -0.9912 -0.1313
vn -0.01636 -0.9946 -0.1021
vn 0.04202 -0.9908 -0.1283
vn -0.009339 -0.995 -0.099
vn 0.0387 -0.9889 -0.1436
vn -0.02246 -0.9942 -0.1054
vn 0.06073 -0.9902 -0.1253
vn -0.03021 -0.9948 -0.09763
vn -0.02158 -0.9973 -0.0708
vn -0.04166 -0.9977 -0.05368
vn -0.04144 -0.9971 -0.06296
vn -0.03143 -0.999 -0.03262
vn -0.01517 -0.9999 0.001556
vn 0.00354 -0.9984 0.05542
vn 0.009339 -0.998 -0.06241
vn -0.003052 -0.998 -0.06198
vn -0.01154 -0.998 -0.06189
vn -0.06473 -0.982 0.1775
vn -0.05933 -0.9806 0.187
vn -0.06775 -0.9835 0.1679
vn -0.05679 -0.9866 0.1526
vn -0.035 -0.9916 0.1241
vn -0.01535 -0.9966 0.08087
vn -0.008881 -0.9994 0.03427
vn -0.03275 -0.9974 -0.06452
vn -0.02124 -0.9978 -0.06293
vn 0.02051 -0.9977 -0.06442
vn 0.02991 -0.9973 -0.06766
vn 0.03162 -0.997 -0.07038
vn 0.0275 -0.9972 -0.06995
vn 0.01196 -0.9981 -0.05957
vn -0.01166 -0.9991 -0.03891
vn -0.0285 -0.9995 -0.01309
vn -0.03732 -0.9991 0.01996
vn -0.04288 -0.9971 0.06281
vn -0.04364 -0.9933 0.1068
vn -0.04096 -0.9883 0.1468
vn -0.03729 -0.9829 0.1804
vn -0.03388 -0.978 0.2059
vn -0.03177 -0.9743 0.223
vn -0.03323 -0.9728 0.2293
vn -0.04978 -0.9774 0.2054
f 1/1/1 2/2/2 3/3/3
f 1/1/1 3/3/3 4/4/4
f 2/2/2 5/5/5 6/6/6
f 2/2/2 6/6/6 3/3/3
f 3/3/3 6/6/6 7/7/7
f 4/4/4 3/3/3 7/7/7
f 8/8/8 1/1/1 4/4/4
f 8/8/8 4/4/4 9/9/9
f 9/9/9 4/4/4 7/7/7
f 10/10/10 8/8/8 9/9/9
f 10/10/10 9/9/9 11/11/11
f 11/11/11 9/9/9 7/7/7
f 12/12/12 10/10/10 11/11/11
f 12/12/12 11/11/11 13/13/13
f 13/13/13 11/11/11 7/7/7
f 14/14/14 12/12/12 13/13/13
f 14/14/14 13/13/13 15/15/15
f 15/15/15 13/13/13 7/7/7
f 16/16/16 14/14/14 15/15/15
f 16/16/16 15/15/15 17/17/17
f 17/17/17 15/15/15 7/7/7
f 18/18/18 16/16/16 17/17/17
f 18/18/18 17/17/17 19/19/19
f 19/19/19 17/17/17 7/7/7
f 20/20/20 18/18/18 19/19/19
f 20/20/20 19/19/19 21/21/21
f 21/21/21 19/19/19 7/7/7
f 22/22/22 20/20/20 21/21/21
f 22/22/22 21/21/21 23/23/23
f 23/23/23 21/21/21 7/7/7
f 24/24/24 22/22/22 23/23/23
f 24/24/24 23/23/23 25/25/25
f 25/25/25 23/23/23 7/7/7
f 26/26/26 24/24/24 25/25/25
f 26/26/26 25/25/25 27/27/27
f 27/27/27 25/25/25 7/7/7
f 28/28/28 26/26/26 27/27/27
f 28/28/28 27/27/27 29/29/29
f 29/29/29 27/27/27 7/7/7
f 30/30/30 29/29/29 7/7/7
f 31/31/31 28/28/28 29/29/29
f 31/31/31 29/29/29 30/30/30
f 32/32/32 31/31/31 30/30/30
f 32/32/32 30/30/30 33/33/33
f 33/33/33 30/30/30 7/7/7
f 34/34/34 32/32/32 33/33/33
f 34/34/34 33/33/33 35/35/35
f 35/35/35 33/33/33 7/7/7
f 36/36/36 34/34/34 35/35/35
f 36/36/36 35/35/35 37/37/37
f 37/37/37 35/35/35 7/7/7
f 38/38/38 36/36/36 37/37/37
f 38/38/38 37/37/37 39/39/39
f 39/39/39 37/37/37 7/7/7
f 40/40/40 38/38/38 39/39/39
f 40/40/40 39/39/39 41/41/41
f 41/41/41 39/39/39 7/7/7
f 42/42/42 40/40/40 41/41/41
f 42/42/42 41/41/41 43/43/43
f 43/43/43 41/41/41 7/7/7
f 44/44/44 42/42/42 43/43/43
f 44/44/44 43/43/43 45/45/45
f 45/45/45 43/43/43 7/7/7
f 46/46/46 44/44/44 45/45/45
f 46/46/46 45/45/45 47/47/47
f 47/47/47 45/45/45 7/7/7
f 48/48/48 46/46/46 47/47/47
f 48/48/48 47/47/47 49/49/49
f 49/49/49 47/47/47 7/7/7
f 50/50/50 48/48/48 49/49/49
f 50/50/50 49/49/49 51/51/51
f 51/51/51 49/49/49 7/7/7
f 52/52/52 50/50/50 51/51/51
f 52/52/52 51/51/51 53/53/53
f 53/53/53 51/51/51 7/7/7
f 54/54/54 52/52/52 53/53/53
f 54/54/54 53/53/53 55/55/55
f 55/55/55 53/53/53 7/7/7
f 56/56/56 54/54/54 55/55/55
f 56/56/56 55/55/55 57/57/57
f 57/57/57 55/55/55 7/7/7
f 58/58/58 56/56/56 57/57/57
f 58/58/58 57/57/57 59/59/59
f 59/59/59 57/57/57 7/7/7
f 60/60/60 58/58/58 59/59/59
f 60/60/60 59/59/59 61/61/61
f 61/61/61 59/59/59 7/7/7
f 62/62/62 60/60/60 61/61/61
f 62/62/62 61/61/61 63/63/63
f 63/63/63 61/61/61 7/7/7
f 64/64/64 62/62/62 63/63/63
f 64/64/64 63/63/63 65/65/65
f 65/65/65 63/63/63 7/7/7
f 5/5/5 64/64/64 65/65/65
f 5/5/5 65/65/65 6/6/6
f 6/6/6 65/65/65 7/7/7
f 66/66/66 67/67/67 62/62/62
f 66/66/66 62/62/62 64/64/64
f 68/68/68 66/66/66 64/64/64
f 68/68/68 64/64/64 5/5/5
f 69/69/69 68/68/68 5/5/5
f 69/69/69 5/5/5 2/2/2
f 70/70/70 71/71/71 66/66/66
f 70/70/70 66/66/66 68/68/68
f 72/72/72 70/70/70 68/68/68
f 72/72/72 68/68/68 69/69/69
f 73/73/73 69/69/69 2/2/2
f 73/73/73 2/2/2 1/1/1
f 74/74/74 72/72/72 69/69/69
f 74/74/74 69/69/69 73/73/73
f 75/75/75 73/73/73 1/1/1
f 75/75/75 1/1/1 8/8/8
f 76/76/76 74/74/74 73/73/73
f 76/76/76 73/73/73 75/75/75
f 77/77/77 75/75/75 8/8/8
f 77/77/77 8/8/8 10/10/10
f 78/78/78 76/76/76 75/75/75
f 78/78/78 75/75/75 77/77/77
f 79/79/79 77/77/77 10/10/10
f 79/79/79 10/10/10 12/12/12
f 80/80/80 78/78/78 77/77/77
f 80/80/80 77/77/77 79/79/79
f 81/81/81 79/79/79 12/12/12
f 81/81/81 12/12/12 14/14/14
f 82/82/82 80/80/80 79/79/79
f 82/82/82 79/79/79 81/81/81
f 83/83/83 81/81/81 14/14/14
f 83/83/83 14/14/14 16/16/16
f 84/84/84 82/82/82 81/81/81
f 84/84/84 81/81/81 83/83/83
f 85/85/85 83/83/83 16/16/16
f 85/85/85 16/16/16 18/18/18
f 86/86/86 84/84/84 83/83/83
f 86/86/86 83/83/83 85/85/85
f 87/87/87 85/85/85 18/18/18
f 87/87/87 18/18/18 20/20/20
f 88/88/88 86/86/86 85/85/85
f 88/88/88 85/85/85 87/87/87
f 89/89/89 87/87/87 20/20/20
f 89/89/89 20/20/20 22/22/22
f 90/90/90 88/88/88 87/87/87
f 90/90/90 87/87/87 89/89/89
f 91/91/91 89/89/89 22/22/22
f 91/91/91 22/22/22 24/24/24
f 92/92/92 90/90/90 89/89/89
f 92/92/92 89/89/89 91/91/91
f 93/93/93 91/91/91 24/24/24
f 93/93/93 24/24/24 26/26/26
f 94/94/94 92/92/92 91/91/91
f 94/94/94 91/91/91 93/93/93
f 95/95/95 93/93/93 26/26/26
f 95/95/95 26/26/26 28/28/28
f 96/96/96 94/94/94 93/93/93
f 96/96/96 93/93/93 95/95/95
f 97/97/97 95/95/95 28/28/28
f 97/97/97 28/28/28 31/31/31
f 98/98/98 96/96/96 95/95/95
f 98/98/98 95/95/95 97/97/97
f 99/99/99 97/97/97 31/31/31
f 99/99/99 31/31/31 32/32/32
f 100/100/100 98/98/98 97/97/97
f 100/100/100 97/97/97 99/99/99
f 101/101/101 99/99/99 32/32/32
f 101/101/101 32/32/32 34/34/34
f 102/102/102 100/100/100 99/99/99
f 102/102/102 99/99/99 101/101/101
f 103/103/103 101/101/101 34/34/34
f 103/103/103 34/34/34 36/36/36
f 104/104/104 102/102/102 101/101/101
f 104/104/104 101/101/101 103/103/103
f 105/105/105 103/103/103 36/36/36
f 105/105/105 36/36/36 38/38/38
f 106/106/106 104/104/104 103/103/103
f 106/106/106 103/103/103 105/105/105
f 107/107/107 105/105/105 38/38/38
f 107/107/107 38/38/38 40/40/40
f 108/108/108 106/106/106 105/105/105
f 108/108/108 105/105/105 107/107/107
f 109/109/109 107/107/107 40/40/40
f 109/109/109 40/40/40 42/42/42
f 110/110/110 108/108/108 107/107/107
f 110/110/110 107/107/107 109/109/109
f 111/111/111 109/109/109 42/42/42
f 111/111/111 42/42/42 44/44/44
f 112/112/112 110/110/110 109/109/109
f 112/112/112 109/109/109 111/111/111
f 113/113/113 111/111/111 44/44/44
f 113/113/113 44/44/44 46/46/46
f 114/114/114 112/112/112 111/111/111
f 114/114/114 111/111/111 113/113/113
f 115/115/115 113/113/113 46/46/46
f 115/115/115 46/46/46 48/48/48
f 116/116/116 114/114/114 113/113/113
f 116/116/116 113/113/113 115/115/115
f 117/117/117 115/115/115 48/48/48
f 117/117/117 48/48/48 50/50/50
f 118/118/118 116/116/116 115/115/115
f 118/118/118 115/115/115 117/117/117
f 119/119/119 117/117/117 50/50/50
f 119/119/119 50/50/50 52/52/52
f 120/120/120 118/118/118 117/117/117
f 120/120/120 117/117/117 119/119/119
f 121/121/121 119/119/119 52/52/52
f 121/121/121 52/52/52 54/54/54
f 122/122/122 120/120/120 119/119/119
f 122/122/122 119/119/119 121/121/121
f 123/123/123 121/121/121 54/54/54
f 123/123/123 54/54/54 56/56/56
f 124/124/124 122/122/122 121/121/121
f 124/124/124 121/121/121 123/123/123
f 125/125/125 123/123/123 56/56/56
f 125/125/125 56/56/56 58/58/58
f 126/126/126 124/124/124 123/123/123
f 126/126/126 123/123/123 125/125/125
f 127/127/127 125/125/125 58/58/58
f 127/127/127 58/58/58 60/60/60
f 128/128/128 126/126/126 125/125/125
f 128/128/128 125/125/125 127/127/127
f 67/67/67 127/127/127 60/60/60
f 67/67/67 60/60/60 62/62/62
f 129/129/129 128/128/128 127/127/127
f 129/129/129 127/127/127 67/67/67
f 71/71/71 129/129/129 67/67/67
f 71/71/71 67/67/67 66/66/66
f 130/130/130 131/131/131 128/128/128
f 130/130/130 128/128/128 129/129/129
f 132/132/132 130/130/130 129/129/129
f 132/132/132 129/129/129 71/71/71
f 133/133/133 132/132/132 71/71/71
f 133/133/133 71/71/71 70/70/70
f 134/134/134 135/135/135 130/130/130
f 134/134/134 130/130/130 132/132/132
f 136/136/136 134/134/134 132/132/132
f 136/136/136 132/132/132 133/133/133
f 137/137/137 133/133/133 70/70/70
f 137/137/137 70/70/70 72/72/72
f 138/138/138 136/136/136 133/133/133
f 138/138/138 133/133/133 137/137/137
f 139/139/139 137/137/137 72/72/72
f 139/139/139 72/72/72 74/74/74
f 140/140/140 138/138/138 137/137/137
f 140/140/140 137/137/137 139/139/139
f 141/141/141 139/139/139 74/74/74
f 141/141/141 74/74/74 76/76/76
f 142/142/142 140/140/140 139/139/139
f 142/142/142 139/139/139 141/141/141
f 143/143/143 141/141/141 76/76/76
f 143/143/143 76/76/76 78/78/78
f 144/144/144 142/142/142 141/141/141
f 144/144/144 141/141/141 143/143/143
f 145/145/145 143/143/143 78/78/78
f 145/145/145 78/78/78 80/80/80
f 146/146/146 144/144/144 143/143/143
f 146/146/146 143/143/143 145/145/145
f 147/147/147 145/145/145 80/80/80
f 147/147/147 80/80/80 82/82/82
f 148/148/148 146/146/146 145/145/145
f 148/148/148 145/145/145 147/147/147
f 149/149/149 147/147/147 82/82/82
f 149/149/149 82/82/82 84/84/84
f 150/150/150 148/148/148 147/147/147
f 150/150/150 147/147/147 149/149/149
f 151/151/151 149/149/149 84/84/84
f 151/151/151 84/84/84 86/86/86
f 152/152/152 150/150/150 149/149/149
f 152/152/152 149/149/149 151/151/151
f 153/153/153 151/151/151 86/86/86
f 153/153/153 86/86/86 88/88/88
f 154/154/154 152/152/152 151/151/151
f 154/154/154 151/151/151 153/153/153
f 155/155/155 153/153/153 88/88/88
f 155/155/155 88/88/88 90/90/90
f 156/156/156 154/154/154 153/153/153
f 156/156/156 153/153/153 155/155/155
f 157/157/157 155/155/155 90/90/90
f 157/157/157 90/90/90 92/92/92
f 158/158/158 156/156/156 155/155/155
f 158/158/158 155/155/155 157/157/157
f 159/159/159 157/157/157 92/92/92
f 159/159/159 92/92/92 94/94/94
f 160/160/160 158/158/158 157/157/157
f 160/160/160 157/157/157 159/159/159
f 161/161/161 159/159/159 94/94/94
f 161/161/161 94/94/94 96/96/96
f 162/162/162 160/160/160 159/159/159
f 162/162/162 159/159/159 161/161/161
f 163/163/163 161/161/161 96/96/96
f 163/163/163 96/96/96 98/98/98
f 164/164/164 162/162/162 161/161/161
f 164/164/164 161/161/161 163/163/163
f 165/165/165 163/163/163 98/98/98
f 165/165/165 98/98/98 100/100/100
f 166/166/166 164/164/164 163/163/163
f 166/166/166 163/163/163 165/165/165
f 167/167/167 165/165/165 100/100/100
f 167/167/167 100/100/100 102/102/102
f 168/168/168 166/166/166 165/165/165
f 168/168/168 165/165/165 167/167/167
f 169/169/169 167/167/167 102/102/102
f 169/169/169 102/102/102 104/104/104
f 170/170/170 168/168/168 167/167/167
f 170/170/170 167/167/167 169/169/169
f 171/171/171 169/169/169 104/104/104
f 171/171/171 104/104/104 106/106/106
f 172/172/172 170/170/170 169/169/169
f 172/172/172 169/169/169 171/171/171
f 173/173/173 171/171/171 106/106/106
f 173/173/173 106/106/106 108/108/108
f 174/174/174 172/172/172 171/171/171
f 174/174/174 171/171/171 173/173/173
f 175/175/175 173/173/173 108/108/108
f 175/175/175 108/108/108 110/110/110
f 176/176/176 174/174/174 173/173/173
f 176/176/176 173/173/173 175/175/175
f 177/177/177 175/175/175 110/110/110
f 177/177/177 110/110/110 112/112/112
f 178/178/178 176/176/176 175/175/175
f 178/178/178 175/175/175 177/177/177
f 179/179/179 177/177/177 112/112/112
f 179/179/179 112/112/112 114/114/114
f 180/180/180 178/178/178 177/177/177
f 180/180/180 177/177/177 179/179/179
f 181/181/181 179/179/179 114/114/114
f 181/181/181 114/114/114 116/116/116
f 182/182/182 180/180/180 179/179/179
f 182/182/182 179/179/179 181/181/181
f 183/183/183 181/181/181 116/116/116
f 183/183/183 116/116/116 118/118/118
f 184/184/184 182/182/182 181/181/181
f 184/184/184 181/181/181 183/183/183
f 185/185/185 183/183/183 118/118/118
f 185/185/185 118/118/118 120/120/120
f 186/186/186 184/184/184 183/183/183
f 186/186/186 183/183/183 185/185/185
f 187/187/187 185/185/185 120/120/120
f 187/187/187 120/120/120 122/122/122
f 188/188/188 186/186/186 185/185/185
f 188/188/188 185/185/185 187/187/187
f 189/189/189 187/187/187 122/122/122
f 189/189/189 122/122/122 124/124/124
f 190/190/190 188/188/188 187/187/187
f 190/190/190 187/187/187 189/189/189
f 191/191/191 189/189/189 124/124/124
f 191/191/191 124/124/124 126/126/126
f 192/192/192 190/190/190 189/189/189
f 192/192/192 189/189/189 191/191/191
f 131/131/131 191/191/191 126/126/126
f 131/131/131 126/126/126 128/128/128
f 193/193/193 192/192/192 191/191/191
f 193/193/193 191/191/191 131/131/131
f 135/135/135 193/193/193 131/131/131
f 135/135/135 131/131/131 130/130/130
f 194/194/194 195/195/195 192/192/192
f 194/194/194 192/192/192 193/193/193
f 196/196/196 194/194/194 193/193/193
f 196/196/196 193/193/193 135/135/135
f 197/197/197 196/196/196 135/135/135
f 197/197/197 135/135/135 134/134/134
f 198/198/198 199/199/199 194/194/194
f 198/198/198 194/194/194 196/196/196
f 200/200/200 198/198/198 196/196/196
f 200/200/200 196/196/196 197/197/197
f 201/201/201 197/197/197 134/134/134
f 201/201/201 134/134/134 136/136/136
f 202/202/202 200/200/200 197/197/197
f 202/202/202 197/197/197 201/201/201
f 203/203/203 201/201/201 136/136/136
f 203/203/203 136/136/136 138/138/138
f 204/204/204 202/202/202 201/201/201
f 204/204/204 201/201/201 203/203/203
f 205/205/205 203/203/203 138/138/138
f 205/205/205 138/138/138 140/140/140
f 206/206/206 204/204/204 203/203/203
f 206/206/206 203/203/203 205/205/205
f 207/207/207 205/205/205 140/140/140
f 207/207/207 140/140/140 142/142/142
f 208/208/208 206/206/206 205/205/205
f 208/208/208 205/205/205 207/207/207
f 209/209/209 207/207/207 142/142/142
f 209/209/209 142/142/142 144/144/144
f 210/210/210 208/208/208 207/207/207
f 210/210/210 207/207/207 209/209/209
f 211/211/211 209/209/209 144/144/144
f 211/211/211 144/144/144 146/146/146
f 212/212/212 210/210/210 209/209/209
f 212/212/212 209/209/209 211/211/211
f 213/213/213 211/211/211 146/146/146
f 213/213/213 146/146/146 148/148/148
f 214/214/214 212/212/212 211/211/211
f 214/214/214 211/211/211 213/213/213
f 215/215/215 213/213/213 148/148/148
f 215/215/215 148/148/148 150/150/150
f 216/216/216 214/214/214 213/213/213
f 216/216/216 213/213/213 215/215/215
f 217/217/217 215/215/215 150/150/150
f 217/217/217 150/150/150 152/152/152
f 218/218/218 216/216/216 215/215/215
f 218/218/218 215/215/215 217/217/217
f 219/219/219 217/217/217 152/152/152
f 219/219/219 152/152/152 154/154/154
f 220/220/220 218/218/218 217/217/217
f 220/220/220 217/217/217 219/219/219
f 221/221/221 219/219/219 154/154/154
f 221/221/221 154/154/154 156/156/156
f 222/222/222 220/220/220 219/219/219
f 222/222/222 219/219/219 221/221/221
f 223/223/223 221/221/221 156/156/156
f 223/223/223 156/156/156 158/158/158
f 224/224/224 222/222/222 221/221/221
f 224/224/224 221/221/221 223/223/223
f 225/225/225 223/223/223 158/158/158
f 225/225/225 158/158/158 160/160/160
f 226/226/226 224/224/224 223/223/223
f 226/226/226 223/223/223 225/225/225
f 227/227/227 225/225/225 160/160/160
f 227/227/227 160/160/160 162/162/162
f 228/228/228 226/226/226 225/225/225
f 228/228/228 225/225/225 227/227/227
f 229/229/229 227/227/227 162/162/162
f 229/229/229 162/162/162 164/164/164
f 230/230/230 228/228/228 227/227/227
f 230/230/230 227/227/227 229/229/229
f 231/231/231 229/229/229 164/164/164
f 231/231/231 164/164/164 166/166/166
f 232/232/232 230/230/230 229/229/229
f 232/232/232 229/229/229 231/231/231
f 233/233/233 231/231/231 166/166/166
f 233/233/233 166/166/166 168/168/168
f 234/234/234 232/232/232 231/231/231
f 234/234/234 231/231/231 233/233/233
f 235/235/235 233/233/233 168/168/168
f 235/235/235 168/168/168 170/170/170
f 236/236/236 234/234/234 233/233/233
f 236/236/236 233/233/233 235/235/235
f 237/237/237 235/235/235 170/170/170
f 237/237/237 170/170/170 172/172/172
f 238/238/238 236/236/236 235/235/235
f 238/238/238 235/235/235 237/237/237
f 239/239/239 237/237/237 172/172/172
f 239/239/239 172/172/172 174/174/174
f 240/240/240 238/238/238 237/237/237
f 240/240/240 237/237/237 239/239/239
f 241/241/241 239/239/239 174/174/174
f 241/241/241 174/174/174 176/176/176
f 242/242/242 240/240/240 239/239/239
f 242/242/242 239/239/239 241/241/241
f 243/243/243 241/241/241 176/176/176
f 243/243/243 176/176/176 178/178/178
f 244/244/244 242/242/242 241/241/241
f 244/244/244 241/241/241 243/243/243
f 245/245/245 243/243/243 178/178/178
f 245/245/245 178/178/178 180/180/180
f 246/246/246 244/244/244 243/243/243
f 246/246/246 243/243/243 245/245/245
f 247/247/247 245/245/245 180/180/180
f 247/247/247 180/180/180 182/182/182
f 248/248/248 246/246/246 245/245/245
f 248/248/248 245/245/245 247/247/247
f 249/249/249 247/247/247 182/182/182
f 249/249/249 182/182/182 184/184/184
f 250/250/250 248/248/248 247/247/247
f 250/250/250 247/247/247 249/249/249
f 251/251/251 249/249/249 184/184/184
f 251/251/251 184/184/184 186/186/186
f 252/252/252 250/250/250 249/249/249
f 252/252/252 249/249/249 251/251/251
f 253/253/253 251/251/251 186/186/186
f 253/253/253 186/186/186 188/188/188
f 254/254/254 252/252/252 251/251/251
f 254/254/254 251/251/251 253/253/253
f 255/255/255 253/253/253 188/188/188
f 255/255/255 188/188/188 190/190/190
f 256/256/256 254/254/254 253/253/253
f 256/256/256 253/253/253 255/255/255
f 195/195/195 255/255/255 190/190/190
f 195/195/195 190/190/190 192/192/192
f 257/257/257 256/256/256 255/255/255
f 257/257/257 255/255/255 195/195/195
f 199/199/199 257/257/257 195/195/195
f 199/199/199 195/195/195 194/194/194
f 258/258/258 259/259/259 256/256/256
f 258/258/258 256/256/256 257/257/257
f 260/260/260 258/258/258 257/257/257
f 260/260/260 257/257/257 199/199/199
f 261/261/261 260/260/260 199/199/199
f 261/261/261 199/199/199 198/198/198
f 262/262/262 263/263/263 258/258/258
f 262/262/262 258/258/258 260/260/260
f 264/264/264 262/262/262 260/260/260
f 264/264/264 260/260/260 261/261/261
f 265/265/265 261/261/261 198/198/198
f 265/265/265 198/198/198 200/200/200
f 266/266/266 264/264/264 261/261/261
f 266/266/266 261/261/261 265/265/265
f 267/267/267 265/265/265 200/200/200
f 267/267/267 200/200/200 202/202/202
f 268/268/268 266/266/266 265/265/265
f 268/268/268 265/265/265 267/267/267
f 269/269/269 267/267/267 202/202/202
f 269/269/269 202/202/202 204/204/204
f 270/270/270 268/268/268 267/267/267
f 270/270/270 267/267/267 269/269/269
f 271/271/271 269/269/269 204/204/204
f 271/271/271 204/204/204 206/206/206
f 272/272/272 270/270/270 269/269/269
f 272/272/272 269/269/269 271/271/271
f 273/273/273 271/271/271 206/206/206
f 273/273/273 206/206/206 208/208/208
f 274/274/274 272/272/272 271/271/271
f 274/274/274 271/271/271 273/273/273
f 275/275/275 273/273/273 208/208/208
f 275/275/275 208/208/208 210/210/210
f 276/276/276 274/274/274 273/273/273
f 276/276/276 273/273/273 275/275/275
f 277/277/277 275/275/275 210/210/210
f 277/277/277 210/210/210 212/212/212
f 278/278/278 276/276/276 275/275/275
f 278/278/278 275/275/275 277/277/277
f 279/279/279 277/277/277 212/212/212
f 279/279/279 212/212/212 214/214/214
f 280/280/280 278/278/278 277/277/277
f 280/280/280 277/277/277 279/279/279
f 281/281/281 279/279/279 214/214/214
f 281/281/281 214/214/214 216/216/216
f 282/282/282 280/280/280 279/279/279
f 282/282/282 279/279/279 281/281/281
f 283/283/283 281/281/281 216/216/216
f 283/283/283 216/216/216 218/218/218
f 284/284/284 282/282/282 281/281/281
f 284/284/284 281/281/281 283/283/283
f 285/285/285 283/283/283 218/218/218
f 285/285/285 218/218/218 220/220/220
f 286/286/286 284/284/284 283/283/283
f 286/286/286 283/283/283 285/285/285
f 287/287/287 285/285/285 220/220/220
f 287/287/287 220/220/220 222/222/222
f 288/288/288 286/286/286 285/285/285
f 288/288/288 285/285/285 287/287/287
f 289/289/289 287/287/287 222/222/222
f 289/289/289 222/222/222 224/224/224
f 290/290/290 288/288/288 287/287/287
f 290/290/290 287/287/287 289/289/289
f 291/291/291 289/289/289 224/224/224
f 291/291/291 224/224/224 226/226/226
f 292/292/292 290/290/290 289/289/289
f 292/292/292 289/289/289 291/291/291
f 293/293/293 291/291/291 226/226/226
f 293/293/293 226/226/226 228/228/228
f 294/294/294 292/292/292 291/291/291
f 294/294/294 291/291/291 293/293/293
f 295/295/295 293/293/293 228/228/228
f 295/295/295 228/228/228 230/230/230
f 296/296/296 294/294/294 293/293/293
f 296/296/296 293/293/293 295/295/295
f 297/297/297 295/295/295 230/230/230
f 297/297/297 230/230/230 232/232/232
f 298/298/298 296/296/296 295/295/295
f 298/298/298 295/295/295 297/297/297
f 299/299/299 297/297/297 232/232/232
f 299/299/299 232/232/232 234/234/234
f 300/300/300 298/298/298 297/297/297
f 300/300/300 297/297/297 299/299/299
f 301/301/301 299/299/299 234/234/234
f 301/301/301 234/234/234 236/236/236
f 302/302/302 300/300/300 299/299/299
f 302/302/302 299/299/299 301/301/301
f 303/303/303 301/301/301 236/236/236
f 303/303/303 236/236/236 238/238/238
f 304/304/304 302/302/302 301/301/301
f 304/304/304 301/301/301 303/303/303
f 305/305/305 303/303/303 238/238/238
f 305/305/305 238/238/238 240/240/240
f 306/306/306 304/304/304 303/303/303
f 306/306/306 303/303/303 305/305/305
f 307/307/307 305/305/305 240/240/240
f 307/307/307 240/240/240 242/242/242
f 308/308/308 306/306/306 305/305/305
f 308/308/308 305/305/305 307/307/307
f 309/309/309 307/307/307 242/242/242
f 309/309/309 242/242/242 244/244/244
f 310/310/310 308/308/308 307/307/307
f 310/310/310 307/307/307 309/309/309
f 311/311/311 309/309/309 244/244/244
f 311/311/311 244/244/244 246/246/246
f 312/312/312 310/310/310 309/309/309
f 312/312/312 309/309/309 311/311/311
f 313/313/313 311/311/311 246/246/246
f 313/313/313 246/246/246 248/248/248
f 314/314/314 312/312/312 311/311/311
f 314/314/314 311/311/311 313/313/313
f 315/315/315 313/313/313 248/248/248
f 315/315/315 248/248/248 250/250/250
f 316/316/316 314/314/314 313/313/313
f 316/316/316 313/313/313 315/315/315
f 317/317/317 315/315/315 250/250/250
f 317/317/317 250/250/250 252/252/252
f 318/318/318 316/316/316 315/315/315
f 318/318/318 315/315/315 317/317/317
f 319/319/319 317/317/317 252/252/252
f 319/319/319 252/252/252 254/254/254
f 320/320/320 318/318/318 317/317/317
f 320/320/320 317/317/317 319/319/319
f 259/259/259 319/319/319 254/254/254
f 259/259/259 254/254/254 256/256/256
f 321/321/321 320/320/320 319/319/319
f 321/321/321 319/319/319 259/259/259
f 263/263/263 321/321/321 259/259/259
f 263/263/263 259/259/259 258/258/258
f 322/322/322 323/323/323 320/320/320
f 322/322/322 320/320/320 321/321/321
f 324/324/324 322/322/322 321/321/321
f 324/324/324 321/321/321 263/263/263
f 325/325/325 324/324/324 263/263/263
f 325/325/325 263/263/263 262/262/262
f 326/326/326 327/327/327 322/322/322
f 326/326/326 322/322/322 324/324/324
f 328/328/328 326/326/326 324/324/324
f 328/328/328 324/324/324 325/325/325
f 329/329/329 325/325/325 262/262/262
f 329/329/329 262/262/262 264/264/264
f 330/330/330 328/328/328 325/325/325
f 330/330/330 325/325/325 329/329/329
f 331/331/331 329/329/329 264/264/264
f 331/331/331 264/264/264 266/266/266
f 332/332/332 330/330/330 329/329/329
f 332/332/332 329/329/329 331/331/331
f 333/333/333 331/331/331 266/266/266
f 333/333/333 266/266/266 268/268/268
f 334/334/334 332/332/332 331/331/331
f 334/334/334 331/331/331 333/333/333
f 335/335/335 333/333/333 268/268/268
f 335/335/335 268/268/268 270/270/270
f 336/336/336 334/334/334 333/333/333
f 336/336/336 333/333/333 335/335/335
f 337/337/337 335/335/335 270/270/270
f 337/337/337 270/270/270 272/272/272
f 338/338/338 336/336/336 335/335/335
f 338/338/338 335/335/335 337/337/337
f 339/339/339 337/337/337 272/272/272
f 339/339/339 272/272/272 274/274/274
f 340/340/340 338/338/338 337/337/337
f 340/340/340 337/337/337 339/339/339
f 341/341/341 339/339/339 274/274/274
f 341/341/341 274/274/274 276/276/276
f 342/342/342 340/340/340 339/339/339
f 342/342/342 339/339/339 341/341/341
f 343/343/343 341/341/341 276/276/276
f 343/343/343 276/276/276 278/278/278
f 344/344/344 342/342/342 341/341/341
f 344/344/344 341/341/341 343/343/343
f 345/345/345 343/343/343 278/278/278
f 345/345/345 278/278/278 280/280/280
f 346/346/346 344/344/344 343/343/343
f 346/346/346 343/343/343 345/345/345
f 347/347/347 345/345/345 280/280/280
f 347/347/347 280/280/280 282/282/282
f 348/348/348 346/346/346 345/345/345
f 348/348/348 345/345/345 347/347/347
f 349/349/349 347/347/347 282/282/282
f 349/349/349 282/282/282 284/284/284
f 350/350/350 348/348/348 347/347/347
f 350/350/350 347/347/347 349/349/349
f 351/351/351 349/349/349 284/284/284
f 351/351/351 284/284/284 286/286/286
f 352/352/352 350/350/350 349/349/349
f 352/352/352 349/349/349 351/351/351
f 353/353/353 351/351/351 286/286/286
f 353/353/353 286/286/286 288/288/288
f 354/354/354 352/352/352 351/351/351
f 354/354/354 351/351/351 353/353/353
f 355/355/355 353/353/353 288/288/288
f 355/355/355 288/288/288 290/290/290
f 356/356/356 354/354/354 353/353/353
f 356/356/356 353/353/353 355/355/355
f 357/357/357 355/355/355 290/290/290
f 357/357/357 290/290/290 292/292/292
f 358/358/358 356/356/356 355/355/355
f 358/358/358 355/355/355 357/357/357
f 359/359/359 357/357/357 292/292/292
f 359/359/359 292/292/292 294/294/294
f 360/360/360 358/358/358 357/357/357
f 360/360/360 357/357/357 359/359/359
f 361/361/361 359/359/359 294/294/294
f 361/361/361 294/294/294 296/296/296
f 362/362/362 360/360/360 359/359/359
f 362/362/362 359/359/359 361/361/361
f 363/363/363 361/361/361 296/296/296
f 363/363/363 296/296/296 298/298/298
f 364/364/364 362/362/362 361/361/361
f 364/364/364 361/361/361 363/363/363
f 365/365/365 363/363/363 298/298/298
f 365/365/365 298/298/298 300/300/300
f 366/366/366 364/364/364 363/363/363
f 366/366/366 363/363/363 365/365/365
f 367/367/367 365/365/365 300/300/300
f 367/367/367 300/300/300 302/302/302
f 368/368/368 366/366/366 365/365/365
f 368/368/368 365/365/365 367/367/367
f 369/369/369 367/367/367 302/302/302
f 369/369/369 302/302/302 304/304/304
f 370/370/370 368/368/368 367/367/367
f 370/370/370 367/367/367 369/369/369
f 371/371/371 369/369/369 304/304/304
f 371/371/371 304/304/304 306/306/306
f 372/372/372 370/370/370 369/369/369
f 372/372/372 369/369/369 371/371/371
f 373/373/373 371/371/371 306/306/306
f 373/373/373 306/306/306 308/308/308
f 374/374/374 372/372/372 371/371/371
f 374/374/374 371/371/371 373/373/373
f 375/375/375 373/373/373 308/308/308
f 375/375/375 308/308/308 310/310/310
f 376/376/376 374/374/374 373/373/373
f 376/376/376 373/373/373 375/375/375
f 377/377/377 375/375/375 310/310/310
f 377/377/377 310/310/310 312/312/312
f 378/378/378 376/376/376 375/375/375
f 378/378/378 375/375/375 377/377/377
f 379/379/379 377/377/377 312/312/312
f 379/379/379 312/312/312 314/314/314
f 380/380/380 378/378/378 377/377/377
f 380/380/380 377/377/377 379/379/379
f 381/381/381 379/379/379 314/314/314
f 381/381/381 314/314/314 316/316/316
f 382/382/382 380/380/380 379/379/379
f 382/382/382 379/379/379 381/381/381
f 383/383/383 381/381/381 316/316/316
f 383/383/383 316/316/316 318/318/318
f 384/384/384 382/382/382 381/381/381
f 384/384/384 381/381/381 383/383/383
f 323/323/323 383/383/383 318/318/318
f 323/323/323 318/318/318 320/320/320
f 385/385/385 384/384/384 383/383/383
f 385/385/385 383/383/383 323/323/323
f 327/327/327 385/385/385 323/323/323
f 327/327/327 323/323/323 322/322/322
f 386/386/386 387/387/387 384/384/384
f 386/386/386 384/384/384 385/385/385
f 388/388/388 386/386/386 385/385/385
f 388/388/388 385/385/385 327/327/327
f 389/389/389 388/388/388 327/327/327
f 389/389/389 327/327/327 326/326/326
f 390/390/390 391/391/391 386/386/386
f 390/390/390 386/386/386 388/388/388
f 392/392/392 390/390/390 388/388/388
f 392/392/392 388/388/388 389/389/389
f 393/393/393 389/389/389 326/326/326
f 393/393/393 326/326/326 328/328/328
f 394/394/394 392/392/392 389/389/389
f 394/394/394 389/389/389 393/393/393
f 395/395/395 393/393/393 328/328/328
f 395/395/395 328/328/328 330/330/330
f 396/396/396 394/394/394 393/393/393
f 396/396/396 393/393/393 395/395/395
f 397/397/397 395/395/395 330/330/330
f 397/397/397 330/330/330 332/332/332
f 398/398/398 396/396/396 395/395/395
f 398/398/398 395/395/395 397/397/397
f 399/399/399 397/397/397 332/332/332
f 399/399/399 332/332/332 334/334/334
f 400/400/400 398/398/398 397/397/397
f 400/400/400 397/397/397 399/399/399
f 401/401/401 399/399/399 334/334/334
f 401/401/401 334/334/334 336/336/336
f 402/402/402 400/400/400 399/399/399
f 402/402/402 399/399/399 401/401/401
f 403/403/403 401/401/401 336/336/336
f 403/403/403 336/336/336 338/338/338
f 404/404/404 402/402/402 401/401/401
f 404/404/404 401/401/401 403/403/403
f 405/405/405 403/403/403 338/338/338
f 405/405/405 338/338/338 340/340/340
f 406/406/406 404/404/404 403/403/403
f 406/406/406 403/403/403 405/405/405
f 407/407/407 405/405/405 340/340/340
f 407/407/407 340/340/340 342/342/342
f 408/408/408 406/406/406 405/405/405
f 408/408/408 405/405/405 407/407/407
f 409/409/409 407/407/407 342/342/342
f 409/409/409 342/342/342 344/344/344
f 410/410/410 408/408/408 407/407/407
f 410/410/410 407/407/407 409/409/409
f 411/411/411 409/409/409 344/344/344
f 411/411/411 344/344/344 346/346/346
f 412/412/412 410/410/410 409/409/409
f 412/412/412 409/409/409 411/411/411
f 413/413/413 411/411/411 346/346/346
f 413/413/413 346/346/346 348/348/348
f 414/414/414 412/412/412 411/411/411
f 414/414/414 411/411/411 413/413/413
f 415/415/415 413/413/413 348/348/348
f 415/415/415 348/348/348 350/350/350
f 416/416/416 414/414/414 413/413/413
f 416/416/416 413/413/413 415/415/415
f 417/417/417 415/415/415 350/350/350
f 417/417/417 350/350/350 352/352/352
f 418/418/418 416/416/416 415/415/415
f 418/418/418 415/415/415 417/417/417
f 419/419/419 417/417/417 352/352/352
f 419/419/419 352/352/352 354/354/354
f 420/420/420 418/418/418 417/417/417
f 420/420/420 417/417/417 419/419/419
f 421/421/421 419/419/419 354/354/354
f 421/421/421 354/354/354 356/356/356
f 422/422/422 420/420/420 419/419/419
f 422/422/422 419/419/419 421/421/421
f 423/423/423 421/421/421 356/356/356
f 423/423/423 356/356/356 358/358/358
f 424/424/424 422/422/422 421/421/421
f 424/424/424 421/421/421 423/423/423
f 425/425/425 423/423/423 358/358/358
f 425/425/425 358/358/358 360/360/360
f 426/426/426 424/424/424 423/423/423
f 426/426/426 423/423/423 425/425/425
f 427/427/427 425/425/425 360/360/360
f 427/427/427 360/360/360 362/362/362
f 428/428/428 426/426/426 425/425/425
f 428/428/428 425/425/425 427/427/427
f 429/429/429 427/427/427 362/362/362
f 429/429/429 362/362/362 364/364/364
f 430/430/430 428/428/428 427/427/427
f 430/430/430 427/427/427 429/429/429
f 431/431/431 429/429/429 364/364/364
f 431/431/431 364/364/364 366/366/366
f 432/432/432 430/430/430 429/429/429
f 432/432/432 429/429/429 431/431/431
f 433/433/433 431/431/431 366/366/366
f 433/433/433 366/366/366 368/368/368
f 434/434/434 432/432/432 431/431/431
f 434/434/434 431/431/431 433/433/433
f 435/435/435 433/433/433 368/368/368
f 435/435/435 368/368/368 370/370/370
f 436/436/436 434/434/434 433/433/433
f 436/436/436 433/433/433 435/435/435
f 437/437/437 435/435/435 370/370/370
f 437/437/437 370/370/370 372/372/372
f 438/438/438 436/436/436 435/435/435
f 438/438/438 435/435/435 437/437/437
f 439/439/439 437/437/437 372/372/372
f 439/439/439 372/372/372 374/374/374
f 440/440/440 438/438/438 437/437/437
f 440/440/440 437/437/437 439/439/439
f 441/441/441 439/439/439 374/374/374
f 441/441/441 374/374/374 376/376/376
f 442/442/442 440/440/440 439/439/439
f 442/442/442 439/439/439 441/441/441
f 443/443/443 441/441/441 376/376/376
f 443/443/443 376/376/376 378/378/378
f 444/444/444 442/442/442 441/441/441
f 444/444/444 441/441/441 443/443/443
f 445/445/445 443/443/443 378/378/378
f 445/445/445 378/378/378 380/380/380
f 446/446/446 444/444/444 443/443/443
f 446/446/446 443/443/443 445/445/445
f 447/447/447 445/445/445 380/380/380
f 447/447/447 380/380/380 382/382/382
f 448/448/448 446/446/446 445/445/445
f 448/448/448 445/445/445 447/447/447
f 387/387/387 447/447/447 382/382/382
f 387/387/387 382/382/382 384/384/384
f 449/449/449 448/448/448 447/447/447
f 449/449/449 447/447/447 387/387/387
f 391/391/391 449/449/449 387/387/387
f 391/391/391 387/387/387 386/386/386
f 450/450/450 451/451/451 448/448/448
f 450/450/450 448/448/448 449/449/449
f 452/452/452 450/450/450 449/449/449
f 452/452/452 449/449/449 391/391/391
f 453/453/453 452/452/452 391/391/391
f 453/453/453 391/391/391 390/390/390
f 454/454/454 452/452/452 453/453/453
f 454/454/454 450/450/450 452/452/452
f 454/454/454 455/455/455 456/456/456
f 454/454/454 456/456/456 457/457/457
f 454/454/454 458/458/458 459/459/459
f 454/454/454 460/460/460 458/458/458
f 454/454/454 461/461/461 460/460/460
f 454/454/454 462/462/462 461/461/461
f 454/454/454 463/463/463 462/462/462
f 454/454/454 464/464/464 463/463/463
f 454/454/454 453/453/453 464/464/464
f 454/454/454 451/451/451 450/450/450
f 454/454/454 465/465/465 451/451/451
f 454/454/454 466/466/466 465/465/465
f 454/454/454 457/457/457 466/466/466
f 454/454/454 467/467/467 455/455/455
f 454/454/454 468/468/468 467/467/467
f 454/454/454 469/469/469 468/468/468
f 454/454/454 470/470/470 469/469/469
f 454/454/454 471/471/471 470/470/470
f 454/454/454 472/472/472 471/471/471
f 454/454/454 473/473/473 472/472/472
f 454/454/454 474/474/474 473/473/473
f 454/454/454 475/475/475 474/474/474
f 454/454/454 476/476/476 475/475/475
f 454/454/454 477/477/477 476/476/476
f 454/454/454 478/478/478 477/477/477
f 454/454/454 479/479/479 478/478/478
f 454/454/454 480/480/480 479/479/479
f 454/454/454 481/481/481 480/480/480
f 454/454/454 482/482/482 481/481/481
f 454/454/454 459/459/459 482/482/482
f 459/459/459 458/458/458 402/402/402
f 459/459/459 402/402/402 404/404/404
f 482/482/482 459/459/459 404/404/404
f 482/482/482 404/404/404 406/406/406
f 481/481/481 482/482/482 406/406/406
f 481/481/481 406/406/406 408/408/408
f 480/480/480 481/481/481 408/408/408
f 480/480/480 408/408/408 410/410/410
f 479/479/479 480/480/480 410/410/410
f 479/479/479 410/410/410 412/412/412
f 478/478/478 479/479/479 412/412/412
f 478/478/478 412/412/412 414/414/414
f 477/477/477 478/478/478 414/414/414
f 477/477/477 414/414/414 416/416/416
f 476/476/476 477/477/477 416/416/416
f 476/476/476 416/416/416 418/418/418
f 475/475/475 476/476/476 418/418/418
f 475/475/475 418/418/418 420/420/420
f 474/474/474 475/475/475 420/420/420
f 474/474/474 420/420/420 422/422/422
f 473/473/473 474/474/474 422/422/422
f 473/473/473 422/422/422 424/424/424
f 472/472/472 473/473/473 424/424/424
f 472/472/472 424/424/424 426/426/426
f 471/471/471 472/472/472 426/426/426
f 471/471/471 426/426/426 428/428/428
f 470/470/470 471/471/471 428/428/428
f 470/470/470 428/428/428 430/430/430
f 469/469/469 470/470/470 430/430/430
f 469/469/469 430/430/430 432/432/432
f 468/468/468 469/469/469 432/432/432
f 468/468/468 432/432/432 434/434/434
f 467/467/467 468/468/468 434/434/434
f 467/467/467 434/434/434 436/436/436
f 455/455/455 467/467/467 436/436/436
f 455/455/455 436/436/436 438/438/438
f 456/456/456 455/455/455 438/438/438
f 456/456/456 438/438/438 440/440/440
f 457/457/457 456/456/456 440/440/440
f 457/457/457 440/440/440 442/442/442
f 466/466/466 457/457/457 442/442/442
f 466/466/466 442/442/442 444/444/444
f 465/465/465 466/466/466 444/444/444
f 465/465/465 444/444/444 446/446/446
f 451/451/451 465/465/465 446/446/446
f 451/451/451 446/446/446 448/448/448
f 464/464/464 453/453/453 390/390/390
f 464/464/464 390/390/390 392/392/392
f 463/463/463 464/464/464 392/392/392
f 463/463/463 392/392/392 394/394/394
f 462/462/462 463/463/463 394/394/394
f 462/462/462 394/394/394 396/396/396
f 461/461/461 462/462/462 396/396/396
f 461/461/461 396/396/396 398/398/398
f 460/460/460 461/461/461 398/398/398
f 460/460/460 398/398/398 400/400/400
f 458/458/458 460/460/460 400/400/400
f 458/458/458 400/400/400 402/402/402
