v -0.181412 -1.09208 0.444846
v -0.17905 -1.09288 0.441008
v -0.180978 -1.08744 0.439334
v -0.183002 -1.08762 0.443455
v -0.184889 -1.08322 0.438263
v -0.186218 -1.08415 0.44256
v -0.179251 -1.08772 0.434453
v -0.18379 -1.08282 0.433194
v -0.177011 -1.09404 0.436416
v -0.22262 -1.1664 0.348132
v -0.220126 -1.16557 0.346126
v -0.226807 -1.19397 0.326221
v -0.22927 -1.19473 0.328069
v -0.23353 -1.22244 0.305259
v -0.235954 -1.22312 0.307045
v -0.225283 -1.19362 0.325255
v -0.23203 -1.22214 0.304316
v -0.218576 -1.16516 0.345126
v -0.20676 -1.16813 0.345251
v -0.204229 -1.16852 0.344804
v -0.211047 -1.19703 0.324916
v -0.213555 -1.19661 0.32537
v -0.217951 -1.22554 0.30396
v -0.220431 -1.22513 0.304415
v -0.209664 -1.19745 0.324884
v -0.216579 -1.22595 0.303923
v -0.202837 -1.16895 0.344779
v -0.260045 -1.29041 0.280304
v -0.267415 -1.31694 0.260165
v -0.264056 -1.32187 0.264494
v -0.256815 -1.29512 0.284516
v -0.258078 -1.32606 0.267093
v -0.251106 -1.29911 0.287104
v -0.269324 -1.34252 0.248711
v -0.263361 -1.34713 0.25111
v -0.272642 -1.33721 0.244469
v -0.209368 -1.19057 0.371013
v -0.216784 -1.18966 0.371944
v -0.223155 -1.2165 0.351675
v -0.215822 -1.21756 0.350669
v -0.229896 -1.24466 0.330288
v -0.22261 -1.24576 0.329309
v -0.230065 -1.2139 0.35085
v -0.23676 -1.24205 0.329459
v -0.223712 -1.18694 0.371204
v -0.229081 -1.18283 0.368862
v -0.235478 -1.21014 0.348276
v -0.24213 -1.23827 0.326876
v -0.238598 -1.2057 0.344181
v -0.245211 -1.23381 0.322789
v -0.232126 -1.17797 0.364998
v -0.197463 -1.18657 0.364357
v -0.202587 -1.18943 0.368404
v -0.209177 -1.21683 0.347866
v -0.20419 -1.21444 0.343616
v -0.216008 -1.24509 0.326574
v -0.211055 -1.24273 0.322382
v -0.194852 -1.17819 0.354324
v -0.194827 -1.18252 0.359322
v -0.201644 -1.21071 0.338486
v -0.201704 -1.20654 0.333587
v -0.20853 -1.23897 0.317259
v -0.208602 -1.23478 0.312375
v -0.232375 -1.17312 0.35992
v -0.238915 -1.2012 0.339033
v -0.245501 -1.22932 0.31769
v -0.236804 -1.19762 0.334112
v -0.24339 -1.22579 0.31286
v -0.230212 -1.16935 0.354854
v -0.200029 -1.17162 0.34745
v -0.206852 -1.20001 0.327362
v -0.208579 -1.19831 0.325689
v -0.201757 -1.16987 0.345619
v -0.215495 -1.22678 0.304708
v -0.213763 -1.22842 0.306326
v -0.241227 -1.32987 0.219361
v -0.244994 -1.34349 0.208509
v -0.246599 -1.34305 0.20836
v -0.242739 -1.32945 0.219302
v -0.249097 -1.34245 0.208875
v -0.245434 -1.32898 0.219756
v -0.250316 -1.35006 0.203444
v -0.251501 -1.3483 0.204508
v -0.247848 -1.35097 0.203948
v -0.236052 -1.3031 0.286965
v -0.242293 -1.33025 0.266948
v -0.234908 -1.32962 0.264214
v -0.229022 -1.3025 0.284252
v -0.229421 -1.32704 0.259781
v -0.223781 -1.30004 0.279947
v -0.239754 -1.35039 0.248424
v -0.234107 -1.34747 0.244073
v -0.247345 -1.35138 0.250961
v -0.226755 -1.32276 0.253979
v -0.221189 -1.29597 0.274454
v -0.227011 -1.318 0.248142
v -0.221372 -1.29142 0.269045
v -0.23141 -1.34311 0.238029
v -0.231747 -1.33852 0.231703
v -0.257892 -1.28189 0.269574
v -0.26507 -1.30806 0.24872
v -0.267562 -1.31195 0.254436
v -0.260235 -1.28563 0.274874
v -0.272784 -1.33214 0.238509
v -0.270319 -1.32843 0.232317
v -0.226951 -1.28473 0.262038
v -0.23292 -1.31109 0.240331
v -0.234875 -1.30937 0.238274
v -0.228806 -1.28305 0.260184
v -0.23608 -1.3085 0.237308
v -0.229954 -1.28219 0.259302
v -0.239982 -1.33067 0.220449
v -0.237944 -1.33222 0.222794
v -0.245971 -1.27824 0.259763
v -0.252671 -1.3044 0.237805
v -0.254287 -1.30467 0.23896
v -0.247531 -1.27852 0.260819
v -0.256906 -1.30531 0.241203
v -0.250057 -1.27918 0.262849
v -0.259649 -1.32589 0.221168
v -0.262243 -1.32633 0.223717
v -0.258039 -1.32571 0.219872
v -0.237564 -1.30805 0.237289
v -0.231383 -1.28177 0.25931
v -0.240222 -1.30759 0.237748
v -0.233952 -1.28133 0.259768
v -0.250427 -1.32898 0.267913
v -0.243805 -1.30189 0.287928
v -0.255636 -1.35022 0.251846
v -0.271728 -1.34527 0.219
v -0.270058 -1.34855 0.216714
v -0.27158 -1.34965 0.22421
v -0.273491 -1.34724 0.226233
v -0.27128 -1.35317 0.230021
v -0.273236 -1.35157 0.232193
v -0.268993 -1.34936 0.224705
v -0.268643 -1.35201 0.230104
v -0.267795 -1.34877 0.217928
v -0.2658 -1.35871 0.241628
v -0.258544 -1.36199 0.242149
v -0.250567 -1.36275 0.241484
v -0.259707 -1.36666 0.236825
v -0.252435 -1.36696 0.236422
v -0.266133 -1.36333 0.236553
v -0.274198 -1.34761 0.236005
v -0.271228 -1.35343 0.239788
v -0.270753 -1.35762 0.235379
v -0.24312 -1.36091 0.239514
v -0.237537 -1.35736 0.235623
v -0.245488 -1.36432 0.235131
v -0.240242 -1.36033 0.231846
v -0.234922 -1.35322 0.229512
v -0.235361 -1.34946 0.222655
v -0.237865 -1.35671 0.225797
v -0.238486 -1.35404 0.218437
v -0.272248 -1.33978 0.223273
v -0.274388 -1.34275 0.229986
v -0.241475 -1.3449 0.21263
v -0.243583 -1.34403 0.209879
v -0.245326 -1.35111 0.206224
v -0.243101 -1.35022 0.209138
v -0.261164 -1.33946 0.208988
v -0.262773 -1.3393 0.21059
v -0.265085 -1.33911 0.213556
v -0.264615 -1.34624 0.206851
v -0.26616 -1.34444 0.209963
v -0.262276 -1.34732 0.204325
v -0.261523 -1.34205 0.227334
v -0.258696 -1.34168 0.225482
v -0.253408 -1.34226 0.2334
v -0.261058 -1.34217 0.232031
v -0.262031 -1.34406 0.234998
v -0.259586 -1.34515 0.237232
v -0.258356 -1.34826 0.238497
v -0.254897 -1.348 0.23868
v -0.25198 -1.34992 0.238453
v -0.249362 -1.34781 0.237154
v -0.246646 -1.3481 0.234854
v -0.246608 -1.34598 0.231866
v -0.246146 -1.34612 0.227138
v -0.24848 -1.34437 0.225358
v -0.250576 -1.34451 0.221268
v -0.253561 -1.34286 0.222648
v -0.256948 -1.34283 0.221337
v -0.241582 -1.3561 0.216271
v -0.245062 -1.35494 0.208455
v -0.241268 -1.35222 0.212017
v -0.250145 -1.35459 0.203952
v -0.251105 -1.35425 0.207462
v -0.246728 -1.35469 0.211457
v -0.243737 -1.35517 0.21759
v -0.262007 -1.3515 0.204174
v -0.266597 -1.34932 0.208931
v -0.268605 -1.34518 0.212756
v -0.265034 -1.34984 0.21174
v -0.261044 -1.35163 0.207595
v -0.255995 -1.35276 0.202393
v -0.254956 -1.34882 0.204072
v -0.257768 -1.34688 0.204818
v -0.259666 -1.34782 0.203777
v -0.25613 -1.35314 0.206151
v -0.265351 -1.36422 0.233485
v -0.259849 -1.3673 0.233594
v -0.253505 -1.36735 0.233371
v -0.258914 -1.3637 0.233469
v -0.253561 -1.36375 0.233267
v -0.263564 -1.36111 0.233359
v -0.269208 -1.35876 0.23276
v -0.266839 -1.35656 0.23267
v -0.24736 -1.36454 0.232545
v -0.242723 -1.36075 0.22972
v -0.248383 -1.36143 0.232496
v -0.24451 -1.35839 0.229856
v -0.240735 -1.35786 0.223833
v -0.242919 -1.35628 0.224392
v -0.264728 -1.34514 0.222746
v -0.262314 -1.34567 0.218031
v -0.258983 -1.34692 0.214583
v -0.24538 -1.35292 0.232726
v -0.248469 -1.35477 0.235404
v -0.252585 -1.3563 0.236496
v -0.250714 -1.3491 0.214494
v -0.247175 -1.34968 0.217835
v -0.244765 -1.35044 0.222481
v -0.260866 -1.35413 0.236562
v -0.263637 -1.35079 0.235531
v -0.265363 -1.34766 0.23292
v -0.265622 -1.34565 0.228321
v -0.256924 -1.35591 0.23685
v -0.244187 -1.35133 0.22807
v -0.254859 -1.34802 0.213604
v -0.188897 -1.123 0.380218
v -0.193719 -1.14423 0.366033
v -0.195426 -1.14252 0.363992
v -0.190581 -1.12133 0.377992
v -0.196473 -1.14154 0.363138
v -0.191596 -1.1203 0.377133
v -0.220621 -1.13133 0.398352
v -0.220439 -1.12489 0.394192
v -0.225651 -1.14592 0.379389
v -0.225613 -1.15155 0.384062
v -0.223425 -1.14181 0.374313
v -0.21814 -1.12043 0.389216
v -0.183771 -1.12894 0.388933
v -0.183971 -1.13405 0.393958
v -0.188639 -1.15516 0.378935
v -0.188559 -1.15045 0.373884
v -0.191451 -1.16003 0.383582
v -0.186971 -1.13978 0.398123
v -0.192507 -1.14486 0.400647
v -0.196777 -1.164 0.386921
v -0.203693 -1.16609 0.388872
v -0.199561 -1.14789 0.401852
v -0.213496 -1.14438 0.401928
v -0.218231 -1.1384 0.400814
v -0.22289 -1.1575 0.387265
v -0.217834 -1.16253 0.389016
v -0.206938 -1.14773 0.402242
v -0.211089 -1.16556 0.389549
v -0.195426 -1.11959 0.377593
v -0.192945 -1.11988 0.377167
v -0.197845 -1.14112 0.363165
v -0.200352 -1.14079 0.3636
v -0.21089 -1.11813 0.380751
v -0.208463 -1.11731 0.378393
v -0.213551 -1.13837 0.364448
v -0.216011 -1.13919 0.366645
v -0.212001 -1.13787 0.363449
v -0.206913 -1.11673 0.377407
v -0.208027 -1.10393 0.390884
v -0.205799 -1.10256 0.389652
v -0.206093 -1.10647 0.385831
v -0.208534 -1.10738 0.388153
v -0.204366 -1.1058 0.384801
v -0.202954 -1.10164 0.38825
v -0.192907 -1.10494 0.387263
v -0.191128 -1.10432 0.387572
v -0.190583 -1.10888 0.384527
v -0.193025 -1.10868 0.384869
v -0.189091 -1.10936 0.384565
v -0.18865 -1.10504 0.388089
v -0.196982 -1.13474 0.410666
v -0.204109 -1.13467 0.410922
v -0.20494 -1.13867 0.408564
v -0.197526 -1.13872 0.40833
v -0.211466 -1.13518 0.408353
v -0.210383 -1.13132 0.410657
v -0.214839 -1.1252 0.409759
v -0.216105 -1.12881 0.407562
v -0.218375 -1.12128 0.405508
v -0.216998 -1.11791 0.407661
v -0.184645 -1.12616 0.40768
v -0.190106 -1.13151 0.409775
v -0.190374 -1.13533 0.407515
v -0.184717 -1.12981 0.405444
v -0.181306 -1.11437 0.399085
v -0.181605 -1.12005 0.403942
v -0.181611 -1.12369 0.401604
v -0.18134 -1.11829 0.396672
v -0.216642 -1.11114 0.403937
v -0.218087 -1.11447 0.401685
v -0.215698 -1.10976 0.396842
v -0.214119 -1.10616 0.399166
v -0.185333 -1.10912 0.390515
v -0.186308 -1.11232 0.387685
v -0.187962 -1.11055 0.385478
v -0.18665 -1.10702 0.389387
v -0.184479 -1.11012 0.400035
v -0.183077 -1.11199 0.399316
v -0.185329 -1.10663 0.393794
v -0.186144 -1.10435 0.396126
v -0.189614 -1.09989 0.393544
v -0.189377 -1.10245 0.390872
v -0.183349 -1.11037 0.394042
v -0.212516 -1.11546 0.407995
v -0.211974 -1.10926 0.404167
v -0.214153 -1.11008 0.404007
v -0.214624 -1.11655 0.407819
v -0.211508 -1.10475 0.399316
v -0.209404 -1.10366 0.399984
v -0.184986 -1.11629 0.404239
v -0.183423 -1.11799 0.404059
v -0.186202 -1.12388 0.407877
v -0.187551 -1.12196 0.408066
v -0.191831 -1.12633 0.411041
v -0.191041 -1.12873 0.410411
v -0.197077 -1.13151 0.411791
v -0.197119 -1.1287 0.412918
v -0.207457 -1.126 0.412889
v -0.210915 -1.12136 0.410986
v -0.212768 -1.12312 0.410366
v -0.208849 -1.12848 0.411766
v -0.202605 -1.12857 0.413544
v -0.203333 -1.13142 0.412228
v -0.199901 -1.09723 0.393531
v -0.194479 -1.09752 0.392643
v -0.195216 -1.10081 0.389497
v -0.201233 -1.09949 0.390914
v -0.200367 -1.10225 0.387783
v -0.199031 -1.10367 0.387487
v -0.195849 -1.10374 0.387887
v -0.205132 -1.09947 0.396111
v -0.206902 -1.1013 0.393899
v -0.210411 -1.10389 0.3943
v -0.21163 -1.08873 0.424051
v -0.205698 -1.08368 0.421629
v -0.206074 -1.08649 0.415319
v -0.211866 -1.0914 0.417792
v -0.20596 -1.08971 0.409946
v -0.211386 -1.09435 0.412441
v -0.198782 -1.08409 0.413675
v -0.199129 -1.08741 0.408274
v -0.198244 -1.08125 0.420043
v -0.190354 -1.08179 0.419511
v -0.191066 -1.08461 0.413119
v -0.191911 -1.08788 0.407707
v -0.184094 -1.08788 0.413701
v -0.185399 -1.09096 0.408298
v -0.183218 -1.08512 0.420072
v -0.192873 -1.12099 0.434652
v -0.200781 -1.12054 0.435282
v -0.201095 -1.1218 0.428825
v -0.193379 -1.12229 0.428217
v -0.201268 -1.12258 0.423284
v -0.19406 -1.12306 0.422696
v -0.208057 -1.11851 0.428196
v -0.20778 -1.11952 0.422677
v -0.207892 -1.11712 0.434628
v -0.21309 -1.11118 0.432767
v -0.213171 -1.11283 0.426399
v -0.212575 -1.11427 0.420938
v -0.215719 -1.1057 0.423779
v -0.214973 -1.10766 0.418382
v -0.215649 -1.10368 0.430077
v -0.179376 -1.11302 0.430136
v -0.185365 -1.11831 0.432811
v -0.186072 -1.11981 0.426438
v -0.180263 -1.11483 0.423832
v -0.187242 -1.1208 0.420974
v -0.181827 -1.11622 0.418431
v -0.175354 -1.09808 0.424117
v -0.175883 -1.10588 0.427081
v -0.176892 -1.10804 0.420819
v -0.176405 -1.10054 0.417852
v -0.178688 -1.10992 0.415456
v -0.178235 -1.10291 0.412495
v -0.215102 -1.09578 0.427014
v -0.215229 -1.09816 0.420759
v -0.214528 -1.10066 0.4154
v -0.178965 -1.09348 0.415366
v -0.177966 -1.09083 0.421681
v -0.180617 -1.09626 0.409989
v -0.206122 -1.09586 0.448373
v -0.205741 -1.09083 0.446517
v -0.20864 -1.0914 0.443057
v -0.209118 -1.09757 0.445321
v -0.211369 -1.0923 0.438824
v -0.211918 -1.09944 0.441459
v -0.206011 -1.08595 0.440933
v -0.20832 -1.08599 0.436344
v -0.20359 -1.08638 0.444766
v -0.181765 -1.09698 0.4466
v -0.179491 -1.09889 0.443134
v -0.177519 -1.101 0.438896
v -0.182158 -1.1045 0.44539
v -0.180609 -1.10748 0.441523
v -0.183949 -1.10155 0.448449
v -0.187663 -1.10502 0.450091
v -0.186682 -1.10874 0.447408
v -0.185852 -1.11237 0.443871
v -0.192317 -1.11097 0.448814
v -0.192388 -1.11492 0.445508
v -0.192294 -1.10683 0.451228
v -0.201473 -1.10447 0.451195
v -0.20461 -1.10067 0.450032
v -0.20729 -1.10345 0.447355
v -0.203481 -1.1081 0.448784
v -0.209786 -1.10623 0.443822
v -0.205355 -1.11159 0.44548
v -0.197142 -1.10662 0.451611
v -0.198214 -1.11073 0.449292
v -0.199235 -1.11462 0.446067
v -0.195405 -1.08179 0.442526
v -0.190583 -1.08213 0.442244
v -0.190195 -1.08076 0.437889
v -0.196057 -1.08035 0.438231
v -0.189952 -1.07996 0.432756
v -0.196759 -1.07949 0.433163
v -0.199957 -1.08326 0.443393
v -0.20159 -1.08214 0.439275
v -0.203186 -1.08157 0.434396
v -0.243839 -1.27066 0.308116
v -0.23684 -1.27334 0.30894
v -0.229407 -1.27448 0.307979
v -0.223387 -1.25433 0.281899
v -0.224774 -1.25392 0.281927
v -0.227275 -1.2535 0.282384
v -0.238969 -1.25048 0.282323
v -0.240482 -1.25076 0.283301
v -0.242929 -1.25141 0.285164
v -0.220506 -1.25679 0.284409
v -0.222281 -1.25516 0.282715
v -0.25047 -1.25403 0.291266
v -0.252664 -1.25762 0.296239
v -0.252424 -1.26222 0.301433
v -0.217623 -1.27143 0.301088
v -0.215081 -1.26755 0.295845
v -0.215196 -1.26322 0.290777
v -0.222667 -1.27383 0.305287
v -0.249309 -1.26679 0.305545
v -0.190868 -1.14681 0.369419
v -0.186047 -1.12537 0.384066
v -0.197184 -1.17444 0.350326
v -0.217118 -1.16555 0.345225
v -0.223838 -1.19403 0.325362
v -0.230602 -1.22255 0.304426
v -0.221439 -1.19491 0.325792
v -0.228229 -1.22343 0.30485
v -0.214706 -1.16645 0.345656
v -0.204027 -1.20283 0.329904
v -0.210932 -1.23113 0.308772
v -0.235135 -1.25178 0.282832
v -0.237528 -1.2509 0.282417
v -0.244487 -1.27866 0.259827
v -0.242026 -1.27956 0.260232
v -0.248581 -1.30575 0.238228
v -0.251132 -1.30484 0.237832
v -0.256489 -1.32618 0.219849
v -0.253904 -1.32711 0.220237
v -0.217602 -1.25951 0.286993
v -0.223912 -1.28755 0.264908
v -0.229715 -1.31399 0.243561
v -0.234596 -1.33482 0.226533
v -0.257053 -1.34069 0.209314
v -0.259531 -1.33997 0.208859
v -0.238258 -1.34674 0.216781
v -0.205496 -1.11712 0.377519
v -0.210565 -1.13827 0.363551
v -0.208198 -1.13919 0.363974
v -0.203171 -1.11806 0.377939
v -0.183566 -1.11458 0.391658
v -0.202792 -1.10619 0.384844
v -0.200532 -1.10719 0.385186
v -0.26096 -1.30613 0.244345
v -0.25396 -1.28 0.265633
v -0.266254 -1.32682 0.227366
v -0.23123 -1.25274 0.282795
v -0.224356 -1.22437 0.30482
v -0.238015 -1.28054 0.260187
v -0.210762 -1.1674 0.345642
v -0.217523 -1.19586 0.32577
v -0.2467 -1.25221 0.287666
v -0.239685 -1.22396 0.309417
v -0.244427 -1.30677 0.238175
v -0.249694 -1.32814 0.220183
v -0.268619 -1.33902 0.217623
v -0.253129 -1.34178 0.209206
v -0.226432 -1.16737 0.350952
v -0.233056 -1.19569 0.330549
v -0.199335 -1.11897 0.377947
v -0.204308 -1.14012 0.36397
v -0.2145 -1.11866 0.38451
v -0.219719 -1.13994 0.369964
v -0.1968 -1.10801 0.385244
v -0.212021 -1.10787 0.39202
v -0.195775 -1.12536 0.416747
v -0.201793 -1.12505 0.417396
v -0.20212 -1.12655 0.415318
v -0.196623 -1.12676 0.414636
v -0.207015 -1.12405 0.414607
v -0.207189 -1.1224 0.416722
v -0.211113 -1.11773 0.41479
v -0.210535 -1.11957 0.412568
v -0.212184 -1.11382 0.409512
v -0.213008 -1.11179 0.411921
v -0.185436 -1.11895 0.411983
v -0.19004 -1.12321 0.414837
v -0.191351 -1.12458 0.412621
v -0.187086 -1.12037 0.409582
v -0.182191 -1.10673 0.405215
v -0.1827 -1.11316 0.408598
v -0.184509 -1.1147 0.405924
v -0.183954 -1.10842 0.402199
v -0.212512 -1.10541 0.408532
v -0.211645 -1.10762 0.405851
v -0.209045 -1.10188 0.402134
v -0.209763 -1.09956 0.405153
v -0.199352 -1.09287 0.400422
v -0.193323 -1.09313 0.39978
v -0.193893 -1.09521 0.396065
v -0.199399 -1.09506 0.396795
v -0.189023 -1.09777 0.396823
v -0.187942 -1.09584 0.400449
v -0.185557 -1.10246 0.398988
v -0.184052 -1.10064 0.402364
v -0.205123 -1.09516 0.402316
v -0.204721 -1.09746 0.39894
v -0.175637 -1.09582 0.430585
v -0.178127 -1.08885 0.428341
v -0.183155 -1.08341 0.426883
v -0.213692 -1.09378 0.433302
v -0.214264 -1.10154 0.436228
v -0.210337 -1.08689 0.430515
v -0.176176 -1.10343 0.433372
v -0.179565 -1.11046 0.436289
v -0.18534 -1.11572 0.438875
v -0.192556 -1.11843 0.440667
v -0.211864 -1.1089 0.438828
v -0.206925 -1.11474 0.440641
v -0.200134 -1.11806 0.441281
v -0.189982 -1.08023 0.426376
v -0.197528 -1.07971 0.426853
v -0.204654 -1.08202 0.428286
v -0.205605 -1.09261 0.405803
v -0.210631 -1.09706 0.408415
v -0.199305 -1.09037 0.404057
v -0.180211 -1.10494 0.408471
v -0.182354 -1.09864 0.405847
v -0.18671 -1.09363 0.404081
v -0.192673 -1.09075 0.403465
v -0.213562 -1.10307 0.411523
v -0.214015 -1.1097 0.414647
v -0.180674 -1.11159 0.411582
v -0.183599 -1.11757 0.4147
v -0.188603 -1.12193 0.417345
v -0.19488 -1.12409 0.419123
v -0.211849 -1.11592 0.417305
v -0.207471 -1.12084 0.419102
v -0.201502 -1.12368 0.419729
vt 0.08316 0.08319
vt 0.2633 0.9846
vt 0.8185 0.1815
vt 0.01437 0.01317
vt 0.9167 0.9167
vt 0.2603 0.01035
vt 0.9896 0.7396
vt 0.7396 0.9896
vt 0.9167 0.9167
vt 0.7414 0.01042
vt 0 0.652
vt 0.8386 0.3401
vt 0.5 1
vt 0.1351 0
vt 0.5144 0
vt 0 0.503
vt 0.2603 0.01035
vt 0.7396 0.9896
vt 0.9896 0.2604
vt 0 0.558
vt 0.5 0.5
vt 0.9167 0.08333
vt 0.001497 0.04845
vt 0.9167 0.08333
vt 0.002098 0.05655
vt 0.5 -0.0001147
vt 0.7396 0.9896
vt 0.5 1
vt 1 0.5
vt 0.6599 0.1614
vt 0.7396 0.9896
vt 0.9896 0.2604
vt 0.7396 0.9896
vt 0.002098 0.05655
vt 0 0.652
vt 0 0.558
vt 0.9167 0.9167
vt 0 0.558
vt 0.5 0.09896
vt 0 0.1539
vt 0.01679 0.01605
vt 0.08287 0.08292
vt 0 0.558
vt 0.2603 0.01035
vt 0.9167 0.9167
vt 0 0.652
vt 0.6599 0.1614
vt 0.05029 0.001496
vt 0 0.1312
vt 0.2601 0.01017
vt 0.7396 0.9896
vt 0.5 1
vt 0 0.652
vt 0.5 0.5
vt 0.08621 -1.192e-07
vt 0.1408 0
vt 0.08316 0.08319
vt 0.5 1
vt 0 0.558
vt 0.3401 0.1614
vt 0.001497 0.04845
vt 0.002098 0.05655
vt 0.5 -1.228e-05
vt 0 0.558
vt 0.1815 0.1815
vt 0.01437 -1.192e-07
vt 0.0431 -1.192e-07
vt 0.2601 0.01017
vt 0.7396 0.9896
vt 0.9167 0.08333
vt 1 0.5
vt 0.3401 0.1614
vt 0 0.558
vt 0.05172 0.001796
vt 0.9896 0.2604
vt 0 0.558
vt 0.7414 0.01042
vt 0.5 0.5
vt 0.9896 0.2604
vt 0.9167 0.08333
vt 0.9167 0.08333
vt 0.7414 0.01042
vt 1 0.5
vt 0 0.503
vt 0.7396 0.9896
vt 0.9167 0.9167
vt 0.1614 0.3401
vt 0.7396 0.9896
vt 0.9167 0.08333
vt 0.5 1
vt 0.03372 0.03737
vt 0 0.652
vt 0 0.558
vt 0.09896 0.5
vt 0.9167 0.9167
vt 0.9896 0.2604
vt 0.7396 0.9896
vt 0.9896 0.2604
vt 0 0.652
vt 0.5 1
vt 0.9896 0.7396
vt 0.1614 0.3401
vt 0.9167 0.9167
vt 1 0.5
vt 0 0.558
vt 0.9167 0.08333
vt 0.9167 0.08333
vt 0.5 0.5
vt 0.7396 0.9896
vt 0.9167 0.08333
vt 0.5 1
vt 0.004215 0.1057
vt 0.9896 0.2604
vt 0.7396 0.9896
vt 0.5 1
vt 0.1614 0.6599
vt 0.7396 0.9896
vt 0.2604 0.9917
vt 1 0.5
vt 0.01679 0.01605
vt 0.7414 0.01042
vt 0 0.652
vt 0.5059 0
vt 0.7396 0.9896
vt 0.9896 0.2604
vt 0.9896 0.2604
vt 0.4936 0.0005214
vt 0.7396 0.9896
vt 1 0.5
vt 0 0.503
vt 0.2604 0.9917
vt 0.2256 0.007144
vt 0.9167 0.08333
vt 0.2604 0.9917
vt 0 0.503
vt 0.08333 0.9338
vt 0.01437 0.01317
vt 0.01437 0.01317
vt 0.5144 0
vt 0.2858 0
vt 0.5144 -1.192e-07
vt 0.9167 0.08333
vt 0 0.503
vt 0 0.558
vt 0.7414 0.01042
vt 0.1626 0
vt 0.9896 0.2604
vt 0.2858 0
vt 0.7414 0.01042
vt 1 0.5
vt 0 0.558
vt 0.2256 0.007144
vt 0.5144 0
vt 0.7414 0.01042
vt 0 0.558
vt 0.5144 -1.192e-07
vt 0.1001 0.004672
vt 0.7412 0.01042
vt 0.03372 0.03737
vt 0.9896 0.2604
vt 0.9896 0.2604
vt 0.7414 0.01042
vt 0.1001 0.004672
vt 0.2604 0.9906
vt 1 0.5
vt 0.5144 -1.192e-07
vt 0 0.558
vt 0.001497 0.04845
vt 0.5 1
vt 0.2256 0.007144
vt 0.2604 0.9917
vt 0.001796 0.04995
vt 0.2604 0.9917
vt 0 0.1266
vt 0.08621 0
vt 0.001796 0.04965
vt 0.08333 0.9338
vt 0 0.1266
vt 0.08621 -1.192e-07
vt 0 0.1266
vt 0.08333 0.9338
vt 0.001796 0.04965
vt 0.0431 0
vt 0 0.1266
vt 0.5 1
vt 0.06711 0.07534
vt 0.9896 0.2604
vt 0.9896 0.2604
vt 0.01437 -2.384e-07
vt 0.7414 0.01042
vt 0.001497 0.04845
vt 0.5133 0
vt 0.08436 0.08802
vt 0.5059 0
vt 0.9167 0.08333
vt 0.001796 0.04965
vt 0.06711 0.07534
vt 0.9167 0.08333
vt 0.7414 0.01042
vt 0.9896 0.2604
vt 0.2604 0.9917
vt 0.2604 0.9917
vt 0.2256 0.007143
vt 0.2604 0.9917
vt 0.08333 0.9338
vt 0.01437 0.01437
vt 0.001796 0.04965
vt 0.2551 0.01504
vt 0.7414 0.01042
vt 0.4964 0.004172
vt 0.5 1
vt 0.9167 0.08333
vt 0.001796 0.04995
vt 0.2551 0.01504
vt 0.2604 0.9917
vt 0.0431 0
vt 0.2256 0.007144
vt 0.0431 0
vt 0.0431 0
vt 0.4936 0.0005215
vt 0 -1.192e-07
vt 0 0
vt 0 0.4987
vt 0.0431 0
vt 0.0431 -1.192e-07
vt 0.0005215 0.4931
vt 0 -1.192e-07
vt 0.007916 0.7142
vt 0 0.6018
vt 0 0.6716
vt 0 0.6018
vt 0.9896 0.2604
vt 0.9167 0.08333
vt 0.007916 0.7142
vt 0 0.1266
vt 0.0431 0
vt 0.7396 0.9896
vt 0.5 1
vt 0.001497 0.04845
vt 0.01042 0.7818
vt 0.08621 -1.192e-07
vt 0 0.503
vt 0.7396 0.9896
vt 0.5 1
vt 0.0005987 0.04815
vt 0.08333 0.9248
vt 0 -1.192e-07
vt 0 0.652
vt 0.7396 0.9896
vt 0 0.1266
vt 0.01042 0.7818
vt 0 0.503
vt 0.7396 0.9896
vt 0.9167 0.9167
vt 0 0.1266
vt 0.007916 0.7142
vt 0 0.558
vt 0.0005987 0.04815
vt 0.08392 0.9109
vt 0.9896 0.2604
vt 0.001497 0.04845
vt 0.088 0.9087
vt 0.7414 0.01042
vt 0.7414 0.01042
vt 0.001497 0.04845
vt 0.08392 0.9109
vt 0.08333 0.9248
vt 0 0.503
vt 0.9167 0.9167
vt 0.9167 0.08333
vt 1 0.5
vt 0.007916 0.7142
vt 0.2604 0.9916
vt 0.01437 -2.384e-07
vt 0.9896 0.7396
vt 0.9896 0.2604
vt 0.9896 0.7396
vt 0.01503 0.7293
vt 0.7412 0.01042
vt 0.003592 -1.192e-07
vt 0.9896 0.7396
vt 1 0.5
vt 0.9896 0.7396
vt 0.004172 0.4968
vt 0.0005987 0.04815
vt 0.001497 0.04845
vt 1 0.5
vt 1 0.5
vt 0.01503 0.7293
vt 0.01437 -1.192e-07
vt 0.9896 0.7396
vt 1 0.5
vt 1 0.5
vt 0.007916 0.7142
vt 0 0.1266
vt 1 0.5
vt 0.9896 0.7396
vt 0.0005215 0.4931
vt 0 0.558
vt 0.9896 0.7396
vt 0.03372 0.03737
vt 0.003592 -1.192e-07
vt 0.9896 0.7396
vt 1 0.5
vt 0.7414 0.01042
vt 0.06711 0.07534
vt 0.9896 0.7396
vt 0.7414 0.01042
vt 0.0005987 0.04815
vt 0.004851 0.255
vt 0.1001 0.004672
vt 0.2604 0.9917
vt 0.9167 0.08333
vt 0.9896 0.2604
vt 0.9167 0.08333
vt 0.03372 0.03737
vt 0.004215 0.1057
vt 0.9167 0.9167
vt 0.0431 -1.192e-07
vt 0.5 1
vt 0.1001 0.004672
vt 0 0.1539
vt 0.0431 -1.192e-07
vt 0.7414 0.01042
vt 0.05621 0.001856
vt 0.004215 0.1057
vt 0.9896 0.7396
vt 0.9167 0.08333
vt 0.2604 0.9917
vt 0.01437 -2.384e-07
vt 0.004851 0.255
vt 0.05621 0.001856
vt 0.01679 0.01605
vt 0 0.2504
vt 0.5 1
vt 0.1626 -1.192e-07
vt 0 0.3468
vt 0.2604 0.9916
vt 0.9896 0.2604
vt 0.7414 0.01042
vt 0.2604 0.9917
vt 0.05621 0.001856
vt 0 0.2504
vt 0.08333 0.9327
vt 0.08333 0.9338
vt 0 0.5633
vt 0.004851 0.255
vt 0 0.5633
vt 0.2608 0.9884
vt 0.9167 0.9167
vt 0 0.6554
vt 0.9167 0.9167
vt 0.08333 0.9338
vt 0 0.6018
vt 0 0.3992
vt 0.2604 0.9906
vt 0.08333 0.9248
vt 0.9167 0.9167
vt 0.2604 0.9917
vt 0.5 1
vt 0 0.4987
vt 0 0.4987
vt 0.08392 0.9109
vt 0.2604 0.9906
vt 0.9896 0.7396
vt 0 0.652
vt 0.9896 0.7396
vt 0.2604 0.9917
vt 0 0.5024
vt 0 0.3992
vt 0.2608 0.9884
vt 0.9896 0.7396
vt 0.9167 0.9167
vt 0.2604 0.9917
vt 0.2604 0.9917
vt 0 0.6554
vt 0.004851 0.255
vt 0 0.558
vt 0.5 0.9995
vt 0.9896 0.7396
vt 0.5 1
vt 0 0.6716
vt 0.0005215 0.4931
vt 0.9896 0.7396
vt 0.5 1
vt 0.9896 0.7396
vt 0 0.6018
vt 0.004172 0.4968
vt 0.2608 0.9884
vt 0.0005215 0.4931
vt 0 0.5633
vt 0.2633 0.9846
vt 0.2604 0.01042
vt 0.05029 0.001496
vt 0.004851 0.255
vt 0.2608 0.9884
vt 0.9896 0.7396
vt 0.7396 0.9896
vt 0 0.1266
vt 0.7396 0.9896
vt 0.5 -1.192e-07
vt 0.01437 0.01437
vt 0.01458 0.263
vt 0.9896 0.7396
vt 0.002098 0.05655
vt 0.9167 0.9167
vt 0.2604 0.01042
vt 0.05029 0.001496
vt 0.08436 0.08802
vt 0.9896 0.7396
vt 0.9167 0.9167
vt 0.9167 0.9167
vt 0.2603 0.01035
vt 0.5 -1.228e-05
vt 0.01437 -2.384e-07
vt 0.01458 0.263
vt 0 0.1312
vt 1 0.5
vt 0.9167 0.9167
vt 0.05172 0.001796
vt 0.004851 0.255
vt 1 0.5
vt 0.08333 0.08333
vt 0.01437 0.01317
vt 0.06711 0.07534
vt 0.004215 0.1057
vt 0.9896 0.7396
vt 0.7396 0.9896
vt 0.0431 -2.384e-07
vt 0.9167 0.9167
vt 0.9896 0.7396
vt 1 0.5
vt 0.9161 0.9161
vt 0.9167 0.08333
vt 0.5 1
vt 0.989 0.7392
vt 1 0.5
vt 0.9167 0.08333
vt 0.9896 0.7396
vt 0.5 1
vt 0.9896 0.2604
vt 0.9896 0.7396
vt 0.9896 0.2604
vt 0.989 0.7392
vt 0.9896 0.2604
vt 0.9167 0.9167
vt 0.9995 0.5
vt 0.9896 0.7396
vt 1 0.5
vt 0.989 0.7392
vt 0.985 0.7367
vt 0.9167 0.08333
vt 0.9167 0.9167
vt 0.9167 0.9167
vt 0.9958 0.5
vt 0.5 1
vt 0.5 1
vt 0.7414 0.01042
vt 0.5144 0
vt 0.9995 0.5
vt 0.5 1
vt 0.2604 0.9916
vt 0.9161 0.9161
vt 0.7396 0.9896
vt 1 0.5
vt 0.2604 0.9916
vt 0.912 0.912
vt 1 0.5
vt 0.5144 -1.192e-07
vt 0.985 0.7367
vt 0.7396 0.9896
vt 0.989 0.7392
vt 1 0.5
vt 0.5 1
vt 0.5 1
vt 0.5 0.9995
vt 0.9896 0.2604
vt 0.7392 0.989
vt 0.08333 0.9327
vt 0.9167 0.08333
vt 0.7396 0.9896
vt 0.7396 0.9896
vt 0.2604 0.9906
vt 0.7392 0.989
vt 0.9167 0.9167
vt 0.7412 0.01042
vt 0.9161 0.9161
vt 0.5144 0
vt 0.5 1
vt 0.7403 0.01042
vt 0.9167 0.9167
vt 0.7392 0.989
vt 0.5133 0
vt 0.7367 0.985
vt 0.7403 0.01042
vt 0.912 0.912
vt 0.9161 0.9161
vt 0.9167 0.08333
vt 0.5 0.9995
vt 0.08333 0.9338
vt 0.5 0.9958
vt 0.7412 0.01042
vt 0.7367 0.985
vt 0.7392 0.989
vt 1 0.5
vt 0.1351 0
vt 0.8386 0.3401
vt 0.9995 0.5
vt 0.05621 0.001856
vt 0.5 0.5
vt 0.08333 0.9338
vt 0.5 0.5
vt 0.989 0.2608
vt 0.1389 0
vt 0.07184 -2.384e-07
vt 0.2604 0.9917
vt 0.8386 0.6599
vt 0.9896 0.2604
vt 0.1815 0.8185
vt 0.2604 0.9917
vt 0.901 0.5
vt 0.9896 0.2604
vt 0.07184 -2.384e-07
vt 0.8386 0.6599
vt 0.989 0.2608
vt 0.1614 0.6599
vt 0.08333 0.9338
vt 0.0431 -2.384e-07
vt 0.5 0.5
vt 0.9161 0.08392
vt 0.1389 0
vt 0.01679 0.01605
vt 0.05029 0.001496
vt 0.9167 0.08333
vt 0.6599 0.8386
vt 0.8185 0.8185
vt 0.989 0.2608
vt 0 0.503
vt 0.985 0.2633
vt 0 0.5633
vt 0.912 0.088
vt 0 0.5024
vt 0.5 0.9995
vt 0.9161 0.08392
vt 0.5 0.9958
vt 0.9995 0.5
vt 0 0.558
vt 0.9958 0.5
vt 0.088 0.9087
vt 0.985 0.2633
vt 0.989 0.2608
vt 0.08392 0.9109
vt 0.9167 0.08333
vt 0.9161 0.08392
vt 0.9167 0.9167
vt 0.6599 0.8386
vt 0.3401 0.8386
vt 0.7384 0.01099
vt 0.5 0.5
vt 0.7403 0.01042
vt 0.7403 0.01042
vt 0.5 0.901
vt 0.7384 0.01099
vt 1 0.5
vt 0.4936 0.0005214
vt 0.3401 0.8386
vt 0.5059 0
vt 0.9167 0.9167
vt 0.7384 0.01099
vn 0.8446 0.2663 0.4644
vn 0.8806 0.2539 0.4001
vn 0.7687 0.5577 0.3131
vn 0.7368 0.5554 0.3855
vn 0.5408 0.802 0.2534
vn 0.5193 0.7879 0.3308
vn 0.8244 0.5459 0.1497
vn 0.5767 0.813 0.08014
vn 0.9432 0.2155 0.2529
vn -0.6066 0.5467 -0.5771
vn -0.5911 0.5483 -0.5915
vn -0.5677 0.5647 -0.599
vn -0.5776 0.5639 -0.5902
vn -0.5517 0.5833 -0.5961
vn -0.5595 0.5817 -0.5904
vn -0.1728 0.6002 -0.7809
vn -0.1593 0.6191 -0.7689
vn -0.1903 0.5854 -0.7881
vn -0.01816 0.5676 -0.8231
vn 0.04526 0.5566 -0.8295
vn 0.04984 0.5736 -0.8176
vn -0.01111 0.5839 -0.8117
vn 0.05445 0.5934 -0.803
vn -0.005188 0.6035 -0.7974
vn 0.4545 0.4442 -0.7721
vn 0.4522 0.4659 -0.7605
vn 0.4626 0.424 -0.7786
vn -0.9408 0.001434 0.3389
vn -0.9433 -0.001862 0.3318
vn -0.7381 -0.273 0.6169
vn -0.7382 -0.2651 0.6203
vn -0.443 -0.4633 0.7675
vn -0.4451 -0.4559 0.7707
vn -0.7556 -0.2988 0.5828
vn -0.4567 -0.4853 0.7456
vn -0.955 -0.0343 0.2944
vn 0.2022 -0.6135 0.7633
vn -0.135 -0.5699 0.8105
vn -0.1388 -0.5765 0.8052
vn 0.1948 -0.6204 0.7596
vn -0.1413 -0.5727 0.8075
vn 0.188 -0.6174 0.7638
vn -0.4559 -0.4663 0.7581
vn -0.4561 -0.4619 0.7606
vn -0.4544 -0.4585 0.7637
vn -0.7473 -0.2703 0.6069
vn -0.7481 -0.2795 0.6018
vn -0.7477 -0.2738 0.6049
vn -0.9449 -0.02524 0.3264
vn -0.9441 -0.01819 0.3291
vn -0.9436 -0.01697 0.3305
vn 0.8198 -0.4511 0.3527
vn 0.5401 -0.5783 0.6114
vn 0.5324 -0.587 0.6099
vn 0.816 -0.4597 0.3503
vn 0.5267 -0.5854 0.6163
vn 0.8164 -0.4567 0.3534
vn 0.9592 -0.02326 -0.2817
vn 0.967 -0.2523 0.0351
vn 0.9661 -0.2565 0.02939
vn 0.956 -0.01556 -0.293
vn 0.9676 -0.2506 0.02933
vn 0.9559 -0.005676 -0.2936
vn -0.9734 0.2288 0.006134
vn -0.974 0.2266 0.000763
vn -0.9719 0.2352 0.001984
vn -0.8426 0.4336 -0.3193
vn -0.8357 0.4459 -0.3206
vn -0.8514 0.4248 -0.3076
vn 0.7975 0.2062 -0.5669
vn 0.7803 0.2322 -0.5806
vn 0.75 0.2574 -0.6093
vn 0.7645 0.2331 -0.601
vn 0.7439 0.2795 -0.607
vn 0.7732 0.2536 -0.5812
vn 0.4894 0.4723 -0.7331
vn 0.495 0.3822 -0.7803
vn 0.1346 0.554 -0.8216
vn 0.0947 0.617 -0.7812
vn 0.01727 0.6054 -0.7957
vn 0.01364 0.6337 -0.7734
vn 0.1505 0.2637 -0.9528
vn 0.01401 0.5394 -0.8419
vn 0.4757 0.00766 -0.8795
vn 0.1718 -0.6089 0.7744
vn 0.165 -0.6147 0.7713
vn 0.5075 -0.5872 0.6305
vn 0.5131 -0.5793 0.6333
vn 0.8198 -0.4491 0.3551
vn 0.8197 -0.4437 0.3621
vn 0.5086 -0.6201 0.5973
vn 0.8146 -0.4858 0.3168
vn 0.1647 -0.641 0.7496
vn 0.973 -0.2296 0.02298
vn 0.973 -0.2288 0.03082
vn 0.9604 0.0094 -0.2786
vn 0.9599 0.01193 -0.28
vn 0.9635 -0.2676 -0.006409
vn 0.9558 -0.02792 -0.2926
vn -0.8321 0.4646 -0.303
vn -0.8354 0.4618 -0.2979
vn -0.9659 0.2589 0.001495
vn -0.9657 0.2595 0.007447
vn -0.9747 0.2222 -0.02377
vn -0.8505 0.4279 -0.3058
vn 0.787 0.27 -0.5547
vn 0.7963 0.2644 -0.544
vn 0.7638 0.2979 -0.5725
vn 0.7558 0.301 -0.5814
vn 0.4814 0.4931 -0.7246
vn 0.4704 0.4929 -0.7319
vn 0.7672 0.2753 -0.5793
vn 0.8034 0.2365 -0.5464
vn -0.1674 0.6529 -0.7386
vn -0.1805 0.6592 -0.7299
vn -0.5631 0.6101 -0.5573
vn -0.5533 0.609 -0.5682
vn -0.5804 0.6032 -0.5471
vn -0.5666 0.6037 -0.5607
vn -0.5775 0.5944 -0.5596
vn -0.6021 0.5841 -0.5443
vn -0.1997 0.6477 -0.7352
vn 0.08478 0.6285 -0.7731
vn 0.07453 0.624 -0.7778
vn 0.01294 0.6412 -0.7673
vn 0.007874 0.6354 -0.7721
vn -0.1443 -0.5694 0.8092
vn -0.1425 -0.5642 0.8132
vn -0.1503 -0.5912 0.7924
vn -0.9296 -0.005036 -0.3684
vn -0.6701 -0.691 -0.271
vn -0.497 -0.794 -0.3501
vn -0.9504 -0.2109 -0.2285
vn -0.4221 -0.6731 -0.6072
vn -0.9287 -0.3571 -0.0998
vn 0.5137 -0.8334 -0.2037
vn 0.5979 -0.4916 -0.633
vn 0.2398 -0.9652 0.1043
vn -0.5147 -0.5589 0.6501
vn -0.1723 -0.6716 0.7205
vn 0.1762 -0.7347 0.6551
vn -0.2294 -0.8765 0.4233
vn 0.187 -0.9289 0.3196
vn -0.6228 -0.7165 0.3141
vn -0.9748 -0.1479 0.1668
vn -0.8106 -0.3801 0.4454
vn -0.8502 -0.5182 0.09223
vn 0.515 -0.7231 0.4603
vn 0.7765 -0.6023 0.1849
vn 0.4777 -0.8725 0.1028
vn 0.6286 -0.7725 -0.08991
vn 0.9091 -0.4062 -0.09268
vn 0.9275 -0.168 -0.3338
vn 0.7236 -0.6511 -0.229
vn 0.805 -0.4594 -0.3753
vn -0.8932 0.2979 -0.3368
vn -0.9915 0.08121 -0.1017
vn 0.8105 0.1574 -0.5641
vn 0.7527 0.2103 -0.6238
vn 0.7171 -0.0997 -0.6897
vn 0.8036 -0.022 -0.5947
vn -0.2514 0.5813 -0.7738
vn -0.5927 0.5408 -0.5968
vn -0.6459 0.526 -0.5532
vn -0.6958 0.2738 -0.6639
vn -0.724 0.3785 -0.5767
vn -0.4228 0.2655 -0.8665
vn 0.3872 -0.9202 0.05692
vn 0.07456 -0.984 0.1616
vn -0.2365 -0.8944 -0.3797
vn 0.3561 -0.8994 -0.2533
vn 0.5302 -0.6259 -0.5719
vn 0.2519 -0.5307 -0.8092
vn 0.1942 -0.1175 -0.9739
vn -0.07617 -0.2662 -0.9609
vn -0.2352 -0.008301 -0.9719
vn -0.4855 -0.3412 -0.8048
vn -0.769 -0.2927 -0.5683
vn -0.7481 -0.6158 -0.2471
vn -0.782 -0.6203 0.06101
vn -0.5424 -0.8246 0.1604
vn -0.4332 -0.8154 0.3839
vn -0.2432 -0.9348 0.2587
vn -0.01325 -0.9233 0.3839
vn 0.2412 -0.9291 -0.2801
vn 0.4053 -0.8189 -0.4062
vn 0.8198 -0.2468 -0.5168
vn 0.1388 -0.7673 -0.6261
vn -0.2916 -0.9233 0.2499
vn -0.4312 -0.871 0.2354
vn -0.6723 -0.7335 0.09973
vn -0.5126 -0.5885 -0.6252
vn -0.7634 -0.5134 -0.3919
vn -0.8402 0.1909 -0.5075
vn -0.03821 -0.9687 0.2452
vn -0.191 -0.9474 0.2567
vn -0.1561 -0.5047 -0.849
vn 0.07578 0.4832 -0.8722
vn 0.1849 0.5098 -0.8401
vn -0.02741 0.3316 -0.943
vn -0.2449 -0.9416 0.2311
vn -0.4539 -0.6421 -0.6178
vn -0.2137 -0.7923 -0.5715
vn 0.06522 -0.7821 -0.6197
vn 0.02857 0.1437 -0.9892
vn -0.1188 0.1606 -0.9798
vn 0.1671 0.08618 -0.9821
vn -0.4857 -0.5223 -0.7009
vn 0.3939 -0.1016 -0.9135
vn 0.1472 -0.7002 -0.6986
vn 0.02322 -0.8004 -0.5989
vn -0.4013 0.1043 -0.91
vn -0.7626 -0.1435 -0.6307
vn 0.03851 -0.9366 -0.3483
vn -0.8498 -0.4874 -0.2005
vn 0.5618 -0.8069 0.1823
vn 0.3165 -0.8631 0.3934
vn 0.0343 -0.8543 0.5186
vn -0.8604 0.03879 -0.5081
vn -0.5468 0.2563 -0.7971
vn -0.1991 0.3369 -0.9202
vn -0.438 -0.7352 0.5172
vn -0.6878 -0.6105 0.3926
vn -0.8756 -0.4468 0.1836
vn 0.3314 0.2015 -0.9217
vn 0.6051 -0.0387 -0.7952
vn 0.7769 -0.3745 -0.5061
vn 0.7539 -0.6438 -0.131
vn 0.07562 0.3148 -0.9461
vn -0.9683 -0.2136 -0.1292
vn -0.2054 -0.8068 0.5538
vn 0.8367 0.1626 -0.523
vn 0.8188 0.1807 -0.5449
vn 0.7821 0.2114 -0.5861
vn 0.7957 0.2002 -0.5716
vn 0.4712 0.4104 -0.7807
vn 0.4825 0.4074 -0.7754
vn -0.9475 -0.004028 0.3198
vn -0.9736 0.228 0.00177
vn -0.9724 0.2329 0.01004
vn -0.9434 -0.004334 0.3315
vn -0.86 0.4172 -0.294
vn -0.8666 0.4072 -0.2882
vn 0.9668 -0.03992 -0.2524
vn 0.968 -0.2477 0.04071
vn 0.9683 -0.2466 0.0408
vn 0.9636 -0.03143 -0.2654
vn 0.8246 -0.4405 0.3549
vn 0.826 -0.4398 0.3524
vn 0.5456 -0.5653 0.6186
vn 0.5463 -0.5678 0.6157
vn 0.207 -0.6033 0.7702
vn 0.2051 -0.597 0.7756
vn -0.4597 -0.4383 0.7724
vn -0.756 -0.2501 0.6048
vn -0.7501 -0.2549 0.6102
vn -0.4562 -0.4453 0.7704
vn -0.1344 -0.5511 0.8235
vn -0.1332 -0.5589 0.8184
vn -0.02951 0.5572 -0.8298
vn 0.04263 0.5468 -0.8362
vn 0.03876 0.5469 -0.8363
vn -0.02594 0.558 -0.8294
vn -0.6612 0.521 -0.5398
vn -0.6288 0.5294 -0.5694
vn -0.6143 0.5361 -0.5789
vn -0.6373 0.5322 -0.5572
vn -0.2025 0.5764 -0.7917
vn -0.2117 0.5765 -0.7892
vn -0.6426 0.6058 -0.469
vn -0.5513 0.6935 -0.4637
vn -0.6114 0.558 -0.5611
vn -0.6681 0.5263 -0.526
vn -0.2339 0.6159 -0.7523
vn -0.2448 0.7457 -0.6196
vn -0.01178 0.5154 -0.8568
vn 0.1877 0.6276 -0.7555
vn 0.09644 0.5607 -0.8224
vn -0.02612 0.5492 -0.8353
vn 0.5179 0.4478 -0.7288
vn 0.5768 0.5837 -0.5715
vn 0.1804 -0.4219 0.8885
vn -0.1079 -0.4146 0.9036
vn -0.1301 -0.5191 0.8448
vn 0.1968 -0.5604 0.8045
vn -0.4451 -0.4092 0.7965
vn -0.3714 -0.2893 0.8822
vn -0.5647 -0.06037 0.8231
vn -0.7311 -0.2208 0.6455
vn -0.9219 0.03003 0.3862
vn -0.6751 0.2359 0.699
vn 0.6798 -0.09427 0.7273
vn 0.4493 -0.3057 0.8394
vn 0.5282 -0.5219 0.6698
vn 0.8136 -0.3886 0.4325
vn 0.932 0.315 0.179
vn 0.8485 0.1396 0.5104
vn 0.9735 -0.1901 0.1272
vn 0.9836 0.009552 -0.1801
vn -0.7112 0.5203 0.4726
vn -0.9594 0.2729 0.07056
vn -0.8635 0.4471 -0.2334
vn -0.6973 0.7056 0.1259
vn 0.8632 0.2853 -0.4163
vn 0.8483 0.1782 -0.4986
vn 0.7982 0.2449 -0.5503
vn 0.8121 0.4077 -0.4174
vn 0.977 0.2074 0.05005
vn 0.8021 0.4751 0.3616
vn 0.8655 0.475 -0.1588
vn 0.8934 0.3716 -0.2523
vn 0.6172 0.5895 -0.5211
vn 0.5946 0.6347 -0.4936
vn 0.9163 0.3544 -0.1864
vn -0.7367 0.2495 0.6284
vn -0.7723 0.4976 0.3948
vn -0.3436 0.6163 0.7086
vn -0.3232 0.3802 0.8665
vn -0.5173 0.7989 0.3068
vn -0.7651 0.6438 0.01309
vn 0.9073 0.06772 0.4148
vn 0.573 0.3824 0.7248
vn 0.4553 0.1801 0.8719
vn 0.757 -0.134 0.6395
vn 0.5538 -0.3525 0.7543
vn 0.3729 -0.09552 0.9229
vn 0.1866 -0.3097 0.9323
vn 0.2516 -0.4982 0.8297
vn -0.4667 -0.3139 0.8268
vn -0.6626 -0.04041 0.7479
vn -0.3771 0.0994 0.9208
vn -0.3165 -0.1781 0.9317
vn -0.1293 -0.4916 0.8611
vn -0.09033 -0.3418 0.9354
vn -0.2618 0.8004 -0.5392
vn 0.1912 0.7494 -0.6338
vn 0.151 0.6388 -0.7544
vn -0.2389 0.8047 -0.5434
vn 0.1171 0.6054 -0.7873
vn 0.1941 0.4522 -0.8705
vn 0.07608 0.4786 -0.8747
vn -0.6095 0.7383 -0.2886
vn -0.565 0.7934 -0.2265
vn -0.6587 0.7065 -0.2587
vn -0.8062 0.5815 -0.109
vn -0.5243 0.8213 -0.2248
vn -0.5392 0.7526 -0.378
vn -0.8145 0.5148 -0.2675
vn -0.551 0.6871 -0.4736
vn -0.8114 0.4459 -0.3779
vn -0.1752 0.8757 -0.4499
vn -0.1927 0.8229 -0.5345
vn -0.1565 0.941 -0.2998
vn 0.2372 0.9157 -0.3244
vn 0.2213 0.8521 -0.4743
vn 0.2095 0.8045 -0.5557
vn 0.5814 0.6786 -0.4487
vn 0.5712 0.6222 -0.5353
vn 0.5961 0.7459 -0.2971
vn 0.1785 -0.942 0.2842
vn -0.2386 -0.923 0.3019
vn -0.2465 -0.9535 0.1735
vn 0.1561 -0.9756 0.1541
vn -0.245 -0.9446 0.2184
vn 0.1612 -0.9713 0.1748
vn -0.6114 -0.7768 0.1504
vn -0.6146 -0.7712 0.1656
vn -0.6147 -0.7362 0.2829
vn -0.8732 -0.4311 0.2274
vn -0.8701 -0.4853 0.08634
vn -0.8677 -0.4952 0.04263
vn -0.9899 -0.1407 -0.01407
vn -0.9787 -0.1748 -0.1078
vn -0.9872 -0.07959 0.1381
vn 0.817 -0.5577 0.1463
vn 0.5481 -0.8037 0.2315
vn 0.5194 -0.8493 0.09406
vn 0.7905 -0.6124 -0.00293
vn 0.5142 -0.8557 0.05771
vn 0.7667 -0.6354 -0.09159
vn 0.9895 0.1052 -0.09879
vn 0.9687 -0.2462 0.03201
vn 0.944 -0.3047 -0.1261
vn 0.9651 0.04202 -0.2583
vn 0.9067 -0.347 -0.2398
vn 0.9286 -0.0166 -0.3705
vn -0.9631 0.2682 0.02115
vn -0.969 0.2049 -0.138
vn -0.9561 0.148 -0.2529
vn 0.8422 0.389 -0.3733
vn 0.8621 0.4574 -0.2182
vn 0.8198 0.3245 -0.4718
vn -0.746 0.1517 0.6484
vn -0.7319 0.4058 0.5473
vn -0.7755 0.3959 0.4917
vn -0.7913 0.1228 0.599
vn -0.8578 0.3684 0.3583
vn -0.8792 0.06494 0.472
vn -0.6435 0.6576 0.3916
vn -0.7156 0.6548 0.2432
vn -0.6062 0.6513 0.4564
vn 0.8325 -0.01102 0.5538
vn 0.8659 -0.04035 0.4986
vn 0.9244 -0.1051 0.3666
vn 0.7454 -0.2848 0.6027
vn 0.7935 -0.3781 0.4767
vn 0.7198 -0.2381 0.652
vn 0.517 -0.406 0.7535
vn 0.53 -0.4688 0.7066
vn 0.5596 -0.5941 0.5778
vn 0.221 -0.5673 0.7933
vn 0.2196 -0.7199 0.6583
vn 0.2246 -0.4923 0.8409
vn -0.4373 -0.3178 0.8412
vn -0.6513 -0.09671 0.7526
vn -0.6933 -0.1457 0.7057
vn -0.4708 -0.3854 0.7936
vn -0.7804 -0.2416 0.5767
vn -0.543 -0.5206 0.6588
vn -0.1216 -0.465 0.8769
vn -0.1416 -0.5421 0.8283
vn -0.1817 -0.7001 0.6905
vn -0.07477 0.9421 0.3267
vn 0.2357 0.9212 0.3095
vn 0.242 0.9424 0.2308
vn -0.08551 0.9646 0.2492
vn 0.249 0.9669 0.05484
vn -0.1099 0.991 0.07596
vn -0.3734 0.847 0.3783
vn -0.3995 0.8643 0.3056
vn -0.452 0.8806 0.1417
vn -0.4516 -0.4555 0.7672
vn -0.142 -0.5659 0.8121
vn 0.1805 -0.6109 0.7708
vn 0.4587 0.483 -0.7458
vn 0.0629 0.6114 -0.7888
vn 0.001099 0.6218 -0.7832
vn -0.1582 0.6381 -0.7535
vn -0.548 0.5992 -0.5837
vn -0.5575 0.5957 -0.5782
vn 0.7772 0.266 -0.5702
vn 0.7474 0.2943 -0.5956
vn -0.8324 0.4574 -0.3129
vn -0.9685 0.2488 0.006256
vn -0.9419 -0.005768 0.3357
vn 0.8184 -0.4486 0.3592
vn 0.9705 -0.239 0.0314
vn 0.9579 0.004425 -0.2871
vn 0.5206 -0.5802 0.6263
vn -0.7434 -0.2656 0.6138
vn 0.8675 0.1325 -0.4794
vn 0.8822 0.1154 -0.4565
vn 0.8506 0.1546 -0.5026
vn 0.2641 0.5012 -0.824
vn 0.2691 0.5176 -0.8122
vn 0.2748 0.5364 -0.798
vn 0.2297 0.5299 -0.8163
vn 0.2333 0.5496 -0.8022
vn 0.2276 0.5128 -0.8278
vn 0.8373 0.176 -0.5176
vn 0.8328 0.1931 -0.5188
vn 0.2352 0.5686 -0.7882
vn 0.2738 0.556 -0.7848
vn 0.2656 0.5737 -0.7748
vn 0.2346 0.5838 -0.7772
vn 0.2323 0.5914 -0.7722
vn 0.255 0.5839 -0.7707
vn 0.2384 0.5807 -0.7784
vn 0.2284 0.585 -0.7782
vn 0.8368 0.2029 -0.5085
vn 0.8447 0.2063 -0.4938
vn 0.8517 0.2003 -0.4841
vn 0.8569 0.1665 -0.4878
vn 0.2146 0.564 -0.7974
vn 0.1649 0.5556 -0.815
vn 0.8624 0.04996 -0.5037
vn 0.2619 0.4902 -0.8313
vn 0.2652 0.4897 -0.8306
vn 0.2287 0.5014 -0.8344
vn 0.2314 0.4989 -0.8352
vn 0.9029 0.1359 -0.4077
vn 0.2112 0.5158 -0.8303
vn 0.2274 0.4852 -0.8443
vn -0.6427 0.5787 -0.5019
vn -0.6297 0.5811 -0.5155
vn -0.6666 0.5533 -0.4995
vn 0.08798 0.6064 -0.7902
vn 0.08353 0.5877 -0.8047
vn 0.09177 0.6207 -0.7787
vn 0.07419 0.5514 -0.8309
vn 0.0788 0.5679 -0.8192
vn -0.6211 0.5747 -0.5329
vn -0.6222 0.5628 -0.5441
vn 0.09384 0.6269 -0.7734
vn 0.09265 0.6193 -0.7797
vn -0.7292 0.4608 -0.5058
vn 0.08872 0.5938 -0.7997
vn -0.6634 0.5311 -0.527
vn -0.6378 0.547 -0.5422
vn 0.06989 0.5399 -0.8388
vn 0.07056 0.5414 -0.8378
vn -0.712 0.5048 -0.488
vn -0.6905 0.517 -0.5058
vn 0.07096 0.5297 -0.8452
vn -0.7251 0.5187 -0.4529
vn 0.2253 -0.8795 0.4192
vn -0.2139 -0.8169 0.5357
vn -0.1875 -0.7141 0.6744
vn 0.2649 -0.7721 0.5775
vn -0.614 -0.5527 0.5635
vn -0.63 -0.6666 0.3984
vn -0.8874 -0.4483 0.107
vn -0.8962 -0.3275 0.2993
vn -0.9961 -0.0867 0.01798
vn -0.9659 -0.1994 -0.1649
vn 0.7518 -0.6441 -0.1411
vn 0.56 -0.8171 0.1369
vn 0.6228 -0.7125 0.3231
vn 0.8303 -0.5559 0.03952
vn 0.8856 -0.1208 -0.4484
vn 0.8498 -0.4086 -0.3328
vn 0.9229 -0.3407 -0.179
vn 0.9424 -0.0784 -0.3249
vn -0.9365 0.05887 -0.3456
vn -0.9698 0.1498 -0.1924
vn -0.8582 0.3911 -0.3325
vn -0.8281 0.3319 -0.4516
vn -0.2476 0.8071 -0.5359
vn 0.2124 0.8112 -0.5448
vn 0.2116 0.8125 -0.5431
vn -0.2691 0.8179 -0.5085
vn 0.635 0.5831 -0.5066
vn 0.611 0.5784 -0.5405
vn 0.8725 0.2402 -0.4254
vn 0.8294 0.2232 -0.5122
vn -0.6111 0.6064 -0.5088
vn -0.6419 0.6351 -0.4296
vn 0.983 0.1652 0.08039
vn 0.858 0.5125 -0.03482
vn 0.5965 0.7949 -0.1113
vn -0.9249 0.3258 0.1959
vn -0.95 -0.005249 0.312
vn -0.773 0.6305 0.06995
vn 0.9626 -0.1761 0.2056
vn 0.8208 -0.4743 0.3182
vn 0.5672 -0.7143 0.4099
vn 0.2047 -0.8559 0.4749
vn -0.8461 -0.3433 0.4077
vn -0.5958 -0.6476 0.475
vn -0.217 -0.8388 0.4993
vn 0.2477 0.9589 -0.1382
vn -0.1344 0.9842 -0.115
vn -0.4956 0.8675 -0.0426
vn -0.5735 0.6337 -0.5191
vn -0.8123 0.3768 -0.4451
vn -0.2163 0.7991 -0.5609
vn 0.8947 -0.07636 -0.4401
vn 0.8115 0.2652 -0.5207
vn 0.5799 0.5876 -0.5643
vn 0.2068 0.7913 -0.5753
vn -0.9397 0.09174 -0.3293
vn -0.9672 -0.1971 -0.1604
vn 0.8671 -0.3853 -0.3157
vn 0.7503 -0.6463 -0.1388
vn 0.532 -0.8422 0.0875
vn 0.1924 -0.9324 0.3059
vn -0.8755 -0.4792 0.06253
vn -0.625 -0.7254 0.2882
vn -0.2316 -0.8881 0.397
f 1/1/1 2/2/2 3/3/3
f 1/1/1 3/3/3 4/4/4
f 4/4/4 3/3/3 5/5/5
f 4/4/4 5/5/5 6/6/6
f 3/3/3 7/7/7 8/8/8
f 3/3/3 8/8/8 5/5/5
f 2/2/2 9/9/9 7/7/7
f 2/2/2 7/7/7 3/3/3
f 10/10/10 11/11/11 12/12/12
f 10/10/10 12/12/12 13/13/13
f 13/13/13 12/12/12 14/14/14
f 13/13/13 14/14/14 15/15/15
f 12/12/12 16/16/16 17/17/17
f 12/12/12 17/17/17 14/14/14
f 11/11/11 18/18/18 16/16/16
f 11/11/11 16/16/16 12/12/12
f 19/19/19 20/20/20 21/21/21
f 19/19/19 21/21/21 22/22/22
f 22/22/22 21/21/21 23/23/23
f 22/22/22 23/23/23 24/24/24
f 21/21/21 25/25/25 26/26/26
f 21/21/21 26/26/26 23/23/23
f 20/20/20 27/27/27 25/25/25
f 20/20/20 25/25/25 21/21/21
f 28/28/28 29/29/29 30/30/30
f 28/28/28 30/30/30 31/31/31
f 31/31/31 30/30/30 32/32/32
f 31/31/31 32/32/32 33/33/33
f 30/30/30 34/34/34 35/35/35
f 30/30/30 35/35/35 32/32/32
f 29/29/29 36/36/36 34/34/34
f 29/29/29 34/34/34 30/30/30
f 37/37/37 38/38/38 39/39/39
f 37/37/37 39/39/39 40/40/40
f 40/40/40 39/39/39 41/41/41
f 40/40/40 41/41/41 42/42/42
f 39/39/39 43/43/43 44/44/44
f 39/39/39 44/44/44 41/41/41
f 38/38/38 45/45/45 43/43/43
f 38/38/38 43/43/43 39/39/39
f 45/45/45 46/46/46 47/47/47
f 45/45/45 47/47/47 43/43/43
f 43/43/43 47/47/47 48/48/48
f 43/43/43 48/48/48 44/44/44
f 47/47/47 49/49/49 50/50/50
f 47/47/47 50/50/50 48/48/48
f 46/46/46 51/51/51 49/49/49
f 46/46/46 49/49/49 47/47/47
f 52/52/52 53/53/53 54/54/54
f 52/52/52 54/54/54 55/55/55
f 55/55/55 54/54/54 56/56/56
f 55/55/55 56/56/56 57/57/57
f 54/54/54 40/40/40 42/42/42
f 54/54/54 42/42/42 56/56/56
f 53/53/53 37/37/37 40/40/40
f 53/53/53 40/40/40 54/54/54
f 58/58/58 59/59/59 60/60/60
f 58/58/58 60/60/60 61/61/61
f 61/61/61 60/60/60 62/62/62
f 61/61/61 62/62/62 63/63/63
f 60/60/60 55/55/55 57/57/57
f 60/60/60 57/57/57 62/62/62
f 59/59/59 52/52/52 55/55/55
f 59/59/59 55/55/55 60/60/60
f 51/51/51 64/64/64 65/65/65
f 51/51/51 65/65/65 49/49/49
f 49/49/49 65/65/65 66/66/66
f 49/49/49 66/66/66 50/50/50
f 65/65/65 67/67/67 68/68/68
f 65/65/65 68/68/68 66/66/66
f 64/64/64 69/69/69 67/67/67
f 64/64/64 67/67/67 65/65/65
f 70/70/70 71/71/71 72/72/72
f 70/70/70 72/72/72 73/73/73
f 73/73/73 72/72/72 25/25/25
f 73/73/73 25/25/25 27/27/27
f 72/72/72 74/74/74 26/26/26
f 72/72/72 26/26/26 25/25/25
f 71/71/71 75/75/75 74/74/74
f 71/71/71 74/74/74 72/72/72
f 76/76/76 77/77/77 78/78/78
f 76/76/76 78/78/78 79/79/79
f 79/79/79 78/78/78 80/80/80
f 79/79/79 80/80/80 81/81/81
f 78/78/78 82/82/82 83/83/83
f 78/78/78 83/83/83 80/80/80
f 77/77/77 84/84/84 82/82/82
f 77/77/77 82/82/82 78/78/78
f 85/85/85 86/86/86 87/87/87
f 85/85/85 87/87/87 88/88/88
f 88/88/88 87/87/87 89/89/89
f 88/88/88 89/89/89 90/90/90
f 87/87/87 91/91/91 92/92/92
f 87/87/87 92/92/92 89/89/89
f 86/86/86 93/93/93 91/91/91
f 86/86/86 91/91/91 87/87/87
f 90/90/90 89/89/89 94/94/94
f 90/90/90 94/94/94 95/95/95
f 95/95/95 94/94/94 96/96/96
f 95/95/95 96/96/96 97/97/97
f 94/94/94 98/98/98 99/99/99
f 94/94/94 99/99/99 96/96/96
f 89/89/89 92/92/92 98/98/98
f 89/89/89 98/98/98 94/94/94
f 100/100/100 101/101/101 102/102/102
f 100/100/100 102/102/102 103/103/103
f 103/103/103 102/102/102 29/29/29
f 103/103/103 29/29/29 28/28/28
f 102/102/102 104/104/104 36/36/36
f 102/102/102 36/36/36 29/29/29
f 101/101/101 105/105/105 104/104/104
f 101/101/101 104/104/104 102/102/102
f 106/106/106 107/107/107 108/108/108
f 106/106/106 108/108/108 109/109/109
f 109/109/109 108/108/108 110/110/110
f 109/109/109 110/110/110 111/111/111
f 108/108/108 112/112/112 76/76/76
f 108/108/108 76/76/76 110/110/110
f 107/107/107 113/113/113 112/112/112
f 107/107/107 112/112/112 108/108/108
f 114/114/114 115/115/115 116/116/116
f 114/114/114 116/116/116 117/117/117
f 117/117/117 116/116/116 118/118/118
f 117/117/117 118/118/118 119/119/119
f 116/116/116 120/120/120 121/121/121
f 116/116/116 121/121/121 118/118/118
f 115/115/115 122/122/122 120/120/120
f 115/115/115 120/120/120 116/116/116
f 111/111/111 110/110/110 123/123/123
f 111/111/111 123/123/123 124/124/124
f 124/124/124 123/123/123 125/125/125
f 124/124/124 125/125/125 126/126/126
f 123/123/123 79/79/79 81/81/81
f 123/123/123 81/81/81 125/125/125
f 110/110/110 76/76/76 79/79/79
f 110/110/110 79/79/79 123/123/123
f 33/33/33 32/32/32 127/127/127
f 33/33/33 127/127/127 128/128/128
f 128/128/128 127/127/127 86/86/86
f 128/128/128 86/86/86 85/85/85
f 127/127/127 129/129/129 93/93/93
f 127/127/127 93/93/93 86/86/86
f 32/32/32 35/35/35 129/129/129
f 32/32/32 129/129/129 127/127/127
f 130/130/130 131/131/131 132/132/132
f 130/130/130 132/132/132 133/133/133
f 133/133/133 132/132/132 134/134/134
f 133/133/133 134/134/134 135/135/135
f 132/132/132 136/136/136 137/137/137
f 132/132/132 137/137/137 134/134/134
f 131/131/131 138/138/138 136/136/136
f 131/131/131 136/136/136 132/132/132
f 35/35/35 139/139/139 140/140/140
f 35/35/35 140/140/140 129/129/129
f 129/129/129 140/140/140 141/141/141
f 129/129/129 141/141/141 93/93/93
f 140/140/140 142/142/142 143/143/143
f 140/140/140 143/143/143 141/141/141
f 139/139/139 144/144/144 142/142/142
f 139/139/139 142/142/142 140/140/140
f 36/36/36 145/145/145 146/146/146
f 36/36/36 146/146/146 34/34/34
f 34/34/34 146/146/146 139/139/139
f 34/34/34 139/139/139 35/35/35
f 146/146/146 147/147/147 144/144/144
f 146/146/146 144/144/144 139/139/139
f 145/145/145 135/135/135 147/147/147
f 145/145/145 147/147/147 146/146/146
f 93/93/93 141/141/141 148/148/148
f 93/93/93 148/148/148 91/91/91
f 91/91/91 148/148/148 149/149/149
f 91/91/91 149/149/149 92/92/92
f 148/148/148 150/150/150 151/151/151
f 148/148/148 151/151/151 149/149/149
f 141/141/141 143/143/143 150/150/150
f 141/141/141 150/150/150 148/148/148
f 92/92/92 149/149/149 152/152/152
f 92/92/92 152/152/152 98/98/98
f 98/98/98 152/152/152 153/153/153
f 98/98/98 153/153/153 99/99/99
f 152/152/152 154/154/154 155/155/155
f 152/152/152 155/155/155 153/153/153
f 149/149/149 151/151/151 154/154/154
f 149/149/149 154/154/154 152/152/152
f 105/105/105 156/156/156 157/157/157
f 105/105/105 157/157/157 104/104/104
f 104/104/104 157/157/157 145/145/145
f 104/104/104 145/145/145 36/36/36
f 157/157/157 133/133/133 135/135/135
f 157/157/157 135/135/135 145/145/145
f 156/156/156 130/130/130 133/133/133
f 156/156/156 133/133/133 157/157/157
f 113/113/113 158/158/158 159/159/159
f 113/113/113 159/159/159 112/112/112
f 112/112/112 159/159/159 77/77/77
f 112/112/112 77/77/77 76/76/76
f 159/159/159 160/160/160 84/84/84
f 159/159/159 84/84/84 77/77/77
f 158/158/158 161/161/161 160/160/160
f 158/158/158 160/160/160 159/159/159
f 122/122/122 162/162/162 163/163/163
f 122/122/122 163/163/163 120/120/120
f 120/120/120 163/163/163 164/164/164
f 120/120/120 164/164/164 121/121/121
f 163/163/163 165/165/165 166/166/166
f 163/163/163 166/166/166 164/164/164
f 162/162/162 167/167/167 165/165/165
f 162/162/162 165/165/165 163/163/163
f 168/168/168 169/169/169 170/170/170
f 168/168/168 170/170/170 171/171/171
f 172/172/172 171/171/171 170/170/170
f 172/172/172 170/170/170 173/173/173
f 174/174/174 173/173/173 170/170/170
f 174/174/174 170/170/170 175/175/175
f 176/176/176 175/175/175 170/170/170
f 176/176/176 170/170/170 177/177/177
f 178/178/178 177/177/177 170/170/170
f 178/178/178 170/170/170 179/179/179
f 180/180/180 179/179/179 170/170/170
f 180/180/180 170/170/170 181/181/181
f 182/182/182 181/181/181 170/170/170
f 182/182/182 170/170/170 183/183/183
f 184/184/184 183/183/183 170/170/170
f 184/184/184 170/170/170 169/169/169
f 155/155/155 185/185/185 186/186/186
f 155/155/155 186/186/186 187/187/187
f 161/161/161 187/187/187 186/186/186
f 161/161/161 186/186/186 160/160/160
f 84/84/84 160/160/160 186/186/186
f 84/84/84 186/186/186 188/188/188
f 189/189/189 188/188/188 186/186/186
f 189/189/189 186/186/186 190/190/190
f 191/191/191 190/190/190 186/186/186
f 191/191/191 186/186/186 185/185/185
f 167/167/167 192/192/192 193/193/193
f 167/167/167 193/193/193 165/165/165
f 166/166/166 165/165/165 193/193/193
f 166/166/166 193/193/193 194/194/194
f 130/130/130 194/194/194 193/193/193
f 130/130/130 193/193/193 131/131/131
f 138/138/138 131/131/131 193/193/193
f 138/138/138 193/193/193 195/195/195
f 196/196/196 195/195/195 193/193/193
f 196/196/196 193/193/193 192/192/192
f 84/84/84 188/188/188 197/197/197
f 84/84/84 197/197/197 82/82/82
f 83/83/83 82/82/82 197/197/197
f 83/83/83 197/197/197 198/198/198
f 199/199/199 198/198/198 197/197/197
f 199/199/199 197/197/197 200/200/200
f 167/167/167 200/200/200 197/197/197
f 167/167/167 197/197/197 192/192/192
f 196/196/196 192/192/192 197/197/197
f 196/196/196 197/197/197 201/201/201
f 189/189/189 201/201/201 197/197/197
f 189/189/189 197/197/197 188/188/188
f 144/144/144 202/202/202 203/203/203
f 144/144/144 203/203/203 142/142/142
f 142/142/142 203/203/203 204/204/204
f 142/142/142 204/204/204 143/143/143
f 203/203/203 205/205/205 206/206/206
f 203/203/203 206/206/206 204/204/204
f 202/202/202 207/207/207 205/205/205
f 202/202/202 205/205/205 203/203/203
f 135/135/135 134/134/134 208/208/208
f 135/135/135 208/208/208 147/147/147
f 147/147/147 208/208/208 202/202/202
f 147/147/147 202/202/202 144/144/144
f 208/208/208 209/209/209 207/207/207
f 208/208/208 207/207/207 202/202/202
f 134/134/134 137/137/137 209/209/209
f 134/134/134 209/209/209 208/208/208
f 143/143/143 204/204/204 210/210/210
f 143/143/143 210/210/210 150/150/150
f 150/150/150 210/210/210 211/211/211
f 150/150/150 211/211/211 151/151/151
f 210/210/210 212/212/212 213/213/213
f 210/210/210 213/213/213 211/211/211
f 204/204/204 206/206/206 212/212/212
f 204/204/204 212/212/212 210/210/210
f 151/151/151 211/211/211 214/214/214
f 151/151/151 214/214/214 154/154/154
f 154/154/154 214/214/214 185/185/185
f 154/154/154 185/185/185 155/155/155
f 214/214/214 215/215/215 191/191/191
f 214/214/214 191/191/191 185/185/185
f 211/211/211 213/213/213 215/215/215
f 211/211/211 215/215/215 214/214/214
f 168/168/168 216/216/216 217/217/217
f 168/168/168 217/217/217 169/169/169
f 169/169/169 217/217/217 218/218/218
f 169/169/169 218/218/218 184/184/184
f 217/217/217 195/195/195 196/196/196
f 217/217/217 196/196/196 218/218/218
f 216/216/216 138/138/138 195/195/195
f 216/216/216 195/195/195 217/217/217
f 178/178/178 219/219/219 220/220/220
f 178/178/178 220/220/220 177/177/177
f 177/177/177 220/220/220 221/221/221
f 177/177/177 221/221/221 176/176/176
f 220/220/220 212/212/212 206/206/206
f 220/220/220 206/206/206 221/221/221
f 219/219/219 213/213/213 212/212/212
f 219/219/219 212/212/212 220/220/220
f 182/182/182 222/222/222 223/223/223
f 182/182/182 223/223/223 181/181/181
f 181/181/181 223/223/223 224/224/224
f 181/181/181 224/224/224 180/180/180
f 223/223/223 190/190/190 191/191/191
f 223/223/223 191/191/191 224/224/224
f 222/222/222 189/189/189 190/190/190
f 222/222/222 190/190/190 223/223/223
f 174/174/174 225/225/225 226/226/226
f 174/174/174 226/226/226 173/173/173
f 173/173/173 226/226/226 227/227/227
f 173/173/173 227/227/227 172/172/172
f 226/226/226 209/209/209 137/137/137
f 226/226/226 137/137/137 227/227/227
f 225/225/225 207/207/207 209/209/209
f 225/225/225 209/209/209 226/226/226
f 172/172/172 227/227/227 228/228/228
f 172/172/172 228/228/228 171/171/171
f 171/171/171 228/228/228 216/216/216
f 171/171/171 216/216/216 168/168/168
f 228/228/228 136/136/136 138/138/138
f 228/228/228 138/138/138 216/216/216
f 227/227/227 137/137/137 136/136/136
f 227/227/227 136/136/136 228/228/228
f 176/176/176 221/221/221 229/229/229
f 176/176/176 229/229/229 175/175/175
f 175/175/175 229/229/229 225/225/225
f 175/175/175 225/225/225 174/174/174
f 229/229/229 205/205/205 207/207/207
f 229/229/229 207/207/207 225/225/225
f 221/221/221 206/206/206 205/205/205
f 221/221/221 205/205/205 229/229/229
f 180/180/180 224/224/224 230/230/230
f 180/180/180 230/230/230 179/179/179
f 179/179/179 230/230/230 219/219/219
f 179/179/179 219/219/219 178/178/178
f 230/230/230 215/215/215 213/213/213
f 230/230/230 213/213/213 219/219/219
f 224/224/224 191/191/191 215/215/215
f 224/224/224 215/215/215 230/230/230
f 184/184/184 218/218/218 231/231/231
f 184/184/184 231/231/231 183/183/183
f 183/183/183 231/231/231 222/222/222
f 183/183/183 222/222/222 182/182/182
f 231/231/231 201/201/201 189/189/189
f 231/231/231 189/189/189 222/222/222
f 218/218/218 196/196/196 201/201/201
f 218/218/218 201/201/201 231/231/231
f 232/232/232 233/233/233 234/234/234
f 232/232/232 234/234/234 235/235/235
f 235/235/235 234/234/234 236/236/236
f 235/235/235 236/236/236 237/237/237
f 234/234/234 73/73/73 27/27/27
f 234/234/234 27/27/27 236/236/236
f 233/233/233 70/70/70 73/73/73
f 233/233/233 73/73/73 234/234/234
f 238/238/238 239/239/239 240/240/240
f 238/238/238 240/240/240 241/241/241
f 241/241/241 240/240/240 64/64/64
f 241/241/241 64/64/64 51/51/51
f 240/240/240 242/242/242 69/69/69
f 240/240/240 69/69/69 64/64/64
f 239/239/239 243/243/243 242/242/242
f 239/239/239 242/242/242 240/240/240
f 244/244/244 245/245/245 246/246/246
f 244/244/244 246/246/246 247/247/247
f 247/247/247 246/246/246 59/59/59
f 247/247/247 59/59/59 58/58/58
f 246/246/246 248/248/248 52/52/52
f 246/246/246 52/52/52 59/59/59
f 245/245/245 249/249/249 248/248/248
f 245/245/245 248/248/248 246/246/246
f 249/249/249 250/250/250 251/251/251
f 249/249/249 251/251/251 248/248/248
f 248/248/248 251/251/251 53/53/53
f 248/248/248 53/53/53 52/52/52
f 251/251/251 252/252/252 37/37/37
f 251/251/251 37/37/37 53/53/53
f 250/250/250 253/253/253 252/252/252
f 250/250/250 252/252/252 251/251/251
f 254/254/254 255/255/255 256/256/256
f 254/254/254 256/256/256 257/257/257
f 257/257/257 256/256/256 46/46/46
f 257/257/257 46/46/46 45/45/45
f 256/256/256 241/241/241 51/51/51
f 256/256/256 51/51/51 46/46/46
f 255/255/255 238/238/238 241/241/241
f 255/255/255 241/241/241 256/256/256
f 253/253/253 258/258/258 259/259/259
f 253/253/253 259/259/259 252/252/252
f 252/252/252 259/259/259 38/38/38
f 252/252/252 38/38/38 37/37/37
f 259/259/259 257/257/257 45/45/45
f 259/259/259 45/45/45 38/38/38
f 258/258/258 254/254/254 257/257/257
f 258/258/258 257/257/257 259/259/259
f 260/260/260 261/261/261 262/262/262
f 260/260/260 262/262/262 263/263/263
f 263/263/263 262/262/262 20/20/20
f 263/263/263 20/20/20 19/19/19
f 262/262/262 236/236/236 27/27/27
f 262/262/262 27/27/27 20/20/20
f 261/261/261 237/237/237 236/236/236
f 261/261/261 236/236/236 262/262/262
f 264/264/264 265/265/265 266/266/266
f 264/264/264 266/266/266 267/267/267
f 267/267/267 266/266/266 11/11/11
f 267/267/267 11/11/11 10/10/10
f 266/266/266 268/268/268 18/18/18
f 266/266/266 18/18/18 11/11/11
f 265/265/265 269/269/269 268/268/268
f 265/265/265 268/268/268 266/266/266
f 270/270/270 271/271/271 272/272/272
f 270/270/270 272/272/272 273/273/273
f 273/273/273 272/272/272 265/265/265
f 273/273/273 265/265/265 264/264/264
f 272/272/272 274/274/274 269/269/269
f 272/272/272 269/269/269 265/265/265
f 271/271/271 275/275/275 274/274/274
f 271/271/271 274/274/274 272/272/272
f 276/276/276 277/277/277 278/278/278
f 276/276/276 278/278/278 279/279/279
f 279/279/279 278/278/278 261/261/261
f 279/279/279 261/261/261 260/260/260
f 278/278/278 280/280/280 237/237/237
f 278/278/278 237/237/237 261/261/261
f 277/277/277 281/281/281 280/280/280
f 277/277/277 280/280/280 278/278/278
f 282/282/282 283/283/283 284/284/284
f 282/282/282 284/284/284 285/285/285
f 285/285/285 284/284/284 258/258/258
f 285/285/285 258/258/258 253/253/253
f 284/284/284 286/286/286 254/254/254
f 284/284/284 254/254/254 258/258/258
f 283/283/283 287/287/287 286/286/286
f 283/283/283 286/286/286 284/284/284
f 287/287/287 288/288/288 289/289/289
f 287/287/287 289/289/289 286/286/286
f 286/286/286 289/289/289 255/255/255
f 286/286/286 255/255/255 254/254/254
f 289/289/289 290/290/290 238/238/238
f 289/289/289 238/238/238 255/255/255
f 288/288/288 291/291/291 290/290/290
f 288/288/288 290/290/290 289/289/289
f 292/292/292 293/293/293 294/294/294
f 292/292/292 294/294/294 295/295/295
f 295/295/295 294/294/294 250/250/250
f 295/295/295 250/250/250 249/249/249
f 294/294/294 285/285/285 253/253/253
f 294/294/294 253/253/253 250/250/250
f 293/293/293 282/282/282 285/285/285
f 293/293/293 285/285/285 294/294/294
f 296/296/296 297/297/297 298/298/298
f 296/296/296 298/298/298 299/299/299
f 299/299/299 298/298/298 245/245/245
f 299/299/299 245/245/245 244/244/244
f 298/298/298 295/295/295 249/249/249
f 298/298/298 249/249/249 245/245/245
f 297/297/297 292/292/292 295/295/295
f 297/297/297 295/295/295 298/298/298
f 291/291/291 300/300/300 301/301/301
f 291/291/291 301/301/301 290/290/290
f 290/290/290 301/301/301 239/239/239
f 290/290/290 239/239/239 238/238/238
f 301/301/301 302/302/302 243/243/243
f 301/301/301 243/243/243 239/239/239
f 300/300/300 303/303/303 302/302/302
f 300/300/300 302/302/302 301/301/301
f 304/304/304 305/305/305 306/306/306
f 304/304/304 306/306/306 307/307/307
f 307/307/307 306/306/306 280/280/280
f 307/307/307 280/280/280 281/281/281
f 306/306/306 235/235/235 237/237/237
f 306/306/306 237/237/237 280/280/280
f 305/305/305 232/232/232 235/235/235
f 305/305/305 235/235/235 306/306/306
f 308/308/308 309/309/309 310/310/310
f 308/308/308 310/310/310 311/311/311
f 312/312/312 311/311/311 310/310/310
f 312/312/312 310/310/310 313/313/313
f 281/281/281 313/313/313 310/310/310
f 281/281/281 310/310/310 307/307/307
f 304/304/304 307/307/307 310/310/310
f 304/304/304 310/310/310 314/314/314
f 296/296/296 314/314/314 310/310/310
f 296/296/296 310/310/310 309/309/309
f 315/315/315 316/316/316 317/317/317
f 315/315/315 317/317/317 318/318/318
f 318/318/318 317/317/317 300/300/300
f 318/318/318 300/300/300 291/291/291
f 317/317/317 319/319/319 303/303/303
f 317/317/317 303/303/303 300/300/300
f 316/316/316 320/320/320 319/319/319
f 316/316/316 319/319/319 317/317/317
f 308/308/308 321/321/321 322/322/322
f 308/308/308 322/322/322 309/309/309
f 309/309/309 322/322/322 297/297/297
f 309/309/309 297/297/297 296/296/296
f 322/322/322 323/323/323 292/292/292
f 322/322/322 292/292/292 297/297/297
f 321/321/321 324/324/324 323/323/323
f 321/321/321 323/323/323 322/322/322
f 324/324/324 325/325/325 326/326/326
f 324/324/324 326/326/326 323/323/323
f 323/323/323 326/326/326 293/293/293
f 323/323/323 293/293/293 292/292/292
f 326/326/326 327/327/327 282/282/282
f 326/326/326 282/282/282 293/293/293
f 325/325/325 328/328/328 327/327/327
f 325/325/325 327/327/327 326/326/326
f 329/329/329 330/330/330 331/331/331
f 329/329/329 331/331/331 332/332/332
f 332/332/332 331/331/331 288/288/288
f 332/332/332 288/288/288 287/287/287
f 331/331/331 318/318/318 291/291/291
f 331/331/331 291/291/291 288/288/288
f 330/330/330 315/315/315 318/318/318
f 330/330/330 318/318/318 331/331/331
f 328/328/328 333/333/333 334/334/334
f 328/328/328 334/334/334 327/327/327
f 327/327/327 334/334/334 283/283/283
f 327/327/327 283/283/283 282/282/282
f 334/334/334 332/332/332 287/287/287
f 334/334/334 287/287/287 283/283/283
f 333/333/333 329/329/329 332/332/332
f 333/333/333 332/332/332 334/334/334
f 335/335/335 336/336/336 337/337/337
f 335/335/335 337/337/337 338/338/338
f 275/275/275 338/338/338 337/337/337
f 275/275/275 337/337/337 339/339/339
f 340/340/340 339/339/339 337/337/337
f 340/340/340 337/337/337 341/341/341
f 276/276/276 341/341/341 337/337/337
f 276/276/276 337/337/337 277/277/277
f 281/281/281 277/277/277 337/337/337
f 281/281/281 337/337/337 313/313/313
f 312/312/312 313/313/313 337/337/337
f 312/312/312 337/337/337 336/336/336
f 320/320/320 342/342/342 343/343/343
f 320/320/320 343/343/343 319/319/319
f 303/303/303 319/319/319 343/343/343
f 303/303/303 343/343/343 344/344/344
f 270/270/270 344/344/344 343/343/343
f 270/270/270 343/343/343 271/271/271
f 275/275/275 271/271/271 343/343/343
f 275/275/275 343/343/343 338/338/338
f 335/335/335 338/338/338 343/343/343
f 335/335/335 343/343/343 342/342/342
f 345/345/345 346/346/346 347/347/347
f 345/345/345 347/347/347 348/348/348
f 348/348/348 347/347/347 349/349/349
f 348/348/348 349/349/349 350/350/350
f 347/347/347 351/351/351 352/352/352
f 347/347/347 352/352/352 349/349/349
f 346/346/346 353/353/353 351/351/351
f 346/346/346 351/351/351 347/347/347
f 353/353/353 354/354/354 355/355/355
f 353/353/353 355/355/355 351/351/351
f 351/351/351 355/355/355 356/356/356
f 351/351/351 356/356/356 352/352/352
f 355/355/355 357/357/357 358/358/358
f 355/355/355 358/358/358 356/356/356
f 354/354/354 359/359/359 357/357/357
f 354/354/354 357/357/357 355/355/355
f 360/360/360 361/361/361 362/362/362
f 360/360/360 362/362/362 363/363/363
f 363/363/363 362/362/362 364/364/364
f 363/363/363 364/364/364 365/365/365
f 362/362/362 366/366/366 367/367/367
f 362/362/362 367/367/367 364/364/364
f 361/361/361 368/368/368 366/366/366
f 361/361/361 366/366/366 362/362/362
f 368/368/368 369/369/369 370/370/370
f 368/368/368 370/370/370 366/366/366
f 366/366/366 370/370/370 371/371/371
f 366/366/366 371/371/371 367/367/367
f 370/370/370 372/372/372 373/373/373
f 370/370/370 373/373/373 371/371/371
f 369/369/369 374/374/374 372/372/372
f 369/369/369 372/372/372 370/370/370
f 375/375/375 376/376/376 377/377/377
f 375/375/375 377/377/377 378/378/378
f 378/378/378 377/377/377 379/379/379
f 378/378/378 379/379/379 380/380/380
f 377/377/377 363/363/363 365/365/365
f 377/377/377 365/365/365 379/379/379
f 376/376/376 360/360/360 363/363/363
f 376/376/376 363/363/363 377/377/377
f 381/381/381 382/382/382 383/383/383
f 381/381/381 383/383/383 384/384/384
f 384/384/384 383/383/383 385/385/385
f 384/384/384 385/385/385 386/386/386
f 383/383/383 378/378/378 380/380/380
f 383/383/383 380/380/380 385/385/385
f 382/382/382 375/375/375 378/378/378
f 382/382/382 378/378/378 383/383/383
f 374/374/374 387/387/387 388/388/388
f 374/374/374 388/388/388 372/372/372
f 372/372/372 388/388/388 389/389/389
f 372/372/372 389/389/389 373/373/373
f 388/388/388 348/348/348 350/350/350
f 388/388/388 350/350/350 389/389/389
f 387/387/387 345/345/345 348/348/348
f 387/387/387 348/348/348 388/388/388
f 381/381/381 384/384/384 390/390/390
f 381/381/381 390/390/390 391/391/391
f 391/391/391 390/390/390 357/357/357
f 391/391/391 357/357/357 359/359/359
f 390/390/390 392/392/392 358/358/358
f 390/390/390 358/358/358 357/357/357
f 384/384/384 386/386/386 392/392/392
f 384/384/384 392/392/392 390/390/390
f 393/393/393 394/394/394 395/395/395
f 393/393/393 395/395/395 396/396/396
f 396/396/396 395/395/395 397/397/397
f 396/396/396 397/397/397 398/398/398
f 395/395/395 399/399/399 400/400/400
f 395/395/395 400/400/400 397/397/397
f 394/394/394 401/401/401 399/399/399
f 394/394/394 399/399/399 395/395/395
f 1/1/1 402/402/402 403/403/403
f 1/1/1 403/403/403 2/2/2
f 2/2/2 403/403/403 404/404/404
f 2/2/2 404/404/404 9/9/9
f 403/403/403 405/405/405 406/406/406
f 403/403/403 406/406/406 404/404/404
f 402/402/402 407/407/407 405/405/405
f 402/402/402 405/405/405 403/403/403
f 407/407/407 408/408/408 409/409/409
f 407/407/407 409/409/409 405/405/405
f 405/405/405 409/409/409 410/410/410
f 405/405/405 410/410/410 406/406/406
f 409/409/409 411/411/411 412/412/412
f 409/409/409 412/412/412 410/410/410
f 408/408/408 413/413/413 411/411/411
f 408/408/408 411/411/411 409/409/409
f 414/414/414 415/415/415 416/416/416
f 414/414/414 416/416/416 417/417/417
f 417/417/417 416/416/416 418/418/418
f 417/417/417 418/418/418 419/419/419
f 416/416/416 396/396/396 398/398/398
f 416/416/416 398/398/398 418/418/418
f 415/415/415 393/393/393 396/396/396
f 415/415/415 396/396/396 416/416/416
f 413/413/413 420/420/420 421/421/421
f 413/413/413 421/421/421 411/411/411
f 411/411/411 421/421/421 422/422/422
f 411/411/411 422/422/422 412/412/412
f 421/421/421 417/417/417 419/419/419
f 421/421/421 419/419/419 422/422/422
f 420/420/420 414/414/414 417/417/417
f 420/420/420 417/417/417 421/421/421
f 423/423/423 424/424/424 425/425/425
f 423/423/423 425/425/425 426/426/426
f 426/426/426 425/425/425 427/427/427
f 426/426/426 427/427/427 428/428/428
f 425/425/425 5/5/5 8/8/8
f 425/425/425 8/8/8 427/427/427
f 424/424/424 6/6/6 5/5/5
f 424/424/424 5/5/5 425/425/425
f 401/401/401 429/429/429 430/430/430
f 401/401/401 430/430/430 399/399/399
f 399/399/399 430/430/430 431/431/431
f 399/399/399 431/431/431 400/400/400
f 430/430/430 426/426/426 428/428/428
f 430/430/430 428/428/428 431/431/431
f 429/429/429 423/423/423 426/426/426
f 429/429/429 426/426/426 430/430/430
f 44/44/44 432/432/432 433/433/433
f 44/44/44 433/433/433 41/41/41
f 41/41/41 433/433/433 434/434/434
f 41/41/41 434/434/434 42/42/42
f 433/433/433 128/128/128 85/85/85
f 433/433/433 85/85/85 434/434/434
f 432/432/432 33/33/33 128/128/128
f 432/432/432 128/128/128 433/433/433
f 26/26/26 435/435/435 436/436/436
f 26/26/26 436/436/436 23/23/23
f 23/23/23 436/436/436 437/437/437
f 23/23/23 437/437/437 24/24/24
f 436/436/436 124/124/124 126/126/126
f 436/436/436 126/126/126 437/437/437
f 435/435/435 111/111/111 124/124/124
f 435/435/435 124/124/124 436/436/436
f 17/17/17 438/438/438 439/439/439
f 17/17/17 439/439/439 14/14/14
f 14/14/14 439/439/439 440/440/440
f 14/14/14 440/440/440 15/15/15
f 439/439/439 117/117/117 119/119/119
f 439/439/439 119/119/119 440/440/440
f 438/438/438 114/114/114 117/117/117
f 438/438/438 117/117/117 439/439/439
f 75/75/75 441/441/441 442/442/442
f 75/75/75 442/442/442 74/74/74
f 74/74/74 442/442/442 435/435/435
f 74/74/74 435/435/435 26/26/26
f 442/442/442 109/109/109 111/111/111
f 442/442/442 111/111/111 435/435/435
f 441/441/441 106/106/106 109/109/109
f 441/441/441 109/109/109 442/442/442
f 68/68/68 443/443/443 444/444/444
f 68/68/68 444/444/444 66/66/66
f 66/66/66 444/444/444 445/445/445
f 66/66/66 445/445/445 50/50/50
f 444/444/444 103/103/103 28/28/28
f 444/444/444 28/28/28 445/445/445
f 443/443/443 100/100/100 103/103/103
f 443/443/443 103/103/103 444/444/444
f 57/57/57 446/446/446 447/447/447
f 57/57/57 447/447/447 62/62/62
f 62/62/62 447/447/447 448/448/448
f 62/62/62 448/448/448 63/63/63
f 447/447/447 95/95/95 97/97/97
f 447/447/447 97/97/97 448/448/448
f 446/446/446 90/90/90 95/95/95
f 446/446/446 95/95/95 447/447/447
f 42/42/42 434/434/434 449/449/449
f 42/42/42 449/449/449 56/56/56
f 56/56/56 449/449/449 446/446/446
f 56/56/56 446/446/446 57/57/57
f 449/449/449 88/88/88 90/90/90
f 449/449/449 90/90/90 446/446/446
f 434/434/434 85/85/85 88/88/88
f 434/434/434 88/88/88 449/449/449
f 50/50/50 445/445/445 450/450/450
f 50/50/50 450/450/450 48/48/48
f 48/48/48 450/450/450 432/432/432
f 48/48/48 432/432/432 44/44/44
f 450/450/450 31/31/31 33/33/33
f 450/450/450 33/33/33 432/432/432
f 445/445/445 28/28/28 31/31/31
f 445/445/445 31/31/31 450/450/450
f 244/244/244 247/247/247 451/451/451
f 244/244/244 451/451/451 452/452/452
f 452/452/452 451/451/451 233/233/233
f 452/452/452 233/233/233 232/232/232
f 451/451/451 453/453/453 70/70/70
f 451/451/451 70/70/70 233/233/233
f 247/247/247 58/58/58 453/453/453
f 247/247/247 453/453/453 451/451/451
f 18/18/18 454/454/454 455/455/455
f 18/18/18 455/455/455 16/16/16
f 16/16/16 455/455/455 456/456/456
f 16/16/16 456/456/456 17/17/17
f 455/455/455 457/457/457 458/458/458
f 455/455/455 458/458/458 456/456/456
f 454/454/454 459/459/459 457/457/457
f 454/454/454 457/457/457 455/455/455
f 58/58/58 61/61/61 460/460/460
f 58/58/58 460/460/460 453/453/453
f 453/453/453 460/460/460 71/71/71
f 453/453/453 71/71/71 70/70/70
f 460/460/460 461/461/461 75/75/75
f 460/460/460 75/75/75 71/71/71
f 61/61/61 63/63/63 461/461/461
f 61/61/61 461/461/461 460/460/460
f 458/458/458 462/462/462 463/463/463
f 458/458/458 463/463/463 456/456/456
f 456/456/456 463/463/463 438/438/438
f 456/456/456 438/438/438 17/17/17
f 463/463/463 464/464/464 114/114/114
f 463/463/463 114/114/114 438/438/438
f 462/462/462 465/465/465 464/464/464
f 462/462/462 464/464/464 463/463/463
f 465/465/465 466/466/466 467/467/467
f 465/465/465 467/467/467 464/464/464
f 464/464/464 467/467/467 115/115/115
f 464/464/464 115/115/115 114/114/114
f 467/467/467 468/468/468 122/122/122
f 467/467/467 122/122/122 115/115/115
f 466/466/466 469/469/469 468/468/468
f 466/466/466 468/468/468 467/467/467
f 63/63/63 448/448/448 470/470/470
f 63/63/63 470/470/470 461/461/461
f 461/461/461 470/470/470 441/441/441
f 461/461/461 441/441/441 75/75/75
f 470/470/470 471/471/471 106/106/106
f 470/470/470 106/106/106 441/441/441
f 448/448/448 97/97/97 471/471/471
f 448/448/448 471/471/471 470/470/470
f 97/97/97 96/96/96 472/472/472
f 97/97/97 472/472/472 471/471/471
f 471/471/471 472/472/472 107/107/107
f 471/471/471 107/107/107 106/106/106
f 472/472/472 473/473/473 113/113/113
f 472/472/472 113/113/113 107/107/107
f 96/96/96 99/99/99 473/473/473
f 96/96/96 473/473/473 472/472/472
f 469/469/469 474/474/474 475/475/475
f 469/469/469 475/475/475 468/468/468
f 468/468/468 475/475/475 162/162/162
f 468/468/468 162/162/162 122/122/122
f 475/475/475 200/200/200 167/167/167
f 475/475/475 167/167/167 162/162/162
f 474/474/474 199/199/199 200/200/200
f 474/474/474 200/200/200 475/475/475
f 99/99/99 153/153/153 476/476/476
f 99/99/99 476/476/476 473/473/473
f 473/473/473 476/476/476 158/158/158
f 473/473/473 158/158/158 113/113/113
f 476/476/476 187/187/187 161/161/161
f 476/476/476 161/161/161 158/158/158
f 153/153/153 155/155/155 187/187/187
f 153/153/153 187/187/187 476/476/476
f 269/269/269 477/477/477 478/478/478
f 269/269/269 478/478/478 268/268/268
f 268/268/268 478/478/478 454/454/454
f 268/268/268 454/454/454 18/18/18
f 478/478/478 479/479/479 459/459/459
f 478/478/478 459/459/459 454/454/454
f 477/477/477 480/480/480 479/479/479
f 477/477/477 479/479/479 478/478/478
f 296/296/296 299/299/299 481/481/481
f 296/296/296 481/481/481 314/314/314
f 314/314/314 481/481/481 305/305/305
f 314/314/314 305/305/305 304/304/304
f 481/481/481 452/452/452 232/232/232
f 481/481/481 232/232/232 305/305/305
f 299/299/299 244/244/244 452/452/452
f 299/299/299 452/452/452 481/481/481
f 275/275/275 339/339/339 482/482/482
f 275/275/275 482/482/482 274/274/274
f 274/274/274 482/482/482 477/477/477
f 274/274/274 477/477/477 269/269/269
f 482/482/482 483/483/483 480/480/480
f 482/482/482 480/480/480 477/477/477
f 339/339/339 340/340/340 483/483/483
f 339/339/339 483/483/483 482/482/482
f 119/119/119 118/118/118 484/484/484
f 119/119/119 484/484/484 485/485/485
f 485/485/485 484/484/484 101/101/101
f 485/485/485 101/101/101 100/100/100
f 484/484/484 486/486/486 105/105/105
f 484/484/484 105/105/105 101/101/101
f 118/118/118 121/121/121 486/486/486
f 118/118/118 486/486/486 484/484/484
f 24/24/24 437/437/437 487/487/487
f 24/24/24 487/487/487 488/488/488
f 488/488/488 487/487/487 462/462/462
f 488/488/488 462/462/462 458/458/458
f 487/487/487 489/489/489 465/465/465
f 487/487/487 465/465/465 462/462/462
f 437/437/437 126/126/126 489/489/489
f 437/437/437 489/489/489 487/487/487
f 459/459/459 490/490/490 491/491/491
f 459/459/459 491/491/491 457/457/457
f 457/457/457 491/491/491 488/488/488
f 457/457/457 488/488/488 458/458/458
f 491/491/491 22/22/22 24/24/24
f 491/491/491 24/24/24 488/488/488
f 490/490/490 19/19/19 22/22/22
f 490/490/490 22/22/22 491/491/491
f 15/15/15 440/440/440 492/492/492
f 15/15/15 492/492/492 493/493/493
f 493/493/493 492/492/492 443/443/443
f 493/493/493 443/443/443 68/68/68
f 492/492/492 485/485/485 100/100/100
f 492/492/492 100/100/100 443/443/443
f 440/440/440 119/119/119 485/485/485
f 440/440/440 485/485/485 492/492/492
f 126/126/126 125/125/125 494/494/494
f 126/126/126 494/494/494 489/489/489
f 489/489/489 494/494/494 466/466/466
f 489/489/489 466/466/466 465/465/465
f 494/494/494 495/495/495 469/469/469
f 494/494/494 469/469/469 466/466/466
f 125/125/125 81/81/81 495/495/495
f 125/125/125 495/495/495 494/494/494
f 121/121/121 164/164/164 496/496/496
f 121/121/121 496/496/496 486/486/486
f 486/486/486 496/496/496 156/156/156
f 486/486/486 156/156/156 105/105/105
f 496/496/496 194/194/194 130/130/130
f 496/496/496 130/130/130 156/156/156
f 164/164/164 166/166/166 194/194/194
f 164/164/164 194/194/194 496/496/496
f 81/81/81 80/80/80 497/497/497
f 81/81/81 497/497/497 495/495/495
f 495/495/495 497/497/497 474/474/474
f 495/495/495 474/474/474 469/469/469
f 497/497/497 198/198/198 199/199/199
f 497/497/497 199/199/199 474/474/474
f 80/80/80 83/83/83 198/198/198
f 80/80/80 198/198/198 497/497/497
f 69/69/69 498/498/498 499/499/499
f 69/69/69 499/499/499 67/67/67
f 67/67/67 499/499/499 493/493/493
f 67/67/67 493/493/493 68/68/68
f 499/499/499 13/13/13 15/15/15
f 499/499/499 15/15/15 493/493/493
f 498/498/498 10/10/10 13/13/13
f 498/498/498 13/13/13 499/499/499
f 480/480/480 500/500/500 501/501/501
f 480/480/480 501/501/501 479/479/479
f 479/479/479 501/501/501 490/490/490
f 479/479/479 490/490/490 459/459/459
f 501/501/501 263/263/263 19/19/19
f 501/501/501 19/19/19 490/490/490
f 500/500/500 260/260/260 263/263/263
f 500/500/500 263/263/263 501/501/501
f 243/243/243 502/502/502 503/503/503
f 243/243/243 503/503/503 242/242/242
f 242/242/242 503/503/503 498/498/498
f 242/242/242 498/498/498 69/69/69
f 503/503/503 267/267/267 10/10/10
f 503/503/503 10/10/10 498/498/498
f 502/502/502 264/264/264 267/267/267
f 502/502/502 267/267/267 503/503/503
f 340/340/340 341/341/341 504/504/504
f 340/340/340 504/504/504 483/483/483
f 483/483/483 504/504/504 500/500/500
f 483/483/483 500/500/500 480/480/480
f 504/504/504 279/279/279 260/260/260
f 504/504/504 260/260/260 500/500/500
f 341/341/341 276/276/276 279/279/279
f 341/341/341 279/279/279 504/504/504
f 303/303/303 344/344/344 505/505/505
f 303/303/303 505/505/505 302/302/302
f 302/302/302 505/505/505 502/502/502
f 302/302/302 502/502/502 243/243/243
f 505/505/505 273/273/273 264/264/264
f 505/505/505 264/264/264 502/502/502
f 344/344/344 270/270/270 273/273/273
f 344/344/344 273/273/273 505/505/505
f 506/506/506 507/507/507 508/508/508
f 506/506/506 508/508/508 509/509/509
f 509/509/509 508/508/508 333/333/333
f 509/509/509 333/333/333 328/328/328
f 508/508/508 510/510/510 329/329/329
f 508/508/508 329/329/329 333/333/333
f 507/507/507 511/511/511 510/510/510
f 507/507/507 510/510/510 508/508/508
f 511/511/511 512/512/512 513/513/513
f 511/511/511 513/513/513 510/510/510
f 510/510/510 513/513/513 330/330/330
f 510/510/510 330/330/330 329/329/329
f 513/513/513 514/514/514 315/315/315
f 513/513/513 315/315/315 330/330/330
f 512/512/512 515/515/515 514/514/514
f 512/512/512 514/514/514 513/513/513
f 516/516/516 517/517/517 518/518/518
f 516/516/516 518/518/518 519/519/519
f 519/519/519 518/518/518 325/325/325
f 519/519/519 325/325/325 324/324/324
f 518/518/518 509/509/509 328/328/328
f 518/518/518 328/328/328 325/325/325
f 517/517/517 506/506/506 509/509/509
f 517/517/517 509/509/509 518/518/518
f 520/520/520 521/521/521 522/522/522
f 520/520/520 522/522/522 523/523/523
f 523/523/523 522/522/522 321/321/321
f 523/523/523 321/321/321 308/308/308
f 522/522/522 519/519/519 324/324/324
f 522/522/522 324/324/324 321/321/321
f 521/521/521 516/516/516 519/519/519
f 521/521/521 519/519/519 522/522/522
f 515/515/515 524/524/524 525/525/525
f 515/515/515 525/525/525 514/514/514
f 514/514/514 525/525/525 316/316/316
f 514/514/514 316/316/316 315/315/315
f 525/525/525 526/526/526 320/320/320
f 525/525/525 320/320/320 316/316/316
f 524/524/524 527/527/527 526/526/526
f 524/524/524 526/526/526 525/525/525
f 528/528/528 529/529/529 530/530/530
f 528/528/528 530/530/530 531/531/531
f 531/531/531 530/530/530 336/336/336
f 531/531/531 336/336/336 335/335/335
f 530/530/530 532/532/532 312/312/312
f 530/530/530 312/312/312 336/336/336
f 529/529/529 533/533/533 532/532/532
f 529/529/529 532/532/532 530/530/530
f 520/520/520 523/523/523 534/534/534
f 520/520/520 534/534/534 535/535/535
f 535/535/535 534/534/534 532/532/532
f 535/535/535 532/532/532 533/533/533
f 534/534/534 311/311/311 312/312/312
f 534/534/534 312/312/312 532/532/532
f 523/523/523 308/308/308 311/311/311
f 523/523/523 311/311/311 534/534/534
f 527/527/527 536/536/536 537/537/537
f 527/527/527 537/537/537 526/526/526
f 526/526/526 537/537/537 342/342/342
f 526/526/526 342/342/342 320/320/320
f 537/537/537 531/531/531 335/335/335
f 537/537/537 335/335/335 342/342/342
f 536/536/536 528/528/528 531/531/531
f 536/536/536 531/531/531 537/537/537
f 9/9/9 538/538/538 539/539/539
f 9/9/9 539/539/539 7/7/7
f 7/7/7 539/539/539 540/540/540
f 7/7/7 540/540/540 8/8/8
f 539/539/539 391/391/391 359/359/359
f 539/539/539 359/359/359 540/540/540
f 538/538/538 381/381/381 391/391/391
f 538/538/538 391/391/391 539/539/539
f 398/398/398 397/397/397 541/541/541
f 398/398/398 541/541/541 542/542/542
f 542/542/542 541/541/541 387/387/387
f 542/542/542 387/387/387 374/374/374
f 541/541/541 543/543/543 345/345/345
f 541/541/541 345/345/345 387/387/387
f 397/397/397 400/400/400 543/543/543
f 397/397/397 543/543/543 541/541/541
f 9/9/9 404/404/404 544/544/544
f 9/9/9 544/544/544 538/538/538
f 538/538/538 544/544/544 382/382/382
f 538/538/538 382/382/382 381/381/381
f 544/544/544 545/545/545 375/375/375
f 544/544/544 375/375/375 382/382/382
f 404/404/404 406/406/406 545/545/545
f 404/404/404 545/545/545 544/544/544
f 406/406/406 410/410/410 546/546/546
f 406/406/406 546/546/546 545/545/545
f 545/545/545 546/546/546 376/376/376
f 545/545/545 376/376/376 375/375/375
f 546/546/546 547/547/547 360/360/360
f 546/546/546 360/360/360 376/376/376
f 410/410/410 412/412/412 547/547/547
f 410/410/410 547/547/547 546/546/546
f 419/419/419 418/418/418 548/548/548
f 419/419/419 548/548/548 549/549/549
f 549/549/549 548/548/548 369/369/369
f 549/549/549 369/369/369 368/368/368
f 548/548/548 542/542/542 374/374/374
f 548/548/548 374/374/374 369/369/369
f 418/418/418 398/398/398 542/542/542
f 418/418/418 542/542/542 548/548/548
f 412/412/412 422/422/422 550/550/550
f 412/412/412 550/550/550 547/547/547
f 547/547/547 550/550/550 361/361/361
f 547/547/547 361/361/361 360/360/360
f 550/550/550 549/549/549 368/368/368
f 550/550/550 368/368/368 361/361/361
f 422/422/422 419/419/419 549/549/549
f 422/422/422 549/549/549 550/550/550
f 428/428/428 427/427/427 551/551/551
f 428/428/428 551/551/551 552/552/552
f 552/552/552 551/551/551 354/354/354
f 552/552/552 354/354/354 353/353/353
f 551/551/551 540/540/540 359/359/359
f 551/551/551 359/359/359 354/354/354
f 427/427/427 8/8/8 540/540/540
f 427/427/427 540/540/540 551/551/551
f 400/400/400 431/431/431 553/553/553
f 400/400/400 553/553/553 543/543/543
f 543/543/543 553/553/553 346/346/346
f 543/543/543 346/346/346 345/345/345
f 553/553/553 552/552/552 353/353/353
f 553/553/553 353/353/353 346/346/346
f 431/431/431 428/428/428 552/552/552
f 431/431/431 552/552/552 553/553/553
f 350/350/350 349/349/349 554/554/554
f 350/350/350 554/554/554 555/555/555
f 555/555/555 554/554/554 536/536/536
f 555/555/555 536/536/536 527/527/527
f 554/554/554 556/556/556 528/528/528
f 554/554/554 528/528/528 536/536/536
f 349/349/349 352/352/352 556/556/556
f 349/349/349 556/556/556 554/554/554
f 386/386/386 557/557/557 558/558/558
f 386/386/386 558/558/558 392/392/392
f 392/392/392 558/558/558 559/559/559
f 392/392/392 559/559/559 358/358/358
f 558/558/558 535/535/535 533/533/533
f 558/558/558 533/533/533 559/559/559
f 557/557/557 520/520/520 535/535/535
f 557/557/557 535/535/535 558/558/558
f 352/352/352 356/356/356 560/560/560
f 352/352/352 560/560/560 556/556/556
f 556/556/556 560/560/560 529/529/529
f 556/556/556 529/529/529 528/528/528
f 560/560/560 559/559/559 533/533/533
f 560/560/560 533/533/533 529/529/529
f 356/356/356 358/358/358 559/559/559
f 356/356/356 559/559/559 560/560/560
f 373/373/373 389/389/389 561/561/561
f 373/373/373 561/561/561 562/562/562
f 562/562/562 561/561/561 524/524/524
f 562/562/562 524/524/524 515/515/515
f 561/561/561 555/555/555 527/527/527
f 561/561/561 527/527/527 524/524/524
f 389/389/389 350/350/350 555/555/555
f 389/389/389 555/555/555 561/561/561
f 386/386/386 385/385/385 563/563/563
f 386/386/386 563/563/563 557/557/557
f 557/557/557 563/563/563 521/521/521
f 557/557/557 521/521/521 520/520/520
f 563/563/563 564/564/564 516/516/516
f 563/563/563 516/516/516 521/521/521
f 385/385/385 380/380/380 564/564/564
f 385/385/385 564/564/564 563/563/563
f 380/380/380 379/379/379 565/565/565
f 380/380/380 565/565/565 564/564/564
f 564/564/564 565/565/565 517/517/517
f 564/564/564 517/517/517 516/516/516
f 565/565/565 566/566/566 506/506/506
f 565/565/565 506/506/506 517/517/517
f 379/379/379 365/365/365 566/566/566
f 379/379/379 566/566/566 565/565/565
f 367/367/367 371/371/371 567/567/567
f 367/367/367 567/567/567 568/568/568
f 568/568/568 567/567/567 512/512/512
f 568/568/568 512/512/512 511/511/511
f 567/567/567 562/562/562 515/515/515
f 567/567/567 515/515/515 512/512/512
f 371/371/371 373/373/373 562/562/562
f 371/371/371 562/562/562 567/567/567
f 365/365/365 364/364/364 569/569/569
f 365/365/365 569/569/569 566/566/566
f 566/566/566 569/569/569 507/507/507
f 566/566/566 507/507/507 506/506/506
f 569/569/569 568/568/568 511/511/511
f 569/569/569 511/511/511 507/507/507
f 364/364/364 367/367/367 568/568/568
f 364/364/364 568/568/568 569/569/569
