v -0.310587 1.56044 0.057584
v -0.312747 1.56278 0.0554149
v -0.31134 1.5627 0.0533683
v -0.30955 1.56036 0.0560434
v -0.309292 1.56291 0.0519722
v -0.30804 1.5605 0.0549902
v -0.31304 1.56542 0.0505873
v -0.310535 1.56568 0.0489053
v -0.31476 1.56547 0.0530551
v -0.310701 1.56129 0.0611617
v -0.312871 1.56372 0.0602046
v -0.313274 1.56315 0.0578179
v -0.310981 1.56077 0.0593852
v -0.315401 1.56584 0.0559571
v -0.314895 1.56645 0.0588473
v -0.316548 1.56873 0.0503453
v -0.3146 1.56871 0.0475857
v -0.311765 1.56904 0.045702
v -0.31613 1.57226 0.0442119
v -0.312986 1.57256 0.0421211
v -0.318305 1.57236 0.0472514
v -0.31671 1.56975 0.0568095
v -0.317278 1.5691 0.0535847
v -0.319145 1.57288 0.0507836
v -0.318559 1.57371 0.0542909
v -0.306906 1.56335 0.0514569
v -0.306279 1.56082 0.0546016
v -0.304551 1.56397 0.0518746
v -0.304541 1.56128 0.0549174
v -0.307617 1.56624 0.048284
v -0.304734 1.567 0.0487864
v -0.30846 1.56968 0.0450055
v -0.305192 1.57054 0.0455678
v -0.309335 1.57325 0.0413478
v -0.305733 1.57422 0.0419753
v -0.302177 1.56232 0.0574066
v -0.3031 1.5618 0.0559083
v -0.302592 1.56467 0.0531882
v -0.301323 1.56535 0.0551796
v -0.30233 1.56784 0.0503685
v -0.30076 1.56863 0.0527698
v -0.302461 1.57147 0.0473387
v -0.300666 1.57234 0.050023
v -0.302734 1.57531 0.0439432
v -0.300772 1.57636 0.0469003
v -0.302902 1.57918 0.0400285
v -0.300796 1.58064 0.0433519
v -0.303111 1.58363 0.0354922
v -0.300856 1.58562 0.0391689
v -0.306182 1.57776 0.0377829
v -0.306701 1.58181 0.0329917
v -0.314236 1.57592 0.0379399
v -0.310165 1.57662 0.0370605
v -0.311114 1.58046 0.0321845
v -0.315667 1.57977 0.0331629
v -0.30022 1.58192 0.0472192
v -0.30018 1.57721 0.0504045
v -0.301225 1.58284 0.0511073
v -0.301012 1.57772 0.0539407
v -0.30032 1.58746 0.0434127
v -0.301541 1.5889 0.0476717
v -0.300116 1.57301 0.0532369
v -0.300296 1.56926 0.0556495
v -0.300856 1.57336 0.0564885
v -0.300971 1.5696 0.0585637
v -0.302804 1.57333 0.0592793
v -0.302701 1.56959 0.061062
v -0.305626 1.57295 0.0611937
v -0.305183 1.56927 0.0627739
v -0.303182 1.57781 0.0569899
v -0.306326 1.57748 0.0590901
v -0.303706 1.58326 0.0544937
v -0.307247 1.58312 0.0568457
v -0.304386 1.58973 0.0513967
v -0.30838 1.58982 0.053993
v -0.311328 1.58242 0.0577152
v -0.30998 1.57678 0.0598665
v -0.315321 1.58128 0.0570024
v -0.313588 1.57583 0.0592349
v -0.312936 1.58913 0.0549531
v -0.317353 1.58777 0.0541643
v -0.308906 1.57229 0.0619006
v -0.308049 1.5687 0.0634053
v -0.312158 1.57146 0.0613259
v -0.31089 1.56798 0.0628904
v -0.314895 1.57058 0.059524
v -0.313294 1.5672 0.061278
v -0.316594 1.57475 0.0572573
v -0.318605 1.57986 0.054783
v -0.320708 1.5784 0.0514859
v -0.320946 1.58596 0.0517128
v -0.3232 1.58397 0.0480852
v -0.321274 1.57713 0.0476286
v -0.320258 1.57621 0.0437307
v -0.323732 1.58213 0.0438598
v -0.322507 1.58069 0.0395824
v -0.319627 1.59518 0.0501248
v -0.323547 1.59298 0.0475133
v -0.32597 1.59052 0.0436296
v -0.326201 1.60074 0.041764
v -0.328764 1.59784 0.0375617
v -0.32201 1.60329 0.0446118
v -0.326482 1.58816 0.0390841
v -0.325058 1.58626 0.0344996
v -0.329268 1.59509 0.03271
v -0.327698 1.59291 0.0279109
v -0.321859 1.58511 0.0305029
v -0.31966 1.57987 0.0358083
v -0.317416 1.58486 0.0277248
v -0.324239 1.59164 0.0238379
v -0.31945 1.59142 0.0210546
v -0.317774 1.57579 0.0403182
v -0.312379 1.58558 0.0266946
v -0.30752 1.58714 0.0275314
v -0.314022 1.59224 0.0200117
v -0.30878 1.59394 0.0208195
v -0.3217 1.59951 0.0127316
v -0.316069 1.60053 0.0116933
v -0.310577 1.60225 0.012435
v -0.318514 1.61038 0.00239949
v -0.312924 1.61191 0.00311551
v -0.324116 1.60906 0.00344163
v -0.330198 1.60046 0.0195078
v -0.326637 1.59942 0.0154499
v -0.328988 1.6083 0.0061614
v -0.332495 1.60868 0.0102983
v -0.301913 1.59892 0.0273673
v -0.304535 1.59626 0.0234133
v -0.30606 1.60441 0.0149263
v -0.303231 1.60689 0.0188548
v -0.308135 1.61348 0.00557449
v -0.305009 1.61536 0.00955799
v -0.303594 1.58931 0.030147
v -0.301164 1.59175 0.0340356
v -0.30264 1.60956 0.0237813
v -0.301384 1.60157 0.0321337
v -0.304312 1.61201 0.0290413
v -0.30297 1.60382 0.0370353
v -0.304258 1.61775 0.0147131
v -0.305898 1.62018 0.0203525
v -0.300648 1.59409 0.0385838
v -0.302074 1.596 0.0431677
v -0.308032 1.61376 0.0338729
v -0.306482 1.60531 0.0413608
v -0.313152 1.61443 0.0373487
v -0.311327 1.60577 0.0443908
v -0.309676 1.62201 0.0256421
v -0.314941 1.62273 0.0294971
v -0.305278 1.59717 0.04716
v -0.309729 1.59745 0.0499331
v -0.318891 1.61372 0.0386563
v -0.316782 1.60505 0.0455206
v -0.324357 1.61178 0.0376077
v -0.320895 1.62199 0.0309547
v -0.326552 1.61995 0.0297908
v -0.31477 1.59674 0.0509607
v -0.328699 1.60891 0.0343374
v -0.331329 1.60567 0.0296459
v -0.330976 1.61694 0.0261651
v -0.333614 1.61359 0.0210322
v -0.332923 1.62415 0.018456
v -0.335531 1.62104 0.0131706
v -0.334128 1.62958 0.0124689
v -0.336652 1.62687 0.00732696
v -0.328441 1.62698 0.0221118
v -0.32968 1.63211 0.0159147
v -0.322577 1.62902 0.023274
v -0.323773 1.63405 0.0169961
v -0.316431 1.6299 0.0217994
v -0.317624 1.63505 0.0156033
v -0.334264 1.63259 0.00901224
v -0.336636 1.6302 0.00425105
v -0.333648 1.63404 0.00704289
v -0.335839 1.63191 0.00281323
v -0.330013 1.63485 0.0121535
v -0.329733 1.63606 0.00982653
v -0.324403 1.63665 0.0131329
v -0.324668 1.63767 0.0106935
v -0.31859 1.63765 0.0118619
v -0.319436 1.63859 0.00956677
v -0.332662 1.63474 0.00548777
v -0.334676 1.63287 0.0018508
v -0.331297 1.6339 0.0050056
v -0.333118 1.63224 0.00194823
v -0.32917 1.63652 0.00788152
v -0.328258 1.63545 0.00701966
v -0.32475 1.63792 0.00862673
v -0.324481 1.63665 0.00764484
v -0.320196 1.63872 0.00765704
v -0.320591 1.63733 0.00682435
v -0.325491 1.62947 0.00784446
v -0.326699 1.62774 0.00640563
v -0.329409 1.63094 0.00602135
v -0.326907 1.63237 0.00768117
v -0.331032 1.6295 0.00351463
v -0.328684 1.62713 0.00466203
v -0.320509 1.63069 0.0077011
v -0.322847 1.62941 0.00784159
v -0.323728 1.63332 0.00817313
v -0.320483 1.63394 0.00750663
v -0.328208 1.62517 0.000199636
v -0.327956 1.62563 0.00278412
v -0.32203 1.62567 0.00369885
v -0.326012 1.62469 -0.000671745
v -0.324593 1.62526 -0.00271333
v -0.322034 1.62536 -0.00208279
v -0.319734 1.62649 -0.00285396
v -0.31816 1.62667 -0.000917265
v -0.31638 1.62811 -0.000161449
v -0.316737 1.6284 0.00244499
v -0.316695 1.63008 0.00431024
v -0.318704 1.6297 0.00617129
v -0.317657 1.63383 0.00569946
v -0.315631 1.63329 0.00308793
v -0.317227 1.63735 0.00464448
v -0.314943 1.6367 0.00147521
v -0.314905 1.63212 0.000128715
v -0.315393 1.63105 -0.00271495
v -0.314176 1.63554 -0.0021774
v -0.314985 1.63452 -0.00554649
v -0.315047 1.6386 0.00656421
v -0.316318 1.63874 0.00507376
v -0.313763 1.638 0.00130998
v -0.312205 1.63771 0.00218838
v -0.311421 1.63621 -0.00287727
v -0.313024 1.6367 -0.00303919
v -0.314125 1.63575 -0.00706228
v -0.312745 1.63523 -0.00761057
v -0.312494 1.63486 0.0118999
v -0.313767 1.63762 0.00847562
v -0.310631 1.63658 0.00355072
v -0.309075 1.6336 0.006585
v -0.307864 1.63169 0.000543009
v -0.309672 1.63489 -0.00214378
v -0.31107 1.6338 -0.00751058
v -0.309159 1.63031 -0.00513599
v -0.311158 1.6294 0.0178938
v -0.3075 1.62781 0.012439
v -0.306034 1.62561 0.00647025
v -0.307066 1.62372 0.000959659
v -0.312936 1.63035 -0.00947285
v -0.314701 1.63424 -0.0115538
v -0.315965 1.63564 -0.011094
v -0.319538 1.63496 -0.0140119
v -0.320265 1.63628 -0.013167
v -0.318086 1.63067 -0.012138
v -0.310595 1.62284 -0.00326008
v -0.315668 1.62225 -0.00585154
v -0.321199 1.62112 -0.00663557
v -0.323398 1.62995 -0.0129828
v -0.326539 1.61946 -0.00557086
v -0.32834 1.62806 -0.0119325
v -0.324479 1.63446 -0.0148065
v -0.324756 1.63582 -0.01384
v -0.328996 1.63256 -0.0138588
v -0.328874 1.63411 -0.0130484
v -0.316867 1.63586 -0.00995165
v -0.317244 1.63418 -0.00795489
v -0.320611 1.63615 -0.0116315
v -0.320456 1.63399 -0.00934504
v -0.324648 1.63561 -0.0121775
v -0.324044 1.63333 -0.00978802
v -0.328415 1.63418 -0.0115403
v -0.327487 1.63221 -0.00925007
v -0.317205 1.63021 -0.00471443
v -0.31984 1.62964 -0.00602134
v -0.322916 1.62883 -0.00630626
v -0.325985 1.62808 -0.0058847
v -0.328524 1.62737 -0.00442258
v -0.330433 1.62733 -0.00229628
v -0.330335 1.63091 -0.00768562
v -0.332372 1.63023 -0.0051067
v -0.331247 1.62809 0.000588212
v -0.333404 1.63082 -0.00166985
v -0.332204 1.63159 -0.0107462
v -0.331466 1.63222 -0.009661
v -0.333669 1.63093 -0.00656756
v -0.334633 1.62983 -0.00703497
v -0.33602 1.63016 -0.00220924
v -0.33489 1.63133 -0.0024612
v -0.332543 1.62545 -0.00899314
v -0.332738 1.62975 -0.0111444
v -0.335465 1.62778 -0.00685667
v -0.335588 1.6238 -0.00441792
v -0.337068 1.62454 0.00134638
v -0.336916 1.6282 -0.00139304
v -0.331145 1.61769 -0.00270258
v -0.334467 1.61699 0.00171611
v -0.334108 1.6106 0.0154757
v -0.336012 1.61833 0.00727839
v -0.331828 1.60268 0.0244555
v -0.304982 1.56327 0.0635233
v -0.305008 1.56614 0.0634281
v -0.307339 1.5657 0.0639455
v -0.306703 1.56299 0.0639016
v -0.30964 1.5651 0.0635243
v -0.308383 1.56251 0.0635962
v -0.311581 1.5644 0.0622031
v -0.309783 1.56191 0.0626326
v -0.30239 1.56314 0.0609847
v -0.301543 1.56626 0.0599706
v -0.302974 1.56634 0.0620249
v -0.303469 1.56332 0.0624977
v -0.300967 1.56591 0.0575642
v -0.301938 1.56279 0.0591935
vt 0.08333 0.9167
vt 0.01147 0.2613
vt 0.9893 0.7393
vt 0.0009446 0.5001
vt 0.08478 0.08462
vt 0.08433 0.9159
vt 0.01147 0.2613
vt 0.0004723 0.5001
vt 0.01042 0.7396
vt 0.01114 0.7391
vt 0.9159 0.9158
vt 0.9895 0.7395
vt 0.0007095 0.5001
vt 0.01182 0.2617
vt 0.01114 0.7391
vt 0.01182 0.2617
vt 0.9165 0.9165
vt 0.08526 0.08505
vt 0.9162 0.9162
vt 0 0.5
vt 0.01042 0.7396
vt 0.2604 0.01042
vt 0.9162 0.9162
vt 0.08333 0.08333
vt 0.2612 0.989
vt 0.9998 0.5
vt 0.9893 0.7393
vt 0.01112 0.261
vt 0.01187 0.7385
vt 0.01147 0.2613
vt 0.01114 0.7391
vt 0.9999 0.5
vt 0.08478 0.08462
vt 0.01112 0.261
vt 0.0004723 0.5001
vt 0.01112 0.261
vt 0.9895 0.2605
vt 0.9895 0.7395
vt 0.9893 0.2608
vt 0.0843 0.08419
vt 0.0009446 0.5001
vt 0.9893 0.7393
vt 0.5 -1.192e-07
vt 0.0004738 0.5001
vt 0.08532 0.9151
vt 0.9992 0.5001
vt 0.01147 0.2613
vt 0.989 0.739
vt 0.01187 0.7385
vt 0.0007095 0.5001
vt 0.08433 0.9159
vt 0.2612 0.01106
vt 0.9994 0.5001
vt 0.2615 0.01137
vt 0.5003 0.9992
vt 0.9886 0.7387
vt 0.2604 0.01042
vt 0.5002 0.0004414
vt 0.01114 0.7391
vt 0.9893 0.7393
vt 0.5002 0.9996
vt 0.9883 0.7384
vt 0.989 0.739
vt 0.2612 0.01105
vt 0.5 1
vt 0.9883 0.7384
vt 0.9996 0.5
vt 0.2619 0.01169
vt 0.2604 0.9896
vt 0.5002 0.0004414
vt 0.2612 0.989
vt 0.9886 0.7387
vt 0.2612 0.01105
vt 0.9998 0.5
vt 0.2604 0.9896
vt 0.9155 0.9154
vt 0.5003 0.0008831
vt 0.0843 0.08419
vt 0.2612 0.989
vt 0.989 0.2611
vt 0.08333 0.9167
vt 0.9151 0.9149
vt 0.9996 0.5
vt 0.2612 0.01105
vt 0.08433 0.9159
vt 0.9886 0.7387
vt 0.9998 0.5
vt 0.08526 0.08505
vt 0.989 0.739
vt 0.2619 0.01169
vt 0.2612 0.01105
vt 0.2619 0.9884
vt 0.9159 0.9158
vt 0.5003 0.0006633
vt 0.5003 0.0008831
vt 0.08433 0.9159
vt 0.2608 0.01075
vt 0.9155 0.9154
vt 0.0843 0.08419
vt 0.5 7.397e-05
vt 0.08532 0.9151
vt 0.0115 0.7388
vt 0.9994 0.5001
vt 0.2619 0.01169
vt 0.989 0.2611
vt 0.5002 0.9996
vt 0.9996 0.5
vt 0.2615 0.01137
vt 0.5003 0.0006633
vt 0.08478 0.08462
vt 0.2619 0.9884
vt 0.989 0.739
vt 0.9886 0.7387
vt 0.2612 0.01106
vt 0.2615 0.01137
vt 0.08532 0.9151
vt 0.5002 0.000443
vt 0.9151 0.9149
vt 0.0843 0.08419
vt 0.9893 0.2608
vt 0.08482 0.9155
vt 0.2612 0.989
vt 0.9155 0.08473
vt 0.9155 0.9154
vt 0.7389 0.01145
vt 0.0843 0.08419
vt 0.0115 0.7388
vt 0.2619 0.01169
vt 0.7389 0.9886
vt 0.08526 0.08505
vt 0.9163 0.08382
vt 0.01187 0.7385
vt 0.7386 0.9883
vt 0.08478 0.08462
vt 0.7386 0.9883
vt 0.2615 0.01137
vt 0.5002 0.000443
vt 0.01187 0.7385
vt 0.9159 0.08426
vt 0.0115 0.7388
vt 0.7389 0.9886
vt 0.2608 0.01075
vt 0.5002 0.9994
vt 0.2612 0.01106
vt 0.5001 0.000231
vt 0.0007095 0.5001
vt 0.9887 0.2614
vt 0.0009446 0.5001
vt 0.5003 0.9992
vt 0.5001 0.000231
vt 0.7389 0.9886
vt 0.2608 0.01075
vt 0.2605 0.01052
vt 0.08349 0.08348
vt 0.01114 0.7391
vt 0.7391 0.9889
vt 0.5002 0.9996
vt 0.989 0.2611
vt 0.08384 0.08378
vt 0.0004738 0.5001
vt 0.5002 0.9994
vt 0.9159 0.08426
vt 0.2612 0.01106
vt 0.08482 0.9155
vt 0.2605 0.01052
vt 0.0007095 0.5001
vt 0.9155 0.9154
vt 0.0843 0.08419
vt 0.9155 0.08473
vt 0.08433 0.9159
vt 0.9159 0.9158
vt 0.9994 0.5001
vt 0.2608 0.01075
vt 0.0115 0.7388
vt 0.08384 0.08378
vt 0.01114 0.7391
vt 0.7391 0.9889
vt 0.0004738 0.5001
vt 0.9996 0.5
vt 0.5003 0.9992
vt 0.7389 0.9886
vt 0.989 0.2611
vt 0.01078 0.2607
vt 0.2615 0.9887
vt 0.0002471 0.5
vt 0.5002 0.9994
vt 0.9159 0.9158
vt 0.01112 0.261
vt 0.9887 0.2614
vt 0.2619 0.9884
vt 0.2619 0.9884
vt 0.01078 0.2607
vt 0.9162 0.9162
vt 0.01112 0.261
vt 0.9992 0.5001
vt 0.2615 0.9887
vt 0.08482 0.9155
vt 0.08384 0.08378
vt 0.7393 0.9892
vt 0.01078 0.2607
vt 0.08333 0.08333
vt 0.7387 0.0118
vt 0.7391 0.9889
vt 0.7389 0.01145
vt 0.0843 0.08419
vt 0.5003 0.0006633
vt 0.01112 0.261
vt 0.5003 0.0008831
vt 0.2615 0.9887
vt 0.01053 0.2605
vt 0.08532 0.9151
vt 0.0843 0.08419
vt 0.7391 0.9889
vt 0.08349 0.08348
vt 0.08384 0.08378
vt 0.2612 0.989
vt 0.7393 0.9892
vt 0.9994 0.5001
vt 0.0002471 0.5
vt 0.08433 0.9159
vt 0.01053 0.2605
vt 0.5001 0.9998
vt 7.91e-05 0.5
vt 0.08482 0.9155
vt 0.01078 0.2607
vt 0.5002 0.9996
vt 0.9887 0.2614
vt 0.5002 0.9994
vt 0.5001 0.000231
vt 0.7393 0.9892
vt 0.5002 0.000443
vt 0.5002 0.9996
vt 0.7393 0.01078
vt 0.7395 0.9895
vt 0.9163 0.08382
vt 0.2612 0.989
vt 0.5 0.9999
vt 0.7391 0.01111
vt 0.5001 0.9998
vt 0.7393 0.01078
vt 0.7391 0.01111
vt 0.9162 0.9162
vt 0.9165 0.08349
vt 0.7395 0.01053
vt 0.0004723 0.5001
vt 0.2615 0.9887
vt 0.9165 0.9165
vt 0.7393 0.01078
vt 0.7395 0.9895
vt 0.9159 0.08426
vt 0.9884 0.2617
vt 0 0.5
vt 0.7393 0.9892
vt 0.9163 0.08382
vt 0.9884 0.2617
vt 0.01112 0.261
vt 0.5002 0.9996
vt 0.5 7.397e-05
vt 0.5001 0.000231
vt 0.01042 0.2604
vt 0.5001 0.9998
vt 0.7395 0.01053
vt 0.9887 0.2614
vt 0.01042 0.2604
vt 0.2608 0.9893
vt 0.7393 0.01078
vt 0.2612 0.989
vt 0.7387 0.0118
vt 0.2612 0.989
vt 0.7389 0.01145
vt 0.9155 0.08473
vt 0.01112 0.261
vt 0.2608 0.9893
vt 0.9151 0.08519
vt 0.7391 0.01111
vt 0.08385 0.9162
vt 0.7389 0.01145
vt 0.01182 0.2617
vt 0.9159 0.08426
vt 0.08433 0.9159
vt 0.5003 0.0006633
vt 0.2608 0.9893
vt 0.9155 0.08473
vt 0.08526 0.08505
vt 0.5002 0.000443
vt 0.2605 0.9895
vt 0.0835 0.9165
vt 0.7391 0.01111
vt 0.9151 0.08519
vt 0.08385 0.9162
vt 0.5001 0.9998
vt 0.0009446 0.5001
vt 0.9998 0.5
vt 0.5 0.9999
vt 0.9895 0.2605
vt 0.9893 0.2608
vt 0.0004723 0.5001
vt 0.2605 0.9895
vt 0.9893 0.2608
vt 0.01182 0.2617
vt 0.9165 0.08349
vt 0.2608 0.9893
vt 0.9999 0.5
vt 0.9165 0.9165
vt 0.9163 0.08382
vn -0.642 -0.7485 -0.1659
vn -0.6549 -0.7271 -0.2058
vn -0.428 -0.7823 -0.4526
vn -0.4242 -0.8028 -0.419
vn -0.1484 -0.7813 -0.6062
vn -0.1464 -0.8021 -0.5789
vn -0.4621 -0.7323 -0.5002
vn -0.1686 -0.7372 -0.6543
vn -0.707 -0.662 -0.2485
vn -0.7432 -0.4799 0.4662
vn -0.785 -0.4365 0.4395
vn -0.7859 -0.6091 0.107
vn -0.7571 -0.6372 0.144
vn -0.8532 -0.5157 0.07782
vn -0.8527 -0.3041 0.4248
vn -0.7414 -0.6116 -0.2761
vn -0.4802 -0.7037 -0.5236
vn -0.1752 -0.7221 -0.6692
vn -0.4775 -0.7237 -0.4982
vn -0.1646 -0.762 -0.6262
vn -0.7476 -0.6078 -0.2677
vn -0.8919 -0.1974 0.4068
vn -0.8982 -0.4361 0.05518
vn -0.9086 -0.4141 0.05374
vn -0.8998 -0.1727 0.4005
vn 0.1518 -0.7338 -0.6621
vn 0.1563 -0.7544 -0.6375
vn 0.4477 -0.6464 -0.6178
vn 0.4552 -0.6664 -0.5905
vn 0.1419 -0.6897 -0.7101
vn 0.4468 -0.597 -0.6663
vn 0.14 -0.6789 -0.7208
vn 0.4469 -0.5802 -0.6809
vn 0.1524 -0.7268 -0.6697
vn 0.4572 -0.6209 -0.6367
vn 0.902 -0.3907 -0.1834
vn 0.7177 -0.5421 -0.4369
vn 0.7111 -0.5219 -0.4711
vn 0.9029 -0.3662 -0.225
vn 0.7197 -0.4606 -0.5195
vn 0.9206 -0.2834 -0.2687
vn 0.7236 -0.4264 -0.5427
vn 0.9287 -0.2223 -0.2967
vn 0.7312 -0.4463 -0.5159
vn 0.9328 -0.217 -0.2875
vn 0.7504 -0.4537 -0.4806
vn 0.9415 -0.2129 -0.2611
vn 0.7721 -0.417 -0.4795
vn 0.9521 -0.1793 -0.2478
vn 0.4768 -0.6423 -0.6001
vn 0.4934 -0.6087 -0.6213
vn -0.1708 -0.7893 -0.5897
vn 0.1603 -0.7567 -0.6337
vn 0.1543 -0.7302 -0.6655
vn -0.1993 -0.7673 -0.6095
vn 0.998 0.04166 0.04669
vn 0.9988 0.03327 0.03406
vn 0.8906 0.2509 0.3793
vn 0.8915 0.2473 0.3794
vn 0.996 0.07041 0.0546
vn 0.8848 0.2791 0.373
vn 0.9993 0.009491 0.0354
vn 0.9949 -0.08176 0.05887
vn 0.8955 0.2218 0.3857
vn 0.9079 0.1097 0.4045
vn 0.6413 0.3673 0.6735
vn 0.6719 0.2501 0.6971
vn 0.301 0.4221 0.8551
vn 0.3363 0.3085 0.8898
vn 0.6406 0.3797 0.6674
vn 0.3047 0.4187 0.8555
vn 0.6485 0.3745 0.6626
vn 0.3159 0.4071 0.857
vn 0.6447 0.4099 0.6452
vn 0.3102 0.4534 0.8356
vn -0.0636 0.3568 0.932
vn -0.06687 0.3725 0.9256
vn -0.4321 0.2338 0.871
vn -0.4264 0.2499 0.8693
vn -0.07593 0.4072 0.9101
vn -0.4486 0.2778 0.8495
vn -0.06912 0.3838 0.9208
vn -0.04236 0.2708 0.9617
vn -0.4241 0.2553 0.8689
vn -0.4049 0.1369 0.904
vn -0.7176 0.05145 0.6946
vn -0.6927 -0.06848 0.718
vn -0.7226 0.06241 0.6884
vn -0.728 0.05347 0.6835
vn -0.9006 -0.1694 0.4002
vn -0.741 0.0867 0.6659
vn -0.908 -0.1422 0.394
vn -0.9113 -0.4063 0.06623
vn -0.7563 -0.6078 -0.2418
vn -0.9216 -0.3808 0.0745
vn -0.7791 -0.5841 -0.2278
vn -0.4704 0.3529 0.8088
vn -0.76 0.1507 0.6322
vn -0.9228 -0.09006 0.3744
vn -0.786 0.2179 0.5785
vn -0.9415 -0.02982 0.3355
vn -0.4993 0.4255 0.7548
vn -0.9373 -0.3414 0.07022
vn -0.7988 -0.5563 -0.2289
vn -0.9527 -0.2996 0.05115
vn -0.8051 -0.5416 -0.242
vn -0.5432 -0.6925 -0.4747
vn -0.5234 -0.7167 -0.4609
vn -0.2147 -0.7378 -0.6399
vn -0.5304 -0.6911 -0.491
vn -0.1979 -0.7309 -0.6532
vn -0.4897 -0.7385 -0.4634
vn 0.1469 -0.6952 -0.7036
vn 0.4947 -0.5737 -0.6527
vn 0.1469 -0.6856 -0.7129
vn 0.4781 -0.5732 -0.6654
vn -0.1609 -0.7217 -0.6732
vn 0.1475 -0.6749 -0.723
vn 0.4425 -0.5798 -0.6841
vn 0.1422 -0.6426 -0.7529
vn 0.3903 -0.5692 -0.7236
vn -0.1189 -0.6899 -0.7141
vn -0.7992 -0.5371 -0.2696
vn -0.4935 -0.6944 -0.5236
vn -0.446 -0.6823 -0.5793
vn -0.7885 -0.5303 -0.3114
vn 0.9557 -0.1293 -0.2641
vn 0.7662 -0.3889 -0.5116
vn 0.7313 -0.4104 -0.5448
vn 0.9467 -0.1328 -0.2936
vn 0.6762 -0.4249 -0.6018
vn 0.9299 -0.1408 -0.3397
vn 0.7793 -0.3847 -0.4947
vn 0.9574 -0.1441 -0.25
vn 0.9835 0.1807 0.005158
vn 0.9872 0.1563 0.03052
vn 0.8599 0.4301 0.2748
vn 0.8637 0.393 0.3153
vn 0.9821 0.187 -0.01965
vn 0.8632 0.438 0.2509
vn 0.9923 0.1133 0.04971
vn 0.8745 0.332 0.3534
vn 0.6286 0.5924 0.5039
vn 0.6243 0.5455 0.5591
vn 0.2891 0.6671 0.6865
vn 0.2866 0.6064 0.7417
vn 0.6339 0.6128 0.4718
vn 0.2855 0.7103 0.6434
vn 0.6324 0.4749 0.612
vn 0.2951 0.5295 0.7953
vn -0.1318 0.6299 0.7654
vn -0.1149 0.565 0.817
vn -0.5318 0.4789 0.6984
vn -0.1466 0.6831 0.7154
vn -0.5521 0.5194 0.6522
vn -0.09552 0.4875 0.8679
vn -0.8134 0.2591 0.5207
vn -0.9562 0.007752 0.2926
vn -0.8301 0.2776 0.4835
vn -0.964 0.01959 0.2651
vn -0.8318 0.3053 0.4635
vn -0.969 0.03665 0.2445
vn -0.8219 0.3746 0.4291
vn -0.9732 0.1091 0.2022
vn -0.5507 0.5631 0.6161
vn -0.5351 0.6228 0.5708
vn -0.1597 0.7277 0.667
vn -0.1729 0.7721 0.6116
vn 0.2608 0.7473 0.6111
vn 0.2151 0.7948 0.5675
vn -0.7852 0.5265 0.3259
vn -0.9467 0.3057 0.1011
vn -0.6724 0.7273 0.1371
vn -0.8122 0.5817 -0.04358
vn -0.5103 0.7265 0.4601
vn -0.4561 0.855 0.2469
vn -0.1942 0.8452 0.4978
vn -0.2216 0.9342 0.2795
vn 0.138 0.8795 0.4555
vn 0.01895 0.9704 0.2408
vn -0.2552 0.9094 -0.3284
vn -0.2633 0.908 -0.3257
vn 0.4577 0.4963 -0.7377
vn 0.6041 0.6416 -0.4727
vn -0.2389 0.9142 -0.3272
vn 0.2131 0.358 -0.909
vn -0.2321 0.9145 -0.3312
vn -0.0878 0.2558 -0.9627
vn -0.2261 0.9185 -0.3242
vn -0.3962 0.2214 -0.891
vn 0.1787 0.3681 -0.9124
vn 0.2715 0.6218 -0.7345
vn 0.6061 0.2287 -0.7618
vn 0.3341 0.05594 -0.9409
vn 0.76 0.437 -0.4809
vn 0.5181 0.6502 -0.5557
vn -0.371 0.241 -0.8968
vn -0.1304 0.4324 -0.8922
vn -0.008972 -0.06867 -0.9976
vn -0.3673 -0.09958 -0.9247
vn 0.4147 0.9097 0.02033
vn 0.364 0.8707 -0.3306
vn -0.2294 0.8883 -0.3977
vn 0.09241 0.9887 0.1176
vn -0.02637 0.8995 0.4361
vn -0.2271 0.9294 0.2908
vn -0.3763 0.8121 0.4458
vn -0.5321 0.8364 0.1316
vn -0.7786 0.6257 0.04761
vn -0.7312 0.6093 -0.3065
vn -0.7757 0.3458 -0.5279
vn -0.5592 0.4259 -0.7113
vn -0.6733 -0.05744 -0.7371
vn -0.889 0.06467 -0.4532
vn -0.659 0.2456 -0.7109
vn -0.8367 0.3181 -0.4457
vn -0.9666 0.2246 -0.1234
vn -0.8641 0.4303 0.261
vn -0.8988 0.424 -0.1109
vn -0.7655 0.5734 0.2919
vn 0.2586 0.9581 0.1231
vn -0.2091 0.923 -0.3228
vn -0.198 0.9264 -0.3201
vn 0.4381 0.8964 -0.06775
vn 0.4978 0.8318 -0.2456
vn -0.2158 0.9483 -0.2327
vn -0.151 0.9884 0.01639
vn 0.4739 0.8154 -0.3324
vn 0.5781 0.6974 0.4235
vn 0.4665 0.8263 0.3155
vn 0.707 0.7028 0.07813
vn 0.8323 0.5219 0.187
vn 0.9483 0.2976 -0.1099
vn 0.8109 0.5513 -0.1959
vn 0.7818 0.3652 -0.5053
vn 0.8821 -0.005005 -0.4709
vn 0.6217 0.6361 0.457
vn 0.8621 0.4503 0.2322
vn 0.9777 0.2036 -0.05222
vn 0.908 -0.1272 -0.3992
vn 0.6015 -0.2691 -0.7522
vn 0.5922 0.241 -0.7689
vn 0.3648 0.8516 -0.3763
vn 0.311 0.1966 -0.9298
vn 0.1199 0.8986 -0.422
vn 0.3143 -0.3972 -0.8622
vn 0.6168 -0.4123 -0.6705
vn 0.3356 -0.5358 -0.7747
vn 0.1311 -0.5908 -0.796
vn 0.09754 -0.4558 -0.8847
vn -0.08707 -0.6364 -0.7664
vn -0.1376 -0.504 -0.8526
vn -0.05179 0.1302 -0.9901
vn -0.2242 0.8646 -0.4496
vn -0.4133 0.02228 -0.9103
vn -0.5459 0.7328 -0.4062
vn -0.07904 0.9655 0.2483
vn -0.4726 0.6485 0.5966
vn -0.1141 0.928 0.3546
vn -0.2673 0.6461 0.7148
vn -0.2209 0.8963 0.3845
vn -0.1546 0.6534 0.7411
vn -0.3245 0.8758 0.3572
vn -0.03928 0.7046 0.7085
vn -0.6005 0.5686 0.5622
vn -0.3416 0.6229 0.7038
vn -0.1515 0.6586 0.7371
vn 0.04077 0.718 0.6948
vn 0.3081 0.7836 0.5395
vn 0.5987 0.7667 0.2315
vn 0.1609 0.7998 0.5782
vn 0.4551 0.8503 0.2644
vn 0.7697 0.6201 -0.1515
vn 0.6269 0.7669 -0.1371
vn -0.7412 0.5793 -0.3391
vn -0.3666 0.8953 0.253
vn -0.3174 0.948 0.02188
vn -0.8172 0.4966 -0.2924
vn -0.8423 0.4948 -0.2135
vn -0.2509 0.9394 -0.2335
vn -0.4719 -0.5085 -0.7201
vn -0.6882 -0.05957 -0.7231
vn -0.8944 -0.01975 -0.4468
vn -0.8223 -0.38 -0.4235
vn -0.9879 -0.1352 -0.0752
vn -0.9794 0.1296 -0.1545
vn -0.4101 -0.6442 -0.6456
vn -0.7855 -0.5013 -0.3628
vn -0.9664 -0.2568 0.00177
vn -0.9727 -0.2307 -0.02585
vn -0.962 -0.2719 0.02551
vn 0.3831 0.03497 0.923
vn 0.3782 0.1245 0.9173
vn 0.001556 0.08203 0.9966
vn 0.02414 -0.009827 0.9996
vn -0.3612 -0.04831 0.9312
vn -0.324 -0.1306 0.9369
vn -0.6388 -0.2353 0.7325
vn -0.5946 -0.2994 0.7461
vn 0.8883 -0.09467 0.4493
vn 0.9061 -0.038 0.4213
vn 0.6966 0.07862 0.7131
vn 0.6864 0.002319 0.7272
vn 0.9765 -0.1958 0.0896
vn 0.9639 -0.2332 0.1286
f 1/1/1 2/2/2 3/3/3
f 1/1/1 3/3/3 4/4/4
f 4/4/4 3/3/3 5/5/5
f 4/4/4 5/5/5 6/6/6
f 3/3/3 7/7/7 8/8/8
f 3/3/3 8/8/8 5/5/5
f 2/2/2 9/9/9 7/7/7
f 2/2/2 7/7/7 3/3/3
f 10/10/10 11/11/11 12/12/12
f 10/10/10 12/12/12 13/13/13
f 13/13/13 12/12/12 2/2/2
f 13/13/13 2/2/2 1/1/1
f 12/12/12 14/14/14 9/9/9
f 12/12/12 9/9/9 2/2/2
f 11/11/11 15/15/15 14/14/14
f 11/11/11 14/14/14 12/12/12
f 9/9/9 16/16/16 17/17/17
f 9/9/9 17/17/17 7/7/7
f 7/7/7 17/17/17 18/18/18
f 7/7/7 18/18/18 8/8/8
f 17/17/17 19/19/19 20/20/20
f 17/17/17 20/20/20 18/18/18
f 16/16/16 21/21/21 19/19/19
f 16/16/16 19/19/19 17/17/17
f 15/15/15 22/22/22 23/23/23
f 15/15/15 23/23/23 14/14/14
f 14/14/14 23/23/23 16/16/16
f 14/14/14 16/16/16 9/9/9
f 23/23/23 24/24/24 21/21/21
f 23/23/23 21/21/21 16/16/16
f 22/22/22 25/25/25 24/24/24
f 22/22/22 24/24/24 23/23/23
f 6/6/6 5/5/5 26/26/26
f 6/6/6 26/26/26 27/27/27
f 27/27/27 26/26/26 28/28/28
f 27/27/27 28/28/28 29/29/29
f 26/26/26 30/30/30 31/31/31
f 26/26/26 31/31/31 28/28/28
f 5/5/5 8/8/8 30/30/30
f 5/5/5 30/30/30 26/26/26
f 8/8/8 18/18/18 32/32/32
f 8/8/8 32/32/32 30/30/30
f 30/30/30 32/32/32 33/33/33
f 30/30/30 33/33/33 31/31/31
f 32/32/32 34/34/34 35/35/35
f 32/32/32 35/35/35 33/33/33
f 18/18/18 20/20/20 34/34/34
f 18/18/18 34/34/34 32/32/32
f 36/36/36 37/37/37 38/38/38
f 36/36/36 38/38/38 39/39/39
f 39/39/39 38/38/38 40/40/40
f 39/39/39 40/40/40 41/41/41
f 38/38/38 28/28/28 31/31/31
f 38/38/38 31/31/31 40/40/40
f 37/37/37 29/29/29 28/28/28
f 37/37/37 28/28/28 38/38/38
f 41/41/41 40/40/40 42/42/42
f 41/41/41 42/42/42 43/43/43
f 43/43/43 42/42/42 44/44/44
f 43/43/43 44/44/44 45/45/45
f 42/42/42 33/33/33 35/35/35
f 42/42/42 35/35/35 44/44/44
f 40/40/40 31/31/31 33/33/33
f 40/40/40 33/33/33 42/42/42
f 45/45/45 44/44/44 46/46/46
f 45/45/45 46/46/46 47/47/47
f 47/47/47 46/46/46 48/48/48
f 47/47/47 48/48/48 49/49/49
f 46/46/46 50/50/50 51/51/51
f 46/46/46 51/51/51 48/48/48
f 44/44/44 35/35/35 50/50/50
f 44/44/44 50/50/50 46/46/46
f 20/20/20 52/52/52 53/53/53
f 20/20/20 53/53/53 34/34/34
f 34/34/34 53/53/53 50/50/50
f 34/34/34 50/50/50 35/35/35
f 53/53/53 54/54/54 51/51/51
f 53/53/53 51/51/51 50/50/50
f 52/52/52 55/55/55 54/54/54
f 52/52/52 54/54/54 53/53/53
f 45/45/45 47/47/47 56/56/56
f 45/45/45 56/56/56 57/57/57
f 57/57/57 56/56/56 58/58/58
f 57/57/57 58/58/58 59/59/59
f 56/56/56 60/60/60 61/61/61
f 56/56/56 61/61/61 58/58/58
f 47/47/47 49/49/49 60/60/60
f 47/47/47 60/60/60 56/56/56
f 41/41/41 43/43/43 62/62/62
f 41/41/41 62/62/62 63/63/63
f 63/63/63 62/62/62 64/64/64
f 63/63/63 64/64/64 65/65/65
f 62/62/62 57/57/57 59/59/59
f 62/62/62 59/59/59 64/64/64
f 43/43/43 45/45/45 57/57/57
f 43/43/43 57/57/57 62/62/62
f 65/65/65 64/64/64 66/66/66
f 65/65/65 66/66/66 67/67/67
f 67/67/67 66/66/66 68/68/68
f 67/67/67 68/68/68 69/69/69
f 66/66/66 70/70/70 71/71/71
f 66/66/66 71/71/71 68/68/68
f 64/64/64 59/59/59 70/70/70
f 64/64/64 70/70/70 66/66/66
f 59/59/59 58/58/58 72/72/72
f 59/59/59 72/72/72 70/70/70
f 70/70/70 72/72/72 73/73/73
f 70/70/70 73/73/73 71/71/71
f 72/72/72 74/74/74 75/75/75
f 72/72/72 75/75/75 73/73/73
f 58/58/58 61/61/61 74/74/74
f 58/58/58 74/74/74 72/72/72
f 71/71/71 73/73/73 76/76/76
f 71/71/71 76/76/76 77/77/77
f 77/77/77 76/76/76 78/78/78
f 77/77/77 78/78/78 79/79/79
f 76/76/76 80/80/80 81/81/81
f 76/76/76 81/81/81 78/78/78
f 73/73/73 75/75/75 80/80/80
f 73/73/73 80/80/80 76/76/76
f 69/69/69 68/68/68 82/82/82
f 69/69/69 82/82/82 83/83/83
f 83/83/83 82/82/82 84/84/84
f 83/83/83 84/84/84 85/85/85
f 82/82/82 77/77/77 79/79/79
f 82/82/82 79/79/79 84/84/84
f 68/68/68 71/71/71 77/77/77
f 68/68/68 77/77/77 82/82/82
f 85/85/85 84/84/84 86/86/86
f 85/85/85 86/86/86 87/87/87
f 87/87/87 86/86/86 22/22/22
f 87/87/87 22/22/22 15/15/15
f 86/86/86 88/88/88 25/25/25
f 86/86/86 25/25/25 22/22/22
f 84/84/84 79/79/79 88/88/88
f 84/84/84 88/88/88 86/86/86
f 79/79/79 78/78/78 89/89/89
f 79/79/79 89/89/89 88/88/88
f 88/88/88 89/89/89 90/90/90
f 88/88/88 90/90/90 25/25/25
f 89/89/89 91/91/91 92/92/92
f 89/89/89 92/92/92 90/90/90
f 78/78/78 81/81/81 91/91/91
f 78/78/78 91/91/91 89/89/89
f 25/25/25 90/90/90 93/93/93
f 25/25/25 93/93/93 24/24/24
f 24/24/24 93/93/93 94/94/94
f 24/24/24 94/94/94 21/21/21
f 93/93/93 95/95/95 96/96/96
f 93/93/93 96/96/96 94/94/94
f 90/90/90 92/92/92 95/95/95
f 90/90/90 95/95/95 93/93/93
f 81/81/81 97/97/97 98/98/98
f 81/81/81 98/98/98 91/91/91
f 91/91/91 98/98/98 99/99/99
f 91/91/91 99/99/99 92/92/92
f 98/98/98 100/100/100 101/101/101
f 98/98/98 101/101/101 99/99/99
f 97/97/97 102/102/102 100/100/100
f 97/97/97 100/100/100 98/98/98
f 92/92/92 99/99/99 103/103/103
f 92/92/92 103/103/103 95/95/95
f 95/95/95 103/103/103 104/104/104
f 95/95/95 104/104/104 96/96/96
f 103/103/103 105/105/105 106/106/106
f 103/103/103 106/106/106 104/104/104
f 99/99/99 101/101/101 105/105/105
f 99/99/99 105/105/105 103/103/103
f 96/96/96 104/104/104 107/107/107
f 96/96/96 107/107/107 108/108/108
f 108/108/108 107/107/107 109/109/109
f 108/108/108 109/109/109 55/55/55
f 107/107/107 110/110/110 111/111/111
f 107/107/107 111/111/111 109/109/109
f 104/104/104 106/106/106 110/110/110
f 104/104/104 110/110/110 107/107/107
f 21/21/21 94/94/94 112/112/112
f 21/21/21 112/112/112 19/19/19
f 19/19/19 112/112/112 52/52/52
f 19/19/19 52/52/52 20/20/20
f 112/112/112 108/108/108 55/55/55
f 112/112/112 55/55/55 52/52/52
f 94/94/94 96/96/96 108/108/108
f 94/94/94 108/108/108 112/112/112
f 55/55/55 109/109/109 113/113/113
f 55/55/55 113/113/113 54/54/54
f 54/54/54 113/113/113 114/114/114
f 54/54/54 114/114/114 51/51/51
f 113/113/113 115/115/115 116/116/116
f 113/113/113 116/116/116 114/114/114
f 109/109/109 111/111/111 115/115/115
f 109/109/109 115/115/115 113/113/113
f 111/111/111 117/117/117 118/118/118
f 111/111/111 118/118/118 115/115/115
f 115/115/115 118/118/118 119/119/119
f 115/115/115 119/119/119 116/116/116
f 118/118/118 120/120/120 121/121/121
f 118/118/118 121/121/121 119/119/119
f 117/117/117 122/122/122 120/120/120
f 117/117/117 120/120/120 118/118/118
f 106/106/106 123/123/123 124/124/124
f 106/106/106 124/124/124 110/110/110
f 110/110/110 124/124/124 117/117/117
f 110/110/110 117/117/117 111/111/111
f 124/124/124 125/125/125 122/122/122
f 124/124/124 122/122/122 117/117/117
f 123/123/123 126/126/126 125/125/125
f 123/123/123 125/125/125 124/124/124
f 127/127/127 128/128/128 129/129/129
f 127/127/127 129/129/129 130/130/130
f 130/130/130 129/129/129 131/131/131
f 130/130/130 131/131/131 132/132/132
f 129/129/129 119/119/119 121/121/121
f 129/129/129 121/121/121 131/131/131
f 128/128/128 116/116/116 119/119/119
f 128/128/128 119/119/119 129/129/129
f 49/49/49 48/48/48 133/133/133
f 49/49/49 133/133/133 134/134/134
f 134/134/134 133/133/133 128/128/128
f 134/134/134 128/128/128 127/127/127
f 133/133/133 114/114/114 116/116/116
f 133/133/133 116/116/116 128/128/128
f 48/48/48 51/51/51 114/114/114
f 48/48/48 114/114/114 133/133/133
f 127/127/127 130/130/130 135/135/135
f 127/127/127 135/135/135 136/136/136
f 136/136/136 135/135/135 137/137/137
f 136/136/136 137/137/137 138/138/138
f 135/135/135 139/139/139 140/140/140
f 135/135/135 140/140/140 137/137/137
f 130/130/130 132/132/132 139/139/139
f 130/130/130 139/139/139 135/135/135
f 49/49/49 134/134/134 141/141/141
f 49/49/49 141/141/141 60/60/60
f 60/60/60 141/141/141 142/142/142
f 60/60/60 142/142/142 61/61/61
f 141/141/141 136/136/136 138/138/138
f 141/141/141 138/138/138 142/142/142
f 134/134/134 127/127/127 136/136/136
f 134/134/134 136/136/136 141/141/141
f 138/138/138 137/137/137 143/143/143
f 138/138/138 143/143/143 144/144/144
f 144/144/144 143/143/143 145/145/145
f 144/144/144 145/145/145 146/146/146
f 143/143/143 147/147/147 148/148/148
f 143/143/143 148/148/148 145/145/145
f 137/137/137 140/140/140 147/147/147
f 137/137/137 147/147/147 143/143/143
f 61/61/61 142/142/142 149/149/149
f 61/61/61 149/149/149 74/74/74
f 74/74/74 149/149/149 150/150/150
f 74/74/74 150/150/150 75/75/75
f 149/149/149 144/144/144 146/146/146
f 149/149/149 146/146/146 150/150/150
f 142/142/142 138/138/138 144/144/144
f 142/142/142 144/144/144 149/149/149
f 146/146/146 145/145/145 151/151/151
f 146/146/146 151/151/151 152/152/152
f 152/152/152 151/151/151 153/153/153
f 152/152/152 153/153/153 102/102/102
f 151/151/151 154/154/154 155/155/155
f 151/151/151 155/155/155 153/153/153
f 145/145/145 148/148/148 154/154/154
f 145/145/145 154/154/154 151/151/151
f 75/75/75 150/150/150 156/156/156
f 75/75/75 156/156/156 80/80/80
f 80/80/80 156/156/156 97/97/97
f 80/80/80 97/97/97 81/81/81
f 156/156/156 152/152/152 102/102/102
f 156/156/156 102/102/102 97/97/97
f 150/150/150 146/146/146 152/152/152
f 150/150/150 152/152/152 156/156/156
f 102/102/102 153/153/153 157/157/157
f 102/102/102 157/157/157 100/100/100
f 100/100/100 157/157/157 158/158/158
f 100/100/100 158/158/158 101/101/101
f 157/157/157 159/159/159 160/160/160
f 157/157/157 160/160/160 158/158/158
f 153/153/153 155/155/155 159/159/159
f 153/153/153 159/159/159 157/157/157
f 160/160/160 159/159/159 161/161/161
f 160/160/160 161/161/161 162/162/162
f 162/162/162 161/161/161 163/163/163
f 162/162/162 163/163/163 164/164/164
f 161/161/161 165/165/165 166/166/166
f 161/161/161 166/166/166 163/163/163
f 159/159/159 155/155/155 165/165/165
f 159/159/159 165/165/165 161/161/161
f 155/155/155 154/154/154 167/167/167
f 155/155/155 167/167/167 165/165/165
f 165/165/165 167/167/167 168/168/168
f 165/165/165 168/168/168 166/166/166
f 167/167/167 169/169/169 170/170/170
f 167/167/167 170/170/170 168/168/168
f 154/154/154 148/148/148 169/169/169
f 154/154/154 169/169/169 167/167/167
f 164/164/164 163/163/163 171/171/171
f 164/164/164 171/171/171 172/172/172
f 172/172/172 171/171/171 173/173/173
f 172/172/172 173/173/173 174/174/174
f 171/171/171 175/175/175 176/176/176
f 171/171/171 176/176/176 173/173/173
f 163/163/163 166/166/166 175/175/175
f 163/163/163 175/175/175 171/171/171
f 166/166/166 168/168/168 177/177/177
f 166/166/166 177/177/177 175/175/175
f 175/175/175 177/177/177 178/178/178
f 175/175/175 178/178/178 176/176/176
f 177/177/177 179/179/179 180/180/180
f 177/177/177 180/180/180 178/178/178
f 168/168/168 170/170/170 179/179/179
f 168/168/168 179/179/179 177/177/177
f 174/174/174 173/173/173 181/181/181
f 174/174/174 181/181/181 182/182/182
f 182/182/182 181/181/181 183/183/183
f 182/182/182 183/183/183 184/184/184
f 181/181/181 185/185/185 186/186/186
f 181/181/181 186/186/186 183/183/183
f 173/173/173 176/176/176 185/185/185
f 173/173/173 185/185/185 181/181/181
f 176/176/176 178/178/178 187/187/187
f 176/176/176 187/187/187 185/185/185
f 185/185/185 187/187/187 188/188/188
f 185/185/185 188/188/188 186/186/186
f 187/187/187 189/189/189 190/190/190
f 187/187/187 190/190/190 188/188/188
f 178/178/178 180/180/180 189/189/189
f 178/178/178 189/189/189 187/187/187
f 191/191/191 192/192/192 193/193/193
f 191/191/191 193/193/193 194/194/194
f 194/194/194 193/193/193 183/183/183
f 194/194/194 183/183/183 186/186/186
f 193/193/193 195/195/195 184/184/184
f 193/193/193 184/184/184 183/183/183
f 192/192/192 196/196/196 195/195/195
f 192/192/192 195/195/195 193/193/193
f 197/197/197 198/198/198 199/199/199
f 197/197/197 199/199/199 200/200/200
f 200/200/200 199/199/199 188/188/188
f 200/200/200 188/188/188 190/190/190
f 199/199/199 194/194/194 186/186/186
f 199/199/199 186/186/186 188/188/188
f 198/198/198 191/191/191 194/194/194
f 198/198/198 194/194/194 199/199/199
f 201/201/201 202/202/202 203/203/203
f 201/201/201 203/203/203 204/204/204
f 205/205/205 204/204/204 203/203/203
f 205/205/205 203/203/203 206/206/206
f 207/207/207 206/206/206 203/203/203
f 207/207/207 203/203/203 208/208/208
f 209/209/209 208/208/208 203/203/203
f 209/209/209 203/203/203 210/210/210
f 211/211/211 210/210/210 203/203/203
f 211/211/211 203/203/203 212/212/212
f 197/197/197 212/212/212 203/203/203
f 197/197/197 203/203/203 198/198/198
f 191/191/191 198/198/198 203/203/203
f 191/191/191 203/203/203 192/192/192
f 196/196/196 192/192/192 203/203/203
f 196/196/196 203/203/203 202/202/202
f 211/211/211 212/212/212 213/213/213
f 211/211/211 213/213/213 214/214/214
f 214/214/214 213/213/213 215/215/215
f 214/214/214 215/215/215 216/216/216
f 213/213/213 200/200/200 190/190/190
f 213/213/213 190/190/190 215/215/215
f 212/212/212 197/197/197 200/200/200
f 212/212/212 200/200/200 213/213/213
f 209/209/209 210/210/210 217/217/217
f 209/209/209 217/217/217 218/218/218
f 218/218/218 217/217/217 219/219/219
f 218/218/218 219/219/219 220/220/220
f 217/217/217 214/214/214 216/216/216
f 217/217/217 216/216/216 219/219/219
f 210/210/210 211/211/211 214/214/214
f 210/210/210 214/214/214 217/217/217
f 180/180/180 221/221/221 222/222/222
f 180/180/180 222/222/222 189/189/189
f 189/189/189 222/222/222 215/215/215
f 189/189/189 215/215/215 190/190/190
f 222/222/222 223/223/223 216/216/216
f 222/222/222 216/216/216 215/215/215
f 221/221/221 224/224/224 223/223/223
f 221/221/221 223/223/223 222/222/222
f 224/224/224 225/225/225 226/226/226
f 224/224/224 226/226/226 223/223/223
f 223/223/223 226/226/226 219/219/219
f 223/223/223 219/219/219 216/216/216
f 226/226/226 227/227/227 220/220/220
f 226/226/226 220/220/220 219/219/219
f 225/225/225 228/228/228 227/227/227
f 225/225/225 227/227/227 226/226/226
f 170/170/170 229/229/229 230/230/230
f 170/170/170 230/230/230 179/179/179
f 179/179/179 230/230/230 221/221/221
f 179/179/179 221/221/221 180/180/180
f 230/230/230 231/231/231 224/224/224
f 230/230/230 224/224/224 221/221/221
f 229/229/229 232/232/232 231/231/231
f 229/229/229 231/231/231 230/230/230
f 232/232/232 233/233/233 234/234/234
f 232/232/232 234/234/234 231/231/231
f 231/231/231 234/234/234 225/225/225
f 231/231/231 225/225/225 224/224/224
f 234/234/234 235/235/235 228/228/228
f 234/234/234 228/228/228 225/225/225
f 233/233/233 236/236/236 235/235/235
f 233/233/233 235/235/235 234/234/234
f 148/148/148 147/147/147 237/237/237
f 148/148/148 237/237/237 169/169/169
f 169/169/169 237/237/237 229/229/229
f 169/169/169 229/229/229 170/170/170
f 237/237/237 238/238/238 232/232/232
f 237/237/237 232/232/232 229/229/229
f 147/147/147 140/140/140 238/238/238
f 147/147/147 238/238/238 237/237/237
f 140/140/140 139/139/139 239/239/239
f 140/140/140 239/239/239 238/238/238
f 238/238/238 239/239/239 233/233/233
f 238/238/238 233/233/233 232/232/232
f 239/239/239 240/240/240 236/236/236
f 239/239/239 236/236/236 233/233/233
f 139/139/139 132/132/132 240/240/240
f 139/139/139 240/240/240 239/239/239
f 236/236/236 241/241/241 242/242/242
f 236/236/236 242/242/242 235/235/235
f 235/235/235 242/242/242 243/243/243
f 235/235/235 243/243/243 228/228/228
f 242/242/242 244/244/244 245/245/245
f 242/242/242 245/245/245 243/243/243
f 241/241/241 246/246/246 244/244/244
f 241/241/241 244/244/244 242/242/242
f 132/132/132 131/131/131 247/247/247
f 132/132/132 247/247/247 240/240/240
f 240/240/240 247/247/247 241/241/241
f 240/240/240 241/241/241 236/236/236
f 247/247/247 248/248/248 246/246/246
f 247/247/247 246/246/246 241/241/241
f 131/131/131 121/121/121 248/248/248
f 131/131/131 248/248/248 247/247/247
f 121/121/121 120/120/120 249/249/249
f 121/121/121 249/249/249 248/248/248
f 248/248/248 249/249/249 250/250/250
f 248/248/248 250/250/250 246/246/246
f 249/249/249 251/251/251 252/252/252
f 249/249/249 252/252/252 250/250/250
f 120/120/120 122/122/122 251/251/251
f 120/120/120 251/251/251 249/249/249
f 246/246/246 250/250/250 253/253/253
f 246/246/246 253/253/253 244/244/244
f 244/244/244 253/253/253 254/254/254
f 244/244/244 254/254/254 245/245/245
f 253/253/253 255/255/255 256/256/256
f 253/253/253 256/256/256 254/254/254
f 250/250/250 252/252/252 255/255/255
f 250/250/250 255/255/255 253/253/253
f 228/228/228 243/243/243 257/257/257
f 228/228/228 257/257/257 227/227/227
f 227/227/227 257/257/257 258/258/258
f 227/227/227 258/258/258 220/220/220
f 257/257/257 259/259/259 260/260/260
f 257/257/257 260/260/260 258/258/258
f 243/243/243 245/245/245 259/259/259
f 243/243/243 259/259/259 257/257/257
f 245/245/245 254/254/254 261/261/261
f 245/245/245 261/261/261 259/259/259
f 259/259/259 261/261/261 262/262/262
f 259/259/259 262/262/262 260/260/260
f 261/261/261 263/263/263 264/264/264
f 261/261/261 264/264/264 262/262/262
f 254/254/254 256/256/256 263/263/263
f 254/254/254 263/263/263 261/261/261
f 207/207/207 208/208/208 265/265/265
f 207/207/207 265/265/265 266/266/266
f 266/266/266 265/265/265 258/258/258
f 266/266/266 258/258/258 260/260/260
f 265/265/265 218/218/218 220/220/220
f 265/265/265 220/220/220 258/258/258
f 208/208/208 209/209/209 218/218/218
f 208/208/208 218/218/218 265/265/265
f 205/205/205 206/206/206 267/267/267
f 205/205/205 267/267/267 268/268/268
f 268/268/268 267/267/267 262/262/262
f 268/268/268 262/262/262 264/264/264
f 267/267/267 266/266/266 260/260/260
f 267/267/267 260/260/260 262/262/262
f 206/206/206 207/207/207 266/266/266
f 206/206/206 266/266/266 267/267/267
f 201/201/201 204/204/204 269/269/269
f 201/201/201 269/269/269 270/270/270
f 270/270/270 269/269/269 271/271/271
f 270/270/270 271/271/271 272/272/272
f 269/269/269 268/268/268 264/264/264
f 269/269/269 264/264/264 271/271/271
f 204/204/204 205/205/205 268/268/268
f 204/204/204 268/268/268 269/269/269
f 196/196/196 202/202/202 273/273/273
f 196/196/196 273/273/273 195/195/195
f 195/195/195 273/273/273 274/274/274
f 195/195/195 274/274/274 184/184/184
f 273/273/273 270/270/270 272/272/272
f 273/273/273 272/272/272 274/274/274
f 202/202/202 201/201/201 270/270/270
f 202/202/202 270/270/270 273/273/273
f 256/256/256 275/275/275 276/276/276
f 256/256/256 276/276/276 263/263/263
f 263/263/263 276/276/276 271/271/271
f 263/263/263 271/271/271 264/264/264
f 276/276/276 277/277/277 272/272/272
f 276/276/276 272/272/272 271/271/271
f 275/275/275 278/278/278 277/277/277
f 275/275/275 277/277/277 276/276/276
f 278/278/278 279/279/279 280/280/280
f 278/278/278 280/280/280 277/277/277
f 277/277/277 280/280/280 274/274/274
f 277/277/277 274/274/274 272/272/272
f 280/280/280 182/182/182 184/184/184
f 280/280/280 184/184/184 274/274/274
f 279/279/279 174/174/174 182/182/182
f 279/279/279 182/182/182 280/280/280
f 252/252/252 281/281/281 282/282/282
f 252/252/252 282/282/282 255/255/255
f 255/255/255 282/282/282 275/275/275
f 255/255/255 275/275/275 256/256/256
f 282/282/282 283/283/283 278/278/278
f 282/282/282 278/278/278 275/275/275
f 281/281/281 284/284/284 283/283/283
f 281/281/281 283/283/283 282/282/282
f 284/284/284 285/285/285 286/286/286
f 284/284/284 286/286/286 283/283/283
f 283/283/283 286/286/286 279/279/279
f 283/283/283 279/279/279 278/278/278
f 286/286/286 172/172/172 174/174/174
f 286/286/286 174/174/174 279/279/279
f 285/285/285 164/164/164 172/172/172
f 285/285/285 172/172/172 286/286/286
f 122/122/122 125/125/125 287/287/287
f 122/122/122 287/287/287 251/251/251
f 251/251/251 287/287/287 281/281/281
f 251/251/251 281/281/281 252/252/252
f 287/287/287 288/288/288 284/284/284
f 287/287/287 284/284/284 281/281/281
f 125/125/125 126/126/126 288/288/288
f 125/125/125 288/288/288 287/287/287
f 126/126/126 289/289/289 290/290/290
f 126/126/126 290/290/290 288/288/288
f 288/288/288 290/290/290 285/285/285
f 288/288/288 285/285/285 284/284/284
f 290/290/290 162/162/162 164/164/164
f 290/290/290 164/164/164 285/285/285
f 289/289/289 160/160/160 162/162/162
f 289/289/289 162/162/162 290/290/290
f 101/101/101 158/158/158 291/291/291
f 101/101/101 291/291/291 105/105/105
f 105/105/105 291/291/291 123/123/123
f 105/105/105 123/123/123 106/106/106
f 291/291/291 289/289/289 126/126/126
f 291/291/291 126/126/126 123/123/123
f 158/158/158 160/160/160 289/289/289
f 158/158/158 289/289/289 291/291/291
f 292/292/292 293/293/293 294/294/294
f 292/292/292 294/294/294 295/295/295
f 295/295/295 294/294/294 296/296/296
f 295/295/295 296/296/296 297/297/297
f 294/294/294 83/83/83 85/85/85
f 294/294/294 85/85/85 296/296/296
f 293/293/293 69/69/69 83/83/83
f 293/293/293 83/83/83 294/294/294
f 297/297/297 296/296/296 298/298/298
f 297/297/297 298/298/298 299/299/299
f 299/299/299 298/298/298 11/11/11
f 299/299/299 11/11/11 10/10/10
f 298/298/298 87/87/87 15/15/15
f 298/298/298 15/15/15 11/11/11
f 296/296/296 85/85/85 87/87/87
f 296/296/296 87/87/87 298/298/298
f 300/300/300 301/301/301 302/302/302
f 300/300/300 302/302/302 303/303/303
f 303/303/303 302/302/302 293/293/293
f 303/303/303 293/293/293 292/292/292
f 302/302/302 67/67/67 69/69/69
f 302/302/302 69/69/69 293/293/293
f 301/301/301 65/65/65 67/67/67
f 301/301/301 67/67/67 302/302/302
f 36/36/36 39/39/39 304/304/304
f 36/36/36 304/304/304 305/305/305
f 305/305/305 304/304/304 301/301/301
f 305/305/305 301/301/301 300/300/300
f 304/304/304 63/63/63 65/65/65
f 304/304/304 65/65/65 301/301/301
f 39/39/39 41/41/41 63/63/63
f 39/39/39 63/63/63 304/304/304
