v -0.956756 0.838254 0.10748
v -0.958822 0.838275 0.104047
v -0.956908 0.839174 0.10253
v -0.955316 0.838895 0.10634
v -0.95503 0.840782 0.101717
v -0.953918 0.840074 0.105719
v -0.958554 0.839675 0.0986811
v -0.956253 0.841654 0.0977147
v -0.960888 0.838559 0.100502
v -0.958959 0.83894 0.110559
v -0.961631 0.839076 0.10824
v -0.960478 0.838254 0.106055
v -0.958031 0.838279 0.108967
v -0.962892 0.838507 0.102931
v -0.964262 0.839485 0.105594
v -0.962939 0.839286 0.0967177
v -0.960256 0.840541 0.0947146
v -0.957617 0.842785 0.0936606
v -0.961814 0.841595 0.0904016
v -0.958822 0.843995 0.0893008
v -0.964889 0.840306 0.0924976
v -0.966838 0.840377 0.102337
v -0.965248 0.839242 0.0993955
v -0.967562 0.840357 0.0952844
v -0.969454 0.841709 0.0983478
v -0.95347 0.842859 0.101752
v -0.952763 0.841604 0.105738
v -0.952455 0.84508 0.102606
v -0.952016 0.84324 0.106375
v -0.95434 0.844208 0.0977688
v -0.953092 0.846941 0.0988064
v -0.955432 0.845695 0.0937392
v -0.954015 0.848822 0.0949073
v -0.956389 0.847172 0.089407
v -0.954867 0.850631 0.0906749
v -0.952182 0.845861 0.109055
v -0.95181 0.84473 0.107548
v -0.952158 0.847104 0.104169
v -0.952618 0.848631 0.106188
v -0.95272 0.849436 0.100697
v -0.953262 0.85132 0.103138
v -0.953605 0.851691 0.0970177
v -0.954238 0.853874 0.0997316
v -0.95451 0.85385 0.09294
v -0.955328 0.856346 0.0958206
v -0.955169 0.855973 0.088229
v -0.956329 0.858867 0.0912277
v -0.955885 0.858423 0.082554
v -0.957419 0.861768 0.0856233
v -0.955355 0.85235 0.0858279
v -0.955896 0.854343 0.0800569
v -0.959654 0.845142 0.0843271
v -0.956939 0.848548 0.0844656
v -0.957554 0.850155 0.0786112
v -0.960576 0.846492 0.0784187
v -0.958664 0.860555 0.0943374
v -0.95722 0.857709 0.0988797
v -0.961837 0.860825 0.0971447
v -0.959887 0.857763 0.101675
v -0.960261 0.863827 0.0887477
v -0.96401 0.864347 0.0915357
v -0.955845 0.855006 0.102653
v -0.954664 0.852275 0.105775
v -0.958153 0.854941 0.105346
v -0.956678 0.852179 0.108216
v -0.960817 0.853651 0.107396
v -0.958993 0.851014 0.110083
v -0.96343 0.851384 0.108498
v -0.961258 0.849015 0.111102
v -0.962952 0.856465 0.103788
v -0.965937 0.854052 0.104904
v -0.965431 0.859609 0.099268
v -0.968869 0.857124 0.100377
v -0.968181 0.863219 0.0936318
v -0.972104 0.86065 0.0947016
v -0.971583 0.853707 0.100229
v -0.968368 0.850866 0.104803
v -0.973178 0.849898 0.0988719
v -0.969896 0.847406 0.103527
v -0.975118 0.856981 0.0944929
v -0.976788 0.852792 0.0930618
v -0.965594 0.848481 0.108441
v -0.963133 0.846491 0.111075
v -0.967008 0.845382 0.107258
v -0.964366 0.843811 0.110028
v -0.967441 0.842542 0.105101
v -0.964762 0.841357 0.108089
v -0.970264 0.844194 0.101245
v -0.973382 0.846276 0.0964905
v -0.972235 0.843389 0.093513
v -0.976826 0.848717 0.0906056
v -0.975317 0.845379 0.0875778
v -0.9699 0.841714 0.0904133
v -0.966716 0.84145 0.0876006
v -0.972483 0.843325 0.0844696
v -0.968722 0.842807 0.0816671
v -0.980573 0.856013 0.0858416
v -0.980511 0.851458 0.083325
v -0.978703 0.847662 0.0802483
v -0.983999 0.854502 0.0744526
v -0.981848 0.850273 0.0712158
v -0.98424 0.859526 0.077125
v -0.975412 0.845246 0.0771063
v -0.971126 0.84452 0.0743081
v -0.978155 0.847553 0.0679671
v -0.973492 0.846706 0.0651349
v -0.966426 0.84563 0.0722304
v -0.964524 0.84393 0.0795301
v -0.962057 0.848364 0.0712062
v -0.968499 0.847904 0.0630952
v -0.963898 0.850885 0.0621382
v -0.963106 0.842665 0.0854577
v -0.958739 0.852355 0.07148
v -0.956946 0.85697 0.0729866
v -0.960377 0.855216 0.0624648
v -0.958418 0.860199 0.0640063
v -0.965779 0.854043 0.0510307
v -0.962225 0.858649 0.051321
v -0.96011 0.863827 0.0528858
v -0.96415 0.862246 0.0394975
v -0.961891 0.867385 0.0411533
v -0.967555 0.857475 0.0393504
v -0.975319 0.849369 0.0541833
v -0.97033 0.850765 0.0520559
v -0.971773 0.853826 0.0406989
v -0.976495 0.852081 0.0431881
v -0.960218 0.869162 0.0697005
v -0.958367 0.865081 0.0665654
v -0.959802 0.868806 0.0555463
v -0.961478 0.872945 0.0588275
v -0.961151 0.872196 0.0441331
v -0.962421 0.87619 0.0478058
v -0.95699 0.861512 0.0755192
v -0.95878 0.865294 0.0786135
v -0.96514 0.875695 0.062214
v -0.963792 0.87182 0.0729246
v -0.970282 0.876708 0.0653235
v -0.968557 0.872714 0.0758127
v -0.966012 0.878938 0.0515096
v -0.971376 0.880046 0.0549076
v -0.962063 0.867705 0.0817638
v -0.966355 0.868435 0.0845577
v -0.976166 0.875765 0.0677802
v -0.973839 0.871658 0.0779655
v -0.981641 0.872945 0.0690992
v -0.978737 0.868824 0.0790241
v -0.977639 0.879204 0.0576796
v -0.983487 0.876393 0.0592475
v -0.971071 0.867339 0.0866193
v -0.975459 0.864619 0.087626
v -0.985586 0.868512 0.0688772
v -0.98238 0.864555 0.0787223
v -0.987402 0.863167 0.0671477
v -0.987647 0.87181 0.0591017
v -0.989448 0.866234 0.0572634
v -0.978785 0.860633 0.0873439
v -0.9868 0.857745 0.0641591
v -0.984186 0.853155 0.0605855
v -0.988585 0.860591 0.0540126
v -0.985624 0.855832 0.0501325
v -0.989202 0.862526 0.0456665
v -0.986241 0.85788 0.041725
v -0.989062 0.863862 0.0397177
v -0.986328 0.859517 0.0359333
v -0.989961 0.86813 0.0489139
v -0.989549 0.86923 0.0427737
v -0.988026 0.873858 0.0507739
v -0.987484 0.874921 0.0445709
v -0.983805 0.878655 0.0509471
v -0.983375 0.879806 0.0448105
v -0.98861 0.865038 0.0362354
v -0.986163 0.861051 0.0327455
v -0.987874 0.866154 0.0342341
v -0.98575 0.862549 0.0311206
v -0.988905 0.870053 0.0390369
v -0.988053 0.870721 0.036742
v -0.986886 0.875419 0.0407055
v -0.986214 0.875556 0.0382368
v -0.983058 0.880077 0.0409678
v -0.982784 0.879758 0.0384854
v -0.986804 0.867145 0.0329272
v -0.985036 0.863922 0.0302405
v -0.985479 0.867617 0.0333788
v -0.984006 0.864726 0.0312064
v -0.986899 0.871189 0.0350984
v -0.985539 0.87115 0.0351542
v -0.985287 0.875404 0.0363925
v -0.984162 0.874761 0.0362298
v -0.982307 0.879063 0.0366198
v -0.98161 0.877874 0.036454
v -0.982032 0.869667 0.0397281
v -0.981074 0.867355 0.0393445
v -0.983828 0.867379 0.0363066
v -0.983978 0.870427 0.0375736
v -0.982607 0.864792 0.0346986
v -0.980885 0.865159 0.0377924
v -0.979457 0.874027 0.0405667
v -0.980407 0.871536 0.0406432
v -0.982781 0.873434 0.0384502
v -0.98067 0.876053 0.0386592
v -0.976849 0.863265 0.0359728
v -0.978559 0.864283 0.0376533
v -0.975534 0.86872 0.0404004
v -0.974701 0.864297 0.0364969
v -0.972762 0.865256 0.0351563
v -0.971635 0.867265 0.0364925
v -0.970262 0.869531 0.0359537
v -0.970642 0.871186 0.0377823
v -0.970733 0.873629 0.0379301
v -0.972753 0.874104 0.0395214
v -0.974686 0.875652 0.0398005
v -0.976938 0.87435 0.0406866
v -0.977776 0.877674 0.0382893
v -0.974675 0.878285 0.0372902
v -0.978267 0.879957 0.0357611
v -0.974687 0.880668 0.034277
v -0.971867 0.87748 0.035971
v -0.969896 0.875875 0.0342967
v -0.971507 0.879868 0.032194
v -0.969499 0.878053 0.0297803
v -0.978352 0.882478 0.0373741
v -0.978439 0.881488 0.0356935
v -0.974328 0.882274 0.0337694
v -0.973646 0.88329 0.0350945
v -0.969505 0.88211 0.0319136
v -0.97072 0.881293 0.0310786
v -0.968578 0.879252 0.0279109
v -0.967094 0.879795 0.0280958
v -0.977974 0.882836 0.0433663
v -0.978114 0.883025 0.0396878
v -0.972837 0.883873 0.0371075
v -0.972186 0.883701 0.0405693
v -0.967038 0.882445 0.0368213
v -0.968139 0.882606 0.0335432
v -0.965364 0.880078 0.0292282
v -0.963899 0.879784 0.0323491
v -0.978033 0.881585 0.0493641
v -0.97185 0.882423 0.0464822
v -0.966476 0.881229 0.0428248
v -0.963061 0.878505 0.0386535
v -0.963727 0.876445 0.0275335
v -0.965457 0.877137 0.0245626
v -0.967217 0.877196 0.0240407
v -0.967339 0.873741 0.0206941
v -0.968935 0.874186 0.0206929
v -0.965496 0.872547 0.0235455
v -0.962366 0.874797 0.0343146
v -0.963678 0.870384 0.0307541
v -0.966059 0.865537 0.0288965
v -0.96792 0.868121 0.0215394
v -0.969157 0.860746 0.0289796
v -0.970655 0.863472 0.0218124
v -0.96967 0.869729 0.0187543
v -0.97107 0.870535 0.0189761
v -0.972089 0.865376 0.0190594
v -0.973249 0.866572 0.0191866
v -0.968569 0.876867 0.0246468
v -0.969218 0.875755 0.0273545
v -0.969968 0.874065 0.0219691
v -0.970195 0.873036 0.0253634
v -0.971849 0.870705 0.0205341
v -0.971792 0.869928 0.0242269
v -0.973871 0.867161 0.0205899
v -0.973723 0.866821 0.0241303
v -0.969325 0.873594 0.032747
v -0.969806 0.871032 0.0312795
v -0.97112 0.868218 0.0305411
v -0.972932 0.865613 0.0302429
v -0.975123 0.863644 0.0308496
v -0.977634 0.862684 0.0317801
v -0.975864 0.864227 0.0251105
v -0.978395 0.862785 0.0268443
v -0.980285 0.86316 0.0332302
v -0.981367 0.862999 0.0289542
v -0.975455 0.862889 0.0212736
v -0.975965 0.864003 0.02214
v -0.978565 0.862081 0.0246172
v -0.978286 0.860564 0.0244274
v -0.98211 0.860517 0.027796
v -0.98192 0.862101 0.0274024
v -0.973691 0.859167 0.0242489
v -0.974617 0.861247 0.0215092
v -0.977844 0.858646 0.0251505
v -0.977421 0.856564 0.0279389
v -0.982012 0.856823 0.0319349
v -0.982104 0.858693 0.0289921
v -0.972814 0.856673 0.0309265
v -0.977079 0.854437 0.0340879
v -0.981339 0.852824 0.0464154
v -0.981855 0.854956 0.0377765
v -0.980148 0.850225 0.0571294
v -0.957399 0.844734 0.113749
v -0.959282 0.84683 0.112704
v -0.960813 0.844801 0.112683
v -0.958552 0.843267 0.113718
v -0.961797 0.84263 0.111837
v -0.95925 0.841658 0.113113
v -0.962082 0.840622 0.11027
v -0.959384 0.840137 0.112007
v -0.954436 0.846457 0.112114
v -0.955479 0.849345 0.110362
v -0.957408 0.848425 0.111881
v -0.955948 0.845847 0.113188
v -0.953795 0.84941 0.108361
v -0.953112 0.846459 0.11066
vt 0.08333 0.9167
vt 0.01147 0.2613
vt 0.9893 0.7393
vt 0.0009446 0.5001
vt 0.08478 0.08462
vt 0.08433 0.9159
vt 0.01147 0.2613
vt 0.0004723 0.5001
vt 0.01042 0.7396
vt 0.01114 0.7391
vt 0.9159 0.9158
vt 0.9895 0.7395
vt 0.0007095 0.5001
vt 0.01182 0.2617
vt 0.01114 0.7391
vt 0.01182 0.2617
vt 0.9165 0.9165
vt 0.08526 0.08505
vt 0.9162 0.9162
vt 0 0.5
vt 0.01042 0.7396
vt 0.2604 0.01042
vt 0.9162 0.9162
vt 0.08333 0.08333
vt 0.2612 0.989
vt 0.9998 0.5
vt 0.9893 0.7393
vt 0.01112 0.261
vt 0.01187 0.7385
vt 0.01147 0.2613
vt 0.01114 0.7391
vt 0.9999 0.5
vt 0.08478 0.08462
vt 0.01112 0.261
vt 0.0004723 0.5001
vt 0.01112 0.261
vt 0.9895 0.2605
vt 0.9895 0.7395
vt 0.9893 0.2608
vt 0.0843 0.08419
vt 0.0009446 0.5001
vt 0.9893 0.7393
vt 0.5 -1.192e-07
vt 0.0004738 0.5001
vt 0.08532 0.9151
vt 0.9992 0.5001
vt 0.01147 0.2613
vt 0.989 0.739
vt 0.01187 0.7385
vt 0.0007095 0.5001
vt 0.08433 0.9159
vt 0.2612 0.01106
vt 0.9994 0.5001
vt 0.2615 0.01137
vt 0.5003 0.9992
vt 0.9886 0.7387
vt 0.2604 0.01042
vt 0.5002 0.0004414
vt 0.01114 0.7391
vt 0.9893 0.7393
vt 0.5002 0.9996
vt 0.9883 0.7384
vt 0.989 0.739
vt 0.2612 0.01105
vt 0.5 1
vt 0.9883 0.7384
vt 0.9996 0.5
vt 0.2619 0.01169
vt 0.2604 0.9896
vt 0.5002 0.0004414
vt 0.2612 0.989
vt 0.9886 0.7387
vt 0.2612 0.01105
vt 0.9998 0.5
vt 0.2604 0.9896
vt 0.9155 0.9154
vt 0.5003 0.0008831
vt 0.0843 0.08419
vt 0.2612 0.989
vt 0.989 0.2611
vt 0.08333 0.9167
vt 0.9151 0.9149
vt 0.9996 0.5
vt 0.2612 0.01105
vt 0.08433 0.9159
vt 0.9886 0.7387
vt 0.9998 0.5
vt 0.08526 0.08505
vt 0.989 0.739
vt 0.2619 0.01169
vt 0.2612 0.01105
vt 0.2619 0.9884
vt 0.9159 0.9158
vt 0.5003 0.0006633
vt 0.5003 0.0008831
vt 0.08433 0.9159
vt 0.2608 0.01075
vt 0.9155 0.9154
vt 0.0843 0.08419
vt 0.5 7.397e-05
vt 0.08532 0.9151
vt 0.0115 0.7388
vt 0.9994 0.5001
vt 0.2619 0.01169
vt 0.989 0.2611
vt 0.5002 0.9996
vt 0.9996 0.5
vt 0.2615 0.01137
vt 0.5003 0.0006633
vt 0.08478 0.08462
vt 0.2619 0.9884
vt 0.989 0.739
vt 0.9886 0.7387
vt 0.2612 0.01106
vt 0.2615 0.01137
vt 0.08532 0.9151
vt 0.5002 0.000443
vt 0.9151 0.9149
vt 0.0843 0.08419
vt 0.9893 0.2608
vt 0.08482 0.9155
vt 0.2612 0.989
vt 0.9155 0.08473
vt 0.9155 0.9154
vt 0.7389 0.01145
vt 0.0843 0.08419
vt 0.0115 0.7388
vt 0.2619 0.01169
vt 0.7389 0.9886
vt 0.08526 0.08505
vt 0.9163 0.08382
vt 0.01187 0.7385
vt 0.7386 0.9883
vt 0.08478 0.08462
vt 0.7386 0.9883
vt 0.2615 0.01137
vt 0.5002 0.000443
vt 0.01187 0.7385
vt 0.9159 0.08426
vt 0.0115 0.7388
vt 0.7389 0.9886
vt 0.2608 0.01075
vt 0.5002 0.9994
vt 0.2612 0.01106
vt 0.5001 0.000231
vt 0.0007095 0.5001
vt 0.9887 0.2614
vt 0.0009446 0.5001
vt 0.5003 0.9992
vt 0.5001 0.000231
vt 0.7389 0.9886
vt 0.2608 0.01075
vt 0.2605 0.01052
vt 0.08349 0.08348
vt 0.01114 0.7391
vt 0.7391 0.9889
vt 0.5002 0.9996
vt 0.989 0.2611
vt 0.08384 0.08378
vt 0.0004738 0.5001
vt 0.5002 0.9994
vt 0.9159 0.08426
vt 0.2612 0.01106
vt 0.08482 0.9155
vt 0.2605 0.01052
vt 0.0007095 0.5001
vt 0.9155 0.9154
vt 0.0843 0.08419
vt 0.9155 0.08473
vt 0.08433 0.9159
vt 0.9159 0.9158
vt 0.9994 0.5001
vt 0.2608 0.01075
vt 0.0115 0.7388
vt 0.08384 0.08378
vt 0.01114 0.7391
vt 0.7391 0.9889
vt 0.0004738 0.5001
vt 0.9996 0.5
vt 0.5003 0.9992
vt 0.7389 0.9886
vt 0.989 0.2611
vt 0.01078 0.2607
vt 0.2615 0.9887
vt 0.0002471 0.5
vt 0.5002 0.9994
vt 0.9159 0.9158
vt 0.01112 0.261
vt 0.9887 0.2614
vt 0.2619 0.9884
vt 0.2619 0.9884
vt 0.01078 0.2607
vt 0.9162 0.9162
vt 0.01112 0.261
vt 0.9992 0.5001
vt 0.2615 0.9887
vt 0.08482 0.9155
vt 0.08384 0.08378
vt 0.7393 0.9892
vt 0.01078 0.2607
vt 0.08333 0.08333
vt 0.7387 0.0118
vt 0.7391 0.9889
vt 0.7389 0.01145
vt 0.0843 0.08419
vt 0.5003 0.0006633
vt 0.01112 0.261
vt 0.5003 0.0008831
vt 0.2615 0.9887
vt 0.01053 0.2605
vt 0.08532 0.9151
vt 0.0843 0.08419
vt 0.7391 0.9889
vt 0.08349 0.08348
vt 0.08384 0.08378
vt 0.2612 0.989
vt 0.7393 0.9892
vt 0.9994 0.5001
vt 0.0002471 0.5
vt 0.08433 0.9159
vt 0.01053 0.2605
vt 0.5001 0.9998
vt 7.91e-05 0.5
vt 0.08482 0.9155
vt 0.01078 0.2607
vt 0.5002 0.9996
vt 0.9887 0.2614
vt 0.5002 0.9994
vt 0.5001 0.000231
vt 0.7393 0.9892
vt 0.5002 0.000443
vt 0.5002 0.9996
vt 0.7393 0.01078
vt 0.7395 0.9895
vt 0.9163 0.08382
vt 0.2612 0.989
vt 0.5 0.9999
vt 0.7391 0.01111
vt 0.5001 0.9998
vt 0.7393 0.01078
vt 0.7391 0.01111
vt 0.9162 0.9162
vt 0.9165 0.08349
vt 0.7395 0.01053
vt 0.0004723 0.5001
vt 0.2615 0.9887
vt 0.9165 0.9165
vt 0.7393 0.01078
vt 0.7395 0.9895
vt 0.9159 0.08426
vt 0.9884 0.2617
vt 0 0.5
vt 0.7393 0.9892
vt 0.9163 0.08382
vt 0.9884 0.2617
vt 0.01112 0.261
vt 0.5002 0.9996
vt 0.5 7.397e-05
vt 0.5001 0.000231
vt 0.01042 0.2604
vt 0.5001 0.9998
vt 0.7395 0.01053
vt 0.9887 0.2614
vt 0.01042 0.2604
vt 0.2608 0.9893
vt 0.7393 0.01078
vt 0.2612 0.989
vt 0.7387 0.0118
vt 0.2612 0.989
vt 0.7389 0.01145
vt 0.9155 0.08473
vt 0.01112 0.261
vt 0.2608 0.9893
vt 0.9151 0.08519
vt 0.7391 0.01111
vt 0.08385 0.9162
vt 0.7389 0.01145
vt 0.01182 0.2617
vt 0.9159 0.08426
vt 0.08433 0.9159
vt 0.5003 0.0006633
vt 0.2608 0.9893
vt 0.9155 0.08473
vt 0.08526 0.08505
vt 0.5002 0.000443
vt 0.2605 0.9895
vt 0.0835 0.9165
vt 0.7391 0.01111
vt 0.9151 0.08519
vt 0.08385 0.9162
vt 0.5001 0.9998
vt 0.0009446 0.5001
vt 0.9998 0.5
vt 0.5 0.9999
vt 0.9895 0.2605
vt 0.9893 0.2608
vt 0.0004723 0.5001
vt 0.2605 0.9895
vt 0.9893 0.2608
vt 0.01182 0.2617
vt 0.9165 0.08349
vt 0.2608 0.9893
vt 0.9999 0.5
vt 0.9165 0.9165
vt 0.9163 0.08382
vn 0.1259 -0.9888 -0.08023
vn 0.1255 -0.9849 -0.1194
vn 0.4095 -0.8735 -0.2631
vn 0.4074 -0.8829 -0.2333
vn 0.6543 -0.6822 -0.3264
vn 0.6547 -0.6924 -0.3033
vn 0.3798 -0.8691 -0.3168
vn 0.6379 -0.6733 -0.3738
vn 0.07358 -0.981 -0.1796
vn -0.3724 -0.8471 0.3789
vn -0.4055 -0.8503 0.3355
vn -0.1621 -0.9827 0.08979
vn -0.1483 -0.9798 0.1338
vn -0.2435 -0.9695 0.02731
vn -0.5132 -0.8136 0.2732
vn 0.02161 -0.974 -0.2254
vn 0.3557 -0.8692 -0.3434
vn 0.6312 -0.675 -0.3819
vn 0.3497 -0.8831 -0.3128
vn 0.6411 -0.6974 -0.3203
vn -0.006867 -0.9734 -0.2288
vn -0.6125 -0.7625 0.2083
vn -0.3259 -0.9449 -0.03055
vn -0.3745 -0.9253 -0.05936
vn -0.6666 -0.727 0.1643
vn 0.8424 -0.4397 -0.3113
vn 0.8461 -0.447 -0.2901
vn 0.9608 -0.1683 -0.22
vn 0.9655 -0.172 -0.1954
vn 0.833 -0.424 -0.3553
vn 0.9539 -0.1422 -0.2641
vn 0.8333 -0.4235 -0.3551
vn 0.9539 -0.1324 -0.2694
vn 0.849 -0.448 -0.2802
vn 0.9672 -0.1495 -0.2051
vn 0.9126 0.3537 0.2051
vn 0.9939 0.1071 -0.02557
vn 0.9922 0.1103 -0.05731
vn 0.9166 0.3637 0.1659
vn 0.9829 0.1516 -0.1038
vn 0.8972 0.4256 0.1173
vn 0.9756 0.181 -0.1239
vn 0.8729 0.481 0.08167
vn 0.9792 0.1825 -0.08792
vn 0.8589 0.5051 0.08481
vn 0.9801 0.193 -0.04541
vn 0.8474 0.5202 0.1055
vn 0.9735 0.2248 -0.04025
vn 0.8323 0.5419 0.1163
vn 0.9768 -0.1502 -0.1523
vn 0.9785 -0.123 -0.1657
vn 0.6377 -0.7203 -0.273
vn 0.8567 -0.4631 -0.227
vn 0.8537 -0.4552 -0.253
vn 0.619 -0.7288 -0.2927
vn 0.5778 0.7626 0.2907
vn 0.5983 0.7448 0.2954
vn 0.2226 0.8547 0.4689
vn 0.2443 0.8344 0.494
vn 0.5618 0.7744 0.291
vn 0.2098 0.8673 0.4515
vn 0.6338 0.7046 0.319
vn 0.6861 0.6285 0.3663
vn 0.2932 0.7918 0.5358
vn 0.3742 0.7117 0.5945
vn -0.07575 0.7256 0.6839
vn 0.01944 0.6541 0.7561
vn -0.4051 0.5294 0.7454
vn -0.3121 0.4643 0.8288
vn -0.1228 0.7633 0.6343
vn -0.445 0.5622 0.6971
vn -0.1404 0.7879 0.5996
vn -0.4639 0.5885 0.6622
vn -0.1542 0.8098 0.566
vn -0.4863 0.6183 0.6174
vn -0.7119 0.2908 0.6392
vn -0.6879 0.2698 0.6738
vn -0.8469 -0.05927 0.5284
vn -0.8211 -0.07373 0.566
vn -0.7423 0.3189 0.5893
vn -0.8759 -0.04013 0.4809
vn -0.6514 0.239 0.7201
vn -0.5653 0.1703 0.8071
vn -0.7815 -0.1074 0.6146
vn -0.6937 -0.1832 0.6965
vn -0.7721 -0.4613 0.4371
vn -0.6752 -0.533 0.5098
vn -0.8195 -0.4227 0.3869
vn -0.8431 -0.4085 0.3496
vn -0.6905 -0.71 0.1381
vn -0.8628 -0.3966 0.3134
vn -0.7042 -0.6997 0.1203
vn -0.3991 -0.9145 -0.0661
vn -0.02884 -0.9766 -0.2129
vn -0.4165 -0.9067 -0.06595
vn -0.05518 -0.9771 -0.2057
vn -0.9073 -0.01569 0.4202
vn -0.8879 -0.3773 0.263
vn -0.7253 -0.6827 0.08856
vn -0.9136 -0.3611 0.1867
vn -0.7494 -0.6614 0.02942
vn -0.9391 0.001617 0.3436
vn -0.4382 -0.8955 -0.07794
vn -0.07599 -0.9748 -0.2096
vn -0.4602 -0.8809 -0.1103
vn -0.08121 -0.9719 -0.2208
vn 0.2894 -0.9116 -0.2916
vn 0.305 -0.9104 -0.2796
vn 0.6095 -0.7257 -0.3191
vn 0.3038 -0.907 -0.2915
vn 0.6231 -0.7161 -0.3146
vn 0.3343 -0.9007 -0.2774
vn 0.8491 -0.4443 -0.2856
vn 0.9759 -0.1061 -0.1906
vn 0.8509 -0.4431 -0.2821
vn 0.974 -0.1202 -0.1917
vn 0.6516 -0.6959 -0.3018
vn 0.8545 -0.4433 -0.2706
vn 0.9696 -0.1536 -0.1906
vn 0.8554 -0.4389 -0.2749
vn 0.9588 -0.1957 -0.206
vn 0.6861 -0.6623 -0.3012
vn -0.06864 -0.97 -0.2333
vn 0.3425 -0.8943 -0.288
vn 0.3968 -0.8702 -0.2919
vn -0.04443 -0.9677 -0.2479
vn 0.8178 0.566 0.1037
vn 0.9718 0.2293 -0.05451
vn 0.9803 0.1871 -0.06293
vn 0.8277 0.554 0.08951
vn 0.9886 0.1246 -0.08475
vn 0.8469 0.5269 0.07172
vn 0.9685 0.2438 -0.04971
vn 0.8201 0.5605 0.1146
vn 0.5208 0.8251 0.2189
vn 0.5263 0.8129 0.2493
vn 0.1658 0.9366 0.3087
vn 0.1708 0.9156 0.3641
vn 0.527 0.8265 0.1977
vn 0.168 0.9478 0.2709
vn 0.5433 0.7916 0.2796
vn 0.1904 0.8871 0.4204
vn -0.1847 0.9089 0.3737
vn -0.188 0.8744 0.4472
vn -0.5374 0.7383 0.4075
vn -0.5299 0.6933 0.4884
vn -0.1887 0.9331 0.306
vn -0.5557 0.7746 0.3017
vn -0.1744 0.8374 0.518
vn -0.5122 0.6518 0.5593
vn -0.8311 0.4147 0.3705
vn -0.8037 0.3819 0.4563
vn -0.9673 0.01111 0.2533
vn -0.8567 0.4536 0.2453
vn -0.989 0.04004 0.142
vn -0.7743 0.3504 0.5268
vn -0.9283 -0.3572 0.103
vn -0.7607 -0.6483 -0.03171
vn -0.9388 -0.3435 0.02545
vn -0.7649 -0.6392 -0.07892
vn -0.9521 -0.3014 -0.05206
vn -0.7746 -0.6185 -0.1319
vn -0.962 -0.2345 -0.1395
vn -0.7967 -0.5596 -0.2282
vn -0.9952 0.0951 0.02121
vn -0.985 0.1546 -0.07584
vn -0.8673 0.4882 0.09702
vn -0.8622 0.5063 -0.01483
vn -0.5878 0.7895 0.1765
vn -0.6195 0.7823 0.06485
vn -0.9542 -0.1217 -0.2731
vn -0.8213 -0.4125 -0.3941
vn -0.8902 0.04596 -0.4532
vn -0.7993 -0.1724 -0.5757
vn -0.9579 0.2196 -0.185
vn -0.8846 0.2993 -0.3575
vn -0.8472 0.5174 -0.1201
vn -0.7989 0.5232 -0.2965
vn -0.6445 0.7615 -0.06827
vn -0.6465 0.7124 -0.273
vn -0.4841 0.3932 -0.7816
vn -0.4796 0.391 -0.7855
vn 0.4628 0.5553 -0.6909
vn 0.3208 0.8002 -0.5066
vn -0.4874 0.4131 -0.7692
vn 0.4831 0.2563 -0.8372
vn -0.481 0.4284 -0.7649
vn 0.3773 -0.04318 -0.925
vn -0.4728 0.4425 -0.762
vn 0.1546 -0.279 -0.9478
vn 0.5428 0.1726 -0.8219
vn 0.3822 0.4429 -0.811
vn 0.7608 0.4276 -0.4882
vn 0.7885 0.08017 -0.6097
vn 0.5748 0.7422 -0.3446
vn 0.399 0.6867 -0.6076
vn 0.2572 -0.2997 -0.9187
vn 0.323 -0.007019 -0.9463
vn 0.6728 -0.2602 -0.6925
vn 0.4208 -0.5223 -0.7417
vn -0.1554 0.9203 -0.3589
vn 0.06677 0.7738 -0.6299
vn -0.2608 0.3295 -0.9074
vn -0.4481 0.7636 -0.4648
vn -0.7024 0.6827 -0.2013
vn -0.7492 0.5155 -0.4158
vn -0.9 0.3457 -0.2655
vn -0.7944 0.1731 -0.5822
vn -0.7985 -0.1661 -0.5785
vn -0.5157 -0.2123 -0.83
vn -0.281 -0.4576 -0.8435
vn -0.05387 -0.284 -0.9573
vn 0.09275 -0.6769 -0.7302
vn -0.2876 -0.6962 -0.6576
vn -0.1303 -0.4225 -0.8969
vn -0.4346 -0.457 -0.7761
vn -0.6223 -0.5816 -0.5238
vn -0.8998 -0.2964 -0.3201
vn -0.7178 -0.3724 -0.5882
vn -0.9385 -0.1101 -0.3271
vn -0.4262 0.8561 -0.2921
vn -0.4546 0.4533 -0.7667
vn -0.4486 0.4541 -0.7697
vn -0.1795 0.9127 -0.3669
vn -0.0188 0.8842 -0.4667
vn -0.5174 0.4618 -0.7204
vn -0.6295 0.5607 -0.5379
vn 0.004669 0.8453 -0.5343
vn -0.2694 0.9546 0.1268
vn -0.3444 0.9375 -0.0492
vn -0.006165 0.9945 -0.1046
vn 0.1144 0.9868 0.114
vn 0.4747 0.8797 0.02625
vn 0.2765 0.9351 -0.2214
vn 0.5086 0.7724 -0.3803
vn 0.797 0.5899 -0.1294
vn -0.2191 0.9482 0.23
vn 0.1597 0.9613 0.2245
vn 0.5298 0.8336 0.1563
vn 0.859 0.5114 0.02252
vn 0.9293 0.1981 -0.3116
vn 0.6075 0.5401 -0.5823
vn -0.0727 0.7911 -0.6073
vn 0.5492 0.2864 -0.7851
vn -0.2247 0.6486 -0.7271
vn 0.8913 -0.1191 -0.4374
vn 0.9866 0.07886 -0.1424
vn 0.94 -0.2225 -0.2587
vn 0.848 -0.4237 -0.3183
vn 0.788 -0.3522 -0.505
vn 0.7077 -0.6197 -0.3393
vn 0.6218 -0.5768 -0.5298
vn 0.3844 -0.04093 -0.9223
vn -0.3978 0.3904 -0.8302
vn 0.1614 -0.3748 -0.9129
vn -0.5445 0.09391 -0.8335
vn -0.707 0.6223 -0.3359
vn -0.9788 0.1964 -0.05847
vn -0.7709 0.5912 -0.2371
vn -0.9255 0.3667 0.09445
vn -0.8286 0.5139 -0.2218
vn -0.8719 0.4668 0.1479
vn -0.857 0.4393 -0.2693
vn -0.8002 0.5847 0.1335
vn -0.9944 0.04163 -0.09748
vn -0.9523 0.2998 0.05701
vn -0.8699 0.4774 0.1237
vn -0.7466 0.6534 0.1249
vn -0.5098 0.8578 0.06586
vn -0.133 0.9898 -0.05072
vn -0.6419 0.7651 0.05097
vn -0.3056 0.946 -0.1079
vn 0.2837 0.9385 -0.1968
vn 0.07327 0.9496 -0.3048
vn -0.6133 -0.1327 -0.7786
vn -0.8299 0.4077 -0.3809
vn -0.7046 0.4319 -0.5629
vn -0.6295 -0.2441 -0.7376
vn -0.6791 -0.2665 -0.6839
vn -0.5323 0.4349 -0.7263
vn 0.3244 -0.794 -0.5141
vn -0.07562 -0.5974 -0.7983
vn -0.3595 -0.6609 -0.6587
vn -0.1103 -0.8916 -0.4392
vn -0.5261 -0.7825 -0.333
vn -0.6199 -0.5823 -0.5259
vn 0.4349 -0.8365 -0.3333
vn -0.03214 -0.9555 -0.2933
vn -0.4733 -0.8641 -0.1714
vn -0.4809 -0.8495 -0.2167
vn -0.4711 -0.8702 -0.1442
vn -0.1534 0.3283 0.932
vn -0.1981 0.3779 0.9044
vn -0.4488 0.08441 0.8896
vn -0.3907 0.04563 0.9193
vn -0.5757 -0.2654 0.7733
vn -0.5152 -0.2879 0.8072
vn -0.5567 -0.5979 0.5766
vn -0.5058 -0.6048 0.6151
vn 0.4535 0.5765 0.6796
vn 0.4478 0.6187 0.6455
vn 0.1205 0.5632 0.8175
vn 0.1456 0.5124 0.8463
vn 0.7277 0.5462 0.4149
vn 0.7234 0.5202 0.4538
f 1/1/1 2/2/2 3/3/3
f 1/1/1 3/3/3 4/4/4
f 4/4/4 3/3/3 5/5/5
f 4/4/4 5/5/5 6/6/6
f 3/3/3 7/7/7 8/8/8
f 3/3/3 8/8/8 5/5/5
f 2/2/2 9/9/9 7/7/7
f 2/2/2 7/7/7 3/3/3
f 10/10/10 11/11/11 12/12/12
f 10/10/10 12/12/12 13/13/13
f 13/13/13 12/12/12 2/2/2
f 13/13/13 2/2/2 1/1/1
f 12/12/12 14/14/14 9/9/9
f 12/12/12 9/9/9 2/2/2
f 11/11/11 15/15/15 14/14/14
f 11/11/11 14/14/14 12/12/12
f 9/9/9 16/16/16 17/17/17
f 9/9/9 17/17/17 7/7/7
f 7/7/7 17/17/17 18/18/18
f 7/7/7 18/18/18 8/8/8
f 17/17/17 19/19/19 20/20/20
f 17/17/17 20/20/20 18/18/18
f 16/16/16 21/21/21 19/19/19
f 16/16/16 19/19/19 17/17/17
f 15/15/15 22/22/22 23/23/23
f 15/15/15 23/23/23 14/14/14
f 14/14/14 23/23/23 16/16/16
f 14/14/14 16/16/16 9/9/9
f 23/23/23 24/24/24 21/21/21
f 23/23/23 21/21/21 16/16/16
f 22/22/22 25/25/25 24/24/24
f 22/22/22 24/24/24 23/23/23
f 6/6/6 5/5/5 26/26/26
f 6/6/6 26/26/26 27/27/27
f 27/27/27 26/26/26 28/28/28
f 27/27/27 28/28/28 29/29/29
f 26/26/26 30/30/30 31/31/31
f 26/26/26 31/31/31 28/28/28
f 5/5/5 8/8/8 30/30/30
f 5/5/5 30/30/30 26/26/26
f 8/8/8 18/18/18 32/32/32
f 8/8/8 32/32/32 30/30/30
f 30/30/30 32/32/32 33/33/33
f 30/30/30 33/33/33 31/31/31
f 32/32/32 34/34/34 35/35/35
f 32/32/32 35/35/35 33/33/33
f 18/18/18 20/20/20 34/34/34
f 18/18/18 34/34/34 32/32/32
f 36/36/36 37/37/37 38/38/38
f 36/36/36 38/38/38 39/39/39
f 39/39/39 38/38/38 40/40/40
f 39/39/39 40/40/40 41/41/41
f 38/38/38 28/28/28 31/31/31
f 38/38/38 31/31/31 40/40/40
f 37/37/37 29/29/29 28/28/28
f 37/37/37 28/28/28 38/38/38
f 41/41/41 40/40/40 42/42/42
f 41/41/41 42/42/42 43/43/43
f 43/43/43 42/42/42 44/44/44
f 43/43/43 44/44/44 45/45/45
f 42/42/42 33/33/33 35/35/35
f 42/42/42 35/35/35 44/44/44
f 40/40/40 31/31/31 33/33/33
f 40/40/40 33/33/33 42/42/42
f 45/45/45 44/44/44 46/46/46
f 45/45/45 46/46/46 47/47/47
f 47/47/47 46/46/46 48/48/48
f 47/47/47 48/48/48 49/49/49
f 46/46/46 50/50/50 51/51/51
f 46/46/46 51/51/51 48/48/48
f 44/44/44 35/35/35 50/50/50
f 44/44/44 50/50/50 46/46/46
f 20/20/20 52/52/52 53/53/53
f 20/20/20 53/53/53 34/34/34
f 34/34/34 53/53/53 50/50/50
f 34/34/34 50/50/50 35/35/35
f 53/53/53 54/54/54 51/51/51
f 53/53/53 51/51/51 50/50/50
f 52/52/52 55/55/55 54/54/54
f 52/52/52 54/54/54 53/53/53
f 45/45/45 47/47/47 56/56/56
f 45/45/45 56/56/56 57/57/57
f 57/57/57 56/56/56 58/58/58
f 57/57/57 58/58/58 59/59/59
f 56/56/56 60/60/60 61/61/61
f 56/56/56 61/61/61 58/58/58
f 47/47/47 49/49/49 60/60/60
f 47/47/47 60/60/60 56/56/56
f 41/41/41 43/43/43 62/62/62
f 41/41/41 62/62/62 63/63/63
f 63/63/63 62/62/62 64/64/64
f 63/63/63 64/64/64 65/65/65
f 62/62/62 57/57/57 59/59/59
f 62/62/62 59/59/59 64/64/64
f 43/43/43 45/45/45 57/57/57
f 43/43/43 57/57/57 62/62/62
f 65/65/65 64/64/64 66/66/66
f 65/65/65 66/66/66 67/67/67
f 67/67/67 66/66/66 68/68/68
f 67/67/67 68/68/68 69/69/69
f 66/66/66 70/70/70 71/71/71
f 66/66/66 71/71/71 68/68/68
f 64/64/64 59/59/59 70/70/70
f 64/64/64 70/70/70 66/66/66
f 59/59/59 58/58/58 72/72/72
f 59/59/59 72/72/72 70/70/70
f 70/70/70 72/72/72 73/73/73
f 70/70/70 73/73/73 71/71/71
f 72/72/72 74/74/74 75/75/75
f 72/72/72 75/75/75 73/73/73
f 58/58/58 61/61/61 74/74/74
f 58/58/58 74/74/74 72/72/72
f 71/71/71 73/73/73 76/76/76
f 71/71/71 76/76/76 77/77/77
f 77/77/77 76/76/76 78/78/78
f 77/77/77 78/78/78 79/79/79
f 76/76/76 80/80/80 81/81/81
f 76/76/76 81/81/81 78/78/78
f 73/73/73 75/75/75 80/80/80
f 73/73/73 80/80/80 76/76/76
f 69/69/69 68/68/68 82/82/82
f 69/69/69 82/82/82 83/83/83
f 83/83/83 82/82/82 84/84/84
f 83/83/83 84/84/84 85/85/85
f 82/82/82 77/77/77 79/79/79
f 82/82/82 79/79/79 84/84/84
f 68/68/68 71/71/71 77/77/77
f 68/68/68 77/77/77 82/82/82
f 85/85/85 84/84/84 86/86/86
f 85/85/85 86/86/86 87/87/87
f 87/87/87 86/86/86 22/22/22
f 87/87/87 22/22/22 15/15/15
f 86/86/86 88/88/88 25/25/25
f 86/86/86 25/25/25 22/22/22
f 84/84/84 79/79/79 88/88/88
f 84/84/84 88/88/88 86/86/86
f 79/79/79 78/78/78 89/89/89
f 79/79/79 89/89/89 88/88/88
f 88/88/88 89/89/89 90/90/90
f 88/88/88 90/90/90 25/25/25
f 89/89/89 91/91/91 92/92/92
f 89/89/89 92/92/92 90/90/90
f 78/78/78 81/81/81 91/91/91
f 78/78/78 91/91/91 89/89/89
f 25/25/25 90/90/90 93/93/93
f 25/25/25 93/93/93 24/24/24
f 24/24/24 93/93/93 94/94/94
f 24/24/24 94/94/94 21/21/21
f 93/93/93 95/95/95 96/96/96
f 93/93/93 96/96/96 94/94/94
f 90/90/90 92/92/92 95/95/95
f 90/90/90 95/95/95 93/93/93
f 81/81/81 97/97/97 98/98/98
f 81/81/81 98/98/98 91/91/91
f 91/91/91 98/98/98 99/99/99
f 91/91/91 99/99/99 92/92/92
f 98/98/98 100/100/100 101/101/101
f 98/98/98 101/101/101 99/99/99
f 97/97/97 102/102/102 100/100/100
f 97/97/97 100/100/100 98/98/98
f 92/92/92 99/99/99 103/103/103
f 92/92/92 103/103/103 95/95/95
f 95/95/95 103/103/103 104/104/104
f 95/95/95 104/104/104 96/96/96
f 103/103/103 105/105/105 106/106/106
f 103/103/103 106/106/106 104/104/104
f 99/99/99 101/101/101 105/105/105
f 99/99/99 105/105/105 103/103/103
f 96/96/96 104/104/104 107/107/107
f 96/96/96 107/107/107 108/108/108
f 108/108/108 107/107/107 109/109/109
f 108/108/108 109/109/109 55/55/55
f 107/107/107 110/110/110 111/111/111
f 107/107/107 111/111/111 109/109/109
f 104/104/104 106/106/106 110/110/110
f 104/104/104 110/110/110 107/107/107
f 21/21/21 94/94/94 112/112/112
f 21/21/21 112/112/112 19/19/19
f 19/19/19 112/112/112 52/52/52
f 19/19/19 52/52/52 20/20/20
f 112/112/112 108/108/108 55/55/55
f 112/112/112 55/55/55 52/52/52
f 94/94/94 96/96/96 108/108/108
f 94/94/94 108/108/108 112/112/112
f 55/55/55 109/109/109 113/113/113
f 55/55/55 113/113/113 54/54/54
f 54/54/54 113/113/113 114/114/114
f 54/54/54 114/114/114 51/51/51
f 113/113/113 115/115/115 116/116/116
f 113/113/113 116/116/116 114/114/114
f 109/109/109 111/111/111 115/115/115
f 109/109/109 115/115/115 113/113/113
f 111/111/111 117/117/117 118/118/118
f 111/111/111 118/118/118 115/115/115
f 115/115/115 118/118/118 119/119/119
f 115/115/115 119/119/119 116/116/116
f 118/118/118 120/120/120 121/121/121
f 118/118/118 121/121/121 119/119/119
f 117/117/117 122/122/122 120/120/120
f 117/117/117 120/120/120 118/118/118
f 106/106/106 123/123/123 124/124/124
f 106/106/106 124/124/124 110/110/110
f 110/110/110 124/124/124 117/117/117
f 110/110/110 117/117/117 111/111/111
f 124/124/124 125/125/125 122/122/122
f 124/124/124 122/122/122 117/117/117
f 123/123/123 126/126/126 125/125/125
f 123/123/123 125/125/125 124/124/124
f 127/127/127 128/128/128 129/129/129
f 127/127/127 129/129/129 130/130/130
f 130/130/130 129/129/129 131/131/131
f 130/130/130 131/131/131 132/132/132
f 129/129/129 119/119/119 121/121/121
f 129/129/129 121/121/121 131/131/131
f 128/128/128 116/116/116 119/119/119
f 128/128/128 119/119/119 129/129/129
f 49/49/49 48/48/48 133/133/133
f 49/49/49 133/133/133 134/134/134
f 134/134/134 133/133/133 128/128/128
f 134/134/134 128/128/128 127/127/127
f 133/133/133 114/114/114 116/116/116
f 133/133/133 116/116/116 128/128/128
f 48/48/48 51/51/51 114/114/114
f 48/48/48 114/114/114 133/133/133
f 127/127/127 130/130/130 135/135/135
f 127/127/127 135/135/135 136/136/136
f 136/136/136 135/135/135 137/137/137
f 136/136/136 137/137/137 138/138/138
f 135/135/135 139/139/139 140/140/140
f 135/135/135 140/140/140 137/137/137
f 130/130/130 132/132/132 139/139/139
f 130/130/130 139/139/139 135/135/135
f 49/49/49 134/134/134 141/141/141
f 49/49/49 141/141/141 60/60/60
f 60/60/60 141/141/141 142/142/142
f 60/60/60 142/142/142 61/61/61
f 141/141/141 136/136/136 138/138/138
f 141/141/141 138/138/138 142/142/142
f 134/134/134 127/127/127 136/136/136
f 134/134/134 136/136/136 141/141/141
f 138/138/138 137/137/137 143/143/143
f 138/138/138 143/143/143 144/144/144
f 144/144/144 143/143/143 145/145/145
f 144/144/144 145/145/145 146/146/146
f 143/143/143 147/147/147 148/148/148
f 143/143/143 148/148/148 145/145/145
f 137/137/137 140/140/140 147/147/147
f 137/137/137 147/147/147 143/143/143
f 61/61/61 142/142/142 149/149/149
f 61/61/61 149/149/149 74/74/74
f 74/74/74 149/149/149 150/150/150
f 74/74/74 150/150/150 75/75/75
f 149/149/149 144/144/144 146/146/146
f 149/149/149 146/146/146 150/150/150
f 142/142/142 138/138/138 144/144/144
f 142/142/142 144/144/144 149/149/149
f 146/146/146 145/145/145 151/151/151
f 146/146/146 151/151/151 152/152/152
f 152/152/152 151/151/151 153/153/153
f 152/152/152 153/153/153 102/102/102
f 151/151/151 154/154/154 155/155/155
f 151/151/151 155/155/155 153/153/153
f 145/145/145 148/148/148 154/154/154
f 145/145/145 154/154/154 151/151/151
f 75/75/75 150/150/150 156/156/156
f 75/75/75 156/156/156 80/80/80
f 80/80/80 156/156/156 97/97/97
f 80/80/80 97/97/97 81/81/81
f 156/156/156 152/152/152 102/102/102
f 156/156/156 102/102/102 97/97/97
f 150/150/150 146/146/146 152/152/152
f 150/150/150 152/152/152 156/156/156
f 102/102/102 153/153/153 157/157/157
f 102/102/102 157/157/157 100/100/100
f 100/100/100 157/157/157 158/158/158
f 100/100/100 158/158/158 101/101/101
f 157/157/157 159/159/159 160/160/160
f 157/157/157 160/160/160 158/158/158
f 153/153/153 155/155/155 159/159/159
f 153/153/153 159/159/159 157/157/157
f 160/160/160 159/159/159 161/161/161
f 160/160/160 161/161/161 162/162/162
f 162/162/162 161/161/161 163/163/163
f 162/162/162 163/163/163 164/164/164
f 161/161/161 165/165/165 166/166/166
f 161/161/161 166/166/166 163/163/163
f 159/159/159 155/155/155 165/165/165
f 159/159/159 165/165/165 161/161/161
f 155/155/155 154/154/154 167/167/167
f 155/155/155 167/167/167 165/165/165
f 165/165/165 167/167/167 168/168/168
f 165/165/165 168/168/168 166/166/166
f 167/167/167 169/169/169 170/170/170
f 167/167/167 170/170/170 168/168/168
f 154/154/154 148/148/148 169/169/169
f 154/154/154 169/169/169 167/167/167
f 164/164/164 163/163/163 171/171/171
f 164/164/164 171/171/171 172/172/172
f 172/172/172 171/171/171 173/173/173
f 172/172/172 173/173/173 174/174/174
f 171/171/171 175/175/175 176/176/176
f 171/171/171 176/176/176 173/173/173
f 163/163/163 166/166/166 175/175/175
f 163/163/163 175/175/175 171/171/171
f 166/166/166 168/168/168 177/177/177
f 166/166/166 177/177/177 175/175/175
f 175/175/175 177/177/177 178/178/178
f 175/175/175 178/178/178 176/176/176
f 177/177/177 179/179/179 180/180/180
f 177/177/177 180/180/180 178/178/178
f 168/168/168 170/170/170 179/179/179
f 168/168/168 179/179/179 177/177/177
f 174/174/174 173/173/173 181/181/181
f 174/174/174 181/181/181 182/182/182
f 182/182/182 181/181/181 183/183/183
f 182/182/182 183/183/183 184/184/184
f 181/181/181 185/185/185 186/186/186
f 181/181/181 186/186/186 183/183/183
f 173/173/173 176/176/176 185/185/185
f 173/173/173 185/185/185 181/181/181
f 176/176/176 178/178/178 187/187/187
f 176/176/176 187/187/187 185/185/185
f 185/185/185 187/187/187 188/188/188
f 185/185/185 188/188/188 186/186/186
f 187/187/187 189/189/189 190/190/190
f 187/187/187 190/190/190 188/188/188
f 178/178/178 180/180/180 189/189/189
f 178/178/178 189/189/189 187/187/187
f 191/191/191 192/192/192 193/193/193
f 191/191/191 193/193/193 194/194/194
f 194/194/194 193/193/193 183/183/183
f 194/194/194 183/183/183 186/186/186
f 193/193/193 195/195/195 184/184/184
f 193/193/193 184/184/184 183/183/183
f 192/192/192 196/196/196 195/195/195
f 192/192/192 195/195/195 193/193/193
f 197/197/197 198/198/198 199/199/199
f 197/197/197 199/199/199 200/200/200
f 200/200/200 199/199/199 188/188/188
f 200/200/200 188/188/188 190/190/190
f 199/199/199 194/194/194 186/186/186
f 199/199/199 186/186/186 188/188/188
f 198/198/198 191/191/191 194/194/194
f 198/198/198 194/194/194 199/199/199
f 201/201/201 202/202/202 203/203/203
f 201/201/201 203/203/203 204/204/204
f 205/205/205 204/204/204 203/203/203
f 205/205/205 203/203/203 206/206/206
f 207/207/207 206/206/206 203/203/203
f 207/207/207 203/203/203 208/208/208
f 209/209/209 208/208/208 203/203/203
f 209/209/209 203/203/203 210/210/210
f 211/211/211 210/210/210 203/203/203
f 211/211/211 203/203/203 212/212/212
f 197/197/197 212/212/212 203/203/203
f 197/197/197 203/203/203 198/198/198
f 191/191/191 198/198/198 203/203/203
f 191/191/191 203/203/203 192/192/192
f 196/196/196 192/192/192 203/203/203
f 196/196/196 203/203/203 202/202/202
f 211/211/211 212/212/212 213/213/213
f 211/211/211 213/213/213 214/214/214
f 214/214/214 213/213/213 215/215/215
f 214/214/214 215/215/215 216/216/216
f 213/213/213 200/200/200 190/190/190
f 213/213/213 190/190/190 215/215/215
f 212/212/212 197/197/197 200/200/200
f 212/212/212 200/200/200 213/213/213
f 209/209/209 210/210/210 217/217/217
f 209/209/209 217/217/217 218/218/218
f 218/218/218 217/217/217 219/219/219
f 218/218/218 219/219/219 220/220/220
f 217/217/217 214/214/214 216/216/216
f 217/217/217 216/216/216 219/219/219
f 210/210/210 211/211/211 214/214/214
f 210/210/210 214/214/214 217/217/217
f 180/180/180 221/221/221 222/222/222
f 180/180/180 222/222/222 189/189/189
f 189/189/189 222/222/222 215/215/215
f 189/189/189 215/215/215 190/190/190
f 222/222/222 223/223/223 216/216/216
f 222/222/222 216/216/216 215/215/215
f 221/221/221 224/224/224 223/223/223
f 221/221/221 223/223/223 222/222/222
f 224/224/224 225/225/225 226/226/226
f 224/224/224 226/226/226 223/223/223
f 223/223/223 226/226/226 219/219/219
f 223/223/223 219/219/219 216/216/216
f 226/226/226 227/227/227 220/220/220
f 226/226/226 220/220/220 219/219/219
f 225/225/225 228/228/228 227/227/227
f 225/225/225 227/227/227 226/226/226
f 170/170/170 229/229/229 230/230/230
f 170/170/170 230/230/230 179/179/179
f 179/179/179 230/230/230 221/221/221
f 179/179/179 221/221/221 180/180/180
f 230/230/230 231/231/231 224/224/224
f 230/230/230 224/224/224 221/221/221
f 229/229/229 232/232/232 231/231/231
f 229/229/229 231/231/231 230/230/230
f 232/232/232 233/233/233 234/234/234
f 232/232/232 234/234/234 231/231/231
f 231/231/231 234/234/234 225/225/225
f 231/231/231 225/225/225 224/224/224
f 234/234/234 235/235/235 228/228/228
f 234/234/234 228/228/228 225/225/225
f 233/233/233 236/236/236 235/235/235
f 233/233/233 235/235/235 234/234/234
f 148/148/148 147/147/147 237/237/237
f 148/148/148 237/237/237 169/169/169
f 169/169/169 237/237/237 229/229/229
f 169/169/169 229/229/229 170/170/170
f 237/237/237 238/238/238 232/232/232
f 237/237/237 232/232/232 229/229/229
f 147/147/147 140/140/140 238/238/238
f 147/147/147 238/238/238 237/237/237
f 140/140/140 139/139/139 239/239/239
f 140/140/140 239/239/239 238/238/238
f 238/238/238 239/239/239 233/233/233
f 238/238/238 233/233/233 232/232/232
f 239/239/239 240/240/240 236/236/236
f 239/239/239 236/236/236 233/233/233
f 139/139/139 132/132/132 240/240/240
f 139/139/139 240/240/240 239/239/239
f 236/236/236 241/241/241 242/242/242
f 236/236/236 242/242/242 235/235/235
f 235/235/235 242/242/242 243/243/243
f 235/235/235 243/243/243 228/228/228
f 242/242/242 244/244/244 245/245/245
f 242/242/242 245/245/245 243/243/243
f 241/241/241 246/246/246 244/244/244
f 241/241/241 244/244/244 242/242/242
f 132/132/132 131/131/131 247/247/247
f 132/132/132 247/247/247 240/240/240
f 240/240/240 247/247/247 241/241/241
f 240/240/240 241/241/241 236/236/236
f 247/247/247 248/248/248 246/246/246
f 247/247/247 246/246/246 241/241/241
f 131/131/131 121/121/121 248/248/248
f 131/131/131 248/248/248 247/247/247
f 121/121/121 120/120/120 249/249/249
f 121/121/121 249/249/249 248/248/248
f 248/248/248 249/249/249 250/250/250
f 248/248/248 250/250/250 246/246/246
f 249/249/249 251/251/251 252/252/252
f 249/249/249 252/252/252 250/250/250
f 120/120/120 122/122/122 251/251/251
f 120/120/120 251/251/251 249/249/249
f 246/246/246 250/250/250 253/253/253
f 246/246/246 253/253/253 244/244/244
f 244/244/244 253/253/253 254/254/254
f 244/244/244 254/254/254 245/245/245
f 253/253/253 255/255/255 256/256/256
f 253/253/253 256/256/256 254/254/254
f 250/250/250 252/252/252 255/255/255
f 250/250/250 255/255/255 253/253/253
f 228/228/228 243/243/243 257/257/257
f 228/228/228 257/257/257 227/227/227
f 227/227/227 257/257/257 258/258/258
f 227/227/227 258/258/258 220/220/220
f 257/257/257 259/259/259 260/260/260
f 257/257/257 260/260/260 258/258/258
f 243/243/243 245/245/245 259/259/259
f 243/243/243 259/259/259 257/257/257
f 245/245/245 254/254/254 261/261/261
f 245/245/245 261/261/261 259/259/259
f 259/259/259 261/261/261 262/262/262
f 259/259/259 262/262/262 260/260/260
f 261/261/261 263/263/263 264/264/264
f 261/261/261 264/264/264 262/262/262
f 254/254/254 256/256/256 263/263/263
f 254/254/254 263/263/263 261/261/261
f 207/207/207 208/208/208 265/265/265
f 207/207/207 265/265/265 266/266/266
f 266/266/266 265/265/265 258/258/258
f 266/266/266 258/258/258 260/260/260
f 265/265/265 218/218/218 220/220/220
f 265/265/265 220/220/220 258/258/258
f 208/208/208 209/209/209 218/218/218
f 208/208/208 218/218/218 265/265/265
f 205/205/205 206/206/206 267/267/267
f 205/205/205 267/267/267 268/268/268
f 268/268/268 267/267/267 262/262/262
f 268/268/268 262/262/262 264/264/264
f 267/267/267 266/266/266 260/260/260
f 267/267/267 260/260/260 262/262/262
f 206/206/206 207/207/207 266/266/266
f 206/206/206 266/266/266 267/267/267
f 201/201/201 204/204/204 269/269/269
f 201/201/201 269/269/269 270/270/270
f 270/270/270 269/269/269 271/271/271
f 270/270/270 271/271/271 272/272/272
f 269/269/269 268/268/268 264/264/264
f 269/269/269 264/264/264 271/271/271
f 204/204/204 205/205/205 268/268/268
f 204/204/204 268/268/268 269/269/269
f 196/196/196 202/202/202 273/273/273
f 196/196/196 273/273/273 195/195/195
f 195/195/195 273/273/273 274/274/274
f 195/195/195 274/274/274 184/184/184
f 273/273/273 270/270/270 272/272/272
f 273/273/273 272/272/272 274/274/274
f 202/202/202 201/201/201 270/270/270
f 202/202/202 270/270/270 273/273/273
f 256/256/256 275/275/275 276/276/276
f 256/256/256 276/276/276 263/263/263
f 263/263/263 276/276/276 271/271/271
f 263/263/263 271/271/271 264/264/264
f 276/276/276 277/277/277 272/272/272
f 276/276/276 272/272/272 271/271/271
f 275/275/275 278/278/278 277/277/277
f 275/275/275 277/277/277 276/276/276
f 278/278/278 279/279/279 280/280/280
f 278/278/278 280/280/280 277/277/277
f 277/277/277 280/280/280 274/274/274
f 277/277/277 274/274/274 272/272/272
f 280/280/280 182/182/182 184/184/184
f 280/280/280 184/184/184 274/274/274
f 279/279/279 174/174/174 182/182/182
f 279/279/279 182/182/182 280/280/280
f 252/252/252 281/281/281 282/282/282
f 252/252/252 282/282/282 255/255/255
f 255/255/255 282/282/282 275/275/275
f 255/255/255 275/275/275 256/256/256
f 282/282/282 283/283/283 278/278/278
f 282/282/282 278/278/278 275/275/275
f 281/281/281 284/284/284 283/283/283
f 281/281/281 283/283/283 282/282/282
f 284/284/284 285/285/285 286/286/286
f 284/284/284 286/286/286 283/283/283
f 283/283/283 286/286/286 279/279/279
f 283/283/283 279/279/279 278/278/278
f 286/286/286 172/172/172 174/174/174
f 286/286/286 174/174/174 279/279/279
f 285/285/285 164/164/164 172/172/172
f 285/285/285 172/172/172 286/286/286
f 122/122/122 125/125/125 287/287/287
f 122/122/122 287/287/287 251/251/251
f 251/251/251 287/287/287 281/281/281
f 251/251/251 281/281/281 252/252/252
f 287/287/287 288/288/288 284/284/284
f 287/287/287 284/284/284 281/281/281
f 125/125/125 126/126/126 288/288/288
f 125/125/125 288/288/288 287/287/287
f 126/126/126 289/289/289 290/290/290
f 126/126/126 290/290/290 288/288/288
f 288/288/288 290/290/290 285/285/285
f 288/288/288 285/285/285 284/284/284
f 290/290/290 162/162/162 164/164/164
f 290/290/290 164/164/164 285/285/285
f 289/289/289 160/160/160 162/162/162
f 289/289/289 162/162/162 290/290/290
f 101/101/101 158/158/158 291/291/291
f 101/101/101 291/291/291 105/105/105
f 105/105/105 291/291/291 123/123/123
f 105/105/105 123/123/123 106/106/106
f 291/291/291 289/289/289 126/126/126
f 291/291/291 126/126/126 123/123/123
f 158/158/158 160/160/160 289/289/289
f 158/158/158 289/289/289 291/291/291
f 292/292/292 293/293/293 294/294/294
f 292/292/292 294/294/294 295/295/295
f 295/295/295 294/294/294 296/296/296
f 295/295/295 296/296/296 297/297/297
f 294/294/294 83/83/83 85/85/85
f 294/294/294 85/85/85 296/296/296
f 293/293/293 69/69/69 83/83/83
f 293/293/293 83/83/83 294/294/294
f 297/297/297 296/296/296 298/298/298
f 297/297/297 298/298/298 299/299/299
f 299/299/299 298/298/298 11/11/11
f 299/299/299 11/11/11 10/10/10
f 298/298/298 87/87/87 15/15/15
f 298/298/298 15/15/15 11/11/11
f 296/296/296 85/85/85 87/87/87
f 296/296/296 87/87/87 298/298/298
f 300/300/300 301/301/301 302/302/302
f 300/300/300 302/302/302 303/303/303
f 303/303/303 302/302/302 293/293/293
f 303/303/303 293/293/293 292/292/292
f 302/302/302 67/67/67 69/69/69
f 302/302/302 69/69/69 293/293/293
f 301/301/301 65/65/65 67/67/67
f 301/301/301 67/67/67 302/302/302
f 36/36/36 39/39/39 304/304/304
f 36/36/36 304/304/304 305/305/305
f 305/305/305 304/304/304 301/301/301
f 305/305/305 301/301/301 300/300/300
f 304/304/304 63/63/63 65/65/65
f 304/304/304 65/65/65 301/301/301
f 39/39/39 41/41/41 63/63/63
f 39/39/39 63/63/63 304/304/304
