v 1.41486 -0.877216 0.227304
v 1.41797 -0.876939 0.224882
v 1.41605 -0.878107 0.222352
v 1.41337 -0.878144 0.225303
v 1.41405 -0.880278 0.220673
v 1.4118 -0.879861 0.223974
v 1.41854 -0.878357 0.219674
v 1.41633 -0.880886 0.217612
v 1.42065 -0.877004 0.222748
v 1.45144 -0.92131 0.193951
v 1.45103 -0.917115 0.189227
v 1.46849 -0.926391 0.178136
v 1.46887 -0.930538 0.18272
v 1.48921 -0.937134 0.164947
v 1.48928 -0.941055 0.169462
v 1.46962 -0.921092 0.175027
v 1.49055 -0.932115 0.161905
v 1.45214 -0.911756 0.185979
v 1.45459 -0.906001 0.184779
v 1.47207 -0.915403 0.173871
v 1.49301 -0.92668 0.160773
v 1.47543 -0.910182 0.174782
v 1.49621 -0.921604 0.161651
v 1.45797 -0.900719 0.185754
v 1.53208 -0.964758 0.153882
v 1.54987 -0.975099 0.141336
v 1.55369 -0.973047 0.146421
v 1.53581 -0.962774 0.15879
v 1.55805 -0.968873 0.149686
v 1.53996 -0.958805 0.162
v 1.56733 -0.980577 0.136898
v 1.57178 -0.976352 0.140129
v 1.5635 -0.982618 0.131798
v 1.47043 -0.907099 0.21216
v 1.46806 -0.9129 0.213337
v 1.48516 -0.922096 0.202426
v 1.48755 -0.916358 0.201185
v 1.50487 -0.932691 0.189263
v 1.50725 -0.927058 0.187993
v 1.48172 -0.927296 0.20143
v 1.50147 -0.937795 0.188256
v 1.46459 -0.918137 0.212386
v 1.46055 -0.921991 0.209393
v 1.47774 -0.931142 0.198301
v 1.49754 -0.94157 0.18508
v 1.47387 -0.933116 0.19363
v 1.49379 -0.943508 0.18036
v 1.45659 -0.92395 0.204862
v 1.47067 -0.897303 0.204317
v 1.47131 -0.90162 0.208977
v 1.4885 -0.910957 0.197847
v 1.48794 -0.90672 0.193037
v 1.5082 -0.921761 0.184595
v 1.50771 -0.917652 0.179726
v 1.46552 -0.894663 0.193407
v 1.46863 -0.89488 0.198852
v 1.48597 -0.904357 0.187515
v 1.48292 -0.904173 0.182128
v 1.50588 -0.915461 0.174185
v 1.50307 -0.915453 0.168831
v 1.4534 -0.923689 0.199441
v 1.47077 -0.93288 0.188157
v 1.4909 -0.943288 0.174871
v 1.47923 -0.906247 0.177684
v 1.46179 -0.896744 0.188811
v 1.4997 -0.917655 0.16447
v 1.5722 -0.963061 0.10926
v 1.57917 -0.967156 0.105543
v 1.57701 -0.971942 0.10439
v 1.56983 -0.968114 0.108104
v 1.57414 -0.976247 0.105713
v 1.56686 -0.97274 0.109457
v 1.57907 -0.97299 0.104883
v 1.57645 -0.976921 0.106107
v 1.58104 -0.968625 0.10597
v 1.54611 -0.947473 0.161717
v 1.56455 -0.956936 0.149391
v 1.56564 -0.95109 0.145876
v 1.54715 -0.94191 0.158267
v 1.56523 -0.946886 0.140623
v 1.54672 -0.937806 0.153198
v 1.5795 -0.958269 0.136349
v 1.57908 -0.954074 0.131078
v 1.5784 -0.964214 0.139831
v 1.56361 -0.945351 0.134301
v 1.54506 -0.936067 0.147228
v 1.56148 -0.946538 0.128011
v 1.54274 -0.936821 0.141359
v 1.57749 -0.952726 0.124631
v 1.57556 -0.954206 0.118144
v 1.52891 -0.962233 0.142025
v 1.54734 -0.972446 0.128697
v 1.54761 -0.974702 0.135068
v 1.52964 -0.964438 0.147965
v 1.56142 -0.982152 0.125404
v 1.56149 -0.979903 0.118829
v 1.55947 -0.950085 0.122854
v 1.54029 -0.93985 0.13657
v 1.55735 -0.954936 0.119495
v 1.53772 -0.944318 0.133466
v 1.57393 -0.958039 0.11278
v 1.53229 -0.954272 0.133696
v 1.55191 -0.964822 0.11971
v 1.54909 -0.969046 0.123325
v 1.53001 -0.958708 0.137044
v 1.56368 -0.976698 0.113236
v 1.55479 -0.960012 0.118406
v 1.53498 -0.949317 0.132474
v 1.56188 -0.963203 0.150699
v 1.54358 -0.953421 0.163003
v 1.57569 -0.970592 0.141125
v 1.57162 -0.98255 0.114548
v 1.57299 -0.981781 0.115168
v 1.57297 -0.983301 0.120101
v 1.57144 -0.98439 0.120222
v 1.57459 -0.9836 0.124726
v 1.57316 -0.984852 0.125601
v 1.57194 -0.981319 0.121271
v 1.57351 -0.981429 0.125287
v 1.57171 -0.980045 0.116996
v 1.57832 -0.979434 0.134978
v 1.58204 -0.973998 0.135896
v 1.58458 -0.967954 0.134697
v 1.58374 -0.974926 0.133209
v 1.58597 -0.96952 0.132161
v 1.58039 -0.979752 0.132412
v 1.57041 -0.985262 0.127214
v 1.57405 -0.983393 0.131984
v 1.57649 -0.983232 0.129798
v 1.58556 -0.962307 0.131465
v 1.58511 -0.958357 0.126536
v 1.58675 -0.964438 0.129337
v 1.58626 -0.960872 0.124997
v 1.58359 -0.957186 0.120437
v 1.58186 -0.958703 0.114227
v 1.58488 -0.959812 0.119574
v 1.58336 -0.961143 0.113982
v 1.56874 -0.982652 0.114868
v 1.56852 -0.984756 0.121165
v 1.58057 -0.962385 0.109011
v 1.58226 -0.964376 0.109198
v 1.57098 -0.979797 0.109427
v 1.57362 -0.980071 0.109556
v 1.56383 -0.97327 0.123647
v 1.56375 -0.970391 0.122266
v 1.56535 -0.965321 0.128378
v 1.56395 -0.972924 0.127168
v 1.56558 -0.974222 0.129629
v 1.56666 -0.971902 0.131909
v 1.56944 -0.97108 0.133593
v 1.56999 -0.967712 0.133716
v 1.57253 -0.965398 0.133451
v 1.57167 -0.962685 0.131678
v 1.57302 -0.960548 0.129287
v 1.57099 -0.959979 0.126843
v 1.57118 -0.95975 0.123308
v 1.56869 -0.961312 0.122044
v 1.56818 -0.963338 0.119173
v 1.56584 -0.965675 0.12017
v 1.56514 -0.968901 0.119297
v 1.58344 -0.962706 0.114683
v 1.58235 -0.965398 0.110475
v 1.58108 -0.969077 0.107608
v 1.57997 -0.964792 0.112929
v 1.57849 -0.967979 0.110454
v 1.58125 -0.962605 0.116569
v 1.5769 -0.976628 0.107714
v 1.57455 -0.979552 0.110774
v 1.57277 -0.977896 0.113197
v 1.57461 -0.975011 0.110554
v 1.57921 -0.973003 0.106633
v 1.57663 -0.97156 0.109617
v 1.58107 -0.979236 0.130497
v 1.584 -0.975087 0.131166
v 1.58589 -0.970399 0.130281
v 1.5818 -0.973937 0.130892
v 1.58344 -0.969848 0.130121
v 1.57924 -0.97755 0.13031
v 1.5776 -0.982196 0.128295
v 1.5762 -0.980137 0.128392
v 1.58647 -0.965949 0.127896
v 1.58597 -0.962765 0.124204
v 1.58394 -0.965953 0.128043
v 1.58351 -0.963088 0.12483
v 1.58478 -0.961704 0.119541
v 1.58251 -0.961962 0.120781
v 1.56709 -0.976782 0.120479
v 1.56765 -0.974551 0.117316
v 1.56908 -0.971745 0.114975
v 1.57809 -0.96135 0.127423
v 1.57821 -0.963911 0.130395
v 1.57775 -0.967354 0.132338
v 1.57272 -0.965109 0.11485
v 1.57433 -0.962323 0.117043
v 1.57594 -0.960554 0.12008
v 1.57399 -0.974269 0.13251
v 1.57131 -0.976577 0.130709
v 1.56906 -0.977945 0.127837
v 1.5675 -0.977843 0.124279
v 1.57611 -0.970936 0.13306
v 1.57711 -0.960211 0.123836
v 1.57078 -0.968371 0.114287
v 1.44515 -0.885295 0.206591
v 1.45337 -0.888736 0.201266
v 1.45001 -0.890865 0.196591
v 1.44233 -0.88748 0.201896
v 1.44654 -0.894814 0.193406
v 1.43938 -0.891361 0.198616
v 1.43681 -0.911725 0.217171
v 1.43393 -0.911496 0.212288
v 1.44162 -0.916691 0.207167
v 1.4447 -0.916946 0.21236
v 1.43985 -0.914462 0.201766
v 1.43247 -0.909509 0.207053
v 1.44764 -0.885318 0.211788
v 1.45624 -0.888877 0.206627
v 1.45822 -0.89122 0.21186
v 1.44949 -0.887512 0.216709
v 1.45035 -0.891579 0.220675
v 1.45897 -0.895454 0.216204
v 1.45827 -0.90082 0.219117
v 1.44989 -0.89673 0.223279
v 1.44463 -0.90676 0.223471
v 1.44065 -0.91009 0.221028
v 1.44863 -0.915121 0.216587
v 1.45267 -0.911476 0.219324
v 1.44788 -0.902067 0.224234
v 1.45605 -0.90645 0.220188
v 1.43412 -0.901391 0.198808
v 1.43652 -0.89626 0.197539
v 1.44337 -0.899955 0.192373
v 1.44094 -0.90547 0.193613
v 1.43263 -0.905991 0.202249
v 1.43967 -0.910533 0.196973
v 1.42061 -0.899777 0.216514
v 1.42074 -0.897075 0.212504
v 1.42088 -0.897671 0.211908
v 1.42049 -0.900456 0.216203
v 1.421 -0.898201 0.211277
v 1.42033 -0.900984 0.215945
v 1.42231 -0.893942 0.208786
v 1.42276 -0.894437 0.207831
v 1.42186 -0.893456 0.209633
v 1.42374 -0.889357 0.208577
v 1.42436 -0.889695 0.207637
v 1.42501 -0.890051 0.20656
v 1.42667 -0.885567 0.20863
v 1.42732 -0.885682 0.207668
v 1.42602 -0.885458 0.209481
v 1.43328 -0.890121 0.23027
v 1.43207 -0.893593 0.231092
v 1.43299 -0.894082 0.230959
v 1.43437 -0.890062 0.230157
v 1.43387 -0.894552 0.230904
v 1.43542 -0.889988 0.230134
v 1.4305 -0.897529 0.230313
v 1.43102 -0.898441 0.230297
v 1.42994 -0.896587 0.230421
v 1.42687 -0.8993 0.228302
v 1.4271 -0.900302 0.22825
v 1.42728 -0.901218 0.228321
v 1.42375 -0.901923 0.224971
v 1.42369 -0.902626 0.225079
v 1.42378 -0.901068 0.225003
v 1.43341 -0.882539 0.224637
v 1.43374 -0.886062 0.228023
v 1.43469 -0.885689 0.227962
v 1.4341 -0.882035 0.224593
v 1.43555 -0.885335 0.22802
v 1.43464 -0.881588 0.224686
v 1.43051 -0.880746 0.216149
v 1.43227 -0.880723 0.220495
v 1.43279 -0.880164 0.220368
v 1.43099 -0.880269 0.215826
v 1.43314 -0.879677 0.220353
v 1.43133 -0.879847 0.215551
v 1.42162 -0.901202 0.22089
v 1.42145 -0.90195 0.220776
v 1.42124 -0.902517 0.220778
v 1.42892 -0.882229 0.21162
v 1.42836 -0.882439 0.212224
v 1.42942 -0.882043 0.210977
v 1.41094 -0.889583 0.232257
v 1.40974 -0.889556 0.229874
v 1.4115 -0.892622 0.228142
v 1.41306 -0.892689 0.231158
v 1.41317 -0.894992 0.226659
v 1.41499 -0.895059 0.230216
v 1.41055 -0.891386 0.225109
v 1.41211 -0.893609 0.223028
v 1.40902 -0.888605 0.227477
v 1.41606 -0.877243 0.229687
v 1.41953 -0.876984 0.227898
v 1.4224 -0.877052 0.226357
v 1.4205 -0.87821 0.230932
v 1.42352 -0.878492 0.229937
v 1.41678 -0.878194 0.232084
v 1.4169 -0.879948 0.234126
v 1.4207 -0.880469 0.233517
v 1.4238 -0.881168 0.23294
v 1.42013 -0.883381 0.235276
v 1.42321 -0.884558 0.234962
v 1.41642 -0.882221 0.235515
v 1.414 -0.886939 0.235586
v 1.41244 -0.888655 0.234258
v 1.41502 -0.891534 0.233689
v 1.41705 -0.88937 0.235369
v 1.41734 -0.893728 0.233152
v 1.41975 -0.891275 0.235077
v 1.4154 -0.884676 0.236019
v 1.41884 -0.886505 0.235915
v 1.4218 -0.88808 0.235697
v 1.40938 -0.884578 0.224046
v 1.4104 -0.882123 0.223542
v 1.41227 -0.883148 0.220128
v 1.41097 -0.886263 0.220767
v 1.41429 -0.884249 0.216941
v 1.41274 -0.887859 0.217729
v 1.4089 -0.886851 0.225435
v 1.41038 -0.889148 0.222526
v 1.41197 -0.891119 0.219889
v 1.42262 -0.877632 0.221108
v 1.4207 -0.879077 0.217486
v 1.41862 -0.881799 0.215003
v 1.42258 -0.880031 0.215787
v 1.42074 -0.88282 0.21295
v 1.42421 -0.878567 0.219841
v 1.41471 -0.896228 0.225582
v 1.41663 -0.896237 0.229514
v 1.41624 -0.896911 0.224707
v 1.4182 -0.896859 0.228847
v 1.41371 -0.894914 0.221439
v 1.41535 -0.895732 0.22021
v 1.42427 -0.877661 0.225225
v 1.4257 -0.878583 0.22431
v 1.4254 -0.879215 0.229185
v 1.4268 -0.88019 0.22848
v 1.42575 -0.882158 0.232392
v 1.42722 -0.883281 0.231746
v 1.42527 -0.885755 0.2345
v 1.42688 -0.886925 0.233838
v 1.41924 -0.894812 0.232644
v 1.4219 -0.892331 0.234636
v 1.42097 -0.895408 0.232027
v 1.42375 -0.893022 0.23399
v 1.42397 -0.889239 0.235267
v 1.42575 -0.890197 0.2346
v 1.41651 -0.885457 0.214189
v 1.41475 -0.889288 0.215141
v 1.41865 -0.886617 0.212013
v 1.41676 -0.890503 0.213103
v 1.41376 -0.892538 0.21774
v 1.41557 -0.893589 0.21607
v 1.42585 -0.879477 0.218765
v 1.42429 -0.880926 0.214511
v 1.42251 -0.883725 0.211498
v 1.42586 -0.881681 0.213562
v 1.42395 -0.884483 0.210576
v 1.42757 -0.880229 0.217775
v 1.41789 -0.897735 0.223784
v 1.4199 -0.897673 0.227989
v 1.41952 -0.898817 0.222742
v 1.42159 -0.898745 0.22692
v 1.417 -0.89659 0.219147
v 1.41857 -0.897611 0.218153
v 1.42731 -0.879512 0.223372
v 1.42912 -0.880282 0.222333
v 1.42842 -0.881166 0.227607
v 1.43025 -0.881986 0.226542
v 1.42889 -0.884341 0.230879
v 1.4307 -0.885242 0.229829
v 1.42864 -0.888014 0.232954
v 1.43042 -0.888974 0.231932
v 1.42277 -0.896219 0.231171
v 1.42563 -0.893883 0.233111
v 1.42452 -0.897228 0.230118
v 1.42741 -0.894838 0.232089
v 1.42759 -0.891187 0.233709
v 1.42938 -0.892146 0.2327
v 1.42042 -0.887571 0.210499
v 1.41849 -0.891481 0.211657
v 1.42181 -0.888322 0.209586
v 1.41991 -0.892266 0.210734
v 1.41725 -0.894519 0.214803
v 1.41875 -0.895415 0.213852
v 1.42927 -0.880714 0.216841
v 1.42729 -0.882237 0.212838
v 1.42513 -0.885088 0.210029
v 1.42091 -0.900074 0.221642
v 1.42301 -0.89995 0.225765
v 1.41991 -0.898758 0.21721
v 1.43094 -0.880749 0.221243
v 1.43205 -0.882508 0.225396
v 1.43238 -0.885886 0.228738
v 1.43198 -0.889734 0.230929
v 1.42598 -0.898268 0.22902
v 1.4289 -0.895717 0.231082
v 1.43088 -0.892956 0.23173
v 1.42291 -0.888911 0.209101
v 1.42106 -0.892911 0.210182
v 1.41999 -0.896298 0.21312
v 1.42183 -0.89889 0.210469
v 1.42107 -0.901699 0.215287
v 1.42388 -0.900207 0.208945
v 1.42321 -0.903132 0.213764
v 1.42371 -0.89508 0.206896
v 1.4257 -0.896268 0.20539
v 1.42604 -0.890608 0.205578
v 1.42804 -0.891688 0.20408
v 1.42838 -0.886124 0.206729
v 1.43047 -0.887133 0.205219
v 1.4351 -0.895215 0.230412
v 1.43674 -0.890399 0.229647
v 1.43749 -0.896498 0.229214
v 1.4392 -0.891578 0.228419
v 1.4321 -0.899317 0.229814
v 1.43444 -0.900714 0.22859
v 1.42822 -0.902115 0.227855
v 1.43054 -0.903596 0.226557
v 1.42452 -0.903441 0.224605
v 1.42681 -0.904961 0.223212
v 1.43682 -0.88562 0.227547
v 1.43578 -0.881832 0.224202
v 1.43934 -0.886735 0.226241
v 1.43831 -0.882906 0.222799
v 1.43418 -0.879894 0.219803
v 1.43234 -0.880078 0.214884
v 1.43667 -0.880927 0.218316
v 1.43472 -0.881077 0.213351
v 1.422 -0.903268 0.220238
v 1.42423 -0.904772 0.218763
v 1.43045 -0.88236 0.210161
v 1.43267 -0.883346 0.208629
v 1.52097 -0.948341 0.174983
v 1.52444 -0.943177 0.175987
v 1.52685 -0.937474 0.174709
v 1.51714 -0.933095 0.147765
v 1.51417 -0.938085 0.146855
v 1.51162 -0.943253 0.148011
v 1.50988 -0.947959 0.151143
v 1.50943 -0.951656 0.155802
v 1.5231 -0.926421 0.15515
v 1.52019 -0.928961 0.150663
v 1.51063 -0.95384 0.161383
v 1.51329 -0.954093 0.167015
v 1.52738 -0.928065 0.166355
v 1.52566 -0.926096 0.16067
v 1.52784 -0.932124 0.171292
v 1.51699 -0.952155 0.171797
v 1.42749 -0.902578 0.206201
v 1.42703 -0.905742 0.211009
v 1.42918 -0.898373 0.202697
v 1.43154 -0.893573 0.201405
v 1.43414 -0.888883 0.202518
v 1.44176 -0.898785 0.227148
v 1.44359 -0.893701 0.226289
v 1.43863 -0.903191 0.226468
v 1.4347 -0.906253 0.22427
v 1.43093 -0.907727 0.220719
v 1.44386 -0.888737 0.223939
v 1.4429 -0.884815 0.220287
v 1.44117 -0.882751 0.21563
v 1.43901 -0.88283 0.210576
v 1.42823 -0.907522 0.216098
v 1.43665 -0.885062 0.205871
vt 0.0843 0.08419
vt 0.01042 0.7396
vt 1 0.08333
vt 0.9167 0.08333
vt 0.08333 0.9167
vt 0.2612 0.01105
vt 0.01042 0.7396
vt 0.9896 0.7326
vt 1 0.4896
vt 0.7483 0.9913
vt 0.2604 0.9896
vt 0.9236 0.08333
vt 0.2604 0.9896
vt 0.5 1
vt 0.2619 0.01169
vt 0.2604 0.9896
vt 0.2612 0.01105
vt 0.75 0.9965
vt 0.2604 0.9896
vt 0.7396 0.01042
vt 0.5 1
vt 0.2604 0.9896
vt 0.5003 0.0008831
vt 0.7483 0.9913
vt 1 0.5104
vt 0.5 1
vt 0.7413 0.008681
vt 0.7413 0.9896
vt 0.2622 0.01042
vt 0.9895 0.2622
vt 0.2604 0.01042
vt 0.08333 0.9167
vt 0.01042 0.7396
vt 1 0.9792
vt 0.08333 0.9167
vt 0.7413 0.008681
vt 0.08333 0.9167
vt 0.2604 0.9896
vt 0.08526 0.08505
vt 0.5 1
vt 0.2612 0.01105
vt 1 0.9167
vt 0.08333 0.9167
vt 0.7396 0.01042
vt 0.5 1
vt 0.08333 0.9167
vt 0.2619 0.01169
vt 0.75 0.9965
vt 0.5 1
vt 0.5 1
vt 0.4931 0
vt 0.08333 0.9167
vt 0.2604 0.9896
vt 0.0843 0.08419
vt 0.5 1
vt 0.5 1
vt 0.4167 -2.384e-07
vt 0.2604 0.9896
vt 0.2604 0.9896
vt 0.5002 0.0004414
vt 0.2604 0.9896
vt 0.7396 0.01042
vt 0.5 1
vt 0.7396 0.01042
vt 0.2604 0.9896
vt 0.2604 0.9896
vt 0.01042 0.7396
vt 0.01042 0.2604
vt 0.5 0
vt 0.08333 0.08333
vt 0.01042 0.2587
vt 0.08333 0.9167
vt 0 0.5
vt 0.01042 0.7396
vt 0 0.5
vt 0.9896 0.2604
vt 0.7483 0.9913
vt 0.4931 0
vt 0.7396 0.9896
vt 0.08333 0.08333
vt 1 0.5
vt 0.5104 -1.192e-07
vt 0.08333 0.9167
vt 0.01042 0.7396
vt 0.9236 0.08333
vt 0.5 1
vt 0.5104 -1.192e-07
vt 0.9893 0.2676
vt 0.08333 0.08333
vt 0.08333 0.9167
vt 1 0.5833
vt 0.7413 0.9896
vt 0.9167 0.08333
vt 0.5 1
vt 0.2604 0.01042
vt 0.01042 0.7396
vt 0.7396 0.01042
vt 0.9236 0.9167
vt 0.2674 0.01042
vt 1 0.5104
vt 0.2622 0.01042
vt 0.9895 0.2622
vt 1 0.9167
vt 0.7396 0.01042
vt 0.9167 0.9167
vt 0.5 -1.192e-07
vt 0.08333 0.9167
vt 0.7396 0.9896
vt 0.08333 0.9167
vt 0.7413 0.9896
vt 0.2622 0.01042
vt 0 0.5
vt 1 0.25
vt 0.2604 0.9896
vt 0.008681 0.2517
vt 1 0.25
vt 0 0.5
vt 1 0.25
vt 0.08333 0.08333
vt 0.08333 0.08333
vt 0 0.5
vt 0.2604 0.9896
vt 0 0.5
vt 0.01042 0.2587
vt 0 0.5
vt 0.01042 0.7396
vt 0.08333 0.07639
vt 0.2604 0.9896
vt 0.008681 0.2517
vt 0.2604 0.9896
vt 0.08333 0.08333
vt 0.08333 0.07639
vt 0.01042 0.7396
vt 0.5 1
vt 0.01042 0.2604
vt 0 0.5
vt 0.01042 0.7396
vt 0.01042 0.2587
vt 0.5 1
vt 0.2604 0.9896
vt 0.01042 0.2587
vt 0.2604 0.9896
vt 0.08333 -1.192e-07
vt 0.01042 0.2604
vt 1 0.08333
vt 0.5 1
vt 0.7413 0.00868
vt 0.01042 0.2604
vt 0.7413 0.00868
vt 0 0.5
vt 0.7465 0.003472
vt 0.01042 0.2604
vt 1 0.02083
vt 0 0.5
vt 0.4792 -1.192e-07
vt 0 0.5
vt 0.7465 0.003472
vt 0.01042 0.2604
vt 0.4167 -2.384e-07
vt 0 0.5
vt 1 -1.192e-07
vt 0.5 1
vt 1 -1.192e-07
vt 1 0.25
vt 0.08333 0.08333
vt 0.01042 0.2604
vt 1 0.5
vt 0.08333 0.9167
vt 1 0.5
vt 0.01042 0.2604
vt 0.08333 0.9167
vt 1 -1.192e-07
vt 1 0.25
vt 0.2604 0.9896
vt 1 0.5
vt 1 0.25
vt 0.08333 0.08333
vt 0.01042 0.2604
vt 0.2604 0.9896
vt 1 0.25
vt 0.4167 -1.192e-07
vt 1 0.25
vt 1 0.5
vt 0.01042 0.2604
vt 0.4931 0
vt 1 -1.192e-07
vt 0.7465 0.003472
vt 0.2587 0.00868
vt 0.7413 0.008681
vt 0.4167 -1.192e-07
vt 0.25 -1.192e-07
vt 0.4792 -1.192e-07
vt 1 0.02083
vt 0.25 -1.192e-07
vt 1 0.08333
vt 0.7413 0.008681
vt 0.2587 0.00868
vt 0.7465 0.003472
vt 0.08333 0.07639
vt 0.08333 -1.192e-07
vt 0.2587 0.00868
vt 0.2604 0.01042
vt 0.4167 -1.192e-07
vt 0.08333 0.9167
vt 0.08333 0.08333
vt 0.9913 0.2604
vt 0.2604 0.9896
vt 0.7378 0.01045
vt 0.7325 0.01072
vt 0.9896 0.2604
vt 0.08333 0.07639
vt 0.2604 0.9896
vt 0.9913 0.2604
vt 0.7378 0.01045
vt 1 0.5
vt 0.4931 0
vt 1 0.2604
vt 0.4896 -1.192e-07
vt 1 0.5
vt 0.5 0
vt 0.5 1
vt 0.4896 -1.192e-07
vt 0.5 -1.192e-07
vt 0.9236 0.08333
vt 0.2604 0.01042
vt 1 0.08333
vt 0.9167 0.08333
vt 0.2587 0.00868
vt 0.7396 0.01042
vt 0.9896 0.2604
vt 0 0.5
vt 0.9236 0.08333
vt 0.9913 0.2604
vt 0 0.5
vt 0.5 1
vt 0.2608 0.989
vt 0.01042 0.7396
vt 0.2608 0.989
vt 0.25 0
vt 0.7483 0.9913
vt 0.5 0.9995
vt 1 0.9167
vt 0.5 1
vt 0.2633 0.985
vt 0.01042 0.7396
vt 0.25 -1.192e-07
vt 0 0
vt 0.7483 0.9913
vt 0.5 1
vt 0.7396 0.9896
vt 0.088 0.912
vt 0.01042 0.7396
vt 0 0
vt 0 -1.192e-07
vt 0.75 0.9965
vt 0.5 1
vt 1 0.9792
vt 0.7396 0.9896
vt 0.08392 0.9161
vt 0.01042 0.7396
vt 0 0
vt 0.25 0
vt 0.5 1
vt 0.5 1
vt 0.7396 0.9896
vt 0.5 0.9995
vt 0.08333 0.9167
vt 0.2604 0.9896
vt 0.5 -1.192e-07
vt 0.75 0.9965
vt 0.7396 0.9896
vt 0.5 0.9958
vt 0.08333 0.9167
vt 0.25 0
vt 0.5 -1.192e-07
vt 0.5 1
vt 0.2633 0.985
vt 0.01042 0.7396
vt 0.25 -1.192e-07
vt 0.01042 0.7396
vt 0.2608 0.989
vt 0.25 0
vt 0.2604 0.01042
vt 0.7325 0.01072
vt 0.08333 0.9167
vt 0.01042 0.7396
vt 0.01042 0.7396
vt 0.9896 0.7378
vt 0.2604 0.9896
vt 0.9896 0.7396
vt 0.5 -1.192e-07
vt 0.9166 0.08338
vt 0.08333 0.9167
vt 0.08333 0.9167
vt 0.08333 0.9167
vt 1 0.5
vt 0.2604 0.01042
vt 0.9166 0.08338
vt 0 0.5
vt 0.08333 0.9167
vt 0.08333 0.9167
vt 1 0.4167
vt 0.2612 0.01105
vt 0.5002 0.0004414
vt 0.7396 0.01042
vt 0 0.5
vt 0.2604 0.9896
vt 0 0.5
vt 1 0.4896
vt 0.9163 0.08374
vt 0.01042 0.7396
vt 0 0.5
vt 0.08333 0.08333
vt 0.7378 0.01045
vt 0.01042 0.7396
vt 0.08333 0.9167
vt 0.01042 0.7396
vt 0.9896 0.7378
vt 0.7378 0.01045
vt 0.1815 0.8185
vt 0.01042 0.7396
vt 0.08333 -1.192e-07
vt 0.1614 0.6599
vt 0.003472 0.25
vt 0.003472 0.25
vt 0.9167 0.9167
vt 0.9896 0.7378
vt 0.5 0.5
vt 0.02083 0
vt 0.008681 0.2517
vt 0.9167 0.9167
vt 0 0.5
vt 0.9167 0.9167
vt 0.3401 0.8386
vt 0 0.5
vt 0 0.5
vt 0.9896 0.7396
vt 0.5 0.901
vt 0 0.5
vt 0.008681 0.2517
vt 0.9896 0.7326
vt 0.3401 0.8386
vt 0.01042 0.7396
vt 0.02083 0
vt 0.9896 0.7378
vt 0.5 0.5
vt 0.08333 -2.384e-07
vt 0.6599 0.8386
vt 0.01042 0.7396
vt 0.008681 0.2517
vt 0.9167 0.9167
vt 0.8185 0.8185
vt 0.003472 0.25
vt 1 1
vt 0.6599 0.8386
vt 1 0.75
vt 1 0.75
vt 0.7396 0.9896
vt 0.9167 0.9167
vt 0.5 0.5
vt 1 1
vt 1 0.75
vt 0.7396 0.9896
vt 0.003472 0.25
vt 0.7396 0.9896
vt 0.8386 0.6599
vt 1 0.5
vt 0.008681 0.2517
vt 0.9167 0.9167
vt 0.901 0.5
vt 1 0.5
vt 1 0.75
vt 0.9167 0.9167
vt 0.8386 0.6599
vt 0 0.5
vt 1 1
vt 0.9167 0.9167
vt 0.5 0.5
vt 1 1
vt 0.8386 0.3401
vt 0 0.5
vt 1 0.75
vt 0.7396 0.9896
vt 0.8185 0.1815
vt 1 0.75
vt 0.08333 0.9167
vt 0.8386 0.3401
vt 0.2608 0.989
vt 0.5 0.5
vt 0.08392 0.9161
vt 1 0.75
vt 0.6599 0.1614
vt 1 0.75
vt 0.5 0.09896
vt 0.2604 0.9896
vt 0.6599 0.1614
vt 1 0.5
vt 0.5 0.5
vt 0.3401 0.1614
vt 1 0.5
vt 0.1815 0.1815
vt 0.3401 0.1614
vt 0.5 -1.192e-07
vt 0.9913 0.7396
vt 0.9895 0.2622
vt 0.25 0
vt 0.9896 0.2604
vt 0.5 0.5
vt 0.9896 0.7396
vt 0.9913 0.7396
vt 0.9895 0.2622
vt 0.1614 0.3401
vt 1 0.7396
vt 1 0.5
vt 0.9166 0.08338
vt 0.25 0
vt 0.9167 0.08333
vt 0.09896 0.5
vt 1 0.5
vt 0.9236 0.9167
vt 0.9893 0.2676
vt 0.1614 0.3401
vt 0.5 -1.192e-07
vt 0.9236 0.9167
vt 0.9166 0.08338
vt 0.5 0.5
vt 1 0.9167
vt 0.9167 0.9167
vt 0.9163 0.08374
vt 0.1614 0.6599
vt 0.9896 0.7396
vt 0.5 0
vt 0.9913 0.7396
vt 0.5 1
vt 0.5 0.0005215
vt 0.08333 0.08333
vt 0.9236 0.9167
vt 0.2608 0.01099
vt 0.2622 0.01042
vt 0.2604 0.01042
vt 0.5833 -2.384e-07
vt 0.7483 0.9913
vt 0.2604 0.01042
vt 0.2608 0.01099
vt 0.2674 0.01042
vt 0.7413 0.9896
vt 0.08392 0.08392
vt 0.08333 0.08333
vt 0.2608 0.01099
vt 0.2633 0.01504
vt 0.9913 0.7396
vt 1 0.5
vt 0.088 0.088
vt 0.9913 0.2604
vt 0.08392 0.08392
vt 1 0.2604
vt 1 0.5
vt 0.5 0.0005215
vt 1 0.5
vt 0.5 0.004172
vt 1 0.7396
vt 0.2633 0.01504
vt 1 0.5
vt 0.2608 0.01099
vt 0 0.5
vn -0.1567 0.9836 -0.08896
vn -0.1231 0.9853 -0.1187
vn -0.3472 0.8665 -0.3584
vn -0.3731 0.8675 -0.3289
vn -0.5636 0.6496 -0.5102
vn -0.5829 0.6549 -0.4809
vn -0.2482 0.8678 -0.4305
vn -0.4986 0.6396 -0.585
vn 0.0144 0.9818 -0.189
vn -0.6142 -0.7209 -0.321
vn -0.6515 -0.4573 -0.6053
vn -0.6354 -0.4573 -0.6222
vn -0.5976 -0.7274 -0.3373
vn -0.6402 -0.4415 -0.6287
vn -0.6038 -0.7177 -0.3468
vn -0.575 -0.1278 -0.8081
vn -0.5795 -0.113 -0.8071
vn -0.5913 -0.1287 -0.7961
vn -0.447 0.2189 -0.8673
vn -0.4339 0.2122 -0.8756
vn -0.4421 0.2175 -0.8702
vn -0.2312 0.5242 -0.8196
vn -0.2459 0.5195 -0.8183
vn -0.2396 0.5385 -0.8078
vn -0.2995 -0.9029 0.3083
vn -0.3046 -0.906 0.2939
vn -0.02347 -0.7935 0.608
vn -0.02966 -0.7931 0.6083
vn 0.2441 -0.5521 0.7972
vn 0.2361 -0.5551 0.7975
vn 0.01968 -0.8138 0.5807
vn 0.2828 -0.5687 0.7724
vn -0.2595 -0.9308 0.2571
vn 0.5694 0.149 0.8084
vn 0.4233 -0.2061 0.8822
vn 0.4482 -0.2201 0.8664
vn 0.596 0.1433 0.7901
vn 0.4577 -0.2259 0.8599
vn 0.6051 0.1441 0.783
vn 0.23 -0.5519 0.8015
vn 0.2343 -0.5611 0.7939
vn 0.2108 -0.5318 0.8202
vn -0.03455 -0.7739 0.6324
vn -0.0184 -0.7915 0.6109
vn -0.01999 -0.7979 0.6025
vn -0.2594 -0.907 0.3315
vn -0.2649 -0.9086 0.3228
vn -0.277 -0.8947 0.3504
vn 0.5888 0.7367 0.3326
vn 0.6274 0.478 0.6147
vn 0.6502 0.4738 0.5939
vn 0.6083 0.7289 0.3142
vn 0.6536 0.4784 0.5864
vn 0.6055 0.7346 0.3062
vn 0.2499 0.9069 -0.339
vn 0.4569 0.8895 -0.001617
vn 0.4746 0.88 -0.01703
vn 0.2637 0.8965 -0.3559
vn 0.4663 0.8842 -0.02689
vn 0.2499 0.8961 -0.3669
vn -0.4818 -0.8761 0.01541
vn -0.4635 -0.886 3.052e-05
vn -0.4703 -0.8824 -0.009583
vn 0.01233 0.7679 -0.6404
vn 0.00412 0.7821 -0.6232
vn -0.005371 0.7617 -0.6479
vn -0.2307 0.4867 -0.8425
vn 0.1331 0.3806 -0.9151
vn -0.08405 0.02512 -0.9961
vn -0.4118 0.2078 -0.8873
vn -0.2577 -0.3613 -0.8961
vn -0.5447 -0.1104 -0.8314
vn 0.6236 -0.3554 -0.6962
vn 0.4294 -0.6691 -0.6066
vn 0.7809 -0.02301 -0.6241
vn 0.6 0.1379 0.788
vn 0.6017 0.1285 0.7883
vn 0.6468 0.4789 0.5935
vn 0.643 0.4841 0.5934
vn 0.5787 0.767 0.277
vn 0.5793 0.7611 0.2917
vn 0.6878 0.4531 0.5671
vn 0.6249 0.7427 0.2405
vn 0.6365 0.1036 0.7642
vn 0.4035 0.9101 -0.09436
vn 0.4152 0.9073 -0.0658
vn 0.1672 0.8874 -0.4296
vn 0.1834 0.8961 -0.4043
vn 0.4544 0.8807 -0.1338
vn 0.2289 0.8586 -0.4587
vn -0.6386 -0.6702 -0.3782
vn -0.64 -0.656 -0.4
vn -0.5234 -0.8489 -0.07297
vn -0.5152 -0.8558 -0.04602
vn -0.4709 -0.8751 -0.111
vn -0.5814 -0.6936 -0.4252
vn -0.08322 0.7303 -0.678
vn -0.07083 0.7444 -0.6639
vn -0.2961 0.5024 -0.8123
vn -0.2924 0.5115 -0.808
vn -0.0127 0.7122 -0.7018
vn -0.599 -0.06961 -0.7977
vn -0.5937 -0.06177 -0.8023
vn -0.6594 -0.3736 -0.6524
vn -0.6634 -0.3866 -0.6406
vn -0.6051 -0.4267 -0.6721
vn -0.4664 0.2369 -0.8522
vn -0.4696 0.2365 -0.8506
vn 0.4611 -0.2301 0.857
vn 0.4577 -0.2275 0.8595
vn 0.495 -0.2497 0.8322
vn 0.256 -0.9069 -0.3346
vn 0.9369 -0.3463 0.04724
vn 0.9394 -0.2734 -0.2067
vn 0.2766 -0.9302 -0.2411
vn 0.8505 -0.296 -0.4348
vn 0.3458 -0.9357 -0.06885
vn 0.7493 0.6602 -0.05115
vn 0.5791 0.676 -0.4557
vn 0.8106 0.5014 0.3024
vn 0.4262 -0.6372 0.6421
vn 0.6271 -0.3248 0.7079
vn 0.7718 0.01502 0.6357
vn 0.8141 -0.4343 0.3855
vn 0.9376 -0.1548 0.3113
vn 0.6478 -0.6928 0.3166
vn -0.04495 -0.9893 0.1389
vn 0.1913 -0.8744 0.4459
vn 0.4805 -0.8653 0.1429
vn 0.8351 0.3376 0.4343
vn 0.797 0.5914 0.1227
vn 0.9883 0.07511 0.1329
vn 0.9722 0.219 -0.08267
vn 0.6745 0.7082 -0.2086
vn 0.5143 0.7078 -0.4841
vn 0.9279 0.267 -0.26
vn 0.8922 0.2667 -0.3643
vn -0.3033 -0.8427 -0.4447
vn -0.2124 -0.9597 -0.1841
vn 0.3348 0.6068 -0.7208
vn 0.856 0.1951 -0.4786
vn -0.3282 -0.6547 -0.6809
vn 0.2929 -0.8468 -0.4439
vn 0.9421 0.3141 0.1175
vn 0.975 -0.05387 0.2154
vn 0.8208 -0.4522 -0.3489
vn 0.9409 0.2344 -0.2443
vn 0.7171 0.4648 -0.5194
vn 0.6423 0.1757 -0.746
vn 0.2929 0.1668 -0.9415
vn 0.3207 -0.1964 -0.9266
vn 0.008515 -0.3697 -0.9291
vn 0.1967 -0.6582 -0.7267
vn 0.006226 -0.8682 -0.4962
vn 0.3223 -0.9193 -0.2257
vn 0.263 -0.9549 0.1379
vn 0.5853 -0.7791 0.2247
vn 0.5929 -0.6153 0.5195
vn 0.8186 -0.4383 0.371
vn 0.8472 -0.1442 0.5113
vn 0.8059 -0.5899 0.05045
vn 0.8493 -0.4875 0.2023
vn 0.8582 -0.4464 0.2534
vn 0.249 -0.7752 0.5805
vn 0.4272 -0.5513 0.7166
vn 0.05426 -0.9429 0.3285
vn 0.8394 -0.4801 0.2546
vn 0.8739 -0.4414 0.2037
vn 0.7904 0.2481 0.5601
vn 0.7046 -0.03885 0.7086
vn 0.845 -0.4635 0.2669
vn 0.5769 -0.3072 0.7568
vn 0.7257 -0.408 -0.5538
vn 0.7315 -0.4124 -0.543
vn 0.7285 -0.4102 -0.5486
vn -0.09342 0.0264 -0.9953
vn -0.2128 -0.2771 -0.9369
vn 0.08945 0.3012 -0.9493
vn 0.7562 -0.358 -0.5477
vn 0.3249 0.5345 -0.7802
vn 0.7074 -0.4596 -0.537
vn 0.7104 -0.5638 -0.4211
vn -0.2663 -0.5937 -0.7593
vn -0.2325 -0.8717 -0.4313
vn 0.7435 -0.6391 -0.1964
vn -0.1163 -0.9929 -0.02588
vn 0.774 0.5644 0.2869
vn 0.7749 0.3114 0.55
vn 0.6957 0.001801 0.7183
vn -0.3479 -0.8431 -0.4099
vn -0.3941 -0.5711 -0.72
vn -0.3439 -0.2426 -0.9071
vn 0.3912 -0.5641 0.7271
vn 0.1847 -0.8004 0.5702
vn -0.0249 -0.9499 0.3113
vn -0.01093 0.3946 -0.9188
vn 0.2361 0.6313 -0.7387
vn 0.4915 0.7554 -0.4333
vn 0.6782 0.7318 -0.06705
vn -0.212 0.09232 -0.9729
vn -0.2198 -0.9746 -0.04273
vn 0.5632 -0.2945 0.772
vn 0.1873 0.9344 -0.3028
vn 0.2145 0.9241 -0.316
vn -0.02634 0.8012 -0.5977
vn -0.05078 0.8124 -0.5809
vn -0.2684 0.5591 -0.7844
vn -0.2911 0.5723 -0.7667
vn -0.3351 -0.8553 0.3952
vn -0.5426 -0.8385 0.05081
vn -0.5177 -0.8547 0.03763
vn -0.3119 -0.8719 0.3773
vn -0.6481 -0.7006 -0.2983
vn -0.6717 -0.6836 -0.2853
vn 0.3922 0.9192 0.03412
vn 0.4194 0.9075 0.02069
vn 0.551 0.7532 0.3592
vn 0.5244 0.7634 0.3771
vn 0.5593 0.4978 0.6628
vn 0.5875 0.4906 0.6435
vn 0.5278 0.1629 0.8336
vn 0.4982 0.1718 0.8498
vn 0.1527 -0.4837 0.8618
vn -0.08863 -0.7269 0.6809
vn -0.06708 -0.7469 0.6615
vn 0.1764 -0.5041 0.8454
vn 0.3564 -0.1696 0.9188
vn 0.384 -0.1847 0.9046
vn -0.6477 -0.1051 -0.7546
vn -0.5015 0.2475 -0.8289
vn -0.4782 0.2354 -0.8461
vn -0.6242 -0.1162 -0.7725
vn -0.7067 -0.4281 -0.5633
vn -0.684 -0.4422 -0.5801
vn -0.9777 -0.209 -0.01947
vn -0.9209 -0.1741 -0.3488
vn -0.9749 0.05002 -0.2169
vn -0.986 0.1293 0.1052
vn -0.9046 -0.1655 -0.3929
vn -0.9625 -0.2605 -0.07495
vn -0.8706 0.1386 -0.472
vn -0.7993 0.0427 -0.5994
vn -0.7836 -0.003021 -0.6212
vn -0.6104 0.3038 -0.7315
vn -0.7364 0.3732 -0.5643
vn -0.6592 0.3314 -0.675
vn -0.6178 0.6221 -0.4809
vn -0.4991 0.6157 -0.6097
vn -0.4512 0.6267 -0.6354
vn 0.2842 0.2688 0.9203
vn 0.2182 -0.09104 0.9716
vn 0.03207 0.003327 0.9995
vn 0.0191 0.3098 0.9506
vn 0.1585 -0.06406 0.9853
vn 0.1997 0.2636 0.9437
vn -0.2271 -0.1678 0.9593
vn -0.08918 -0.2889 0.9532
vn -0.03909 -0.361 0.9317
vn -0.3727 -0.4325 0.8209
vn -0.5559 -0.1069 0.8243
vn -0.4025 -0.3698 0.8373
vn -0.794 0.06644 0.6042
vn -0.6959 -0.3741 0.6129
vn -0.7077 -0.366 0.6043
vn -0.08972 0.7997 0.5936
vn 0.1509 0.57 0.8077
vn -0.2172 0.5361 0.8157
vn -0.4941 0.6294 0.5998
vn 0.08866 0.5589 0.8244
vn -0.07413 0.796 0.6007
vn -0.3746 0.9265 -0.03427
vn -0.3037 0.9077 0.2896
vn -0.6563 0.6611 0.3635
vn -0.6626 0.7426 0.09738
vn -0.2353 0.9322 0.2749
vn -0.3265 0.941 -0.08905
vn -0.9203 -0.2514 0.2995
vn -0.9129 0.1776 0.3674
vn -0.9019 -0.3229 0.2867
vn -0.5974 0.7686 -0.2286
vn -0.3784 0.8495 -0.3676
vn -0.3804 0.8301 -0.4077
vn -0.6108 -0.6004 0.5162
vn -0.7903 -0.5738 0.2147
vn -0.7717 -0.6069 0.1901
vn -0.5918 -0.6333 0.4987
vn -0.6743 -0.7273 0.1277
vn -0.4879 -0.7459 0.4533
vn -0.8824 -0.4588 -0.104
vn -0.8042 -0.5687 -0.1725
vn -0.8997 -0.4297 -0.07614
vn 0.03204 0.9785 0.2034
vn 0.07059 0.9817 0.1769
vn 0.2287 0.967 0.112
vn 0.1996 0.8514 0.485
vn 0.3558 0.8268 0.4357
vn 0.16 0.8489 0.5036
vn 0.2058 0.6164 0.7601
vn 0.2417 0.6158 0.7499
vn 0.3754 0.586 0.718
vn 0.1871 0.3157 0.9302
vn 0.2865 0.2897 0.9132
vn 0.1595 0.319 0.9342
vn -0.1628 -0.2874 0.9438
vn -0.3885 -0.5004 0.7737
vn -0.3698 -0.5289 0.7638
vn -0.1466 -0.3087 0.9398
vn -0.2735 -0.6185 0.7366
vn -0.07062 -0.371 0.9259
vn 0.03046 0.00119 0.9995
vn 0.04901 -0.009461 0.9987
vn 0.1206 -0.04459 0.9917
vn -0.8776 0.08521 -0.4717
vn -0.7574 0.3815 -0.5299
vn -0.7409 0.3724 -0.5588
vn -0.8628 0.07166 -0.5004
vn -0.6917 0.3461 -0.6338
vn -0.8184 0.02335 -0.5741
vn -0.9281 -0.1979 -0.3153
vn -0.9132 -0.2193 -0.3435
vn -0.8591 -0.3011 -0.4138
vn 0.2005 0.9434 -0.264
vn -0.106 0.8574 -0.5035
vn -0.4073 0.6255 -0.6654
vn 0.000763 0.8467 -0.5321
vn -0.3211 0.6157 -0.7196
vn 0.3003 0.9118 -0.28
vn -0.5078 -0.8603 0.04419
vn -0.3172 -0.8703 0.3767
vn -0.4252 -0.9049 0.01932
vn -0.2359 -0.9076 0.3472
vn -0.6699 -0.7004 -0.2463
vn -0.589 -0.7645 -0.262
vn 0.4334 0.9008 0.0267
vn 0.5156 0.8568 0.002289
vn 0.5554 0.7521 0.3546
vn 0.6284 0.7067 0.325
vn 0.5502 0.52 0.6532
vn 0.6221 0.4811 0.6177
vn 0.4293 0.2408 0.8704
vn 0.5154 0.2083 0.8312
vn -0.1225 -0.7249 0.6778
vn 0.0509 -0.4568 0.8881
vn -0.04511 -0.7643 0.6432
vn 0.1319 -0.5085 0.8509
vn 0.2383 -0.1027 0.9657
vn 0.3338 -0.1496 0.9307
vn -0.6262 0.3108 -0.715
vn -0.7561 -0.04474 -0.6529
vn -0.5646 0.2777 -0.7772
vn -0.7002 -0.1104 -0.7053
vn -0.7714 -0.4121 -0.4848
vn -0.7037 -0.4931 -0.5115
vn 0.2913 0.9209 -0.2589
vn 0.05197 0.8419 -0.537
vn -0.2388 0.6006 -0.7631
vn 0.05383 0.837 -0.5445
vn -0.1623 0.5696 -0.8057
vn 0.2166 0.9468 -0.2381
vn -0.4739 -0.8791 0.05075
vn -0.2739 -0.8854 0.3756
vn -0.5574 -0.8251 0.09198
vn -0.3213 -0.852 0.4133
vn -0.603 -0.7606 -0.2406
vn -0.6673 -0.7117 -0.2194
vn 0.4661 0.884 0.03467
vn 0.3735 0.9244 0.07654
vn 0.5845 0.7289 0.3565
vn 0.5266 0.7517 0.3969
vn 0.6113 0.487 0.6238
vn 0.5994 0.4869 0.6353
vn 0.5496 0.2026 0.8104
vn 0.5759 0.1922 0.7945
vn -0.0495 -0.7621 0.6456
vn 0.1618 -0.5355 0.8289
vn -0.05176 -0.7552 0.6534
vn 0.1882 -0.5541 0.8109
vn 0.3873 -0.1763 0.9049
vn 0.4289 -0.1985 0.8813
vn -0.4902 0.2381 -0.8384
vn -0.6429 -0.1685 -0.7472
vn -0.3926 0.1867 -0.9005
vn -0.5765 -0.2122 -0.789
vn -0.6731 -0.5304 -0.5153
vn -0.671 -0.5265 -0.522
vn 0.05768 0.9781 -0.2
vn -0.04758 0.8489 -0.5264
vn -0.1959 0.5706 -0.7975
vn -0.6843 -0.7128 0.1535
vn -0.4194 -0.7707 0.4797
vn -0.7823 -0.596 -0.1809
vn 0.2096 0.9679 0.1385
vn 0.403 0.7884 0.4648
vn 0.5248 0.5058 0.6846
vn 0.5397 0.1993 0.8179
vn -0.1073 -0.7059 0.7001
vn 0.1632 -0.5304 0.8318
vn 0.4127 -0.1912 0.8906
vn -0.3978 0.1899 -0.8976
vn -0.5974 -0.1834 -0.7807
vn -0.7391 -0.4472 -0.5036
vn -0.743 -0.3933 -0.5415
vn -0.7216 -0.6387 -0.2672
vn -0.7038 -0.4328 -0.5633
vn -0.6694 -0.684 -0.2897
vn -0.6792 -0.08408 -0.7291
vn -0.6464 -0.1124 -0.7547
vn -0.5332 0.2636 -0.8038
vn -0.4988 0.2453 -0.8313
vn -0.3268 0.5861 -0.7414
vn -0.2847 0.5747 -0.7672
vn 0.3295 -0.1546 0.9314
vn 0.4539 0.1864 0.8713
vn 0.3599 -0.171 0.9171
vn 0.4995 0.1664 0.8502
vn 0.1168 -0.4548 0.8829
vn 0.1584 -0.4812 0.8621
vn -0.1387 -0.6767 0.7231
vn -0.08234 -0.7241 0.6847
vn -0.3953 -0.804 0.4442
vn -0.3313 -0.8558 0.3973
vn 0.49 0.512 0.7055
vn 0.4495 0.7851 0.4261
vn 0.5604 0.4916 0.6665
vn 0.5269 0.7607 0.3791
vn 0.3212 0.9448 0.06403
vn 0.1222 0.9508 -0.2845
vn 0.3938 0.9186 0.0304
vn 0.1891 0.9327 -0.3069
vn -0.6038 -0.793 0.08081
vn -0.5413 -0.8395 0.04691
vn -0.1004 0.8231 -0.5589
vn -0.04514 0.8126 -0.581
vn 0.2349 -0.561 0.7938
vn 0.4597 -0.2277 0.8584
vn 0.6046 0.1428 0.7836
vn -0.2703 0.517 -0.8121
vn -0.4578 0.2278 -0.8593
vn -0.5913 -0.09122 -0.8013
vn -0.6532 -0.4153 -0.6331
vn -0.6214 -0.6961 -0.3595
vn 0.2186 0.8978 -0.3822
vn -0.03754 0.7555 -0.6541
vn -0.4917 -0.8704 -0.02414
vn -0.2818 -0.9057 0.3166
vn 0.5923 0.7476 0.3002
vn 0.4424 0.8958 -0.04236
vn 0.6486 0.4832 0.588
vn -0.02609 -0.797 0.6034
vn -0.7093 -0.427 -0.5609
vn -0.6747 -0.6804 -0.2858
vn -0.6512 -0.1057 -0.7515
vn -0.5047 0.2487 -0.8267
vn -0.2928 0.5752 -0.7638
vn 0.3529 -0.1675 0.9205
vn 0.4936 0.1704 0.8528
vn 0.1516 -0.4788 0.8647
vn -0.0886 -0.7224 0.6857
vn -0.3366 -0.853 0.3987
vn 0.5556 0.4957 0.6675
vn 0.5217 0.7635 0.3805
vn 0.3885 0.9208 0.03409
vn 0.1831 0.9352 -0.3031
vn -0.546 -0.8362 0.05069
vn -0.05316 0.8139 -0.5785
f 1/1/1 2/2/2 3/3/3
f 1/1/1 3/3/3 4/4/4
f 4/4/4 3/3/3 5/5/5
f 4/4/4 5/5/5 6/6/6
f 3/3/3 7/7/7 8/8/8
f 3/3/3 8/8/8 5/5/5
f 2/2/2 9/9/9 7/7/7
f 2/2/2 7/7/7 3/3/3
f 10/10/10 11/11/11 12/12/12
f 10/10/10 12/12/12 13/13/13
f 13/13/13 12/12/12 14/14/14
f 13/13/13 14/14/14 15/15/15
f 12/12/12 16/16/16 17/17/17
f 12/12/12 17/17/17 14/14/14
f 11/11/11 18/18/18 16/16/16
f 11/11/11 16/16/16 12/12/12
f 18/18/18 19/19/19 20/20/20
f 18/18/18 20/20/20 16/16/16
f 16/16/16 20/20/20 21/21/21
f 16/16/16 21/21/21 17/17/17
f 20/20/20 22/22/22 23/23/23
f 20/20/20 23/23/23 21/21/21
f 19/19/19 24/24/24 22/22/22
f 19/19/19 22/22/22 20/20/20
f 25/25/25 26/26/26 27/27/27
f 25/25/25 27/27/27 28/28/28
f 28/28/28 27/27/27 29/29/29
f 28/28/28 29/29/29 30/30/30
f 27/27/27 31/31/31 32/32/32
f 27/27/27 32/32/32 29/29/29
f 26/26/26 33/33/33 31/31/31
f 26/26/26 31/31/31 27/27/27
f 34/34/34 35/35/35 36/36/36
f 34/34/34 36/36/36 37/37/37
f 37/37/37 36/36/36 38/38/38
f 37/37/37 38/38/38 39/39/39
f 36/36/36 40/40/40 41/41/41
f 36/36/36 41/41/41 38/38/38
f 35/35/35 42/42/42 40/40/40
f 35/35/35 40/40/40 36/36/36
f 42/42/42 43/43/43 44/44/44
f 42/42/42 44/44/44 40/40/40
f 40/40/40 44/44/44 45/45/45
f 40/40/40 45/45/45 41/41/41
f 44/44/44 46/46/46 47/47/47
f 44/44/44 47/47/47 45/45/45
f 43/43/43 48/48/48 46/46/46
f 43/43/43 46/46/46 44/44/44
f 49/49/49 50/50/50 51/51/51
f 49/49/49 51/51/51 52/52/52
f 52/52/52 51/51/51 53/53/53
f 52/52/52 53/53/53 54/54/54
f 51/51/51 37/37/37 39/39/39
f 51/51/51 39/39/39 53/53/53
f 50/50/50 34/34/34 37/37/37
f 50/50/50 37/37/37 51/51/51
f 55/55/55 56/56/56 57/57/57
f 55/55/55 57/57/57 58/58/58
f 58/58/58 57/57/57 59/59/59
f 58/58/58 59/59/59 60/60/60
f 57/57/57 52/52/52 54/54/54
f 57/57/57 54/54/54 59/59/59
f 56/56/56 49/49/49 52/52/52
f 56/56/56 52/52/52 57/57/57
f 48/48/48 61/61/61 62/62/62
f 48/48/48 62/62/62 46/46/46
f 46/46/46 62/62/62 63/63/63
f 46/46/46 63/63/63 47/47/47
f 62/62/62 13/13/13 15/15/15
f 62/62/62 15/15/15 63/63/63
f 61/61/61 10/10/10 13/13/13
f 61/61/61 13/13/13 62/62/62
f 55/55/55 58/58/58 64/64/64
f 55/55/55 64/64/64 65/65/65
f 65/65/65 64/64/64 22/22/22
f 65/65/65 22/22/22 24/24/24
f 64/64/64 66/66/66 23/23/23
f 64/64/64 23/23/23 22/22/22
f 58/58/58 60/60/60 66/66/66
f 58/58/58 66/66/66 64/64/64
f 67/67/67 68/68/68 69/69/69
f 67/67/67 69/69/69 70/70/70
f 70/70/70 69/69/69 71/71/71
f 70/70/70 71/71/71 72/72/72
f 69/69/69 73/73/73 74/74/74
f 69/69/69 74/74/74 71/71/71
f 68/68/68 75/75/75 73/73/73
f 68/68/68 73/73/73 69/69/69
f 76/76/76 77/77/77 78/78/78
f 76/76/76 78/78/78 79/79/79
f 79/79/79 78/78/78 80/80/80
f 79/79/79 80/80/80 81/81/81
f 78/78/78 82/82/82 83/83/83
f 78/78/78 83/83/83 80/80/80
f 77/77/77 84/84/84 82/82/82
f 77/77/77 82/82/82 78/78/78
f 81/81/81 80/80/80 85/85/85
f 81/81/81 85/85/85 86/86/86
f 86/86/86 85/85/85 87/87/87
f 86/86/86 87/87/87 88/88/88
f 85/85/85 89/89/89 90/90/90
f 85/85/85 90/90/90 87/87/87
f 80/80/80 83/83/83 89/89/89
f 80/80/80 89/89/89 85/85/85
f 91/91/91 92/92/92 93/93/93
f 91/91/91 93/93/93 94/94/94
f 94/94/94 93/93/93 26/26/26
f 94/94/94 26/26/26 25/25/25
f 93/93/93 95/95/95 33/33/33
f 93/93/93 33/33/33 26/26/26
f 92/92/92 96/96/96 95/95/95
f 92/92/92 95/95/95 93/93/93
f 88/88/88 87/87/87 97/97/97
f 88/88/88 97/97/97 98/98/98
f 98/98/98 97/97/97 99/99/99
f 98/98/98 99/99/99 100/100/100
f 97/97/97 101/101/101 67/67/67
f 97/97/97 67/67/67 99/99/99
f 87/87/87 90/90/90 101/101/101
f 87/87/87 101/101/101 97/97/97
f 102/102/102 103/103/103 104/104/104
f 102/102/102 104/104/104 105/105/105
f 105/105/105 104/104/104 92/92/92
f 105/105/105 92/92/92 91/91/91
f 104/104/104 106/106/106 96/96/96
f 104/104/104 96/96/96 92/92/92
f 103/103/103 72/72/72 106/106/106
f 103/103/103 106/106/106 104/104/104
f 100/100/100 99/99/99 107/107/107
f 100/100/100 107/107/107 108/108/108
f 108/108/108 107/107/107 103/103/103
f 108/108/108 103/103/103 102/102/102
f 107/107/107 70/70/70 72/72/72
f 107/107/107 72/72/72 103/103/103
f 99/99/99 67/67/67 70/70/70
f 99/99/99 70/70/70 107/107/107
f 30/30/30 29/29/29 109/109/109
f 30/30/30 109/109/109 110/110/110
f 110/110/110 109/109/109 77/77/77
f 110/110/110 77/77/77 76/76/76
f 109/109/109 111/111/111 84/84/84
f 109/109/109 84/84/84 77/77/77
f 29/29/29 32/32/32 111/111/111
f 29/29/29 111/111/111 109/109/109
f 112/112/112 113/113/113 114/114/114
f 112/112/112 114/114/114 115/115/115
f 115/115/115 114/114/114 116/116/116
f 115/115/115 116/116/116 117/117/117
f 114/114/114 118/118/118 119/119/119
f 114/114/114 119/119/119 116/116/116
f 113/113/113 120/120/120 118/118/118
f 113/113/113 118/118/118 114/114/114
f 32/32/32 121/121/121 122/122/122
f 32/32/32 122/122/122 111/111/111
f 111/111/111 122/122/122 123/123/123
f 111/111/111 123/123/123 84/84/84
f 122/122/122 124/124/124 125/125/125
f 122/122/122 125/125/125 123/123/123
f 121/121/121 126/126/126 124/124/124
f 121/121/121 124/124/124 122/122/122
f 33/33/33 127/127/127 128/128/128
f 33/33/33 128/128/128 31/31/31
f 31/31/31 128/128/128 121/121/121
f 31/31/31 121/121/121 32/32/32
f 128/128/128 129/129/129 126/126/126
f 128/128/128 126/126/126 121/121/121
f 127/127/127 117/117/117 129/129/129
f 127/127/127 129/129/129 128/128/128
f 84/84/84 123/123/123 130/130/130
f 84/84/84 130/130/130 82/82/82
f 82/82/82 130/130/130 131/131/131
f 82/82/82 131/131/131 83/83/83
f 130/130/130 132/132/132 133/133/133
f 130/130/130 133/133/133 131/131/131
f 123/123/123 125/125/125 132/132/132
f 123/123/123 132/132/132 130/130/130
f 83/83/83 131/131/131 134/134/134
f 83/83/83 134/134/134 89/89/89
f 89/89/89 134/134/134 135/135/135
f 89/89/89 135/135/135 90/90/90
f 134/134/134 136/136/136 137/137/137
f 134/134/134 137/137/137 135/135/135
f 131/131/131 133/133/133 136/136/136
f 131/131/131 136/136/136 134/134/134
f 96/96/96 138/138/138 139/139/139
f 96/96/96 139/139/139 95/95/95
f 95/95/95 139/139/139 127/127/127
f 95/95/95 127/127/127 33/33/33
f 139/139/139 115/115/115 117/117/117
f 139/139/139 117/117/117 127/127/127
f 138/138/138 112/112/112 115/115/115
f 138/138/138 115/115/115 139/139/139
f 90/90/90 135/135/135 140/140/140
f 90/90/90 140/140/140 101/101/101
f 101/101/101 140/140/140 68/68/68
f 101/101/101 68/68/68 67/67/67
f 140/140/140 141/141/141 75/75/75
f 140/140/140 75/75/75 68/68/68
f 135/135/135 137/137/137 141/141/141
f 135/135/135 141/141/141 140/140/140
f 72/72/72 71/71/71 142/142/142
f 72/72/72 142/142/142 106/106/106
f 106/106/106 142/142/142 138/138/138
f 106/106/106 138/138/138 96/96/96
f 142/142/142 143/143/143 112/112/112
f 142/142/142 112/112/112 138/138/138
f 71/71/71 74/74/74 143/143/143
f 71/71/71 143/143/143 142/142/142
f 144/144/144 145/145/145 146/146/146
f 144/144/144 146/146/146 147/147/147
f 148/148/148 147/147/147 146/146/146
f 148/148/148 146/146/146 149/149/149
f 150/150/150 149/149/149 146/146/146
f 150/150/150 146/146/146 151/151/151
f 152/152/152 151/151/151 146/146/146
f 152/152/152 146/146/146 153/153/153
f 154/154/154 153/153/153 146/146/146
f 154/154/154 146/146/146 155/155/155
f 156/156/156 155/155/155 146/146/146
f 156/156/156 146/146/146 157/157/157
f 158/158/158 157/157/157 146/146/146
f 158/158/158 146/146/146 159/159/159
f 160/160/160 159/159/159 146/146/146
f 160/160/160 146/146/146 145/145/145
f 137/137/137 161/161/161 162/162/162
f 137/137/137 162/162/162 141/141/141
f 141/141/141 162/162/162 163/163/163
f 141/141/141 163/163/163 75/75/75
f 162/162/162 164/164/164 165/165/165
f 162/162/162 165/165/165 163/163/163
f 161/161/161 166/166/166 164/164/164
f 161/161/161 164/164/164 162/162/162
f 74/74/74 167/167/167 168/168/168
f 74/74/74 168/168/168 143/143/143
f 143/143/143 168/168/168 113/113/113
f 143/143/143 113/113/113 112/112/112
f 168/168/168 169/169/169 120/120/120
f 168/168/168 120/120/120 113/113/113
f 167/167/167 170/170/170 169/169/169
f 167/167/167 169/169/169 168/168/168
f 75/75/75 163/163/163 171/171/171
f 75/75/75 171/171/171 73/73/73
f 73/73/73 171/171/171 167/167/167
f 73/73/73 167/167/167 74/74/74
f 171/171/171 172/172/172 170/170/170
f 171/171/171 170/170/170 167/167/167
f 163/163/163 165/165/165 172/172/172
f 163/163/163 172/172/172 171/171/171
f 126/126/126 173/173/173 174/174/174
f 126/126/126 174/174/174 124/124/124
f 124/124/124 174/174/174 175/175/175
f 124/124/124 175/175/175 125/125/125
f 174/174/174 176/176/176 177/177/177
f 174/174/174 177/177/177 175/175/175
f 173/173/173 178/178/178 176/176/176
f 173/173/173 176/176/176 174/174/174
f 117/117/117 116/116/116 179/179/179
f 117/117/117 179/179/179 129/129/129
f 129/129/129 179/179/179 173/173/173
f 129/129/129 173/173/173 126/126/126
f 179/179/179 180/180/180 178/178/178
f 179/179/179 178/178/178 173/173/173
f 116/116/116 119/119/119 180/180/180
f 116/116/116 180/180/180 179/179/179
f 125/125/125 175/175/175 181/181/181
f 125/125/125 181/181/181 132/132/132
f 132/132/132 181/181/181 182/182/182
f 132/132/132 182/182/182 133/133/133
f 181/181/181 183/183/183 184/184/184
f 181/181/181 184/184/184 182/182/182
f 175/175/175 177/177/177 183/183/183
f 175/175/175 183/183/183 181/181/181
f 133/133/133 182/182/182 185/185/185
f 133/133/133 185/185/185 136/136/136
f 136/136/136 185/185/185 161/161/161
f 136/136/136 161/161/161 137/137/137
f 185/185/185 186/186/186 166/166/166
f 185/185/185 166/166/166 161/161/161
f 182/182/182 184/184/184 186/186/186
f 182/182/182 186/186/186 185/185/185
f 144/144/144 187/187/187 188/188/188
f 144/144/144 188/188/188 145/145/145
f 145/145/145 188/188/188 189/189/189
f 145/145/145 189/189/189 160/160/160
f 188/188/188 169/169/169 170/170/170
f 188/188/188 170/170/170 189/189/189
f 187/187/187 120/120/120 169/169/169
f 187/187/187 169/169/169 188/188/188
f 154/154/154 190/190/190 191/191/191
f 154/154/154 191/191/191 153/153/153
f 153/153/153 191/191/191 192/192/192
f 153/153/153 192/192/192 152/152/152
f 191/191/191 183/183/183 177/177/177
f 191/191/191 177/177/177 192/192/192
f 190/190/190 184/184/184 183/183/183
f 190/190/190 183/183/183 191/191/191
f 158/158/158 193/193/193 194/194/194
f 158/158/158 194/194/194 157/157/157
f 157/157/157 194/194/194 195/195/195
f 157/157/157 195/195/195 156/156/156
f 194/194/194 164/164/164 166/166/166
f 194/194/194 166/166/166 195/195/195
f 193/193/193 165/165/165 164/164/164
f 193/193/193 164/164/164 194/194/194
f 150/150/150 196/196/196 197/197/197
f 150/150/150 197/197/197 149/149/149
f 149/149/149 197/197/197 198/198/198
f 149/149/149 198/198/198 148/148/148
f 197/197/197 180/180/180 119/119/119
f 197/197/197 119/119/119 198/198/198
f 196/196/196 178/178/178 180/180/180
f 196/196/196 180/180/180 197/197/197
f 148/148/148 198/198/198 199/199/199
f 148/148/148 199/199/199 147/147/147
f 147/147/147 199/199/199 187/187/187
f 147/147/147 187/187/187 144/144/144
f 199/199/199 118/118/118 120/120/120
f 199/199/199 120/120/120 187/187/187
f 198/198/198 119/119/119 118/118/118
f 198/198/198 118/118/118 199/199/199
f 152/152/152 192/192/192 200/200/200
f 152/152/152 200/200/200 151/151/151
f 151/151/151 200/200/200 196/196/196
f 151/151/151 196/196/196 150/150/150
f 200/200/200 176/176/176 178/178/178
f 200/200/200 178/178/178 196/196/196
f 192/192/192 177/177/177 176/176/176
f 192/192/192 176/176/176 200/200/200
f 156/156/156 195/195/195 201/201/201
f 156/156/156 201/201/201 155/155/155
f 155/155/155 201/201/201 190/190/190
f 155/155/155 190/190/190 154/154/154
f 201/201/201 186/186/186 184/184/184
f 201/201/201 184/184/184 190/190/190
f 195/195/195 166/166/166 186/186/186
f 195/195/195 186/186/186 201/201/201
f 160/160/160 189/189/189 202/202/202
f 160/160/160 202/202/202 159/159/159
f 159/159/159 202/202/202 193/193/193
f 159/159/159 193/193/193 158/158/158
f 202/202/202 172/172/172 165/165/165
f 202/202/202 165/165/165 193/193/193
f 189/189/189 170/170/170 172/172/172
f 189/189/189 172/172/172 202/202/202
f 203/203/203 204/204/204 205/205/205
f 203/203/203 205/205/205 206/206/206
f 206/206/206 205/205/205 207/207/207
f 206/206/206 207/207/207 208/208/208
f 205/205/205 65/65/65 24/24/24
f 205/205/205 24/24/24 207/207/207
f 204/204/204 55/55/55 65/65/65
f 204/204/204 65/65/65 205/205/205
f 209/209/209 210/210/210 211/211/211
f 209/209/209 211/211/211 212/212/212
f 212/212/212 211/211/211 61/61/61
f 212/212/212 61/61/61 48/48/48
f 211/211/211 213/213/213 10/10/10
f 211/211/211 10/10/10 61/61/61
f 210/210/210 214/214/214 213/213/213
f 210/210/210 213/213/213 211/211/211
f 203/203/203 215/215/215 216/216/216
f 203/203/203 216/216/216 204/204/204
f 204/204/204 216/216/216 56/56/56
f 204/204/204 56/56/56 55/55/55
f 216/216/216 217/217/217 49/49/49
f 216/216/216 49/49/49 56/56/56
f 215/215/215 218/218/218 217/217/217
f 215/215/215 217/217/217 216/216/216
f 218/218/218 219/219/219 220/220/220
f 218/218/218 220/220/220 217/217/217
f 217/217/217 220/220/220 50/50/50
f 217/217/217 50/50/50 49/49/49
f 220/220/220 221/221/221 34/34/34
f 220/220/220 34/34/34 50/50/50
f 219/219/219 222/222/222 221/221/221
f 219/219/219 221/221/221 220/220/220
f 223/223/223 224/224/224 225/225/225
f 223/223/223 225/225/225 226/226/226
f 226/226/226 225/225/225 43/43/43
f 226/226/226 43/43/43 42/42/42
f 225/225/225 212/212/212 48/48/48
f 225/225/225 48/48/48 43/43/43
f 224/224/224 209/209/209 212/212/212
f 224/224/224 212/212/212 225/225/225
f 222/222/222 227/227/227 228/228/228
f 222/222/222 228/228/228 221/221/221
f 221/221/221 228/228/228 35/35/35
f 221/221/221 35/35/35 34/34/34
f 228/228/228 226/226/226 42/42/42
f 228/228/228 42/42/42 35/35/35
f 227/227/227 223/223/223 226/226/226
f 227/227/227 226/226/226 228/228/228
f 229/229/229 230/230/230 231/231/231
f 229/229/229 231/231/231 232/232/232
f 232/232/232 231/231/231 19/19/19
f 232/232/232 19/19/19 18/18/18
f 231/231/231 207/207/207 24/24/24
f 231/231/231 24/24/24 19/19/19
f 230/230/230 208/208/208 207/207/207
f 230/230/230 207/207/207 231/231/231
f 214/214/214 233/233/233 234/234/234
f 214/214/214 234/234/234 213/213/213
f 213/213/213 234/234/234 11/11/11
f 213/213/213 11/11/11 10/10/10
f 234/234/234 232/232/232 18/18/18
f 234/234/234 18/18/18 11/11/11
f 233/233/233 229/229/229 232/232/232
f 233/233/233 232/232/232 234/234/234
f 235/235/235 236/236/236 237/237/237
f 235/235/235 237/237/237 238/238/238
f 238/238/238 237/237/237 239/239/239
f 238/238/238 239/239/239 240/240/240
f 237/237/237 241/241/241 242/242/242
f 237/237/237 242/242/242 239/239/239
f 236/236/236 243/243/243 241/241/241
f 236/236/236 241/241/241 237/237/237
f 243/243/243 244/244/244 245/245/245
f 243/243/243 245/245/245 241/241/241
f 241/241/241 245/245/245 246/246/246
f 241/241/241 246/246/246 242/242/242
f 245/245/245 247/247/247 248/248/248
f 245/245/245 248/248/248 246/246/246
f 244/244/244 249/249/249 247/247/247
f 244/244/244 247/247/247 245/245/245
f 250/250/250 251/251/251 252/252/252
f 250/250/250 252/252/252 253/253/253
f 253/253/253 252/252/252 254/254/254
f 253/253/253 254/254/254 255/255/255
f 252/252/252 256/256/256 257/257/257
f 252/252/252 257/257/257 254/254/254
f 251/251/251 258/258/258 256/256/256
f 251/251/251 256/256/256 252/252/252
f 258/258/258 259/259/259 260/260/260
f 258/258/258 260/260/260 256/256/256
f 256/256/256 260/260/260 261/261/261
f 256/256/256 261/261/261 257/257/257
f 260/260/260 262/262/262 263/263/263
f 260/260/260 263/263/263 261/261/261
f 259/259/259 264/264/264 262/262/262
f 259/259/259 262/262/262 260/260/260
f 265/265/265 266/266/266 267/267/267
f 265/265/265 267/267/267 268/268/268
f 268/268/268 267/267/267 269/269/269
f 268/268/268 269/269/269 270/270/270
f 267/267/267 253/253/253 255/255/255
f 267/267/267 255/255/255 269/269/269
f 266/266/266 250/250/250 253/253/253
f 266/266/266 253/253/253 267/267/267
f 271/271/271 272/272/272 273/273/273
f 271/271/271 273/273/273 274/274/274
f 274/274/274 273/273/273 275/275/275
f 274/274/274 275/275/275 276/276/276
f 273/273/273 268/268/268 270/270/270
f 273/273/273 270/270/270 275/275/275
f 272/272/272 265/265/265 268/268/268
f 272/272/272 268/268/268 273/273/273
f 264/264/264 277/277/277 278/278/278
f 264/264/264 278/278/278 262/262/262
f 262/262/262 278/278/278 279/279/279
f 262/262/262 279/279/279 263/263/263
f 278/278/278 238/238/238 240/240/240
f 278/278/278 240/240/240 279/279/279
f 277/277/277 235/235/235 238/238/238
f 277/277/277 238/238/238 278/278/278
f 271/271/271 274/274/274 280/280/280
f 271/271/271 280/280/280 281/281/281
f 281/281/281 280/280/280 247/247/247
f 281/281/281 247/247/247 249/249/249
f 280/280/280 282/282/282 248/248/248
f 280/280/280 248/248/248 247/247/247
f 274/274/274 276/276/276 282/282/282
f 274/274/274 282/282/282 280/280/280
f 283/283/283 284/284/284 285/285/285
f 283/283/283 285/285/285 286/286/286
f 286/286/286 285/285/285 287/287/287
f 286/286/286 287/287/287 288/288/288
f 285/285/285 289/289/289 290/290/290
f 285/285/285 290/290/290 287/287/287
f 284/284/284 291/291/291 289/289/289
f 284/284/284 289/289/289 285/285/285
f 1/1/1 292/292/292 293/293/293
f 1/1/1 293/293/293 2/2/2
f 2/2/2 293/293/293 294/294/294
f 2/2/2 294/294/294 9/9/9
f 293/293/293 295/295/295 296/296/296
f 293/293/293 296/296/296 294/294/294
f 292/292/292 297/297/297 295/295/295
f 292/292/292 295/295/295 293/293/293
f 297/297/297 298/298/298 299/299/299
f 297/297/297 299/299/299 295/295/295
f 295/295/295 299/299/299 300/300/300
f 295/295/295 300/300/300 296/296/296
f 299/299/299 301/301/301 302/302/302
f 299/299/299 302/302/302 300/300/300
f 298/298/298 303/303/303 301/301/301
f 298/298/298 301/301/301 299/299/299
f 304/304/304 305/305/305 306/306/306
f 304/304/304 306/306/306 307/307/307
f 307/307/307 306/306/306 308/308/308
f 307/307/307 308/308/308 309/309/309
f 306/306/306 286/286/286 288/288/288
f 306/306/306 288/288/288 308/308/308
f 305/305/305 283/283/283 286/286/286
f 305/305/305 286/286/286 306/306/306
f 303/303/303 310/310/310 311/311/311
f 303/303/303 311/311/311 301/301/301
f 301/301/301 311/311/311 312/312/312
f 301/301/301 312/312/312 302/302/302
f 311/311/311 307/307/307 309/309/309
f 311/311/311 309/309/309 312/312/312
f 310/310/310 304/304/304 307/307/307
f 310/310/310 307/307/307 311/311/311
f 313/313/313 314/314/314 315/315/315
f 313/313/313 315/315/315 316/316/316
f 316/316/316 315/315/315 317/317/317
f 316/316/316 317/317/317 318/318/318
f 315/315/315 5/5/5 8/8/8
f 315/315/315 8/8/8 317/317/317
f 314/314/314 6/6/6 5/5/5
f 314/314/314 5/5/5 315/315/315
f 291/291/291 319/319/319 320/320/320
f 291/291/291 320/320/320 289/289/289
f 289/289/289 320/320/320 321/321/321
f 289/289/289 321/321/321 290/290/290
f 320/320/320 316/316/316 318/318/318
f 320/320/320 318/318/318 321/321/321
f 319/319/319 313/313/313 316/316/316
f 319/319/319 316/316/316 320/320/320
f 9/9/9 322/322/322 323/323/323
f 9/9/9 323/323/323 7/7/7
f 7/7/7 323/323/323 324/324/324
f 7/7/7 324/324/324 8/8/8
f 323/323/323 325/325/325 326/326/326
f 323/323/323 326/326/326 324/324/324
f 322/322/322 327/327/327 325/325/325
f 322/322/322 325/325/325 323/323/323
f 288/288/288 287/287/287 328/328/328
f 288/288/288 328/328/328 329/329/329
f 329/329/329 328/328/328 330/330/330
f 329/329/329 330/330/330 331/331/331
f 328/328/328 332/332/332 333/333/333
f 328/328/328 333/333/333 330/330/330
f 287/287/287 290/290/290 332/332/332
f 287/287/287 332/332/332 328/328/328
f 9/9/9 294/294/294 334/334/334
f 9/9/9 334/334/334 322/322/322
f 322/322/322 334/334/334 335/335/335
f 322/322/322 335/335/335 327/327/327
f 334/334/334 336/336/336 337/337/337
f 334/334/334 337/337/337 335/335/335
f 294/294/294 296/296/296 336/336/336
f 294/294/294 336/336/336 334/334/334
f 296/296/296 300/300/300 338/338/338
f 296/296/296 338/338/338 336/336/336
f 336/336/336 338/338/338 339/339/339
f 336/336/336 339/339/339 337/337/337
f 338/338/338 340/340/340 341/341/341
f 338/338/338 341/341/341 339/339/339
f 300/300/300 302/302/302 340/340/340
f 300/300/300 340/340/340 338/338/338
f 309/309/309 308/308/308 342/342/342
f 309/309/309 342/342/342 343/343/343
f 343/343/343 342/342/342 344/344/344
f 343/343/343 344/344/344 345/345/345
f 342/342/342 329/329/329 331/331/331
f 342/342/342 331/331/331 344/344/344
f 308/308/308 288/288/288 329/329/329
f 308/308/308 329/329/329 342/342/342
f 302/302/302 312/312/312 346/346/346
f 302/302/302 346/346/346 340/340/340
f 340/340/340 346/346/346 347/347/347
f 340/340/340 347/347/347 341/341/341
f 346/346/346 343/343/343 345/345/345
f 346/346/346 345/345/345 347/347/347
f 312/312/312 309/309/309 343/343/343
f 312/312/312 343/343/343 346/346/346
f 318/318/318 317/317/317 348/348/348
f 318/318/318 348/348/348 349/349/349
f 349/349/349 348/348/348 350/350/350
f 349/349/349 350/350/350 351/351/351
f 348/348/348 324/324/324 326/326/326
f 348/348/348 326/326/326 350/350/350
f 317/317/317 8/8/8 324/324/324
f 317/317/317 324/324/324 348/348/348
f 290/290/290 321/321/321 352/352/352
f 290/290/290 352/352/352 332/332/332
f 332/332/332 352/352/352 353/353/353
f 332/332/332 353/353/353 333/333/333
f 352/352/352 349/349/349 351/351/351
f 352/352/352 351/351/351 353/353/353
f 321/321/321 318/318/318 349/349/349
f 321/321/321 349/349/349 352/352/352
f 327/327/327 354/354/354 355/355/355
f 327/327/327 355/355/355 325/325/325
f 325/325/325 355/355/355 356/356/356
f 325/325/325 356/356/356 326/326/326
f 355/355/355 357/357/357 358/358/358
f 355/355/355 358/358/358 356/356/356
f 354/354/354 359/359/359 357/357/357
f 354/354/354 357/357/357 355/355/355
f 331/331/331 330/330/330 360/360/360
f 331/331/331 360/360/360 361/361/361
f 361/361/361 360/360/360 362/362/362
f 361/361/361 362/362/362 363/363/363
f 360/360/360 364/364/364 365/365/365
f 360/360/360 365/365/365 362/362/362
f 330/330/330 333/333/333 364/364/364
f 330/330/330 364/364/364 360/360/360
f 327/327/327 335/335/335 366/366/366
f 327/327/327 366/366/366 354/354/354
f 354/354/354 366/366/366 367/367/367
f 354/354/354 367/367/367 359/359/359
f 366/366/366 368/368/368 369/369/369
f 366/366/366 369/369/369 367/367/367
f 335/335/335 337/337/337 368/368/368
f 335/335/335 368/368/368 366/366/366
f 337/337/337 339/339/339 370/370/370
f 337/337/337 370/370/370 368/368/368
f 368/368/368 370/370/370 371/371/371
f 368/368/368 371/371/371 369/369/369
f 370/370/370 372/372/372 373/373/373
f 370/370/370 373/373/373 371/371/371
f 339/339/339 341/341/341 372/372/372
f 339/339/339 372/372/372 370/370/370
f 345/345/345 344/344/344 374/374/374
f 345/345/345 374/374/374 375/375/375
f 375/375/375 374/374/374 376/376/376
f 375/375/375 376/376/376 377/377/377
f 374/374/374 361/361/361 363/363/363
f 374/374/374 363/363/363 376/376/376
f 344/344/344 331/331/331 361/361/361
f 344/344/344 361/361/361 374/374/374
f 341/341/341 347/347/347 378/378/378
f 341/341/341 378/378/378 372/372/372
f 372/372/372 378/378/378 379/379/379
f 372/372/372 379/379/379 373/373/373
f 378/378/378 375/375/375 377/377/377
f 378/378/378 377/377/377 379/379/379
f 347/347/347 345/345/345 375/375/375
f 347/347/347 375/375/375 378/378/378
f 351/351/351 350/350/350 380/380/380
f 351/351/351 380/380/380 381/381/381
f 381/381/381 380/380/380 382/382/382
f 381/381/381 382/382/382 383/383/383
f 380/380/380 356/356/356 358/358/358
f 380/380/380 358/358/358 382/382/382
f 350/350/350 326/326/326 356/356/356
f 350/350/350 356/356/356 380/380/380
f 333/333/333 353/353/353 384/384/384
f 333/333/333 384/384/384 364/364/364
f 364/364/364 384/384/384 385/385/385
f 364/364/364 385/385/385 365/365/365
f 384/384/384 381/381/381 383/383/383
f 384/384/384 383/383/383 385/385/385
f 353/353/353 351/351/351 381/381/381
f 353/353/353 381/381/381 384/384/384
f 359/359/359 386/386/386 387/387/387
f 359/359/359 387/387/387 357/357/357
f 357/357/357 387/387/387 388/388/388
f 357/357/357 388/388/388 358/358/358
f 387/387/387 281/281/281 249/249/249
f 387/387/387 249/249/249 388/388/388
f 386/386/386 271/271/271 281/281/281
f 386/386/386 281/281/281 387/387/387
f 363/363/363 362/362/362 389/389/389
f 363/363/363 389/389/389 390/390/390
f 390/390/390 389/389/389 277/277/277
f 390/390/390 277/277/277 264/264/264
f 389/389/389 391/391/391 235/235/235
f 389/389/389 235/235/235 277/277/277
f 362/362/362 365/365/365 391/391/391
f 362/362/362 391/391/391 389/389/389
f 359/359/359 367/367/367 392/392/392
f 359/359/359 392/392/392 386/386/386
f 386/386/386 392/392/392 272/272/272
f 386/386/386 272/272/272 271/271/271
f 392/392/392 393/393/393 265/265/265
f 392/392/392 265/265/265 272/272/272
f 367/367/367 369/369/369 393/393/393
f 367/367/367 393/393/393 392/392/392
f 369/369/369 371/371/371 394/394/394
f 369/369/369 394/394/394 393/393/393
f 393/393/393 394/394/394 266/266/266
f 393/393/393 266/266/266 265/265/265
f 394/394/394 395/395/395 250/250/250
f 394/394/394 250/250/250 266/266/266
f 371/371/371 373/373/373 395/395/395
f 371/371/371 395/395/395 394/394/394
f 377/377/377 376/376/376 396/396/396
f 377/377/377 396/396/396 397/397/397
f 397/397/397 396/396/396 259/259/259
f 397/397/397 259/259/259 258/258/258
f 396/396/396 390/390/390 264/264/264
f 396/396/396 264/264/264 259/259/259
f 376/376/376 363/363/363 390/390/390
f 376/376/376 390/390/390 396/396/396
f 373/373/373 379/379/379 398/398/398
f 373/373/373 398/398/398 395/395/395
f 395/395/395 398/398/398 251/251/251
f 395/395/395 251/251/251 250/250/250
f 398/398/398 397/397/397 258/258/258
f 398/398/398 258/258/258 251/251/251
f 379/379/379 377/377/377 397/397/397
f 379/379/379 397/397/397 398/398/398
f 383/383/383 382/382/382 399/399/399
f 383/383/383 399/399/399 400/400/400
f 400/400/400 399/399/399 244/244/244
f 400/400/400 244/244/244 243/243/243
f 399/399/399 388/388/388 249/249/249
f 399/399/399 249/249/249 244/244/244
f 382/382/382 358/358/358 388/388/388
f 382/382/382 388/388/388 399/399/399
f 365/365/365 385/385/385 401/401/401
f 365/365/365 401/401/401 391/391/391
f 391/391/391 401/401/401 236/236/236
f 391/391/391 236/236/236 235/235/235
f 401/401/401 400/400/400 243/243/243
f 401/401/401 243/243/243 236/236/236
f 385/385/385 383/383/383 400/400/400
f 385/385/385 400/400/400 401/401/401
f 240/240/240 239/239/239 402/402/402
f 240/240/240 402/402/402 403/403/403
f 403/403/403 402/402/402 404/404/404
f 403/403/403 404/404/404 405/405/405
f 402/402/402 406/406/406 407/407/407
f 402/402/402 407/407/407 404/404/404
f 239/239/239 242/242/242 406/406/406
f 239/239/239 406/406/406 402/402/402
f 242/242/242 246/246/246 408/408/408
f 242/242/242 408/408/408 406/406/406
f 406/406/406 408/408/408 409/409/409
f 406/406/406 409/409/409 407/407/407
f 408/408/408 410/410/410 411/411/411
f 408/408/408 411/411/411 409/409/409
f 246/246/246 248/248/248 410/410/410
f 246/246/246 410/410/410 408/408/408
f 255/255/255 254/254/254 412/412/412
f 255/255/255 412/412/412 413/413/413
f 413/413/413 412/412/412 414/414/414
f 413/413/413 414/414/414 415/415/415
f 412/412/412 416/416/416 417/417/417
f 412/412/412 417/417/417 414/414/414
f 254/254/254 257/257/257 416/416/416
f 254/254/254 416/416/416 412/412/412
f 257/257/257 261/261/261 418/418/418
f 257/257/257 418/418/418 416/416/416
f 416/416/416 418/418/418 419/419/419
f 416/416/416 419/419/419 417/417/417
f 418/418/418 420/420/420 421/421/421
f 418/418/418 421/421/421 419/419/419
f 261/261/261 263/263/263 420/420/420
f 261/261/261 420/420/420 418/418/418
f 270/270/270 269/269/269 422/422/422
f 270/270/270 422/422/422 423/423/423
f 423/423/423 422/422/422 424/424/424
f 423/423/423 424/424/424 425/425/425
f 422/422/422 413/413/413 415/415/415
f 422/422/422 415/415/415 424/424/424
f 269/269/269 255/255/255 413/413/413
f 269/269/269 413/413/413 422/422/422
f 276/276/276 275/275/275 426/426/426
f 276/276/276 426/426/426 427/427/427
f 427/427/427 426/426/426 428/428/428
f 427/427/427 428/428/428 429/429/429
f 426/426/426 423/423/423 425/425/425
f 426/426/426 425/425/425 428/428/428
f 275/275/275 270/270/270 423/423/423
f 275/275/275 423/423/423 426/426/426
f 263/263/263 279/279/279 430/430/430
f 263/263/263 430/430/430 420/420/420
f 420/420/420 430/430/430 431/431/431
f 420/420/420 431/431/431 421/421/421
f 430/430/430 403/403/403 405/405/405
f 430/430/430 405/405/405 431/431/431
f 279/279/279 240/240/240 403/403/403
f 279/279/279 403/403/403 430/430/430
f 276/276/276 427/427/427 432/432/432
f 276/276/276 432/432/432 282/282/282
f 282/282/282 432/432/432 410/410/410
f 282/282/282 410/410/410 248/248/248
f 432/432/432 433/433/433 411/411/411
f 432/432/432 411/411/411 410/410/410
f 427/427/427 429/429/429 433/433/433
f 427/427/427 433/433/433 432/432/432
f 41/41/41 434/434/434 435/435/435
f 41/41/41 435/435/435 38/38/38
f 38/38/38 435/435/435 436/436/436
f 38/38/38 436/436/436 39/39/39
f 435/435/435 110/110/110 76/76/76
f 435/435/435 76/76/76 436/436/436
f 434/434/434 30/30/30 110/110/110
f 434/434/434 110/110/110 435/435/435
f 23/23/23 437/437/437 438/438/438
f 23/23/23 438/438/438 21/21/21
f 21/21/21 438/438/438 439/439/439
f 21/21/21 439/439/439 17/17/17
f 438/438/438 108/108/108 102/102/102
f 438/438/438 102/102/102 439/439/439
f 437/437/437 100/100/100 108/108/108
f 437/437/437 108/108/108 438/438/438
f 17/17/17 439/439/439 440/440/440
f 17/17/17 440/440/440 14/14/14
f 14/14/14 440/440/440 441/441/441
f 14/14/14 441/441/441 15/15/15
f 440/440/440 105/105/105 91/91/91
f 440/440/440 91/91/91 441/441/441
f 439/439/439 102/102/102 105/105/105
f 439/439/439 105/105/105 440/440/440
f 60/60/60 442/442/442 443/443/443
f 60/60/60 443/443/443 66/66/66
f 66/66/66 443/443/443 437/437/437
f 66/66/66 437/437/437 23/23/23
f 443/443/443 98/98/98 100/100/100
f 443/443/443 100/100/100 437/437/437
f 442/442/442 88/88/88 98/98/98
f 442/442/442 98/98/98 443/443/443
f 15/15/15 441/441/441 444/444/444
f 15/15/15 444/444/444 63/63/63
f 63/63/63 444/444/444 445/445/445
f 63/63/63 445/445/445 47/47/47
f 444/444/444 94/94/94 25/25/25
f 444/444/444 25/25/25 445/445/445
f 441/441/441 91/91/91 94/94/94
f 441/441/441 94/94/94 444/444/444
f 54/54/54 446/446/446 447/447/447
f 54/54/54 447/447/447 59/59/59
f 59/59/59 447/447/447 442/442/442
f 59/59/59 442/442/442 60/60/60
f 447/447/447 86/86/86 88/88/88
f 447/447/447 88/88/88 442/442/442
f 446/446/446 81/81/81 86/86/86
f 446/446/446 86/86/86 447/447/447
f 39/39/39 436/436/436 448/448/448
f 39/39/39 448/448/448 53/53/53
f 53/53/53 448/448/448 446/446/446
f 53/53/53 446/446/446 54/54/54
f 448/448/448 79/79/79 81/81/81
f 448/448/448 81/81/81 446/446/446
f 436/436/436 76/76/76 79/79/79
f 436/436/436 79/79/79 448/448/448
f 47/47/47 445/445/445 449/449/449
f 47/47/47 449/449/449 45/45/45
f 45/45/45 449/449/449 434/434/434
f 45/45/45 434/434/434 41/41/41
f 449/449/449 28/28/28 30/30/30
f 449/449/449 30/30/30 434/434/434
f 445/445/445 25/25/25 28/28/28
f 445/445/445 28/28/28 449/449/449
f 405/405/405 404/404/404 450/450/450
f 405/405/405 450/450/450 451/451/451
f 451/451/451 450/450/450 233/233/233
f 451/451/451 233/233/233 214/214/214
f 450/450/450 452/452/452 229/229/229
f 450/450/450 229/229/229 233/233/233
f 404/404/404 407/407/407 452/452/452
f 404/404/404 452/452/452 450/450/450
f 407/407/407 409/409/409 453/453/453
f 407/407/407 453/453/453 452/452/452
f 452/452/452 453/453/453 230/230/230
f 452/452/452 230/230/230 229/229/229
f 453/453/453 454/454/454 208/208/208
f 453/453/453 208/208/208 230/230/230
f 409/409/409 411/411/411 454/454/454
f 409/409/409 454/454/454 453/453/453
f 415/415/415 414/414/414 455/455/455
f 415/415/415 455/455/455 456/456/456
f 456/456/456 455/455/455 227/227/227
f 456/456/456 227/227/227 222/222/222
f 455/455/455 457/457/457 223/223/223
f 455/455/455 223/223/223 227/227/227
f 414/414/414 417/417/417 457/457/457
f 414/414/414 457/457/457 455/455/455
f 417/417/417 419/419/419 458/458/458
f 417/417/417 458/458/458 457/457/457
f 457/457/457 458/458/458 224/224/224
f 457/457/457 224/224/224 223/223/223
f 458/458/458 459/459/459 209/209/209
f 458/458/458 209/209/209 224/224/224
f 419/419/419 421/421/421 459/459/459
f 419/419/419 459/459/459 458/458/458
f 425/425/425 424/424/424 460/460/460
f 425/425/425 460/460/460 461/461/461
f 461/461/461 460/460/460 219/219/219
f 461/461/461 219/219/219 218/218/218
f 460/460/460 456/456/456 222/222/222
f 460/460/460 222/222/222 219/219/219
f 424/424/424 415/415/415 456/456/456
f 424/424/424 456/456/456 460/460/460
f 429/429/429 428/428/428 462/462/462
f 429/429/429 462/462/462 463/463/463
f 463/463/463 462/462/462 215/215/215
f 463/463/463 215/215/215 203/203/203
f 462/462/462 461/461/461 218/218/218
f 462/462/462 218/218/218 215/215/215
f 428/428/428 425/425/425 461/461/461
f 428/428/428 461/461/461 462/462/462
f 421/421/421 431/431/431 464/464/464
f 421/421/421 464/464/464 459/459/459
f 459/459/459 464/464/464 210/210/210
f 459/459/459 210/210/210 209/209/209
f 464/464/464 451/451/451 214/214/214
f 464/464/464 214/214/214 210/210/210
f 431/431/431 405/405/405 451/451/451
f 431/431/431 451/451/451 464/464/464
f 429/429/429 463/463/463 465/465/465
f 429/429/429 465/465/465 433/433/433
f 433/433/433 465/465/465 454/454/454
f 433/433/433 454/454/454 411/411/411
f 465/465/465 206/206/206 208/208/208
f 465/465/465 208/208/208 454/454/454
f 463/463/463 203/203/203 206/206/206
f 463/463/463 206/206/206 465/465/465
