v -0.803068 0.689007 0.514888
v -0.803515 0.686978 0.510894
v -0.797544 0.687636 0.51058
v -0.798123 0.68956 0.514609
v -0.792421 0.690476 0.510635
v -0.79387 0.691916 0.514643
v -0.797634 0.68696 0.505673
v -0.791975 0.690079 0.505743
v -0.804217 0.686238 0.505994
v -0.812348 0.693598 0.51632
v -0.814787 0.692557 0.512584
v -0.809581 0.688736 0.511595
v -0.808068 0.690448 0.515488
v -0.810875 0.688165 0.506721
v -0.816563 0.692354 0.507756
v -0.817337 0.693464 0.501233
v -0.81186 0.689385 0.500298
v -0.805342 0.687521 0.499635
v -0.812946 0.691068 0.493416
v -0.806713 0.689321 0.492695
v -0.818055 0.694922 0.494354
v -0.798786 0.688236 0.499332
v -0.793102 0.691315 0.499394
v -0.80028 0.690006 0.492288
v -0.794636 0.692964 0.492248
v -0.788805 0.69504 0.511006
v -0.790869 0.695702 0.51495
v -0.787168 0.700581 0.511621
v -0.789513 0.700301 0.515469
v -0.787985 0.695104 0.506152
v -0.786189 0.701212 0.50682
v -0.789109 0.696307 0.499793
v -0.787343 0.7024 0.500454
v -0.790698 0.697814 0.492597
v -0.789013 0.703777 0.493271
v -0.790244 0.713114 0.508592
v -0.786954 0.707507 0.50766
v -0.788155 0.708694 0.501288
v -0.791435 0.714279 0.502193
v -0.789901 0.709962 0.494176
v -0.793135 0.715423 0.495164
v -0.792545 0.709246 0.51688
v -0.79008 0.705034 0.516133
v -0.787848 0.706286 0.5124
v -0.790831 0.711371 0.513273
v -0.79682 0.718312 0.503061
v -0.795764 0.717218 0.509527
v -0.803423 0.720215 0.503787
v -0.802582 0.719223 0.510349
v -0.798264 0.719286 0.496084
v -0.804475 0.721018 0.49682
v -0.795863 0.715105 0.514164
v -0.79669 0.712326 0.51764
v -0.802096 0.716944 0.514958
v -0.801823 0.713829 0.518309
v -0.808522 0.716508 0.515525
v -0.807126 0.713452 0.518776
v -0.814101 0.713895 0.515724
v -0.811738 0.711275 0.518931
v -0.809604 0.718715 0.510928
v -0.815702 0.715813 0.511119
v -0.810216 0.719612 0.504261
v -0.816138 0.716648 0.504372
v -0.810854 0.720298 0.49727
v -0.816443 0.717309 0.497353
v -0.820221 0.711704 0.504039
v -0.819858 0.710871 0.510808
v -0.821899 0.705572 0.503314
v -0.821491 0.704684 0.510044
v -0.82036 0.712452 0.497022
v -0.822065 0.706505 0.496332
v -0.817888 0.709417 0.515448
v -0.814873 0.707559 0.518695
v -0.819355 0.703795 0.51474
v -0.816094 0.702899 0.518107
v -0.818223 0.697867 0.513709
v -0.81517 0.697989 0.517255
v -0.820291 0.698176 0.508946
v -0.820852 0.699164 0.50231
v -0.821234 0.700353 0.495385
v -0.817704 0.718743 0.491906
v -0.821714 0.713693 0.491612
v -0.823532 0.707575 0.490855
v -0.823996 0.715422 0.486939
v -0.82596 0.708974 0.486051
v -0.819777 0.720784 0.487158
v -0.822813 0.701296 0.489739
v -0.819706 0.695791 0.488445
v -0.825298 0.702403 0.48461
v -0.822145 0.696679 0.482841
v -0.814583 0.691913 0.487167
v -0.808203 0.690164 0.486073
v -0.816867 0.692685 0.480999
v -0.810227 0.690928 0.479334
v -0.825403 0.69863 0.475772
v -0.820159 0.69465 0.473335
v -0.813549 0.693005 0.471088
v -0.826236 0.698989 0.460145
v -0.819786 0.697491 0.457456
v -0.831326 0.702884 0.463023
v -0.829064 0.711144 0.47983
v -0.828493 0.704428 0.478046
v -0.834237 0.708647 0.465649
v -0.834642 0.715385 0.467658
v -0.806517 0.693996 0.469374
v -0.803157 0.691715 0.478092
v -0.800227 0.697451 0.468463
v -0.796863 0.694925 0.477484
v -0.812944 0.698695 0.455387
v -0.806795 0.702371 0.454246
v -0.801475 0.690856 0.485317
v -0.795519 0.693868 0.48503
v -0.79578 0.702964 0.468547
v -0.792493 0.700212 0.477664
v -0.793813 0.709658 0.469593
v -0.790677 0.706737 0.478591
v -0.802355 0.708044 0.45425
v -0.800247 0.714809 0.45537
v -0.791395 0.698862 0.485302
v -0.78969 0.705043 0.486082
v -0.79529 0.719441 0.482006
v -0.791738 0.713513 0.480134
v -0.794676 0.716523 0.47146
v -0.798057 0.72247 0.473816
v -0.800849 0.721647 0.457457
v -0.803941 0.727502 0.460153
v -0.790714 0.711479 0.487258
v -0.794126 0.71714 0.488611
v -0.803409 0.726505 0.476282
v -0.800721 0.723512 0.483887
v -0.809909 0.728094 0.478497
v -0.807215 0.725193 0.485514
v -0.809067 0.731416 0.46304
v -0.81542 0.732865 0.465687
v -0.799365 0.721077 0.489911
v -0.805632 0.722765 0.490983
v -0.81665 0.726954 0.480129
v -0.813885 0.724201 0.486653
v -0.82265 0.72335 0.48096
v -0.822085 0.731571 0.46769
v -0.828073 0.727814 0.468771
v -0.812055 0.721914 0.491678
v -0.826987 0.717782 0.480845
v -0.832456 0.722112 0.468746
v -0.837504 0.73534 0.44706
v -0.841917 0.729503 0.447072
v -0.844235 0.722699 0.445991
v -0.85387 0.738862 0.418721
v -0.856276 0.732008 0.41769
v -0.849457 0.744792 0.418711
v -0.825008 0.740699 0.443777
v -0.831566 0.739255 0.445898
v -0.843584 0.748817 0.417592
v -0.83712 0.750361 0.415527
v -0.844067 0.715963 0.443966
v -0.84139 0.710246 0.441266
v -0.856279 0.725277 0.415764
v -0.853766 0.719589 0.413157
v -0.868612 0.741726 0.387261
v -0.868599 0.734961 0.385442
v -0.866073 0.729243 0.382954
v -0.879729 0.743268 0.357721
v -0.87702 0.737317 0.355356
v -0.879855 0.750299 0.35938
v -0.861822 0.754571 0.38826
v -0.866215 0.748611 0.388242
v -0.877444 0.757411 0.360301
v -0.872939 0.763538 0.360403
v -0.861199 0.725414 0.380043
v -0.848887 0.715768 0.410156
v -0.854913 0.724066 0.377206
v -0.842535 0.714385 0.407266
v -0.871966 0.733353 0.352398
v -0.865552 0.732001 0.349347
v -0.836431 0.706404 0.438228
v -0.830046 0.704985 0.435342
v -0.848314 0.725561 0.374965
v -0.835787 0.715792 0.405005
v -0.842367 0.729577 0.37368
v -0.829692 0.719711 0.403722
v -0.858903 0.733627 0.346783
v -0.852928 0.737845 0.345213
v -0.823257 0.706315 0.433099
v -0.817133 0.710138 0.431837
v -0.837941 0.735526 0.373602
v -0.82521 0.725607 0.403658
v -0.835637 0.742451 0.37471
v -0.822956 0.732535 0.404786
v -0.848436 0.743999 0.345031
v -0.846034 0.751095 0.346245
v -0.812661 0.715946 0.431794
v -0.810462 0.722809 0.432937
v -0.826138 0.745281 0.409766
v -0.823321 0.739445 0.406952
v -0.83587 0.749312 0.376853
v -0.838571 0.755101 0.379642
v -0.846172 0.758079 0.348682
v -0.848878 0.763976 0.351819
v -0.81092 0.729689 0.435116
v -0.813843 0.735527 0.437946
v -0.843418 0.758912 0.382619
v -0.831003 0.749093 0.412777
v -0.84955 0.760189 0.385299
v -0.853899 0.767902 0.355053
v -0.860282 0.769259 0.357802
v -0.818801 0.739369 0.440985
v -0.85599 0.758629 0.387246
v -0.86694 0.76769 0.359597
v -0.875023 0.775118 0.338573
v -0.881515 0.770733 0.339012
v -0.880238 0.77986 0.324604
v -0.887262 0.775467 0.324483
v -0.867809 0.776731 0.336981
v -0.872461 0.781376 0.323376
v -0.860899 0.775247 0.333932
v -0.865144 0.77978 0.320004
v -0.855468 0.771048 0.329944
v -0.859434 0.775431 0.315067
v -0.883017 0.781262 0.316848
v -0.890278 0.7774 0.316004
v -0.884116 0.780415 0.312862
v -0.891192 0.777333 0.311379
v -0.875045 0.78239 0.316197
v -0.876421 0.781084 0.31274
v -0.86783 0.780768 0.312688
v -0.869757 0.779548 0.309162
v -0.862325 0.776654 0.306967
v -0.864838 0.775949 0.302945
v -0.884194 0.778641 0.310592
v -0.890648 0.776194 0.308837
v -0.883199 0.776426 0.311116
v -0.888826 0.77429 0.309661
v -0.877224 0.779035 0.31065
v -0.877138 0.776796 0.310877
v -0.871372 0.7777 0.306934
v -0.872086 0.775699 0.307052
v -0.86719 0.774696 0.30057
v -0.868542 0.773172 0.300949
v -0.875239 0.771425 0.316097
v -0.878679 0.769535 0.317363
v -0.881109 0.773764 0.314936
v -0.876017 0.774399 0.313994
v -0.885914 0.771737 0.314314
v -0.882925 0.768929 0.317421
v -0.8692 0.768899 0.308956
v -0.872137 0.7695 0.313506
v -0.871656 0.773424 0.310356
v -0.868523 0.771273 0.304962
v -0.877988 0.751961 0.307765
v -0.880493 0.753397 0.312349
v -0.876017 0.761196 0.313667
v -0.874679 0.753943 0.305678
v -0.871602 0.755495 0.30139
v -0.86996 0.75899 0.302786
v -0.867961 0.76251 0.301893
v -0.86877 0.765331 0.306478
v -0.884126 0.765072 0.317375
v -0.886565 0.761916 0.316883
v -0.884588 0.758151 0.316498
v -0.884029 0.754492 0.314839
v -0.867018 0.76775 0.299765
v -0.86702 0.763548 0.295631
v -0.866728 0.769291 0.294606
v -0.866716 0.76454 0.289754
v -0.868658 0.759069 0.294169
v -0.871452 0.755008 0.295004
v -0.868468 0.759538 0.287786
v -0.871655 0.755026 0.289045
v -0.862097 0.770532 0.295738
v -0.864938 0.770135 0.293524
v -0.864772 0.764603 0.287942
v -0.861794 0.764028 0.289866
v -0.864016 0.757315 0.287424
v -0.866726 0.758836 0.285662
v -0.870438 0.753687 0.287122
v -0.868355 0.751388 0.288911
v -0.856296 0.768919 0.30961
v -0.859254 0.770485 0.300365
v -0.85893 0.763127 0.294956
v -0.856039 0.761183 0.305185
v -0.858681 0.75328 0.303212
v -0.861426 0.755583 0.29264
v -0.866279 0.74897 0.293881
v -0.863724 0.746379 0.304055
v -0.852537 0.764767 0.325801
v -0.852371 0.757323 0.322507
v -0.854936 0.749733 0.32096
v -0.859746 0.743121 0.321416
v -0.870479 0.741594 0.307539
v -0.872818 0.744355 0.298404
v -0.874207 0.747203 0.294004
v -0.880067 0.742474 0.30441
v -0.880678 0.745432 0.300687
v -0.877987 0.739688 0.312363
v -0.866148 0.738555 0.323796
v -0.873274 0.736761 0.327324
v -0.885203 0.741138 0.317064
v -0.887012 0.743816 0.309898
v -0.886883 0.746557 0.306692
v -0.892788 0.748214 0.313586
v -0.892261 0.750571 0.310419
v -0.891015 0.745636 0.320636
v -0.880155 0.738181 0.331092
v -0.885624 0.742451 0.334346
v -0.875396 0.749986 0.292039
v -0.875842 0.75173 0.293328
v -0.88087 0.748338 0.298638
v -0.880463 0.7502 0.299288
v -0.886162 0.749206 0.304816
v -0.884975 0.750865 0.305224
v -0.890904 0.752682 0.308654
v -0.88906 0.753829 0.309148
v -0.875143 0.752091 0.298649
v -0.879222 0.750652 0.303502
v -0.883147 0.751282 0.308749
v -0.886717 0.753785 0.31245
v -0.889235 0.758112 0.313742
v -0.890346 0.763199 0.313659
v -0.892313 0.758869 0.309777
v -0.893765 0.764778 0.308932
v -0.889043 0.767942 0.313818
v -0.892553 0.770213 0.308766
v -0.896226 0.75709 0.311073
v -0.894653 0.758496 0.309051
v -0.896315 0.765279 0.307999
v -0.897754 0.764695 0.310408
v -0.89599 0.771821 0.310399
v -0.894922 0.771516 0.307794
v -0.894422 0.752539 0.322503
v -0.896581 0.755135 0.314841
v -0.897628 0.763245 0.314915
v -0.894948 0.760664 0.323344
v -0.892407 0.768713 0.323974
v -0.895403 0.771071 0.315231
v -0.888642 0.748911 0.336554
v -0.888893 0.756533 0.337917
v -0.886359 0.76419 0.33874
vt 0.08333 0.9167
vt 0.08055 0.08051
vt 1.002 0.5001
vt 0.009253 0.2593
vt 0.008306 0.2585
vt 0.08312 0.9168
vt -0.00142 0.5001
vt -4.146e-05 0.5
vt 0.01042 0.7396
vt 0.01029 0.7397
vt 0.7409 0.9908
vt 1.001 0.5
vt 0.008306 0.2585
vt -0.0007514 0.5
vt 0.01029 0.7397
vt 0.5 -2.718e-05
vt 0.9907 0.7406
vt 0.08174 0.08175
vt 0.2603 0.01033
vt 0.01042 0.7396
vt 0.2603 0.9897
vt 0.9919 0.7416
vt 0.009253 0.2593
vt 0.7419 0.9918
vt 0 0.5
vt 0.9919 0.7416
vt 0.9184 0.9183
vt 0.2593 0.009268
vt -0.0002539 0.5
vt 0.5 -0.0002342
vt 0.01029 0.7397
vt 0.9907 0.7406
vt 0.2599 0.01
vt 0.9198 0.9196
vt 0.009943 0.74
vt -4.146e-05 0.5
vt 0.5001 -0.0007417
vt 0.9182 0.9181
vt 0.5001 -0.0007417
vt 0.5001 1.001
vt 0.08312 0.9168
vt 0.08264 0.9173
vt 0.5003 1.001
vt 0.9198 0.9196
vt 0.2593 0.009268
vt 0.9907 0.7406
vt 0.2586 0.008291
vt 0.2593 0.009268
vt 0.009943 0.74
vt 0.7409 0.9908
vt 0.5 1
vt 0.9896 0.7396
vt 0.7419 0.9918
vt 0.5002 -0.001429
vt 0.01029 0.7397
vt 0.9167 0.9167
vt 0.5001 1.001
vt 0.2586 0.008291
vt 0.2604 0.9896
vt 0.08174 0.08175
vt 0.5 1
vt 0.9182 0.9181
vt 0.08055 0.08051
vt 0.5001 1
vt 0.2603 0.9897
vt 1.001 0.5
vt 0.2599 0.01
vt 0.08174 0.08175
vt 0.2604 0.9896
vt 0.2604 0.01042
vt 0.08312 0.9168
vt 1 0.5
vt 0.7409 0.9908
vt 0.08266 0.0827
vt 0.2603 0.9897
vt 0.9896 0.7396
vt 0.7401 0.99
vt 0.2593 0.009268
vt 0.9907 0.7406
vt 0.2603 0.01033
vt 0.7418 0.008259
vt 0.9198 0.9196
vt 0.5 -1.192e-07
vt 0.9198 0.08047
vt 0.08333 0.9167
vt 0.2594 0.9908
vt 0.9182 0.9181
vt 0.5 -2.718e-05
vt 0.2603 0.01033
vt 0.26 0.99
vt 0.7407 0.9907
vt 0.2599 0.01
vt 0.5 -0.0002342
vt 0.08312 0.9168
vt 0.2599 0.01
vt 0.7419 0.9918
vt 0.08313 0.08316
vt 0.7401 0.99
vt 0.5 1
vt 0.08264 0.9173
vt 0.5 -1.192e-07
vt 0.7419 0.9918
vt 0.7408 0.009228
vt 0.2594 0.9908
vt 0.7407 0.9907
vt 0.08266 0.0827
vt 0.2604 0.01042
vt 0.5001 1
vt 0.7409 0.9908
vt 0.26 0.99
vt 0.5001 1.001
vt 0.08313 0.08316
vt 0.5003 1.001
vt 0.08333 0.08333
vt 0.2603 0.01033
vt 0.2603 0.9897
vt 0.9184 0.9183
vt 0.5001 1
vt 0.7407 0.9907
vt 0.5 -0.0002342
vt 0.5001 1.001
vt 0.5001 -0.0007417
vt 0.7396 0.9896
vt 0.7408 0.009228
vt 0.9174 0.9173
vt 0.2594 0.9908
vt 0.5 1
vt 0.7401 0.009963
vt 0.5001 1.001
vt 0.7401 0.009963
vt 0.7408 0.009228
vt 0.26 0.99
vt 0.7397 0.9897
vt 0.26 0.99
vt 0.9182 0.9181
vt 0.9174 0.08266
vt 0.9167 0.9167
vt 0.9184 0.0817
vt 0.7408 0.009228
vt 0.5002 -0.001429
vt 0.08172 0.9183
vt 0.7396 0.9896
vt 0.7407 0.9907
vt 0.5001 -0.0007417
vt 0.9184 0.0817
vt 0.5003 1.001
vt 0.7418 0.008259
vt 0.7396 0.01042
vt 0.2586 0.9918
vt 0.08264 0.9173
vt 0.9897 0.2603
vt 0.5001 1.001
vt 0.9896 0.2604
vt 0.009222 0.7407
vt 0.2595 0.9907
vt 0.7397 0.01031
vt 0.7397 0.01031
vt 0.08172 0.9183
vt 0.5 -2.73e-05
vt 0.2586 0.9918
vt 0.7396 0.01042
vt 0.7401 0.99
vt 0.5001 1.001
vt 0.08053 0.9196
vt 0.7401 0.99
vt 0.2586 0.9918
vt 0.7397 0.9897
vt -0.0002539 0.5
vt 0.2595 0.9907
vt 0.9169 0.08314
vt 0.9167 0.08333
vt 0.5003 1.001
vt 0.9174 0.9173
vt 0.2586 0.9918
vt 0.08193 0.9182
vt 0.7401 0.009963
vt 0.08053 0.9196
vt 0.7397 0.01031
vt 0.9174 0.08266
vt 0.2594 0.9908
vt 0.9169 0.9168
vt 0.08264 0.9173
vt 0.2595 0.9907
vt 0.5 -2.73e-05
vt 0.2604 0.9896
vt 0.9169 0.08314
vt 0.5 -0.0002342
vt 0.08172 0.9183
vt 0.5 1
vt 0.009222 0.7407
vt 0.08333 0.9167
vt 0.7401 0.009963
vt 0.009943 0.74
vt 0.7397 0.01031
vt 0.08193 0.9182
vt 0.9167 0.08333
vt 0.5001 1
vt 0.009943 0.74
vt 0.5001 1.001
vt 0.9169 0.08314
vt 0.5 1
vt 0.9897 0.2603
vt 0.9896 0.2604
vt 1 0.5
vt -0.0007514 0.5
vt 0.2604 0.9896
vt 0.2595 0.9907
vt 1 0.5
vt 0.5 1
vt 0.5 1
vt 0.9901 0.2599
vt 0.008279 0.7416
vt 0.9897 0.2603
vt 0.009222 0.7407
vt 0.5 1
vt 1 0.5
vt 0.5 1
vt -0.00142 0.5001
vt 0.2604 0.9896
vt 0.7397 0.9897
vt 0.9169 0.08314
vt 0.08172 0.9183
vt 1 0.5
vt -0.0007514 0.5
vt 0.2604 0.9896
vt 0.9174 0.08266
vt 0.7396 0.9896
vt 0.08053 0.9196
vt 0.2604 0.9896
vt 0.7396 0.9896
vt 0.9897 0.2603
vt 0.009222 0.7407
vt 0.9901 0.2599
vt 0.008279 0.7416
vt 0.2604 0.9896
vt 0.9174 0.08266
vt 0.7397 0.9897
vt 0 0.5
vt -4.146e-05 0.5
vt 0.9909 0.2593
vt 0.08333 0.9167
vt 0.9184 0.0817
vt 0.9169 0.9168
vt 0.01031 0.2603
vt 0.01042 0.2604
vt 0.9901 0.2599
vt 0.08333 0.9167
vt 0.9909 0.2593
vt 0.009253 0.2593
vt 0.9919 0.7416
vt 0.2604 0.9896
vt 1.002 0.5001
vt 0.01031 0.2603
vt 1.001 0.5
vt 0.01042 0.2604
vt 0.9901 0.2599
vt 1 0.5
vt 0.009971 0.26
vt 0.9908 0.7408
vt 0.009971 0.26
vt 0.2604 0.9896
vt 1 0.5
vt 0.9909 0.2593
vt 0.08313 0.08316
vt 0.08333 0.9167
vt 0.9167 0.9167
vt 0.9919 0.2585
vt 0.08333 0.08333
vt 1.001 0.5
vt 0.08333 0.9167
vt 1.002 0.5001
vt 0.01031 0.2603
vt 0.9184 0.0817
vt 0.5 1
vt 0.9897 0.7397
vt 0.009971 0.26
vt 0.9919 0.2585
vt 0.5 1
vt 0.9198 0.08047
vt 0.08266 0.0827
vt 0.9909 0.2593
vt 0.2604 0.9896
vt 0.9901 0.7401
vt 0.08313 0.08316
vt 0.2604 0.9896
vt 1 0.5
vt 0.9167 0.9167
vt 0.9908 0.7408
vt 1.001 0.5
vt 0.9167 0.9167
vt 0.9174 0.9173
vt 0.9184 0.9183
vt 0.009971 0.26
vt -4.146e-05 0.5
vt 0.7396 0.9896
vt 0.9908 0.7408
vt 0.9901 0.7401
vt 0.7396 0.9896
vt 0.9908 0.7408
vt 1 0.5
vt 0.01031 0.2603
vt -0.0002539 0.5
vt 0.7396 0.9896
vt 0.9901 0.7401
vt 0.7396 0.9896
vt 0.9198 0.9196
vt 0.9919 0.7416
vt -0.0002539 0.5
vt 0.5 1
vt 0.9184 0.9183
vt 1 0.5
vt -0.0007514 0.5
vt 0.5 1
vt 1.001 0.5
vt 0.7396 0.9896
vt 1 0.5
vt 0.7396 0.9896
vt 0.9897 0.7397
vt 0.9896 0.7396
vt 0.009253 0.2593
vt 0.5 1
vt 0.9896 0.7396
vt 0.9169 0.9168
vt 0.5 1
vt 0.9897 0.7397
vt 0.08174 0.08175
vt 0.9167 0.9167
vt 0.9167 0.9167
vt 0.9901 0.7401
vt 0.9167 0.9167
vt 0.9897 0.7397
vt 0.08266 0.0827
vt 0.9174 0.9173
vt 0.7396 0.9896
vt 0.7396 0.9896
vt 0.9169 0.9168
vt 0.08333 0.9167
vn -0.03882 -0.8892 0.4559
vn -0.05246 -0.9516 0.3027
vn 0.2997 -0.9118 0.2806
vn 0.2799 -0.8504 0.4454
vn 0.6134 -0.7379 0.2815
vn 0.5635 -0.6916 0.4518
vn 0.3029 -0.9511 -0.05942
vn 0.6464 -0.7597 -0.07074
vn -0.08185 -0.9965 -0.01395
vn -0.5442 -0.6455 0.5359
vn -0.618 -0.6749 0.4031
vn -0.3705 -0.8626 0.3445
vn -0.3247 -0.8123 0.4844
vn -0.4328 -0.9 0.05194
vn -0.7122 -0.6916 0.1199
vn -0.7409 -0.6698 -0.04877
vn -0.4517 -0.8834 -0.124
vn -0.09775 -0.974 -0.2042
vn -0.4477 -0.8909 -0.07672
vn -0.09638 -0.9814 -0.1663
vn -0.7402 -0.6721 0.01782
vn 0.2813 -0.9233 -0.2614
vn 0.6224 -0.7315 -0.2785
vn 0.2745 -0.9351 -0.2242
vn 0.6189 -0.7481 -0.2394
vn 0.8332 -0.4622 0.3034
vn 0.762 -0.4425 0.4729
vn 0.9312 -0.1227 0.3433
vn 0.8506 -0.1353 0.508
vn 0.8884 -0.4563 -0.05042
vn 0.9965 -0.08295 -0.003723
vn 0.8671 -0.4252 -0.2593
vn 0.9761 -0.04822 -0.2118
vn 0.8742 -0.4336 -0.2185
vn 0.9843 -0.04328 -0.1708
vn 0.7535 0.6405 0.148
vn 0.9493 0.3075 0.0654
vn 0.9303 0.3401 -0.1371
vn 0.741 0.6702 -0.04141
vn 0.9333 0.3453 -0.09836
vn 0.7451 0.6669 -0.002686
vn 0.655 0.4725 0.5896
vn 0.8135 0.1906 0.5494
vn 0.8881 0.235 0.3949
vn 0.7098 0.5422 0.4497
vn 0.4513 0.8909 0.0513
vn 0.4628 0.8576 0.2243
vn 0.1056 0.9879 0.1134
vn 0.128 0.9517 0.2789
vn 0.4556 0.8845 0.09967
vn 0.1021 0.9783 0.1804
vn 0.447 0.7418 0.5
vn 0.422 0.6558 0.626
vn 0.148 0.8246 0.546
vn 0.1564 0.7292 0.6662
vn -0.1715 0.792 0.586
vn -0.1273 0.6947 0.7079
vn -0.4883 0.6252 0.6088
vn -0.4087 0.5363 0.7384
vn -0.2321 0.9227 0.3077
vn -0.588 0.747 0.3103
vn -0.2654 0.9546 0.1347
vn -0.6203 0.7749 0.1215
vn -0.2738 0.9361 0.2205
vn -0.6215 0.7517 0.2206
vn -0.8872 0.4525 0.08963
vn -0.8613 0.4198 0.286
vn -0.9976 0.0466 0.05167
vn -0.9706 0.007538 0.2404
vn -0.8777 0.438 0.1944
vn -0.9871 0.04642 0.1529
vn -0.7344 0.3236 0.5966
vn -0.631 0.2571 0.732
vn -0.8362 -0.05029 0.546
vn -0.7273 -0.08414 0.6811
vn -0.7838 -0.4014 0.4739
vn -0.6876 -0.4003 0.6057
vn -0.9047 -0.3846 0.183
vn -0.9366 -0.3502 0.008515
vn -0.9333 -0.346 0.09595
vn -0.5821 0.6893 0.4312
vn -0.8214 0.3881 0.418
vn -0.9314 0.02002 0.3633
vn -0.7785 0.358 0.5155
vn -0.8936 0.004608 0.4487
vn -0.5491 0.6532 0.5213
vn -0.8941 -0.3566 0.2708
vn -0.7167 -0.6812 0.1493
vn -0.8729 -0.3618 0.3273
vn -0.71 -0.6839 0.1681
vn -0.4318 -0.9018 0.01819
vn -0.08875 -0.9916 -0.09409
vn -0.4324 -0.9017 0.0002136
vn -0.09586 -0.9846 -0.1458
vn -0.7239 -0.678 0.1277
vn -0.4478 -0.8919 -0.06229
vn -0.1128 -0.9658 -0.2333
vn -0.4565 -0.8856 -0.08478
vn -0.118 -0.9567 -0.2661
vn -0.734 -0.6695 0.1142
vn -0.9006 0.01157 0.4345
vn -0.8838 -0.3558 0.3039
vn -0.8929 -0.3418 0.2929
vn -0.9077 0.02618 0.4188
vn 0.2322 -0.9007 -0.3671
vn 0.2548 -0.933 -0.2542
vn 0.5556 -0.7004 -0.448
vn 0.592 -0.7421 -0.3141
vn 0.2299 -0.8844 -0.4061
vn 0.5472 -0.6805 -0.4873
vn 0.2715 -0.9478 -0.1674
vn 0.6161 -0.7631 -0.1951
vn 0.8065 -0.3813 -0.4518
vn 0.8539 -0.4183 -0.3095
vn 0.9294 0.0001831 -0.369
vn 0.9716 -0.02271 -0.2355
vn 0.7884 -0.3699 -0.4914
vn 0.9109 -0.001373 -0.4127
vn 0.8791 -0.442 -0.1784
vn 0.9916 -0.04331 -0.122
vn 0.755 0.6544 0.04016
vn 0.9285 0.3542 -0.111
vn 0.9033 0.3676 -0.221
vn 0.7436 0.6674 -0.04096
vn 0.893 0.3627 -0.2665
vn 0.7385 0.6694 -0.08051
vn 0.9391 0.3418 -0.03485
vn 0.7549 0.6513 0.07685
vn 0.4716 0.8694 0.1472
vn 0.4766 0.8556 0.2021
vn 0.1245 0.9399 0.3179
vn 0.1273 0.927 0.3528
vn 0.4656 0.8771 0.1176
vn 0.1155 0.9483 0.2954
vn 0.469 0.8596 0.2026
vn 0.1156 0.9409 0.3183
vn -0.2363 0.8644 0.4438
vn -0.234 0.8538 0.4649
vn -0.5521 0.6614 0.5076
vn -0.2472 0.8717 0.4231
vn -0.5625 0.6687 0.4861
vn -0.2533 0.8816 0.3981
vn -0.7827 0.365 0.504
vn -0.7909 0.375 0.4835
vn -0.5744 0.6676 0.4736
vn -0.795 0.3824 0.4707
vn -0.9101 0.04669 0.4117
vn -0.8 0.3881 0.4575
vn -0.9135 0.06601 0.4013
vn -0.5881 0.6643 0.4613
vn 0.1031 0.9522 0.2875
vn -0.2635 0.8713 0.4139
vn -0.2826 0.8696 0.4049
vn 0.08951 0.9557 0.2805
vn -0.9014 -0.3195 0.2921
vn -0.7436 -0.659 0.1134
vn -0.9111 -0.2973 0.2854
vn -0.7541 -0.6478 0.1078
vn -0.9163 0.07395 0.3937
vn -0.9155 -0.2883 0.2806
vn -0.7572 -0.6442 0.1073
vn -0.9112 -0.2901 0.2925
vn -0.7495 -0.6495 0.1276
vn -0.914 0.07346 0.399
vn -0.5989 0.66 0.4536
vn -0.8045 0.3894 0.4485
vn -0.8051 0.3861 0.4503
vn -0.6046 0.6523 0.4571
vn -0.4595 -0.884 -0.08512
vn -0.4625 -0.8819 -0.09146
vn -0.09488 -0.9623 -0.2547
vn -0.1073 -0.9572 -0.2688
vn -0.4479 -0.8924 -0.05573
vn -0.07822 -0.9735 -0.2146
vn -0.46 -0.8835 -0.08826
vn -0.1144 -0.9559 -0.2704
vn 0.2742 -0.8839 -0.3789
vn 0.2533 -0.8803 -0.401
vn 0.5871 -0.6783 -0.4418
vn 0.5671 -0.6753 -0.4715
vn 0.2968 -0.8974 -0.3264
vn 0.6129 -0.6938 -0.378
vn 0.2394 -0.881 -0.408
vn 0.555 -0.6766 -0.4839
vn 0.8098 -0.3873 -0.4406
vn 0.7961 -0.3779 -0.4726
vn 0.9251 -0.04373 -0.3771
vn 0.9143 -0.02683 -0.4041
vn 0.8348 -0.4048 -0.373
vn 0.9469 -0.06137 -0.3156
vn 0.7901 -0.3729 -0.4864
vn 0.9104 -0.0134 -0.4134
vn 0.7461 0.6589 -0.09568
vn 0.9015 0.3356 -0.2733
vn 0.9125 0.3198 -0.2549
vn 0.7537 0.6517 -0.08512
vn 0.9295 0.3057 -0.2062
vn 0.7653 0.6417 -0.05023
vn 0.8954 0.3497 -0.2753
vn 0.7414 0.6646 -0.09238
vn 0.4602 0.8815 0.1051
vn 0.4591 0.8825 0.1016
vn 0.08274 0.9565 0.2796
vn 0.4689 0.8739 0.128
vn 0.08527 0.9517 0.2949
vn 0.4622 0.8802 0.1076
vn -0.2961 0.8669 0.401
vn -0.3023 0.8603 0.4104
vn -0.3068 0.8577 0.4126
vn -0.6092 0.6478 0.4573
vn -0.3132 0.8858 0.3423
vn -0.6181 0.6699 0.4114
vn 0.08844 0.9496 0.3008
vn 0.07172 0.9736 0.2168
vn 0.4754 0.8683 0.1417
vn 0.4421 0.8946 0.06464
vn 0.7706 0.637 -0.02036
vn 0.7323 0.677 -0.07361
vn -0.3101 0.9469 0.08506
vn -0.6253 0.7472 0.2251
vn -0.2411 0.9106 -0.3356
vn -0.5623 0.804 -0.1933
vn 0.005982 0.9982 -0.0596
vn -0.07932 0.8941 -0.4407
vn 0.2929 0.9388 -0.1812
vn 0.02887 0.8878 -0.4593
vn 0.5642 0.782 -0.2647
vn 0.2538 0.8512 -0.4593
vn -0.005005 0.4481 -0.8939
vn -0.1485 0.4635 -0.8735
vn 0.1983 -0.4555 -0.8679
vn 0.4303 -0.3013 -0.8509
vn -0.2119 0.4518 -0.8666
vn -0.3082 -0.5017 -0.8083
vn -0.396 0.5998 -0.6953
vn -0.7653 -0.2432 -0.596
vn -0.296 0.7406 -0.6033
vn -0.9014 0.08069 -0.4254
vn -0.4474 -0.2636 -0.8545
vn -0.1873 -0.1092 -0.9762
vn 0.1353 -0.6536 -0.7446
vn -0.3251 -0.6816 -0.6555
vn 0.4606 -0.4843 -0.7438
vn 0.1813 -0.1816 -0.9665
vn -0.8926 -0.01212 -0.4507
vn -0.7384 -0.03073 -0.6737
vn -0.7173 -0.5419 -0.438
vn -0.921 -0.2934 -0.256
vn -0.4747 0.7918 -0.3843
vn -0.3544 0.7037 -0.6157
vn -0.5709 0.351 -0.7422
vn -0.6801 0.6391 -0.359
vn -0.765 0.6052 -0.22
vn -0.8284 0.4534 -0.329
vn -0.9202 0.305 -0.2455
vn -0.8889 0.2335 -0.3941
vn 0.1137 0.01666 -0.9934
vn 0.3167 0.07425 -0.9456
vn 0.04648 0.3333 -0.9416
vn 0.01611 0.6222 -0.7827
vn -0.9886 -0.05033 -0.1422
vn -0.9721 0.2235 -0.07077
vn -0.8769 0.3114 -0.366
vn -0.8144 0.4353 -0.3837
vn -0.8857 0.4629 -0.03543
vn -0.7377 0.6744 -0.03046
vn -0.7971 0.4433 -0.4099
vn -0.8031 0.459 -0.3799
vn 0.5445 0.6616 -0.5155
vn -0.09909 0.7366 -0.669
vn 0.02271 0.5122 -0.8585
vn 0.7264 0.2602 -0.6361
vn 0.6259 -0.2689 -0.732
vn -0.07025 0.111 -0.9913
vn -0.3498 -0.2098 -0.913
vn 0.2489 -0.6636 -0.7054
vn 0.9177 0.3534 -0.1812
vn 0.8032 0.4955 -0.3307
vn 0.9181 0.07358 -0.3893
vn 0.9666 -0.03577 -0.2537
vn 0.8567 -0.4217 -0.2969
vn 0.8137 -0.3888 -0.432
vn 0.495 -0.741 -0.4538
vn 0.6022 -0.7339 -0.3142
vn 0.9398 0.3041 -0.1559
vn 0.9663 -0.06772 -0.2484
vn 0.8563 -0.4213 -0.2989
vn 0.627 -0.7152 -0.3088
vn 0.2526 -0.9218 -0.2942
vn 0.08206 -0.8921 -0.4442
vn -0.1888 -0.7576 -0.6248
vn -0.2904 -0.8666 -0.4057
vn -0.5124 -0.6341 -0.5791
vn -0.1219 -0.967 -0.2238
vn 0.3033 -0.9134 -0.2712
vn -0.07114 -0.9816 -0.1769
vn -0.4724 -0.8755 -0.1018
vn -0.5757 -0.7469 -0.3326
vn -0.6681 -0.4715 -0.5755
vn -0.7967 -0.5684 -0.2053
vn -0.7326 -0.3923 -0.5562
vn -0.762 -0.6445 0.06235
vn -0.4384 -0.8982 -0.03244
vn -0.7423 -0.6549 0.1418
vn -0.6138 -0.2616 -0.7448
vn -0.7379 0.5833 -0.3395
vn -0.7338 -0.1082 -0.6706
vn -0.5538 0.7481 -0.3655
vn -0.6668 0.06748 -0.7422
vn -0.1929 0.8438 -0.5008
vn -0.4233 0.01959 -0.9058
vn 0.2932 0.6421 -0.7082
vn -0.5148 0.8551 -0.06116
vn -0.2647 0.9535 -0.1441
vn 0.07007 0.9502 -0.3036
vn 0.4208 0.7372 -0.5286
vn 0.6646 0.3588 -0.6554
vn 0.7109 -0.007538 -0.7032
vn 0.5457 0.206 -0.8122
vn 0.5485 -0.07694 -0.8325
vn 0.6352 -0.2736 -0.7223
vn 0.5032 -0.1969 -0.8414
vn -0.8486 -0.2862 -0.4449
vn -0.3005 -0.1461 -0.9425
vn -0.4036 -0.03787 -0.9142
vn -0.9638 0.02002 -0.2657
vn -0.8737 0.4637 -0.1468
vn -0.3737 0.2639 -0.8892
vn -0.9264 -0.2978 0.2303
vn -0.9524 -0.3032 -0.03265
vn -0.9857 0.05322 0.1601
vn -0.9318 0.07022 0.356
vn -0.8199 0.3931 0.4162
vn -0.8642 0.4272 0.2657
vn -0.9077 -0.2927 0.3006
vn -0.9124 0.07297 0.4026
vn -0.8057 0.384 0.451
f 1/1/1 2/2/2 3/3/3
f 1/1/1 3/3/3 4/4/4
f 4/4/4 3/3/3 5/5/5
f 4/4/4 5/5/5 6/6/6
f 3/3/3 7/7/7 8/8/8
f 3/3/3 8/8/8 5/5/5
f 2/2/2 9/9/9 7/7/7
f 2/2/2 7/7/7 3/3/3
f 10/10/10 11/11/11 12/12/12
f 10/10/10 12/12/12 13/13/13
f 13/13/13 12/12/12 2/2/2
f 13/13/13 2/2/2 1/1/1
f 12/12/12 14/14/14 9/9/9
f 12/12/12 9/9/9 2/2/2
f 11/11/11 15/15/15 14/14/14
f 11/11/11 14/14/14 12/12/12
f 15/15/15 16/16/16 17/17/17
f 15/15/15 17/17/17 14/14/14
f 14/14/14 17/17/17 18/18/18
f 14/14/14 18/18/18 9/9/9
f 17/17/17 19/19/19 20/20/20
f 17/17/17 20/20/20 18/18/18
f 16/16/16 21/21/21 19/19/19
f 16/16/16 19/19/19 17/17/17
f 9/9/9 18/18/18 22/22/22
f 9/9/9 22/22/22 7/7/7
f 7/7/7 22/22/22 23/23/23
f 7/7/7 23/23/23 8/8/8
f 22/22/22 24/24/24 25/25/25
f 22/22/22 25/25/25 23/23/23
f 18/18/18 20/20/20 24/24/24
f 18/18/18 24/24/24 22/22/22
f 6/6/6 5/5/5 26/26/26
f 6/6/6 26/26/26 27/27/27
f 27/27/27 26/26/26 28/28/28
f 27/27/27 28/28/28 29/29/29
f 26/26/26 30/30/30 31/31/31
f 26/26/26 31/31/31 28/28/28
f 5/5/5 8/8/8 30/30/30
f 5/5/5 30/30/30 26/26/26
f 8/8/8 23/23/23 32/32/32
f 8/8/8 32/32/32 30/30/30
f 30/30/30 32/32/32 33/33/33
f 30/30/30 33/33/33 31/31/31
f 32/32/32 34/34/34 35/35/35
f 32/32/32 35/35/35 33/33/33
f 23/23/23 25/25/25 34/34/34
f 23/23/23 34/34/34 32/32/32
f 36/36/36 37/37/37 38/38/38
f 36/36/36 38/38/38 39/39/39
f 39/39/39 38/38/38 40/40/40
f 39/39/39 40/40/40 41/41/41
f 38/38/38 33/33/33 35/35/35
f 38/38/38 35/35/35 40/40/40
f 37/37/37 31/31/31 33/33/33
f 37/37/37 33/33/33 38/38/38
f 42/42/42 43/43/43 44/44/44
f 42/42/42 44/44/44 45/45/45
f 45/45/45 44/44/44 37/37/37
f 45/45/45 37/37/37 36/36/36
f 44/44/44 28/28/28 31/31/31
f 44/44/44 31/31/31 37/37/37
f 43/43/43 29/29/29 28/28/28
f 43/43/43 28/28/28 44/44/44
f 36/36/36 39/39/39 46/46/46
f 36/36/36 46/46/46 47/47/47
f 47/47/47 46/46/46 48/48/48
f 47/47/47 48/48/48 49/49/49
f 46/46/46 50/50/50 51/51/51
f 46/46/46 51/51/51 48/48/48
f 39/39/39 41/41/41 50/50/50
f 39/39/39 50/50/50 46/46/46
f 42/42/42 45/45/45 52/52/52
f 42/42/42 52/52/52 53/53/53
f 53/53/53 52/52/52 54/54/54
f 53/53/53 54/54/54 55/55/55
f 52/52/52 47/47/47 49/49/49
f 52/52/52 49/49/49 54/54/54
f 45/45/45 36/36/36 47/47/47
f 45/45/45 47/47/47 52/52/52
f 55/55/55 54/54/54 56/56/56
f 55/55/55 56/56/56 57/57/57
f 57/57/57 56/56/56 58/58/58
f 57/57/57 58/58/58 59/59/59
f 56/56/56 60/60/60 61/61/61
f 56/56/56 61/61/61 58/58/58
f 54/54/54 49/49/49 60/60/60
f 54/54/54 60/60/60 56/56/56
f 49/49/49 48/48/48 62/62/62
f 49/49/49 62/62/62 60/60/60
f 60/60/60 62/62/62 63/63/63
f 60/60/60 63/63/63 61/61/61
f 62/62/62 64/64/64 65/65/65
f 62/62/62 65/65/65 63/63/63
f 48/48/48 51/51/51 64/64/64
f 48/48/48 64/64/64 62/62/62
f 61/61/61 63/63/63 66/66/66
f 61/61/61 66/66/66 67/67/67
f 67/67/67 66/66/66 68/68/68
f 67/67/67 68/68/68 69/69/69
f 66/66/66 70/70/70 71/71/71
f 66/66/66 71/71/71 68/68/68
f 63/63/63 65/65/65 70/70/70
f 63/63/63 70/70/70 66/66/66
f 59/59/59 58/58/58 72/72/72
f 59/59/59 72/72/72 73/73/73
f 73/73/73 72/72/72 74/74/74
f 73/73/73 74/74/74 75/75/75
f 72/72/72 67/67/67 69/69/69
f 72/72/72 69/69/69 74/74/74
f 58/58/58 61/61/61 67/67/67
f 58/58/58 67/67/67 72/72/72
f 75/75/75 74/74/74 76/76/76
f 75/75/75 76/76/76 77/77/77
f 77/77/77 76/76/76 11/11/11
f 77/77/77 11/11/11 10/10/10
f 76/76/76 78/78/78 15/15/15
f 76/76/76 15/15/15 11/11/11
f 74/74/74 69/69/69 78/78/78
f 74/74/74 78/78/78 76/76/76
f 69/69/69 68/68/68 79/79/79
f 69/69/69 79/79/79 78/78/78
f 78/78/78 79/79/79 16/16/16
f 78/78/78 16/16/16 15/15/15
f 79/79/79 80/80/80 21/21/21
f 79/79/79 21/21/21 16/16/16
f 68/68/68 71/71/71 80/80/80
f 68/68/68 80/80/80 79/79/79
f 65/65/65 81/81/81 82/82/82
f 65/65/65 82/82/82 70/70/70
f 70/70/70 82/82/82 83/83/83
f 70/70/70 83/83/83 71/71/71
f 82/82/82 84/84/84 85/85/85
f 82/82/82 85/85/85 83/83/83
f 81/81/81 86/86/86 84/84/84
f 81/81/81 84/84/84 82/82/82
f 71/71/71 83/83/83 87/87/87
f 71/71/71 87/87/87 80/80/80
f 80/80/80 87/87/87 88/88/88
f 80/80/80 88/88/88 21/21/21
f 87/87/87 89/89/89 90/90/90
f 87/87/87 90/90/90 88/88/88
f 83/83/83 85/85/85 89/89/89
f 83/83/83 89/89/89 87/87/87
f 21/21/21 88/88/88 91/91/91
f 21/21/21 91/91/91 19/19/19
f 19/19/19 91/91/91 92/92/92
f 19/19/19 92/92/92 20/20/20
f 91/91/91 93/93/93 94/94/94
f 91/91/91 94/94/94 92/92/92
f 88/88/88 90/90/90 93/93/93
f 88/88/88 93/93/93 91/91/91
f 90/90/90 95/95/95 96/96/96
f 90/90/90 96/96/96 93/93/93
f 93/93/93 96/96/96 97/97/97
f 93/93/93 97/97/97 94/94/94
f 96/96/96 98/98/98 99/99/99
f 96/96/96 99/99/99 97/97/97
f 95/95/95 100/100/100 98/98/98
f 95/95/95 98/98/98 96/96/96
f 85/85/85 101/101/101 102/102/102
f 85/85/85 102/102/102 89/89/89
f 89/89/89 102/102/102 95/95/95
f 89/89/89 95/95/95 90/90/90
f 102/102/102 103/103/103 100/100/100
f 102/102/102 100/100/100 95/95/95
f 101/101/101 104/104/104 103/103/103
f 101/101/101 103/103/103 102/102/102
f 94/94/94 97/97/97 105/105/105
f 94/94/94 105/105/105 106/106/106
f 106/106/106 105/105/105 107/107/107
f 106/106/106 107/107/107 108/108/108
f 105/105/105 109/109/109 110/110/110
f 105/105/105 110/110/110 107/107/107
f 97/97/97 99/99/99 109/109/109
f 97/97/97 109/109/109 105/105/105
f 20/20/20 92/92/92 111/111/111
f 20/20/20 111/111/111 24/24/24
f 24/24/24 111/111/111 112/112/112
f 24/24/24 112/112/112 25/25/25
f 111/111/111 106/106/106 108/108/108
f 111/111/111 108/108/108 112/112/112
f 92/92/92 94/94/94 106/106/106
f 92/92/92 106/106/106 111/111/111
f 108/108/108 107/107/107 113/113/113
f 108/108/108 113/113/113 114/114/114
f 114/114/114 113/113/113 115/115/115
f 114/114/114 115/115/115 116/116/116
f 113/113/113 117/117/117 118/118/118
f 113/113/113 118/118/118 115/115/115
f 107/107/107 110/110/110 117/117/117
f 107/107/107 117/117/117 113/113/113
f 25/25/25 112/112/112 119/119/119
f 25/25/25 119/119/119 34/34/34
f 34/34/34 119/119/119 120/120/120
f 34/34/34 120/120/120 35/35/35
f 119/119/119 114/114/114 116/116/116
f 119/119/119 116/116/116 120/120/120
f 112/112/112 108/108/108 114/114/114
f 112/112/112 114/114/114 119/119/119
f 121/121/121 122/122/122 123/123/123
f 121/121/121 123/123/123 124/124/124
f 124/124/124 123/123/123 125/125/125
f 124/124/124 125/125/125 126/126/126
f 123/123/123 115/115/115 118/118/118
f 123/123/123 118/118/118 125/125/125
f 122/122/122 116/116/116 115/115/115
f 122/122/122 115/115/115 123/123/123
f 41/41/41 40/40/40 127/127/127
f 41/41/41 127/127/127 128/128/128
f 128/128/128 127/127/127 122/122/122
f 128/128/128 122/122/122 121/121/121
f 127/127/127 120/120/120 116/116/116
f 127/127/127 116/116/116 122/122/122
f 40/40/40 35/35/35 120/120/120
f 40/40/40 120/120/120 127/127/127
f 121/121/121 124/124/124 129/129/129
f 121/121/121 129/129/129 130/130/130
f 130/130/130 129/129/129 131/131/131
f 130/130/130 131/131/131 132/132/132
f 129/129/129 133/133/133 134/134/134
f 129/129/129 134/134/134 131/131/131
f 124/124/124 126/126/126 133/133/133
f 124/124/124 133/133/133 129/129/129
f 41/41/41 128/128/128 135/135/135
f 41/41/41 135/135/135 50/50/50
f 50/50/50 135/135/135 136/136/136
f 50/50/50 136/136/136 51/51/51
f 135/135/135 130/130/130 132/132/132
f 135/135/135 132/132/132 136/136/136
f 128/128/128 121/121/121 130/130/130
f 128/128/128 130/130/130 135/135/135
f 132/132/132 131/131/131 137/137/137
f 132/132/132 137/137/137 138/138/138
f 138/138/138 137/137/137 139/139/139
f 138/138/138 139/139/139 86/86/86
f 137/137/137 140/140/140 141/141/141
f 137/137/137 141/141/141 139/139/139
f 131/131/131 134/134/134 140/140/140
f 131/131/131 140/140/140 137/137/137
f 51/51/51 136/136/136 142/142/142
f 51/51/51 142/142/142 64/64/64
f 64/64/64 142/142/142 81/81/81
f 64/64/64 81/81/81 65/65/65
f 142/142/142 138/138/138 86/86/86
f 142/142/142 86/86/86 81/81/81
f 136/136/136 132/132/132 138/138/138
f 136/136/136 138/138/138 142/142/142
f 86/86/86 139/139/139 143/143/143
f 86/86/86 143/143/143 84/84/84
f 84/84/84 143/143/143 101/101/101
f 84/84/84 101/101/101 85/85/85
f 143/143/143 144/144/144 104/104/104
f 143/143/143 104/104/104 101/101/101
f 139/139/139 141/141/141 144/144/144
f 139/139/139 144/144/144 143/143/143
f 141/141/141 145/145/145 146/146/146
f 141/141/141 146/146/146 144/144/144
f 144/144/144 146/146/146 147/147/147
f 144/144/144 147/147/147 104/104/104
f 146/146/146 148/148/148 149/149/149
f 146/146/146 149/149/149 147/147/147
f 145/145/145 150/150/150 148/148/148
f 145/145/145 148/148/148 146/146/146
f 134/134/134 151/151/151 152/152/152
f 134/134/134 152/152/152 140/140/140
f 140/140/140 152/152/152 145/145/145
f 140/140/140 145/145/145 141/141/141
f 152/152/152 153/153/153 150/150/150
f 152/152/152 150/150/150 145/145/145
f 151/151/151 154/154/154 153/153/153
f 151/151/151 153/153/153 152/152/152
f 104/104/104 147/147/147 155/155/155
f 104/104/104 155/155/155 103/103/103
f 103/103/103 155/155/155 156/156/156
f 103/103/103 156/156/156 100/100/100
f 155/155/155 157/157/157 158/158/158
f 155/155/155 158/158/158 156/156/156
f 147/147/147 149/149/149 157/157/157
f 147/147/147 157/157/157 155/155/155
f 149/149/149 159/159/159 160/160/160
f 149/149/149 160/160/160 157/157/157
f 157/157/157 160/160/160 161/161/161
f 157/157/157 161/161/161 158/158/158
f 160/160/160 162/162/162 163/163/163
f 160/160/160 163/163/163 161/161/161
f 159/159/159 164/164/164 162/162/162
f 159/159/159 162/162/162 160/160/160
f 150/150/150 165/165/165 166/166/166
f 150/150/150 166/166/166 148/148/148
f 148/148/148 166/166/166 159/159/159
f 148/148/148 159/159/159 149/149/149
f 166/166/166 167/167/167 164/164/164
f 166/166/166 164/164/164 159/159/159
f 165/165/165 168/168/168 167/167/167
f 165/165/165 167/167/167 166/166/166
f 158/158/158 161/161/161 169/169/169
f 158/158/158 169/169/169 170/170/170
f 170/170/170 169/169/169 171/171/171
f 170/170/170 171/171/171 172/172/172
f 169/169/169 173/173/173 174/174/174
f 169/169/169 174/174/174 171/171/171
f 161/161/161 163/163/163 173/173/173
f 161/161/161 173/173/173 169/169/169
f 100/100/100 156/156/156 175/175/175
f 100/100/100 175/175/175 98/98/98
f 98/98/98 175/175/175 176/176/176
f 98/98/98 176/176/176 99/99/99
f 175/175/175 170/170/170 172/172/172
f 175/175/175 172/172/172 176/176/176
f 156/156/156 158/158/158 170/170/170
f 156/156/156 170/170/170 175/175/175
f 172/172/172 171/171/171 177/177/177
f 172/172/172 177/177/177 178/178/178
f 178/178/178 177/177/177 179/179/179
f 178/178/178 179/179/179 180/180/180
f 177/177/177 181/181/181 182/182/182
f 177/177/177 182/182/182 179/179/179
f 171/171/171 174/174/174 181/181/181
f 171/171/171 181/181/181 177/177/177
f 99/99/99 176/176/176 183/183/183
f 99/99/99 183/183/183 109/109/109
f 109/109/109 183/183/183 184/184/184
f 109/109/109 184/184/184 110/110/110
f 183/183/183 178/178/178 180/180/180
f 183/183/183 180/180/180 184/184/184
f 176/176/176 172/172/172 178/178/178
f 176/176/176 178/178/178 183/183/183
f 180/180/180 179/179/179 185/185/185
f 180/180/180 185/185/185 186/186/186
f 186/186/186 185/185/185 187/187/187
f 186/186/186 187/187/187 188/188/188
f 185/185/185 189/189/189 190/190/190
f 185/185/185 190/190/190 187/187/187
f 179/179/179 182/182/182 189/189/189
f 179/179/179 189/189/189 185/185/185
f 110/110/110 184/184/184 191/191/191
f 110/110/110 191/191/191 117/117/117
f 117/117/117 191/191/191 192/192/192
f 117/117/117 192/192/192 118/118/118
f 191/191/191 186/186/186 188/188/188
f 191/191/191 188/188/188 192/192/192
f 184/184/184 180/180/180 186/186/186
f 184/184/184 186/186/186 191/191/191
f 193/193/193 194/194/194 195/195/195
f 193/193/193 195/195/195 196/196/196
f 196/196/196 195/195/195 197/197/197
f 196/196/196 197/197/197 198/198/198
f 195/195/195 187/187/187 190/190/190
f 195/195/195 190/190/190 197/197/197
f 194/194/194 188/188/188 187/187/187
f 194/194/194 187/187/187 195/195/195
f 126/126/126 125/125/125 199/199/199
f 126/126/126 199/199/199 200/200/200
f 200/200/200 199/199/199 194/194/194
f 200/200/200 194/194/194 193/193/193
f 199/199/199 192/192/192 188/188/188
f 199/199/199 188/188/188 194/194/194
f 125/125/125 118/118/118 192/192/192
f 125/125/125 192/192/192 199/199/199
f 193/193/193 196/196/196 201/201/201
f 193/193/193 201/201/201 202/202/202
f 202/202/202 201/201/201 203/203/203
f 202/202/202 203/203/203 154/154/154
f 201/201/201 204/204/204 205/205/205
f 201/201/201 205/205/205 203/203/203
f 196/196/196 198/198/198 204/204/204
f 196/196/196 204/204/204 201/201/201
f 126/126/126 200/200/200 206/206/206
f 126/126/126 206/206/206 133/133/133
f 133/133/133 206/206/206 151/151/151
f 133/133/133 151/151/151 134/134/134
f 206/206/206 202/202/202 154/154/154
f 206/206/206 154/154/154 151/151/151
f 200/200/200 193/193/193 202/202/202
f 200/200/200 202/202/202 206/206/206
f 154/154/154 203/203/203 207/207/207
f 154/154/154 207/207/207 153/153/153
f 153/153/153 207/207/207 165/165/165
f 153/153/153 165/165/165 150/150/150
f 207/207/207 208/208/208 168/168/168
f 207/207/207 168/168/168 165/165/165
f 203/203/203 205/205/205 208/208/208
f 203/203/203 208/208/208 207/207/207
f 168/168/168 208/208/208 209/209/209
f 168/168/168 209/209/209 210/210/210
f 210/210/210 209/209/209 211/211/211
f 210/210/210 211/211/211 212/212/212
f 209/209/209 213/213/213 214/214/214
f 209/209/209 214/214/214 211/211/211
f 208/208/208 205/205/205 213/213/213
f 208/208/208 213/213/213 209/209/209
f 205/205/205 204/204/204 215/215/215
f 205/205/205 215/215/215 213/213/213
f 213/213/213 215/215/215 216/216/216
f 213/213/213 216/216/216 214/214/214
f 215/215/215 217/217/217 218/218/218
f 215/215/215 218/218/218 216/216/216
f 204/204/204 198/198/198 217/217/217
f 204/204/204 217/217/217 215/215/215
f 212/212/212 211/211/211 219/219/219
f 212/212/212 219/219/219 220/220/220
f 220/220/220 219/219/219 221/221/221
f 220/220/220 221/221/221 222/222/222
f 219/219/219 223/223/223 224/224/224
f 219/219/219 224/224/224 221/221/221
f 211/211/211 214/214/214 223/223/223
f 211/211/211 223/223/223 219/219/219
f 214/214/214 216/216/216 225/225/225
f 214/214/214 225/225/225 223/223/223
f 223/223/223 225/225/225 226/226/226
f 223/223/223 226/226/226 224/224/224
f 225/225/225 227/227/227 228/228/228
f 225/225/225 228/228/228 226/226/226
f 216/216/216 218/218/218 227/227/227
f 216/216/216 227/227/227 225/225/225
f 222/222/222 221/221/221 229/229/229
f 222/222/222 229/229/229 230/230/230
f 230/230/230 229/229/229 231/231/231
f 230/230/230 231/231/231 232/232/232
f 229/229/229 233/233/233 234/234/234
f 229/229/229 234/234/234 231/231/231
f 221/221/221 224/224/224 233/233/233
f 221/221/221 233/233/233 229/229/229
f 224/224/224 226/226/226 235/235/235
f 224/224/224 235/235/235 233/233/233
f 233/233/233 235/235/235 236/236/236
f 233/233/233 236/236/236 234/234/234
f 235/235/235 237/237/237 238/238/238
f 235/235/235 238/238/238 236/236/236
f 226/226/226 228/228/228 237/237/237
f 226/226/226 237/237/237 235/235/235
f 239/239/239 240/240/240 241/241/241
f 239/239/239 241/241/241 242/242/242
f 242/242/242 241/241/241 231/231/231
f 242/242/242 231/231/231 234/234/234
f 241/241/241 243/243/243 232/232/232
f 241/241/241 232/232/232 231/231/231
f 240/240/240 244/244/244 243/243/243
f 240/240/240 243/243/243 241/241/241
f 245/245/245 246/246/246 247/247/247
f 245/245/245 247/247/247 248/248/248
f 248/248/248 247/247/247 236/236/236
f 248/248/248 236/236/236 238/238/238
f 247/247/247 242/242/242 234/234/234
f 247/247/247 234/234/234 236/236/236
f 246/246/246 239/239/239 242/242/242
f 246/246/246 242/242/242 247/247/247
f 249/249/249 250/250/250 251/251/251
f 249/249/249 251/251/251 252/252/252
f 253/253/253 252/252/252 251/251/251
f 253/253/253 251/251/251 254/254/254
f 255/255/255 254/254/254 251/251/251
f 255/255/255 251/251/251 256/256/256
f 245/245/245 256/256/256 251/251/251
f 245/245/245 251/251/251 246/246/246
f 239/239/239 246/246/246 251/251/251
f 239/239/239 251/251/251 240/240/240
f 244/244/244 240/240/240 251/251/251
f 244/244/244 251/251/251 257/257/257
f 258/258/258 257/257/257 251/251/251
f 258/258/258 251/251/251 259/259/259
f 260/260/260 259/259/259 251/251/251
f 260/260/260 251/251/251 250/250/250
f 255/255/255 256/256/256 261/261/261
f 255/255/255 261/261/261 262/262/262
f 262/262/262 261/261/261 263/263/263
f 262/262/262 263/263/263 264/264/264
f 261/261/261 248/248/248 238/238/238
f 261/261/261 238/238/238 263/263/263
f 256/256/256 245/245/245 248/248/248
f 256/256/256 248/248/248 261/261/261
f 253/253/253 254/254/254 265/265/265
f 253/253/253 265/265/265 266/266/266
f 266/266/266 265/265/265 267/267/267
f 266/266/266 267/267/267 268/268/268
f 265/265/265 262/262/262 264/264/264
f 265/265/265 264/264/264 267/267/267
f 254/254/254 255/255/255 262/262/262
f 254/254/254 262/262/262 265/265/265
f 228/228/228 269/269/269 270/270/270
f 228/228/228 270/270/270 237/237/237
f 237/237/237 270/270/270 263/263/263
f 237/237/237 263/263/263 238/238/238
f 270/270/270 271/271/271 264/264/264
f 270/270/270 264/264/264 263/263/263
f 269/269/269 272/272/272 271/271/271
f 269/269/269 271/271/271 270/270/270
f 272/272/272 273/273/273 274/274/274
f 272/272/272 274/274/274 271/271/271
f 271/271/271 274/274/274 267/267/267
f 271/271/271 267/267/267 264/264/264
f 274/274/274 275/275/275 268/268/268
f 274/274/274 268/268/268 267/267/267
f 273/273/273 276/276/276 275/275/275
f 273/273/273 275/275/275 274/274/274
f 218/218/218 277/277/277 278/278/278
f 218/218/218 278/278/278 227/227/227
f 227/227/227 278/278/278 269/269/269
f 227/227/227 269/269/269 228/228/228
f 278/278/278 279/279/279 272/272/272
f 278/278/278 272/272/272 269/269/269
f 277/277/277 280/280/280 279/279/279
f 277/277/277 279/279/279 278/278/278
f 280/280/280 281/281/281 282/282/282
f 280/280/280 282/282/282 279/279/279
f 279/279/279 282/282/282 273/273/273
f 279/279/279 273/273/273 272/272/272
f 282/282/282 283/283/283 276/276/276
f 282/282/282 276/276/276 273/273/273
f 281/281/281 284/284/284 283/283/283
f 281/281/281 283/283/283 282/282/282
f 198/198/198 197/197/197 285/285/285
f 198/198/198 285/285/285 217/217/217
f 217/217/217 285/285/285 277/277/277
f 217/217/217 277/277/277 218/218/218
f 285/285/285 286/286/286 280/280/280
f 285/285/285 280/280/280 277/277/277
f 197/197/197 190/190/190 286/286/286
f 197/197/197 286/286/286 285/285/285
f 190/190/190 189/189/189 287/287/287
f 190/190/190 287/287/287 286/286/286
f 286/286/286 287/287/287 281/281/281
f 286/286/286 281/281/281 280/280/280
f 287/287/287 288/288/288 284/284/284
f 287/287/287 284/284/284 281/281/281
f 189/189/189 182/182/182 288/288/288
f 189/189/189 288/288/288 287/287/287
f 284/284/284 289/289/289 290/290/290
f 284/284/284 290/290/290 283/283/283
f 283/283/283 290/290/290 291/291/291
f 283/283/283 291/291/291 276/276/276
f 290/290/290 292/292/292 293/293/293
f 290/290/290 293/293/293 291/291/291
f 289/289/289 294/294/294 292/292/292
f 289/289/289 292/292/292 290/290/290
f 182/182/182 181/181/181 295/295/295
f 182/182/182 295/295/295 288/288/288
f 288/288/288 295/295/295 289/289/289
f 288/288/288 289/289/289 284/284/284
f 295/295/295 296/296/296 294/294/294
f 295/295/295 294/294/294 289/289/289
f 181/181/181 174/174/174 296/296/296
f 181/181/181 296/296/296 295/295/295
f 294/294/294 297/297/297 298/298/298
f 294/294/294 298/298/298 292/292/292
f 292/292/292 298/298/298 299/299/299
f 292/292/292 299/299/299 293/293/293
f 298/298/298 300/300/300 301/301/301
f 298/298/298 301/301/301 299/299/299
f 297/297/297 302/302/302 300/300/300
f 297/297/297 300/300/300 298/298/298
f 174/174/174 173/173/173 303/303/303
f 174/174/174 303/303/303 296/296/296
f 296/296/296 303/303/303 297/297/297
f 296/296/296 297/297/297 294/294/294
f 303/303/303 304/304/304 302/302/302
f 303/303/303 302/302/302 297/297/297
f 173/173/173 163/163/163 304/304/304
f 173/173/173 304/304/304 303/303/303
f 276/276/276 291/291/291 305/305/305
f 276/276/276 305/305/305 275/275/275
f 275/275/275 305/305/305 306/306/306
f 275/275/275 306/306/306 268/268/268
f 305/305/305 307/307/307 308/308/308
f 305/305/305 308/308/308 306/306/306
f 291/291/291 293/293/293 307/307/307
f 291/291/291 307/307/307 305/305/305
f 293/293/293 299/299/299 309/309/309
f 293/293/293 309/309/309 307/307/307
f 307/307/307 309/309/309 310/310/310
f 307/307/307 310/310/310 308/308/308
f 309/309/309 311/311/311 312/312/312
f 309/309/309 312/312/312 310/310/310
f 299/299/299 301/301/301 311/311/311
f 299/299/299 311/311/311 309/309/309
f 249/249/249 252/252/252 313/313/313
f 249/249/249 313/313/313 314/314/314
f 314/314/314 313/313/313 306/306/306
f 314/314/314 306/306/306 308/308/308
f 313/313/313 266/266/266 268/268/268
f 313/313/313 268/268/268 306/306/306
f 252/252/252 253/253/253 266/266/266
f 252/252/252 266/266/266 313/313/313
f 260/260/260 250/250/250 315/315/315
f 260/260/260 315/315/315 316/316/316
f 316/316/316 315/315/315 310/310/310
f 316/316/316 310/310/310 312/312/312
f 315/315/315 314/314/314 308/308/308
f 315/315/315 308/308/308 310/310/310
f 250/250/250 249/249/249 314/314/314
f 250/250/250 314/314/314 315/315/315
f 258/258/258 259/259/259 317/317/317
f 258/258/258 317/317/317 318/318/318
f 318/318/318 317/317/317 319/319/319
f 318/318/318 319/319/319 320/320/320
f 317/317/317 316/316/316 312/312/312
f 317/317/317 312/312/312 319/319/319
f 259/259/259 260/260/260 316/316/316
f 259/259/259 316/316/316 317/317/317
f 244/244/244 257/257/257 321/321/321
f 244/244/244 321/321/321 243/243/243
f 243/243/243 321/321/321 322/322/322
f 243/243/243 322/322/322 232/232/232
f 321/321/321 318/318/318 320/320/320
f 321/321/321 320/320/320 322/322/322
f 257/257/257 258/258/258 318/318/318
f 257/257/257 318/318/318 321/321/321
f 301/301/301 323/323/323 324/324/324
f 301/301/301 324/324/324 311/311/311
f 311/311/311 324/324/324 319/319/319
f 311/311/311 319/319/319 312/312/312
f 324/324/324 325/325/325 320/320/320
f 324/324/324 320/320/320 319/319/319
f 323/323/323 326/326/326 325/325/325
f 323/323/323 325/325/325 324/324/324
f 326/326/326 327/327/327 328/328/328
f 326/326/326 328/328/328 325/325/325
f 325/325/325 328/328/328 322/322/322
f 325/325/325 322/322/322 320/320/320
f 328/328/328 230/230/230 232/232/232
f 328/328/328 232/232/232 322/322/322
f 327/327/327 222/222/222 230/230/230
f 327/327/327 230/230/230 328/328/328
f 302/302/302 329/329/329 330/330/330
f 302/302/302 330/330/330 300/300/300
f 300/300/300 330/330/330 323/323/323
f 300/300/300 323/323/323 301/301/301
f 330/330/330 331/331/331 326/326/326
f 330/330/330 326/326/326 323/323/323
f 329/329/329 332/332/332 331/331/331
f 329/329/329 331/331/331 330/330/330
f 332/332/332 333/333/333 334/334/334
f 332/332/332 334/334/334 331/331/331
f 331/331/331 334/334/334 327/327/327
f 331/331/331 327/327/327 326/326/326
f 334/334/334 220/220/220 222/222/222
f 334/334/334 222/222/222 327/327/327
f 333/333/333 212/212/212 220/220/220
f 333/333/333 220/220/220 334/334/334
f 163/163/163 162/162/162 335/335/335
f 163/163/163 335/335/335 304/304/304
f 304/304/304 335/335/335 329/329/329
f 304/304/304 329/329/329 302/302/302
f 335/335/335 336/336/336 332/332/332
f 335/335/335 332/332/332 329/329/329
f 162/162/162 164/164/164 336/336/336
f 162/162/162 336/336/336 335/335/335
f 164/164/164 167/167/167 337/337/337
f 164/164/164 337/337/337 336/336/336
f 336/336/336 337/337/337 333/333/333
f 336/336/336 333/333/333 332/332/332
f 337/337/337 210/210/210 212/212/212
f 337/337/337 212/212/212 333/333/333
f 167/167/167 168/168/168 210/210/210
f 167/167/167 210/210/210 337/337/337
