v -0.772517 -0.724306 0.514159
v -0.770884 -0.726344 0.510465
v -0.767999 -0.721203 0.509593
v -0.770134 -0.720047 0.513413
v -0.76742 -0.715477 0.508895
v -0.769651 -0.715296 0.512816
v -0.767231 -0.72233 0.504808
v -0.766577 -0.716011 0.504056
v -0.770415 -0.727997 0.505738
v -0.825712 -0.728264 0.406014
v -0.819017 -0.729536 0.403527
v -0.832309 -0.738963 0.373709
v -0.838858 -0.7376 0.376172
v -0.843632 -0.746692 0.345718
v -0.850223 -0.745204 0.348508
v -0.82635 -0.742872 0.372176
v -0.83765 -0.750797 0.343896
v -0.812911 -0.733345 0.401994
v -0.808353 -0.739176 0.401693
v -0.821847 -0.748755 0.371861
v -0.833082 -0.756883 0.343471
v -0.819417 -0.755666 0.372777
v -0.830549 -0.763965 0.344488
v -0.805972 -0.746091 0.402631
v -0.861431 -0.750784 0.354761
v -0.870593 -0.755677 0.333931
v -0.873456 -0.762216 0.336114
v -0.863987 -0.756813 0.357102
v -0.873561 -0.769863 0.33735
v -0.863966 -0.763871 0.358639
v -0.879606 -0.765682 0.32218
v -0.879996 -0.773827 0.322894
v -0.876351 -0.758701 0.320335
v -0.831873 -0.758957 0.417124
v -0.836364 -0.753092 0.41737
v -0.849488 -0.762488 0.387106
v -0.845015 -0.768385 0.386888
v -0.861432 -0.770963 0.359363
v -0.856843 -0.777027 0.359222
v -0.852006 -0.755622 0.386319
v -0.838893 -0.746255 0.416532
v -0.839045 -0.739493 0.414725
v -0.85214 -0.748826 0.38462
v -0.849768 -0.743032 0.382159
v -0.836689 -0.733726 0.412145
v -0.819563 -0.764296 0.413474
v -0.825982 -0.76288 0.415759
v -0.839162 -0.772342 0.385629
v -0.832763 -0.773778 0.383463
v -0.850816 -0.781081 0.358164
v -0.844195 -0.782524 0.356144
v -0.80883 -0.758964 0.407478
v -0.81355 -0.762896 0.410566
v -0.826732 -0.772368 0.380624
v -0.82203 -0.768439 0.377571
v -0.837916 -0.78103 0.35323
v -0.833049 -0.776978 0.349916
v -0.831955 -0.729786 0.409067
v -0.845036 -0.739085 0.379171
v -0.856522 -0.746699 0.351724
v -0.819492 -0.762565 0.374805
v -0.806178 -0.753041 0.404685
v -0.830519 -0.770991 0.346804
v -0.841648 -0.773485 0.303574
v -0.844819 -0.775294 0.293403
v -0.847486 -0.767747 0.291296
v -0.844455 -0.765587 0.30182
v -0.852389 -0.761226 0.292798
v -0.849565 -0.758774 0.302935
v -0.850209 -0.769425 0.28613
v -0.854581 -0.763587 0.28785
v -0.847823 -0.776147 0.288386
v -0.865961 -0.783974 0.337973
v -0.859427 -0.788259 0.337263
v -0.852243 -0.789743 0.335429
v -0.864995 -0.792833 0.323375
v -0.857239 -0.794217 0.321888
v -0.872079 -0.788538 0.323542
v -0.845449 -0.788109 0.3322
v -0.840198 -0.783765 0.328127
v -0.850049 -0.792461 0.318329
v -0.84455 -0.787947 0.3133
v -0.858539 -0.749693 0.326645
v -0.865283 -0.751275 0.330591
v -0.870711 -0.754062 0.31667
v -0.86366 -0.752429 0.311782
v -0.837478 -0.777373 0.32401
v -0.837513 -0.769872 0.320844
v -0.841666 -0.781299 0.307867
v -0.84511 -0.755759 0.320224
v -0.851498 -0.751325 0.322874
v -0.856276 -0.754146 0.306703
v -0.840227 -0.762294 0.319508
v -0.8709 -0.777496 0.337961
v -0.877328 -0.78185 0.323306
v -0.866623 -0.758008 0.300093
v -0.866838 -0.760881 0.297999
v -0.871928 -0.761929 0.304316
v -0.872628 -0.759323 0.306259
v -0.876505 -0.765538 0.308233
v -0.877837 -0.763477 0.310073
v -0.870708 -0.763579 0.304659
v -0.874632 -0.766667 0.308651
v -0.866386 -0.762748 0.298603
v -0.882893 -0.7763 0.314504
v -0.880554 -0.784099 0.314616
v -0.875323 -0.790367 0.315123
v -0.881276 -0.784774 0.309791
v -0.876376 -0.790234 0.31053
v -0.883135 -0.777674 0.309978
v -0.8783 -0.761182 0.313297
v -0.881959 -0.768177 0.314542
v -0.881691 -0.770061 0.310732
v -0.867987 -0.79414 0.315682
v -0.860024 -0.795145 0.314773
v -0.869217 -0.793241 0.311747
v -0.861521 -0.793799 0.311383
v -0.85294 -0.793361 0.31108
v -0.847667 -0.789072 0.30527
v -0.85499 -0.792108 0.307635
v -0.850309 -0.788333 0.301338
v -0.865941 -0.755106 0.303846
v -0.872698 -0.756641 0.309516
v -0.844881 -0.782748 0.298689
v -0.847861 -0.782755 0.294149
v -0.858851 -0.756782 0.297594
v -0.860333 -0.759572 0.293189
v -0.863633 -0.764619 0.306971
v -0.860362 -0.766518 0.304751
v -0.86136 -0.773926 0.312647
v -0.865979 -0.766169 0.311601
v -0.869423 -0.767356 0.314176
v -0.869882 -0.771052 0.315786
v -0.871796 -0.77485 0.316164
v -0.8693 -0.77798 0.316527
v -0.868045 -0.781819 0.316469
v -0.863795 -0.782364 0.316274
v -0.86037 -0.784183 0.314873
v -0.857374 -0.782171 0.312225
v -0.854583 -0.78145 0.3076
v -0.854277 -0.777834 0.305173
v -0.853645 -0.774924 0.300616
v -0.855664 -0.771448 0.301631
v -0.857394 -0.767953 0.300346
v -0.852749 -0.787073 0.299057
v -0.850772 -0.78236 0.292028
v -0.850849 -0.776731 0.286542
v -0.85254 -0.78156 0.293178
v -0.852739 -0.776726 0.288412
v -0.854109 -0.785575 0.299503
v -0.856686 -0.765884 0.286084
v -0.861543 -0.762338 0.291211
v -0.861926 -0.76411 0.292482
v -0.857825 -0.767273 0.288019
v -0.852949 -0.770954 0.284423
v -0.854617 -0.771717 0.286586
v -0.881762 -0.778197 0.307518
v -0.880291 -0.784409 0.307161
v -0.875925 -0.789044 0.307993
v -0.877912 -0.783089 0.308085
v -0.874105 -0.787128 0.308796
v -0.879192 -0.777675 0.308383
v -0.880161 -0.77141 0.308639
v -0.877796 -0.771763 0.309288
v -0.869388 -0.791429 0.309511
v -0.862414 -0.791725 0.309354
v -0.868407 -0.789209 0.310045
v -0.862352 -0.78949 0.309618
v -0.856695 -0.790244 0.305489
v -0.857433 -0.788256 0.305663
v -0.865013 -0.763256 0.30277
v -0.861062 -0.764553 0.297772
v -0.857444 -0.767354 0.293968
v -0.861171 -0.787132 0.312741
v -0.86624 -0.786585 0.313846
v -0.871088 -0.784615 0.313404
v -0.852879 -0.77584 0.294312
v -0.852695 -0.780112 0.29837
v -0.853995 -0.783745 0.303546
v -0.875654 -0.776131 0.313033
v -0.87461 -0.77103 0.313172
v -0.872192 -0.766647 0.311881
v -0.868769 -0.76403 0.30812
v -0.874282 -0.780857 0.313069
v -0.856935 -0.786032 0.308992
v -0.854621 -0.77136 0.292979
v -0.785368 -0.741742 0.457484
v -0.795824 -0.749523 0.435446
v -0.793068 -0.743596 0.432633
v -0.782438 -0.735799 0.454801
v -0.792769 -0.736674 0.430563
v -0.781993 -0.728918 0.452818
v -0.812986 -0.717566 0.461606
v -0.808039 -0.71355 0.458646
v -0.818788 -0.720731 0.436916
v -0.8236 -0.724695 0.440032
v -0.812512 -0.719172 0.433865
v -0.801693 -0.711916 0.455792
v -0.790352 -0.745777 0.460454
v -0.800636 -0.753486 0.438564
v -0.806737 -0.754952 0.441516
v -0.796602 -0.747361 0.463264
v -0.80322 -0.746196 0.465487
v -0.813248 -0.753637 0.443857
v -0.819201 -0.749827 0.445264
v -0.809223 -0.742543 0.466814
v -0.815991 -0.730191 0.466116
v -0.815738 -0.723414 0.464215
v -0.826117 -0.730494 0.44271
v -0.826132 -0.737265 0.44462
v -0.813682 -0.736904 0.46702
v -0.82369 -0.744054 0.445511
v -0.788741 -0.716556 0.452109
v -0.784225 -0.722165 0.451881
v -0.795095 -0.729824 0.429607
v -0.799642 -0.724082 0.429886
v -0.794902 -0.712988 0.453498
v -0.805776 -0.720368 0.431397
v -0.79157 -0.705596 0.477487
v -0.78453 -0.706262 0.47602
v -0.78812 -0.708439 0.467368
v -0.79511 -0.707577 0.469308
v -0.781814 -0.71179 0.466208
v -0.778214 -0.709372 0.475167
v -0.77377 -0.714599 0.475124
v -0.777293 -0.717239 0.466062
v -0.775204 -0.723922 0.466931
v -0.771838 -0.721112 0.475881
v -0.800474 -0.735714 0.485065
v -0.804769 -0.730408 0.485067
v -0.80791 -0.732706 0.479024
v -0.803496 -0.738213 0.478911
v -0.810107 -0.726081 0.478189
v -0.806847 -0.723975 0.484351
v -0.806317 -0.717371 0.483007
v -0.809681 -0.719328 0.476507
v -0.80674 -0.713449 0.474245
v -0.803298 -0.711574 0.481246
v -0.787907 -0.739917 0.482969
v -0.794554 -0.739038 0.484324
v -0.797476 -0.741717 0.477838
v -0.790772 -0.742734 0.475985
v -0.776173 -0.733937 0.479208
v -0.781489 -0.738116 0.481179
v -0.784364 -0.741016 0.473606
v -0.779145 -0.736864 0.471052
v -0.798133 -0.707475 0.479318
v -0.801627 -0.709354 0.471722
v -0.775917 -0.73083 0.468702
v -0.77276 -0.727928 0.477336
v -0.773678 -0.730116 0.492364
v -0.774842 -0.731734 0.485815
v -0.771549 -0.726003 0.48446
v -0.770549 -0.724594 0.491376
v -0.770649 -0.719534 0.483368
v -0.769773 -0.718382 0.490555
v -0.798887 -0.709958 0.492661
v -0.793861 -0.706017 0.491639
v -0.795674 -0.706777 0.485428
v -0.800703 -0.710748 0.486789
v -0.789355 -0.70492 0.484174
v -0.787677 -0.704169 0.490763
v -0.778724 -0.734066 0.493369
v -0.779985 -0.735766 0.487201
v -0.786194 -0.73756 0.48843
v -0.784886 -0.735898 0.49426
v -0.791257 -0.735276 0.494912
v -0.792604 -0.736812 0.489332
v -0.798287 -0.733726 0.489784
v -0.796881 -0.732368 0.495216
v -0.802678 -0.721629 0.494554
v -0.801959 -0.715451 0.493691
v -0.803694 -0.716318 0.488078
v -0.804294 -0.722624 0.489105
v -0.800872 -0.727562 0.495087
v -0.802371 -0.728729 0.489699
v -0.775571 -0.707634 0.489891
v -0.771558 -0.712433 0.490036
v -0.77246 -0.713365 0.482748
v -0.776658 -0.708426 0.482688
v -0.78125 -0.704757 0.490152
v -0.782643 -0.705503 0.483206
v -0.784824 -0.701281 0.504033
v -0.778244 -0.701904 0.503503
v -0.779569 -0.703087 0.497178
v -0.786122 -0.70247 0.497689
v -0.773845 -0.706087 0.497016
v -0.772544 -0.704944 0.503349
v -0.768475 -0.709918 0.50355
v -0.769774 -0.711027 0.497207
v -0.767906 -0.717106 0.497708
v -0.795747 -0.731098 0.508977
v -0.799976 -0.726211 0.508878
v -0.800531 -0.726932 0.502109
v -0.796374 -0.731824 0.502233
v -0.802314 -0.720813 0.501543
v -0.801716 -0.720036 0.508272
v -0.800637 -0.713494 0.507254
v -0.801384 -0.714375 0.50062
v -0.797981 -0.708608 0.49954
v -0.797027 -0.707599 0.506055
v -0.782611 -0.734309 0.507755
v -0.789617 -0.733911 0.508554
v -0.790418 -0.734702 0.501893
v -0.783635 -0.7352 0.501205
v -0.775848 -0.732195 0.506766
v -0.777083 -0.733192 0.500316
v -0.771782 -0.729069 0.499359
v -0.791431 -0.703314 0.504925
v -0.792591 -0.704437 0.498514
v -0.768608 -0.723424 0.498455
v -0.79254 -0.708931 0.514467
v -0.78833 -0.705707 0.513563
v -0.789982 -0.70395 0.509748
v -0.795103 -0.707861 0.510823
v -0.783965 -0.702094 0.508897
v -0.78337 -0.704185 0.512839
v -0.776595 -0.727456 0.514988
v -0.775836 -0.730163 0.511441
v -0.782017 -0.732103 0.512387
v -0.781685 -0.729043 0.515784
v -0.786977 -0.728749 0.516415
v -0.788429 -0.731768 0.513154
v -0.794034 -0.729237 0.513566
v -0.791611 -0.72664 0.516747
v -0.796103 -0.718314 0.5162
v -0.795272 -0.713377 0.515408
v -0.798431 -0.713237 0.511958
v -0.799452 -0.719198 0.512917
v -0.794802 -0.722965 0.51667
v -0.797888 -0.72481 0.513481
v -0.774145 -0.70696 0.512268
v -0.771084 -0.710708 0.512419
v -0.769149 -0.709949 0.508427
v -0.772837 -0.705431 0.508244
v -0.778428 -0.704664 0.512403
v -0.777997 -0.702663 0.508392
vt 0.08313 0.08316
vt 0.01042 0.7396
vt 0.08333 0.08333
vt 0.5 1
vt 0.08333 0.9167
vt 0.2603 0.01033
vt 0.01042 0.7396
vt 0.7396 0.9896
vt 0.9167 0.9167
vt 0.7396 0.9896
vt 0.9896 0.2604
vt 0.08333 0.08333
vt 0.9896 0.2604
vt 0.9167 0.08333
vt 0.2599 0.01
vt 0.9896 0.2604
vt 0.2603 0.01033
vt 0.7396 0.9896
vt 0.9896 0.2604
vt 0.01042 0.2604
vt 0.9167 0.08333
vt 0.9896 0.2604
vt 0.5 -0.0002342
vt 0.7396 0.9896
vt 0.2599 0.01
vt 0.9167 0.08333
vt 0.01042 0.2604
vt 0.9167 0.08333
vt 0.7396 0.01042
vt 0.2603 0.01033
vt 0.5 -1.192e-07
vt 0.08333 0.9167
vt 0.01042 0.7396
vt 0.9167 0.9167
vt 1 0.5
vt 0.01042 0.2604
vt 1 0.5
vt 0.9896 0.2604
vt 0.08266 0.0827
vt 0.9167 0.08333
vt 0.9167 0.9167
vt 1 0.5
vt 0.01042 0.2604
vt 1 0.5
vt 0.7396 0.9896
vt 0.5 1
vt 0.9167 0.08333
vt 0 0.5
vt 1 0.5
vt 0.9896 0.2604
vt 0.08313 0.08316
vt 0.5 1
vt 0.9167 0.08333
vt 0 0.5
vt 0.9896 0.2604
vt 0.9896 0.2604
vt 0.5 -2.718e-05
vt 0.9896 0.2604
vt 0.01042 0.2604
vt 0.9167 0.08333
vt 0.01042 0.2604
vt 0.9896 0.2604
vt 0.9896 0.2604
vt 0.01042 0.7396
vt 0.08333 0.9167
vt 0 0.5
vt 0.5 0
vt 0.2604 0.9896
vt 0.08333 0.9167
vt 0.5 1
vt 0.01042 0.7396
vt 0 0.5
vt 0.7396 0.01042
vt 0 0.5
vt 0.9167 0.08333
vt 0.7396 0.01042
vt 0.08333 0.9167
vt 0.01042 0.7396
vt 0.08333 0.08333
vt 0.7396 0.01042
vt 0.7396 0.01042
vt 0.08333 0.9167
vt 0.9167 0.08333
vt 0.08333 0.08333
vt 0.5 -1.192e-07
vt 0.01042 0.7396
vt 0.01042 0.2604
vt 0.9167 0.08333
vt 0.7396 0.01042
vt 0.7396 0.01042
vt 0.01042 0.2604
vt 0.5 0
vt 0.9167 0.9167
vt 0.9167 0.9167
vt 0.7396 0.01042
vt 0 0.5
vt 0.2604 0.01042
vt 0.9896 0.7396
vt 0.5 1
vt 0.2604 0.01042
vt 0 0.5
vt 0.2604 0.01042
vt 0.08333 0.08333
vt 0.08333 0.08333
vt 0.2604 0.9896
vt 0.9896 0.7396
vt 0.08333 0.9167
vt 0.2604 0.9896
vt 0 0.5
vt 0.01042 0.7396
vt 0.2604 0.9896
vt 0.9896 0.7396
vt 0.5 1
vt 0.9896 0.7396
vt 0.08333 0.9167
vt 0.2604 0.9896
vt 0.01042 0.7396
vt 1 0.5
vt 0.08333 0.9167
vt 0.2604 0.9896
vt 0.01042 0.7396
vt 0.2604 0.9896
vt 1 0.5
vt 0.9896 0.7396
vt 0.2604 0.9896
vt 0.9896 0.7396
vt 0.5 1
vt 0.01042 0.2604
vt 0.08333 0.08333
vt 1 0.5
vt 0.01042 0.2604
vt 0.01042 0.2604
vt 0.01042 0.2604
vt 0 0.5
vt 0.01042 0.2604
vt 0.01042 0.2604
vt 0.08333 0.08333
vt 0 0.5
vt 0 0.5
vt 0 0.5
vt 0.01042 0.2604
vt 0.01042 0.2604
vt 0 0.5
vt 0 0.5
vt 0.08333 0.08333
vt 1 0.5
vt 0.08333 0.08333
vt 0.2604 0.01042
vt 0.08333 0.08333
vt 0.01042 0.2604
vt 0.5 -1.192e-07
vt 0.9167 0.9167
vt 0.5 0
vt 0.01042 0.2604
vt 0.9167 0.9167
vt 0.08333 0.08333
vt 0.2604 0.01042
vt 0.9896 0.7396
vt 0.5 0
vt 0.2604 0.01042
vt 0.08333 0.08333
vt 0.01042 0.2604
vt 0.9896 0.7396
vt 0.2604 0.01042
vt 0.08333 0.9167
vt 0.2604 0.01042
vt 0.5 -1.192e-07
vt 0.01042 0.2604
vt 0.08392 0.9161
vt 0.08333 0.08333
vt 0.01042 0.2604
vt 0.2608 0.989
vt 0.01042 0.2604
vt 0 0.5
vt 0.2604 0.9896
vt 0 0.5
vt 0.08333 0.08333
vt 0.2604 0.9896
vt 0.08333 0.08333
vt 0.01042 0.2604
vt 0.2608 0.989
vt 0.01042 0.2604
vt 0.5 0.9995
vt 0.5 1
vt 0.2608 0.989
vt 0.2633 0.985
vt 0.5 1
vt 1 0.5
vt 0.5 0.9958
vt 0.7396 0.01042
vt 0.9896 0.2604
vt 0.7396 0.9896
vt 0.5 1
vt 0.7396 0.01042
vt 0.5 0.9995
vt 0.9896 0.2604
vt 0.9167 0.08333
vt 0.7396 0.9896
vt 0.9167 0.08333
vt 0.08392 0.9161
vt 0.9167 0.08333
vt 0.7396 0.9896
vt 0.9167 0.08333
vt 0.088 0.912
vt 0.9167 0.08333
vt 0.7396 0.9896
vt 0.9167 0.9167
vt 0.5 -1.192e-07
vt 0.2633 0.985
vt 0.7396 0.01042
vt 0.5 0
vt 0.2608 0.989
vt 0.9167 0.9167
vt 0.7396 0.01042
vt 0.9167 0.9167
vt 0.7396 0.01042
vt 0.7396 0.01042
vt 0.9167 0.9167
vt 0.9896 0.7396
vt 0.2604 0.9896
vt 0.9896 0.7396
vt 0.08333 0.9167
vt 0.2604 0.9896
vt 0.9896 0.7396
vt 0.2604 0.9896
vt 0.9896 0.7396
vt 0.5 -1.192e-07
vt 0.9896 0.7396
vt 1 0.5
vt 0.08333 0.9167
vt 0.9896 0.7396
vt 0.5 0
vt 0.2604 0.9896
vt 1 0.5
vt 0.08333 0.9167
vt 0.9896 0.7396
vt 0.7396 0.01042
vt 0.9896 0.7396
vt 1 0.5
vt 0.5 1
vt 1 0.5
vt 0.08333 0.9167
vt 1 0.5
vt 0.5 1
vt 1 0.5
vt 0.7396 0.01042
vt 0.2604 0.9896
vt 0.9896 0.7396
vt 0.9896 0.7396
vt 0.2604 0.9896
vt 0.9896 0.7396
vt 0.2604 0.9896
vt 1 0.5
vt 0.2604 0.01042
vt 0.5 1
vt 0.9167 0.9167
vt 0.9167 0.9167
vt 0.2604 0.01042
vt 1 0.5
vt 0.2604 0.9896
vt 0.5 -1.192e-07
vt 0.9167 0.9167
vt 0.5 0
vt 0.9167 0.9167
vt 0.5 0
vt 0.9896 0.7396
vt 0.5 -1.192e-07
vt 0.9167 0.9167
vt 0.5 1
vt 0.9896 0.7396
vt 0.9896 0.7396
vt 0.08333 0.08333
vt 0.9896 0.7396
vt 0.2604 0.01042
vt 0.08333 0.08333
vt 0.9896 0.7396
vt 0.9167 0.9167
vt 0.2604 0.01042
vt 0.5 1
vt 0.2604 0.01042
vt 0.2604 0.01042
vt 0.5 1
vt 0.7396 0.9896
vt 0.01042 0.7396
vt 0.7396 0.9896
vt 0 0.5
vt 0.01042 0.7396
vt 0.7396 0.9896
vt 0.01042 0.7396
vt 0.7396 0.9896
vt 0.08333 0.08333
vt 0.9167 0.9167
vt 0 0.5
vt 0.7396 0.9896
vt 0.08333 0.08333
vt 0.01042 0.7396
vt 0.9167 0.9167
vt 0 0.5
vt 0.7396 0.9896
vt 0.2604 0.01042
vt 0.7396 0.9896
vt 0.9167 0.9167
vt 0.08333 0.9167
vt 0.9167 0.9167
vt 0 0.5
vt 0.08333 0.9167
vt 0.9167 0.9167
vt 0.2604 0.01042
vt 0.01042 0.7396
vt 0.7396 0.9896
vt 0.7396 0.9896
vt 0.2604 0.01042
vt 0.7396 0.9896
vt 0.9167 0.9167
vt 0.01042 0.7396
vt 0.9896 0.2604
vt 0.5 -1.192e-07
vt 0.5 1
vt 0.9167 0.9167
vt 1 0.5
vt 0.2604 0.01042
vt 0.5 1
vt 0.5 1
vt 0.08333 0.9167
vt 0.2603 0.01033
vt 0.5 -2.718e-05
vt 0.7396 0.9896
vt 0.5 1
vt 0.9896 0.2604
vt 0.5 1
vt 0.7396 0.9896
vt 0.08333 0.08333
vt 0.7396 0.9896
vt 0.7396 0.9896
vt 1 0.5
vt 0.7396 0.9896
vt 1 0.5
vn 0.6789 -0.4733 0.5613
vn 0.7303 -0.5398 0.4187
vn 0.9027 -0.2293 0.3639
vn 0.8322 -0.1886 0.5214
vn 0.9393 0.1299 0.3174
vn 0.8636 0.1385 0.4847
vn 0.9549 -0.2952 0.03156
vn 0.9948 0.09705 -0.03201
vn 0.7663 -0.6323 0.114
vn -0.1284 0.9601 -0.2486
vn 0.2291 0.8906 -0.3928
vn 0.2506 0.894 -0.3713
vn -0.1156 0.9651 -0.2347
vn 0.2746 0.907 -0.3192
vn -0.09784 0.9759 -0.195
vn 0.5642 0.694 -0.4472
vn 0.5917 0.7088 -0.3839
vn 0.5434 0.6912 -0.4763
vn 0.7763 0.3972 -0.4894
vn 0.7909 0.4062 -0.4577
vn 0.8177 0.4229 -0.3906
vn 0.9127 0.06326 -0.4037
vn 0.936 0.08011 -0.3426
vn 0.9013 0.04666 -0.4307
vn -0.7541 0.6366 0.1614
vn -0.7465 0.6418 0.1754
vn -0.9021 0.2747 0.3327
vn -0.9058 0.2722 0.3247
vn -0.8988 -0.09275 0.4283
vn -0.9005 -0.0932 0.4248
vn -0.923 0.2807 0.2631
vn -0.9196 -0.08948 0.3824
vn -0.7685 0.6325 0.09644
vn -0.5648 -0.6804 0.4669
vn -0.7805 -0.4072 0.4743
vn -0.7852 -0.4084 0.4654
vn -0.5759 -0.676 0.4596
vn -0.7858 -0.4051 0.4673
vn -0.5817 -0.6685 0.4634
vn -0.9029 -0.09363 0.4195
vn -0.9 -0.08579 0.4273
vn -0.906 0.2795 0.3177
vn -0.9105 0.2705 0.3128
vn -0.7624 0.6315 0.1412
vn -0.7592 0.6352 0.1417
vn 0.1109 -0.959 0.2608
vn -0.2584 -0.8803 0.3978
vn -0.2721 -0.8778 0.3943
vn 0.1041 -0.9599 0.2602
vn -0.2781 -0.8714 0.404
vn 0.1071 -0.9553 0.2754
vn 0.7517 -0.6466 -0.1295
vn 0.474 -0.8776 0.07224
vn 0.4752 -0.8766 0.07578
vn 0.7595 -0.6394 -0.1191
vn 0.4844 -0.8693 0.09848
vn 0.7721 -0.6298 -0.08438
vn -0.477 0.8767 -0.06207
vn -0.4739 0.8788 -0.05576
vn -0.4614 0.8868 -0.02658
vn 0.9087 -0.3025 -0.2876
vn 0.8973 -0.3181 -0.3059
vn 0.9269 -0.2889 -0.2392
vn 0.9579 0.05377 -0.2818
vn 0.9069 -0.0539 -0.4178
vn 0.795 0.4076 -0.4492
vn 0.8416 0.4387 -0.3149
vn 0.471 0.7555 -0.4553
vn 0.5824 0.7476 -0.3191
vn 0.5998 0.2902 -0.7456
vn 0.2185 0.6791 -0.7007
vn 0.7104 -0.239 -0.662
vn -0.5863 -0.6641 0.4638
vn -0.2825 -0.8689 0.4064
vn 0.1103 -0.9532 0.2812
vn -0.2907 -0.8959 0.3358
vn 0.09143 -0.976 0.1974
vn -0.5962 -0.6855 0.4178
vn 0.4912 -0.8638 0.1121
vn 0.7782 -0.6256 -0.0546
vn 0.4559 -0.8893 0.03565
vn 0.7389 -0.6652 -0.1074
vn -0.08975 0.9834 -0.1574
vn -0.4514 0.8923 -0.00351
vn -0.4871 0.8703 -0.07221
vn -0.1417 0.9688 -0.203
vn 0.9387 -0.2881 -0.1892
vn 0.9574 0.0856 -0.2759
vn 0.9166 -0.3373 -0.2147
vn 0.6076 0.7292 -0.3147
vn 0.2826 0.9222 -0.264
vn 0.2311 0.9301 -0.2853
vn 0.8411 0.4384 -0.3168
vn -0.7864 -0.403 0.468
vn -0.8016 -0.4118 0.4335
vn -0.5381 0.6367 -0.5523
vn -0.7551 0.1093 -0.6464
vn -0.6878 -0.06409 -0.723
vn -0.6915 0.4719 -0.547
vn -0.4501 -0.00998 -0.8929
vn -0.7543 0.3915 -0.5271
vn -0.1964 -0.8377 -0.5096
vn 0.2804 -0.6257 -0.7279
vn -0.5543 -0.7495 -0.3619
vn -0.9796 -0.06986 0.1885
vn -0.8499 -0.4439 0.2839
vn -0.6081 -0.7597 0.2305
vn -0.8714 -0.4734 -0.1287
vn -0.5569 -0.8084 -0.1906
vn -0.971 -0.02905 -0.2371
vn -0.8102 0.5605 -0.1714
vn -0.9569 0.2902 0.001129
vn -0.8654 0.2818 -0.4142
vn -0.2945 -0.9525 0.07761
vn 0.01776 -0.9968 -0.0773
vn -0.2387 -0.908 -0.3443
vn -0.08039 -0.8874 -0.4538
vn 0.3 -0.9313 -0.2064
vn 0.5665 -0.7693 -0.2951
vn 0.0271 -0.8793 -0.4755
vn 0.2514 -0.8395 -0.4816
vn -0.3142 0.8693 -0.3815
vn -0.5955 0.7443 -0.302
vn 0.7995 -0.4784 -0.3633
vn 0.5377 -0.6449 -0.5431
vn 0.05655 0.9007 -0.4306
vn -0.2178 0.7655 -0.6054
vn -0.4753 -0.7917 -0.3838
vn -0.6819 -0.6424 -0.3497
vn -0.5882 -0.3462 -0.7308
vn -0.3632 -0.698 -0.6171
vn 0.001007 -0.6084 -0.7936
vn 0.02261 -0.3164 -0.9483
vn 0.289 -0.0535 -0.9558
vn 0.0839 0.001984 -0.9965
vn 0.1496 0.2007 -0.9681
vn -0.2181 0.1233 -0.9681
vn -0.4765 0.272 -0.836
vn -0.7587 0.03189 -0.6507
vn -0.9058 0.007263 -0.4235
vn -0.8971 -0.2392 -0.3714
vn -0.9229 -0.3136 -0.2232
vn -0.8317 -0.4593 -0.312
vn -0.763 -0.6121 -0.2076
vn -0.3039 -0.7342 -0.6071
vn -0.1092 -0.7263 -0.6786
vn 0.003784 -0.497 -0.8677
vn -0.8832 -0.3174 -0.3451
vn -0.8196 -0.4401 -0.3668
vn -0.9126 -0.08609 -0.3997
vn -0.38 0.2206 -0.8983
vn -0.6395 0.2658 -0.7214
vn -0.7398 -0.5877 -0.3275
vn -0.8079 -0.4637 -0.3638
vn -0.09857 -0.09485 -0.9906
vn -0.803 -0.4474 -0.3936
vn -0.4314 0.04788 -0.9009
vn -0.3966 -0.2538 -0.8822
vn -0.1684 -0.4505 -0.8768
vn 0.4749 0.2184 -0.8525
vn 0.4003 0.3219 -0.8579
vn 0.5221 0.09897 -0.8471
vn -0.3307 0.158 -0.9304
vn 0.5238 -0.1842 -0.8317
vn -0.02585 -0.4326 -0.9012
vn -0.2317 -0.4398 -0.8677
vn 0.1658 0.4731 -0.8652
vn -0.3392 0.5111 -0.7897
vn -0.4086 -0.5933 -0.6936
vn -0.7861 0.2426 -0.5685
vn -0.2559 -0.9545 -0.1529
vn -0.5047 -0.8611 -0.06079
vn -0.729 -0.6842 -0.02026
vn -0.3539 0.6882 -0.6334
vn 0.1039 0.6682 -0.7367
vn 0.4314 0.5035 -0.7486
vn -0.9707 -0.236 -0.04559
vn -0.993 0.03882 -0.1117
vn -0.9322 0.2848 -0.2232
vn 0.6893 0.02966 -0.7239
vn 0.6494 -0.338 -0.6812
vn 0.4146 -0.722 -0.5538
vn 0.07376 -0.9438 -0.3223
vn 0.6093 0.2949 -0.736
vn -0.7374 0.5391 -0.4068
vn -0.88 -0.4747 -0.01712
vn 0.7448 -0.6574 -0.1143
vn 0.7472 -0.6524 -0.1262
vn 0.8914 -0.3323 -0.3081
vn 0.8894 -0.3454 -0.2994
vn 0.8973 0.03336 -0.4401
vn 0.8979 0.02133 -0.4396
vn -0.7392 0.657 0.1479
vn -0.4709 0.8804 -0.05548
vn -0.4744 0.8783 -0.0589
vn -0.7487 0.6464 0.1471
vn -0.1355 0.9587 -0.2499
vn -0.139 0.9593 -0.2455
vn 0.4808 -0.8724 0.08811
vn 0.4772 -0.8753 0.07822
vn 0.1247 -0.9554 0.2675
vn 0.1372 -0.9516 0.2751
vn -0.2224 -0.8822 0.4149
vn -0.2391 -0.882 0.4062
vn -0.5507 -0.6837 0.4787
vn -0.5385 -0.6848 0.4909
vn -0.8942 -0.04617 0.4452
vn -0.8883 0.3241 0.3254
vn -0.8965 0.3017 0.3245
vn -0.8966 -0.06659 0.4378
vn -0.7708 -0.3944 0.5002
vn -0.7752 -0.4017 0.4875
vn 0.5229 0.6965 -0.4914
vn 0.7682 0.3894 -0.5082
vn 0.77 0.3923 -0.5032
vn 0.5309 0.6926 -0.4883
vn 0.2056 0.8944 -0.3971
vn 0.215 0.8912 -0.3994
vn -0.1136 0.9855 -0.1256
vn 0.2343 0.9407 -0.2452
vn 0.2088 0.9101 -0.3579
vn -0.1329 0.968 -0.2127
vn 0.5323 0.7158 -0.452
vn 0.5722 0.7557 -0.3186
vn 0.8384 0.4356 -0.3274
vn 0.7873 0.4004 -0.4689
vn 0.9178 0.01926 -0.3966
vn 0.9637 0.04047 -0.264
vn -0.5242 -0.6698 0.5258
vn -0.7577 -0.3778 0.5321
vn -0.7622 -0.3846 0.5207
vn -0.5275 -0.6778 0.5121
vn -0.8868 -0.03171 0.461
vn -0.8795 -0.02493 0.4751
vn -0.8675 0.3438 0.3595
vn -0.879 0.338 0.3364
vn -0.7288 0.6654 0.1612
vn -0.7138 0.6708 0.2012
vn 0.1505 -0.931 0.3325
vn -0.2083 -0.8649 0.4566
vn -0.2111 -0.8751 0.4353
vn 0.1468 -0.9434 0.2975
vn 0.7647 -0.6443 0.006043
vn 0.494 -0.8521 0.1727
vn 0.4876 -0.8651 0.1176
vn 0.751 -0.6561 -0.07492
vn -0.4444 0.8953 0.02899
vn -0.4616 0.8864 -0.03317
vn 0.9012 -0.351 -0.2543
vn 0.9295 -0.3391 -0.145
vn 0.7537 -0.6562 -0.03668
vn 0.7656 -0.6418 0.04276
vn 0.9422 -0.3279 -0.06891
vn 0.9345 -0.3304 -0.1323
vn 0.9868 0.05939 -0.1508
vn 0.9781 0.06009 -0.1994
vn -0.7484 0.6612 0.05179
vn -0.4619 0.8856 -0.04761
vn -0.4433 0.8951 0.04697
vn -0.721 0.6684 0.1826
vn -0.105 0.9917 -0.07392
vn -0.1147 0.9826 -0.146
vn 0.4704 -0.8796 0.07041
vn 0.4866 -0.8563 0.1733
vn 0.1379 -0.9445 0.298
vn 0.1208 -0.9797 0.16
vn -0.2543 -0.9435 0.2121
vn -0.2292 -0.8919 0.3899
vn -0.5594 -0.7048 0.4362
vn -0.6043 -0.7641 0.2259
vn -0.9814 -0.06299 0.1815
vn -0.9346 0.3311 0.1299
vn -0.8903 0.3392 0.3036
vn -0.9197 -0.0394 0.3906
vn -0.8654 -0.4536 0.2128
vn -0.8031 -0.4068 0.4354
vn 0.6012 0.7608 -0.2445
vn 0.8612 0.4496 -0.2369
vn 0.8672 0.4573 -0.1968
vn 0.5995 0.775 -0.1999
vn 0.2549 0.9426 -0.2158
vn 0.2534 0.9543 -0.1587
vn -0.09577 0.9954 0.006043
vn 0.288 0.9562 -0.05167
vn 0.2607 0.9315 -0.2534
vn -0.1171 0.9759 -0.184
vn 0.6037 0.7449 -0.284
vn 0.6335 0.7699 -0.07663
vn 0.8802 0.4696 -0.06891
vn 0.8531 0.4418 -0.2776
vn 0.9685 0.06561 -0.24
vn -0.5682 -0.7604 0.3145
vn -0.8466 -0.4368 0.3041
vn -0.8779 -0.4664 0.1082
vn -0.6057 -0.7855 0.1263
vn -0.9948 -0.06156 0.08063
vn -0.9628 -0.02536 0.2691
vn -0.904 0.3686 0.2167
vn -0.9406 0.3368 0.04266
vn -0.7511 0.66 -0.0148
vn -0.7176 0.6793 0.1533
vn 0.1493 -0.9545 0.2582
vn -0.2102 -0.9311 0.2982
vn -0.2482 -0.9605 0.1257
vn 0.1223 -0.9881 0.09281
vn 0.4809 -0.8547 0.1952
vn 0.4647 -0.8852 0.0221
vn 0.7484 -0.6589 -0.07532
vn -0.4433 0.8927 0.08072
vn -0.4673 0.879 -0.09488
vn 0.9303 -0.3245 -0.1708
vn -0.5365 0.6284 0.5632
vn -0.321 0.7992 0.5081
vn -0.3717 0.8512 0.3705
vn -0.6147 0.6591 0.4331
vn -0.05625 0.9455 0.3208
vn -0.03714 0.8806 0.4725
vn 0.4496 -0.6604 0.6014
vn 0.4718 -0.7439 0.4732
vn 0.1755 -0.8317 0.5267
vn 0.1863 -0.7382 0.6483
vn -0.09647 -0.7085 0.6991
vn -0.143 -0.8043 0.5768
vn -0.4612 -0.6424 0.612
vn -0.3789 -0.5547 0.7407
vn -0.7075 0.06214 0.704
vn -0.6745 0.3801 0.6329
vn -0.7745 0.3821 0.5041
vn -0.82 0.02908 0.5716
vn -0.6051 -0.2785 0.7458
vn -0.7116 -0.3442 0.6124
vn 0.5674 0.6916 0.4469
vn 0.7698 0.445 0.4576
vn 0.8356 0.4687 0.2864
vn 0.6115 0.7415 0.276
vn 0.2816 0.8465 0.4518
vn 0.2956 0.911 0.2875
f 1/1/1 2/2/2 3/3/3
f 1/1/1 3/3/3 4/4/4
f 4/4/4 3/3/3 5/5/5
f 4/4/4 5/5/5 6/6/6
f 3/3/3 7/7/7 8/8/8
f 3/3/3 8/8/8 5/5/5
f 2/2/2 9/9/9 7/7/7
f 2/2/2 7/7/7 3/3/3
f 10/10/10 11/11/11 12/12/12
f 10/10/10 12/12/12 13/13/13
f 13/13/13 12/12/12 14/14/14
f 13/13/13 14/14/14 15/15/15
f 12/12/12 16/16/16 17/17/17
f 12/12/12 17/17/17 14/14/14
f 11/11/11 18/18/18 16/16/16
f 11/11/11 16/16/16 12/12/12
f 18/18/18 19/19/19 20/20/20
f 18/18/18 20/20/20 16/16/16
f 16/16/16 20/20/20 21/21/21
f 16/16/16 21/21/21 17/17/17
f 20/20/20 22/22/22 23/23/23
f 20/20/20 23/23/23 21/21/21
f 19/19/19 24/24/24 22/22/22
f 19/19/19 22/22/22 20/20/20
f 25/25/25 26/26/26 27/27/27
f 25/25/25 27/27/27 28/28/28
f 28/28/28 27/27/27 29/29/29
f 28/28/28 29/29/29 30/30/30
f 27/27/27 31/31/31 32/32/32
f 27/27/27 32/32/32 29/29/29
f 26/26/26 33/33/33 31/31/31
f 26/26/26 31/31/31 27/27/27
f 34/34/34 35/35/35 36/36/36
f 34/34/34 36/36/36 37/37/37
f 37/37/37 36/36/36 38/38/38
f 37/37/37 38/38/38 39/39/39
f 36/36/36 40/40/40 30/30/30
f 36/36/36 30/30/30 38/38/38
f 35/35/35 41/41/41 40/40/40
f 35/35/35 40/40/40 36/36/36
f 41/41/41 42/42/42 43/43/43
f 41/41/41 43/43/43 40/40/40
f 40/40/40 43/43/43 28/28/28
f 40/40/40 28/28/28 30/30/30
f 43/43/43 44/44/44 25/25/25
f 43/43/43 25/25/25 28/28/28
f 42/42/42 45/45/45 44/44/44
f 42/42/42 44/44/44 43/43/43
f 46/46/46 47/47/47 48/48/48
f 46/46/46 48/48/48 49/49/49
f 49/49/49 48/48/48 50/50/50
f 49/49/49 50/50/50 51/51/51
f 48/48/48 37/37/37 39/39/39
f 48/48/48 39/39/39 50/50/50
f 47/47/47 34/34/34 37/37/37
f 47/47/47 37/37/37 48/48/48
f 52/52/52 53/53/53 54/54/54
f 52/52/52 54/54/54 55/55/55
f 55/55/55 54/54/54 56/56/56
f 55/55/55 56/56/56 57/57/57
f 54/54/54 49/49/49 51/51/51
f 54/54/54 51/51/51 56/56/56
f 53/53/53 46/46/46 49/49/49
f 53/53/53 49/49/49 54/54/54
f 45/45/45 58/58/58 59/59/59
f 45/45/45 59/59/59 44/44/44
f 44/44/44 59/59/59 60/60/60
f 44/44/44 60/60/60 25/25/25
f 59/59/59 13/13/13 15/15/15
f 59/59/59 15/15/15 60/60/60
f 58/58/58 10/10/10 13/13/13
f 58/58/58 13/13/13 59/59/59
f 52/52/52 55/55/55 61/61/61
f 52/52/52 61/61/61 62/62/62
f 62/62/62 61/61/61 22/22/22
f 62/62/62 22/22/22 24/24/24
f 61/61/61 63/63/63 23/23/23
f 61/61/61 23/23/23 22/22/22
f 55/55/55 57/57/57 63/63/63
f 55/55/55 63/63/63 61/61/61
f 64/64/64 65/65/65 66/66/66
f 64/64/64 66/66/66 67/67/67
f 67/67/67 66/66/66 68/68/68
f 67/67/67 68/68/68 69/69/69
f 66/66/66 70/70/70 71/71/71
f 66/66/66 71/71/71 68/68/68
f 65/65/65 72/72/72 70/70/70
f 65/65/65 70/70/70 66/66/66
f 39/39/39 73/73/73 74/74/74
f 39/39/39 74/74/74 50/50/50
f 50/50/50 74/74/74 75/75/75
f 50/50/50 75/75/75 51/51/51
f 74/74/74 76/76/76 77/77/77
f 74/74/74 77/77/77 75/75/75
f 73/73/73 78/78/78 76/76/76
f 73/73/73 76/76/76 74/74/74
f 51/51/51 75/75/75 79/79/79
f 51/51/51 79/79/79 56/56/56
f 56/56/56 79/79/79 80/80/80
f 56/56/56 80/80/80 57/57/57
f 79/79/79 81/81/81 82/82/82
f 79/79/79 82/82/82 80/80/80
f 75/75/75 77/77/77 81/81/81
f 75/75/75 81/81/81 79/79/79
f 15/15/15 83/83/83 84/84/84
f 15/15/15 84/84/84 60/60/60
f 60/60/60 84/84/84 26/26/26
f 60/60/60 26/26/26 25/25/25
f 84/84/84 85/85/85 33/33/33
f 84/84/84 33/33/33 26/26/26
f 83/83/83 86/86/86 85/85/85
f 83/83/83 85/85/85 84/84/84
f 57/57/57 80/80/80 87/87/87
f 57/57/57 87/87/87 63/63/63
f 63/63/63 87/87/87 88/88/88
f 63/63/63 88/88/88 23/23/23
f 87/87/87 89/89/89 64/64/64
f 87/87/87 64/64/64 88/88/88
f 80/80/80 82/82/82 89/89/89
f 80/80/80 89/89/89 87/87/87
f 17/17/17 90/90/90 91/91/91
f 17/17/17 91/91/91 14/14/14
f 14/14/14 91/91/91 83/83/83
f 14/14/14 83/83/83 15/15/15
f 91/91/91 92/92/92 86/86/86
f 91/91/91 86/86/86 83/83/83
f 90/90/90 69/69/69 92/92/92
f 90/90/90 92/92/92 91/91/91
f 23/23/23 88/88/88 93/93/93
f 23/23/23 93/93/93 21/21/21
f 21/21/21 93/93/93 90/90/90
f 21/21/21 90/90/90 17/17/17
f 93/93/93 67/67/67 69/69/69
f 93/93/93 69/69/69 90/90/90
f 88/88/88 64/64/64 67/67/67
f 88/88/88 67/67/67 93/93/93
f 30/30/30 29/29/29 94/94/94
f 30/30/30 94/94/94 38/38/38
f 38/38/38 94/94/94 73/73/73
f 38/38/38 73/73/73 39/39/39
f 94/94/94 95/95/95 78/78/78
f 94/94/94 78/78/78 73/73/73
f 29/29/29 32/32/32 95/95/95
f 29/29/29 95/95/95 94/94/94
f 96/96/96 97/97/97 98/98/98
f 96/96/96 98/98/98 99/99/99
f 99/99/99 98/98/98 100/100/100
f 99/99/99 100/100/100 101/101/101
f 98/98/98 102/102/102 103/103/103
f 98/98/98 103/103/103 100/100/100
f 97/97/97 104/104/104 102/102/102
f 97/97/97 102/102/102 98/98/98
f 32/32/32 105/105/105 106/106/106
f 32/32/32 106/106/106 95/95/95
f 95/95/95 106/106/106 107/107/107
f 95/95/95 107/107/107 78/78/78
f 106/106/106 108/108/108 109/109/109
f 106/106/106 109/109/109 107/107/107
f 105/105/105 110/110/110 108/108/108
f 105/105/105 108/108/108 106/106/106
f 33/33/33 111/111/111 112/112/112
f 33/33/33 112/112/112 31/31/31
f 31/31/31 112/112/112 105/105/105
f 31/31/31 105/105/105 32/32/32
f 112/112/112 113/113/113 110/110/110
f 112/112/112 110/110/110 105/105/105
f 111/111/111 101/101/101 113/113/113
f 111/111/111 113/113/113 112/112/112
f 78/78/78 107/107/107 114/114/114
f 78/78/78 114/114/114 76/76/76
f 76/76/76 114/114/114 115/115/115
f 76/76/76 115/115/115 77/77/77
f 114/114/114 116/116/116 117/117/117
f 114/114/114 117/117/117 115/115/115
f 107/107/107 109/109/109 116/116/116
f 107/107/107 116/116/116 114/114/114
f 77/77/77 115/115/115 118/118/118
f 77/77/77 118/118/118 81/81/81
f 81/81/81 118/118/118 119/119/119
f 81/81/81 119/119/119 82/82/82
f 118/118/118 120/120/120 121/121/121
f 118/118/118 121/121/121 119/119/119
f 115/115/115 117/117/117 120/120/120
f 115/115/115 120/120/120 118/118/118
f 86/86/86 122/122/122 123/123/123
f 86/86/86 123/123/123 85/85/85
f 85/85/85 123/123/123 111/111/111
f 85/85/85 111/111/111 33/33/33
f 123/123/123 99/99/99 101/101/101
f 123/123/123 101/101/101 111/111/111
f 122/122/122 96/96/96 99/99/99
f 122/122/122 99/99/99 123/123/123
f 82/82/82 119/119/119 124/124/124
f 82/82/82 124/124/124 89/89/89
f 89/89/89 124/124/124 65/65/65
f 89/89/89 65/65/65 64/64/64
f 124/124/124 125/125/125 72/72/72
f 124/124/124 72/72/72 65/65/65
f 119/119/119 121/121/121 125/125/125
f 119/119/119 125/125/125 124/124/124
f 69/69/69 68/68/68 126/126/126
f 69/69/69 126/126/126 92/92/92
f 92/92/92 126/126/126 122/122/122
f 92/92/92 122/122/122 86/86/86
f 126/126/126 127/127/127 96/96/96
f 126/126/126 96/96/96 122/122/122
f 68/68/68 71/71/71 127/127/127
f 68/68/68 127/127/127 126/126/126
f 128/128/128 129/129/129 130/130/130
f 128/128/128 130/130/130 131/131/131
f 132/132/132 131/131/131 130/130/130
f 132/132/132 130/130/130 133/133/133
f 134/134/134 133/133/133 130/130/130
f 134/134/134 130/130/130 135/135/135
f 136/136/136 135/135/135 130/130/130
f 136/136/136 130/130/130 137/137/137
f 138/138/138 137/137/137 130/130/130
f 138/138/138 130/130/130 139/139/139
f 140/140/140 139/139/139 130/130/130
f 140/140/140 130/130/130 141/141/141
f 142/142/142 141/141/141 130/130/130
f 142/142/142 130/130/130 143/143/143
f 144/144/144 143/143/143 130/130/130
f 144/144/144 130/130/130 129/129/129
f 121/121/121 145/145/145 146/146/146
f 121/121/121 146/146/146 125/125/125
f 125/125/125 146/146/146 147/147/147
f 125/125/125 147/147/147 72/72/72
f 146/146/146 148/148/148 149/149/149
f 146/146/146 149/149/149 147/147/147
f 145/145/145 150/150/150 148/148/148
f 145/145/145 148/148/148 146/146/146
f 71/71/71 151/151/151 152/152/152
f 71/71/71 152/152/152 127/127/127
f 127/127/127 152/152/152 97/97/97
f 127/127/127 97/97/97 96/96/96
f 152/152/152 153/153/153 104/104/104
f 152/152/152 104/104/104 97/97/97
f 151/151/151 154/154/154 153/153/153
f 151/151/151 153/153/153 152/152/152
f 72/72/72 147/147/147 155/155/155
f 72/72/72 155/155/155 70/70/70
f 70/70/70 155/155/155 151/151/151
f 70/70/70 151/151/151 71/71/71
f 155/155/155 156/156/156 154/154/154
f 155/155/155 154/154/154 151/151/151
f 147/147/147 149/149/149 156/156/156
f 147/147/147 156/156/156 155/155/155
f 110/110/110 157/157/157 158/158/158
f 110/110/110 158/158/158 108/108/108
f 108/108/108 158/158/158 159/159/159
f 108/108/108 159/159/159 109/109/109
f 158/158/158 160/160/160 161/161/161
f 158/158/158 161/161/161 159/159/159
f 157/157/157 162/162/162 160/160/160
f 157/157/157 160/160/160 158/158/158
f 101/101/101 100/100/100 163/163/163
f 101/101/101 163/163/163 113/113/113
f 113/113/113 163/163/163 157/157/157
f 113/113/113 157/157/157 110/110/110
f 163/163/163 164/164/164 162/162/162
f 163/163/163 162/162/162 157/157/157
f 100/100/100 103/103/103 164/164/164
f 100/100/100 164/164/164 163/163/163
f 109/109/109 159/159/159 165/165/165
f 109/109/109 165/165/165 116/116/116
f 116/116/116 165/165/165 166/166/166
f 116/116/116 166/166/166 117/117/117
f 165/165/165 167/167/167 168/168/168
f 165/165/165 168/168/168 166/166/166
f 159/159/159 161/161/161 167/167/167
f 159/159/159 167/167/167 165/165/165
f 117/117/117 166/166/166 169/169/169
f 117/117/117 169/169/169 120/120/120
f 120/120/120 169/169/169 145/145/145
f 120/120/120 145/145/145 121/121/121
f 169/169/169 170/170/170 150/150/150
f 169/169/169 150/150/150 145/145/145
f 166/166/166 168/168/168 170/170/170
f 166/166/166 170/170/170 169/169/169
f 128/128/128 171/171/171 172/172/172
f 128/128/128 172/172/172 129/129/129
f 129/129/129 172/172/172 173/173/173
f 129/129/129 173/173/173 144/144/144
f 172/172/172 153/153/153 154/154/154
f 172/172/172 154/154/154 173/173/173
f 171/171/171 104/104/104 153/153/153
f 171/171/171 153/153/153 172/172/172
f 138/138/138 174/174/174 175/175/175
f 138/138/138 175/175/175 137/137/137
f 137/137/137 175/175/175 176/176/176
f 137/137/137 176/176/176 136/136/136
f 175/175/175 167/167/167 161/161/161
f 175/175/175 161/161/161 176/176/176
f 174/174/174 168/168/168 167/167/167
f 174/174/174 167/167/167 175/175/175
f 142/142/142 177/177/177 178/178/178
f 142/142/142 178/178/178 141/141/141
f 141/141/141 178/178/178 179/179/179
f 141/141/141 179/179/179 140/140/140
f 178/178/178 148/148/148 150/150/150
f 178/178/178 150/150/150 179/179/179
f 177/177/177 149/149/149 148/148/148
f 177/177/177 148/148/148 178/178/178
f 134/134/134 180/180/180 181/181/181
f 134/134/134 181/181/181 133/133/133
f 133/133/133 181/181/181 182/182/182
f 133/133/133 182/182/182 132/132/132
f 181/181/181 164/164/164 103/103/103
f 181/181/181 103/103/103 182/182/182
f 180/180/180 162/162/162 164/164/164
f 180/180/180 164/164/164 181/181/181
f 132/132/132 182/182/182 183/183/183
f 132/132/132 183/183/183 131/131/131
f 131/131/131 183/183/183 171/171/171
f 131/131/131 171/171/171 128/128/128
f 183/183/183 102/102/102 104/104/104
f 183/183/183 104/104/104 171/171/171
f 182/182/182 103/103/103 102/102/102
f 182/182/182 102/102/102 183/183/183
f 136/136/136 176/176/176 184/184/184
f 136/136/136 184/184/184 135/135/135
f 135/135/135 184/184/184 180/180/180
f 135/135/135 180/180/180 134/134/134
f 184/184/184 160/160/160 162/162/162
f 184/184/184 162/162/162 180/180/180
f 176/176/176 161/161/161 160/160/160
f 176/176/176 160/160/160 184/184/184
f 140/140/140 179/179/179 185/185/185
f 140/140/140 185/185/185 139/139/139
f 139/139/139 185/185/185 174/174/174
f 139/139/139 174/174/174 138/138/138
f 185/185/185 170/170/170 168/168/168
f 185/185/185 168/168/168 174/174/174
f 179/179/179 150/150/150 170/170/170
f 179/179/179 170/170/170 185/185/185
f 144/144/144 173/173/173 186/186/186
f 144/144/144 186/186/186 143/143/143
f 143/143/143 186/186/186 177/177/177
f 143/143/143 177/177/177 142/142/142
f 186/186/186 156/156/156 149/149/149
f 186/186/186 149/149/149 177/177/177
f 173/173/173 154/154/154 156/156/156
f 173/173/173 156/156/156 186/186/186
f 187/187/187 188/188/188 189/189/189
f 187/187/187 189/189/189 190/190/190
f 190/190/190 189/189/189 191/191/191
f 190/190/190 191/191/191 192/192/192
f 189/189/189 62/62/62 24/24/24
f 189/189/189 24/24/24 191/191/191
f 188/188/188 52/52/52 62/62/62
f 188/188/188 62/62/62 189/189/189
f 193/193/193 194/194/194 195/195/195
f 193/193/193 195/195/195 196/196/196
f 196/196/196 195/195/195 58/58/58
f 196/196/196 58/58/58 45/45/45
f 195/195/195 197/197/197 10/10/10
f 195/195/195 10/10/10 58/58/58
f 194/194/194 198/198/198 197/197/197
f 194/194/194 197/197/197 195/195/195
f 187/187/187 199/199/199 200/200/200
f 187/187/187 200/200/200 188/188/188
f 188/188/188 200/200/200 53/53/53
f 188/188/188 53/53/53 52/52/52
f 200/200/200 201/201/201 46/46/46
f 200/200/200 46/46/46 53/53/53
f 199/199/199 202/202/202 201/201/201
f 199/199/199 201/201/201 200/200/200
f 202/202/202 203/203/203 204/204/204
f 202/202/202 204/204/204 201/201/201
f 201/201/201 204/204/204 47/47/47
f 201/201/201 47/47/47 46/46/46
f 204/204/204 205/205/205 34/34/34
f 204/204/204 34/34/34 47/47/47
f 203/203/203 206/206/206 205/205/205
f 203/203/203 205/205/205 204/204/204
f 207/207/207 208/208/208 209/209/209
f 207/207/207 209/209/209 210/210/210
f 210/210/210 209/209/209 42/42/42
f 210/210/210 42/42/42 41/41/41
f 209/209/209 196/196/196 45/45/45
f 209/209/209 45/45/45 42/42/42
f 208/208/208 193/193/193 196/196/196
f 208/208/208 196/196/196 209/209/209
f 206/206/206 211/211/211 212/212/212
f 206/206/206 212/212/212 205/205/205
f 205/205/205 212/212/212 35/35/35
f 205/205/205 35/35/35 34/34/34
f 212/212/212 210/210/210 41/41/41
f 212/212/212 41/41/41 35/35/35
f 211/211/211 207/207/207 210/210/210
f 211/211/211 210/210/210 212/212/212
f 213/213/213 214/214/214 215/215/215
f 213/213/213 215/215/215 216/216/216
f 216/216/216 215/215/215 19/19/19
f 216/216/216 19/19/19 18/18/18
f 215/215/215 191/191/191 24/24/24
f 215/215/215 24/24/24 19/19/19
f 214/214/214 192/192/192 191/191/191
f 214/214/214 191/191/191 215/215/215
f 198/198/198 217/217/217 218/218/218
f 198/198/198 218/218/218 197/197/197
f 197/197/197 218/218/218 11/11/11
f 197/197/197 11/11/11 10/10/10
f 218/218/218 216/216/216 18/18/18
f 218/218/218 18/18/18 11/11/11
f 217/217/217 213/213/213 216/216/216
f 217/217/217 216/216/216 218/218/218
f 219/219/219 220/220/220 221/221/221
f 219/219/219 221/221/221 222/222/222
f 222/222/222 221/221/221 217/217/217
f 222/222/222 217/217/217 198/198/198
f 221/221/221 223/223/223 213/213/213
f 221/221/221 213/213/213 217/217/217
f 220/220/220 224/224/224 223/223/223
f 220/220/220 223/223/223 221/221/221
f 224/224/224 225/225/225 226/226/226
f 224/224/224 226/226/226 223/223/223
f 223/223/223 226/226/226 214/214/214
f 223/223/223 214/214/214 213/213/213
f 226/226/226 227/227/227 192/192/192
f 226/226/226 192/192/192 214/214/214
f 225/225/225 228/228/228 227/227/227
f 225/225/225 227/227/227 226/226/226
f 229/229/229 230/230/230 231/231/231
f 229/229/229 231/231/231 232/232/232
f 232/232/232 231/231/231 211/211/211
f 232/232/232 211/211/211 206/206/206
f 231/231/231 233/233/233 207/207/207
f 231/231/231 207/207/207 211/211/211
f 230/230/230 234/234/234 233/233/233
f 230/230/230 233/233/233 231/231/231
f 234/234/234 235/235/235 236/236/236
f 234/234/234 236/236/236 233/233/233
f 233/233/233 236/236/236 208/208/208
f 233/233/233 208/208/208 207/207/207
f 236/236/236 237/237/237 193/193/193
f 236/236/236 193/193/193 208/208/208
f 235/235/235 238/238/238 237/237/237
f 235/235/235 237/237/237 236/236/236
f 239/239/239 240/240/240 241/241/241
f 239/239/239 241/241/241 242/242/242
f 242/242/242 241/241/241 203/203/203
f 242/242/242 203/203/203 202/202/202
f 241/241/241 232/232/232 206/206/206
f 241/241/241 206/206/206 203/203/203
f 240/240/240 229/229/229 232/232/232
f 240/240/240 232/232/232 241/241/241
f 243/243/243 244/244/244 245/245/245
f 243/243/243 245/245/245 246/246/246
f 246/246/246 245/245/245 199/199/199
f 246/246/246 199/199/199 187/187/187
f 245/245/245 242/242/242 202/202/202
f 245/245/245 202/202/202 199/199/199
f 244/244/244 239/239/239 242/242/242
f 244/244/244 242/242/242 245/245/245
f 238/238/238 247/247/247 248/248/248
f 238/238/238 248/248/248 237/237/237
f 237/237/237 248/248/248 194/194/194
f 237/237/237 194/194/194 193/193/193
f 248/248/248 222/222/222 198/198/198
f 248/248/248 198/198/198 194/194/194
f 247/247/247 219/219/219 222/222/222
f 247/247/247 222/222/222 248/248/248
f 243/243/243 246/246/246 249/249/249
f 243/243/243 249/249/249 250/250/250
f 250/250/250 249/249/249 227/227/227
f 250/250/250 227/227/227 228/228/228
f 249/249/249 190/190/190 192/192/192
f 249/249/249 192/192/192 227/227/227
f 246/246/246 187/187/187 190/190/190
f 246/246/246 190/190/190 249/249/249
f 251/251/251 252/252/252 253/253/253
f 251/251/251 253/253/253 254/254/254
f 254/254/254 253/253/253 255/255/255
f 254/254/254 255/255/255 256/256/256
f 253/253/253 250/250/250 228/228/228
f 253/253/253 228/228/228 255/255/255
f 252/252/252 243/243/243 250/250/250
f 252/252/252 250/250/250 253/253/253
f 257/257/257 258/258/258 259/259/259
f 257/257/257 259/259/259 260/260/260
f 260/260/260 259/259/259 247/247/247
f 260/260/260 247/247/247 238/238/238
f 259/259/259 261/261/261 219/219/219
f 259/259/259 219/219/219 247/247/247
f 258/258/258 262/262/262 261/261/261
f 258/258/258 261/261/261 259/259/259
f 251/251/251 263/263/263 264/264/264
f 251/251/251 264/264/264 252/252/252
f 252/252/252 264/264/264 244/244/244
f 252/252/252 244/244/244 243/243/243
f 264/264/264 265/265/265 239/239/239
f 264/264/264 239/239/239 244/244/244
f 263/263/263 266/266/266 265/265/265
f 263/263/263 265/265/265 264/264/264
f 266/266/266 267/267/267 268/268/268
f 266/266/266 268/268/268 265/265/265
f 265/265/265 268/268/268 240/240/240
f 265/265/265 240/240/240 239/239/239
f 268/268/268 269/269/269 229/229/229
f 268/268/268 229/229/229 240/240/240
f 267/267/267 270/270/270 269/269/269
f 267/267/267 269/269/269 268/268/268
f 271/271/271 272/272/272 273/273/273
f 271/271/271 273/273/273 274/274/274
f 274/274/274 273/273/273 235/235/235
f 274/274/274 235/235/235 234/234/234
f 273/273/273 260/260/260 238/238/238
f 273/273/273 238/238/238 235/235/235
f 272/272/272 257/257/257 260/260/260
f 272/272/272 260/260/260 273/273/273
f 270/270/270 275/275/275 276/276/276
f 270/270/270 276/276/276 269/269/269
f 269/269/269 276/276/276 230/230/230
f 269/269/269 230/230/230 229/229/229
f 276/276/276 274/274/274 234/234/234
f 276/276/276 234/234/234 230/230/230
f 275/275/275 271/271/271 274/274/274
f 275/275/275 274/274/274 276/276/276
f 277/277/277 278/278/278 279/279/279
f 277/277/277 279/279/279 280/280/280
f 280/280/280 279/279/279 225/225/225
f 280/280/280 225/225/225 224/224/224
f 279/279/279 255/255/255 228/228/228
f 279/279/279 228/228/228 225/225/225
f 278/278/278 256/256/256 255/255/255
f 278/278/278 255/255/255 279/279/279
f 262/262/262 281/281/281 282/282/282
f 262/262/262 282/282/282 261/261/261
f 261/261/261 282/282/282 220/220/220
f 261/261/261 220/220/220 219/219/219
f 282/282/282 280/280/280 224/224/224
f 282/282/282 224/224/224 220/220/220
f 281/281/281 277/277/277 280/280/280
f 281/281/281 280/280/280 282/282/282
f 283/283/283 284/284/284 285/285/285
f 283/283/283 285/285/285 286/286/286
f 286/286/286 285/285/285 281/281/281
f 286/286/286 281/281/281 262/262/262
f 285/285/285 287/287/287 277/277/277
f 285/285/285 277/277/277 281/281/281
f 284/284/284 288/288/288 287/287/287
f 284/284/284 287/287/287 285/285/285
f 288/288/288 289/289/289 290/290/290
f 288/288/288 290/290/290 287/287/287
f 287/287/287 290/290/290 278/278/278
f 287/287/287 278/278/278 277/277/277
f 290/290/290 291/291/291 256/256/256
f 290/290/290 256/256/256 278/278/278
f 289/289/289 8/8/8 291/291/291
f 289/289/289 291/291/291 290/290/290
f 292/292/292 293/293/293 294/294/294
f 292/292/292 294/294/294 295/295/295
f 295/295/295 294/294/294 275/275/275
f 295/295/295 275/275/275 270/270/270
f 294/294/294 296/296/296 271/271/271
f 294/294/294 271/271/271 275/275/275
f 293/293/293 297/297/297 296/296/296
f 293/293/293 296/296/296 294/294/294
f 297/297/297 298/298/298 299/299/299
f 297/297/297 299/299/299 296/296/296
f 296/296/296 299/299/299 272/272/272
f 296/296/296 272/272/272 271/271/271
f 299/299/299 300/300/300 257/257/257
f 299/299/299 257/257/257 272/272/272
f 298/298/298 301/301/301 300/300/300
f 298/298/298 300/300/300 299/299/299
f 302/302/302 303/303/303 304/304/304
f 302/302/302 304/304/304 305/305/305
f 305/305/305 304/304/304 267/267/267
f 305/305/305 267/267/267 266/266/266
f 304/304/304 295/295/295 270/270/270
f 304/304/304 270/270/270 267/267/267
f 303/303/303 292/292/292 295/295/295
f 303/303/303 295/295/295 304/304/304
f 9/9/9 306/306/306 307/307/307
f 9/9/9 307/307/307 308/308/308
f 308/308/308 307/307/307 263/263/263
f 308/308/308 263/263/263 251/251/251
f 307/307/307 305/305/305 266/266/266
f 307/307/307 266/266/266 263/263/263
f 306/306/306 302/302/302 305/305/305
f 306/306/306 305/305/305 307/307/307
f 301/301/301 309/309/309 310/310/310
f 301/301/301 310/310/310 300/300/300
f 300/300/300 310/310/310 258/258/258
f 300/300/300 258/258/258 257/257/257
f 310/310/310 286/286/286 262/262/262
f 310/310/310 262/262/262 258/258/258
f 309/309/309 283/283/283 286/286/286
f 309/309/309 286/286/286 310/310/310
f 9/9/9 308/308/308 311/311/311
f 9/9/9 311/311/311 7/7/7
f 7/7/7 311/311/311 291/291/291
f 7/7/7 291/291/291 8/8/8
f 311/311/311 254/254/254 256/256/256
f 311/311/311 256/256/256 291/291/291
f 308/308/308 251/251/251 254/254/254
f 308/308/308 254/254/254 311/311/311
f 312/312/312 313/313/313 314/314/314
f 312/312/312 314/314/314 315/315/315
f 315/315/315 314/314/314 309/309/309
f 315/315/315 309/309/309 301/301/301
f 314/314/314 316/316/316 283/283/283
f 314/314/314 283/283/283 309/309/309
f 313/313/313 317/317/317 316/316/316
f 313/313/313 316/316/316 314/314/314
f 1/1/1 318/318/318 319/319/319
f 1/1/1 319/319/319 2/2/2
f 2/2/2 319/319/319 306/306/306
f 2/2/2 306/306/306 9/9/9
f 319/319/319 320/320/320 302/302/302
f 319/319/319 302/302/302 306/306/306
f 318/318/318 321/321/321 320/320/320
f 318/318/318 320/320/320 319/319/319
f 321/321/321 322/322/322 323/323/323
f 321/321/321 323/323/323 320/320/320
f 320/320/320 323/323/323 303/303/303
f 320/320/320 303/303/303 302/302/302
f 323/323/323 324/324/324 292/292/292
f 323/323/323 292/292/292 303/303/303
f 322/322/322 325/325/325 324/324/324
f 322/322/322 324/324/324 323/323/323
f 326/326/326 327/327/327 328/328/328
f 326/326/326 328/328/328 329/329/329
f 329/329/329 328/328/328 298/298/298
f 329/329/329 298/298/298 297/297/297
f 328/328/328 315/315/315 301/301/301
f 328/328/328 301/301/301 298/298/298
f 327/327/327 312/312/312 315/315/315
f 327/327/327 315/315/315 328/328/328
f 325/325/325 330/330/330 331/331/331
f 325/325/325 331/331/331 324/324/324
f 324/324/324 331/331/331 293/293/293
f 324/324/324 293/293/293 292/292/292
f 331/331/331 329/329/329 297/297/297
f 331/331/331 297/297/297 293/293/293
f 330/330/330 326/326/326 329/329/329
f 330/330/330 329/329/329 331/331/331
f 332/332/332 333/333/333 334/334/334
f 332/332/332 334/334/334 335/335/335
f 335/335/335 334/334/334 289/289/289
f 335/335/335 289/289/289 288/288/288
f 334/334/334 5/5/5 8/8/8
f 334/334/334 8/8/8 289/289/289
f 333/333/333 6/6/6 5/5/5
f 333/333/333 5/5/5 334/334/334
f 317/317/317 336/336/336 337/337/337
f 317/317/317 337/337/337 316/316/316
f 316/316/316 337/337/337 284/284/284
f 316/316/316 284/284/284 283/283/283
f 337/337/337 335/335/335 288/288/288
f 337/337/337 288/288/288 284/284/284
f 336/336/336 332/332/332 335/335/335
f 336/336/336 335/335/335 337/337/337
