v -0.292534 1.47918 0.11961
v -0.294705 1.48145 0.11769
v -0.292856 1.48103 0.11528
v -0.291096 1.47888 0.117699
v -0.29025 1.48105 0.113639
v -0.289056 1.47891 0.116395
v -0.294536 1.48365 0.112655
v -0.291456 1.48367 0.110727
v -0.296728 1.48417 0.115488
v -0.292821 1.48058 0.124076
v -0.295117 1.48333 0.123345
v -0.29549 1.48226 0.120524
v -0.293131 1.47978 0.121851
v -0.297667 1.48515 0.118824
v -0.297236 1.48644 0.122147
v -0.298473 1.4876 0.112877
v -0.296056 1.48703 0.10975
v -0.292659 1.48705 0.107619
v -0.297323 1.49068 0.107026
v -0.293749 1.49067 0.10475
v -0.299865 1.49131 0.110343
v -0.29903 1.49011 0.120209
v -0.299506 1.48869 0.116552
v -0.300952 1.49249 0.114205
v -0.300455 1.49402 0.118028
v -0.287268 1.48152 0.113037
v -0.286712 1.47929 0.115917
v -0.284361 1.48236 0.113534
v -0.284425 1.47994 0.116313
v -0.287935 1.48422 0.110018
v -0.284505 1.48522 0.1106
v -0.288776 1.48766 0.106835
v -0.284995 1.48876 0.107477
v -0.289665 1.49131 0.103911
v -0.285692 1.49248 0.104599
v -0.281353 1.48166 0.119414
v -0.282549 1.48077 0.117548
v -0.281975 1.48345 0.115085
v -0.280453 1.48462 0.117435
v -0.281689 1.48652 0.112421
v -0.279893 1.48792 0.115183
v -0.281892 1.49021 0.109488
v -0.279914 1.49176 0.112535
v -0.282439 1.49402 0.106748
v -0.280375 1.49569 0.10998
v -0.283128 1.49758 0.104463
v -0.281047 1.49939 0.107826
v -0.283861 1.50159 0.101562
v -0.281755 1.50359 0.105047
v -0.286433 1.49593 0.102194
v -0.28724 1.49979 0.0991847
v -0.294672 1.49407 0.102348
v -0.29049 1.4947 0.101462
v -0.291411 1.49849 0.098415
v -0.295727 1.49787 0.0993427
v -0.280546 1.50107 0.111739
v -0.279852 1.49723 0.113813
v -0.281659 1.50238 0.115634
v -0.280914 1.49841 0.117666
v -0.281279 1.50546 0.109046
v -0.282464 1.50695 0.112995
v -0.279402 1.49319 0.116183
v -0.279426 1.48922 0.118494
v -0.280401 1.49429 0.119869
v -0.280329 1.49021 0.121844
v -0.282807 1.49487 0.123024
v -0.282511 1.49074 0.124712
v -0.28622 1.49486 0.125184
v -0.285609 1.49073 0.126675
v -0.283447 1.49905 0.12096
v -0.287031 1.49905 0.123213
v -0.284267 1.5031 0.118956
v -0.287937 1.50316 0.121227
v -0.285177 1.50781 0.116357
v -0.28897 1.50795 0.118654
v -0.292131 1.50252 0.122064
v -0.29114 1.4984 0.124043
v -0.296203 1.50129 0.12138
v -0.295138 1.49723 0.123363
v -0.293287 1.50731 0.119502
v -0.297465 1.50603 0.118812
v -0.290139 1.49424 0.125978
v -0.289166 1.49017 0.127396
v -0.293955 1.49313 0.125325
v -0.292631 1.48916 0.1268
v -0.297069 1.49167 0.123284
v -0.295457 1.48785 0.124944
v -0.2984 1.49568 0.121237
v -0.299518 1.49966 0.119239
v -0.301598 1.49788 0.116005
v -0.300854 1.50426 0.116648
v -0.302967 1.5023 0.113377
v -0.302088 1.49621 0.11214
v -0.300959 1.4949 0.108197
v -0.303442 1.50044 0.109458
v -0.30225 1.49895 0.105428
v -0.299188 1.51204 0.115075
v -0.302767 1.51008 0.112816
v -0.304983 1.50788 0.109397
v -0.304958 1.51663 0.108153
v -0.307303 1.51415 0.104546
v -0.301147 1.5188 0.110536
v -0.305454 1.50576 0.105301
v -0.304157 1.50402 0.101093
v -0.307777 1.51175 0.100227
v -0.30636 1.50978 0.0958169
v -0.303093 1.52574 0.105625
v -0.307092 1.52338 0.103138
v -0.309539 1.52067 0.0993752
v -0.309333 1.53082 0.0974648
v -0.31187 1.52792 0.0935148
v -0.305171 1.53334 0.100092
v -0.310011 1.51803 0.09488
v -0.308493 1.51585 0.0903201
v -0.312346 1.52509 0.0888405
v -0.310753 1.52277 0.084138
v -0.301237 1.50295 0.0973688
v -0.299526 1.49804 0.101853
v -0.297183 1.50269 0.0947564
v -0.303214 1.50853 0.0919574
v -0.298862 1.5082 0.0892714
v -0.305163 1.51447 0.0863754
v -0.30057 1.51409 0.0836513
v -0.307285 1.52137 0.0801018
v -0.302506 1.52104 0.0773237
v -0.292591 1.50332 0.0937901
v -0.288167 1.50474 0.0945874
v -0.293945 1.50886 0.0882766
v -0.289216 1.51041 0.0890884
v -0.295388 1.51478 0.0826397
v -0.290411 1.51643 0.0834525
v -0.297108 1.52182 0.0762798
v -0.291911 1.52354 0.0770875
v -0.283073 1.5151 0.0953751
v -0.285411 1.51261 0.0916196
v -0.286412 1.51879 0.08601
v -0.283965 1.52149 0.089844
v -0.287724 1.52596 0.0796781
v -0.285158 1.52874 0.0835987
v -0.284597 1.50673 0.0970568
v -0.282389 1.50898 0.100685
v -0.283492 1.52413 0.0943669
v -0.282601 1.51751 0.0997492
v -0.28501 1.52632 0.0989014
v -0.284016 1.51948 0.104104
v -0.284669 1.53151 0.0882702
v -0.286268 1.53386 0.0929942
v -0.28192 1.51111 0.10486
v -0.283215 1.51283 0.108989
v -0.286125 1.51387 0.112504
v -0.290171 1.51409 0.114906
v -0.287156 1.5207 0.107815
v -0.291502 1.52101 0.110353
v -0.28834 1.52769 0.102776
v -0.292933 1.52808 0.105429
v -0.289761 1.53536 0.097066
v -0.294567 1.53581 0.0998729
v -0.298116 1.52738 0.106413
v -0.296417 1.52033 0.111292
v -0.29998 1.53509 0.10092
v -0.29476 1.51344 0.115794
v -0.28785 1.54269 0.0858824
v -0.291482 1.54426 0.0902609
v -0.29649 1.54474 0.0933173
v -0.293479 1.55411 0.0823241
v -0.298611 1.55453 0.0856616
v -0.289828 1.55256 0.0775712
v -0.302138 1.54397 0.0944688
v -0.307555 1.54213 0.093573
v -0.304491 1.55369 0.086926
v -0.310157 1.55177 0.085954
v -0.311891 1.53948 0.0907187
v -0.314526 1.53644 0.0864782
v -0.314663 1.54907 0.0828439
v -0.317356 1.54602 0.0782466
v -0.317346 1.55877 0.0742861
v -0.320015 1.55592 0.0693566
v -0.31917 1.56648 0.0671394
v -0.321743 1.56391 0.0620999
v -0.312718 1.56138 0.0775905
v -0.314558 1.56892 0.0704774
v -0.306814 1.56333 0.0786215
v -0.308618 1.57082 0.0715184
v -0.300754 1.56429 0.0772789
v -0.302598 1.57185 0.0701671
v -0.319519 1.57051 0.063164
v -0.321943 1.56819 0.0583908
v -0.318849 1.57214 0.0611348
v -0.321089 1.57008 0.0568796
v -0.315133 1.57274 0.0663087
v -0.314862 1.57414 0.0639357
v -0.30952 1.57451 0.0672892
v -0.309832 1.57572 0.0648091
v -0.303892 1.57549 0.0660184
v -0.304816 1.5766 0.0636775
v -0.31774 1.57281 0.0596786
v -0.31977 1.57101 0.0560171
v -0.316174 1.57141 0.0598161
v -0.317981 1.56983 0.0567201
v -0.31425 1.57455 0.062089
v -0.313184 1.5729 0.061856
v -0.309893 1.57592 0.0628404
v -0.309471 1.57408 0.0624904
v -0.305537 1.57668 0.0618658
v -0.305725 1.57474 0.0616617
v -0.3099 1.56459 0.0651119
v -0.311063 1.56274 0.0638237
v -0.313997 1.56714 0.0622038
v -0.311538 1.5685 0.0638892
v -0.315612 1.56582 0.0596053
v -0.313085 1.56242 0.0617963
v -0.304977 1.56581 0.0649689
v -0.307227 1.56432 0.0653251
v -0.308388 1.56941 0.0644181
v -0.305229 1.57006 0.0637153
v -0.312699 1.56061 0.0570197
v -0.312361 1.56081 0.0600204
v -0.306354 1.56029 0.0614695
v -0.310472 1.5599 0.056135
v -0.309077 1.56057 0.0534809
v -0.306466 1.56052 0.0544072
v -0.304197 1.56183 0.053334
v -0.302618 1.56189 0.0558864
v -0.300949 1.56355 0.0566585
v -0.301299 1.56356 0.0596827
v -0.301343 1.56534 0.0614462
v -0.3032 1.56468 0.0635902
v -0.302562 1.56996 0.0618834
v -0.300663 1.56951 0.0591809
v -0.302616 1.57475 0.0594572
v -0.300491 1.57414 0.0562501
v -0.299877 1.56843 0.0561254
v -0.300222 1.5674 0.0529499
v -0.299603 1.57306 0.0524975
v -0.300141 1.57194 0.0487052
v -0.300813 1.57657 0.060659
v -0.302003 1.57668 0.0592673
v -0.299659 1.57595 0.0554798
v -0.298226 1.5757 0.0562586
v -0.297296 1.57426 0.0511007
v -0.298748 1.57472 0.0510377
v -0.299467 1.57357 0.0465378
v -0.29821 1.573 0.0459022
v -0.297719 1.57173 0.0665727
v -0.299408 1.57545 0.0626302
v -0.296541 1.57444 0.0576943
v -0.294547 1.57056 0.0613612
v -0.29344 1.56866 0.0553107
v -0.295567 1.57278 0.0519225
v -0.296656 1.57132 0.0461589
v -0.294565 1.5669 0.0493295
v -0.295656 1.56401 0.0737257
v -0.292187 1.56264 0.0686277
v -0.288243 1.55019 0.0721824
v -0.290829 1.56047 0.0627899
v -0.291774 1.55828 0.0570721
v -0.288941 1.54761 0.0669297
v -0.286751 1.53749 0.0759852
v -0.286202 1.54027 0.0808817
v -0.291903 1.54536 0.0625556
v -0.294972 1.55669 0.0523084
v -0.297856 1.56595 0.0443145
v -0.299694 1.5554 0.0491761
v -0.302508 1.56529 0.0409856
v -0.296521 1.54344 0.0596917
v -0.289488 1.53485 0.0718988
v -0.293901 1.53255 0.0692177
v -0.302029 1.54179 0.0588326
v -0.305077 1.55402 0.0482041
v -0.307607 1.56422 0.0399106
v -0.310414 1.55267 0.0494859
v -0.312544 1.56275 0.041226
v -0.307621 1.54063 0.0600369
v -0.304889 1.52986 0.0695217
v -0.299312 1.53081 0.0684069
v -0.299769 1.57075 0.0412538
v -0.300976 1.57252 0.041401
v -0.304138 1.57041 0.037952
v -0.304929 1.57223 0.0383272
v -0.308886 1.56953 0.0368604
v -0.309289 1.57142 0.0372975
v -0.313425 1.56807 0.038141
v -0.313459 1.57008 0.0384801
v -0.301851 1.57299 0.0426024
v -0.302153 1.57115 0.0453985
v -0.305353 1.57254 0.0398929
v -0.305204 1.57047 0.0431297
v -0.309302 1.57173 0.038978
v -0.308739 1.56962 0.0423718
v -0.313125 1.57058 0.0400162
v -0.312226 1.56868 0.0432509
v -0.301892 1.56636 0.0503901
v -0.304447 1.56558 0.0484908
v -0.307503 1.56466 0.0480452
v -0.310607 1.564 0.0486422
v -0.313192 1.56351 0.0506943
v -0.315118 1.56369 0.0533714
v -0.315179 1.56789 0.0456909
v -0.317293 1.5677 0.0491516
v -0.315876 1.56447 0.0565829
v -0.318309 1.56845 0.0530031
v -0.316964 1.56853 0.0417788
v -0.316335 1.56937 0.0429215
v -0.318696 1.56882 0.0470408
v -0.319611 1.56771 0.0464863
v -0.321185 1.56837 0.0517663
v -0.319985 1.56949 0.0516136
v -0.316818 1.56122 0.0448247
v -0.317295 1.56638 0.0416945
v -0.320253 1.56549 0.0468211
v -0.320063 1.56061 0.0500558
v -0.321898 1.56168 0.0561116
v -0.322017 1.56626 0.0526704
v -0.312515 1.54026 0.0631592
v -0.315067 1.55167 0.052892
v -0.318526 1.55171 0.0578365
v -0.316084 1.54102 0.0676741
v -0.317796 1.54312 0.0729419
v -0.320321 1.55331 0.0635967
v -0.313359 1.53116 0.0766343
v -0.3098 1.52994 0.0724265
v -0.315008 1.53348 0.0815475
v -0.298342 1.49415 0.104747
v -0.285119 1.48333 0.127095
v -0.28528 1.48692 0.127185
v -0.288285 1.48645 0.127795
v -0.287462 1.48295 0.127573
v -0.291213 1.4856 0.12729
v -0.28975 1.4823 0.127176
v -0.293605 1.4845 0.125717
v -0.291626 1.48147 0.125941
v -0.281641 1.48306 0.123879
v -0.280821 1.48651 0.123091
v -0.282664 1.48694 0.125523
v -0.283079 1.48336 0.125791
v -0.280058 1.48569 0.120249
v -0.281044 1.48246 0.121639
vt 0.08333 0.9167
vt 0.0843 0.08419
vt 0.9151 0.9149
vt 0.01147 0.2613
vt 0.01112 0.261
vt 0.08433 0.9159
vt 0.0004738 0.5001
vt 0.0004723 0.5001
vt 0.01042 0.7396
vt 0.01114 0.7391
vt 0.9886 0.7387
vt 0.9155 0.9154
vt 0.01112 0.261
vt 0.0007095 0.5001
vt 0.01114 0.7391
vt 0.08478 0.08462
vt 0.7389 0.9886
vt 0.01147 0.2613
vt 0.989 0.739
vt 0 0.5
vt 0.01042 0.7396
vt 0.5003 0.0006633
vt 0.7386 0.9883
vt 0.2615 0.01137
vt 0.2612 0.989
vt 0.7386 0.9883
vt 0.9996 0.5
vt 0.2604 0.01042
vt 0.01187 0.7385
vt 0.5 -1.192e-07
vt 0.01114 0.7391
vt 0.7389 0.9886
vt 0.5002 0.0004414
vt 0.2619 0.01169
vt 0.0004723 0.5001
vt 0.08526 0.08505
vt 0.9155 0.9154
vt 0.5002 0.9994
vt 0.9151 0.9149
vt 0.2612 0.01105
vt 0.0009446 0.5001
vt 0.5003 0.9992
vt 0.2612 0.01105
vt 0.2612 0.01105
vt 0.08532 0.9151
vt 0.7389 0.9886
vt 0.5003 0.0008831
vt 0.9994 0.5001
vt 0.01187 0.7385
vt 0.5002 0.0004414
vt 0.08433 0.9159
vt 0.9893 0.7393
vt 0.7391 0.9889
vt 0.9159 0.9158
vt 0.08482 0.9155
vt 0.5002 0.9996
vt 0.0843 0.08419
vt 0.2619 0.01169
vt 0.01114 0.7391
vt 0.9159 0.9158
vt 0.5002 0.9996
vt 0.5002 0.9994
vt 0.9155 0.9154
vt 0.08526 0.08505
vt 0.5 1
vt 0.9155 0.9154
vt 0.9886 0.7387
vt 0.0843 0.08419
vt 0.2604 0.9896
vt 0.2604 0.01042
vt 0.2612 0.989
vt 0.9159 0.9158
vt 0.08333 0.08333
vt 0.989 0.739
vt 0.2604 0.9896
vt 0.7391 0.9889
vt 0.2612 0.01105
vt 0.2619 0.01169
vt 0.2612 0.989
vt 0.9998 0.5
vt 0.08333 0.9167
vt 0.7389 0.9886
vt 0.9893 0.7393
vt 0.5003 0.0008831
vt 0.08433 0.9159
vt 0.9159 0.9158
vt 0.9895 0.7395
vt 0.2615 0.01137
vt 0.9162 0.9162
vt 0.5003 0.0006633
vt 0.2612 0.01106
vt 0.2619 0.9884
vt 0.7393 0.9892
vt 0.9162 0.9162
vt 0.5002 0.000443
vt 0.08532 0.9151
vt 0.9165 0.9165
vt 0.7391 0.9889
vt 0.2615 0.01137
vt 0.0843 0.08419
vt 0.08433 0.9159
vt 0.5003 0.9992
vt 0.7391 0.9889
vt 0.2619 0.01169
vt 0.2612 0.01106
vt 0.2619 0.9884
vt 0.01112 0.261
vt 0.7393 0.9892
vt 0.08478 0.08462
vt 0.01078 0.2607
vt 0.5002 0.9996
vt 0.08482 0.9155
vt 0.5001 0.9998
vt 0.08526 0.08505
vt 0.9895 0.7395
vt 0.2612 0.989
vt 0.5002 0.9996
vt 0.9162 0.9162
vt 0.2615 0.01137
vt 0.08478 0.08462
vt 0.08532 0.9151
vt 0.7393 0.9892
vt 0.5002 0.000443
vt 0.9893 0.7393
vt 0.0115 0.7388
vt 0.7395 0.9895
vt 0.5001 0.000231
vt 0.2612 0.01106
vt 0.01187 0.7385
vt 0.5 0.9999
vt 0.2608 0.01075
vt 0.989 0.739
vt 0.01187 0.7385
vt 0.0115 0.7388
vt 0.5001 0.000231
vt 0.5001 0.9998
vt 0.2608 0.01075
vt 0.989 0.739
vt 0.0007095 0.5001
vt 0.9162 0.9162
vt 0.2605 0.01052
vt 0.9165 0.9165
vt 0.5 7.397e-05
vt 0.08384 0.08378
vt 0.0009446 0.5001
vt 0.9893 0.7393
vt 0.0115 0.7388
vt 0.7395 0.9895
vt 0.2608 0.01075
vt 0.7393 0.9892
vt 0.2612 0.01106
vt 0.08349 0.08348
vt 0.01114 0.7391
vt 0.5002 0.9996
vt 0.2605 0.01052
vt 0.2608 0.01075
vt 0.0004738 0.5001
vt 0.5001 0.9998
vt 0.0843 0.08419
vt 0.0004738 0.5001
vt 0.2608 0.9893
vt 0.5003 0.0006633
vt 0.2612 0.989
vt 0.08384 0.08378
vt 0.7393 0.01078
vt 0.0007095 0.5001
vt 0.01042 0.2604
vt 0.2612 0.989
vt 0.0002471 0.5
vt 0.01078 0.2607
vt 0.08433 0.9159
vt 0.2608 0.9893
vt 0.9998 0.5
vt 0.01112 0.261
vt 0.01114 0.7391
vt 0.08385 0.9162
vt 0.9996 0.5
vt 0.0843 0.08419
vt 0.5003 0.9992
vt 0.08384 0.08378
vt 0.0115 0.7388
vt 0.08433 0.9159
vt 0.01078 0.2607
vt 0.9893 0.2608
vt 0.5002 0.9994
vt 0.2608 0.9893
vt 0.9895 0.2605
vt 0.08349 0.08348
vt 0.2619 0.9884
vt 0.01053 0.2605
vt 0.2615 0.9887
vt 0.2605 0.9895
vt 0.08384 0.08378
vt 0.9165 0.08349
vt 0.2619 0.9884
vt 0.0835 0.9165
vt 0.9163 0.08382
vt 7.91e-05 0.5
vt 0.08482 0.9155
vt 0.0002471 0.5
vt 0.2615 0.9887
vt 0.08385 0.9162
vt 0.01053 0.2605
vt 0.9998 0.5
vt 0.08532 0.9151
vt 0.2615 0.9887
vt 0.5002 0.000443
vt 0.5001 0.9998
vt 0.01078 0.2607
vt 0.9999 0.5
vt 0.2612 0.989
vt 0.08433 0.9159
vt 0.5001 0.000231
vt 0.5 0.9999
vt 0.7391 0.01111
vt 0.01112 0.261
vt 0.9887 0.2614
vt 0.2605 0.9895
vt 0.9884 0.2617
vt 0.01182 0.2617
vt 0.9887 0.2614
vt 0.0009446 0.5001
vt 0.9155 0.08473
vt 0.5002 0.9994
vt 0.7391 0.01111
vt 0.08482 0.9155
vt 0.7393 0.01078
vt 0.2608 0.9893
vt 0.7393 0.01078
vt 0.9163 0.08382
vt 0.5002 0.9996
vt 0.9165 0.9165
vt 0.9895 0.2605
vt 0.9159 0.08426
vt 0.2612 0.989
vt 0.7395 0.01053
vt 0.9166 0.9166
vt 0.7393 0.01078
vt 0.2615 0.9887
vt 0.9165 0.08349
vt 0.7396 0.9896
vt 0.9893 0.2608
vt 0 0.5
vt 0.5001 0.000231
vt 0.7395 0.9895
vt 0.9163 0.08382
vt 0.0004723 0.5001
vt 0.5 7.397e-05
vt 0.7395 0.9895
vt 0.9996 0.5
vt 0.01112 0.261
vt 0.7396 0.9896
vt 0.7395 0.01053
vt 0.5003 0.0008831
vt 0.5 1
vt 0.7387 0.0118
vt 0.01042 0.2604
vt 0.7387 0.0118
vt 0.5 0.9999
vt 0.7389 0.01145
vt 0.7396 0.9896
vt 0.7389 0.01145
vt 0.9151 0.08519
vt 0.08333 0.08333
vt 0.01112 0.261
vt 0.7396 0.9896
vt 0.9155 0.08473
vt 0.7389 0.01145
vt 0.5 1
vt 0.7391 0.01111
vt 0.9893 0.2608
vt 0.01112 0.261
vt 0.0843 0.08419
vt 0.9998 0.5
vt 0.5 1
vt 0.9166 0.9166
vt 0.9155 0.08473
vt 0.9159 0.08426
vt 0.01182 0.2617
vt 0.9167 0.9167
vt 0.5003 0.0006633
vt 0.989 0.2611
vt 0.08526 0.08505
vt 0.7396 0.9896
vt 0.7391 0.01111
vt 0.5002 0.000443
vt 0.0843 0.08419
vt 0.7396 0.9896
vt 0.7389 0.01145
vt 0.989 0.2611
vt 0.0004723 0.5001
vt 0.5 0.9999
vt 0.9151 0.08519
vt 0.5 1
vt 0.9884 0.2617
vt 0.2604 0.9896
vt 0.9994 0.5001
vt 0.9992 0.5001
vt 0.0009446 0.5001
vt 0.2605 0.9895
vt 0.9887 0.2614
vt 0.9996 0.5
vt 0.2605 0.9895
vt 0.989 0.2611
vt 0.0007095 0.5001
vt 0.9994 0.5001
vt 0.2604 0.9896
vt 0.9159 0.08426
vt 0.08335 0.9166
vt 0.9155 0.08473
vt 0.01147 0.2613
vt 0.989 0.2611
vt 0.0835 0.9165
vt 0.9159 0.08426
vt 0.2604 0.9896
vt 0.9887 0.2614
vt 0.01182 0.2617
vt 0.9163 0.08382
vt 0.2604 0.9896
vt 0.9893 0.2608
vt 0.08333 0.9167
vt 0.08335 0.9166
vt 0.5 1
vt 0.01147 0.2613
vt 0.9883 0.7384
vt 0.5 1
vt 0.9994 0.5001
vt 0.9999 0.5
vt 0.01182 0.2617
vt 0.2604 0.9896
vt 0.9992 0.5001
vt 0.08478 0.08462
vt 0.9886 0.7387
vt 0.2604 0.9896
vt 0.9886 0.7387
vt 0.9167 0.9167
vt 0.9883 0.7384
vn -0.6522 -0.7445 -0.1425
vn -0.6813 -0.712 -0.1698
vn -0.4603 -0.7795 -0.4249
vn -0.4404 -0.8057 -0.3961
vn -0.1692 -0.7888 -0.5908
vn -0.1572 -0.8121 -0.5618
vn -0.5078 -0.7148 -0.4808
vn -0.1989 -0.7334 -0.65
vn -0.7457 -0.6292 -0.219
vn -0.7302 -0.4807 0.4854
vn -0.7729 -0.4266 0.4697
vn -0.7949 -0.5895 0.1433
vn -0.7574 -0.6315 0.1661
vn -0.8703 -0.4814 0.1041
vn -0.8497 -0.2898 0.4404
vn -0.7968 -0.5416 -0.2678
vn -0.5496 -0.6431 -0.5331
vn -0.2272 -0.6725 -0.7043
vn -0.5832 -0.5827 -0.566
vn -0.253 -0.6225 -0.7406
vn -0.829 -0.4733 -0.2979
vn -0.9013 -0.1657 0.4002
vn -0.9249 -0.3753 0.06064
vn -0.9513 -0.3063 0.03412
vn -0.9208 -0.1007 0.3768
vn 0.1537 -0.7418 -0.6528
vn 0.1594 -0.765 -0.624
vn 0.4705 -0.6444 -0.6028
vn 0.4708 -0.6706 -0.5732
vn 0.1408 -0.6868 -0.713
vn 0.4723 -0.581 -0.6628
vn 0.1269 -0.6276 -0.7681
vn 0.4707 -0.513 -0.7178
vn 0.1159 -0.5801 -0.8062
vn 0.4719 -0.4558 -0.7546
vn 0.9099 -0.3829 -0.1596
vn 0.7349 -0.5377 -0.4133
vn 0.7402 -0.5054 -0.4435
vn 0.9209 -0.341 -0.1889
vn 0.7541 -0.4251 -0.5006
vn 0.9416 -0.2367 -0.2394
vn 0.7596 -0.3408 -0.5539
vn 0.9479 -0.1338 -0.289
vn 0.763 -0.27 -0.5873
vn 0.9459 -0.05673 -0.3195
vn 0.7738 -0.2522 -0.581
vn 0.9484 -0.03204 -0.3155
vn 0.7863 -0.3024 -0.5387
vn 0.9558 -0.07227 -0.2848
vn 0.4836 -0.4494 -0.7512
vn 0.499 -0.5028 -0.7058
vn -0.2654 -0.6217 -0.7369
vn 0.1166 -0.5817 -0.805
vn 0.1303 -0.636 -0.7606
vn -0.2541 -0.6754 -0.6923
vn 0.9838 0.1787 0.01358
vn 0.9884 0.1513 0.01373
vn 0.8682 0.35 0.3518
vn 0.8773 0.3224 0.3554
vn 0.9868 0.1589 0.02887
vn 0.8657 0.3544 0.3533
vn 0.9962 0.07706 0.04071
vn 0.9954 -0.04297 0.08518
vn 0.8892 0.2558 0.3793
vn 0.8989 0.1224 0.4207
vn 0.6462 0.3721 0.6663
vn 0.6672 0.2302 0.7084
vn 0.3112 0.4082 0.8582
vn 0.3401 0.2619 0.9032
vn 0.6327 0.43 0.6439
vn 0.2984 0.4601 0.8362
vn 0.6223 0.4557 0.6364
vn 0.2896 0.4841 0.8257
vn 0.6147 0.4796 0.6262
vn 0.2792 0.5201 0.8071
vn -0.082 0.435 0.8967
vn -0.07611 0.4111 0.9084
vn -0.4429 0.315 0.8394
vn -0.4397 0.2892 0.8503
vn -0.09192 0.4757 0.8748
vn -0.4504 0.3524 0.8203
vn -0.06452 0.3612 0.9303
vn -0.03076 0.2136 0.9764
vn -0.4281 0.2365 0.8722
vn -0.3898 0.0911 0.9163
vn -0.7246 0.05148 0.6872
vn -0.68 -0.08646 0.7281
vn -0.7385 0.11 0.6652
vn -0.7408 0.1382 0.6573
vn -0.925 -0.07141 0.3731
vn -0.7451 0.1641 0.6464
vn -0.9251 -0.06503 0.3741
vn -0.9595 -0.2797 0.03388
vn -0.8417 -0.4527 -0.294
vn -0.9535 -0.2975 0.04855
vn -0.8303 -0.4906 -0.2644
vn -0.4595 0.3849 0.8004
vn -0.7518 0.1844 0.633
vn -0.9266 -0.06333 0.3706
vn -0.7581 0.2037 0.6195
vn -0.9311 -0.04913 0.3615
vn -0.4666 0.408 0.7848
vn -0.9471 -0.3157 0.05756
vn -0.8164 -0.5238 -0.243
vn -0.9501 -0.3073 0.0539
vn -0.8175 -0.5214 -0.2444
vn -0.4729 0.4238 0.7725
vn -0.7641 0.22 0.6064
vn -0.9361 -0.03125 0.3504
vn -0.771 0.2277 0.5947
vn -0.9401 -0.02078 0.3403
vn -0.4803 0.4314 0.7636
vn -0.9561 -0.2895 0.04535
vn -0.8233 -0.5069 -0.2553
vn -0.9598 -0.2781 0.038
vn -0.8252 -0.4984 -0.2659
vn -0.5708 -0.6599 -0.4885
vn -0.5877 -0.6209 -0.5186
vn -0.2394 -0.7137 -0.6582
vn -0.5682 -0.6606 -0.4907
vn -0.2355 -0.7134 -0.66
vn -0.5693 -0.6476 -0.5064
vn -0.2344 -0.6979 -0.6767
vn -0.5642 -0.6395 -0.5222
vn -0.228 -0.6849 -0.692
vn 0.1402 -0.6741 -0.7252
vn 0.5044 -0.5436 -0.6708
vn 0.1407 -0.6731 -0.726
vn 0.5016 -0.5446 -0.6721
vn 0.1373 -0.6562 -0.7419
vn 0.4942 -0.5302 -0.6889
vn 0.135 -0.6415 -0.7551
vn 0.4833 -0.5201 -0.7042
vn 0.9586 -0.1069 -0.2639
vn 0.7875 -0.3471 -0.5093
vn 0.7824 -0.3342 -0.5254
vn 0.957 -0.0907 -0.2754
vn 0.7735 -0.3282 -0.5422
vn 0.9543 -0.08139 -0.2874
vn 0.7894 -0.3455 -0.5075
vn 0.9587 -0.1093 -0.2626
vn 0.9858 0.166 0.02567
vn 0.9885 0.1469 0.03473
vn 0.8603 0.3884 0.3301
vn 0.8641 0.3697 0.3415
vn 0.9837 0.1791 0.0173
vn 0.8587 0.4009 0.3192
vn 0.9896 0.1384 0.03833
vn 0.8665 0.3554 0.3504
vn 0.6115 0.4997 0.6134
vn 0.2723 0.5525 0.7877
vn 0.6082 0.5193 0.6003
vn 0.2676 0.576 0.7724
vn 0.6056 0.537 0.5871
vn 0.2654 0.5931 0.7601
vn 0.6078 0.548 0.5747
vn 0.2681 0.6036 0.7508
vn -0.1116 0.5535 0.8253
vn -0.1073 0.537 0.8367
vn -0.1141 0.5629 0.8186
vn -0.101 0.5123 0.8528
vn 0.8595 0.4115 0.3032
vn 0.6133 0.5593 0.5576
vn 0.2719 0.6186 0.7371
vn 0.6184 0.578 0.5324
vn 0.2702 0.6458 0.714
vn 0.8621 0.425 0.2759
vn -0.1182 0.5786 0.807
vn -0.4906 0.4431 0.7503
vn -0.1263 0.6091 0.783
vn -0.5012 0.4691 0.7271
vn -0.7807 0.2351 0.5789
vn -0.9453 -0.01325 0.3258
vn -0.7923 0.2512 0.556
vn -0.9538 -0.004181 0.3003
vn -0.802 0.2761 0.5296
vn -0.9641 0.008759 0.2654
vn -0.8066 0.3348 0.487
vn -0.9744 0.06522 0.2149
vn -0.5072 0.5033 0.6995
vn -0.5091 0.5583 0.655
vn -0.136 0.6442 0.7526
vn -0.1495 0.693 0.7052
vn 0.2616 0.6786 0.6863
vn 0.2396 0.7297 0.6404
vn -0.7841 0.4986 0.3695
vn -0.9573 0.2673 0.1095
vn -0.6605 0.7373 0.1418
vn -0.8026 0.5942 -0.05243
vn -0.5032 0.6854 0.5263
vn -0.4518 0.8527 0.2621
vn -0.1791 0.7996 0.5731
vn -0.2182 0.9286 0.3
vn 0.1714 0.8421 0.5114
vn 0.03418 0.9666 0.2538
vn -0.08792 0.8975 -0.4322
vn -0.09491 0.9299 -0.3552
vn 0.6311 0.2465 -0.7354
vn 0.7666 0.4677 -0.4399
vn -0.1281 0.8564 -0.5001
vn 0.3569 0.03986 -0.9333
vn -0.2151 0.8211 -0.5287
vn -0.004212 -0.09754 -0.9952
vn -0.3029 0.8188 -0.4877
vn -0.3948 -0.1349 -0.9088
vn 0.2787 0.195 -0.9404
vn 0.3877 0.5449 -0.7435
vn 0.7014 0.05387 -0.7107
vn 0.4172 -0.152 -0.896
vn 0.8526 0.3029 -0.4259
vn 0.6581 0.5452 -0.5192
vn -0.3881 0.04022 -0.9207
vn -0.1029 0.307 -0.9461
vn 0.04553 -0.2921 -0.9553
vn -0.3544 -0.3249 -0.8768
vn 0.5245 0.8502 0.04474
vn 0.4714 0.8365 -0.2793
vn -0.2298 0.8872 -0.4
vn 0.1649 0.9776 0.1309
vn 0.03858 0.9118 0.4088
vn -0.2308 0.9348 0.2699
vn -0.4446 0.793 0.4164
vn -0.5952 0.7914 0.1391
vn -0.8552 0.5148 0.06043
vn -0.8123 0.5229 -0.2584
vn -0.8544 0.1841 -0.4859
vn -0.6339 0.3037 -0.7113
vn -0.691 -0.263 -0.6732
vn -0.9127 -0.115 -0.3919
vn -0.7234 -0.08472 -0.6851
vn -0.9162 0.0286 -0.3997
vn -0.9922 0.07309 -0.1014
vn -0.9238 0.3173 0.2141
vn -0.9762 0.192 -0.1004
vn -0.8864 0.4132 0.2086
vn 0.2753 0.9538 0.12
vn -0.355 0.8312 -0.4277
vn -0.3766 0.8563 -0.3535
vn 0.4458 0.893 -0.06085
vn 0.5255 0.8199 -0.2271
vn -0.3594 0.9047 -0.2288
vn -0.2649 0.9624 -0.05896
vn 0.5287 0.7692 -0.359
vn 0.6003 0.6601 0.4515
vn 0.5013 0.7992 0.3314
vn 0.7259 0.6827 0.08304
vn 0.8422 0.5065 0.1848
vn 0.9484 0.3013 -0.0987
vn 0.8331 0.5266 -0.1691
vn 0.8358 0.3395 -0.4314
vn 0.9187 0.04291 -0.3927
vn 0.6198 0.6036 0.5014
vn 0.8637 0.444 0.2384
vn 0.9787 0.204 -0.0202
vn 0.9729 0.2248 -0.05408
vn 0.9332 -0.04923 -0.3559
vn 0.9426 -0.06858 -0.3268
vn 0.9499 -0.07602 -0.3031
vn 0.9817 0.1903 0.004303
vn 0.743 -0.3334 -0.5803
vn 0.7277 -0.3217 -0.6058
vn 0.7287 -0.222 -0.6478
vn 0.4388 -0.5107 -0.7393
vn 0.4394 -0.419 -0.7946
vn 0.453 -0.5218 -0.7229
vn 0.7601 -0.33 -0.5597
vn 0.4692 -0.5188 -0.7146
vn 0.1368 -0.6321 -0.7627
vn 0.1351 -0.6178 -0.7747
vn 0.1149 -0.5363 -0.8361
vn -0.1903 -0.6586 -0.728
vn -0.2362 -0.5769 -0.7819
vn -0.1977 -0.6744 -0.7114
vn -0.2146 -0.6784 -0.7026
vn 0.1352 -0.6346 -0.7609
vn 0.7017 0.1553 -0.6953
vn 0.4316 0.7507 -0.5002
vn 0.4196 0.003906 -0.9077
vn 0.1866 0.7323 -0.6549
vn 0.008057 -0.121 -0.9926
vn -0.1787 0.6629 -0.7271
vn -0.4185 -0.1918 -0.8877
vn -0.5333 0.5576 -0.6361
vn -0.1849 0.9808 0.06101
vn -0.659 0.6052 0.4465
vn -0.1868 0.9765 0.1074
vn -0.4155 0.7142 0.5632
vn -0.2409 0.9628 0.122
vn -0.1878 0.7808 0.5959
vn -0.2893 0.9507 0.112
vn 0.05527 0.8283 0.5575
vn -0.7208 0.5233 0.4546
vn -0.4501 0.6699 0.5904
vn -0.1788 0.7581 0.6271
vn 0.1086 0.8046 0.5837
vn 0.4216 0.7927 0.4402
vn 0.6829 0.7018 0.2025
vn 0.329 0.839 0.4333
vn 0.5942 0.779 0.1998
vn 0.8467 0.5194 -0.1153
vn 0.7547 0.6466 -0.1112
vn -0.7457 0.4701 -0.4721
vn -0.2777 0.9583 0.06665
vn -0.1942 0.9789 -0.06339
vn -0.8231 0.4424 -0.356
vn -0.8422 0.4825 -0.2406
vn -0.1138 0.9641 -0.2399
vn -0.5795 -0.5261 -0.6224
vn -0.7266 -0.1786 -0.6634
vn -0.9036 -0.08435 -0.42
vn -0.8429 -0.3846 -0.3764
vn -0.9791 -0.1825 -0.08985
vn -0.983 0.06378 -0.1718
vn -0.5376 -0.6319 -0.5583
vn -0.5316 -0.6147 -0.5827
vn -0.818 -0.4672 -0.3356
vn -0.8199 -0.4849 -0.3042
vn -0.9655 -0.2605 3.052e-05
vn -0.9681 -0.2477 -0.03809
vn -0.8237 -0.4928 -0.2804
vn -0.5525 -0.636 -0.5387
vn -0.9626 -0.2695 0.02576
vn -0.5997 -0.5717 -0.5598
vn 0.3721 -0.006867 0.9282
vn 0.3665 0.07703 0.9272
vn 0.01129 0.02716 0.9995
vn 0.03143 -0.05643 0.9979
vn -0.3334 -0.08811 0.9387
vn -0.3 -0.1657 0.9394
vn -0.611 -0.2485 0.7516
vn -0.5698 -0.3154 0.7588
vn 0.8772 -0.1011 0.4693
vn 0.8912 -0.03381 0.4523
vn 0.6763 0.0557 0.7345
vn 0.6696 -0.02219 0.7424
vn 0.9766 -0.1742 0.1259
vn 0.9618 -0.2284 0.1506
f 1/1/1 2/2/2 3/3/3
f 1/1/1 3/3/3 4/4/4
f 4/4/4 3/3/3 5/5/5
f 4/4/4 5/5/5 6/6/6
f 3/3/3 7/7/7 8/8/8
f 3/3/3 8/8/8 5/5/5
f 2/2/2 9/9/9 7/7/7
f 2/2/2 7/7/7 3/3/3
f 10/10/10 11/11/11 12/12/12
f 10/10/10 12/12/12 13/13/13
f 13/13/13 12/12/12 2/2/2
f 13/13/13 2/2/2 1/1/1
f 12/12/12 14/14/14 9/9/9
f 12/12/12 9/9/9 2/2/2
f 11/11/11 15/15/15 14/14/14
f 11/11/11 14/14/14 12/12/12
f 9/9/9 16/16/16 17/17/17
f 9/9/9 17/17/17 7/7/7
f 7/7/7 17/17/17 18/18/18
f 7/7/7 18/18/18 8/8/8
f 17/17/17 19/19/19 20/20/20
f 17/17/17 20/20/20 18/18/18
f 16/16/16 21/21/21 19/19/19
f 16/16/16 19/19/19 17/17/17
f 15/15/15 22/22/22 23/23/23
f 15/15/15 23/23/23 14/14/14
f 14/14/14 23/23/23 16/16/16
f 14/14/14 16/16/16 9/9/9
f 23/23/23 24/24/24 21/21/21
f 23/23/23 21/21/21 16/16/16
f 22/22/22 25/25/25 24/24/24
f 22/22/22 24/24/24 23/23/23
f 6/6/6 5/5/5 26/26/26
f 6/6/6 26/26/26 27/27/27
f 27/27/27 26/26/26 28/28/28
f 27/27/27 28/28/28 29/29/29
f 26/26/26 30/30/30 31/31/31
f 26/26/26 31/31/31 28/28/28
f 5/5/5 8/8/8 30/30/30
f 5/5/5 30/30/30 26/26/26
f 8/8/8 18/18/18 32/32/32
f 8/8/8 32/32/32 30/30/30
f 30/30/30 32/32/32 33/33/33
f 30/30/30 33/33/33 31/31/31
f 32/32/32 34/34/34 35/35/35
f 32/32/32 35/35/35 33/33/33
f 18/18/18 20/20/20 34/34/34
f 18/18/18 34/34/34 32/32/32
f 36/36/36 37/37/37 38/38/38
f 36/36/36 38/38/38 39/39/39
f 39/39/39 38/38/38 40/40/40
f 39/39/39 40/40/40 41/41/41
f 38/38/38 28/28/28 31/31/31
f 38/38/38 31/31/31 40/40/40
f 37/37/37 29/29/29 28/28/28
f 37/37/37 28/28/28 38/38/38
f 41/41/41 40/40/40 42/42/42
f 41/41/41 42/42/42 43/43/43
f 43/43/43 42/42/42 44/44/44
f 43/43/43 44/44/44 45/45/45
f 42/42/42 33/33/33 35/35/35
f 42/42/42 35/35/35 44/44/44
f 40/40/40 31/31/31 33/33/33
f 40/40/40 33/33/33 42/42/42
f 45/45/45 44/44/44 46/46/46
f 45/45/45 46/46/46 47/47/47
f 47/47/47 46/46/46 48/48/48
f 47/47/47 48/48/48 49/49/49
f 46/46/46 50/50/50 51/51/51
f 46/46/46 51/51/51 48/48/48
f 44/44/44 35/35/35 50/50/50
f 44/44/44 50/50/50 46/46/46
f 20/20/20 52/52/52 53/53/53
f 20/20/20 53/53/53 34/34/34
f 34/34/34 53/53/53 50/50/50
f 34/34/34 50/50/50 35/35/35
f 53/53/53 54/54/54 51/51/51
f 53/53/53 51/51/51 50/50/50
f 52/52/52 55/55/55 54/54/54
f 52/52/52 54/54/54 53/53/53
f 45/45/45 47/47/47 56/56/56
f 45/45/45 56/56/56 57/57/57
f 57/57/57 56/56/56 58/58/58
f 57/57/57 58/58/58 59/59/59
f 56/56/56 60/60/60 61/61/61
f 56/56/56 61/61/61 58/58/58
f 47/47/47 49/49/49 60/60/60
f 47/47/47 60/60/60 56/56/56
f 41/41/41 43/43/43 62/62/62
f 41/41/41 62/62/62 63/63/63
f 63/63/63 62/62/62 64/64/64
f 63/63/63 64/64/64 65/65/65
f 62/62/62 57/57/57 59/59/59
f 62/62/62 59/59/59 64/64/64
f 43/43/43 45/45/45 57/57/57
f 43/43/43 57/57/57 62/62/62
f 65/65/65 64/64/64 66/66/66
f 65/65/65 66/66/66 67/67/67
f 67/67/67 66/66/66 68/68/68
f 67/67/67 68/68/68 69/69/69
f 66/66/66 70/70/70 71/71/71
f 66/66/66 71/71/71 68/68/68
f 64/64/64 59/59/59 70/70/70
f 64/64/64 70/70/70 66/66/66
f 59/59/59 58/58/58 72/72/72
f 59/59/59 72/72/72 70/70/70
f 70/70/70 72/72/72 73/73/73
f 70/70/70 73/73/73 71/71/71
f 72/72/72 74/74/74 75/75/75
f 72/72/72 75/75/75 73/73/73
f 58/58/58 61/61/61 74/74/74
f 58/58/58 74/74/74 72/72/72
f 71/71/71 73/73/73 76/76/76
f 71/71/71 76/76/76 77/77/77
f 77/77/77 76/76/76 78/78/78
f 77/77/77 78/78/78 79/79/79
f 76/76/76 80/80/80 81/81/81
f 76/76/76 81/81/81 78/78/78
f 73/73/73 75/75/75 80/80/80
f 73/73/73 80/80/80 76/76/76
f 69/69/69 68/68/68 82/82/82
f 69/69/69 82/82/82 83/83/83
f 83/83/83 82/82/82 84/84/84
f 83/83/83 84/84/84 85/85/85
f 82/82/82 77/77/77 79/79/79
f 82/82/82 79/79/79 84/84/84
f 68/68/68 71/71/71 77/77/77
f 68/68/68 77/77/77 82/82/82
f 85/85/85 84/84/84 86/86/86
f 85/85/85 86/86/86 87/87/87
f 87/87/87 86/86/86 22/22/22
f 87/87/87 22/22/22 15/15/15
f 86/86/86 88/88/88 25/25/25
f 86/86/86 25/25/25 22/22/22
f 84/84/84 79/79/79 88/88/88
f 84/84/84 88/88/88 86/86/86
f 79/79/79 78/78/78 89/89/89
f 79/79/79 89/89/89 88/88/88
f 88/88/88 89/89/89 90/90/90
f 88/88/88 90/90/90 25/25/25
f 89/89/89 91/91/91 92/92/92
f 89/89/89 92/92/92 90/90/90
f 78/78/78 81/81/81 91/91/91
f 78/78/78 91/91/91 89/89/89
f 25/25/25 90/90/90 93/93/93
f 25/25/25 93/93/93 24/24/24
f 24/24/24 93/93/93 94/94/94
f 24/24/24 94/94/94 21/21/21
f 93/93/93 95/95/95 96/96/96
f 93/93/93 96/96/96 94/94/94
f 90/90/90 92/92/92 95/95/95
f 90/90/90 95/95/95 93/93/93
f 81/81/81 97/97/97 98/98/98
f 81/81/81 98/98/98 91/91/91
f 91/91/91 98/98/98 99/99/99
f 91/91/91 99/99/99 92/92/92
f 98/98/98 100/100/100 101/101/101
f 98/98/98 101/101/101 99/99/99
f 97/97/97 102/102/102 100/100/100
f 97/97/97 100/100/100 98/98/98
f 92/92/92 99/99/99 103/103/103
f 92/92/92 103/103/103 95/95/95
f 95/95/95 103/103/103 104/104/104
f 95/95/95 104/104/104 96/96/96
f 103/103/103 105/105/105 106/106/106
f 103/103/103 106/106/106 104/104/104
f 99/99/99 101/101/101 105/105/105
f 99/99/99 105/105/105 103/103/103
f 102/102/102 107/107/107 108/108/108
f 102/102/102 108/108/108 100/100/100
f 100/100/100 108/108/108 109/109/109
f 100/100/100 109/109/109 101/101/101
f 108/108/108 110/110/110 111/111/111
f 108/108/108 111/111/111 109/109/109
f 107/107/107 112/112/112 110/110/110
f 107/107/107 110/110/110 108/108/108
f 101/101/101 109/109/109 113/113/113
f 101/101/101 113/113/113 105/105/105
f 105/105/105 113/113/113 114/114/114
f 105/105/105 114/114/114 106/106/106
f 113/113/113 115/115/115 116/116/116
f 113/113/113 116/116/116 114/114/114
f 109/109/109 111/111/111 115/115/115
f 109/109/109 115/115/115 113/113/113
f 96/96/96 104/104/104 117/117/117
f 96/96/96 117/117/117 118/118/118
f 118/118/118 117/117/117 119/119/119
f 118/118/118 119/119/119 55/55/55
f 117/117/117 120/120/120 121/121/121
f 117/117/117 121/121/121 119/119/119
f 104/104/104 106/106/106 120/120/120
f 104/104/104 120/120/120 117/117/117
f 106/106/106 114/114/114 122/122/122
f 106/106/106 122/122/122 120/120/120
f 120/120/120 122/122/122 123/123/123
f 120/120/120 123/123/123 121/121/121
f 122/122/122 124/124/124 125/125/125
f 122/122/122 125/125/125 123/123/123
f 114/114/114 116/116/116 124/124/124
f 114/114/114 124/124/124 122/122/122
f 55/55/55 119/119/119 126/126/126
f 55/55/55 126/126/126 54/54/54
f 54/54/54 126/126/126 127/127/127
f 54/54/54 127/127/127 51/51/51
f 126/126/126 128/128/128 129/129/129
f 126/126/126 129/129/129 127/127/127
f 119/119/119 121/121/121 128/128/128
f 119/119/119 128/128/128 126/126/126
f 121/121/121 123/123/123 130/130/130
f 121/121/121 130/130/130 128/128/128
f 128/128/128 130/130/130 131/131/131
f 128/128/128 131/131/131 129/129/129
f 130/130/130 132/132/132 133/133/133
f 130/130/130 133/133/133 131/131/131
f 123/123/123 125/125/125 132/132/132
f 123/123/123 132/132/132 130/130/130
f 134/134/134 135/135/135 136/136/136
f 134/134/134 136/136/136 137/137/137
f 137/137/137 136/136/136 138/138/138
f 137/137/137 138/138/138 139/139/139
f 136/136/136 131/131/131 133/133/133
f 136/136/136 133/133/133 138/138/138
f 135/135/135 129/129/129 131/131/131
f 135/135/135 131/131/131 136/136/136
f 49/49/49 48/48/48 140/140/140
f 49/49/49 140/140/140 141/141/141
f 141/141/141 140/140/140 135/135/135
f 141/141/141 135/135/135 134/134/134
f 140/140/140 127/127/127 129/129/129
f 140/140/140 129/129/129 135/135/135
f 48/48/48 51/51/51 127/127/127
f 48/48/48 127/127/127 140/140/140
f 134/134/134 137/137/137 142/142/142
f 134/134/134 142/142/142 143/143/143
f 143/143/143 142/142/142 144/144/144
f 143/143/143 144/144/144 145/145/145
f 142/142/142 146/146/146 147/147/147
f 142/142/142 147/147/147 144/144/144
f 137/137/137 139/139/139 146/146/146
f 137/137/137 146/146/146 142/142/142
f 49/49/49 141/141/141 148/148/148
f 49/49/49 148/148/148 60/60/60
f 60/60/60 148/148/148 149/149/149
f 60/60/60 149/149/149 61/61/61
f 148/148/148 143/143/143 145/145/145
f 148/148/148 145/145/145 149/149/149
f 141/141/141 134/134/134 143/143/143
f 141/141/141 143/143/143 148/148/148
f 61/61/61 149/149/149 150/150/150
f 61/61/61 150/150/150 74/74/74
f 74/74/74 150/150/150 151/151/151
f 74/74/74 151/151/151 75/75/75
f 150/150/150 152/152/152 153/153/153
f 150/150/150 153/153/153 151/151/151
f 149/149/149 145/145/145 152/152/152
f 149/149/149 152/152/152 150/150/150
f 145/145/145 144/144/144 154/154/154
f 145/145/145 154/154/154 152/152/152
f 152/152/152 154/154/154 155/155/155
f 152/152/152 155/155/155 153/153/153
f 154/154/154 156/156/156 157/157/157
f 154/154/154 157/157/157 155/155/155
f 144/144/144 147/147/147 156/156/156
f 144/144/144 156/156/156 154/154/154
f 153/153/153 155/155/155 158/158/158
f 153/153/153 158/158/158 159/159/159
f 159/159/159 158/158/158 107/107/107
f 159/159/159 107/107/107 102/102/102
f 158/158/158 160/160/160 112/112/112
f 158/158/158 112/112/112 107/107/107
f 155/155/155 157/157/157 160/160/160
f 155/155/155 160/160/160 158/158/158
f 75/75/75 151/151/151 161/161/161
f 75/75/75 161/161/161 80/80/80
f 80/80/80 161/161/161 97/97/97
f 80/80/80 97/97/97 81/81/81
f 161/161/161 159/159/159 102/102/102
f 161/161/161 102/102/102 97/97/97
f 151/151/151 153/153/153 159/159/159
f 151/151/151 159/159/159 161/161/161
f 147/147/147 162/162/162 163/163/163
f 147/147/147 163/163/163 156/156/156
f 156/156/156 163/163/163 164/164/164
f 156/156/156 164/164/164 157/157/157
f 163/163/163 165/165/165 166/166/166
f 163/163/163 166/166/166 164/164/164
f 162/162/162 167/167/167 165/165/165
f 162/162/162 165/165/165 163/163/163
f 157/157/157 164/164/164 168/168/168
f 157/157/157 168/168/168 160/160/160
f 160/160/160 168/168/168 169/169/169
f 160/160/160 169/169/169 112/112/112
f 168/168/168 170/170/170 171/171/171
f 168/168/168 171/171/171 169/169/169
f 164/164/164 166/166/166 170/170/170
f 164/164/164 170/170/170 168/168/168
f 112/112/112 169/169/169 172/172/172
f 112/112/112 172/172/172 110/110/110
f 110/110/110 172/172/172 173/173/173
f 110/110/110 173/173/173 111/111/111
f 172/172/172 174/174/174 175/175/175
f 172/172/172 175/175/175 173/173/173
f 169/169/169 171/171/171 174/174/174
f 169/169/169 174/174/174 172/172/172
f 175/175/175 174/174/174 176/176/176
f 175/175/175 176/176/176 177/177/177
f 177/177/177 176/176/176 178/178/178
f 177/177/177 178/178/178 179/179/179
f 176/176/176 180/180/180 181/181/181
f 176/176/176 181/181/181 178/178/178
f 174/174/174 171/171/171 180/180/180
f 174/174/174 180/180/180 176/176/176
f 171/171/171 170/170/170 182/182/182
f 171/171/171 182/182/182 180/180/180
f 180/180/180 182/182/182 183/183/183
f 180/180/180 183/183/183 181/181/181
f 182/182/182 184/184/184 185/185/185
f 182/182/182 185/185/185 183/183/183
f 170/170/170 166/166/166 184/184/184
f 170/170/170 184/184/184 182/182/182
f 179/179/179 178/178/178 186/186/186
f 179/179/179 186/186/186 187/187/187
f 187/187/187 186/186/186 188/188/188
f 187/187/187 188/188/188 189/189/189
f 186/186/186 190/190/190 191/191/191
f 186/186/186 191/191/191 188/188/188
f 178/178/178 181/181/181 190/190/190
f 178/178/178 190/190/190 186/186/186
f 181/181/181 183/183/183 192/192/192
f 181/181/181 192/192/192 190/190/190
f 190/190/190 192/192/192 193/193/193
f 190/190/190 193/193/193 191/191/191
f 192/192/192 194/194/194 195/195/195
f 192/192/192 195/195/195 193/193/193
f 183/183/183 185/185/185 194/194/194
f 183/183/183 194/194/194 192/192/192
f 189/189/189 188/188/188 196/196/196
f 189/189/189 196/196/196 197/197/197
f 197/197/197 196/196/196 198/198/198
f 197/197/197 198/198/198 199/199/199
f 196/196/196 200/200/200 201/201/201
f 196/196/196 201/201/201 198/198/198
f 188/188/188 191/191/191 200/200/200
f 188/188/188 200/200/200 196/196/196
f 191/191/191 193/193/193 202/202/202
f 191/191/191 202/202/202 200/200/200
f 200/200/200 202/202/202 203/203/203
f 200/200/200 203/203/203 201/201/201
f 202/202/202 204/204/204 205/205/205
f 202/202/202 205/205/205 203/203/203
f 193/193/193 195/195/195 204/204/204
f 193/193/193 204/204/204 202/202/202
f 206/206/206 207/207/207 208/208/208
f 206/206/206 208/208/208 209/209/209
f 209/209/209 208/208/208 198/198/198
f 209/209/209 198/198/198 201/201/201
f 208/208/208 210/210/210 199/199/199
f 208/208/208 199/199/199 198/198/198
f 207/207/207 211/211/211 210/210/210
f 207/207/207 210/210/210 208/208/208
f 212/212/212 213/213/213 214/214/214
f 212/212/212 214/214/214 215/215/215
f 215/215/215 214/214/214 203/203/203
f 215/215/215 203/203/203 205/205/205
f 214/214/214 209/209/209 201/201/201
f 214/214/214 201/201/201 203/203/203
f 213/213/213 206/206/206 209/209/209
f 213/213/213 209/209/209 214/214/214
f 216/216/216 217/217/217 218/218/218
f 216/216/216 218/218/218 219/219/219
f 220/220/220 219/219/219 218/218/218
f 220/220/220 218/218/218 221/221/221
f 222/222/222 221/221/221 218/218/218
f 222/222/222 218/218/218 223/223/223
f 224/224/224 223/223/223 218/218/218
f 224/224/224 218/218/218 225/225/225
f 226/226/226 225/225/225 218/218/218
f 226/226/226 218/218/218 227/227/227
f 212/212/212 227/227/227 218/218/218
f 212/212/212 218/218/218 213/213/213
f 206/206/206 213/213/213 218/218/218
f 206/206/206 218/218/218 207/207/207
f 211/211/211 207/207/207 218/218/218
f 211/211/211 218/218/218 217/217/217
f 226/226/226 227/227/227 228/228/228
f 226/226/226 228/228/228 229/229/229
f 229/229/229 228/228/228 230/230/230
f 229/229/229 230/230/230 231/231/231
f 228/228/228 215/215/215 205/205/205
f 228/228/228 205/205/205 230/230/230
f 227/227/227 212/212/212 215/215/215
f 227/227/227 215/215/215 228/228/228
f 224/224/224 225/225/225 232/232/232
f 224/224/224 232/232/232 233/233/233
f 233/233/233 232/232/232 234/234/234
f 233/233/233 234/234/234 235/235/235
f 232/232/232 229/229/229 231/231/231
f 232/232/232 231/231/231 234/234/234
f 225/225/225 226/226/226 229/229/229
f 225/225/225 229/229/229 232/232/232
f 195/195/195 236/236/236 237/237/237
f 195/195/195 237/237/237 204/204/204
f 204/204/204 237/237/237 230/230/230
f 204/204/204 230/230/230 205/205/205
f 237/237/237 238/238/238 231/231/231
f 237/237/237 231/231/231 230/230/230
f 236/236/236 239/239/239 238/238/238
f 236/236/236 238/238/238 237/237/237
f 239/239/239 240/240/240 241/241/241
f 239/239/239 241/241/241 238/238/238
f 238/238/238 241/241/241 234/234/234
f 238/238/238 234/234/234 231/231/231
f 241/241/241 242/242/242 235/235/235
f 241/241/241 235/235/235 234/234/234
f 240/240/240 243/243/243 242/242/242
f 240/240/240 242/242/242 241/241/241
f 185/185/185 244/244/244 245/245/245
f 185/185/185 245/245/245 194/194/194
f 194/194/194 245/245/245 236/236/236
f 194/194/194 236/236/236 195/195/195
f 245/245/245 246/246/246 239/239/239
f 245/245/245 239/239/239 236/236/236
f 244/244/244 247/247/247 246/246/246
f 244/244/244 246/246/246 245/245/245
f 247/247/247 248/248/248 249/249/249
f 247/247/247 249/249/249 246/246/246
f 246/246/246 249/249/249 240/240/240
f 246/246/246 240/240/240 239/239/239
f 249/249/249 250/250/250 243/243/243
f 249/249/249 243/243/243 240/240/240
f 248/248/248 251/251/251 250/250/250
f 248/248/248 250/250/250 249/249/249
f 166/166/166 165/165/165 252/252/252
f 166/166/166 252/252/252 184/184/184
f 184/184/184 252/252/252 244/244/244
f 184/184/184 244/244/244 185/185/185
f 252/252/252 253/253/253 247/247/247
f 252/252/252 247/247/247 244/244/244
f 165/165/165 167/167/167 253/253/253
f 165/165/165 253/253/253 252/252/252
f 167/167/167 254/254/254 255/255/255
f 167/167/167 255/255/255 253/253/253
f 253/253/253 255/255/255 248/248/248
f 253/253/253 248/248/248 247/247/247
f 255/255/255 256/256/256 251/251/251
f 255/255/255 251/251/251 248/248/248
f 254/254/254 257/257/257 256/256/256
f 254/254/254 256/256/256 255/255/255
f 139/139/139 258/258/258 259/259/259
f 139/139/139 259/259/259 146/146/146
f 146/146/146 259/259/259 162/162/162
f 146/146/146 162/162/162 147/147/147
f 259/259/259 254/254/254 167/167/167
f 259/259/259 167/167/167 162/162/162
f 258/258/258 257/257/257 254/254/254
f 258/258/258 254/254/254 259/259/259
f 257/257/257 260/260/260 261/261/261
f 257/257/257 261/261/261 256/256/256
f 256/256/256 261/261/261 262/262/262
f 256/256/256 262/262/262 251/251/251
f 261/261/261 263/263/263 264/264/264
f 261/261/261 264/264/264 262/262/262
f 260/260/260 265/265/265 263/263/263
f 260/260/260 263/263/263 261/261/261
f 139/139/139 138/138/138 266/266/266
f 139/139/139 266/266/266 258/258/258
f 258/258/258 266/266/266 260/260/260
f 258/258/258 260/260/260 257/257/257
f 266/266/266 267/267/267 265/265/265
f 266/266/266 265/265/265 260/260/260
f 138/138/138 133/133/133 267/267/267
f 138/138/138 267/267/267 266/266/266
f 265/265/265 268/268/268 269/269/269
f 265/265/265 269/269/269 263/263/263
f 263/263/263 269/269/269 270/270/270
f 263/263/263 270/270/270 264/264/264
f 269/269/269 271/271/271 272/272/272
f 269/269/269 272/272/272 270/270/270
f 268/268/268 273/273/273 271/271/271
f 268/268/268 271/271/271 269/269/269
f 125/125/125 274/274/274 275/275/275
f 125/125/125 275/275/275 132/132/132
f 132/132/132 275/275/275 267/267/267
f 132/132/132 267/267/267 133/133/133
f 275/275/275 268/268/268 265/265/265
f 275/275/275 265/265/265 267/267/267
f 274/274/274 273/273/273 268/268/268
f 274/274/274 268/268/268 275/275/275
f 251/251/251 262/262/262 276/276/276
f 251/251/251 276/276/276 250/250/250
f 250/250/250 276/276/276 277/277/277
f 250/250/250 277/277/277 243/243/243
f 276/276/276 278/278/278 279/279/279
f 276/276/276 279/279/279 277/277/277
f 262/262/262 264/264/264 278/278/278
f 262/262/262 278/278/278 276/276/276
f 264/264/264 270/270/270 280/280/280
f 264/264/264 280/280/280 278/278/278
f 278/278/278 280/280/280 281/281/281
f 278/278/278 281/281/281 279/279/279
f 280/280/280 282/282/282 283/283/283
f 280/280/280 283/283/283 281/281/281
f 270/270/270 272/272/272 282/282/282
f 270/270/270 282/282/282 280/280/280
f 243/243/243 277/277/277 284/284/284
f 243/243/243 284/284/284 242/242/242
f 242/242/242 284/284/284 285/285/285
f 242/242/242 285/285/285 235/235/235
f 284/284/284 286/286/286 287/287/287
f 284/284/284 287/287/287 285/285/285
f 277/277/277 279/279/279 286/286/286
f 277/277/277 286/286/286 284/284/284
f 279/279/279 281/281/281 288/288/288
f 279/279/279 288/288/288 286/286/286
f 286/286/286 288/288/288 289/289/289
f 286/286/286 289/289/289 287/287/287
f 288/288/288 290/290/290 291/291/291
f 288/288/288 291/291/291 289/289/289
f 281/281/281 283/283/283 290/290/290
f 281/281/281 290/290/290 288/288/288
f 222/222/222 223/223/223 292/292/292
f 222/222/222 292/292/292 293/293/293
f 293/293/293 292/292/292 285/285/285
f 293/293/293 285/285/285 287/287/287
f 292/292/292 233/233/233 235/235/235
f 292/292/292 235/235/235 285/285/285
f 223/223/223 224/224/224 233/233/233
f 223/223/223 233/233/233 292/292/292
f 220/220/220 221/221/221 294/294/294
f 220/220/220 294/294/294 295/295/295
f 295/295/295 294/294/294 289/289/289
f 295/295/295 289/289/289 291/291/291
f 294/294/294 293/293/293 287/287/287
f 294/294/294 287/287/287 289/289/289
f 221/221/221 222/222/222 293/293/293
f 221/221/221 293/293/293 294/294/294
f 216/216/216 219/219/219 296/296/296
f 216/216/216 296/296/296 297/297/297
f 297/297/297 296/296/296 298/298/298
f 297/297/297 298/298/298 299/299/299
f 296/296/296 295/295/295 291/291/291
f 296/296/296 291/291/291 298/298/298
f 219/219/219 220/220/220 295/295/295
f 219/219/219 295/295/295 296/296/296
f 211/211/211 217/217/217 300/300/300
f 211/211/211 300/300/300 210/210/210
f 210/210/210 300/300/300 301/301/301
f 210/210/210 301/301/301 199/199/199
f 300/300/300 297/297/297 299/299/299
f 300/300/300 299/299/299 301/301/301
f 217/217/217 216/216/216 297/297/297
f 217/217/217 297/297/297 300/300/300
f 283/283/283 302/302/302 303/303/303
f 283/283/283 303/303/303 290/290/290
f 290/290/290 303/303/303 298/298/298
f 290/290/290 298/298/298 291/291/291
f 303/303/303 304/304/304 299/299/299
f 303/303/303 299/299/299 298/298/298
f 302/302/302 305/305/305 304/304/304
f 302/302/302 304/304/304 303/303/303
f 305/305/305 306/306/306 307/307/307
f 305/305/305 307/307/307 304/304/304
f 304/304/304 307/307/307 301/301/301
f 304/304/304 301/301/301 299/299/299
f 307/307/307 197/197/197 199/199/199
f 307/307/307 199/199/199 301/301/301
f 306/306/306 189/189/189 197/197/197
f 306/306/306 197/197/197 307/307/307
f 272/272/272 308/308/308 309/309/309
f 272/272/272 309/309/309 282/282/282
f 282/282/282 309/309/309 302/302/302
f 282/282/282 302/302/302 283/283/283
f 309/309/309 310/310/310 305/305/305
f 309/309/309 305/305/305 302/302/302
f 308/308/308 311/311/311 310/310/310
f 308/308/308 310/310/310 309/309/309
f 311/311/311 312/312/312 313/313/313
f 311/311/311 313/313/313 310/310/310
f 310/310/310 313/313/313 306/306/306
f 310/310/310 306/306/306 305/305/305
f 313/313/313 187/187/187 189/189/189
f 313/313/313 189/189/189 306/306/306
f 312/312/312 179/179/179 187/187/187
f 312/312/312 187/187/187 313/313/313
f 273/273/273 314/314/314 315/315/315
f 273/273/273 315/315/315 271/271/271
f 271/271/271 315/315/315 308/308/308
f 271/271/271 308/308/308 272/272/272
f 315/315/315 316/316/316 311/311/311
f 315/315/315 311/311/311 308/308/308
f 314/314/314 317/317/317 316/316/316
f 314/314/314 316/316/316 315/315/315
f 317/317/317 318/318/318 319/319/319
f 317/317/317 319/319/319 316/316/316
f 316/316/316 319/319/319 312/312/312
f 316/316/316 312/312/312 311/311/311
f 319/319/319 177/177/177 179/179/179
f 319/319/319 179/179/179 312/312/312
f 318/318/318 175/175/175 177/177/177
f 318/318/318 177/177/177 319/319/319
f 116/116/116 320/320/320 321/321/321
f 116/116/116 321/321/321 124/124/124
f 124/124/124 321/321/321 274/274/274
f 124/124/124 274/274/274 125/125/125
f 321/321/321 314/314/314 273/273/273
f 321/321/321 273/273/273 274/274/274
f 320/320/320 317/317/317 314/314/314
f 320/320/320 314/314/314 321/321/321
f 111/111/111 173/173/173 322/322/322
f 111/111/111 322/322/322 115/115/115
f 115/115/115 322/322/322 320/320/320
f 115/115/115 320/320/320 116/116/116
f 322/322/322 318/318/318 317/317/317
f 322/322/322 317/317/317 320/320/320
f 173/173/173 175/175/175 318/318/318
f 173/173/173 318/318/318 322/322/322
f 21/21/21 94/94/94 323/323/323
f 21/21/21 323/323/323 19/19/19
f 19/19/19 323/323/323 52/52/52
f 19/19/19 52/52/52 20/20/20
f 323/323/323 118/118/118 55/55/55
f 323/323/323 55/55/55 52/52/52
f 94/94/94 96/96/96 118/118/118
f 94/94/94 118/118/118 323/323/323
f 324/324/324 325/325/325 326/326/326
f 324/324/324 326/326/326 327/327/327
f 327/327/327 326/326/326 328/328/328
f 327/327/327 328/328/328 329/329/329
f 326/326/326 83/83/83 85/85/85
f 326/326/326 85/85/85 328/328/328
f 325/325/325 69/69/69 83/83/83
f 325/325/325 83/83/83 326/326/326
f 329/329/329 328/328/328 330/330/330
f 329/329/329 330/330/330 331/331/331
f 331/331/331 330/330/330 11/11/11
f 331/331/331 11/11/11 10/10/10
f 330/330/330 87/87/87 15/15/15
f 330/330/330 15/15/15 11/11/11
f 328/328/328 85/85/85 87/87/87
f 328/328/328 87/87/87 330/330/330
f 332/332/332 333/333/333 334/334/334
f 332/332/332 334/334/334 335/335/335
f 335/335/335 334/334/334 325/325/325
f 335/335/335 325/325/325 324/324/324
f 334/334/334 67/67/67 69/69/69
f 334/334/334 69/69/69 325/325/325
f 333/333/333 65/65/65 67/67/67
f 333/333/333 67/67/67 334/334/334
f 36/36/36 39/39/39 336/336/336
f 36/36/36 336/336/336 337/337/337
f 337/337/337 336/336/336 333/333/333
f 337/337/337 333/333/333 332/332/332
f 336/336/336 63/63/63 65/65/65
f 336/336/336 65/65/65 333/333/333
f 39/39/39 41/41/41 63/63/63
f 39/39/39 63/63/63 336/336/336
