v -0.203599 1.08637 0.444752
v -0.20602 1.08593 0.440918
v -0.201599 1.08212 0.43926
v -0.199966 1.08324 0.443378
v -0.196065 1.08033 0.438217
v -0.195414 1.08177 0.442511
v -0.203194 1.08155 0.434382
v -0.196767 1.07947 0.433149
v -0.208328 1.08597 0.436329
v -0.206131 1.09585 0.448358
v -0.209127 1.09756 0.445306
v -0.208649 1.09138 0.443042
v -0.20575 1.09081 0.446502
v -0.211378 1.09228 0.438808
v -0.211927 1.09942 0.441443
v -0.210346 1.08687 0.4305
v -0.204662 1.082 0.428271
v -0.197536 1.07969 0.426839
v -0.205706 1.08366 0.421614
v -0.198253 1.08123 0.420029
v -0.211638 1.08871 0.424035
v -0.214273 1.10152 0.436212
v -0.213701 1.09376 0.433287
v -0.21511 1.09577 0.426999
v -0.215658 1.10367 0.430062
v -0.190204 1.08075 0.437874
v -0.190592 1.08211 0.44223
v -0.184897 1.08321 0.438249
v -0.186227 1.08413 0.442546
v -0.189961 1.07995 0.432742
v -0.183799 1.08281 0.43318
v -0.189991 1.08021 0.426361
v -0.183163 1.08339 0.426869
v -0.190362 1.08177 0.419496
v -0.183226 1.08511 0.420058
v -0.18142 1.09206 0.444831
v -0.18301 1.0876 0.443441
v -0.180987 1.08742 0.439319
v -0.179058 1.09286 0.440994
v -0.179259 1.08771 0.434439
v -0.177019 1.09402 0.436401
v -0.178135 1.08883 0.428327
v -0.175646 1.0958 0.43057
v -0.177974 1.09081 0.421666
v -0.175362 1.09806 0.424102
v -0.178972 1.09347 0.415351
v -0.176413 1.10053 0.417837
v -0.180625 1.09624 0.409974
v -0.178243 1.10289 0.41248
v -0.184102 1.08787 0.413686
v -0.185407 1.09094 0.408283
v -0.19879 1.08408 0.413661
v -0.191074 1.0846 0.413105
v -0.191919 1.08786 0.407692
v -0.199137 1.0874 0.408259
v -0.1769 1.10803 0.420804
v -0.175891 1.10587 0.427066
v -0.180271 1.11481 0.423817
v -0.179385 1.113 0.430121
v -0.178695 1.1099 0.415441
v -0.181835 1.1162 0.418416
v -0.176184 1.10341 0.433357
v -0.177527 1.10098 0.438882
v -0.179573 1.11044 0.436274
v -0.180617 1.10746 0.441508
v -0.185348 1.11571 0.43886
v -0.185861 1.11236 0.443856
v -0.192565 1.11841 0.440652
v -0.192397 1.11491 0.445492
v -0.185373 1.1183 0.432796
v -0.192882 1.12097 0.434637
v -0.186081 1.1198 0.426423
v -0.193387 1.12227 0.428201
v -0.18725 1.12079 0.420959
v -0.194068 1.12304 0.422681
v -0.201104 1.12178 0.428809
v -0.200789 1.12053 0.435266
v -0.208065 1.11849 0.42818
v -0.2079 1.11711 0.434612
v -0.201276 1.12256 0.423269
v -0.207788 1.1195 0.422661
v -0.200142 1.11804 0.441265
v -0.199243 1.11461 0.446051
v -0.206934 1.11472 0.440625
v -0.205363 1.11157 0.445464
v -0.211873 1.10889 0.438812
v -0.209795 1.10621 0.443807
v -0.213099 1.11116 0.432752
v -0.21318 1.11282 0.426383
v -0.215727 1.10568 0.423764
v -0.212583 1.11425 0.420922
v -0.214981 1.10764 0.418366
v -0.215237 1.09815 0.420743
v -0.211874 1.09138 0.417777
v -0.214536 1.10065 0.415384
v -0.211395 1.09433 0.412425
v -0.207479 1.12082 0.419086
v -0.211857 1.1159 0.417289
v -0.214023 1.10968 0.414631
v -0.211121 1.11772 0.414774
v -0.213016 1.11177 0.411906
v -0.207197 1.12238 0.416706
v -0.213571 1.10306 0.411507
v -0.210639 1.09704 0.4084
v -0.21252 1.10539 0.408516
v -0.209771 1.09954 0.405138
v -0.212192 1.1138 0.409497
v -0.211653 1.1076 0.405835
v -0.209053 1.10186 0.402118
v -0.211982 1.10925 0.404152
v -0.209412 1.10365 0.399969
v -0.212524 1.11544 0.40798
v -0.207023 1.12403 0.414591
v -0.210543 1.11955 0.412552
v -0.210923 1.12134 0.41097
v -0.207465 1.12599 0.412873
v -0.194888 1.12408 0.419108
v -0.20151 1.12367 0.419713
v -0.201801 1.12504 0.417381
v -0.195783 1.12535 0.416731
v -0.196631 1.12674 0.41462
v -0.202128 1.12653 0.415302
v -0.202612 1.12855 0.413528
v -0.197127 1.12868 0.412902
v -0.185444 1.11894 0.411967
v -0.187094 1.12035 0.409566
v -0.191359 1.12456 0.412606
v -0.190048 1.12319 0.414821
v -0.191839 1.12631 0.411025
v -0.187559 1.12195 0.408051
v -0.183607 1.11755 0.414685
v -0.188611 1.12192 0.417329
v -0.180219 1.10492 0.408456
v -0.180682 1.11157 0.411567
v -0.182708 1.11314 0.408583
v -0.182198 1.10671 0.4052
v -0.183961 1.10841 0.402184
v -0.184517 1.11469 0.405909
v -0.184994 1.11627 0.404224
v -0.184487 1.11011 0.400019
v -0.184059 1.10062 0.402349
v -0.185565 1.10244 0.398973
v -0.186151 1.10433 0.39611
v -0.189031 1.09775 0.396808
v -0.189622 1.09987 0.393529
v -0.187949 1.09582 0.400434
v -0.182361 1.09862 0.405832
v -0.186718 1.09361 0.404066
v -0.19936 1.09285 0.400407
v -0.199407 1.09505 0.39678
v -0.193901 1.09519 0.39605
v -0.19333 1.09311 0.399765
v -0.194487 1.0975 0.392628
v -0.199909 1.09722 0.393516
v -0.199313 1.09035 0.404042
v -0.192681 1.09073 0.40345
v -0.204729 1.09745 0.398925
v -0.205131 1.09514 0.4023
v -0.205139 1.09945 0.396095
v -0.205613 1.09259 0.405787
v -0.205968 1.08969 0.409931
v -0.206082 1.08647 0.415304
v -0.211515 1.10473 0.3993
v -0.206909 1.10128 0.393883
v -0.201241 1.09948 0.390899
v -0.202962 1.10162 0.388234
v -0.205806 1.10255 0.389637
v -0.208034 1.10391 0.390868
v -0.210418 1.10387 0.394284
v -0.214127 1.10614 0.399151
v -0.195223 1.1008 0.389482
v -0.189385 1.10243 0.390856
v -0.188658 1.10503 0.388074
v -0.191135 1.1043 0.387557
v -0.192914 1.10492 0.387248
v -0.195857 1.10372 0.387872
v -0.199039 1.10365 0.387472
v -0.200374 1.10223 0.387767
v -0.214632 1.11654 0.407803
v -0.214161 1.11007 0.403991
v -0.21665 1.11112 0.403921
v -0.217006 1.11789 0.407645
v -0.215705 1.10974 0.396827
v -0.212028 1.10785 0.392004
v -0.208542 1.10736 0.388137
v -0.214508 1.11865 0.384494
v -0.210897 1.11811 0.380735
v -0.218148 1.12041 0.3892
v -0.218383 1.12126 0.405492
v -0.218095 1.11445 0.401669
v -0.220447 1.12487 0.394176
v -0.220629 1.13131 0.398336
v -0.2061 1.10645 0.385816
v -0.204373 1.10578 0.384785
v -0.20847 1.1173 0.378377
v -0.20692 1.11672 0.377391
v -0.216018 1.13918 0.366629
v -0.213558 1.13835 0.364431
v -0.212008 1.13785 0.363432
v -0.220132 1.16555 0.346108
v -0.218583 1.16514 0.345108
v -0.222626 1.16638 0.348115
v -0.223432 1.14179 0.374296
v -0.219726 1.13992 0.369947
v -0.226439 1.16735 0.350934
v -0.230218 1.16933 0.354836
v -0.229276 1.19471 0.32805
v -0.226812 1.19395 0.326202
v -0.225289 1.19361 0.325236
v -0.233535 1.22242 0.305239
v -0.232035 1.22212 0.304297
v -0.235959 1.2231 0.307025
v -0.23681 1.1976 0.334093
v -0.233062 1.19567 0.33053
v -0.23969 1.22394 0.309397
v -0.243396 1.22577 0.31284
v -0.240487 1.25074 0.28328
v -0.238974 1.25046 0.282303
v -0.247535 1.2785 0.260797
v -0.245975 1.27822 0.259741
v -0.242933 1.25139 0.285143
v -0.250062 1.27916 0.262828
v -0.246705 1.25219 0.287645
v -0.253965 1.27998 0.265612
v -0.250475 1.25401 0.291245
v -0.257897 1.28187 0.269553
v -0.260964 1.30611 0.244323
v -0.25691 1.30529 0.241181
v -0.266257 1.3268 0.227343
v -0.262246 1.32631 0.223694
v -0.265074 1.30804 0.248698
v -0.270322 1.32841 0.232294
v -0.254291 1.30465 0.238938
v -0.252675 1.30437 0.237783
v -0.259652 1.32587 0.221145
v -0.258043 1.32569 0.219849
v -0.262776 1.33928 0.210567
v -0.261167 1.33944 0.208964
v -0.264617 1.34622 0.206827
v -0.262279 1.34729 0.204301
v -0.265088 1.33909 0.213532
v -0.266163 1.34442 0.20994
v -0.268622 1.33899 0.2176
v -0.268608 1.34516 0.212732
v -0.272252 1.33976 0.22325
v -0.271731 1.34525 0.218976
v -0.2666 1.3493 0.208907
v -0.26201 1.35148 0.20415
v -0.261046 1.35161 0.207571
v -0.265037 1.34982 0.211716
v -0.267798 1.34874 0.217904
v -0.270061 1.34852 0.21669
v -0.272787 1.33212 0.238486
v -0.274392 1.34273 0.229962
v -0.273494 1.34722 0.22621
v -0.274201 1.34759 0.235981
v -0.27324 1.35155 0.23217
v -0.272646 1.33719 0.244446
v -0.271583 1.34963 0.224186
v -0.268996 1.34933 0.224681
v -0.271283 1.35315 0.229997
v -0.268646 1.35199 0.230081
v -0.261526 1.34202 0.227311
v -0.258699 1.34166 0.225459
v -0.262317 1.34565 0.218007
v -0.264731 1.34512 0.222722
v -0.258986 1.3469 0.214559
v -0.256951 1.34281 0.221313
v -0.262034 1.34404 0.234975
v -0.261061 1.34215 0.232008
v -0.265626 1.34563 0.228298
v -0.265366 1.34764 0.232896
v -0.253411 1.34224 0.233377
v -0.253565 1.34283 0.222624
v -0.250579 1.34449 0.221245
v -0.248483 1.34435 0.225334
v -0.24615 1.34609 0.227115
v -0.246612 1.34596 0.231843
v -0.246649 1.34808 0.234831
v -0.249365 1.34779 0.23713
v -0.251983 1.3499 0.238429
v -0.254901 1.34798 0.238656
v -0.258359 1.34824 0.238474
v -0.25959 1.34512 0.237208
v -0.26364 1.35077 0.235507
v -0.260869 1.35411 0.236538
v -0.266843 1.35654 0.232647
v -0.263567 1.36109 0.233335
v -0.256927 1.35589 0.236826
v -0.252588 1.35627 0.236473
v -0.258917 1.36368 0.233446
v -0.253564 1.36373 0.233243
v -0.270756 1.3576 0.235355
v -0.269211 1.35873 0.232736
v -0.265354 1.3642 0.233461
v -0.266137 1.36331 0.236529
v -0.25971 1.36664 0.236801
v -0.259852 1.36728 0.23357
v -0.253508 1.36733 0.233347
v -0.252438 1.36694 0.236398
v -0.269328 1.3425 0.248687
v -0.271232 1.35341 0.239764
v -0.265803 1.35869 0.241604
v -0.263364 1.34711 0.251086
v -0.25564 1.3502 0.251823
v -0.258547 1.36197 0.242125
v -0.250571 1.36273 0.24146
v -0.247349 1.35136 0.250938
v -0.26005 1.29039 0.280283
v -0.25682 1.2951 0.284495
v -0.26406 1.32185 0.264471
v -0.267419 1.31692 0.260142
v -0.258083 1.32604 0.26707
v -0.25111 1.29909 0.287083
v -0.24381 1.30187 0.287906
v -0.250431 1.32896 0.26789
v -0.242297 1.33023 0.266925
v -0.236057 1.30308 0.286943
v -0.245217 1.23379 0.322769
v -0.242136 1.23825 0.326856
v -0.249314 1.26677 0.305524
v -0.252429 1.2622 0.301412
v -0.243844 1.27064 0.308095
v -0.236766 1.24203 0.329439
v -0.229902 1.24464 0.330269
v -0.236845 1.27332 0.308919
v -0.229412 1.27446 0.307959
v -0.222616 1.24574 0.329289
v -0.245507 1.2293 0.31767
v -0.25267 1.2576 0.296218
v -0.26024 1.28561 0.274852
v -0.267566 1.31193 0.254413
v -0.223719 1.18692 0.371185
v -0.230071 1.21388 0.350831
v -0.235485 1.21012 0.348257
v -0.229087 1.18281 0.368844
v -0.238604 1.20568 0.344162
v -0.232133 1.17795 0.36498
v -0.238921 1.20118 0.339014
v -0.232382 1.17311 0.359902
v -0.213504 1.14436 0.401912
v -0.217841 1.16252 0.388999
v -0.222897 1.15748 0.387248
v -0.218239 1.13838 0.400797
v -0.22562 1.15153 0.384045
v -0.225659 1.1459 0.379372
v -0.209375 1.19055 0.370995
v -0.215828 1.21754 0.350651
v -0.223161 1.21648 0.351656
v -0.216791 1.18964 0.371926
v -0.199569 1.14788 0.401836
v -0.2037 1.16607 0.388854
v -0.211096 1.16554 0.389532
v -0.206945 1.14771 0.402225
v -0.19699 1.13472 0.41065
v -0.197533 1.1387 0.408314
v -0.204948 1.13866 0.408548
v -0.204116 1.13465 0.410906
v -0.211474 1.13516 0.408337
v -0.210391 1.1313 0.410641
v -0.216113 1.12879 0.407546
v -0.214847 1.12519 0.409743
v -0.208857 1.12846 0.41175
v -0.212776 1.12311 0.41035
v -0.197085 1.1315 0.411775
v -0.203341 1.1314 0.412212
v -0.184653 1.12614 0.407665
v -0.184725 1.12979 0.405429
v -0.190382 1.13532 0.407499
v -0.190114 1.1315 0.409759
v -0.192515 1.14485 0.40063
v -0.186978 1.13977 0.398107
v -0.18621 1.12386 0.407861
v -0.191049 1.12871 0.410395
v -0.181313 1.11436 0.39907
v -0.181348 1.11827 0.396657
v -0.181618 1.12367 0.401589
v -0.181613 1.12004 0.403926
v -0.183979 1.13404 0.393942
v -0.183778 1.12892 0.388917
v -0.183085 1.11197 0.3993
v -0.183431 1.11797 0.404044
v -0.183356 1.11035 0.394027
v -0.183574 1.11456 0.391643
v -0.186055 1.12535 0.38405
v -0.186315 1.1123 0.387669
v -0.188904 1.12299 0.380202
v -0.18534 1.1091 0.3905
v -0.185336 1.10661 0.393778
v -0.186657 1.107 0.389372
v -0.18797 1.11053 0.385463
v -0.190588 1.12131 0.377976
v -0.189098 1.10934 0.38455
v -0.191603 1.12028 0.377118
v -0.195433 1.1425 0.363975
v -0.193726 1.14421 0.366016
v -0.201764 1.16985 0.345602
v -0.200035 1.1716 0.347433
v -0.19648 1.14152 0.363121
v -0.202844 1.16893 0.344762
v -0.190875 1.14679 0.369402
v -0.188565 1.15044 0.373868
v -0.19719 1.17442 0.350308
v -0.194858 1.17817 0.354307
v -0.208585 1.19829 0.325671
v -0.206857 1.19999 0.327344
v -0.2155 1.22676 0.304689
v -0.213768 1.2284 0.306307
v -0.209669 1.19743 0.324865
v -0.216584 1.22593 0.303903
v -0.204033 1.20281 0.329886
v -0.20171 1.20652 0.333568
v -0.210937 1.23111 0.308752
v -0.208607 1.23476 0.312356
v -0.222286 1.25514 0.282695
v -0.220511 1.25677 0.284388
v -0.22881 1.28302 0.260163
v -0.226955 1.28471 0.262017
v -0.223391 1.25431 0.281879
v -0.229958 1.28217 0.259281
v -0.217607 1.25949 0.286973
v -0.215201 1.2632 0.290757
v -0.223917 1.28753 0.264887
v -0.221376 1.2914 0.269024
v -0.234879 1.30934 0.238252
v -0.232924 1.31107 0.240309
v -0.239985 1.33065 0.220426
v -0.237947 1.3322 0.222772
v -0.236084 1.30847 0.237286
v -0.24123 1.32985 0.219338
v -0.229719 1.31396 0.243539
v -0.227015 1.31798 0.24812
v -0.234599 1.33479 0.22651
v -0.23175 1.3385 0.23168
v -0.243586 1.344 0.209856
v -0.241477 1.34488 0.212607
v -0.245328 1.35109 0.2062
v -0.243104 1.3502 0.209115
v -0.244997 1.34346 0.208486
v -0.24785 1.35095 0.203924
v -0.23826 1.34672 0.216758
v -0.235364 1.34944 0.222632
v -0.241271 1.3522 0.211993
v -0.238489 1.35401 0.218413
v -0.245065 1.35492 0.208432
v -0.241585 1.35608 0.216247
v -0.24374 1.35514 0.217567
v -0.24673 1.35467 0.211433
v -0.251108 1.35423 0.207438
v -0.250148 1.35457 0.203929
v -0.240245 1.36031 0.231823
v -0.237867 1.35668 0.225773
v -0.240738 1.35783 0.22381
v -0.242726 1.36072 0.229697
v -0.242922 1.35626 0.224369
v -0.244513 1.35837 0.229832
v -0.234111 1.34744 0.24405
v -0.231414 1.34309 0.238006
v -0.234925 1.3532 0.229489
v -0.23754 1.35734 0.2356
v -0.247178 1.34966 0.217812
v -0.250717 1.34907 0.214471
v -0.244768 1.35042 0.222457
v -0.24419 1.3513 0.228047
v -0.245383 1.3529 0.232703
v -0.248473 1.35475 0.23538
v -0.248387 1.36141 0.232473
v -0.254862 1.348 0.21358
v -0.256133 1.35312 0.206127
v -0.245491 1.3643 0.235107
v -0.247363 1.36452 0.232521
v -0.250319 1.35004 0.203421
v -0.255997 1.35274 0.202369
v -0.259669 1.34779 0.203753
v -0.257771 1.34686 0.204795
v -0.254958 1.34879 0.204048
v -0.251503 1.34828 0.204484
v -0.239758 1.35037 0.248401
v -0.243123 1.36088 0.239491
v -0.229026 1.30248 0.284231
v -0.234912 1.3296 0.264192
v -0.229425 1.32702 0.259759
v -0.223786 1.30002 0.279926
v -0.221194 1.29595 0.274433
v -0.226759 1.32274 0.253957
v -0.216013 1.24507 0.326554
v -0.222672 1.27381 0.305266
v -0.217628 1.27141 0.301068
v -0.211061 1.24271 0.322363
v -0.208536 1.23895 0.31724
v -0.215086 1.26753 0.295825
v -0.19747 1.18656 0.36434
v -0.204196 1.21442 0.343598
v -0.209183 1.21682 0.347848
v -0.202594 1.18942 0.368386
v -0.20165 1.21069 0.338467
v -0.194834 1.18251 0.359305
v -0.188646 1.15514 0.378918
v -0.191458 1.16002 0.383565
v -0.196785 1.16399 0.386904
v -0.242742 1.32943 0.219279
v -0.246601 1.34303 0.208337
v -0.2491 1.34243 0.208851
v -0.245437 1.32896 0.219733
v -0.249697 1.32812 0.22016
v -0.253132 1.34175 0.209183
v -0.257056 1.34067 0.209291
v -0.253907 1.32709 0.220214
v -0.256492 1.32616 0.219826
v -0.259534 1.33995 0.208836
v -0.242031 1.27953 0.260211
v -0.244491 1.27864 0.259805
v -0.251136 1.30481 0.23781
v -0.248585 1.30573 0.238206
v -0.233956 1.28131 0.259747
v -0.238019 1.28052 0.260166
v -0.244431 1.30675 0.238153
v -0.240226 1.30757 0.237726
v -0.220437 1.22511 0.304396
v -0.224361 1.22435 0.304801
v -0.231235 1.25272 0.282774
v -0.227279 1.25348 0.282364
v -0.23514 1.25176 0.282811
v -0.228235 1.22341 0.30483
v -0.230607 1.22253 0.304407
v -0.237533 1.25088 0.282397
v -0.223843 1.19401 0.325344
v -0.217125 1.16554 0.345208
v -0.221445 1.19489 0.325774
v -0.214713 1.16643 0.345638
v -0.217529 1.19584 0.325751
v -0.210768 1.16738 0.345624
v -0.213561 1.19659 0.325351
v -0.206767 1.16811 0.345234
v -0.210572 1.13825 0.363534
v -0.205503 1.1171 0.377503
v -0.208205 1.13917 0.363957
v -0.203178 1.11805 0.377924
v -0.204315 1.1401 0.363954
v -0.199342 1.11895 0.377931
v -0.200359 1.14077 0.363583
v -0.195433 1.11957 0.377577
v -0.202799 1.10618 0.384828
v -0.200539 1.10717 0.385171
v -0.196808 1.10799 0.385229
v -0.193032 1.10866 0.384854
v -0.19059 1.10886 0.384512
v -0.192952 1.11986 0.377151
v -0.197852 1.1411 0.363148
v -0.204235 1.16851 0.344786
v -0.211053 1.19701 0.324898
v -0.217956 1.22552 0.303941
v -0.224778 1.2539 0.281907
v -0.231387 1.28175 0.259289
v -0.237567 1.30803 0.237267
v -0.192303 1.10681 0.451212
v -0.192326 1.11095 0.448798
v -0.198223 1.11071 0.449277
v -0.19715 1.10661 0.451596
v -0.20349 1.10809 0.448768
v -0.201482 1.10446 0.45118
v -0.207299 1.10344 0.44734
v -0.204619 1.10065 0.450017
v -0.183958 1.10154 0.448434
v -0.182167 1.10448 0.445375
v -0.18669 1.10873 0.447393
v -0.187672 1.105 0.450076
v -0.179499 1.09887 0.44312
v -0.181774 1.09697 0.446585
vt 0.08333 0.9167
vt 0.07418 0.08109
vt 0.4999 -0.00134
vt 0.009291 0.2593
vt -0.003274 0.07971
vt 0.08314 0.9168
vt -0.002081 0.2479
vt -2.694e-05 0.5
vt 0.01042 0.7396
vt 0.01031 0.7397
vt 0.9919 0.2582
vt 0.4993 -0.001509
vt 0.007067 0.2572
vt 0.007067 0.2572
vt 0.01031 0.7397
vt 0.08179 0.0818
vt 0.7411 0.008057
vt 0.07418 0.08109
vt 0.9919 0.2579
vt 0 0.5
vt 0.01042 0.7396
vt 0.5 -0.0001147
vt 0.7414 0.008356
vt 0.5 -0.0003679
vt 0.2603 0.9897
vt 0.7414 0.008356
vt 0.9195 0.07979
vt -0.0006917 0.4163
vt 0.01011 0.7399
vt -0.001009 0.4931
vt 0.01031 0.7397
vt 0.7411 0.008057
vt 0.007067 0.2572
vt 0.7413 0.008775
vt -2.694e-05 0.5
vt 0.009291 0.2593
vt 1.002 0.4999
vt 0.9196 0.08014
vt 1.001 0.5
vt -0.002081 0.2479
vt -0.0001378 0.5
vt 0.9195 0.08057
vt 0.7408 0.009267
vt 0.5001 -0.001059
vt 0.08284 0.9171
vt 0.7411 0.008057
vt 0.7408 0.009267
vt 0.9196 0.08014
vt 0.01011 0.7399
vt 0.5001 -0.0007116
vt 0.08314 0.9168
vt 0.9177 0.08237
vt 0.7406 0.007832
vt 1 0.5
vt -0.0007229 0.5
vt 0.9195 0.07979
vt 0.7413 0.008775
vt 0.9184 0.08175
vt 0.01031 0.7397
vt 1.002 0.4998
vt 0.5 1
vt 0.9196 0.08014
vt 1.002 0.4999
vt 0.9191 0.08112
vt 0.5 1
vt 0.4993 -0.001509
vt 0.9919 0.2582
vt 0.9195 0.08057
vt 0.2604 0.9896
vt 0.7413 0.008775
vt 0.2603 0.9897
vt 0.4985 -0.001611
vt 0.7414 0.008356
vt 0.9919 0.2579
vt 0.2604 0.9896
vt 0.7406 0.007832
vt 0.9191 0.08112
vt 0.4999 -0.00134
vt 0.2603 0.9897
vt 0.9193 0.07945
vt 0.08333 0.9167
vt 0.7411 0.008057
vt 0.9919 0.2576
vt 0.5001 -0.001059
vt 0.08314 0.9168
vt 0.4985 -0.001611
vt 0.9919 0.2572
vt 0.7414 0.008356
vt 0.4977 -0.001701
vt 0.7413 0.008775
vt 0.7403 0.009753
vt 0.2601 0.9898
vt 0.7399 0.007619
vt 1.002 0.4996
vt 0.7399 0.01013
vt 0.08284 0.9171
vt 0.7403 0.009753
vt 0.7406 0.007832
vt 0.7399 0.01013
vt 0.9171 0.08287
vt 0.08314 0.9168
vt 0.2601 0.9898
vt 0.7406 0.007832
vt 1.002 0.4995
vt 0.9177 0.08237
vt 0.5 1
vt 0.7403 0.009753
vt 0.7399 0.007619
vt 0.9913 0.2589
vt 0.9191 0.08112
vt 0.08236 0.9176
vt 0.5 1
vt 0.7408 0.009267
vt 0.9193 0.07945
vt 0.9919 0.2572
vt 0.2603 0.9897
vt 0.5 -0.0003679
vt 0.9195 0.07979
vt 0.9184 0.08175
vt 0.08284 0.9171
vt 0.9177 0.08237
vt 0.7399 0.007619
vt 0.9919 0.2576
vt 0.08236 0.9176
vt 0.009733 0.7402
vt 0.7403 0.009753
vt 0.7393 0.007406
vt 0.5001 -0.0007116
vt 1.002 0.4998
vt 0.01011 0.7399
vt 0.7408 0.009267
vt 0.9192 0.0791
vt 0.9903 0.2598
vt 0.9193 0.07945
vt 0.9171 0.08287
vt 0.01011 0.7399
vt 0.9177 0.08237
vt 0.4977 -0.001701
vt 1.002 0.4996
vt 0.009733 0.7402
vt 0.9899 0.2601
vt 0.4968 -0.001792
vt 0.9919 0.2576
vt 0.9899 0.2601
vt -0.0001378 0.5
vt -0.0003884 0.5
vt 0.7393 0.007406
vt 0.9903 0.2598
vt 0.009733 0.7402
vt 1 0.5
vt 0.7399 0.007619
vt 1 0.5
vt 0.9908 0.2593
vt 0.00926 0.7407
vt 0.9903 0.2598
vt 0.4985 -0.001611
vt 0.2474 -0.002563
vt 0.9908 0.2593
vt 0.9903 0.2598
vt 0.2471 -0.002693
vt 1.001 0.5
vt 0.4977 -0.001701
vt 0.9184 0.08175
vt 0.4977 -0.001701
vt 0.9184 0.08175
vt -0.0003884 0.5
vt 1.001 0.5001
vt 0.5 1
vt 0.9913 0.2589
vt 0.08176 0.9183
vt 0.2471 -0.002693
vt 0.9198 0.9198
vt 0.5 -1.216e-05
vt 0.4996 0.9998
vt 0.2572 0.008796
vt 0.4992 0.9997
vt 0.07418 0.08109
vt 0.7415 0.992
vt 0.9919 0.2579
vt 0.2468 -0.002823
vt 0.9908 0.2593
vt 0.009733 0.7402
vt 0.9908 0.2593
vt 0.4968 -0.001792
vt 1.001 0.5
vt 0.9917 0.2585
vt 0.5001 1
vt 0.00926 0.7407
vt 0.9919 0.7417
vt 0.2471 -0.002693
vt 1.002 0.4998
vt 0.009765 0.2598
vt -0.001995 -0.005078
vt 0.9919 0.2579
vt 0.9913 0.2589
vt 0.2598 0.9902
vt 1.001 0.5
vt -0.001252 -0.005353
vt 0.9919 0.2576
vt 1.001 0.5001
vt 0.2601 0.9898
vt 0.2601 0.9898
vt 0.9193 0.07945
vt 0.2468 -0.002823
vt 0.9191 0.08112
vt 0.2598 0.9902
vt 0.9195 0.08057
vt 0.2474 -0.002563
vt 0.9195 0.07979
vt 0.9917 0.2585
vt 0.08284 0.9171
vt 0.08236 0.9176
vt 0.992 0.7419
vt -0.002739 -0.004802
vt 0.9913 0.2589
vt 0.2598 0.9902
vt -0.001995 -0.005078
vt 1.002 0.4995
vt 0.9913 0.7412
vt 0.08236 0.9176
vt 1.001 0.5
vt 0.2594 0.9907
vt 0.2471 -0.002693
vt 1.001 0.5001
vt 0.992 0.7419
vt 0.08176 0.9183
vt 0.4999 -0.00134
vt 0.9908 0.7407
vt 0.9913 0.7412
vt 0.5001 1
vt 0.9199 0.9202
vt 0.2594 0.9907
vt 0.2498 0.006572
vt 1.002 0.4996
vt 0.9908 0.7407
vt 0.5001 1.001
vt 0.2477 -0.0006719
vt 0.9199 0.9204
vt 0.9184 0.9183
vt 0 0.5
vt 0.9191 0.9189
vt 0.2598 0.9902
vt 0.4993 -0.001509
vt 0.9913 0.7412
vt 0.9196 0.9194
vt -2.694e-05 0.5
vt 0.4993 -0.001509
vt 0.992 0.7419
vt 0.01042 0.2604
vt 1.001 0.5001
vt 0.01042 0.2604
vt 0.9191 0.9189
vt 0.9919 0.7418
vt 0.2477 -0.0006719
vt 0.9917 0.7415
vt 0.9919 0.7418
vt 0.01033 0.2603
vt -0.0001378 0.5
vt 0.2474 -0.002563
vt 1.001 0.5
vt 0.992 0.7419
vt 0.01033 0.2603
vt 0.08316 0.08319
vt 0.9913 0.7412
vt 0.4985 -0.001611
vt 0.9917 0.7415
vt 0.9198 0.92
vt 0.08333 0.08333
vt 0.01033 0.2603
vt 1 0.5
vt 0.2477 -0.0006719
vt 0.9903 0.7403
vt -0.003364 0.005968
vt 0.7416 0.9918
vt 0.2594 0.009309
vt 0.74 0.9917
vt 0.08179 0.0818
vt 0.4894 1
vt 0.2601 0.01017
vt 0.4161 1.001
vt 0.08287 0.08292
vt 0.9899 0.7399
vt 0.01013 0.2601
vt 1 0.5
vt -0.002739 -0.004802
vt 0.9899 0.7399
vt 0.9903 0.7403
vt 0.08316 0.08319
vt 0.2474 -0.002563
vt 0.9199 0.9202
vt 0.9177 0.9176
vt -2.694e-05 0.5
vt 0.9903 0.7403
vt 0.2498 0.006572
vt 0.9171 0.9171
vt -0.0001378 0.5
vt 0.9908 0.7407
vt -0.003274 0.07971
vt 0.992 0.7419
vt 0.01013 0.2601
vt 0.9177 0.9176
vt -0.003364 0.005968
vt 0.9184 0.9183
vt 0.01033 0.2603
vt 1 0.5
vt 0.2477 -0.0006719
vt 0.992 0.7419
vt -0.0003884 0.5
vt 0.009765 0.2598
vt 0.9171 0.9171
vt 7.658e-05 0.5022
vt 0.7403 0.9902
vt 1.001 0.5
vt 0.009765 0.2598
vt 0.9903 0.7403
vt -3.327e-05 0.5135
vt 1.002 0.4996
vt 0.01013 0.2601
vt 0.08239 0.08242
vt 0.74 0.9898
vt 0.0007496 0.2508
vt 0.9177 0.9176
vt 0.9908 0.7407
vt 0.01013 0.2601
vt 0.4996 0.9998
vt -0.001331 0.2487
vt 0.2475 1.002
vt 0.5001 -0.0007117
vt 0.7403 0.9902
vt -0.001331 0.2487
vt 0.74 0.9898
vt 0.0007496 0.2508
vt 0.009291 0.2593
vt 0.5001 1.001
vt 0.008296 -0.00495
vt 0.7408 0.9907
vt 0.5001 1
vt 0.08287 0.08292
vt -0.002739 -0.004802
vt 0.7403 0.9902
vt 0.08239 0.08242
vt 0.9177 0.9176
vt 0.0007496 0.2508
vt 0.7408 0.9907
vt 0.5 1
vt 0.007696 0.258
vt 0.08179 0.0818
vt 0.247 1.001
vt 0.08108 -0.004335
vt 0.5001 1
vt -0.0003884 0.5
vt 0.9919 0.7418
vt 0.008296 -0.00495
vt 0.9184 0.9183
vt 0.009291 0.2593
vt 0.7408 0.9907
vt -3.327e-05 0.5135
vt 0.9191 0.9189
vt 0.7403 0.9902
vt -0.0007229 0.5
vt -0.001032 0.5868
vt 0.9184 0.9183
vt 0.7396 0.9912
vt 0.007696 0.258
vt 0.7408 0.9907
vt 0.0007496 0.2508
vt 0.009765 0.2598
vt 0.4932 1.001
vt 0 0.5
vt 0.7396 0.9912
vt 1.002 0.4998
vt 0.5 -1.192e-07
vt 0.7396 0.9912
vt 3.829e-05 0.5011
vt 0.2604 0.01042
vt 0.7347 0.9916
vt -0.001722 0.2483
vt 0.5001 1.001
vt 1.002 0.4999
vt 0.2603 0.01035
vt 0.4161 1.001
vt -0.002113 0.2479
vt 0.4932 1.001
vt -0.002113 0.2479
vt 0.7396 0.9912
vt 0.9196 0.9194
vt 0.2603 0.01035
vt 0.5 -1.216e-05
vt -0.001722 0.2483
vt 0.9191 0.9189
vt -0.003483 -0.004526
vt 0.7347 0.9916
vt 0.9198 0.92
vt 0.2601 0.01017
vt -0.004227 -0.004251
vt 0.5001 1.001
vt 0.4932 1.001
vt 0.5 -0.0001147
vt 0.9919 0.7418
vt 0.2603 0.01035
vt -0.001722 0.2483
vt 0.9919 0.7417
vt 0.2572 0.993
vt 0.08316 0.08319
vt -0.001331 0.2487
vt 0.2594 0.9907
vt 0.2594 0.9907
vt 0.08287 0.08292
vt 0.9196 0.9194
vt 0.2601 0.01017
vt -0.002739 -0.004802
vt 0.9198 0.9198
vt 0.2572 0.993
vt 0.2604 0.01042
vt -0.003483 -0.004526
vt 0.08107 0.9259
vt 0.08176 0.9183
vt 0.08333 0.08333
vt 0.9919 0.7417
vt 0.08316 0.08319
vt 3.829e-05 0.5011
vt 0.9917 0.7415
vt 0.2572 0.993
vt 0.2603 0.01035
vt 7.658e-05 0.5022
vt 0.248 1.002
vt 0.0796 1.003
vt 0.5 -0.0001147
vt 0.9917 0.7415
vt 0.2601 0.01017
vt -0.001331 0.2487
vt 0.9919 0.7417
vt 0.08107 0.9259
vt 0.2597 0.009798
vt -0.001722 0.2483
vt 0.4932 1.001
vt 0.4161 1.001
vt 0.5 -0.0003679
vt 0.5098 0.9999
vt 0.5 -0.0003679
vt -0.005587 1.003
vt 0.9196 0.9194
vt 0.248 1.002
vt 0.2597 0.009798
vt -0.006234 1.002
vt 0.9198 0.9198
vt 0.5001 -0.0007116
vt 0.74 0.9917
vt 0.2597 0.009798
vt 0.7416 0.9918
vt 0.2594 0.009309
vt 0.2572 0.993
vt -0.003059 0.7526
vt 0.9198 0.9198
vt 0.7347 0.9916
vt 0.08239 0.08242
vt 0.08287 0.08292
vt 0.2475 1.002
vt -0.002755 0.7525
vt 0.5003 1
vt -0.002755 0.7525
vt 0.4996 0.9998
vt 0.7347 0.9916
vt -0.003059 0.7526
vt 0.74 0.9917
vt 0.0001149 0.5032
vt 0.4894 1
vt 7.658e-05 0.5022
vt 0.9198 0.92
vt 0.74 0.9917
vt -0.003059 0.7526
vt 0.4996 0.9998
vt -0.003364 0.7528
vt 0.247 1.001
vt 0.5001 -0.001059
vt 0.247 1.001
vt 0.2572 0.008796
vt 0.5 0.9999
vt 0.0001532 0.5043
vt -0.00494 1.004
vt 0.0001149 0.5032
vt 0.248 1.002
vt 0.08239 0.08242
vt 0.2475 1.002
vt -0.006234 1.002
vt -0.004292 1.004
vt -0.006881 1.001
vt 0.248 1.002
vt 0.2597 0.009798
vt 0.2475 1.002
vt -0.003364 0.7528
vt 0.2594 0.009309
vt 0.247 1.001
vt -0.003059 0.7526
vt -0.00494 1.004
vt 0.0796 1.003
vt -0.005587 1.003
vt 0.005547 1.004
vt 0.5 0.9999
vt -0.0007121 0.7506
vt 1.002 0.4999
vt 0.006576 0.7433
vt 0.2484 0.9992
vt 0.5001 -0.001059
vt -0.005587 1.003
vt 0.006576 0.7433
vt 0.2484 0.9992
vt 0.2572 0.008796
vt -0.00606 0.9918
vt -0.0007121 0.7506
vt 0.2498 0.006572
vt -0.005493 0.9187
vt -4.817e-05 0.4906
vt 0.2484 0.9992
vt 0.4999 -0.00134
vt 0.2556 0.9918
vt -0.0006917 0.4163
vt 1.001 0.5
vt 0.07418 0.08109
vt 0.5834 1.001
vt -0.0007121 0.7506
vt 0.7414 0.9921
vt -0.00606 0.9918
vt 0.2572 0.008796
vt 0.5098 0.9999
vt -0.002755 0.7525
vt 7.658e-05 0.5022
vt 0.2484 0.9992
vt 0.2556 0.9918
vt -0.003274 0.07971
vt -4.817e-05 0.4906
vt 0.9198 0.92
vt 0.9199 0.9202
vt 0.2498 0.006572
vt 0.005547 1.004
vt 0.7415 0.992
vt 0.9199 0.9202
vt 0.2594 0.009309
vt -0.005587 1.003
vt 0.7416 0.9918
vt 0.4989 0.9997
vt 0.08179 0.0818
vt -0.002755 0.7525
vt 0.7416 0.9918
vt -0.0007121 0.7506
vt 0.7415 0.992
vt 0.08176 0.9183
vt 0.7414 0.9921
vt 0.08107 0.9259
vt 0.4992 0.9997
vt 0.00877 0.7412
vt 0.9199 0.9204
vt 0.00926 0.7407
vt 0.7415 0.992
vt 0.00926 0.7407
vt -0.001009 0.4931
vt 0.9917 0.2585
vt 0.00877 0.7412
vt 0.9196 0.08014
vt 0.9192 0.0791
vt -0.0007229 0.5
vt -0.001009 0.4931
vt 0.9195 0.08057
vt 0.007067 0.2572
vt 0.9919 0.2582
vt -0.0007229 0.5
vt 0.9919 0.2582
vt 0.00877 0.7412
vt 0.9917 0.2585
vn -0.6062 -0.6513 0.4564
vn -0.6436 -0.6576 0.3916
vn -0.3995 -0.8643 0.3056
vn -0.3734 -0.847 0.3784
vn -0.08551 -0.9646 0.2493
vn -0.0748 -0.9421 0.3268
vn -0.452 -0.8806 0.1417
vn -0.1099 -0.991 0.07599
vn -0.7156 -0.6548 0.2432
vn -0.746 -0.1517 0.6484
vn -0.7913 -0.1228 0.599
vn -0.7755 -0.3958 0.4917
vn -0.7319 -0.4058 0.5473
vn -0.8578 -0.3684 0.3583
vn -0.8792 -0.06494 0.472
vn -0.773 -0.6305 0.06995
vn -0.4956 -0.8675 -0.0426
vn -0.1344 -0.9842 -0.115
vn -0.5243 -0.8213 -0.2248
vn -0.1565 -0.941 -0.2998
vn -0.8062 -0.5815 -0.109
vn -0.95 0.00528 0.312
vn -0.9249 -0.3258 0.1959
vn -0.9631 -0.2682 0.02115
vn -0.9872 0.07959 0.1381
vn 0.242 -0.9424 0.2308
vn 0.2357 -0.9212 0.3095
vn 0.5408 -0.802 0.2535
vn 0.5193 -0.7879 0.3308
vn 0.249 -0.9669 0.0549
vn 0.5766 -0.813 0.0802
vn 0.2477 -0.9589 -0.1382
vn 0.5964 -0.7949 -0.1112
vn 0.2371 -0.9157 -0.3244
vn 0.5961 -0.7459 -0.2971
vn 0.8446 -0.2662 0.4644
vn 0.7368 -0.5554 0.3855
vn 0.7687 -0.5577 0.3131
vn 0.8806 -0.2539 0.4001
vn 0.8244 -0.5459 0.1497
vn 0.9432 -0.2155 0.253
vn 0.858 -0.5125 -0.03479
vn 0.983 -0.1652 0.08042
vn 0.8621 -0.4574 -0.2181
vn 0.9895 -0.1052 -0.09876
vn 0.8422 -0.389 -0.3733
vn 0.9651 -0.04202 -0.2582
vn 0.8198 -0.3245 -0.4718
vn 0.9286 0.0166 -0.3705
vn 0.5815 -0.6787 -0.4487
vn 0.5712 -0.6222 -0.5353
vn -0.1752 -0.8757 -0.4499
vn 0.2213 -0.8521 -0.4742
vn 0.2095 -0.8045 -0.5557
vn -0.1927 -0.8229 -0.5345
vn 0.944 0.3047 -0.1261
vn 0.9687 0.2462 0.03204
vn 0.7905 0.6124 -0.00293
vn 0.817 0.5577 0.1463
vn 0.9067 0.347 -0.2398
vn 0.7667 0.6354 -0.09159
vn 0.9626 0.1761 0.2056
vn 0.9244 0.1051 0.3666
vn 0.8208 0.4743 0.3182
vn 0.7935 0.3781 0.4768
vn 0.5672 0.7143 0.4099
vn 0.5595 0.5941 0.5778
vn 0.2047 0.8559 0.4749
vn 0.2196 0.7199 0.6583
vn 0.5481 0.8037 0.2315
vn 0.1785 0.942 0.2841
vn 0.5194 0.8493 0.09403
vn 0.1561 0.9756 0.154
vn 0.5142 0.8557 0.05768
vn 0.1612 0.9713 0.1748
vn -0.2465 0.9535 0.1735
vn -0.2386 0.923 0.3018
vn -0.6114 0.7768 0.1504
vn -0.6147 0.7362 0.2829
vn -0.245 0.9446 0.2184
vn -0.6146 0.7712 0.1656
vn -0.2171 0.8388 0.4993
vn -0.1817 0.7001 0.6905
vn -0.5958 0.6476 0.4749
vn -0.543 0.5206 0.6588
vn -0.8461 0.3434 0.4077
vn -0.7804 0.2416 0.5766
vn -0.8732 0.4311 0.2273
vn -0.87 0.4853 0.08631
vn -0.9899 0.1407 -0.0141
vn -0.8677 0.4952 0.0426
vn -0.9787 0.1748 -0.1078
vn -0.969 -0.2049 -0.138
vn -0.8145 -0.5148 -0.2675
vn -0.9561 -0.148 -0.2529
vn -0.8113 -0.4459 -0.3779
vn -0.625 0.7255 0.2882
vn -0.8755 0.4792 0.0625
vn -0.9671 0.1971 -0.1604
vn -0.8874 0.4483 0.107
vn -0.9659 0.1994 -0.1649
vn -0.63 0.6666 0.3983
vn -0.9397 -0.09174 -0.3293
vn -0.8123 -0.3768 -0.4451
vn -0.9365 -0.05887 -0.3456
vn -0.8281 -0.332 -0.4516
vn -0.9961 0.0867 0.01798
vn -0.9698 -0.1498 -0.1924
vn -0.8582 -0.3911 -0.3325
vn -0.7723 -0.4976 0.3948
vn -0.7651 -0.6438 0.01309
vn -0.7367 -0.2495 0.6284
vn -0.614 0.5527 0.5635
vn -0.8962 0.3275 0.2992
vn -0.6626 0.04044 0.7479
vn -0.4667 0.3139 0.8268
vn 0.1924 0.9324 0.3059
vn -0.2316 0.8881 0.397
vn -0.214 0.8169 0.5356
vn 0.2253 0.8795 0.4192
vn 0.2649 0.7721 0.5775
vn -0.1875 0.7141 0.6744
vn -0.1293 0.4916 0.8611
vn 0.2516 0.4983 0.8297
vn 0.7518 0.6441 -0.1411
vn 0.8303 0.5558 0.03955
vn 0.6228 0.7125 0.3231
vn 0.56 0.8171 0.1369
vn 0.5538 0.3525 0.7543
vn 0.757 0.134 0.6395
vn 0.7503 0.6463 -0.1388
vn 0.532 0.8422 0.0875
vn 0.8947 0.07636 -0.4401
vn 0.8671 0.3852 -0.3157
vn 0.8499 0.4086 -0.3328
vn 0.8856 0.1208 -0.4484
vn 0.9425 0.0784 -0.3249
vn 0.9229 0.3407 -0.179
vn 0.9073 -0.06772 0.4148
vn 0.977 -0.2074 0.05008
vn 0.8294 -0.2232 -0.5121
vn 0.8725 -0.2402 -0.4254
vn 0.8934 -0.3716 -0.2522
vn 0.635 -0.5831 -0.5066
vn 0.6172 -0.5895 -0.5211
vn 0.611 -0.5784 -0.5405
vn 0.8115 -0.2652 -0.5206
vn 0.5799 -0.5876 -0.5643
vn -0.2476 -0.8072 -0.5359
vn -0.2692 -0.8179 -0.5085
vn 0.2116 -0.8126 -0.5431
vn 0.2124 -0.8112 -0.5448
vn 0.1913 -0.7494 -0.6338
vn -0.2618 -0.8004 -0.5392
vn -0.2163 -0.7991 -0.5609
vn 0.2068 -0.7913 -0.5753
vn -0.6419 -0.6351 -0.4296
vn -0.6111 -0.6064 -0.5088
vn -0.6095 -0.7383 -0.2886
vn -0.5735 -0.6337 -0.5191
vn -0.551 -0.6871 -0.4736
vn -0.5392 -0.7526 -0.378
vn -0.5173 -0.7989 0.3068
vn -0.565 -0.7934 -0.2265
vn -0.2389 -0.8047 -0.5434
vn -0.2448 -0.7457 -0.6196
vn -0.5513 -0.6935 -0.4637
vn -0.6426 -0.6059 -0.469
vn -0.6587 -0.7065 -0.2587
vn -0.6973 -0.7056 0.1259
vn 0.151 -0.6388 -0.7544
vn 0.5946 -0.6347 -0.4935
vn 0.5768 -0.5837 -0.5715
vn 0.1877 -0.6276 -0.7555
vn -0.01178 -0.5154 -0.8568
vn 0.07608 -0.4786 -0.8747
vn 0.1941 -0.4522 -0.8705
vn 0.1171 -0.6054 -0.7872
vn -0.3233 -0.3802 0.8665
vn -0.3436 -0.6163 0.7086
vn -0.7113 -0.5203 0.4726
vn -0.6751 -0.2359 0.699
vn -0.8635 -0.4471 -0.2335
vn -0.7251 -0.5187 -0.4529
vn -0.668 -0.5264 -0.526
vn -0.712 -0.5048 -0.488
vn -0.6612 -0.521 -0.5398
vn -0.8666 -0.4072 -0.2883
vn -0.9219 -0.03003 0.3862
vn -0.9594 -0.2728 0.07053
vn -0.9736 -0.228 0.00177
vn -0.9475 0.004028 0.3197
vn -0.6114 -0.558 -0.5611
vn -0.2339 -0.616 -0.7522
vn -0.6288 -0.5294 -0.5694
vn -0.2117 -0.5765 -0.7892
vn -0.6373 -0.5322 -0.5572
vn -0.6143 -0.5361 -0.5789
vn -0.2025 -0.5764 -0.7916
vn -0.5911 -0.5483 -0.5915
vn -0.1903 -0.5854 -0.788
vn -0.6066 -0.5467 -0.5771
vn -0.8599 -0.4172 -0.294
vn -0.6905 -0.517 -0.5058
vn -0.6634 -0.5311 -0.527
vn -0.8514 -0.4248 -0.3076
vn -0.5776 -0.5639 -0.5902
vn -0.5677 -0.5647 -0.599
vn -0.1728 -0.6002 -0.7809
vn -0.5516 -0.5833 -0.5961
vn -0.1592 -0.6192 -0.7689
vn -0.5595 -0.5817 -0.5904
vn -0.8426 -0.4336 -0.3193
vn -0.6378 -0.547 -0.5422
vn -0.6222 -0.5628 -0.5441
vn -0.8357 -0.4459 -0.3206
vn -0.548 -0.5992 -0.5837
vn -0.1582 -0.6381 -0.7535
vn -0.5533 -0.609 -0.5682
vn -0.1674 -0.653 -0.7386
vn -0.5575 -0.5957 -0.5782
vn -0.5666 -0.6038 -0.5607
vn -0.6211 -0.5747 -0.5329
vn -0.6297 -0.5811 -0.5155
vn -0.8324 -0.4574 -0.313
vn -0.832 -0.4646 -0.303
vn -0.6427 -0.5787 -0.5019
vn -0.5803 -0.6032 -0.5471
vn -0.6666 -0.5533 -0.4995
vn -0.6021 -0.5841 -0.5443
vn -0.8354 -0.4618 -0.2979
vn -0.8505 -0.4279 -0.3058
vn -0.5631 -0.6101 -0.5573
vn -0.1806 -0.6592 -0.7299
vn -0.5775 -0.5944 -0.5596
vn -0.1997 -0.6477 -0.7352
vn -0.5928 -0.5408 -0.5968
vn -0.2514 -0.5813 -0.7738
vn -0.6958 -0.2738 -0.6639
vn -0.4228 -0.2655 -0.8665
vn -0.6459 -0.5261 -0.5532
vn -0.724 -0.3785 -0.5767
vn -0.7292 -0.4608 -0.5058
vn -0.8402 -0.1909 -0.5075
vn -0.8932 -0.2979 -0.3368
vn -0.9296 0.005005 -0.3684
vn -0.7634 0.5134 -0.3919
vn -0.5126 0.5885 -0.6252
vn -0.191 0.9474 0.2567
vn -0.03818 0.9687 0.2452
vn 0.2398 0.9652 0.1043
vn -0.6701 0.691 -0.271
vn -0.9747 -0.2222 -0.0238
vn -0.9915 -0.08121 -0.1017
vn -0.9504 0.2109 -0.2286
vn -0.9748 0.1479 0.1668
vn -0.9287 0.3571 -0.09983
vn -0.955 0.03433 0.2944
vn -0.497 0.794 -0.3501
vn 0.5137 0.8334 -0.2037
vn -0.4221 0.6731 -0.6073
vn 0.598 0.4916 -0.633
vn 0.3872 0.9202 0.05692
vn 0.07456 0.984 0.1616
vn 0.3165 0.8631 0.3934
vn 0.5618 0.8069 0.1823
vn 0.03427 0.8543 0.5185
vn -0.01328 0.9233 0.3838
vn 0.5302 0.6259 -0.5719
vn 0.3561 0.8994 -0.2533
vn 0.7539 0.6438 -0.131
vn 0.7769 0.3745 -0.5061
vn -0.2365 0.8943 -0.3797
vn -0.2432 0.9348 0.2587
vn -0.4331 0.8155 0.3839
vn -0.5424 0.8247 0.1604
vn -0.782 0.6203 0.06101
vn -0.7481 0.6158 -0.2471
vn -0.769 0.2926 -0.5683
vn -0.4855 0.3412 -0.8049
vn -0.2352 0.008271 -0.9719
vn -0.07617 0.2661 -0.9609
vn 0.1943 0.1174 -0.9739
vn 0.2519 0.5307 -0.8092
vn 0.6051 0.03867 -0.7952
vn 0.3314 -0.2015 -0.9217
vn 0.3939 0.1016 -0.9135
vn 0.1671 -0.08625 -0.9821
vn 0.07566 -0.3149 -0.9461
vn -0.199 -0.337 -0.9202
vn 0.0286 -0.1437 -0.9892
vn -0.1188 -0.1606 -0.9798
vn -0.8502 0.5182 0.09223
vn -0.4857 0.5223 -0.7009
vn -0.4539 0.6421 -0.6178
vn -0.6228 0.7165 0.3141
vn -0.2294 0.8765 0.4233
vn -0.2137 0.7923 -0.5715
vn 0.06525 0.7821 -0.6197
vn 0.187 0.9289 0.3196
vn -0.7556 0.2988 0.5828
vn -0.8106 0.3802 0.4454
vn -0.5147 0.5589 0.6501
vn -0.4568 0.4853 0.7455
vn -0.1504 0.5912 0.7924
vn -0.1723 0.6716 0.7205
vn 0.1762 0.7347 0.655
vn 0.1647 0.641 0.7496
vn -0.9408 -0.001434 0.3389
vn -0.7382 0.2652 0.6203
vn -0.7382 0.273 0.6169
vn -0.9433 0.001892 0.3318
vn -0.443 0.4633 0.7675
vn -0.4451 0.4559 0.7707
vn -0.1426 0.5642 0.8132
vn -0.1443 0.5695 0.8092
vn 0.165 0.6147 0.7713
vn 0.1718 0.6089 0.7744
vn -0.9441 0.01822 0.3291
vn -0.7477 0.2738 0.6049
vn -0.7434 0.2656 0.6138
vn -0.9419 0.005768 0.3357
vn -0.4516 0.4555 0.7671
vn -0.4561 0.4619 0.7606
vn -0.1414 0.5727 0.8074
vn -0.142 0.566 0.8121
vn 0.1805 0.611 0.7708
vn 0.1879 0.6174 0.7638
vn -0.9719 -0.2352 0.001953
vn -0.9685 -0.2488 0.006226
vn -0.9657 -0.2595 0.007416
vn -0.9659 -0.2589 0.001465
vn -0.4544 0.4586 0.7637
vn -0.4559 0.4663 0.758
vn -0.7481 0.2796 0.6018
vn -0.7474 0.2703 0.6069
vn -0.9449 0.02524 0.3264
vn -0.9436 0.017 0.3305
vn -0.974 -0.2266 0.0007324
vn -0.9734 -0.2288 0.006104
vn -0.4597 0.4383 0.7724
vn -0.4562 0.4453 0.7704
vn -0.7501 0.2549 0.6102
vn -0.756 0.2502 0.6048
vn -0.9434 0.004364 0.3315
vn -0.9724 -0.2329 0.01001
vn 0.2022 0.6136 0.7633
vn 0.1947 0.6205 0.7596
vn -0.1389 0.5765 0.8052
vn -0.135 0.5699 0.8105
vn 0.2051 0.597 0.7755
vn 0.207 0.6033 0.7702
vn -0.1332 0.5589 0.8184
vn -0.1344 0.5512 0.8235
vn 0.1804 0.4219 0.8885
vn 0.1968 0.5604 0.8045
vn -0.1301 0.5191 0.8447
vn -0.1079 0.4146 0.9036
vn -0.4451 0.4092 0.7964
vn -0.3714 0.2893 0.8822
vn -0.7311 0.2208 0.6455
vn -0.5647 0.0604 0.823
vn -0.3165 0.1781 0.9317
vn -0.3771 -0.09937 0.9208
vn 0.1866 0.3097 0.9323
vn -0.09033 0.3418 0.9354
vn 0.6797 0.09427 0.7273
vn 0.8136 0.3886 0.4325
vn 0.5281 0.5219 0.6698
vn 0.4493 0.3057 0.8394
vn 0.5455 0.5654 0.6186
vn 0.826 0.4398 0.3524
vn 0.4553 -0.1801 0.8719
vn 0.3728 0.09555 0.9229
vn 0.932 -0.315 0.179
vn 0.9836 -0.009552 -0.1801
vn 0.9735 0.1901 0.1273
vn 0.8485 -0.1396 0.5104
vn 0.968 0.2476 0.04071
vn 0.9668 0.03992 -0.2523
vn 0.8021 -0.4751 0.3616
vn 0.573 -0.3824 0.7248
vn 0.9163 -0.3544 -0.1864
vn 0.9029 -0.1359 -0.4077
vn 0.8822 -0.1154 -0.4565
vn 0.8483 -0.1782 -0.4986
vn 0.8367 -0.1627 -0.523
vn 0.8633 -0.2853 -0.4163
vn 0.8655 -0.475 -0.1588
vn 0.8121 -0.4077 -0.4174
vn 0.7982 -0.2449 -0.5502
vn 0.7958 -0.2002 -0.5715
vn 0.5179 -0.4478 -0.7288
vn 0.4825 -0.4074 -0.7754
vn 0.7821 -0.2115 -0.5861
vn 0.8188 -0.1808 -0.5448
vn 0.7645 -0.2331 -0.601
vn 0.7976 -0.2062 -0.5669
vn 0.4712 -0.4104 -0.7807
vn 0.4626 -0.424 -0.7786
vn 0.8675 -0.1325 -0.4794
vn 0.9636 0.03143 -0.2654
vn 0.8506 -0.1547 -0.5026
vn 0.9592 0.02322 -0.2817
vn 0.75 -0.2574 -0.6093
vn 0.7803 -0.2322 -0.5806
vn 0.7439 -0.2795 -0.6069
vn 0.7732 -0.2536 -0.5812
vn 0.4545 -0.4443 -0.772
vn 0.4522 -0.466 -0.7605
vn 0.8373 -0.1761 -0.5175
vn 0.956 0.01556 -0.293
vn 0.8328 -0.1931 -0.5187
vn 0.9559 0.005646 -0.2936
vn 0.7474 -0.2943 -0.5955
vn 0.7772 -0.2661 -0.5702
vn 0.7559 -0.301 -0.5814
vn 0.787 -0.2701 -0.5547
vn 0.4587 -0.4831 -0.7458
vn 0.4704 -0.4929 -0.7319
vn 0.8368 -0.2029 -0.5085
vn 0.9579 -0.004456 -0.2871
vn 0.8447 -0.2063 -0.4938
vn 0.9599 -0.01193 -0.28
vn 0.7638 -0.2979 -0.5725
vn 0.7963 -0.2645 -0.544
vn 0.7672 -0.2753 -0.5792
vn 0.8034 -0.2365 -0.5464
vn 0.4815 -0.4931 -0.7246
vn 0.4894 -0.4723 -0.733
vn 0.8517 -0.2003 -0.4841
vn 0.9604 -0.0094 -0.2785
vn 0.8569 -0.1665 -0.4877
vn 0.9558 0.02792 -0.2926
vn 0.7527 -0.2104 -0.6238
vn 0.8105 -0.1574 -0.5641
vn 0.7171 0.09967 -0.6897
vn 0.8036 0.02197 -0.5947
vn 0.495 -0.3823 -0.7802
vn 0.4757 -0.00766 -0.8795
vn 0.8624 -0.04999 -0.5037
vn 0.9275 0.168 -0.3338
vn 0.8198 0.2468 -0.5168
vn 0.805 0.4594 -0.3753
vn 0.4053 0.8189 -0.4063
vn 0.2412 0.9291 -0.2802
vn -0.6723 0.7335 0.0997
vn -0.4312 0.871 0.2354
vn -0.2916 0.9233 0.2499
vn 0.1388 0.7672 -0.6261
vn 0.6286 0.7725 -0.08991
vn 0.7236 0.6511 -0.229
vn 0.03854 0.9366 -0.3483
vn 0.02322 0.8004 -0.599
vn -0.8498 0.4875 -0.2006
vn -0.7626 0.1435 -0.6307
vn 0.8146 0.4859 0.3168
vn 0.9635 0.2676 -0.006409
vn 0.9091 0.4062 -0.09265
vn 0.7766 0.6023 0.1849
vn -0.6878 0.6105 0.3926
vn -0.438 0.7353 0.5172
vn -0.8756 0.4468 0.1836
vn -0.9683 0.2136 -0.1292
vn -0.8604 -0.03879 -0.5081
vn -0.5468 -0.2563 -0.7971
vn -0.4012 -0.1043 -0.91
vn -0.2055 0.8068 0.5538
vn -0.2449 0.9416 0.2311
vn 0.4777 0.8725 0.1028
vn 0.1472 0.7001 -0.6986
vn 0.1506 -0.2637 -0.9528
vn -0.1561 0.5047 -0.849
vn -0.02741 -0.3316 -0.943
vn 0.1849 -0.5099 -0.8401
vn 0.07581 -0.4832 -0.8722
vn 0.01404 -0.5394 -0.8419
vn 0.5086 0.6201 0.5973
vn 0.515 0.7231 0.4603
vn 0.5131 0.5794 0.6333
vn 0.5075 0.5873 0.6305
vn 0.8198 0.4491 0.3551
vn 0.8197 0.4437 0.3621
vn 0.973 0.2288 0.03082
vn 0.973 0.2296 0.02298
vn 0.5267 0.5855 0.6163
vn 0.5206 0.5802 0.6263
vn 0.8184 0.4486 0.3592
vn 0.8164 0.4567 0.3534
vn 0.9676 0.2506 0.02933
vn 0.9705 0.239 0.03143
vn 0.8198 0.4511 0.3527
vn 0.816 0.4597 0.3503
vn 0.5324 0.587 0.6099
vn 0.5401 0.5784 0.6113
vn 0.9661 0.2565 0.02939
vn 0.967 0.2523 0.03513
vn 0.9683 0.2465 0.0408
vn 0.8246 0.4405 0.3549
vn 0.5463 0.5679 0.6157
vn 0.09473 -0.617 -0.7812
vn 0.1346 -0.554 -0.8215
vn 0.01733 -0.6055 -0.7956
vn 0.01364 -0.6337 -0.7734
vn 0.09268 -0.6193 -0.7797
vn 0.08872 -0.5938 -0.7997
vn 0.2146 -0.564 -0.7974
vn 0.2285 -0.585 -0.7781
vn 0.2384 -0.5807 -0.7783
vn 0.1649 -0.5556 -0.8149
vn 0.2346 -0.5839 -0.7772
vn 0.2656 -0.5737 -0.7747
vn 0.255 -0.584 -0.7707
vn 0.2323 -0.5914 -0.7722
vn 0.007874 -0.6354 -0.7721
vn 0.09177 -0.6207 -0.7786
vn 0.09387 -0.6269 -0.7734
vn 0.01294 -0.6412 -0.7673
vn -0.005158 -0.6035 -0.7973
vn 0.08353 -0.5877 -0.8047
vn 0.08802 -0.6065 -0.7902
vn 0.001129 -0.6218 -0.7832
vn 0.2353 -0.5686 -0.7882
vn 0.2333 -0.5496 -0.8021
vn 0.2748 -0.5364 -0.798
vn 0.2738 -0.5561 -0.7847
vn 0.2691 -0.5176 -0.8122
vn 0.2641 -0.5013 -0.824
vn 0.2297 -0.53 -0.8163
vn 0.2276 -0.5128 -0.8278
vn 0.0788 -0.568 -0.8192
vn 0.07419 -0.5514 -0.8309
vn -0.01108 -0.584 -0.8117
vn -0.01813 -0.5676 -0.8231
vn 0.2652 -0.4897 -0.8306
vn 0.262 -0.4902 -0.8312
vn 0.2288 -0.5015 -0.8343
vn 0.2314 -0.4989 -0.8352
vn 0.07056 -0.5414 -0.8378
vn 0.06992 -0.54 -0.8387
vn -0.02594 -0.558 -0.8294
vn -0.02948 -0.5573 -0.8298
vn 0.2112 -0.5159 -0.8302
vn 0.2274 -0.4852 -0.8443
vn 0.07096 -0.5297 -0.8452
vn -0.02609 -0.5492 -0.8353
vn 0.09644 -0.5607 -0.8223
vn 0.04263 -0.5468 -0.8362
vn 0.03879 -0.5469 -0.8363
vn 0.04529 -0.5566 -0.8295
vn 0.04987 -0.5736 -0.8176
vn 0.05445 -0.5935 -0.803
vn 0.0629 -0.6114 -0.7888
vn 0.07453 -0.624 -0.7778
vn 0.08481 -0.6286 -0.7731
vn 0.2246 0.4923 0.8409
vn 0.221 0.5673 0.7933
vn -0.1416 0.5421 0.8283
vn -0.1216 0.465 0.8769
vn -0.4708 0.3854 0.7936
vn -0.4374 0.3178 0.8412
vn -0.6934 0.1457 0.7057
vn -0.6513 0.09674 0.7526
vn 0.7198 0.2382 0.6521
vn 0.7454 0.2848 0.6027
vn 0.53 0.4688 0.7066
vn 0.517 0.406 0.7535
vn 0.8659 0.04038 0.4986
vn 0.8325 0.01105 0.5538
f 1/1/1 2/2/2 3/3/3
f 1/1/1 3/3/3 4/4/4
f 4/4/4 3/3/3 5/5/5
f 4/4/4 5/5/5 6/6/6
f 3/3/3 7/7/7 8/8/8
f 3/3/3 8/8/8 5/5/5
f 2/2/2 9/9/9 7/7/7
f 2/2/2 7/7/7 3/3/3
f 10/10/10 11/11/11 12/12/12
f 10/10/10 12/12/12 13/13/13
f 13/13/13 12/12/12 2/2/2
f 13/13/13 2/2/2 1/1/1
f 12/12/12 14/14/14 9/9/9
f 12/12/12 9/9/9 2/2/2
f 11/11/11 15/15/15 14/14/14
f 11/11/11 14/14/14 12/12/12
f 9/9/9 16/16/16 17/17/17
f 9/9/9 17/17/17 7/7/7
f 7/7/7 17/17/17 18/18/18
f 7/7/7 18/18/18 8/8/8
f 17/17/17 19/19/19 20/20/20
f 17/17/17 20/20/20 18/18/18
f 16/16/16 21/21/21 19/19/19
f 16/16/16 19/19/19 17/17/17
f 15/15/15 22/22/22 23/23/23
f 15/15/15 23/23/23 14/14/14
f 14/14/14 23/23/23 16/16/16
f 14/14/14 16/16/16 9/9/9
f 23/23/23 24/24/24 21/21/21
f 23/23/23 21/21/21 16/16/16
f 22/22/22 25/25/25 24/24/24
f 22/22/22 24/24/24 23/23/23
f 6/6/6 5/5/5 26/26/26
f 6/6/6 26/26/26 27/27/27
f 27/27/27 26/26/26 28/28/28
f 27/27/27 28/28/28 29/29/29
f 26/26/26 30/30/30 31/31/31
f 26/26/26 31/31/31 28/28/28
f 5/5/5 8/8/8 30/30/30
f 5/5/5 30/30/30 26/26/26
f 8/8/8 18/18/18 32/32/32
f 8/8/8 32/32/32 30/30/30
f 30/30/30 32/32/32 33/33/33
f 30/30/30 33/33/33 31/31/31
f 32/32/32 34/34/34 35/35/35
f 32/32/32 35/35/35 33/33/33
f 18/18/18 20/20/20 34/34/34
f 18/18/18 34/34/34 32/32/32
f 36/36/36 37/37/37 38/38/38
f 36/36/36 38/38/38 39/39/39
f 39/39/39 38/38/38 40/40/40
f 39/39/39 40/40/40 41/41/41
f 38/38/38 28/28/28 31/31/31
f 38/38/38 31/31/31 40/40/40
f 37/37/37 29/29/29 28/28/28
f 37/37/37 28/28/28 38/38/38
f 41/41/41 40/40/40 42/42/42
f 41/41/41 42/42/42 43/43/43
f 43/43/43 42/42/42 44/44/44
f 43/43/43 44/44/44 45/45/45
f 42/42/42 33/33/33 35/35/35
f 42/42/42 35/35/35 44/44/44
f 40/40/40 31/31/31 33/33/33
f 40/40/40 33/33/33 42/42/42
f 45/45/45 44/44/44 46/46/46
f 45/45/45 46/46/46 47/47/47
f 47/47/47 46/46/46 48/48/48
f 47/47/47 48/48/48 49/49/49
f 46/46/46 50/50/50 51/51/51
f 46/46/46 51/51/51 48/48/48
f 44/44/44 35/35/35 50/50/50
f 44/44/44 50/50/50 46/46/46
f 20/20/20 52/52/52 53/53/53
f 20/20/20 53/53/53 34/34/34
f 34/34/34 53/53/53 50/50/50
f 34/34/34 50/50/50 35/35/35
f 53/53/53 54/54/54 51/51/51
f 53/53/53 51/51/51 50/50/50
f 52/52/52 55/55/55 54/54/54
f 52/52/52 54/54/54 53/53/53
f 45/45/45 47/47/47 56/56/56
f 45/45/45 56/56/56 57/57/57
f 57/57/57 56/56/56 58/58/58
f 57/57/57 58/58/58 59/59/59
f 56/56/56 60/60/60 61/61/61
f 56/56/56 61/61/61 58/58/58
f 47/47/47 49/49/49 60/60/60
f 47/47/47 60/60/60 56/56/56
f 41/41/41 43/43/43 62/62/62
f 41/41/41 62/62/62 63/63/63
f 63/63/63 62/62/62 64/64/64
f 63/63/63 64/64/64 65/65/65
f 62/62/62 57/57/57 59/59/59
f 62/62/62 59/59/59 64/64/64
f 43/43/43 45/45/45 57/57/57
f 43/43/43 57/57/57 62/62/62
f 65/65/65 64/64/64 66/66/66
f 65/65/65 66/66/66 67/67/67
f 67/67/67 66/66/66 68/68/68
f 67/67/67 68/68/68 69/69/69
f 66/66/66 70/70/70 71/71/71
f 66/66/66 71/71/71 68/68/68
f 64/64/64 59/59/59 70/70/70
f 64/64/64 70/70/70 66/66/66
f 59/59/59 58/58/58 72/72/72
f 59/59/59 72/72/72 70/70/70
f 70/70/70 72/72/72 73/73/73
f 70/70/70 73/73/73 71/71/71
f 72/72/72 74/74/74 75/75/75
f 72/72/72 75/75/75 73/73/73
f 58/58/58 61/61/61 74/74/74
f 58/58/58 74/74/74 72/72/72
f 71/71/71 73/73/73 76/76/76
f 71/71/71 76/76/76 77/77/77
f 77/77/77 76/76/76 78/78/78
f 77/77/77 78/78/78 79/79/79
f 76/76/76 80/80/80 81/81/81
f 76/76/76 81/81/81 78/78/78
f 73/73/73 75/75/75 80/80/80
f 73/73/73 80/80/80 76/76/76
f 69/69/69 68/68/68 82/82/82
f 69/69/69 82/82/82 83/83/83
f 83/83/83 82/82/82 84/84/84
f 83/83/83 84/84/84 85/85/85
f 82/82/82 77/77/77 79/79/79
f 82/82/82 79/79/79 84/84/84
f 68/68/68 71/71/71 77/77/77
f 68/68/68 77/77/77 82/82/82
f 85/85/85 84/84/84 86/86/86
f 85/85/85 86/86/86 87/87/87
f 87/87/87 86/86/86 22/22/22
f 87/87/87 22/22/22 15/15/15
f 86/86/86 88/88/88 25/25/25
f 86/86/86 25/25/25 22/22/22
f 84/84/84 79/79/79 88/88/88
f 84/84/84 88/88/88 86/86/86
f 79/79/79 78/78/78 89/89/89
f 79/79/79 89/89/89 88/88/88
f 88/88/88 89/89/89 90/90/90
f 88/88/88 90/90/90 25/25/25
f 89/89/89 91/91/91 92/92/92
f 89/89/89 92/92/92 90/90/90
f 78/78/78 81/81/81 91/91/91
f 78/78/78 91/91/91 89/89/89
f 25/25/25 90/90/90 93/93/93
f 25/25/25 93/93/93 24/24/24
f 24/24/24 93/93/93 94/94/94
f 24/24/24 94/94/94 21/21/21
f 93/93/93 95/95/95 96/96/96
f 93/93/93 96/96/96 94/94/94
f 90/90/90 92/92/92 95/95/95
f 90/90/90 95/95/95 93/93/93
f 81/81/81 97/97/97 98/98/98
f 81/81/81 98/98/98 91/91/91
f 91/91/91 98/98/98 99/99/99
f 91/91/91 99/99/99 92/92/92
f 98/98/98 100/100/100 101/101/101
f 98/98/98 101/101/101 99/99/99
f 97/97/97 102/102/102 100/100/100
f 97/97/97 100/100/100 98/98/98
f 92/92/92 99/99/99 103/103/103
f 92/92/92 103/103/103 95/95/95
f 95/95/95 103/103/103 104/104/104
f 95/95/95 104/104/104 96/96/96
f 103/103/103 105/105/105 106/106/106
f 103/103/103 106/106/106 104/104/104
f 99/99/99 101/101/101 105/105/105
f 99/99/99 105/105/105 103/103/103
f 101/101/101 107/107/107 108/108/108
f 101/101/101 108/108/108 105/105/105
f 105/105/105 108/108/108 109/109/109
f 105/105/105 109/109/109 106/106/106
f 108/108/108 110/110/110 111/111/111
f 108/108/108 111/111/111 109/109/109
f 107/107/107 112/112/112 110/110/110
f 107/107/107 110/110/110 108/108/108
f 102/102/102 113/113/113 114/114/114
f 102/102/102 114/114/114 100/100/100
f 100/100/100 114/114/114 107/107/107
f 100/100/100 107/107/107 101/101/101
f 114/114/114 115/115/115 112/112/112
f 114/114/114 112/112/112 107/107/107
f 113/113/113 116/116/116 115/115/115
f 113/113/113 115/115/115 114/114/114
f 75/75/75 117/117/117 118/118/118
f 75/75/75 118/118/118 80/80/80
f 80/80/80 118/118/118 97/97/97
f 80/80/80 97/97/97 81/81/81
f 118/118/118 119/119/119 102/102/102
f 118/118/118 102/102/102 97/97/97
f 117/117/117 120/120/120 119/119/119
f 117/117/117 119/119/119 118/118/118
f 120/120/120 121/121/121 122/122/122
f 120/120/120 122/122/122 119/119/119
f 119/119/119 122/122/122 113/113/113
f 119/119/119 113/113/113 102/102/102
f 122/122/122 123/123/123 116/116/116
f 122/122/122 116/116/116 113/113/113
f 121/121/121 124/124/124 123/123/123
f 121/121/121 123/123/123 122/122/122
f 125/125/125 126/126/126 127/127/127
f 125/125/125 127/127/127 128/128/128
f 128/128/128 127/127/127 121/121/121
f 128/128/128 121/121/121 120/120/120
f 127/127/127 129/129/129 124/124/124
f 127/127/127 124/124/124 121/121/121
f 126/126/126 130/130/130 129/129/129
f 126/126/126 129/129/129 127/127/127
f 61/61/61 131/131/131 132/132/132
f 61/61/61 132/132/132 74/74/74
f 74/74/74 132/132/132 117/117/117
f 74/74/74 117/117/117 75/75/75
f 132/132/132 128/128/128 120/120/120
f 132/132/132 120/120/120 117/117/117
f 131/131/131 125/125/125 128/128/128
f 131/131/131 128/128/128 132/132/132
f 49/49/49 133/133/133 134/134/134
f 49/49/49 134/134/134 60/60/60
f 60/60/60 134/134/134 131/131/131
f 60/60/60 131/131/131 61/61/61
f 134/134/134 135/135/135 125/125/125
f 134/134/134 125/125/125 131/131/131
f 133/133/133 136/136/136 135/135/135
f 133/133/133 135/135/135 134/134/134
f 136/136/136 137/137/137 138/138/138
f 136/136/136 138/138/138 135/135/135
f 135/135/135 138/138/138 126/126/126
f 135/135/135 126/126/126 125/125/125
f 138/138/138 139/139/139 130/130/130
f 138/138/138 130/130/130 126/126/126
f 137/137/137 140/140/140 139/139/139
f 137/137/137 139/139/139 138/138/138
f 136/136/136 141/141/141 142/142/142
f 136/136/136 142/142/142 137/137/137
f 137/137/137 142/142/142 143/143/143
f 137/137/137 143/143/143 140/140/140
f 142/142/142 144/144/144 145/145/145
f 142/142/142 145/145/145 143/143/143
f 141/141/141 146/146/146 144/144/144
f 141/141/141 144/144/144 142/142/142
f 49/49/49 48/48/48 147/147/147
f 49/49/49 147/147/147 133/133/133
f 133/133/133 147/147/147 141/141/141
f 133/133/133 141/141/141 136/136/136
f 147/147/147 148/148/148 146/146/146
f 147/147/147 146/146/146 141/141/141
f 48/48/48 51/51/51 148/148/148
f 48/48/48 148/148/148 147/147/147
f 149/149/149 150/150/150 151/151/151
f 149/149/149 151/151/151 152/152/152
f 152/152/152 151/151/151 144/144/144
f 152/152/152 144/144/144 146/146/146
f 151/151/151 153/153/153 145/145/145
f 151/151/151 145/145/145 144/144/144
f 150/150/150 154/154/154 153/153/153
f 150/150/150 153/153/153 151/151/151
f 55/55/55 155/155/155 156/156/156
f 55/55/55 156/156/156 54/54/54
f 54/54/54 156/156/156 148/148/148
f 54/54/54 148/148/148 51/51/51
f 156/156/156 152/152/152 146/146/146
f 156/156/156 146/146/146 148/148/148
f 155/155/155 149/149/149 152/152/152
f 155/155/155 152/152/152 156/156/156
f 106/106/106 109/109/109 157/157/157
f 106/106/106 157/157/157 158/158/158
f 158/158/158 157/157/157 150/150/150
f 158/158/158 150/150/150 149/149/149
f 157/157/157 159/159/159 154/154/154
f 157/157/157 154/154/154 150/150/150
f 109/109/109 111/111/111 159/159/159
f 109/109/109 159/159/159 157/157/157
f 96/96/96 104/104/104 160/160/160
f 96/96/96 160/160/160 161/161/161
f 161/161/161 160/160/160 155/155/155
f 161/161/161 155/155/155 55/55/55
f 160/160/160 158/158/158 149/149/149
f 160/160/160 149/149/149 155/155/155
f 104/104/104 106/106/106 158/158/158
f 104/104/104 158/158/158 160/160/160
f 21/21/21 94/94/94 162/162/162
f 21/21/21 162/162/162 19/19/19
f 19/19/19 162/162/162 52/52/52
f 19/19/19 52/52/52 20/20/20
f 162/162/162 161/161/161 55/55/55
f 162/162/162 55/55/55 52/52/52
f 94/94/94 96/96/96 161/161/161
f 94/94/94 161/161/161 162/162/162
f 111/111/111 163/163/163 164/164/164
f 111/111/111 164/164/164 159/159/159
f 154/154/154 159/159/159 164/164/164
f 154/154/154 164/164/164 165/165/165
f 166/166/166 165/165/165 164/164/164
f 166/166/166 164/164/164 167/167/167
f 168/168/168 167/167/167 164/164/164
f 168/168/168 164/164/164 169/169/169
f 170/170/170 169/169/169 164/164/164
f 170/170/170 164/164/164 163/163/163
f 154/154/154 165/165/165 171/171/171
f 154/154/154 171/171/171 153/153/153
f 145/145/145 153/153/153 171/171/171
f 145/145/145 171/171/171 172/172/172
f 173/173/173 172/172/172 171/171/171
f 173/173/173 171/171/171 174/174/174
f 175/175/175 174/174/174 171/171/171
f 175/175/175 171/171/171 176/176/176
f 177/177/177 176/176/176 171/171/171
f 177/177/177 171/171/171 178/178/178
f 166/166/166 178/178/178 171/171/171
f 166/166/166 171/171/171 165/165/165
f 112/112/112 179/179/179 180/180/180
f 112/112/112 180/180/180 110/110/110
f 110/110/110 180/180/180 163/163/163
f 110/110/110 163/163/163 111/111/111
f 180/180/180 181/181/181 170/170/170
f 180/180/180 170/170/170 163/163/163
f 179/179/179 182/182/182 181/181/181
f 179/179/179 181/181/181 180/180/180
f 170/170/170 183/183/183 184/184/184
f 170/170/170 184/184/184 169/169/169
f 169/169/169 184/184/184 185/185/185
f 169/169/169 185/185/185 168/168/168
f 184/184/184 186/186/186 187/187/187
f 184/184/184 187/187/187 185/185/185
f 183/183/183 188/188/188 186/186/186
f 183/183/183 186/186/186 184/184/184
f 182/182/182 189/189/189 190/190/190
f 182/182/182 190/190/190 181/181/181
f 181/181/181 190/190/190 183/183/183
f 181/181/181 183/183/183 170/170/170
f 190/190/190 191/191/191 188/188/188
f 190/190/190 188/188/188 183/183/183
f 189/189/189 192/192/192 191/191/191
f 189/189/189 191/191/191 190/190/190
f 168/168/168 185/185/185 193/193/193
f 168/168/168 193/193/193 167/167/167
f 167/167/167 193/193/193 194/194/194
f 167/167/167 194/194/194 166/166/166
f 193/193/193 195/195/195 196/196/196
f 193/193/193 196/196/196 194/194/194
f 185/185/185 187/187/187 195/195/195
f 185/185/185 195/195/195 193/193/193
f 187/187/187 197/197/197 198/198/198
f 187/187/187 198/198/198 195/195/195
f 195/195/195 198/198/198 199/199/199
f 195/195/195 199/199/199 196/196/196
f 198/198/198 200/200/200 201/201/201
f 198/198/198 201/201/201 199/199/199
f 197/197/197 202/202/202 200/200/200
f 197/197/197 200/200/200 198/198/198
f 188/188/188 203/203/203 204/204/204
f 188/188/188 204/204/204 186/186/186
f 186/186/186 204/204/204 197/197/197
f 186/186/186 197/197/197 187/187/187
f 204/204/204 205/205/205 202/202/202
f 204/204/204 202/202/202 197/197/197
f 203/203/203 206/206/206 205/205/205
f 203/203/203 205/205/205 204/204/204
f 202/202/202 207/207/207 208/208/208
f 202/202/202 208/208/208 200/200/200
f 200/200/200 208/208/208 209/209/209
f 200/200/200 209/209/209 201/201/201
f 208/208/208 210/210/210 211/211/211
f 208/208/208 211/211/211 209/209/209
f 207/207/207 212/212/212 210/210/210
f 207/207/207 210/210/210 208/208/208
f 206/206/206 213/213/213 214/214/214
f 206/206/206 214/214/214 205/205/205
f 205/205/205 214/214/214 207/207/207
f 205/205/205 207/207/207 202/202/202
f 214/214/214 215/215/215 212/212/212
f 214/214/214 212/212/212 207/207/207
f 213/213/213 216/216/216 215/215/215
f 213/213/213 215/215/215 214/214/214
f 211/211/211 210/210/210 217/217/217
f 211/211/211 217/217/217 218/218/218
f 218/218/218 217/217/217 219/219/219
f 218/218/218 219/219/219 220/220/220
f 217/217/217 221/221/221 222/222/222
f 217/217/217 222/222/222 219/219/219
f 210/210/210 212/212/212 221/221/221
f 210/210/210 221/221/221 217/217/217
f 212/212/212 215/215/215 223/223/223
f 212/212/212 223/223/223 221/221/221
f 221/221/221 223/223/223 224/224/224
f 221/221/221 224/224/224 222/222/222
f 223/223/223 225/225/225 226/226/226
f 223/223/223 226/226/226 224/224/224
f 215/215/215 216/216/216 225/225/225
f 215/215/215 225/225/225 223/223/223
f 222/222/222 224/224/224 227/227/227
f 222/222/222 227/227/227 228/228/228
f 228/228/228 227/227/227 229/229/229
f 228/228/228 229/229/229 230/230/230
f 227/227/227 231/231/231 232/232/232
f 227/227/227 232/232/232 229/229/229
f 224/224/224 226/226/226 231/231/231
f 224/224/224 231/231/231 227/227/227
f 220/220/220 219/219/219 233/233/233
f 220/220/220 233/233/233 234/234/234
f 234/234/234 233/233/233 235/235/235
f 234/234/234 235/235/235 236/236/236
f 233/233/233 228/228/228 230/230/230
f 233/233/233 230/230/230 235/235/235
f 219/219/219 222/222/222 228/228/228
f 219/219/219 228/228/228 233/233/233
f 236/236/236 235/235/235 237/237/237
f 236/236/236 237/237/237 238/238/238
f 238/238/238 237/237/237 239/239/239
f 238/238/238 239/239/239 240/240/240
f 237/237/237 241/241/241 242/242/242
f 237/237/237 242/242/242 239/239/239
f 235/235/235 230/230/230 241/241/241
f 235/235/235 241/241/241 237/237/237
f 230/230/230 229/229/229 243/243/243
f 230/230/230 243/243/243 241/241/241
f 241/241/241 243/243/243 244/244/244
f 241/241/241 244/244/244 242/242/242
f 243/243/243 245/245/245 246/246/246
f 243/243/243 246/246/246 244/244/244
f 229/229/229 232/232/232 245/245/245
f 229/229/229 245/245/245 243/243/243
f 240/240/240 239/239/239 247/247/247
f 240/240/240 247/247/247 248/248/248
f 249/249/249 248/248/248 247/247/247
f 249/249/249 247/247/247 250/250/250
f 251/251/251 250/250/250 247/247/247
f 251/251/251 247/247/247 252/252/252
f 246/246/246 252/252/252 247/247/247
f 246/246/246 247/247/247 244/244/244
f 242/242/242 244/244/244 247/247/247
f 242/242/242 247/247/247 239/239/239
f 232/232/232 253/253/253 254/254/254
f 232/232/232 254/254/254 245/245/245
f 245/245/245 254/254/254 255/255/255
f 245/245/245 255/255/255 246/246/246
f 254/254/254 256/256/256 257/257/257
f 254/254/254 257/257/257 255/255/255
f 253/253/253 258/258/258 256/256/256
f 253/253/253 256/256/256 254/254/254
f 246/246/246 255/255/255 259/259/259
f 246/246/246 259/259/259 252/252/252
f 252/252/252 259/259/259 260/260/260
f 252/252/252 260/260/260 251/251/251
f 259/259/259 261/261/261 262/262/262
f 259/259/259 262/262/262 260/260/260
f 255/255/255 257/257/257 261/261/261
f 255/255/255 261/261/261 259/259/259
f 263/263/263 264/264/264 265/265/265
f 263/263/263 265/265/265 266/266/266
f 266/266/266 265/265/265 250/250/250
f 266/266/266 250/250/250 251/251/251
f 265/265/265 267/267/267 249/249/249
f 265/265/265 249/249/249 250/250/250
f 264/264/264 268/268/268 267/267/267
f 264/264/264 267/267/267 265/265/265
f 269/269/269 270/270/270 271/271/271
f 269/269/269 271/271/271 272/272/272
f 272/272/272 271/271/271 260/260/260
f 272/272/272 260/260/260 262/262/262
f 271/271/271 266/266/266 251/251/251
f 271/271/271 251/251/251 260/260/260
f 270/270/270 263/263/263 266/266/266
f 270/270/270 266/266/266 271/271/271
f 263/263/263 270/270/270 273/273/273
f 263/263/263 273/273/273 264/264/264
f 268/268/268 264/264/264 273/273/273
f 268/268/268 273/273/273 274/274/274
f 275/275/275 274/274/274 273/273/273
f 275/275/275 273/273/273 276/276/276
f 277/277/277 276/276/276 273/273/273
f 277/277/277 273/273/273 278/278/278
f 279/279/279 278/278/278 273/273/273
f 279/279/279 273/273/273 280/280/280
f 281/281/281 280/280/280 273/273/273
f 281/281/281 273/273/273 282/282/282
f 283/283/283 282/282/282 273/273/273
f 283/283/283 273/273/273 284/284/284
f 269/269/269 284/284/284 273/273/273
f 269/269/269 273/273/273 270/270/270
f 283/283/283 284/284/284 285/285/285
f 283/283/283 285/285/285 286/286/286
f 286/286/286 285/285/285 287/287/287
f 286/286/286 287/287/287 288/288/288
f 285/285/285 272/272/272 262/262/262
f 285/285/285 262/262/262 287/287/287
f 284/284/284 269/269/269 272/272/272
f 284/284/284 272/272/272 285/285/285
f 281/281/281 282/282/282 289/289/289
f 281/281/281 289/289/289 290/290/290
f 290/290/290 289/289/289 291/291/291
f 290/290/290 291/291/291 292/292/292
f 289/289/289 286/286/286 288/288/288
f 289/289/289 288/288/288 291/291/291
f 282/282/282 283/283/283 286/286/286
f 282/282/282 286/286/286 289/289/289
f 257/257/257 293/293/293 294/294/294
f 257/257/257 294/294/294 261/261/261
f 261/261/261 294/294/294 287/287/287
f 261/261/261 287/287/287 262/262/262
f 294/294/294 295/295/295 288/288/288
f 294/294/294 288/288/288 287/287/287
f 293/293/293 296/296/296 295/295/295
f 293/293/293 295/295/295 294/294/294
f 296/296/296 297/297/297 298/298/298
f 296/296/296 298/298/298 295/295/295
f 295/295/295 298/298/298 291/291/291
f 295/295/295 291/291/291 288/288/288
f 298/298/298 299/299/299 292/292/292
f 298/298/298 292/292/292 291/291/291
f 297/297/297 300/300/300 299/299/299
f 297/297/297 299/299/299 298/298/298
f 258/258/258 301/301/301 302/302/302
f 258/258/258 302/302/302 256/256/256
f 256/256/256 302/302/302 293/293/293
f 256/256/256 293/293/293 257/257/257
f 302/302/302 303/303/303 296/296/296
f 302/302/302 296/296/296 293/293/293
f 301/301/301 304/304/304 303/303/303
f 301/301/301 303/303/303 302/302/302
f 304/304/304 305/305/305 306/306/306
f 304/304/304 306/306/306 303/303/303
f 303/303/303 306/306/306 297/297/297
f 303/303/303 297/297/297 296/296/296
f 306/306/306 307/307/307 300/300/300
f 306/306/306 300/300/300 297/297/297
f 305/305/305 308/308/308 307/307/307
f 305/305/305 307/307/307 306/306/306
f 309/309/309 310/310/310 311/311/311
f 309/309/309 311/311/311 312/312/312
f 312/312/312 311/311/311 301/301/301
f 312/312/312 301/301/301 258/258/258
f 311/311/311 313/313/313 304/304/304
f 311/311/311 304/304/304 301/301/301
f 310/310/310 314/314/314 313/313/313
f 310/310/310 313/313/313 311/311/311
f 314/314/314 315/315/315 316/316/316
f 314/314/314 316/316/316 313/313/313
f 313/313/313 316/316/316 305/305/305
f 313/313/313 305/305/305 304/304/304
f 316/316/316 317/317/317 308/308/308
f 316/316/316 308/308/308 305/305/305
f 315/315/315 318/318/318 317/317/317
f 315/315/315 317/317/317 316/316/316
f 319/319/319 320/320/320 321/321/321
f 319/319/319 321/321/321 322/322/322
f 322/322/322 321/321/321 310/310/310
f 322/322/322 310/310/310 309/309/309
f 321/321/321 323/323/323 314/314/314
f 321/321/321 314/314/314 310/310/310
f 320/320/320 324/324/324 323/323/323
f 320/320/320 323/323/323 321/321/321
f 324/324/324 325/325/325 326/326/326
f 324/324/324 326/326/326 323/323/323
f 323/323/323 326/326/326 315/315/315
f 323/323/323 315/315/315 314/314/314
f 326/326/326 327/327/327 318/318/318
f 326/326/326 318/318/318 315/315/315
f 325/325/325 328/328/328 327/327/327
f 325/325/325 327/327/327 326/326/326
f 216/216/216 329/329/329 330/330/330
f 216/216/216 330/330/330 225/225/225
f 225/225/225 330/330/330 331/331/331
f 225/225/225 331/331/331 226/226/226
f 330/330/330 322/322/322 309/309/309
f 330/330/330 309/309/309 331/331/331
f 329/329/329 319/319/319 322/322/322
f 329/329/329 322/322/322 330/330/330
f 226/226/226 331/331/331 332/332/332
f 226/226/226 332/332/332 231/231/231
f 231/231/231 332/332/332 253/253/253
f 231/231/231 253/253/253 232/232/232
f 332/332/332 312/312/312 258/258/258
f 332/332/332 258/258/258 253/253/253
f 331/331/331 309/309/309 312/312/312
f 331/331/331 312/312/312 332/332/332
f 333/333/333 334/334/334 335/335/335
f 333/333/333 335/335/335 336/336/336
f 336/336/336 335/335/335 337/337/337
f 336/336/336 337/337/337 338/338/338
f 335/335/335 320/320/320 319/319/319
f 335/335/335 319/319/319 337/337/337
f 334/334/334 324/324/324 320/320/320
f 334/334/334 320/320/320 335/335/335
f 338/338/338 337/337/337 339/339/339
f 338/338/338 339/339/339 340/340/340
f 340/340/340 339/339/339 213/213/213
f 340/340/340 213/213/213 206/206/206
f 339/339/339 329/329/329 216/216/216
f 339/339/339 216/216/216 213/213/213
f 337/337/337 319/319/319 329/329/329
f 337/337/337 329/329/329 339/339/339
f 341/341/341 342/342/342 343/343/343
f 341/341/341 343/343/343 344/344/344
f 344/344/344 343/343/343 345/345/345
f 344/344/344 345/345/345 192/192/192
f 343/343/343 336/336/336 338/338/338
f 343/343/343 338/338/338 345/345/345
f 342/342/342 333/333/333 336/336/336
f 342/342/342 336/336/336 343/343/343
f 192/192/192 345/345/345 346/346/346
f 192/192/192 346/346/346 191/191/191
f 191/191/191 346/346/346 203/203/203
f 191/191/191 203/203/203 188/188/188
f 346/346/346 340/340/340 206/206/206
f 346/346/346 206/206/206 203/203/203
f 345/345/345 338/338/338 340/340/340
f 345/345/345 340/340/340 346/346/346
f 347/347/347 348/348/348 349/349/349
f 347/347/347 349/349/349 350/350/350
f 350/350/350 349/349/349 334/334/334
f 350/350/350 334/334/334 333/333/333
f 349/349/349 325/325/325 324/324/324
f 349/349/349 324/324/324 334/334/334
f 348/348/348 328/328/328 325/325/325
f 348/348/348 325/325/325 349/349/349
f 351/351/351 352/352/352 353/353/353
f 351/351/351 353/353/353 354/354/354
f 354/354/354 353/353/353 342/342/342
f 354/354/354 342/342/342 341/341/341
f 353/353/353 350/350/350 333/333/333
f 353/353/353 333/333/333 342/342/342
f 352/352/352 347/347/347 350/350/350
f 352/352/352 350/350/350 353/353/353
f 355/355/355 356/356/356 357/357/357
f 355/355/355 357/357/357 358/358/358
f 358/358/358 357/357/357 359/359/359
f 358/358/358 359/359/359 360/360/360
f 357/357/357 354/354/354 341/341/341
f 357/357/357 341/341/341 359/359/359
f 356/356/356 351/351/351 354/354/354
f 356/356/356 354/354/354 357/357/357
f 360/360/360 359/359/359 361/361/361
f 360/360/360 361/361/361 362/362/362
f 362/362/362 361/361/361 189/189/189
f 362/362/362 189/189/189 182/182/182
f 361/361/361 344/344/344 192/192/192
f 361/361/361 192/192/192 189/189/189
f 359/359/359 341/341/341 344/344/344
f 359/359/359 344/344/344 361/361/361
f 116/116/116 363/363/363 364/364/364
f 116/116/116 364/364/364 115/115/115
f 115/115/115 364/364/364 179/179/179
f 115/115/115 179/179/179 112/112/112
f 364/364/364 362/362/362 182/182/182
f 364/364/364 182/182/182 179/179/179
f 363/363/363 360/360/360 362/362/362
f 363/363/363 362/362/362 364/364/364
f 124/124/124 365/365/365 366/366/366
f 124/124/124 366/366/366 123/123/123
f 123/123/123 366/366/366 363/363/363
f 123/123/123 363/363/363 116/116/116
f 366/366/366 358/358/358 360/360/360
f 366/366/366 360/360/360 363/363/363
f 365/365/365 355/355/355 358/358/358
f 365/365/365 358/358/358 366/366/366
f 367/367/367 368/368/368 369/369/369
f 367/367/367 369/369/369 370/370/370
f 370/370/370 369/369/369 356/356/356
f 370/370/370 356/356/356 355/355/355
f 369/369/369 371/371/371 351/351/351
f 369/369/369 351/351/351 356/356/356
f 368/368/368 372/372/372 371/371/371
f 368/368/368 371/371/371 369/369/369
f 130/130/130 373/373/373 374/374/374
f 130/130/130 374/374/374 129/129/129
f 129/129/129 374/374/374 365/365/365
f 129/129/129 365/365/365 124/124/124
f 374/374/374 370/370/370 355/355/355
f 374/374/374 355/355/355 365/365/365
f 373/373/373 367/367/367 370/370/370
f 373/373/373 370/370/370 374/374/374
f 375/375/375 376/376/376 377/377/377
f 375/375/375 377/377/377 378/378/378
f 378/378/378 377/377/377 368/368/368
f 378/378/378 368/368/368 367/367/367
f 377/377/377 379/379/379 372/372/372
f 377/377/377 372/372/372 368/368/368
f 376/376/376 380/380/380 379/379/379
f 376/376/376 379/379/379 377/377/377
f 140/140/140 381/381/381 382/382/382
f 140/140/140 382/382/382 139/139/139
f 139/139/139 382/382/382 373/373/373
f 139/139/139 373/373/373 130/130/130
f 382/382/382 378/378/378 367/367/367
f 382/382/382 367/367/367 373/373/373
f 381/381/381 375/375/375 378/378/378
f 381/381/381 378/378/378 382/382/382
f 375/375/375 383/383/383 384/384/384
f 375/375/375 384/384/384 376/376/376
f 376/376/376 384/384/384 385/385/385
f 376/376/376 385/385/385 380/380/380
f 384/384/384 386/386/386 387/387/387
f 384/384/384 387/387/387 385/385/385
f 383/383/383 388/388/388 386/386/386
f 383/383/383 386/386/386 384/384/384
f 140/140/140 143/143/143 389/389/389
f 140/140/140 389/389/389 381/381/381
f 375/375/375 381/381/381 389/389/389
f 375/375/375 389/389/389 383/383/383
f 388/388/388 383/383/383 389/389/389
f 388/388/388 389/389/389 390/390/390
f 173/173/173 390/390/390 389/389/389
f 173/173/173 389/389/389 172/172/172
f 145/145/145 172/172/172 389/389/389
f 145/145/145 389/389/389 143/143/143
f 388/388/388 390/390/390 391/391/391
f 388/388/388 391/391/391 386/386/386
f 386/386/386 391/391/391 392/392/392
f 386/386/386 392/392/392 387/387/387
f 391/391/391 393/393/393 394/394/394
f 391/391/391 394/394/394 392/392/392
f 390/390/390 173/173/173 393/393/393
f 390/390/390 393/393/393 391/391/391
f 387/387/387 392/392/392 395/395/395
f 387/387/387 395/395/395 396/396/396
f 396/396/396 395/395/395 397/397/397
f 396/396/396 397/397/397 398/398/398
f 395/395/395 399/399/399 400/400/400
f 395/395/395 400/400/400 397/397/397
f 392/392/392 394/394/394 399/399/399
f 392/392/392 399/399/399 395/395/395
f 380/380/380 385/385/385 401/401/401
f 380/380/380 401/401/401 402/402/402
f 402/402/402 401/401/401 403/403/403
f 402/402/402 403/403/403 404/404/404
f 401/401/401 396/396/396 398/398/398
f 401/401/401 398/398/398 403/403/403
f 385/385/385 387/387/387 396/396/396
f 385/385/385 396/396/396 401/401/401
f 398/398/398 397/397/397 405/405/405
f 398/398/398 405/405/405 406/406/406
f 406/406/406 405/405/405 407/407/407
f 406/406/406 407/407/407 408/408/408
f 405/405/405 409/409/409 410/410/410
f 405/405/405 410/410/410 407/407/407
f 397/397/397 400/400/400 409/409/409
f 397/397/397 409/409/409 405/405/405
f 404/404/404 403/403/403 411/411/411
f 404/404/404 411/411/411 412/412/412
f 412/412/412 411/411/411 413/413/413
f 412/412/412 413/413/413 414/414/414
f 411/411/411 406/406/406 408/408/408
f 411/411/411 408/408/408 413/413/413
f 403/403/403 398/398/398 406/406/406
f 403/403/403 406/406/406 411/411/411
f 408/408/408 407/407/407 415/415/415
f 408/408/408 415/415/415 416/416/416
f 416/416/416 415/415/415 417/417/417
f 416/416/416 417/417/417 418/418/418
f 415/415/415 419/419/419 420/420/420
f 415/415/415 420/420/420 417/417/417
f 407/407/407 410/410/410 419/419/419
f 407/407/407 419/419/419 415/415/415
f 414/414/414 413/413/413 421/421/421
f 414/414/414 421/421/421 422/422/422
f 422/422/422 421/421/421 423/423/423
f 422/422/422 423/423/423 424/424/424
f 421/421/421 416/416/416 418/418/418
f 421/421/421 418/418/418 423/423/423
f 413/413/413 408/408/408 416/416/416
f 413/413/413 416/416/416 421/421/421
f 418/418/418 417/417/417 425/425/425
f 418/418/418 425/425/425 426/426/426
f 426/426/426 425/425/425 427/427/427
f 426/426/426 427/427/427 428/428/428
f 425/425/425 429/429/429 430/430/430
f 425/425/425 430/430/430 427/427/427
f 417/417/417 420/420/420 429/429/429
f 417/417/417 429/429/429 425/425/425
f 424/424/424 423/423/423 431/431/431
f 424/424/424 431/431/431 432/432/432
f 432/432/432 431/431/431 433/433/433
f 432/432/432 433/433/433 434/434/434
f 431/431/431 426/426/426 428/428/428
f 431/431/431 428/428/428 433/433/433
f 423/423/423 418/418/418 426/426/426
f 423/423/423 426/426/426 431/431/431
f 428/428/428 427/427/427 435/435/435
f 428/428/428 435/435/435 436/436/436
f 436/436/436 435/435/435 437/437/437
f 436/436/436 437/437/437 438/438/438
f 435/435/435 439/439/439 440/440/440
f 435/435/435 440/440/440 437/437/437
f 427/427/427 430/430/430 439/439/439
f 427/427/427 439/439/439 435/435/435
f 434/434/434 433/433/433 441/441/441
f 434/434/434 441/441/441 442/442/442
f 442/442/442 441/441/441 443/443/443
f 442/442/442 443/443/443 444/444/444
f 441/441/441 436/436/436 438/438/438
f 441/441/441 438/438/438 443/443/443
f 433/433/433 428/428/428 436/436/436
f 433/433/433 436/436/436 441/441/441
f 444/444/444 443/443/443 445/445/445
f 444/444/444 445/445/445 446/446/446
f 447/447/447 446/446/446 445/445/445
f 447/447/447 445/445/445 448/448/448
f 449/449/449 448/448/448 445/445/445
f 449/449/449 445/445/445 450/450/450
f 440/440/440 450/450/450 445/445/445
f 440/440/440 445/445/445 437/437/437
f 438/438/438 437/437/437 445/445/445
f 438/438/438 445/445/445 443/443/443
f 451/451/451 452/452/452 453/453/453
f 451/451/451 453/453/453 454/454/454
f 454/454/454 453/453/453 455/455/455
f 454/454/454 455/455/455 456/456/456
f 453/453/453 446/446/446 447/447/447
f 453/453/453 447/447/447 455/455/455
f 452/452/452 444/444/444 446/446/446
f 452/452/452 446/446/446 453/453/453
f 457/457/457 458/458/458 459/459/459
f 457/457/457 459/459/459 460/460/460
f 460/460/460 459/459/459 452/452/452
f 460/460/460 452/452/452 451/451/451
f 459/459/459 442/442/442 444/444/444
f 459/459/459 444/444/444 452/452/452
f 458/458/458 434/434/434 442/442/442
f 458/458/458 442/442/442 459/459/459
f 275/275/275 276/276/276 461/461/461
f 275/275/275 461/461/461 462/462/462
f 462/462/462 461/461/461 448/448/448
f 462/462/462 448/448/448 449/449/449
f 461/461/461 463/463/463 447/447/447
f 461/461/461 447/447/447 448/448/448
f 276/276/276 277/277/277 463/463/463
f 276/276/276 463/463/463 461/461/461
f 277/277/277 278/278/278 464/464/464
f 277/277/277 464/464/464 463/463/463
f 463/463/463 464/464/464 455/455/455
f 463/463/463 455/455/455 447/447/447
f 464/464/464 465/465/465 456/456/456
f 464/464/464 456/456/456 455/455/455
f 278/278/278 279/279/279 465/465/465
f 278/278/278 465/465/465 464/464/464
f 279/279/279 280/280/280 466/466/466
f 279/279/279 466/466/466 465/465/465
f 465/465/465 466/466/466 467/467/467
f 465/465/465 467/467/467 456/456/456
f 466/466/466 290/290/290 292/292/292
f 466/466/466 292/292/292 467/467/467
f 280/280/280 281/281/281 290/290/290
f 280/280/280 290/290/290 466/466/466
f 268/268/268 274/274/274 468/468/468
f 268/268/268 468/468/468 267/267/267
f 267/267/267 468/468/468 469/469/469
f 267/267/267 469/469/469 249/249/249
f 468/468/468 462/462/462 449/449/449
f 468/468/468 449/449/449 469/469/469
f 274/274/274 275/275/275 462/462/462
f 274/274/274 462/462/462 468/468/468
f 300/300/300 470/470/470 471/471/471
f 300/300/300 471/471/471 299/299/299
f 299/299/299 471/471/471 467/467/467
f 299/299/299 467/467/467 292/292/292
f 471/471/471 454/454/454 456/456/456
f 471/471/471 456/456/456 467/467/467
f 470/470/470 451/451/451 454/454/454
f 470/470/470 454/454/454 471/471/471
f 440/440/440 472/472/472 473/473/473
f 440/440/440 473/473/473 450/450/450
f 449/449/449 450/450/450 473/473/473
f 449/449/449 473/473/473 469/469/469
f 249/249/249 469/469/469 473/473/473
f 249/249/249 473/473/473 248/248/248
f 240/240/240 248/248/248 473/473/473
f 240/240/240 473/473/473 474/474/474
f 475/475/475 474/474/474 473/473/473
f 475/475/475 473/473/473 476/476/476
f 477/477/477 476/476/476 473/473/473
f 477/477/477 473/473/473 472/472/472
f 308/308/308 478/478/478 479/479/479
f 308/308/308 479/479/479 307/307/307
f 307/307/307 479/479/479 470/470/470
f 307/307/307 470/470/470 300/300/300
f 479/479/479 460/460/460 451/451/451
f 479/479/479 451/451/451 470/470/470
f 478/478/478 457/457/457 460/460/460
f 478/478/478 460/460/460 479/479/479
f 318/318/318 480/480/480 481/481/481
f 318/318/318 481/481/481 317/317/317
f 317/317/317 481/481/481 478/478/478
f 317/317/317 478/478/478 308/308/308
f 481/481/481 482/482/482 457/457/457
f 481/481/481 457/457/457 478/478/478
f 480/480/480 483/483/483 482/482/482
f 480/480/480 482/482/482 481/481/481
f 483/483/483 484/484/484 485/485/485
f 483/483/483 485/485/485 482/482/482
f 482/482/482 485/485/485 458/458/458
f 482/482/482 458/458/458 457/457/457
f 485/485/485 432/432/432 434/434/434
f 485/485/485 434/434/434 458/458/458
f 484/484/484 424/424/424 432/432/432
f 484/484/484 432/432/432 485/485/485
f 328/328/328 486/486/486 487/487/487
f 328/328/328 487/487/487 327/327/327
f 327/327/327 487/487/487 480/480/480
f 327/327/327 480/480/480 318/318/318
f 487/487/487 488/488/488 483/483/483
f 487/487/487 483/483/483 480/480/480
f 486/486/486 489/489/489 488/488/488
f 486/486/486 488/488/488 487/487/487
f 489/489/489 490/490/490 491/491/491
f 489/489/489 491/491/491 488/488/488
f 488/488/488 491/491/491 484/484/484
f 488/488/488 484/484/484 483/483/483
f 491/491/491 422/422/422 424/424/424
f 491/491/491 424/424/424 484/484/484
f 490/490/490 414/414/414 422/422/422
f 490/490/490 422/422/422 491/491/491
f 492/492/492 493/493/493 494/494/494
f 492/492/492 494/494/494 495/495/495
f 495/495/495 494/494/494 348/348/348
f 495/495/495 348/348/348 347/347/347
f 494/494/494 486/486/486 328/328/328
f 494/494/494 328/328/328 348/348/348
f 493/493/493 489/489/489 486/486/486
f 493/493/493 486/486/486 494/494/494
f 404/404/404 412/412/412 496/496/496
f 404/404/404 496/496/496 497/497/497
f 497/497/497 496/496/496 493/493/493
f 497/497/497 493/493/493 492/492/492
f 496/496/496 490/490/490 489/489/489
f 496/496/496 489/489/489 493/493/493
f 412/412/412 414/414/414 490/490/490
f 412/412/412 490/490/490 496/496/496
f 380/380/380 402/402/402 498/498/498
f 380/380/380 498/498/498 379/379/379
f 379/379/379 498/498/498 499/499/499
f 379/379/379 499/499/499 372/372/372
f 498/498/498 497/497/497 492/492/492
f 498/498/498 492/492/492 499/499/499
f 402/402/402 404/404/404 497/497/497
f 402/402/402 497/497/497 498/498/498
f 372/372/372 499/499/499 500/500/500
f 372/372/372 500/500/500 371/371/371
f 371/371/371 500/500/500 352/352/352
f 371/371/371 352/352/352 351/351/351
f 500/500/500 495/495/495 347/347/347
f 500/500/500 347/347/347 352/352/352
f 499/499/499 492/492/492 495/495/495
f 499/499/499 495/495/495 500/500/500
f 430/430/430 501/501/501 502/502/502
f 430/430/430 502/502/502 439/439/439
f 439/439/439 502/502/502 472/472/472
f 439/439/439 472/472/472 440/440/440
f 502/502/502 503/503/503 477/477/477
f 502/502/502 477/477/477 472/472/472
f 501/501/501 504/504/504 503/503/503
f 501/501/501 503/503/503 502/502/502
f 504/504/504 505/505/505 506/506/506
f 504/504/504 506/506/506 503/503/503
f 503/503/503 506/506/506 476/476/476
f 503/503/503 476/476/476 477/477/477
f 506/506/506 507/507/507 475/475/475
f 506/506/506 475/475/475 476/476/476
f 505/505/505 508/508/508 507/507/507
f 505/505/505 507/507/507 506/506/506
f 508/508/508 509/509/509 510/510/510
f 508/508/508 510/510/510 507/507/507
f 507/507/507 510/510/510 474/474/474
f 507/507/507 474/474/474 475/475/475
f 510/510/510 238/238/238 240/240/240
f 510/510/510 240/240/240 474/474/474
f 509/509/509 236/236/236 238/238/238
f 509/509/509 238/238/238 510/510/510
f 511/511/511 512/512/512 513/513/513
f 511/511/511 513/513/513 514/514/514
f 514/514/514 513/513/513 509/509/509
f 514/514/514 509/509/509 508/508/508
f 513/513/513 234/234/234 236/236/236
f 513/513/513 236/236/236 509/509/509
f 512/512/512 220/220/220 234/234/234
f 512/512/512 234/234/234 513/513/513
f 515/515/515 516/516/516 517/517/517
f 515/515/515 517/517/517 518/518/518
f 518/518/518 517/517/517 505/505/505
f 518/518/518 505/505/505 504/504/504
f 517/517/517 514/514/514 508/508/508
f 517/517/517 508/508/508 505/505/505
f 516/516/516 511/511/511 514/514/514
f 516/516/516 514/514/514 517/517/517
f 519/519/519 520/520/520 521/521/521
f 519/519/519 521/521/521 522/522/522
f 522/522/522 521/521/521 516/516/516
f 522/522/522 516/516/516 515/515/515
f 521/521/521 523/523/523 511/511/511
f 521/521/521 511/511/511 516/516/516
f 520/520/520 524/524/524 523/523/523
f 520/520/520 523/523/523 521/521/521
f 524/524/524 525/525/525 526/526/526
f 524/524/524 526/526/526 523/523/523
f 523/523/523 526/526/526 512/512/512
f 523/523/523 512/512/512 511/511/511
f 526/526/526 218/218/218 220/220/220
f 526/526/526 220/220/220 512/512/512
f 525/525/525 211/211/211 218/218/218
f 525/525/525 218/218/218 526/526/526
f 201/201/201 209/209/209 527/527/527
f 201/201/201 527/527/527 528/528/528
f 528/528/528 527/527/527 529/529/529
f 528/528/528 529/529/529 530/530/530
f 527/527/527 525/525/525 524/524/524
f 527/527/527 524/524/524 529/529/529
f 209/209/209 211/211/211 525/525/525
f 209/209/209 525/525/525 527/527/527
f 530/530/530 529/529/529 531/531/531
f 530/530/530 531/531/531 532/532/532
f 532/532/532 531/531/531 533/533/533
f 532/532/532 533/533/533 534/534/534
f 531/531/531 520/520/520 519/519/519
f 531/531/531 519/519/519 533/533/533
f 529/529/529 524/524/524 520/520/520
f 529/529/529 520/520/520 531/531/531
f 196/196/196 199/199/199 535/535/535
f 196/196/196 535/535/535 536/536/536
f 536/536/536 535/535/535 537/537/537
f 536/536/536 537/537/537 538/538/538
f 535/535/535 528/528/528 530/530/530
f 535/535/535 530/530/530 537/537/537
f 199/199/199 201/201/201 528/528/528
f 199/199/199 528/528/528 535/535/535
f 538/538/538 537/537/537 539/539/539
f 538/538/538 539/539/539 540/540/540
f 540/540/540 539/539/539 541/541/541
f 540/540/540 541/541/541 542/542/542
f 539/539/539 532/532/532 534/534/534
f 539/539/539 534/534/534 541/541/541
f 537/537/537 530/530/530 532/532/532
f 537/537/537 532/532/532 539/539/539
f 166/166/166 194/194/194 543/543/543
f 166/166/166 543/543/543 178/178/178
f 178/178/178 543/543/543 544/544/544
f 178/178/178 544/544/544 177/177/177
f 543/543/543 536/536/536 538/538/538
f 543/543/543 538/538/538 544/544/544
f 194/194/194 196/196/196 536/536/536
f 194/194/194 536/536/536 543/543/543
f 177/177/177 544/544/544 545/545/545
f 177/177/177 545/545/545 176/176/176
f 176/176/176 545/545/545 546/546/546
f 176/176/176 546/546/546 175/175/175
f 545/545/545 540/540/540 542/542/542
f 545/545/545 542/542/542 546/546/546
f 544/544/544 538/538/538 540/540/540
f 544/544/544 540/540/540 545/545/545
f 175/175/175 546/546/546 547/547/547
f 175/175/175 547/547/547 174/174/174
f 174/174/174 547/547/547 393/393/393
f 174/174/174 393/393/393 173/173/173
f 547/547/547 548/548/548 394/394/394
f 547/547/547 394/394/394 393/393/393
f 546/546/546 542/542/542 548/548/548
f 546/546/546 548/548/548 547/547/547
f 542/542/542 541/541/541 549/549/549
f 542/542/542 549/549/549 548/548/548
f 548/548/548 549/549/549 399/399/399
f 548/548/548 399/399/399 394/394/394
f 549/549/549 550/550/550 400/400/400
f 549/549/549 400/400/400 399/399/399
f 541/541/541 534/534/534 550/550/550
f 541/541/541 550/550/550 549/549/549
f 534/534/534 533/533/533 551/551/551
f 534/534/534 551/551/551 550/550/550
f 550/550/550 551/551/551 409/409/409
f 550/550/550 409/409/409 400/400/400
f 551/551/551 552/552/552 410/410/410
f 551/551/551 410/410/410 409/409/409
f 533/533/533 519/519/519 552/552/552
f 533/533/533 552/552/552 551/551/551
f 410/410/410 552/552/552 553/553/553
f 410/410/410 553/553/553 419/419/419
f 419/419/419 553/553/553 554/554/554
f 419/419/419 554/554/554 420/420/420
f 553/553/553 522/522/522 515/515/515
f 553/553/553 515/515/515 554/554/554
f 552/552/552 519/519/519 522/522/522
f 552/552/552 522/522/522 553/553/553
f 420/420/420 554/554/554 555/555/555
f 420/420/420 555/555/555 429/429/429
f 429/429/429 555/555/555 501/501/501
f 429/429/429 501/501/501 430/430/430
f 555/555/555 518/518/518 504/504/504
f 555/555/555 504/504/504 501/501/501
f 554/554/554 515/515/515 518/518/518
f 554/554/554 518/518/518 555/555/555
f 556/556/556 557/557/557 558/558/558
f 556/556/556 558/558/558 559/559/559
f 559/559/559 558/558/558 560/560/560
f 559/559/559 560/560/560 561/561/561
f 558/558/558 83/83/83 85/85/85
f 558/558/558 85/85/85 560/560/560
f 557/557/557 69/69/69 83/83/83
f 557/557/557 83/83/83 558/558/558
f 561/561/561 560/560/560 562/562/562
f 561/561/561 562/562/562 563/563/563
f 563/563/563 562/562/562 11/11/11
f 563/563/563 11/11/11 10/10/10
f 562/562/562 87/87/87 15/15/15
f 562/562/562 15/15/15 11/11/11
f 560/560/560 85/85/85 87/87/87
f 560/560/560 87/87/87 562/562/562
f 564/564/564 565/565/565 566/566/566
f 564/564/564 566/566/566 567/567/567
f 567/567/567 566/566/566 557/557/557
f 567/567/567 557/557/557 556/556/556
f 566/566/566 67/67/67 69/69/69
f 566/566/566 69/69/69 557/557/557
f 565/565/565 65/65/65 67/67/67
f 565/565/565 67/67/67 566/566/566
f 36/36/36 39/39/39 568/568/568
f 36/36/36 568/568/568 569/569/569
f 569/569/569 568/568/568 565/565/565
f 569/569/569 565/565/565 564/564/564
f 568/568/568 63/63/63 65/65/65
f 568/568/568 65/65/65 565/565/565
f 39/39/39 41/41/41 63/63/63
f 39/39/39 63/63/63 568/568/568
