v 1.40899 0.888464 0.227356
v 1.41052 0.891245 0.224989
v 1.41035 0.889008 0.222405
v 1.40887 0.88671 0.225314
v 1.41095 0.886123 0.220647
v 1.40935 0.884437 0.223925
v 1.41194 0.890979 0.219769
v 1.41271 0.88772 0.217609
v 1.41208 0.893469 0.222909
v 1.41091 0.889441 0.232137
v 1.41303 0.892547 0.231039
v 1.41147 0.89248 0.228023
v 1.40971 0.889415 0.229753
v 1.41313 0.894851 0.22654
v 1.41496 0.894918 0.230097
v 1.41368 0.894774 0.22132
v 1.41373 0.892398 0.217621
v 1.41473 0.889149 0.215021
v 1.41555 0.89345 0.215951
v 1.41673 0.890364 0.212984
v 1.41532 0.895592 0.220091
v 1.4166 0.896096 0.229396
v 1.41467 0.896087 0.225464
v 1.41621 0.89677 0.224589
v 1.41817 0.896719 0.228729
v 1.41224 0.883008 0.220007
v 1.41037 0.881983 0.223421
v 1.41402 0.880138 0.220552
v 1.41177 0.87972 0.223853
v 1.41426 0.884109 0.21682
v 1.4163 0.880747 0.217491
v 1.41648 0.885318 0.214069
v 1.41859 0.88166 0.214883
v 1.41862 0.886479 0.211893
v 1.42071 0.882682 0.21283
v 1.41483 0.877075 0.227182
v 1.41334 0.878003 0.225182
v 1.41602 0.877967 0.222231
v 1.41795 0.876799 0.224761
v 1.41851 0.878218 0.219553
v 1.42062 0.876865 0.222627
v 1.42067 0.878939 0.217366
v 1.42259 0.877494 0.220988
v 1.42256 0.879892 0.215667
v 1.42419 0.878428 0.219721
v 1.42426 0.880789 0.214391
v 1.42582 0.879339 0.218645
v 1.42584 0.881544 0.213443
v 1.42754 0.880091 0.217655
v 1.42248 0.883588 0.211379
v 1.42392 0.884346 0.210457
v 1.41846 0.891344 0.211538
v 1.42039 0.887433 0.21038
v 1.42179 0.888185 0.209467
v 1.41988 0.892129 0.210615
v 1.42727 0.8821 0.212719
v 1.42924 0.880577 0.216721
v 1.42833 0.882302 0.212105
v 1.43048 0.880609 0.21603
v 1.4251 0.884951 0.20991
v 1.426 0.885322 0.209362
v 1.42103 0.892774 0.210063
v 1.42288 0.888774 0.208982
v 1.42371 0.889221 0.208458
v 1.42183 0.893319 0.209514
v 1.42889 0.882093 0.211501
v 1.43097 0.880132 0.215707
v 1.42939 0.881907 0.210858
v 1.43131 0.87971 0.215432
v 1.42664 0.885431 0.208511
v 1.4273 0.885546 0.207549
v 1.42228 0.893805 0.208668
v 1.42433 0.889558 0.207519
v 1.42498 0.889914 0.206442
v 1.42274 0.8943 0.207713
v 1.41854 0.897472 0.218036
v 1.41988 0.89862 0.217092
v 1.41996 0.89616 0.213002
v 1.41872 0.895277 0.213734
v 1.42071 0.896937 0.212386
v 1.42058 0.899638 0.216397
v 1.42045 0.900317 0.216086
v 1.42085 0.897533 0.21179
v 1.42097 0.898064 0.21116
v 1.4203 0.900845 0.215827
v 1.42155 0.898605 0.226803
v 1.42297 0.899811 0.225648
v 1.42088 0.899935 0.221525
v 1.41949 0.898677 0.222625
v 1.42159 0.901063 0.220773
v 1.42375 0.900928 0.224886
v 1.42372 0.901784 0.224854
v 1.42142 0.901811 0.220659
v 1.42121 0.902378 0.220661
v 1.42365 0.902487 0.224963
v 1.42991 0.896448 0.230304
v 1.43047 0.89739 0.230197
v 1.42706 0.900163 0.228134
v 1.42684 0.89916 0.228186
v 1.42725 0.901079 0.228204
v 1.43099 0.898302 0.23018
v 1.42738 0.894698 0.231972
v 1.42887 0.895578 0.230965
v 1.42595 0.898129 0.228903
v 1.42449 0.897088 0.23
v 1.43039 0.888835 0.231815
v 1.43195 0.889595 0.230812
v 1.43085 0.892816 0.231613
v 1.42935 0.892006 0.232582
v 1.43204 0.893455 0.230975
v 1.43325 0.889982 0.230152
v 1.43434 0.889924 0.23004
v 1.43295 0.893943 0.230842
v 1.43384 0.894414 0.230788
v 1.43539 0.88985 0.230017
v 1.43338 0.882401 0.224519
v 1.43407 0.881897 0.224475
v 1.43466 0.885551 0.227844
v 1.43371 0.885924 0.227905
v 1.43552 0.885197 0.227902
v 1.43461 0.881451 0.224568
v 1.43022 0.881848 0.226423
v 1.43202 0.88237 0.225278
v 1.43235 0.885748 0.22862
v 1.43067 0.885103 0.22971
v 1.43091 0.880611 0.221125
v 1.42909 0.880144 0.222214
v 1.43224 0.880585 0.220376
v 1.43276 0.880027 0.220249
v 1.43311 0.879539 0.220234
v 1.43231 0.879941 0.214765
v 1.43415 0.879757 0.219684
v 1.43575 0.881694 0.224084
v 1.43664 0.880791 0.218198
v 1.43828 0.882769 0.222681
v 1.43469 0.880941 0.213233
v 1.43679 0.885482 0.227429
v 1.43671 0.890261 0.22953
v 1.43931 0.886598 0.226124
v 1.43917 0.891441 0.228303
v 1.43042 0.882224 0.210042
v 1.43265 0.88321 0.208511
v 1.42835 0.885988 0.20661
v 1.43044 0.886997 0.205101
v 1.43898 0.882695 0.210458
v 1.44115 0.882615 0.215513
v 1.44287 0.884679 0.22017
v 1.44762 0.885184 0.211672
v 1.44946 0.887377 0.216593
v 1.44513 0.885161 0.206475
v 1.43662 0.884927 0.205753
v 1.4423 0.887347 0.20178
v 1.43411 0.888748 0.2024
v 1.43935 0.891228 0.1985
v 1.45334 0.888605 0.201151
v 1.45621 0.888745 0.206512
v 1.45819 0.891087 0.211746
v 1.4686 0.89475 0.19874
v 1.47064 0.897174 0.204206
v 1.46549 0.894534 0.193294
v 1.44998 0.890734 0.196476
v 1.46177 0.896615 0.188698
v 1.44651 0.894683 0.193291
v 1.45794 0.90059 0.185641
v 1.4341 0.901257 0.198692
v 1.44091 0.905338 0.193499
v 1.44334 0.899823 0.192259
v 1.43649 0.896126 0.197423
v 1.45456 0.905872 0.184666
v 1.45211 0.911627 0.185867
v 1.42567 0.896132 0.205273
v 1.42915 0.898238 0.20258
v 1.43151 0.893438 0.201288
v 1.42801 0.891552 0.203962
v 1.42318 0.902994 0.213647
v 1.427 0.905605 0.210893
v 1.42746 0.902442 0.206085
v 1.42385 0.90007 0.208828
v 1.4326 0.905857 0.202134
v 1.43244 0.909373 0.206939
v 1.43982 0.914328 0.201653
v 1.43964 0.910399 0.19686
v 1.451 0.916985 0.189116
v 1.45141 0.921179 0.193841
v 1.42678 0.904822 0.223096
v 1.4309 0.90759 0.220604
v 1.4282 0.907385 0.215983
v 1.4242 0.904634 0.218646
v 1.4339 0.91136 0.212174
v 1.43677 0.911589 0.217057
v 1.44467 0.916811 0.212248
v 1.44159 0.916556 0.207055
v 1.45337 0.923557 0.199331
v 1.45656 0.923819 0.204752
v 1.4446 0.906624 0.223357
v 1.45263 0.911342 0.219212
v 1.4486 0.914986 0.216475
v 1.44062 0.909954 0.220915
v 1.46051 0.921859 0.209284
v 1.46456 0.918005 0.212276
v 1.43441 0.900576 0.228474
v 1.4386 0.903054 0.226353
v 1.43467 0.906116 0.224155
v 1.43051 0.903457 0.226441
v 1.44356 0.893564 0.226173
v 1.44173 0.898648 0.227033
v 1.43746 0.89636 0.229098
v 1.44785 0.901932 0.22412
v 1.44986 0.896595 0.223165
v 1.45824 0.900687 0.219004
v 1.45602 0.906316 0.220076
v 1.46803 0.912769 0.213227
v 1.4704 0.906969 0.21205
v 1.45894 0.89532 0.216091
v 1.45032 0.891444 0.22056
v 1.47128 0.901489 0.208866
v 1.44383 0.888601 0.223823
v 1.43507 0.895076 0.230296
v 1.43206 0.899179 0.229697
v 1.48792 0.906594 0.192928
v 1.48847 0.910831 0.19774
v 1.48752 0.916231 0.201078
v 1.50818 0.921639 0.184491
v 1.50722 0.926935 0.18789
v 1.50768 0.917531 0.179621
v 1.48513 0.921969 0.202319
v 1.48168 0.927168 0.201324
v 1.50484 0.932568 0.18916
v 1.50144 0.937672 0.188153
v 1.4829 0.904048 0.182018
v 1.48595 0.904232 0.187406
v 1.50585 0.91534 0.17408
v 1.50304 0.915333 0.168726
v 1.52781 0.932007 0.171192
v 1.52682 0.937356 0.17461
v 1.54712 0.941798 0.15817
v 1.54608 0.947359 0.161621
v 1.52735 0.927948 0.166254
v 1.54669 0.937694 0.153101
v 1.52563 0.92598 0.160569
v 1.54503 0.935955 0.14713
v 1.52308 0.926306 0.155049
v 1.54272 0.93671 0.141261
v 1.56358 0.945244 0.134208
v 1.56521 0.946779 0.14053
v 1.57747 0.952622 0.124539
v 1.57905 0.953969 0.130988
v 1.56146 0.946432 0.127917
v 1.57553 0.954103 0.118053
v 1.56562 0.950982 0.145783
v 1.56452 0.956827 0.149299
v 1.57947 0.958165 0.136259
v 1.57837 0.964108 0.139742
v 1.52441 0.943059 0.175888
v 1.52094 0.948223 0.174885
v 1.54355 0.953307 0.162908
v 1.53993 0.95869 0.161905
v 1.56185 0.963094 0.150607
v 1.55802 0.968764 0.149595
v 1.57566 0.970486 0.141036
v 1.57175 0.976246 0.140041
v 1.53205 0.964644 0.153787
v 1.53578 0.96266 0.158695
v 1.55365 0.972937 0.14633
v 1.54983 0.974989 0.141245
v 1.5673 0.980471 0.13681
v 1.56347 0.982511 0.131709
v 1.49376 0.943385 0.180258
v 1.49751 0.941447 0.184977
v 1.51696 0.952037 0.171699
v 1.51326 0.953974 0.166917
v 1.48925 0.940933 0.169359
v 1.49087 0.943166 0.174768
v 1.5106 0.953722 0.161284
v 1.5094 0.951538 0.155702
v 1.52961 0.964325 0.14787
v 1.52889 0.96212 0.14193
v 1.54758 0.974593 0.134977
v 1.54731 0.972337 0.128605
v 1.56139 0.982046 0.125315
v 1.56146 0.979798 0.11874
v 1.49052 0.931994 0.1618
v 1.48918 0.937012 0.164843
v 1.50985 0.947842 0.151043
v 1.51159 0.943137 0.147911
v 1.52999 0.958596 0.136948
v 1.53226 0.954161 0.133599
v 1.54906 0.968939 0.123233
v 1.55189 0.964716 0.119618
v 1.56365 0.976594 0.113147
v 1.56683 0.972637 0.109367
v 1.49618 0.921484 0.161546
v 1.49299 0.926559 0.160668
v 1.51414 0.93797 0.146754
v 1.51711 0.93298 0.147664
v 1.53496 0.949207 0.132378
v 1.5377 0.944207 0.133369
v 1.55476 0.959906 0.118313
v 1.55732 0.95483 0.119402
v 1.5698 0.968012 0.108014
v 1.57217 0.962959 0.10917
v 1.54027 0.93974 0.136473
v 1.55944 0.949979 0.12276
v 1.5739 0.957936 0.112689
v 1.49968 0.917535 0.164365
v 1.52016 0.928846 0.150562
v 1.47921 0.906122 0.177575
v 1.47541 0.910058 0.174673
v 1.46959 0.920966 0.174918
v 1.47204 0.915278 0.173762
v 1.58054 0.962284 0.108921
v 1.58184 0.958601 0.114137
v 1.58223 0.964276 0.109109
v 1.58333 0.961042 0.113892
v 1.57914 0.967055 0.105454
v 1.58102 0.968525 0.105881
v 1.57698 0.971842 0.104301
v 1.57904 0.97289 0.104795
v 1.57411 0.976146 0.105625
v 1.57642 0.97682 0.106019
v 1.58232 0.965297 0.110386
v 1.58342 0.962605 0.114594
v 1.57995 0.96469 0.11284
v 1.58123 0.962502 0.11648
v 1.58106 0.968976 0.107519
v 1.57847 0.967877 0.110365
v 1.57919 0.972902 0.106545
v 1.57661 0.971458 0.109529
v 1.57687 0.976526 0.107626
v 1.57458 0.974909 0.110466
v 1.56815 0.963234 0.119082
v 1.56867 0.961208 0.121953
v 1.5743 0.96222 0.116953
v 1.5727 0.965006 0.11476
v 1.57592 0.960451 0.119989
v 1.57116 0.959646 0.123217
v 1.56511 0.968796 0.119207
v 1.56582 0.96557 0.120079
v 1.57075 0.968268 0.114198
v 1.56905 0.971642 0.114885
v 1.5638 0.973165 0.123558
v 1.56392 0.972819 0.127079
v 1.56532 0.965215 0.128288
v 1.56372 0.970285 0.122176
v 1.57097 0.959874 0.126752
v 1.57299 0.960442 0.129196
v 1.57164 0.96258 0.131588
v 1.5725 0.965293 0.133361
v 1.56996 0.967606 0.133626
v 1.56941 0.970975 0.133504
v 1.56663 0.971796 0.131819
v 1.56555 0.974116 0.12954
v 1.56762 0.974447 0.117227
v 1.56707 0.976678 0.12039
v 1.57274 0.977794 0.113109
v 1.57168 0.979942 0.116908
v 1.56747 0.977738 0.12419
v 1.56903 0.97784 0.127748
v 1.57191 0.981215 0.121183
v 1.57348 0.981325 0.125199
v 1.57359 0.979969 0.109468
v 1.57452 0.97945 0.110686
v 1.57296 0.981678 0.115081
v 1.5716 0.982447 0.11446
v 1.57141 0.984286 0.120135
v 1.57294 0.983198 0.120013
v 1.57456 0.983495 0.124638
v 1.57313 0.984747 0.125514
v 1.57096 0.979695 0.109339
v 1.56871 0.982549 0.11478
v 1.56849 0.984652 0.121077
v 1.57038 0.985157 0.127127
v 1.57646 0.983128 0.129711
v 1.57757 0.982092 0.128208
v 1.57617 0.980033 0.128305
v 1.58104 0.979132 0.130411
v 1.57921 0.977446 0.130223
v 1.58036 0.979648 0.132325
v 1.57402 0.983288 0.131897
v 1.57829 0.979329 0.13489
v 1.58371 0.974822 0.133122
v 1.58397 0.974984 0.131079
v 1.58177 0.973833 0.130805
v 1.58586 0.970295 0.130194
v 1.58341 0.969744 0.130033
v 1.58594 0.969417 0.132074
v 1.58201 0.973893 0.135808
v 1.58455 0.96785 0.134609
v 1.57128 0.976471 0.130621
v 1.57396 0.974164 0.132421
v 1.57608 0.970831 0.132971
v 1.57772 0.967249 0.132249
v 1.57818 0.963806 0.130305
v 1.57807 0.961246 0.127333
v 1.58391 0.96585 0.127954
v 1.58349 0.962985 0.124741
v 1.57708 0.960107 0.123746
v 1.58248 0.96186 0.120691
v 1.58672 0.964335 0.129248
v 1.58644 0.965846 0.127808
v 1.58594 0.962662 0.124115
v 1.58623 0.96077 0.124908
v 1.58485 0.95971 0.119485
v 1.58475 0.961602 0.119452
v 1.58553 0.962203 0.131377
v 1.58508 0.958255 0.126446
v 1.58357 0.957084 0.120347
v 1.46884 0.930411 0.182613
v 1.46846 0.926264 0.178029
v 1.47384 0.932988 0.193523
v 1.47073 0.932753 0.18805
v 1.4777 0.931014 0.198195
v 1.42819 0.901975 0.227739
v 1.42449 0.903301 0.224488
v 1.42197 0.903129 0.220121
v 1.42104 0.901561 0.215169
v 1.4218 0.898752 0.210351
v 1.42368 0.894943 0.206778
v 1.42601 0.890472 0.20546
v 1.42677 0.880051 0.228361
v 1.42839 0.881027 0.227488
v 1.42886 0.884202 0.230761
v 1.42719 0.883142 0.231627
v 1.42861 0.887875 0.232836
v 1.42685 0.886785 0.23372
v 1.42728 0.879374 0.223252
v 1.42567 0.878444 0.22419
v 1.42349 0.878352 0.229817
v 1.42537 0.879075 0.229065
v 1.42572 0.882018 0.232273
v 1.42377 0.881028 0.23282
v 1.42524 0.885614 0.234381
v 1.42318 0.884417 0.234843
v 1.42425 0.877522 0.225105
v 1.42237 0.876912 0.226236
v 1.42393 0.889099 0.235149
v 1.42177 0.887939 0.235578
v 1.42186 0.89219 0.234518
v 1.41972 0.891134 0.234958
v 1.42572 0.890057 0.234481
v 1.42372 0.892881 0.233872
v 1.42756 0.891047 0.233591
v 1.42559 0.893743 0.232994
v 1.41921 0.894671 0.232526
v 1.41731 0.893587 0.233034
v 1.42094 0.895267 0.231909
v 1.42274 0.896079 0.231053
v 1.41987 0.897532 0.227871
v 1.41786 0.897595 0.223666
v 1.41697 0.896451 0.219029
v 1.41639 0.882079 0.235394
v 1.4201 0.88324 0.235156
v 1.41881 0.886363 0.235796
v 1.41537 0.884534 0.235899
v 1.41702 0.889228 0.23525
v 1.41397 0.886797 0.235466
v 1.41498 0.891393 0.23357
v 1.4124 0.888513 0.234138
v 1.41675 0.878053 0.231963
v 1.42047 0.87807 0.230812
v 1.42067 0.880328 0.233397
v 1.41687 0.879807 0.234005
v 1.4195 0.876844 0.227777
v 1.41603 0.877102 0.229566
v 1.41722 0.89438 0.214685
vt 0.08333 0.9167
vt 0.08438 0.08427
vt 0.9165 0.08357
vt 0.2615 0.01138
vt 0.08479 0.08463
vt 0.08433 0.9159
vt 0.08526 0.08505
vt 0.0004723 0.5001
vt 0.01042 0.7396
vt 0.01114 0.7391
vt 0.9895 0.7395
vt 0.9166 0.08345
vt 0.08479 0.08463
vt 0.2619 0.01169
vt 0.01114 0.7391
vt 0.2612 0.01111
vt 0.9895 0.2605
vt 0.2615 0.01138
vt 0.9896 0.7396
vt 0 0.5
vt 0.01042 0.7396
vt 0.7394 0.9893
vt 0.9894 0.2606
vt 0.9998 0.5
vt 0.5003 0.0006679
vt 0.9894 0.2606
vt 1 0.5
vt 0.2612 0.01111
vt 0.01187 0.7385
vt 0.5002 0.00048
vt 0.01114 0.7391
vt 0.9895 0.2605
vt 0.5001 0.0003395
vt 0.261 0.01091
vt 0.0004723 0.5001
vt 0.5002 0.00048
vt 0.9164 0.9163
vt 0.9999 0.5
vt 0.9998 0.5
vt 0.261 0.01091
vt 0.0009446 0.5001
vt 0.9999 0.5
vt 0.9999 0.5
vt 0.5001 0.0003395
vt 0.08433 0.9159
vt 0.9895 0.2605
vt 0.9166 0.9166
vt 0.5001 0.0002402
vt 0.01187 0.7385
vt 0.2608 0.01076
vt 0.08532 0.9151
vt 0.9167 0.9167
vt 0.9896 0.2604
vt 0.261 0.01091
vt 0.01114 0.7391
vt 1 0.5
vt 0.9896 0.7396
vt 0.2608 0.01076
vt 0.2612 0.989
vt 0.08407 0.08399
vt 0.5 1
vt 0.08438 0.08427
vt 0.9999 0.5
vt 0.2612 0.01111
vt 0.2604 0.9896
vt 0.9166 0.08345
vt 0.2607 0.01066
vt 0.5001 0.0001687
vt 0.01151 0.7388
vt 0.08386 0.0838
vt 0.5002 0.9996
vt 0.08407 0.08399
vt 0.9167 0.08333
vt 0.9895 0.7395
vt 0.2604 0.9896
vt 0.08433 0.9159
vt 0.0005134 0.5001
vt 0.9896 0.2604
vt 0.9165 0.9164
vt 0.261 0.01091
vt 0.2612 0.989
vt 0.0003633 0.5
vt 0.9895 0.2605
vt 0.9895 0.7395
vt 0.08333 0.9167
vt 0.08532 0.9151
vt 0.01118 0.2611
vt 0.9162 0.08384
vt 0.9894 0.7394
vt 0.01096 0.2609
vt 0.2612 0.989
vt 0.01118 0.2611
vt 0.9164 0.08369
vt 0.9894 0.7394
vt 0.2619 0.9884
vt 0.08433 0.9159
vt 0.08438 0.08427
vt 0.9893 0.2607
vt 0.01096 0.2609
vt 0.9999 0.5
vt 0.5003 0.9992
vt 0.5002 0.9996
vt 0.08407 0.08399
vt 0.9893 0.2608
vt 0.9895 0.7395
vt 0.08532 0.9151
vt 0.08386 0.0838
vt 0.9893 0.2608
vt 0.9893 0.7394
vt 0.01096 0.2609
vt 0.2619 0.9884
vt 0.0108 0.2608
vt 0.9893 0.2607
vt 0.9999 0.5
vt 0.2612 0.989
vt 0.08483 0.9154
vt 0.0002571 0.5
vt 0.9998 0.5
vt 0.08407 0.08399
vt 0.5001 0.0002402
vt 0.01187 0.7385
vt 0.01151 0.7388
vt 0.0003633 0.5
vt 0.9998 0.5
vt 0.7394 0.9893
vt 0.9893 0.2607
vt 0.7393 0.9892
vt 0.0108 0.2608
vt 0.9894 0.2606
vt 0.2608 0.01076
vt 0.5001 0.0001687
vt 0.9999 0.5
vt 0.01096 0.2609
vt 0.2607 0.01066
vt 0.01187 0.7385
vt 0.0007144 0.5001
vt 0.9998 0.5
vt 0.0001187 0.5
vt 0.01068 0.2607
vt 0.08483 0.9154
vt 0.9164 0.08369
vt 0.2606 0.01058
vt 0.7394 0.9893
vt 0.0009446 0.5001
vt 0.5 0.000111
vt 0.9165 0.08357
vt 0.9164 0.9163
vt 0.0837 0.08366
vt 0.0005134 0.5001
vt 0.01151 0.7388
vt 0.9894 0.2606
vt 0.08357 0.08355
vt 0.2608 0.01076
vt 0.0007144 0.5001
vt 0.2607 0.01066
vt 0.9893 0.2607
vt 0.2605 0.0105
vt 0.5 5.543e-05
vt 0.5002 0.9995
vt 0.0112 0.739
vt 0.5001 0.0002403
vt 0.9162 0.9162
vt 0.2606 0.01058
vt 0.08483 0.9154
vt 0.08441 0.9158
vt 0.2607 0.01066
vt 0.5001 0.0001687
vt 0.08386 0.0838
vt 0.9167 0.9167
vt 0.01151 0.7388
vt 0.0112 0.739
vt 0.0837 0.08366
vt 0.7394 0.01068
vt 0.7395 0.9895
vt 0.5002 0.9994
vt 0.0001805 0.5
vt 0.7393 0.01079
vt 0.9166 0.9166
vt 0.0002571 0.5
vt 0.5003 0.9992
vt 0.01068 0.2607
vt 0.7393 0.01079
vt 0.5 1
vt 0.2616 0.9887
vt 0.2616 0.9887
vt 0.01068 0.2607
vt 0.7394 0.01068
vt 0.7395 0.9895
vt 0.0108 0.2608
vt 0.2619 0.9884
vt 0.0108 0.2608
vt 0.9164 0.08369
vt 0.7396 0.9896
vt 0.2619 0.9884
vt 0.08483 0.9154
vt 0.01068 0.2607
vt 0.9162 0.08384
vt 0.0837 0.08366
vt 0.7395 0.9894
vt 0.2616 0.9887
vt 0.08532 0.9151
vt 0.08386 0.0838
vt 0.7394 0.01068
vt 0.5 0.9999
vt 0.0837 0.08366
vt 0.7395 0.01059
vt 0.01059 0.2606
vt 0.01059 0.2606
vt 0.2612 0.9889
vt 0.08357 0.08355
vt 0.9165 0.08357
vt 0.2605 0.0105
vt 0.08441 0.9158
vt 0.9164 0.08369
vt 0.0001805 0.5
vt 0.2606 0.01058
vt 0.5001 0.0001687
vt 0.5 0.0001109
vt 0.7395 0.9895
vt 0.5 5.543e-05
vt 0.7395 0.01059
vt 0.5 0.000111
vt 0.2604 0.01042
vt 0.5002 0.9994
vt 0.2612 0.9889
vt 0.7394 0.01068
vt 0.2605 0.9895
vt 0.2604 0.9896
vt 0.08333 0.08333
vt 0.7395 0.9894
vt 0.5 0.0001109
vt 0.5 0
vt 0.2616 0.9887
vt 0.5 5.543e-05
vt 0.2606 0.01058
vt 0.2604 0.01042
vt 0.01042 0.2604
vt 0.2605 0.0105
vt 0 0.5
vt 0.7395 0.0105
vt 0.08333 0.08333
vt 0.7395 0.9895
vt 0.01112 0.261
vt 0.7395 0.01059
vt 0.08345 0.08344
vt 0.2606 0.9894
vt 0.0004723 0.5001
vt 0.2606 0.9894
vt 0.01182 0.2617
vt 0.7395 0.01059
vt 0.08357 0.08355
vt 0.9166 0.9166
vt 0.01042 0.2604
vt 0.7395 0.0105
vt 0.0001187 0.5
vt 0.08345 0.08344
vt 0.01112 0.261
vt 0.9166 0.08345
vt 0.2605 0.0105
vt 0.9165 0.9164
vt 0.0843 0.08419
vt 0.01112 0.261
vt 5.933e-05 0.5
vt 0.9165 0.08357
vt 0.01059 0.2606
vt 0.08346 0.9166
vt 0.08526 0.08505
vt 0.01182 0.2617
vt 0.5 0.9999
vt 0.7395 0.0105
vt 0.0105 0.2605
vt 0.0004723 0.5001
vt 0.2604 0.9896
vt 0.7396 0.01042
vt 0.0105 0.2605
vt 0.01059 0.2606
vt 0.0843 0.08419
vt 0.9167 0.08333
vt 0.08345 0.08344
vt 0.2605 0.9895
vt 0.0009446 0.5001
vt 0.01112 0.261
vt 0.08346 0.9166
vt 0.9166 0.08345
vt 0.0105 0.2605
vt 0.08357 0.08355
vt 0.01182 0.2617
vt 0.5 5.543e-05
vt 0.01042 0.2604
vt 0.2605 0.9895
vt 0.0009446 0.5001
vt 0.01182 0.2617
vt 0.0105 0.2605
vt 0.5 0
vt 5.933e-05 0.5
vt 0.08333 0.08333
vt 0.0007144 0.5001
vt 0.7396 0.01042
vt 0.08345 0.08344
vt 0.01069 0.7394
vt 0.01148 0.2614
vt 0 0.5
vt 0.7395 0.0105
vt 0.08371 0.9164
vt 0.01042 0.2604
vt 0.5 0
vt 0.5006 0.0004119
vt 0.08387 0.9162
vt 0.08358 0.9165
vt 0.7395 0.01102
vt 0.7396 0.01042
vt 0.2605 0.9895
vt 0.01081 0.7393
vt 0.08479 0.08463
vt 0.01081 0.7393
vt 0.01148 0.2614
vt 0.7396 0.01042
vt 0.01069 0.7394
vt 0.5 0.9999
vt 0.08526 0.08505
vt 0.7395 0.01102
vt 0.5 0.9999
vt 0.0002571 0.5
vt 0.01118 0.2611
vt 0.0001805 0.5
vt 0.01148 0.2614
vt 0.9159 0.08411
vt 0.01069 0.7394
vt 0.2607 0.9893
vt 0.08438 0.08427
vt 0.08479 0.08463
vt 0.0001187 0.5
vt 0.9167 0.08333
vt 0.0106 0.7395
vt 0.2606 0.9894
vt 0.0007144 0.5001
vt 0.0005134 0.5001
vt 0.0001805 0.5
vt 0.7395 0.01102
vt 0.08358 0.9165
vt 0.01118 0.2611
vt 0.0106 0.7395
vt 0.7394 0.01156
vt 0.08371 0.9164
vt 0.2608 0.9892
vt 0.08526 0.08505
vt 0.5001 0.9998
vt 0.0843 0.08419
vt 0.5001 0.9998
vt 0.2612 0.01105
vt 0.01051 0.7395
vt 0.01148 0.2614
vt 0.9153 0.08479
vt 0.01069 0.7394
vt 0.08358 0.9165
vt 0.5 -1.192e-07
vt 0.9159 0.08411
vt 0.5 0.9999
vt 0.08346 0.9166
vt 0.2604 0.01042
vt 0.0106 0.7395
vt 0.5006 0.0004119
vt 0.01051 0.7395
vt 0.2612 0.01105
vt 0.0106 0.7395
vt 0.5011 0.0007785
vt 0.01051 0.7395
vt 0.5002 0.0004414
vt 0.7394 0.01156
vt 0.01051 0.7395
vt 0.7395 0.01102
vt 0.0001187 0.5
vt 5.933e-05 0.5
vt 0.9167 0.08333
vt 0.08346 0.9166
vt 5.933e-05 0.5
vt 0.2619 0.01169
vt 0.5002 0.0004414
vt 0.9159 0.08411
vt 0 0.5
vt 0.01042 0.7396
vt 0.9889 0.2609
vt 0.08333 0.9167
vt 0.08371 0.9164
vt 0.5003 0.0008831
vt 0.2612 0.01105
vt 0.9896 0.2604
vt 0.5001 0.9998
vt 0.9896 0.2604
vt 0.01042 0.7396
vt 0.9889 0.2609
vt 0.2607 0.9893
vt 0.9995 0.4999
vt 0.2608 0.9892
vt 0.2607 0.9893
vt 0.2619 0.01169
vt 1 0.5
vt 0.08371 0.9164
vt 0.2607 0.9893
vt 0.9889 0.2609
vt 0.08387 0.9162
vt 0.2604 0.01042
vt 0.2606 0.9894
vt 0.9883 0.2613
vt 0.9991 0.4997
vt 0.08358 0.9165
vt 0.9995 0.4999
vt 0.08333 0.9167
vt 0.9159 0.08411
vt 0.5 1
vt 0.9153 0.08479
vt 0.9883 0.2613
vt 0.9889 0.2609
vt 0.5 0.9999
vt 0.5 0
vt 0.5 0.9999
vt 0.2604 0.01042
vt 0.7396 0.9896
vt 0.2612 0.01102
vt 0.08333 0.08333
vt 0.7393 0.9892
vt 0.5006 0.0004118
vt 0.7394 0.9893
vt 0.5001 0.9998
vt 0.2612 0.01105
vt 0.5006 0.0004118
vt 0.5001 0.9998
vt 0.0843 0.08419
vt 0.5001 0.9998
vt 0.2612 0.01102
vt 0.9999 0.5
vt 0.7395 0.9894
vt 0.5003 0.0008831
vt 0.2618 0.01155
vt 0.9894 0.7394
vt 0.5011 0.0007785
vt 0.9892 0.7393
vt 0.9164 0.9163
vt 0.2615 0.01138
vt 0.5 0.9999
vt 0.2619 0.01169
vt 0.2612 0.01102
vt 0.9165 0.9164
vt 0.08381 0.08402
vt 0.9892 0.7393
vt 0.7395 0.9894
vt 0.08432 0.08464
vt 0.9998 0.5
vt 0.2618 0.01155
vt 0.9166 0.9166
vt 0.2615 0.01138
vt 0.9893 0.7394
vt 0.2604 0.01042
vt 0.9164 0.9163
vt 0.9893 0.7394
vt 0.5003 0.0006679
vt 0.08333 0.08333
vt 0.9893 0.7394
vt 0.2612 0.01111
vt 0.9165 0.9164
vt 0.08381 0.08402
vt 0.9162 0.9162
vt 0.2612 0.01102
vt 0.9894 0.7394
vt 0.5011 0.0007785
vn -0.8998 0.4296 -0.07617
vn -0.8825 0.4586 -0.1041
vn -0.9131 0.2193 -0.3435
vn -0.9281 0.1977 -0.3153
vn -0.8627 -0.07172 -0.5005
vn -0.8776 -0.0853 -0.4718
vn -0.8591 0.3011 -0.4138
vn -0.8184 -0.02338 -0.5742
vn -0.8043 0.5686 -0.1725
vn -0.611 0.6002 0.5161
vn -0.5919 0.6331 0.4987
vn -0.7718 0.6067 0.1901
vn -0.7904 0.5737 0.2147
vn -0.6745 0.7271 0.1277
vn -0.4881 0.7458 0.4534
vn -0.6699 0.7003 -0.2463
vn -0.7714 0.4121 -0.4848
vn -0.756 0.04474 -0.653
vn -0.7037 0.4931 -0.5115
vn -0.7001 0.1104 -0.7054
vn -0.5891 0.7644 -0.262
vn -0.3174 0.8702 0.3768
vn -0.5079 0.8602 0.04425
vn -0.4252 0.9048 0.01938
vn -0.236 0.9076 0.3473
vn -0.7408 -0.3724 -0.5589
vn -0.7573 -0.3815 -0.53
vn -0.5635 -0.6496 -0.5104
vn -0.5828 -0.6549 -0.4811
vn -0.6916 -0.3461 -0.6339
vn -0.4984 -0.6396 -0.5852
vn -0.6261 -0.3108 -0.7151
vn -0.4071 -0.6255 -0.6655
vn -0.5645 -0.2776 -0.7773
vn -0.3209 -0.6156 -0.7197
vn -0.1566 -0.9836 -0.08914
vn -0.3729 -0.8675 -0.3291
vn -0.3471 -0.8665 -0.3586
vn -0.1229 -0.9853 -0.1189
vn -0.248 -0.8678 -0.4306
vn 0.01459 -0.9818 -0.1892
vn -0.1059 -0.8574 -0.5037
vn 0.2006 -0.9434 -0.2642
vn 0.0009461 -0.8466 -0.5322
vn 0.3004 -0.9117 -0.2801
vn 0.05219 -0.8419 -0.5372
vn 0.2915 -0.9208 -0.2589
vn 0.05399 -0.837 -0.5446
vn 0.2167 -0.9467 -0.2382
vn -0.2386 -0.6005 -0.7631
vn -0.1621 -0.5695 -0.8058
vn -0.6428 0.1686 -0.7472
vn -0.4901 -0.238 -0.8385
vn -0.3925 -0.1866 -0.9006
vn -0.5765 0.2122 -0.7891
vn -0.0474 -0.8488 -0.5265
vn 0.05786 -0.978 -0.2002
vn -0.3783 -0.8495 -0.3677
vn -0.3745 -0.9266 -0.03446
vn -0.1957 -0.5705 -0.7976
vn -0.451 -0.6267 -0.6354
vn -0.5973 0.1834 -0.7807
vn -0.3977 -0.1898 -0.8977
vn -0.6102 -0.3038 -0.7316
vn -0.7835 0.003021 -0.6213
vn -0.5973 -0.7687 -0.2288
vn -0.6626 -0.7426 0.09717
vn -0.3802 -0.8301 -0.4079
vn -0.3264 -0.941 -0.08924
vn -0.6176 -0.6221 -0.4811
vn -0.4989 -0.6156 -0.6099
vn -0.8706 -0.1386 -0.4721
vn -0.7363 -0.3732 -0.5644
vn -0.659 -0.3314 -0.6752
vn -0.7992 -0.0427 -0.5995
vn -0.6673 0.7117 -0.2194
vn -0.7823 0.596 -0.1809
vn -0.7391 0.4472 -0.5037
vn -0.671 0.5265 -0.522
vn -0.9208 0.1741 -0.3489
vn -0.9777 0.2088 -0.01959
vn -0.986 -0.1296 0.1051
vn -0.9749 -0.05023 -0.2169
vn -0.9045 0.1653 -0.3929
vn -0.9626 0.2603 -0.07498
vn -0.3215 0.8519 0.4134
vn -0.4195 0.7706 0.4798
vn -0.6845 0.7127 0.1535
vn -0.5575 0.825 0.09204
vn -0.9204 0.2512 0.2994
vn -0.7078 0.3658 0.6043
vn -0.7941 -0.06668 0.6041
vn -0.913 -0.1777 0.3672
vn -0.902 0.3228 0.2866
vn -0.6961 0.3739 0.6129
vn -0.03925 0.3609 0.9318
vn -0.2272 0.1676 0.9593
vn -0.556 0.1066 0.8243
vn -0.3729 0.4323 0.821
vn -0.4027 0.3697 0.8373
vn -0.08936 0.2887 0.9532
vn 0.1881 0.554 0.811
vn 0.163 0.5304 0.8319
vn -0.1075 0.7058 0.7002
vn -0.05197 0.7551 0.6536
vn 0.5759 -0.1922 0.7946
vn 0.5396 -0.1993 0.818
vn 0.4125 0.1911 0.8906
vn 0.4288 0.1985 0.8813
vn 0.2181 0.09095 0.9717
vn 0.2842 -0.269 0.9203
vn 0.01901 -0.3099 0.9506
vn 0.03198 -0.003479 0.9995
vn 0.1583 0.06394 0.9853
vn 0.1996 -0.2638 0.9437
vn -0.08963 -0.7999 0.5934
vn -0.494 -0.6295 0.5997
vn -0.2173 -0.5362 0.8156
vn 0.1509 -0.5701 0.8076
vn 0.08856 -0.559 0.8244
vn -0.0741 -0.7961 0.6006
vn 0.5266 -0.7518 0.3968
vn 0.403 -0.7884 0.4648
vn 0.5248 -0.5058 0.6846
vn 0.5994 -0.4869 0.6353
vn 0.2098 -0.9679 0.1384
vn 0.3737 -0.9244 0.07645
vn -0.3035 -0.9078 0.2894
vn -0.6562 -0.6613 0.3633
vn -0.2352 -0.9323 0.2748
vn 0.1224 -0.9508 -0.2846
vn 0.3214 -0.9448 0.06391
vn 0.4495 -0.7851 0.426
vn 0.394 -0.9186 0.0303
vn 0.527 -0.7606 0.3791
vn 0.1893 -0.9327 -0.307
vn 0.4899 -0.5121 0.7055
vn 0.4538 -0.1865 0.8713
vn 0.5604 -0.4917 0.6664
vn 0.4994 -0.1665 0.8502
vn -0.1002 -0.823 -0.5591
vn -0.04495 -0.8125 -0.5812
vn -0.3266 -0.586 -0.7415
vn -0.2846 -0.5746 -0.7674
vn 0.1832 -0.9351 -0.3032
vn 0.3886 -0.9207 0.03403
vn 0.5218 -0.7635 0.3805
vn 0.3923 -0.9192 0.03403
vn 0.5245 -0.7634 0.377
vn 0.1874 -0.9344 -0.3029
vn -0.05298 -0.8138 -0.5786
vn -0.05057 -0.8123 -0.581
vn -0.2926 -0.5752 -0.7639
vn -0.2909 -0.5722 -0.7668
vn 0.2147 -0.9241 -0.3161
vn 0.4195 -0.9075 0.02063
vn 0.551 -0.7532 0.3592
vn 0.457 -0.8894 -0.001679
vn 0.5889 -0.7366 0.3325
vn 0.2501 -0.9069 -0.3391
vn -0.02615 -0.8011 -0.5979
vn 0.004303 -0.782 -0.6232
vn -0.2682 -0.559 -0.7845
vn -0.2394 -0.5384 -0.8079
vn -0.6477 0.1051 -0.7546
vn -0.6241 0.1162 -0.7726
vn -0.4781 -0.2353 -0.8462
vn -0.5014 -0.2474 -0.829
vn -0.4469 -0.2188 -0.8674
vn -0.5913 0.1287 -0.7961
vn -0.6463 0.1124 -0.7547
vn -0.6511 0.1057 -0.7515
vn -0.5045 -0.2487 -0.8268
vn -0.4987 -0.2452 -0.8314
vn -0.6695 0.684 -0.2897
vn -0.6748 0.6804 -0.2858
vn -0.7093 0.427 -0.5609
vn -0.7038 0.4328 -0.5633
vn -0.7067 0.4281 -0.5633
vn -0.6718 0.6836 -0.2853
vn -0.6482 0.7006 -0.2983
vn -0.684 0.4422 -0.5801
vn -0.6515 0.4573 -0.6053
vn -0.6143 0.7208 -0.3209
vn -0.3315 0.8556 0.3974
vn -0.3368 0.8529 0.3988
vn -0.5461 0.8361 0.05075
vn -0.5415 0.8394 0.04697
vn -0.5427 0.8384 0.05087
vn -0.3353 0.8552 0.3953
vn -0.3121 0.8719 0.3774
vn -0.5178 0.8546 0.03769
vn -0.4819 0.876 0.01547
vn -0.2772 0.8946 0.3505
vn 0.1525 0.4837 0.8618
vn 0.1762 0.504 0.8455
vn -0.06726 0.7468 0.6615
vn -0.08881 0.7268 0.681
vn -0.03473 0.7738 0.6325
vn 0.2106 0.5318 0.8203
vn 0.1582 0.4811 0.8622
vn 0.1514 0.4787 0.8648
vn -0.08875 0.7223 0.6858
vn -0.08252 0.724 0.6848
vn 0.4935 -0.1705 0.8528
vn 0.3528 0.1674 0.9206
vn 0.3598 0.1709 0.9172
vn 0.3563 0.1695 0.9189
vn 0.4981 -0.1718 0.8499
vn 0.5278 -0.1629 0.8336
vn 0.3839 0.1846 0.9047
vn 0.4231 0.206 0.8823
vn 0.5694 -0.1491 0.8084
vn 0.5875 -0.4906 0.6435
vn 0.5593 -0.4979 0.6628
vn 0.6273 -0.478 0.6147
vn 0.5556 -0.4957 0.6675
vn 0.3294 0.1546 0.9314
vn 0.1166 0.4548 0.8829
vn 0.6083 -0.7288 0.3142
vn 0.6502 -0.4738 0.5939
vn 0.5959 -0.1434 0.7901
vn 0.6536 -0.4784 0.5864
vn 0.605 -0.1441 0.7831
vn 0.6055 -0.7346 0.3061
vn 0.4481 0.22 0.8665
vn 0.2298 0.5518 0.8017
vn 0.4576 0.2259 0.86
vn 0.2341 0.561 0.794
vn 0.2638 -0.8965 -0.356
vn 0.4747 -0.8799 -0.01709
vn 0.4664 -0.8841 -0.02698
vn 0.2501 -0.896 -0.367
vn 0.6486 -0.4832 0.588
vn 0.6045 -0.1429 0.7837
vn 0.643 -0.4841 0.5934
vn 0.5999 -0.1379 0.7881
vn 0.5924 -0.7476 0.3002
vn 0.5794 -0.7611 0.2917
vn 0.4425 -0.8957 -0.04245
vn 0.4154 -0.9073 -0.06586
vn 0.2188 -0.8978 -0.3823
vn 0.1835 -0.896 -0.4044
vn 0.4037 -0.91 -0.09442
vn 0.5788 -0.767 0.277
vn 0.4545 -0.8806 -0.1339
vn 0.625 -0.7427 0.2404
vn 0.1674 -0.8873 -0.4297
vn 0.2291 -0.8585 -0.4588
vn 0.6468 -0.4789 0.5935
vn 0.6016 -0.1286 0.7884
vn 0.6878 -0.453 0.5671
vn 0.6364 -0.1036 0.7643
vn 0.4595 0.2277 0.8585
vn 0.2347 0.5609 0.7938
vn 0.4576 0.2274 0.8596
vn 0.2359 0.555 0.7976
vn 0.461 0.23 0.8571
vn 0.2439 0.552 0.7973
vn 0.4949 0.2496 0.8323
vn 0.2826 0.5687 0.7725
vn -0.2997 0.9028 0.3084
vn -0.02985 0.7931 0.6084
vn -0.02365 0.7935 0.6081
vn -0.3048 0.9059 0.294
vn 0.0195 0.8137 0.5808
vn -0.2597 0.9308 0.2572
vn -0.265 0.9085 0.3229
vn -0.02017 0.7978 0.6026
vn -0.02628 0.7969 0.6035
vn -0.282 0.9056 0.3167
vn -0.6039 0.7176 -0.3468
vn -0.4704 0.8824 -0.009522
vn -0.4918 0.8704 -0.02408
vn -0.6214 0.6961 -0.3595
vn -0.5153 0.8557 -0.04596
vn -0.6387 0.6701 -0.3781
vn -0.5235 0.8489 -0.07291
vn -0.64 0.656 -0.4
vn -0.4711 0.8751 -0.111
vn -0.5815 0.6936 -0.4252
vn -0.5794 0.113 -0.8072
vn -0.6402 0.4415 -0.6287
vn -0.6532 0.4153 -0.6331
vn -0.5912 0.09125 -0.8013
vn -0.6634 0.3866 -0.6406
vn -0.599 0.06964 -0.7977
vn -0.6593 0.3736 -0.6525
vn -0.5936 0.0618 -0.8023
vn -0.605 0.4268 -0.6721
vn -0.5446 0.1104 -0.8314
vn -0.2457 -0.5194 -0.8184
vn -0.4419 -0.2174 -0.8703
vn -0.4577 -0.2277 -0.8594
vn -0.2701 -0.517 -0.8122
vn -0.4694 -0.2364 -0.8507
vn -0.2922 -0.5114 -0.8081
vn -0.4663 -0.2369 -0.8523
vn -0.2959 -0.5023 -0.8125
vn -0.4116 -0.2077 -0.8873
vn -0.2305 -0.4866 -0.8426
vn -0.07065 -0.7444 -0.664
vn -0.08304 -0.7302 -0.6781
vn -0.01251 -0.7121 -0.7019
vn -0.005158 -0.7616 -0.648
vn -0.03735 -0.7554 -0.6542
vn 0.01251 -0.7678 -0.6405
vn -0.2311 -0.5241 -0.8197
vn -0.5749 0.1278 -0.8081
vn -0.4337 -0.2121 -0.8757
vn 0.335 -0.6067 -0.7209
vn 0.5145 -0.7077 -0.4841
vn 0.8561 -0.195 -0.4785
vn 0.8923 -0.2665 -0.3643
vn 0.1333 -0.3804 -0.9151
vn 0.781 0.02322 -0.6241
vn -0.08393 -0.02496 -0.9962
vn 0.6237 0.3555 -0.6961
vn -0.2577 0.3614 -0.8961
vn 0.4293 0.6692 -0.6064
vn 0.8492 0.4876 0.2025
vn 0.8058 0.5899 0.05066
vn 0.2488 0.7752 0.5807
vn 0.05408 0.9429 0.3286
vn 0.8581 0.4464 0.2535
vn 0.427 0.5513 0.7168
vn 0.8448 0.4635 0.267
vn 0.5767 0.3072 0.7569
vn 0.8393 0.4802 0.2548
vn 0.7044 0.03885 0.7087
vn 0.5928 0.6153 0.5196
vn 0.5851 0.7791 0.2249
vn 0.1845 0.8004 0.5703
vn 0.391 0.564 0.7272
vn -0.02506 0.9499 0.3115
vn 0.2628 0.9549 0.1381
vn 0.8471 0.1443 0.5114
vn 0.8185 0.4384 0.3712
vn 0.5631 0.2945 0.7721
vn 0.6956 -0.001801 0.7183
vn 0.9421 -0.314 0.1176
vn 0.9409 -0.2343 -0.2443
vn 0.8208 0.4524 -0.3488
vn 0.975 0.05399 0.2155
vn 0.3222 0.9194 -0.2256
vn 0.006195 0.8683 -0.4961
vn 0.1968 0.6583 -0.7266
vn 0.008576 0.3699 -0.929
vn 0.3207 0.1965 -0.9265
vn 0.293 -0.1666 -0.9415
vn 0.6424 -0.1755 -0.746
vn 0.7172 -0.4646 -0.5194
vn 0.7749 -0.3114 0.55
vn 0.774 -0.5643 0.2869
vn 0.7904 -0.2481 0.5601
vn 0.8106 -0.5014 0.3024
vn 0.6782 -0.7317 -0.06705
vn 0.4917 -0.7553 -0.4333
vn 0.7494 -0.6601 -0.05115
vn 0.5792 -0.6758 -0.4557
vn 0.2928 0.8469 -0.4438
vn 0.8738 0.4415 0.2038
vn 0.9369 0.3464 0.0474
vn 0.256 0.907 -0.3344
vn 0.2765 0.9303 -0.2409
vn 0.9394 0.2736 -0.2066
vn 0.8505 0.2962 -0.4347
vn 0.3457 0.9358 -0.06867
vn -0.3282 0.6547 -0.6808
vn -0.3034 0.8428 -0.4446
vn -0.2126 0.9597 -0.184
vn -0.04511 0.9892 0.1391
vn 0.4803 0.8653 0.1431
vn 0.7562 0.3582 -0.5476
vn 0.3251 -0.5344 -0.7802
vn 0.7257 0.4082 -0.5538
vn 0.0896 -0.301 -0.9494
vn 0.6478 0.6929 0.3168
vn 0.1911 0.8743 0.4461
vn 0.426 0.6372 0.6422
vn 0.814 0.4343 0.3856
vn 0.7315 0.4126 -0.5428
vn -0.0933 -0.02625 -0.9953
vn 0.7285 0.4104 -0.5485
vn -0.2127 0.2772 -0.9369
vn 0.9375 0.1549 0.3114
vn 0.627 0.3248 0.7081
vn 0.7717 -0.01498 0.6358
vn 0.2362 -0.6312 -0.7388
vn -0.01074 -0.3945 -0.9188
vn -0.2119 -0.09223 -0.9729
vn -0.3438 0.2427 -0.9071
vn -0.3941 0.5712 -0.72
vn -0.3479 0.8432 -0.4098
vn -0.2663 0.5938 -0.7592
vn -0.2325 0.8718 -0.4312
vn -0.2199 0.9745 -0.04263
vn -0.1164 0.9929 -0.02576
vn 0.9883 -0.07495 0.133
vn 0.7073 0.4598 -0.5369
vn 0.7104 0.564 -0.421
vn 0.9722 -0.2188 -0.08264
vn 0.928 -0.2668 -0.2599
vn 0.7435 0.6393 -0.1963
vn 0.8351 -0.3376 0.4343
vn 0.797 -0.5913 0.1227
vn 0.6746 -0.7081 -0.2086
vn -0.5976 0.7273 -0.3372
vn -0.6353 0.4573 -0.6222
vn -0.2596 0.907 0.3316
vn -0.4637 0.886 9.156e-05
vn -0.01856 0.7914 0.611
vn -0.1389 0.6766 0.7231
vn -0.3954 0.8039 0.4443
vn -0.6039 0.7929 0.08084
vn -0.7216 0.6386 -0.2672
vn -0.743 0.3933 -0.5415
vn -0.6791 0.08411 -0.7292
vn -0.5331 -0.2636 -0.8039
vn 0.6285 -0.7067 0.3249
vn 0.5845 -0.7288 0.3565
vn 0.6113 -0.487 0.6238
vn 0.6221 -0.4811 0.6176
vn 0.5496 -0.2026 0.8105
vn 0.5153 -0.2083 0.8313
vn 0.4662 -0.884 0.03461
vn 0.5157 -0.8567 0.002228
vn 0.3559 -0.8268 0.4356
vn 0.5555 -0.7521 0.3546
vn 0.5503 -0.5201 0.6532
vn 0.3754 -0.5861 0.718
vn 0.4292 -0.2409 0.8705
vn 0.2864 -0.2898 0.9132
vn 0.4335 -0.9007 0.02661
vn 0.2288 -0.967 0.1119
vn 0.2382 0.1026 0.9658
vn 0.1204 0.04447 0.9917
vn 0.05072 0.4567 0.8881
vn -0.07077 0.3709 0.9259
vn 0.3337 0.1495 0.9307
vn 0.1317 0.5084 0.8509
vn 0.3872 0.1762 0.905
vn 0.1616 0.5354 0.829
vn -0.1227 0.7248 0.6779
vn -0.2737 0.6184 0.7366
vn -0.04529 0.7642 0.6433
vn -0.04965 0.762 0.6456
vn -0.274 0.8853 0.3757
vn -0.474 0.879 0.05081
vn -0.6031 0.7605 -0.2406
vn 0.1595 -0.3191 0.9342
vn 0.187 -0.3158 0.9302
vn 0.04889 0.009339 0.9987
vn 0.03034 -0.001343 0.9995
vn -0.1467 0.3085 0.9398
vn -0.1629 0.2872 0.9439
vn -0.3699 0.5288 0.7639
vn -0.3887 0.5002 0.7737
vn 0.1601 -0.849 0.5035
vn 0.1997 -0.8515 0.4849
vn 0.2417 -0.6159 0.7498
vn 0.2058 -0.6165 0.76
vn 0.07071 -0.9817 0.1768
vn 0.03217 -0.9786 0.2033
vn -0.6732 0.5304 -0.5152
f 1/1/1 2/2/2 3/3/3
f 1/1/1 3/3/3 4/4/4
f 4/4/4 3/3/3 5/5/5
f 4/4/4 5/5/5 6/6/6
f 3/3/3 7/7/7 8/8/8
f 3/3/3 8/8/8 5/5/5
f 2/2/2 9/9/9 7/7/7
f 2/2/2 7/7/7 3/3/3
f 10/10/10 11/11/11 12/12/12
f 10/10/10 12/12/12 13/13/13
f 13/13/13 12/12/12 2/2/2
f 13/13/13 2/2/2 1/1/1
f 12/12/12 14/14/14 9/9/9
f 12/12/12 9/9/9 2/2/2
f 11/11/11 15/15/15 14/14/14
f 11/11/11 14/14/14 12/12/12
f 9/9/9 16/16/16 17/17/17
f 9/9/9 17/17/17 7/7/7
f 7/7/7 17/17/17 18/18/18
f 7/7/7 18/18/18 8/8/8
f 17/17/17 19/19/19 20/20/20
f 17/17/17 20/20/20 18/18/18
f 16/16/16 21/21/21 19/19/19
f 16/16/16 19/19/19 17/17/17
f 15/15/15 22/22/22 23/23/23
f 15/15/15 23/23/23 14/14/14
f 14/14/14 23/23/23 16/16/16
f 14/14/14 16/16/16 9/9/9
f 23/23/23 24/24/24 21/21/21
f 23/23/23 21/21/21 16/16/16
f 22/22/22 25/25/25 24/24/24
f 22/22/22 24/24/24 23/23/23
f 6/6/6 5/5/5 26/26/26
f 6/6/6 26/26/26 27/27/27
f 27/27/27 26/26/26 28/28/28
f 27/27/27 28/28/28 29/29/29
f 26/26/26 30/30/30 31/31/31
f 26/26/26 31/31/31 28/28/28
f 5/5/5 8/8/8 30/30/30
f 5/5/5 30/30/30 26/26/26
f 8/8/8 18/18/18 32/32/32
f 8/8/8 32/32/32 30/30/30
f 30/30/30 32/32/32 33/33/33
f 30/30/30 33/33/33 31/31/31
f 32/32/32 34/34/34 35/35/35
f 32/32/32 35/35/35 33/33/33
f 18/18/18 20/20/20 34/34/34
f 18/18/18 34/34/34 32/32/32
f 36/36/36 37/37/37 38/38/38
f 36/36/36 38/38/38 39/39/39
f 39/39/39 38/38/38 40/40/40
f 39/39/39 40/40/40 41/41/41
f 38/38/38 28/28/28 31/31/31
f 38/38/38 31/31/31 40/40/40
f 37/37/37 29/29/29 28/28/28
f 37/37/37 28/28/28 38/38/38
f 41/41/41 40/40/40 42/42/42
f 41/41/41 42/42/42 43/43/43
f 43/43/43 42/42/42 44/44/44
f 43/43/43 44/44/44 45/45/45
f 42/42/42 33/33/33 35/35/35
f 42/42/42 35/35/35 44/44/44
f 40/40/40 31/31/31 33/33/33
f 40/40/40 33/33/33 42/42/42
f 45/45/45 44/44/44 46/46/46
f 45/45/45 46/46/46 47/47/47
f 47/47/47 46/46/46 48/48/48
f 47/47/47 48/48/48 49/49/49
f 46/46/46 50/50/50 51/51/51
f 46/46/46 51/51/51 48/48/48
f 44/44/44 35/35/35 50/50/50
f 44/44/44 50/50/50 46/46/46
f 20/20/20 52/52/52 53/53/53
f 20/20/20 53/53/53 34/34/34
f 34/34/34 53/53/53 50/50/50
f 34/34/34 50/50/50 35/35/35
f 53/53/53 54/54/54 51/51/51
f 53/53/53 51/51/51 50/50/50
f 52/52/52 55/55/55 54/54/54
f 52/52/52 54/54/54 53/53/53
f 49/49/49 48/48/48 56/56/56
f 49/49/49 56/56/56 57/57/57
f 57/57/57 56/56/56 58/58/58
f 57/57/57 58/58/58 59/59/59
f 56/56/56 60/60/60 61/61/61
f 56/56/56 61/61/61 58/58/58
f 48/48/48 51/51/51 60/60/60
f 48/48/48 60/60/60 56/56/56
f 55/55/55 62/62/62 63/63/63
f 55/55/55 63/63/63 54/54/54
f 54/54/54 63/63/63 60/60/60
f 54/54/54 60/60/60 51/51/51
f 63/63/63 64/64/64 61/61/61
f 63/63/63 61/61/61 60/60/60
f 62/62/62 65/65/65 64/64/64
f 62/62/62 64/64/64 63/63/63
f 59/59/59 58/58/58 66/66/66
f 59/59/59 66/66/66 67/67/67
f 67/67/67 66/66/66 68/68/68
f 67/67/67 68/68/68 69/69/69
f 66/66/66 70/70/70 71/71/71
f 66/66/66 71/71/71 68/68/68
f 58/58/58 61/61/61 70/70/70
f 58/58/58 70/70/70 66/66/66
f 65/65/65 72/72/72 73/73/73
f 65/65/65 73/73/73 64/64/64
f 64/64/64 73/73/73 70/70/70
f 64/64/64 70/70/70 61/61/61
f 73/73/73 74/74/74 71/71/71
f 73/73/73 71/71/71 70/70/70
f 72/72/72 75/75/75 74/74/74
f 72/72/72 74/74/74 73/73/73
f 76/76/76 77/77/77 78/78/78
f 76/76/76 78/78/78 79/79/79
f 79/79/79 78/78/78 62/62/62
f 79/79/79 62/62/62 55/55/55
f 78/78/78 80/80/80 65/65/65
f 78/78/78 65/65/65 62/62/62
f 77/77/77 81/81/81 80/80/80
f 77/77/77 80/80/80 78/78/78
f 81/81/81 82/82/82 83/83/83
f 81/81/81 83/83/83 80/80/80
f 80/80/80 83/83/83 72/72/72
f 80/80/80 72/72/72 65/65/65
f 83/83/83 84/84/84 75/75/75
f 83/83/83 75/75/75 72/72/72
f 82/82/82 85/85/85 84/84/84
f 82/82/82 84/84/84 83/83/83
f 86/86/86 87/87/87 88/88/88
f 86/86/86 88/88/88 89/89/89
f 89/89/89 88/88/88 77/77/77
f 89/89/89 77/77/77 76/76/76
f 88/88/88 90/90/90 81/81/81
f 88/88/88 81/81/81 77/77/77
f 87/87/87 91/91/91 90/90/90
f 87/87/87 90/90/90 88/88/88
f 91/91/91 92/92/92 93/93/93
f 91/91/91 93/93/93 90/90/90
f 90/90/90 93/93/93 82/82/82
f 90/90/90 82/82/82 81/81/81
f 93/93/93 94/94/94 85/85/85
f 93/93/93 85/85/85 82/82/82
f 92/92/92 95/95/95 94/94/94
f 92/92/92 94/94/94 93/93/93
f 96/96/96 97/97/97 98/98/98
f 96/96/96 98/98/98 99/99/99
f 99/99/99 98/98/98 92/92/92
f 99/99/99 92/92/92 91/91/91
f 98/98/98 100/100/100 95/95/95
f 98/98/98 95/95/95 92/92/92
f 97/97/97 101/101/101 100/100/100
f 97/97/97 100/100/100 98/98/98
f 102/102/102 103/103/103 104/104/104
f 102/102/102 104/104/104 105/105/105
f 105/105/105 104/104/104 87/87/87
f 105/105/105 87/87/87 86/86/86
f 104/104/104 99/99/99 91/91/91
f 104/104/104 91/91/91 87/87/87
f 103/103/103 96/96/96 99/99/99
f 103/103/103 99/99/99 104/104/104
f 106/106/106 107/107/107 108/108/108
f 106/106/106 108/108/108 109/109/109
f 109/109/109 108/108/108 103/103/103
f 109/109/109 103/103/103 102/102/102
f 108/108/108 110/110/110 96/96/96
f 108/108/108 96/96/96 103/103/103
f 107/107/107 111/111/111 110/110/110
f 107/107/107 110/110/110 108/108/108
f 111/111/111 112/112/112 113/113/113
f 111/111/111 113/113/113 110/110/110
f 110/110/110 113/113/113 97/97/97
f 110/110/110 97/97/97 96/96/96
f 113/113/113 114/114/114 101/101/101
f 113/113/113 101/101/101 97/97/97
f 112/112/112 115/115/115 114/114/114
f 112/112/112 114/114/114 113/113/113
f 116/116/116 117/117/117 118/118/118
f 116/116/116 118/118/118 119/119/119
f 119/119/119 118/118/118 112/112/112
f 119/119/119 112/112/112 111/111/111
f 118/118/118 120/120/120 115/115/115
f 118/118/118 115/115/115 112/112/112
f 117/117/117 121/121/121 120/120/120
f 117/117/117 120/120/120 118/118/118
f 122/122/122 123/123/123 124/124/124
f 122/122/122 124/124/124 125/125/125
f 125/125/125 124/124/124 107/107/107
f 125/125/125 107/107/107 106/106/106
f 124/124/124 119/119/119 111/111/111
f 124/124/124 111/111/111 107/107/107
f 123/123/123 116/116/116 119/119/119
f 123/123/123 119/119/119 124/124/124
f 49/49/49 57/57/57 126/126/126
f 49/49/49 126/126/126 127/127/127
f 127/127/127 126/126/126 123/123/123
f 127/127/127 123/123/123 122/122/122
f 126/126/126 128/128/128 116/116/116
f 126/126/126 116/116/116 123/123/123
f 57/57/57 59/59/59 128/128/128
f 57/57/57 128/128/128 126/126/126
f 59/59/59 67/67/67 129/129/129
f 59/59/59 129/129/129 128/128/128
f 128/128/128 129/129/129 117/117/117
f 128/128/128 117/117/117 116/116/116
f 129/129/129 130/130/130 121/121/121
f 129/129/129 121/121/121 117/117/117
f 67/67/67 69/69/69 130/130/130
f 67/67/67 130/130/130 129/129/129
f 69/69/69 131/131/131 132/132/132
f 69/69/69 132/132/132 130/130/130
f 130/130/130 132/132/132 133/133/133
f 130/130/130 133/133/133 121/121/121
f 132/132/132 134/134/134 135/135/135
f 132/132/132 135/135/135 133/133/133
f 131/131/131 136/136/136 134/134/134
f 131/131/131 134/134/134 132/132/132
f 121/121/121 133/133/133 137/137/137
f 121/121/121 137/137/137 120/120/120
f 120/120/120 137/137/137 138/138/138
f 120/120/120 138/138/138 115/115/115
f 137/137/137 139/139/139 140/140/140
f 137/137/137 140/140/140 138/138/138
f 133/133/133 135/135/135 139/139/139
f 133/133/133 139/139/139 137/137/137
f 69/69/69 68/68/68 141/141/141
f 69/69/69 141/141/141 131/131/131
f 131/131/131 141/141/141 142/142/142
f 131/131/131 142/142/142 136/136/136
f 141/141/141 143/143/143 144/144/144
f 141/141/141 144/144/144 142/142/142
f 68/68/68 71/71/71 143/143/143
f 68/68/68 143/143/143 141/141/141
f 136/136/136 145/145/145 146/146/146
f 136/136/136 146/146/146 134/134/134
f 134/134/134 146/146/146 147/147/147
f 134/134/134 147/147/147 135/135/135
f 146/146/146 148/148/148 149/149/149
f 146/146/146 149/149/149 147/147/147
f 145/145/145 150/150/150 148/148/148
f 145/145/145 148/148/148 146/146/146
f 136/136/136 142/142/142 151/151/151
f 136/136/136 151/151/151 145/145/145
f 145/145/145 151/151/151 152/152/152
f 145/145/145 152/152/152 150/150/150
f 151/151/151 153/153/153 154/154/154
f 151/151/151 154/154/154 152/152/152
f 142/142/142 144/144/144 153/153/153
f 142/142/142 153/153/153 151/151/151
f 150/150/150 155/155/155 156/156/156
f 150/150/150 156/156/156 148/148/148
f 148/148/148 156/156/156 157/157/157
f 148/148/148 157/157/157 149/149/149
f 156/156/156 158/158/158 159/159/159
f 156/156/156 159/159/159 157/157/157
f 155/155/155 160/160/160 158/158/158
f 155/155/155 158/158/158 156/156/156
f 150/150/150 152/152/152 161/161/161
f 150/150/150 161/161/161 155/155/155
f 155/155/155 161/161/161 162/162/162
f 155/155/155 162/162/162 160/160/160
f 161/161/161 163/163/163 164/164/164
f 161/161/161 164/164/164 162/162/162
f 152/152/152 154/154/154 163/163/163
f 152/152/152 163/163/163 161/161/161
f 165/165/165 166/166/166 167/167/167
f 165/165/165 167/167/167 168/168/168
f 168/168/168 167/167/167 163/163/163
f 168/168/168 163/163/163 154/154/154
f 167/167/167 169/169/169 164/164/164
f 167/167/167 164/164/164 163/163/163
f 166/166/166 170/170/170 169/169/169
f 166/166/166 169/169/169 167/167/167
f 171/171/171 172/172/172 173/173/173
f 171/171/171 173/173/173 174/174/174
f 174/174/174 173/173/173 153/153/153
f 174/174/174 153/153/153 144/144/144
f 173/173/173 168/168/168 154/154/154
f 173/173/173 154/154/154 153/153/153
f 172/172/172 165/165/165 168/168/168
f 172/172/172 168/168/168 173/173/173
f 175/175/175 176/176/176 177/177/177
f 175/175/175 177/177/177 178/178/178
f 178/178/178 177/177/177 172/172/172
f 178/178/178 172/172/172 171/171/171
f 177/177/177 179/179/179 165/165/165
f 177/177/177 165/165/165 172/172/172
f 176/176/176 180/180/180 179/179/179
f 176/176/176 179/179/179 177/177/177
f 180/180/180 181/181/181 182/182/182
f 180/180/180 182/182/182 179/179/179
f 179/179/179 182/182/182 166/166/166
f 179/179/179 166/166/166 165/165/165
f 182/182/182 183/183/183 170/170/170
f 182/182/182 170/170/170 166/166/166
f 181/181/181 184/184/184 183/183/183
f 181/181/181 183/183/183 182/182/182
f 185/185/185 186/186/186 187/187/187
f 185/185/185 187/187/187 188/188/188
f 188/188/188 187/187/187 176/176/176
f 188/188/188 176/176/176 175/175/175
f 187/187/187 189/189/189 180/180/180
f 187/187/187 180/180/180 176/176/176
f 186/186/186 190/190/190 189/189/189
f 186/186/186 189/189/189 187/187/187
f 190/190/190 191/191/191 192/192/192
f 190/190/190 192/192/192 189/189/189
f 189/189/189 192/192/192 181/181/181
f 189/189/189 181/181/181 180/180/180
f 192/192/192 193/193/193 184/184/184
f 192/192/192 184/184/184 181/181/181
f 191/191/191 194/194/194 193/193/193
f 191/191/191 193/193/193 192/192/192
f 195/195/195 196/196/196 197/197/197
f 195/195/195 197/197/197 198/198/198
f 198/198/198 197/197/197 191/191/191
f 198/198/198 191/191/191 190/190/190
f 197/197/197 199/199/199 194/194/194
f 197/197/197 194/194/194 191/191/191
f 196/196/196 200/200/200 199/199/199
f 196/196/196 199/199/199 197/197/197
f 201/201/201 202/202/202 203/203/203
f 201/201/201 203/203/203 204/204/204
f 204/204/204 203/203/203 186/186/186
f 204/204/204 186/186/186 185/185/185
f 203/203/203 198/198/198 190/190/190
f 203/203/203 190/190/190 186/186/186
f 202/202/202 195/195/195 198/198/198
f 202/202/202 198/198/198 203/203/203
f 140/140/140 205/205/205 206/206/206
f 140/140/140 206/206/206 207/207/207
f 207/207/207 206/206/206 202/202/202
f 207/207/207 202/202/202 201/201/201
f 206/206/206 208/208/208 195/195/195
f 206/206/206 195/195/195 202/202/202
f 205/205/205 209/209/209 208/208/208
f 205/205/205 208/208/208 206/206/206
f 209/209/209 210/210/210 211/211/211
f 209/209/209 211/211/211 208/208/208
f 208/208/208 211/211/211 196/196/196
f 208/208/208 196/196/196 195/195/195
f 211/211/211 212/212/212 200/200/200
f 211/211/211 200/200/200 196/196/196
f 210/210/210 213/213/213 212/212/212
f 210/210/210 212/212/212 211/211/211
f 149/149/149 157/157/157 214/214/214
f 149/149/149 214/214/214 215/215/215
f 215/215/215 214/214/214 210/210/210
f 215/215/215 210/210/210 209/209/209
f 214/214/214 216/216/216 213/213/213
f 214/214/214 213/213/213 210/210/210
f 157/157/157 159/159/159 216/216/216
f 157/157/157 216/216/216 214/214/214
f 135/135/135 147/147/147 217/217/217
f 135/135/135 217/217/217 139/139/139
f 139/139/139 217/217/217 205/205/205
f 139/139/139 205/205/205 140/140/140
f 217/217/217 215/215/215 209/209/209
f 217/217/217 209/209/209 205/205/205
f 147/147/147 149/149/149 215/215/215
f 147/147/147 215/215/215 217/217/217
f 115/115/115 138/138/138 218/218/218
f 115/115/115 218/218/218 114/114/114
f 114/114/114 218/218/218 219/219/219
f 114/114/114 219/219/219 101/101/101
f 218/218/218 207/207/207 201/201/201
f 218/218/218 201/201/201 219/219/219
f 138/138/138 140/140/140 207/207/207
f 138/138/138 207/207/207 218/218/218
f 159/159/159 220/220/220 221/221/221
f 159/159/159 221/221/221 216/216/216
f 216/216/216 221/221/221 222/222/222
f 216/216/216 222/222/222 213/213/213
f 221/221/221 223/223/223 224/224/224
f 221/221/221 224/224/224 222/222/222
f 220/220/220 225/225/225 223/223/223
f 220/220/220 223/223/223 221/221/221
f 213/213/213 222/222/222 226/226/226
f 213/213/213 226/226/226 212/212/212
f 212/212/212 226/226/226 227/227/227
f 212/212/212 227/227/227 200/200/200
f 226/226/226 228/228/228 229/229/229
f 226/226/226 229/229/229 227/227/227
f 222/222/222 224/224/224 228/228/228
f 222/222/222 228/228/228 226/226/226
f 160/160/160 230/230/230 231/231/231
f 160/160/160 231/231/231 158/158/158
f 158/158/158 231/231/231 220/220/220
f 158/158/158 220/220/220 159/159/159
f 231/231/231 232/232/232 225/225/225
f 231/231/231 225/225/225 220/220/220
f 230/230/230 233/233/233 232/232/232
f 230/230/230 232/232/232 231/231/231
f 224/224/224 223/223/223 234/234/234
f 224/224/224 234/234/234 235/235/235
f 235/235/235 234/234/234 236/236/236
f 235/235/235 236/236/236 237/237/237
f 234/234/234 238/238/238 239/239/239
f 234/234/234 239/239/239 236/236/236
f 223/223/223 225/225/225 238/238/238
f 223/223/223 238/238/238 234/234/234
f 225/225/225 232/232/232 240/240/240
f 225/225/225 240/240/240 238/238/238
f 238/238/238 240/240/240 241/241/241
f 238/238/238 241/241/241 239/239/239
f 240/240/240 242/242/242 243/243/243
f 240/240/240 243/243/243 241/241/241
f 232/232/232 233/233/233 242/242/242
f 232/232/232 242/242/242 240/240/240
f 239/239/239 241/241/241 244/244/244
f 239/239/239 244/244/244 245/245/245
f 245/245/245 244/244/244 246/246/246
f 245/245/245 246/246/246 247/247/247
f 244/244/244 248/248/248 249/249/249
f 244/244/244 249/249/249 246/246/246
f 241/241/241 243/243/243 248/248/248
f 241/241/241 248/248/248 244/244/244
f 237/237/237 236/236/236 250/250/250
f 237/237/237 250/250/250 251/251/251
f 251/251/251 250/250/250 252/252/252
f 251/251/251 252/252/252 253/253/253
f 250/250/250 245/245/245 247/247/247
f 250/250/250 247/247/247 252/252/252
f 236/236/236 239/239/239 245/245/245
f 236/236/236 245/245/245 250/250/250
f 229/229/229 228/228/228 254/254/254
f 229/229/229 254/254/254 255/255/255
f 255/255/255 254/254/254 256/256/256
f 255/255/255 256/256/256 257/257/257
f 254/254/254 235/235/235 237/237/237
f 254/254/254 237/237/237 256/256/256
f 228/228/228 224/224/224 235/235/235
f 228/228/228 235/235/235 254/254/254
f 257/257/257 256/256/256 258/258/258
f 257/257/257 258/258/258 259/259/259
f 259/259/259 258/258/258 260/260/260
f 259/259/259 260/260/260 261/261/261
f 258/258/258 251/251/251 253/253/253
f 258/258/258 253/253/253 260/260/260
f 256/256/256 237/237/237 251/251/251
f 256/256/256 251/251/251 258/258/258
f 262/262/262 263/263/263 264/264/264
f 262/262/262 264/264/264 265/265/265
f 265/265/265 264/264/264 266/266/266
f 265/265/265 266/266/266 267/267/267
f 264/264/264 259/259/259 261/261/261
f 264/264/264 261/261/261 266/266/266
f 263/263/263 257/257/257 259/259/259
f 263/263/263 259/259/259 264/264/264
f 268/268/268 269/269/269 270/270/270
f 268/268/268 270/270/270 271/271/271
f 271/271/271 270/270/270 263/263/263
f 271/271/271 263/263/263 262/262/262
f 270/270/270 255/255/255 257/257/257
f 270/270/270 257/257/257 263/263/263
f 269/269/269 229/229/229 255/255/255
f 269/269/269 255/255/255 270/270/270
f 272/272/272 273/273/273 274/274/274
f 272/272/272 274/274/274 275/275/275
f 275/275/275 274/274/274 276/276/276
f 275/275/275 276/276/276 277/277/277
f 274/274/274 271/271/271 262/262/262
f 274/274/274 262/262/262 276/276/276
f 273/273/273 268/268/268 271/271/271
f 273/273/273 271/271/271 274/274/274
f 277/277/277 276/276/276 278/278/278
f 277/277/277 278/278/278 279/279/279
f 279/279/279 278/278/278 280/280/280
f 279/279/279 280/280/280 281/281/281
f 278/278/278 265/265/265 267/267/267
f 278/278/278 267/267/267 280/280/280
f 276/276/276 262/262/262 265/265/265
f 276/276/276 265/265/265 278/278/278
f 282/282/282 283/283/283 284/284/284
f 282/282/282 284/284/284 285/285/285
f 285/285/285 284/284/284 286/286/286
f 285/285/285 286/286/286 287/287/287
f 284/284/284 275/275/275 277/277/277
f 284/284/284 277/277/277 286/286/286
f 283/283/283 272/272/272 275/275/275
f 283/283/283 275/275/275 284/284/284
f 287/287/287 286/286/286 288/288/288
f 287/287/287 288/288/288 289/289/289
f 289/289/289 288/288/288 290/290/290
f 289/289/289 290/290/290 291/291/291
f 288/288/288 279/279/279 281/281/281
f 288/288/288 281/281/281 290/290/290
f 286/286/286 277/277/277 279/279/279
f 286/286/286 279/279/279 288/288/288
f 292/292/292 293/293/293 294/294/294
f 292/292/292 294/294/294 295/295/295
f 295/295/295 294/294/294 296/296/296
f 295/295/295 296/296/296 297/297/297
f 294/294/294 285/285/285 287/287/287
f 294/294/294 287/287/287 296/296/296
f 293/293/293 282/282/282 285/285/285
f 293/293/293 285/285/285 294/294/294
f 297/297/297 296/296/296 298/298/298
f 297/297/297 298/298/298 299/299/299
f 299/299/299 298/298/298 300/300/300
f 299/299/299 300/300/300 301/301/301
f 298/298/298 289/289/289 291/291/291
f 298/298/298 291/291/291 300/300/300
f 296/296/296 287/287/287 289/289/289
f 296/296/296 289/289/289 298/298/298
f 243/243/243 302/302/302 303/303/303
f 243/243/243 303/303/303 248/248/248
f 248/248/248 303/303/303 304/304/304
f 248/248/248 304/304/304 249/249/249
f 303/303/303 299/299/299 301/301/301
f 303/303/303 301/301/301 304/304/304
f 302/302/302 297/297/297 299/299/299
f 302/302/302 299/299/299 303/303/303
f 233/233/233 305/305/305 306/306/306
f 233/233/233 306/306/306 242/242/242
f 242/242/242 306/306/306 302/302/302
f 242/242/242 302/302/302 243/243/243
f 306/306/306 295/295/295 297/297/297
f 306/306/306 297/297/297 302/302/302
f 305/305/305 292/292/292 295/295/295
f 305/305/305 295/295/295 306/306/306
f 160/160/160 162/162/162 307/307/307
f 160/160/160 307/307/307 230/230/230
f 230/230/230 307/307/307 305/305/305
f 230/230/230 305/305/305 233/233/233
f 307/307/307 308/308/308 292/292/292
f 307/307/307 292/292/292 305/305/305
f 162/162/162 164/164/164 308/308/308
f 162/162/162 308/308/308 307/307/307
f 170/170/170 309/309/309 310/310/310
f 170/170/170 310/310/310 169/169/169
f 169/169/169 310/310/310 308/308/308
f 169/169/169 308/308/308 164/164/164
f 310/310/310 293/293/293 292/292/292
f 310/310/310 292/292/292 308/308/308
f 309/309/309 282/282/282 293/293/293
f 309/309/309 293/293/293 310/310/310
f 249/249/249 304/304/304 311/311/311
f 249/249/249 311/311/311 312/312/312
f 312/312/312 311/311/311 313/313/313
f 312/312/312 313/313/313 314/314/314
f 311/311/311 315/315/315 316/316/316
f 311/311/311 316/316/316 313/313/313
f 304/304/304 301/301/301 315/315/315
f 304/304/304 315/315/315 311/311/311
f 301/301/301 300/300/300 317/317/317
f 301/301/301 317/317/317 315/315/315
f 315/315/315 317/317/317 318/318/318
f 315/315/315 318/318/318 316/316/316
f 317/317/317 319/319/319 320/320/320
f 317/317/317 320/320/320 318/318/318
f 300/300/300 291/291/291 319/319/319
f 300/300/300 319/319/319 317/317/317
f 314/314/314 313/313/313 321/321/321
f 314/314/314 321/321/321 322/322/322
f 322/322/322 321/321/321 323/323/323
f 322/322/322 323/323/323 324/324/324
f 321/321/321 325/325/325 326/326/326
f 321/321/321 326/326/326 323/323/323
f 313/313/313 316/316/316 325/325/325
f 313/313/313 325/325/325 321/321/321
f 316/316/316 318/318/318 327/327/327
f 316/316/316 327/327/327 325/325/325
f 325/325/325 327/327/327 328/328/328
f 325/325/325 328/328/328 326/326/326
f 327/327/327 329/329/329 330/330/330
f 327/327/327 330/330/330 328/328/328
f 318/318/318 320/320/320 329/329/329
f 318/318/318 329/329/329 327/327/327
f 331/331/331 332/332/332 333/333/333
f 331/331/331 333/333/333 334/334/334
f 334/334/334 333/333/333 323/323/323
f 334/334/334 323/323/323 326/326/326
f 333/333/333 335/335/335 324/324/324
f 333/333/333 324/324/324 323/323/323
f 332/332/332 336/336/336 335/335/335
f 332/332/332 335/335/335 333/333/333
f 337/337/337 338/338/338 339/339/339
f 337/337/337 339/339/339 340/340/340
f 340/340/340 339/339/339 328/328/328
f 340/340/340 328/328/328 330/330/330
f 339/339/339 334/334/334 326/326/326
f 339/339/339 326/326/326 328/328/328
f 338/338/338 331/331/331 334/334/334
f 338/338/338 334/334/334 339/339/339
f 341/341/341 342/342/342 343/343/343
f 341/341/341 343/343/343 344/344/344
f 337/337/337 344/344/344 343/343/343
f 337/337/337 343/343/343 338/338/338
f 331/331/331 338/338/338 343/343/343
f 331/331/331 343/343/343 332/332/332
f 336/336/336 332/332/332 343/343/343
f 336/336/336 343/343/343 345/345/345
f 346/346/346 345/345/345 343/343/343
f 346/346/346 343/343/343 347/347/347
f 348/348/348 347/347/347 343/343/343
f 348/348/348 343/343/343 349/349/349
f 350/350/350 349/349/349 343/343/343
f 350/350/350 343/343/343 351/351/351
f 352/352/352 351/351/351 343/343/343
f 352/352/352 343/343/343 342/342/342
f 341/341/341 344/344/344 353/353/353
f 341/341/341 353/353/353 354/354/354
f 354/354/354 353/353/353 355/355/355
f 354/354/354 355/355/355 356/356/356
f 353/353/353 340/340/340 330/330/330
f 353/353/353 330/330/330 355/355/355
f 344/344/344 337/337/337 340/340/340
f 344/344/344 340/340/340 353/353/353
f 352/352/352 342/342/342 357/357/357
f 352/352/352 357/357/357 358/358/358
f 358/358/358 357/357/357 359/359/359
f 358/358/358 359/359/359 360/360/360
f 357/357/357 354/354/354 356/356/356
f 357/357/357 356/356/356 359/359/359
f 342/342/342 341/341/341 354/354/354
f 342/342/342 354/354/354 357/357/357
f 320/320/320 361/361/361 362/362/362
f 320/320/320 362/362/362 329/329/329
f 329/329/329 362/362/362 355/355/355
f 329/329/329 355/355/355 330/330/330
f 362/362/362 363/363/363 356/356/356
f 362/362/362 356/356/356 355/355/355
f 361/361/361 364/364/364 363/363/363
f 361/361/361 363/363/363 362/362/362
f 364/364/364 365/365/365 366/366/366
f 364/364/364 366/366/366 363/363/363
f 363/363/363 366/366/366 359/359/359
f 363/363/363 359/359/359 356/356/356
f 366/366/366 367/367/367 360/360/360
f 366/366/366 360/360/360 359/359/359
f 365/365/365 368/368/368 367/367/367
f 365/365/365 367/367/367 366/366/366
f 291/291/291 290/290/290 369/369/369
f 291/291/291 369/369/369 319/319/319
f 319/319/319 369/369/369 361/361/361
f 319/319/319 361/361/361 320/320/320
f 369/369/369 370/370/370 364/364/364
f 369/369/369 364/364/364 361/361/361
f 290/290/290 281/281/281 370/370/370
f 290/290/290 370/370/370 369/369/369
f 281/281/281 280/280/280 371/371/371
f 281/281/281 371/371/371 370/370/370
f 370/370/370 371/371/371 365/365/365
f 370/370/370 365/365/365 364/364/364
f 371/371/371 372/372/372 368/368/368
f 371/371/371 368/368/368 365/365/365
f 280/280/280 267/267/267 372/372/372
f 280/280/280 372/372/372 371/371/371
f 368/368/368 373/373/373 374/374/374
f 368/368/368 374/374/374 367/367/367
f 367/367/367 374/374/374 375/375/375
f 367/367/367 375/375/375 360/360/360
f 374/374/374 376/376/376 377/377/377
f 374/374/374 377/377/377 375/375/375
f 373/373/373 378/378/378 376/376/376
f 373/373/373 376/376/376 374/374/374
f 267/267/267 266/266/266 379/379/379
f 267/267/267 379/379/379 372/372/372
f 372/372/372 379/379/379 373/373/373
f 372/372/372 373/373/373 368/368/368
f 379/379/379 380/380/380 378/378/378
f 379/379/379 378/378/378 373/373/373
f 266/266/266 261/261/261 380/380/380
f 266/266/266 380/380/380 379/379/379
f 378/378/378 381/381/381 382/382/382
f 378/378/378 382/382/382 376/376/376
f 376/376/376 382/382/382 383/383/383
f 376/376/376 383/383/383 377/377/377
f 382/382/382 384/384/384 385/385/385
f 382/382/382 385/385/385 383/383/383
f 381/381/381 386/386/386 384/384/384
f 381/381/381 384/384/384 382/382/382
f 261/261/261 260/260/260 387/387/387
f 261/261/261 387/387/387 380/380/380
f 380/380/380 387/387/387 381/381/381
f 380/380/380 381/381/381 378/378/378
f 387/387/387 388/388/388 386/386/386
f 387/387/387 386/386/386 381/381/381
f 260/260/260 253/253/253 388/388/388
f 260/260/260 388/388/388 387/387/387
f 350/350/350 351/351/351 389/389/389
f 350/350/350 389/389/389 390/390/390
f 390/390/390 389/389/389 375/375/375
f 390/390/390 375/375/375 377/377/377
f 389/389/389 358/358/358 360/360/360
f 389/389/389 360/360/360 375/375/375
f 351/351/351 352/352/352 358/358/358
f 351/351/351 358/358/358 389/389/389
f 348/348/348 349/349/349 391/391/391
f 348/348/348 391/391/391 392/392/392
f 392/392/392 391/391/391 383/383/383
f 392/392/392 383/383/383 385/385/385
f 391/391/391 390/390/390 377/377/377
f 391/391/391 377/377/377 383/383/383
f 349/349/349 350/350/350 390/390/390
f 349/349/349 390/390/390 391/391/391
f 346/346/346 347/347/347 393/393/393
f 346/346/346 393/393/393 394/394/394
f 394/394/394 393/393/393 395/395/395
f 394/394/394 395/395/395 396/396/396
f 393/393/393 392/392/392 385/385/385
f 393/393/393 385/385/385 395/395/395
f 347/347/347 348/348/348 392/392/392
f 347/347/347 392/392/392 393/393/393
f 336/336/336 345/345/345 397/397/397
f 336/336/336 397/397/397 335/335/335
f 335/335/335 397/397/397 398/398/398
f 335/335/335 398/398/398 324/324/324
f 397/397/397 394/394/394 396/396/396
f 397/397/397 396/396/396 398/398/398
f 345/345/345 346/346/346 394/394/394
f 345/345/345 394/394/394 397/397/397
f 386/386/386 399/399/399 400/400/400
f 386/386/386 400/400/400 384/384/384
f 384/384/384 400/400/400 395/395/395
f 384/384/384 395/395/395 385/385/385
f 400/400/400 401/401/401 396/396/396
f 400/400/400 396/396/396 395/395/395
f 399/399/399 402/402/402 401/401/401
f 399/399/399 401/401/401 400/400/400
f 402/402/402 403/403/403 404/404/404
f 402/402/402 404/404/404 401/401/401
f 401/401/401 404/404/404 398/398/398
f 401/401/401 398/398/398 396/396/396
f 404/404/404 322/322/322 324/324/324
f 404/404/404 324/324/324 398/398/398
f 403/403/403 314/314/314 322/322/322
f 403/403/403 322/322/322 404/404/404
f 253/253/253 252/252/252 405/405/405
f 253/253/253 405/405/405 388/388/388
f 388/388/388 405/405/405 399/399/399
f 388/388/388 399/399/399 386/386/386
f 405/405/405 406/406/406 402/402/402
f 405/405/405 402/402/402 399/399/399
f 252/252/252 247/247/247 406/406/406
f 252/252/252 406/406/406 405/405/405
f 247/247/247 246/246/246 407/407/407
f 247/247/247 407/407/407 406/406/406
f 406/406/406 407/407/407 403/403/403
f 406/406/406 403/403/403 402/402/402
f 407/407/407 312/312/312 314/314/314
f 407/407/407 314/314/314 403/403/403
f 246/246/246 249/249/249 312/312/312
f 246/246/246 312/312/312 407/407/407
f 184/184/184 408/408/408 409/409/409
f 184/184/184 409/409/409 183/183/183
f 183/183/183 409/409/409 309/309/309
f 183/183/183 309/309/309 170/170/170
f 409/409/409 283/283/283 282/282/282
f 409/409/409 282/282/282 309/309/309
f 408/408/408 272/272/272 283/283/283
f 408/408/408 283/283/283 409/409/409
f 194/194/194 410/410/410 411/411/411
f 194/194/194 411/411/411 193/193/193
f 193/193/193 411/411/411 408/408/408
f 193/193/193 408/408/408 184/184/184
f 411/411/411 273/273/273 272/272/272
f 411/411/411 272/272/272 408/408/408
f 410/410/410 268/268/268 273/273/273
f 410/410/410 273/273/273 411/411/411
f 200/200/200 227/227/227 412/412/412
f 200/200/200 412/412/412 199/199/199
f 199/199/199 412/412/412 410/410/410
f 199/199/199 410/410/410 194/194/194
f 412/412/412 269/269/269 268/268/268
f 412/412/412 268/268/268 410/410/410
f 227/227/227 229/229/229 269/269/269
f 227/227/227 269/269/269 412/412/412
f 101/101/101 219/219/219 413/413/413
f 101/101/101 413/413/413 100/100/100
f 100/100/100 413/413/413 414/414/414
f 100/100/100 414/414/414 95/95/95
f 413/413/413 204/204/204 185/185/185
f 413/413/413 185/185/185 414/414/414
f 219/219/219 201/201/201 204/204/204
f 219/219/219 204/204/204 413/413/413
f 95/95/95 414/414/414 415/415/415
f 95/95/95 415/415/415 94/94/94
f 94/94/94 415/415/415 416/416/416
f 94/94/94 416/416/416 85/85/85
f 415/415/415 188/188/188 175/175/175
f 415/415/415 175/175/175 416/416/416
f 414/414/414 185/185/185 188/188/188
f 414/414/414 188/188/188 415/415/415
f 85/85/85 416/416/416 417/417/417
f 85/85/85 417/417/417 84/84/84
f 84/84/84 417/417/417 418/418/418
f 84/84/84 418/418/418 75/75/75
f 417/417/417 178/178/178 171/171/171
f 417/417/417 171/171/171 418/418/418
f 416/416/416 175/175/175 178/178/178
f 416/416/416 178/178/178 417/417/417
f 75/75/75 418/418/418 419/419/419
f 75/75/75 419/419/419 74/74/74
f 74/74/74 419/419/419 143/143/143
f 74/74/74 143/143/143 71/71/71
f 419/419/419 174/174/174 144/144/144
f 419/419/419 144/144/144 143/143/143
f 418/418/418 171/171/171 174/174/174
f 418/418/418 174/174/174 419/419/419
f 420/420/420 421/421/421 422/422/422
f 420/420/420 422/422/422 423/423/423
f 423/423/423 422/422/422 424/424/424
f 423/423/423 424/424/424 425/425/425
f 422/422/422 125/125/125 106/106/106
f 422/422/422 106/106/106 424/424/424
f 421/421/421 122/122/122 125/125/125
f 421/421/421 125/125/125 422/422/422
f 45/45/45 47/47/47 426/426/426
f 45/45/45 426/426/426 427/427/427
f 427/427/427 426/426/426 421/421/421
f 427/427/427 421/421/421 420/420/420
f 426/426/426 127/127/127 122/122/122
f 426/426/426 122/122/122 421/421/421
f 47/47/47 49/49/49 127/127/127
f 47/47/47 127/127/127 426/426/426
f 428/428/428 429/429/429 430/430/430
f 428/428/428 430/430/430 431/431/431
f 431/431/431 430/430/430 432/432/432
f 431/431/431 432/432/432 433/433/433
f 430/430/430 423/423/423 425/425/425
f 430/430/430 425/425/425 432/432/432
f 429/429/429 420/420/420 423/423/423
f 429/429/429 423/423/423 430/430/430
f 41/41/41 43/43/43 434/434/434
f 41/41/41 434/434/434 435/435/435
f 435/435/435 434/434/434 429/429/429
f 435/435/435 429/429/429 428/428/428
f 434/434/434 427/427/427 420/420/420
f 434/434/434 420/420/420 429/429/429
f 43/43/43 45/45/45 427/427/427
f 43/43/43 427/427/427 434/434/434
f 433/433/433 432/432/432 436/436/436
f 433/433/433 436/436/436 437/437/437
f 437/437/437 436/436/436 438/438/438
f 437/437/437 438/438/438 439/439/439
f 436/436/436 440/440/440 441/441/441
f 436/436/436 441/441/441 438/438/438
f 432/432/432 425/425/425 440/440/440
f 432/432/432 440/440/440 436/436/436
f 425/425/425 424/424/424 442/442/442
f 425/425/425 442/442/442 440/440/440
f 440/440/440 442/442/442 443/443/443
f 440/440/440 443/443/443 441/441/441
f 442/442/442 109/109/109 102/102/102
f 442/442/442 102/102/102 443/443/443
f 424/424/424 106/106/106 109/109/109
f 424/424/424 109/109/109 442/442/442
f 439/439/439 438/438/438 444/444/444
f 439/439/439 444/444/444 445/445/445
f 445/445/445 444/444/444 22/22/22
f 445/445/445 22/22/22 15/15/15
f 444/444/444 446/446/446 25/25/25
f 444/444/444 25/25/25 22/22/22
f 438/438/438 441/441/441 446/446/446
f 438/438/438 446/446/446 444/444/444
f 441/441/441 443/443/443 447/447/447
f 441/441/441 447/447/447 446/446/446
f 446/446/446 447/447/447 448/448/448
f 446/446/446 448/448/448 25/25/25
f 447/447/447 105/105/105 86/86/86
f 447/447/447 86/86/86 448/448/448
f 443/443/443 102/102/102 105/105/105
f 443/443/443 105/105/105 447/447/447
f 25/25/25 448/448/448 449/449/449
f 25/25/25 449/449/449 24/24/24
f 24/24/24 449/449/449 450/450/450
f 24/24/24 450/450/450 21/21/21
f 449/449/449 89/89/89 76/76/76
f 449/449/449 76/76/76 450/450/450
f 448/448/448 86/86/86 89/89/89
f 448/448/448 89/89/89 449/449/449
f 451/451/451 452/452/452 453/453/453
f 451/451/451 453/453/453 454/454/454
f 454/454/454 453/453/453 455/455/455
f 454/454/454 455/455/455 456/456/456
f 453/453/453 437/437/437 439/439/439
f 453/453/453 439/439/439 455/455/455
f 452/452/452 433/433/433 437/437/437
f 452/452/452 437/437/437 453/453/453
f 456/456/456 455/455/455 457/457/457
f 456/456/456 457/457/457 458/458/458
f 458/458/458 457/457/457 11/11/11
f 458/458/458 11/11/11 10/10/10
f 457/457/457 445/445/445 15/15/15
f 457/457/457 15/15/15 11/11/11
f 455/455/455 439/439/439 445/445/445
f 455/455/455 445/445/445 457/457/457
f 459/459/459 460/460/460 461/461/461
f 459/459/459 461/461/461 462/462/462
f 462/462/462 461/461/461 452/452/452
f 462/462/462 452/452/452 451/451/451
f 461/461/461 431/431/431 433/433/433
f 461/461/461 433/433/433 452/452/452
f 460/460/460 428/428/428 431/431/431
f 460/460/460 431/431/431 461/461/461
f 36/36/36 39/39/39 463/463/463
f 36/36/36 463/463/463 464/464/464
f 464/464/464 463/463/463 460/460/460
f 464/464/464 460/460/460 459/459/459
f 463/463/463 435/435/435 428/428/428
f 463/463/463 428/428/428 460/460/460
f 39/39/39 41/41/41 435/435/435
f 39/39/39 435/435/435 463/463/463
f 21/21/21 450/450/450 465/465/465
f 21/21/21 465/465/465 19/19/19
f 19/19/19 465/465/465 52/52/52
f 19/19/19 52/52/52 20/20/20
f 465/465/465 79/79/79 55/55/55
f 465/465/465 55/55/55 52/52/52
f 450/450/450 76/76/76 79/79/79
f 450/450/450 79/79/79 465/465/465
