v -0.912817 -0.822374 0.190688
v -0.913273 -0.824769 0.187941
v -0.91253 -0.822579 0.185977
v -0.912247 -0.820674 0.189115
v -0.912737 -0.81991 0.184521
v -0.912418 -0.818589 0.187948
v -0.913167 -0.824513 0.182445
v -0.913404 -0.821353 0.180744
v -0.914052 -0.827111 0.184745
v -0.943254 -0.823568 0.140159
v -0.938383 -0.824688 0.137715
v -0.942821 -0.82815 0.124903
v -0.947743 -0.826867 0.12752
v -0.946498 -0.831524 0.112685
v -0.95123 -0.829978 0.115728
v -0.938294 -0.831369 0.123303
v -0.942217 -0.834987 0.110722
v -0.933864 -0.827649 0.136268
v -0.930383 -0.83203 0.13611
v -0.934758 -0.83601 0.123062
v -0.938798 -0.839736 0.110323
v -0.932666 -0.841311 0.124226
v -0.936618 -0.845009 0.111578
v -0.928422 -0.837123 0.137247
v -0.959715 -0.833722 0.123052
v -0.962458 -0.836213 0.113177
v -0.964611 -0.840695 0.117038
v -0.961842 -0.838328 0.126557
v -0.964651 -0.846246 0.119932
v -0.961934 -0.843846 0.129228
v -0.966311 -0.842561 0.109848
v -0.966263 -0.847985 0.112836
v -0.964229 -0.838329 0.105799
v -0.947579 -0.846212 0.152732
v -0.951103 -0.841859 0.152859
v -0.956175 -0.846109 0.141011
v -0.95246 -0.850673 0.140825
v -0.95987 -0.84943 0.13051
v -0.956034 -0.854168 0.130241
v -0.958175 -0.84073 0.139807
v -0.953042 -0.836753 0.151722
v -0.953058 -0.831664 0.149461
v -0.958112 -0.835358 0.137363
v -0.956089 -0.830812 0.134161
v -0.951213 -0.827357 0.146474
v -0.938017 -0.850188 0.148925
v -0.942971 -0.849117 0.151333
v -0.947561 -0.853685 0.139263
v -0.942296 -0.854762 0.136649
v -0.951003 -0.857245 0.128445
v -0.945626 -0.858301 0.125508
v -0.930077 -0.846412 0.142579
v -0.933494 -0.849215 0.145861
v -0.937531 -0.85372 0.13339
v -0.934025 -0.850818 0.129914
v -0.940804 -0.857204 0.121896
v -0.937392 -0.854298 0.118024
v -0.947754 -0.824527 0.143224
v -0.952411 -0.827833 0.130739
v -0.955912 -0.830785 0.119311
v -0.93238 -0.846477 0.126673
v -0.928323 -0.842162 0.139545
v -0.93604 -0.850058 0.114354
v -0.943713 -0.850722 0.0902057
v -0.946157 -0.852116 0.0863001
v -0.94822 -0.84791 0.0846984
v -0.945893 -0.846135 0.0886209
v -0.950785 -0.843768 0.0854937
v -0.948723 -0.841698 0.089371
v -0.949777 -0.848865 0.0844383
v -0.952135 -0.845059 0.0851749
v -0.947894 -0.852731 0.0859333
v -0.958583 -0.856921 0.120955
v -0.953599 -0.860035 0.118905
v -0.948323 -0.861022 0.115565
v -0.95546 -0.861718 0.111658
v -0.950466 -0.862614 0.108075
v -0.960218 -0.858668 0.113849
v -0.943609 -0.859844 0.111438
v -0.940422 -0.856972 0.106961
v -0.945996 -0.861404 0.103604
v -0.943088 -0.858655 0.0986897
v -0.953968 -0.833056 0.104766
v -0.958578 -0.833528 0.108954
v -0.960396 -0.835982 0.101256
v -0.95597 -0.835852 0.0966089
v -0.939484 -0.85297 0.102649
v -0.940417 -0.848258 0.0993746
v -0.942516 -0.85499 0.0938826
v -0.945781 -0.838606 0.0985382
v -0.949607 -0.834947 0.101043
v -0.952049 -0.837993 0.092329
v -0.942632 -0.843268 0.0979432
v -0.962483 -0.852008 0.1213
v -0.96405 -0.853741 0.114237
v -0.958003 -0.839958 0.0920402
v -0.958404 -0.841426 0.0922233
v -0.961608 -0.841502 0.0958207
v -0.961671 -0.839906 0.0962043
v -0.964298 -0.843233 0.0992421
v -0.964844 -0.841755 0.100152
v -0.960958 -0.842111 0.0974298
v -0.963287 -0.843822 0.100404
v -0.958071 -0.841848 0.0943683
v -0.966714 -0.849133 0.108635
v -0.964605 -0.854555 0.109966
v -0.961038 -0.859181 0.109585
v -0.964446 -0.854763 0.107367
v -0.96127 -0.858888 0.107027
v -0.966342 -0.849908 0.106177
v -0.964926 -0.840122 0.101906
v -0.966826 -0.844038 0.105787
v -0.966488 -0.845304 0.103627
v -0.956667 -0.862013 0.107472
v -0.95209 -0.862827 0.104012
v -0.957381 -0.861427 0.10514
v -0.953295 -0.862193 0.102052
v -0.947973 -0.861712 0.0996727
v -0.94533 -0.859225 0.0948403
v -0.949601 -0.861266 0.0981714
v -0.947208 -0.859107 0.0938058
v -0.95724 -0.838113 0.0929098
v -0.961342 -0.838065 0.097504
v -0.944922 -0.855952 0.090024
v -0.946805 -0.856203 0.0893859
v -0.953724 -0.84024 0.0885584
v -0.954823 -0.841866 0.0880279
v -0.955435 -0.841426 0.103387
v -0.952845 -0.84277 0.102966
v -0.953178 -0.848064 0.108785
v -0.957115 -0.842437 0.106292
v -0.959613 -0.843311 0.107604
v -0.959571 -0.8458 0.109877
v -0.960479 -0.848432 0.110972
v -0.958524 -0.850806 0.111731
v -0.957452 -0.853794 0.111454
v -0.954675 -0.854476 0.110649
v -0.952391 -0.85612 0.108739
v -0.950229 -0.854663 0.107361
v -0.948216 -0.854276 0.104494
v -0.947972 -0.851487 0.103693
v -0.947703 -0.849431 0.100962
v -0.949196 -0.846628 0.101801
v -0.950683 -0.844065 0.100519
v -0.948664 -0.858719 0.0938371
v -0.94818 -0.856078 0.0900321
v -0.949032 -0.85286 0.0870503
v -0.948416 -0.855353 0.0926892
v -0.949019 -0.852234 0.0902276
v -0.949049 -0.857885 0.0958569
v -0.952906 -0.845828 0.0863448
v -0.955468 -0.843019 0.0887774
v -0.955227 -0.843135 0.0915341
v -0.952658 -0.845621 0.0895852
v -0.950702 -0.849288 0.0857397
v -0.950517 -0.848828 0.0891292
v -0.965516 -0.850432 0.104464
v -0.963864 -0.854654 0.105495
v -0.961098 -0.858255 0.105204
v -0.962867 -0.854036 0.105875
v -0.960402 -0.857252 0.105625
v -0.964327 -0.8503 0.104972
v -0.96567 -0.846397 0.102254
v -0.964469 -0.84671 0.103038
v -0.957688 -0.860529 0.103584
v -0.954093 -0.861296 0.10093
v -0.957331 -0.859351 0.104218
v -0.954075 -0.860137 0.101919
v -0.950832 -0.860581 0.0975925
v -0.951102 -0.859574 0.0990451
v -0.956773 -0.841102 0.0991373
v -0.95392 -0.842175 0.0969619
v -0.951328 -0.84439 0.0953324
v -0.953094 -0.858471 0.105764
v -0.956146 -0.857629 0.107856
v -0.959058 -0.855717 0.109084
v -0.947823 -0.850733 0.0958892
v -0.947449 -0.853772 0.0979873
v -0.948215 -0.856328 0.100497
v -0.962684 -0.849295 0.108495
v -0.962726 -0.845971 0.106795
v -0.961691 -0.843232 0.104385
v -0.959474 -0.841547 0.101831
v -0.961283 -0.8527 0.109341
v -0.950265 -0.857884 0.1033
v -0.949219 -0.847415 0.0951283
v -0.92142 -0.836486 0.166746
v -0.925517 -0.841189 0.155797
v -0.923844 -0.83724 0.152825
v -0.919938 -0.832903 0.163802
v -0.923872 -0.832545 0.150562
v -0.919993 -0.828609 0.16156
v -0.939222 -0.819955 0.170617
v -0.936478 -0.817693 0.16754
v -0.941926 -0.820873 0.156476
v -0.945037 -0.823428 0.159618
v -0.937793 -0.820026 0.153477
v -0.932769 -0.816997 0.164577
v -0.924205 -0.838768 0.169886
v -0.928652 -0.843753 0.158987
v -0.932758 -0.84459 0.161942
v -0.927869 -0.839452 0.172787
v -0.931909 -0.838401 0.175051
v -0.937254 -0.843532 0.164244
v -0.941457 -0.840791 0.16557
v -0.935716 -0.835822 0.176366
v -0.94042 -0.827744 0.175467
v -0.94059 -0.823493 0.173392
v -0.946641 -0.827354 0.162467
v -0.946542 -0.832025 0.164608
v -0.938695 -0.832071 0.1765
v -0.944707 -0.83674 0.165686
v -0.924692 -0.820539 0.160662
v -0.921673 -0.82427 0.160464
v -0.92568 -0.82782 0.149439
v -0.928954 -0.823778 0.149604
v -0.928613 -0.818006 0.162145
v -0.933227 -0.82106 0.151054
v -0.927161 -0.813998 0.174966
v -0.923657 -0.815038 0.172717
v -0.925657 -0.816174 0.168654
v -0.929451 -0.815147 0.171024
v -0.922055 -0.81861 0.167219
v -0.92032 -0.817401 0.171381
v -0.91768 -0.820765 0.171206
v -0.919244 -0.822134 0.167021
v -0.91763 -0.826192 0.168067
v -0.916111 -0.824603 0.172189
v -0.929186 -0.830421 0.186277
v -0.931834 -0.827033 0.18644
v -0.934628 -0.829039 0.182771
v -0.931839 -0.832586 0.182617
v -0.936277 -0.82498 0.181765
v -0.93342 -0.823174 0.185462
v -0.933668 -0.819433 0.183463
v -0.9365 -0.821023 0.179723
v -0.935302 -0.817761 0.176982
v -0.932579 -0.81637 0.180775
v -0.922372 -0.833836 0.182738
v -0.925858 -0.832799 0.184965
v -0.92831 -0.835056 0.181295
v -0.924595 -0.836108 0.179037
v -0.916979 -0.831418 0.176923
v -0.919265 -0.833336 0.179914
v -0.921256 -0.835538 0.176161
v -0.918758 -0.83347 0.173075
v -0.930286 -0.814477 0.177795
v -0.932825 -0.815715 0.173941
v -0.917486 -0.830174 0.170221
v -0.915882 -0.828341 0.17421
v -0.921549 -0.813832 0.192964
v -0.920305 -0.812792 0.191215
v -0.922847 -0.812557 0.188577
v -0.924472 -0.813898 0.19077
v -0.925372 -0.812682 0.185483
v -0.927309 -0.814273 0.188054
v -0.920629 -0.812237 0.186507
v -0.922736 -0.812299 0.18306
v -0.918593 -0.812549 0.189557
v -0.914061 -0.823414 0.192438
v -0.914882 -0.826127 0.190131
v -0.915964 -0.828731 0.187311
v -0.917094 -0.826468 0.19221
v -0.91859 -0.829149 0.189749
v -0.915774 -0.823657 0.194095
v -0.917704 -0.823042 0.195403
v -0.919586 -0.825706 0.193853
v -0.921549 -0.828258 0.191677
v -0.921974 -0.823984 0.194822
v -0.924381 -0.826226 0.192814
v -0.919556 -0.821686 0.196173
v -0.921948 -0.817617 0.195705
v -0.922119 -0.815531 0.194538
v -0.925233 -0.816085 0.192751
v -0.925036 -0.818767 0.194224
v -0.928224 -0.816868 0.190379
v -0.928002 -0.820048 0.19211
v -0.921042 -0.819777 0.196273
v -0.923883 -0.821541 0.194943
v -0.926642 -0.823335 0.192957
v -0.91481 -0.814519 0.187479
v -0.913325 -0.816429 0.18738
v -0.913884 -0.817157 0.183811
v -0.915777 -0.814731 0.183929
v -0.914756 -0.818101 0.179912
v -0.91699 -0.815238 0.180048
v -0.916662 -0.813163 0.18825
v -0.918147 -0.813012 0.184882
v -0.919794 -0.81321 0.18116
v -0.915366 -0.829348 0.180864
v -0.91438 -0.826475 0.178325
v -0.914636 -0.82298 0.176445
v -0.92786 -0.813405 0.181688
v -0.930001 -0.815166 0.184519
v -0.924948 -0.812978 0.179015
v -0.917482 -0.831138 0.183692
v -0.920384 -0.831599 0.186378
v -0.92365 -0.830614 0.188502
v -0.926775 -0.82837 0.189754
v -0.931012 -0.818034 0.187078
v -0.930768 -0.821547 0.188982
v -0.929268 -0.825177 0.189912
v -0.916125 -0.819384 0.175528
v -0.918594 -0.81622 0.175682
v -0.921694 -0.813981 0.176915
vt 0.0843 0.08419
vt 0.9167 0.08333
vt 0.2622 0.01042
vt 0.7396 0.9896
vt 0.7396 0.01042
vt 0.2612 0.01105
vt 0.08333 0.9167
vt 0.9896 0.7326
vt 1 0.4792
vt 0.7396 0.9896
vt 0.9167 0.08333
vt 0.2604 0.01042
vt 0 0.5
vt 0.7396 0.9896
vt 0.2619 0.01169
vt 0.08333 0.08333
vt 0.2612 0.01105
vt 0.7396 0.9896
vt 0.9167 0.08333
vt 0.08333 0.08333
vt 0.7396 0.9896
vt 0.9236 0.08333
vt 0.5003 0.0008831
vt 0.7396 0.9896
vt 0.2619 0.01169
vt 0.7413 0.008681
vt 0.08333 0.08333
vt 0.7396 0.9896
vt 0.4167 -2.384e-07
vt 0.2612 0.01105
vt 0.9896 0.2604
vt 0.08333 0.9167
vt 0.01042 0.7396
vt 0.9167 0.9167
vt 0.9896 0.2587
vt 0.5069 0
vt 0.9896 0.2604
vt 0.5 1
vt 0.08526 0.08505
vt 0.01042 0.2604
vt 0.9167 0.9167
vt 0.9896 0.25
vt 0.5 0
vt 0.9913 0.2604
vt 0.7396 0.9896
vt 0.5 1
vt 0.9896 0.25
vt 0.2604 0.01042
vt 0.01042 0.2604
vt 0.5 1
vt 0.0843 0.08419
vt 0.5 1
vt 0.9896 0.2587
vt 0.2622 0.01042
vt 1 0.08333
vt 0.5 1
vt 0.5002 0.0004414
vt 1 0.4931
vt 0 0.5
vt 0.7396 0.9896
vt 0 0.5
vt 1 0.4167
vt 0.5 1
vt 0.01042 0.7396
vt 0.2604 0.9896
vt 0.01042 0.7396
vt 0.9913 0.2604
vt 0.5 1
vt 0.08333 0.9167
vt 0.7396 0.01042
vt 0.01042 0.7396
vt 0 0.5
vt 0.4896 -1.192e-07
vt 0.01042 0.7396
vt 0.7396 0.01042
vt 1 0.5
vt 0.08333 0.9167
vt 0.01042 0.7396
vt 0.01042 0.7396
vt 0.4896 -1.192e-07
vt 1 0.5
vt 0.08333 0.9167
vt 0.7396 0.01042
vt 0.01042 0.7396
vt 1 0.2604
vt 0.01042 0.7396
vt 0.08333 0.9167
vt 0.7396 0.01042
vt 1 0.5
vt 0.5 -1.192e-07
vt 0.08333 0.9167
vt 0.9913 0.2604
vt 0.01042 0.7396
vt 0.01042 0.7396
vt 1 0.5
vt 0 0.5
vt 0.5104 -1.192e-07
vt 0.08333 0.9167
vt 0.7413 0.008681
vt 0.5 -1.192e-07
vt 0 0.5
vt 0.2604 0.9896
vt 0.08333 0.07639
vt 0.08333 0.07639
vt 0.5 1
vt 0.08333 0.9167
vt 0.2604 0.9896
vt 1 0.08333
vt 0 0.5
vt 0.01042 0.7396
vt 0.5 1
vt 0 0.5
vt 0.7396 0.01042
vt 0 0.5
vt 0.2604 0.9896
vt 0.9236 0.08333
vt 0.01042 0.7396
vt 0.01042 0.7396
vt 0.2604 0.9896
vt 0.9236 0.08333
vt 0.01042 0.7396
vt 0.5 1
vt 0.01042 0.7396
vt 0.08333 0.08333
vt 0.9167 0.08333
vt 0.08333 0.08333
vt 0.7396 0.01042
vt 0.008681 0.2517
vt 0.2622 0.00868
vt 0.01042 0.2604
vt 0.5104 -1.192e-07
vt 0.01042 0.2604
vt 0.08333 0.07639
vt 0 0.5
vt 0.5833 -2.384e-07
vt 0.01042 0.2587
vt 0.2674 0.01042
vt 0 0.5
vt 0.2674 0.01042
vt 0 0.5
vt 0.08333 0.08333
vt 0.01042 0.2587
vt 0.2622 0.00868
vt 0 0.5
vt 0.2604 -1.192e-07
vt 0.01042 0.2604
vt 0.2622 0.00868
vt 0.08333 0.9167
vt 0.08333 -1.192e-07
vt 0.008681 0.2517
vt 0.2604 -1.192e-07
vt 0.01042 0.2604
vt 0.2604 0.9896
vt 0.01042 0.2587
vt 0.01042 0.2604
vt 0.2604 0.9896
vt 0.08333 0.07639
vt 0 0.5
vt 0.2622 0.00868
vt 0.08333 0.9167
vt 0.08333 0.08333
vt 0.01042 0.2587
vt 0 0.5
vt 0.2604 0.9896
vt 0.01042 0.2604
vt 0.08333 -1.192e-07
vt 0.08333 0.9167
vt 0.01042 0.2604
vt 0.01042 0.2604
vt 0.08333 0.9167
vt 0.08333 0.08333
vt 0 0.5
vt 0.08333 0.08333
vt 0.01042 0.2604
vt 0 0.5
vt 0.01042 0.2604
vt 0.01042 0.2604
vt 0.08333 0.08333
vt 0.01042 0.2604
vt 0 0.5
vt 0.08333 0.08333
vt 0 0.5
vt 0.01042 0.2604
vt 0.01042 0.2604
vt 0.9167 0.9167
vt 0.9167 0.9167
vt 0.5 1
vt 0.01042 0.2604
vt 0.9896 0.7378
vt 0.5833 -3.576e-07
vt 0.08333 0.08333
vt 0.7396 0.9896
vt 0.5 1
vt 0.5069 0
vt 0.9896 0.7326
vt 0 0.5
vt 0.9896 0.2604
vt 0.7396 0.9896
vt 0.7413 0.01042
vt 0.9896 0.7326
vt 0.9896 0.2587
vt 0.7396 0.9896
vt 0.75 0.01042
vt 0.9896 0.7378
vt 0.01042 0.2604
vt 0.7396 0.9896
vt 0.9167 0.9167
vt 0.75 0.01042
vt 1 0.4931
vt 0.9167 0.08333
vt 0.7413 0.01042
vt 1 0.4167
vt 0.9167 0.9167
vt 0.9167 0.08333
vt 0.9896 0.7378
vt 0.9167 0.08333
vt 0.9167 0.08333
vt 0.9896 0.7396
vt 0.9167 0.9167
vt 0.08333 0.08333
vt 1 0.5
vt 0.08333 0.9167
vt 0.2604 0.9896
vt 0.9167 0.9167
vt 0.08333 0.08333
vt 1 0.4931
vt 0.9896 0.2604
vt 0.9167 0.9167
vt 0.9896 0.7326
vt 0.2622 0.01042
vt 0.9167 0.9167
vt 0.9896 0.2587
vt 0.2604 0.9896
vt 0.9896 0.7361
vt 0.2674 0.01042
vt 0.9167 0.9167
vt 1 0.5
vt 0.9167 0.9167
vt 0.9896 0.7326
vt 0.2674 0.01042
vt 0.9896 0.7396
vt 0.08333 0.9167
vt 0.9896 0.7361
vt 0.2622 0.01042
vt 0.9896 0.7378
vt 1 0.4931
vt 0.5069 0
vt 0.08333 0.9167
vt 0.08392 0.9161
vt 0.5833 0
vt 0.2604 0.01042
vt 0.9167 0.9167
vt 0.2608 0.989
vt 0.9167 0.08333
vt 0.08333 0.9167
vt 0.9896 0.7361
vt 0.9236 0.08333
vt 0.9896 0.7326
vt 0.5 -1.192e-07
vt 0.7396 0.9896
vt 0.2604 0.9896
vt 0.2604 0.9896
vt 1 0.2604
vt 1 0.4167
vt 0.2604 0.01042
vt 0.7396 0.9896
vt 0.2604 0.9896
vt 0.2604 0.9896
vt 0.7413 0.01042
vt 1 0.4167
vt 0.2612 0.01105
vt 0.5002 0.0004414
vt 0.9167 0.9167
vt 0.2608 0.989
vt 0.9167 0.08333
vt 0.2604 0.9896
vt 1 0.4792
vt 0.7396 0.9896
vt 0.5 0.9995
vt 0.2604 0.9896
vt 0.08333 0.08333
vt 0.9167 0.9167
vt 0.5 1
vt 0.9913 0.2604
vt 0.5 1
vt 0.9896 0.7361
vt 0.9167 0.9167
vt 0.2608 0.989
vt 0.5 1
vt 0.2604 0.9896
vt 0.2633 0.985
vt 0.5 1
vt 0.5 0.9958
vt 0.2604 0.9896
vt 0.7396 0.01042
vt 0.5 0.9995
vt 0.7413 0.01042
vt 0.08392 0.9161
vt 0.5 1
vt 0.088 0.912
vt 0.5069 0
vt 0.2633 0.985
vt 0.2608 0.989
vt 0.5 0
vt 0.9167 0.9167
vn 0.9005 -0.3907 0.1907
vn 0.8935 -0.4231 0.1503
vn 0.9875 -0.1491 -0.05112
vn 0.9918 -0.1274 -0.01257
vn 0.9675 0.1613 -0.1949
vn 0.9718 0.1749 -0.1581
vn 0.9702 -0.2048 -0.1291
vn 0.9543 0.1258 -0.2712
vn 0.8628 -0.5005 0.0701
vn -0.1125 0.9702 -0.2144
vn 0.2524 0.9063 -0.3389
vn 0.2758 0.9006 -0.336
vn -0.1042 0.9694 -0.2223
vn 0.3014 0.8907 -0.3403
vn -0.09003 0.9667 -0.2394
vn 0.5928 0.7027 -0.3935
vn 0.6134 0.6896 -0.3849
vn 0.5723 0.7119 -0.407
vn 0.8097 0.4224 -0.4073
vn 0.8165 0.4253 -0.3904
vn 0.8217 0.4266 -0.3778
vn 0.9398 0.09812 -0.3274
vn 0.9384 0.1212 -0.3236
vn 0.9384 0.07633 -0.3368
vn -0.7548 0.6533 0.05866
vn -0.7565 0.6538 0.01666
vn -0.9354 0.3135 0.1635
vn -0.9231 0.3246 0.2062
vn -0.9598 -0.07682 0.2697
vn -0.9452 -0.05713 0.3213
vn -0.9571 0.2756 0.08979
vn -0.9742 -0.1099 0.197
vn -0.7824 0.6193 -0.06623
vn -0.5205 -0.689 0.5042
vn -0.7704 -0.3908 0.5036
vn -0.7947 -0.4104 0.4472
vn -0.5387 -0.7118 0.4507
vn -0.8162 -0.4281 0.3879
vn -0.5559 -0.7301 0.3973
vn -0.9257 -0.04202 0.376
vn -0.9019 -0.02896 0.4309
vn -0.8919 0.3401 0.298
vn -0.9096 0.3315 0.2503
vn -0.7511 0.6535 0.09397
vn -0.7395 0.6607 0.1288
vn 0.1699 -0.935 0.3113
vn -0.192 -0.8795 0.4355
vn -0.2033 -0.8987 0.3884
vn 0.1605 -0.9478 0.2754
vn -0.2093 -0.9153 0.3439
vn 0.1606 -0.958 0.2376
vn 0.7898 -0.6124 -0.03366
vn 0.517 -0.8431 0.1478
vn 0.5111 -0.8501 0.1263
vn 0.7937 -0.6066 -0.04407
vn 0.5109 -0.8541 0.0968
vn 0.7985 -0.5985 -0.06458
vn -0.4645 0.8841 -0.05087
vn -0.4699 0.8798 -0.07089
vn -0.4654 0.8796 -0.09809
vn 0.9426 -0.2619 -0.2071
vn 0.9361 -0.2855 -0.2052
vn 0.9473 -0.2351 -0.2174
vn 0.8873 0.05799 -0.4576
vn 0.6215 -0.2193 -0.752
vn 0.4679 0.1782 -0.8656
vn 0.7695 0.3807 -0.5128
vn 0.1913 0.5275 -0.8278
vn 0.5434 0.658 -0.5213
vn -0.2455 -0.2305 -0.9416
vn -0.444 0.08777 -0.8917
vn -0.08069 -0.5504 -0.8309
vn -0.5742 -0.7423 0.3452
vn -0.2167 -0.9297 0.2977
vn 0.1607 -0.9684 0.1909
vn -0.251 -0.9443 0.2128
vn 0.1168 -0.9883 0.09738
vn -0.6025 -0.7519 0.2674
vn 0.5053 -0.8613 0.05252
vn 0.7925 -0.601 -0.1031
vn 0.443 -0.8956 -0.04108
vn 0.724 -0.6613 -0.196
vn -0.08493 0.9575 -0.2756
vn -0.4597 0.8769 -0.1399
vn -0.4979 0.836 -0.2306
vn -0.1539 0.9161 -0.3701
vn 0.9418 -0.2257 -0.2491
vn 0.9294 0.1293 -0.3455
vn 0.8847 -0.3082 -0.3496
vn 0.6183 0.6744 -0.4035
vn 0.3086 0.8772 -0.3678
vn 0.2167 0.8538 -0.4732
vn 0.8175 0.4203 -0.3936
vn -0.8335 -0.4429 0.3303
vn -0.8508 -0.4594 0.2551
vn -0.6666 0.3489 -0.6587
vn -0.7357 -0.4612 -0.4959
vn -0.61 -0.4947 -0.6189
vn -0.7518 0.3235 -0.5745
vn -0.5319 -0.4865 -0.6931
vn -0.8757 0.1961 -0.4412
vn 0.1537 -0.9715 -0.1804
vn 0.436 -0.8123 -0.3873
vn -0.1841 -0.9829 0.0009461
vn -0.9831 -0.1771 0.04614
vn -0.869 -0.4835 0.105
vn -0.6527 -0.7502 0.1059
vn -0.8562 -0.4986 -0.1354
vn -0.697 -0.7031 -0.1409
vn -0.9437 -0.2721 -0.1879
vn -0.8478 0.4742 -0.2372
vn -0.9841 0.1635 -0.06903
vn -0.9555 -0.02753 -0.2937
vn -0.3477 -0.9369 0.03519
vn -0.03204 -0.9956 -0.08792
vn -0.4759 -0.8549 -0.2064
vn -0.2495 -0.9175 -0.3095
vn 0.2382 -0.9454 -0.2222
vn 0.4705 -0.7991 -0.3742
vn -0.08139 -0.9062 -0.415
vn 0.004273 -0.8577 -0.5141
vn -0.3848 0.742 -0.549
vn -0.6263 0.6648 -0.4072
vn 0.6173 -0.5514 -0.5611
vn 0.007141 -0.7583 -0.6519
vn -0.1105 0.7137 -0.6916
vn -0.5889 0.2846 -0.7564
vn -0.2649 -0.9232 -0.2783
vn -0.5831 -0.7499 -0.3125
vn -0.5528 -0.3778 -0.7427
vn -0.1558 -0.8339 -0.5294
vn 0.231 -0.7649 -0.6012
vn 0.1701 -0.5515 -0.8166
vn 0.3877 -0.2341 -0.8915
vn 0.1031 -0.03201 -0.9941
vn 0.0654 0.3195 -0.9453
vn -0.326 0.302 -0.8958
vn -0.4838 0.4871 -0.7271
vn -0.7412 0.2102 -0.6375
vn -0.8939 0.2025 -0.3999
vn -0.9133 -0.1557 -0.3762
vn -0.9486 -0.2878 -0.1317
vn -0.8345 -0.4859 -0.2597
vn -0.7339 -0.6728 -0.09293
vn -0.7264 -0.483 -0.4889
vn -0.7379 -0.5533 -0.3864
vn -0.7656 -0.5403 -0.3492
vn -0.9995 0.01889 0.02545
vn -0.9594 -0.2474 0.1354
vn -0.9215 0.359 -0.1481
vn -0.8334 -0.4208 -0.3583
vn -0.8196 -0.4129 -0.3971
vn -0.503 -0.8555 0.1231
vn -0.7262 -0.6634 0.1805
vn -0.8069 -0.4803 -0.3437
vn -0.8682 -0.4604 0.1849
vn -0.421 -0.423 -0.8023
vn -0.4372 -0.3262 -0.8381
vn -0.5176 -0.2669 -0.8129
vn 0.5773 0.2558 -0.7754
vn 0.3 0.5595 -0.7726
vn 0.6962 -0.1198 -0.7077
vn -0.4667 -0.4794 -0.7432
vn 0.6423 -0.5072 -0.5747
vn -0.5851 -0.2568 -0.7692
vn -0.6388 -0.2796 -0.7168
vn -0.06403 0.7348 -0.6752
vn -0.4071 0.7531 -0.5168
vn -0.6966 -0.3527 -0.6248
vn -0.6942 0.6344 -0.3398
vn -0.07917 -0.996 0.03986
vn -0.4169 -0.8967 0.1485
vn -0.6913 -0.6937 0.202
vn -0.3193 0.8307 -0.456
vn 0.06156 0.81 -0.5832
vn 0.4133 0.635 -0.6526
vn -0.9685 -0.1998 0.1482
vn -0.9925 0.1175 0.03446
vn -0.8869 0.4443 -0.1266
vn 0.8152 -0.04721 -0.5772
vn 0.7843 -0.4236 -0.4531
vn 0.5873 -0.7565 -0.2877
vn 0.2976 -0.947 -0.1206
vn 0.69 0.3306 -0.6439
vn -0.6287 0.7139 -0.3083
vn -0.8652 -0.4607 0.198
vn 0.7877 -0.615 -0.03455
vn 0.788 -0.6148 -0.03101
vn 0.9306 -0.3013 -0.2076
vn 0.9267 -0.3078 -0.2156
vn 0.9364 0.06067 -0.3455
vn 0.9336 0.05405 -0.3541
vn -0.7099 0.6807 0.1808
vn -0.4463 0.8944 -0.02997
vn -0.4553 0.8895 -0.03861
vn -0.7255 0.6702 0.1563
vn -0.1154 0.9702 -0.2128
vn -0.1151 0.9696 -0.216
vn 0.5327 -0.8293 0.1687
vn 0.5251 -0.8357 0.1606
vn 0.1826 -0.9229 0.3389
vn 0.1968 -0.9108 0.3628
vn -0.1589 -0.8447 0.511
vn -0.178 -0.8621 0.4744
vn -0.5026 -0.6687 0.5479
vn -0.479 -0.6482 0.5919
vn -0.8538 0.0002136 0.5205
vn -0.8525 0.3638 0.3754
vn -0.8738 0.3497 0.3377
vn -0.8795 -0.01688 0.4756
vn -0.7216 -0.3533 0.5953
vn -0.748 -0.3733 0.5487
vn 0.5496 0.7178 -0.4275
vn 0.8006 0.4177 -0.4295
vn 0.8043 0.4197 -0.4205
vn 0.557 0.7175 -0.4183
vn 0.229 0.9074 -0.3523
vn 0.2362 0.9087 -0.3441
vn -0.08512 0.973 -0.2145
vn 0.2534 0.8979 -0.36
vn 0.2333 0.9021 -0.363
vn -0.1076 0.9695 -0.2204
vn 0.5509 0.7117 -0.4358
vn 0.5622 0.7051 -0.4321
vn 0.7991 0.418 -0.432
vn 0.7978 0.4162 -0.436
vn 0.9296 0.0578 -0.3641
vn 0.929 0.07239 -0.3628
vn -0.4261 -0.6135 0.6648
vn -0.6695 -0.3151 0.6726
vn -0.6857 -0.3266 0.6504
vn -0.4445 -0.6233 0.6434
vn -0.8194 0.0264 0.5726
vn -0.8034 0.04089 0.594
vn -0.8042 0.4031 0.4368
vn -0.822 0.3865 0.4181
vn -0.6862 0.6968 0.2087
vn -0.6653 0.7123 0.2235
vn 0.2411 -0.8822 0.4045
vn -0.1079 -0.8134 0.5716
vn -0.1288 -0.8234 0.5527
vn 0.2191 -0.8945 0.3896
vn 0.806 -0.5907 -0.03656
vn 0.5643 -0.8039 0.188
vn 0.545 -0.8193 0.1781
vn 0.7917 -0.6095 -0.0405
vn -0.4093 0.9123 -0.00885
vn -0.4315 0.9019 -0.01944
vn 0.9253 -0.3028 -0.2282
vn 0.9318 -0.2821 -0.2282
vn -0.3744 0.7964 0.4748
vn -0.1621 0.9568 0.2411
vn -0.2035 0.9591 0.1967
vn -0.4298 0.7934 0.431
vn -0.3027 0.9472 0.1056
vn -0.5523 0.7624 0.3372
vn 0.07984 0.9967 -0.01382
vn 0.007691 0.9948 -0.1016
vn 0.1077 0.9937 0.02924
vn 0.7057 -0.5706 0.4198
vn 0.6914 -0.6147 0.3795
vn 0.6387 -0.7098 0.297
vn 0.4096 -0.6866 0.6006
vn 0.3301 -0.7915 0.5143
vn 0.4359 -0.6334 0.6393
vn 0.1361 -0.568 0.8117
vn 0.09445 -0.6241 0.7756
vn -0.009613 -0.7297 0.6837
vn -0.2014 -0.4353 0.8774
vn -0.324 -0.5355 0.7799
vn -0.1451 -0.3833 0.9121
vn -0.4858 0.214 0.8475
vn -0.4901 0.5342 0.6887
vn -0.5561 0.5206 0.6478
vn -0.5562 0.1866 0.8098
vn -0.692 0.4664 0.5509
vn -0.6954 0.1118 0.7099
vn -0.3643 -0.1092 0.9248
vn -0.431 -0.1506 0.8897
vn -0.5652 -0.2406 0.7891
vn 0.6487 0.7284 -0.2204
vn 0.8507 0.4725 -0.2302
vn 0.8444 0.4647 -0.2663
vn 0.6384 0.7252 -0.2579
vn 0.8272 0.4455 -0.3425
vn 0.6098 0.7175 -0.3368
vn 0.3909 0.911 -0.1316
vn 0.3735 0.9116 -0.1717
vn 0.3263 0.9102 -0.2549
vn 0.8287 -0.5597 -0.002411
vn 0.9477 -0.2513 -0.1968
vn 0.9376 0.09424 -0.3346
vn -0.3775 0.9257 0.02478
vn -0.6379 0.7274 0.2527
vn -0.05158 0.9825 -0.1786
vn 0.5893 -0.7772 0.2207
vn 0.2651 -0.8613 0.4333
vn -0.08683 -0.7977 0.5967
vn -0.4082 -0.6008 0.6873
vn -0.7823 0.4179 0.4619
vn -0.7855 0.05411 0.6164
vn -0.653 -0.303 0.6941
vn 0.8086 0.4271 -0.4045
vn 0.5815 0.7072 -0.402
vn 0.2833 0.9019 -0.3261
f 1/1/1 2/2/2 3/3/3
f 1/1/1 3/3/3 4/4/4
f 4/4/4 3/3/3 5/5/5
f 4/4/4 5/5/5 6/6/6
f 3/3/3 7/7/7 8/8/8
f 3/3/3 8/8/8 5/5/5
f 2/2/2 9/9/9 7/7/7
f 2/2/2 7/7/7 3/3/3
f 10/10/10 11/11/11 12/12/12
f 10/10/10 12/12/12 13/13/13
f 13/13/13 12/12/12 14/14/14
f 13/13/13 14/14/14 15/15/15
f 12/12/12 16/16/16 17/17/17
f 12/12/12 17/17/17 14/14/14
f 11/11/11 18/18/18 16/16/16
f 11/11/11 16/16/16 12/12/12
f 18/18/18 19/19/19 20/20/20
f 18/18/18 20/20/20 16/16/16
f 16/16/16 20/20/20 21/21/21
f 16/16/16 21/21/21 17/17/17
f 20/20/20 22/22/22 23/23/23
f 20/20/20 23/23/23 21/21/21
f 19/19/19 24/24/24 22/22/22
f 19/19/19 22/22/22 20/20/20
f 25/25/25 26/26/26 27/27/27
f 25/25/25 27/27/27 28/28/28
f 28/28/28 27/27/27 29/29/29
f 28/28/28 29/29/29 30/30/30
f 27/27/27 31/31/31 32/32/32
f 27/27/27 32/32/32 29/29/29
f 26/26/26 33/33/33 31/31/31
f 26/26/26 31/31/31 27/27/27
f 34/34/34 35/35/35 36/36/36
f 34/34/34 36/36/36 37/37/37
f 37/37/37 36/36/36 38/38/38
f 37/37/37 38/38/38 39/39/39
f 36/36/36 40/40/40 30/30/30
f 36/36/36 30/30/30 38/38/38
f 35/35/35 41/41/41 40/40/40
f 35/35/35 40/40/40 36/36/36
f 41/41/41 42/42/42 43/43/43
f 41/41/41 43/43/43 40/40/40
f 40/40/40 43/43/43 28/28/28
f 40/40/40 28/28/28 30/30/30
f 43/43/43 44/44/44 25/25/25
f 43/43/43 25/25/25 28/28/28
f 42/42/42 45/45/45 44/44/44
f 42/42/42 44/44/44 43/43/43
f 46/46/46 47/47/47 48/48/48
f 46/46/46 48/48/48 49/49/49
f 49/49/49 48/48/48 50/50/50
f 49/49/49 50/50/50 51/51/51
f 48/48/48 37/37/37 39/39/39
f 48/48/48 39/39/39 50/50/50
f 47/47/47 34/34/34 37/37/37
f 47/47/47 37/37/37 48/48/48
f 52/52/52 53/53/53 54/54/54
f 52/52/52 54/54/54 55/55/55
f 55/55/55 54/54/54 56/56/56
f 55/55/55 56/56/56 57/57/57
f 54/54/54 49/49/49 51/51/51
f 54/54/54 51/51/51 56/56/56
f 53/53/53 46/46/46 49/49/49
f 53/53/53 49/49/49 54/54/54
f 45/45/45 58/58/58 59/59/59
f 45/45/45 59/59/59 44/44/44
f 44/44/44 59/59/59 60/60/60
f 44/44/44 60/60/60 25/25/25
f 59/59/59 13/13/13 15/15/15
f 59/59/59 15/15/15 60/60/60
f 58/58/58 10/10/10 13/13/13
f 58/58/58 13/13/13 59/59/59
f 52/52/52 55/55/55 61/61/61
f 52/52/52 61/61/61 62/62/62
f 62/62/62 61/61/61 22/22/22
f 62/62/62 22/22/22 24/24/24
f 61/61/61 63/63/63 23/23/23
f 61/61/61 23/23/23 22/22/22
f 55/55/55 57/57/57 63/63/63
f 55/55/55 63/63/63 61/61/61
f 64/64/64 65/65/65 66/66/66
f 64/64/64 66/66/66 67/67/67
f 67/67/67 66/66/66 68/68/68
f 67/67/67 68/68/68 69/69/69
f 66/66/66 70/70/70 71/71/71
f 66/66/66 71/71/71 68/68/68
f 65/65/65 72/72/72 70/70/70
f 65/65/65 70/70/70 66/66/66
f 39/39/39 73/73/73 74/74/74
f 39/39/39 74/74/74 50/50/50
f 50/50/50 74/74/74 75/75/75
f 50/50/50 75/75/75 51/51/51
f 74/74/74 76/76/76 77/77/77
f 74/74/74 77/77/77 75/75/75
f 73/73/73 78/78/78 76/76/76
f 73/73/73 76/76/76 74/74/74
f 51/51/51 75/75/75 79/79/79
f 51/51/51 79/79/79 56/56/56
f 56/56/56 79/79/79 80/80/80
f 56/56/56 80/80/80 57/57/57
f 79/79/79 81/81/81 82/82/82
f 79/79/79 82/82/82 80/80/80
f 75/75/75 77/77/77 81/81/81
f 75/75/75 81/81/81 79/79/79
f 15/15/15 83/83/83 84/84/84
f 15/15/15 84/84/84 60/60/60
f 60/60/60 84/84/84 26/26/26
f 60/60/60 26/26/26 25/25/25
f 84/84/84 85/85/85 33/33/33
f 84/84/84 33/33/33 26/26/26
f 83/83/83 86/86/86 85/85/85
f 83/83/83 85/85/85 84/84/84
f 57/57/57 80/80/80 87/87/87
f 57/57/57 87/87/87 63/63/63
f 63/63/63 87/87/87 88/88/88
f 63/63/63 88/88/88 23/23/23
f 87/87/87 89/89/89 64/64/64
f 87/87/87 64/64/64 88/88/88
f 80/80/80 82/82/82 89/89/89
f 80/80/80 89/89/89 87/87/87
f 17/17/17 90/90/90 91/91/91
f 17/17/17 91/91/91 14/14/14
f 14/14/14 91/91/91 83/83/83
f 14/14/14 83/83/83 15/15/15
f 91/91/91 92/92/92 86/86/86
f 91/91/91 86/86/86 83/83/83
f 90/90/90 69/69/69 92/92/92
f 90/90/90 92/92/92 91/91/91
f 23/23/23 88/88/88 93/93/93
f 23/23/23 93/93/93 21/21/21
f 21/21/21 93/93/93 90/90/90
f 21/21/21 90/90/90 17/17/17
f 93/93/93 67/67/67 69/69/69
f 93/93/93 69/69/69 90/90/90
f 88/88/88 64/64/64 67/67/67
f 88/88/88 67/67/67 93/93/93
f 30/30/30 29/29/29 94/94/94
f 30/30/30 94/94/94 38/38/38
f 38/38/38 94/94/94 73/73/73
f 38/38/38 73/73/73 39/39/39
f 94/94/94 95/95/95 78/78/78
f 94/94/94 78/78/78 73/73/73
f 29/29/29 32/32/32 95/95/95
f 29/29/29 95/95/95 94/94/94
f 96/96/96 97/97/97 98/98/98
f 96/96/96 98/98/98 99/99/99
f 99/99/99 98/98/98 100/100/100
f 99/99/99 100/100/100 101/101/101
f 98/98/98 102/102/102 103/103/103
f 98/98/98 103/103/103 100/100/100
f 97/97/97 104/104/104 102/102/102
f 97/97/97 102/102/102 98/98/98
f 32/32/32 105/105/105 106/106/106
f 32/32/32 106/106/106 95/95/95
f 95/95/95 106/106/106 107/107/107
f 95/95/95 107/107/107 78/78/78
f 106/106/106 108/108/108 109/109/109
f 106/106/106 109/109/109 107/107/107
f 105/105/105 110/110/110 108/108/108
f 105/105/105 108/108/108 106/106/106
f 33/33/33 111/111/111 112/112/112
f 33/33/33 112/112/112 31/31/31
f 31/31/31 112/112/112 105/105/105
f 31/31/31 105/105/105 32/32/32
f 112/112/112 113/113/113 110/110/110
f 112/112/112 110/110/110 105/105/105
f 111/111/111 101/101/101 113/113/113
f 111/111/111 113/113/113 112/112/112
f 78/78/78 107/107/107 114/114/114
f 78/78/78 114/114/114 76/76/76
f 76/76/76 114/114/114 115/115/115
f 76/76/76 115/115/115 77/77/77
f 114/114/114 116/116/116 117/117/117
f 114/114/114 117/117/117 115/115/115
f 107/107/107 109/109/109 116/116/116
f 107/107/107 116/116/116 114/114/114
f 77/77/77 115/115/115 118/118/118
f 77/77/77 118/118/118 81/81/81
f 81/81/81 118/118/118 119/119/119
f 81/81/81 119/119/119 82/82/82
f 118/118/118 120/120/120 121/121/121
f 118/118/118 121/121/121 119/119/119
f 115/115/115 117/117/117 120/120/120
f 115/115/115 120/120/120 118/118/118
f 86/86/86 122/122/122 123/123/123
f 86/86/86 123/123/123 85/85/85
f 85/85/85 123/123/123 111/111/111
f 85/85/85 111/111/111 33/33/33
f 123/123/123 99/99/99 101/101/101
f 123/123/123 101/101/101 111/111/111
f 122/122/122 96/96/96 99/99/99
f 122/122/122 99/99/99 123/123/123
f 82/82/82 119/119/119 124/124/124
f 82/82/82 124/124/124 89/89/89
f 89/89/89 124/124/124 65/65/65
f 89/89/89 65/65/65 64/64/64
f 124/124/124 125/125/125 72/72/72
f 124/124/124 72/72/72 65/65/65
f 119/119/119 121/121/121 125/125/125
f 119/119/119 125/125/125 124/124/124
f 69/69/69 68/68/68 126/126/126
f 69/69/69 126/126/126 92/92/92
f 92/92/92 126/126/126 122/122/122
f 92/92/92 122/122/122 86/86/86
f 126/126/126 127/127/127 96/96/96
f 126/126/126 96/96/96 122/122/122
f 68/68/68 71/71/71 127/127/127
f 68/68/68 127/127/127 126/126/126
f 128/128/128 129/129/129 130/130/130
f 128/128/128 130/130/130 131/131/131
f 132/132/132 131/131/131 130/130/130
f 132/132/132 130/130/130 133/133/133
f 134/134/134 133/133/133 130/130/130
f 134/134/134 130/130/130 135/135/135
f 136/136/136 135/135/135 130/130/130
f 136/136/136 130/130/130 137/137/137
f 138/138/138 137/137/137 130/130/130
f 138/138/138 130/130/130 139/139/139
f 140/140/140 139/139/139 130/130/130
f 140/140/140 130/130/130 141/141/141
f 142/142/142 141/141/141 130/130/130
f 142/142/142 130/130/130 143/143/143
f 144/144/144 143/143/143 130/130/130
f 144/144/144 130/130/130 129/129/129
f 121/121/121 145/145/145 146/146/146
f 121/121/121 146/146/146 125/125/125
f 125/125/125 146/146/146 147/147/147
f 125/125/125 147/147/147 72/72/72
f 146/146/146 148/148/148 149/149/149
f 146/146/146 149/149/149 147/147/147
f 145/145/145 150/150/150 148/148/148
f 145/145/145 148/148/148 146/146/146
f 71/71/71 151/151/151 152/152/152
f 71/71/71 152/152/152 127/127/127
f 127/127/127 152/152/152 97/97/97
f 127/127/127 97/97/97 96/96/96
f 152/152/152 153/153/153 104/104/104
f 152/152/152 104/104/104 97/97/97
f 151/151/151 154/154/154 153/153/153
f 151/151/151 153/153/153 152/152/152
f 72/72/72 147/147/147 155/155/155
f 72/72/72 155/155/155 70/70/70
f 70/70/70 155/155/155 151/151/151
f 70/70/70 151/151/151 71/71/71
f 155/155/155 156/156/156 154/154/154
f 155/155/155 154/154/154 151/151/151
f 147/147/147 149/149/149 156/156/156
f 147/147/147 156/156/156 155/155/155
f 110/110/110 157/157/157 158/158/158
f 110/110/110 158/158/158 108/108/108
f 108/108/108 158/158/158 159/159/159
f 108/108/108 159/159/159 109/109/109
f 158/158/158 160/160/160 161/161/161
f 158/158/158 161/161/161 159/159/159
f 157/157/157 162/162/162 160/160/160
f 157/157/157 160/160/160 158/158/158
f 101/101/101 100/100/100 163/163/163
f 101/101/101 163/163/163 113/113/113
f 113/113/113 163/163/163 157/157/157
f 113/113/113 157/157/157 110/110/110
f 163/163/163 164/164/164 162/162/162
f 163/163/163 162/162/162 157/157/157
f 100/100/100 103/103/103 164/164/164
f 100/100/100 164/164/164 163/163/163
f 109/109/109 159/159/159 165/165/165
f 109/109/109 165/165/165 116/116/116
f 116/116/116 165/165/165 166/166/166
f 116/116/116 166/166/166 117/117/117
f 165/165/165 167/167/167 168/168/168
f 165/165/165 168/168/168 166/166/166
f 159/159/159 161/161/161 167/167/167
f 159/159/159 167/167/167 165/165/165
f 117/117/117 166/166/166 169/169/169
f 117/117/117 169/169/169 120/120/120
f 120/120/120 169/169/169 145/145/145
f 120/120/120 145/145/145 121/121/121
f 169/169/169 170/170/170 150/150/150
f 169/169/169 150/150/150 145/145/145
f 166/166/166 168/168/168 170/170/170
f 166/166/166 170/170/170 169/169/169
f 128/128/128 171/171/171 172/172/172
f 128/128/128 172/172/172 129/129/129
f 129/129/129 172/172/172 173/173/173
f 129/129/129 173/173/173 144/144/144
f 172/172/172 153/153/153 154/154/154
f 172/172/172 154/154/154 173/173/173
f 171/171/171 104/104/104 153/153/153
f 171/171/171 153/153/153 172/172/172
f 138/138/138 174/174/174 175/175/175
f 138/138/138 175/175/175 137/137/137
f 137/137/137 175/175/175 176/176/176
f 137/137/137 176/176/176 136/136/136
f 175/175/175 167/167/167 161/161/161
f 175/175/175 161/161/161 176/176/176
f 174/174/174 168/168/168 167/167/167
f 174/174/174 167/167/167 175/175/175
f 142/142/142 177/177/177 178/178/178
f 142/142/142 178/178/178 141/141/141
f 141/141/141 178/178/178 179/179/179
f 141/141/141 179/179/179 140/140/140
f 178/178/178 148/148/148 150/150/150
f 178/178/178 150/150/150 179/179/179
f 177/177/177 149/149/149 148/148/148
f 177/177/177 148/148/148 178/178/178
f 134/134/134 180/180/180 181/181/181
f 134/134/134 181/181/181 133/133/133
f 133/133/133 181/181/181 182/182/182
f 133/133/133 182/182/182 132/132/132
f 181/181/181 164/164/164 103/103/103
f 181/181/181 103/103/103 182/182/182
f 180/180/180 162/162/162 164/164/164
f 180/180/180 164/164/164 181/181/181
f 132/132/132 182/182/182 183/183/183
f 132/132/132 183/183/183 131/131/131
f 131/131/131 183/183/183 171/171/171
f 131/131/131 171/171/171 128/128/128
f 183/183/183 102/102/102 104/104/104
f 183/183/183 104/104/104 171/171/171
f 182/182/182 103/103/103 102/102/102
f 182/182/182 102/102/102 183/183/183
f 136/136/136 176/176/176 184/184/184
f 136/136/136 184/184/184 135/135/135
f 135/135/135 184/184/184 180/180/180
f 135/135/135 180/180/180 134/134/134
f 184/184/184 160/160/160 162/162/162
f 184/184/184 162/162/162 180/180/180
f 176/176/176 161/161/161 160/160/160
f 176/176/176 160/160/160 184/184/184
f 140/140/140 179/179/179 185/185/185
f 140/140/140 185/185/185 139/139/139
f 139/139/139 185/185/185 174/174/174
f 139/139/139 174/174/174 138/138/138
f 185/185/185 170/170/170 168/168/168
f 185/185/185 168/168/168 174/174/174
f 179/179/179 150/150/150 170/170/170
f 179/179/179 170/170/170 185/185/185
f 144/144/144 173/173/173 186/186/186
f 144/144/144 186/186/186 143/143/143
f 143/143/143 186/186/186 177/177/177
f 143/143/143 177/177/177 142/142/142
f 186/186/186 156/156/156 149/149/149
f 186/186/186 149/149/149 177/177/177
f 173/173/173 154/154/154 156/156/156
f 173/173/173 156/156/156 186/186/186
f 187/187/187 188/188/188 189/189/189
f 187/187/187 189/189/189 190/190/190
f 190/190/190 189/189/189 191/191/191
f 190/190/190 191/191/191 192/192/192
f 189/189/189 62/62/62 24/24/24
f 189/189/189 24/24/24 191/191/191
f 188/188/188 52/52/52 62/62/62
f 188/188/188 62/62/62 189/189/189
f 193/193/193 194/194/194 195/195/195
f 193/193/193 195/195/195 196/196/196
f 196/196/196 195/195/195 58/58/58
f 196/196/196 58/58/58 45/45/45
f 195/195/195 197/197/197 10/10/10
f 195/195/195 10/10/10 58/58/58
f 194/194/194 198/198/198 197/197/197
f 194/194/194 197/197/197 195/195/195
f 187/187/187 199/199/199 200/200/200
f 187/187/187 200/200/200 188/188/188
f 188/188/188 200/200/200 53/53/53
f 188/188/188 53/53/53 52/52/52
f 200/200/200 201/201/201 46/46/46
f 200/200/200 46/46/46 53/53/53
f 199/199/199 202/202/202 201/201/201
f 199/199/199 201/201/201 200/200/200
f 202/202/202 203/203/203 204/204/204
f 202/202/202 204/204/204 201/201/201
f 201/201/201 204/204/204 47/47/47
f 201/201/201 47/47/47 46/46/46
f 204/204/204 205/205/205 34/34/34
f 204/204/204 34/34/34 47/47/47
f 203/203/203 206/206/206 205/205/205
f 203/203/203 205/205/205 204/204/204
f 207/207/207 208/208/208 209/209/209
f 207/207/207 209/209/209 210/210/210
f 210/210/210 209/209/209 42/42/42
f 210/210/210 42/42/42 41/41/41
f 209/209/209 196/196/196 45/45/45
f 209/209/209 45/45/45 42/42/42
f 208/208/208 193/193/193 196/196/196
f 208/208/208 196/196/196 209/209/209
f 206/206/206 211/211/211 212/212/212
f 206/206/206 212/212/212 205/205/205
f 205/205/205 212/212/212 35/35/35
f 205/205/205 35/35/35 34/34/34
f 212/212/212 210/210/210 41/41/41
f 212/212/212 41/41/41 35/35/35
f 211/211/211 207/207/207 210/210/210
f 211/211/211 210/210/210 212/212/212
f 213/213/213 214/214/214 215/215/215
f 213/213/213 215/215/215 216/216/216
f 216/216/216 215/215/215 19/19/19
f 216/216/216 19/19/19 18/18/18
f 215/215/215 191/191/191 24/24/24
f 215/215/215 24/24/24 19/19/19
f 214/214/214 192/192/192 191/191/191
f 214/214/214 191/191/191 215/215/215
f 198/198/198 217/217/217 218/218/218
f 198/198/198 218/218/218 197/197/197
f 197/197/197 218/218/218 11/11/11
f 197/197/197 11/11/11 10/10/10
f 218/218/218 216/216/216 18/18/18
f 218/218/218 18/18/18 11/11/11
f 217/217/217 213/213/213 216/216/216
f 217/217/217 216/216/216 218/218/218
f 219/219/219 220/220/220 221/221/221
f 219/219/219 221/221/221 222/222/222
f 222/222/222 221/221/221 217/217/217
f 222/222/222 217/217/217 198/198/198
f 221/221/221 223/223/223 213/213/213
f 221/221/221 213/213/213 217/217/217
f 220/220/220 224/224/224 223/223/223
f 220/220/220 223/223/223 221/221/221
f 224/224/224 225/225/225 226/226/226
f 224/224/224 226/226/226 223/223/223
f 223/223/223 226/226/226 214/214/214
f 223/223/223 214/214/214 213/213/213
f 226/226/226 227/227/227 192/192/192
f 226/226/226 192/192/192 214/214/214
f 225/225/225 228/228/228 227/227/227
f 225/225/225 227/227/227 226/226/226
f 229/229/229 230/230/230 231/231/231
f 229/229/229 231/231/231 232/232/232
f 232/232/232 231/231/231 211/211/211
f 232/232/232 211/211/211 206/206/206
f 231/231/231 233/233/233 207/207/207
f 231/231/231 207/207/207 211/211/211
f 230/230/230 234/234/234 233/233/233
f 230/230/230 233/233/233 231/231/231
f 234/234/234 235/235/235 236/236/236
f 234/234/234 236/236/236 233/233/233
f 233/233/233 236/236/236 208/208/208
f 233/233/233 208/208/208 207/207/207
f 236/236/236 237/237/237 193/193/193
f 236/236/236 193/193/193 208/208/208
f 235/235/235 238/238/238 237/237/237
f 235/235/235 237/237/237 236/236/236
f 239/239/239 240/240/240 241/241/241
f 239/239/239 241/241/241 242/242/242
f 242/242/242 241/241/241 203/203/203
f 242/242/242 203/203/203 202/202/202
f 241/241/241 232/232/232 206/206/206
f 241/241/241 206/206/206 203/203/203
f 240/240/240 229/229/229 232/232/232
f 240/240/240 232/232/232 241/241/241
f 243/243/243 244/244/244 245/245/245
f 243/243/243 245/245/245 246/246/246
f 246/246/246 245/245/245 199/199/199
f 246/246/246 199/199/199 187/187/187
f 245/245/245 242/242/242 202/202/202
f 245/245/245 202/202/202 199/199/199
f 244/244/244 239/239/239 242/242/242
f 244/244/244 242/242/242 245/245/245
f 238/238/238 247/247/247 248/248/248
f 238/238/238 248/248/248 237/237/237
f 237/237/237 248/248/248 194/194/194
f 237/237/237 194/194/194 193/193/193
f 248/248/248 222/222/222 198/198/198
f 248/248/248 198/198/198 194/194/194
f 247/247/247 219/219/219 222/222/222
f 247/247/247 222/222/222 248/248/248
f 243/243/243 246/246/246 249/249/249
f 243/243/243 249/249/249 250/250/250
f 250/250/250 249/249/249 227/227/227
f 250/250/250 227/227/227 228/228/228
f 249/249/249 190/190/190 192/192/192
f 249/249/249 192/192/192 227/227/227
f 246/246/246 187/187/187 190/190/190
f 246/246/246 190/190/190 249/249/249
f 251/251/251 252/252/252 253/253/253
f 251/251/251 253/253/253 254/254/254
f 254/254/254 253/253/253 255/255/255
f 254/254/254 255/255/255 256/256/256
f 253/253/253 257/257/257 258/258/258
f 253/253/253 258/258/258 255/255/255
f 252/252/252 259/259/259 257/257/257
f 252/252/252 257/257/257 253/253/253
f 1/1/1 260/260/260 261/261/261
f 1/1/1 261/261/261 2/2/2
f 2/2/2 261/261/261 262/262/262
f 2/2/2 262/262/262 9/9/9
f 261/261/261 263/263/263 264/264/264
f 261/261/261 264/264/264 262/262/262
f 260/260/260 265/265/265 263/263/263
f 260/260/260 263/263/263 261/261/261
f 265/265/265 266/266/266 267/267/267
f 265/265/265 267/267/267 263/263/263
f 263/263/263 267/267/267 268/268/268
f 263/263/263 268/268/268 264/264/264
f 267/267/267 269/269/269 270/270/270
f 267/267/267 270/270/270 268/268/268
f 266/266/266 271/271/271 269/269/269
f 266/266/266 269/269/269 267/267/267
f 272/272/272 273/273/273 274/274/274
f 272/272/272 274/274/274 275/275/275
f 275/275/275 274/274/274 276/276/276
f 275/275/275 276/276/276 277/277/277
f 274/274/274 254/254/254 256/256/256
f 274/274/274 256/256/256 276/276/276
f 273/273/273 251/251/251 254/254/254
f 273/273/273 254/254/254 274/274/274
f 271/271/271 278/278/278 279/279/279
f 271/271/271 279/279/279 269/269/269
f 269/269/269 279/279/279 280/280/280
f 269/269/269 280/280/280 270/270/270
f 279/279/279 275/275/275 277/277/277
f 279/279/279 277/277/277 280/280/280
f 278/278/278 272/272/272 275/275/275
f 278/278/278 275/275/275 279/279/279
f 281/281/281 282/282/282 283/283/283
f 281/281/281 283/283/283 284/284/284
f 284/284/284 283/283/283 285/285/285
f 284/284/284 285/285/285 286/286/286
f 283/283/283 5/5/5 8/8/8
f 283/283/283 8/8/8 285/285/285
f 282/282/282 6/6/6 5/5/5
f 282/282/282 5/5/5 283/283/283
f 259/259/259 287/287/287 288/288/288
f 259/259/259 288/288/288 257/257/257
f 257/257/257 288/288/288 289/289/289
f 257/257/257 289/289/289 258/258/258
f 288/288/288 284/284/284 286/286/286
f 288/288/288 286/286/286 289/289/289
f 287/287/287 281/281/281 284/284/284
f 287/287/287 284/284/284 288/288/288
f 9/9/9 290/290/290 291/291/291
f 9/9/9 291/291/291 7/7/7
f 7/7/7 291/291/291 292/292/292
f 7/7/7 292/292/292 8/8/8
f 291/291/291 250/250/250 228/228/228
f 291/291/291 228/228/228 292/292/292
f 290/290/290 243/243/243 250/250/250
f 290/290/290 250/250/250 291/291/291
f 256/256/256 255/255/255 293/293/293
f 256/256/256 293/293/293 294/294/294
f 294/294/294 293/293/293 247/247/247
f 294/294/294 247/247/247 238/238/238
f 293/293/293 295/295/295 219/219/219
f 293/293/293 219/219/219 247/247/247
f 255/255/255 258/258/258 295/295/295
f 255/255/255 295/295/295 293/293/293
f 9/9/9 262/262/262 296/296/296
f 9/9/9 296/296/296 290/290/290
f 290/290/290 296/296/296 244/244/244
f 290/290/290 244/244/244 243/243/243
f 296/296/296 297/297/297 239/239/239
f 296/296/296 239/239/239 244/244/244
f 262/262/262 264/264/264 297/297/297
f 262/262/262 297/297/297 296/296/296
f 264/264/264 268/268/268 298/298/298
f 264/264/264 298/298/298 297/297/297
f 297/297/297 298/298/298 240/240/240
f 297/297/297 240/240/240 239/239/239
f 298/298/298 299/299/299 229/229/229
f 298/298/298 229/229/229 240/240/240
f 268/268/268 270/270/270 299/299/299
f 268/268/268 299/299/299 298/298/298
f 277/277/277 276/276/276 300/300/300
f 277/277/277 300/300/300 301/301/301
f 301/301/301 300/300/300 235/235/235
f 301/301/301 235/235/235 234/234/234
f 300/300/300 294/294/294 238/238/238
f 300/300/300 238/238/238 235/235/235
f 276/276/276 256/256/256 294/294/294
f 276/276/276 294/294/294 300/300/300
f 270/270/270 280/280/280 302/302/302
f 270/270/270 302/302/302 299/299/299
f 299/299/299 302/302/302 230/230/230
f 299/299/299 230/230/230 229/229/229
f 302/302/302 301/301/301 234/234/234
f 302/302/302 234/234/234 230/230/230
f 280/280/280 277/277/277 301/301/301
f 280/280/280 301/301/301 302/302/302
f 286/286/286 285/285/285 303/303/303
f 286/286/286 303/303/303 304/304/304
f 304/304/304 303/303/303 225/225/225
f 304/304/304 225/225/225 224/224/224
f 303/303/303 292/292/292 228/228/228
f 303/303/303 228/228/228 225/225/225
f 285/285/285 8/8/8 292/292/292
f 285/285/285 292/292/292 303/303/303
f 258/258/258 289/289/289 305/305/305
f 258/258/258 305/305/305 295/295/295
f 295/295/295 305/305/305 220/220/220
f 295/295/295 220/220/220 219/219/219
f 305/305/305 304/304/304 224/224/224
f 305/305/305 224/224/224 220/220/220
f 289/289/289 286/286/286 304/304/304
f 289/289/289 304/304/304 305/305/305
