v -0.879664 0.755495 0.308874
v -0.881933 0.755065 0.30467
v -0.878429 0.756064 0.302845
v -0.876922 0.756292 0.30739
v -0.87516 0.758328 0.301882
v -0.874351 0.758085 0.3066
v -0.88004 0.756379 0.298552
v -0.876278 0.758977 0.297464
v -0.884079 0.755235 0.300622
v -0.884044 0.757263 0.312984
v -0.887577 0.757341 0.309768
v -0.885141 0.755525 0.307104
v -0.882161 0.755847 0.310841
v -0.887785 0.755771 0.303391
v -0.890607 0.757868 0.306426
v -0.886019 0.756379 0.29683
v -0.881803 0.757567 0.294671
v -0.877876 0.760274 0.293533
v -0.883557 0.759114 0.290977
v -0.879577 0.761807 0.289812
v -0.887829 0.757952 0.293154
v -0.892826 0.759132 0.302866
v -0.889884 0.756941 0.299711
v -0.89173 0.758544 0.296023
v -0.894691 0.76076 0.299146
v -0.87263 0.761542 0.301949
v -0.872355 0.760626 0.306644
v -0.871195 0.765205 0.303008
v -0.871217 0.763515 0.307494
v -0.873371 0.762669 0.297546
v -0.871726 0.76688 0.298753
v -0.874845 0.764126 0.293614
v -0.873133 0.768521 0.29487
v -0.876522 0.765664 0.289883
v -0.874824 0.770083 0.291148
v -0.872098 0.768604 0.311032
v -0.871137 0.766313 0.30904
v -0.871104 0.76877 0.304926
v -0.872339 0.771707 0.307396
v -0.871627 0.770987 0.300935
v -0.873054 0.77438 0.303746
v -0.873038 0.772808 0.297144
v -0.874534 0.776349 0.300071
v -0.874778 0.774402 0.293446
v -0.876332 0.777974 0.296387
v -0.876431 0.776168 0.289252
v -0.878139 0.779861 0.29223
v -0.87905 0.77909 0.28224
v -0.880941 0.782981 0.285208
v -0.876367 0.771724 0.286897
v -0.878882 0.774446 0.279865
v -0.881193 0.763308 0.285542
v -0.878052 0.767212 0.285602
v -0.880581 0.769767 0.278548
v -0.883853 0.76576 0.278473
v -0.881235 0.782198 0.295341
v -0.879285 0.78022 0.299524
v -0.885242 0.78287 0.298143
v -0.883165 0.780836 0.30239
v -0.884253 0.785476 0.288259
v -0.888484 0.786248 0.290973
v -0.877445 0.778576 0.303224
v -0.875841 0.776514 0.306776
v -0.881299 0.779181 0.306122
v -0.879538 0.777095 0.309565
v -0.885533 0.778017 0.308309
v -0.883601 0.775979 0.31167
v -0.889495 0.775303 0.309471
v -0.887405 0.773376 0.312788
v -0.887416 0.779678 0.304547
v -0.891386 0.776969 0.305687
v -0.889603 0.781736 0.300235
v -0.89366 0.779016 0.301328
v -0.893059 0.785147 0.292979
v -0.897288 0.782393 0.294006
v -0.896773 0.775087 0.301223
v -0.894449 0.773082 0.305603
v -0.898501 0.770573 0.299968
v -0.896168 0.768639 0.304341
v -0.900508 0.778363 0.293866
v -0.902263 0.773698 0.292612
v -0.892558 0.771416 0.309391
v -0.890346 0.769647 0.31271
v -0.894281 0.766978 0.308118
v -0.892002 0.76539 0.311483
v -0.894357 0.762667 0.305816
v -0.892076 0.761256 0.309266
v -0.896235 0.764316 0.302064
v -0.898535 0.766158 0.297726
v -0.896919 0.762503 0.294863
v -0.90224 0.769102 0.290407
v -0.900492 0.765263 0.287609
v -0.893852 0.760193 0.291797
v -0.889802 0.759522 0.288955
v -0.897232 0.762792 0.284623
v -0.892944 0.762005 0.281846
v -0.908193 0.77885 0.279963
v -0.908094 0.774025 0.277797
v -0.906177 0.769957 0.27507
v -0.915718 0.780715 0.260029
v -0.913612 0.776404 0.257285
v -0.915913 0.785797 0.262221
v -0.902683 0.767294 0.272181
v -0.898147 0.766387 0.269528
v -0.909885 0.773562 0.254409
v -0.90513 0.772569 0.251819
v -0.89321 0.767415 0.267496
v -0.888225 0.763057 0.27967
v -0.888667 0.770183 0.26642
v -0.900034 0.773625 0.249908
v -0.895371 0.776513 0.248952
v -0.885342 0.760628 0.28675
v -0.885276 0.774331 0.266552
v -0.883525 0.779201 0.26785
v -0.891875 0.780838 0.249139
v -0.890039 0.785912 0.250412
v -0.903251 0.784249 0.226818
v -0.89967 0.788782 0.226999
v -0.897726 0.794049 0.228294
v -0.907603 0.796945 0.203799
v -0.905533 0.802293 0.205223
v -0.911164 0.792221 0.203749
v -0.913172 0.779984 0.229809
v -0.90798 0.781166 0.227812
v -0.915794 0.788811 0.205103
v -0.92095 0.787284 0.20757
v -0.892256 0.795259 0.255343
v -0.890193 0.790972 0.252602
v -0.897771 0.799273 0.230538
v -0.899799 0.8037 0.233378
v -0.905301 0.807557 0.207838
v -0.907076 0.812049 0.211179
v -0.88372 0.784058 0.270135
v -0.885732 0.788158 0.272981
v -0.903615 0.806648 0.236408
v -0.895967 0.798093 0.258219
v -0.908615 0.807712 0.239187
v -0.900738 0.799094 0.260809
v -0.910837 0.815123 0.21472
v -0.915969 0.816257 0.217969
v -0.889262 0.790833 0.275914
v -0.893762 0.791729 0.278522
v -0.914058 0.806659 0.241291
v -0.905876 0.798061 0.262723
v -0.91905 0.803684 0.242387
v -0.910581 0.795196 0.26368
v -0.921664 0.815105 0.220466
v -0.926939 0.811886 0.22182
v -0.898603 0.790669 0.280436
v -0.903051 0.787868 0.281393
v -0.922744 0.799167 0.242242
v -0.914093 0.790879 0.263494
v -0.924608 0.793827 0.240904
v -0.930853 0.807046 0.221745
v -0.932836 0.801358 0.220282
v -0.906406 0.783708 0.281216
v -0.924314 0.788469 0.238552
v -0.922023 0.783931 0.235608
v -0.93254 0.795691 0.217629
v -0.930131 0.790976 0.214277
v -0.939059 0.80096 0.201412
v -0.936653 0.796165 0.197512
v -0.943116 0.804454 0.19082
v -0.940814 0.799762 0.186563
v -0.939196 0.806943 0.204457
v -0.943065 0.810524 0.194111
v -0.936989 0.813059 0.206092
v -0.940705 0.816839 0.195851
v -0.932837 0.818356 0.206099
v -0.936472 0.822399 0.19581
v -0.944424 0.806744 0.185481
v -0.942299 0.802398 0.181345
v -0.944001 0.808389 0.183103
v -0.942117 0.804521 0.1794
v -0.944298 0.812476 0.18867
v -0.943878 0.813498 0.185956
v -0.942019 0.818486 0.190345
v -0.94184 0.818858 0.187453
v -0.938013 0.823813 0.190289
v -0.938269 0.823616 0.1874
v -0.942889 0.80966 0.181768
v -0.941291 0.806259 0.178565
v -0.940923 0.809708 0.182982
v -0.939549 0.806642 0.180214
v -0.942781 0.814083 0.18423
v -0.940838 0.813587 0.185104
v -0.941021 0.818713 0.185521
v -0.93931 0.817626 0.186221
v -0.937936 0.822822 0.185477
v -0.936614 0.821202 0.186192
v -0.934398 0.809992 0.192856
v -0.933165 0.807121 0.191934
v -0.937716 0.808105 0.18775
v -0.937767 0.811631 0.189538
v -0.936556 0.805268 0.185268
v -0.93336 0.804706 0.189424
v -0.931277 0.815602 0.19366
v -0.932175 0.81231 0.193942
v -0.936318 0.815208 0.190571
v -0.933971 0.818463 0.190516
v -0.928865 0.802943 0.185338
v -0.93049 0.80374 0.188392
v -0.925946 0.809173 0.191737
v -0.925944 0.804237 0.18529
v -0.923822 0.805761 0.182813
v -0.922128 0.80821 0.184483
v -0.920778 0.811264 0.183608
v -0.920962 0.813204 0.186577
v -0.921439 0.816294 0.187249
v -0.923378 0.81652 0.190222
v -0.925848 0.818207 0.191358
v -0.928101 0.816219 0.193239
v -0.930763 0.820617 0.189541
v -0.927446 0.821661 0.187613
v -0.933143 0.823731 0.184985
v -0.929488 0.824776 0.182799
v -0.924411 0.821022 0.185222
v -0.922251 0.819335 0.182369
v -0.926274 0.824099 0.179897
v -0.924073 0.822117 0.176567
v -0.933697 0.826976 0.185755
v -0.933981 0.825728 0.184061
v -0.929864 0.826866 0.181495
v -0.928965 0.828239 0.182768
v -0.924963 0.827044 0.178772
v -0.926331 0.825936 0.17807
v -0.924036 0.823604 0.174086
v -0.922458 0.824276 0.174118
v -0.930995 0.826286 0.193941
v -0.932877 0.82757 0.188453
v -0.927556 0.82898 0.185121
v -0.925272 0.827749 0.19055
v -0.92037 0.826396 0.186052
v -0.923055 0.827638 0.180671
v -0.92027 0.824505 0.175535
v -0.917246 0.823086 0.180937
v -0.927352 0.821975 0.204434
v -0.921527 0.823311 0.201408
v -0.916416 0.822056 0.197441
v -0.912924 0.818813 0.193026
v -0.916535 0.818844 0.175832
v -0.919778 0.820676 0.170306
v -0.92195 0.820922 0.169318
v -0.920982 0.816424 0.166171
v -0.922973 0.817147 0.165489
v -0.917673 0.814103 0.171826
v -0.911686 0.81436 0.188737
v -0.912409 0.809263 0.185384
v -0.914606 0.804035 0.18371
v -0.919915 0.809164 0.169937
v -0.917974 0.799201 0.183936
v -0.922998 0.804383 0.170433
v -0.92312 0.81187 0.164258
v -0.924904 0.812995 0.16371
v -0.92592 0.807359 0.164867
v -0.92746 0.808877 0.164288
v -0.923422 0.820627 0.169972
v -0.923304 0.819345 0.173192
v -0.924188 0.817177 0.166678
v -0.923819 0.816038 0.170496
v -0.925889 0.813365 0.165117
v -0.925336 0.81244 0.169177
v -0.928261 0.809645 0.165571
v -0.927617 0.809031 0.169462
v -0.921351 0.816601 0.179787
v -0.92166 0.813444 0.17753
v -0.923046 0.809987 0.176595
v -0.925271 0.806861 0.176569
v -0.928037 0.804496 0.178043
v -0.931153 0.803294 0.180076
v -0.930442 0.806339 0.171315
v -0.933627 0.804853 0.174113
v -0.934091 0.803602 0.182734
v -0.936894 0.804957 0.177178
v -0.930511 0.805335 0.167109
v -0.93113 0.806567 0.167961
v -0.934488 0.80471 0.171423
v -0.934196 0.80307 0.17115
v -0.938452 0.802724 0.17535
v -0.938181 0.804568 0.175053
v -0.926808 0.800239 0.173203
v -0.929296 0.803379 0.167867
v -0.933411 0.800784 0.172218
v -0.931367 0.797639 0.17736
v -0.936464 0.797425 0.181956
v -0.938181 0.800376 0.176834
v -0.922255 0.795336 0.186019
v -0.927187 0.79321 0.189379
v -0.926006 0.788049 0.210771
v -0.932343 0.793482 0.193358
v -0.918093 0.78097 0.232544
v -0.88179 0.767782 0.317416
v -0.884769 0.770786 0.315333
v -0.88732 0.767548 0.315268
v -0.883787 0.765241 0.317371
v -0.888762 0.763857 0.314197
v -0.884925 0.762353 0.316522
v -0.888838 0.760275 0.312257
v -0.885005 0.759554 0.314975
v -0.876477 0.770372 0.315142
v -0.877954 0.774035 0.312505
v -0.881473 0.773052 0.314352
v -0.87922 0.769576 0.316625
v -0.874753 0.773546 0.310058
v -0.873981 0.77002 0.313174
vt 0.08333 0.9167
vt 0.01147 0.2613
vt 0.9893 0.7393
vt 0.0009446 0.5001
vt 0.08478 0.08462
vt 0.08433 0.9159
vt 0.01147 0.2613
vt 0.0004723 0.5001
vt 0.01042 0.7396
vt 0.01114 0.7391
vt 0.9159 0.9158
vt 0.9895 0.7395
vt 0.0007095 0.5001
vt 0.01182 0.2617
vt 0.01114 0.7391
vt 0.01182 0.2617
vt 0.9165 0.9165
vt 0.08526 0.08505
vt 0.9162 0.9162
vt 0 0.5
vt 0.01042 0.7396
vt 0.2604 0.01042
vt 0.9162 0.9162
vt 0.08333 0.08333
vt 0.2612 0.989
vt 0.9998 0.5
vt 0.9893 0.7393
vt 0.01112 0.261
vt 0.01187 0.7385
vt 0.01147 0.2613
vt 0.01114 0.7391
vt 0.9999 0.5
vt 0.08478 0.08462
vt 0.01112 0.261
vt 0.0004723 0.5001
vt 0.01112 0.261
vt 0.9895 0.2605
vt 0.9895 0.7395
vt 0.9893 0.2608
vt 0.0843 0.08419
vt 0.0009446 0.5001
vt 0.9893 0.7393
vt 0.5 -1.192e-07
vt 0.0004738 0.5001
vt 0.08532 0.9151
vt 0.9992 0.5001
vt 0.01147 0.2613
vt 0.989 0.739
vt 0.01187 0.7385
vt 0.0007095 0.5001
vt 0.08433 0.9159
vt 0.2612 0.01106
vt 0.9994 0.5001
vt 0.2615 0.01137
vt 0.5003 0.9992
vt 0.9886 0.7387
vt 0.2604 0.01042
vt 0.5002 0.0004414
vt 0.01114 0.7391
vt 0.9893 0.7393
vt 0.5002 0.9996
vt 0.9883 0.7384
vt 0.989 0.739
vt 0.2612 0.01105
vt 0.5 1
vt 0.9883 0.7384
vt 0.9996 0.5
vt 0.2619 0.01169
vt 0.2604 0.9896
vt 0.5002 0.0004414
vt 0.2612 0.989
vt 0.9886 0.7387
vt 0.2612 0.01105
vt 0.9998 0.5
vt 0.2604 0.9896
vt 0.9155 0.9154
vt 0.5003 0.0008831
vt 0.0843 0.08419
vt 0.2612 0.989
vt 0.989 0.2611
vt 0.08333 0.9167
vt 0.9151 0.9149
vt 0.9996 0.5
vt 0.2612 0.01105
vt 0.08433 0.9159
vt 0.9886 0.7387
vt 0.9998 0.5
vt 0.08526 0.08505
vt 0.989 0.739
vt 0.2619 0.01169
vt 0.2612 0.01105
vt 0.2619 0.9884
vt 0.9159 0.9158
vt 0.5003 0.0006633
vt 0.5003 0.0008831
vt 0.08433 0.9159
vt 0.2608 0.01075
vt 0.9155 0.9154
vt 0.0843 0.08419
vt 0.5 7.397e-05
vt 0.08532 0.9151
vt 0.0115 0.7388
vt 0.9994 0.5001
vt 0.2619 0.01169
vt 0.989 0.2611
vt 0.5002 0.9996
vt 0.9996 0.5
vt 0.2615 0.01137
vt 0.5003 0.0006633
vt 0.08478 0.08462
vt 0.2619 0.9884
vt 0.989 0.739
vt 0.9886 0.7387
vt 0.2612 0.01106
vt 0.2615 0.01137
vt 0.08532 0.9151
vt 0.5002 0.000443
vt 0.9151 0.9149
vt 0.0843 0.08419
vt 0.9893 0.2608
vt 0.08482 0.9155
vt 0.2612 0.989
vt 0.9155 0.08473
vt 0.9155 0.9154
vt 0.7389 0.01145
vt 0.0843 0.08419
vt 0.0115 0.7388
vt 0.2619 0.01169
vt 0.7389 0.9886
vt 0.08526 0.08505
vt 0.9163 0.08382
vt 0.01187 0.7385
vt 0.7386 0.9883
vt 0.08478 0.08462
vt 0.7386 0.9883
vt 0.2615 0.01137
vt 0.5002 0.000443
vt 0.01187 0.7385
vt 0.9159 0.08426
vt 0.0115 0.7388
vt 0.7389 0.9886
vt 0.2608 0.01075
vt 0.5002 0.9994
vt 0.2612 0.01106
vt 0.5001 0.000231
vt 0.0007095 0.5001
vt 0.9887 0.2614
vt 0.0009446 0.5001
vt 0.5003 0.9992
vt 0.5001 0.000231
vt 0.7389 0.9886
vt 0.2608 0.01075
vt 0.2605 0.01052
vt 0.08349 0.08348
vt 0.01114 0.7391
vt 0.7391 0.9889
vt 0.5002 0.9996
vt 0.989 0.2611
vt 0.08384 0.08378
vt 0.0004738 0.5001
vt 0.5002 0.9994
vt 0.9159 0.08426
vt 0.2612 0.01106
vt 0.08482 0.9155
vt 0.2605 0.01052
vt 0.0007095 0.5001
vt 0.9155 0.9154
vt 0.0843 0.08419
vt 0.9155 0.08473
vt 0.08433 0.9159
vt 0.9159 0.9158
vt 0.9994 0.5001
vt 0.2608 0.01075
vt 0.0115 0.7388
vt 0.08384 0.08378
vt 0.01114 0.7391
vt 0.7391 0.9889
vt 0.0004738 0.5001
vt 0.9996 0.5
vt 0.5003 0.9992
vt 0.7389 0.9886
vt 0.989 0.2611
vt 0.01078 0.2607
vt 0.2615 0.9887
vt 0.0002471 0.5
vt 0.5002 0.9994
vt 0.9159 0.9158
vt 0.01112 0.261
vt 0.9887 0.2614
vt 0.2619 0.9884
vt 0.2619 0.9884
vt 0.01078 0.2607
vt 0.9162 0.9162
vt 0.01112 0.261
vt 0.9992 0.5001
vt 0.2615 0.9887
vt 0.08482 0.9155
vt 0.08384 0.08378
vt 0.7393 0.9892
vt 0.01078 0.2607
vt 0.08333 0.08333
vt 0.7387 0.0118
vt 0.7391 0.9889
vt 0.7389 0.01145
vt 0.0843 0.08419
vt 0.5003 0.0006633
vt 0.01112 0.261
vt 0.5003 0.0008831
vt 0.2615 0.9887
vt 0.01053 0.2605
vt 0.08532 0.9151
vt 0.0843 0.08419
vt 0.7391 0.9889
vt 0.08349 0.08348
vt 0.08384 0.08378
vt 0.2612 0.989
vt 0.7393 0.9892
vt 0.9994 0.5001
vt 0.0002471 0.5
vt 0.08433 0.9159
vt 0.01053 0.2605
vt 0.5001 0.9998
vt 7.91e-05 0.5
vt 0.08482 0.9155
vt 0.01078 0.2607
vt 0.5002 0.9996
vt 0.9887 0.2614
vt 0.5002 0.9994
vt 0.5001 0.000231
vt 0.7393 0.9892
vt 0.5002 0.000443
vt 0.5002 0.9996
vt 0.7393 0.01078
vt 0.7395 0.9895
vt 0.9163 0.08382
vt 0.2612 0.989
vt 0.5 0.9999
vt 0.7391 0.01111
vt 0.5001 0.9998
vt 0.7393 0.01078
vt 0.7391 0.01111
vt 0.9162 0.9162
vt 0.9165 0.08349
vt 0.7395 0.01053
vt 0.0004723 0.5001
vt 0.2615 0.9887
vt 0.9165 0.9165
vt 0.7393 0.01078
vt 0.7395 0.9895
vt 0.9159 0.08426
vt 0.9884 0.2617
vt 0 0.5
vt 0.7393 0.9892
vt 0.9163 0.08382
vt 0.9884 0.2617
vt 0.01112 0.261
vt 0.5002 0.9996
vt 0.5 7.397e-05
vt 0.5001 0.000231
vt 0.01042 0.2604
vt 0.5001 0.9998
vt 0.7395 0.01053
vt 0.9887 0.2614
vt 0.01042 0.2604
vt 0.2608 0.9893
vt 0.7393 0.01078
vt 0.2612 0.989
vt 0.7387 0.0118
vt 0.2612 0.989
vt 0.7389 0.01145
vt 0.9155 0.08473
vt 0.01112 0.261
vt 0.2608 0.9893
vt 0.9151 0.08519
vt 0.7391 0.01111
vt 0.08385 0.9162
vt 0.7389 0.01145
vt 0.01182 0.2617
vt 0.9159 0.08426
vt 0.08433 0.9159
vt 0.5003 0.0006633
vt 0.2608 0.9893
vt 0.9155 0.08473
vt 0.08526 0.08505
vt 0.5002 0.000443
vt 0.2605 0.9895
vt 0.0835 0.9165
vt 0.7391 0.01111
vt 0.9151 0.08519
vt 0.08385 0.9162
vt 0.5001 0.9998
vt 0.0009446 0.5001
vt 0.9998 0.5
vt 0.5 0.9999
vt 0.9895 0.2605
vt 0.9893 0.2608
vt 0.0004723 0.5001
vt 0.2605 0.9895
vt 0.9893 0.2608
vt 0.01182 0.2617
vt 0.9165 0.08349
vt 0.2608 0.9893
vt 0.9999 0.5
vt 0.9165 0.9165
vt 0.9163 0.08382
vn 0.1001 -0.9938 0.0474
vn 0.06992 -0.9975 -0.01187
vn 0.3778 -0.914 -0.1476
vn 0.3979 -0.9133 -0.08655
vn 0.6528 -0.7267 -0.2136
vn 0.6643 -0.7319 -0.1518
vn 0.3084 -0.9027 -0.2999
vn 0.607 -0.7042 -0.3682
vn -0.02585 -0.9869 -0.1591
vn -0.4208 -0.7914 0.4433
vn -0.4719 -0.7896 0.3921
vn -0.2295 -0.9572 0.1766
vn -0.1883 -0.9542 0.2322
vn -0.3489 -0.9364 0.03702
vn -0.6077 -0.7504 0.26
vn -0.1114 -0.9504 -0.2903
vn 0.2393 -0.8719 -0.4271
vn 0.555 -0.672 -0.4902
vn 0.2245 -0.8709 -0.4372
vn 0.5499 -0.677 -0.4892
vn -0.1311 -0.9411 -0.3117
vn -0.7126 -0.6902 0.126
vn -0.4471 -0.8893 -0.09568
vn -0.4692 -0.8742 -0.1246
vn -0.7358 -0.6708 0.09262
vn 0.8623 -0.4629 -0.2051
vn 0.8675 -0.476 -0.144
vn 0.9803 -0.1551 -0.1221
vn 0.9821 -0.1774 -0.06229
vn 0.8334 -0.4209 -0.3582
vn 0.9586 -0.08814 -0.2709
vn 0.7934 -0.3784 -0.4768
vn 0.9204 -0.02908 -0.3898
vn 0.7961 -0.3807 -0.4703
vn 0.9219 -0.022 -0.3868
vn 0.8783 0.391 0.2752
vn 0.9885 0.1263 0.08295
vn 0.987 0.1584 0.02588
vn 0.8739 0.4326 0.2215
vn 0.9611 0.2508 -0.1156
vn 0.8332 0.5458 0.08878
vn 0.9149 0.3265 -0.2372
vn 0.7734 0.6328 -0.03574
vn 0.9073 0.3417 -0.2451
vn 0.7575 0.6504 -0.05594
vn 0.9178 0.337 -0.2098
vn 0.7656 0.6427 -0.02826
vn 0.9161 0.3443 -0.2053
vn 0.764 0.6448 -0.0221
vn 0.9362 -0.02777 -0.3503
vn 0.9345 -0.01819 -0.3553
vn 0.5577 -0.6942 -0.455
vn 0.8095 -0.3934 -0.4357
vn 0.8055 -0.3886 -0.4472
vn 0.5502 -0.6955 -0.4621
vn 0.5005 0.848 0.174
vn 0.4934 0.8558 0.1553
vn 0.1596 0.9186 0.3614
vn 0.1549 0.924 0.3495
vn 0.4979 0.8496 0.1739
vn 0.1543 0.9228 0.3529
vn 0.5141 0.8378 0.1838
vn 0.5886 0.7465 0.3103
vn 0.1785 0.9064 0.3829
vn 0.2656 0.8166 0.5124
vn -0.1769 0.8308 0.5277
vn -0.08213 0.7454 0.6615
vn -0.4975 0.6277 0.5987
vn -0.3993 0.5456 0.7367
vn -0.2012 0.8478 0.4907
vn -0.5206 0.6451 0.5593
vn -0.1985 0.8444 0.4976
vn -0.519 0.6429 0.5632
vn -0.2064 0.8513 0.4822
vn -0.529 0.6518 0.5434
vn -0.7596 0.3462 0.5506
vn -0.7609 0.3478 0.5477
vn -0.8873 -0.006012 0.461
vn -0.8893 -0.004456 0.4573
vn -0.7705 0.3555 0.5291
vn -0.8976 0.002411 0.4408
vn -0.7391 0.3287 0.5879
vn -0.6392 0.2485 0.7278
vn -0.8676 -0.02548 0.4966
vn -0.765 -0.1034 0.6356
vn -0.8603 -0.3844 0.3349
vn -0.7551 -0.4559 0.4712
vn -0.8828 -0.3628 0.2982
vn -0.8796 -0.3651 0.3049
vn -0.7306 -0.6748 0.1044
vn -0.8878 -0.3581 0.2889
vn -0.7361 -0.67 0.09537
vn -0.4618 -0.8806 -0.1061
vn -0.1242 -0.9504 -0.285
vn -0.4649 -0.8789 -0.1068
vn -0.1278 -0.9514 -0.28
vn -0.9097 0.0105 0.4151
vn -0.8976 -0.3513 0.2662
vn -0.7438 -0.6636 0.07978
vn -0.9036 -0.3512 0.2454
vn -0.7468 -0.6617 0.06656
vn -0.9199 0.01248 0.392
vn -0.4709 -0.8748 -0.114
vn -0.1302 -0.9504 -0.2825
vn -0.4719 -0.8737 -0.118
vn -0.1234 -0.9519 -0.2803
vn 0.2238 -0.8865 -0.4049
vn 0.2223 -0.8881 -0.4021
vn 0.551 -0.6915 -0.4672
vn 0.2401 -0.8856 -0.3975
vn 0.5657 -0.6887 -0.4534
vn 0.2294 -0.8853 -0.4044
vn 0.8034 -0.3857 -0.4537
vn 0.9324 -0.01871 -0.3608
vn 0.8097 -0.3909 -0.4377
vn 0.9362 -0.03504 -0.3497
vn 0.5828 -0.683 -0.4401
vn 0.8156 -0.3955 -0.4223
vn 0.9386 -0.05454 -0.3405
vn 0.8172 -0.3947 -0.42
vn 0.9359 -0.07279 -0.3445
vn 0.598 -0.671 -0.4382
vn -0.1077 -0.9542 -0.2791
vn 0.2624 -0.882 -0.3913
vn 0.2895 -0.8722 -0.3941
vn -0.07816 -0.9554 -0.2848
vn 0.7674 0.6408 -0.02231
vn 0.9229 0.327 -0.2031
vn 0.9311 0.3039 -0.2015
vn 0.7785 0.6272 -0.02313
vn 0.938 0.2736 -0.2127
vn 0.7983 0.6013 -0.03397
vn 0.916 0.3431 -0.2081
vn 0.7624 0.6466 -0.02408
vn 0.5014 0.85 0.1613
vn 0.4922 0.855 0.1634
vn 0.1539 0.9349 0.3197
vn 0.1458 0.9342 0.3255
vn 0.5277 0.8347 0.1571
vn 0.1746 0.93 0.3235
vn 0.4927 0.854 0.1671
vn 0.1472 0.9296 0.3379
vn -0.2089 0.8774 0.4318
vn -0.2153 0.8708 0.4418
vn -0.5431 0.6854 0.485
vn -0.5437 0.6758 0.4976
vn -0.2006 0.8771 0.4364
vn -0.5425 0.6866 0.484
vn -0.2144 0.8613 0.4607
vn -0.5391 0.6635 0.5187
vn -0.7987 0.3795 0.4669
vn -0.7926 0.3745 0.4812
vn -0.9263 0.009278 0.3767
vn -0.801 0.3805 0.4622
vn -0.9273 0.007538 0.3742
vn -0.7828 0.3661 0.5032
vn -0.9044 -0.3579 0.2323
vn -0.7425 -0.6672 0.05902
vn -0.9008 -0.3657 0.2342
vn -0.7287 -0.6822 0.05982
vn -0.9021 -0.3635 0.2325
vn -0.7161 -0.6962 0.04871
vn -0.9306 -0.3243 0.1697
vn -0.7441 -0.6673 -0.03137
vn -0.9297 0.01694 0.3679
vn -0.9499 0.05335 0.3077
vn -0.8058 0.3837 0.451
vn -0.8282 0.4044 0.3879
vn -0.5517 0.6841 0.4772
vn -0.587 0.6957 0.414
vn -0.9821 -0.1838 -0.04178
vn -0.8318 -0.4933 -0.2544
vn -0.9354 0.06241 -0.3481
vn -0.8462 -0.142 -0.5135
vn -0.9833 0.149 0.1039
vn -0.9312 0.2842 -0.2282
vn -0.8705 0.457 0.1826
vn -0.8519 0.4966 -0.1662
vn -0.663 0.7218 0.1982
vn -0.7108 0.6838 -0.1645
vn -0.3654 0.5079 -0.78
vn -0.4221 0.5553 -0.7166
vn 0.6339 0.5213 -0.5712
vn 0.4649 0.8173 -0.3403
vn -0.3445 0.4271 -0.836
vn 0.6583 0.1661 -0.7342
vn -0.3721 0.3298 -0.8676
vn 0.5393 -0.1817 -0.8222
vn -0.4455 0.2552 -0.8581
vn 0.2953 -0.4671 -0.8334
vn 0.4536 0.2426 -0.8575
vn 0.2313 0.5596 -0.7958
vn 0.7497 0.4588 -0.4768
vn 0.7658 0.103 -0.6348
vn 0.5818 0.7694 -0.2634
vn 0.3103 0.7901 -0.5286
vn 0.1416 -0.3074 -0.941
vn 0.1594 0.05411 -0.9857
vn 0.6421 -0.2521 -0.7239
vn 0.3944 -0.5466 -0.7387
vn -0.2014 0.9678 -0.1507
vn -0.08374 0.8782 -0.4709
vn -0.5093 0.3958 -0.7641
vn -0.5423 0.811 -0.2195
vn -0.7139 0.6989 0.04355
vn -0.8511 0.4958 -0.1725
vn -0.9717 0.2345 -0.02698
vn -0.9385 0.0965 -0.3315
vn -0.897 -0.2774 -0.3441
vn -0.7173 -0.2582 -0.6471
vn -0.4288 -0.5275 -0.7334
vn -0.2483 -0.2924 -0.9235
vn 0.06882 -0.7389 -0.6703
vn -0.307 -0.7988 -0.5173
vn -0.03504 -0.652 -0.7574
vn -0.3999 -0.7053 -0.5853
vn -0.6295 -0.7116 -0.312
vn -0.8689 -0.4876 -0.08518
vn -0.7041 -0.6217 -0.3429
vn -0.9048 -0.414 -0.09934
vn -0.5146 0.8268 -0.227
vn -0.5302 0.2254 -0.8173
vn -0.6051 0.2385 -0.7595
vn -0.2775 0.8938 -0.3522
vn -0.09198 0.8712 -0.4822
vn -0.7016 0.2616 -0.6628
vn -0.7928 0.3601 -0.4916
vn -0.008393 0.8277 -0.5611
vn -0.2434 0.896 0.3714
vn -0.3661 0.9201 0.139
vn -0.0001831 0.9999 -0.01248
vn 0.1677 0.9571 0.2364
vn 0.5329 0.8453 0.03864
vn 0.3188 0.9256 -0.204
vn 0.5313 0.7611 -0.3721
vn 0.7772 0.6089 -0.1586
vn -0.2026 0.8767 0.4362
vn 0.1959 0.9283 0.316
vn 0.5589 0.8185 0.1326
vn 0.8156 0.5746 -0.06705
vn 0.8965 0.2981 -0.3278
vn 0.6547 0.5322 -0.5368
vn 0.01184 0.7493 -0.6621
vn 0.6709 0.2157 -0.7095
vn -0.04373 0.5556 -0.8303
vn 0.8925 -0.03323 -0.4498
vn 0.9373 0.2485 -0.2441
vn 0.9262 -0.08206 -0.3679
vn 0.8119 -0.3863 -0.4378
vn 0.7765 -0.352 -0.5226
vn 0.604 -0.6535 -0.4562
vn 0.5536 -0.6321 -0.5421
vn 0.5319 -0.1734 -0.8289
vn -0.1896 0.2425 -0.9514
vn 0.2549 -0.5148 -0.8185
vn -0.3906 -0.06717 -0.9181
vn -0.8115 0.4702 -0.3468
vn -0.9869 -0.1277 0.09815
vn -0.8108 0.5072 -0.2919
vn -0.9606 0.1607 0.2266
vn -0.8255 0.489 -0.2818
vn -0.8576 0.4225 0.2933
vn -0.8294 0.4736 -0.2961
vn -0.6811 0.6662 0.3037
vn -0.9749 -0.1961 0.1052
vn -0.9614 0.1255 0.2447
vn -0.8505 0.4203 0.3162
vn -0.6521 0.6823 0.3305
vn -0.3623 0.8907 0.2746
vn -0.03467 0.9881 0.1498
vn -0.4215 0.8708 0.2532
vn -0.1066 0.9865 0.1245
vn 0.3098 0.9498 -0.04343
vn 0.2034 0.9754 -0.08414
vn -0.5482 -0.2455 -0.7995
vn -0.7873 0.5156 -0.3379
vn -0.6627 0.5948 -0.455
vn -0.6294 -0.288 -0.7217
vn -0.7125 -0.2576 -0.6526
vn -0.5069 0.6063 -0.6128
vn 0.2483 -0.8292 -0.5007
vn -0.05078 -0.6964 -0.7158
vn -0.321 -0.7345 -0.5978
vn -0.0921 -0.9126 -0.3984
vn -0.433 -0.8688 -0.2402
vn -0.5781 -0.6758 -0.4572
vn 0.3083 -0.8554 -0.4161
vn -0.0488 -0.9493 -0.3105
vn -0.4381 -0.8903 -0.1244
vn -0.4076 -0.901 -0.1483
vn -0.4634 -0.8779 -0.1203
vn -0.2307 0.389 0.8918
vn -0.2775 0.4367 0.8557
vn -0.5066 0.1525 0.8486
vn -0.4505 0.1159 0.8852
vn -0.625 -0.1836 0.7587
vn -0.5648 -0.207 0.7989
vn -0.6131 -0.5166 0.5976
vn -0.5551 -0.5278 0.6429
vn 0.3732 0.6363 0.675
vn 0.3518 0.6908 0.6317
vn 0.02429 0.6261 0.7793
vn 0.0586 0.5724 0.8179
vn 0.6513 0.6219 0.4346
vn 0.6626 0.5723 0.4832
f 1/1/1 2/2/2 3/3/3
f 1/1/1 3/3/3 4/4/4
f 4/4/4 3/3/3 5/5/5
f 4/4/4 5/5/5 6/6/6
f 3/3/3 7/7/7 8/8/8
f 3/3/3 8/8/8 5/5/5
f 2/2/2 9/9/9 7/7/7
f 2/2/2 7/7/7 3/3/3
f 10/10/10 11/11/11 12/12/12
f 10/10/10 12/12/12 13/13/13
f 13/13/13 12/12/12 2/2/2
f 13/13/13 2/2/2 1/1/1
f 12/12/12 14/14/14 9/9/9
f 12/12/12 9/9/9 2/2/2
f 11/11/11 15/15/15 14/14/14
f 11/11/11 14/14/14 12/12/12
f 9/9/9 16/16/16 17/17/17
f 9/9/9 17/17/17 7/7/7
f 7/7/7 17/17/17 18/18/18
f 7/7/7 18/18/18 8/8/8
f 17/17/17 19/19/19 20/20/20
f 17/17/17 20/20/20 18/18/18
f 16/16/16 21/21/21 19/19/19
f 16/16/16 19/19/19 17/17/17
f 15/15/15 22/22/22 23/23/23
f 15/15/15 23/23/23 14/14/14
f 14/14/14 23/23/23 16/16/16
f 14/14/14 16/16/16 9/9/9
f 23/23/23 24/24/24 21/21/21
f 23/23/23 21/21/21 16/16/16
f 22/22/22 25/25/25 24/24/24
f 22/22/22 24/24/24 23/23/23
f 6/6/6 5/5/5 26/26/26
f 6/6/6 26/26/26 27/27/27
f 27/27/27 26/26/26 28/28/28
f 27/27/27 28/28/28 29/29/29
f 26/26/26 30/30/30 31/31/31
f 26/26/26 31/31/31 28/28/28
f 5/5/5 8/8/8 30/30/30
f 5/5/5 30/30/30 26/26/26
f 8/8/8 18/18/18 32/32/32
f 8/8/8 32/32/32 30/30/30
f 30/30/30 32/32/32 33/33/33
f 30/30/30 33/33/33 31/31/31
f 32/32/32 34/34/34 35/35/35
f 32/32/32 35/35/35 33/33/33
f 18/18/18 20/20/20 34/34/34
f 18/18/18 34/34/34 32/32/32
f 36/36/36 37/37/37 38/38/38
f 36/36/36 38/38/38 39/39/39
f 39/39/39 38/38/38 40/40/40
f 39/39/39 40/40/40 41/41/41
f 38/38/38 28/28/28 31/31/31
f 38/38/38 31/31/31 40/40/40
f 37/37/37 29/29/29 28/28/28
f 37/37/37 28/28/28 38/38/38
f 41/41/41 40/40/40 42/42/42
f 41/41/41 42/42/42 43/43/43
f 43/43/43 42/42/42 44/44/44
f 43/43/43 44/44/44 45/45/45
f 42/42/42 33/33/33 35/35/35
f 42/42/42 35/35/35 44/44/44
f 40/40/40 31/31/31 33/33/33
f 40/40/40 33/33/33 42/42/42
f 45/45/45 44/44/44 46/46/46
f 45/45/45 46/46/46 47/47/47
f 47/47/47 46/46/46 48/48/48
f 47/47/47 48/48/48 49/49/49
f 46/46/46 50/50/50 51/51/51
f 46/46/46 51/51/51 48/48/48
f 44/44/44 35/35/35 50/50/50
f 44/44/44 50/50/50 46/46/46
f 20/20/20 52/52/52 53/53/53
f 20/20/20 53/53/53 34/34/34
f 34/34/34 53/53/53 50/50/50
f 34/34/34 50/50/50 35/35/35
f 53/53/53 54/54/54 51/51/51
f 53/53/53 51/51/51 50/50/50
f 52/52/52 55/55/55 54/54/54
f 52/52/52 54/54/54 53/53/53
f 45/45/45 47/47/47 56/56/56
f 45/45/45 56/56/56 57/57/57
f 57/57/57 56/56/56 58/58/58
f 57/57/57 58/58/58 59/59/59
f 56/56/56 60/60/60 61/61/61
f 56/56/56 61/61/61 58/58/58
f 47/47/47 49/49/49 60/60/60
f 47/47/47 60/60/60 56/56/56
f 41/41/41 43/43/43 62/62/62
f 41/41/41 62/62/62 63/63/63
f 63/63/63 62/62/62 64/64/64
f 63/63/63 64/64/64 65/65/65
f 62/62/62 57/57/57 59/59/59
f 62/62/62 59/59/59 64/64/64
f 43/43/43 45/45/45 57/57/57
f 43/43/43 57/57/57 62/62/62
f 65/65/65 64/64/64 66/66/66
f 65/65/65 66/66/66 67/67/67
f 67/67/67 66/66/66 68/68/68
f 67/67/67 68/68/68 69/69/69
f 66/66/66 70/70/70 71/71/71
f 66/66/66 71/71/71 68/68/68
f 64/64/64 59/59/59 70/70/70
f 64/64/64 70/70/70 66/66/66
f 59/59/59 58/58/58 72/72/72
f 59/59/59 72/72/72 70/70/70
f 70/70/70 72/72/72 73/73/73
f 70/70/70 73/73/73 71/71/71
f 72/72/72 74/74/74 75/75/75
f 72/72/72 75/75/75 73/73/73
f 58/58/58 61/61/61 74/74/74
f 58/58/58 74/74/74 72/72/72
f 71/71/71 73/73/73 76/76/76
f 71/71/71 76/76/76 77/77/77
f 77/77/77 76/76/76 78/78/78
f 77/77/77 78/78/78 79/79/79
f 76/76/76 80/80/80 81/81/81
f 76/76/76 81/81/81 78/78/78
f 73/73/73 75/75/75 80/80/80
f 73/73/73 80/80/80 76/76/76
f 69/69/69 68/68/68 82/82/82
f 69/69/69 82/82/82 83/83/83
f 83/83/83 82/82/82 84/84/84
f 83/83/83 84/84/84 85/85/85
f 82/82/82 77/77/77 79/79/79
f 82/82/82 79/79/79 84/84/84
f 68/68/68 71/71/71 77/77/77
f 68/68/68 77/77/77 82/82/82
f 85/85/85 84/84/84 86/86/86
f 85/85/85 86/86/86 87/87/87
f 87/87/87 86/86/86 22/22/22
f 87/87/87 22/22/22 15/15/15
f 86/86/86 88/88/88 25/25/25
f 86/86/86 25/25/25 22/22/22
f 84/84/84 79/79/79 88/88/88
f 84/84/84 88/88/88 86/86/86
f 79/79/79 78/78/78 89/89/89
f 79/79/79 89/89/89 88/88/88
f 88/88/88 89/89/89 90/90/90
f 88/88/88 90/90/90 25/25/25
f 89/89/89 91/91/91 92/92/92
f 89/89/89 92/92/92 90/90/90
f 78/78/78 81/81/81 91/91/91
f 78/78/78 91/91/91 89/89/89
f 25/25/25 90/90/90 93/93/93
f 25/25/25 93/93/93 24/24/24
f 24/24/24 93/93/93 94/94/94
f 24/24/24 94/94/94 21/21/21
f 93/93/93 95/95/95 96/96/96
f 93/93/93 96/96/96 94/94/94
f 90/90/90 92/92/92 95/95/95
f 90/90/90 95/95/95 93/93/93
f 81/81/81 97/97/97 98/98/98
f 81/81/81 98/98/98 91/91/91
f 91/91/91 98/98/98 99/99/99
f 91/91/91 99/99/99 92/92/92
f 98/98/98 100/100/100 101/101/101
f 98/98/98 101/101/101 99/99/99
f 97/97/97 102/102/102 100/100/100
f 97/97/97 100/100/100 98/98/98
f 92/92/92 99/99/99 103/103/103
f 92/92/92 103/103/103 95/95/95
f 95/95/95 103/103/103 104/104/104
f 95/95/95 104/104/104 96/96/96
f 103/103/103 105/105/105 106/106/106
f 103/103/103 106/106/106 104/104/104
f 99/99/99 101/101/101 105/105/105
f 99/99/99 105/105/105 103/103/103
f 96/96/96 104/104/104 107/107/107
f 96/96/96 107/107/107 108/108/108
f 108/108/108 107/107/107 109/109/109
f 108/108/108 109/109/109 55/55/55
f 107/107/107 110/110/110 111/111/111
f 107/107/107 111/111/111 109/109/109
f 104/104/104 106/106/106 110/110/110
f 104/104/104 110/110/110 107/107/107
f 21/21/21 94/94/94 112/112/112
f 21/21/21 112/112/112 19/19/19
f 19/19/19 112/112/112 52/52/52
f 19/19/19 52/52/52 20/20/20
f 112/112/112 108/108/108 55/55/55
f 112/112/112 55/55/55 52/52/52
f 94/94/94 96/96/96 108/108/108
f 94/94/94 108/108/108 112/112/112
f 55/55/55 109/109/109 113/113/113
f 55/55/55 113/113/113 54/54/54
f 54/54/54 113/113/113 114/114/114
f 54/54/54 114/114/114 51/51/51
f 113/113/113 115/115/115 116/116/116
f 113/113/113 116/116/116 114/114/114
f 109/109/109 111/111/111 115/115/115
f 109/109/109 115/115/115 113/113/113
f 111/111/111 117/117/117 118/118/118
f 111/111/111 118/118/118 115/115/115
f 115/115/115 118/118/118 119/119/119
f 115/115/115 119/119/119 116/116/116
f 118/118/118 120/120/120 121/121/121
f 118/118/118 121/121/121 119/119/119
f 117/117/117 122/122/122 120/120/120
f 117/117/117 120/120/120 118/118/118
f 106/106/106 123/123/123 124/124/124
f 106/106/106 124/124/124 110/110/110
f 110/110/110 124/124/124 117/117/117
f 110/110/110 117/117/117 111/111/111
f 124/124/124 125/125/125 122/122/122
f 124/124/124 122/122/122 117/117/117
f 123/123/123 126/126/126 125/125/125
f 123/123/123 125/125/125 124/124/124
f 127/127/127 128/128/128 129/129/129
f 127/127/127 129/129/129 130/130/130
f 130/130/130 129/129/129 131/131/131
f 130/130/130 131/131/131 132/132/132
f 129/129/129 119/119/119 121/121/121
f 129/129/129 121/121/121 131/131/131
f 128/128/128 116/116/116 119/119/119
f 128/128/128 119/119/119 129/129/129
f 49/49/49 48/48/48 133/133/133
f 49/49/49 133/133/133 134/134/134
f 134/134/134 133/133/133 128/128/128
f 134/134/134 128/128/128 127/127/127
f 133/133/133 114/114/114 116/116/116
f 133/133/133 116/116/116 128/128/128
f 48/48/48 51/51/51 114/114/114
f 48/48/48 114/114/114 133/133/133
f 127/127/127 130/130/130 135/135/135
f 127/127/127 135/135/135 136/136/136
f 136/136/136 135/135/135 137/137/137
f 136/136/136 137/137/137 138/138/138
f 135/135/135 139/139/139 140/140/140
f 135/135/135 140/140/140 137/137/137
f 130/130/130 132/132/132 139/139/139
f 130/130/130 139/139/139 135/135/135
f 49/49/49 134/134/134 141/141/141
f 49/49/49 141/141/141 60/60/60
f 60/60/60 141/141/141 142/142/142
f 60/60/60 142/142/142 61/61/61
f 141/141/141 136/136/136 138/138/138
f 141/141/141 138/138/138 142/142/142
f 134/134/134 127/127/127 136/136/136
f 134/134/134 136/136/136 141/141/141
f 138/138/138 137/137/137 143/143/143
f 138/138/138 143/143/143 144/144/144
f 144/144/144 143/143/143 145/145/145
f 144/144/144 145/145/145 146/146/146
f 143/143/143 147/147/147 148/148/148
f 143/143/143 148/148/148 145/145/145
f 137/137/137 140/140/140 147/147/147
f 137/137/137 147/147/147 143/143/143
f 61/61/61 142/142/142 149/149/149
f 61/61/61 149/149/149 74/74/74
f 74/74/74 149/149/149 150/150/150
f 74/74/74 150/150/150 75/75/75
f 149/149/149 144/144/144 146/146/146
f 149/149/149 146/146/146 150/150/150
f 142/142/142 138/138/138 144/144/144
f 142/142/142 144/144/144 149/149/149
f 146/146/146 145/145/145 151/151/151
f 146/146/146 151/151/151 152/152/152
f 152/152/152 151/151/151 153/153/153
f 152/152/152 153/153/153 102/102/102
f 151/151/151 154/154/154 155/155/155
f 151/151/151 155/155/155 153/153/153
f 145/145/145 148/148/148 154/154/154
f 145/145/145 154/154/154 151/151/151
f 75/75/75 150/150/150 156/156/156
f 75/75/75 156/156/156 80/80/80
f 80/80/80 156/156/156 97/97/97
f 80/80/80 97/97/97 81/81/81
f 156/156/156 152/152/152 102/102/102
f 156/156/156 102/102/102 97/97/97
f 150/150/150 146/146/146 152/152/152
f 150/150/150 152/152/152 156/156/156
f 102/102/102 153/153/153 157/157/157
f 102/102/102 157/157/157 100/100/100
f 100/100/100 157/157/157 158/158/158
f 100/100/100 158/158/158 101/101/101
f 157/157/157 159/159/159 160/160/160
f 157/157/157 160/160/160 158/158/158
f 153/153/153 155/155/155 159/159/159
f 153/153/153 159/159/159 157/157/157
f 160/160/160 159/159/159 161/161/161
f 160/160/160 161/161/161 162/162/162
f 162/162/162 161/161/161 163/163/163
f 162/162/162 163/163/163 164/164/164
f 161/161/161 165/165/165 166/166/166
f 161/161/161 166/166/166 163/163/163
f 159/159/159 155/155/155 165/165/165
f 159/159/159 165/165/165 161/161/161
f 155/155/155 154/154/154 167/167/167
f 155/155/155 167/167/167 165/165/165
f 165/165/165 167/167/167 168/168/168
f 165/165/165 168/168/168 166/166/166
f 167/167/167 169/169/169 170/170/170
f 167/167/167 170/170/170 168/168/168
f 154/154/154 148/148/148 169/169/169
f 154/154/154 169/169/169 167/167/167
f 164/164/164 163/163/163 171/171/171
f 164/164/164 171/171/171 172/172/172
f 172/172/172 171/171/171 173/173/173
f 172/172/172 173/173/173 174/174/174
f 171/171/171 175/175/175 176/176/176
f 171/171/171 176/176/176 173/173/173
f 163/163/163 166/166/166 175/175/175
f 163/163/163 175/175/175 171/171/171
f 166/166/166 168/168/168 177/177/177
f 166/166/166 177/177/177 175/175/175
f 175/175/175 177/177/177 178/178/178
f 175/175/175 178/178/178 176/176/176
f 177/177/177 179/179/179 180/180/180
f 177/177/177 180/180/180 178/178/178
f 168/168/168 170/170/170 179/179/179
f 168/168/168 179/179/179 177/177/177
f 174/174/174 173/173/173 181/181/181
f 174/174/174 181/181/181 182/182/182
f 182/182/182 181/181/181 183/183/183
f 182/182/182 183/183/183 184/184/184
f 181/181/181 185/185/185 186/186/186
f 181/181/181 186/186/186 183/183/183
f 173/173/173 176/176/176 185/185/185
f 173/173/173 185/185/185 181/181/181
f 176/176/176 178/178/178 187/187/187
f 176/176/176 187/187/187 185/185/185
f 185/185/185 187/187/187 188/188/188
f 185/185/185 188/188/188 186/186/186
f 187/187/187 189/189/189 190/190/190
f 187/187/187 190/190/190 188/188/188
f 178/178/178 180/180/180 189/189/189
f 178/178/178 189/189/189 187/187/187
f 191/191/191 192/192/192 193/193/193
f 191/191/191 193/193/193 194/194/194
f 194/194/194 193/193/193 183/183/183
f 194/194/194 183/183/183 186/186/186
f 193/193/193 195/195/195 184/184/184
f 193/193/193 184/184/184 183/183/183
f 192/192/192 196/196/196 195/195/195
f 192/192/192 195/195/195 193/193/193
f 197/197/197 198/198/198 199/199/199
f 197/197/197 199/199/199 200/200/200
f 200/200/200 199/199/199 188/188/188
f 200/200/200 188/188/188 190/190/190
f 199/199/199 194/194/194 186/186/186
f 199/199/199 186/186/186 188/188/188
f 198/198/198 191/191/191 194/194/194
f 198/198/198 194/194/194 199/199/199
f 201/201/201 202/202/202 203/203/203
f 201/201/201 203/203/203 204/204/204
f 205/205/205 204/204/204 203/203/203
f 205/205/205 203/203/203 206/206/206
f 207/207/207 206/206/206 203/203/203
f 207/207/207 203/203/203 208/208/208
f 209/209/209 208/208/208 203/203/203
f 209/209/209 203/203/203 210/210/210
f 211/211/211 210/210/210 203/203/203
f 211/211/211 203/203/203 212/212/212
f 197/197/197 212/212/212 203/203/203
f 197/197/197 203/203/203 198/198/198
f 191/191/191 198/198/198 203/203/203
f 191/191/191 203/203/203 192/192/192
f 196/196/196 192/192/192 203/203/203
f 196/196/196 203/203/203 202/202/202
f 211/211/211 212/212/212 213/213/213
f 211/211/211 213/213/213 214/214/214
f 214/214/214 213/213/213 215/215/215
f 214/214/214 215/215/215 216/216/216
f 213/213/213 200/200/200 190/190/190
f 213/213/213 190/190/190 215/215/215
f 212/212/212 197/197/197 200/200/200
f 212/212/212 200/200/200 213/213/213
f 209/209/209 210/210/210 217/217/217
f 209/209/209 217/217/217 218/218/218
f 218/218/218 217/217/217 219/219/219
f 218/218/218 219/219/219 220/220/220
f 217/217/217 214/214/214 216/216/216
f 217/217/217 216/216/216 219/219/219
f 210/210/210 211/211/211 214/214/214
f 210/210/210 214/214/214 217/217/217
f 180/180/180 221/221/221 222/222/222
f 180/180/180 222/222/222 189/189/189
f 189/189/189 222/222/222 215/215/215
f 189/189/189 215/215/215 190/190/190
f 222/222/222 223/223/223 216/216/216
f 222/222/222 216/216/216 215/215/215
f 221/221/221 224/224/224 223/223/223
f 221/221/221 223/223/223 222/222/222
f 224/224/224 225/225/225 226/226/226
f 224/224/224 226/226/226 223/223/223
f 223/223/223 226/226/226 219/219/219
f 223/223/223 219/219/219 216/216/216
f 226/226/226 227/227/227 220/220/220
f 226/226/226 220/220/220 219/219/219
f 225/225/225 228/228/228 227/227/227
f 225/225/225 227/227/227 226/226/226
f 170/170/170 229/229/229 230/230/230
f 170/170/170 230/230/230 179/179/179
f 179/179/179 230/230/230 221/221/221
f 179/179/179 221/221/221 180/180/180
f 230/230/230 231/231/231 224/224/224
f 230/230/230 224/224/224 221/221/221
f 229/229/229 232/232/232 231/231/231
f 229/229/229 231/231/231 230/230/230
f 232/232/232 233/233/233 234/234/234
f 232/232/232 234/234/234 231/231/231
f 231/231/231 234/234/234 225/225/225
f 231/231/231 225/225/225 224/224/224
f 234/234/234 235/235/235 228/228/228
f 234/234/234 228/228/228 225/225/225
f 233/233/233 236/236/236 235/235/235
f 233/233/233 235/235/235 234/234/234
f 148/148/148 147/147/147 237/237/237
f 148/148/148 237/237/237 169/169/169
f 169/169/169 237/237/237 229/229/229
f 169/169/169 229/229/229 170/170/170
f 237/237/237 238/238/238 232/232/232
f 237/237/237 232/232/232 229/229/229
f 147/147/147 140/140/140 238/238/238
f 147/147/147 238/238/238 237/237/237
f 140/140/140 139/139/139 239/239/239
f 140/140/140 239/239/239 238/238/238
f 238/238/238 239/239/239 233/233/233
f 238/238/238 233/233/233 232/232/232
f 239/239/239 240/240/240 236/236/236
f 239/239/239 236/236/236 233/233/233
f 139/139/139 132/132/132 240/240/240
f 139/139/139 240/240/240 239/239/239
f 236/236/236 241/241/241 242/242/242
f 236/236/236 242/242/242 235/235/235
f 235/235/235 242/242/242 243/243/243
f 235/235/235 243/243/243 228/228/228
f 242/242/242 244/244/244 245/245/245
f 242/242/242 245/245/245 243/243/243
f 241/241/241 246/246/246 244/244/244
f 241/241/241 244/244/244 242/242/242
f 132/132/132 131/131/131 247/247/247
f 132/132/132 247/247/247 240/240/240
f 240/240/240 247/247/247 241/241/241
f 240/240/240 241/241/241 236/236/236
f 247/247/247 248/248/248 246/246/246
f 247/247/247 246/246/246 241/241/241
f 131/131/131 121/121/121 248/248/248
f 131/131/131 248/248/248 247/247/247
f 121/121/121 120/120/120 249/249/249
f 121/121/121 249/249/249 248/248/248
f 248/248/248 249/249/249 250/250/250
f 248/248/248 250/250/250 246/246/246
f 249/249/249 251/251/251 252/252/252
f 249/249/249 252/252/252 250/250/250
f 120/120/120 122/122/122 251/251/251
f 120/120/120 251/251/251 249/249/249
f 246/246/246 250/250/250 253/253/253
f 246/246/246 253/253/253 244/244/244
f 244/244/244 253/253/253 254/254/254
f 244/244/244 254/254/254 245/245/245
f 253/253/253 255/255/255 256/256/256
f 253/253/253 256/256/256 254/254/254
f 250/250/250 252/252/252 255/255/255
f 250/250/250 255/255/255 253/253/253
f 228/228/228 243/243/243 257/257/257
f 228/228/228 257/257/257 227/227/227
f 227/227/227 257/257/257 258/258/258
f 227/227/227 258/258/258 220/220/220
f 257/257/257 259/259/259 260/260/260
f 257/257/257 260/260/260 258/258/258
f 243/243/243 245/245/245 259/259/259
f 243/243/243 259/259/259 257/257/257
f 245/245/245 254/254/254 261/261/261
f 245/245/245 261/261/261 259/259/259
f 259/259/259 261/261/261 262/262/262
f 259/259/259 262/262/262 260/260/260
f 261/261/261 263/263/263 264/264/264
f 261/261/261 264/264/264 262/262/262
f 254/254/254 256/256/256 263/263/263
f 254/254/254 263/263/263 261/261/261
f 207/207/207 208/208/208 265/265/265
f 207/207/207 265/265/265 266/266/266
f 266/266/266 265/265/265 258/258/258
f 266/266/266 258/258/258 260/260/260
f 265/265/265 218/218/218 220/220/220
f 265/265/265 220/220/220 258/258/258
f 208/208/208 209/209/209 218/218/218
f 208/208/208 218/218/218 265/265/265
f 205/205/205 206/206/206 267/267/267
f 205/205/205 267/267/267 268/268/268
f 268/268/268 267/267/267 262/262/262
f 268/268/268 262/262/262 264/264/264
f 267/267/267 266/266/266 260/260/260
f 267/267/267 260/260/260 262/262/262
f 206/206/206 207/207/207 266/266/266
f 206/206/206 266/266/266 267/267/267
f 201/201/201 204/204/204 269/269/269
f 201/201/201 269/269/269 270/270/270
f 270/270/270 269/269/269 271/271/271
f 270/270/270 271/271/271 272/272/272
f 269/269/269 268/268/268 264/264/264
f 269/269/269 264/264/264 271/271/271
f 204/204/204 205/205/205 268/268/268
f 204/204/204 268/268/268 269/269/269
f 196/196/196 202/202/202 273/273/273
f 196/196/196 273/273/273 195/195/195
f 195/195/195 273/273/273 274/274/274
f 195/195/195 274/274/274 184/184/184
f 273/273/273 270/270/270 272/272/272
f 273/273/273 272/272/272 274/274/274
f 202/202/202 201/201/201 270/270/270
f 202/202/202 270/270/270 273/273/273
f 256/256/256 275/275/275 276/276/276
f 256/256/256 276/276/276 263/263/263
f 263/263/263 276/276/276 271/271/271
f 263/263/263 271/271/271 264/264/264
f 276/276/276 277/277/277 272/272/272
f 276/276/276 272/272/272 271/271/271
f 275/275/275 278/278/278 277/277/277
f 275/275/275 277/277/277 276/276/276
f 278/278/278 279/279/279 280/280/280
f 278/278/278 280/280/280 277/277/277
f 277/277/277 280/280/280 274/274/274
f 277/277/277 274/274/274 272/272/272
f 280/280/280 182/182/182 184/184/184
f 280/280/280 184/184/184 274/274/274
f 279/279/279 174/174/174 182/182/182
f 279/279/279 182/182/182 280/280/280
f 252/252/252 281/281/281 282/282/282
f 252/252/252 282/282/282 255/255/255
f 255/255/255 282/282/282 275/275/275
f 255/255/255 275/275/275 256/256/256
f 282/282/282 283/283/283 278/278/278
f 282/282/282 278/278/278 275/275/275
f 281/281/281 284/284/284 283/283/283
f 281/281/281 283/283/283 282/282/282
f 284/284/284 285/285/285 286/286/286
f 284/284/284 286/286/286 283/283/283
f 283/283/283 286/286/286 279/279/279
f 283/283/283 279/279/279 278/278/278
f 286/286/286 172/172/172 174/174/174
f 286/286/286 174/174/174 279/279/279
f 285/285/285 164/164/164 172/172/172
f 285/285/285 172/172/172 286/286/286
f 122/122/122 125/125/125 287/287/287
f 122/122/122 287/287/287 251/251/251
f 251/251/251 287/287/287 281/281/281
f 251/251/251 281/281/281 252/252/252
f 287/287/287 288/288/288 284/284/284
f 287/287/287 284/284/284 281/281/281
f 125/125/125 126/126/126 288/288/288
f 125/125/125 288/288/288 287/287/287
f 126/126/126 289/289/289 290/290/290
f 126/126/126 290/290/290 288/288/288
f 288/288/288 290/290/290 285/285/285
f 288/288/288 285/285/285 284/284/284
f 290/290/290 162/162/162 164/164/164
f 290/290/290 164/164/164 285/285/285
f 289/289/289 160/160/160 162/162/162
f 289/289/289 162/162/162 290/290/290
f 101/101/101 158/158/158 291/291/291
f 101/101/101 291/291/291 105/105/105
f 105/105/105 291/291/291 123/123/123
f 105/105/105 123/123/123 106/106/106
f 291/291/291 289/289/289 126/126/126
f 291/291/291 126/126/126 123/123/123
f 158/158/158 160/160/160 289/289/289
f 158/158/158 289/289/289 291/291/291
f 292/292/292 293/293/293 294/294/294
f 292/292/292 294/294/294 295/295/295
f 295/295/295 294/294/294 296/296/296
f 295/295/295 296/296/296 297/297/297
f 294/294/294 83/83/83 85/85/85
f 294/294/294 85/85/85 296/296/296
f 293/293/293 69/69/69 83/83/83
f 293/293/293 83/83/83 294/294/294
f 297/297/297 296/296/296 298/298/298
f 297/297/297 298/298/298 299/299/299
f 299/299/299 298/298/298 11/11/11
f 299/299/299 11/11/11 10/10/10
f 298/298/298 87/87/87 15/15/15
f 298/298/298 15/15/15 11/11/11
f 296/296/296 85/85/85 87/87/87
f 296/296/296 87/87/87 298/298/298
f 300/300/300 301/301/301 302/302/302
f 300/300/300 302/302/302 303/303/303
f 303/303/303 302/302/302 293/293/293
f 303/303/303 293/293/293 292/292/292
f 302/302/302 67/67/67 69/69/69
f 302/302/302 69/69/69 293/293/293
f 301/301/301 65/65/65 67/67/67
f 301/301/301 67/67/67 302/302/302
f 36/36/36 39/39/39 304/304/304
f 36/36/36 304/304/304 305/305/305
f 305/305/305 304/304/304 301/301/301
f 305/305/305 301/301/301 300/300/300
f 304/304/304 63/63/63 65/65/65
f 304/304/304 65/65/65 301/301/301
f 39/39/39 41/41/41 63/63/63
f 39/39/39 63/63/63 304/304/304
