v 1.56868 -0.961212 0.127036
v 1.5712 -0.960989 0.12505
v 1.56966 -0.961899 0.123087
v 1.5675 -0.96193 0.125479
v 1.56806 -0.963599 0.121787
v 1.56626 -0.963266 0.124446
v 1.57215 -0.96214 0.12048
v 1.57024 -0.964184 0.118924
v 1.57399 -0.96104 0.122834
v 1.60123 -0.998928 0.094831
v 1.60097 -0.995424 0.0908079
v 1.60937 -1.00022 0.0837018
v 1.60943 -1.00371 0.0878151
v 1.62052 -1.0064 0.0739107
v 1.62013 -1.00975 0.078284
v 1.61061 -0.995736 0.0808758
v 1.6222 -1.00207 0.070908
v 1.60197 -0.990924 0.0880462
v 1.60409 -0.986074 0.0870175
v 1.6129 -0.990843 0.0798035
v 1.62468 -0.997242 0.0697643
v 1.61579 -0.986253 0.0806103
v 1.62749 -0.992558 0.0706096
v 1.60694 -0.981603 0.0878351
v 1.62386 -1.01187 0.0885349
v 1.63624 -1.01907 0.0775954
v 1.63925 -1.01712 0.0823268
v 1.62703 -1.00999 0.0928756
v 1.64259 -1.0133 0.0854484
v 1.63039 -1.00639 0.0957636
v 1.64969 -1.02294 0.0731193
v 1.65294 -1.01902 0.0763256
v 1.64692 -1.02492 0.0682003
v 1.61667 -0.986565 0.110244
v 1.61461 -0.991447 0.111253
v 1.62303 -0.995985 0.1049
v 1.62517 -0.990989 0.10384
v 1.63346 -1.0016 0.0966669
v 1.63575 -0.996436 0.0955062
v 1.62007 -1.00057 0.104072
v 1.61175 -0.995915 0.110485
v 1.60849 -0.999264 0.10798
v 1.61674 -1.00401 0.10142
v 1.61353 -1.00582 0.0974071
v 1.60533 -1.00102 0.104144
v 1.61724 -0.978471 0.103661
v 1.61758 -0.982015 0.107581
v 1.62613 -0.986341 0.10101
v 1.62581 -0.982729 0.096878
v 1.63682 -0.991727 0.092417
v 1.63658 -0.988146 0.0879387
v 1.61318 -0.976394 0.0943467
v 1.61568 -0.976509 0.0990056
v 1.62423 -0.980747 0.0920389
v 1.62177 -0.980696 0.0872431
v 1.63507 -0.986263 0.0827434
v 1.63279 -0.986414 0.0776302
v 1.60278 -1.00088 0.0995203
v 1.61093 -1.00568 0.0926276
v 1.62138 -1.01171 0.083413
v 1.61885 -0.982675 0.0832388
v 1.61012 -0.978208 0.0904283
v 1.63022 -0.988704 0.0733844
v 1.6542 -1.00744 0.0472696
v 1.66025 -1.01106 0.0432226
v 1.65824 -1.01544 0.0421388
v 1.65195 -1.01207 0.0462042
v 1.65562 -1.01942 0.0433874
v 1.64924 -1.01638 0.0474796
v 1.66013 -1.0164 0.0424931
v 1.65771 -1.02007 0.0436478
v 1.66197 -1.01237 0.0435167
v 1.64828 -1.00282 0.0851694
v 1.64954 -0.998114 0.0818228
v 1.64943 -0.994704 0.0769385
v 1.66018 -1.00378 0.0725828
v 1.66021 -1.00064 0.0674977
v 1.65878 -1.00833 0.0760367
v 1.64806 -0.993071 0.0712256
v 1.64607 -0.993568 0.0655901
v 1.659 -0.999267 0.0614847
v 1.65731 -1.00004 0.0555122
v 1.63331 -1.01693 0.0662726
v 1.63406 -1.01886 0.0719508
v 1.64509 -1.02467 0.0622364
v 1.64484 -1.02279 0.0561798
v 1.64405 -0.996298 0.0609249
v 1.64186 -1.00048 0.0578722
v 1.65583 -1.00308 0.0505452
v 1.63666 -1.00981 0.0581408
v 1.63439 -1.01382 0.0614392
v 1.64652 -1.01998 0.0510035
v 1.6393 -1.0052 0.056914
v 1.6458 -1.00821 0.0864234
v 1.65618 -1.01377 0.0773254
v 1.65347 -1.02522 0.0515742
v 1.65477 -1.02462 0.0521643
v 1.65494 -1.02596 0.0567331
v 1.65347 -1.0268 0.0568759
v 1.6563 -1.02606 0.061129
v 1.65489 -1.02701 0.0619941
v 1.65433 -1.02407 0.0580241
v 1.65567 -1.02406 0.0617351
v 1.65396 -1.02294 0.0541871
v 1.65809 -1.02146 0.0713131
v 1.66116 -1.01646 0.0722573
v 1.66367 -1.01134 0.0710267
v 1.66268 -1.01729 0.069733
v 1.66493 -1.01273 0.0686242
v 1.65993 -1.02178 0.0688898
v 1.65252 -1.02716 0.063592
v 1.65506 -1.02525 0.0682774
v 1.65719 -1.02523 0.0661767
v 1.66507 -1.00716 0.0677278
v 1.66519 -1.00432 0.0628682
v 1.66624 -1.00901 0.0656563
v 1.66638 -1.00646 0.0613064
v 1.66411 -1.00309 0.0571126
v 1.66265 -1.00388 0.0513505
v 1.66542 -1.00529 0.0561794
v 1.66411 -1.00592 0.0510098
v 1.65095 -1.02515 0.0519787
v 1.65096 -1.0269 0.0578609
v 1.66152 -1.00685 0.0464821
v 1.66311 -1.00855 0.0465526
v 1.65282 -1.02264 0.0468824
v 1.65516 -1.02298 0.0468958
v 1.64786 -1.01648 0.0616258
v 1.64777 -1.01416 0.0606884
v 1.64894 -1.01015 0.0659845
v 1.64801 -1.01615 0.064614
v 1.64935 -1.01724 0.0664536
v 1.65006 -1.01531 0.0684775
v 1.65212 -1.01464 0.0698351
v 1.6525 -1.01197 0.0700181
v 1.65455 -1.01019 0.0697035
v 1.65396 -1.00821 0.0682624
v 1.65518 -1.00664 0.0661311
v 1.65351 -1.00616 0.0643029
v 1.65372 -1.00588 0.0612937
v 1.65171 -1.00708 0.0604606
v 1.65137 -1.00865 0.057928
v 1.64947 -1.01049 0.0589539
v 1.64891 -1.01305 0.0580612
v 1.66433 -1.00727 0.0516841
v 1.66329 -1.00949 0.0477867
v 1.66209 -1.01282 0.0451017
v 1.6613 -1.00924 0.050483
v 1.65996 -1.01207 0.0482193
v 1.66246 -1.00745 0.0537729
v 1.6582 -1.01983 0.0452048
v 1.65608 -1.02256 0.0480735
v 1.65481 -1.021 0.0507443
v 1.65644 -1.0184 0.0483218
v 1.66034 -1.01645 0.044188
v 1.65828 -1.01529 0.0474559
v 1.66078 -1.02145 0.0671249
v 1.66317 -1.01757 0.0678653
v 1.66511 -1.0136 0.0668998
v 1.66167 -1.01678 0.0675318
v 1.66332 -1.01336 0.0667031
v 1.65963 -1.02009 0.0668882
v 1.65837 -1.02446 0.0647536
v 1.65753 -1.02266 0.0648368
v 1.66624 -1.0103 0.0643164
v 1.66637 -1.00797 0.0605518
v 1.66426 -1.01043 0.064487
v 1.66436 -1.00829 0.0612749
v 1.66553 -1.00683 0.0561439
v 1.66362 -1.00719 0.0575394
v 1.65042 -1.0197 0.0581668
v 1.65084 -1.01784 0.0554814
v 1.65206 -1.01552 0.0534327
v 1.6596 -1.00715 0.0640297
v 1.65944 -1.00904 0.0667535
v 1.65877 -1.01161 0.0686115
v 1.65517 -1.00996 0.0532985
v 1.65649 -1.00765 0.0552061
v 1.65782 -1.00625 0.0577801
v 1.65564 -1.0173 0.0687721
v 1.65378 -1.01937 0.0670504
v 1.65219 -1.02065 0.0644234
v 1.65089 -1.02059 0.0613812
v 1.65729 -1.01447 0.069314
v 1.65883 -1.00615 0.0609582
v 1.65352 -1.0127 0.052838
v 1.5998 -0.970165 0.104509
v 1.60614 -0.972997 0.0998741
v 1.60314 -0.974744 0.095983
v 1.59699 -0.971875 0.100668
v 1.60001 -0.978025 0.0933832
v 1.59403 -0.975043 0.0980753
v 1.59231 -0.99303 0.113885
v 1.59007 -0.992972 0.10943
v 1.59606 -0.996824 0.104931
v 1.59849 -0.996935 0.109488
v 1.59458 -0.994941 0.10031
v 1.58875 -0.991215 0.10492
v 1.60201 -0.970212 0.10898
v 1.60855 -0.973097 0.104455
v 1.61002 -0.974978 0.109012
v 1.60333 -0.971964 0.113416
v 1.60352 -0.975204 0.117182
v 1.6103 -0.978401 0.112851
v 1.6094 -0.982818 0.115482
v 1.60262 -0.979415 0.119791
v 1.59813 -0.988182 0.120138
v 1.59516 -0.99134 0.117658
v 1.60153 -0.99521 0.1133
v 1.60468 -0.991942 0.115789
v 1.60073 -0.98398 0.120843
v 1.60743 -0.987579 0.116517
v 1.58946 -0.983762 0.0982452
v 1.59139 -0.979223 0.0972377
v 1.59724 -0.982376 0.0925498
v 1.59522 -0.987113 0.0935652
v 1.58854 -0.987968 0.100981
v 1.5943 -0.991519 0.0963175
v 1.57188 -0.979429 0.117912
v 1.57179 -0.97686 0.114814
v 1.57477 -0.978878 0.112074
v 1.57483 -0.981545 0.115444
v 1.57843 -0.981252 0.109058
v 1.57849 -0.984038 0.112661
v 1.57561 -0.975387 0.109732
v 1.57931 -0.9776 0.10653
v 1.57256 -0.973516 0.112691
v 1.57411 -0.969892 0.111914
v 1.57725 -0.971589 0.108873
v 1.58103 -0.973627 0.105602
v 1.57942 -0.968062 0.109597
v 1.5833 -0.969938 0.106385
v 1.57618 -0.966534 0.112567
v 1.58264 -0.969788 0.129965
v 1.58108 -0.973434 0.130731
v 1.58426 -0.975139 0.129016
v 1.5859 -0.971331 0.128203
v 1.58835 -0.977337 0.126919
v 1.59006 -0.973357 0.126043
v 1.58209 -0.978682 0.128343
v 1.58608 -0.981039 0.126233
v 1.579 -0.976814 0.130088
v 1.5767 -0.979393 0.128095
v 1.57971 -0.981401 0.126243
v 1.5836 -0.983878 0.124027
v 1.5775 -0.982912 0.123076
v 1.58128 -0.985455 0.120694
v 1.57454 -0.980807 0.125093
v 1.58332 -0.963873 0.124795
v 1.58342 -0.966435 0.127867
v 1.58676 -0.967842 0.125989
v 1.58671 -0.965186 0.122749
v 1.59096 -0.969712 0.123719
v 1.59092 -0.96694 0.120329
v 1.58064 -0.962539 0.117613
v 1.58233 -0.962519 0.121196
v 1.58575 -0.963796 0.118945
v 1.58403 -0.963843 0.115118
v 1.58993 -0.965489 0.116346
v 1.58814 -0.965535 0.11231
v 1.57286 -0.980804 0.12152
v 1.57579 -0.982948 0.119297
v 1.57949 -0.985499 0.116727
v 1.58181 -0.965353 0.111824
v 1.57847 -0.963962 0.114585
v 1.58581 -0.967109 0.10879
v 1.56564 -0.970886 0.130888
v 1.5647 -0.970857 0.129034
v 1.56612 -0.973342 0.127587
v 1.56736 -0.973406 0.12994
v 1.56787 -0.975866 0.125887
v 1.56935 -0.975941 0.128715
v 1.56535 -0.972356 0.125226
v 1.56697 -0.974684 0.123052
v 1.56412 -0.970107 0.127169
v 1.56963 -0.96124 0.12889
v 1.57244 -0.961033 0.127397
v 1.57548 -0.961084 0.125651
v 1.57322 -0.962003 0.129765
v 1.57641 -0.96224 0.128498
v 1.5702 -0.961991 0.130754
v 1.57031 -0.963367 0.132342
v 1.57339 -0.963778 0.131788
v 1.5766 -0.964368 0.130933
v 1.57294 -0.966071 0.133167
v 1.57605 -0.96712 0.132595
v 1.56995 -0.965147 0.133423
v 1.56806 -0.968831 0.133478
v 1.56682 -0.970168 0.132444
v 1.5689 -0.972506 0.131921
v 1.57051 -0.970803 0.133239
v 1.5712 -0.974858 0.131098
v 1.57312 -0.97281 0.132684
v 1.56915 -0.967065 0.133815
v 1.57192 -0.968539 0.133668
v 1.57483 -0.970086 0.133199
v 1.56438 -0.966951 0.124501
v 1.56517 -0.965032 0.124109
v 1.56666 -0.965848 0.121366
v 1.56565 -0.968297 0.12186
v 1.56856 -0.966882 0.118421
v 1.56734 -0.969817 0.119015
v 1.56401 -0.96873 0.125581
v 1.5652 -0.970578 0.123222
v 1.56679 -0.972553 0.120648
v 1.57723 -0.961576 0.120258
v 1.57519 -0.962855 0.117546
v 1.57304 -0.965201 0.115751
v 1.57018 -0.97842 0.123783
v 1.5718 -0.978468 0.127033
v 1.56921 -0.977111 0.12052
v 1.57887 -0.961593 0.1235
v 1.57985 -0.962876 0.126772
v 1.58002 -0.965268 0.12957
v 1.57935 -0.96838 0.13148
v 1.57385 -0.977205 0.129769
v 1.57601 -0.974854 0.131588
v 1.57794 -0.971749 0.132177
v 1.57113 -0.968281 0.115172
v 1.56973 -0.971618 0.11586
v 1.56906 -0.974713 0.117747
v 1.58314 -0.984412 0.105293
v 1.58326 -0.987416 0.109095
v 1.58404 -0.980493 0.102631
v 1.58587 -0.976244 0.101652
v 1.58833 -0.972312 0.102474
v 1.59409 -0.98042 0.124257
v 1.59589 -0.976153 0.123279
v 1.59167 -0.984369 0.123564
v 1.58896 -0.987368 0.121203
v 1.58639 -0.989007 0.117626
v 1.5968 -0.972237 0.120795
v 1.5967 -0.969244 0.117203
v 1.59557 -0.967656 0.112984
v 1.59359 -0.967666 0.108715
v 1.5844 -0.989011 0.113401
v 1.59104 -0.969313 0.105003
vt 0.0843 0.08419
vt 0.2604 0.9896
vt 0.08333 0.08333
vt 0.5 1
vt 0.5 1
vt 0.2612 0.01105
vt 0.2604 0.9896
vt 0.9896 0.7326
vt 1 0.4792
vt 0.7396 0.9896
vt 0.9896 0.2587
vt 0.08333 0.08333
vt 0.9896 0.25
vt 0.9167 0.08333
vt 0.2619 0.01169
vt 0.9896 0.2587
vt 0.2612 0.01105
vt 0.7396 0.9896
vt 0.9896 0.2604
vt 0.01042 0.2604
vt 0.9167 0.08333
vt 0.9896 0.2604
vt 0.5003 0.0008831
vt 0.7396 0.9896
vt 0.2619 0.01169
vt 0.9167 0.08333
vt 0.01042 0.2604
vt 0.9167 0.08333
vt 0.7396 0.01042
vt 0.2612 0.01105
vt 0.5 -1.192e-07
vt 0.08333 0.9167
vt 0.01042 0.7396
vt 0.9167 0.9167
vt 1 0.5
vt 0.01042 0.2604
vt 1 0.5
vt 0.9896 0.2604
vt 0.08526 0.08505
vt 0.9167 0.08333
vt 0.9167 0.9167
vt 1 0.4931
vt 0.01042 0.2604
vt 1 0.5
vt 0.7396 0.9896
vt 0.5 1
vt 0.9167 0.08333
vt 0 0.5
vt 1 0.4931
vt 0.9896 0.2604
vt 0.0843 0.08419
vt 0.5 1
vt 0.9167 0.08333
vt 0 0.5
vt 0.9896 0.2604
vt 0.9896 0.2604
vt 0.5002 0.0004414
vt 0.9896 0.2604
vt 0.01042 0.2604
vt 0.9167 0.08333
vt 0.01042 0.2604
vt 0.9896 0.2587
vt 0.9896 0.2604
vt 0.01042 0.7396
vt 0.08333 0.9167
vt 0 0.5
vt 0.5 -1.192e-07
vt 0.2604 0.9896
vt 0.08333 0.9167
vt 0.5 1
vt 0.01042 0.7396
vt 0 0.5
vt 0.7396 0.01042
vt 0 0.5
vt 0.9167 0.08333
vt 0.7396 0.01042
vt 0.08333 0.9167
vt 0.01042 0.7396
vt 0.08333 0.08333
vt 0.7396 0.01042
vt 0.7396 0.01042
vt 0.08333 0.9167
vt 0.9167 0.08333
vt 0.08333 0.08333
vt 0.5 -1.192e-07
vt 0.01042 0.7396
vt 0.01042 0.2604
vt 0.9167 0.08333
vt 0.7396 0.01042
vt 0.7396 0.01042
vt 0.01042 0.2604
vt 0.5 -1.192e-07
vt 0.9167 0.9167
vt 0.9167 0.9167
vt 0.7396 0.01042
vt 0 0.5
vt 0.2674 0.01042
vt 0.9896 0.7378
vt 0.5 1
vt 0.2639 0.01042
vt 0 0.5
vt 0.2674 0.01042
vt 0.08333 0.08333
vt 0.08333 0.08333
vt 0.2604 0.9896
vt 0.9896 0.7326
vt 0.08333 0.9167
vt 0.2604 0.9896
vt 0 0.5
vt 0.01042 0.7396
vt 0.2604 0.9896
vt 0.9896 0.7326
vt 0.5 1
vt 0.9896 0.7378
vt 0.08333 0.9167
vt 0.2604 0.9896
vt 0.01042 0.7396
vt 1 0.4931
vt 0.08333 0.9167
vt 0.2604 0.9896
vt 0.01042 0.7396
vt 0.2604 0.9896
vt 1 0.4167
vt 0.9896 0.7378
vt 0.2604 0.9896
vt 0.9896 0.7396
vt 0.5 1
vt 0.01042 0.2604
vt 0.08333 0.08333
vt 1 0.5
vt 0.01042 0.2604
vt 0.01042 0.2604
vt 0.01042 0.2604
vt 0 0.5
vt 0.01042 0.2604
vt 0.01042 0.2604
vt 0.08333 0.08333
vt 0 0.5
vt 0 0.5
vt 0 0.5
vt 0.01042 0.2604
vt 0.01042 0.2604
vt 0 0.5
vt 0 0.5
vt 0.08333 0.08333
vt 1 0.4931
vt 0.08333 0.08333
vt 0.2639 0.01042
vt 0.08333 0.08333
vt 0.01042 0.2604
vt 0.5208 -1.192e-07
vt 0.9167 0.9167
vt 0.5833 -1.192e-07
vt 0.01042 0.2604
vt 0.9167 0.9167
vt 0.08333 0.08333
vt 0.2674 0.01042
vt 0.9896 0.7396
vt 0.5833 -2.384e-07
vt 0.2639 0.01042
vt 0.08333 0.08333
vt 0.01042 0.2604
vt 0.9896 0.7378
vt 0.2674 0.01042
vt 0.08333 0.9167
vt 0.2639 0.01042
vt 0.5208 -1.192e-07
vt 0.01042 0.2604
vt 0.08392 0.9161
vt 0.08333 0.08333
vt 0.01042 0.2604
vt 0.2608 0.989
vt 0.01042 0.2604
vt 0 0.5
vt 0.2604 0.9896
vt 0 0.5
vt 0.08333 0.08333
vt 0.2604 0.9896
vt 0.08333 0.08333
vt 0.01042 0.2604
vt 0.2608 0.989
vt 0.01042 0.2604
vt 0.5 0.9995
vt 0.5 1
vt 0.2608 0.989
vt 0.2633 0.985
vt 0.9167 0.9167
vt 1 0.4167
vt 0.5 0.9958
vt 0.01042 0.7396
vt 0.9896 0.25
vt 0.7396 0.9896
vt 0.7396 0.9896
vt 0.01042 0.7396
vt 0.5 0.9995
vt 0.9896 0.2587
vt 0.01042 0.7396
vt 0.7396 0.9896
vt 0 0.5
vt 0.08392 0.9161
vt 0.01042 0.7396
vt 0.9167 0.9167
vt 0 0.5
vt 0.088 0.912
vt 0.9167 0.08333
vt 0.9167 0.9167
vt 0.9167 0.9167
vt 0.08333 0.9167
vt 0.2633 0.985
vt 0.08333 0.9167
vt 0.08333 0.9167
vt 0.2608 0.989
vt 0.7396 0.9896
vt 0.01042 0.7396
vt 0.9167 0.9167
vt 0.08333 0.9167
vt 0.01042 0.7396
vt 0.9167 0.9167
vt 0.9167 0.9167
vt 0.2622 0.01042
vt 0.9896 0.7396
vt 0.2622 0.01042
vt 0.7413 0.01042
vt 0.7396 0.9896
vt 0.08333 0.08333
vt 0.9167 0.9167
vt 0.9167 0.9167
vt 0.2604 0.01042
vt 0.9896 0.7396
vt 0.7396 0.01042
vt 0.5069 0
vt 0.7396 0.9896
vt 0.9167 0.9167
vt 0.9896 0.7326
vt 0.5 0
vt 0.9896 0.7396
vt 0.5833 -3.576e-07
vt 0.5 0
vt 0.7396 0.9896
vt 0.08333 0.08333
vt 0.9167 0.9167
vt 0.9896 0.7361
vt 0.5069 0
vt 0.9896 0.7396
vt 0.5069 0
vt 0.7413 0.01042
vt 0.5 1
vt 0.9167 0.9167
vt 0.9896 0.7326
vt 0.08333 0.08333
vt 1 0.5
vt 0.2674 0.01042
vt 0.9167 0.08333
vt 0.7396 0.9896
vt 0.9896 0.7361
vt 0.08333 0.08333
vt 1 0.5
vt 0.75 0.01042
vt 0.9167 0.08333
vt 0.5 1
vt 0.2604 0.01042
vt 0.9896 0.7396
vt 0.7396 0.01042
vt 0.9896 0.7396
vt 0.2622 0.01042
vt 0.7413 0.01042
vt 0.2604 0.01042
vt 0.7396 0.9896
vt 1 0.5
vt 0.2604 0.9896
vt 0.2604 0.9896
vt 0.9896 0.7361
vt 0.9896 0.2604
vt 0.9896 0.7326
vt 0.5 -1.192e-07
vt 0.5 1
vt 1 0.5
vt 0.5 1
vt 1 0.5
vt 1 0.4167
vt 0.2604 0.01042
vt 0.5 1
vt 0.9167 0.9167
vt 0.5 1
vt 0.5 1
vt 1 0.4167
vt 0.2612 0.01105
vt 0.5002 0.0004414
vt 0.7396 0.9896
vt 0.9167 0.9167
vt 0.9896 0.2604
vt 0.08333 0.9167
vt 1 0.4792
vt 0.5 1
vt 0.9896 0.7396
vt 0.08333 0.9167
vt 0.08333 0.08333
vt 0.7396 0.9896
vt 0.9896 0.7396
vt 1 0.5
vt 0.2604 0.9896
vt 0.9896 0.7361
vt 0.7396 0.9896
vt 0.5 1
vt 0.2604 0.9896
vt 0.5833 0
vt 0.5 1
vt 0.2622 0.01042
vt 0.7396 0.9896
vt 0.5069 0
vt 0.08333 0.9167
vt 0.7396 0.9896
vt 0.08333 0.9167
vt 0.7396 0.9896
vt 0.2674 0.01042
vt 0.7396 0.9896
vt 0.2604 0.9896
vt 0.9167 0.9167
vt 0.9167 0.9167
vt 0.2604 0.9896
vt 0.7396 0.9896
vt 0.7396 0.9896
vt 0.9167 0.08333
vt 0.7413 0.01042
vt 0.9167 0.9167
vt 0.01042 0.7396
vt 0.9167 0.9167
vt 0.01042 0.7396
vt 0.75 0.01042
vt 0.5 1
vt 0 0.5
vt 0.5 1
vt 0.9167 0.08333
vt 0.7396 0.9896
vt 0 0.5
vt 0.7396 0.9896
vt 1 0.5
vn -0.1546 0.9842 -0.08582
vn -0.1237 0.9854 -0.1168
vn -0.3464 0.8666 -0.3591
vn -0.3728 0.8689 -0.3256
vn -0.5611 0.6502 -0.5122
vn -0.5838 0.6566 -0.4775
vn -0.2783 0.8621 -0.4235
vn -0.5046 0.6371 -0.5826
vn -0.04263 0.9843 -0.1715
vn -0.6568 -0.6934 -0.2962
vn -0.7124 -0.4141 -0.5666
vn -0.7168 -0.3953 -0.5744
vn -0.6592 -0.6872 -0.3052
vn -0.7212 -0.3705 -0.5853
vn -0.664 -0.6751 -0.3215
vn -0.6646 -0.06037 -0.7447
vn -0.6684 -0.03485 -0.743
vn -0.6613 -0.08078 -0.7458
vn -0.5222 0.2608 -0.8119
vn -0.5303 0.2673 -0.8045
vn -0.5406 0.2757 -0.7948
vn -0.3343 0.5634 -0.7555
vn -0.3564 0.5532 -0.7529
vn -0.3169 0.5712 -0.7572
vn -0.2562 -0.9134 0.3161
vn -0.262 -0.9205 0.2897
vn 0.03534 -0.8187 0.573
vn 0.02896 -0.8085 0.5878
vn 0.3193 -0.5823 0.7477
vn 0.3028 -0.5745 0.7603
vn 0.07483 -0.8345 0.5459
vn 0.3585 -0.5936 0.7205
vn -0.2285 -0.9405 0.2515
vn 0.6261 0.1079 0.7721
vn 0.4942 -0.2374 0.8363
vn 0.5048 -0.2486 0.8266
vn 0.6405 0.1014 0.7612
vn 0.5197 -0.2588 0.8142
vn 0.6554 0.09793 0.7489
vn 0.2921 -0.564 0.7723
vn 0.2835 -0.5539 0.7828
vn 0.01877 -0.7907 0.6119
vn 0.02689 -0.7988 0.601
vn -0.251 -0.9084 0.3342
vn -0.2571 -0.9026 0.3452
vn 0.6066 0.7237 0.3292
vn 0.6681 0.4431 0.5976
vn 0.6817 0.4418 0.5832
vn 0.6159 0.7219 0.3154
vn 0.6912 0.4483 0.5668
vn 0.6178 0.7287 0.2954
vn 0.2039 0.9269 -0.315
vn 0.4429 0.8965 0.007385
vn 0.4472 0.8944 -0.002106
vn 0.1977 0.9249 -0.3247
vn 0.4446 0.8955 -0.01923
vn 0.186 0.9217 -0.3403
vn -0.4962 -0.8678 0.02466
vn -0.4935 -0.8696 0.01556
vn -0.4987 -0.8667 -0.003418
vn -0.08353 0.8007 -0.5932
vn -0.0651 0.8086 -0.5847
vn -0.1081 0.789 -0.6048
vn -0.2989 0.5208 -0.7996
vn 0.07846 0.4156 -0.9061
vn -0.1403 0.0557 -0.9885
vn -0.4822 0.2469 -0.8405
vn -0.3165 -0.3319 -0.8886
vn -0.6101 -0.06714 -0.7895
vn 0.596 -0.3406 -0.7272
vn 0.3956 -0.663 -0.6355
vn 0.7571 0.003998 -0.6532
vn 0.671 0.09055 0.7359
vn 0.7031 0.4537 0.5475
vn 0.6214 0.7366 0.2669
vn 0.7399 0.4335 0.5144
vn 0.6606 0.7157 0.2268
vn 0.7031 0.06537 0.708
vn 0.4453 0.8942 -0.04511
vn 0.1831 0.914 -0.3621
vn 0.4928 0.8665 -0.07895
vn 0.2429 0.8883 -0.3897
vn -0.6611 -0.6657 -0.346
vn -0.503 -0.8636 -0.03449
vn -0.4637 -0.8827 -0.0763
vn -0.61 -0.6964 -0.3781
vn -0.1185 0.7737 -0.6224
vn -0.363 0.5393 -0.7598
vn -0.05063 0.7551 -0.6537
vn -0.6605 -0.02121 -0.7505
vn -0.7146 -0.3558 -0.6023
vn -0.6615 -0.4038 -0.6319
vn -0.5374 0.2764 -0.7967
vn 0.5365 -0.269 0.7999
vn 0.5686 -0.288 0.7705
vn 0.1859 -0.9223 -0.3388
vn 0.8955 -0.4446 -0.02103
vn 0.8998 -0.3862 -0.2026
vn 0.2056 -0.9572 -0.2038
vn 0.8751 -0.3833 -0.2953
vn 0.3151 -0.9489 0.01981
vn 0.8214 0.5621 -0.09696
vn 0.6686 0.6037 -0.434
vn 0.8937 0.3866 0.2275
vn 0.4757 -0.6252 0.6187
vn 0.6615 -0.3426 0.6671
vn 0.7934 -0.0202 0.6083
vn 0.7907 -0.4213 0.444
vn 0.9017 -0.1801 0.3931
vn 0.656 -0.6412 0.3981
vn -0.04346 -0.9854 0.1648
vn 0.2269 -0.8628 0.4518
vn 0.4901 -0.8339 0.2538
vn 0.8491 0.3188 0.421
vn 0.8016 0.5801 0.1447
vn 0.9694 0.06766 0.2359
vn 0.9662 0.2574 0.009247
vn 0.6772 0.7226 -0.1385
vn 0.4963 0.7575 -0.424
vn 0.9173 0.3454 -0.1979
vn 0.8709 0.347 -0.3479
vn -0.3603 -0.8359 -0.4141
vn -0.2453 -0.9586 -0.1448
vn 0.2888 0.6563 -0.697
vn 0.833 0.2463 -0.4953
vn -0.392 -0.633 -0.6675
vn 0.2451 -0.8503 -0.4656
vn 0.951 0.2988 0.0792
vn 0.9806 -0.08271 0.1778
vn 0.8145 -0.4556 -0.359
vn 0.9373 0.2445 -0.2483
vn 0.7094 0.4956 -0.5012
vn 0.6528 0.2262 -0.723
vn 0.2933 0.2061 -0.9335
vn 0.3071 -0.1954 -0.9314
vn -0.02915 -0.4028 -0.9148
vn 0.1552 -0.7046 -0.6924
vn -0.03067 -0.8818 -0.4706
vn 0.3014 -0.9254 -0.2299
vn 0.2696 -0.9585 0.0922
vn 0.6036 -0.7756 0.1845
vn 0.6318 -0.6214 0.4632
vn 0.8308 -0.4541 0.3217
vn 0.8704 -0.184 0.4566
vn 0.8597 -0.5101 -0.02445
vn 0.895 -0.432 0.1109
vn 0.8896 -0.427 0.1619
vn 0.3899 -0.7833 0.484
vn 0.5554 -0.5698 0.6056
vn 0.15 -0.961 0.2322
vn 0.8389 -0.5183 0.1662
vn 0.8516 -0.5107 0.1178
vn 0.8732 0.1186 0.4726
vn 0.7865 -0.1428 0.6008
vn 0.8623 -0.4745 0.1767
vn 0.6765 -0.3653 0.6394
vn 0.8349 -0.3753 -0.4025
vn 0.7819 -0.4441 -0.4375
vn 0.7548 -0.5264 -0.3912
vn -0.07358 0.009888 -0.9972
vn -0.2087 -0.3553 -0.9111
vn 0.1536 0.317 -0.9359
vn 0.8661 -0.3659 -0.3405
vn 0.4277 0.525 -0.7358
vn 0.7538 -0.5619 -0.3406
vn 0.761 -0.5733 -0.3037
vn -0.2458 -0.6864 -0.6843
vn -0.1969 -0.8972 -0.3952
vn 0.7907 -0.5772 -0.204
vn -0.07303 -0.9932 -0.0907
vn 0.8399 0.4926 0.2277
vn 0.8513 0.2193 0.4765
vn 0.7759 -0.0846 0.6251
vn -0.3344 -0.8574 -0.3911
vn -0.4068 -0.6113 -0.6788
vn -0.3721 -0.2739 -0.8868
vn 0.5026 -0.5912 0.6307
vn 0.297 -0.8202 0.489
vn 0.05371 -0.9702 0.2362
vn -0.008759 0.4251 -0.9051
vn 0.2551 0.6513 -0.7147
vn 0.5212 0.7415 -0.4224
vn 0.717 0.6895 -0.1022
vn -0.2353 0.1014 -0.9666
vn -0.1863 -0.9782 -0.09183
vn 0.6554 -0.35 0.6692
vn 0.1895 0.9358 -0.2973
vn 0.2016 0.9303 -0.3065
vn -0.05618 0.8148 -0.577
vn -0.05554 0.82 -0.5696
vn -0.3074 0.5778 -0.756
vn -0.3027 0.5828 -0.7541
vn -0.319 -0.8709 0.3739
vn -0.5334 -0.8447 0.04477
vn -0.5094 -0.8599 0.0333
vn -0.28 -0.8911 0.357
vn -0.6603 -0.6933 -0.2886
vn -0.6714 -0.6862 -0.2797
vn 0.4027 0.9149 0.02878
vn 0.4284 0.9034 0.01697
vn 0.584 0.7353 0.3439
vn 0.5473 0.7549 0.3612
vn 0.5969 0.4865 0.638
vn 0.6414 0.4586 0.6151
vn 0.6003 0.128 0.7895
vn 0.5507 0.1621 0.8188
vn 0.1999 -0.5108 0.8361
vn -0.06226 -0.7557 0.6519
vn -0.00943 -0.7788 0.6272
vn 0.2577 -0.5389 0.802
vn 0.4164 -0.1824 0.8907
vn 0.4707 -0.2166 0.8553
vn -0.6626 -0.101 -0.7421
vn -0.5174 0.2562 -0.8164
vn -0.5191 0.2578 -0.8149
vn -0.6612 -0.09357 -0.7443
vn -0.7154 -0.4283 -0.552
vn -0.7117 -0.4248 -0.5594
vn -0.7299 -0.6348 -0.2534
vn -0.7761 -0.3683 -0.5119
vn -0.7386 -0.4052 -0.5387
vn -0.6908 -0.6677 -0.2771
vn -0.7232 -0.423 -0.5458
vn -0.6814 -0.6767 -0.2786
vn -0.6966 -0.07529 -0.7135
vn -0.675 -0.09632 -0.7315
vn -0.7318 -0.04257 -0.6801
vn -0.5994 0.2979 -0.7429
vn -0.5603 0.2775 -0.7804
vn -0.5322 0.263 -0.8047
vn -0.3449 0.595 -0.7259
vn -0.3145 0.5894 -0.7441
vn -0.3927 0.6055 -0.6922
vn 0.5028 0.1793 0.8456
vn 0.364 -0.1729 0.9152
vn 0.3809 -0.1798 0.9069
vn 0.5229 0.1698 0.8353
vn 0.3608 -0.1635 0.9182
vn 0.5057 0.1827 0.8432
vn 0.1666 -0.5 0.8498
vn 0.1457 -0.4876 0.8608
vn 0.1484 -0.4909 0.8585
vn -0.1123 -0.7262 0.6782
vn -0.08823 -0.7404 0.6663
vn -0.1039 -0.7333 0.6719
vn -0.3437 -0.8577 0.3824
vn -0.3492 -0.8545 0.3846
vn -0.3755 -0.8368 0.3985
vn 0.4881 0.7855 0.3804
vn 0.5468 0.5157 0.6595
vn 0.5736 0.5023 0.6471
vn 0.5235 0.77 0.3645
vn 0.5617 0.5083 0.6527
vn 0.5191 0.7714 0.368
vn 0.1131 0.9558 -0.2714
vn 0.3351 0.9408 0.05014
vn 0.3787 0.925 0.02954
vn 0.1632 0.9414 -0.2951
vn 0.3822 0.9236 0.03037
vn 0.1764 0.9386 -0.2965
vn -0.5928 -0.8025 0.06687
vn -0.5559 -0.83 0.04636
vn -0.5529 -0.8319 0.04691
vn -0.08902 0.8257 -0.557
vn -0.1419 0.836 -0.53
vn -0.06461 0.8232 -0.564
vn -0.6035 -0.6066 0.5175
vn -0.7867 -0.5778 0.2174
vn -0.7687 -0.6097 0.1932
vn -0.5815 -0.6424 0.4992
vn -0.7144 -0.683 0.152
vn -0.5134 -0.7184 0.4694
vn -0.8829 -0.4583 -0.102
vn -0.8379 -0.5233 -0.1552
vn -0.899 -0.4318 -0.07291
vn 0.03723 0.9778 0.206
vn 0.07382 0.9809 0.18
vn 0.1667 0.9764 0.1372
vn 0.2113 0.8482 0.4856
vn 0.3133 0.8342 0.4537
vn 0.1689 0.8465 0.5049
vn 0.2185 0.6116 0.7604
vn 0.2649 0.6074 0.7489
vn 0.3716 0.5802 0.7248
vn 0.2226 0.2976 0.9283
vn 0.33 0.2567 0.9084
vn 0.1756 0.3111 0.934
vn -0.1469 -0.2964 0.9437
vn -0.377 -0.5085 0.7741
vn -0.3482 -0.5448 0.7628
vn -0.1104 -0.3288 0.9379
vn -0.2653 -0.617 0.7408
vn -0.01489 -0.393 0.9194
vn 0.0481 -0.008087 0.9988
vn 0.0914 -0.03201 0.9953
vn 0.195 -0.08536 0.9771
vn -0.8795 0.08521 -0.4682
vn -0.7593 0.3825 -0.5264
vn -0.7395 0.3717 -0.5612
vn -0.8619 0.06955 -0.5023
vn -0.6921 0.3467 -0.633
vn -0.8198 0.03079 -0.5717
vn -0.9291 -0.1987 -0.312
vn -0.9129 -0.2197 -0.344
vn -0.8719 -0.2723 -0.407
vn 0.04022 0.9728 -0.228
vn -0.2074 0.8496 -0.4848
vn -0.4457 0.6197 -0.646
vn -0.6513 -0.7515 0.105
vn -0.4382 -0.7889 0.4308
vn -0.7836 -0.5845 -0.2105
vn 0.2598 0.9615 0.08884
vn 0.4138 0.811 0.4135
vn 0.4758 0.5459 0.6896
vn 0.4349 0.2121 0.8751
vn -0.1776 -0.6841 0.7074
vn 0.08237 -0.4537 0.8873
vn 0.2977 -0.1386 0.9445
vn -0.642 0.3203 -0.6966
vn -0.7729 -0.007477 -0.6344
vn -0.823 -0.3229 -0.4673
vn -0.72 -0.4274 -0.5467
vn -0.6813 -0.6784 -0.2751
vn -0.6662 -0.1031 -0.7385
vn -0.5198 0.2569 -0.8147
vn -0.3034 0.5864 -0.751
vn 0.3643 -0.1576 0.9178
vn 0.5065 0.1865 0.8418
vn 0.1474 -0.4861 0.8614
vn -0.1052 -0.7338 0.6711
vn -0.3497 -0.8538 0.3857
vn 0.5606 0.5081 0.6538
vn 0.5182 0.7703 0.3714
vn 0.3818 0.9236 0.03476
vn 0.1778 0.9395 -0.2928
vn -0.5528 -0.8317 0.05097
vn -0.05875 0.8232 -0.5647
f 1/1/1 2/2/2 3/3/3
f 1/1/1 3/3/3 4/4/4
f 4/4/4 3/3/3 5/5/5
f 4/4/4 5/5/5 6/6/6
f 3/3/3 7/7/7 8/8/8
f 3/3/3 8/8/8 5/5/5
f 2/2/2 9/9/9 7/7/7
f 2/2/2 7/7/7 3/3/3
f 10/10/10 11/11/11 12/12/12
f 10/10/10 12/12/12 13/13/13
f 13/13/13 12/12/12 14/14/14
f 13/13/13 14/14/14 15/15/15
f 12/12/12 16/16/16 17/17/17
f 12/12/12 17/17/17 14/14/14
f 11/11/11 18/18/18 16/16/16
f 11/11/11 16/16/16 12/12/12
f 18/18/18 19/19/19 20/20/20
f 18/18/18 20/20/20 16/16/16
f 16/16/16 20/20/20 21/21/21
f 16/16/16 21/21/21 17/17/17
f 20/20/20 22/22/22 23/23/23
f 20/20/20 23/23/23 21/21/21
f 19/19/19 24/24/24 22/22/22
f 19/19/19 22/22/22 20/20/20
f 25/25/25 26/26/26 27/27/27
f 25/25/25 27/27/27 28/28/28
f 28/28/28 27/27/27 29/29/29
f 28/28/28 29/29/29 30/30/30
f 27/27/27 31/31/31 32/32/32
f 27/27/27 32/32/32 29/29/29
f 26/26/26 33/33/33 31/31/31
f 26/26/26 31/31/31 27/27/27
f 34/34/34 35/35/35 36/36/36
f 34/34/34 36/36/36 37/37/37
f 37/37/37 36/36/36 38/38/38
f 37/37/37 38/38/38 39/39/39
f 36/36/36 40/40/40 30/30/30
f 36/36/36 30/30/30 38/38/38
f 35/35/35 41/41/41 40/40/40
f 35/35/35 40/40/40 36/36/36
f 41/41/41 42/42/42 43/43/43
f 41/41/41 43/43/43 40/40/40
f 40/40/40 43/43/43 28/28/28
f 40/40/40 28/28/28 30/30/30
f 43/43/43 44/44/44 25/25/25
f 43/43/43 25/25/25 28/28/28
f 42/42/42 45/45/45 44/44/44
f 42/42/42 44/44/44 43/43/43
f 46/46/46 47/47/47 48/48/48
f 46/46/46 48/48/48 49/49/49
f 49/49/49 48/48/48 50/50/50
f 49/49/49 50/50/50 51/51/51
f 48/48/48 37/37/37 39/39/39
f 48/48/48 39/39/39 50/50/50
f 47/47/47 34/34/34 37/37/37
f 47/47/47 37/37/37 48/48/48
f 52/52/52 53/53/53 54/54/54
f 52/52/52 54/54/54 55/55/55
f 55/55/55 54/54/54 56/56/56
f 55/55/55 56/56/56 57/57/57
f 54/54/54 49/49/49 51/51/51
f 54/54/54 51/51/51 56/56/56
f 53/53/53 46/46/46 49/49/49
f 53/53/53 49/49/49 54/54/54
f 45/45/45 58/58/58 59/59/59
f 45/45/45 59/59/59 44/44/44
f 44/44/44 59/59/59 60/60/60
f 44/44/44 60/60/60 25/25/25
f 59/59/59 13/13/13 15/15/15
f 59/59/59 15/15/15 60/60/60
f 58/58/58 10/10/10 13/13/13
f 58/58/58 13/13/13 59/59/59
f 52/52/52 55/55/55 61/61/61
f 52/52/52 61/61/61 62/62/62
f 62/62/62 61/61/61 22/22/22
f 62/62/62 22/22/22 24/24/24
f 61/61/61 63/63/63 23/23/23
f 61/61/61 23/23/23 22/22/22
f 55/55/55 57/57/57 63/63/63
f 55/55/55 63/63/63 61/61/61
f 64/64/64 65/65/65 66/66/66
f 64/64/64 66/66/66 67/67/67
f 67/67/67 66/66/66 68/68/68
f 67/67/67 68/68/68 69/69/69
f 66/66/66 70/70/70 71/71/71
f 66/66/66 71/71/71 68/68/68
f 65/65/65 72/72/72 70/70/70
f 65/65/65 70/70/70 66/66/66
f 39/39/39 73/73/73 74/74/74
f 39/39/39 74/74/74 50/50/50
f 50/50/50 74/74/74 75/75/75
f 50/50/50 75/75/75 51/51/51
f 74/74/74 76/76/76 77/77/77
f 74/74/74 77/77/77 75/75/75
f 73/73/73 78/78/78 76/76/76
f 73/73/73 76/76/76 74/74/74
f 51/51/51 75/75/75 79/79/79
f 51/51/51 79/79/79 56/56/56
f 56/56/56 79/79/79 80/80/80
f 56/56/56 80/80/80 57/57/57
f 79/79/79 81/81/81 82/82/82
f 79/79/79 82/82/82 80/80/80
f 75/75/75 77/77/77 81/81/81
f 75/75/75 81/81/81 79/79/79
f 15/15/15 83/83/83 84/84/84
f 15/15/15 84/84/84 60/60/60
f 60/60/60 84/84/84 26/26/26
f 60/60/60 26/26/26 25/25/25
f 84/84/84 85/85/85 33/33/33
f 84/84/84 33/33/33 26/26/26
f 83/83/83 86/86/86 85/85/85
f 83/83/83 85/85/85 84/84/84
f 57/57/57 80/80/80 87/87/87
f 57/57/57 87/87/87 63/63/63
f 63/63/63 87/87/87 88/88/88
f 63/63/63 88/88/88 23/23/23
f 87/87/87 89/89/89 64/64/64
f 87/87/87 64/64/64 88/88/88
f 80/80/80 82/82/82 89/89/89
f 80/80/80 89/89/89 87/87/87
f 17/17/17 90/90/90 91/91/91
f 17/17/17 91/91/91 14/14/14
f 14/14/14 91/91/91 83/83/83
f 14/14/14 83/83/83 15/15/15
f 91/91/91 92/92/92 86/86/86
f 91/91/91 86/86/86 83/83/83
f 90/90/90 69/69/69 92/92/92
f 90/90/90 92/92/92 91/91/91
f 23/23/23 88/88/88 93/93/93
f 23/23/23 93/93/93 21/21/21
f 21/21/21 93/93/93 90/90/90
f 21/21/21 90/90/90 17/17/17
f 93/93/93 67/67/67 69/69/69
f 93/93/93 69/69/69 90/90/90
f 88/88/88 64/64/64 67/67/67
f 88/88/88 67/67/67 93/93/93
f 30/30/30 29/29/29 94/94/94
f 30/30/30 94/94/94 38/38/38
f 38/38/38 94/94/94 73/73/73
f 38/38/38 73/73/73 39/39/39
f 94/94/94 95/95/95 78/78/78
f 94/94/94 78/78/78 73/73/73
f 29/29/29 32/32/32 95/95/95
f 29/29/29 95/95/95 94/94/94
f 96/96/96 97/97/97 98/98/98
f 96/96/96 98/98/98 99/99/99
f 99/99/99 98/98/98 100/100/100
f 99/99/99 100/100/100 101/101/101
f 98/98/98 102/102/102 103/103/103
f 98/98/98 103/103/103 100/100/100
f 97/97/97 104/104/104 102/102/102
f 97/97/97 102/102/102 98/98/98
f 32/32/32 105/105/105 106/106/106
f 32/32/32 106/106/106 95/95/95
f 95/95/95 106/106/106 107/107/107
f 95/95/95 107/107/107 78/78/78
f 106/106/106 108/108/108 109/109/109
f 106/106/106 109/109/109 107/107/107
f 105/105/105 110/110/110 108/108/108
f 105/105/105 108/108/108 106/106/106
f 33/33/33 111/111/111 112/112/112
f 33/33/33 112/112/112 31/31/31
f 31/31/31 112/112/112 105/105/105
f 31/31/31 105/105/105 32/32/32
f 112/112/112 113/113/113 110/110/110
f 112/112/112 110/110/110 105/105/105
f 111/111/111 101/101/101 113/113/113
f 111/111/111 113/113/113 112/112/112
f 78/78/78 107/107/107 114/114/114
f 78/78/78 114/114/114 76/76/76
f 76/76/76 114/114/114 115/115/115
f 76/76/76 115/115/115 77/77/77
f 114/114/114 116/116/116 117/117/117
f 114/114/114 117/117/117 115/115/115
f 107/107/107 109/109/109 116/116/116
f 107/107/107 116/116/116 114/114/114
f 77/77/77 115/115/115 118/118/118
f 77/77/77 118/118/118 81/81/81
f 81/81/81 118/118/118 119/119/119
f 81/81/81 119/119/119 82/82/82
f 118/118/118 120/120/120 121/121/121
f 118/118/118 121/121/121 119/119/119
f 115/115/115 117/117/117 120/120/120
f 115/115/115 120/120/120 118/118/118
f 86/86/86 122/122/122 123/123/123
f 86/86/86 123/123/123 85/85/85
f 85/85/85 123/123/123 111/111/111
f 85/85/85 111/111/111 33/33/33
f 123/123/123 99/99/99 101/101/101
f 123/123/123 101/101/101 111/111/111
f 122/122/122 96/96/96 99/99/99
f 122/122/122 99/99/99 123/123/123
f 82/82/82 119/119/119 124/124/124
f 82/82/82 124/124/124 89/89/89
f 89/89/89 124/124/124 65/65/65
f 89/89/89 65/65/65 64/64/64
f 124/124/124 125/125/125 72/72/72
f 124/124/124 72/72/72 65/65/65
f 119/119/119 121/121/121 125/125/125
f 119/119/119 125/125/125 124/124/124
f 69/69/69 68/68/68 126/126/126
f 69/69/69 126/126/126 92/92/92
f 92/92/92 126/126/126 122/122/122
f 92/92/92 122/122/122 86/86/86
f 126/126/126 127/127/127 96/96/96
f 126/126/126 96/96/96 122/122/122
f 68/68/68 71/71/71 127/127/127
f 68/68/68 127/127/127 126/126/126
f 128/128/128 129/129/129 130/130/130
f 128/128/128 130/130/130 131/131/131
f 132/132/132 131/131/131 130/130/130
f 132/132/132 130/130/130 133/133/133
f 134/134/134 133/133/133 130/130/130
f 134/134/134 130/130/130 135/135/135
f 136/136/136 135/135/135 130/130/130
f 136/136/136 130/130/130 137/137/137
f 138/138/138 137/137/137 130/130/130
f 138/138/138 130/130/130 139/139/139
f 140/140/140 139/139/139 130/130/130
f 140/140/140 130/130/130 141/141/141
f 142/142/142 141/141/141 130/130/130
f 142/142/142 130/130/130 143/143/143
f 144/144/144 143/143/143 130/130/130
f 144/144/144 130/130/130 129/129/129
f 121/121/121 145/145/145 146/146/146
f 121/121/121 146/146/146 125/125/125
f 125/125/125 146/146/146 147/147/147
f 125/125/125 147/147/147 72/72/72
f 146/146/146 148/148/148 149/149/149
f 146/146/146 149/149/149 147/147/147
f 145/145/145 150/150/150 148/148/148
f 145/145/145 148/148/148 146/146/146
f 71/71/71 151/151/151 152/152/152
f 71/71/71 152/152/152 127/127/127
f 127/127/127 152/152/152 97/97/97
f 127/127/127 97/97/97 96/96/96
f 152/152/152 153/153/153 104/104/104
f 152/152/152 104/104/104 97/97/97
f 151/151/151 154/154/154 153/153/153
f 151/151/151 153/153/153 152/152/152
f 72/72/72 147/147/147 155/155/155
f 72/72/72 155/155/155 70/70/70
f 70/70/70 155/155/155 151/151/151
f 70/70/70 151/151/151 71/71/71
f 155/155/155 156/156/156 154/154/154
f 155/155/155 154/154/154 151/151/151
f 147/147/147 149/149/149 156/156/156
f 147/147/147 156/156/156 155/155/155
f 110/110/110 157/157/157 158/158/158
f 110/110/110 158/158/158 108/108/108
f 108/108/108 158/158/158 159/159/159
f 108/108/108 159/159/159 109/109/109
f 158/158/158 160/160/160 161/161/161
f 158/158/158 161/161/161 159/159/159
f 157/157/157 162/162/162 160/160/160
f 157/157/157 160/160/160 158/158/158
f 101/101/101 100/100/100 163/163/163
f 101/101/101 163/163/163 113/113/113
f 113/113/113 163/163/163 157/157/157
f 113/113/113 157/157/157 110/110/110
f 163/163/163 164/164/164 162/162/162
f 163/163/163 162/162/162 157/157/157
f 100/100/100 103/103/103 164/164/164
f 100/100/100 164/164/164 163/163/163
f 109/109/109 159/159/159 165/165/165
f 109/109/109 165/165/165 116/116/116
f 116/116/116 165/165/165 166/166/166
f 116/116/116 166/166/166 117/117/117
f 165/165/165 167/167/167 168/168/168
f 165/165/165 168/168/168 166/166/166
f 159/159/159 161/161/161 167/167/167
f 159/159/159 167/167/167 165/165/165
f 117/117/117 166/166/166 169/169/169
f 117/117/117 169/169/169 120/120/120
f 120/120/120 169/169/169 145/145/145
f 120/120/120 145/145/145 121/121/121
f 169/169/169 170/170/170 150/150/150
f 169/169/169 150/150/150 145/145/145
f 166/166/166 168/168/168 170/170/170
f 166/166/166 170/170/170 169/169/169
f 128/128/128 171/171/171 172/172/172
f 128/128/128 172/172/172 129/129/129
f 129/129/129 172/172/172 173/173/173
f 129/129/129 173/173/173 144/144/144
f 172/172/172 153/153/153 154/154/154
f 172/172/172 154/154/154 173/173/173
f 171/171/171 104/104/104 153/153/153
f 171/171/171 153/153/153 172/172/172
f 138/138/138 174/174/174 175/175/175
f 138/138/138 175/175/175 137/137/137
f 137/137/137 175/175/175 176/176/176
f 137/137/137 176/176/176 136/136/136
f 175/175/175 167/167/167 161/161/161
f 175/175/175 161/161/161 176/176/176
f 174/174/174 168/168/168 167/167/167
f 174/174/174 167/167/167 175/175/175
f 142/142/142 177/177/177 178/178/178
f 142/142/142 178/178/178 141/141/141
f 141/141/141 178/178/178 179/179/179
f 141/141/141 179/179/179 140/140/140
f 178/178/178 148/148/148 150/150/150
f 178/178/178 150/150/150 179/179/179
f 177/177/177 149/149/149 148/148/148
f 177/177/177 148/148/148 178/178/178
f 134/134/134 180/180/180 181/181/181
f 134/134/134 181/181/181 133/133/133
f 133/133/133 181/181/181 182/182/182
f 133/133/133 182/182/182 132/132/132
f 181/181/181 164/164/164 103/103/103
f 181/181/181 103/103/103 182/182/182
f 180/180/180 162/162/162 164/164/164
f 180/180/180 164/164/164 181/181/181
f 132/132/132 182/182/182 183/183/183
f 132/132/132 183/183/183 131/131/131
f 131/131/131 183/183/183 171/171/171
f 131/131/131 171/171/171 128/128/128
f 183/183/183 102/102/102 104/104/104
f 183/183/183 104/104/104 171/171/171
f 182/182/182 103/103/103 102/102/102
f 182/182/182 102/102/102 183/183/183
f 136/136/136 176/176/176 184/184/184
f 136/136/136 184/184/184 135/135/135
f 135/135/135 184/184/184 180/180/180
f 135/135/135 180/180/180 134/134/134
f 184/184/184 160/160/160 162/162/162
f 184/184/184 162/162/162 180/180/180
f 176/176/176 161/161/161 160/160/160
f 176/176/176 160/160/160 184/184/184
f 140/140/140 179/179/179 185/185/185
f 140/140/140 185/185/185 139/139/139
f 139/139/139 185/185/185 174/174/174
f 139/139/139 174/174/174 138/138/138
f 185/185/185 170/170/170 168/168/168
f 185/185/185 168/168/168 174/174/174
f 179/179/179 150/150/150 170/170/170
f 179/179/179 170/170/170 185/185/185
f 144/144/144 173/173/173 186/186/186
f 144/144/144 186/186/186 143/143/143
f 143/143/143 186/186/186 177/177/177
f 143/143/143 177/177/177 142/142/142
f 186/186/186 156/156/156 149/149/149
f 186/186/186 149/149/149 177/177/177
f 173/173/173 154/154/154 156/156/156
f 173/173/173 156/156/156 186/186/186
f 187/187/187 188/188/188 189/189/189
f 187/187/187 189/189/189 190/190/190
f 190/190/190 189/189/189 191/191/191
f 190/190/190 191/191/191 192/192/192
f 189/189/189 62/62/62 24/24/24
f 189/189/189 24/24/24 191/191/191
f 188/188/188 52/52/52 62/62/62
f 188/188/188 62/62/62 189/189/189
f 193/193/193 194/194/194 195/195/195
f 193/193/193 195/195/195 196/196/196
f 196/196/196 195/195/195 58/58/58
f 196/196/196 58/58/58 45/45/45
f 195/195/195 197/197/197 10/10/10
f 195/195/195 10/10/10 58/58/58
f 194/194/194 198/198/198 197/197/197
f 194/194/194 197/197/197 195/195/195
f 187/187/187 199/199/199 200/200/200
f 187/187/187 200/200/200 188/188/188
f 188/188/188 200/200/200 53/53/53
f 188/188/188 53/53/53 52/52/52
f 200/200/200 201/201/201 46/46/46
f 200/200/200 46/46/46 53/53/53
f 199/199/199 202/202/202 201/201/201
f 199/199/199 201/201/201 200/200/200
f 202/202/202 203/203/203 204/204/204
f 202/202/202 204/204/204 201/201/201
f 201/201/201 204/204/204 47/47/47
f 201/201/201 47/47/47 46/46/46
f 204/204/204 205/205/205 34/34/34
f 204/204/204 34/34/34 47/47/47
f 203/203/203 206/206/206 205/205/205
f 203/203/203 205/205/205 204/204/204
f 207/207/207 208/208/208 209/209/209
f 207/207/207 209/209/209 210/210/210
f 210/210/210 209/209/209 42/42/42
f 210/210/210 42/42/42 41/41/41
f 209/209/209 196/196/196 45/45/45
f 209/209/209 45/45/45 42/42/42
f 208/208/208 193/193/193 196/196/196
f 208/208/208 196/196/196 209/209/209
f 206/206/206 211/211/211 212/212/212
f 206/206/206 212/212/212 205/205/205
f 205/205/205 212/212/212 35/35/35
f 205/205/205 35/35/35 34/34/34
f 212/212/212 210/210/210 41/41/41
f 212/212/212 41/41/41 35/35/35
f 211/211/211 207/207/207 210/210/210
f 211/211/211 210/210/210 212/212/212
f 213/213/213 214/214/214 215/215/215
f 213/213/213 215/215/215 216/216/216
f 216/216/216 215/215/215 19/19/19
f 216/216/216 19/19/19 18/18/18
f 215/215/215 191/191/191 24/24/24
f 215/215/215 24/24/24 19/19/19
f 214/214/214 192/192/192 191/191/191
f 214/214/214 191/191/191 215/215/215
f 198/198/198 217/217/217 218/218/218
f 198/198/198 218/218/218 197/197/197
f 197/197/197 218/218/218 11/11/11
f 197/197/197 11/11/11 10/10/10
f 218/218/218 216/216/216 18/18/18
f 218/218/218 18/18/18 11/11/11
f 217/217/217 213/213/213 216/216/216
f 217/217/217 216/216/216 218/218/218
f 219/219/219 220/220/220 221/221/221
f 219/219/219 221/221/221 222/222/222
f 222/222/222 221/221/221 223/223/223
f 222/222/222 223/223/223 224/224/224
f 221/221/221 225/225/225 226/226/226
f 221/221/221 226/226/226 223/223/223
f 220/220/220 227/227/227 225/225/225
f 220/220/220 225/225/225 221/221/221
f 227/227/227 228/228/228 229/229/229
f 227/227/227 229/229/229 225/225/225
f 225/225/225 229/229/229 230/230/230
f 225/225/225 230/230/230 226/226/226
f 229/229/229 231/231/231 232/232/232
f 229/229/229 232/232/232 230/230/230
f 228/228/228 233/233/233 231/231/231
f 228/228/228 231/231/231 229/229/229
f 234/234/234 235/235/235 236/236/236
f 234/234/234 236/236/236 237/237/237
f 237/237/237 236/236/236 238/238/238
f 237/237/237 238/238/238 239/239/239
f 236/236/236 240/240/240 241/241/241
f 236/236/236 241/241/241 238/238/238
f 235/235/235 242/242/242 240/240/240
f 235/235/235 240/240/240 236/236/236
f 242/242/242 243/243/243 244/244/244
f 242/242/242 244/244/244 240/240/240
f 240/240/240 244/244/244 245/245/245
f 240/240/240 245/245/245 241/241/241
f 244/244/244 246/246/246 247/247/247
f 244/244/244 247/247/247 245/245/245
f 243/243/243 248/248/248 246/246/246
f 243/243/243 246/246/246 244/244/244
f 249/249/249 250/250/250 251/251/251
f 249/249/249 251/251/251 252/252/252
f 252/252/252 251/251/251 253/253/253
f 252/252/252 253/253/253 254/254/254
f 251/251/251 237/237/237 239/239/239
f 251/251/251 239/239/239 253/253/253
f 250/250/250 234/234/234 237/237/237
f 250/250/250 237/237/237 251/251/251
f 255/255/255 256/256/256 257/257/257
f 255/255/255 257/257/257 258/258/258
f 258/258/258 257/257/257 259/259/259
f 258/258/258 259/259/259 260/260/260
f 257/257/257 252/252/252 254/254/254
f 257/257/257 254/254/254 259/259/259
f 256/256/256 249/249/249 252/252/252
f 256/256/256 252/252/252 257/257/257
f 248/248/248 261/261/261 262/262/262
f 248/248/248 262/262/262 246/246/246
f 246/246/246 262/262/262 263/263/263
f 246/246/246 263/263/263 247/247/247
f 262/262/262 222/222/222 224/224/224
f 262/262/262 224/224/224 263/263/263
f 261/261/261 219/219/219 222/222/222
f 261/261/261 222/222/222 262/262/262
f 255/255/255 258/258/258 264/264/264
f 255/255/255 264/264/264 265/265/265
f 265/265/265 264/264/264 231/231/231
f 265/265/265 231/231/231 233/233/233
f 264/264/264 266/266/266 232/232/232
f 264/264/264 232/232/232 231/231/231
f 258/258/258 260/260/260 266/266/266
f 258/258/258 266/266/266 264/264/264
f 267/267/267 268/268/268 269/269/269
f 267/267/267 269/269/269 270/270/270
f 270/270/270 269/269/269 271/271/271
f 270/270/270 271/271/271 272/272/272
f 269/269/269 273/273/273 274/274/274
f 269/269/269 274/274/274 271/271/271
f 268/268/268 275/275/275 273/273/273
f 268/268/268 273/273/273 269/269/269
f 1/1/1 276/276/276 277/277/277
f 1/1/1 277/277/277 2/2/2
f 2/2/2 277/277/277 278/278/278
f 2/2/2 278/278/278 9/9/9
f 277/277/277 279/279/279 280/280/280
f 277/277/277 280/280/280 278/278/278
f 276/276/276 281/281/281 279/279/279
f 276/276/276 279/279/279 277/277/277
f 281/281/281 282/282/282 283/283/283
f 281/281/281 283/283/283 279/279/279
f 279/279/279 283/283/283 284/284/284
f 279/279/279 284/284/284 280/280/280
f 283/283/283 285/285/285 286/286/286
f 283/283/283 286/286/286 284/284/284
f 282/282/282 287/287/287 285/285/285
f 282/282/282 285/285/285 283/283/283
f 288/288/288 289/289/289 290/290/290
f 288/288/288 290/290/290 291/291/291
f 291/291/291 290/290/290 292/292/292
f 291/291/291 292/292/292 293/293/293
f 290/290/290 270/270/270 272/272/272
f 290/290/290 272/272/272 292/292/292
f 289/289/289 267/267/267 270/270/270
f 289/289/289 270/270/270 290/290/290
f 287/287/287 294/294/294 295/295/295
f 287/287/287 295/295/295 285/285/285
f 285/285/285 295/295/295 296/296/296
f 285/285/285 296/296/296 286/286/286
f 295/295/295 291/291/291 293/293/293
f 295/295/295 293/293/293 296/296/296
f 294/294/294 288/288/288 291/291/291
f 294/294/294 291/291/291 295/295/295
f 297/297/297 298/298/298 299/299/299
f 297/297/297 299/299/299 300/300/300
f 300/300/300 299/299/299 301/301/301
f 300/300/300 301/301/301 302/302/302
f 299/299/299 5/5/5 8/8/8
f 299/299/299 8/8/8 301/301/301
f 298/298/298 6/6/6 5/5/5
f 298/298/298 5/5/5 299/299/299
f 275/275/275 303/303/303 304/304/304
f 275/275/275 304/304/304 273/273/273
f 273/273/273 304/304/304 305/305/305
f 273/273/273 305/305/305 274/274/274
f 304/304/304 300/300/300 302/302/302
f 304/304/304 302/302/302 305/305/305
f 303/303/303 297/297/297 300/300/300
f 303/303/303 300/300/300 304/304/304
f 9/9/9 306/306/306 307/307/307
f 9/9/9 307/307/307 7/7/7
f 7/7/7 307/307/307 308/308/308
f 7/7/7 308/308/308 8/8/8
f 307/307/307 265/265/265 233/233/233
f 307/307/307 233/233/233 308/308/308
f 306/306/306 255/255/255 265/265/265
f 306/306/306 265/265/265 307/307/307
f 272/272/272 271/271/271 309/309/309
f 272/272/272 309/309/309 310/310/310
f 310/310/310 309/309/309 261/261/261
f 310/310/310 261/261/261 248/248/248
f 309/309/309 311/311/311 219/219/219
f 309/309/309 219/219/219 261/261/261
f 271/271/271 274/274/274 311/311/311
f 271/271/271 311/311/311 309/309/309
f 9/9/9 278/278/278 312/312/312
f 9/9/9 312/312/312 306/306/306
f 306/306/306 312/312/312 256/256/256
f 306/306/306 256/256/256 255/255/255
f 312/312/312 313/313/313 249/249/249
f 312/312/312 249/249/249 256/256/256
f 278/278/278 280/280/280 313/313/313
f 278/278/278 313/313/313 312/312/312
f 280/280/280 284/284/284 314/314/314
f 280/280/280 314/314/314 313/313/313
f 313/313/313 314/314/314 250/250/250
f 313/313/313 250/250/250 249/249/249
f 314/314/314 315/315/315 234/234/234
f 314/314/314 234/234/234 250/250/250
f 284/284/284 286/286/286 315/315/315
f 284/284/284 315/315/315 314/314/314
f 293/293/293 292/292/292 316/316/316
f 293/293/293 316/316/316 317/317/317
f 317/317/317 316/316/316 243/243/243
f 317/317/317 243/243/243 242/242/242
f 316/316/316 310/310/310 248/248/248
f 316/316/316 248/248/248 243/243/243
f 292/292/292 272/272/272 310/310/310
f 292/292/292 310/310/310 316/316/316
f 286/286/286 296/296/296 318/318/318
f 286/286/286 318/318/318 315/315/315
f 315/315/315 318/318/318 235/235/235
f 315/315/315 235/235/235 234/234/234
f 318/318/318 317/317/317 242/242/242
f 318/318/318 242/242/242 235/235/235
f 296/296/296 293/293/293 317/317/317
f 296/296/296 317/317/317 318/318/318
f 302/302/302 301/301/301 319/319/319
f 302/302/302 319/319/319 320/320/320
f 320/320/320 319/319/319 228/228/228
f 320/320/320 228/228/228 227/227/227
f 319/319/319 308/308/308 233/233/233
f 319/319/319 233/233/233 228/228/228
f 301/301/301 8/8/8 308/308/308
f 301/301/301 308/308/308 319/319/319
f 274/274/274 305/305/305 321/321/321
f 274/274/274 321/321/321 311/311/311
f 311/311/311 321/321/321 220/220/220
f 311/311/311 220/220/220 219/219/219
f 321/321/321 320/320/320 227/227/227
f 321/321/321 227/227/227 220/220/220
f 305/305/305 302/302/302 320/320/320
f 305/305/305 320/320/320 321/321/321
f 224/224/224 223/223/223 322/322/322
f 224/224/224 322/322/322 323/323/323
f 323/323/323 322/322/322 217/217/217
f 323/323/323 217/217/217 198/198/198
f 322/322/322 324/324/324 213/213/213
f 322/322/322 213/213/213 217/217/217
f 223/223/223 226/226/226 324/324/324
f 223/223/223 324/324/324 322/322/322
f 226/226/226 230/230/230 325/325/325
f 226/226/226 325/325/325 324/324/324
f 324/324/324 325/325/325 214/214/214
f 324/324/324 214/214/214 213/213/213
f 325/325/325 326/326/326 192/192/192
f 325/325/325 192/192/192 214/214/214
f 230/230/230 232/232/232 326/326/326
f 230/230/230 326/326/326 325/325/325
f 239/239/239 238/238/238 327/327/327
f 239/239/239 327/327/327 328/328/328
f 328/328/328 327/327/327 211/211/211
f 328/328/328 211/211/211 206/206/206
f 327/327/327 329/329/329 207/207/207
f 327/327/327 207/207/207 211/211/211
f 238/238/238 241/241/241 329/329/329
f 238/238/238 329/329/329 327/327/327
f 241/241/241 245/245/245 330/330/330
f 241/241/241 330/330/330 329/329/329
f 329/329/329 330/330/330 208/208/208
f 329/329/329 208/208/208 207/207/207
f 330/330/330 331/331/331 193/193/193
f 330/330/330 193/193/193 208/208/208
f 245/245/245 247/247/247 331/331/331
f 245/245/245 331/331/331 330/330/330
f 254/254/254 253/253/253 332/332/332
f 254/254/254 332/332/332 333/333/333
f 333/333/333 332/332/332 203/203/203
f 333/333/333 203/203/203 202/202/202
f 332/332/332 328/328/328 206/206/206
f 332/332/332 206/206/206 203/203/203
f 253/253/253 239/239/239 328/328/328
f 253/253/253 328/328/328 332/332/332
f 260/260/260 259/259/259 334/334/334
f 260/260/260 334/334/334 335/335/335
f 335/335/335 334/334/334 199/199/199
f 335/335/335 199/199/199 187/187/187
f 334/334/334 333/333/333 202/202/202
f 334/334/334 202/202/202 199/199/199
f 259/259/259 254/254/254 333/333/333
f 259/259/259 333/333/333 334/334/334
f 247/247/247 263/263/263 336/336/336
f 247/247/247 336/336/336 331/331/331
f 331/331/331 336/336/336 194/194/194
f 331/331/331 194/194/194 193/193/193
f 336/336/336 323/323/323 198/198/198
f 336/336/336 198/198/198 194/194/194
f 263/263/263 224/224/224 323/323/323
f 263/263/263 323/323/323 336/336/336
f 260/260/260 335/335/335 337/337/337
f 260/260/260 337/337/337 266/266/266
f 266/266/266 337/337/337 326/326/326
f 266/266/266 326/326/326 232/232/232
f 337/337/337 190/190/190 192/192/192
f 337/337/337 192/192/192 326/326/326
f 335/335/335 187/187/187 190/190/190
f 335/335/335 190/190/190 337/337/337
