v -0.28135 -1.48167 0.119438
v -0.28045 -1.48463 0.11746
v -0.281971 -1.48346 0.11511
v -0.282545 -1.48079 0.117573
v -0.284357 -1.48237 0.113558
v -0.284421 -1.47996 0.116338
v -0.281685 -1.48654 0.112446
v -0.284501 -1.48523 0.110624
v -0.279889 -1.48794 0.115207
v -0.310748 -1.52279 0.0841595
v -0.30728 -1.52139 0.0801235
v -0.309795 -1.52996 0.0724476
v -0.313355 -1.53118 0.0766553
v -0.31251 -1.54027 0.0631797
v -0.316079 -1.54104 0.0676944
v -0.304885 -1.52987 0.0695429
v -0.307616 -1.54064 0.0600574
v -0.302502 -1.52106 0.0773455
v -0.297103 -1.52184 0.0763016
v -0.299307 -1.53082 0.0684281
v -0.302024 -1.54181 0.0588531
v -0.293896 -1.53257 0.0692388
v -0.296516 -1.54346 0.0597121
v -0.291907 -1.52356 0.0771092
v -0.317351 -1.54604 0.0782665
v -0.32001 -1.55593 0.0693758
v -0.317341 -1.55879 0.0743052
v -0.314658 -1.54908 0.0828636
v -0.312713 -1.5614 0.0776095
v -0.310153 -1.55178 0.0859736
v -0.319165 -1.5665 0.067158
v -0.314553 -1.56893 0.0704959
v -0.321737 -1.56393 0.0621186
v -0.294563 -1.53582 0.0998938
v -0.299975 -1.5351 0.100941
v -0.302134 -1.54399 0.094489
v -0.296486 -1.54475 0.0933376
v -0.304486 -1.5537 0.0869456
v -0.298606 -1.55454 0.0856812
v -0.30755 -1.54215 0.0935933
v -0.305166 -1.53336 0.100113
v -0.309328 -1.53084 0.0974857
v -0.311887 -1.5395 0.0907391
v -0.314521 -1.53645 0.0864987
v -0.311866 -1.52794 0.0935359
v -0.286264 -1.53387 0.0930153
v -0.289756 -1.53538 0.0970869
v -0.291477 -1.54428 0.0902812
v -0.287845 -1.5427 0.085903
v -0.293474 -1.55412 0.0823438
v -0.289823 -1.55257 0.0775911
v -0.285154 -1.52875 0.0836202
v -0.284664 -1.53153 0.0882914
v -0.286197 -1.54028 0.0809024
v -0.286746 -1.53751 0.0760061
v -0.288238 -1.55021 0.0722024
v -0.288937 -1.54763 0.0669499
v -0.312341 -1.5251 0.0888618
v -0.315004 -1.5335 0.0815683
v -0.317791 -1.54313 0.072962
v -0.289483 -1.53486 0.0719199
v -0.287719 -1.52597 0.0796997
v -0.291898 -1.54538 0.0625759
v -0.302503 -1.5653 0.0410046
v -0.304132 -1.57043 0.0379706
v -0.30888 -1.56954 0.036879
v -0.307602 -1.56423 0.0399296
v -0.313419 -1.56809 0.0381596
v -0.312538 -1.56276 0.041245
v -0.309283 -1.57143 0.0373159
v -0.313453 -1.57009 0.0384986
v -0.304924 -1.57224 0.0383457
v -0.300749 -1.5643 0.0772978
v -0.295651 -1.56403 0.0737448
v -0.292182 -1.56265 0.0686469
v -0.297714 -1.57174 0.0665912
v -0.294542 -1.57058 0.0613799
v -0.302593 -1.57186 0.0701855
v -0.290824 -1.56049 0.0628093
v -0.291769 -1.55829 0.0570916
v -0.293435 -1.56868 0.0553295
v -0.294559 -1.56691 0.0493484
v -0.318521 -1.55172 0.0578561
v -0.320316 -1.55333 0.0636161
v -0.321892 -1.5617 0.0561305
v -0.320057 -1.56062 0.0500748
v -0.294967 -1.5567 0.052328
v -0.299688 -1.55542 0.0491957
v -0.297851 -1.56597 0.0443335
v -0.310408 -1.55268 0.0495056
v -0.315061 -1.55168 0.0529116
v -0.316812 -1.56124 0.0448437
v -0.305071 -1.55404 0.0482238
v -0.306809 -1.56335 0.0786404
v -0.308613 -1.57084 0.0715368
v -0.319606 -1.56772 0.0465048
v -0.318691 -1.56883 0.0470593
v -0.319979 -1.5695 0.051632
v -0.32118 -1.56838 0.0517848
v -0.319765 -1.57102 0.0560354
v -0.321083 -1.57009 0.0568979
v -0.318304 -1.56846 0.0530216
v -0.317976 -1.56985 0.0567385
v -0.317288 -1.56771 0.0491702
v -0.315128 -1.57275 0.0663269
v -0.309515 -1.57452 0.0673074
v -0.303886 -1.57551 0.0660366
v -0.309827 -1.57573 0.0648272
v -0.304811 -1.57662 0.0636956
v -0.314857 -1.57415 0.0639539
v -0.321938 -1.56821 0.0584092
v -0.319513 -1.57052 0.0631823
v -0.318843 -1.57216 0.061153
v -0.299403 -1.57546 0.0626484
v -0.296536 -1.57445 0.0577126
v -0.300808 -1.57659 0.0606772
v -0.29822 -1.57572 0.0562769
v -0.295562 -1.57279 0.051941
v -0.29665 -1.57134 0.0461775
v -0.29729 -1.57427 0.0511191
v -0.298205 -1.57301 0.0459207
v -0.320248 -1.5655 0.0468398
v -0.322012 -1.56628 0.052689
v -0.299763 -1.57076 0.0412725
v -0.30097 -1.57253 0.0414195
v -0.31729 -1.56639 0.0417132
v -0.316958 -1.56854 0.0417974
v -0.312694 -1.56062 0.0570388
v -0.310467 -1.55991 0.0561542
v -0.306349 -1.56031 0.0614887
v -0.312356 -1.56082 0.0600394
v -0.313079 -1.56244 0.0618152
v -0.311057 -1.56275 0.0638427
v -0.309894 -1.56461 0.0651307
v -0.307222 -1.56434 0.065344
v -0.304971 -1.56582 0.0649877
v -0.303195 -1.5647 0.0636091
v -0.301338 -1.56535 0.0614651
v -0.301294 -1.56358 0.0597018
v -0.300943 -1.56357 0.0566775
v -0.302613 -1.5619 0.0559056
v -0.304192 -1.56184 0.0533531
v -0.306461 -1.56053 0.0544264
v -0.309071 -1.56059 0.0535
v -0.299461 -1.57358 0.0465562
v -0.301845 -1.573 0.0426208
v -0.305347 -1.57256 0.0399113
v -0.302148 -1.57117 0.045417
v -0.305199 -1.57048 0.0431483
v -0.300135 -1.57196 0.0487238
v -0.31312 -1.57059 0.0400347
v -0.316329 -1.56938 0.04294
v -0.315174 -1.5679 0.0457095
v -0.31222 -1.56869 0.0432695
v -0.309297 -1.57174 0.0389965
v -0.308734 -1.56963 0.0423903
v -0.314244 -1.57456 0.0621071
v -0.309888 -1.57593 0.0628584
v -0.305532 -1.5767 0.061884
v -0.309466 -1.57409 0.0625086
v -0.30572 -1.57475 0.06168
v -0.313179 -1.57292 0.0618743
v -0.317734 -1.57283 0.0596968
v -0.316169 -1.57143 0.0598344
v -0.301997 -1.57669 0.0592854
v -0.299653 -1.57597 0.0554981
v -0.30261 -1.57476 0.0594755
v -0.300486 -1.57415 0.0562685
v -0.298743 -1.57473 0.0510561
v -0.299598 -1.57307 0.0525159
v -0.315113 -1.56371 0.0533902
v -0.313186 -1.56352 0.0507132
v -0.310601 -1.56401 0.0486611
v -0.300658 -1.56953 0.0591996
v -0.302556 -1.56997 0.061902
v -0.305224 -1.57007 0.0637338
v -0.304441 -1.56559 0.0485097
v -0.301887 -1.56638 0.050409
v -0.300217 -1.56742 0.0529687
v -0.311533 -1.56852 0.0639077
v -0.313992 -1.56715 0.0622224
v -0.315607 -1.56583 0.0596239
v -0.31587 -1.56448 0.0566017
v -0.308383 -1.56942 0.0644367
v -0.299872 -1.56845 0.0561441
v -0.307497 -1.56467 0.0480642
v -0.283068 -1.51512 0.0953975
v -0.283961 -1.52151 0.089866
v -0.286408 -1.5188 0.0860322
v -0.285407 -1.51262 0.0916422
v -0.290406 -1.51644 0.0834748
v -0.289212 -1.51042 0.0891111
v -0.307299 -1.51417 0.104568
v -0.307773 -1.51177 0.100249
v -0.310007 -1.51805 0.0949019
v -0.309534 -1.52069 0.0993968
v -0.308489 -1.51586 0.0903421
v -0.306355 -1.50979 0.0958393
v -0.282596 -1.51753 0.0997714
v -0.283488 -1.52415 0.0943887
v -0.285005 -1.52633 0.098923
v -0.284012 -1.5195 0.104126
v -0.287152 -1.52071 0.107837
v -0.288336 -1.52771 0.102797
v -0.292929 -1.52809 0.10545
v -0.291497 -1.52102 0.110374
v -0.301143 -1.51882 0.110558
v -0.304954 -1.51664 0.108175
v -0.307088 -1.5234 0.10316
v -0.303089 -1.52576 0.105647
v -0.296412 -1.52035 0.111314
v -0.298112 -1.5274 0.106434
v -0.298858 -1.50821 0.0892941
v -0.29394 -1.50888 0.0882993
v -0.295384 -1.5148 0.0826619
v -0.300566 -1.5141 0.0836736
v -0.303209 -1.50855 0.09198
v -0.305158 -1.51449 0.0863976
v -0.299861 -1.49133 0.110367
v -0.297319 -1.49069 0.10705
v -0.298338 -1.49417 0.10477
v -0.300955 -1.49492 0.10822
v -0.299522 -1.49806 0.101877
v -0.302246 -1.49896 0.105451
v -0.294668 -1.49409 0.102371
v -0.295723 -1.49788 0.099366
v -0.293745 -1.49068 0.104774
v -0.289661 -1.49132 0.103935
v -0.290486 -1.49472 0.101486
v -0.291407 -1.4985 0.0984384
v -0.286429 -1.49595 0.102217
v -0.287236 -1.4998 0.099208
v -0.285688 -1.4925 0.104623
v -0.287027 -1.49907 0.123237
v -0.291136 -1.49842 0.124066
v -0.292127 -1.50254 0.122087
v -0.287933 -1.50318 0.12125
v -0.293283 -1.50733 0.119525
v -0.288966 -1.50797 0.118677
v -0.296199 -1.50131 0.121404
v -0.297461 -1.50604 0.118835
v -0.295135 -1.49724 0.123387
v -0.298396 -1.4957 0.12126
v -0.299514 -1.49968 0.119262
v -0.30085 -1.50428 0.116671
v -0.301594 -1.49789 0.116028
v -0.302963 -1.50232 0.113399
v -0.300451 -1.49404 0.118052
v -0.28091 -1.49843 0.11769
v -0.283443 -1.49906 0.120984
v -0.284263 -1.50312 0.118979
v -0.281656 -1.50239 0.115658
v -0.285173 -1.50783 0.11638
v -0.28246 -1.50696 0.113018
v -0.280371 -1.49571 0.110004
v -0.279848 -1.49725 0.113836
v -0.280542 -1.50109 0.111762
v -0.281044 -1.49941 0.107849
v -0.281275 -1.50548 0.109069
v -0.281751 -1.5036 0.10507
v -0.300948 -1.4925 0.114229
v -0.302084 -1.49623 0.112163
v -0.303438 -1.50046 0.109481
v -0.283124 -1.4976 0.104487
v -0.282435 -1.49404 0.106772
v -0.283857 -1.5016 0.101585
v -0.292818 -1.4806 0.124101
v -0.293127 -1.4798 0.121876
v -0.295486 -1.48228 0.120548
v -0.295113 -1.48335 0.123369
v -0.297663 -1.48516 0.118848
v -0.297233 -1.48645 0.122171
v -0.294701 -1.48146 0.117714
v -0.296725 -1.48418 0.115512
v -0.29253 -1.4792 0.119635
v -0.28104 -1.48248 0.121663
v -0.280054 -1.48571 0.120273
v -0.279422 -1.48923 0.118519
v -0.280818 -1.48653 0.123116
v -0.280326 -1.49023 0.121868
v -0.281637 -1.48308 0.123904
v -0.283075 -1.48338 0.125815
v -0.282661 -1.48696 0.125547
v -0.282508 -1.49075 0.124736
v -0.285277 -1.48694 0.127209
v -0.285605 -1.49074 0.126699
v -0.285115 -1.48334 0.127119
v -0.289746 -1.48232 0.127201
v -0.291623 -1.48149 0.125966
v -0.293602 -1.48452 0.125741
v -0.29121 -1.48562 0.127314
v -0.295453 -1.48786 0.124968
v -0.292627 -1.48918 0.126824
v -0.287459 -1.48297 0.127597
v -0.288282 -1.48646 0.127819
v -0.289163 -1.49019 0.12742
v -0.289052 -1.47893 0.116419
v -0.286709 -1.47931 0.115941
v -0.287264 -1.48154 0.113061
v -0.290246 -1.48107 0.113664
v -0.287931 -1.48424 0.110043
v -0.291452 -1.48368 0.110751
v -0.291092 -1.47889 0.117724
v -0.292852 -1.48104 0.115305
v -0.294533 -1.48367 0.112679
v -0.27991 -1.49178 0.112559
v -0.281888 -1.49022 0.109512
v -0.284991 -1.48878 0.107501
v -0.299502 -1.4887 0.116576
v -0.299026 -1.49013 0.120233
v -0.298469 -1.48762 0.112901
v -0.279399 -1.49321 0.116206
v -0.280398 -1.49431 0.119892
v -0.282804 -1.49489 0.123048
v -0.286217 -1.49488 0.125207
v -0.297065 -1.49169 0.123308
v -0.293952 -1.49314 0.125348
v -0.290136 -1.49426 0.126002
v -0.288773 -1.48768 0.106859
v -0.292655 -1.48706 0.107643
v -0.296053 -1.48705 0.109774
v -0.301233 -1.50296 0.0973917
v -0.304152 -1.50404 0.101116
v -0.297179 -1.5027 0.0947795
v -0.292587 -1.50334 0.0938131
v -0.288163 -1.50475 0.0946104
v -0.294756 -1.51346 0.115816
v -0.290167 -1.51411 0.114929
v -0.299184 -1.51206 0.115098
v -0.302763 -1.5101 0.112838
v -0.304979 -1.50789 0.10942
v -0.286121 -1.51388 0.112526
v -0.283211 -1.51285 0.109012
v -0.281916 -1.51113 0.104883
v -0.282385 -1.50899 0.100708
v -0.30545 -1.50577 0.105324
v -0.284593 -1.50675 0.0970797
vt 0.0843 0.08419
vt 0.2604 0.9896
vt 0.08333 0.08333
vt 0.5 1
vt 0.5 1
vt 0.2612 0.01105
vt 0.2604 0.9896
vt 0.9896 0.7326
vt 1 0.4792
vt 0.7396 0.9896
vt 0.9896 0.2587
vt 0.08333 0.08333
vt 0.9896 0.25
vt 0.9167 0.08333
vt 0.2619 0.01169
vt 0.9896 0.2587
vt 0.2612 0.01105
vt 0.7396 0.9896
vt 0.9896 0.2604
vt 0.01042 0.2604
vt 0.9167 0.08333
vt 0.9896 0.2604
vt 0.5003 0.0008831
vt 0.7396 0.9896
vt 0.2619 0.01169
vt 0.9167 0.08333
vt 0.01042 0.2604
vt 0.9167 0.08333
vt 0.7396 0.01042
vt 0.2612 0.01105
vt 0.5 -1.192e-07
vt 0.08333 0.9167
vt 0.01042 0.7396
vt 0.9167 0.9167
vt 1 0.5
vt 0.01042 0.2604
vt 1 0.5
vt 0.9896 0.2604
vt 0.08526 0.08505
vt 0.9167 0.08333
vt 0.9167 0.9167
vt 1 0.4931
vt 0.01042 0.2604
vt 1 0.5
vt 0.7396 0.9896
vt 0.5 1
vt 0.9167 0.08333
vt 0 0.5
vt 1 0.4931
vt 0.9896 0.2604
vt 0.0843 0.08419
vt 0.5 1
vt 0.9167 0.08333
vt 0 0.5
vt 0.9896 0.2604
vt 0.9896 0.2604
vt 0.5002 0.0004414
vt 0.9896 0.2604
vt 0.01042 0.2604
vt 0.9167 0.08333
vt 0.01042 0.2604
vt 0.9896 0.2587
vt 0.9896 0.2604
vt 0.01042 0.7396
vt 0.08333 0.9167
vt 0 0.5
vt 0.5 -1.192e-07
vt 0.2604 0.9896
vt 0.08333 0.9167
vt 0.5 1
vt 0.01042 0.7396
vt 0 0.5
vt 0.7396 0.01042
vt 0 0.5
vt 0.9167 0.08333
vt 0.7396 0.01042
vt 0.08333 0.9167
vt 0.01042 0.7396
vt 0.08333 0.08333
vt 0.7396 0.01042
vt 0.7396 0.01042
vt 0.08333 0.9167
vt 0.9167 0.08333
vt 0.08333 0.08333
vt 0.5 -1.192e-07
vt 0.01042 0.7396
vt 0.01042 0.2604
vt 0.9167 0.08333
vt 0.7396 0.01042
vt 0.7396 0.01042
vt 0.01042 0.2604
vt 0.5 -1.192e-07
vt 0.9167 0.9167
vt 0.9167 0.9167
vt 0.7396 0.01042
vt 0 0.5
vt 0.2674 0.01042
vt 0.9896 0.7378
vt 0.5 1
vt 0.2639 0.01042
vt 0 0.5
vt 0.2674 0.01042
vt 0.08333 0.08333
vt 0.08333 0.08333
vt 0.2604 0.9896
vt 0.9896 0.7326
vt 0.08333 0.9167
vt 0.2604 0.9896
vt 0 0.5
vt 0.01042 0.7396
vt 0.2604 0.9896
vt 0.9896 0.7326
vt 0.5 1
vt 0.9896 0.7378
vt 0.08333 0.9167
vt 0.2604 0.9896
vt 0.01042 0.7396
vt 1 0.4931
vt 0.08333 0.9167
vt 0.2604 0.9896
vt 0.01042 0.7396
vt 0.2604 0.9896
vt 1 0.4167
vt 0.9896 0.7378
vt 0.2604 0.9896
vt 0.9896 0.7396
vt 0.5 1
vt 0.01042 0.2604
vt 0.08333 0.08333
vt 1 0.5
vt 0.01042 0.2604
vt 0.01042 0.2604
vt 0.01042 0.2604
vt 0 0.5
vt 0.01042 0.2604
vt 0.01042 0.2604
vt 0.08333 0.08333
vt 0 0.5
vt 0 0.5
vt 0 0.5
vt 0.01042 0.2604
vt 0.01042 0.2604
vt 0 0.5
vt 0 0.5
vt 0.08333 0.08333
vt 1 0.4931
vt 0.08333 0.08333
vt 0.2639 0.01042
vt 0.08333 0.08333
vt 0.01042 0.2604
vt 0.5208 -1.192e-07
vt 0.9167 0.9167
vt 0.5833 -1.192e-07
vt 0.01042 0.2604
vt 0.9167 0.9167
vt 0.08333 0.08333
vt 0.2674 0.01042
vt 0.9896 0.7396
vt 0.5833 -2.384e-07
vt 0.2639 0.01042
vt 0.08333 0.08333
vt 0.01042 0.2604
vt 0.9896 0.7378
vt 0.2674 0.01042
vt 0.08333 0.9167
vt 0.2639 0.01042
vt 0.5208 -1.192e-07
vt 0.01042 0.2604
vt 0.08392 0.9161
vt 0.08333 0.08333
vt 0.01042 0.2604
vt 0.2608 0.989
vt 0.01042 0.2604
vt 0 0.5
vt 0.2604 0.9896
vt 0 0.5
vt 0.08333 0.08333
vt 0.2604 0.9896
vt 0.08333 0.08333
vt 0.01042 0.2604
vt 0.2608 0.989
vt 0.01042 0.2604
vt 0.5 0.9995
vt 0.5 1
vt 0.2608 0.989
vt 0.2633 0.985
vt 0.9167 0.9167
vt 1 0.4167
vt 0.5 0.9958
vt 0.01042 0.7396
vt 0.9896 0.25
vt 0.7396 0.9896
vt 0.7396 0.9896
vt 0.01042 0.7396
vt 0.5 0.9995
vt 0.9896 0.2587
vt 0.01042 0.7396
vt 0.7396 0.9896
vt 0 0.5
vt 0.08392 0.9161
vt 0.01042 0.7396
vt 0.9167 0.9167
vt 0 0.5
vt 0.088 0.912
vt 0.9167 0.08333
vt 0.9167 0.9167
vt 0.9167 0.9167
vt 0.08333 0.9167
vt 0.2633 0.985
vt 0.08333 0.9167
vt 0.08333 0.9167
vt 0.2608 0.989
vt 0.7396 0.9896
vt 0.01042 0.7396
vt 0.9167 0.9167
vt 0.08333 0.9167
vt 0.01042 0.7396
vt 0.9167 0.9167
vt 0.9167 0.9167
vt 0.2622 0.01042
vt 0.9896 0.7396
vt 0.2622 0.01042
vt 0.7413 0.01042
vt 0.7396 0.9896
vt 0.08333 0.08333
vt 0.9167 0.9167
vt 0.9167 0.9167
vt 0.2604 0.01042
vt 0.9896 0.7396
vt 0.7396 0.01042
vt 0.5069 0
vt 0.7396 0.9896
vt 0.9167 0.9167
vt 0.9896 0.7326
vt 0.5 0
vt 0.9896 0.7396
vt 0.5833 -3.576e-07
vt 0.5 0
vt 0.7396 0.9896
vt 0.08333 0.08333
vt 0.9167 0.9167
vt 0.9896 0.7361
vt 0.5069 0
vt 0.9896 0.7396
vt 0.5069 0
vt 0.7413 0.01042
vt 0.5 1
vt 0.9167 0.9167
vt 0.9896 0.7326
vt 0.08333 0.08333
vt 1 0.5
vt 0.2674 0.01042
vt 0.9167 0.08333
vt 0.7396 0.9896
vt 0.9896 0.7361
vt 0.08333 0.08333
vt 1 0.5
vt 0.75 0.01042
vt 0.9167 0.08333
vt 0.5 1
vt 0.2604 0.01042
vt 0.9896 0.7396
vt 0.7396 0.01042
vt 0.9896 0.7396
vt 0.2622 0.01042
vt 0.7413 0.01042
vt 0.2604 0.01042
vt 0.7396 0.9896
vt 1 0.5
vt 0.2604 0.9896
vt 0.2604 0.9896
vt 0.9896 0.7361
vt 0.9896 0.2604
vt 0.9896 0.7326
vt 0.5 -1.192e-07
vt 0.5 1
vt 1 0.5
vt 0.5 1
vt 1 0.5
vt 1 0.4167
vt 0.2604 0.01042
vt 0.5 1
vt 0.9167 0.9167
vt 0.5 1
vt 0.5 1
vt 1 0.4167
vt 0.2612 0.01105
vt 0.5002 0.0004414
vt 0.7396 0.9896
vt 0.9167 0.9167
vt 0.9896 0.2604
vt 0.08333 0.9167
vt 1 0.4792
vt 0.5 1
vt 0.9896 0.7396
vt 0.08333 0.9167
vt 0.08333 0.08333
vt 0.7396 0.9896
vt 0.9896 0.7396
vt 1 0.5
vt 0.2604 0.9896
vt 0.9896 0.7361
vt 0.7396 0.9896
vt 0.5 1
vt 0.2604 0.9896
vt 0.5833 0
vt 0.5 1
vt 0.2622 0.01042
vt 0.7396 0.9896
vt 0.5069 0
vt 0.08333 0.9167
vt 0.7396 0.9896
vt 0.08333 0.9167
vt 0.7396 0.9896
vt 0.2674 0.01042
vt 0.7396 0.9896
vt 0.2604 0.9896
vt 0.9167 0.9167
vt 0.9167 0.9167
vt 0.2604 0.9896
vt 0.7396 0.9896
vt 0.7396 0.9896
vt 0.9167 0.08333
vt 0.7413 0.01042
vt 0.9167 0.9167
vt 0.01042 0.7396
vt 0.9167 0.9167
vt 0.01042 0.7396
vt 0.75 0.01042
vt 0.5 1
vt 0 0.5
vt 0.5 1
vt 0.9167 0.08333
vt 0.7396 0.9896
vt 0 0.5
vt 0.7396 0.9896
vt 1 0.5
vn 0.9099 0.3829 -0.1595
vn 0.9209 0.341 -0.1888
vn 0.7402 0.5054 -0.4434
vn 0.7349 0.5377 -0.4133
vn 0.4705 0.6445 -0.6027
vn 0.4708 0.6707 -0.5732
vn 0.7541 0.4252 -0.5006
vn 0.4723 0.581 -0.6627
vn 0.9416 0.2367 -0.2393
vn -0.8251 0.4984 -0.2659
vn -0.5642 0.6395 -0.5222
vn -0.5525 0.636 -0.5387
vn -0.8237 0.4928 -0.2804
vn -0.5376 0.6319 -0.5582
vn -0.8199 0.4849 -0.3042
vn -0.2146 0.6785 -0.7026
vn -0.1977 0.6745 -0.7113
vn -0.228 0.685 -0.6919
vn 0.135 0.6415 -0.7551
vn 0.1352 0.6347 -0.7608
vn 0.1368 0.6322 -0.7626
vn 0.4692 0.5189 -0.7145
vn 0.453 0.5218 -0.7228
vn 0.4833 0.5201 -0.7042
vn -0.9538 0.004151 0.3003
vn -0.9641 -0.008759 0.2654
vn -0.802 -0.2762 0.5296
vn -0.7923 -0.2512 0.556
vn -0.5072 -0.5034 0.6995
vn -0.5012 -0.4692 0.7271
vn -0.8067 -0.3348 0.487
vn -0.5091 -0.5584 0.655
vn -0.9744 -0.06522 0.2149
vn 0.2681 -0.6037 0.7508
vn -0.1141 -0.5629 0.8186
vn -0.1182 -0.5787 0.8069
vn 0.2719 -0.6187 0.7371
vn -0.1263 -0.6091 0.7829
vn 0.2702 -0.6459 0.714
vn -0.4906 -0.4431 0.7503
vn -0.4803 -0.4314 0.7636
vn -0.7711 -0.2277 0.5946
vn -0.7807 -0.2351 0.5789
vn -0.9453 0.01321 0.3258
vn -0.9401 0.02075 0.3403
vn 0.8587 -0.4009 0.3191
vn 0.6078 -0.548 0.5746
vn 0.6133 -0.5593 0.5576
vn 0.8595 -0.4115 0.3032
vn 0.6184 -0.5781 0.5324
vn 0.8621 -0.425 0.2759
vn 0.9543 0.08139 -0.2874
vn 0.9837 -0.1791 0.0173
vn 0.9817 -0.1903 0.004303
vn 0.9499 0.07605 -0.3031
vn 0.9787 -0.204 -0.0202
vn 0.9426 0.06861 -0.3267
vn -0.9598 0.2781 0.038
vn -0.9626 0.2694 0.02576
vn -0.9655 0.2604 3.052e-05
vn 0.7601 0.33 -0.5597
vn 0.7735 0.3282 -0.5422
vn 0.743 0.3334 -0.5803
vn 0.4394 0.419 -0.7945
vn 0.4196 -0.003876 -0.9077
vn 0.008087 0.121 -0.9926
vn 0.115 0.5363 -0.8361
vn -0.4185 0.1919 -0.8877
vn -0.2362 0.577 -0.7819
vn -0.1787 -0.6628 -0.7271
vn -0.5333 -0.5576 -0.6361
vn 0.1866 -0.7323 -0.6549
vn 0.2616 -0.6786 0.6863
vn 0.6198 -0.6036 0.5014
vn 0.8637 -0.444 0.2384
vn 0.6003 -0.6601 0.4515
vn 0.8422 -0.5065 0.1848
vn 0.2396 -0.7298 0.6403
vn 0.9729 -0.2248 -0.05408
vn 0.9332 0.04926 -0.3559
vn 0.9484 -0.3013 -0.0987
vn 0.9187 -0.04288 -0.3926
vn -0.818 0.4672 -0.3356
vn -0.9681 0.2477 -0.03809
vn -0.9791 0.1825 -0.08985
vn -0.8429 0.3846 -0.3764
vn 0.7277 0.3218 -0.6057
vn 0.4388 0.5108 -0.7393
vn 0.7287 0.2221 -0.6478
vn -0.1903 0.6587 -0.728
vn -0.5315 0.6148 -0.5826
vn -0.5795 0.5261 -0.6223
vn 0.1351 0.6178 -0.7746
vn -0.136 -0.6443 0.7526
vn -0.1495 -0.6931 0.7052
vn -0.8231 -0.4424 -0.356
vn -0.1942 -0.9789 -0.06351
vn -0.1138 -0.9641 -0.24
vn -0.8422 -0.4825 -0.2406
vn -0.09494 -0.9299 -0.3552
vn -0.8026 -0.5941 -0.05246
vn 0.7547 -0.6465 -0.1112
vn 0.7667 -0.4676 -0.4399
vn 0.5943 -0.779 0.1998
vn -0.5032 -0.6854 0.5262
vn -0.1791 -0.7996 0.5731
vn 0.1714 -0.8421 0.5113
vn -0.2182 -0.9287 0.2999
vn 0.03418 -0.9666 0.2537
vn -0.4518 -0.8527 0.262
vn -0.9573 -0.2673 0.1095
vn -0.7841 -0.4986 0.3695
vn -0.6605 -0.7373 0.1418
vn 0.5014 -0.7992 0.3313
vn 0.7259 -0.6827 0.08301
vn 0.2753 -0.9538 0.1198
vn 0.4458 -0.893 -0.06091
vn 0.8331 -0.5266 -0.1691
vn 0.8358 -0.3395 -0.4314
vn 0.5255 -0.8198 -0.2272
vn 0.5287 -0.7691 -0.359
vn -0.9036 0.08435 -0.42
vn -0.983 -0.06378 -0.1718
vn 0.7017 -0.1552 -0.6953
vn 0.4316 -0.7506 -0.5002
vn -0.7266 0.1787 -0.6634
vn -0.7457 -0.47 -0.4722
vn 0.5245 -0.8502 0.04468
vn 0.1649 -0.9776 0.1308
vn -0.2298 -0.8872 -0.4001
vn 0.4714 -0.8365 -0.2793
vn 0.6582 -0.5452 -0.5192
vn 0.3877 -0.5448 -0.7435
vn 0.2787 -0.1949 -0.9404
vn -0.1029 -0.3069 -0.9461
vn -0.3881 -0.04016 -0.9207
vn -0.6338 -0.3036 -0.7113
vn -0.8543 -0.184 -0.486
vn -0.8123 -0.5228 -0.2585
vn -0.8551 -0.5148 0.0604
vn -0.5952 -0.7914 0.139
vn -0.4446 -0.7931 0.4164
vn -0.2308 -0.9348 0.2698
vn 0.03858 -0.9118 0.4087
vn -0.265 -0.9624 -0.05902
vn -0.1849 -0.9808 0.06098
vn -0.1868 -0.9765 0.1074
vn -0.659 -0.6053 0.4465
vn -0.4155 -0.7143 0.5632
vn -0.8864 -0.4132 0.2086
vn -0.2893 -0.9507 0.1119
vn -0.2777 -0.9583 0.06659
vn 0.3291 -0.839 0.4333
vn 0.05527 -0.8284 0.5574
vn -0.2409 -0.9629 0.122
vn -0.1879 -0.7808 0.5959
vn -0.1281 -0.8563 -0.5002
vn -0.2151 -0.8211 -0.5287
vn -0.3029 -0.8187 -0.4878
vn -0.004181 0.0976 -0.9952
vn -0.3948 0.1349 -0.9088
vn 0.3569 -0.03977 -0.9333
vn -0.08792 -0.8974 -0.4322
vn 0.6312 -0.2465 -0.7354
vn -0.355 -0.8312 -0.4278
vn -0.3766 -0.8562 -0.3536
vn -0.7234 0.08475 -0.6851
vn -0.9162 -0.02857 -0.3997
vn -0.3595 -0.9046 -0.2289
vn -0.9762 -0.192 -0.1004
vn 0.6829 -0.7018 0.2024
vn 0.4216 -0.7927 0.4402
vn 0.1086 -0.8047 0.5837
vn -0.9127 0.1151 -0.3919
vn -0.691 0.2631 -0.6732
vn -0.3544 0.3249 -0.8768
vn -0.4501 -0.6699 0.5903
vn -0.7208 -0.5233 0.4545
vn -0.9238 -0.3173 0.214
vn 0.4172 0.1521 -0.896
vn 0.7015 -0.05383 -0.7107
vn 0.8526 -0.3029 -0.4259
vn 0.8467 -0.5194 -0.1153
vn 0.04553 0.2922 -0.9553
vn -0.9922 -0.07306 -0.1014
vn -0.1788 -0.7581 0.627
vn 0.9586 0.1069 -0.2639
vn 0.957 0.09073 -0.2754
vn 0.7825 0.3343 -0.5253
vn 0.7875 0.3471 -0.5092
vn 0.4942 0.5302 -0.6889
vn 0.5016 0.5446 -0.6721
vn -0.9311 0.0491 0.3615
vn -0.9501 0.3072 0.0539
vn -0.9561 0.2895 0.04535
vn -0.9361 0.03122 0.3504
vn -0.8233 0.5069 -0.2553
vn -0.8175 0.5214 -0.2444
vn 0.9885 -0.1469 0.03473
vn 0.9858 -0.166 0.02567
vn 0.8603 -0.3884 0.3301
vn 0.8641 -0.3697 0.3415
vn 0.6082 -0.5194 0.6003
vn 0.6056 -0.5371 0.5871
vn 0.2654 -0.5932 0.7601
vn 0.2676 -0.576 0.7724
vn -0.4666 -0.408 0.7847
vn -0.7581 -0.2037 0.6195
vn -0.7641 -0.2201 0.6064
vn -0.4729 -0.4239 0.7725
vn -0.1074 -0.5371 0.8366
vn -0.1116 -0.5535 0.8253
vn -0.2355 0.7135 -0.6599
vn 0.1407 0.6732 -0.7259
vn 0.1374 0.6563 -0.7419
vn -0.2344 0.6979 -0.6767
vn -0.5682 0.6606 -0.4906
vn -0.5693 0.6476 -0.5063
vn -0.829 0.4733 -0.2979
vn -0.5832 0.5827 -0.5659
vn -0.5997 0.5718 -0.5598
vn -0.8417 0.4527 -0.294
vn -0.5877 0.621 -0.5186
vn -0.8303 0.4906 -0.2643
vn -0.2654 0.6217 -0.7369
vn -0.2541 0.6754 -0.6923
vn -0.253 0.6225 -0.7406
vn 0.1159 0.5802 -0.8062
vn 0.1167 0.5817 -0.8049
vn 0.1303 0.6361 -0.7605
vn 0.4836 0.4494 -0.7511
vn 0.499 0.5028 -0.7058
vn 0.4719 0.4559 -0.7546
vn 0.2984 -0.4601 0.8362
vn -0.07614 -0.4111 0.9084
vn -0.082 -0.435 0.8966
vn 0.2896 -0.4841 0.8257
vn -0.09195 -0.4757 0.8748
vn 0.2792 -0.5202 0.8071
vn -0.4429 -0.315 0.8394
vn -0.4504 -0.3525 0.8203
vn -0.4397 -0.2893 0.8503
vn -0.7385 -0.11 0.6652
vn -0.7408 -0.1382 0.6573
vn -0.7451 -0.1642 0.6464
vn -0.925 0.07138 0.3731
vn -0.9251 0.065 0.3741
vn -0.9208 0.1007 0.3768
vn 0.8773 -0.3224 0.3554
vn 0.6327 -0.4301 0.6439
vn 0.6223 -0.4558 0.6363
vn 0.8682 -0.35 0.3518
vn 0.6147 -0.4796 0.6261
vn 0.8657 -0.3544 0.3533
vn 0.9459 0.05676 -0.3195
vn 0.9884 -0.1513 0.01373
vn 0.9838 -0.1787 0.01358
vn 0.9484 0.03207 -0.3154
vn 0.9868 -0.1589 0.02887
vn 0.9558 0.0723 -0.2848
vn -0.9513 0.3062 0.03412
vn -0.9595 0.2797 0.03388
vn -0.9535 0.2974 0.04855
vn 0.7738 0.2522 -0.581
vn 0.763 0.27 -0.5872
vn 0.7863 0.3025 -0.5387
vn -0.7302 0.4807 0.4854
vn -0.7574 0.6314 0.1661
vn -0.7949 0.5894 0.1433
vn -0.7729 0.4266 0.4697
vn -0.8703 0.4814 0.1042
vn -0.8497 0.2898 0.4404
vn -0.6813 0.712 -0.1698
vn -0.7457 0.6293 -0.219
vn -0.6523 0.7444 -0.1425
vn 0.9618 0.2284 0.1506
vn 0.9766 0.1742 0.1259
vn 0.9954 0.04297 0.08521
vn 0.8912 0.03378 0.4523
vn 0.8989 -0.1224 0.4207
vn 0.8772 0.1011 0.4693
vn 0.6696 0.02213 0.7424
vn 0.6763 -0.05576 0.7345
vn 0.6672 -0.2303 0.7084
vn 0.3665 -0.07709 0.9272
vn 0.3401 -0.2619 0.9031
vn 0.3721 0.006806 0.9282
vn -0.3 0.1656 0.9394
vn -0.5698 0.3153 0.7589
vn -0.611 0.2485 0.7516
vn -0.3334 0.08805 0.9387
vn -0.68 0.0864 0.7281
vn -0.3898 -0.09116 0.9163
vn 0.03143 0.05637 0.9979
vn 0.01126 -0.02722 0.9995
vn -0.03076 -0.2137 0.9764
vn -0.1572 0.8122 -0.5618
vn 0.1594 0.765 -0.6239
vn 0.1537 0.7418 -0.6527
vn -0.1692 0.7889 -0.5907
vn 0.1408 0.6869 -0.713
vn -0.1988 0.7335 -0.65
vn -0.4404 0.8057 -0.396
vn -0.4603 0.7795 -0.4248
vn -0.5078 0.7148 -0.4807
vn 0.9479 0.1338 -0.289
vn 0.7596 0.3408 -0.5538
vn 0.4707 0.513 -0.7177
vn -0.9249 0.3753 0.06064
vn -0.9013 0.1656 0.4002
vn -0.7968 0.5416 -0.2678
vn 0.9962 -0.07706 0.04074
vn 0.8892 -0.2558 0.3793
vn 0.6462 -0.3721 0.6662
vn 0.3112 -0.4082 0.8582
vn -0.7246 -0.05152 0.6872
vn -0.4281 -0.2366 0.8722
vn -0.06452 -0.3612 0.9302
vn 0.1269 0.6277 -0.768
vn -0.2272 0.6725 -0.7043
vn -0.5496 0.6432 -0.5331
vn -0.5708 0.6599 -0.4885
vn -0.8164 0.5238 -0.2429
vn -0.2394 0.7138 -0.6582
vn 0.1402 0.6742 -0.7252
vn 0.5045 0.5437 -0.6708
vn -0.101 -0.5124 0.8528
vn 0.2723 -0.5525 0.7877
vn -0.4595 -0.3849 0.8004
vn -0.7518 -0.1844 0.633
vn -0.9266 0.0633 0.3706
vn 0.6115 -0.4997 0.6134
vn 0.8665 -0.3554 0.3504
vn 0.9896 -0.1384 0.03836
vn 0.9587 0.1093 -0.2626
vn -0.9471 0.3157 0.05756
vn 0.7894 0.3455 -0.5074
f 1/1/1 2/2/2 3/3/3
f 1/1/1 3/3/3 4/4/4
f 4/4/4 3/3/3 5/5/5
f 4/4/4 5/5/5 6/6/6
f 3/3/3 7/7/7 8/8/8
f 3/3/3 8/8/8 5/5/5
f 2/2/2 9/9/9 7/7/7
f 2/2/2 7/7/7 3/3/3
f 10/10/10 11/11/11 12/12/12
f 10/10/10 12/12/12 13/13/13
f 13/13/13 12/12/12 14/14/14
f 13/13/13 14/14/14 15/15/15
f 12/12/12 16/16/16 17/17/17
f 12/12/12 17/17/17 14/14/14
f 11/11/11 18/18/18 16/16/16
f 11/11/11 16/16/16 12/12/12
f 18/18/18 19/19/19 20/20/20
f 18/18/18 20/20/20 16/16/16
f 16/16/16 20/20/20 21/21/21
f 16/16/16 21/21/21 17/17/17
f 20/20/20 22/22/22 23/23/23
f 20/20/20 23/23/23 21/21/21
f 19/19/19 24/24/24 22/22/22
f 19/19/19 22/22/22 20/20/20
f 25/25/25 26/26/26 27/27/27
f 25/25/25 27/27/27 28/28/28
f 28/28/28 27/27/27 29/29/29
f 28/28/28 29/29/29 30/30/30
f 27/27/27 31/31/31 32/32/32
f 27/27/27 32/32/32 29/29/29
f 26/26/26 33/33/33 31/31/31
f 26/26/26 31/31/31 27/27/27
f 34/34/34 35/35/35 36/36/36
f 34/34/34 36/36/36 37/37/37
f 37/37/37 36/36/36 38/38/38
f 37/37/37 38/38/38 39/39/39
f 36/36/36 40/40/40 30/30/30
f 36/36/36 30/30/30 38/38/38
f 35/35/35 41/41/41 40/40/40
f 35/35/35 40/40/40 36/36/36
f 41/41/41 42/42/42 43/43/43
f 41/41/41 43/43/43 40/40/40
f 40/40/40 43/43/43 28/28/28
f 40/40/40 28/28/28 30/30/30
f 43/43/43 44/44/44 25/25/25
f 43/43/43 25/25/25 28/28/28
f 42/42/42 45/45/45 44/44/44
f 42/42/42 44/44/44 43/43/43
f 46/46/46 47/47/47 48/48/48
f 46/46/46 48/48/48 49/49/49
f 49/49/49 48/48/48 50/50/50
f 49/49/49 50/50/50 51/51/51
f 48/48/48 37/37/37 39/39/39
f 48/48/48 39/39/39 50/50/50
f 47/47/47 34/34/34 37/37/37
f 47/47/47 37/37/37 48/48/48
f 52/52/52 53/53/53 54/54/54
f 52/52/52 54/54/54 55/55/55
f 55/55/55 54/54/54 56/56/56
f 55/55/55 56/56/56 57/57/57
f 54/54/54 49/49/49 51/51/51
f 54/54/54 51/51/51 56/56/56
f 53/53/53 46/46/46 49/49/49
f 53/53/53 49/49/49 54/54/54
f 45/45/45 58/58/58 59/59/59
f 45/45/45 59/59/59 44/44/44
f 44/44/44 59/59/59 60/60/60
f 44/44/44 60/60/60 25/25/25
f 59/59/59 13/13/13 15/15/15
f 59/59/59 15/15/15 60/60/60
f 58/58/58 10/10/10 13/13/13
f 58/58/58 13/13/13 59/59/59
f 52/52/52 55/55/55 61/61/61
f 52/52/52 61/61/61 62/62/62
f 62/62/62 61/61/61 22/22/22
f 62/62/62 22/22/22 24/24/24
f 61/61/61 63/63/63 23/23/23
f 61/61/61 23/23/23 22/22/22
f 55/55/55 57/57/57 63/63/63
f 55/55/55 63/63/63 61/61/61
f 64/64/64 65/65/65 66/66/66
f 64/64/64 66/66/66 67/67/67
f 67/67/67 66/66/66 68/68/68
f 67/67/67 68/68/68 69/69/69
f 66/66/66 70/70/70 71/71/71
f 66/66/66 71/71/71 68/68/68
f 65/65/65 72/72/72 70/70/70
f 65/65/65 70/70/70 66/66/66
f 39/39/39 73/73/73 74/74/74
f 39/39/39 74/74/74 50/50/50
f 50/50/50 74/74/74 75/75/75
f 50/50/50 75/75/75 51/51/51
f 74/74/74 76/76/76 77/77/77
f 74/74/74 77/77/77 75/75/75
f 73/73/73 78/78/78 76/76/76
f 73/73/73 76/76/76 74/74/74
f 51/51/51 75/75/75 79/79/79
f 51/51/51 79/79/79 56/56/56
f 56/56/56 79/79/79 80/80/80
f 56/56/56 80/80/80 57/57/57
f 79/79/79 81/81/81 82/82/82
f 79/79/79 82/82/82 80/80/80
f 75/75/75 77/77/77 81/81/81
f 75/75/75 81/81/81 79/79/79
f 15/15/15 83/83/83 84/84/84
f 15/15/15 84/84/84 60/60/60
f 60/60/60 84/84/84 26/26/26
f 60/60/60 26/26/26 25/25/25
f 84/84/84 85/85/85 33/33/33
f 84/84/84 33/33/33 26/26/26
f 83/83/83 86/86/86 85/85/85
f 83/83/83 85/85/85 84/84/84
f 57/57/57 80/80/80 87/87/87
f 57/57/57 87/87/87 63/63/63
f 63/63/63 87/87/87 88/88/88
f 63/63/63 88/88/88 23/23/23
f 87/87/87 89/89/89 64/64/64
f 87/87/87 64/64/64 88/88/88
f 80/80/80 82/82/82 89/89/89
f 80/80/80 89/89/89 87/87/87
f 17/17/17 90/90/90 91/91/91
f 17/17/17 91/91/91 14/14/14
f 14/14/14 91/91/91 83/83/83
f 14/14/14 83/83/83 15/15/15
f 91/91/91 92/92/92 86/86/86
f 91/91/91 86/86/86 83/83/83
f 90/90/90 69/69/69 92/92/92
f 90/90/90 92/92/92 91/91/91
f 23/23/23 88/88/88 93/93/93
f 23/23/23 93/93/93 21/21/21
f 21/21/21 93/93/93 90/90/90
f 21/21/21 90/90/90 17/17/17
f 93/93/93 67/67/67 69/69/69
f 93/93/93 69/69/69 90/90/90
f 88/88/88 64/64/64 67/67/67
f 88/88/88 67/67/67 93/93/93
f 30/30/30 29/29/29 94/94/94
f 30/30/30 94/94/94 38/38/38
f 38/38/38 94/94/94 73/73/73
f 38/38/38 73/73/73 39/39/39
f 94/94/94 95/95/95 78/78/78
f 94/94/94 78/78/78 73/73/73
f 29/29/29 32/32/32 95/95/95
f 29/29/29 95/95/95 94/94/94
f 96/96/96 97/97/97 98/98/98
f 96/96/96 98/98/98 99/99/99
f 99/99/99 98/98/98 100/100/100
f 99/99/99 100/100/100 101/101/101
f 98/98/98 102/102/102 103/103/103
f 98/98/98 103/103/103 100/100/100
f 97/97/97 104/104/104 102/102/102
f 97/97/97 102/102/102 98/98/98
f 32/32/32 105/105/105 106/106/106
f 32/32/32 106/106/106 95/95/95
f 95/95/95 106/106/106 107/107/107
f 95/95/95 107/107/107 78/78/78
f 106/106/106 108/108/108 109/109/109
f 106/106/106 109/109/109 107/107/107
f 105/105/105 110/110/110 108/108/108
f 105/105/105 108/108/108 106/106/106
f 33/33/33 111/111/111 112/112/112
f 33/33/33 112/112/112 31/31/31
f 31/31/31 112/112/112 105/105/105
f 31/31/31 105/105/105 32/32/32
f 112/112/112 113/113/113 110/110/110
f 112/112/112 110/110/110 105/105/105
f 111/111/111 101/101/101 113/113/113
f 111/111/111 113/113/113 112/112/112
f 78/78/78 107/107/107 114/114/114
f 78/78/78 114/114/114 76/76/76
f 76/76/76 114/114/114 115/115/115
f 76/76/76 115/115/115 77/77/77
f 114/114/114 116/116/116 117/117/117
f 114/114/114 117/117/117 115/115/115
f 107/107/107 109/109/109 116/116/116
f 107/107/107 116/116/116 114/114/114
f 77/77/77 115/115/115 118/118/118
f 77/77/77 118/118/118 81/81/81
f 81/81/81 118/118/118 119/119/119
f 81/81/81 119/119/119 82/82/82
f 118/118/118 120/120/120 121/121/121
f 118/118/118 121/121/121 119/119/119
f 115/115/115 117/117/117 120/120/120
f 115/115/115 120/120/120 118/118/118
f 86/86/86 122/122/122 123/123/123
f 86/86/86 123/123/123 85/85/85
f 85/85/85 123/123/123 111/111/111
f 85/85/85 111/111/111 33/33/33
f 123/123/123 99/99/99 101/101/101
f 123/123/123 101/101/101 111/111/111
f 122/122/122 96/96/96 99/99/99
f 122/122/122 99/99/99 123/123/123
f 82/82/82 119/119/119 124/124/124
f 82/82/82 124/124/124 89/89/89
f 89/89/89 124/124/124 65/65/65
f 89/89/89 65/65/65 64/64/64
f 124/124/124 125/125/125 72/72/72
f 124/124/124 72/72/72 65/65/65
f 119/119/119 121/121/121 125/125/125
f 119/119/119 125/125/125 124/124/124
f 69/69/69 68/68/68 126/126/126
f 69/69/69 126/126/126 92/92/92
f 92/92/92 126/126/126 122/122/122
f 92/92/92 122/122/122 86/86/86
f 126/126/126 127/127/127 96/96/96
f 126/126/126 96/96/96 122/122/122
f 68/68/68 71/71/71 127/127/127
f 68/68/68 127/127/127 126/126/126
f 128/128/128 129/129/129 130/130/130
f 128/128/128 130/130/130 131/131/131
f 132/132/132 131/131/131 130/130/130
f 132/132/132 130/130/130 133/133/133
f 134/134/134 133/133/133 130/130/130
f 134/134/134 130/130/130 135/135/135
f 136/136/136 135/135/135 130/130/130
f 136/136/136 130/130/130 137/137/137
f 138/138/138 137/137/137 130/130/130
f 138/138/138 130/130/130 139/139/139
f 140/140/140 139/139/139 130/130/130
f 140/140/140 130/130/130 141/141/141
f 142/142/142 141/141/141 130/130/130
f 142/142/142 130/130/130 143/143/143
f 144/144/144 143/143/143 130/130/130
f 144/144/144 130/130/130 129/129/129
f 121/121/121 145/145/145 146/146/146
f 121/121/121 146/146/146 125/125/125
f 125/125/125 146/146/146 147/147/147
f 125/125/125 147/147/147 72/72/72
f 146/146/146 148/148/148 149/149/149
f 146/146/146 149/149/149 147/147/147
f 145/145/145 150/150/150 148/148/148
f 145/145/145 148/148/148 146/146/146
f 71/71/71 151/151/151 152/152/152
f 71/71/71 152/152/152 127/127/127
f 127/127/127 152/152/152 97/97/97
f 127/127/127 97/97/97 96/96/96
f 152/152/152 153/153/153 104/104/104
f 152/152/152 104/104/104 97/97/97
f 151/151/151 154/154/154 153/153/153
f 151/151/151 153/153/153 152/152/152
f 72/72/72 147/147/147 155/155/155
f 72/72/72 155/155/155 70/70/70
f 70/70/70 155/155/155 151/151/151
f 70/70/70 151/151/151 71/71/71
f 155/155/155 156/156/156 154/154/154
f 155/155/155 154/154/154 151/151/151
f 147/147/147 149/149/149 156/156/156
f 147/147/147 156/156/156 155/155/155
f 110/110/110 157/157/157 158/158/158
f 110/110/110 158/158/158 108/108/108
f 108/108/108 158/158/158 159/159/159
f 108/108/108 159/159/159 109/109/109
f 158/158/158 160/160/160 161/161/161
f 158/158/158 161/161/161 159/159/159
f 157/157/157 162/162/162 160/160/160
f 157/157/157 160/160/160 158/158/158
f 101/101/101 100/100/100 163/163/163
f 101/101/101 163/163/163 113/113/113
f 113/113/113 163/163/163 157/157/157
f 113/113/113 157/157/157 110/110/110
f 163/163/163 164/164/164 162/162/162
f 163/163/163 162/162/162 157/157/157
f 100/100/100 103/103/103 164/164/164
f 100/100/100 164/164/164 163/163/163
f 109/109/109 159/159/159 165/165/165
f 109/109/109 165/165/165 116/116/116
f 116/116/116 165/165/165 166/166/166
f 116/116/116 166/166/166 117/117/117
f 165/165/165 167/167/167 168/168/168
f 165/165/165 168/168/168 166/166/166
f 159/159/159 161/161/161 167/167/167
f 159/159/159 167/167/167 165/165/165
f 117/117/117 166/166/166 169/169/169
f 117/117/117 169/169/169 120/120/120
f 120/120/120 169/169/169 145/145/145
f 120/120/120 145/145/145 121/121/121
f 169/169/169 170/170/170 150/150/150
f 169/169/169 150/150/150 145/145/145
f 166/166/166 168/168/168 170/170/170
f 166/166/166 170/170/170 169/169/169
f 128/128/128 171/171/171 172/172/172
f 128/128/128 172/172/172 129/129/129
f 129/129/129 172/172/172 173/173/173
f 129/129/129 173/173/173 144/144/144
f 172/172/172 153/153/153 154/154/154
f 172/172/172 154/154/154 173/173/173
f 171/171/171 104/104/104 153/153/153
f 171/171/171 153/153/153 172/172/172
f 138/138/138 174/174/174 175/175/175
f 138/138/138 175/175/175 137/137/137
f 137/137/137 175/175/175 176/176/176
f 137/137/137 176/176/176 136/136/136
f 175/175/175 167/167/167 161/161/161
f 175/175/175 161/161/161 176/176/176
f 174/174/174 168/168/168 167/167/167
f 174/174/174 167/167/167 175/175/175
f 142/142/142 177/177/177 178/178/178
f 142/142/142 178/178/178 141/141/141
f 141/141/141 178/178/178 179/179/179
f 141/141/141 179/179/179 140/140/140
f 178/178/178 148/148/148 150/150/150
f 178/178/178 150/150/150 179/179/179
f 177/177/177 149/149/149 148/148/148
f 177/177/177 148/148/148 178/178/178
f 134/134/134 180/180/180 181/181/181
f 134/134/134 181/181/181 133/133/133
f 133/133/133 181/181/181 182/182/182
f 133/133/133 182/182/182 132/132/132
f 181/181/181 164/164/164 103/103/103
f 181/181/181 103/103/103 182/182/182
f 180/180/180 162/162/162 164/164/164
f 180/180/180 164/164/164 181/181/181
f 132/132/132 182/182/182 183/183/183
f 132/132/132 183/183/183 131/131/131
f 131/131/131 183/183/183 171/171/171
f 131/131/131 171/171/171 128/128/128
f 183/183/183 102/102/102 104/104/104
f 183/183/183 104/104/104 171/171/171
f 182/182/182 103/103/103 102/102/102
f 182/182/182 102/102/102 183/183/183
f 136/136/136 176/176/176 184/184/184
f 136/136/136 184/184/184 135/135/135
f 135/135/135 184/184/184 180/180/180
f 135/135/135 180/180/180 134/134/134
f 184/184/184 160/160/160 162/162/162
f 184/184/184 162/162/162 180/180/180
f 176/176/176 161/161/161 160/160/160
f 176/176/176 160/160/160 184/184/184
f 140/140/140 179/179/179 185/185/185
f 140/140/140 185/185/185 139/139/139
f 139/139/139 185/185/185 174/174/174
f 139/139/139 174/174/174 138/138/138
f 185/185/185 170/170/170 168/168/168
f 185/185/185 168/168/168 174/174/174
f 179/179/179 150/150/150 170/170/170
f 179/179/179 170/170/170 185/185/185
f 144/144/144 173/173/173 186/186/186
f 144/144/144 186/186/186 143/143/143
f 143/143/143 186/186/186 177/177/177
f 143/143/143 177/177/177 142/142/142
f 186/186/186 156/156/156 149/149/149
f 186/186/186 149/149/149 177/177/177
f 173/173/173 154/154/154 156/156/156
f 173/173/173 156/156/156 186/186/186
f 187/187/187 188/188/188 189/189/189
f 187/187/187 189/189/189 190/190/190
f 190/190/190 189/189/189 191/191/191
f 190/190/190 191/191/191 192/192/192
f 189/189/189 62/62/62 24/24/24
f 189/189/189 24/24/24 191/191/191
f 188/188/188 52/52/52 62/62/62
f 188/188/188 62/62/62 189/189/189
f 193/193/193 194/194/194 195/195/195
f 193/193/193 195/195/195 196/196/196
f 196/196/196 195/195/195 58/58/58
f 196/196/196 58/58/58 45/45/45
f 195/195/195 197/197/197 10/10/10
f 195/195/195 10/10/10 58/58/58
f 194/194/194 198/198/198 197/197/197
f 194/194/194 197/197/197 195/195/195
f 187/187/187 199/199/199 200/200/200
f 187/187/187 200/200/200 188/188/188
f 188/188/188 200/200/200 53/53/53
f 188/188/188 53/53/53 52/52/52
f 200/200/200 201/201/201 46/46/46
f 200/200/200 46/46/46 53/53/53
f 199/199/199 202/202/202 201/201/201
f 199/199/199 201/201/201 200/200/200
f 202/202/202 203/203/203 204/204/204
f 202/202/202 204/204/204 201/201/201
f 201/201/201 204/204/204 47/47/47
f 201/201/201 47/47/47 46/46/46
f 204/204/204 205/205/205 34/34/34
f 204/204/204 34/34/34 47/47/47
f 203/203/203 206/206/206 205/205/205
f 203/203/203 205/205/205 204/204/204
f 207/207/207 208/208/208 209/209/209
f 207/207/207 209/209/209 210/210/210
f 210/210/210 209/209/209 42/42/42
f 210/210/210 42/42/42 41/41/41
f 209/209/209 196/196/196 45/45/45
f 209/209/209 45/45/45 42/42/42
f 208/208/208 193/193/193 196/196/196
f 208/208/208 196/196/196 209/209/209
f 206/206/206 211/211/211 212/212/212
f 206/206/206 212/212/212 205/205/205
f 205/205/205 212/212/212 35/35/35
f 205/205/205 35/35/35 34/34/34
f 212/212/212 210/210/210 41/41/41
f 212/212/212 41/41/41 35/35/35
f 211/211/211 207/207/207 210/210/210
f 211/211/211 210/210/210 212/212/212
f 213/213/213 214/214/214 215/215/215
f 213/213/213 215/215/215 216/216/216
f 216/216/216 215/215/215 19/19/19
f 216/216/216 19/19/19 18/18/18
f 215/215/215 191/191/191 24/24/24
f 215/215/215 24/24/24 19/19/19
f 214/214/214 192/192/192 191/191/191
f 214/214/214 191/191/191 215/215/215
f 198/198/198 217/217/217 218/218/218
f 198/198/198 218/218/218 197/197/197
f 197/197/197 218/218/218 11/11/11
f 197/197/197 11/11/11 10/10/10
f 218/218/218 216/216/216 18/18/18
f 218/218/218 18/18/18 11/11/11
f 217/217/217 213/213/213 216/216/216
f 217/217/217 216/216/216 218/218/218
f 219/219/219 220/220/220 221/221/221
f 219/219/219 221/221/221 222/222/222
f 222/222/222 221/221/221 223/223/223
f 222/222/222 223/223/223 224/224/224
f 221/221/221 225/225/225 226/226/226
f 221/221/221 226/226/226 223/223/223
f 220/220/220 227/227/227 225/225/225
f 220/220/220 225/225/225 221/221/221
f 227/227/227 228/228/228 229/229/229
f 227/227/227 229/229/229 225/225/225
f 225/225/225 229/229/229 230/230/230
f 225/225/225 230/230/230 226/226/226
f 229/229/229 231/231/231 232/232/232
f 229/229/229 232/232/232 230/230/230
f 228/228/228 233/233/233 231/231/231
f 228/228/228 231/231/231 229/229/229
f 234/234/234 235/235/235 236/236/236
f 234/234/234 236/236/236 237/237/237
f 237/237/237 236/236/236 238/238/238
f 237/237/237 238/238/238 239/239/239
f 236/236/236 240/240/240 241/241/241
f 236/236/236 241/241/241 238/238/238
f 235/235/235 242/242/242 240/240/240
f 235/235/235 240/240/240 236/236/236
f 242/242/242 243/243/243 244/244/244
f 242/242/242 244/244/244 240/240/240
f 240/240/240 244/244/244 245/245/245
f 240/240/240 245/245/245 241/241/241
f 244/244/244 246/246/246 247/247/247
f 244/244/244 247/247/247 245/245/245
f 243/243/243 248/248/248 246/246/246
f 243/243/243 246/246/246 244/244/244
f 249/249/249 250/250/250 251/251/251
f 249/249/249 251/251/251 252/252/252
f 252/252/252 251/251/251 253/253/253
f 252/252/252 253/253/253 254/254/254
f 251/251/251 237/237/237 239/239/239
f 251/251/251 239/239/239 253/253/253
f 250/250/250 234/234/234 237/237/237
f 250/250/250 237/237/237 251/251/251
f 255/255/255 256/256/256 257/257/257
f 255/255/255 257/257/257 258/258/258
f 258/258/258 257/257/257 259/259/259
f 258/258/258 259/259/259 260/260/260
f 257/257/257 252/252/252 254/254/254
f 257/257/257 254/254/254 259/259/259
f 256/256/256 249/249/249 252/252/252
f 256/256/256 252/252/252 257/257/257
f 248/248/248 261/261/261 262/262/262
f 248/248/248 262/262/262 246/246/246
f 246/246/246 262/262/262 263/263/263
f 246/246/246 263/263/263 247/247/247
f 262/262/262 222/222/222 224/224/224
f 262/262/262 224/224/224 263/263/263
f 261/261/261 219/219/219 222/222/222
f 261/261/261 222/222/222 262/262/262
f 255/255/255 258/258/258 264/264/264
f 255/255/255 264/264/264 265/265/265
f 265/265/265 264/264/264 231/231/231
f 265/265/265 231/231/231 233/233/233
f 264/264/264 266/266/266 232/232/232
f 264/264/264 232/232/232 231/231/231
f 258/258/258 260/260/260 266/266/266
f 258/258/258 266/266/266 264/264/264
f 267/267/267 268/268/268 269/269/269
f 267/267/267 269/269/269 270/270/270
f 270/270/270 269/269/269 271/271/271
f 270/270/270 271/271/271 272/272/272
f 269/269/269 273/273/273 274/274/274
f 269/269/269 274/274/274 271/271/271
f 268/268/268 275/275/275 273/273/273
f 268/268/268 273/273/273 269/269/269
f 1/1/1 276/276/276 277/277/277
f 1/1/1 277/277/277 2/2/2
f 2/2/2 277/277/277 278/278/278
f 2/2/2 278/278/278 9/9/9
f 277/277/277 279/279/279 280/280/280
f 277/277/277 280/280/280 278/278/278
f 276/276/276 281/281/281 279/279/279
f 276/276/276 279/279/279 277/277/277
f 281/281/281 282/282/282 283/283/283
f 281/281/281 283/283/283 279/279/279
f 279/279/279 283/283/283 284/284/284
f 279/279/279 284/284/284 280/280/280
f 283/283/283 285/285/285 286/286/286
f 283/283/283 286/286/286 284/284/284
f 282/282/282 287/287/287 285/285/285
f 282/282/282 285/285/285 283/283/283
f 288/288/288 289/289/289 290/290/290
f 288/288/288 290/290/290 291/291/291
f 291/291/291 290/290/290 292/292/292
f 291/291/291 292/292/292 293/293/293
f 290/290/290 270/270/270 272/272/272
f 290/290/290 272/272/272 292/292/292
f 289/289/289 267/267/267 270/270/270
f 289/289/289 270/270/270 290/290/290
f 287/287/287 294/294/294 295/295/295
f 287/287/287 295/295/295 285/285/285
f 285/285/285 295/295/295 296/296/296
f 285/285/285 296/296/296 286/286/286
f 295/295/295 291/291/291 293/293/293
f 295/295/295 293/293/293 296/296/296
f 294/294/294 288/288/288 291/291/291
f 294/294/294 291/291/291 295/295/295
f 297/297/297 298/298/298 299/299/299
f 297/297/297 299/299/299 300/300/300
f 300/300/300 299/299/299 301/301/301
f 300/300/300 301/301/301 302/302/302
f 299/299/299 5/5/5 8/8/8
f 299/299/299 8/8/8 301/301/301
f 298/298/298 6/6/6 5/5/5
f 298/298/298 5/5/5 299/299/299
f 275/275/275 303/303/303 304/304/304
f 275/275/275 304/304/304 273/273/273
f 273/273/273 304/304/304 305/305/305
f 273/273/273 305/305/305 274/274/274
f 304/304/304 300/300/300 302/302/302
f 304/304/304 302/302/302 305/305/305
f 303/303/303 297/297/297 300/300/300
f 303/303/303 300/300/300 304/304/304
f 9/9/9 306/306/306 307/307/307
f 9/9/9 307/307/307 7/7/7
f 7/7/7 307/307/307 308/308/308
f 7/7/7 308/308/308 8/8/8
f 307/307/307 265/265/265 233/233/233
f 307/307/307 233/233/233 308/308/308
f 306/306/306 255/255/255 265/265/265
f 306/306/306 265/265/265 307/307/307
f 272/272/272 271/271/271 309/309/309
f 272/272/272 309/309/309 310/310/310
f 310/310/310 309/309/309 261/261/261
f 310/310/310 261/261/261 248/248/248
f 309/309/309 311/311/311 219/219/219
f 309/309/309 219/219/219 261/261/261
f 271/271/271 274/274/274 311/311/311
f 271/271/271 311/311/311 309/309/309
f 9/9/9 278/278/278 312/312/312
f 9/9/9 312/312/312 306/306/306
f 306/306/306 312/312/312 256/256/256
f 306/306/306 256/256/256 255/255/255
f 312/312/312 313/313/313 249/249/249
f 312/312/312 249/249/249 256/256/256
f 278/278/278 280/280/280 313/313/313
f 278/278/278 313/313/313 312/312/312
f 280/280/280 284/284/284 314/314/314
f 280/280/280 314/314/314 313/313/313
f 313/313/313 314/314/314 250/250/250
f 313/313/313 250/250/250 249/249/249
f 314/314/314 315/315/315 234/234/234
f 314/314/314 234/234/234 250/250/250
f 284/284/284 286/286/286 315/315/315
f 284/284/284 315/315/315 314/314/314
f 293/293/293 292/292/292 316/316/316
f 293/293/293 316/316/316 317/317/317
f 317/317/317 316/316/316 243/243/243
f 317/317/317 243/243/243 242/242/242
f 316/316/316 310/310/310 248/248/248
f 316/316/316 248/248/248 243/243/243
f 292/292/292 272/272/272 310/310/310
f 292/292/292 310/310/310 316/316/316
f 286/286/286 296/296/296 318/318/318
f 286/286/286 318/318/318 315/315/315
f 315/315/315 318/318/318 235/235/235
f 315/315/315 235/235/235 234/234/234
f 318/318/318 317/317/317 242/242/242
f 318/318/318 242/242/242 235/235/235
f 296/296/296 293/293/293 317/317/317
f 296/296/296 317/317/317 318/318/318
f 302/302/302 301/301/301 319/319/319
f 302/302/302 319/319/319 320/320/320
f 320/320/320 319/319/319 228/228/228
f 320/320/320 228/228/228 227/227/227
f 319/319/319 308/308/308 233/233/233
f 319/319/319 233/233/233 228/228/228
f 301/301/301 8/8/8 308/308/308
f 301/301/301 308/308/308 319/319/319
f 274/274/274 305/305/305 321/321/321
f 274/274/274 321/321/321 311/311/311
f 311/311/311 321/321/321 220/220/220
f 311/311/311 220/220/220 219/219/219
f 321/321/321 320/320/320 227/227/227
f 321/321/321 227/227/227 220/220/220
f 305/305/305 302/302/302 320/320/320
f 305/305/305 320/320/320 321/321/321
f 224/224/224 223/223/223 322/322/322
f 224/224/224 322/322/322 323/323/323
f 323/323/323 322/322/322 217/217/217
f 323/323/323 217/217/217 198/198/198
f 322/322/322 324/324/324 213/213/213
f 322/322/322 213/213/213 217/217/217
f 223/223/223 226/226/226 324/324/324
f 223/223/223 324/324/324 322/322/322
f 226/226/226 230/230/230 325/325/325
f 226/226/226 325/325/325 324/324/324
f 324/324/324 325/325/325 214/214/214
f 324/324/324 214/214/214 213/213/213
f 325/325/325 326/326/326 192/192/192
f 325/325/325 192/192/192 214/214/214
f 230/230/230 232/232/232 326/326/326
f 230/230/230 326/326/326 325/325/325
f 239/239/239 238/238/238 327/327/327
f 239/239/239 327/327/327 328/328/328
f 328/328/328 327/327/327 211/211/211
f 328/328/328 211/211/211 206/206/206
f 327/327/327 329/329/329 207/207/207
f 327/327/327 207/207/207 211/211/211
f 238/238/238 241/241/241 329/329/329
f 238/238/238 329/329/329 327/327/327
f 241/241/241 245/245/245 330/330/330
f 241/241/241 330/330/330 329/329/329
f 329/329/329 330/330/330 208/208/208
f 329/329/329 208/208/208 207/207/207
f 330/330/330 331/331/331 193/193/193
f 330/330/330 193/193/193 208/208/208
f 245/245/245 247/247/247 331/331/331
f 245/245/245 331/331/331 330/330/330
f 254/254/254 253/253/253 332/332/332
f 254/254/254 332/332/332 333/333/333
f 333/333/333 332/332/332 203/203/203
f 333/333/333 203/203/203 202/202/202
f 332/332/332 328/328/328 206/206/206
f 332/332/332 206/206/206 203/203/203
f 253/253/253 239/239/239 328/328/328
f 253/253/253 328/328/328 332/332/332
f 260/260/260 259/259/259 334/334/334
f 260/260/260 334/334/334 335/335/335
f 335/335/335 334/334/334 199/199/199
f 335/335/335 199/199/199 187/187/187
f 334/334/334 333/333/333 202/202/202
f 334/334/334 202/202/202 199/199/199
f 259/259/259 254/254/254 333/333/333
f 259/259/259 333/333/333 334/334/334
f 247/247/247 263/263/263 336/336/336
f 247/247/247 336/336/336 331/331/331
f 331/331/331 336/336/336 194/194/194
f 331/331/331 194/194/194 193/193/193
f 336/336/336 323/323/323 198/198/198
f 336/336/336 198/198/198 194/194/194
f 263/263/263 224/224/224 323/323/323
f 263/263/263 323/323/323 336/336/336
f 260/260/260 335/335/335 337/337/337
f 260/260/260 337/337/337 266/266/266
f 266/266/266 337/337/337 326/326/326
f 266/266/266 326/326/326 232/232/232
f 337/337/337 190/190/190 192/192/192
f 337/337/337 192/192/192 326/326/326
f 335/335/335 187/187/187 190/190/190
f 335/335/335 190/190/190 337/337/337
