v -0.570298 -0.57153 0.937389
v -0.567931 -0.56482 0.935251
v -0.56879 -0.559888 0.941121
v -0.57183 -0.566727 0.944779
v -0.571287 -0.554256 0.944516
v -0.575127 -0.561143 0.949256
v -0.565659 -0.55371 0.934506
v -0.567425 -0.548234 0.936962
v -0.565537 -0.55832 0.930322
v -0.651047 -0.648324 0.791312
v -0.664268 -0.659951 0.754229
v -0.659339 -0.653461 0.751078
v -0.646478 -0.642118 0.788202
v -0.658529 -0.645309 0.74909
v -0.645865 -0.634398 0.786235
v -0.671606 -0.663821 0.715841
v -0.670675 -0.655341 0.713875
v -0.676815 -0.670536 0.719012
v -0.597236 -0.593012 0.93395
v -0.606718 -0.60181 0.923823
v -0.59979 -0.602687 0.917721
v -0.590633 -0.595399 0.926902
v -0.594919 -0.600534 0.910561
v -0.586457 -0.595043 0.918388
v -0.610641 -0.611234 0.903615
v -0.605157 -0.607669 0.897948
v -0.617895 -0.611625 0.908586
v -0.612811 -0.559308 0.906534
v -0.618704 -0.562355 0.900518
v -0.626735 -0.559912 0.907342
v -0.620872 -0.554793 0.914162
v -0.633473 -0.560457 0.914303
v -0.627749 -0.552872 0.921903
v -0.635066 -0.566891 0.895516
v -0.641286 -0.569584 0.901441
v -0.627353 -0.56757 0.889853
v -0.592929 -0.595641 0.903361
v -0.585513 -0.591956 0.909768
v -0.593955 -0.588879 0.897199
v -0.587701 -0.586475 0.902434
v -0.60227 -0.601554 0.8923
v -0.602373 -0.593966 0.887452
v -0.598792 -0.571606 0.896787
v -0.603714 -0.573719 0.892227
v -0.610834 -0.567179 0.895022
v -0.605474 -0.564946 0.900173
v -0.619062 -0.571769 0.88548
v -0.611411 -0.578351 0.883374
v -0.59781 -0.581253 0.89315
v -0.592522 -0.579218 0.897734
v -0.60559 -0.585998 0.884205
v -0.629993 -0.561122 0.93448
v -0.636862 -0.571601 0.925255
v -0.631514 -0.581193 0.928531
v -0.623547 -0.570426 0.938367
v -0.623352 -0.590734 0.929605
v -0.614407 -0.580235 0.939854
v -0.641136 -0.592862 0.91334
v -0.634096 -0.601989 0.913901
v -0.645293 -0.583213 0.910796
v -0.637305 -0.564425 0.920405
v -0.631248 -0.554989 0.928843
v -0.645099 -0.575184 0.906699
v -0.61478 -0.5978 0.927957
v -0.605338 -0.587945 0.938381
v -0.626002 -0.608477 0.912198
v -0.737703 -0.709862 0.625976
v -0.747741 -0.717276 0.599387
v -0.733546 -0.711446 0.59234
v -0.723915 -0.704511 0.61927
v -0.722551 -0.703396 0.586147
v -0.713374 -0.696871 0.61342
v -0.742114 -0.718085 0.568537
v -0.730682 -0.709709 0.56214
v -0.756581 -0.724103 0.575938
v -0.656577 -0.614332 0.785163
v -0.669406 -0.623539 0.747908
v -0.679938 -0.615291 0.749652
v -0.666404 -0.606399 0.78664
v -0.690761 -0.610815 0.752267
v -0.676449 -0.601893 0.788951
v -0.692955 -0.623802 0.714558
v -0.704323 -0.619238 0.717239
v -0.681897 -0.632374 0.712736
v -0.661979 -0.634508 0.747863
v -0.649394 -0.624465 0.785115
v -0.674182 -0.643945 0.712659
v -0.700778 -0.624245 0.803594
v -0.717133 -0.634916 0.767534
v -0.716315 -0.648652 0.770954
v -0.699655 -0.636886 0.80681
v -0.709902 -0.660732 0.771745
v -0.69343 -0.648085 0.807597
v -0.731392 -0.659043 0.736398
v -0.724739 -0.671795 0.737235
v -0.732117 -0.644518 0.732813
v -0.69136 -0.605474 0.794825
v -0.706555 -0.614759 0.758298
v -0.713121 -0.623126 0.76284
v -0.697346 -0.613307 0.799169
v -0.727768 -0.632145 0.72795
v -0.720804 -0.623419 0.723298
v -0.698258 -0.667755 0.769089
v -0.682563 -0.654857 0.805217
v -0.684758 -0.669244 0.764247
v -0.670075 -0.65661 0.800778
v -0.712517 -0.679067 0.734427
v -0.698322 -0.680449 0.729343
v -0.672977 -0.665869 0.758889
v -0.65915 -0.653755 0.795767
v -0.685956 -0.676772 0.723785
v -0.699385 -0.610604 0.754953
v -0.684592 -0.601575 0.791535
v -0.713317 -0.619076 0.719932
v -0.789454 -0.671346 0.533994
v -0.794058 -0.6781 0.519136
v -0.803782 -0.689942 0.523313
v -0.799044 -0.682935 0.539039
v -0.808969 -0.704366 0.530149
v -0.80439 -0.697864 0.545714
v -0.806915 -0.695813 0.510157
v -0.811748 -0.709593 0.517129
v -0.797541 -0.684056 0.506712
v -0.741702 -0.640597 0.609276
v -0.750027 -0.645872 0.581779
v -0.760943 -0.646179 0.585394
v -0.752109 -0.640628 0.612533
v -0.770536 -0.652287 0.590138
v -0.761122 -0.646289 0.616924
v -0.768196 -0.652009 0.562061
v -0.778471 -0.658522 0.5668
v -0.756687 -0.651315 0.558503
v -0.715478 -0.694644 0.581544
v -0.706805 -0.688634 0.609185
v -0.7134 -0.684897 0.578604
v -0.705125 -0.679303 0.606534
v -0.723097 -0.700422 0.557521
v -0.72057 -0.690158 0.554764
v -0.717522 -0.656802 0.605387
v -0.725623 -0.662244 0.577419
v -0.737492 -0.652011 0.579037
v -0.729371 -0.646701 0.60682
v -0.744028 -0.65716 0.555849
v -0.732318 -0.667233 0.554193
v -0.717074 -0.673758 0.577244
v -0.708955 -0.668287 0.605276
v -0.723963 -0.678761 0.55374
v -0.774404 -0.671289 0.62875
v -0.784528 -0.67836 0.602482
v -0.784297 -0.696995 0.607757
v -0.773867 -0.689105 0.63382
v -0.777314 -0.712425 0.609515
v -0.766738 -0.704049 0.635532
v -0.792949 -0.704023 0.584864
v -0.786116 -0.7195 0.586732
v -0.793019 -0.685215 0.579336
v -0.779122 -0.663056 0.596136
v -0.769304 -0.656596 0.62264
v -0.787435 -0.669642 0.572843
v -0.763769 -0.718667 0.606019
v -0.753365 -0.710599 0.632254
v -0.772663 -0.725654 0.58299
v -0.739458 -0.704695 0.506662
v -0.744465 -0.707324 0.501274
v -0.745248 -0.695135 0.505132
v -0.740621 -0.6921 0.50979
v -0.750793 -0.684679 0.507916
v -0.746939 -0.681099 0.512126
v -0.75059 -0.698786 0.502534
v -0.755284 -0.689113 0.505616
v -0.750204 -0.710261 0.498158
v -0.796906 -0.72871 0.555487
v -0.80153 -0.733025 0.541993
v -0.789402 -0.739832 0.538312
v -0.784353 -0.735448 0.551614
v -0.774664 -0.740084 0.530241
v -0.76919 -0.735234 0.543755
v -0.793294 -0.742881 0.526946
v -0.778966 -0.74328 0.51884
v -0.804948 -0.736312 0.530495
v -0.760288 -0.734563 0.52229
v -0.754684 -0.729658 0.535787
v -0.747922 -0.725229 0.516684
v -0.742486 -0.720702 0.529695
v -0.764929 -0.737894 0.511231
v -0.752795 -0.72854 0.506289
v -0.764382 -0.661738 0.529937
v -0.767642 -0.666596 0.518745
v -0.781448 -0.669775 0.518048
v -0.777497 -0.663836 0.531178
v -0.784789 -0.675263 0.507179
v -0.770711 -0.671288 0.509651
v -0.738913 -0.714046 0.514601
v -0.733877 -0.710135 0.526601
v -0.734731 -0.701805 0.515311
v -0.730259 -0.698491 0.52605
v -0.743854 -0.717151 0.505021
v -0.740098 -0.674793 0.528536
v -0.743395 -0.677926 0.519383
v -0.754359 -0.669747 0.519595
v -0.751309 -0.665921 0.52933
v -0.757489 -0.673586 0.511828
v -0.736446 -0.689228 0.517494
v -0.732612 -0.686235 0.527114
v -0.808273 -0.719999 0.537989
v -0.80379 -0.71471 0.552504
v -0.811213 -0.724175 0.525752
v -0.776196 -0.681863 0.500327
v -0.77973 -0.68892 0.497179
v -0.79098 -0.692201 0.494234
v -0.788894 -0.685523 0.496676
v -0.800277 -0.698497 0.494403
v -0.799781 -0.692929 0.495687
v -0.791844 -0.697162 0.495428
v -0.799755 -0.702541 0.496922
v -0.782028 -0.694277 0.497199
v -0.811547 -0.712348 0.509419
v -0.811332 -0.726001 0.518056
v -0.805915 -0.737347 0.522753
v -0.809752 -0.726643 0.513603
v -0.805142 -0.736954 0.517736
v -0.809861 -0.71423 0.505672
v -0.799154 -0.688492 0.499305
v -0.807455 -0.699498 0.502461
v -0.806686 -0.702692 0.498972
v -0.794973 -0.743407 0.519127
v -0.781267 -0.743777 0.511215
v -0.795257 -0.74235 0.514246
v -0.782752 -0.742749 0.506974
v -0.767948 -0.738934 0.504281
v -0.756632 -0.730301 0.500076
v -0.770738 -0.738807 0.500791
v -0.760728 -0.731418 0.497036
v -0.773322 -0.676073 0.504039
v -0.787019 -0.680101 0.500531
v -0.748491 -0.719415 0.499215
v -0.753713 -0.721554 0.496108
v -0.760629 -0.677851 0.507195
v -0.764317 -0.683161 0.504277
v -0.780253 -0.698301 0.508649
v -0.77372 -0.700596 0.512097
v -0.779788 -0.714088 0.517786
v -0.786122 -0.701572 0.510274
v -0.793029 -0.703987 0.510252
v -0.794598 -0.709846 0.514614
v -0.798124 -0.715757 0.517668
v -0.794418 -0.720773 0.522259
v -0.792977 -0.727136 0.524394
v -0.786587 -0.728447 0.522901
v -0.781817 -0.731937 0.518799
v -0.776038 -0.728573 0.515511
v -0.770386 -0.727172 0.510995
v -0.767795 -0.720533 0.510623
v -0.764306 -0.714848 0.508925
v -0.766121 -0.708504 0.512192
v -0.767293 -0.702115 0.512231
v -0.765941 -0.732651 0.496112
v -0.759895 -0.724009 0.494674
v -0.756607 -0.713714 0.496412
v -0.764257 -0.725353 0.496528
v -0.761126 -0.716034 0.497657
v -0.769605 -0.732932 0.498625
v -0.760339 -0.694369 0.50414
v -0.768719 -0.689546 0.501838
v -0.771879 -0.694474 0.501955
v -0.764028 -0.698427 0.50489
v -0.756454 -0.703094 0.501059
v -0.760659 -0.706287 0.50208
v -0.808331 -0.716757 0.504242
v -0.807815 -0.727327 0.511045
v -0.803564 -0.736123 0.51453
v -0.805351 -0.727104 0.512368
v -0.801062 -0.734448 0.515496
v -0.806528 -0.718319 0.50641
v -0.805966 -0.706864 0.498072
v -0.804689 -0.709825 0.500842
v -0.795068 -0.740859 0.511718
v -0.784507 -0.741528 0.505587
v -0.793849 -0.738764 0.513284
v -0.785217 -0.739854 0.508019
v -0.774399 -0.738656 0.499965
v -0.77682 -0.737863 0.502734
v -0.781523 -0.695985 0.502481
v -0.772477 -0.696462 0.506343
v -0.765265 -0.700028 0.508754
v -0.783703 -0.736857 0.514233
v -0.790927 -0.73527 0.519332
v -0.797334 -0.731293 0.521363
v -0.762281 -0.715861 0.503059
v -0.765084 -0.724123 0.502837
v -0.769806 -0.730974 0.505173
v -0.803331 -0.717364 0.512699
v -0.801566 -0.709757 0.50777
v -0.79714 -0.7031 0.503959
v -0.790054 -0.698446 0.501975
v -0.801527 -0.724837 0.518384
v -0.776328 -0.735167 0.509296
v -0.762145 -0.707162 0.506626
v -0.638998 -0.57598 0.872219
v -0.646433 -0.575821 0.876362
v -0.65237 -0.579243 0.880954
v -0.659108 -0.585126 0.851729
v -0.665098 -0.588543 0.855245
v -0.651721 -0.585443 0.84883
v -0.630414 -0.622083 0.886952
v -0.622529 -0.621112 0.88275
v -0.616496 -0.617028 0.878199
v -0.634666 -0.631692 0.856998
v -0.628034 -0.627412 0.852973
v -0.643462 -0.633043 0.861009
v -0.64759 -0.612705 0.891686
v -0.639222 -0.619152 0.890123
v -0.653438 -0.630203 0.864155
v -0.662585 -0.62356 0.865694
v -0.656405 -0.585517 0.88538
v -0.657298 -0.593965 0.889008
v -0.669648 -0.595101 0.859174
v -0.671356 -0.604 0.862747
v -0.654069 -0.603668 0.891245
v -0.668891 -0.614157 0.865117
v -0.612882 -0.603258 0.870495
v -0.616191 -0.59498 0.868232
v -0.622396 -0.5869 0.867666
v -0.627694 -0.605618 0.845826
v -0.634412 -0.596913 0.845573
v -0.624051 -0.614272 0.847268
v -0.63051 -0.580073 0.869126
v -0.642993 -0.589721 0.846667
v -0.613085 -0.610839 0.87396
v -0.624279 -0.621569 0.849673
v -0.598319 -0.564003 0.950762
v -0.606062 -0.571698 0.9465
v -0.597229 -0.579592 0.945187
v -0.590329 -0.571649 0.949635
v -0.589607 -0.585364 0.940906
v -0.583657 -0.577782 0.945855
v -0.61741 -0.543324 0.931892
v -0.622529 -0.547473 0.927343
v -0.624844 -0.548342 0.935074
v -0.618125 -0.543378 0.939967
v -0.622434 -0.553564 0.941256
v -0.61451 -0.547735 0.946168
v -0.615343 -0.5622 0.945141
v -0.607141 -0.555339 0.949698
v -0.580038 -0.582441 0.909882
v -0.58327 -0.584582 0.906276
v -0.588873 -0.577726 0.900954
v -0.586152 -0.576135 0.903867
v -0.595527 -0.57001 0.899916
v -0.593148 -0.568374 0.90262
v -0.602027 -0.563141 0.903705
v -0.599662 -0.56124 0.906662
v -0.608883 -0.556864 0.910695
v -0.606087 -0.554452 0.914169
v -0.575811 -0.584882 0.929793
v -0.5802 -0.590171 0.924368
v -0.580157 -0.588789 0.914662
v -0.576375 -0.585229 0.919306
v -0.616421 -0.550983 0.918931
v -0.612681 -0.547751 0.922974
v -0.58362 -0.588955 0.933603
v -0.578515 -0.582271 0.939032
v -0.735903 -0.680162 0.710011
v -0.723382 -0.687469 0.707042
v -0.708838 -0.688633 0.701644
v -0.732714 -0.694603 0.683331
v -0.717917 -0.69533 0.677598
v -0.745448 -0.687452 0.686435
v -0.731737 -0.630048 0.695159
v -0.738943 -0.639041 0.699961
v -0.743448 -0.651834 0.705068
v -0.748521 -0.64474 0.675363
v -0.753141 -0.658002 0.680792
v -0.741088 -0.63543 0.670325
v -0.74272 -0.666954 0.708987
v -0.752396 -0.673796 0.685144
v -0.680326 -0.662717 0.685755
v -0.684019 -0.651322 0.684777
v -0.692006 -0.639649 0.685003
v -0.69239 -0.657278 0.660122
v -0.700623 -0.645744 0.660449
v -0.688519 -0.668406 0.660927
v -0.70326 -0.630694 0.686655
v -0.714795 -0.625754 0.689081
v -0.711983 -0.636368 0.661874
v -0.723614 -0.630928 0.664033
v -0.686739 -0.678253 0.690929
v -0.68131 -0.671321 0.687667
v -0.689603 -0.677108 0.662897
v -0.695293 -0.684345 0.666369
v -0.724002 -0.625533 0.691708
v -0.733058 -0.63066 0.666674
v -0.696155 -0.684717 0.695853
v -0.704977 -0.691084 0.671525
v -0.663797 -0.593787 0.821255
v -0.671467 -0.593396 0.82375
v -0.677788 -0.596981 0.826948
v -0.656444 -0.644484 0.832795
v -0.646572 -0.64242 0.828371
v -0.63921 -0.637635 0.824253
v -0.677726 -0.635441 0.838418
v -0.667709 -0.642146 0.836515
v -0.683048 -0.604112 0.830963
v -0.685658 -0.613948 0.83491
v -0.683937 -0.62523 0.837703
v -0.634682 -0.62438 0.819226
v -0.638358 -0.615186 0.818117
v -0.645364 -0.605808 0.818076
v -0.654518 -0.598231 0.819245
v -0.635059 -0.631743 0.821218
v -0.755794 -0.695473 0.661657
v -0.742743 -0.702353 0.658481
v -0.727548 -0.702396 0.652476
v -0.750998 -0.640713 0.644201
v -0.758771 -0.650492 0.649565
v -0.763589 -0.664433 0.65535
v -0.762882 -0.681193 0.660108
v -0.696727 -0.673809 0.634543
v -0.700636 -0.662815 0.633574
v -0.709079 -0.651344 0.633806
v -0.720692 -0.64156 0.635151
v -0.732647 -0.635707 0.637343
v -0.704142 -0.69047 0.640615
v -0.698055 -0.682768 0.636799
v -0.742525 -0.635532 0.640217
v -0.714218 -0.697632 0.646096
v -0.799331 -0.691559 0.56128
v -0.799047 -0.70963 0.567283
v -0.792201 -0.72455 0.569531
v -0.725894 -0.694666 0.538143
v -0.728833 -0.682856 0.538025
v -0.736809 -0.671348 0.538933
v -0.748275 -0.661784 0.540272
v -0.761115 -0.656636 0.542151
v -0.737039 -0.715496 0.54404
v -0.728935 -0.705596 0.539995
v -0.773397 -0.657897 0.544897
v -0.784506 -0.66482 0.548991
v -0.763443 -0.729969 0.558148
v -0.748892 -0.724138 0.550404
v -0.779146 -0.730964 0.565639
v -0.793813 -0.676178 0.554702
v -0.607068 -0.535877 0.936879
v -0.601692 -0.533099 0.933393
v -0.601324 -0.537837 0.926241
v -0.605368 -0.541133 0.928275
v -0.598305 -0.544958 0.918642
v -0.601152 -0.548645 0.919163
v -0.597088 -0.534578 0.922016
v -0.595239 -0.540953 0.916718
v -0.596223 -0.530771 0.92716
v -0.575242 -0.575369 0.916525
v -0.573453 -0.569359 0.917787
v -0.569357 -0.568469 0.926681
v -0.571339 -0.575061 0.926961
v -0.567478 -0.561352 0.924421
v -0.571867 -0.562308 0.918031
v -0.593637 -0.552847 0.912208
v -0.595724 -0.556316 0.911446
v -0.587463 -0.560344 0.909194
v -0.589199 -0.56387 0.907575
v -0.591452 -0.548953 0.912212
v -0.585805 -0.556266 0.910398
v -0.580105 -0.566326 0.911355
v -0.581784 -0.57099 0.909488
v -0.578619 -0.560752 0.912745
v -0.58531 -0.548485 0.952161
v -0.579862 -0.542569 0.946409
v -0.586291 -0.537566 0.945291
v -0.592663 -0.542276 0.951022
v -0.593028 -0.533831 0.942823
v -0.599893 -0.537333 0.94818
v -0.580201 -0.533776 0.936875
v -0.586274 -0.531143 0.934811
v -0.574764 -0.537636 0.937883
v -0.598619 -0.53199 0.938931
v -0.605073 -0.534802 0.94354
v -0.59216 -0.529868 0.931525
v -0.574898 -0.548312 0.946189
v -0.579509 -0.554946 0.951617
v -0.570477 -0.542643 0.937985
v -0.579048 -0.569361 0.949222
v -0.574842 -0.574541 0.943477
v -0.572733 -0.578465 0.934905
v -0.603657 -0.551779 0.917349
v -0.609097 -0.544473 0.926673
v -0.612287 -0.539396 0.935779
v -0.573572 -0.580685 0.923987
v -0.577413 -0.57959 0.913604
v -0.591083 -0.566458 0.905275
v -0.597671 -0.559056 0.909424
v -0.583808 -0.574107 0.90685
v -0.606995 -0.542177 0.948958
v -0.599567 -0.548476 0.952136
v -0.591413 -0.555968 0.953178
v -0.611539 -0.538761 0.943406
v -0.584533 -0.563096 0.952317
vt 0.9167 0.08333
vt 0.08333 -1.192e-07
vt 1 0.75
vt 0.9306 0.9167
vt 0.02083 0
vt 0.7396 0.01042
vt 0.01042 0.7396
vt 1 0.7396
vt 1 0.5
vt 0 0.5
vt 0.5 1
vt 1 0.75
vt 0.5 1
vt 1 0.08333
vt 0.01042 0.7396
vt 1 0.08333
vt 0.2604 0.01042
vt 0.2604 0.01042
vt 0.2604 0.01042
vt 0.7396 0.01042
vt 1 0.5
vt 0.5 1
vt 1 0.5
vt 0.2604 0.01042
vt 0.7483 0.9913
vt 0.7396 0.01042
vt 0.9167 0.08333
vt 0.08333 0.08333
vt 0.5 -1.192e-07
vt 1 0.5
vt 0.5 1
vt 0.9931 0.2604
vt 0.08333 0.08333
vt 0.5 1
vt 0.5 -1.192e-07
vt 0.7396 0.01042
vt 1 1
vt 0.2604 0.9896
vt 1 0.2604
vt 0.5 -1.192e-07
vt 1 0.9167
vt 0.9167 0.08333
vt 0.5 -1.192e-07
vt 0.9167 0.08333
vt 1 1
vt 0.2604 0.9896
vt 0.7431 0.9896
vt 0.7396 0.01042
vt 1 0.75
vt 0.2604 0.9896
vt 0.7431 0.9896
vt 0.2604 0.01042
vt 0.7396 0.01042
vt 1 0.75
vt 0.2604 0.9896
vt 0.9306 0.08333
vt 0.2604 0.01042
vt 0.5 1
vt 0.5 -1.192e-07
vt 0.7396 0.01042
vt 0.5 1
vt 0.08333 0.9167
vt 0.9306 0.9167
vt 0.5 1
vt 0.08333 0.9167
vt 0.7483 0.9913
vt 0.01042 0.2604
vt 0.08333 0.9167
vt 0.75 0.9983
vt 0 0
vt 0 0.5
vt 0.08333 0.08333
vt 0.7431 0
vt 0.5 -1.192e-07
vt 0.08333 0.08333
vt 0 0.5
vt 0.5 1
vt 0.7483 0.9913
vt 0.5 1
vt 0.7465 0.001736
vt 0.01042 0.7396
vt 0.9931 0.2604
vt 0.5 -1.192e-07
vt 0.5 0
vt 0.7483 0.9913
vt 0.2604 0.9896
vt 0.9931 0.2604
vt 0.01042 0.7396
vt 0.7396 0.9896
vt 0.75 0.9983
vt 0.2604 0.9896
vt 0.7413 0.00868
vt 0.08333 0.9167
vt 1 0.5
vt 0.2604 0.01042
vt 0.08333 0.08333
vt 0.01042 0.7396
vt 0.7413 0.9896
vt 1 0.9896
vt 0.2604 0.9896
vt 0.9306 0.08333
vt 0.08333 0.08333
vt 1 0.9167
vt 0.2604 0.9896
vt 0.4167 -2.384e-07
vt 0.08333 0.9167
vt 1 0.2604
vt 0.2604 0.01042
vt 0.75 0.9983
vt 0.08333 0.9167
vt 1 0.2604
vt 0.75 1
vt 0.08333 0.9167
vt 1 0.5
vt 0.01042 0.2604
vt 0.25 -1.192e-07
vt 1 1
vt 0.08333 0.9167
vt 0.08333 0.08333
vt 0.01042 0.2604
vt 0.08333 0.9167
vt 0.5 0
vt 0.5 0
vt 0.01042 0.2604
vt 0.08333 0.9167
vt 1 0.9896
vt 0 0
vt 0.01042 0.7396
vt 0.08333 0.08333
vt 1 0.01042
vt 0.2604 0.01042
vt 0.2604 0.01042
vt 0.5 1
vt 0.25 0
vt 0.01042 0.7396
vt 0.01042 0.2604
vt 0.4167 -1.192e-07
vt 0.5 0
vt 0 0.5
vt 0.2604 0.9896
vt 0.5 1
vt 0.25 0
vt 0.7465 0.001736
vt 0.2604 0.01042
vt 0.75 1
vt 0.25 0
vt 0.7465 0.001736
vt 0 0.5
vt 0.2604 0.9896
vt 0.75 0.9983
vt 0.25 0
vt 0.08333 0.9167
vt 0.01042 0.2604
vt 1 -1.192e-07
vt 0.08333 0.08333
vt 0.2604 0.01042
vt 1 0.5
vt 0.5 -1.192e-07
vt 0.4792 -1.192e-07
vt 1 0.5
vt 0.5 -1.192e-07
vt 0.7431 0
vt 0.7431 0.01042
vt 0.9167 0.9167
vt 1 0.25
vt 0.01042 0.7396
vt 0.9167 0.9167
vt 1 0.08333
vt 0.01042 0.2604
vt 0.7431 0.01042
vt 1 0.08333
vt 0 0.5
vt 0 0
vt 1 0.25
vt 0.08333 0.9167
vt 0.01042 0.2604
vt 0 0.5
vt 0.01042 0.7396
vt 0.7483 0.00868
vt 0.7431 0.01042
vt 1 0.25
vt 0.01042 0.7396
vt 0.01042 0.2604
vt 0.08333 0.08333
vt 0.01042 0.7396
vt 0.7483 0.00868
vt 0.08333 0.08333
vt 0.5 -1.192e-07
vt 1 0.25
vt 0.01042 0.7396
vt 0 0.5
vt 0.9306 0.08333
vt 1 -1.192e-07
vt 0.01042 0.7396
vt 0 0.5
vt 0.01042 0.2604
vt 0.08333 0.9167
vt 0.01042 0.2604
vt 0.25 0
vt 1 0
vt 0.01042 0.7396
vt 0.01042 0.7396
vt 1 0.25
vt 0 0.5
vt 1 0.25
vt 0 0.5
vt 0 0.5
vt 0.7483 0.00868
vt 0.5 1
vt 1 -1.192e-07
vt 0.08333 0.08333
vt 0.5 1
vt 0.7483 0.00868
vt 0.9167 0.9167
vt 0.2604 0.9896
vt 0.2604 0.9896
vt 0.9896 0.7396
vt 1 -1.192e-07
vt 0.9896 0.7396
vt 0.08333 0.08333
vt 0.5 0
vt 0.7431 0.01042
vt 0.9896 0.7396
vt 1 0.5
vt 0 0.5
vt 1 0.5
vt 0.9896 0.7396
vt 0.01042 0.2604
vt 0.5 0
vt 1 0.25
vt 1 0.5
vt 0.01042 0.2604
vt 0.9306 0.08333
vt 1 0.5
vt 1 0.25
vt 0.08333 0.08333
vt 0 0.5
vt 0.08333 0.08333
vt 0.01042 0.2604
vt 0.08333 0.9167
vt 0.7396 0.9896
vt 0.01042 0.2604
vt 0.5 1
vt 0.5 1
vt 0.9167 0.9167
vt 0.5 1
vt 0.5 1
vt 0.2604 0.9896
vt 0.7396 0.9896
vt 0.2604 0.9896
vt 0.7396 0.9896
vt 0.2604 0.9896
vt 0.9167 0.9167
vt 0.2604 0.9896
vt 0.7396 0.9896
vt 0.08333 0.9167
vt 0.7396 0.9896
vt 0.01042 0.2604
vt 0.7396 0.9896
vt 1 0.5
vt 0.08333 0.9167
vt 0.08333 0.9167
vt 0.7396 0.9896
vt 0.01042 0.2604
vt 0.9896 0.7396
vt 0.2604 0.9896
vt 0.01042 0.2604
vt 0.9896 0.7396
vt 0.9167 0.9167
vt 0 0.5
vt 0.7396 0.9896
vt 0.9167 0.9167
vt 0.5 1
vt 0.2604 0.9896
vt 0 0.5
vt 1 0.5
vt 0.01042 0.2604
vt 0.9167 0.9167
vt 0.9896 0.7396
vt 0.5 1
vt 0.01042 0.2604
vt 0.9896 0.7396
vt 1 0.5
vt 0 0.5
vt 1 0.5
vt 0.9896 0.2604
vt 0 0.5
vt 0.9896 0.2604
vt 0.9896 0.2604
vt 0.08333 0.08333
vt 0.9896 0.2604
vt 0.9167 0.08333
vt 0.08333 0.08333
vt 0.9167 0.08333
vt 0.01042 0.2604
vt 0.01042 0.2604
vt 1 0.5
vt 1 0.5
vt 0.9167 0.08333
vt 0.9913 0.2604
vt 0.4792 -1.192e-07
vt 0.9167 0.08333
vt 0.08333 0.08333
vt 0.2604 0.01042
vt 0.9896 0.2604
vt 1 0.2604
vt 1 0.01042
vt 0.9167 0.08333
vt 0.5 -1.192e-07
vt 0.08333 0.08333
vt 1 0.5
vt 1 0.2604
vt 0.7396 0.01042
vt 0.2604 0.01042
vt 0.9913 0.2604
vt 0.7465 0.001736
vt 0.7396 0.01042
vt 0.2604 0.01042
vt 0.9236 0.08333
vt 0.7396 0.01042
vt 0.9896 0.2604
vt 1 0.08333
vt 0.7413 0.00868
vt 0.7396 0.01042
vt 0.2604 0.01042
vt 0.5 -1.192e-07
vt 0.9913 0.2604
vt 0.5 -1.192e-07
vt 0.9896 0.2604
vt 0.5 0
vt 0.9931 0.7396
vt 0.7396 0.01042
vt 0.9167 0.08333
vt 1 0.5
vt 0.003472 0.25
vt 0.9931 0.7396
vt 1 0.9167
vt 0.5 0
vt 0.9236 0.08333
vt 1 0.5
vt 0 0.5
vt 1 0.5
vt 1 0.5
vt 1 0.75
vt 1 0.7396
vt 0.9167 0.08333
vt 1 0.5
vt 1 0.75
vt 0 0.5
vt 1 0.5
vt 0.9896 0.2604
vt 1 0.75
vt 0.008681 0.2517
vt 1 0.7396
vt 0.9306 0.9167
vt 0.7396 0.01042
vt 0.9913 0.2604
vt 1 0.75
vt 1 0.08333
vt 1 1
vt 0.9236 0.08333
vt 1 1
vt 0.2604 0.9896
vt 0.7413 0.01042
vt 0 0.5
vt 0.5 1
vt 0 0.5
vt 0.08333 0.9167
vt 0.5 1
vt 0.7483 0.008681
vt 0.08333 0.9167
vt 0.5 1
vt 0.08333 0.9167
vt 0.01042 0.7396
vt 0.7483 0.008681
vt 0.7413 0.9896
vt 0.08333 0.9167
vt 0.7413 0.01042
vt 0.01042 0.7396
vt 0.7483 0.9913
vt 0.01042 0.7396
vt 0.01042 0.7396
vt 0.5 0
vt 0.01042 0.7396
vt 0.7483 0.9913
vt 0.01042 0.7396
vt 0.2604 0.9896
vt 0.5 0
vt 0.7413 0.9896
vt 0 0.5
vt 0.7413 0.01042
vt 0.9236 0.9167
vt 0.7396 0.01042
vt 1 0.9167
vt 0.7396 0.9896
vt 0.5 0
vt 0.9896 0.2604
vt 0.9236 0.9167
vt 0.5 0
vt 0.9896 0.2604
vt 0.9167 0.9167
vt 0.9236 0.08333
vt 0.9167 0.08333
vt 1 0.5
vt 0.7396 0.01042
vt 0.7413 0.9896
vt 0.7413 0.01042
vt 0.9167 0.08333
vt 0.08333 0.9167
vt 0.08333 0.9167
vt 0.5 1
vt 0.2604 0.9896
vt 0.2604 0.9896
vt 0.2604 0.9896
vt 0.2604 0.9896
vt 0.2604 0.9896
vt 0.2604 0.9896
vt 0.5 1
vt 0.2604 0.9896
vt 0.08333 0.9167
vt 0.5 1
vt 0.5 1
vt 0.2604 0.9896
vt 0.5 1
vt 0.2604 0.9896
vt 0.2604 0.9896
vt 0.25 0
vt 0.5 1
vt 0.01042 0.2604
vt 0.25 -1.192e-07
vt 0.5 1
vt 0 0.5
vt 0.08333 0.9167
vt 0.01042 0.2604
vt 0.5 -1.192e-07
vt 0.08333 0.9167
vt 0.2604 0.9896
vt 0.08333 0.08333
vt 0 -1.192e-07
vt 0.2604 0.9896
vt 0.5 -1.192e-07
vt 0.5 -1.192e-07
vt 0.7396 0.01042
vt 0.003472 0.25
vt 0.2604 0.01042
vt 0.7483 0.9913
vt 0.008681 0.2517
vt 0.5 0
vt 0 0.5
vt 1 0.9167
vt 1 0.7396
vt 0.7396 0.01042
vt 0.008681 0.2517
vt 0.2604 0.01042
vt 0.7431 0.9896
vt 0.08333 0.9167
vt 0.9931 0.7396
vt 0.2604 0.01042
vt 0.5 1
vt 0.003472 0.25
vt 0.9167 0.08333
vt 0.01042 0.7396
vt 1 0.5
vt 0.2604 0.01042
vt 1 0.9167
vt 0.01042 0.7396
vt 0.7396 0.01042
vt 0 0.5
vt 0.08333 0.08333
vt 0.7431 0.9896
vt 0 0.5
vt 0.5 -1.192e-07
vt 0 0.5
vt 0.9306 0.9167
vt 0.9931 0.7396
vt 0.08333 0.08333
vt 0.7483 0.9913
vt 0.08333 0.9167
vt 0.2604 0.01042
vt 0.5 1
vt 0.01042 0.7396
vt 1 0.5
vt 0.2604 0.01042
vt 0.02083 0
vt 1 0.2604
vt 0.08333 0.08333
vt 0.08333 -2.384e-07
vt 0.08333 0.08333
vt 0.008681 0.2517
vt 0.9931 0.2604
vt 0.5 -1.192e-07
vt 0.5 0
vt 1 0.08333
vt 0.2604 0.01042
vt 0.003472 0.25
vt 0.2604 0.01042
vt 0 0.5
vn 0.9109 -0.3416 0.2314
vn 0.9536 -0.2603 0.1512
vn 0.8907 -0.08164 0.4472
vn 0.7777 -0.2476 0.5777
vn 0.7636 0.133 0.6318
vn 0.5875 -0.07468 0.8057
vn 0.953 0.2951 -0.06861
vn 0.8818 0.4708 0.0253
vn 0.9586 0.1371 -0.2493
vn 0.6878 -0.7258 -0.01309
vn 0.6833 -0.7299 -0.01859
vn 0.893 -0.4091 -0.1875
vn 0.8987 -0.396 -0.1882
vn 0.9412 0.04456 -0.3348
vn 0.9393 0.06415 -0.3371
vn 0.8881 -0.4184 -0.1904
vn 0.9414 0.03723 -0.3352
vn 0.6776 -0.7349 -0.02847
vn 0.1113 -0.7655 0.6337
vn 0.09565 -0.8342 0.5431
vn 0.3862 -0.8812 0.2728
vn 0.3734 -0.8539 0.3624
vn 0.6109 -0.7886 -0.07059
vn 0.5797 -0.8148 0.001556
vn 0.4129 -0.8876 0.2038
vn 0.6763 -0.7322 -0.08072
vn 0.07819 -0.8915 0.4462
vn 0.04968 0.8371 -0.5447
vn 0.02005 0.8707 -0.4913
vn -0.268 0.8782 -0.396
vn -0.1875 0.846 -0.499
vn -0.621 0.7559 -0.207
vn -0.5397 0.787 -0.2988
vn -0.3309 0.9028 -0.2746
vn -0.6588 0.75 -0.0586
vn 0.001312 0.8926 -0.4508
vn 0.7295 -0.5502 -0.4062
vn 0.6907 -0.6124 -0.3845
vn 0.7408 -0.2012 -0.6408
vn 0.6979 -0.2574 -0.6683
vn 0.8211 -0.4514 -0.3492
vn 0.8255 -0.1017 -0.5552
vn 0.448 0.5173 -0.7291
vn 0.4689 0.5283 -0.7078
vn 0.2512 0.7596 -0.5999
vn 0.2416 0.7486 -0.6174
vn 0.2763 0.7581 -0.5907
vn 0.5053 0.5401 -0.6729
vn 0.65 0.1867 -0.7366
vn 0.616 0.1535 -0.7726
vn 0.7031 0.2468 -0.6668
vn -0.7705 0.07025 0.6335
vn -0.8346 0.008026 0.5508
vn -0.6406 -0.2841 0.7133
vn -0.559 -0.2193 0.7996
vn -0.4446 -0.4859 0.7524
vn -0.3754 -0.4003 0.8359
vn -0.7102 -0.3187 0.6277
vn -0.512 -0.5556 0.6551
vn -0.8675 0.004669 0.4975
vn -0.8835 0.4311 0.1832
vn -0.8366 0.5127 0.1928
vn -0.8773 0.4206 0.2311
vn -0.2007 -0.6815 0.7038
vn -0.1568 -0.5908 0.7914
vn -0.2506 -0.76 0.5996
vn 0.2708 -0.9481 0.1662
vn 0.2948 -0.9421 0.1597
vn 0.5069 -0.8605 0.05045
vn 0.4954 -0.8673 0.04715
vn 0.6769 -0.7348 -0.04303
vn 0.6739 -0.737 -0.05136
vn 0.5177 -0.8526 0.07102
vn 0.6835 -0.7295 -0.02347
vn 0.3084 -0.9355 0.1721
vn 0.6548 0.6466 -0.3914
vn 0.6548 0.6461 -0.3922
vn 0.42 0.8344 -0.3568
vn 0.436 0.8238 -0.3621
vn 0.1294 0.9514 -0.2793
vn 0.1439 0.9467 -0.2883
vn 0.4161 0.8357 -0.3582
vn 0.127 0.9532 -0.2742
vn 0.6528 0.6441 -0.3986
vn 0.835 0.3878 -0.3903
vn 0.8261 0.4063 -0.3903
vn 0.8357 0.3825 -0.394
vn -0.9089 0.2054 0.363
vn -0.9131 0.2245 0.3402
vn -0.8747 -0.1798 0.4499
vn -0.8546 -0.1927 0.4821
vn -0.6144 -0.6252 0.4812
vn -0.5985 -0.6119 0.517
vn -0.8865 -0.1753 0.4282
vn -0.6244 -0.6322 0.4586
vn -0.9177 0.2306 0.3234
vn -0.6352 0.7693 0.06806
vn -0.6324 0.7717 0.06745
vn -0.8183 0.5356 0.2084
vn -0.823 0.5242 0.2189
vn -0.818 0.5398 0.1988
vn -0.6317 0.7724 0.06525
vn -0.1972 -0.8996 0.3897
vn -0.208 -0.8795 0.4279
vn 0.175 -0.9525 0.249
vn 0.157 -0.9471 0.2799
vn -0.1933 -0.9106 0.3653
vn 0.1816 -0.957 0.226
vn 0.463 -0.8795 0.1097
vn 0.4551 -0.8813 0.1271
vn 0.4637 -0.8812 0.09253
vn -0.2835 0.9516 -0.1184
vn -0.2793 0.9521 -0.1245
vn -0.2849 0.9518 -0.1136
vn -0.6757 0.7289 -0.1098
vn -0.6763 0.7229 -0.1414
vn -0.8663 0.4994 0.01117
vn -0.8574 0.5124 0.04743
vn -0.9619 0.2231 0.1576
vn -0.9514 0.2347 0.1992
vn -0.8858 0.457 -0.08002
vn -0.9852 0.1666 0.03937
vn -0.6714 0.7046 -0.2297
vn 0.164 0.9595 -0.2289
vn 0.1404 0.9589 -0.2466
vn -0.3262 0.9392 -0.1068
vn -0.3034 0.9494 -0.08115
vn -0.6528 0.7564 0.04041
vn -0.642 0.7636 0.06922
vn -0.3511 0.9225 -0.1603
vn -0.664 0.7477 -0.007508
vn 0.1042 0.9504 -0.2929
vn 0.8671 -0.4706 -0.1634
vn 0.8721 -0.4572 -0.1741
vn 0.9581 -0.001282 -0.2863
vn 0.9566 0.02094 -0.2906
vn 0.8657 -0.4769 -0.1518
vn 0.9564 -0.01941 -0.2914
vn 0.6787 0.6582 -0.3258
vn 0.6777 0.6567 -0.3307
vn 0.4823 0.8193 -0.3099
vn 0.4892 0.819 -0.3
vn 0.4613 0.8179 -0.3437
vn 0.6699 0.6519 -0.3552
vn 0.8444 0.4193 -0.3333
vn 0.8416 0.4272 -0.3304
vn 0.8429 0.4072 -0.3518
vn -0.9213 0.2448 0.3021
vn -0.9273 0.248 0.2804
vn -0.9106 -0.1275 0.393
vn -0.9015 -0.1372 0.4105
vn -0.6181 -0.6484 0.4443
vn -0.6157 -0.6428 0.4558
vn -0.9201 -0.1236 0.3716
vn -0.6256 -0.6517 0.4289
vn -0.9345 0.2486 0.2547
vn -0.8285 0.5365 0.1603
vn -0.821 0.5398 0.1859
vn -0.8376 0.5317 0.1252
vn -0.07135 -0.9463 0.3153
vn -0.09586 -0.9398 0.3279
vn -0.06348 -0.9477 0.3127
vn 0.8118 0.002258 -0.5839
vn 0.5818 0.09375 -0.8079
vn 0.4142 0.3431 -0.843
vn 0.6723 0.3539 -0.6502
vn 0.3507 0.4088 -0.8425
vn 0.5266 0.548 -0.6499
vn 0.1283 0.339 -0.932
vn 0.1882 0.2685 -0.9447
vn 0.2674 0.1994 -0.9427
vn -0.6429 -0.6403 0.4203
vn -0.6582 -0.6364 0.4021
vn -0.1222 -0.9375 0.3258
vn -0.09281 -0.9357 0.3403
vn 0.2709 -0.9436 0.1901
vn 0.2955 -0.9315 0.2122
vn -0.1841 -0.959 0.2155
vn 0.2116 -0.9729 0.09302
vn -0.6961 -0.66 0.2824
vn 0.5126 -0.8561 0.06525
vn 0.522 -0.8473 0.09824
vn 0.6887 -0.7217 -0.06897
vn 0.6905 -0.723 -0.02045
vn 0.4823 -0.8758 -0.01868
vn 0.6785 -0.7149 -0.169
vn 0.04086 0.9168 -0.3972
vn 0.02738 0.9009 -0.4331
vn -0.3758 0.8756 -0.3034
vn -0.3777 0.8848 -0.2728
vn -0.3411 0.8419 -0.4181
vn 0.0445 0.8234 -0.5658
vn 0.8489 -0.4682 -0.2451
vn 0.859 -0.4802 -0.1774
vn 0.9077 -0.04251 -0.4173
vn 0.9375 -0.04834 -0.3446
vn 0.8161 -0.423 -0.3937
vn 0.6419 0.6317 -0.4346
vn 0.6154 0.6135 -0.4947
vn 0.3834 0.7864 -0.4842
vn 0.4064 0.8038 -0.4343
vn 0.3484 0.6933 -0.6308
vn 0.7926 0.3629 -0.4899
vn 0.8251 0.3742 -0.4233
vn -0.9427 -0.1338 0.3057
vn -0.932 -0.1297 0.3383
vn -0.9676 -0.178 0.1789
vn 0.2214 0.3652 -0.9042
vn 0.2927 0.05432 -0.9546
vn 0.06769 0.06543 -0.9955
vn -0.09104 0.4858 -0.8693
vn -0.2312 -0.09027 -0.9687
vn -0.5023 0.4107 -0.7609
vn 0.3258 -0.6206 -0.7132
vn 0.4066 -0.6493 -0.6427
vn 0.3146 -0.5915 -0.7424
vn -0.9795 0.0329 -0.1986
vn -0.9576 -0.276 -0.08283
vn -0.7259 -0.6874 0.02261
vn -0.8572 -0.3735 -0.3545
vn -0.6916 -0.6628 -0.2869
vn -0.8971 -0.1196 -0.4252
vn -0.6198 0.6275 -0.4712
vn -0.8884 0.3497 -0.2974
vn -0.8055 0.1597 -0.5706
vn -0.2795 -0.9599 -0.01941
vn 0.1034 -0.9889 -0.1064
vn -0.3752 -0.8741 -0.3085
vn -0.03925 -0.9302 -0.3648
vn 0.4073 -0.8901 -0.2042
vn 0.6153 -0.68 -0.3988
vn 0.2468 -0.8374 -0.4877
vn 0.417 -0.5896 -0.6917
vn 0.1176 0.6238 -0.7727
vn -0.2336 0.7182 -0.6554
vn 0.6859 -0.3229 -0.6521
vn 0.429 -0.1935 -0.8823
vn 0.3064 0.476 -0.8243
vn 0.2975 0.2386 -0.9244
vn 0.1755 -0.7702 -0.6132
vn -0.05313 -0.6021 -0.7967
vn -0.2332 -0.2503 -0.9396
vn 0.2267 -0.6894 -0.6879
vn 0.3548 -0.6915 -0.6292
vn 0.3211 -0.5961 -0.7359
vn 0.4543 -0.4971 -0.7392
vn 0.2376 -0.3397 -0.91
vn 0.1265 0.07022 -0.9895
vn -0.2998 0.1916 -0.9345
vn -0.5001 0.4411 -0.7451
vn -0.6098 0.3047 -0.7316
vn -0.7036 0.3486 -0.6192
vn -0.6967 0.2358 -0.6775
vn -0.7693 0.2103 -0.6032
vn -0.6049 -0.03333 -0.7956
vn -0.4412 -0.4234 -0.7913
vn -0.1297 -0.2911 -0.9478
vn -0.05521 -0.008057 -0.9984
vn -0.1273 0.2718 -0.9539
vn -0.7112 0.324 -0.6239
vn -0.7162 0.3062 -0.6271
vn -0.6931 0.4651 -0.5507
vn 0.04443 0.1134 -0.9926
vn 0.305 -0.01547 -0.9522
vn 0.1692 -0.6159 -0.7694
vn -0.4028 -0.3556 -0.8434
vn -0.1799 0.3144 -0.9321
vn -0.7335 0.1551 -0.6617
vn -0.3338 -0.4961 -0.8015
vn -0.2869 -0.5009 -0.8166
vn -0.353 -0.3983 -0.8466
vn 0.6788 -0.1404 -0.7207
vn 0.4243 0.398 -0.8133
vn 0.6636 -0.4278 -0.6136
vn -0.3811 -0.3358 -0.8614
vn 0.5507 -0.5846 -0.5958
vn -0.4308 -0.2164 -0.8761
vn -0.4832 -0.2279 -0.8453
vn -0.03742 0.757 -0.6523
vn -0.3421 0.7889 -0.5104
vn -0.3408 -0.3525 -0.8715
vn -0.5551 0.6774 -0.4827
vn 0.2092 -0.9008 -0.3803
vn -0.07651 -0.8798 -0.4691
vn -0.6025 -0.5719 -0.5567
vn -0.3443 0.7888 -0.5091
vn -0.02506 0.7356 -0.6769
vn 0.4429 0.3989 -0.8029
vn -0.919 0.2367 -0.3151
vn -0.8698 0.3983 -0.2911
vn -0.7438 0.5776 -0.3363
vn 0.7721 -0.3585 -0.5247
vn 0.7021 -0.5597 -0.4402
vn 0.553 -0.7403 -0.3823
vn 0.3693 -0.8619 -0.3474
vn 0.7383 -0.06681 -0.6711
vn -0.5592 0.7222 -0.407
vn -0.9053 -0.05008 -0.4218
vn 0.03482 0.9058 -0.4222
vn -0.3436 0.917 -0.2025
vn -0.6643 0.7466 0.03485
vn -0.3131 0.935 -0.1665
vn -0.6542 0.7538 0.06149
vn 0.1021 0.9222 -0.3728
vn 0.068 -0.9222 0.3807
vn 0.4251 -0.8883 0.1736
vn 0.7063 -0.7061 -0.04981
vn 0.427 -0.8893 0.1635
vn 0.7012 -0.7126 -0.02176
vn 0.08197 -0.9333 0.3495
vn -0.558 -0.5849 0.5886
vn -0.281 -0.8032 0.5253
vn -0.2709 -0.8247 0.4965
vn -0.5746 -0.5883 0.5689
vn -0.857 0.4431 0.2628
vn -0.885 0.05033 0.4629
vn -0.8427 0.474 0.2553
vn -0.8954 0.1116 0.4311
vn -0.7613 -0.3061 0.5716
vn -0.7953 -0.2637 0.5457
vn 0.8783 -0.01459 -0.4778
vn 0.7403 0.3177 -0.5924
vn 0.551 0.5656 -0.6136
vn 0.7748 0.3859 -0.5007
vn 0.6044 0.6075 -0.5154
vn 0.9098 0.0509 -0.4118
vn 0.3334 0.7594 -0.5587
vn 0.4023 0.7798 -0.4795
vn 0.8754 -0.3958 -0.2774
vn 0.896 -0.381 -0.2279
vn -0.2049 -0.2207 0.9536
vn -0.2978 -0.3172 0.9004
vn -0.1059 -0.4967 0.8614
vn -0.03037 -0.3799 0.9245
vn 0.1473 -0.6821 0.7163
vn 0.2218 -0.5593 0.7987
vn -0.4173 0.8596 -0.2949
vn -0.4511 0.8381 -0.3067
vn -0.7465 0.6087 0.2688
vn -0.6769 0.6508 0.3438
vn -0.6654 0.143 0.7327
vn -0.5514 0.2008 0.8097
vn -0.4614 -0.1522 0.874
vn -0.3504 -0.0727 0.9337
vn 0.8197 -0.1273 -0.5584
vn 0.749 -0.2189 -0.6253
vn 0.6349 0.1817 -0.7509
vn 0.6654 0.2286 -0.7106
vn 0.4461 0.5237 -0.7257
vn 0.4442 0.5308 -0.7217
vn 0.2259 0.7359 -0.6383
vn 0.1938 0.7205 -0.6658
vn 0.05417 0.8071 -0.5879
vn 0.02451 0.7808 -0.6243
vn 0.7493 -0.6376 0.1789
vn 0.6373 -0.7642 0.09885
vn 0.7612 -0.5716 -0.3062
vn 0.8639 -0.4505 -0.2253
vn -0.1274 0.8283 -0.5456
vn -0.1207 0.8126 -0.5701
vn 0.4125 -0.7891 0.4551
vn 0.5076 -0.6701 0.5416
vn -0.6281 -0.6361 0.4482
vn -0.183 -0.9188 0.3496
vn 0.191 -0.9599 0.2051
vn -0.1593 -0.9254 0.3439
vn 0.212 -0.9585 0.1906
vn -0.624 -0.637 0.4525
vn -0.6314 0.7725 0.06742
vn -0.8186 0.5408 0.1935
vn -0.921 0.2326 0.3125
vn -0.8166 0.5422 0.198
vn -0.9195 0.237 0.3136
vn -0.6304 0.7724 0.07739
vn -0.8934 -0.1707 0.4156
vn -0.8947 -0.1608 0.4166
vn 0.9427 0.0426 -0.3308
vn 0.8325 0.3954 -0.388
vn 0.6554 0.6445 -0.3936
vn 0.8329 0.416 -0.3649
vn 0.6655 0.6502 -0.3665
vn 0.9471 0.04828 -0.3173
vn 0.434 0.829 -0.3525
vn 0.1439 0.9536 -0.2644
vn 0.4635 0.8223 -0.33
vn 0.1665 0.955 -0.2454
vn 0.6725 -0.7389 -0.04202
vn 0.8844 -0.4244 -0.194
vn 0.8819 -0.4306 -0.1919
vn 0.6709 -0.7397 -0.05115
vn -0.2811 0.954 -0.1036
vn -0.2778 0.9567 -0.08649
vn 0.4641 -0.8827 0.07349
vn 0.4707 -0.8802 0.05972
vn 0.1441 0.9374 -0.3171
vn -0.2848 0.9483 -0.1397
vn -0.6419 0.7639 0.06641
vn 0.1205 -0.9402 0.3185
vn 0.4391 -0.8862 0.1479
vn 0.6923 -0.7215 -0.01144
vn -0.583 -0.5952 0.5529
vn -0.2358 -0.8502 0.4706
vn -0.8315 0.5034 0.2347
vn -0.9031 0.1673 0.3955
vn -0.8257 -0.2204 0.5192
vn 0.9304 0.07624 -0.3585
vn 0.8066 0.4158 -0.4201
vn 0.6423 0.6379 -0.4249
vn 0.4392 0.8056 -0.3977
vn 0.9016 -0.3842 -0.1986
vn -0.6178 -0.6381 0.4596
vn -0.1274 -0.9318 0.3399
vn 0.2412 -0.9537 0.1794
vn -0.6332 0.7696 0.08216
vn -0.816 0.5423 0.1999
vn -0.9178 0.2416 0.3149
vn -0.8954 -0.1484 0.4197
vn 0.9526 0.04071 -0.3013
vn 0.8371 0.428 -0.3407
vn 0.675 0.6562 -0.3372
vn 0.484 0.8195 -0.3069
vn 0.1744 0.9575 -0.2295
vn 0.6722 -0.7385 -0.05325
vn 0.8779 -0.442 -0.1839
vn -0.2853 0.9555 -0.07495
vn 0.4828 -0.8742 0.05216
vn -0.9434 0.2424 0.226
vn -0.9277 -0.1273 0.351
vn -0.6354 -0.6494 0.4177
vn 0.9498 -0.0354 -0.3109
vn 0.8354 0.3909 -0.3862
vn 0.6555 0.6424 -0.397
vn 0.431 0.8107 -0.3961
vn 0.06626 0.9314 -0.358
vn 0.6897 -0.724 -0.006348
vn 0.8646 -0.4793 -0.1505
vn -0.3705 0.8997 -0.2309
vn -0.6728 0.7367 -0.06809
vn 0.308 -0.9305 0.1981
vn 0.5239 -0.8462 0.09702
vn -0.07392 -0.9432 0.3238
vn -0.8486 0.5224 0.08274
vn -0.5235 0.8275 -0.2029
vn -0.5394 0.8195 -0.1933
vn -0.7087 0.4844 -0.5129
vn -0.5183 0.6254 -0.5832
vn -0.6414 0.3229 -0.696
vn -0.4266 0.5353 -0.729
vn -0.1919 0.6617 -0.7248
vn -0.1151 0.5386 -0.8347
vn -0.1087 0.8779 -0.4662
vn 0.8521 -0.1153 -0.5105
vn 0.8074 -0.1572 -0.5687
vn 0.9326 -0.2967 -0.2053
vn 0.9433 -0.2969 -0.1482
vn 0.8802 0.103 -0.4633
vn 0.7427 0.1728 -0.647
vn -0.3404 0.3024 -0.8903
vn -0.1574 0.508 -0.8468
vn 0.1613 0.2412 -0.957
vn 0.2847 0.3831 -0.8787
vn 0.03464 0.4609 -0.8867
vn 0.3081 0.3725 -0.8754
vn 0.5573 0.06192 -0.828
vn 0.6296 0.1421 -0.7638
vn 0.566 0.2811 -0.7749
vn 0.2329 0.2793 0.9315
vn 0.4421 0.5244 0.7277
vn 0.2774 0.6911 0.6673
vn 0.08686 0.4427 0.8925
vn 0.1045 0.8421 0.529
vn -0.09397 0.642 0.7609
vn 0.5529 0.833 0.01679
vn 0.427 0.9022 -0.05942
vn 0.6717 0.7388 0.05512
vn -0.182 0.9522 0.2452
vn -0.3584 0.8489 0.3885
vn 0.2219 0.956 -0.1917
vn 0.6113 0.3346 0.7171
vn 0.3994 0.1088 0.9103
vn 0.7854 0.6161 0.05933
vn 0.3599 -0.3598 0.8608
vn 0.6302 -0.4884 0.6036
vn 0.8416 -0.4877 0.232
vn -0.1241 0.7148 -0.6882
vn -0.2534 0.7576 -0.6015
vn -0.4815 0.8371 -0.2595
vn 0.9247 -0.3426 -0.1657
vn 0.8554 -0.08203 -0.5113
vn 0.4022 0.4955 -0.7698
vn 0.08292 0.6667 -0.7407
vn 0.6694 0.2207 -0.7094
vn -0.3746 0.3559 0.8561
vn -0.1807 0.112 0.9771
vn -0.04431 -0.03769 0.9983
vn -0.5788 0.7034 0.4125
vn 0.124 -0.1879 0.9743
f 1/1/1 2/2/2 3/3/3
f 1/1/1 3/3/3 4/4/4
f 4/4/4 3/3/3 5/5/5
f 4/4/4 5/5/5 6/6/6
f 3/3/3 7/7/7 8/8/8
f 3/3/3 8/8/8 5/5/5
f 2/2/2 9/9/9 7/7/7
f 2/2/2 7/7/7 3/3/3
f 10/10/10 11/11/11 12/12/12
f 10/10/10 12/12/12 13/13/13
f 13/13/13 12/12/12 14/14/14
f 13/13/13 14/14/14 15/15/15
f 12/12/12 16/16/16 17/17/17
f 12/12/12 17/17/17 14/14/14
f 11/11/11 18/18/18 16/16/16
f 11/11/11 16/16/16 12/12/12
f 19/19/19 20/20/20 21/21/21
f 19/19/19 21/21/21 22/22/22
f 22/22/22 21/21/21 23/23/23
f 22/22/22 23/23/23 24/24/24
f 21/21/21 25/25/25 26/26/26
f 21/21/21 26/26/26 23/23/23
f 20/20/20 27/27/27 25/25/25
f 20/20/20 25/25/25 21/21/21
f 28/28/28 29/29/29 30/30/30
f 28/28/28 30/30/30 31/31/31
f 31/31/31 30/30/30 32/32/32
f 31/31/31 32/32/32 33/33/33
f 30/30/30 34/34/34 35/35/35
f 30/30/30 35/35/35 32/32/32
f 29/29/29 36/36/36 34/34/34
f 29/29/29 34/34/34 30/30/30
f 24/24/24 23/23/23 37/37/37
f 24/24/24 37/37/37 38/38/38
f 38/38/38 37/37/37 39/39/39
f 38/38/38 39/39/39 40/40/40
f 37/37/37 41/41/41 42/42/42
f 37/37/37 42/42/42 39/39/39
f 23/23/23 26/26/26 41/41/41
f 23/23/23 41/41/41 37/37/37
f 43/43/43 44/44/44 45/45/45
f 43/43/43 45/45/45 46/46/46
f 46/46/46 45/45/45 29/29/29
f 46/46/46 29/29/29 28/28/28
f 45/45/45 47/47/47 36/36/36
f 45/45/45 36/36/36 29/29/29
f 44/44/44 48/48/48 47/47/47
f 44/44/44 47/47/47 45/45/45
f 40/40/40 39/39/39 49/49/49
f 40/40/40 49/49/49 50/50/50
f 50/50/50 49/49/49 44/44/44
f 50/50/50 44/44/44 43/43/43
f 49/49/49 51/51/51 48/48/48
f 49/49/49 48/48/48 44/44/44
f 39/39/39 42/42/42 51/51/51
f 39/39/39 51/51/51 49/49/49
f 52/52/52 53/53/53 54/54/54
f 52/52/52 54/54/54 55/55/55
f 55/55/55 54/54/54 56/56/56
f 55/55/55 56/56/56 57/57/57
f 54/54/54 58/58/58 59/59/59
f 54/54/54 59/59/59 56/56/56
f 53/53/53 60/60/60 58/58/58
f 53/53/53 58/58/58 54/54/54
f 33/33/33 32/32/32 61/61/61
f 33/33/33 61/61/61 62/62/62
f 62/62/62 61/61/61 53/53/53
f 62/62/62 53/53/53 52/52/52
f 61/61/61 63/63/63 60/60/60
f 61/61/61 60/60/60 53/53/53
f 32/32/32 35/35/35 63/63/63
f 32/32/32 63/63/63 61/61/61
f 57/57/57 56/56/56 64/64/64
f 57/57/57 64/64/64 65/65/65
f 65/65/65 64/64/64 20/20/20
f 65/65/65 20/20/20 19/19/19
f 64/64/64 66/66/66 27/27/27
f 64/64/64 27/27/27 20/20/20
f 56/56/56 59/59/59 66/66/66
f 56/56/56 66/66/66 64/64/64
f 67/67/67 68/68/68 69/69/69
f 67/67/67 69/69/69 70/70/70
f 70/70/70 69/69/69 71/71/71
f 70/70/70 71/71/71 72/72/72
f 69/69/69 73/73/73 74/74/74
f 69/69/69 74/74/74 71/71/71
f 68/68/68 75/75/75 73/73/73
f 68/68/68 73/73/73 69/69/69
f 76/76/76 77/77/77 78/78/78
f 76/76/76 78/78/78 79/79/79
f 79/79/79 78/78/78 80/80/80
f 79/79/79 80/80/80 81/81/81
f 78/78/78 82/82/82 83/83/83
f 78/78/78 83/83/83 80/80/80
f 77/77/77 84/84/84 82/82/82
f 77/77/77 82/82/82 78/78/78
f 15/15/15 14/14/14 85/85/85
f 15/15/15 85/85/85 86/86/86
f 86/86/86 85/85/85 77/77/77
f 86/86/86 77/77/77 76/76/76
f 85/85/85 87/87/87 84/84/84
f 85/85/85 84/84/84 77/77/77
f 14/14/14 17/17/17 87/87/87
f 14/14/14 87/87/87 85/85/85
f 88/88/88 89/89/89 90/90/90
f 88/88/88 90/90/90 91/91/91
f 91/91/91 90/90/90 92/92/92
f 91/91/91 92/92/92 93/93/93
f 90/90/90 94/94/94 95/95/95
f 90/90/90 95/95/95 92/92/92
f 89/89/89 96/96/96 94/94/94
f 89/89/89 94/94/94 90/90/90
f 97/97/97 98/98/98 99/99/99
f 97/97/97 99/99/99 100/100/100
f 100/100/100 99/99/99 89/89/89
f 100/100/100 89/89/89 88/88/88
f 99/99/99 101/101/101 96/96/96
f 99/99/99 96/96/96 89/89/89
f 98/98/98 102/102/102 101/101/101
f 98/98/98 101/101/101 99/99/99
f 93/93/93 92/92/92 103/103/103
f 93/93/93 103/103/103 104/104/104
f 104/104/104 103/103/103 105/105/105
f 104/104/104 105/105/105 106/106/106
f 103/103/103 107/107/107 108/108/108
f 103/103/103 108/108/108 105/105/105
f 92/92/92 95/95/95 107/107/107
f 92/92/92 107/107/107 103/103/103
f 106/106/106 105/105/105 109/109/109
f 106/106/106 109/109/109 110/110/110
f 110/110/110 109/109/109 11/11/11
f 110/110/110 11/11/11 10/10/10
f 109/109/109 111/111/111 18/18/18
f 109/109/109 18/18/18 11/11/11
f 105/105/105 108/108/108 111/111/111
f 105/105/105 111/111/111 109/109/109
f 81/81/81 80/80/80 112/112/112
f 81/81/81 112/112/112 113/113/113
f 113/113/113 112/112/112 98/98/98
f 113/113/113 98/98/98 97/97/97
f 112/112/112 114/114/114 102/102/102
f 112/112/112 102/102/102 98/98/98
f 80/80/80 83/83/83 114/114/114
f 80/80/80 114/114/114 112/112/112
f 115/115/115 116/116/116 117/117/117
f 115/115/115 117/117/117 118/118/118
f 118/118/118 117/117/117 119/119/119
f 118/118/118 119/119/119 120/120/120
f 117/117/117 121/121/121 122/122/122
f 117/117/117 122/122/122 119/119/119
f 116/116/116 123/123/123 121/121/121
f 116/116/116 121/121/121 117/117/117
f 124/124/124 125/125/125 126/126/126
f 124/124/124 126/126/126 127/127/127
f 127/127/127 126/126/126 128/128/128
f 127/127/127 128/128/128 129/129/129
f 126/126/126 130/130/130 131/131/131
f 126/126/126 131/131/131 128/128/128
f 125/125/125 132/132/132 130/130/130
f 125/125/125 130/130/130 126/126/126
f 72/72/72 71/71/71 133/133/133
f 72/72/72 133/133/133 134/134/134
f 134/134/134 133/133/133 135/135/135
f 134/134/134 135/135/135 136/136/136
f 133/133/133 137/137/137 138/138/138
f 133/133/133 138/138/138 135/135/135
f 71/71/71 74/74/74 137/137/137
f 71/71/71 137/137/137 133/133/133
f 139/139/139 140/140/140 141/141/141
f 139/139/139 141/141/141 142/142/142
f 142/142/142 141/141/141 125/125/125
f 142/142/142 125/125/125 124/124/124
f 141/141/141 143/143/143 132/132/132
f 141/141/141 132/132/132 125/125/125
f 140/140/140 144/144/144 143/143/143
f 140/140/140 143/143/143 141/141/141
f 136/136/136 135/135/135 145/145/145
f 136/136/136 145/145/145 146/146/146
f 146/146/146 145/145/145 140/140/140
f 146/146/146 140/140/140 139/139/139
f 145/145/145 147/147/147 144/144/144
f 145/145/145 144/144/144 140/140/140
f 135/135/135 138/138/138 147/147/147
f 135/135/135 147/147/147 145/145/145
f 148/148/148 149/149/149 150/150/150
f 148/148/148 150/150/150 151/151/151
f 151/151/151 150/150/150 152/152/152
f 151/151/151 152/152/152 153/153/153
f 150/150/150 154/154/154 155/155/155
f 150/150/150 155/155/155 152/152/152
f 149/149/149 156/156/156 154/154/154
f 149/149/149 154/154/154 150/150/150
f 129/129/129 128/128/128 157/157/157
f 129/129/129 157/157/157 158/158/158
f 158/158/158 157/157/157 149/149/149
f 158/158/158 149/149/149 148/148/148
f 157/157/157 159/159/159 156/156/156
f 157/157/157 156/156/156 149/149/149
f 128/128/128 131/131/131 159/159/159
f 128/128/128 159/159/159 157/157/157
f 153/153/153 152/152/152 160/160/160
f 153/153/153 160/160/160 161/161/161
f 161/161/161 160/160/160 68/68/68
f 161/161/161 68/68/68 67/67/67
f 160/160/160 162/162/162 75/75/75
f 160/160/160 75/75/75 68/68/68
f 152/152/152 155/155/155 162/162/162
f 152/152/152 162/162/162 160/160/160
f 163/163/163 164/164/164 165/165/165
f 163/163/163 165/165/165 166/166/166
f 166/166/166 165/165/165 167/167/167
f 166/166/166 167/167/167 168/168/168
f 165/165/165 169/169/169 170/170/170
f 165/165/165 170/170/170 167/167/167
f 164/164/164 171/171/171 169/169/169
f 164/164/164 169/169/169 165/165/165
f 172/172/172 173/173/173 174/174/174
f 172/172/172 174/174/174 175/175/175
f 175/175/175 174/174/174 176/176/176
f 175/175/175 176/176/176 177/177/177
f 174/174/174 178/178/178 179/179/179
f 174/174/174 179/179/179 176/176/176
f 173/173/173 180/180/180 178/178/178
f 173/173/173 178/178/178 174/174/174
f 177/177/177 176/176/176 181/181/181
f 177/177/177 181/181/181 182/182/182
f 182/182/182 181/181/181 183/183/183
f 182/182/182 183/183/183 184/184/184
f 181/181/181 185/185/185 186/186/186
f 181/181/181 186/186/186 183/183/183
f 176/176/176 179/179/179 185/185/185
f 176/176/176 185/185/185 181/181/181
f 187/187/187 188/188/188 189/189/189
f 187/187/187 189/189/189 190/190/190
f 190/190/190 189/189/189 116/116/116
f 190/190/190 116/116/116 115/115/115
f 189/189/189 191/191/191 123/123/123
f 189/189/189 123/123/123 116/116/116
f 188/188/188 192/192/192 191/191/191
f 188/188/188 191/191/191 189/189/189
f 184/184/184 183/183/183 193/193/193
f 184/184/184 193/193/193 194/194/194
f 194/194/194 193/193/193 195/195/195
f 194/194/194 195/195/195 196/196/196
f 193/193/193 197/197/197 163/163/163
f 193/193/193 163/163/163 195/195/195
f 183/183/183 186/186/186 197/197/197
f 183/183/183 197/197/197 193/193/193
f 198/198/198 199/199/199 200/200/200
f 198/198/198 200/200/200 201/201/201
f 201/201/201 200/200/200 188/188/188
f 201/201/201 188/188/188 187/187/187
f 200/200/200 202/202/202 192/192/192
f 200/200/200 192/192/192 188/188/188
f 199/199/199 168/168/168 202/202/202
f 199/199/199 202/202/202 200/200/200
f 196/196/196 195/195/195 203/203/203
f 196/196/196 203/203/203 204/204/204
f 204/204/204 203/203/203 199/199/199
f 204/204/204 199/199/199 198/198/198
f 203/203/203 166/166/166 168/168/168
f 203/203/203 168/168/168 199/199/199
f 195/195/195 163/163/163 166/166/166
f 195/195/195 166/166/166 203/203/203
f 120/120/120 119/119/119 205/205/205
f 120/120/120 205/205/205 206/206/206
f 206/206/206 205/205/205 173/173/173
f 206/206/206 173/173/173 172/172/172
f 205/205/205 207/207/207 180/180/180
f 205/205/205 180/180/180 173/173/173
f 119/119/119 122/122/122 207/207/207
f 119/119/119 207/207/207 205/205/205
f 208/208/208 209/209/209 210/210/210
f 208/208/208 210/210/210 211/211/211
f 211/211/211 210/210/210 212/212/212
f 211/211/211 212/212/212 213/213/213
f 210/210/210 214/214/214 215/215/215
f 210/210/210 215/215/215 212/212/212
f 209/209/209 216/216/216 214/214/214
f 209/209/209 214/214/214 210/210/210
f 122/122/122 217/217/217 218/218/218
f 122/122/122 218/218/218 207/207/207
f 207/207/207 218/218/218 219/219/219
f 207/207/207 219/219/219 180/180/180
f 218/218/218 220/220/220 221/221/221
f 218/218/218 221/221/221 219/219/219
f 217/217/217 222/222/222 220/220/220
f 217/217/217 220/220/220 218/218/218
f 123/123/123 223/223/223 224/224/224
f 123/123/123 224/224/224 121/121/121
f 121/121/121 224/224/224 217/217/217
f 121/121/121 217/217/217 122/122/122
f 224/224/224 225/225/225 222/222/222
f 224/224/224 222/222/222 217/217/217
f 223/223/223 213/213/213 225/225/225
f 223/223/223 225/225/225 224/224/224
f 180/180/180 219/219/219 226/226/226
f 180/180/180 226/226/226 178/178/178
f 178/178/178 226/226/226 227/227/227
f 178/178/178 227/227/227 179/179/179
f 226/226/226 228/228/228 229/229/229
f 226/226/226 229/229/229 227/227/227
f 219/219/219 221/221/221 228/228/228
f 219/219/219 228/228/228 226/226/226
f 179/179/179 227/227/227 230/230/230
f 179/179/179 230/230/230 185/185/185
f 185/185/185 230/230/230 231/231/231
f 185/185/185 231/231/231 186/186/186
f 230/230/230 232/232/232 233/233/233
f 230/230/230 233/233/233 231/231/231
f 227/227/227 229/229/229 232/232/232
f 227/227/227 232/232/232 230/230/230
f 192/192/192 234/234/234 235/235/235
f 192/192/192 235/235/235 191/191/191
f 191/191/191 235/235/235 223/223/223
f 191/191/191 223/223/223 123/123/123
f 235/235/235 211/211/211 213/213/213
f 235/235/235 213/213/213 223/223/223
f 234/234/234 208/208/208 211/211/211
f 234/234/234 211/211/211 235/235/235
f 186/186/186 231/231/231 236/236/236
f 186/186/186 236/236/236 197/197/197
f 197/197/197 236/236/236 164/164/164
f 197/197/197 164/164/164 163/163/163
f 236/236/236 237/237/237 171/171/171
f 236/236/236 171/171/171 164/164/164
f 231/231/231 233/233/233 237/237/237
f 231/231/231 237/237/237 236/236/236
f 168/168/168 167/167/167 238/238/238
f 168/168/168 238/238/238 202/202/202
f 202/202/202 238/238/238 234/234/234
f 202/202/202 234/234/234 192/192/192
f 238/238/238 239/239/239 208/208/208
f 238/238/238 208/208/208 234/234/234
f 167/167/167 170/170/170 239/239/239
f 167/167/167 239/239/239 238/238/238
f 240/240/240 241/241/241 242/242/242
f 240/240/240 242/242/242 243/243/243
f 244/244/244 243/243/243 242/242/242
f 244/244/244 242/242/242 245/245/245
f 246/246/246 245/245/245 242/242/242
f 246/246/246 242/242/242 247/247/247
f 248/248/248 247/247/247 242/242/242
f 248/248/248 242/242/242 249/249/249
f 250/250/250 249/249/249 242/242/242
f 250/250/250 242/242/242 251/251/251
f 252/252/252 251/251/251 242/242/242
f 252/252/252 242/242/242 253/253/253
f 254/254/254 253/253/253 242/242/242
f 254/254/254 242/242/242 255/255/255
f 256/256/256 255/255/255 242/242/242
f 256/256/256 242/242/242 241/241/241
f 233/233/233 257/257/257 258/258/258
f 233/233/233 258/258/258 237/237/237
f 237/237/237 258/258/258 259/259/259
f 237/237/237 259/259/259 171/171/171
f 258/258/258 260/260/260 261/261/261
f 258/258/258 261/261/261 259/259/259
f 257/257/257 262/262/262 260/260/260
f 257/257/257 260/260/260 258/258/258
f 170/170/170 263/263/263 264/264/264
f 170/170/170 264/264/264 239/239/239
f 239/239/239 264/264/264 209/209/209
f 239/239/239 209/209/209 208/208/208
f 264/264/264 265/265/265 216/216/216
f 264/264/264 216/216/216 209/209/209
f 263/263/263 266/266/266 265/265/265
f 263/263/263 265/265/265 264/264/264
f 171/171/171 259/259/259 267/267/267
f 171/171/171 267/267/267 169/169/169
f 169/169/169 267/267/267 263/263/263
f 169/169/169 263/263/263 170/170/170
f 267/267/267 268/268/268 266/266/266
f 267/267/267 266/266/266 263/263/263
f 259/259/259 261/261/261 268/268/268
f 259/259/259 268/268/268 267/267/267
f 222/222/222 269/269/269 270/270/270
f 222/222/222 270/270/270 220/220/220
f 220/220/220 270/270/270 271/271/271
f 220/220/220 271/271/271 221/221/221
f 270/270/270 272/272/272 273/273/273
f 270/270/270 273/273/273 271/271/271
f 269/269/269 274/274/274 272/272/272
f 269/269/269 272/272/272 270/270/270
f 213/213/213 212/212/212 275/275/275
f 213/213/213 275/275/275 225/225/225
f 225/225/225 275/275/275 269/269/269
f 225/225/225 269/269/269 222/222/222
f 275/275/275 276/276/276 274/274/274
f 275/275/275 274/274/274 269/269/269
f 212/212/212 215/215/215 276/276/276
f 212/212/212 276/276/276 275/275/275
f 221/221/221 271/271/271 277/277/277
f 221/221/221 277/277/277 228/228/228
f 228/228/228 277/277/277 278/278/278
f 228/228/228 278/278/278 229/229/229
f 277/277/277 279/279/279 280/280/280
f 277/277/277 280/280/280 278/278/278
f 271/271/271 273/273/273 279/279/279
f 271/271/271 279/279/279 277/277/277
f 229/229/229 278/278/278 281/281/281
f 229/229/229 281/281/281 232/232/232
f 232/232/232 281/281/281 257/257/257
f 232/232/232 257/257/257 233/233/233
f 281/281/281 282/282/282 262/262/262
f 281/281/281 262/262/262 257/257/257
f 278/278/278 280/280/280 282/282/282
f 278/278/278 282/282/282 281/281/281
f 240/240/240 283/283/283 284/284/284
f 240/240/240 284/284/284 241/241/241
f 241/241/241 284/284/284 285/285/285
f 241/241/241 285/285/285 256/256/256
f 284/284/284 265/265/265 266/266/266
f 284/284/284 266/266/266 285/285/285
f 283/283/283 216/216/216 265/265/265
f 283/283/283 265/265/265 284/284/284
f 250/250/250 286/286/286 287/287/287
f 250/250/250 287/287/287 249/249/249
f 249/249/249 287/287/287 288/288/288
f 249/249/249 288/288/288 248/248/248
f 287/287/287 279/279/279 273/273/273
f 287/287/287 273/273/273 288/288/288
f 286/286/286 280/280/280 279/279/279
f 286/286/286 279/279/279 287/287/287
f 254/254/254 289/289/289 290/290/290
f 254/254/254 290/290/290 253/253/253
f 253/253/253 290/290/290 291/291/291
f 253/253/253 291/291/291 252/252/252
f 290/290/290 260/260/260 262/262/262
f 290/290/290 262/262/262 291/291/291
f 289/289/289 261/261/261 260/260/260
f 289/289/289 260/260/260 290/290/290
f 246/246/246 292/292/292 293/293/293
f 246/246/246 293/293/293 245/245/245
f 245/245/245 293/293/293 294/294/294
f 245/245/245 294/294/294 244/244/244
f 293/293/293 276/276/276 215/215/215
f 293/293/293 215/215/215 294/294/294
f 292/292/292 274/274/274 276/276/276
f 292/292/292 276/276/276 293/293/293
f 244/244/244 294/294/294 295/295/295
f 244/244/244 295/295/295 243/243/243
f 243/243/243 295/295/295 283/283/283
f 243/243/243 283/283/283 240/240/240
f 295/295/295 214/214/214 216/216/216
f 295/295/295 216/216/216 283/283/283
f 294/294/294 215/215/215 214/214/214
f 294/294/294 214/214/214 295/295/295
f 248/248/248 288/288/288 296/296/296
f 248/248/248 296/296/296 247/247/247
f 247/247/247 296/296/296 292/292/292
f 247/247/247 292/292/292 246/246/246
f 296/296/296 272/272/272 274/274/274
f 296/296/296 274/274/274 292/292/292
f 288/288/288 273/273/273 272/272/272
f 288/288/288 272/272/272 296/296/296
f 252/252/252 291/291/291 297/297/297
f 252/252/252 297/297/297 251/251/251
f 251/251/251 297/297/297 286/286/286
f 251/251/251 286/286/286 250/250/250
f 297/297/297 282/282/282 280/280/280
f 297/297/297 280/280/280 286/286/286
f 291/291/291 262/262/262 282/282/282
f 291/291/291 282/282/282 297/297/297
f 256/256/256 285/285/285 298/298/298
f 256/256/256 298/298/298 255/255/255
f 255/255/255 298/298/298 289/289/289
f 255/255/255 289/289/289 254/254/254
f 298/298/298 268/268/268 261/261/261
f 298/298/298 261/261/261 289/289/289
f 285/285/285 266/266/266 268/268/268
f 285/285/285 268/268/268 298/298/298
f 36/36/36 299/299/299 300/300/300
f 36/36/36 300/300/300 34/34/34
f 34/34/34 300/300/300 301/301/301
f 34/34/34 301/301/301 35/35/35
f 300/300/300 302/302/302 303/303/303
f 300/300/300 303/303/303 301/301/301
f 299/299/299 304/304/304 302/302/302
f 299/299/299 302/302/302 300/300/300
f 27/27/27 305/305/305 306/306/306
f 27/27/27 306/306/306 25/25/25
f 25/25/25 306/306/306 307/307/307
f 25/25/25 307/307/307 26/26/26
f 306/306/306 308/308/308 309/309/309
f 306/306/306 309/309/309 307/307/307
f 305/305/305 310/310/310 308/308/308
f 305/305/305 308/308/308 306/306/306
f 59/59/59 311/311/311 312/312/312
f 59/59/59 312/312/312 66/66/66
f 66/66/66 312/312/312 305/305/305
f 66/66/66 305/305/305 27/27/27
f 312/312/312 313/313/313 310/310/310
f 312/312/312 310/310/310 305/305/305
f 311/311/311 314/314/314 313/313/313
f 311/311/311 313/313/313 312/312/312
f 35/35/35 301/301/301 315/315/315
f 35/35/35 315/315/315 63/63/63
f 63/63/63 315/315/315 316/316/316
f 63/63/63 316/316/316 60/60/60
f 315/315/315 317/317/317 318/318/318
f 315/315/315 318/318/318 316/316/316
f 301/301/301 303/303/303 317/317/317
f 301/301/301 317/317/317 315/315/315
f 60/60/60 316/316/316 319/319/319
f 60/60/60 319/319/319 58/58/58
f 58/58/58 319/319/319 311/311/311
f 58/58/58 311/311/311 59/59/59
f 319/319/319 320/320/320 314/314/314
f 319/319/319 314/314/314 311/311/311
f 316/316/316 318/318/318 320/320/320
f 316/316/316 320/320/320 319/319/319
f 42/42/42 321/321/321 322/322/322
f 42/42/42 322/322/322 51/51/51
f 51/51/51 322/322/322 323/323/323
f 51/51/51 323/323/323 48/48/48
f 322/322/322 324/324/324 325/325/325
f 322/322/322 325/325/325 323/323/323
f 321/321/321 326/326/326 324/324/324
f 321/321/321 324/324/324 322/322/322
f 48/48/48 323/323/323 327/327/327
f 48/48/48 327/327/327 47/47/47
f 47/47/47 327/327/327 299/299/299
f 47/47/47 299/299/299 36/36/36
f 327/327/327 328/328/328 304/304/304
f 327/327/327 304/304/304 299/299/299
f 323/323/323 325/325/325 328/328/328
f 323/323/323 328/328/328 327/327/327
f 26/26/26 307/307/307 329/329/329
f 26/26/26 329/329/329 41/41/41
f 41/41/41 329/329/329 321/321/321
f 41/41/41 321/321/321 42/42/42
f 329/329/329 330/330/330 326/326/326
f 329/329/329 326/326/326 321/321/321
f 307/307/307 309/309/309 330/330/330
f 307/307/307 330/330/330 329/329/329
f 331/331/331 332/332/332 333/333/333
f 331/331/331 333/333/333 334/334/334
f 334/334/334 333/333/333 335/335/335
f 334/334/334 335/335/335 336/336/336
f 333/333/333 65/65/65 19/19/19
f 333/333/333 19/19/19 335/335/335
f 332/332/332 57/57/57 65/65/65
f 332/332/332 65/65/65 333/333/333
f 337/337/337 338/338/338 339/339/339
f 337/337/337 339/339/339 340/340/340
f 340/340/340 339/339/339 341/341/341
f 340/340/340 341/341/341 342/342/342
f 339/339/339 62/62/62 52/52/52
f 339/339/339 52/52/52 341/341/341
f 338/338/338 33/33/33 62/62/62
f 338/338/338 62/62/62 339/339/339
f 342/342/342 341/341/341 343/343/343
f 342/342/342 343/343/343 344/344/344
f 344/344/344 343/343/343 332/332/332
f 344/344/344 332/332/332 331/331/331
f 343/343/343 55/55/55 57/57/57
f 343/343/343 57/57/57 332/332/332
f 341/341/341 52/52/52 55/55/55
f 341/341/341 55/55/55 343/343/343
f 345/345/345 346/346/346 347/347/347
f 345/345/345 347/347/347 348/348/348
f 348/348/348 347/347/347 349/349/349
f 348/348/348 349/349/349 350/350/350
f 347/347/347 50/50/50 43/43/43
f 347/347/347 43/43/43 349/349/349
f 346/346/346 40/40/40 50/50/50
f 346/346/346 50/50/50 347/347/347
f 350/350/350 349/349/349 351/351/351
f 350/350/350 351/351/351 352/352/352
f 352/352/352 351/351/351 353/353/353
f 352/352/352 353/353/353 354/354/354
f 351/351/351 46/46/46 28/28/28
f 351/351/351 28/28/28 353/353/353
f 349/349/349 43/43/43 46/46/46
f 349/349/349 46/46/46 351/351/351
f 355/355/355 356/356/356 357/357/357
f 355/355/355 357/357/357 358/358/358
f 358/358/358 357/357/357 346/346/346
f 358/358/358 346/346/346 345/345/345
f 357/357/357 38/38/38 40/40/40
f 357/357/357 40/40/40 346/346/346
f 356/356/356 24/24/24 38/38/38
f 356/356/356 38/38/38 357/357/357
f 354/354/354 353/353/353 359/359/359
f 354/354/354 359/359/359 360/360/360
f 360/360/360 359/359/359 338/338/338
f 360/360/360 338/338/338 337/337/337
f 359/359/359 31/31/31 33/33/33
f 359/359/359 33/33/33 338/338/338
f 353/353/353 28/28/28 31/31/31
f 353/353/353 31/31/31 359/359/359
f 336/336/336 335/335/335 361/361/361
f 336/336/336 361/361/361 362/362/362
f 362/362/362 361/361/361 356/356/356
f 362/362/362 356/356/356 355/355/355
f 361/361/361 22/22/22 24/24/24
f 361/361/361 24/24/24 356/356/356
f 335/335/335 19/19/19 22/22/22
f 335/335/335 22/22/22 361/361/361
f 95/95/95 363/363/363 364/364/364
f 95/95/95 364/364/364 107/107/107
f 107/107/107 364/364/364 365/365/365
f 107/107/107 365/365/365 108/108/108
f 364/364/364 366/366/366 367/367/367
f 364/364/364 367/367/367 365/365/365
f 363/363/363 368/368/368 366/366/366
f 363/363/363 366/366/366 364/364/364
f 102/102/102 369/369/369 370/370/370
f 102/102/102 370/370/370 101/101/101
f 101/101/101 370/370/370 371/371/371
f 101/101/101 371/371/371 96/96/96
f 370/370/370 372/372/372 373/373/373
f 370/370/370 373/373/373 371/371/371
f 369/369/369 374/374/374 372/372/372
f 369/369/369 372/372/372 370/370/370
f 96/96/96 371/371/371 375/375/375
f 96/96/96 375/375/375 94/94/94
f 94/94/94 375/375/375 363/363/363
f 94/94/94 363/363/363 95/95/95
f 375/375/375 376/376/376 368/368/368
f 375/375/375 368/368/368 363/363/363
f 371/371/371 373/373/373 376/376/376
f 371/371/371 376/376/376 375/375/375
f 17/17/17 377/377/377 378/378/378
f 17/17/17 378/378/378 87/87/87
f 87/87/87 378/378/378 379/379/379
f 87/87/87 379/379/379 84/84/84
f 378/378/378 380/380/380 381/381/381
f 378/378/378 381/381/381 379/379/379
f 377/377/377 382/382/382 380/380/380
f 377/377/377 380/380/380 378/378/378
f 84/84/84 379/379/379 383/383/383
f 84/84/84 383/383/383 82/82/82
f 82/82/82 383/383/383 384/384/384
f 82/82/82 384/384/384 83/83/83
f 383/383/383 385/385/385 386/386/386
f 383/383/383 386/386/386 384/384/384
f 379/379/379 381/381/381 385/385/385
f 379/379/379 385/385/385 383/383/383
f 18/18/18 387/387/387 388/388/388
f 18/18/18 388/388/388 16/16/16
f 16/16/16 388/388/388 377/377/377
f 16/16/16 377/377/377 17/17/17
f 388/388/388 389/389/389 382/382/382
f 388/388/388 382/382/382 377/377/377
f 387/387/387 390/390/390 389/389/389
f 387/387/387 389/389/389 388/388/388
f 83/83/83 384/384/384 391/391/391
f 83/83/83 391/391/391 114/114/114
f 114/114/114 391/391/391 369/369/369
f 114/114/114 369/369/369 102/102/102
f 391/391/391 392/392/392 374/374/374
f 391/391/391 374/374/374 369/369/369
f 384/384/384 386/386/386 392/392/392
f 384/384/384 392/392/392 391/391/391
f 108/108/108 365/365/365 393/393/393
f 108/108/108 393/393/393 111/111/111
f 111/111/111 393/393/393 387/387/387
f 111/111/111 387/387/387 18/18/18
f 393/393/393 394/394/394 390/390/390
f 393/393/393 390/390/390 387/387/387
f 365/365/365 367/367/367 394/394/394
f 365/365/365 394/394/394 393/393/393
f 304/304/304 395/395/395 396/396/396
f 304/304/304 396/396/396 302/302/302
f 302/302/302 396/396/396 397/397/397
f 302/302/302 397/397/397 303/303/303
f 396/396/396 113/113/113 97/97/97
f 396/396/396 97/97/97 397/397/397
f 395/395/395 81/81/81 113/113/113
f 395/395/395 113/113/113 396/396/396
f 310/310/310 398/398/398 399/399/399
f 310/310/310 399/399/399 308/308/308
f 308/308/308 399/399/399 400/400/400
f 308/308/308 400/400/400 309/309/309
f 399/399/399 110/110/110 10/10/10
f 399/399/399 10/10/10 400/400/400
f 398/398/398 106/106/106 110/110/110
f 398/398/398 110/110/110 399/399/399
f 314/314/314 401/401/401 402/402/402
f 314/314/314 402/402/402 313/313/313
f 313/313/313 402/402/402 398/398/398
f 313/313/313 398/398/398 310/310/310
f 402/402/402 104/104/104 106/106/106
f 402/402/402 106/106/106 398/398/398
f 401/401/401 93/93/93 104/104/104
f 401/401/401 104/104/104 402/402/402
f 303/303/303 397/397/397 403/403/403
f 303/303/303 403/403/403 317/317/317
f 317/317/317 403/403/403 404/404/404
f 317/317/317 404/404/404 318/318/318
f 403/403/403 100/100/100 88/88/88
f 403/403/403 88/88/88 404/404/404
f 397/397/397 97/97/97 100/100/100
f 397/397/397 100/100/100 403/403/403
f 318/318/318 404/404/404 405/405/405
f 318/318/318 405/405/405 320/320/320
f 320/320/320 405/405/405 401/401/401
f 320/320/320 401/401/401 314/314/314
f 405/405/405 91/91/91 93/93/93
f 405/405/405 93/93/93 401/401/401
f 404/404/404 88/88/88 91/91/91
f 404/404/404 91/91/91 405/405/405
f 326/326/326 406/406/406 407/407/407
f 326/326/326 407/407/407 324/324/324
f 324/324/324 407/407/407 408/408/408
f 324/324/324 408/408/408 325/325/325
f 407/407/407 86/86/86 76/76/76
f 407/407/407 76/76/76 408/408/408
f 406/406/406 15/15/15 86/86/86
f 406/406/406 86/86/86 407/407/407
f 325/325/325 408/408/408 409/409/409
f 325/325/325 409/409/409 328/328/328
f 328/328/328 409/409/409 395/395/395
f 328/328/328 395/395/395 304/304/304
f 409/409/409 79/79/79 81/81/81
f 409/409/409 81/81/81 395/395/395
f 408/408/408 76/76/76 79/79/79
f 408/408/408 79/79/79 409/409/409
f 309/309/309 400/400/400 410/410/410
f 309/309/309 410/410/410 330/330/330
f 330/330/330 410/410/410 406/406/406
f 330/330/330 406/406/406 326/326/326
f 410/410/410 13/13/13 15/15/15
f 410/410/410 15/15/15 406/406/406
f 400/400/400 10/10/10 13/13/13
f 400/400/400 13/13/13 410/410/410
f 368/368/368 411/411/411 412/412/412
f 368/368/368 412/412/412 366/366/366
f 366/366/366 412/412/412 413/413/413
f 366/366/366 413/413/413 367/367/367
f 412/412/412 161/161/161 67/67/67
f 412/412/412 67/67/67 413/413/413
f 411/411/411 153/153/153 161/161/161
f 411/411/411 161/161/161 412/412/412
f 374/374/374 414/414/414 415/415/415
f 374/374/374 415/415/415 372/372/372
f 372/372/372 415/415/415 416/416/416
f 372/372/372 416/416/416 373/373/373
f 415/415/415 158/158/158 148/148/148
f 415/415/415 148/148/148 416/416/416
f 414/414/414 129/129/129 158/158/158
f 414/414/414 158/158/158 415/415/415
f 373/373/373 416/416/416 417/417/417
f 373/373/373 417/417/417 376/376/376
f 376/376/376 417/417/417 411/411/411
f 376/376/376 411/411/411 368/368/368
f 417/417/417 151/151/151 153/153/153
f 417/417/417 153/153/153 411/411/411
f 416/416/416 148/148/148 151/151/151
f 416/416/416 151/151/151 417/417/417
f 382/382/382 418/418/418 419/419/419
f 382/382/382 419/419/419 380/380/380
f 380/380/380 419/419/419 420/420/420
f 380/380/380 420/420/420 381/381/381
f 419/419/419 146/146/146 139/139/139
f 419/419/419 139/139/139 420/420/420
f 418/418/418 136/136/136 146/146/146
f 418/418/418 146/146/146 419/419/419
f 381/381/381 420/420/420 421/421/421
f 381/381/381 421/421/421 385/385/385
f 385/385/385 421/421/421 422/422/422
f 385/385/385 422/422/422 386/386/386
f 421/421/421 142/142/142 124/124/124
f 421/421/421 124/124/124 422/422/422
f 420/420/420 139/139/139 142/142/142
f 420/420/420 142/142/142 421/421/421
f 390/390/390 423/423/423 424/424/424
f 390/390/390 424/424/424 389/389/389
f 389/389/389 424/424/424 418/418/418
f 389/389/389 418/418/418 382/382/382
f 424/424/424 134/134/134 136/136/136
f 424/424/424 136/136/136 418/418/418
f 423/423/423 72/72/72 134/134/134
f 423/423/423 134/134/134 424/424/424
f 386/386/386 422/422/422 425/425/425
f 386/386/386 425/425/425 392/392/392
f 392/392/392 425/425/425 414/414/414
f 392/392/392 414/414/414 374/374/374
f 425/425/425 127/127/127 129/129/129
f 425/425/425 129/129/129 414/414/414
f 422/422/422 124/124/124 127/127/127
f 422/422/422 127/127/127 425/425/425
f 367/367/367 413/413/413 426/426/426
f 367/367/367 426/426/426 394/394/394
f 394/394/394 426/426/426 423/423/423
f 394/394/394 423/423/423 390/390/390
f 426/426/426 70/70/70 72/72/72
f 426/426/426 72/72/72 423/423/423
f 413/413/413 67/67/67 70/70/70
f 413/413/413 70/70/70 426/426/426
f 156/156/156 427/427/427 428/428/428
f 156/156/156 428/428/428 154/154/154
f 154/154/154 428/428/428 429/429/429
f 154/154/154 429/429/429 155/155/155
f 428/428/428 206/206/206 172/172/172
f 428/428/428 172/172/172 429/429/429
f 427/427/427 120/120/120 206/206/206
f 427/427/427 206/206/206 428/428/428
f 138/138/138 430/430/430 431/431/431
f 138/138/138 431/431/431 147/147/147
f 147/147/147 431/431/431 432/432/432
f 147/147/147 432/432/432 144/144/144
f 431/431/431 204/204/204 198/198/198
f 431/431/431 198/198/198 432/432/432
f 430/430/430 196/196/196 204/204/204
f 430/430/430 204/204/204 431/431/431
f 144/144/144 432/432/432 433/433/433
f 144/144/144 433/433/433 143/143/143
f 143/143/143 433/433/433 434/434/434
f 143/143/143 434/434/434 132/132/132
f 433/433/433 201/201/201 187/187/187
f 433/433/433 187/187/187 434/434/434
f 432/432/432 198/198/198 201/201/201
f 432/432/432 201/201/201 433/433/433
f 74/74/74 435/435/435 436/436/436
f 74/74/74 436/436/436 137/137/137
f 137/137/137 436/436/436 430/430/430
f 137/137/137 430/430/430 138/138/138
f 436/436/436 194/194/194 196/196/196
f 436/436/436 196/196/196 430/430/430
f 435/435/435 184/184/184 194/194/194
f 435/435/435 194/194/194 436/436/436
f 132/132/132 434/434/434 437/437/437
f 132/132/132 437/437/437 130/130/130
f 130/130/130 437/437/437 438/438/438
f 130/130/130 438/438/438 131/131/131
f 437/437/437 190/190/190 115/115/115
f 437/437/437 115/115/115 438/438/438
f 434/434/434 187/187/187 190/190/190
f 434/434/434 190/190/190 437/437/437
f 75/75/75 439/439/439 440/440/440
f 75/75/75 440/440/440 73/73/73
f 73/73/73 440/440/440 435/435/435
f 73/73/73 435/435/435 74/74/74
f 440/440/440 182/182/182 184/184/184
f 440/440/440 184/184/184 435/435/435
f 439/439/439 177/177/177 182/182/182
f 439/439/439 182/182/182 440/440/440
f 155/155/155 429/429/429 441/441/441
f 155/155/155 441/441/441 162/162/162
f 162/162/162 441/441/441 439/439/439
f 162/162/162 439/439/439 75/75/75
f 441/441/441 175/175/175 177/177/177
f 441/441/441 177/177/177 439/439/439
f 429/429/429 172/172/172 175/175/175
f 429/429/429 175/175/175 441/441/441
f 131/131/131 438/438/438 442/442/442
f 131/131/131 442/442/442 159/159/159
f 159/159/159 442/442/442 427/427/427
f 159/159/159 427/427/427 156/156/156
f 442/442/442 118/118/118 120/120/120
f 442/442/442 120/120/120 427/427/427
f 438/438/438 115/115/115 118/118/118
f 438/438/438 118/118/118 442/442/442
f 443/443/443 444/444/444 445/445/445
f 443/443/443 445/445/445 446/446/446
f 446/446/446 445/445/445 447/447/447
f 446/446/446 447/447/447 448/448/448
f 445/445/445 449/449/449 450/450/450
f 445/445/445 450/450/450 447/447/447
f 444/444/444 451/451/451 449/449/449
f 444/444/444 449/449/449 445/445/445
f 452/452/452 453/453/453 454/454/454
f 452/452/452 454/454/454 455/455/455
f 455/455/455 454/454/454 2/2/2
f 455/455/455 2/2/2 1/1/1
f 454/454/454 456/456/456 9/9/9
f 454/454/454 9/9/9 2/2/2
f 453/453/453 457/457/457 456/456/456
f 453/453/453 456/456/456 454/454/454
f 448/448/448 447/447/447 458/458/458
f 448/448/448 458/458/458 459/459/459
f 459/459/459 458/458/458 460/460/460
f 459/459/459 460/460/460 461/461/461
f 458/458/458 462/462/462 463/463/463
f 458/458/458 463/463/463 460/460/460
f 447/447/447 450/450/450 462/462/462
f 447/447/447 462/462/462 458/458/458
f 461/461/461 460/460/460 464/464/464
f 461/461/461 464/464/464 465/465/465
f 465/465/465 464/464/464 453/453/453
f 465/465/465 453/453/453 452/452/452
f 464/464/464 466/466/466 457/457/457
f 464/464/464 457/457/457 453/453/453
f 460/460/460 463/463/463 466/466/466
f 460/460/460 466/466/466 464/464/464
f 467/467/467 468/468/468 469/469/469
f 467/467/467 469/469/469 470/470/470
f 470/470/470 469/469/469 471/471/471
f 470/470/470 471/471/471 472/472/472
f 469/469/469 473/473/473 474/474/474
f 469/469/469 474/474/474 471/471/471
f 468/468/468 475/475/475 473/473/473
f 468/468/468 473/473/473 469/469/469
f 472/472/472 471/471/471 476/476/476
f 472/472/472 476/476/476 477/477/477
f 477/477/477 476/476/476 444/444/444
f 477/477/477 444/444/444 443/443/443
f 476/476/476 478/478/478 451/451/451
f 476/476/476 451/451/451 444/444/444
f 471/471/471 474/474/474 478/478/478
f 471/471/471 478/478/478 476/476/476
f 6/6/6 5/5/5 479/479/479
f 6/6/6 479/479/479 480/480/480
f 480/480/480 479/479/479 468/468/468
f 480/480/480 468/468/468 467/467/467
f 479/479/479 481/481/481 475/475/475
f 479/479/479 475/475/475 468/468/468
f 5/5/5 8/8/8 481/481/481
f 5/5/5 481/481/481 479/479/479
f 6/6/6 482/482/482 483/483/483
f 6/6/6 483/483/483 4/4/4
f 4/4/4 483/483/483 484/484/484
f 4/4/4 484/484/484 1/1/1
f 483/483/483 362/362/362 355/355/355
f 483/483/483 355/355/355 484/484/484
f 482/482/482 336/336/336 362/362/362
f 482/482/482 362/362/362 483/483/483
f 448/448/448 485/485/485 486/486/486
f 448/448/448 486/486/486 446/446/446
f 446/446/446 486/486/486 487/487/487
f 446/446/446 487/487/487 443/443/443
f 486/486/486 360/360/360 337/337/337
f 486/486/486 337/337/337 487/487/487
f 485/485/485 354/354/354 360/360/360
f 485/485/485 360/360/360 486/486/486
f 1/1/1 484/484/484 488/488/488
f 1/1/1 488/488/488 455/455/455
f 455/455/455 488/488/488 489/489/489
f 455/455/455 489/489/489 452/452/452
f 488/488/488 358/358/358 345/345/345
f 488/488/488 345/345/345 489/489/489
f 484/484/484 355/355/355 358/358/358
f 484/484/484 358/358/358 488/488/488
f 461/461/461 490/490/490 491/491/491
f 461/461/461 491/491/491 459/459/459
f 459/459/459 491/491/491 485/485/485
f 459/459/459 485/485/485 448/448/448
f 491/491/491 352/352/352 354/354/354
f 491/491/491 354/354/354 485/485/485
f 490/490/490 350/350/350 352/352/352
f 490/490/490 352/352/352 491/491/491
f 452/452/452 489/489/489 492/492/492
f 452/452/452 492/492/492 465/465/465
f 465/465/465 492/492/492 490/490/490
f 465/465/465 490/490/490 461/461/461
f 492/492/492 348/348/348 350/350/350
f 492/492/492 350/350/350 490/490/490
f 489/489/489 345/345/345 348/348/348
f 489/489/489 348/348/348 492/492/492
f 472/472/472 493/493/493 494/494/494
f 472/472/472 494/494/494 470/470/470
f 470/470/470 494/494/494 495/495/495
f 470/470/470 495/495/495 467/467/467
f 494/494/494 344/344/344 331/331/331
f 494/494/494 331/331/331 495/495/495
f 493/493/493 342/342/342 344/344/344
f 493/493/493 344/344/344 494/494/494
f 443/443/443 487/487/487 496/496/496
f 443/443/443 496/496/496 477/477/477
f 477/477/477 496/496/496 493/493/493
f 477/477/477 493/493/493 472/472/472
f 496/496/496 340/340/340 342/342/342
f 496/496/496 342/342/342 493/493/493
f 487/487/487 337/337/337 340/340/340
f 487/487/487 340/340/340 496/496/496
f 467/467/467 495/495/495 497/497/497
f 467/467/467 497/497/497 480/480/480
f 480/480/480 497/497/497 482/482/482
f 480/480/480 482/482/482 6/6/6
f 497/497/497 334/334/334 336/336/336
f 497/497/497 336/336/336 482/482/482
f 495/495/495 331/331/331 334/334/334
f 495/495/495 334/334/334 497/497/497
f 466/466/466 463/463/463 462/462/462
f 462/462/462 450/450/450 449/449/449
f 449/449/449 451/451/451 478/478/478
f 478/478/478 474/474/474 473/473/473
f 473/473/473 475/475/475 481/481/481
f 481/481/481 8/8/8 7/7/7
f 7/7/7 9/9/9 456/456/456
f 456/456/456 457/457/457 466/466/466
f 466/466/466 462/462/462 449/449/449
f 449/449/449 478/478/478 473/473/473
f 473/473/473 481/481/481 7/7/7
f 7/7/7 456/456/456 466/466/466
f 466/466/466 449/449/449 473/473/473
f 473/473/473 7/7/7 466/466/466
