v -0.0515244 -0.763851 0.988759
v -0.051147 -0.755807 0.984605
v -0.0541204 -0.750884 0.990389
v -0.055247 -0.759351 0.996291
v -0.0588234 -0.746401 0.993369
v -0.0605479 -0.754922 1.00056
v -0.0525543 -0.741677 0.982752
v -0.0565257 -0.737158 0.984731
v -0.0506596 -0.747038 0.978638
v -0.11061 -0.941013 0.734637
v -0.119579 -0.964255 0.685695
v -0.117837 -0.956621 0.681871
v -0.109006 -0.933529 0.730705
v -0.120744 -0.949309 0.679431
v -0.111874 -0.92621 0.728066
v -0.12399 -0.974105 0.646046
v -0.126953 -0.966672 0.643626
v -0.125863 -0.981963 0.649872
v -0.0683743 -0.807435 0.991501
v -0.0722472 -0.81662 0.982625
v -0.0648078 -0.814514 0.975927
v -0.0601362 -0.806458 0.983632
v -0.0606486 -0.810434 0.967592
v -0.0555549 -0.803869 0.973876
v -0.0697645 -0.823058 0.96653
v -0.0660839 -0.817704 0.95969
v -0.0763444 -0.826133 0.972006
v -0.0968466 -0.7809 0.956878
v -0.0997141 -0.785223 0.951927
v -0.10831 -0.786507 0.95952
v -0.106573 -0.780475 0.965003
v -0.114423 -0.790195 0.967579
v -0.114156 -0.782352 0.973553
v -0.11041 -0.793489 0.952487
v -0.114975 -0.798774 0.959936
v -0.102996 -0.790647 0.945572
v -0.0605417 -0.805091 0.958723
v -0.055542 -0.800262 0.963805
v -0.0642765 -0.79939 0.950861
v -0.0598555 -0.795963 0.955052
v -0.0659032 -0.810849 0.95215
v -0.0690714 -0.803914 0.945306
v -0.0773267 -0.786828 0.947428
v -0.0802593 -0.789762 0.943804
v -0.0900507 -0.786528 0.946244
v -0.0870533 -0.783185 0.950443
v -0.0934898 -0.791033 0.94074
v -0.0836322 -0.793869 0.938911
v -0.0712483 -0.794162 0.945533
v -0.0677134 -0.791293 0.949181
v -0.0751912 -0.798197 0.940598
v -0.114175 -0.792364 0.988525
v -0.113502 -0.802219 0.980965
v -0.104796 -0.808433 0.985618
v -0.104543 -0.798171 0.994095
v -0.0932521 -0.81339 0.987844
v -0.0916433 -0.803083 0.997011
v -0.105165 -0.818949 0.975378
v -0.0950223 -0.823942 0.976863
v -0.112936 -0.812404 0.971702
v -0.116575 -0.795769 0.974849
v -0.117224 -0.786665 0.981528
v -0.116105 -0.805381 0.966474
v -0.081994 -0.816228 0.986781
v -0.0791469 -0.806285 0.996136
v -0.0850319 -0.82643 0.975628
v -0.158547 -1.05299 0.560133
v -0.162289 -1.06705 0.533993
v -0.152263 -1.05818 0.527461
v -0.148603 -1.04431 0.553708
v -0.146191 -1.04852 0.521427
v -0.142667 -1.03486 0.547774
v -0.155729 -1.07201 0.502817
v -0.14942 -1.06199 0.496634
v -0.165924 -1.08089 0.509653
v -0.1311 -0.912238 0.72616
v -0.140867 -0.93495 0.677726
v -0.154259 -0.931179 0.678695
v -0.143647 -0.908839 0.727081
v -0.166148 -0.930681 0.680589
v -0.154803 -0.90868 0.729014
v -0.161896 -0.948147 0.642656
v -0.17424 -0.947491 0.644425
v -0.147946 -0.952122 0.64181
v -0.128938 -0.941577 0.678012
v -0.119768 -0.918596 0.726517
v -0.135491 -0.958866 0.642179
v -0.167888 -0.938344 0.746666
v -0.179989 -0.961845 0.698362
v -0.173117 -0.973718 0.703005
v -0.161471 -0.949062 0.751119
v -0.161737 -0.98206 0.704672
v -0.150825 -0.956642 0.75275
v -0.181537 -0.992434 0.667168
v -0.169648 -1.00123 0.668983
v -0.188702 -0.979847 0.662342
v -0.167148 -0.918007 0.735689
v -0.178972 -0.94001 0.687009
v -0.181431 -0.949912 0.692481
v -0.169367 -0.92735 0.741029
v -0.19013 -0.967345 0.656305
v -0.187501 -0.957067 0.650748
v -0.147754 -0.983979 0.702233
v -0.137557 -0.958703 0.750476
v -0.134524 -0.980272 0.697076
v -0.124908 -0.955707 0.745602
v -0.155088 -1.00301 0.666605
v -0.141352 -0.99882 0.661419
v -0.125067 -0.972834 0.691094
v -0.115847 -0.949049 0.739902
v -0.131561 -0.990906 0.655346
v -0.174159 -0.933562 0.68317
v -0.162492 -0.911714 0.731754
v -0.182515 -0.950402 0.646919
v -0.220885 -1.06 0.45684
v -0.221995 -1.07029 0.440692
v -0.225645 -1.08419 0.445919
v -0.224391 -1.0731 0.462659
v -0.223941 -1.09757 0.453619
v -0.222492 -1.08669 0.470137
v -0.225611 -1.09224 0.43317
v -0.223949 -1.10509 0.440902
v -0.222164 -1.07822 0.428586
v -0.193711 -0.999267 0.539581
v -0.197617 -1.01222 0.513752
v -0.206869 -1.01524 0.516706
v -0.202783 -1.00232 0.542473
v -0.212351 -1.02244 0.521096
v -0.208105 -1.00941 0.546838
v -0.210109 -1.02784 0.492795
v -0.215946 -1.03547 0.497036
v -0.200585 -1.02448 0.490046
v -0.144137 -1.04 0.516949
v -0.140671 -1.02649 0.543339
v -0.147051 -1.03218 0.513867
v -0.143562 -1.01874 0.540235
v -0.147231 -1.05301 0.492276
v -0.150133 -1.04474 0.489523
v -0.164919 -1.00438 0.53724
v -0.168578 -1.01771 0.51109
v -0.183813 -1.0133 0.51181
v -0.180046 -1.00016 0.537784
v -0.186829 -1.02536 0.488243
v -0.17174 -1.02974 0.487474
v -0.155614 -1.02443 0.511847
v -0.152053 -1.01102 0.538134
v -0.158768 -1.03664 0.48792
v -0.208751 -1.03369 0.559524
v -0.21295 -1.04727 0.533813
v -0.204188 -1.06144 0.539422
v -0.200278 -1.0476 0.565246
v -0.190843 -1.07119 0.541832
v -0.187173 -1.05717 0.567798
v -0.207796 -1.07463 0.515561
v -0.194384 -1.0842 0.517982
v -0.216675 -1.06076 0.509837
v -0.215061 -1.03354 0.527171
v -0.210753 -1.02026 0.552874
v -0.218813 -1.04694 0.503102
v -0.175924 -1.07245 0.539505
v -0.172248 -1.05834 0.565565
v -0.17953 -1.08583 0.515471
v -0.16083 -1.0724 0.430041
v -0.164051 -1.0768 0.424798
v -0.170118 -1.06584 0.427439
v -0.167506 -1.06137 0.431958
v -0.179704 -1.05856 0.429241
v -0.178093 -1.05397 0.433275
v -0.173279 -1.07156 0.42525
v -0.181758 -1.06459 0.427414
v -0.167876 -1.08211 0.422032
v -0.201051 -1.1061 0.480913
v -0.203819 -1.11531 0.466208
v -0.190076 -1.11806 0.463793
v -0.186836 -1.10887 0.478247
v -0.176989 -1.11515 0.456817
v -0.173521 -1.10576 0.471404
v -0.19248 -1.12422 0.452396
v -0.179742 -1.12119 0.445538
v -0.20559 -1.12178 0.454613
v -0.166428 -1.10598 0.448776
v -0.162906 -1.09684 0.463443
v -0.159257 -1.09334 0.442343
v -0.155857 -1.08509 0.456809
v -0.169436 -1.11199 0.437889
v -0.162415 -1.09909 0.43202
v -0.203259 -1.04379 0.452767
v -0.203624 -1.0502 0.439431
v -0.214426 -1.05828 0.438928
v -0.213742 -1.04982 0.453785
v -0.214524 -1.06505 0.42811
v -0.203684 -1.05546 0.430091
v -0.15615 -1.08039 0.439352
v -0.153065 -1.07362 0.453217
v -0.15804 -1.06827 0.439089
v -0.155464 -1.06295 0.452067
v -0.15928 -1.0854 0.429607
v -0.175717 -1.04598 0.452644
v -0.176901 -1.05034 0.441032
v -0.190413 -1.04759 0.440552
v -0.189831 -1.04259 0.452668
v -0.190863 -1.05175 0.43236
v -0.165438 -1.05774 0.440167
v -0.163535 -1.05327 0.452214
v -0.215991 -1.10824 0.461745
v -0.21394 -1.09826 0.477349
v -0.216768 -1.11518 0.449576
v -0.203583 -1.06757 0.421697
v -0.203652 -1.07572 0.419311
v -0.212312 -1.08378 0.41685
v -0.213367 -1.07665 0.418588
v -0.218015 -1.09341 0.417762
v -0.219994 -1.08807 0.418479
v -0.211005 -1.08849 0.418542
v -0.21589 -1.09658 0.420663
v -0.203432 -1.08152 0.419893
v -0.222384 -1.10832 0.433478
v -0.215965 -1.11789 0.442029
v -0.205967 -1.12425 0.446925
v -0.214247 -1.11855 0.437825
v -0.205457 -1.12451 0.442137
v -0.219981 -1.10976 0.429979
v -0.221448 -1.08349 0.421636
v -0.224279 -1.09651 0.425878
v -0.222111 -1.09939 0.42272
v -0.193751 -1.1264 0.444619
v -0.181603 -1.12338 0.438005
v -0.194448 -1.12637 0.439843
v -0.183322 -1.1236 0.433766
v -0.17173 -1.1148 0.431108
v -0.165126 -1.10272 0.426021
v -0.174232 -1.11621 0.427665
v -0.168279 -1.10574 0.423153
v -0.203613 -1.06086 0.424807
v -0.214135 -1.07066 0.42188
v -0.162425 -1.08956 0.423991
v -0.166142 -1.09396 0.42116
v -0.191493 -1.05672 0.427969
v -0.192424 -1.06325 0.425605
v -0.188069 -1.08276 0.439431
v -0.18101 -1.08724 0.437548
v -0.183744 -1.09934 0.444909
v -0.192958 -1.09476 0.447508
v -0.198417 -1.10869 0.45182
v -0.190725 -1.1115 0.449798
v -0.186065 -1.11363 0.445525
v -0.181245 -1.10878 0.442173
v -0.177561 -1.10525 0.437213
v -0.177096 -1.09849 0.436417
v -0.177286 -1.09176 0.433852
v -0.172429 -1.10917 0.422422
v -0.170627 -1.09895 0.420056
v -0.172124 -1.08813 0.420719
v -0.174049 -1.10186 0.422089
v -0.17525 -1.09204 0.422246
v -0.175696 -1.11076 0.424997
v -0.184025 -1.07162 0.426532
v -0.193587 -1.07111 0.423869
v -0.194332 -1.07688 0.424516
v -0.185641 -1.07678 0.42773
v -0.176682 -1.07809 0.424285
v -0.179143 -1.08266 0.425672
v -0.21756 -1.11175 0.42895
v -0.212381 -1.11928 0.435791
v -0.204644 -1.12437 0.439496
v -0.210579 -1.11868 0.437625
v -0.20353 -1.12279 0.441054
v -0.21543 -1.11244 0.431438
v -0.219656 -1.10294 0.422252
v -0.217333 -1.10483 0.425311
v -0.195093 -1.12589 0.437644
v -0.185475 -1.12363 0.432449
v -0.195225 -1.12412 0.43955
v -0.18701 -1.12248 0.434911
v -0.177587 -1.11776 0.426895
v -0.180213 -1.11786 0.429627
v -0.202082 -1.08258 0.431858
v -0.202664 -1.08222 0.425342
v -0.194469 -1.0784 0.429243
v -0.196364 -1.08156 0.436344
v -0.186238 -1.07848 0.432257
v -0.186919 -1.1188 0.441013
v -0.194107 -1.11966 0.445833
v -0.201795 -1.11807 0.447571
v -0.176268 -1.09194 0.427693
v -0.175174 -1.10061 0.428351
v -0.176654 -1.10854 0.431394
v -0.211002 -1.10501 0.442721
v -0.213469 -1.10968 0.437754
v -0.215097 -1.10264 0.432217
v -0.211187 -1.09813 0.439222
v -0.213765 -1.09518 0.427718
v -0.211233 -1.09302 0.43418
v -0.209372 -1.08811 0.425201
v -0.206946 -1.08749 0.433985
v -0.208733 -1.11471 0.443936
v -0.206175 -1.10619 0.448055
v -0.180791 -1.11472 0.435998
v -0.179951 -1.08377 0.430509
v -0.113282 -0.821874 0.907023
v -0.11816 -0.835189 0.884306
v -0.124805 -0.83822 0.887884
v -0.119782 -0.82451 0.911121
v -0.128994 -0.843841 0.892448
v -0.12371 -0.829659 0.916065
v -0.133851 -0.857722 0.849519
v -0.138324 -0.863871 0.853862
v -0.126869 -0.854313 0.846283
v -0.0874103 -0.858232 0.926353
v -0.0925605 -0.87348 0.903058
v -0.0847584 -0.868994 0.89863
v -0.0801829 -0.854121 0.921837
v -0.0803425 -0.862513 0.893702
v -0.0761891 -0.848074 0.916754
v -0.0923654 -0.890504 0.860009
v -0.087542 -0.883467 0.855076
v -0.100717 -0.895551 0.864593
v -0.107581 -0.856887 0.930473
v -0.114187 -0.872338 0.906973
v -0.103191 -0.874602 0.906038
v -0.0971933 -0.859167 0.929424
v -0.11219 -0.89706 0.867834
v -0.123947 -0.894814 0.868923
v -0.130425 -0.851523 0.897493
v -0.124817 -0.836858 0.921266
v -0.128555 -0.859806 0.902154
v -0.122526 -0.844733 0.925908
v -0.140091 -0.872159 0.858902
v -0.138513 -0.881119 0.863736
v -0.12299 -0.867113 0.905537
v -0.116484 -0.85178 0.929177
v -0.133043 -0.889129 0.867367
v -0.079045 -0.834901 0.907852
v -0.082658 -0.848613 0.885435
v -0.0899799 -0.842281 0.882761
v -0.0859053 -0.828962 0.904815
v -0.0996116 -0.837437 0.881546
v -0.0949659 -0.824387 0.903469
v -0.096916 -0.861847 0.844935
v -0.10719 -0.856566 0.843942
v -0.0892468 -0.868704 0.847246
v -0.109441 -0.834964 0.882104
v -0.104592 -0.8219 0.904305
v -0.11765 -0.853945 0.844395
v -0.0794774 -0.855519 0.889176
v -0.0757517 -0.841449 0.911955
v -0.0862437 -0.876039 0.8507
v -0.0878479 -0.790697 1.00355
v -0.0899422 -0.796176 1.00123
v -0.0771869 -0.799536 1.00046
v -0.0755593 -0.794105 1.00281
v -0.0662372 -0.801207 0.995704
v -0.0650609 -0.796143 0.998116
v -0.111277 -0.775192 0.977993
v -0.113148 -0.777995 0.976438
v -0.116308 -0.781234 0.984838
v -0.113984 -0.777434 0.987016
v -0.113098 -0.786089 0.992291
v -0.11051 -0.781374 0.994961
v -0.103167 -0.791411 0.99815
v -0.100694 -0.786145 1.00072
v -0.0573847 -0.792062 0.958552
v -0.0579232 -0.793851 0.957237
v -0.0661174 -0.789579 0.951136
v -0.0655782 -0.788171 0.952362
v -0.0759201 -0.785154 0.949377
v -0.0753198 -0.783874 0.950592
v -0.0855073 -0.781346 0.952633
v -0.0847118 -0.780038 0.9539
v -0.095198 -0.778576 0.959363
v -0.0941042 -0.77704 0.960669
v -0.0527105 -0.796289 0.978769
v -0.0533091 -0.799705 0.976983
v -0.0533859 -0.797261 0.96638
v -0.0528523 -0.794759 0.967874
v -0.105202 -0.777242 0.967666
v -0.103751 -0.775213 0.968983
v -0.0579015 -0.801144 0.987361
v -0.0570838 -0.796806 0.989531
v -0.175153 -1.01592 0.642086
v -0.160253 -1.01757 0.639713
v -0.146231 -1.01317 0.634388
v -0.16435 -1.03047 0.616221
v -0.150287 -1.02587 0.610749
v -0.179371 -1.02897 0.618592
v -0.193529 -0.971172 0.622918
v -0.196165 -0.981476 0.628538
v -0.194653 -0.994065 0.634757
v -0.200999 -0.994203 0.604151
v -0.199333 -1.00681 0.610564
v -0.198414 -0.983923 0.598433
v -0.187311 -1.00693 0.639959
v -0.191753 -1.01986 0.61615
v -0.131621 -0.980611 0.616289
v -0.14035 -0.972656 0.614741
v -0.153103 -0.965842 0.61424
v -0.144379 -0.985054 0.590415
v -0.157234 -0.978242 0.589754
v -0.135645 -0.993082 0.592135
v -0.167367 -0.961875 0.614907
v -0.179983 -0.96131 0.616542
v -0.171744 -0.974319 0.590271
v -0.184635 -0.973847 0.591845
v -0.130555 -0.996253 0.622714
v -0.128629 -0.988249 0.618809
v -0.132668 -1.00087 0.594841
v -0.134605 -1.00899 0.598898
v -0.188446 -0.964382 0.619032
v -0.193273 -0.977049 0.594417
v -0.136306 -1.00521 0.628236
v -0.140356 -1.0179 0.604504
v -0.14036 -0.880976 0.789504
v -0.147702 -0.884303 0.792465
v -0.152292 -0.890597 0.796588
v -0.112546 -0.925187 0.806912
v -0.103813 -0.919379 0.801792
v -0.0987552 -0.911842 0.796714
v -0.137175 -0.925201 0.81265
v -0.124653 -0.927377 0.810968
v -0.154301 -0.899419 0.801756
v -0.152816 -0.909345 0.80698
v -0.146968 -0.918624 0.811037
v -0.100142 -0.896913 0.789522
v -0.107931 -0.889598 0.787632
v -0.118743 -0.883747 0.786983
v -0.13021 -0.880779 0.787641
v -0.0972493 -0.904328 0.792561
v -0.183331 -1.0428 0.593831
v -0.168342 -1.0441 0.591544
v -0.154447 -1.03912 0.586072
v -0.203323 -0.996572 0.573028
v -0.20592 -1.00709 0.578916
v -0.204077 -1.02004 0.585489
v -0.196064 -1.03349 0.591243
v -0.139671 -1.00566 0.566763
v -0.148265 -0.997768 0.564813
v -0.161117 -0.991054 0.563984
v -0.175952 -0.987037 0.564451
v -0.18925 -0.986416 0.566091
v -0.138705 -1.0217 0.573963
v -0.136747 -1.01345 0.5697
v -0.198106 -0.989588 0.568821
v -0.144524 -1.03084 0.579733
v -0.21995 -1.07411 0.488762
v -0.211111 -1.08693 0.495075
v -0.197827 -1.09574 0.497897
v -0.152887 -1.05514 0.46885
v -0.161379 -1.04635 0.468033
v -0.174084 -1.03924 0.468008
v -0.188759 -1.03524 0.468506
v -0.202371 -1.03518 0.469653
v -0.152589 -1.07444 0.474963
v -0.15014 -1.06441 0.470903
v -0.21236 -1.03955 0.471776
v -0.218832 -1.04817 0.475633
v -0.169728 -1.09405 0.488859
v -0.159285 -1.08521 0.481427
v -0.183223 -1.09802 0.495222
v -0.222013 -1.06036 0.481682
v -0.0993319 -0.747976 0.984979
v -0.0950855 -0.742033 0.980007
v -0.0926668 -0.747221 0.97255
v -0.0952023 -0.752265 0.976037
v -0.086805 -0.753431 0.964893
v -0.0878461 -0.757746 0.966996
v -0.0897736 -0.741984 0.967461
v -0.0857578 -0.748913 0.961708
v -0.0900747 -0.735775 0.973143
v -0.052918 -0.770809 0.966809
v -0.0538812 -0.764746 0.966166
v -0.0507267 -0.760938 0.975647
v -0.0502029 -0.768062 0.977834
v -0.0516389 -0.753084 0.97214
v -0.0555437 -0.757929 0.964841
v -0.0790914 -0.759356 0.958901
v -0.0796004 -0.763595 0.959919
v -0.0702287 -0.763796 0.956537
v -0.0704715 -0.768433 0.956846
v -0.0786935 -0.754688 0.957218
v -0.0702114 -0.758477 0.955803
v -0.0610605 -0.76573 0.959227
v -0.0605908 -0.770965 0.959306
v -0.0620664 -0.759722 0.958759
v -0.0747508 -0.747414 1.00242
v -0.0715528 -0.739331 0.994235
v -0.0794436 -0.737733 0.992697
v -0.0838148 -0.745282 1.00071
v -0.0870591 -0.737593 0.989914
v -0.0923191 -0.744575 0.997316
v -0.0742551 -0.729669 0.983369
v -0.0808026 -0.73011 0.981131
v -0.0677234 -0.730705 0.984687
v -0.0928375 -0.738891 0.985792
v -0.098076 -0.745421 0.992132
v -0.0866072 -0.73193 0.977751
v -0.0646358 -0.742384 0.994522
v -0.0669756 -0.750785 1.00246
v -0.0617099 -0.733351 0.985232
v -0.0616034 -0.769028 1.00745
v -0.0619442 -0.775914 1.0077
v -0.0554134 -0.778976 0.998761
v -0.0555574 -0.772919 0.99972
v -0.051489 -0.781495 0.986845
v -0.0516636 -0.776372 0.988784
v -0.0555765 -0.785084 0.996401
v -0.0515393 -0.786523 0.984297
v -0.0626427 -0.782977 1.0058
v -0.0897683 -0.765386 0.966467
v -0.0905508 -0.76887 0.965357
v -0.0991692 -0.765239 0.974388
v -0.0983534 -0.76127 0.975875
v -0.105156 -0.762734 0.98481
v -0.10402 -0.758235 0.986252
v -0.100183 -0.76896 0.972619
v -0.10653 -0.767122 0.982724
v -0.0914864 -0.772087 0.963977
v -0.0510735 -0.783116 0.974405
v -0.0507195 -0.778798 0.976325
v -0.0548919 -0.783123 0.963693
v -0.0539732 -0.779521 0.965098
v -0.0515241 -0.787237 0.972227
v -0.0558004 -0.7865 0.96208
v -0.0719279 -0.774726 0.955629
v -0.0727993 -0.777365 0.95471
v -0.081872 -0.773106 0.958163
v -0.0810776 -0.77018 0.959074
v -0.082754 -0.775837 0.956988
v -0.0736884 -0.779867 0.953557
v -0.0629804 -0.780994 0.956716
v -0.0619618 -0.778051 0.957775
v -0.0639701 -0.783765 0.955445
v -0.0985091 -0.756606 1.00487
v -0.100981 -0.762691 1.00543
v -0.0915102 -0.76536 1.01064
v -0.0891395 -0.758501 1.00962
v -0.0803345 -0.768946 1.01246
v -0.0785587 -0.761606 1.01143
v -0.094283 -0.77256 1.00904
v -0.0825331 -0.776567 1.01101
v -0.103804 -0.769093 1.00356
v -0.105831 -0.761806 0.996035
v -0.103955 -0.756568 0.996553
v -0.108 -0.76717 0.993946
v -0.0702966 -0.77254 1.0119
v -0.0692602 -0.765194 1.01104
v -0.0717347 -0.780125 1.01035
v -0.202971 -1.09238 0.443249
v -0.0712017 -0.829968 0.943322
v -0.0733281 -0.83766 0.932237
v -0.0730757 -0.83092 0.926864
v -0.070976 -0.822851 0.937268
v -0.0763052 -0.824248 0.922126
v -0.0740522 -0.815795 0.931804
v -0.0886823 -0.805513 0.926358
v -0.0914825 -0.813964 0.917203
v -0.101263 -0.811379 0.918297
v -0.0986678 -0.802845 0.927654
v -0.110295 -0.811229 0.921588
v -0.108063 -0.802713 0.93147
v -0.0827511 -0.818418 0.918659
v -0.0801565 -0.809912 0.927911
v -0.116562 -0.825831 0.953985
v -0.119008 -0.833779 0.942212
v -0.112315 -0.840769 0.945414
v -0.109355 -0.832785 0.957153
v -0.103047 -0.845916 0.946601
v -0.099783 -0.837965 0.958279
v -0.118837 -0.81127 0.943463
v -0.12083 -0.819097 0.932053
v -0.121734 -0.82612 0.937543
v -0.119617 -0.818306 0.949273
v -0.0930013 -0.848244 0.945431
v -0.0899667 -0.840329 0.957027
v -0.0838524 -0.847432 0.942247
v -0.0812746 -0.839607 0.953762
v -0.077059 -0.843561 0.937609
v -0.074789 -0.835892 0.94902
v -0.116949 -0.813914 0.926451
v -0.114927 -0.805742 0.937137
v -0.0638034 -0.789977 1.00193
v -0.0562612 -0.791309 0.992838
v -0.0520805 -0.791729 0.981329
v -0.0927878 -0.774895 0.962264
v -0.101889 -0.772433 0.970665
v -0.108791 -0.771499 0.980198
v -0.0522263 -0.791311 0.96988
v -0.0567052 -0.789582 0.960227
v -0.074584 -0.782108 0.952057
v -0.0837753 -0.778215 0.955424
v -0.0648908 -0.786228 0.953865
v -0.107165 -0.775608 0.999302
v -0.097523 -0.779773 1.00494
v -0.085211 -0.784087 1.00731
v -0.110928 -0.77265 0.990413
v -0.0736344 -0.787567 1.00659
v -0.0769149 -0.754641 1.00815
v -0.0683565 -0.758175 1.00796
v -0.0613284 -0.762265 1.0052
v -0.102243 -0.753363 0.986738
v -0.101624 -0.751227 0.995526
v -0.0959168 -0.750753 1.00226
v -0.0868392 -0.752015 1.00636
v -0.0531143 -0.775596 0.96631
v -0.0610131 -0.774908 0.958734
v -0.0710894 -0.771929 0.956447
v -0.0802917 -0.767114 0.959829
v -0.0888603 -0.761707 0.967292
v -0.0517011 -0.770633 0.989838
v -0.0503118 -0.773927 0.9778
v -0.0970953 -0.756955 0.97683
v -0.0556363 -0.766565 0.999194
v -0.105763 -0.796201 0.938992
v -0.11272 -0.799498 0.945303
v -0.116672 -0.805272 0.952211
v -0.079132 -0.83329 0.96286
v -0.0728161 -0.829745 0.957963
v -0.0692968 -0.823864 0.951914
v -0.0971672 -0.831543 0.967505
v -0.0875421 -0.833911 0.966217
v -0.117412 -0.812288 0.958308
v -0.114221 -0.819641 0.963119
v -0.106816 -0.826444 0.966352
v -0.0720653 -0.809221 0.939142
v -0.0779569 -0.803317 0.93488
v -0.0862997 -0.798975 0.933251
v -0.0962739 -0.796282 0.934734
v -0.0690805 -0.816523 0.94524
vt 0.9167 0.08333
vt 0.5 1
vt 0.2604 0.9896
vt 0.4792 -1.192e-07
vt 0.5 1
vt 0.7396 0.01042
vt 1 0.75
vt 0.9999 0.7396
vt 1 0.5
vt -6.2e-06 0.5
vt 0.5 -1.192e-07
vt 0.5 1
vt 0.08333 0.9167
vt 0.08333 0.08333
vt 0.01041 0.7396
vt 0.08333 0.9167
vt 0.2604 0.01042
vt 0.2604 0.01042
vt 0.2604 0.01042
vt 0.7396 0.9896
vt 0.5 1
vt 0.5 1
vt 0 0.5
vt 0.2604 0.01041
vt 0.7431 0
vt 0.7396 0.01042
vt 0.9167 0.08333
vt 0.08333 0.08333
vt 0.9236 0.9167
vt 0.08333 0.9167
vt 0.5 1
vt 0.01042 0.7396
vt 0.08333 0.08333
vt 1 0.01042
vt 0.5 -1.192e-07
vt 0.7396 0.01042
vt 0.08333 0.9167
vt 0.2604 0.9896
vt 0.01042 0.7396
vt 0.5 -8.345e-07
vt 0.4167 -1.192e-07
vt 0.9167 0.08333
vt 0.5 0
vt 0.5 1
vt 0.2604 0.9896
vt 0.2604 0.9896
vt 0.7465 0.001736
vt 0.7396 0.01042
vt 0.2604 0.9896
vt 0.2604 0.9896
vt 0.7465 0.001736
vt 0.2604 0.01041
vt 0.7413 0.9896
vt 0.5 -1.192e-07
vt 0.2604 0.9896
vt 0.08333 0.9167
vt 0.2604 0.01042
vt 1 -1.192e-07
vt 0.5 -1.192e-07
vt 0.7396 0.01042
vt 0.5 -1.192e-07
vt 0.08333 0.9167
vt 0.4792 -1.192e-07
vt 0.2604 0.01042
vt 0.08333 0.9167
vt 0.7431 0
vt 0.01035 0.2604
vt 0 0.5
vt 0.2604 0.01042
vt 0 0.5
vt 0.9167 0.9167
vt 0.08329 0.0833
vt 0.01042 0.2604
vt 0.5 -1.192e-07
vt 0.08333 0.08333
vt 0 0.5
vt 0.5 -1.192e-07
vt 0.2604 0.01042
vt 0.08333 0.9167
vt 0.01042 0.2604
vt 0.01042 0.7396
vt 0.01042 0.7396
vt 0.5 -1.192e-07
vt 0.5 0
vt 0.2604 0.01042
vt 0.01042 0.7396
vt 0.01042 0.7396
vt 0.01042 0.7396
vt 0.25 -1.192e-07
vt 0.08333 0.08333
vt 0.01042 0.7396
vt 0.01042 0.2604
vt 0.08333 0.9167
vt 0 0.5
vt 0.2604 0.01042
vt 0.08333 0.08333
vt 0.01041 0.7396
vt 0.25 0
vt 0.08333 0.08333
vt 0.01042 0.7396
vt 0.08333 0.9167
vt 0.08333 0.08333
vt 0.2604 0.01042
vt 0.01042 0.7396
vt 0 0.5
vt 0.08333 0.9167
vt 0.01042 0.7396
vt 0.2604 0.01042
vt 0.2604 0.01042
vt 0 0.5
vt 0.01042 0.7396
vt 0.08333 0.08333
vt 0 0.5
vt 0 0.5
vt 0.01042 0.2604
vt 0.008681 0.2517
vt 0.08333 0.08333
vt 1 0.5
vt 0.5 1
vt 0.01041 0.2604
vt 1 0.5
vt 0.5002 -6.437e-06
vt 0.5 -8.345e-07
vt 0.01041 0.2604
vt 0 0.5
vt 0.5 -1.192e-07
vt 0 0.5
vt 0.9896 0.7396
vt 0.08333 0.08333
vt 0.08333 0.08333
vt 0.2604 0.01042
vt 0.2604 0.01042
vt 0.5 0
vt 0.003472 0.25
vt 0.9896 0.7396
vt 0.01041 0.2604
vt 0 0.5
vt 0.5 0
vt -6.2e-06 0.5
vt 0.01042 0.7396
vt 0.2604 0.01042
vt 0.008681 0.2517
vt 0.01042 0.2604
vt 0.2604 0.01042
vt 0.2604 0.01042
vt 0.008681 0.2517
vt 0.01042 0.2604
vt -4.96e-05 0.5
vt 0.01042 0.7396
vt 0 0.5
vt 0.003472 0.25
vt 1 0.5
vt 0.01035 0.2604
vt 0.08333 0.08333
vt 0.08333 0.08333
vt 0.2604 0.01042
vt 0 0.5
vt 0.02083 0
vt 0 0.5
vt 0.01042 0.7396
vt 0.08333 -1.192e-07
vt 0.01042 0.2604
vt 0.7413 0.01042
vt 1 0.5
vt 0.01042 0.7396
vt 0.9896 0.7396
vt 1 0.5
vt 1 0.08333
vt 0.7396 0.9896
vt 0.7413 0.01042
vt 0.9167 0.08333
vt -6.2e-06 0.5
vt 0 0.5
vt 0.01042 0.7396
vt 1 0.5
vt 0.7396 0.9896
vt 0 0.5
vt 0.9896 0.7396
vt 0.7484 0.00868
vt 0.7413 0.01042
vt 0.01042 0.7396
vt 1 0.75
vt 0.7396 0.9896
vt 0.08333 0.08333
vt 0.9896 0.7396
vt 0.7484 0.00868
vt 0.08333 0.08333
vt 0.08333 -2.384e-07
vt 0.08333 0.9167
vt 1 0.75
vt 0.9167 0.9167
vt 0.9236 0.08333
vt 0.08333 0.9167
vt 1 0.75
vt 0.9167 0.9167
vt 0.01042 0.2604
vt 1 0.5
vt 0.01041 0.2604
vt 0.003472 0.25
vt 0.01042 0.7396
vt 1 0.75
vt 0.9896 0.7396
vt 0.01042 0.7396
vt 1 1
vt 0.08333 0.9167
vt 1 1
vt 0.9167 0.9167
vt 0.7396 0.01042
vt 0.9167 0.08333
vt 0.08333 0.9167
vt 0.5 1
vt 0.9167 0.08333
vt 0.7396 0.01042
vt 1 0.5
vt 0.2604 0.9896
vt 0.2604 0.9896
vt 0.9896 0.2604
vt 0 0.5
vt 0.9896 0.2604
vt 0.5 1
vt 0.5 0
vt 0.7413 0.01042
vt 0.9896 0.2604
vt 0 0.5
vt 0.9167 0.9167
vt 0.01042 0.7396
vt 0.9896 0.2604
vt 0.7396 0.9896
vt 0.5 -8.345e-07
vt 0.01042 0.7396
vt 0.9167 0.08333
vt 0.7396 0.9896
vt 0.9236 0.08333
vt 0.9167 0.08333
vt 0.08333 0.08333
vt 0.08333 0.08333
vt 0.9167 0.9167
vt 0.01042 0.2604
vt 0.7396 0.9896
vt 0.08333 0.9167
vt 0.7396 0.01042
vt 0.01042 0.2604
vt 1 0.25
vt 0.2604 0.9896
vt 0.7396 0.01042
vt 0.2606 0.9896
vt 0.7396 0.01042
vt 0.2606 0.9896
vt 0.5 0
vt 0.2604 0.9896
vt 0.7396 0.01042
vt 0.01042 0.2604
vt 0.7396 0.01042
vt 0.9167 0.08333
vt 0.08333 0.9167
vt 0.08333 0.9167
vt 0.7396 0.01042
vt 0.01042 0.2604
vt 0.9896 0.2604
vt 0.2604 0.9896
vt 0 0.5
vt 0.9896 0.2604
vt 0.5 -1.192e-07
vt 0 0.5
vt 0.7396 0.01042
vt 1 0.5
vt 0.5 1
vt 0.2604 0.9896
vt 0.01042 0.2604
vt 0.9167 0.08333
vt 0.01042 0.2604
vt 0.5 0
vt 0.9896 0.2604
vt 0.5 1
vt 0 0.5
vt 0.9896 0.2604
vt 0.08333 0.9167
vt 0.08333 0.9167
vt 0 0.5
vt 0.7396 0.01042
vt 0.08333 0.9167
vt 0.2604 0.9896
vt 0.08333 0.08333
vt 0.2604 0.9896
vt 0.2604 0.9896
vt 0.08333 0.08333
vt 0.2604 0.9896
vt 0.5002 1
vt 0.5 1
vt 0.01042 0.2604
vt 0.5 -1.192e-07
vt 0.5 1
vt 0.5 1
vt 0.01042 0.2604
vt 0.9167 0.08333
vt 1 0.9167
vt 0.9167 0.08333
vt 0.9236 0.9167
vt 0.9913 0.7396
vt 0.7413 0.9896
vt 0.5 1
vt 1 0.7396
vt 0.01042 0.2604
vt 1 0.5
vt 0.748 0.9913
vt 0.5 1
vt 0.08333 0.08333
vt 0.2604 0.01041
vt 0.999 0.9167
vt 0.2604 0.9896
vt 1 0.7396
vt 0 0.5
vt 1 0.25
vt 0.5002 1
vt 0.5 1
vt 0.5 -8.345e-07
vt 0.08329 0.0833
vt 0.9235 0.9167
vt 0.08333 0.9167
vt 0.9913 0.7396
vt 0 0.5
vt 0.7413 0.9896
vt 0.2605 0.0104
vt 1 0.5
vt 0.01042 0.2604
vt 1 -1.192e-07
vt 0.7413 0.9896
vt 0.7483 0.9913
vt 0.2604 0.01041
vt 1 0.5
vt 0.01042 0.2604
vt 0.7483 0.9913
vt 0.748 0.9913
vt 0.2604 0.9896
vt 0.9913 0.7396
vt 0.01042 0.2604
vt 1 -1.192e-07
vt 0.5 1
vt 0.7413 0.9896
vt 0.2605 0.0104
vt 0.5002 -6.557e-06
vt 0.9896 0.7396
vt 0.01042 0.2604
vt 0.9236 0.9167
vt 1 0.5
vt 0.08333 0.08333
vt 1 0.9167
vt 0.9235 0.9167
vt 0.7396 0.9896
vt 1 0.5
vt 0.9913 0.2604
vt 0.08333 0.08333
vt 0.5 1
vt 0.7396 0.9896
vt 0.9167 0.9167
vt 0.9236 0.9167
vt 1 0.08333
vt 1 0.5
vt 0.7413 0.9896
vt 0.9167 0.9167
vt 0.9236 0.08333
vt 0.9167 0.9167
vt 0.5 1
vt 0.9896 0.7396
vt 0.9913 0.2604
vt 0.01042 0.2604
vt 0.7396 0.9896
vt 0.9913 0.7396
vt 1 0.2604
vt 0.01042 0.2604
vt 0.5 1
vt 0.7413 0.9896
vt 0.7413 0.9896
vt 0.08333 0.9167
vt 1 0.2604
vt 0.08392 0.9161
vt 0.9913 0.2604
vt 0.2608 0.989
vt 1 0.5
vt 0.2604 0.9896
vt 0.2604 0.9896
vt 0.9167 0.9167
vt 0.5 -1.192e-07
vt -6.2e-06 0.5
vt 0.08333 0.9167
vt 0.5 1
vt 0.2604 0.9896
vt 1 0.5
vt 0.5 -1.192e-07
vt 0.08333 0.9167
vt 0.01041 0.7396
vt 0.2608 0.989
vt 0.25 0
vt 0.08333 0.9167
vt 0.5 0.9995
vt 0.9896 0.7396
vt 0.25 0
vt 0.01041 0.7396
vt 0.01036 0.7396
vt 0.5 1
vt 0.9896 0.7396
vt 0.25 0
vt 0.01036 0.7396
vt 0.2604 0.9896
vt 0.2608 0.989
vt 0.25 0
vt -4.96e-05 0.5
vt 0.2633 0.985
vt 0 0
vt 0.5 0.9958
vt 0 0
vt 0.25 -1.192e-07
vt 0.5 0.9995
vt 0.2604 0.9896
vt 0 0
vt 0.08392 0.9161
vt 0.2604 0.9896
vt 0 -1.192e-07
vt 0.088 0.912
vt 0.2633 0.985
vt 0.08333 0.9167
vt 0.2608 0.989
vt 0.25 0
vt 0.9167 0.9167
vt 0.5 1
vt 0.9167 0.9167
vt 0.9896 0.7396
vt 0.08333 0.9167
vt 0.9896 0.7396
vt 0.2604 0.9896
vt 0.01042 0.7396
vt 0.9896 0.7396
vt 0.2604 0.9896
vt 0.9896 0.7396
vt 0.08333 0.9167
vt 1 0.5
vt 0.08333 0.9167
vt 1 0.5
vt 0.5 1
vt 0.01042 0.7396
vt 0.9896 0.7396
vt 0.9896 0.7396
vt 1 0.5
vt 0.003472 0.25
vt 1 0.5
vt 0.7396 0.9896
vt 0.008681 0.2517
vt 0.9167 0.9167
vt 0.9167 0.9167
vt 0.9167 0.9167
vt 0.7396 0.9896
vt 0.02083 0
vt 0.9896 0.7396
vt 0.9896 0.7396
vt 0.5 1
vt 0 0.5
vt 0.5 1
vt 0.5 1
vt 0.7396 0.9896
vt 0.7396 0.01042
vt 0.75 0.9983
vt 0.7396 0.9896
vt 0.7413 0.00868
vt 0.7483 0.9913
vt 0.5 -1.192e-07
vt 1 1
vt 0.999 0.9167
vt 0.9999 0.7396
vt 0.7396 0.01042
vt 0.7483 0.9913
vt 0.7396 0.9896
vt 0.7465 0.001736
vt 1 0.5
vt 0.9913 0.7396
vt 0.7396 0.9896
vt 1 0.08333
vt 0.75 0.9983
vt 0.9167 0.08333
vt 1 0.75
vt 1 0.5
vt 0.9167 0.9167
vt 0.4167 -2.384e-07
vt 1 0.75
vt 0.7396 0.01042
vt 1 0.9896
vt 0.9167 0.9167
vt 0.7465 0.001736
vt 1 0.9167
vt 0.5 -1.192e-07
vt 1 1
vt 0.9235 0.9167
vt 0.9913 0.7396
vt 0.7396 0.9896
vt 0.7413 0.00868
vt 1 0.5
vt 0.7396 0.9896
vt 1 0.01042
vt 1 0.75
vt 1 0.5
vt 0.9896 0.2604
vt 0.9167 0.9167
vt 0.7413 0.01042
vt 0.5 1
vt 1 0.2604
vt 1 0.5
vt 0.9235 0.9167
vt 0.9913 0.7396
vt 1 0.5
vt 0.9167 0.08333
vt 0.9167 0.9167
vt 0.5 0
vt 0.5 1
vt 0.9913 0.2604
vt 1 0.5
vt 0.9167 0.9167
vt 0.9896 0.7396
vt 0.5 1
vt 0.5 0
vt 0.75 1
vt 0.9236 0.08333
vt 1 0.25
vt 0.9896 0.7396
vt 0.9913 0.2604
vt 0.9236 0.08333
vt 0.5 1
vt 0.7413 0.01042
vt 1 0.25
vt 1 0.5
vt 0.7396 0.9896
vt 0.7483 0.008681
vt 1 0.25
vt 1 0.2604
vt 1 0.5
vt 0.7396 0.9896
vt 0.7483 0.008681
vt 0.75 0.9983
vt 1 0.08333
vt 1 0.25
vt 0.9913 0.7396
vt 1 0.5
vt 1 0.5
vt 0.7413 0.01042
vt 1 -1.192e-07
vt 1 0.5
vt 0.9236 0.08333
vt 1 0
vt 0.9896 0.2604
vt 0.9913 0.2604
vt 0.7396 0.01042
vt 0.9896 0.2604
vt 0.2604 0.9896
vt 1 0.5
vt 1 0.5
vt 0.9896 0.2604
vt 0.5 0
vt 0.9896 0.2604
vt 0.5 1
vt 1 0.25
vt 1 0.5
vt 0.9896 0.2604
vt 0.5 1
vt 0.9167 0.08333
vt 0.5 0
vt 0.9167 0.08333
vt 0.2604 0.9896
vt 1 0.25
vt 0.9896 0.2604
vt 0.9236 0.08333
vt 0.9236 0.08333
vt 0.9167 0.08333
vt 0.2604 0.9896
vt 0.9896 0.2604
vt 0.2604 0.9896
vt 0.08333 0.08333
vt 0.9913 0.2604
vt 0.9896 0.2604
vt 0.2604 0.9896
vt 0.9167 0.08333
vt 0.08333 0.9167
vt 0.75 0.9983
vt 0.9167 0.08333
vt 0.01042 0.2604
vt 0.75 1
vt 1 0.5
vt 0 0.5
vt 1 0.5
vt 0 0.5
vt 1 1
vt 0.9896 0.2604
vt 0.9896 0.2604
vt 1 0.9896
vt 0.9167 0.08333
vt 0.08333 0.08333
vt 0.9167 0.08333
vt 0.7396 0.01042
vt 1 0.08333
vt 0.7396 0.01042
vt 0 0.5
vt 0.9896 0.2604
vt 0.7396 0.01042
vt 0.08333 0.9167
vt 0.7396 0.01042
vt 0.9913 0.2604
vt 0.5 -1.192e-07
vt 0.01042 0.7396
vt 0.5 0
vt 0.01042 0.7396
vt 1 0.5
vt 0.7396 0.01042
vt 0.7396 0.01042
vt 0.5 0
vt 0.7396 0.01042
vt 0.5 -1.192e-07
vt 0 0.5
vt 0.08333 0.9167
vt 0.9167 0.08333
vt 0.08333 0.08333
vt 0.7413 0.01042
vt 0.9167 0.08333
vt 0.7396 0.01042
vt 0.01042 0.2604
vt 0.7396 0.01042
vt 0.9167 0.08333
vt 0.08333 0.9167
vt 0.01042 0.2604
vt 0.08333 0.9167
vt 0.2604 0.9896
vn 0.9659 0.06259 0.2511
vn 0.9784 0.08267 0.1896
vn 0.8407 0.2513 0.4797
vn 0.8405 0.2062 0.501
vn 0.6168 0.4419 0.6513
vn 0.6328 0.3874 0.6704
vn 0.783 0.6181 -0.06915
vn 0.6196 0.7843 0.03046
vn 0.8468 0.4506 -0.2824
vn 0.925 -0.3799 0.007233
vn 0.9262 -0.3766 0.01715
vn 0.9836 0.0112 -0.1796
vn 0.9825 0.006775 -0.1863
vn 0.8111 0.4574 -0.3646
vn 0.817 0.4464 -0.3649
vn 0.9845 0.01212 -0.1748
vn 0.8063 0.462 -0.3693
vn 0.9272 -0.3734 0.02936
vn 0.4112 -0.6635 0.625
vn 0.4119 -0.7371 0.5357
vn 0.689 -0.6757 0.262
vn 0.6839 -0.6356 0.3582
vn 0.8325 -0.5482 -0.08032
vn 0.8377 -0.546 0.01071
vn 0.7362 -0.6415 0.2157
vn 0.8891 -0.4472 -0.09677
vn 0.4406 -0.7586 0.48
vn -0.3182 0.7696 -0.5535
vn -0.3739 0.7718 -0.5143
vn -0.6707 0.6001 -0.4359
vn -0.5819 0.6313 -0.5127
vn -0.9059 0.3053 -0.2933
vn -0.8513 0.3859 -0.3555
vn -0.7418 0.5896 -0.3195
vn -0.9422 0.302 -0.1447
vn -0.4305 0.7641 -0.4805
vn 0.8419 -0.3509 -0.4099
vn 0.8578 -0.3666 -0.3603
vn 0.7527 -0.03851 -0.6572
vn 0.7545 -0.05219 -0.6542
vn 0.9018 -0.2129 -0.3761
vn 0.8036 0.07917 -0.5898
vn 0.2369 0.6436 -0.7277
vn 0.2425 0.6501 -0.7201
vn -0.06879 0.7866 -0.6136
vn -0.05911 0.7803 -0.6226
vn -0.0839 0.7774 -0.6233
vn 0.25 0.6564 -0.7117
vn 0.5461 0.3518 -0.7603
vn 0.5361 0.3384 -0.7733
vn 0.5727 0.4101 -0.7098
vn -0.8195 -0.2859 0.4967
vn -0.8248 -0.3855 0.4136
vn -0.5306 -0.559 0.6371
vn -0.5079 -0.4593 0.7287
vn -0.252 -0.6529 0.7143
vn -0.235 -0.5507 0.8009
vn -0.5437 -0.5851 0.6016
vn -0.2577 -0.7007 0.6653
vn -0.8213 -0.3833 0.4225
vn -0.9978 -0.06012 0.02765
vn -0.9979 0.0444 0.0477
vn -0.9913 -0.05033 0.1214
vn 0.06769 -0.7221 0.6884
vn 0.07483 -0.6275 0.775
vn 0.07794 -0.7704 0.6327
vn 0.5962 -0.7412 0.3083
vn 0.6037 -0.732 0.3156
vn 0.8072 -0.5583 0.1915
vn 0.8025 -0.5688 0.1802
vn 0.9328 -0.3544 0.06513
vn 0.9311 -0.361 0.05213
vn 0.809 -0.5525 0.2006
vn 0.9331 -0.353 0.06848
vn 0.6019 -0.726 0.3326
vn 0.3276 0.8285 -0.454
vn 0.3284 0.8272 -0.4559
vn 0.0904 0.8954 -0.436
vn 0.07385 0.8993 -0.431
vn -0.2267 0.9035 -0.3636
vn -0.2552 0.9011 -0.3505
vn 0.09873 0.8882 -0.4486
vn -0.216 0.8974 -0.3847
vn 0.3269 0.8235 -0.4636
vn 0.5557 0.7053 -0.4401
vn 0.5627 0.7002 -0.4393
vn 0.5474 0.7075 -0.4469
vn -0.9293 -0.1825 0.3209
vn -0.932 -0.1764 0.3164
vn -0.7284 -0.5218 0.4439
vn -0.7224 -0.5292 0.445
vn -0.3143 -0.8075 0.4991
vn -0.3186 -0.8079 0.4957
vn -0.7339 -0.5191 0.4381
vn -0.3133 -0.8063 0.5016
vn -0.9356 -0.1777 0.3049
vn -0.9003 0.4346 0.02319
vn -0.8995 0.4366 0.01376
vn -0.9747 0.1465 0.1689
vn -0.974 0.1422 0.1762
vn -0.9779 0.1429 0.1527
vn -0.9022 0.4312 -0.006928
vn 0.1719 -0.8855 0.4315
vn 0.1438 -0.8904 0.4317
vn 0.5388 -0.7873 0.2998
vn 0.5108 -0.8046 0.3028
vn 0.1868 -0.8803 0.436
vn 0.5523 -0.7754 0.3059
vn 0.7814 -0.6041 0.1562
vn 0.7696 -0.6197 0.1536
vn 0.7872 -0.5938 0.1667
vn -0.6401 0.7442 -0.1906
vn -0.6532 0.7365 -0.1754
vn -0.638 0.7392 -0.2156
vn -0.915 0.3735 -0.1524
vn -0.9152 0.3548 -0.191
vn -0.9977 0.06708 -0.006256
vn -0.9952 0.08719 0.04288
vn -0.9472 -0.2486 0.2026
vn -0.9381 -0.2299 0.2589
vn -0.9946 0.01065 -0.1032
vn -0.9442 -0.3204 0.07675
vn -0.9015 0.3259 -0.2847
vn -0.2051 0.8903 -0.4065
vn -0.2032 0.8835 -0.4219
vn -0.6397 0.7181 -0.2741
vn -0.6405 0.7259 -0.2504
vn -0.9133 0.4016 -0.06732
vn -0.9117 0.4083 -0.04559
vn -0.6443 0.7038 -0.2991
vn -0.9136 0.3954 -0.09455
vn -0.2162 0.8752 -0.4326
vn 0.9913 0.007813 -0.1314
vn 0.9899 0.005646 -0.1414
vn 0.8252 0.4517 -0.339
vn 0.8242 0.4513 -0.3418
vn 0.9915 0.002564 -0.1297
vn 0.8292 0.447 -0.3354
vn 0.3298 0.8239 -0.4607
vn 0.3296 0.8223 -0.4638
vn 0.1132 0.8791 -0.4631
vn 0.1109 0.8828 -0.4564
vn 0.1075 0.8809 -0.4608
vn 0.331 0.8263 -0.4556
vn 0.5535 0.7096 -0.436
vn 0.5551 0.7093 -0.4343
vn 0.5569 0.7112 -0.429
vn -0.9364 -0.2182 0.2747
vn -0.9352 -0.2271 0.2715
vn -0.7313 -0.5462 0.4086
vn -0.7363 -0.5399 0.408
vn -0.3035 -0.8171 0.4901
vn -0.3052 -0.8164 0.4902
vn -0.7224 -0.5444 0.4263
vn -0.3025 -0.807 0.5071
vn -0.9333 -0.2271 0.2779
vn -0.9894 0.09894 0.1061
vn -0.9872 0.1067 0.1189
vn -0.9909 0.0968 0.0933
vn 0.238 -0.8658 0.44
vn 0.235 -0.8683 0.4367
vn 0.2286 -0.8582 0.4596
vn 0.7703 0.3263 -0.5478
vn 0.5226 0.2701 -0.8086
vn 0.2851 0.4337 -0.8547
vn 0.5277 0.6026 -0.5986
vn 0.1878 0.4831 -0.8551
vn 0.2978 0.7442 -0.5979
vn 0.004151 0.274 -0.9617
vn 0.08676 0.2369 -0.9676
vn 0.1881 0.2058 -0.9603
vn -0.3155 -0.7785 0.5426
vn -0.3329 -0.7885 0.517
vn 0.1659 -0.8662 0.4713
vn 0.1849 -0.8469 0.4985
vn 0.5722 -0.7606 0.3068
vn 0.5828 -0.7357 0.3451
vn 0.1319 -0.9255 0.3549
vn 0.5394 -0.817 0.2038
vn -0.3563 -0.8455 0.3977
vn 0.8093 -0.574 0.1245
vn 0.8105 -0.5593 0.1737
vn 0.9279 -0.3702 -0.04349
vn 0.9312 -0.3641 0.01807
vn 0.794 -0.6065 0.04022
vn 0.9161 -0.3752 -0.1415
vn -0.2956 0.8607 -0.4145
vn -0.3382 0.8376 -0.4289
vn -0.6964 0.6278 -0.3477
vn -0.6802 0.6578 -0.3234
vn -0.6596 0.5878 -0.4684
vn -0.307 0.7552 -0.5791
vn 0.9723 -0.05774 -0.2264
vn 0.9858 -0.03912 -0.1632
vn 0.8576 0.3606 -0.3667
vn 0.8592 0.3978 -0.3218
vn 0.9261 -0.05683 -0.373
vn 0.3426 0.8533 -0.393
vn 0.3408 0.8472 -0.4074
vn 0.03442 0.9043 -0.4254
vn 0.06436 0.9087 -0.4124
vn 0.035 0.7977 -0.602
vn 0.6103 0.6807 -0.405
vn 0.5986 0.7054 -0.3795
vn -0.7314 -0.5502 0.4028
vn -0.7155 -0.5377 0.4459
vn -0.7419 -0.6134 0.2707
vn 0.06955 0.3407 -0.9376
vn 0.2709 0.08359 -0.959
vn 0.06424 -0.006928 -0.9979
vn -0.2641 0.3158 -0.9113
vn -0.1387 -0.2719 -0.9523
vn -0.6055 0.08136 -0.7916
vn 0.5933 -0.492 -0.6371
vn 0.6799 -0.467 -0.5654
vn 0.5662 -0.482 -0.6686
vn -0.8812 -0.4487 -0.1489
vn -0.7009 -0.7128 0.02673
vn -0.3682 -0.9159 0.16
vn -0.6184 -0.7642 -0.1833
vn -0.3577 -0.9313 -0.06885
vn -0.7582 -0.5511 -0.3482
vn -0.8142 0.2542 -0.5219
vn -0.9444 -0.1044 -0.3117
vn -0.782 -0.2612 -0.5658
vn 0.07251 -0.9882 0.1346
vn 0.4688 -0.8831 0.01633
vn 0.009522 -0.9964 -0.08405
vn 0.3637 -0.9066 -0.2137
vn 0.7427 -0.6573 -0.1278
vn 0.8517 -0.3866 -0.3537
vn 0.594 -0.6987 -0.3987
vn 0.6485 -0.4159 -0.6374
vn -0.1485 0.563 -0.813
vn -0.5018 0.4907 -0.7123
vn 0.7725 -0.05249 -0.6328
vn 0.4964 -0.0726 -0.865
vn 0.09311 0.5261 -0.8453
vn 0.1944 0.2593 -0.946
vn -0.207 -0.6885 -0.6951
vn -0.6894 -0.4382 -0.5768
vn -0.5919 -0.1664 -0.7886
vn -0.07532 -0.4089 -0.9095
vn 0.1007 0.02734 -0.9945
vn -0.3852 0.225 -0.895
vn -0.6312 0.3872 -0.6721
vn -0.7778 0.2139 -0.5909
vn -0.8978 0.1277 -0.4215
vn -0.8997 -0.08509 -0.4281
vn -0.9018 -0.2567 -0.3475
vn 0.0372 -0.4066 -0.9128
vn -0.01511 -0.126 -0.9919
vn -0.2016 0.09864 -0.9745
vn -0.7752 -0.07068 -0.6277
vn -0.7717 -0.09903 -0.6283
vn -0.8185 0.082 -0.5686
vn 0.02261 0.0264 -0.9994
vn 0.3119 0.0264 -0.9497
vn 0.4363 -0.5722 -0.6944
vn -0.1905 -0.5851 -0.7882
vn -0.268 0.1163 -0.9564
vn -0.7154 -0.2537 -0.651
vn -0.07892 -0.6927 -0.7169
vn 0.03458 -0.6799 -0.7324
vn -0.05487 -0.5405 -0.8396
vn 0.7133 0.331 -0.6177
vn 0.2978 0.6732 -0.6768
vn 0.8415 -0.03958 -0.5387
vn -0.1844 -0.5521 -0.8131
vn 0.7908 -0.3165 -0.5238
vn -0.3194 -0.431 -0.8439
vn -0.3295 -0.526 -0.784
vn -0.2137 0.7634 -0.6095
vn -0.5729 0.6272 -0.5275
vn -0.1234 -0.5581 -0.8205
vn -0.7733 0.3697 -0.515
vn 0.5344 -0.7935 -0.2911
vn 0.5787 -0.7974 -0.171
vn 0.2783 -0.9128 -0.2987
vn 0.2955 -0.7953 -0.5293
vn -0.2956 -0.8563 -0.4235
vn -0.5798 0.6397 -0.5045
vn -0.2212 0.6821 -0.697
vn 0.2751 0.5483 -0.7897
vn -0.9511 -0.24 -0.1943
vn -0.9815 -0.0127 -0.191
vn -0.9339 0.2409 -0.2642
vn 0.7995 -0.1278 -0.5868
vn 0.8988 0.08649 -0.4298
vn 0.9385 -0.1716 -0.2995
vn 0.7877 -0.3464 -0.5094
vn 0.8791 -0.431 -0.2037
vn 0.8018 -0.4879 -0.3449
vn 0.7447 -0.6511 -0.1466
vn 0.6606 -0.6559 -0.365
vn 0.6997 0.3312 -0.633
vn 0.5627 -0.1136 -0.8188
vn -0.7997 0.4727 -0.3701
vn -0.7848 -0.5341 -0.3141
vn -0.3659 0.8117 -0.4553
vn -0.3397 0.8556 -0.3904
vn -0.702 0.6794 -0.2135
vn -0.721 0.64 -0.2655
vn -0.9193 0.3934 -0.004273
vn -0.9328 0.3584 -0.03708
vn -0.6895 0.7022 -0.1774
vn -0.9095 0.4154 0.01712
vn -0.3211 0.879 -0.3524
vn 0.4369 -0.79 0.4301
vn 0.4267 -0.8089 0.4044
vn 0.7484 -0.6234 0.2263
vn 0.7621 -0.6 0.2432
vn 0.9404 -0.3389 0.02652
vn 0.9511 -0.3076 0.02615
vn 0.7444 -0.6396 0.1916
vn 0.9299 -0.3675 0.01401
vn 0.4362 -0.8252 0.3588
vn -0.2988 -0.7538 0.5852
vn -0.3118 -0.7677 0.5598
vn 0.05524 -0.8532 0.5186
vn 0.05972 -0.8352 0.5466
vn 0.06787 -0.8773 0.4752
vn -0.3219 -0.7896 0.5224
vn -0.9778 0.08741 0.1901
vn -0.982 0.04666 0.1829
vn -0.8959 -0.2399 0.3739
vn -0.8769 -0.2798 0.3908
vn -0.9757 0.1158 0.186
vn -0.9136 -0.2131 0.3462
vn -0.6575 -0.5521 0.5126
vn -0.6271 -0.5643 0.537
vn -0.688 -0.5478 0.476
vn 0.8206 0.3939 -0.414
vn 0.8191 0.4274 -0.3825
vn 0.5654 0.6716 -0.4789
vn 0.5705 0.6225 -0.5357
vn 0.3152 0.803 -0.5057
vn 0.3013 0.7592 -0.5769
vn 0.5633 0.6916 -0.452
vn 0.3215 0.8221 -0.4699
vn 0.821 0.4349 -0.3699
vn 0.02451 0.8755 -0.4825
vn -0.002899 0.8326 -0.5538
vn 0.04059 0.8947 -0.4448
vn 0.9805 0.03983 -0.1921
vn 0.9769 0.05179 -0.2073
vn 0.9818 0.01654 -0.1889
vn -0.1906 -0.386 0.9026
vn -0.2018 -0.4034 0.8925
vn 0.1055 -0.4916 0.8643
vn 0.1055 -0.473 0.8747
vn 0.4523 -0.5317 0.716
vn 0.4682 -0.4919 0.7341
vn -0.7075 0.6425 -0.2942
vn -0.7783 0.5426 -0.3158
vn -0.9493 0.2766 0.1494
vn -0.8853 0.4231 0.193
vn -0.7813 -0.07599 0.6194
vn -0.7498 0.01303 0.6615
vn -0.4686 -0.2957 0.8324
vn -0.4457 -0.2687 0.8539
vn 0.8041 0.1817 -0.566
vn 0.7994 0.06345 -0.5973
vn 0.5421 0.38 -0.7495
vn 0.5259 0.4153 -0.7422
vn 0.2261 0.6288 -0.7439
vn 0.1942 0.6013 -0.775
vn -0.07855 0.7456 -0.6618
vn -0.1198 0.6939 -0.71
vn -0.3048 0.744 -0.5946
vn -0.3221 0.7019 -0.6352
vn 0.9568 -0.2453 0.1559
vn 0.9167 -0.383 0.1136
vn 0.9393 -0.2049 -0.275
vn 0.9712 -0.0517 -0.2327
vn -0.5163 0.6716 -0.5314
vn -0.4849 0.6851 -0.5435
vn 0.742 -0.4907 0.4567
vn 0.7768 -0.4 0.4863
vn -0.3136 -0.8062 0.5017
vn 0.1971 -0.8756 0.4409
vn 0.5589 -0.7677 0.3133
vn 0.2094 -0.8716 0.4432
vn 0.5675 -0.7611 0.314
vn -0.3117 -0.8075 0.5007
vn -0.9066 0.4211 -0.02799
vn -0.9819 0.1325 0.1351
vn -0.939 -0.1852 0.2897
vn -0.9839 0.1231 0.1291
vn -0.9393 -0.1944 0.2826
vn -0.909 0.4155 -0.03333
vn -0.7394 -0.5199 0.4277
vn -0.7416 -0.5231 0.42
vn 0.8076 0.458 -0.3713
vn 0.5454 0.7062 -0.4514
vn 0.3255 0.8205 -0.4699
vn 0.5504 0.707 -0.444
vn 0.327 0.8226 -0.4651
vn 0.815 0.4528 -0.3616
vn 0.09885 0.8824 -0.4599
vn -0.2186 0.8888 -0.4029
vn 0.0994 0.8836 -0.4575
vn -0.2201 0.8886 -0.4023
vn 0.9274 -0.3721 0.03821
vn 0.9854 0.007569 -0.1701
vn 0.9866 0.002167 -0.1628
vn 0.9272 -0.3724 0.03958
vn -0.643 0.728 -0.2378
vn -0.6459 0.7248 -0.2397
vn 0.7885 -0.589 0.1768
vn 0.7898 -0.587 0.1775
vn -0.2918 0.8925 -0.344
vn -0.6727 0.7205 -0.1682
vn -0.9036 0.4277 0.02457
vn 0.4705 -0.8218 0.3213
vn 0.7542 -0.6357 0.1643
vn 0.9251 -0.3797 0.005188
vn -0.3231 -0.8036 0.4997
vn 0.1032 -0.8901 0.4439
vn -0.9746 0.1326 0.1803
vn -0.9245 -0.1946 0.3276
vn -0.7103 -0.5396 0.452
vn 0.8208 0.4378 -0.3669
vn 0.5642 0.6969 -0.4427
vn 0.3251 0.8277 -0.4574
vn 0.05585 0.8999 -0.4324
vn 0.9818 0.00531 -0.1896
vn -0.3082 -0.8112 0.497
vn 0.2236 -0.8693 0.4408
vn 0.5816 -0.7523 0.3095
vn -0.9098 0.4136 -0.03372
vn -0.985 0.116 0.1276
vn -0.9377 -0.205 0.2803
vn -0.7398 -0.5299 0.4146
vn 0.8215 0.4511 -0.3487
vn 0.5551 0.7092 -0.4346
vn 0.3293 0.8255 -0.4584
vn 0.1046 0.8859 -0.4519
vn -0.2138 0.8924 -0.3974
vn 0.9285 -0.369 0.04096
vn 0.9881 0.002014 -0.1537
vn -0.6437 0.7276 -0.2371
vn 0.7952 -0.5806 0.1746
vn -0.9329 -0.2255 0.2808
vn -0.7135 -0.5394 0.4472
vn -0.3055 -0.7902 0.5312
vn 0.8414 0.4299 -0.3275
vn 0.5717 0.7114 -0.4087
vn 0.3355 0.8375 -0.4312
vn 0.09149 0.8913 -0.444
vn -0.2474 0.8676 -0.4312
vn 0.9325 -0.3568 0.05554
vn 0.9904 -0.01407 -0.1376
vn -0.6579 0.683 -0.3173
vn -0.9138 0.3868 -0.1239
vn 0.5927 -0.726 0.3488
vn 0.8096 -0.5523 0.1986
vn 0.2073 -0.8489 0.4862
vn -0.9926 0.095 0.07483
vn -0.8748 0.4149 -0.2499
vn -0.8719 0.4343 -0.2261
vn -0.8668 0.07389 -0.4932
vn -0.8145 0.151 -0.5601
vn -0.7627 -0.1356 -0.6324
vn -0.7143 0.02033 -0.6995
vn -0.4621 0.464 -0.7557
vn -0.3856 0.3024 -0.8717
vn -0.4512 0.7158 -0.533
vn 0.8737 0.0253 -0.4858
vn 0.8415 0.04093 -0.5387
vn 0.987 0.0304 -0.1575
vn 0.9977 0.01321 -0.06598
vn 0.7812 0.376 -0.4982
vn 0.6442 0.3486 -0.6808
vn -0.5166 -0.1821 -0.8366
vn -0.4909 -0.001617 -0.8712
vn -0.0206 -0.107 -0.994
vn -0.01346 0.02835 -0.9995
vn -0.1997 0.236 -0.951
vn 0.1088 0.2406 -0.9645
vn 0.5016 -0.002441 -0.8651
vn 0.5083 0.04071 -0.8602
vn 0.4296 0.3022 -0.8509
vn 0.1336 0.6381 0.7583
vn 0.1334 0.6947 0.7068
vn -0.09577 0.7656 0.6361
vn -0.09583 0.706 0.7017
vn -0.337 0.8036 0.4906
vn -0.3723 0.7401 0.56
vn 0.1216 0.9925 -0.01257
vn -0.04221 0.9944 -0.0965
vn 0.2809 0.9592 0.03284
vn -0.6511 0.7343 0.1921
vn -0.7137 0.6636 0.2243
vn -0.2603 0.9305 -0.2575
vn 0.377 0.5892 0.7147
vn 0.3822 0.5369 0.7521
vn 0.4482 0.8925 0.0502
vn 0.6378 0.0921 0.7647
vn 0.5943 -0.1423 0.7915
vn 0.8582 -0.1417 0.4933
vn 0.868 -0.004822 0.4965
vn 0.9754 -0.09421 0.1993
vn 0.9724 -0.04886 0.2282
vn 0.8209 -0.2965 0.488
vn 0.9686 -0.1716 0.1797
vn 0.5215 -0.374 0.7669
vn -0.5535 0.3471 -0.757
vn -0.509 0.4205 -0.751
vn -0.6595 0.4209 -0.6227
vn -0.7027 0.3518 -0.6184
vn -0.8688 0.3858 -0.3103
vn -0.8926 0.3507 -0.2832
vn -0.5817 0.5399 -0.6084
vn -0.7995 0.5059 -0.3239
vn -0.4342 0.5372 -0.7231
vn 0.989 -0.0365 -0.1433
vn 0.9945 -0.05002 -0.09143
vn 0.8318 0.05313 -0.5525
vn 0.853 0.01016 -0.5218
vn 0.9813 -0.04715 -0.1866
vn 0.8155 0.1021 -0.5696
vn 0.04907 0.2834 -0.9577
vn 0.07102 0.3477 -0.9349
vn -0.3056 0.4142 -0.8573
vn -0.3424 0.3412 -0.8754
vn -0.2359 0.5296 -0.8147
vn 0.1175 0.4517 -0.8844
vn 0.4917 0.1976 -0.848
vn 0.494 0.1444 -0.8574
vn 0.5017 0.2834 -0.8173
vn -0.5711 0.4037 0.7147
vn -0.6621 0.1928 0.7242
vn -0.3032 0.0716 0.9502
vn -0.2126 0.3513 0.9118
vn -0.05661 -0.008667 0.9984
vn 0.03354 0.2826 0.9586
vn -0.3858 -0.1859 0.9037
vn -0.1425 -0.2788 0.9497
vn -0.7286 0.02451 0.6845
vn -0.9255 0.3065 0.2224
vn -0.8867 0.3844 0.2567
vn -0.9278 0.3223 0.188
vn 0.2265 -0.08029 0.9707
vn 0.3079 0.2026 0.9296
vn 0.1392 -0.3489 0.9267
vn 0.4396 -0.5266 -0.7276
vn 0.9574 -0.2888 0.000824
vn 0.9568 -0.2901 0.01526
vn 0.9743 0.03687 -0.2221
vn 0.9731 0.007935 -0.2303
vn 0.8309 0.3328 -0.4458
vn 0.8454 0.2752 -0.4577
vn 0.2676 0.6624 -0.6997
vn 0.2813 0.699 -0.6575
vn -0.04099 0.776 -0.6294
vn -0.07126 0.7476 -0.6602
vn -0.4076 0.7571 -0.5105
vn -0.4436 0.7349 -0.5129
vn 0.5781 0.5529 -0.6
vn 0.5896 0.5015 -0.6331
vn -0.8395 -0.3382 0.4252
vn -0.8583 -0.3214 0.4
vn -0.6019 -0.5842 0.5445
vn -0.5813 -0.5941 0.556
vn -0.2899 -0.7532 0.5904
vn -0.2829 -0.7524 0.5949
vn -0.9446 0.3271 -0.02786
vn -0.944 0.3256 -0.05377
vn -0.9836 0.01019 0.1797
vn -0.9781 0.0065 0.2077
vn 0.06571 -0.8312 0.552
vn 0.07044 -0.8287 0.5552
vn 0.4493 -0.7822 0.4316
vn 0.4579 -0.7782 0.4297
vn 0.7751 -0.5847 0.2395
vn 0.7828 -0.5783 0.2297
vn -0.7488 0.5934 -0.2951
vn -0.7675 0.5802 -0.2725
vn 0.4669 -0.5004 0.7291
vn 0.7843 -0.391 0.4816
vn 0.9596 -0.2273 0.1655
vn -0.3607 0.6428 -0.6757
vn -0.5106 0.6411 -0.5729
vn -0.7274 0.6125 -0.3095
vn 0.9748 -0.04953 -0.2173
vn 0.8052 0.1554 -0.5722
vn 0.1628 0.5472 -0.821
vn -0.1648 0.6337 -0.7558
vn 0.5135 0.3688 -0.7748
vn -0.7579 -0.02951 0.6517
vn -0.4348 -0.3086 0.8459
vn -0.19 -0.415 0.8897
vn -0.9035 0.3881 0.1815
vn 0.09137 -0.4911 0.8663
vn 0.1011 0.5091 0.8547
vn 0.3609 0.4178 0.8338
vn 0.6454 0.2746 0.7128
vn -0.8871 0.3819 -0.259
vn -0.8061 0.531 0.2612
vn -0.4643 0.6015 0.6501
vn -0.1374 0.5734 0.8077
vn 0.8752 -0.004364 -0.4837
vn 0.5078 0.09445 -0.8563
vn 0.02759 0.1917 -0.981
vn -0.4024 0.2201 -0.8886
vn -0.6218 0.228 -0.7492
vn 0.9659 -0.00116 0.2589
vn 0.998 -0.03928 -0.04855
vn -0.7491 0.2741 -0.6031
vn 0.8558 0.1118 0.505
vn -0.4545 0.7487 -0.4824
vn -0.7676 0.5892 -0.2521
vn -0.9438 0.329 -0.02948
vn 0.4569 -0.771 0.4436
vn 0.7724 -0.5973 0.2159
vn 0.9402 -0.338 -0.04312
vn -0.2694 -0.7361 0.6209
vn 0.07743 -0.8093 0.5822
vn -0.9777 -0.005982 0.2097
vn -0.8233 -0.3553 0.4426
vn -0.5598 -0.5939 0.5778
vn 0.8437 0.2032 -0.4967
vn 0.5924 0.4649 -0.6579
vn 0.2599 0.6573 -0.7073
vn -0.0856 0.7584 -0.6461
vn 0.9572 -0.06623 -0.2816
f 1/1/1 2/2/2 3/3/3
f 1/1/1 3/3/3 4/4/4
f 4/4/4 3/3/3 5/5/5
f 4/4/4 5/5/5 6/6/6
f 3/3/3 7/7/7 8/8/8
f 3/3/3 8/8/8 5/5/5
f 2/2/2 9/9/9 7/7/7
f 2/2/2 7/7/7 3/3/3
f 10/10/10 11/11/11 12/12/12
f 10/10/10 12/12/12 13/13/13
f 13/13/13 12/12/12 14/14/14
f 13/13/13 14/14/14 15/15/15
f 12/12/12 16/16/16 17/17/17
f 12/12/12 17/17/17 14/14/14
f 11/11/11 18/18/18 16/16/16
f 11/11/11 16/16/16 12/12/12
f 19/19/19 20/20/20 21/21/21
f 19/19/19 21/21/21 22/22/22
f 22/22/22 21/21/21 23/23/23
f 22/22/22 23/23/23 24/24/24
f 21/21/21 25/25/25 26/26/26
f 21/21/21 26/26/26 23/23/23
f 20/20/20 27/27/27 25/25/25
f 20/20/20 25/25/25 21/21/21
f 28/28/28 29/29/29 30/30/30
f 28/28/28 30/30/30 31/31/31
f 31/31/31 30/30/30 32/32/32
f 31/31/31 32/32/32 33/33/33
f 30/30/30 34/34/34 35/35/35
f 30/30/30 35/35/35 32/32/32
f 29/29/29 36/36/36 34/34/34
f 29/29/29 34/34/34 30/30/30
f 24/24/24 23/23/23 37/37/37
f 24/24/24 37/37/37 38/38/38
f 38/38/38 37/37/37 39/39/39
f 38/38/38 39/39/39 40/40/40
f 37/37/37 41/41/41 42/42/42
f 37/37/37 42/42/42 39/39/39
f 23/23/23 26/26/26 41/41/41
f 23/23/23 41/41/41 37/37/37
f 43/43/43 44/44/44 45/45/45
f 43/43/43 45/45/45 46/46/46
f 46/46/46 45/45/45 29/29/29
f 46/46/46 29/29/29 28/28/28
f 45/45/45 47/47/47 36/36/36
f 45/45/45 36/36/36 29/29/29
f 44/44/44 48/48/48 47/47/47
f 44/44/44 47/47/47 45/45/45
f 40/40/40 39/39/39 49/49/49
f 40/40/40 49/49/49 50/50/50
f 50/50/50 49/49/49 44/44/44
f 50/50/50 44/44/44 43/43/43
f 49/49/49 51/51/51 48/48/48
f 49/49/49 48/48/48 44/44/44
f 39/39/39 42/42/42 51/51/51
f 39/39/39 51/51/51 49/49/49
f 52/52/52 53/53/53 54/54/54
f 52/52/52 54/54/54 55/55/55
f 55/55/55 54/54/54 56/56/56
f 55/55/55 56/56/56 57/57/57
f 54/54/54 58/58/58 59/59/59
f 54/54/54 59/59/59 56/56/56
f 53/53/53 60/60/60 58/58/58
f 53/53/53 58/58/58 54/54/54
f 33/33/33 32/32/32 61/61/61
f 33/33/33 61/61/61 62/62/62
f 62/62/62 61/61/61 53/53/53
f 62/62/62 53/53/53 52/52/52
f 61/61/61 63/63/63 60/60/60
f 61/61/61 60/60/60 53/53/53
f 32/32/32 35/35/35 63/63/63
f 32/32/32 63/63/63 61/61/61
f 57/57/57 56/56/56 64/64/64
f 57/57/57 64/64/64 65/65/65
f 65/65/65 64/64/64 20/20/20
f 65/65/65 20/20/20 19/19/19
f 64/64/64 66/66/66 27/27/27
f 64/64/64 27/27/27 20/20/20
f 56/56/56 59/59/59 66/66/66
f 56/56/56 66/66/66 64/64/64
f 67/67/67 68/68/68 69/69/69
f 67/67/67 69/69/69 70/70/70
f 70/70/70 69/69/69 71/71/71
f 70/70/70 71/71/71 72/72/72
f 69/69/69 73/73/73 74/74/74
f 69/69/69 74/74/74 71/71/71
f 68/68/68 75/75/75 73/73/73
f 68/68/68 73/73/73 69/69/69
f 76/76/76 77/77/77 78/78/78
f 76/76/76 78/78/78 79/79/79
f 79/79/79 78/78/78 80/80/80
f 79/79/79 80/80/80 81/81/81
f 78/78/78 82/82/82 83/83/83
f 78/78/78 83/83/83 80/80/80
f 77/77/77 84/84/84 82/82/82
f 77/77/77 82/82/82 78/78/78
f 15/15/15 14/14/14 85/85/85
f 15/15/15 85/85/85 86/86/86
f 86/86/86 85/85/85 77/77/77
f 86/86/86 77/77/77 76/76/76
f 85/85/85 87/87/87 84/84/84
f 85/85/85 84/84/84 77/77/77
f 14/14/14 17/17/17 87/87/87
f 14/14/14 87/87/87 85/85/85
f 88/88/88 89/89/89 90/90/90
f 88/88/88 90/90/90 91/91/91
f 91/91/91 90/90/90 92/92/92
f 91/91/91 92/92/92 93/93/93
f 90/90/90 94/94/94 95/95/95
f 90/90/90 95/95/95 92/92/92
f 89/89/89 96/96/96 94/94/94
f 89/89/89 94/94/94 90/90/90
f 97/97/97 98/98/98 99/99/99
f 97/97/97 99/99/99 100/100/100
f 100/100/100 99/99/99 89/89/89
f 100/100/100 89/89/89 88/88/88
f 99/99/99 101/101/101 96/96/96
f 99/99/99 96/96/96 89/89/89
f 98/98/98 102/102/102 101/101/101
f 98/98/98 101/101/101 99/99/99
f 93/93/93 92/92/92 103/103/103
f 93/93/93 103/103/103 104/104/104
f 104/104/104 103/103/103 105/105/105
f 104/104/104 105/105/105 106/106/106
f 103/103/103 107/107/107 108/108/108
f 103/103/103 108/108/108 105/105/105
f 92/92/92 95/95/95 107/107/107
f 92/92/92 107/107/107 103/103/103
f 106/106/106 105/105/105 109/109/109
f 106/106/106 109/109/109 110/110/110
f 110/110/110 109/109/109 11/11/11
f 110/110/110 11/11/11 10/10/10
f 109/109/109 111/111/111 18/18/18
f 109/109/109 18/18/18 11/11/11
f 105/105/105 108/108/108 111/111/111
f 105/105/105 111/111/111 109/109/109
f 81/81/81 80/80/80 112/112/112
f 81/81/81 112/112/112 113/113/113
f 113/113/113 112/112/112 98/98/98
f 113/113/113 98/98/98 97/97/97
f 112/112/112 114/114/114 102/102/102
f 112/112/112 102/102/102 98/98/98
f 80/80/80 83/83/83 114/114/114
f 80/80/80 114/114/114 112/112/112
f 115/115/115 116/116/116 117/117/117
f 115/115/115 117/117/117 118/118/118
f 118/118/118 117/117/117 119/119/119
f 118/118/118 119/119/119 120/120/120
f 117/117/117 121/121/121 122/122/122
f 117/117/117 122/122/122 119/119/119
f 116/116/116 123/123/123 121/121/121
f 116/116/116 121/121/121 117/117/117
f 124/124/124 125/125/125 126/126/126
f 124/124/124 126/126/126 127/127/127
f 127/127/127 126/126/126 128/128/128
f 127/127/127 128/128/128 129/129/129
f 126/126/126 130/130/130 131/131/131
f 126/126/126 131/131/131 128/128/128
f 125/125/125 132/132/132 130/130/130
f 125/125/125 130/130/130 126/126/126
f 72/72/72 71/71/71 133/133/133
f 72/72/72 133/133/133 134/134/134
f 134/134/134 133/133/133 135/135/135
f 134/134/134 135/135/135 136/136/136
f 133/133/133 137/137/137 138/138/138
f 133/133/133 138/138/138 135/135/135
f 71/71/71 74/74/74 137/137/137
f 71/71/71 137/137/137 133/133/133
f 139/139/139 140/140/140 141/141/141
f 139/139/139 141/141/141 142/142/142
f 142/142/142 141/141/141 125/125/125
f 142/142/142 125/125/125 124/124/124
f 141/141/141 143/143/143 132/132/132
f 141/141/141 132/132/132 125/125/125
f 140/140/140 144/144/144 143/143/143
f 140/140/140 143/143/143 141/141/141
f 136/136/136 135/135/135 145/145/145
f 136/136/136 145/145/145 146/146/146
f 146/146/146 145/145/145 140/140/140
f 146/146/146 140/140/140 139/139/139
f 145/145/145 147/147/147 144/144/144
f 145/145/145 144/144/144 140/140/140
f 135/135/135 138/138/138 147/147/147
f 135/135/135 147/147/147 145/145/145
f 148/148/148 149/149/149 150/150/150
f 148/148/148 150/150/150 151/151/151
f 151/151/151 150/150/150 152/152/152
f 151/151/151 152/152/152 153/153/153
f 150/150/150 154/154/154 155/155/155
f 150/150/150 155/155/155 152/152/152
f 149/149/149 156/156/156 154/154/154
f 149/149/149 154/154/154 150/150/150
f 129/129/129 128/128/128 157/157/157
f 129/129/129 157/157/157 158/158/158
f 158/158/158 157/157/157 149/149/149
f 158/158/158 149/149/149 148/148/148
f 157/157/157 159/159/159 156/156/156
f 157/157/157 156/156/156 149/149/149
f 128/128/128 131/131/131 159/159/159
f 128/128/128 159/159/159 157/157/157
f 153/153/153 152/152/152 160/160/160
f 153/153/153 160/160/160 161/161/161
f 161/161/161 160/160/160 68/68/68
f 161/161/161 68/68/68 67/67/67
f 160/160/160 162/162/162 75/75/75
f 160/160/160 75/75/75 68/68/68
f 152/152/152 155/155/155 162/162/162
f 152/152/152 162/162/162 160/160/160
f 163/163/163 164/164/164 165/165/165
f 163/163/163 165/165/165 166/166/166
f 166/166/166 165/165/165 167/167/167
f 166/166/166 167/167/167 168/168/168
f 165/165/165 169/169/169 170/170/170
f 165/165/165 170/170/170 167/167/167
f 164/164/164 171/171/171 169/169/169
f 164/164/164 169/169/169 165/165/165
f 172/172/172 173/173/173 174/174/174
f 172/172/172 174/174/174 175/175/175
f 175/175/175 174/174/174 176/176/176
f 175/175/175 176/176/176 177/177/177
f 174/174/174 178/178/178 179/179/179
f 174/174/174 179/179/179 176/176/176
f 173/173/173 180/180/180 178/178/178
f 173/173/173 178/178/178 174/174/174
f 177/177/177 176/176/176 181/181/181
f 177/177/177 181/181/181 182/182/182
f 182/182/182 181/181/181 183/183/183
f 182/182/182 183/183/183 184/184/184
f 181/181/181 185/185/185 186/186/186
f 181/181/181 186/186/186 183/183/183
f 176/176/176 179/179/179 185/185/185
f 176/176/176 185/185/185 181/181/181
f 187/187/187 188/188/188 189/189/189
f 187/187/187 189/189/189 190/190/190
f 190/190/190 189/189/189 116/116/116
f 190/190/190 116/116/116 115/115/115
f 189/189/189 191/191/191 123/123/123
f 189/189/189 123/123/123 116/116/116
f 188/188/188 192/192/192 191/191/191
f 188/188/188 191/191/191 189/189/189
f 184/184/184 183/183/183 193/193/193
f 184/184/184 193/193/193 194/194/194
f 194/194/194 193/193/193 195/195/195
f 194/194/194 195/195/195 196/196/196
f 193/193/193 197/197/197 163/163/163
f 193/193/193 163/163/163 195/195/195
f 183/183/183 186/186/186 197/197/197
f 183/183/183 197/197/197 193/193/193
f 198/198/198 199/199/199 200/200/200
f 198/198/198 200/200/200 201/201/201
f 201/201/201 200/200/200 188/188/188
f 201/201/201 188/188/188 187/187/187
f 200/200/200 202/202/202 192/192/192
f 200/200/200 192/192/192 188/188/188
f 199/199/199 168/168/168 202/202/202
f 199/199/199 202/202/202 200/200/200
f 196/196/196 195/195/195 203/203/203
f 196/196/196 203/203/203 204/204/204
f 204/204/204 203/203/203 199/199/199
f 204/204/204 199/199/199 198/198/198
f 203/203/203 166/166/166 168/168/168
f 203/203/203 168/168/168 199/199/199
f 195/195/195 163/163/163 166/166/166
f 195/195/195 166/166/166 203/203/203
f 120/120/120 119/119/119 205/205/205
f 120/120/120 205/205/205 206/206/206
f 206/206/206 205/205/205 173/173/173
f 206/206/206 173/173/173 172/172/172
f 205/205/205 207/207/207 180/180/180
f 205/205/205 180/180/180 173/173/173
f 119/119/119 122/122/122 207/207/207
f 119/119/119 207/207/207 205/205/205
f 208/208/208 209/209/209 210/210/210
f 208/208/208 210/210/210 211/211/211
f 211/211/211 210/210/210 212/212/212
f 211/211/211 212/212/212 213/213/213
f 210/210/210 214/214/214 215/215/215
f 210/210/210 215/215/215 212/212/212
f 209/209/209 216/216/216 214/214/214
f 209/209/209 214/214/214 210/210/210
f 122/122/122 217/217/217 218/218/218
f 122/122/122 218/218/218 207/207/207
f 207/207/207 218/218/218 219/219/219
f 207/207/207 219/219/219 180/180/180
f 218/218/218 220/220/220 221/221/221
f 218/218/218 221/221/221 219/219/219
f 217/217/217 222/222/222 220/220/220
f 217/217/217 220/220/220 218/218/218
f 123/123/123 223/223/223 224/224/224
f 123/123/123 224/224/224 121/121/121
f 121/121/121 224/224/224 217/217/217
f 121/121/121 217/217/217 122/122/122
f 224/224/224 225/225/225 222/222/222
f 224/224/224 222/222/222 217/217/217
f 223/223/223 213/213/213 225/225/225
f 223/223/223 225/225/225 224/224/224
f 180/180/180 219/219/219 226/226/226
f 180/180/180 226/226/226 178/178/178
f 178/178/178 226/226/226 227/227/227
f 178/178/178 227/227/227 179/179/179
f 226/226/226 228/228/228 229/229/229
f 226/226/226 229/229/229 227/227/227
f 219/219/219 221/221/221 228/228/228
f 219/219/219 228/228/228 226/226/226
f 179/179/179 227/227/227 230/230/230
f 179/179/179 230/230/230 185/185/185
f 185/185/185 230/230/230 231/231/231
f 185/185/185 231/231/231 186/186/186
f 230/230/230 232/232/232 233/233/233
f 230/230/230 233/233/233 231/231/231
f 227/227/227 229/229/229 232/232/232
f 227/227/227 232/232/232 230/230/230
f 192/192/192 234/234/234 235/235/235
f 192/192/192 235/235/235 191/191/191
f 191/191/191 235/235/235 223/223/223
f 191/191/191 223/223/223 123/123/123
f 235/235/235 211/211/211 213/213/213
f 235/235/235 213/213/213 223/223/223
f 234/234/234 208/208/208 211/211/211
f 234/234/234 211/211/211 235/235/235
f 186/186/186 231/231/231 236/236/236
f 186/186/186 236/236/236 197/197/197
f 197/197/197 236/236/236 164/164/164
f 197/197/197 164/164/164 163/163/163
f 236/236/236 237/237/237 171/171/171
f 236/236/236 171/171/171 164/164/164
f 231/231/231 233/233/233 237/237/237
f 231/231/231 237/237/237 236/236/236
f 168/168/168 167/167/167 238/238/238
f 168/168/168 238/238/238 202/202/202
f 202/202/202 238/238/238 234/234/234
f 202/202/202 234/234/234 192/192/192
f 238/238/238 239/239/239 208/208/208
f 238/238/238 208/208/208 234/234/234
f 167/167/167 170/170/170 239/239/239
f 167/167/167 239/239/239 238/238/238
f 240/240/240 241/241/241 242/242/242
f 240/240/240 242/242/242 243/243/243
f 244/244/244 243/243/243 242/242/242
f 244/244/244 242/242/242 245/245/245
f 246/246/246 245/245/245 242/242/242
f 246/246/246 242/242/242 247/247/247
f 248/248/248 247/247/247 242/242/242
f 248/248/248 242/242/242 249/249/249
f 250/250/250 249/249/249 242/242/242
f 250/250/250 242/242/242 241/241/241
f 233/233/233 251/251/251 252/252/252
f 233/233/233 252/252/252 237/237/237
f 237/237/237 252/252/252 253/253/253
f 237/237/237 253/253/253 171/171/171
f 252/252/252 254/254/254 255/255/255
f 252/252/252 255/255/255 253/253/253
f 251/251/251 256/256/256 254/254/254
f 251/251/251 254/254/254 252/252/252
f 170/170/170 257/257/257 258/258/258
f 170/170/170 258/258/258 239/239/239
f 239/239/239 258/258/258 209/209/209
f 239/239/239 209/209/209 208/208/208
f 258/258/258 259/259/259 216/216/216
f 258/258/258 216/216/216 209/209/209
f 257/257/257 260/260/260 259/259/259
f 257/257/257 259/259/259 258/258/258
f 171/171/171 253/253/253 261/261/261
f 171/171/171 261/261/261 169/169/169
f 169/169/169 261/261/261 257/257/257
f 169/169/169 257/257/257 170/170/170
f 261/261/261 262/262/262 260/260/260
f 261/261/261 260/260/260 257/257/257
f 253/253/253 255/255/255 262/262/262
f 253/253/253 262/262/262 261/261/261
f 222/222/222 263/263/263 264/264/264
f 222/222/222 264/264/264 220/220/220
f 220/220/220 264/264/264 265/265/265
f 220/220/220 265/265/265 221/221/221
f 264/264/264 266/266/266 267/267/267
f 264/264/264 267/267/267 265/265/265
f 263/263/263 268/268/268 266/266/266
f 263/263/263 266/266/266 264/264/264
f 213/213/213 212/212/212 269/269/269
f 213/213/213 269/269/269 225/225/225
f 225/225/225 269/269/269 263/263/263
f 225/225/225 263/263/263 222/222/222
f 269/269/269 270/270/270 268/268/268
f 269/269/269 268/268/268 263/263/263
f 212/212/212 215/215/215 270/270/270
f 212/212/212 270/270/270 269/269/269
f 221/221/221 265/265/265 271/271/271
f 221/221/221 271/271/271 228/228/228
f 228/228/228 271/271/271 272/272/272
f 228/228/228 272/272/272 229/229/229
f 271/271/271 273/273/273 274/274/274
f 271/271/271 274/274/274 272/272/272
f 265/265/265 267/267/267 273/273/273
f 265/265/265 273/273/273 271/271/271
f 229/229/229 272/272/272 275/275/275
f 229/229/229 275/275/275 232/232/232
f 232/232/232 275/275/275 251/251/251
f 232/232/232 251/251/251 233/233/233
f 275/275/275 276/276/276 256/256/256
f 275/275/275 256/256/256 251/251/251
f 272/272/272 274/274/274 276/276/276
f 272/272/272 276/276/276 275/275/275
f 277/277/277 278/278/278 279/279/279
f 277/277/277 279/279/279 280/280/280
f 280/280/280 279/279/279 281/281/281
f 280/280/280 281/281/281 240/240/240
f 279/279/279 259/259/259 260/260/260
f 279/279/279 260/260/260 281/281/281
f 278/278/278 216/216/216 259/259/259
f 278/278/278 259/259/259 279/279/279
f 246/246/246 282/282/282 283/283/283
f 246/246/246 283/283/283 245/245/245
f 245/245/245 283/283/283 284/284/284
f 245/245/245 284/284/284 244/244/244
f 283/283/283 273/273/273 267/267/267
f 283/283/283 267/267/267 284/284/284
f 282/282/282 274/274/274 273/273/273
f 282/282/282 273/273/273 283/283/283
f 250/250/250 285/285/285 286/286/286
f 250/250/250 286/286/286 249/249/249
f 249/249/249 286/286/286 287/287/287
f 249/249/249 287/287/287 248/248/248
f 286/286/286 254/254/254 256/256/256
f 286/286/286 256/256/256 287/287/287
f 285/285/285 255/255/255 254/254/254
f 285/285/285 254/254/254 286/286/286
f 288/288/288 289/289/289 290/290/290
f 288/288/288 290/290/290 291/291/291
f 291/291/291 290/290/290 292/292/292
f 291/291/291 292/292/292 293/293/293
f 290/290/290 270/270/270 215/215/215
f 290/290/290 215/215/215 292/292/292
f 289/289/289 268/268/268 270/270/270
f 289/289/289 270/270/270 290/290/290
f 293/293/293 292/292/292 294/294/294
f 293/293/293 294/294/294 295/295/295
f 295/295/295 294/294/294 278/278/278
f 295/295/295 278/278/278 277/277/277
f 294/294/294 214/214/214 216/216/216
f 294/294/294 216/216/216 278/278/278
f 292/292/292 215/215/215 214/214/214
f 292/292/292 214/214/214 294/294/294
f 244/244/244 284/284/284 296/296/296
f 244/244/244 296/296/296 297/297/297
f 297/297/297 296/296/296 289/289/289
f 297/297/297 289/289/289 288/288/288
f 296/296/296 266/266/266 268/268/268
f 296/296/296 268/268/268 289/289/289
f 284/284/284 267/267/267 266/266/266
f 284/284/284 266/266/266 296/296/296
f 248/248/248 287/287/287 298/298/298
f 248/248/248 298/298/298 247/247/247
f 247/247/247 298/298/298 282/282/282
f 247/247/247 282/282/282 246/246/246
f 298/298/298 276/276/276 274/274/274
f 298/298/298 274/274/274 282/282/282
f 287/287/287 256/256/256 276/276/276
f 287/287/287 276/276/276 298/298/298
f 240/240/240 281/281/281 299/299/299
f 240/240/240 299/299/299 241/241/241
f 241/241/241 299/299/299 285/285/285
f 241/241/241 285/285/285 250/250/250
f 299/299/299 262/262/262 255/255/255
f 299/299/299 255/255/255 285/285/285
f 281/281/281 260/260/260 262/262/262
f 281/281/281 262/262/262 299/299/299
f 300/300/300 301/301/301 302/302/302
f 300/300/300 302/302/302 303/303/303
f 303/303/303 302/302/302 304/304/304
f 303/303/303 304/304/304 305/305/305
f 302/302/302 306/306/306 307/307/307
f 302/302/302 307/307/307 304/304/304
f 301/301/301 308/308/308 306/306/306
f 301/301/301 306/306/306 302/302/302
f 309/309/309 310/310/310 311/311/311
f 309/309/309 311/311/311 312/312/312
f 312/312/312 311/311/311 313/313/313
f 312/312/312 313/313/313 314/314/314
f 311/311/311 315/315/315 316/316/316
f 311/311/311 316/316/316 313/313/313
f 310/310/310 317/317/317 315/315/315
f 310/310/310 315/315/315 311/311/311
f 318/318/318 319/319/319 320/320/320
f 318/318/318 320/320/320 321/321/321
f 321/321/321 320/320/320 310/310/310
f 321/321/321 310/310/310 309/309/309
f 320/320/320 322/322/322 317/317/317
f 320/320/320 317/317/317 310/310/310
f 319/319/319 323/323/323 322/322/322
f 319/319/319 322/322/322 320/320/320
f 305/305/305 304/304/304 324/324/324
f 305/305/305 324/324/324 325/325/325
f 325/325/325 324/324/324 326/326/326
f 325/325/325 326/326/326 327/327/327
f 324/324/324 328/328/328 329/329/329
f 324/324/324 329/329/329 326/326/326
f 304/304/304 307/307/307 328/328/328
f 304/304/304 328/328/328 324/324/324
f 327/327/327 326/326/326 330/330/330
f 327/327/327 330/330/330 331/331/331
f 331/331/331 330/330/330 319/319/319
f 331/331/331 319/319/319 318/318/318
f 330/330/330 332/332/332 323/323/323
f 330/330/330 323/323/323 319/319/319
f 326/326/326 329/329/329 332/332/332
f 326/326/326 332/332/332 330/330/330
f 333/333/333 334/334/334 335/335/335
f 333/333/333 335/335/335 336/336/336
f 336/336/336 335/335/335 337/337/337
f 336/336/336 337/337/337 338/338/338
f 335/335/335 339/339/339 340/340/340
f 335/335/335 340/340/340 337/337/337
f 334/334/334 341/341/341 339/339/339
f 334/334/334 339/339/339 335/335/335
f 338/338/338 337/337/337 342/342/342
f 338/338/338 342/342/342 343/343/343
f 343/343/343 342/342/342 301/301/301
f 343/343/343 301/301/301 300/300/300
f 342/342/342 344/344/344 308/308/308
f 342/342/342 308/308/308 301/301/301
f 337/337/337 340/340/340 344/344/344
f 337/337/337 344/344/344 342/342/342
f 314/314/314 313/313/313 345/345/345
f 314/314/314 345/345/345 346/346/346
f 346/346/346 345/345/345 334/334/334
f 346/346/346 334/334/334 333/333/333
f 345/345/345 347/347/347 341/341/341
f 345/345/345 341/341/341 334/334/334
f 313/313/313 316/316/316 347/347/347
f 313/313/313 347/347/347 345/345/345
f 348/348/348 349/349/349 350/350/350
f 348/348/348 350/350/350 351/351/351
f 351/351/351 350/350/350 352/352/352
f 351/351/351 352/352/352 353/353/353
f 350/350/350 65/65/65 19/19/19
f 350/350/350 19/19/19 352/352/352
f 349/349/349 57/57/57 65/65/65
f 349/349/349 65/65/65 350/350/350
f 354/354/354 355/355/355 356/356/356
f 354/354/354 356/356/356 357/357/357
f 357/357/357 356/356/356 358/358/358
f 357/357/357 358/358/358 359/359/359
f 356/356/356 62/62/62 52/52/52
f 356/356/356 52/52/52 358/358/358
f 355/355/355 33/33/33 62/62/62
f 355/355/355 62/62/62 356/356/356
f 359/359/359 358/358/358 360/360/360
f 359/359/359 360/360/360 361/361/361
f 361/361/361 360/360/360 349/349/349
f 361/361/361 349/349/349 348/348/348
f 360/360/360 55/55/55 57/57/57
f 360/360/360 57/57/57 349/349/349
f 358/358/358 52/52/52 55/55/55
f 358/358/358 55/55/55 360/360/360
f 362/362/362 363/363/363 364/364/364
f 362/362/362 364/364/364 365/365/365
f 365/365/365 364/364/364 366/366/366
f 365/365/365 366/366/366 367/367/367
f 364/364/364 50/50/50 43/43/43
f 364/364/364 43/43/43 366/366/366
f 363/363/363 40/40/40 50/50/50
f 363/363/363 50/50/50 364/364/364
f 367/367/367 366/366/366 368/368/368
f 367/367/367 368/368/368 369/369/369
f 369/369/369 368/368/368 370/370/370
f 369/369/369 370/370/370 371/371/371
f 368/368/368 46/46/46 28/28/28
f 368/368/368 28/28/28 370/370/370
f 366/366/366 43/43/43 46/46/46
f 366/366/366 46/46/46 368/368/368
f 372/372/372 373/373/373 374/374/374
f 372/372/372 374/374/374 375/375/375
f 375/375/375 374/374/374 363/363/363
f 375/375/375 363/363/363 362/362/362
f 374/374/374 38/38/38 40/40/40
f 374/374/374 40/40/40 363/363/363
f 373/373/373 24/24/24 38/38/38
f 373/373/373 38/38/38 374/374/374
f 371/371/371 370/370/370 376/376/376
f 371/371/371 376/376/376 377/377/377
f 377/377/377 376/376/376 355/355/355
f 377/377/377 355/355/355 354/354/354
f 376/376/376 31/31/31 33/33/33
f 376/376/376 33/33/33 355/355/355
f 370/370/370 28/28/28 31/31/31
f 370/370/370 31/31/31 376/376/376
f 353/353/353 352/352/352 378/378/378
f 353/353/353 378/378/378 379/379/379
f 379/379/379 378/378/378 373/373/373
f 379/379/379 373/373/373 372/372/372
f 378/378/378 22/22/22 24/24/24
f 378/378/378 24/24/24 373/373/373
f 352/352/352 19/19/19 22/22/22
f 352/352/352 22/22/22 378/378/378
f 95/95/95 380/380/380 381/381/381
f 95/95/95 381/381/381 107/107/107
f 107/107/107 381/381/381 382/382/382
f 107/107/107 382/382/382 108/108/108
f 381/381/381 383/383/383 384/384/384
f 381/381/381 384/384/384 382/382/382
f 380/380/380 385/385/385 383/383/383
f 380/380/380 383/383/383 381/381/381
f 102/102/102 386/386/386 387/387/387
f 102/102/102 387/387/387 101/101/101
f 101/101/101 387/387/387 388/388/388
f 101/101/101 388/388/388 96/96/96
f 387/387/387 389/389/389 390/390/390
f 387/387/387 390/390/390 388/388/388
f 386/386/386 391/391/391 389/389/389
f 386/386/386 389/389/389 387/387/387
f 96/96/96 388/388/388 392/392/392
f 96/96/96 392/392/392 94/94/94
f 94/94/94 392/392/392 380/380/380
f 94/94/94 380/380/380 95/95/95
f 392/392/392 393/393/393 385/385/385
f 392/392/392 385/385/385 380/380/380
f 388/388/388 390/390/390 393/393/393
f 388/388/388 393/393/393 392/392/392
f 17/17/17 394/394/394 395/395/395
f 17/17/17 395/395/395 87/87/87
f 87/87/87 395/395/395 396/396/396
f 87/87/87 396/396/396 84/84/84
f 395/395/395 397/397/397 398/398/398
f 395/395/395 398/398/398 396/396/396
f 394/394/394 399/399/399 397/397/397
f 394/394/394 397/397/397 395/395/395
f 84/84/84 396/396/396 400/400/400
f 84/84/84 400/400/400 82/82/82
f 82/82/82 400/400/400 401/401/401
f 82/82/82 401/401/401 83/83/83
f 400/400/400 402/402/402 403/403/403
f 400/400/400 403/403/403 401/401/401
f 396/396/396 398/398/398 402/402/402
f 396/396/396 402/402/402 400/400/400
f 18/18/18 404/404/404 405/405/405
f 18/18/18 405/405/405 16/16/16
f 16/16/16 405/405/405 394/394/394
f 16/16/16 394/394/394 17/17/17
f 405/405/405 406/406/406 399/399/399
f 405/405/405 399/399/399 394/394/394
f 404/404/404 407/407/407 406/406/406
f 404/404/404 406/406/406 405/405/405
f 83/83/83 401/401/401 408/408/408
f 83/83/83 408/408/408 114/114/114
f 114/114/114 408/408/408 386/386/386
f 114/114/114 386/386/386 102/102/102
f 408/408/408 409/409/409 391/391/391
f 408/408/408 391/391/391 386/386/386
f 401/401/401 403/403/403 409/409/409
f 401/401/401 409/409/409 408/408/408
f 108/108/108 382/382/382 410/410/410
f 108/108/108 410/410/410 111/111/111
f 111/111/111 410/410/410 404/404/404
f 111/111/111 404/404/404 18/18/18
f 410/410/410 411/411/411 407/407/407
f 410/410/410 407/407/407 404/404/404
f 382/382/382 384/384/384 411/411/411
f 382/382/382 411/411/411 410/410/410
f 308/308/308 412/412/412 413/413/413
f 308/308/308 413/413/413 306/306/306
f 306/306/306 413/413/413 414/414/414
f 306/306/306 414/414/414 307/307/307
f 413/413/413 113/113/113 97/97/97
f 413/413/413 97/97/97 414/414/414
f 412/412/412 81/81/81 113/113/113
f 412/412/412 113/113/113 413/413/413
f 317/317/317 415/415/415 416/416/416
f 317/317/317 416/416/416 315/315/315
f 315/315/315 416/416/416 417/417/417
f 315/315/315 417/417/417 316/316/316
f 416/416/416 110/110/110 10/10/10
f 416/416/416 10/10/10 417/417/417
f 415/415/415 106/106/106 110/110/110
f 415/415/415 110/110/110 416/416/416
f 323/323/323 418/418/418 419/419/419
f 323/323/323 419/419/419 322/322/322
f 322/322/322 419/419/419 415/415/415
f 322/322/322 415/415/415 317/317/317
f 419/419/419 104/104/104 106/106/106
f 419/419/419 106/106/106 415/415/415
f 418/418/418 93/93/93 104/104/104
f 418/418/418 104/104/104 419/419/419
f 307/307/307 414/414/414 420/420/420
f 307/307/307 420/420/420 328/328/328
f 328/328/328 420/420/420 421/421/421
f 328/328/328 421/421/421 329/329/329
f 420/420/420 100/100/100 88/88/88
f 420/420/420 88/88/88 421/421/421
f 414/414/414 97/97/97 100/100/100
f 414/414/414 100/100/100 420/420/420
f 329/329/329 421/421/421 422/422/422
f 329/329/329 422/422/422 332/332/332
f 332/332/332 422/422/422 418/418/418
f 332/332/332 418/418/418 323/323/323
f 422/422/422 91/91/91 93/93/93
f 422/422/422 93/93/93 418/418/418
f 421/421/421 88/88/88 91/91/91
f 421/421/421 91/91/91 422/422/422
f 341/341/341 423/423/423 424/424/424
f 341/341/341 424/424/424 339/339/339
f 339/339/339 424/424/424 425/425/425
f 339/339/339 425/425/425 340/340/340
f 424/424/424 86/86/86 76/76/76
f 424/424/424 76/76/76 425/425/425
f 423/423/423 15/15/15 86/86/86
f 423/423/423 86/86/86 424/424/424
f 340/340/340 425/425/425 426/426/426
f 340/340/340 426/426/426 344/344/344
f 344/344/344 426/426/426 412/412/412
f 344/344/344 412/412/412 308/308/308
f 426/426/426 79/79/79 81/81/81
f 426/426/426 81/81/81 412/412/412
f 425/425/425 76/76/76 79/79/79
f 425/425/425 79/79/79 426/426/426
f 316/316/316 417/417/417 427/427/427
f 316/316/316 427/427/427 347/347/347
f 347/347/347 427/427/427 423/423/423
f 347/347/347 423/423/423 341/341/341
f 427/427/427 13/13/13 15/15/15
f 427/427/427 15/15/15 423/423/423
f 417/417/417 10/10/10 13/13/13
f 417/417/417 13/13/13 427/427/427
f 385/385/385 428/428/428 429/429/429
f 385/385/385 429/429/429 383/383/383
f 383/383/383 429/429/429 430/430/430
f 383/383/383 430/430/430 384/384/384
f 429/429/429 161/161/161 67/67/67
f 429/429/429 67/67/67 430/430/430
f 428/428/428 153/153/153 161/161/161
f 428/428/428 161/161/161 429/429/429
f 391/391/391 431/431/431 432/432/432
f 391/391/391 432/432/432 389/389/389
f 389/389/389 432/432/432 433/433/433
f 389/389/389 433/433/433 390/390/390
f 432/432/432 158/158/158 148/148/148
f 432/432/432 148/148/148 433/433/433
f 431/431/431 129/129/129 158/158/158
f 431/431/431 158/158/158 432/432/432
f 390/390/390 433/433/433 434/434/434
f 390/390/390 434/434/434 393/393/393
f 393/393/393 434/434/434 428/428/428
f 393/393/393 428/428/428 385/385/385
f 434/434/434 151/151/151 153/153/153
f 434/434/434 153/153/153 428/428/428
f 433/433/433 148/148/148 151/151/151
f 433/433/433 151/151/151 434/434/434
f 399/399/399 435/435/435 436/436/436
f 399/399/399 436/436/436 397/397/397
f 397/397/397 436/436/436 437/437/437
f 397/397/397 437/437/437 398/398/398
f 436/436/436 146/146/146 139/139/139
f 436/436/436 139/139/139 437/437/437
f 435/435/435 136/136/136 146/146/146
f 435/435/435 146/146/146 436/436/436
f 398/398/398 437/437/437 438/438/438
f 398/398/398 438/438/438 402/402/402
f 402/402/402 438/438/438 439/439/439
f 402/402/402 439/439/439 403/403/403
f 438/438/438 142/142/142 124/124/124
f 438/438/438 124/124/124 439/439/439
f 437/437/437 139/139/139 142/142/142
f 437/437/437 142/142/142 438/438/438
f 407/407/407 440/440/440 441/441/441
f 407/407/407 441/441/441 406/406/406
f 406/406/406 441/441/441 435/435/435
f 406/406/406 435/435/435 399/399/399
f 441/441/441 134/134/134 136/136/136
f 441/441/441 136/136/136 435/435/435
f 440/440/440 72/72/72 134/134/134
f 440/440/440 134/134/134 441/441/441
f 403/403/403 439/439/439 442/442/442
f 403/403/403 442/442/442 409/409/409
f 409/409/409 442/442/442 431/431/431
f 409/409/409 431/431/431 391/391/391
f 442/442/442 127/127/127 129/129/129
f 442/442/442 129/129/129 431/431/431
f 439/439/439 124/124/124 127/127/127
f 439/439/439 127/127/127 442/442/442
f 384/384/384 430/430/430 443/443/443
f 384/384/384 443/443/443 411/411/411
f 411/411/411 443/443/443 440/440/440
f 411/411/411 440/440/440 407/407/407
f 443/443/443 70/70/70 72/72/72
f 443/443/443 72/72/72 440/440/440
f 430/430/430 67/67/67 70/70/70
f 430/430/430 70/70/70 443/443/443
f 156/156/156 444/444/444 445/445/445
f 156/156/156 445/445/445 154/154/154
f 154/154/154 445/445/445 446/446/446
f 154/154/154 446/446/446 155/155/155
f 445/445/445 206/206/206 172/172/172
f 445/445/445 172/172/172 446/446/446
f 444/444/444 120/120/120 206/206/206
f 444/444/444 206/206/206 445/445/445
f 138/138/138 447/447/447 448/448/448
f 138/138/138 448/448/448 147/147/147
f 147/147/147 448/448/448 449/449/449
f 147/147/147 449/449/449 144/144/144
f 448/448/448 204/204/204 198/198/198
f 448/448/448 198/198/198 449/449/449
f 447/447/447 196/196/196 204/204/204
f 447/447/447 204/204/204 448/448/448
f 144/144/144 449/449/449 450/450/450
f 144/144/144 450/450/450 143/143/143
f 143/143/143 450/450/450 451/451/451
f 143/143/143 451/451/451 132/132/132
f 450/450/450 201/201/201 187/187/187
f 450/450/450 187/187/187 451/451/451
f 449/449/449 198/198/198 201/201/201
f 449/449/449 201/201/201 450/450/450
f 74/74/74 452/452/452 453/453/453
f 74/74/74 453/453/453 137/137/137
f 137/137/137 453/453/453 447/447/447
f 137/137/137 447/447/447 138/138/138
f 453/453/453 194/194/194 196/196/196
f 453/453/453 196/196/196 447/447/447
f 452/452/452 184/184/184 194/194/194
f 452/452/452 194/194/194 453/453/453
f 132/132/132 451/451/451 454/454/454
f 132/132/132 454/454/454 130/130/130
f 130/130/130 454/454/454 455/455/455
f 130/130/130 455/455/455 131/131/131
f 454/454/454 190/190/190 115/115/115
f 454/454/454 115/115/115 455/455/455
f 451/451/451 187/187/187 190/190/190
f 451/451/451 190/190/190 454/454/454
f 75/75/75 456/456/456 457/457/457
f 75/75/75 457/457/457 73/73/73
f 73/73/73 457/457/457 452/452/452
f 73/73/73 452/452/452 74/74/74
f 457/457/457 182/182/182 184/184/184
f 457/457/457 184/184/184 452/452/452
f 456/456/456 177/177/177 182/182/182
f 456/456/456 182/182/182 457/457/457
f 155/155/155 446/446/446 458/458/458
f 155/155/155 458/458/458 162/162/162
f 162/162/162 458/458/458 456/456/456
f 162/162/162 456/456/456 75/75/75
f 458/458/458 175/175/175 177/177/177
f 458/458/458 177/177/177 456/456/456
f 446/446/446 172/172/172 175/175/175
f 446/446/446 175/175/175 458/458/458
f 131/131/131 455/455/455 459/459/459
f 131/131/131 459/459/459 159/159/159
f 159/159/159 459/459/459 444/444/444
f 159/159/159 444/444/444 156/156/156
f 459/459/459 118/118/118 120/120/120
f 459/459/459 120/120/120 444/444/444
f 455/455/455 115/115/115 118/118/118
f 455/455/455 118/118/118 459/459/459
f 460/460/460 461/461/461 462/462/462
f 460/460/460 462/462/462 463/463/463
f 463/463/463 462/462/462 464/464/464
f 463/463/463 464/464/464 465/465/465
f 462/462/462 466/466/466 467/467/467
f 462/462/462 467/467/467 464/464/464
f 461/461/461 468/468/468 466/466/466
f 461/461/461 466/466/466 462/462/462
f 469/469/469 470/470/470 471/471/471
f 469/469/469 471/471/471 472/472/472
f 472/472/472 471/471/471 2/2/2
f 472/472/472 2/2/2 1/1/1
f 471/471/471 473/473/473 9/9/9
f 471/471/471 9/9/9 2/2/2
f 470/470/470 474/474/474 473/473/473
f 470/470/470 473/473/473 471/471/471
f 465/465/465 464/464/464 475/475/475
f 465/465/465 475/475/475 476/476/476
f 476/476/476 475/475/475 477/477/477
f 476/476/476 477/477/477 478/478/478
f 475/475/475 479/479/479 480/480/480
f 475/475/475 480/480/480 477/477/477
f 464/464/464 467/467/467 479/479/479
f 464/464/464 479/479/479 475/475/475
f 478/478/478 477/477/477 481/481/481
f 478/478/478 481/481/481 482/482/482
f 482/482/482 481/481/481 470/470/470
f 482/482/482 470/470/470 469/469/469
f 481/481/481 483/483/483 474/474/474
f 481/481/481 474/474/474 470/470/470
f 477/477/477 480/480/480 483/483/483
f 477/477/477 483/483/483 481/481/481
f 484/484/484 485/485/485 486/486/486
f 484/484/484 486/486/486 487/487/487
f 487/487/487 486/486/486 488/488/488
f 487/487/487 488/488/488 489/489/489
f 486/486/486 490/490/490 491/491/491
f 486/486/486 491/491/491 488/488/488
f 485/485/485 492/492/492 490/490/490
f 485/485/485 490/490/490 486/486/486
f 489/489/489 488/488/488 493/493/493
f 489/489/489 493/493/493 494/494/494
f 494/494/494 493/493/493 461/461/461
f 494/494/494 461/461/461 460/460/460
f 493/493/493 495/495/495 468/468/468
f 493/493/493 468/468/468 461/461/461
f 488/488/488 491/491/491 495/495/495
f 488/488/488 495/495/495 493/493/493
f 6/6/6 5/5/5 496/496/496
f 6/6/6 496/496/496 497/497/497
f 497/497/497 496/496/496 485/485/485
f 497/497/497 485/485/485 484/484/484
f 496/496/496 498/498/498 492/492/492
f 496/496/496 492/492/492 485/485/485
f 5/5/5 8/8/8 498/498/498
f 5/5/5 498/498/498 496/496/496
f 499/499/499 500/500/500 501/501/501
f 499/499/499 501/501/501 502/502/502
f 502/502/502 501/501/501 503/503/503
f 502/502/502 503/503/503 504/504/504
f 501/501/501 505/505/505 506/506/506
f 501/501/501 506/506/506 503/503/503
f 500/500/500 507/507/507 505/505/505
f 500/500/500 505/505/505 501/501/501
f 508/508/508 509/509/509 510/510/510
f 508/508/508 510/510/510 511/511/511
f 511/511/511 510/510/510 512/512/512
f 511/511/511 512/512/512 513/513/513
f 510/510/510 514/514/514 515/515/515
f 510/510/510 515/515/515 512/512/512
f 509/509/509 516/516/516 514/514/514
f 509/509/509 514/514/514 510/510/510
f 504/504/504 503/503/503 517/517/517
f 504/504/504 517/517/517 518/518/518
f 518/518/518 517/517/517 519/519/519
f 518/518/518 519/519/519 520/520/520
f 517/517/517 521/521/521 522/522/522
f 517/517/517 522/522/522 519/519/519
f 503/503/503 506/506/506 521/521/521
f 503/503/503 521/521/521 517/517/517
f 523/523/523 524/524/524 525/525/525
f 523/523/523 525/525/525 526/526/526
f 526/526/526 525/525/525 509/509/509
f 526/526/526 509/509/509 508/508/508
f 525/525/525 527/527/527 516/516/516
f 525/525/525 516/516/516 509/509/509
f 524/524/524 528/528/528 527/527/527
f 524/524/524 527/527/527 525/525/525
f 520/520/520 519/519/519 529/529/529
f 520/520/520 529/529/529 530/530/530
f 530/530/530 529/529/529 524/524/524
f 530/530/530 524/524/524 523/523/523
f 529/529/529 531/531/531 528/528/528
f 529/529/529 528/528/528 524/524/524
f 519/519/519 522/522/522 531/531/531
f 519/519/519 531/531/531 529/529/529
f 532/532/532 533/533/533 534/534/534
f 532/532/532 534/534/534 535/535/535
f 535/535/535 534/534/534 536/536/536
f 535/535/535 536/536/536 537/537/537
f 534/534/534 538/538/538 539/539/539
f 534/534/534 539/539/539 536/536/536
f 533/533/533 540/540/540 538/538/538
f 533/533/533 538/538/538 534/534/534
f 513/513/513 512/512/512 541/541/541
f 513/513/513 541/541/541 542/542/542
f 542/542/542 541/541/541 533/533/533
f 542/542/542 533/533/533 532/532/532
f 541/541/541 543/543/543 540/540/540
f 541/541/541 540/540/540 533/533/533
f 512/512/512 515/515/515 543/543/543
f 512/512/512 543/543/543 541/541/541
f 537/537/537 536/536/536 544/544/544
f 537/537/537 544/544/544 545/545/545
f 545/545/545 544/544/544 500/500/500
f 545/545/545 500/500/500 499/499/499
f 544/544/544 546/546/546 507/507/507
f 544/544/544 507/507/507 500/500/500
f 536/536/536 539/539/539 546/546/546
f 536/536/536 546/546/546 544/544/544
f 277/277/277 280/280/280 547/547/547
f 277/277/277 547/547/547 295/295/295
f 293/293/293 295/295/295 547/547/547
f 293/293/293 547/547/547 291/291/291
f 288/288/288 291/291/291 547/547/547
f 288/288/288 547/547/547 297/297/297
f 244/244/244 297/297/297 547/547/547
f 244/244/244 547/547/547 243/243/243
f 240/240/240 243/243/243 547/547/547
f 240/240/240 547/547/547 280/280/280
f 548/548/548 549/549/549 550/550/550
f 548/548/548 550/550/550 551/551/551
f 551/551/551 550/550/550 552/552/552
f 551/551/551 552/552/552 553/553/553
f 550/550/550 346/346/346 333/333/333
f 550/550/550 333/333/333 552/552/552
f 549/549/549 314/314/314 346/346/346
f 549/549/549 346/346/346 550/550/550
f 554/554/554 555/555/555 556/556/556
f 554/554/554 556/556/556 557/557/557
f 557/557/557 556/556/556 558/558/558
f 557/557/557 558/558/558 559/559/559
f 556/556/556 343/343/343 300/300/300
f 556/556/556 300/300/300 558/558/558
f 555/555/555 338/338/338 343/343/343
f 555/555/555 343/343/343 556/556/556
f 553/553/553 552/552/552 560/560/560
f 553/553/553 560/560/560 561/561/561
f 561/561/561 560/560/560 555/555/555
f 561/561/561 555/555/555 554/554/554
f 560/560/560 336/336/336 338/338/338
f 560/560/560 338/338/338 555/555/555
f 552/552/552 333/333/333 336/336/336
f 552/552/552 336/336/336 560/560/560
f 562/562/562 563/563/563 564/564/564
f 562/562/562 564/564/564 565/565/565
f 565/565/565 564/564/564 566/566/566
f 565/565/565 566/566/566 567/567/567
f 564/564/564 331/331/331 318/318/318
f 564/564/564 318/318/318 566/566/566
f 563/563/563 327/327/327 331/331/331
f 563/563/563 331/331/331 564/564/564
f 568/568/568 569/569/569 570/570/570
f 568/568/568 570/570/570 571/571/571
f 571/571/571 570/570/570 563/563/563
f 571/571/571 563/563/563 562/562/562
f 570/570/570 325/325/325 327/327/327
f 570/570/570 327/327/327 563/563/563
f 569/569/569 305/305/305 325/325/325
f 569/569/569 325/325/325 570/570/570
f 567/567/567 566/566/566 572/572/572
f 567/567/567 572/572/572 573/573/573
f 573/573/573 572/572/572 574/574/574
f 573/573/573 574/574/574 575/575/575
f 572/572/572 321/321/321 309/309/309
f 572/572/572 309/309/309 574/574/574
f 566/566/566 318/318/318 321/321/321
f 566/566/566 321/321/321 572/572/572
f 575/575/575 574/574/574 576/576/576
f 575/575/575 576/576/576 577/577/577
f 577/577/577 576/576/576 549/549/549
f 577/577/577 549/549/549 548/548/548
f 576/576/576 312/312/312 314/314/314
f 576/576/576 314/314/314 549/549/549
f 574/574/574 309/309/309 312/312/312
f 574/574/574 312/312/312 576/576/576
f 559/559/559 558/558/558 578/578/578
f 559/559/559 578/578/578 579/579/579
f 579/579/579 578/578/578 569/569/569
f 579/579/579 569/569/569 568/568/568
f 578/578/578 303/303/303 305/305/305
f 578/578/578 305/305/305 569/569/569
f 558/558/558 300/300/300 303/303/303
f 558/558/558 303/303/303 578/578/578
f 507/507/507 580/580/580 581/581/581
f 507/507/507 581/581/581 505/505/505
f 505/505/505 581/581/581 582/582/582
f 505/505/505 582/582/582 506/506/506
f 581/581/581 379/379/379 372/372/372
f 581/581/581 372/372/372 582/582/582
f 580/580/580 353/353/353 379/379/379
f 580/580/580 379/379/379 581/581/581
f 516/516/516 583/583/583 584/584/584
f 516/516/516 584/584/584 514/514/514
f 514/514/514 584/584/584 585/585/585
f 514/514/514 585/585/585 515/515/515
f 584/584/584 377/377/377 354/354/354
f 584/584/584 354/354/354 585/585/585
f 583/583/583 371/371/371 377/377/377
f 583/583/583 377/377/377 584/584/584
f 506/506/506 582/582/582 586/586/586
f 506/506/506 586/586/586 521/521/521
f 521/521/521 586/586/586 587/587/587
f 521/521/521 587/587/587 522/522/522
f 586/586/586 375/375/375 362/362/362
f 586/586/586 362/362/362 587/587/587
f 582/582/582 372/372/372 375/375/375
f 582/582/582 375/375/375 586/586/586
f 528/528/528 588/588/588 589/589/589
f 528/528/528 589/589/589 527/527/527
f 527/527/527 589/589/589 583/583/583
f 527/527/527 583/583/583 516/516/516
f 589/589/589 369/369/369 371/371/371
f 589/589/589 371/371/371 583/583/583
f 588/588/588 367/367/367 369/369/369
f 588/588/588 369/369/369 589/589/589
f 522/522/522 587/587/587 590/590/590
f 522/522/522 590/590/590 531/531/531
f 531/531/531 590/590/590 588/588/588
f 531/531/531 588/588/588 528/528/528
f 590/590/590 365/365/365 367/367/367
f 590/590/590 367/367/367 588/588/588
f 587/587/587 362/362/362 365/365/365
f 587/587/587 365/365/365 590/590/590
f 540/540/540 591/591/591 592/592/592
f 540/540/540 592/592/592 538/538/538
f 538/538/538 592/592/592 593/593/593
f 538/538/538 593/593/593 539/539/539
f 592/592/592 361/361/361 348/348/348
f 592/592/592 348/348/348 593/593/593
f 591/591/591 359/359/359 361/361/361
f 591/591/591 361/361/361 592/592/592
f 515/515/515 585/585/585 594/594/594
f 515/515/515 594/594/594 543/543/543
f 543/543/543 594/594/594 591/591/591
f 543/543/543 591/591/591 540/540/540
f 594/594/594 357/357/357 359/359/359
f 594/594/594 359/359/359 591/591/591
f 585/585/585 354/354/354 357/357/357
f 585/585/585 357/357/357 594/594/594
f 539/539/539 593/593/593 595/595/595
f 539/539/539 595/595/595 546/546/546
f 546/546/546 595/595/595 580/580/580
f 546/546/546 580/580/580 507/507/507
f 595/595/595 351/351/351 353/353/353
f 595/595/595 353/353/353 580/580/580
f 593/593/593 348/348/348 351/351/351
f 593/593/593 351/351/351 595/595/595
f 484/484/484 596/596/596 597/597/597
f 484/484/484 597/597/597 497/497/497
f 497/497/497 597/597/597 598/598/598
f 497/497/497 598/598/598 6/6/6
f 597/597/597 545/545/545 499/499/499
f 597/597/597 499/499/499 598/598/598
f 596/596/596 537/537/537 545/545/545
f 596/596/596 545/545/545 597/597/597
f 460/460/460 599/599/599 600/600/600
f 460/460/460 600/600/600 494/494/494
f 494/494/494 600/600/600 601/601/601
f 494/494/494 601/601/601 489/489/489
f 600/600/600 542/542/542 532/532/532
f 600/600/600 532/532/532 601/601/601
f 599/599/599 513/513/513 542/542/542
f 599/599/599 542/542/542 600/600/600
f 489/489/489 601/601/601 602/602/602
f 489/489/489 602/602/602 487/487/487
f 487/487/487 602/602/602 596/596/596
f 487/487/487 596/596/596 484/484/484
f 602/602/602 535/535/535 537/537/537
f 602/602/602 537/537/537 596/596/596
f 601/601/601 532/532/532 535/535/535
f 601/601/601 535/535/535 602/602/602
f 469/469/469 603/603/603 604/604/604
f 469/469/469 604/604/604 482/482/482
f 482/482/482 604/604/604 605/605/605
f 482/482/482 605/605/605 478/478/478
f 604/604/604 530/530/530 523/523/523
f 604/604/604 523/523/523 605/605/605
f 603/603/603 520/520/520 530/530/530
f 603/603/603 530/530/530 604/604/604
f 478/478/478 605/605/605 606/606/606
f 478/478/478 606/606/606 476/476/476
f 476/476/476 606/606/606 607/607/607
f 476/476/476 607/607/607 465/465/465
f 606/606/606 526/526/526 508/508/508
f 606/606/606 508/508/508 607/607/607
f 605/605/605 523/523/523 526/526/526
f 605/605/605 526/526/526 606/606/606
f 1/1/1 608/608/608 609/609/609
f 1/1/1 609/609/609 472/472/472
f 472/472/472 609/609/609 603/603/603
f 472/472/472 603/603/603 469/469/469
f 609/609/609 518/518/518 520/520/520
f 609/609/609 520/520/520 603/603/603
f 608/608/608 504/504/504 518/518/518
f 608/608/608 518/518/518 609/609/609
f 465/465/465 607/607/607 610/610/610
f 465/465/465 610/610/610 463/463/463
f 463/463/463 610/610/610 599/599/599
f 463/463/463 599/599/599 460/460/460
f 610/610/610 511/511/511 513/513/513
f 610/610/610 513/513/513 599/599/599
f 607/607/607 508/508/508 511/511/511
f 607/607/607 511/511/511 610/610/610
f 6/6/6 598/598/598 611/611/611
f 6/6/6 611/611/611 4/4/4
f 4/4/4 611/611/611 608/608/608
f 4/4/4 608/608/608 1/1/1
f 611/611/611 502/502/502 504/504/504
f 611/611/611 504/504/504 608/608/608
f 598/598/598 499/499/499 502/502/502
f 598/598/598 502/502/502 611/611/611
f 36/36/36 612/612/612 613/613/613
f 36/36/36 613/613/613 34/34/34
f 34/34/34 613/613/613 614/614/614
f 34/34/34 614/614/614 35/35/35
f 613/613/613 579/579/579 568/568/568
f 613/613/613 568/568/568 614/614/614
f 612/612/612 559/559/559 579/579/579
f 612/612/612 579/579/579 613/613/613
f 27/27/27 615/615/615 616/616/616
f 27/27/27 616/616/616 25/25/25
f 25/25/25 616/616/616 617/617/617
f 25/25/25 617/617/617 26/26/26
f 616/616/616 577/577/577 548/548/548
f 616/616/616 548/548/548 617/617/617
f 615/615/615 575/575/575 577/577/577
f 615/615/615 577/577/577 616/616/616
f 59/59/59 618/618/618 619/619/619
f 59/59/59 619/619/619 66/66/66
f 66/66/66 619/619/619 615/615/615
f 66/66/66 615/615/615 27/27/27
f 619/619/619 573/573/573 575/575/575
f 619/619/619 575/575/575 615/615/615
f 618/618/618 567/567/567 573/573/573
f 618/618/618 573/573/573 619/619/619
f 35/35/35 614/614/614 620/620/620
f 35/35/35 620/620/620 63/63/63
f 63/63/63 620/620/620 621/621/621
f 63/63/63 621/621/621 60/60/60
f 620/620/620 571/571/571 562/562/562
f 620/620/620 562/562/562 621/621/621
f 614/614/614 568/568/568 571/571/571
f 614/614/614 571/571/571 620/620/620
f 60/60/60 621/621/621 622/622/622
f 60/60/60 622/622/622 58/58/58
f 58/58/58 622/622/622 618/618/618
f 58/58/58 618/618/618 59/59/59
f 622/622/622 565/565/565 567/567/567
f 622/622/622 567/567/567 618/618/618
f 621/621/621 562/562/562 565/565/565
f 621/621/621 565/565/565 622/622/622
f 42/42/42 623/623/623 624/624/624
f 42/42/42 624/624/624 51/51/51
f 51/51/51 624/624/624 625/625/625
f 51/51/51 625/625/625 48/48/48
f 624/624/624 561/561/561 554/554/554
f 624/624/624 554/554/554 625/625/625
f 623/623/623 553/553/553 561/561/561
f 623/623/623 561/561/561 624/624/624
f 48/48/48 625/625/625 626/626/626
f 48/48/48 626/626/626 47/47/47
f 47/47/47 626/626/626 612/612/612
f 47/47/47 612/612/612 36/36/36
f 626/626/626 557/557/557 559/559/559
f 626/626/626 559/559/559 612/612/612
f 625/625/625 554/554/554 557/557/557
f 625/625/625 557/557/557 626/626/626
f 26/26/26 617/617/617 627/627/627
f 26/26/26 627/627/627 41/41/41
f 41/41/41 627/627/627 623/623/623
f 41/41/41 623/623/623 42/42/42
f 627/627/627 551/551/551 553/553/553
f 627/627/627 553/553/553 623/623/623
f 617/617/617 548/548/548 551/551/551
f 617/617/617 551/551/551 627/627/627
f 483/483/483 480/480/480 479/479/479
f 479/479/479 467/467/467 466/466/466
f 466/466/466 468/468/468 495/495/495
f 495/495/495 491/491/491 490/490/490
f 490/490/490 492/492/492 498/498/498
f 498/498/498 8/8/8 7/7/7
f 7/7/7 9/9/9 473/473/473
f 473/473/473 474/474/474 483/483/483
f 483/483/483 479/479/479 466/466/466
f 466/466/466 495/495/495 490/490/490
f 490/490/490 498/498/498 7/7/7
f 7/7/7 473/473/473 483/483/483
f 483/483/483 466/466/466 490/490/490
f 490/490/490 7/7/7 483/483/483
