v 0.203902 -3.01892 1.31974
v 0.266283 -3.04585 1.31929
v 0.292548 -1.79203 1.32206
v 0.147885 -2.98387 1.32004
v 0.334473 -3.0547 1.31873
v 0.407005 -3.03706 1.31818
v 0.100196 -2.9468 1.32033
v 0.0627662 -2.91122 1.32075
v 0.47456 -3.00362 1.31773
v 0.529469 -2.96458 1.31746
v 0.580797 -2.91715 1.31729
v 0.638128 -2.8532 1.31715
v 0.698122 -2.76124 1.31705
v 0.755642 -2.63108 1.31703
v 0.810196 -2.47492 1.31699
v 0.858994 -2.31058 1.31691
v 0.887194 -2.1682 1.31703
v 0.883721 -2.07509 1.31756
v 0.874451 -2.02432 1.31805
v 0.885096 -2.00031 1.31805
v 0.906658 -1.96707 1.31774
v 0.925048 -1.89285 1.31739
v 0.935681 -1.78744 1.31717
v 0.936119 -1.665 1.31724
v 0.926622 -1.53068 1.31755
v 0.906022 -1.3878 1.31809
v 0.869883 -1.24741 1.31903
v 0.814255 -1.12189 1.32047
v 0.74812 -1.01965 1.3218
v 0.677799 -0.947193 1.32251
v 0.591628 -0.895944 1.32324
v 0.482628 -0.858009 1.32458
v 0.387896 -0.832654 1.32584
v 0.343943 -0.820907 1.32626
v 0.333876 -0.817214 1.32619
v 0.293539 -0.944685 1.32498
v 0.195063 -0.560739 1.3257
v 0.140155 -0.527174 1.32601
v 0.0967022 -0.498328 1.3263
v 0.0685642 -0.475072 1.32665
v 0.0484776 -0.461903 1.32697
v 0.0291049 -0.469272 1.32718
v 0.00998153 -0.522081 1.32719
v -0.00727828 -0.636702 1.32699
v -0.0200011 -0.75928 1.32684
v -0.0268958 -0.841049 1.32693
v -0.0353559 -0.919192 1.32695
v -0.051205 -1.03255 1.3266
v -0.0647163 -1.14229 1.3261
v -0.0664063 -1.20484 1.32569
v -0.0644548 -1.23798 1.32552
v -0.0689942 -1.27099 1.3256
v -0.0818822 -1.3314 1.32559
v -0.102598 -1.44219 1.32513
v -0.125503 -1.59693 1.32438
v -0.144653 -1.78145 1.32357
v -0.156947 -1.95917 1.32299
v -0.160311 -2.09749 1.32285
v -0.157262 -2.20518 1.32285
v -0.150466 -2.2962 1.32271
v -0.14177 -2.37872 1.32252
v -0.132138 -2.4573 1.32244
v -0.120863 -2.53251 1.32248
v -0.106323 -2.60376 1.3226
v -0.0858324 -2.6715 1.32266
v -0.0574539 -2.73528 1.32253
v -0.0261783 -2.79165 1.32222
v 0.00315862 -2.83726 1.32177
v 0.0318016 -2.87571 1.32126
v 0.372683 -0.748882 1.32544
v 0.2545 -0.59794 1.32531
v 0.306442 -0.632086 1.325
v 0.341296 -0.657366 1.32497
v 0.33639 -0.816168 1.32609
v 0.351249 -0.815926 1.32597
v 0.381049 -0.815627 1.32576
v 0.413829 -0.814669 1.32554
v 0.437853 -0.812401 1.32543
v 0.455402 -0.808073 1.32538
v 0.469174 -0.800248 1.32533
v 0.472691 -0.785961 1.32529
v 0.458886 -0.762691 1.32525
v 0.432708 -0.734416 1.32521
v 0.40062 -0.70574 1.32516
v 0.369131 -0.679716 1.32508
v 0.203901 -3.01892 1.31941
v 0.147884 -2.98387 1.31971
v 0.292547 -1.79203 1.32172
v 0.266282 -3.04585 1.31895
v 0.334472 -3.0547 1.31839
v 0.407004 -3.03706 1.31784
v 0.100195 -2.9468 1.31999
v 0.062765 -2.91122 1.32041
v 0.474559 -3.00362 1.31739
v 0.529468 -2.96458 1.31712
v 0.580796 -2.91715 1.31695
v 0.638127 -2.8532 1.31681
v 0.698121 -2.76124 1.31672
v 0.755641 -2.63108 1.31669
v 0.810195 -2.47492 1.31666
v 0.858993 -2.31058 1.31657
v 0.887193 -2.16819 1.3167
v 0.883719 -2.07509 1.31722
v 0.87445 -2.02432 1.31771
v 0.885095 -2.00031 1.31771
v 0.906657 -1.96707 1.3174
v 0.925047 -1.89285 1.31705
v 0.93568 -1.78744 1.31683
v 0.936117 -1.665 1.3169
v 0.926621 -1.53068 1.31721
v 0.906021 -1.3878 1.31775
v 0.869882 -1.24741 1.31869
v 0.814254 -1.12189 1.32013
v 0.748119 -1.01965 1.32146
v 0.677798 -0.947193 1.32217
v 0.591627 -0.895944 1.3229
v 0.482627 -0.858009 1.32424
v 0.387895 -0.832654 1.3255
v 0.343942 -0.820907 1.32592
v 0.333875 -0.817214 1.32585
v 0.293537 -0.944685 1.32464
v 0.195062 -0.560739 1.32537
v 0.140154 -0.527174 1.32568
v 0.096701 -0.498328 1.32596
v 0.0685631 -0.475071 1.32631
v 0.0484764 -0.461902 1.32664
v 0.0291038 -0.469272 1.32684
v 0.00998037 -0.522081 1.32685
v -0.00727944 -0.636702 1.32666
v -0.0200022 -0.75928 1.32651
v -0.026897 -0.841049 1.32659
v -0.0353571 -0.919191 1.32661
v -0.0512062 -1.03255 1.32627
v -0.0647175 -1.14229 1.32576
v -0.0664075 -1.20484 1.32535
v -0.064456 -1.23798 1.32518
v -0.0689954 -1.27099 1.32526
v -0.0818834 -1.3314 1.32525
v -0.102599 -1.44219 1.32479
v -0.125504 -1.59693 1.32404
v -0.144655 -1.78145 1.32323
v -0.156948 -1.95917 1.32266
v -0.160312 -2.09749 1.32251
v -0.157263 -2.20518 1.32251
v -0.150467 -2.2962 1.32237
v -0.141771 -2.37872 1.32218
v -0.132139 -2.4573 1.3221
v -0.120864 -2.53251 1.32214
v -0.106324 -2.60376 1.32226
v -0.0858335 -2.6715 1.32233
v -0.0574551 -2.73528 1.32219
v -0.0261795 -2.79165 1.32188
v 0.00315745 -2.83726 1.32143
v 0.0318004 -2.87571 1.32092
v 0.254499 -0.59794 1.32497
v 0.372682 -0.748882 1.3251
v 0.306441 -0.632085 1.32467
v 0.341295 -0.657366 1.32464
v 0.336389 -0.816168 1.32576
v 0.351248 -0.815926 1.32564
v 0.381048 -0.815627 1.32542
v 0.413828 -0.814669 1.32521
v 0.437851 -0.812401 1.32509
v 0.455401 -0.808073 1.32504
v 0.469172 -0.800248 1.325
v 0.47269 -0.78596 1.32495
v 0.458885 -0.762691 1.32491
v 0.432707 -0.734416 1.32487
v 0.400619 -0.70574 1.32482
v 0.369129 -0.679715 1.32474
v -0.144654 -1.78145 1.3234
v -0.156947 -1.95917 1.32282
v 0.147884 -2.98387 1.31987
v 0.203902 -3.01892 1.31958
v 0.814254 -1.12189 1.3203
v 0.74812 -1.01965 1.32163
v -0.125503 -1.59693 1.32421
v 0.266283 -3.04585 1.31912
v 0.869882 -1.24741 1.31886
v -0.102598 -1.44219 1.32496
v 0.334472 -3.0547 1.31856
v 0.906022 -1.3878 1.31792
v -0.0818828 -1.3314 1.32542
v 0.926621 -1.53068 1.31738
v -0.0689948 -1.27099 1.32543
v 0.936118 -1.665 1.31707
v -0.0644554 -1.23798 1.32535
v 0.93568 -1.78744 1.317
v 0.36913 -0.679715 1.32491
v 0.341296 -0.657366 1.32481
v -0.0664069 -1.20484 1.32552
v 0.925048 -1.89285 1.31722
v 0.306441 -0.632086 1.32484
v -0.0647169 -1.14229 1.32593
v 0.906658 -1.96707 1.31757
v 0.400619 -0.70574 1.32499
v -0.0512056 -1.03255 1.32643
v 0.885095 -2.00031 1.31788
v 0.432708 -0.734416 1.32504
v -0.0353565 -0.919191 1.32678
v 0.874451 -2.02432 1.31788
v 0.458886 -0.762691 1.32508
v -0.0268964 -0.841049 1.32676
v 0.88372 -2.07509 1.31739
v 0.47269 -0.78596 1.32512
v -0.0200016 -0.75928 1.32667
v 0.031801 -2.87571 1.32109
v 0.0627656 -2.91122 1.32058
v 0.887194 -2.16819 1.31686
v 0.469173 -0.800248 1.32517
v -0.00727886 -0.636702 1.32683
v 0.100196 -2.9468 1.32016
v 0.858993 -2.31058 1.31674
v 0.455401 -0.808073 1.32521
v 0.00998095 -0.522081 1.32702
v 0.810195 -2.47492 1.31683
v 0.437852 -0.812401 1.32526
v 0.0291044 -0.469272 1.32701
v 0.00315803 -2.83726 1.3216
v 0.755642 -2.63108 1.31686
v 0.413828 -0.814669 1.32538
v 0.048477 -0.461903 1.32681
v -0.0261789 -2.79165 1.32205
v 0.698121 -2.76124 1.31689
v 0.381048 -0.815627 1.32559
v 0.0685636 -0.475072 1.32648
v -0.0574545 -2.73528 1.32236
v 0.638128 -2.8532 1.31698
v 0.351248 -0.815926 1.3258
v 0.0967016 -0.498328 1.32613
v -0.0858329 -2.6715 1.3225
v 0.580796 -2.91715 1.31712
v 0.336389 -0.816168 1.32592
v 0.140155 -0.527174 1.32584
v -0.106323 -2.60376 1.32243
v 0.529469 -2.96458 1.31729
v 0.333875 -0.817214 1.32602
v 0.195063 -0.560739 1.32553
v -0.120864 -2.53251 1.32231
v 0.47456 -3.00362 1.31756
v 0.343942 -0.820907 1.32609
v 0.254499 -0.59794 1.32514
v -0.132138 -2.4573 1.32227
v 0.407005 -3.03706 1.31801
v -0.14177 -2.37872 1.32235
v 0.387895 -0.832654 1.32567
v -0.150466 -2.2962 1.32254
v 0.482627 -0.858009 1.32441
v -0.157263 -2.20518 1.32268
v 0.591627 -0.895944 1.32307
v -0.160311 -2.09749 1.32268
v 0.677799 -0.947193 1.32234
vt 0 1
vt 0 1
vt 0 1
vt 0 1
vt 0 1
vt 0 1
vt 0 1
vt 0 1
vt 0 1
vt 0 1
vt 0 1
vt 0 1
vt 0 1
vt 0 1
vt 0 1
vt 0 1
vt 0 1
vt 0 1
vt 0 1
vt 0 1
vt 0 1
vt 0 1
vt 0 1
vt 0 1
vt 0 1
vt 0 1
vt 0 1
vt 0 1
vt 0 1
vt 0 1
vt 0 1
vt 0 1
vt 0 1
vt 0 1
vt 0 1
vt 0 1
vt 0 1
vt 0 1
vt 0 1
vt 0 1
vt 0 1
vt 0 1
vt 0 1
vt 0 1
vt 0 1
vt 0 1
vt 0 1
vt 0 1
vt 0 1
vt 0 1
vt 0 1
vt 0 1
vt 0 1
vt 0 1
vt 0 1
vt 0 1
vt 0 1
vt 0 1
vt 0 1
vt 0 1
vt 0 1
vt 0 1
vt 0 1
vt 0 1
vt 0 1
vt 0 1
vt 0 1
vt 0 1
vt 0 1
vt 0 1
vt 0 1
vt 0 1
vt 0 1
vt 0 1
vt 0 1
vt 0 1
vt 0 1
vt 0 1
vt 0 1
vt 0 1
vt 0 1
vt 0 1
vt 0 1
vt 0 1
vt 0 1
vt 0 1
vt 0 1
vt 0 1
vt 0 1
vt 0 1
vt 0 1
vt 0 1
vt 0 1
vt 0 1
vt 0 1
vt 0 1
vt 0 1
vt 0 1
vt 0 1
vt 0 1
vt 0 1
vt 0 1
vt 0 1
vt 0 1
vt 0 1
vt 0 1
vt 0 1
vt 0 1
vt 0 1
vt 0 1
vt 0 1
vt 0 1
vt 0 1
vt 0 1
vt 0 1
vt 0 1
vt 0 1
vt 0 1
vt 0 1
vt 0 1
vt 0 1
vt 0 1
vt 0 1
vt 0 1
vt 0 1
vt 0 1
vt 0 1
vt 0 1
vt 0 1
vt 0 1
vt 0 1
vt 0 1
vt 0 1
vt 0 1
vt 0 1
vt 0 1
vt 0 1
vt 0 1
vt 0 1
vt 0 1
vt 0 1
vt 0 1
vt 0 1
vt 0 1
vt 0 1
vt 0 1
vt 0 1
vt 0 1
vt 0 1
vt 0 1
vt 0 1
vt 0 1
vt 0 1
vt 0 1
vt 0 1
vt 0 1
vt 0 1
vt 0 1
vt 0 1
vt 0 1
vt 0 1
vt 0 1
vt 0 1
vt 0 1
vt 0 1
vt 0 1
vt 0 1
vt 0 1
vt 0 1
vt 0 1
vt 0 1
vt 0 1
vt 0 1
vt 0 1
vt 0 1
vt 0 1
vt 0 1
vt 0 1
vt 0 1
vt 0 1
vt 0 1
vt 0 1
vt 0 1
vt 0 1
vt 0 1
vt 0 1
vt 0 1
vt 0 1
vt 0 1
vt 0 1
vt 0 1
vt 0 1
vt 0 1
vt 0 1
vt 0 1
vt 0 1
vt 0 1
vt 0 1
vt 0 1
vt 0 1
vt 0 1
vt 0 1
vt 0 1
vt 0 1
vt 0 1
vt 0 1
vt 0 1
vt 0 1
vt 0 1
vt 0 1
vt 0 1
vt 0 1
vt 0 1
vt 0 1
vt 0 1
vt 0 1
vt 0 1
vt 0 1
vt 0 1
vt 0 1
vt 0 1
vt 0 1
vt 0 1
vt 0 1
vt 0 1
vt 0 1
vt 0 1
vt 0 1
vt 0 1
vt 0 1
vt 0 1
vt 0 1
vt 0 1
vt 0 1
vt 0 1
vt 0 1
vt 0 1
vt 0 1
vt 0 1
vt 0 1
vt 0 1
vt 0 1
vt 0 1
vt 0 1
vt 0 1
vt 0 1
vt 0 1
vt 0 1
vt 0 1
vt 0 1
vt 0 1
vt 0 1
vn -0.3323 -0.6414 0.6914
vn -0.1905 -0.7106 0.6773
vn 0.005615 -0.002777 1
vn -0.4075 -0.59 0.697
vn 0.04563 -0.7436 0.6671
vn 0.2544 -0.6869 0.6807
vn -0.4641 -0.5463 0.6972
vn -0.5129 -0.4988 0.6987
vn 0.3759 -0.6222 0.6867
vn 0.4583 -0.5605 0.6897
vn 0.5143 -0.5047 0.6934
vn 0.5772 -0.4415 0.6869
vn 0.6399 -0.3465 0.6859
vn 0.669 -0.2641 0.6947
vn 0.6815 -0.2198 0.698
vn 0.7 -0.1733 0.6928
vn 0.7329 -0.06 0.6777
vn 0.7219 0.07562 0.6879
vn 0.759 -0.09482 0.6442
vn 0.6082 -0.3278 0.7229
vn 0.684 -0.2926 0.6681
vn 0.716 -0.1222 0.6872
vn 0.7208 -0.03711 0.6921
vn 0.7189 0.02316 0.6947
vn 0.7151 0.07465 0.695
vn 0.7098 0.138 0.6907
vn 0.6902 0.2341 0.6847
vn 0.6422 0.3406 0.6867
vn 0.5746 0.4495 0.6839
vn 0.4608 0.5734 0.6773
vn 0.3134 0.6585 0.6842
vn 0.2171 0.6813 0.6991
vn 0.1905 0.6803 0.7077
vn 0.2065 0.6615 0.7209
vn 0.7742 0.1185 -0.6218
vn -0.009217 -0.002625 0.9999
vn 0.3724 0.6018 0.7065
vn 0.3812 0.5913 0.7107
vn 0.4334 0.5755 0.6935
vn 0.4343 0.5769 0.6917
vn 0.09104 0.7807 0.6182
vn -0.5513 0.5477 0.6293
vn -0.7023 0.1775 0.6894
vn -0.7029 0.08835 0.7057
vn -0.7014 0.06571 0.7097
vn -0.6961 0.06659 0.7148
vn -0.7009 0.0857 0.7081
vn -0.6992 0.09027 0.7092
vn -0.7138 0.04981 0.6986
vn -0.7145 -0.01465 0.6994
vn -0.7244 0.02719 0.6887
vn -0.6842 0.1192 0.7194
vn -0.693 0.1368 0.7078
vn -0.6989 0.1147 0.7059
vn -0.7043 0.08545 0.7047
vn -0.7062 0.05869 0.7055
vn -0.7093 0.03153 0.7041
vn -0.711 -0.002228 0.7032
vn -0.7092 -0.03699 0.7041
vn -0.7054 -0.06449 0.7059
vn -0.7024 -0.08124 0.7071
vn -0.7026 -0.0954 0.7051
vn -0.7013 -0.1233 0.7021
vn -0.6938 -0.1755 0.6984
vn -0.6735 -0.251 0.6952
vn -0.637 -0.3212 0.7007
vn -0.6077 -0.3686 0.7035
vn -0.5808 -0.41 0.7032
vn -0.5497 -0.4527 0.702
vn 0.001495 0.003754 1
vn 0.3844 0.5977 0.7036
vn 0.4099 0.5894 0.6961
vn 0.4365 0.5697 0.6963
vn 0.1346 -0.8962 -0.4227
vn 0.01456 -0.7058 0.7082
vn 0.01846 -0.7074 0.7066
vn 0.04801 -0.7115 0.701
vn 0.1233 -0.7122 0.691
vn 0.2741 -0.6828 0.6772
vn 0.6225 -0.4686 0.6269
vn 0.7692 0.1149 0.6286
vn 0.5859 0.438 0.6818
vn 0.5041 0.5138 0.6942
vn 0.4644 0.5418 0.7005
vn 0.4477 0.5521 0.7033
vn -0.3399 -0.6394 -0.6896
vn -0.4153 -0.5874 -0.6946
vn -0.005615 0.002777 -1
vn -0.1995 -0.708 -0.6774
vn 0.03577 -0.7417 -0.6698
vn 0.2451 -0.6856 -0.6854
vn -0.4721 -0.5421 -0.6951
vn -0.5228 -0.4935 -0.695
vn 0.3674 -0.6209 -0.6924
vn 0.4506 -0.5589 -0.6961
vn 0.508 -0.5022 -0.6998
vn 0.5708 -0.4391 -0.6937
vn 0.6336 -0.3442 -0.6929
vn 0.6627 -0.2616 -0.7017
vn 0.6744 -0.218 -0.7055
vn 0.6929 -0.1707 -0.7005
vn 0.7257 -0.0557 -0.6858
vn 0.7146 0.08139 -0.6947
vn 0.7561 -0.08518 -0.6489
vn 0.6022 -0.3278 -0.728
vn 0.6752 -0.2966 -0.6753
vn 0.7077 -0.1247 -0.6954
vn 0.7128 -0.03751 -0.7004
vn 0.7108 0.02475 -0.7029
vn 0.7068 0.07791 -0.7031
vn 0.6998 0.1443 -0.6996
vn 0.6787 0.242 -0.6934
vn 0.6313 0.348 -0.693
vn 0.5643 0.4569 -0.6875
vn 0.4494 0.5793 -0.68
vn 0.3012 0.6623 -0.686
vn 0.2031 0.6858 -0.6988
vn 0.1751 0.6865 -0.7057
vn 0.2138 0.6667 -0.714
vn 0.8805 -0.05921 0.4704
vn 0.009217 0.002625 -0.9999
vn 0.3727 0.6029 -0.7054
vn 0.3742 0.594 -0.7121
vn 0.423 0.5784 -0.6974
vn 0.4196 0.5804 -0.6979
vn 0.07932 0.7828 -0.6172
vn -0.5623 0.5482 -0.6191
vn -0.7091 0.1804 -0.6816
vn -0.7101 0.09122 -0.6981
vn -0.7109 0.06708 -0.7001
vn -0.7061 0.06839 -0.7047
vn -0.7094 0.08914 -0.6991
vn -0.7065 0.09445 -0.7014
vn -0.7173 0.05728 -0.6944
vn -0.7183 -0.008118 -0.6957
vn -0.73 0.02936 -0.6828
vn -0.692 0.122 -0.7115
vn -0.6992 0.1418 -0.7006
vn -0.7041 0.1202 -0.6998
vn -0.7085 0.09229 -0.6997
vn -0.7104 0.06375 -0.7009
vn -0.7133 0.03488 -0.7
vn -0.7149 -0.0005799 -0.6992
vn -0.7135 -0.03623 -0.6997
vn -0.7099 -0.06296 -0.7014
vn -0.7066 -0.07935 -0.7031
vn -0.7046 -0.09629 -0.703
vn -0.7027 -0.1251 -0.7003
vn -0.6969 -0.1759 -0.6952
vn -0.6773 -0.2514 -0.6914
vn -0.6456 -0.3182 -0.6941
vn -0.6179 -0.3643 -0.6967
vn -0.5939 -0.4036 -0.6959
vn -0.5643 -0.4455 -0.695
vn 0.3819 0.5969 -0.7056
vn -0.001495 -0.003754 -1
vn 0.3996 0.5825 -0.7078
vn 0.4282 0.5628 -0.707
vn 0.2335 -0.8872 0.3979
vn 0.004028 -0.7095 -0.7047
vn 0.009369 -0.7107 -0.7034
vn 0.04004 -0.7143 -0.6987
vn 0.1184 -0.7134 -0.6907
vn 0.2703 -0.6837 -0.6778
vn 0.6185 -0.4705 -0.6293
vn 0.7657 0.1125 -0.6332
vn 0.5831 0.4345 -0.6865
vn 0.5016 0.5095 -0.6991
vn 0.4631 0.5369 -0.7051
vn 0.4475 0.5465 -0.7078
vn -0.9963 0.08612 0.003449
vn -0.9989 0.04663 0.003449
vn -0.5728 -0.8197 0.002136
vn -0.4646 -0.8855 0.001343
vn 0.8796 0.4757 -0.003113
vn 0.7824 0.6227 -0.002594
vn -0.9922 0.1248 0.003479
vn -0.2651 -0.9642 -6.104e-05
vn 0.9445 0.3284 -0.003235
vn -0.9863 0.1651 0.003418
vn 0.05472 -0.9985 -0.000885
vn 0.9805 0.1963 -0.003296
vn -0.9805 0.1962 0.003418
vn 0.9943 0.1067 -0.003296
vn -0.985 0.1726 0.003449
vn 0.9994 0.03348 -0.003327
vn -0.9992 0.03891 0.003449
vn 0.9986 -0.05203 -0.003388
vn 0.6317 0.7752 -0.001923
vn 0.6069 0.7948 -0.001648
vn -0.9998 -0.01593 0.003418
vn 0.9853 -0.1708 -0.003418
vn 0.5683 0.8227 -0.001465
vn -0.9972 0.07465 0.003449
vn 0.9174 -0.3979 -0.003265
vn 0.6519 0.7583 -0.001862
vn -0.9915 0.1303 0.003449
vn 0.8793 -0.4762 -0.003388
vn 0.7009 0.7132 -0.002014
vn -0.9924 0.123 0.003449
vn 0.993 -0.1183 -0.003693
vn 0.8014 0.5981 -0.002472
vn -0.9954 0.09583 0.003449
vn 0.994 0.1087 -0.003388
vn 0.9892 0.1466 -0.003265
vn -0.9956 0.09363 0.003479
vn -0.7785 -0.6276 0.002594
vn -0.722 -0.6918 0.002197
vn 0.9969 -0.07898 -0.003418
vn 0.7974 -0.6034 -0.00296
vn -0.992 0.1261 0.003479
vn -0.6521 -0.7581 0.001984
vn 0.9708 -0.2398 -0.003296
vn 0.3701 -0.929 -0.00174
vn -0.9693 0.2459 0.003449
vn 0.9516 -0.3073 -0.003174
vn 0.1671 -0.9859 -0.00116
vn -0.7128 0.7013 0.002838
vn -0.822 -0.5694 0.002167
vn 0.9301 -0.3672 -0.003052
vn 0.06162 -0.9981 -0.000824
vn 0.1083 0.9941 0.0002441
vn -0.8582 -0.5133 0.002594
vn 0.879 -0.4768 -0.003082
vn 0.01962 -0.9998 -0.0005493
vn 0.5937 0.8046 -0.001526
vn -0.8949 -0.4462 0.003265
vn 0.7935 -0.6086 -0.003204
vn 0.01315 -0.9999 -0.0002441
vn 0.5959 0.803 -0.001556
vn -0.9372 -0.3486 0.002991
vn 0.7124 -0.7017 -0.00293
vn 0.2037 -0.979 -0.0008545
vn 0.5374 0.8433 -0.001312
vn -0.9695 -0.2449 0.003204
vn 0.6303 -0.7763 -0.002258
vn 0.9998 0.02087 -0.003235
vn 0.526 0.8504 -0.001465
vn -0.9847 -0.1742 0.003357
vn 0.5131 -0.8583 -0.001709
vn 0.3017 0.9534 -0.0006104
vn 0.5399 0.8417 -0.001587
vn -0.9908 -0.135 0.003296
vn 0.3421 -0.9397 -0.001404
vn -0.9935 -0.1133 0.003327
vn 0.2584 0.966 -0.0004578
vn -0.9959 -0.08966 0.003357
vn 0.2937 0.9559 -0.000763
vn -0.9987 -0.05139 0.003357
vn 0.4219 0.9066 -0.001282
vn -1 -0.001984 0.003418
vn 0.6197 0.7848 -0.001801
f 1/1/1 2/2/2 3/3/3
f 1/1/1 3/3/3 4/4/4
f 5/5/5 6/6/6 3/3/3
f 5/5/5 3/3/3 2/2/2
f 7/7/7 4/4/4 3/3/3
f 7/7/7 3/3/3 8/8/8
f 9/9/9 10/10/10 3/3/3
f 9/9/9 3/3/3 6/6/6
f 11/11/11 12/12/12 3/3/3
f 11/11/11 3/3/3 10/10/10
f 13/13/13 14/14/14 3/3/3
f 13/13/13 3/3/3 12/12/12
f 15/15/15 16/16/16 3/3/3
f 15/15/15 3/3/3 14/14/14
f 17/17/17 18/18/18 3/3/3
f 17/17/17 3/3/3 16/16/16
f 19/19/19 20/20/20 3/3/3
f 19/19/19 3/3/3 18/18/18
f 21/21/21 22/22/22 3/3/3
f 21/21/21 3/3/3 20/20/20
f 23/23/23 24/24/24 3/3/3
f 23/23/23 3/3/3 22/22/22
f 25/25/25 26/26/26 3/3/3
f 25/25/25 3/3/3 24/24/24
f 27/27/27 28/28/28 3/3/3
f 27/27/27 3/3/3 26/26/26
f 29/29/29 30/30/30 3/3/3
f 29/29/29 3/3/3 28/28/28
f 31/31/31 32/32/32 3/3/3
f 31/31/31 3/3/3 30/30/30
f 33/33/33 34/34/34 3/3/3
f 33/33/33 3/3/3 32/32/32
f 35/35/35 36/36/36 3/3/3
f 35/35/35 3/3/3 34/34/34
f 37/37/37 38/38/38 3/3/3
f 37/37/37 3/3/3 36/36/36
f 39/39/39 40/40/40 3/3/3
f 39/39/39 3/3/3 38/38/38
f 41/41/41 42/42/42 3/3/3
f 41/41/41 3/3/3 40/40/40
f 43/43/43 44/44/44 3/3/3
f 43/43/43 3/3/3 42/42/42
f 45/45/45 46/46/46 3/3/3
f 45/45/45 3/3/3 44/44/44
f 47/47/47 48/48/48 3/3/3
f 47/47/47 3/3/3 46/46/46
f 49/49/49 50/50/50 3/3/3
f 49/49/49 3/3/3 48/48/48
f 51/51/51 52/52/52 3/3/3
f 51/51/51 3/3/3 50/50/50
f 53/53/53 54/54/54 3/3/3
f 53/53/53 3/3/3 52/52/52
f 55/55/55 56/56/56 3/3/3
f 55/55/55 3/3/3 54/54/54
f 57/57/57 58/58/58 3/3/3
f 57/57/57 3/3/3 56/56/56
f 59/59/59 60/60/60 3/3/3
f 59/59/59 3/3/3 58/58/58
f 61/61/61 62/62/62 3/3/3
f 61/61/61 3/3/3 60/60/60
f 63/63/63 64/64/64 3/3/3
f 63/63/63 3/3/3 62/62/62
f 65/65/65 66/66/66 3/3/3
f 65/65/65 3/3/3 64/64/64
f 67/67/67 68/68/68 3/3/3
f 67/67/67 3/3/3 66/66/66
f 69/69/69 8/8/8 3/3/3
f 69/69/69 3/3/3 68/68/68
f 37/37/37 36/36/36 70/70/70
f 37/37/37 70/70/70 71/71/71
f 72/72/72 71/71/71 70/70/70
f 72/72/72 70/70/70 73/73/73
f 35/35/35 74/74/74 36/36/36
f 74/74/74 70/70/70 36/36/36
f 75/75/75 76/76/76 70/70/70
f 75/75/75 70/70/70 74/74/74
f 77/77/77 78/78/78 70/70/70
f 77/77/77 70/70/70 76/76/76
f 79/79/79 80/80/80 70/70/70
f 79/79/79 70/70/70 78/78/78
f 81/81/81 82/82/82 70/70/70
f 81/81/81 70/70/70 80/80/80
f 83/83/83 84/84/84 70/70/70
f 83/83/83 70/70/70 82/82/82
f 85/85/85 73/73/73 70/70/70
f 85/85/85 70/70/70 84/84/84
f 86/86/86 87/87/87 88/88/88
f 86/86/86 88/88/88 89/89/89
f 90/90/90 89/89/89 88/88/88
f 90/90/90 88/88/88 91/91/91
f 92/92/92 93/93/93 88/88/88
f 92/92/92 88/88/88 87/87/87
f 94/94/94 91/91/91 88/88/88
f 94/94/94 88/88/88 95/95/95
f 96/96/96 95/95/95 88/88/88
f 96/96/96 88/88/88 97/97/97
f 98/98/98 97/97/97 88/88/88
f 98/98/98 88/88/88 99/99/99
f 100/100/100 99/99/99 88/88/88
f 100/100/100 88/88/88 101/101/101
f 102/102/102 101/101/101 88/88/88
f 102/102/102 88/88/88 103/103/103
f 104/104/104 103/103/103 88/88/88
f 104/104/104 88/88/88 105/105/105
f 106/106/106 105/105/105 88/88/88
f 106/106/106 88/88/88 107/107/107
f 108/108/108 107/107/107 88/88/88
f 108/108/108 88/88/88 109/109/109
f 110/110/110 109/109/109 88/88/88
f 110/110/110 88/88/88 111/111/111
f 112/112/112 111/111/111 88/88/88
f 112/112/112 88/88/88 113/113/113
f 114/114/114 113/113/113 88/88/88
f 114/114/114 88/88/88 115/115/115
f 116/116/116 115/115/115 88/88/88
f 116/116/116 88/88/88 117/117/117
f 118/118/118 117/117/117 88/88/88
f 118/118/118 88/88/88 119/119/119
f 120/120/120 119/119/119 88/88/88
f 120/120/120 88/88/88 121/121/121
f 122/122/122 121/121/121 88/88/88
f 122/122/122 88/88/88 123/123/123
f 124/124/124 123/123/123 88/88/88
f 124/124/124 88/88/88 125/125/125
f 126/126/126 125/125/125 88/88/88
f 126/126/126 88/88/88 127/127/127
f 128/128/128 127/127/127 88/88/88
f 128/128/128 88/88/88 129/129/129
f 130/130/130 129/129/129 88/88/88
f 130/130/130 88/88/88 131/131/131
f 132/132/132 131/131/131 88/88/88
f 132/132/132 88/88/88 133/133/133
f 134/134/134 133/133/133 88/88/88
f 134/134/134 88/88/88 135/135/135
f 136/136/136 135/135/135 88/88/88
f 136/136/136 88/88/88 137/137/137
f 138/138/138 137/137/137 88/88/88
f 138/138/138 88/88/88 139/139/139
f 140/140/140 139/139/139 88/88/88
f 140/140/140 88/88/88 141/141/141
f 142/142/142 141/141/141 88/88/88
f 142/142/142 88/88/88 143/143/143
f 144/144/144 143/143/143 88/88/88
f 144/144/144 88/88/88 145/145/145
f 146/146/146 145/145/145 88/88/88
f 146/146/146 88/88/88 147/147/147
f 148/148/148 147/147/147 88/88/88
f 148/148/148 88/88/88 149/149/149
f 150/150/150 149/149/149 88/88/88
f 150/150/150 88/88/88 151/151/151
f 152/152/152 151/151/151 88/88/88
f 152/152/152 88/88/88 153/153/153
f 154/154/154 153/153/153 88/88/88
f 154/154/154 88/88/88 93/93/93
f 122/122/122 155/155/155 156/156/156
f 122/122/122 156/156/156 121/121/121
f 157/157/157 158/158/158 156/156/156
f 157/157/157 156/156/156 155/155/155
f 120/120/120 121/121/121 159/159/159
f 121/121/121 156/156/156 159/159/159
f 160/160/160 159/159/159 156/156/156
f 160/160/160 156/156/156 161/161/161
f 162/162/162 161/161/161 156/156/156
f 162/162/162 156/156/156 163/163/163
f 164/164/164 163/163/163 156/156/156
f 164/164/164 156/156/156 165/165/165
f 166/166/166 165/165/165 156/156/156
f 166/166/166 156/156/156 167/167/167
f 168/168/168 167/167/167 156/156/156
f 168/168/168 156/156/156 169/169/169
f 170/170/170 169/169/169 156/156/156
f 170/170/170 156/156/156 158/158/158
f 171/171/171 141/141/141 142/142/142
f 171/171/171 142/142/142 172/172/172
f 173/173/173 87/87/87 86/86/86
f 173/173/173 86/86/86 174/174/174
f 175/175/175 113/113/113 114/114/114
f 175/175/175 114/114/114 176/176/176
f 177/177/177 140/140/140 141/141/141
f 177/177/177 141/141/141 171/171/171
f 174/174/174 86/86/86 89/89/89
f 174/174/174 89/89/89 178/178/178
f 179/179/179 112/112/112 113/113/113
f 179/179/179 113/113/113 175/175/175
f 180/180/180 139/139/139 140/140/140
f 180/180/180 140/140/140 177/177/177
f 178/178/178 89/89/89 90/90/90
f 178/178/178 90/90/90 181/181/181
f 182/182/182 111/111/111 112/112/112
f 182/182/182 112/112/112 179/179/179
f 183/183/183 138/138/138 139/139/139
f 183/183/183 139/139/139 180/180/180
f 184/184/184 110/110/110 111/111/111
f 184/184/184 111/111/111 182/182/182
f 185/185/185 137/137/137 138/138/138
f 185/185/185 138/138/138 183/183/183
f 186/186/186 109/109/109 110/110/110
f 186/186/186 110/110/110 184/184/184
f 187/187/187 136/136/136 137/137/137
f 187/187/187 137/137/137 185/185/185
f 188/188/188 108/108/108 109/109/109
f 188/188/188 109/109/109 186/186/186
f 189/189/189 170/170/170 158/158/158
f 189/189/189 158/158/158 190/190/190
f 191/191/191 135/135/135 136/136/136
f 191/191/191 136/136/136 187/187/187
f 192/192/192 107/107/107 108/108/108
f 192/192/192 108/108/108 188/188/188
f 190/190/190 158/158/158 157/157/157
f 190/190/190 157/157/157 193/193/193
f 194/194/194 134/134/134 135/135/135
f 194/194/194 135/135/135 191/191/191
f 195/195/195 106/106/106 107/107/107
f 195/195/195 107/107/107 192/192/192
f 196/196/196 169/169/169 170/170/170
f 196/196/196 170/170/170 189/189/189
f 197/197/197 133/133/133 134/134/134
f 197/197/197 134/134/134 194/194/194
f 198/198/198 105/105/105 106/106/106
f 198/198/198 106/106/106 195/195/195
f 199/199/199 168/168/168 169/169/169
f 199/199/199 169/169/169 196/196/196
f 200/200/200 132/132/132 133/133/133
f 200/200/200 133/133/133 197/197/197
f 201/201/201 104/104/104 105/105/105
f 201/201/201 105/105/105 198/198/198
f 202/202/202 167/167/167 168/168/168
f 202/202/202 168/168/168 199/199/199
f 203/203/203 131/131/131 132/132/132
f 203/203/203 132/132/132 200/200/200
f 204/204/204 103/103/103 104/104/104
f 204/204/204 104/104/104 201/201/201
f 205/205/205 166/166/166 167/167/167
f 205/205/205 167/167/167 202/202/202
f 206/206/206 130/130/130 131/131/131
f 206/206/206 131/131/131 203/203/203
f 207/207/207 154/154/154 93/93/93
f 207/207/207 93/93/93 208/208/208
f 209/209/209 102/102/102 103/103/103
f 209/209/209 103/103/103 204/204/204
f 210/210/210 165/165/165 166/166/166
f 210/210/210 166/166/166 205/205/205
f 211/211/211 129/129/129 130/130/130
f 211/211/211 130/130/130 206/206/206
f 208/208/208 93/93/93 92/92/92
f 208/208/208 92/92/92 212/212/212
f 213/213/213 101/101/101 102/102/102
f 213/213/213 102/102/102 209/209/209
f 214/214/214 164/164/164 165/165/165
f 214/214/214 165/165/165 210/210/210
f 215/215/215 128/128/128 129/129/129
f 215/215/215 129/129/129 211/211/211
f 212/212/212 92/92/92 87/87/87
f 212/212/212 87/87/87 173/173/173
f 216/216/216 100/100/100 101/101/101
f 216/216/216 101/101/101 213/213/213
f 217/217/217 163/163/163 164/164/164
f 217/217/217 164/164/164 214/214/214
f 218/218/218 127/127/127 128/128/128
f 218/218/218 128/128/128 215/215/215
f 219/219/219 153/153/153 154/154/154
f 219/219/219 154/154/154 207/207/207
f 220/220/220 99/99/99 100/100/100
f 220/220/220 100/100/100 216/216/216
f 221/221/221 162/162/162 163/163/163
f 221/221/221 163/163/163 217/217/217
f 222/222/222 126/126/126 127/127/127
f 222/222/222 127/127/127 218/218/218
f 223/223/223 152/152/152 153/153/153
f 223/223/223 153/153/153 219/219/219
f 224/224/224 98/98/98 99/99/99
f 224/224/224 99/99/99 220/220/220
f 225/225/225 161/161/161 162/162/162
f 225/225/225 162/162/162 221/221/221
f 226/226/226 125/125/125 126/126/126
f 226/226/226 126/126/126 222/222/222
f 227/227/227 151/151/151 152/152/152
f 227/227/227 152/152/152 223/223/223
f 228/228/228 97/97/97 98/98/98
f 228/228/228 98/98/98 224/224/224
f 229/229/229 160/160/160 161/161/161
f 229/229/229 161/161/161 225/225/225
f 230/230/230 124/124/124 125/125/125
f 230/230/230 125/125/125 226/226/226
f 231/231/231 150/150/150 151/151/151
f 231/231/231 151/151/151 227/227/227
f 232/232/232 96/96/96 97/97/97
f 232/232/232 97/97/97 228/228/228
f 233/233/233 159/159/159 160/160/160
f 233/233/233 160/160/160 229/229/229
f 234/234/234 123/123/123 124/124/124
f 234/234/234 124/124/124 230/230/230
f 235/235/235 149/149/149 150/150/150
f 235/235/235 150/150/150 231/231/231
f 236/236/236 95/95/95 96/96/96
f 236/236/236 96/96/96 232/232/232
f 237/237/237 120/120/120 159/159/159
f 237/237/237 159/159/159 233/233/233
f 238/238/238 122/122/122 123/123/123
f 238/238/238 123/123/123 234/234/234
f 239/239/239 148/148/148 149/149/149
f 239/239/239 149/149/149 235/235/235
f 240/240/240 94/94/94 95/95/95
f 240/240/240 95/95/95 236/236/236
f 241/241/241 119/119/119 120/120/120
f 241/241/241 120/120/120 237/237/237
f 242/242/242 155/155/155 122/122/122
f 242/242/242 122/122/122 238/238/238
f 243/243/243 147/147/147 148/148/148
f 243/243/243 148/148/148 239/239/239
f 244/244/244 91/91/91 94/94/94
f 244/244/244 94/94/94 240/240/240
f 245/245/245 146/146/146 147/147/147
f 245/245/245 147/147/147 243/243/243
f 181/181/181 90/90/90 91/91/91
f 181/181/181 91/91/91 244/244/244
f 246/246/246 118/118/118 119/119/119
f 246/246/246 119/119/119 241/241/241
f 193/193/193 157/157/157 155/155/155
f 193/193/193 155/155/155 242/242/242
f 247/247/247 145/145/145 146/146/146
f 247/247/247 146/146/146 245/245/245
f 248/248/248 117/117/117 118/118/118
f 248/248/248 118/118/118 246/246/246
f 249/249/249 144/144/144 145/145/145
f 249/249/249 145/145/145 247/247/247
f 250/250/250 116/116/116 117/117/117
f 250/250/250 117/117/117 248/248/248
f 251/251/251 143/143/143 144/144/144
f 251/251/251 144/144/144 249/249/249
f 252/252/252 115/115/115 116/116/116
f 252/252/252 116/116/116 250/250/250
f 172/172/172 142/142/142 143/143/143
f 172/172/172 143/143/143 251/251/251
f 176/176/176 114/114/114 115/115/115
f 176/176/176 115/115/115 252/252/252
f 29/29/29 176/176/176 252/252/252
f 29/29/29 252/252/252 30/30/30
f 57/57/57 172/172/172 251/251/251
f 57/57/57 251/251/251 58/58/58
f 30/30/30 252/252/252 250/250/250
f 30/30/30 250/250/250 31/31/31
f 58/58/58 251/251/251 249/249/249
f 58/58/58 249/249/249 59/59/59
f 31/31/31 250/250/250 248/248/248
f 31/31/31 248/248/248 32/32/32
f 59/59/59 249/249/249 247/247/247
f 59/59/59 247/247/247 60/60/60
f 32/32/32 248/248/248 246/246/246
f 32/32/32 246/246/246 33/33/33
f 60/60/60 247/247/247 245/245/245
f 60/60/60 245/245/245 61/61/61
f 72/72/72 193/193/193 242/242/242
f 72/72/72 242/242/242 71/71/71
f 33/33/33 246/246/246 241/241/241
f 33/33/33 241/241/241 34/34/34
f 5/5/5 181/181/181 244/244/244
f 5/5/5 244/244/244 6/6/6
f 61/61/61 245/245/245 243/243/243
f 61/61/61 243/243/243 62/62/62
f 6/6/6 244/244/244 240/240/240
f 6/6/6 240/240/240 9/9/9
f 62/62/62 243/243/243 239/239/239
f 62/62/62 239/239/239 63/63/63
f 71/71/71 242/242/242 238/238/238
f 71/71/71 238/238/238 37/37/37
f 34/34/34 241/241/241 237/237/237
f 34/34/34 237/237/237 35/35/35
f 9/9/9 240/240/240 236/236/236
f 9/9/9 236/236/236 10/10/10
f 63/63/63 239/239/239 235/235/235
f 63/63/63 235/235/235 64/64/64
f 37/37/37 238/238/238 234/234/234
f 37/37/37 234/234/234 38/38/38
f 35/35/35 237/237/237 233/233/233
f 35/35/35 233/233/233 74/74/74
f 10/10/10 236/236/236 232/232/232
f 10/10/10 232/232/232 11/11/11
f 64/64/64 235/235/235 231/231/231
f 64/64/64 231/231/231 65/65/65
f 38/38/38 234/234/234 230/230/230
f 38/38/38 230/230/230 39/39/39
f 74/74/74 233/233/233 229/229/229
f 74/74/74 229/229/229 75/75/75
f 11/11/11 232/232/232 228/228/228
f 11/11/11 228/228/228 12/12/12
f 65/65/65 231/231/231 227/227/227
f 65/65/65 227/227/227 66/66/66
f 39/39/39 230/230/230 226/226/226
f 39/39/39 226/226/226 40/40/40
f 75/75/75 229/229/229 225/225/225
f 75/75/75 225/225/225 76/76/76
f 12/12/12 228/228/228 224/224/224
f 12/12/12 224/224/224 13/13/13
f 66/66/66 227/227/227 223/223/223
f 66/66/66 223/223/223 67/67/67
f 40/40/40 226/226/226 222/222/222
f 40/40/40 222/222/222 41/41/41
f 76/76/76 225/225/225 221/221/221
f 76/76/76 221/221/221 77/77/77
f 13/13/13 224/224/224 220/220/220
f 13/13/13 220/220/220 14/14/14
f 67/67/67 223/223/223 219/219/219
f 67/67/67 219/219/219 68/68/68
f 41/41/41 222/222/222 218/218/218
f 41/41/41 218/218/218 42/42/42
f 77/77/77 221/221/221 217/217/217
f 77/77/77 217/217/217 78/78/78
f 14/14/14 220/220/220 216/216/216
f 14/14/14 216/216/216 15/15/15
f 68/68/68 219/219/219 207/207/207
f 68/68/68 207/207/207 69/69/69
f 42/42/42 218/218/218 215/215/215
f 42/42/42 215/215/215 43/43/43
f 78/78/78 217/217/217 214/214/214
f 78/78/78 214/214/214 79/79/79
f 15/15/15 216/216/216 213/213/213
f 15/15/15 213/213/213 16/16/16
f 7/7/7 212/212/212 173/173/173
f 7/7/7 173/173/173 4/4/4
f 43/43/43 215/215/215 211/211/211
f 43/43/43 211/211/211 44/44/44
f 79/79/79 214/214/214 210/210/210
f 79/79/79 210/210/210 80/80/80
f 16/16/16 213/213/213 209/209/209
f 16/16/16 209/209/209 17/17/17
f 8/8/8 208/208/208 212/212/212
f 8/8/8 212/212/212 7/7/7
f 44/44/44 211/211/211 206/206/206
f 44/44/44 206/206/206 45/45/45
f 80/80/80 210/210/210 205/205/205
f 80/80/80 205/205/205 81/81/81
f 17/17/17 209/209/209 204/204/204
f 17/17/17 204/204/204 18/18/18
f 69/69/69 207/207/207 208/208/208
f 69/69/69 208/208/208 8/8/8
f 45/45/45 206/206/206 203/203/203
f 45/45/45 203/203/203 46/46/46
f 81/81/81 205/205/205 202/202/202
f 81/81/81 202/202/202 82/82/82
f 18/18/18 204/204/204 201/201/201
f 18/18/18 201/201/201 19/19/19
f 46/46/46 203/203/203 200/200/200
f 46/46/46 200/200/200 47/47/47
f 82/82/82 202/202/202 199/199/199
f 82/82/82 199/199/199 83/83/83
f 19/19/19 201/201/201 198/198/198
f 19/19/19 198/198/198 20/20/20
f 47/47/47 200/200/200 197/197/197
f 47/47/47 197/197/197 48/48/48
f 83/83/83 199/199/199 196/196/196
f 83/83/83 196/196/196 84/84/84
f 20/20/20 198/198/198 195/195/195
f 20/20/20 195/195/195 21/21/21
f 48/48/48 197/197/197 194/194/194
f 48/48/48 194/194/194 49/49/49
f 84/84/84 196/196/196 189/189/189
f 84/84/84 189/189/189 85/85/85
f 21/21/21 195/195/195 192/192/192
f 21/21/21 192/192/192 22/22/22
f 49/49/49 194/194/194 191/191/191
f 49/49/49 191/191/191 50/50/50
f 73/73/73 190/190/190 193/193/193
f 73/73/73 193/193/193 72/72/72
f 22/22/22 192/192/192 188/188/188
f 22/22/22 188/188/188 23/23/23
f 50/50/50 191/191/191 187/187/187
f 50/50/50 187/187/187 51/51/51
f 85/85/85 189/189/189 190/190/190
f 85/85/85 190/190/190 73/73/73
f 23/23/23 188/188/188 186/186/186
f 23/23/23 186/186/186 24/24/24
f 51/51/51 187/187/187 185/185/185
f 51/51/51 185/185/185 52/52/52
f 24/24/24 186/186/186 184/184/184
f 24/24/24 184/184/184 25/25/25
f 52/52/52 185/185/185 183/183/183
f 52/52/52 183/183/183 53/53/53
f 25/25/25 184/184/184 182/182/182
f 25/25/25 182/182/182 26/26/26
f 53/53/53 183/183/183 180/180/180
f 53/53/53 180/180/180 54/54/54
f 26/26/26 182/182/182 179/179/179
f 26/26/26 179/179/179 27/27/27
f 2/2/2 178/178/178 181/181/181
f 2/2/2 181/181/181 5/5/5
f 54/54/54 180/180/180 177/177/177
f 54/54/54 177/177/177 55/55/55
f 27/27/27 179/179/179 175/175/175
f 27/27/27 175/175/175 28/28/28
f 1/1/1 174/174/174 178/178/178
f 1/1/1 178/178/178 2/2/2
f 55/55/55 177/177/177 171/171/171
f 55/55/55 171/171/171 56/56/56
f 28/28/28 175/175/175 176/176/176
f 28/28/28 176/176/176 29/29/29
f 4/4/4 173/173/173 174/174/174
f 4/4/4 174/174/174 1/1/1
f 56/56/56 171/171/171 172/172/172
f 56/56/56 172/172/172 57/57/57
